<?xml version="1.0" encoding="utf-8"?>
<!-- Generator: Adobe Illustrator 23.1.1, SVG Export Plug-In . SVG Version: 6.00 Build 0)  -->
<svg version="1.1" id="Layer_1" xmlns="http://www.w3.org/2000/svg" xmlns:xlink="http://www.w3.org/1999/xlink" x="0px" y="0px"
	 viewBox="0 0 1980 1200" style="enable-background:new 0 0 1980 1200;" xml:space="preserve">
<style type="text/css">
	.st0{fill:url(#SVGID_1_);}
	.st1{clip-path:url(#SVGID_3_);}
	.st2{fill:#371786;}
	.st3{clip-path:url(#SVGID_5_);}
	.st4{clip-path:url(#SVGID_7_);}
	.st5{clip-path:url(#SVGID_9_);}
	.st6{clip-path:url(#SVGID_11_);}
	.st7{clip-path:url(#SVGID_13_);}
	.st8{clip-path:url(#SVGID_15_);}
	.st9{clip-path:url(#SVGID_17_);}
	.st10{clip-path:url(#SVGID_19_);}
	.st11{clip-path:url(#SVGID_21_);}
	.st12{clip-path:url(#SVGID_23_);}
	.st13{clip-path:url(#SVGID_25_);}
	.st14{clip-path:url(#SVGID_27_);}
	.st15{clip-path:url(#SVGID_29_);}
	.st16{clip-path:url(#SVGID_31_);}
	.st17{clip-path:url(#SVGID_33_);}
	.st18{clip-path:url(#SVGID_35_);}
	.st19{clip-path:url(#SVGID_37_);}
	.st20{clip-path:url(#SVGID_39_);}
	.st21{fill:#442B9F;}
	.st22{clip-path:url(#SVGID_41_);}
	.st23{clip-path:url(#SVGID_43_);}
	.st24{clip-path:url(#SVGID_45_);}
	.st25{clip-path:url(#SVGID_47_);}
	.st26{clip-path:url(#SVGID_49_);}
	.st27{clip-path:url(#SVGID_51_);}
	.st28{clip-path:url(#SVGID_53_);}
	.st29{clip-path:url(#SVGID_55_);}
	.st30{clip-path:url(#SVGID_57_);}
	.st31{clip-path:url(#SVGID_59_);}
	.st32{clip-path:url(#SVGID_61_);}
	.st33{clip-path:url(#SVGID_63_);}
	.st34{clip-path:url(#SVGID_65_);}
	.st35{clip-path:url(#SVGID_67_);}
	.st36{clip-path:url(#SVGID_69_);}
	.st37{clip-path:url(#SVGID_71_);}
	.st38{clip-path:url(#SVGID_73_);}
	.st39{clip-path:url(#SVGID_75_);}
	.st40{fill:#6346CD;}
	.st41{clip-path:url(#SVGID_77_);}
	.st42{clip-path:url(#SVGID_79_);}
	.st43{clip-path:url(#SVGID_81_);}
	.st44{clip-path:url(#SVGID_83_);}
	.st45{clip-path:url(#SVGID_85_);}
	.st46{clip-path:url(#SVGID_87_);}
	.st47{clip-path:url(#SVGID_89_);}
	.st48{clip-path:url(#SVGID_91_);}
	.st49{clip-path:url(#SVGID_93_);}
	.st50{clip-path:url(#SVGID_95_);}
	.st51{clip-path:url(#SVGID_97_);}
	.st52{clip-path:url(#SVGID_99_);}
	.st53{clip-path:url(#SVGID_101_);}
	.st54{clip-path:url(#SVGID_103_);}
	.st55{clip-path:url(#SVGID_105_);}
	.st56{clip-path:url(#SVGID_107_);}
	.st57{clip-path:url(#SVGID_109_);}
	.st58{clip-path:url(#SVGID_111_);}
	.st59{clip-path:url(#SVGID_113_);}
	.st60{fill:url(#SVGID_114_);}
	.st61{clip-path:url(#SVGID_116_);}
	.st62{clip-path:url(#SVGID_118_);}
	.st63{fill:url(#SVGID_119_);}
	.st64{clip-path:url(#SVGID_121_);}
	.st65{clip-path:url(#SVGID_123_);}
	.st66{fill:url(#SVGID_124_);}
	.st67{clip-path:url(#SVGID_126_);}
	.st68{clip-path:url(#SVGID_128_);}
	.st69{fill:url(#SVGID_129_);}
	.st70{clip-path:url(#SVGID_131_);}
	.st71{clip-path:url(#SVGID_133_);}
	.st72{fill:url(#SVGID_134_);}
	.st73{clip-path:url(#SVGID_136_);}
	.st74{clip-path:url(#SVGID_138_);}
	.st75{fill:url(#SVGID_139_);}
	.st76{clip-path:url(#SVGID_141_);}
	.st77{clip-path:url(#SVGID_143_);}
	.st78{fill:url(#SVGID_144_);}
	.st79{clip-path:url(#SVGID_146_);}
	.st80{clip-path:url(#SVGID_148_);}
	.st81{fill:url(#SVGID_149_);}
	.st82{clip-path:url(#SVGID_151_);}
	.st83{clip-path:url(#SVGID_153_);}
	.st84{fill:url(#SVGID_154_);}
	.st85{clip-path:url(#SVGID_156_);}
	.st86{clip-path:url(#SVGID_158_);}
	.st87{fill:url(#SVGID_159_);}
	.st88{clip-path:url(#SVGID_161_);}
	.st89{clip-path:url(#SVGID_163_);}
	.st90{fill:url(#SVGID_164_);}
	.st91{clip-path:url(#SVGID_166_);}
	.st92{clip-path:url(#SVGID_168_);}
	.st93{fill:url(#SVGID_169_);}
	.st94{clip-path:url(#SVGID_171_);}
	.st95{clip-path:url(#SVGID_173_);}
	.st96{fill:url(#SVGID_174_);}
	.st97{clip-path:url(#SVGID_176_);}
	.st98{clip-path:url(#SVGID_178_);}
	.st99{fill:url(#SVGID_179_);}
	.st100{clip-path:url(#SVGID_181_);}
	.st101{clip-path:url(#SVGID_183_);}
	.st102{fill:url(#SVGID_184_);}
	.st103{clip-path:url(#SVGID_186_);}
	.st104{clip-path:url(#SVGID_188_);}
	.st105{fill:url(#SVGID_189_);}
	.st106{clip-path:url(#SVGID_191_);}
	.st107{fill:url(#SVGID_192_);}
	.st108{clip-path:url(#SVGID_194_);}
	.st109{fill:url(#SVGID_195_);}
</style>
<g>
	
		<linearGradient id="SVGID_1_" gradientUnits="userSpaceOnUse" x1="1" y1="1201.0024" x2="2.0009" y2="1201.0024" gradientTransform="matrix(0 1198.88 1198.88 0 -1438867.875 -1196.89)">
		<stop  offset="0" style="stop-color:#5500B8"/>
		<stop  offset="1" style="stop-color:#210051"/>
		<stop  offset="1" style="stop-color:#210051"/>
	</linearGradient>
	<rect class="st0" width="1980" height="1200"/>
	<g>
		<g>
			<g>
				<g>
					<defs>
						<rect id="SVGID_2_" x="465.6" y="431.2" width="286.8" height="369.7"/>
					</defs>
					<clipPath id="SVGID_3_">
						<use xlink:href="#SVGID_2_"  style="overflow:visible;"/>
					</clipPath>
					<g class="st1">
						<path class="st2" d="M480,515.2c-1-10.5-0.6-21,1.3-31.4c1.9-9.5,4.8-17.1,8.8-22.9c5.1-0.1,13.4-0.6,24.9-1.5
							c11.5-0.8,22-1.7,31.6-2.5c6.4-0.6,16-1.7,28.8-3.5s26.5-3.5,41-5.3c14.5-1.7,27.3-3.1,38.4-4.1c16.9-1.5,31.3,1.8,43.2,9.7
							c11.9,7.9,18.8,21.8,20.5,41.5c0.8,10.2,0.2,20.5-1.9,30.5c-1.8,9.4-4.5,18.7-7.9,27.7c-3.2,8-5.7,13.2-7.8,15.6l-15,1.3
							c-6.8,0.6-14.8,1.6-24,3.1c-0.6,4.5-1.1,12.1-1.6,22.8c-0.5,10.6-0.9,23-1.1,37.2c-0.2,14.1-0.4,28.7-0.5,43.6
							s-0.2,29.1-0.1,42.6c0.1,13.5,0.3,25,0.6,34.6s0.7,16,1,19.2c-5.8,3.4-14.6,6.9-26.5,10.5s-26.7,6.2-44.6,7.8
							c-9.4,0.7-18.8,0.7-28.2,0c-9.2-0.6-18.4-1.8-27.5-3.6c-8.2-1.7-13.7-4-16.5-7c-1.8-18.3-2.3-36.7-1.4-55
							c0.8-19.8,2.3-39.3,4.3-58.4c2-19.1,4.2-36.4,6.5-51.8c2.3-15.4,4.3-27.3,5.8-35.4c-17.3-3.9-30-11.7-37.9-23.2
							s-12.6-25.5-14-42.1"/>
					</g>
				</g>
			</g>
		</g>
		<g>
			<g>
				<g>
					<defs>
						<rect id="SVGID_4_" x="504.6" y="564.1" width="136.5" height="97.4"/>
					</defs>
					<clipPath id="SVGID_5_">
						<use xlink:href="#SVGID_4_"  style="overflow:visible;"/>
					</clipPath>
					<g class="st3">
						<path class="st2" d="M531.9,580c4.8,0.2,10.4,0.4,16.7,0.5c8.9-0.1,17.9-0.6,26.8-1.6c11.6-1.2,27.7-3.2,48.4-5.9
							c2.9,3.9,3,10.6,0.3,20s-8.2,19.2-16.5,29.4c-8.2,10.2-19.5,18.9-33.8,26.1c-14.3,7.2-31.9,10.7-52.8,10.6
							c0.4-6.1,1.3-14,2.5-23.6s2.6-19.4,4.2-29.5C529.1,595.9,530.5,587.2,531.9,580"/>
					</g>
				</g>
			</g>
		</g>
		<g>
			<g>
				<g>
					<defs>
						<rect id="SVGID_6_" x="681" y="413.4" width="198.3" height="366.2"/>
					</defs>
					<clipPath id="SVGID_7_">
						<use xlink:href="#SVGID_6_"  style="overflow:visible;"/>
					</clipPath>
					<g class="st4">
						<path class="st2" d="M722.4,534.5L833.7,519c0.7,3.8,1.2,9.1,1.6,16c0.4,9.5,0.3,19-0.4,28.5c-0.7,12.1-2.5,27.7-5.3,46.9
							s-7.2,43-13,71.4c1.9-0.5,3.9-1.1,6.1-1.7s3.9-1.2,5.2-1.7c2.5,3.6,4.5,7.6,5.8,11.8c1.9,5.7,3.1,11.7,3.5,17.7
							c1.4,16.6-2.7,31.1-12.6,43.5s-25.3,19.5-46.3,21.4c-38.6,3.4-59.4-13.1-62.6-49.4c-0.8-10.6-0.9-21.2-0.4-31.8
							c0.6-13.8,1.8-27.6,3.8-41.2c2-14.2,4.9-28.3,8.6-42.2c-7.8-5.4-12.3-14.3-13.4-26.8c-0.9-8.4-0.5-16.9,1.2-25.1
							C717.2,548.8,719.5,541.5,722.4,534.5 M793.5,515.7c-9.1,0.8-18.3-0.3-27-3.2c-8.3-2.6-15.9-7.4-21.9-13.7
							c-5.8-6.2-9.2-14-10-23.2s1.1-17.4,5.8-24.6c4.8-7.3,11.4-13.3,19.2-17.3c8-4.4,16.9-7,26-7.8c9-0.8,18.2,0.3,26.8,3.2
							c8.3,2.7,15.7,7.4,21.7,13.7c5.8,6.2,9.2,14,10,23.2c1.2,13.7-2.9,25.1-12.4,34.1C822.2,509.2,809.4,514.4,793.5,515.7"/>
					</g>
				</g>
			</g>
		</g>
		<g>
			<g>
				<g>
					<defs>
						<rect id="SVGID_8_" x="703" y="594.8" width="102.5" height="76.2"/>
					</defs>
					<clipPath id="SVGID_9_">
						<use xlink:href="#SVGID_8_"  style="overflow:visible;"/>
					</clipPath>
					<g class="st5">
						<path class="st2" d="M727.9,608.1c3.1,2.3,7.2,3.9,12.5,4.9c5.6,1,11.3,1.2,16.9,0.7c7.5-0.6,15-1.8,22.3-3.6
							c6.3-1.7,10.2-2.7,11.8-3.2c1.2,3.1,0.3,7.6-2.7,13.5c-3.6,6.7-7.9,13-13,18.7c-5.7,6.6-12,12.5-19,17.8
							c-6.2,4.9-13.2,8.5-20.7,10.7c-6.9,1.9-13.1,1-18.5-2.7c1.3-10.4,2.8-20.8,4.5-31.2C723.2,625,725.2,616.4,727.9,608.1"/>
					</g>
				</g>
			</g>
		</g>
		<g>
			<g>
				<g>
					<defs>
						<rect id="SVGID_10_" x="733.6" y="602.1" width="111.8" height="93.1"/>
					</defs>
					<clipPath id="SVGID_11_">
						<use xlink:href="#SVGID_10_"  style="overflow:visible;"/>
					</clipPath>
					<g class="st6">
						<path class="st2" d="M749.8,693.4c0-7.1,2.8-15.2,8.5-24.3c6.1-9.7,13.2-18.7,21.2-26.9c8-8.3,16.9-15.8,26.5-22.3
							c9.1-6.1,17-9.4,23.7-10c-1.4,9.8-3.2,21.5-5.6,35.4c-2.3,13.8-4.8,26-7.4,36.5c-3.8,1-9.9,2.3-18.4,4s-17.3,3.3-26.3,4.7
							C762.9,691.9,755.6,692.9,749.8,693.4"/>
					</g>
				</g>
			</g>
		</g>
		<g>
			<g>
				<g>
					<defs>
						<rect id="SVGID_12_" x="811.6" y="490.2" width="276.9" height="278.7"/>
					</defs>
					<clipPath id="SVGID_13_">
						<use xlink:href="#SVGID_12_"  style="overflow:visible;"/>
					</clipPath>
					<g class="st7">
						<path class="st2" d="M841.7,752.8c1-17.4,2.5-36,4.5-55.8s4.3-38.3,6.9-55.7c2.7-17.4,5.5-30.9,8.5-40.5
							c-12.2-4.1-19.1-14.2-20.5-30.5c-0.8-8.6-0.5-17.3,1.1-25.8c1.3-7.3,3.6-14.4,6.8-21.1l106.5-15.1l-1.6,9.3
							c6.6-3.6,13.5-6.6,20.6-9c8.9-3.1,18.2-5,27.7-5.8c18.8-1.6,33.2,2.2,43.1,11.4c10,9.2,15.7,22.8,17.3,40.6
							c0.7,8.3,0.4,18.7-0.9,31.4c-1.3,12.6-3.3,25.7-6,39c-2.4,12.2-5.5,24.2-9.4,36c2.7-0.7,5.4-1.6,8-2.6
							c2.5,3.6,4.5,7.6,5.8,11.8c1.9,5.8,3.1,11.7,3.5,17.8c1.5,16.6-3,31.1-13.3,43.5S1021,751.6,993,754c-6.6,0.5-13.3,0.6-20,0.3
							c-7.6-0.3-14.8-0.9-21.6-1.7c-5.3-0.5-10.6-1.6-15.7-3.2c-2.4,2.1-6.5,4.2-12.2,6.1c-5.9,2-12,3.6-18.1,5
							c-5.5,1.2-11,2.1-16.6,2.7c-9,0.5-18,0.4-27-0.5C853.4,761.7,846.7,758.4,841.7,752.8"/>
					</g>
				</g>
			</g>
		</g>
		<g>
			<g>
				<g>
					<defs>
						<rect id="SVGID_14_" x="836.9" y="584.4" width="99.3" height="74.9"/>
					</defs>
					<clipPath id="SVGID_15_">
						<use xlink:href="#SVGID_14_"  style="overflow:visible;"/>
					</clipPath>
					<g class="st8">
						<path class="st2" d="M861.7,601.3c2.3,0.4,5.1,0.9,8.5,1.4c3.6,0.5,7.2,0.6,10.9,0.2c8.8-0.8,17.4-2.7,25.8-5.6
							c8.6-3,13.6-4.7,15.2-5.2c1.2,3.1,0.4,7.7-2.4,13.9c-3.3,7-7.5,13.6-12.3,19.6c-5.3,6.8-11.3,13.1-17.9,18.7
							c-6.6,5.5-13.2,9.3-20,11.1c-6.3,2-13.1,0.8-18.3-3.2c1.1-5.5,2.3-11.8,3.4-18.8s2.4-13.5,3.7-19.5
							C859.4,607.8,860.6,603.6,861.7,601.3"/>
					</g>
				</g>
			</g>
		</g>
		<g>
			<g>
				<g>
					<defs>
						<rect id="SVGID_16_" x="904.3" y="495" width="119.3" height="163"/>
					</defs>
					<clipPath id="SVGID_17_">
						<use xlink:href="#SVGID_16_"  style="overflow:visible;"/>
					</clipPath>
					<g class="st9">
						<path class="st2" d="M926.7,656.2L954,517.6c5.2-3,12.4-6.1,21.6-9.1c8.5-2.9,17.3-4.8,26.2-5.7c-0.1,2.3-1.6,7.4-4.4,15.5
							c-2.8,8.1-6.5,17.8-11.2,29.2c-4.6,11.3-9.8,23.2-15.4,35.5s-11.2,23.9-16.7,34.7c-4.6,9.3-9.8,18.2-15.5,26.9
							C933.8,651.8,929.8,655.6,926.7,656.2"/>
					</g>
				</g>
			</g>
		</g>
		<g>
			<g>
				<g>
					<defs>
						<rect id="SVGID_18_" x="910.4" y="554.1" width="119.1" height="206.6"/>
					</defs>
					<clipPath id="SVGID_19_">
						<use xlink:href="#SVGID_18_"  style="overflow:visible;"/>
					</clipPath>
					<g class="st10">
						<path class="st2" d="M935.8,749.3c6.9-50,16.4-90.2,28.7-120.5s25.2-52.6,38.7-66.9c2.2,6.6,2.2,16.3-0.1,29.1
							c-2.2,12.9-5.2,27.5-8.9,43.9s-6.8,33.7-9.4,51.9c-1.7,13-2.1,24.3-1.1,33.8s4.1,20.7,9.4,33.4c-6,0.4-12,0.6-18,0.4
							c-7.2-0.2-14.4-0.7-21.6-1.5C947.4,752.3,941.5,751.1,935.8,749.3"/>
					</g>
				</g>
			</g>
		</g>
		<g>
			<g>
				<g>
					<defs>
						<rect id="SVGID_20_" x="966.8" y="581.8" width="110.3" height="93"/>
					</defs>
					<clipPath id="SVGID_21_">
						<use xlink:href="#SVGID_20_"  style="overflow:visible;"/>
					</clipPath>
					<g class="st11">
						<path class="st2" d="M983,673c0-7.1,2.7-15.2,8.2-24.3c5.9-9.7,12.9-18.7,20.8-26.9c7.9-8.3,16.6-15.8,26-22.2
							c8.9-6.1,16.8-9.4,23.4-10c-0.5,7.7-1.5,15.3-3,22.9c-1.6,8.8-3.4,17.6-5.4,26.2c-1.7,7.6-3.8,15.1-6.5,22.5
							c-5.6,1.8-11.4,3.3-17.2,4.4c-8,1.7-16.3,3.2-24.9,4.6S988.8,672.5,983,673"/>
					</g>
				</g>
			</g>
		</g>
		<g>
			<g>
				<g>
					<defs>
						<rect id="SVGID_22_" x="1042.8" y="436.5" width="205.6" height="309.5"/>
					</defs>
					<clipPath id="SVGID_23_">
						<use xlink:href="#SVGID_22_"  style="overflow:visible;"/>
					</clipPath>
					<g class="st12">
						<path class="st2" d="M1068.8,591.3c-2-30.3,1.4-55.7,10.2-76.2c8.8-20.5,20.9-36.3,36.3-47.5c15.4-11.1,31.7-17.5,48.9-19
							c5.4-0.4,10.8-0.4,16.1,0c6,0.4,10.7,1.5,14,3.1l-5.7,39.5c9.5-0.8,16.7-1.9,21.4-3.3c3,3.6,5.4,7.7,7.1,12.1
							c1.9,4.8,3.1,11,3.8,18.7c1,10.8,0.5,21.7-1.5,32.4c-2,10.1-5.9,18.6-11.8,25.3c-5.8,6.8-13.8,10.6-24,11.5l-8.6,61.4
							c8.7-2.2,17.4-4.8,25.8-8c4.3,5.4,6.9,12.9,7.7,22.4c1.8,20.4-3.2,37.4-15,51.2s-29.5,21.6-53.1,23.7
							c-21.3,1.9-37.7-2.6-49.1-13.5s-18-26.2-19.7-46c-0.7-9.2-0.5-18.4,0.5-27.5c1-10.4,2.4-20.7,4.3-31s3.6-18.9,5.2-25.7
							c-2.3-0.4-4.5-1-6.6-1.6C1072.9,592.7,1070.9,592,1068.8,591.3"/>
					</g>
				</g>
			</g>
		</g>
		<g>
			<g>
				<g>
					<defs>
						<rect id="SVGID_24_" x="1057.7" y="580.1" width="119.6" height="73.8"/>
					</defs>
					<clipPath id="SVGID_25_">
						<use xlink:href="#SVGID_24_"  style="overflow:visible;"/>
					</clipPath>
					<g class="st13">
						<path class="st2" d="M1081.6,595c7.5,1.6,16.9,2,28,1.2s26.3-3.3,45.6-7.6c12.1,3.1,11.8,9.8-1.1,20.1s-40.2,24.8-81.9,43.5
							c0.8-9.7,2-19.4,3.7-29S1079.5,604.2,1081.6,595"/>
					</g>
				</g>
			</g>
		</g>
		<g>
			<g>
				<g>
					<defs>
						<rect id="SVGID_26_" x="1090.7" y="590" width="105.1" height="70.7"/>
					</defs>
					<clipPath id="SVGID_27_">
						<use xlink:href="#SVGID_26_"  style="overflow:visible;"/>
					</clipPath>
					<g class="st14">
						<path class="st2" d="M1105,658.9c4.1-8.1,8.8-16.8,14.1-26.3c5.6-9.8,13.3-18.1,22.7-24.4c9.8-6.8,23.3-10.1,40.3-10
							l-7.1,51.2c-5.3,1.1-12.4,2.4-21.3,3.8s-17.7,2.6-26.4,3.5C1118.5,657.7,1111.1,658.4,1105,658.9"/>
					</g>
				</g>
			</g>
		</g>
		<g>
			<g>
				<g>
					<defs>
						<rect id="SVGID_28_" x="1115.9" y="444" width="90.8" height="54.6"/>
					</defs>
					<clipPath id="SVGID_29_">
						<use xlink:href="#SVGID_28_"  style="overflow:visible;"/>
					</clipPath>
					<g class="st15">
						<path class="st2" d="M1128.8,496c0.4-10.3,4-18.6,10.8-24.8c7.2-6.4,15.7-11.2,25-14c9.6-3.1,19.6-4.9,29.6-5.5l-5.7,39.5
							c-9.8,1.2-19.7,2.1-29.6,2.8S1139,495.4,1128.8,496"/>
					</g>
				</g>
			</g>
		</g>
		<g>
			<g>
				<g>
					<defs>
						<rect id="SVGID_30_" x="1188.6" y="458" width="267.3" height="277.9"/>
					</defs>
					<clipPath id="SVGID_31_">
						<use xlink:href="#SVGID_30_"  style="overflow:visible;"/>
					</clipPath>
					<g class="st16">
						<path class="st2" d="M1364.8,721.4c-7.9,0.8-15.9,0.9-23.8,0.4c-7.2-0.6-14.3-1.9-21.3-3.7c-5.8,3-12,5.4-18.4,6.9
							c-7.1,1.9-14.3,3.2-21.6,3.8c-19.1,1.7-34.4-3.2-45.8-14.5s-18.3-30.1-20.6-56.2c-2.1-22.2-0.8-44.5,3.6-66.3
							c4.4-21.2,11.1-40.4,20.2-57.4s19.8-30.7,32-41.1c12.3-10.4,25.2-16.2,38.9-17.4c5.1-0.5,10.3-0.5,15.4,0.1
							c5.7,0.8,11.4,2.2,16.8,4.3c6.1-3.4,12.6-5.8,19.3-7.2c6.6-1.6,13.4-2.8,20.2-3.4c18.5-1.6,33.9,0.2,46.2,5.6
							c0.6,6.4,0.2,16.1-1,29.2s-3,27.6-5.4,43.3c-2.3,15.8-4.7,31.1-7.1,45.9s-4.5,27-6.2,36.4c3.1-0.9,5.7-1.6,7.8-2.1
							c2-0.5,3.7-1,4.9-1.4c2.2,3.8,4.1,7.7,5.6,11.8c2.1,5.7,3.3,11.7,3.7,17.7c1.7,19.1-3.6,34.3-15.7,45.7
							C1400.5,713.2,1384.5,719.7,1364.8,721.4"/>
					</g>
				</g>
			</g>
		</g>
		<g>
			<g>
				<g>
					<defs>
						<rect id="SVGID_32_" x="1230.2" y="465.5" width="133.7" height="192.3"/>
					</defs>
					<clipPath id="SVGID_33_">
						<use xlink:href="#SVGID_32_"  style="overflow:visible;"/>
					</clipPath>
					<g class="st17">
						<path class="st2" d="M1340.3,480.4c-2.8,11.8-6.8,25.4-11.8,40.8c-5.1,15.4-10.9,31.2-17.5,47.5s-13.5,31.6-20.8,45.9
							c-7.3,14.3-14.5,26.2-21.7,35.8c-4.6,6.2-8.3,6.7-11,1.4c-2.7-5.2-4.5-14-5.2-26.3c-0.8-14-0.7-28,0.2-41.9
							c0.9-15.6,2.6-31.1,5.1-46.4c2.5-15.3,5.9-28.3,10.1-38.9c1.9-4.3,5.5-8.1,10.8-11.3c5-3,10.2-5.6,15.7-7.6
							c5.1-1.9,8.3-2.9,9.6-3c6.4-0.7,12.8-0.7,19.2-0.2C1328.9,476.8,1334.7,478.3,1340.3,480.4"/>
					</g>
				</g>
			</g>
		</g>
		<g>
			<g>
				<g>
					<defs>
						<rect id="SVGID_34_" x="1226.1" y="549.9" width="143.2" height="183.4"/>
					</defs>
					<clipPath id="SVGID_35_">
						<use xlink:href="#SVGID_34_"  style="overflow:visible;"/>
					</clipPath>
					<g class="st18">
						<path class="st2" d="M1319.7,718.2c-4.9,2.4-9.7,4.5-14.4,6.3c-4.7,1.9-13.2,3.3-25.6,4.4c-10.2,0.9-17.8-0.2-22.7-3.3
							c-4.7-2.8-7.9-7.7-8.6-13.2c-0.4-4.8,1.1-11.1,4.6-18.9c3.5-7.8,8.1-16.8,13.8-27c5.7-10.1,11.6-20.6,17.7-31.4
							c6.7-12.1,13.4-23.8,20.3-35c5.8-9.7,12.3-19,19.2-27.9c5.9-7.4,10.9-12,15-13.6s6.6,0.9,7.6,7.5c1.1,6.7,0.1,18.8-2.8,36.4
							c-2.5,15.9-5.7,32.5-9.6,49.7S1325.4,691.3,1319.7,718.2"/>
					</g>
				</g>
			</g>
		</g>
		<g>
			<g>
				<g>
					<defs>
						<rect id="SVGID_36_" x="1341" y="557.4" width="91.1" height="84.2"/>
					</defs>
					<clipPath id="SVGID_37_">
						<use xlink:href="#SVGID_36_"  style="overflow:visible;"/>
					</clipPath>
					<g class="st19">
						<path class="st2" d="M1356.6,639.8c0.8-5.2,3.1-11.5,6.8-18.9c8.3-16.2,19.5-30.7,33.1-42.9c6.8-6.1,13.7-10.3,20.5-12.9
							c-0.3,3.9-1.1,10-2.5,18.3s-2.8,16.9-4.2,25.7c-1.5,8.8-2.8,15.8-3.9,21c-1.6,0.5-5,1.2-10.4,2.3s-11.6,2.3-18.7,3.6
							C1370.2,637.3,1363.3,638.6,1356.6,639.8"/>
					</g>
				</g>
			</g>
		</g>
		<g>
			<g>
				<g>
					<defs>
						<rect id="SVGID_38_" x="483.3" y="413.5" width="286.8" height="369.7"/>
					</defs>
					<clipPath id="SVGID_39_">
						<use xlink:href="#SVGID_38_"  style="overflow:visible;"/>
					</clipPath>
					<g class="st20">
						<path class="st21" d="M497.7,497.5c-1.1-10.5-0.6-21.1,1.3-31.4c1.9-9.5,4.8-17.1,8.8-22.9c5.1-0.1,13.4-0.6,24.9-1.5
							s22-1.7,31.5-2.5c6.4-0.6,16-1.7,28.8-3.5s26.5-3.5,41-5.3c14.5-1.7,27.3-3.1,38.4-4.1c16.9-1.5,31.3,1.8,43.2,9.7
							c11.9,7.9,18.7,21.8,20.5,41.5c0.8,10.2,0.2,20.5-1.9,30.5c-1.8,9.4-4.5,18.7-7.9,27.7c-3.2,8-5.7,13.2-7.8,15.6l-15,1.3
							c-6.9,0.6-14.9,1.6-24,3.1c-0.6,4.5-1.1,12.1-1.6,22.8c-0.5,10.6-0.9,23-1.1,37.2c-0.2,14.2-0.4,28.7-0.5,43.6
							s-0.2,29.1-0.1,42.6c0,13.5,0.3,25,0.6,34.6s0.7,16,1,19.2c-5.8,3.4-14.6,6.9-26.5,10.5s-26.7,6.2-44.6,7.8
							c-9.4,0.8-18.8,0.8-28.2,0.1c-9.2-0.6-18.4-1.8-27.5-3.6c-8.2-1.7-13.7-4-16.5-7c-1.8-18.3-2.3-36.7-1.5-55
							c0.8-19.8,2.3-39.3,4.3-58.4s4.2-36.4,6.5-51.8c2.3-15.5,4.3-27.3,5.8-35.4c-17.3-3.9-30-11.7-37.9-23.2
							C503.9,528.1,499.2,514.1,497.7,497.5"/>
					</g>
				</g>
			</g>
		</g>
		<g>
			<g>
				<g>
					<defs>
						<rect id="SVGID_40_" x="522.3" y="546.4" width="136.5" height="97.4"/>
					</defs>
					<clipPath id="SVGID_41_">
						<use xlink:href="#SVGID_40_"  style="overflow:visible;"/>
					</clipPath>
					<g class="st22">
						<path class="st21" d="M549.6,562.3c4.8,0.2,10.4,0.4,16.7,0.5c9-0.1,17.9-0.6,26.8-1.6c11.6-1.2,27.7-3.2,48.3-5.9
							c2.9,3.9,3,10.6,0.3,20s-8.2,19.2-16.4,29.3c-8.2,10.2-19.5,18.9-33.8,26.1c-14.3,7.2-31.9,10.7-52.8,10.6
							c0.4-6.1,1.3-14,2.5-23.6s2.6-19.4,4.2-29.5C546.9,578.1,548.3,569.5,549.6,562.3"/>
					</g>
				</g>
			</g>
		</g>
		<g>
			<g>
				<g>
					<defs>
						<rect id="SVGID_42_" x="698.7" y="395.7" width="198.3" height="366.2"/>
					</defs>
					<clipPath id="SVGID_43_">
						<use xlink:href="#SVGID_42_"  style="overflow:visible;"/>
					</clipPath>
					<g class="st23">
						<path class="st21" d="M740.1,516.8l111.3-15.5c0.7,3.8,1.2,9.1,1.6,16c0.4,9.5,0.3,19-0.4,28.4c-0.7,12.1-2.5,27.7-5.3,46.9
							s-7.1,43-13,71.4c1.9-0.5,3.9-1.1,6.1-1.7s3.9-1.2,5.2-1.7c2.5,3.6,4.5,7.6,5.8,11.8c1.9,5.7,3.1,11.7,3.5,17.8
							c1.5,16.6-2.7,31.1-12.6,43.5c-9.8,12.4-25.3,19.5-46.3,21.4c-38.6,3.4-59.4-13.1-62.6-49.4c-0.8-10.6-0.9-21.2-0.4-31.8
							c0.6-13.8,1.9-27.6,3.9-41.3c2-14.2,4.9-28.3,8.6-42.2c-7.9-5.4-12.3-14.3-13.4-26.8c-0.9-8.4-0.5-16.9,1.2-25.1
							C735,531.1,737.2,523.8,740.1,516.8 M811.2,498c-9.1,0.8-18.3-0.3-27-3.2c-8.3-2.7-15.9-7.4-21.9-13.8
							c-5.8-6.2-9.2-14-10-23.2s1.1-17.4,5.8-24.6c4.8-7.3,11.5-13.3,19.2-17.3c8-4.4,16.9-7,26-7.8c9-0.8,18.2,0.3,26.8,3.2
							c8.2,2.7,15.7,7.4,21.7,13.8c5.8,6.2,9.2,14,10,23.2c1.2,13.7-2.9,25-12.4,34.1C839.8,491.4,827.1,496.6,811.2,498"/>
					</g>
				</g>
			</g>
		</g>
		<g>
			<g>
				<g>
					<defs>
						<rect id="SVGID_44_" x="720.8" y="577.1" width="102.5" height="76.2"/>
					</defs>
					<clipPath id="SVGID_45_">
						<use xlink:href="#SVGID_44_"  style="overflow:visible;"/>
					</clipPath>
					<g class="st24">
						<path class="st21" d="M745.6,590.4c3.1,2.3,7.2,3.9,12.5,4.9c5.6,1,11.3,1.2,16.9,0.7c7.5-0.6,15-1.8,22.3-3.6
							c6.3-1.7,10.2-2.7,11.8-3.2c1.2,3.1,0.3,7.6-2.7,13.5c-3.6,6.7-8,13-13.1,18.7c-5.7,6.6-12,12.5-18.9,17.8
							c-6.2,4.9-13.2,8.5-20.7,10.7c-6.9,1.9-13.1,1-18.5-2.7c1.3-10.4,2.8-20.8,4.5-31.2C740.9,607.3,742.9,598.8,745.6,590.4"/>
					</g>
				</g>
			</g>
		</g>
		<g>
			<g>
				<g>
					<defs>
						<rect id="SVGID_46_" x="751.3" y="584.4" width="111.8" height="93.1"/>
					</defs>
					<clipPath id="SVGID_47_">
						<use xlink:href="#SVGID_46_"  style="overflow:visible;"/>
					</clipPath>
					<g class="st25">
						<path class="st21" d="M767.5,675.7c0-7.1,2.8-15.2,8.5-24.3c6.1-9.7,13.2-18.7,21.2-26.9c8-8.3,16.9-15.8,26.5-22.3
							c9.1-6.1,17-9.4,23.7-10c-1.4,9.8-3.2,21.6-5.6,35.4c-2.3,13.8-4.8,26-7.4,36.5c-3.8,1-9.9,2.3-18.4,4s-17.3,3.3-26.3,4.7
							C780.6,674.2,773.3,675.2,767.5,675.7"/>
					</g>
				</g>
			</g>
		</g>
		<g>
			<g>
				<g>
					<defs>
						<rect id="SVGID_48_" x="829.3" y="472.4" width="276.9" height="278.7"/>
					</defs>
					<clipPath id="SVGID_49_">
						<use xlink:href="#SVGID_48_"  style="overflow:visible;"/>
					</clipPath>
					<g class="st26">
						<path class="st21" d="M859.4,735c1-17.4,2.6-36,4.5-55.8c2-19.8,4.3-38.3,6.9-55.7c2.7-17.4,5.5-30.9,8.5-40.5
							c-12.2-4.1-19.1-14.2-20.5-30.5c-0.8-8.6-0.5-17.3,1.1-25.9c1.3-7.3,3.6-14.4,6.8-21.1l106.5-15.1l-1.6,9.3
							c6.6-3.6,13.5-6.6,20.6-9c8.9-3.1,18.2-5,27.7-5.8c18.8-1.6,33.2,2.2,43.1,11.4c10,9.2,15.7,22.8,17.3,40.6
							c0.7,8.3,0.4,18.7-0.9,31.4c-1.3,12.6-3.3,25.6-6,39c-2.4,12.2-5.5,24.2-9.4,36c2.7-0.7,5.4-1.6,8-2.6
							c2.5,3.6,4.5,7.6,5.8,11.8c1.9,5.7,3.1,11.7,3.5,17.8c1.4,16.6-3,31.1-13.3,43.5c-10.3,12.5-29.5,19.9-57.5,22.4
							c-6.7,0.5-13.3,0.6-20,0.3c-7.6-0.3-14.8-0.9-21.6-1.7c-5.3-0.5-10.6-1.6-15.7-3.2c-2.4,2.1-6.5,4.2-12.2,6.1
							c-5.9,2-12,3.7-18.1,5c-5.5,1.2-11,2.1-16.6,2.7c-9,0.5-18,0.4-27-0.5C871,744,864.3,740.8,859.4,735"/>
					</g>
				</g>
			</g>
		</g>
		<g>
			<g>
				<g>
					<defs>
						<rect id="SVGID_50_" x="854.6" y="566.7" width="99.3" height="74.9"/>
					</defs>
					<clipPath id="SVGID_51_">
						<use xlink:href="#SVGID_50_"  style="overflow:visible;"/>
					</clipPath>
					<g class="st27">
						<path class="st21" d="M879.3,583.5c2.3,0.4,5.1,0.9,8.5,1.4c3.6,0.5,7.2,0.6,10.9,0.2c8.8-0.8,17.4-2.7,25.8-5.6
							c8.6-3,13.6-4.7,15.2-5.2c1.2,3.1,0.4,7.7-2.4,13.9c-3.3,7-7.4,13.6-12.2,19.6c-5.3,6.8-11.3,13.1-17.9,18.7
							c-6.6,5.5-13.2,9.3-20,11.1c-6.3,2-13.1,0.8-18.3-3.2c1.1-5.5,2.3-11.8,3.4-18.8c1.1-7,2.3-13.5,3.6-19.6
							C877.1,590.1,878.2,585.9,879.3,583.5"/>
					</g>
				</g>
			</g>
		</g>
		<g>
			<g>
				<g>
					<defs>
						<rect id="SVGID_52_" x="922" y="477.3" width="119.3" height="163"/>
					</defs>
					<clipPath id="SVGID_53_">
						<use xlink:href="#SVGID_52_"  style="overflow:visible;"/>
					</clipPath>
					<g class="st28">
						<path class="st21" d="M944.3,638.5l27.4-138.7c5.2-3,12.4-6.1,21.6-9.1c8.5-2.9,17.3-4.8,26.2-5.7c-0.1,2.3-1.6,7.4-4.4,15.6
							s-6.5,17.8-11.2,29.1c-4.6,11.3-9.8,23.2-15.4,35.5c-5.7,12.4-11.2,23.9-16.7,34.7c-4.6,9.3-9.8,18.2-15.5,26.8
							C951.5,634,947.5,637.9,944.3,638.5"/>
					</g>
				</g>
			</g>
		</g>
		<g>
			<g>
				<g>
					<defs>
						<rect id="SVGID_54_" x="928.1" y="536.4" width="119.1" height="206.6"/>
					</defs>
					<clipPath id="SVGID_55_">
						<use xlink:href="#SVGID_54_"  style="overflow:visible;"/>
					</clipPath>
					<g class="st29">
						<path class="st21" d="M953.5,731.6c6.9-50,16.4-90.2,28.7-120.5s25.2-52.6,38.7-67c2.2,6.5,2.1,16.3-0.1,29.1
							c-2.2,12.9-5.2,27.5-8.9,43.9s-6.9,33.7-9.4,51.9c-1.7,13-2.1,24.3-1.1,33.8s4.1,20.7,9.4,33.4c-6,0.4-12,0.6-18,0.4
							c-7.2-0.2-14.4-0.7-21.6-1.5C965.1,734.6,959.2,733.4,953.5,731.6"/>
					</g>
				</g>
			</g>
		</g>
		<g>
			<g>
				<g>
					<defs>
						<rect id="SVGID_56_" x="984.5" y="564.1" width="110.3" height="93"/>
					</defs>
					<clipPath id="SVGID_57_">
						<use xlink:href="#SVGID_56_"  style="overflow:visible;"/>
					</clipPath>
					<g class="st30">
						<path class="st21" d="M1000.7,655.3c0-7.1,2.7-15.2,8.2-24.3c5.9-9.7,12.9-18.7,20.8-26.9c7.9-8.3,16.6-15.8,26-22.3
							c8.9-6.1,16.8-9.4,23.4-10c-0.5,7.7-1.5,15.3-3,22.9c-1.6,8.8-3.4,17.6-5.4,26.2c-1.7,7.6-3.8,15.1-6.5,22.5
							c-5.7,1.9-11.4,3.3-17.3,4.4c-8,1.7-16.3,3.2-24.9,4.6C1013.6,653.8,1006.5,654.8,1000.7,655.3"/>
					</g>
				</g>
			</g>
		</g>
		<g>
			<g>
				<g>
					<defs>
						<rect id="SVGID_58_" x="1060.5" y="418.8" width="205.6" height="309.5"/>
					</defs>
					<clipPath id="SVGID_59_">
						<use xlink:href="#SVGID_58_"  style="overflow:visible;"/>
					</clipPath>
					<g class="st31">
						<path class="st21" d="M1086.5,573.6c-2-30.3,1.4-55.7,10.2-76.2c8.8-20.5,20.9-36.3,36.3-47.5c15.4-11.1,31.7-17.5,48.9-19
							c5.4-0.4,10.8-0.4,16.1,0c6,0.4,10.7,1.5,14,3.1l-5.7,39.6c9.6-0.8,16.7-1.9,21.4-3.3c3,3.6,5.4,7.7,7.1,12.1
							c1.9,4.8,3.1,11,3.8,18.7c1,10.8,0.5,21.7-1.5,32.4c-2,10.1-5.9,18.6-11.8,25.3c-5.8,6.8-13.8,10.6-24,11.5l-8.6,61.4
							c8.7-2.2,17.3-4.8,25.8-8c4.3,5.4,6.9,12.9,7.7,22.4c1.8,20.4-3.2,37.4-15,51.2s-29.5,21.6-53.1,23.7
							c-21.3,1.9-37.7-2.6-49.1-13.5s-18-26.2-19.7-46c-0.7-9.2-0.5-18.4,0.5-27.5c1-10.4,2.4-20.7,4.3-31
							c1.8-10.3,3.6-18.9,5.2-25.7c-2.3-0.4-4.5-1-6.6-1.6C1090.6,575.1,1088.6,574.4,1086.5,573.6"/>
					</g>
				</g>
			</g>
		</g>
		<g>
			<g>
				<g>
					<defs>
						<rect id="SVGID_60_" x="1075.4" y="562.4" width="119.6" height="73.8"/>
					</defs>
					<clipPath id="SVGID_61_">
						<use xlink:href="#SVGID_60_"  style="overflow:visible;"/>
					</clipPath>
					<g class="st32">
						<path class="st21" d="M1099.3,577.3c7.5,1.6,16.9,2,28,1.2s26.3-3.4,45.6-7.6c12.2,3.1,11.8,9.8-1.1,20.1
							s-40.2,24.8-81.9,43.5c0.8-9.7,2-19.4,3.7-29C1095.3,595.8,1097.2,586.4,1099.3,577.3"/>
					</g>
				</g>
			</g>
		</g>
		<g>
			<g>
				<g>
					<defs>
						<rect id="SVGID_62_" x="1108.4" y="572.3" width="105.1" height="70.7"/>
					</defs>
					<clipPath id="SVGID_63_">
						<use xlink:href="#SVGID_62_"  style="overflow:visible;"/>
					</clipPath>
					<g class="st33">
						<path class="st21" d="M1122.8,641.2c4.1-8.1,8.8-16.8,14.1-26.3c5.6-9.8,13.3-18.1,22.7-24.4c9.8-6.8,23.3-10.1,40.3-10
							l-7.1,51.2c-5.3,1.1-12.4,2.4-21.3,3.8s-17.7,2.6-26.4,3.5C1136.2,640,1128.8,640.7,1122.8,641.2"/>
					</g>
				</g>
			</g>
		</g>
		<g>
			<g>
				<g>
					<defs>
						<rect id="SVGID_64_" x="1133.6" y="426.3" width="90.9" height="54.6"/>
					</defs>
					<clipPath id="SVGID_65_">
						<use xlink:href="#SVGID_64_"  style="overflow:visible;"/>
					</clipPath>
					<g class="st34">
						<path class="st21" d="M1146.5,478.3c0.4-10.3,4-18.6,10.8-24.8c7.2-6.4,15.7-11.2,25-14c9.6-3.1,19.5-4.9,29.6-5.5l-5.7,39.5
							c-9.8,1.2-19.7,2.1-29.6,2.8S1156.8,477.7,1146.5,478.3"/>
					</g>
				</g>
			</g>
		</g>
		<g>
			<g>
				<g>
					<defs>
						<rect id="SVGID_66_" x="1206.4" y="440.3" width="267.3" height="277.9"/>
					</defs>
					<clipPath id="SVGID_67_">
						<use xlink:href="#SVGID_66_"  style="overflow:visible;"/>
					</clipPath>
					<g class="st35">
						<path class="st21" d="M1382.5,703.7c-7.9,0.8-15.9,0.9-23.8,0.4c-7.2-0.6-14.3-1.9-21.3-3.7c-5.8,3-12,5.4-18.4,6.9
							c-7.1,1.9-14.3,3.2-21.6,3.8c-19.1,1.7-34.4-3.2-45.8-14.5c-11.4-11.4-18.3-30.1-20.6-56.2c-2.1-22.2-0.8-44.5,3.6-66.3
							c4.4-21.3,11.2-40.4,20.3-57.4s19.8-30.7,32-41.1c12.3-10.4,25.2-16.2,38.9-17.4c5.1-0.5,10.3-0.4,15.4,0.1
							c5.7,0.8,11.4,2.2,16.8,4.3c6.1-3.3,12.6-5.8,19.3-7.2c6.6-1.6,13.4-2.8,20.2-3.5c18.5-1.6,33.9,0.3,46.2,5.6
							c0.5,6.4,0.2,16.1-1.1,29.2c-1.3,13.1-3,27.5-5.3,43.3s-4.7,31.1-7.1,45.9c-2.4,14.8-4.5,27-6.2,36.4c3.1-0.9,5.7-1.6,7.8-2.1
							s3.7-1,4.9-1.4c2.2,3.8,4.1,7.7,5.6,11.8c2.1,5.7,3.3,11.7,3.7,17.7c1.7,19.1-3.6,34.3-15.8,45.7
							C1418.2,695.5,1402.2,702,1382.5,703.7"/>
					</g>
				</g>
			</g>
		</g>
		<g>
			<g>
				<g>
					<defs>
						<rect id="SVGID_68_" x="1247.9" y="447.8" width="133.7" height="192.3"/>
					</defs>
					<clipPath id="SVGID_69_">
						<use xlink:href="#SVGID_68_"  style="overflow:visible;"/>
					</clipPath>
					<g class="st36">
						<path class="st21" d="M1358,462.7c-2.8,11.8-6.8,25.4-11.8,40.8c-5.1,15.4-10.9,31.2-17.5,47.5s-13.5,31.6-20.8,45.9
							c-6.2,12.5-13.4,24.5-21.7,35.8c-4.6,6.2-8.3,6.7-11,1.4s-4.4-14-5.1-26.3c-0.7-14-0.7-28,0.2-41.9
							c0.9-15.6,2.6-31.1,5.1-46.4c2.5-15.3,5.9-28.3,10.1-38.9c1.9-4.3,5.5-8.1,10.8-11.3c5-3,10.2-5.6,15.7-7.6
							c5.1-1.9,8.3-2.9,9.6-3c6.4-0.7,12.8-0.7,19.2-0.2C1346.7,459.1,1352.5,460.6,1358,462.7"/>
					</g>
				</g>
			</g>
		</g>
		<g>
			<g>
				<g>
					<defs>
						<rect id="SVGID_70_" x="1243.8" y="532.1" width="143.2" height="183.4"/>
					</defs>
					<clipPath id="SVGID_71_">
						<use xlink:href="#SVGID_70_"  style="overflow:visible;"/>
					</clipPath>
					<g class="st37">
						<path class="st21" d="M1337.4,700.4c-4.9,2.4-9.7,4.5-14.4,6.3c-4.7,1.8-13.2,3.3-25.6,4.4c-10.2,0.9-17.8-0.2-22.7-3.3
							c-4.8-2.8-7.9-7.7-8.6-13.2c-0.4-4.8,1.1-11.1,4.6-18.9c3.5-7.8,8.1-16.8,13.8-27c5.7-10.1,11.6-20.6,17.7-31.4
							c6.7-12.1,13.4-23.8,20.3-35c5.8-9.7,12.3-19,19.2-27.9c5.9-7.4,10.9-11.9,14.9-13.6s6.6,0.9,7.6,7.5
							c1.1,6.7,0.1,18.8-2.8,36.4c-2.5,15.9-5.7,32.5-9.6,49.7C1347.9,651.6,1343.1,673.6,1337.4,700.4"/>
					</g>
				</g>
			</g>
		</g>
		<g>
			<g>
				<g>
					<defs>
						<rect id="SVGID_72_" x="1358.8" y="539.7" width="91.1" height="84.2"/>
					</defs>
					<clipPath id="SVGID_73_">
						<use xlink:href="#SVGID_72_"  style="overflow:visible;"/>
					</clipPath>
					<g class="st38">
						<path class="st21" d="M1374.3,622.1c0.8-5.2,3.1-11.5,6.8-18.9c8.3-16.2,19.5-30.7,33.1-42.9c6.9-6.1,13.7-10.4,20.6-12.9
							c-0.3,3.9-1.1,10-2.5,18.3s-2.8,16.9-4.3,25.7s-2.8,15.8-3.9,21c-1.6,0.5-5,1.2-10.4,2.4c-5.4,1.1-11.6,2.3-18.7,3.6
							S1381,620.9,1374.3,622.1"/>
					</g>
				</g>
			</g>
		</g>
		<g>
			<g>
				<g>
					<defs>
						<rect id="SVGID_74_" x="501.5" y="395.3" width="286.8" height="369.7"/>
					</defs>
					<clipPath id="SVGID_75_">
						<use xlink:href="#SVGID_74_"  style="overflow:visible;"/>
					</clipPath>
					<g class="st39">
						<path class="st40" d="M515.9,479.3c-1.1-10.5-0.6-21.1,1.3-31.4c1.9-9.5,4.8-17.1,8.8-22.9c5.1-0.1,13.4-0.6,24.9-1.5
							c11.5-0.8,22-1.7,31.6-2.5c6.4-0.6,16-1.7,28.8-3.5s26.5-3.5,40.9-5.2c14.5-1.7,27.3-3.1,38.4-4.1c16.9-1.5,31.3,1.8,43.2,9.7
							c11.9,7.9,18.8,21.8,20.5,41.5c0.8,10.2,0.2,20.5-1.9,30.5c-1.8,9.4-4.5,18.7-7.9,27.7c-3.1,8-5.7,13.2-7.8,15.6l-15,1.3
							c-6.9,0.6-14.9,1.6-24,3.1c-0.6,4.5-1.1,12.1-1.6,22.8c-0.5,10.6-0.9,23-1.1,37.2c-0.2,14.2-0.4,28.7-0.5,43.6
							c-0.1,14.9-0.2,29.1-0.1,42.6c0,13.5,0.3,25,0.6,34.6c0.4,9.6,0.7,16,1,19.2c-5.8,3.4-14.6,6.9-26.5,10.5s-26.7,6.2-44.6,7.8
							c-9.4,0.8-18.8,0.8-28.2,0.1c-9.2-0.6-18.4-1.8-27.5-3.6c-8.2-1.7-13.7-4-16.5-7c-1.8-18.3-2.3-36.7-1.5-55
							c0.8-19.8,2.3-39.3,4.3-58.4c2-19.1,4.2-36.4,6.5-51.8c2.3-15.5,4.3-27.3,5.8-35.4c-17.3-3.9-30-11.7-37.9-23.2
							S517.4,495.9,515.9,479.3"/>
					</g>
				</g>
			</g>
		</g>
		<g>
			<g>
				<g>
					<defs>
						<rect id="SVGID_76_" x="540.5" y="528.2" width="136.5" height="97.4"/>
					</defs>
					<clipPath id="SVGID_77_">
						<use xlink:href="#SVGID_76_"  style="overflow:visible;"/>
					</clipPath>
					<g class="st41">
						<path class="st40" d="M567.8,544.1c4.8,0.2,10.4,0.4,16.7,0.5c9-0.1,17.9-0.6,26.9-1.6c11.6-1.2,27.7-3.2,48.3-5.9
							c2.9,3.9,3,10.6,0.3,20s-8.2,19.2-16.5,29.4c-8.2,10.2-19.5,18.9-33.8,26.1c-14.3,7.2-31.9,10.7-52.8,10.6
							c0.4-6.1,1.3-14,2.5-23.6s2.6-19.4,4.2-29.5S566.5,551.3,567.8,544.1"/>
					</g>
				</g>
			</g>
		</g>
		<g>
			<g>
				<g>
					<defs>
						<rect id="SVGID_78_" x="716.9" y="377.4" width="198.3" height="366.2"/>
					</defs>
					<clipPath id="SVGID_79_">
						<use xlink:href="#SVGID_78_"  style="overflow:visible;"/>
					</clipPath>
					<g class="st42">
						<path class="st40" d="M758.3,498.5L869.6,483c0.7,3.8,1.2,9.1,1.6,16c0.4,9.5,0.3,19-0.4,28.4c-0.7,12.1-2.5,27.7-5.3,46.9
							s-7.1,43-13,71.4c1.9-0.5,3.9-1.1,6.1-1.7s3.9-1.2,5.2-1.7c2.5,3.6,4.5,7.6,5.8,11.8c1.9,5.7,3.1,11.7,3.5,17.8
							c1.5,16.6-2.7,31.1-12.6,43.5c-9.8,12.4-25.3,19.6-46.3,21.4c-38.5,3.4-59.4-13.1-62.6-49.4c-0.8-10.6-0.9-21.2-0.4-31.8
							c0.6-13.8,1.9-27.6,3.9-41.3c2-14.2,4.9-28.3,8.6-42.2c-7.9-5.4-12.3-14.3-13.4-26.8c-0.9-8.4-0.5-16.9,1.2-25.1
							C753.1,512.9,755.4,505.6,758.3,498.5 M829.4,479.8c-9.1,0.8-18.3-0.3-27-3.2c-8.3-2.7-15.9-7.4-21.9-13.8
							c-5.8-6.2-9.2-14-10-23.2s1.1-17.4,5.8-24.5c4.8-7.3,11.4-13.3,19.2-17.3c8-4.4,16.9-7,26-7.8s18.2,0.3,26.8,3.2
							c8.2,2.7,15.7,7.4,21.7,13.8c5.8,6.2,9.2,14,10,23.2c1.2,13.7-2.9,25.1-12.4,34.1C858.1,473.2,845.4,478.4,829.4,479.8"/>
					</g>
				</g>
			</g>
		</g>
		<g>
			<g>
				<g>
					<defs>
						<rect id="SVGID_80_" x="739" y="558.9" width="102.5" height="76.2"/>
					</defs>
					<clipPath id="SVGID_81_">
						<use xlink:href="#SVGID_80_"  style="overflow:visible;"/>
					</clipPath>
					<g class="st43">
						<path class="st40" d="M763.8,572.2c3.1,2.3,7.2,3.9,12.5,4.9c5.6,1,11.3,1.2,16.9,0.7c7.5-0.6,15-1.8,22.3-3.6
							c6.3-1.7,10.2-2.7,11.8-3.2c1.2,3.1,0.3,7.6-2.7,13.5c-3.6,6.7-8,13-13,18.7c-5.7,6.6-12,12.5-18.9,17.8
							c-6.2,4.9-13.2,8.5-20.7,10.7c-6.9,1.9-13.1,1-18.5-2.7c1.3-10.4,2.8-20.8,4.5-31.2c1.3-8.7,3.3-17.2,6-25.6"/>
					</g>
				</g>
			</g>
		</g>
		<g>
			<g>
				<g>
					<defs>
						<rect id="SVGID_82_" x="769.5" y="566.2" width="111.8" height="93.1"/>
					</defs>
					<clipPath id="SVGID_83_">
						<use xlink:href="#SVGID_82_"  style="overflow:visible;"/>
					</clipPath>
					<g class="st44">
						<path class="st40" d="M785.7,657.5c0-7.1,2.8-15.2,8.5-24.3c6.1-9.7,13.2-18.7,21.2-26.9c8-8.3,16.9-15.8,26.5-22.3
							c9.1-6.1,17-9.4,23.7-10c-1.4,9.8-3.2,21.6-5.6,35.4c-2.3,13.8-4.8,26-7.4,36.5c-3.8,1-9.9,2.3-18.4,4s-17.3,3.3-26.3,4.7
							C798.8,656,791.5,657,785.7,657.5"/>
					</g>
				</g>
			</g>
		</g>
		<g>
			<g>
				<g>
					<defs>
						<rect id="SVGID_84_" x="847.5" y="454.2" width="276.9" height="278.7"/>
					</defs>
					<clipPath id="SVGID_85_">
						<use xlink:href="#SVGID_84_"  style="overflow:visible;"/>
					</clipPath>
					<g class="st45">
						<path class="st40" d="M877.6,716.9c1.1-17.4,2.6-36,4.5-55.8s4.3-38.3,6.9-55.7c2.7-17.4,5.5-30.9,8.5-40.5
							c-12.2-4.1-19.1-14.2-20.5-30.5c-0.8-8.6-0.5-17.3,1.1-25.9c1.3-7.3,3.6-14.4,6.8-21.1l106.5-15.1l-1.6,9.3
							c6.6-3.6,13.5-6.6,20.6-9c8.9-3.1,18.2-5,27.7-5.8c18.8-1.6,33.2,2.2,43.1,11.4c10,9.2,15.7,22.8,17.3,40.6
							c0.7,8.3,0.4,18.7-0.9,31.4s-3.3,25.6-6,39c-2.4,12.2-5.5,24.2-9.4,36c2.7-0.7,5.4-1.6,8-2.6c2.5,3.6,4.5,7.6,5.8,11.8
							c1.9,5.7,3.1,11.7,3.5,17.8c1.4,16.6-3,31.1-13.3,43.5c-10.3,12.5-29.5,19.9-57.5,22.4c-6.6,0.5-13.3,0.6-19.9,0.3
							c-7.6-0.3-14.8-0.9-21.6-1.7c-5.3-0.5-10.6-1.6-15.7-3.2c-2.4,2.1-6.5,4.2-12.2,6.1c-5.9,2-12,3.7-18.1,5
							c-5.5,1.2-11,2.1-16.6,2.7c-9,0.5-18,0.4-27-0.5C889.3,725.8,882.6,722.5,877.6,716.9"/>
					</g>
				</g>
			</g>
		</g>
		<g>
			<g>
				<g>
					<defs>
						<rect id="SVGID_86_" x="872.9" y="548.4" width="99.3" height="74.9"/>
					</defs>
					<clipPath id="SVGID_87_">
						<use xlink:href="#SVGID_86_"  style="overflow:visible;"/>
					</clipPath>
					<g class="st46">
						<path class="st40" d="M897.6,565.3c2.3,0.4,5.1,0.9,8.5,1.4c3.6,0.5,7.2,0.6,10.9,0.2c8.8-0.8,17.4-2.7,25.8-5.6
							c8.6-3,13.6-4.7,15.2-5.2c1.2,3.1,0.4,7.7-2.4,13.9c-3.3,7-7.4,13.6-12.2,19.6c-5.3,6.8-11.3,13.1-17.9,18.7
							c-6.6,5.6-13.2,9.3-20,11.1c-6.3,2-13.1,0.8-18.3-3.2c1.1-5.6,2.2-11.8,3.4-18.8s2.4-13.5,3.6-19.6
							C895.4,571.9,896.5,567.7,897.6,565.3"/>
					</g>
				</g>
			</g>
		</g>
		<g>
			<g>
				<g>
					<defs>
						<rect id="SVGID_88_" x="940.2" y="459.1" width="119.3" height="163"/>
					</defs>
					<clipPath id="SVGID_89_">
						<use xlink:href="#SVGID_88_"  style="overflow:visible;"/>
					</clipPath>
					<g class="st47">
						<path class="st40" d="M962.6,620.3l27.3-138.7c5.2-3,12.4-6.1,21.6-9.1c8.5-2.9,17.3-4.8,26.2-5.7c-0.1,2.3-1.6,7.4-4.4,15.6
							c-2.8,8.1-6.5,17.8-11.2,29.1c-4.6,11.3-9.8,23.2-15.4,35.5s-11.2,24-16.7,34.8c-4.6,9.3-9.8,18.2-15.5,26.9
							C969.7,615.9,965.7,619.7,962.6,620.3"/>
					</g>
				</g>
			</g>
		</g>
		<g>
			<g>
				<g>
					<defs>
						<rect id="SVGID_90_" x="946.3" y="518.2" width="119.2" height="206.6"/>
					</defs>
					<clipPath id="SVGID_91_">
						<use xlink:href="#SVGID_90_"  style="overflow:visible;"/>
					</clipPath>
					<g class="st48">
						<path class="st40" d="M971.7,713.4c6.9-50,16.4-90.2,28.7-120.5s25.2-52.7,38.7-67c2.2,6.6,2.1,16.3-0.1,29.1
							c-2.2,12.9-5.2,27.5-8.9,43.9c-3.7,16.4-6.9,33.7-9.4,51.9c-1.7,13-2.1,24.3-1.1,33.8s4.1,20.7,9.4,33.4c-6,0.4-12,0.6-18,0.4
							c-7.2-0.2-14.4-0.7-21.6-1.5C983.4,716.3,977.4,715.1,971.7,713.4"/>
					</g>
				</g>
			</g>
		</g>
		<g>
			<g>
				<g>
					<defs>
						<rect id="SVGID_92_" x="1002.7" y="545.9" width="110.3" height="93"/>
					</defs>
					<clipPath id="SVGID_93_">
						<use xlink:href="#SVGID_92_"  style="overflow:visible;"/>
					</clipPath>
					<g class="st49">
						<path class="st40" d="M1018.9,637.1c0-7.1,2.7-15.2,8.2-24.3c5.9-9.7,12.9-18.7,20.8-26.9c7.9-8.3,16.6-15.8,26-22.2
							c8.9-6.1,16.8-9.4,23.4-10c-0.5,7.7-1.5,15.3-3,22.9c-1.6,8.8-3.4,17.6-5.4,26.2c-1.7,7.6-3.8,15.1-6.5,22.5
							c-5.6,1.8-11.4,3.3-17.2,4.4c-8,1.7-16.3,3.2-24.9,4.6S1024.7,636.5,1018.9,637.1"/>
					</g>
				</g>
			</g>
		</g>
		<g>
			<g>
				<g>
					<defs>
						<rect id="SVGID_94_" x="1078.7" y="400.6" width="205.6" height="309.5"/>
					</defs>
					<clipPath id="SVGID_95_">
						<use xlink:href="#SVGID_94_"  style="overflow:visible;"/>
					</clipPath>
					<g class="st50">
						<path class="st40" d="M1104.7,555.4c-2-30.3,1.4-55.7,10.2-76.2c8.8-20.5,20.9-36.3,36.3-47.5c15.4-11.1,31.7-17.5,48.9-19
							c5.4-0.4,10.8-0.4,16.1,0c6,0.4,10.7,1.5,14,3.1l-5.7,39.5c9.5-0.8,16.7-1.9,21.4-3.3c3,3.6,5.4,7.7,7.1,12.1
							c1.9,4.8,3.1,11.1,3.8,18.7c1,10.8,0.5,21.7-1.5,32.4c-2,10.1-5.9,18.6-11.8,25.3c-5.8,6.8-13.8,10.6-24,11.5l-8.6,61.4
							c8.7-2.2,17.3-4.8,25.8-8c4.3,5.4,6.9,12.9,7.7,22.4c1.8,20.4-3.2,37.4-15,51.2c-11.8,13.7-29.5,21.6-53.2,23.7
							c-21.3,1.9-37.7-2.6-49.1-13.5s-17.9-26.2-19.7-46c-0.7-9.2-0.5-18.4,0.5-27.5c1-10.4,2.4-20.7,4.3-31
							c1.8-10.3,3.6-18.9,5.2-25.7c-2.3-0.4-4.5-1-6.6-1.6C1108.8,556.8,1106.7,556.1,1104.7,555.4"/>
					</g>
				</g>
			</g>
		</g>
		<g>
			<g>
				<g>
					<defs>
						<rect id="SVGID_96_" x="1093.6" y="544.2" width="119.6" height="73.8"/>
					</defs>
					<clipPath id="SVGID_97_">
						<use xlink:href="#SVGID_96_"  style="overflow:visible;"/>
					</clipPath>
					<g class="st51">
						<path class="st40" d="M1117.6,559.1c7.5,1.6,16.9,2,28,1.2s26.3-3.3,45.6-7.6c12.2,3.1,11.8,9.8-1.1,20.1
							s-40.2,24.8-81.9,43.5c0.8-9.7,2-19.4,3.7-29C1113.5,577.6,1115.4,568.2,1117.6,559.1"/>
					</g>
				</g>
			</g>
		</g>
		<g>
			<g>
				<g>
					<defs>
						<rect id="SVGID_98_" x="1126.7" y="554.1" width="105.1" height="70.7"/>
					</defs>
					<clipPath id="SVGID_99_">
						<use xlink:href="#SVGID_98_"  style="overflow:visible;"/>
					</clipPath>
					<g class="st52">
						<path class="st40" d="M1141,623c4.1-8.1,8.8-16.8,14.1-26.3c5.6-9.8,13.3-18.1,22.7-24.4c9.8-6.8,23.3-10.1,40.3-10l-7.1,51.2
							c-5.3,1.1-12.4,2.4-21.3,3.8s-17.7,2.6-26.4,3.5C1154.4,621.8,1147,622.5,1141,623"/>
					</g>
				</g>
			</g>
		</g>
		<g>
			<g>
				<g>
					<defs>
						<rect id="SVGID_100_" x="1151.8" y="408.1" width="90.9" height="54.6"/>
					</defs>
					<clipPath id="SVGID_101_">
						<use xlink:href="#SVGID_100_"  style="overflow:visible;"/>
					</clipPath>
					<g class="st53">
						<path class="st40" d="M1164.8,460.1c0.4-10.3,4-18.6,10.8-24.8c7.2-6.4,15.7-11.2,25-14c9.6-3.1,19.6-4.9,29.6-5.4l-5.7,39.5
							c-9.9,1.2-19.7,2.1-29.6,2.8S1175,459.5,1164.8,460.1"/>
					</g>
				</g>
			</g>
		</g>
		<g>
			<g>
				<g>
					<defs>
						<rect id="SVGID_102_" x="1224.6" y="422.1" width="267.3" height="277.9"/>
					</defs>
					<clipPath id="SVGID_103_">
						<use xlink:href="#SVGID_102_"  style="overflow:visible;"/>
					</clipPath>
					<g class="st54">
						<path class="st40" d="M1400.7,685.5c-7.9,0.8-15.9,0.9-23.8,0.4c-7.2-0.6-14.3-1.9-21.3-3.7c-5.8,3-12,5.4-18.4,6.9
							c-7.1,1.9-14.3,3.2-21.6,3.8c-19.1,1.7-34.4-3.2-45.8-14.5c-11.4-11.4-18.3-30.1-20.6-56.2c-2.1-22.2-0.8-44.5,3.6-66.3
							c4.4-21.2,11.2-40.4,20.3-57.4c9.1-17,19.8-30.7,32-41.1c12.3-10.4,25.2-16.2,38.9-17.4c5.1-0.5,10.3-0.4,15.4,0.1
							c5.7,0.8,11.4,2.2,16.8,4.3c6.1-3.3,12.6-5.8,19.3-7.2c6.6-1.6,13.4-2.8,20.2-3.5c18.5-1.6,33.9,0.2,46.2,5.6
							c0.6,6.4,0.2,16.1-1.1,29.2c-1.3,13.1-3,27.5-5.4,43.3c-2.3,15.8-4.7,31.1-7.1,45.9s-4.5,27-6.2,36.4c3.1-0.9,5.7-1.6,7.8-2.1
							s3.7-1,4.9-1.4c2.2,3.8,4.1,7.7,5.6,11.8c2.1,5.7,3.3,11.7,3.7,17.7c1.7,19.1-3.6,34.3-15.7,45.7
							C1436.4,677.3,1420.4,683.8,1400.7,685.5"/>
					</g>
				</g>
			</g>
		</g>
		<g>
			<g>
				<g>
					<defs>
						<rect id="SVGID_104_" x="1266.1" y="429.6" width="133.7" height="192.3"/>
					</defs>
					<clipPath id="SVGID_105_">
						<use xlink:href="#SVGID_104_"  style="overflow:visible;"/>
					</clipPath>
					<g class="st55">
						<path class="st40" d="M1376.2,444.5c-2.8,11.8-6.8,25.4-11.8,40.8c-5.1,15.4-10.9,31.2-17.5,47.5s-13.5,31.6-20.8,45.9
							c-6.2,12.5-13.4,24.5-21.7,35.8c-4.6,6.2-8.2,6.7-10.9,1.4s-4.4-14-5.2-26.3c-0.7-14-0.7-28,0.2-41.9
							c0.9-15.6,2.6-31.1,5.1-46.4c2.5-15.3,5.9-28.3,10.1-38.9c1.9-4.3,5.5-8.1,10.8-11.3c5-3,10.2-5.6,15.7-7.6
							c5.1-1.9,8.3-2.9,9.6-3c6.4-0.7,12.8-0.7,19.2-0.2C1364.9,440.9,1370.7,442.4,1376.2,444.5"/>
					</g>
				</g>
			</g>
		</g>
		<g>
			<g>
				<g>
					<defs>
						<rect id="SVGID_106_" x="1262" y="513.9" width="143.2" height="183.4"/>
					</defs>
					<clipPath id="SVGID_107_">
						<use xlink:href="#SVGID_106_"  style="overflow:visible;"/>
					</clipPath>
					<g class="st56">
						<path class="st40" d="M1355.6,682.2c-4.9,2.4-9.7,4.5-14.4,6.3c-4.7,1.8-13.2,3.3-25.6,4.4c-10.2,0.9-17.8-0.2-22.7-3.3
							c-4.8-2.8-7.9-7.7-8.6-13.2c-0.4-4.8,1.1-11.1,4.6-18.9c3.5-7.8,8.1-16.8,13.8-27c5.7-10.1,11.6-20.6,17.7-31.4
							c6.7-12.1,13.4-23.8,20.3-35c5.8-9.7,12.3-19,19.2-27.9c5.9-7.4,10.9-11.9,15-13.6c4.1-1.6,6.6,0.9,7.6,7.5
							c1.1,6.7,0.1,18.8-2.8,36.4c-2.5,15.9-5.7,32.5-9.6,49.7S1361.3,655.4,1355.6,682.2"/>
					</g>
				</g>
			</g>
		</g>
		<g>
			<g>
				<g>
					<defs>
						<rect id="SVGID_108_" x="1377" y="521.5" width="91.1" height="84.2"/>
					</defs>
					<clipPath id="SVGID_109_">
						<use xlink:href="#SVGID_108_"  style="overflow:visible;"/>
					</clipPath>
					<g class="st57">
						<path class="st40" d="M1392.6,603.9c0.8-5.2,3.1-11.5,6.8-18.9c8.3-16.2,19.5-30.7,33.1-42.9c6.9-6.1,13.7-10.4,20.5-12.9
							c-0.3,3.9-1.1,10-2.5,18.3s-2.8,16.9-4.3,25.7s-2.8,15.8-3.9,21c-1.6,0.5-5,1.2-10.4,2.4c-5.4,1.1-11.6,2.3-18.7,3.6
							C1406.1,601.3,1399.2,602.6,1392.6,603.9"/>
					</g>
				</g>
			</g>
		</g>
		<g>
			<g>
				<g>
					<defs>
						<rect id="SVGID_110_" x="518.8" y="374.2" width="286.8" height="369.7"/>
					</defs>
					<clipPath id="SVGID_111_">
						<use xlink:href="#SVGID_110_"  style="overflow:visible;"/>
					</clipPath>
					<g class="st58">
						<g>
							<g>
								<defs>
									<path id="SVGID_112_" d="M533.2,458.2c-1-10.5-0.6-21.1,1.3-31.4c1.9-9.5,4.8-17.1,8.8-22.9c5.1-0.1,13.4-0.6,24.9-1.5
										s22-1.7,31.6-2.5c6.4-0.6,16-1.7,28.8-3.5s26.5-3.5,41-5.3c14.4-1.7,27.2-3.1,38.4-4.1c16.9-1.5,31.3,1.8,43.2,9.7
										c11.9,7.9,18.8,21.8,20.5,41.5c0.8,10.2,0.2,20.5-1.9,30.5c-1.8,9.4-4.5,18.7-7.9,27.7c-3.2,8-5.8,13.2-7.8,15.6l-15,1.3
										c-6.8,0.6-14.8,1.6-24,3.1c-0.6,4.5-1.1,12.1-1.6,22.8s-0.9,23-1.2,37.2c-0.2,14.1-0.4,28.7-0.5,43.6s-0.2,29.1-0.1,42.6
										c0.1,13.5,0.3,25,0.6,34.6c0.4,9.6,0.7,16,1,19.2c-5.8,3.4-14.6,6.9-26.5,10.5s-26.7,6.2-44.6,7.8
										c-9.4,0.8-18.8,0.8-28.2,0.1c-9.2-0.6-18.4-1.8-27.5-3.6c-8.2-1.7-13.7-4-16.5-7c-1.8-18.3-2.3-36.7-1.4-55
										c0.8-19.8,2.3-39.3,4.3-58.4s4.2-36.4,6.5-51.9c2.3-15.4,4.3-27.3,5.8-35.4c-17.3-3.9-30-11.7-37.9-23.2
										S534.7,474.7,533.2,458.2"/>
								</defs>
								<clipPath id="SVGID_113_">
									<use xlink:href="#SVGID_112_"  style="overflow:visible;"/>
								</clipPath>
								<g class="st59">
									
										<linearGradient id="SVGID_114_" gradientUnits="userSpaceOnUse" x1="0.7929" y1="1201.1207" x2="1.7929" y2="1201.1207" gradientTransform="matrix(-57.7984 31.2384 31.2384 57.7984 -36766.1602 -68917.7656)">
										<stop  offset="0" style="stop-color:#BABAFF"/>
										<stop  offset="1" style="stop-color:#BABAFF"/>
									</linearGradient>
									<polygon class="st60" points="385.9,464.6 718.3,285 919,656.3 586.6,836 									"/>
								</g>
							</g>
						</g>
					</g>
				</g>
			</g>
		</g>
		<g>
			<g>
				<g>
					<defs>
						<rect id="SVGID_115_" x="557.9" y="507.1" width="136.5" height="97.4"/>
					</defs>
					<clipPath id="SVGID_116_">
						<use xlink:href="#SVGID_115_"  style="overflow:visible;"/>
					</clipPath>
					<g class="st61">
						<g>
							<g>
								<defs>
									<path id="SVGID_117_" d="M585.2,523.4c4.8,0.2,10.4-0.1,16.6,0c9-0.1,17.9-0.6,26.8-1.6c11.6-1.2,27.7-3.1,48.4-5.9
										c2.9,3.9,3,10.6,0.3,20s-8.2,19.2-16.5,29.4s-19.5,18.9-33.8,26.1c-14.3,7.2-31.9,10.7-52.8,10.6c0.4-6.1,1.3-14,2.5-23.6
										c1.3-9.6,2.6-19.4,4.2-29.5C582.4,538.8,583.9,530.6,585.2,523.4"/>
								</defs>
								<clipPath id="SVGID_118_">
									<use xlink:href="#SVGID_117_"  style="overflow:visible;"/>
								</clipPath>
								<g class="st62">
									
										<linearGradient id="SVGID_119_" gradientUnits="userSpaceOnUse" x1="0.5742" y1="1201.4675" x2="1.5742" y2="1201.4675" gradientTransform="matrix(37.2911 44.6313 44.6313 -37.2911 -53055.7773 45291.3516)">
										<stop  offset="0" style="stop-color:#4700CC"/>
										<stop  offset="1" style="stop-color:#BABAFF"/>
									</linearGradient>
									<polygon class="st63" points="531.9,551.3 636.5,463.8 722.4,566.6 617.7,654 									"/>
								</g>
							</g>
						</g>
					</g>
				</g>
			</g>
		</g>
		<g>
			<g>
				<g>
					<defs>
						<rect id="SVGID_120_" x="734.2" y="356.3" width="198.3" height="366.2"/>
					</defs>
					<clipPath id="SVGID_121_">
						<use xlink:href="#SVGID_120_"  style="overflow:visible;"/>
					</clipPath>
					<g class="st64">
						<g>
							<g>
								<defs>
									<path id="SVGID_122_" d="M775.7,477.4L887,461.9c0.7,3.8,1.2,9.1,1.6,16c0.4,9.5,0.3,19-0.4,28.4
										c-0.7,12.1-2.4,27.7-5.3,46.9c-2.9,19.2-7.2,43-13,71.4c1.9-0.5,3.9-1.1,6.1-1.7c2.2-0.7,3.9-1.2,5.2-1.7
										c2.5,3.6,4.5,7.6,5.8,11.8c1.9,5.8,3.1,11.7,3.5,17.8c1.4,16.6-2.7,31-12.6,43.5c-9.8,12.4-25.2,19.5-46.3,21.4
										c-38.5,3.4-59.4-13.1-62.6-49.4c-0.8-10.6-0.9-21.2-0.4-31.8c0.6-13.8,1.8-27.6,3.8-41.3c2-14.2,4.9-28.3,8.6-42.2
										c-7.9-5.4-12.3-14.3-13.4-26.8c-0.8-8.4-0.4-16.9,1.2-25.2C770.5,491.8,772.8,484.5,775.7,477.4 M846.8,458.7
										c-9.1,0.8-18.3-0.3-27-3.2c-8.3-2.7-15.9-7.4-21.9-13.7c-5.8-6.2-9.2-14-10-23.2s1.1-17.4,5.8-24.6
										c4.8-7.3,11.4-13.3,19.2-17.3c8-4.4,16.9-7,26-7.8c9-0.8,18.2,0.3,26.8,3.2c8.3,2.7,15.7,7.5,21.7,13.8
										c5.8,6.2,9.2,14,10,23.2c1.2,13.7-2.9,25.1-12.4,34.1S862.7,457.4,846.8,458.7"/>
								</defs>
								<clipPath id="SVGID_123_">
									<use xlink:href="#SVGID_122_"  style="overflow:visible;"/>
								</clipPath>
								<g class="st65">
									
										<linearGradient id="SVGID_124_" gradientUnits="userSpaceOnUse" x1="0.1712" y1="1201.071" x2="1.1712" y2="1201.071" gradientTransform="matrix(-0.4596 37.0872 37.0872 0.4596 -43711.2812 -36.3691)">
										<stop  offset="0" style="stop-color:#BABAFF"/>
										<stop  offset="1" style="stop-color:#BABAFF"/>
									</linearGradient>
									<polygon class="st66" points="762.6,719 767,366.4 902.8,368.1 898.5,720.7 									"/>
								</g>
							</g>
						</g>
					</g>
				</g>
			</g>
		</g>
		<g>
			<g>
				<g>
					<defs>
						<rect id="SVGID_125_" x="756.3" y="537.8" width="102.5" height="76.2"/>
					</defs>
					<clipPath id="SVGID_126_">
						<use xlink:href="#SVGID_125_"  style="overflow:visible;"/>
					</clipPath>
					<g class="st67">
						<g>
							<g>
								<defs>
									<path id="SVGID_127_" d="M781.2,551.1c3.1,2.3,7.2,3.9,12.5,4.9c5.6,1,11.3,1.2,16.9,0.7c7.5-0.6,15-1.8,22.3-3.6
										c6.3-1.7,10.2-2.7,11.8-3.2c1.2,3.1,0.3,7.6-2.7,13.5c-3.6,6.7-8,13-13,18.7c-5.7,6.6-12,12.5-19,17.8
										c-6.2,4.9-13.2,8.5-20.7,10.7c-6.9,1.9-13.1,1-18.5-2.7c1.3-10.4,2.8-20.8,4.5-31.2C776.5,568,778.5,559.4,781.2,551.1"/>
								</defs>
								<clipPath id="SVGID_128_">
									<use xlink:href="#SVGID_127_"  style="overflow:visible;"/>
								</clipPath>
								<g class="st68">
									
										<linearGradient id="SVGID_129_" gradientUnits="userSpaceOnUse" x1="0.3655" y1="1201.249" x2="1.3655" y2="1201.249" gradientTransform="matrix(23.6318 34.0778 34.0778 -23.6318 -40161.2734 28920.4883)">
										<stop  offset="0" style="stop-color:#4700CC"/>
										<stop  offset="1" style="stop-color:#BABAFF"/>
									</linearGradient>
									<polygon class="st69" points="741.4,570.3 821.4,514.8 875.2,592.3 795.1,647.8 									"/>
								</g>
							</g>
						</g>
					</g>
				</g>
			</g>
		</g>
		<g>
			<g>
				<g>
					<defs>
						<rect id="SVGID_130_" x="786.9" y="545" width="111.8" height="93.1"/>
					</defs>
					<clipPath id="SVGID_131_">
						<use xlink:href="#SVGID_130_"  style="overflow:visible;"/>
					</clipPath>
					<g class="st70">
						<g>
							<g>
								<defs>
									<path id="SVGID_132_" d="M803.1,636.4c0-7.1,2.8-15.2,8.5-24.3c6.1-9.7,13.2-18.7,21.2-26.9c8-8.3,16.9-15.8,26.5-22.3
										c9.1-6.1,17-9.4,23.7-10c-1.4,9.8-3.3,21.6-5.6,35.4s-4.8,26-7.4,36.5c-3.8,1-9.9,2.3-18.4,4s-17.3,3.3-26.3,4.7
										C816.2,634.9,808.8,635.9,803.1,636.4"/>
								</defs>
								<clipPath id="SVGID_133_">
									<use xlink:href="#SVGID_132_"  style="overflow:visible;"/>
								</clipPath>
								<g class="st71">
									
										<linearGradient id="SVGID_134_" gradientUnits="userSpaceOnUse" x1="1.5555" y1="1200.4003" x2="2.5555" y2="1200.4003" gradientTransform="matrix(-29.0777 -30.2373 -30.2373 29.0777 37215.8633 -34231.1953)">
										<stop  offset="0" style="stop-color:#4700CC"/>
										<stop  offset="1" style="stop-color:#BABAFF"/>
									</linearGradient>
									<polygon class="st72" points="761.3,593 844.6,513 924.7,596.3 841.4,676.3 									"/>
								</g>
							</g>
						</g>
					</g>
				</g>
			</g>
		</g>
		<g>
			<g>
				<g>
					<defs>
						<rect id="SVGID_135_" x="864.9" y="433.1" width="276.9" height="278.7"/>
					</defs>
					<clipPath id="SVGID_136_">
						<use xlink:href="#SVGID_135_"  style="overflow:visible;"/>
					</clipPath>
					<g class="st73">
						<g>
							<g>
								<defs>
									<path id="SVGID_137_" d="M894.9,695.7c1-17.4,2.5-36,4.5-55.8s4.3-38.3,6.9-55.7c2.7-17.4,5.5-30.9,8.5-40.5
										c-12.2-4.1-19.1-14.2-20.5-30.5c-0.8-8.6-0.5-17.3,1.1-25.9c1.3-7.3,3.6-14.4,6.8-21.1l106.5-15.1l-1.6,9.3
										c6.6-3.6,13.5-6.7,20.6-9c8.9-3.1,18.2-5,27.7-5.8c18.8-1.6,33.2,2.2,43.1,11.4c10,9.2,15.7,22.8,17.3,40.6
										c0.7,8.3,0.4,18.7-0.9,31.4s-3.3,25.6-6,39c-2.4,12.2-5.5,24.2-9.4,36c2.7-0.7,5.4-1.6,8-2.6c2.5,3.6,4.5,7.6,5.8,11.8
										c1.9,5.7,3.1,11.7,3.5,17.8c1.5,16.6-3,31.1-13.3,43.5c-10.3,12.5-29.5,19.9-57.5,22.4c-6.7,0.5-13.3,0.6-20,0.3
										c-7.6-0.3-14.8-0.9-21.6-1.7c-5.3-0.5-10.6-1.6-15.7-3.2c-2.4,2.1-6.5,4.2-12.2,6.1c-5.9,2-12,3.7-18.1,5
										c-5.5,1.2-11,2.1-16.6,2.7c-9,0.5-18,0.3-27-0.5C906.6,704.7,899.9,701.5,894.9,695.7"/>
								</defs>
								<clipPath id="SVGID_138_">
									<use xlink:href="#SVGID_137_"  style="overflow:visible;"/>
								</clipPath>
								<g class="st74">
									
										<linearGradient id="SVGID_139_" gradientUnits="userSpaceOnUse" x1="0.9933" y1="1200.7363" x2="1.9933" y2="1200.7363" gradientTransform="matrix(111.0315 -1.376 -1.376 -111.0315 2501.3989 133896.8594)">
										<stop  offset="0" style="stop-color:#BABAFF"/>
										<stop  offset="1" style="stop-color:#BABAFF"/>
									</linearGradient>
									<polygon class="st75" points="890.3,444.2 1118.4,441.3 1121.7,706.6 893.6,709.4 									"/>
								</g>
							</g>
						</g>
					</g>
				</g>
			</g>
		</g>
		<g>
			<g>
				<g>
					<defs>
						<rect id="SVGID_140_" x="890.2" y="527.3" width="99.3" height="74.9"/>
					</defs>
					<clipPath id="SVGID_141_">
						<use xlink:href="#SVGID_140_"  style="overflow:visible;"/>
					</clipPath>
					<g class="st76">
						<g>
							<g>
								<defs>
									<path id="SVGID_142_" d="M914.9,544.2c2.3,0.4,5.1,0.9,8.5,1.4c3.6,0.5,7.2,0.6,10.9,0.2c8.8-0.8,17.4-2.7,25.8-5.6
										c8.6-3,13.6-4.7,15.2-5.2c1.2,3.1,0.4,7.7-2.4,13.9c-3.3,7-7.4,13.6-12.2,19.6c-5.3,6.8-11.3,13.1-17.9,18.7
										c-6.6,5.6-13.2,9.3-20,11.1c-6.3,2-13.1,0.8-18.3-3.2c1.1-5.6,2.3-11.8,3.4-18.8s2.4-13.5,3.6-19.5
										C912.7,550.8,913.8,546.6,914.9,544.2"/>
								</defs>
								<clipPath id="SVGID_143_">
									<use xlink:href="#SVGID_142_"  style="overflow:visible;"/>
								</clipPath>
								<g class="st77">
									
										<linearGradient id="SVGID_144_" gradientUnits="userSpaceOnUse" x1="0.4016" y1="1201.2806" x2="1.4016" y2="1201.2806" gradientTransform="matrix(26.7044 29.7939 29.7939 -26.7044 -34888.0508 32605.1855)">
										<stop  offset="0" style="stop-color:#4700CC"/>
										<stop  offset="1" style="stop-color:#BABAFF"/>
									</linearGradient>
									<polygon class="st78" points="872,564.2 944.4,499.3 1008.9,571.3 936.5,636.1 									"/>
								</g>
							</g>
						</g>
					</g>
				</g>
			</g>
		</g>
		<g>
			<g>
				<g>
					<defs>
						<rect id="SVGID_145_" x="957.6" y="438" width="119.3" height="163"/>
					</defs>
					<clipPath id="SVGID_146_">
						<use xlink:href="#SVGID_145_"  style="overflow:visible;"/>
					</clipPath>
					<g class="st79">
						<g>
							<g>
								<defs>
									<path id="SVGID_147_" d="M979.9,599.2l27.3-138.7c5.2-3,12.4-6.1,21.6-9.1c8.5-2.9,17.3-4.8,26.2-5.7
										c-0.1,2.3-1.6,7.4-4.4,15.5s-6.5,17.8-11.2,29.2c-4.6,11.3-9.8,23.2-15.4,35.5s-11.2,23.9-16.7,34.7
										c-4.6,9.3-9.8,18.2-15.5,26.9C987,594.7,983,598.6,979.9,599.2"/>
								</defs>
								<clipPath id="SVGID_148_">
									<use xlink:href="#SVGID_147_"  style="overflow:visible;"/>
								</clipPath>
								<g class="st80">
									
										<linearGradient id="SVGID_149_" gradientUnits="userSpaceOnUse" x1="0.5603" y1="1201.3707" x2="1.5603" y2="1201.3707" gradientTransform="matrix(28.1537 12.2416 12.2416 -28.1537 -13736.3164 34325.0859)">
										<stop  offset="0" style="stop-color:#4700CC"/>
										<stop  offset="1" style="stop-color:#BABAFF"/>
									</linearGradient>
									<polygon class="st81" points="923.9,574.9 991.9,418.4 1111.2,470.2 1043.2,626.8 									"/>
								</g>
							</g>
						</g>
					</g>
				</g>
			</g>
		</g>
		<g>
			<g>
				<g>
					<defs>
						<rect id="SVGID_150_" x="963.7" y="497.1" width="119.1" height="206.6"/>
					</defs>
					<clipPath id="SVGID_151_">
						<use xlink:href="#SVGID_150_"  style="overflow:visible;"/>
					</clipPath>
					<g class="st82">
						<g>
							<g>
								<defs>
									<path id="SVGID_152_" d="M989,692.3c6.9-50,16.4-90.2,28.7-120.5s25.2-52.6,38.7-67c2.2,6.6,2.1,16.3-0.1,29.1
										s-5.2,27.5-8.9,43.9c-3.7,16.4-6.8,33.7-9.4,51.9c-1.7,13-2.1,24.3-1.1,33.8s4.1,20.7,9.4,33.4c-6,0.4-12,0.6-18,0.4
										c-7.2-0.2-14.4-0.7-21.5-1.5C1000.7,695.2,994.8,694,989,692.3"/>
								</defs>
								<clipPath id="SVGID_153_">
									<use xlink:href="#SVGID_152_"  style="overflow:visible;"/>
								</clipPath>
								<g class="st83">
									
										<linearGradient id="SVGID_154_" gradientUnits="userSpaceOnUse" x1="0.7798" y1="1203.0178" x2="1.7798" y2="1203.0178" gradientTransform="matrix(35.25 7.8341 7.8341 -35.25 -8452.8398 42996.0312)">
										<stop  offset="0" style="stop-color:#4700CC"/>
										<stop  offset="1" style="stop-color:#BABAFF"/>
									</linearGradient>
									<polygon class="st84" points="948.3,688.5 992.4,490.2 1099.4,514 1055.4,712.3 									"/>
								</g>
							</g>
						</g>
					</g>
				</g>
			</g>
		</g>
		<g>
			<g>
				<g>
					<defs>
						<rect id="SVGID_155_" x="1020" y="524.8" width="110.3" height="93"/>
					</defs>
					<clipPath id="SVGID_156_">
						<use xlink:href="#SVGID_155_"  style="overflow:visible;"/>
					</clipPath>
					<g class="st85">
						<g>
							<g>
								<defs>
									<path id="SVGID_157_" d="M1036.3,616c0-7.1,2.7-15.2,8.2-24.3c5.9-9.7,12.9-18.7,20.8-26.8c7.9-8.3,16.6-15.8,26-22.3
										c8.9-6.1,16.8-9.4,23.4-10c-0.6,7.7-1.6,15.3-3.1,22.9c-1.6,8.8-3.4,17.6-5.4,26.2c-1.7,7.6-3.8,15.1-6.5,22.5
										c-5.6,1.8-11.4,3.3-17.2,4.4c-8,1.7-16.3,3.2-24.9,4.6C1049.2,614.5,1042,615.5,1036.3,616"/>
								</defs>
								<clipPath id="SVGID_158_">
									<use xlink:href="#SVGID_157_"  style="overflow:visible;"/>
								</clipPath>
								<g class="st86">
									
										<linearGradient id="SVGID_159_" gradientUnits="userSpaceOnUse" x1="1.6448" y1="1200.2318" x2="2.6448" y2="1200.2318" gradientTransform="matrix(-24.6553 -27.5078 -27.5078 24.6553 34161.2773 -28939.6289)">
										<stop  offset="0" style="stop-color:#4700CC"/>
										<stop  offset="1" style="stop-color:#BABAFF"/>
									</linearGradient>
									<polygon class="st87" points="994.8,569.7 1079.7,493.6 1156.1,578.8 1071.2,654.9 									"/>
								</g>
							</g>
						</g>
					</g>
				</g>
			</g>
		</g>
		<g>
			<g>
				<g>
					<defs>
						<rect id="SVGID_160_" x="1096" y="379.5" width="205.6" height="309.5"/>
					</defs>
					<clipPath id="SVGID_161_">
						<use xlink:href="#SVGID_160_"  style="overflow:visible;"/>
					</clipPath>
					<g class="st88">
						<g>
							<g>
								<defs>
									<path id="SVGID_162_" d="M1122,534.3c-2-30.3,1.4-55.7,10.2-76.2c8.8-20.5,20.9-36.3,36.3-47.5
										c15.4-11.1,31.7-17.5,48.9-19c5.4-0.4,10.8-0.4,16.1,0c6,0.4,10.7,1.5,14,3.1l-5.7,39.5c9.6-0.8,16.7-1.9,21.4-3.3
										c3,3.6,5.4,7.7,7.1,12.1c1.9,4.8,3.1,11,3.8,18.7c1,10.8,0.5,21.7-1.5,32.4c-2,10.1-5.9,18.6-11.7,25.3
										c-5.8,6.8-13.8,10.6-24,11.5l-8.6,61.4c8.7-2.2,17.3-4.8,25.8-8c4.3,5.4,6.9,12.9,7.8,22.4c1.8,20.4-3.2,37.4-15,51.2
										s-29.5,21.6-53.1,23.7c-21.3,1.9-37.7-2.6-49.1-13.5s-18-26.2-19.7-46c-0.7-9.2-0.5-18.4,0.5-27.5c1-10.4,2.4-20.7,4.3-31
										s3.6-18.9,5.2-25.7c-2.3-0.4-4.5-1-6.6-1.6s-4.2-1.3-6.2-2.1"/>
								</defs>
								<clipPath id="SVGID_163_">
									<use xlink:href="#SVGID_162_"  style="overflow:visible;"/>
								</clipPath>
								<g class="st89">
									
										<linearGradient id="SVGID_164_" gradientUnits="userSpaceOnUse" x1="0.963" y1="1200.9103" x2="1.963" y2="1200.9103" gradientTransform="matrix(65.6446 2.4415 2.4415 -65.6446 -1844.5955 79366.6016)">
										<stop  offset="0" style="stop-color:#BABAFF"/>
										<stop  offset="1" style="stop-color:#BABAFF"/>
									</linearGradient>
									<polygon class="st90" points="1109.3,683.2 1120.4,385.5 1286.1,391.7 1275,689.3 									"/>
								</g>
							</g>
						</g>
					</g>
				</g>
			</g>
		</g>
		<g>
			<g>
				<g>
					<defs>
						<rect id="SVGID_165_" x="1111" y="523.1" width="119.6" height="73.8"/>
					</defs>
					<clipPath id="SVGID_166_">
						<use xlink:href="#SVGID_165_"  style="overflow:visible;"/>
					</clipPath>
					<g class="st91">
						<g>
							<g>
								<defs>
									<path id="SVGID_167_" d="M1134.9,538c7.5,1.6,16.9,2,28,1.2s26.3-3.4,45.6-7.6c12.1,3.1,11.8,9.8-1.1,20.1
										s-40.2,24.8-81.9,43.5c0.8-9.7,2-19.4,3.7-29C1130.9,556.5,1132.8,547.1,1134.9,538"/>
								</defs>
								<clipPath id="SVGID_168_">
									<use xlink:href="#SVGID_167_"  style="overflow:visible;"/>
								</clipPath>
								<g class="st92">
									
										<linearGradient id="SVGID_169_" gradientUnits="userSpaceOnUse" x1="0.5055" y1="1201.4296" x2="1.5055" y2="1201.4296" gradientTransform="matrix(30.2421 43.6101 43.6101 -30.2421 -51270.2773 36826.7422)">
										<stop  offset="0" style="stop-color:#4700CC"/>
										<stop  offset="1" style="stop-color:#BABAFF"/>
									</linearGradient>
									<polygon class="st93" points="1095.7,552.3 1189.7,487.1 1250.4,574.6 1156.4,639.8 									"/>
								</g>
							</g>
						</g>
					</g>
				</g>
			</g>
		</g>
		<g>
			<g>
				<g>
					<defs>
						<rect id="SVGID_170_" x="1144" y="533" width="105.1" height="70.7"/>
					</defs>
					<clipPath id="SVGID_171_">
						<use xlink:href="#SVGID_170_"  style="overflow:visible;"/>
					</clipPath>
					<g class="st94">
						<g>
							<g>
								<defs>
									<path id="SVGID_172_" d="M1158.3,601.9c4.1-8.1,8.8-16.8,14.1-26.3c5.6-9.8,13.3-18.1,22.7-24.4c9.8-6.8,23.3-10.1,40.3-10
										l-7.1,51.2c-5.3,1.1-12.4,2.4-21.3,3.8s-17.7,2.6-26.4,3.5C1171.8,600.6,1164.4,601.4,1158.3,601.9"/>
								</defs>
								<clipPath id="SVGID_173_">
									<use xlink:href="#SVGID_172_"  style="overflow:visible;"/>
								</clipPath>
								<g class="st95">
									
										<linearGradient id="SVGID_174_" gradientUnits="userSpaceOnUse" x1="1.4994" y1="1200.8435" x2="2.4994" y2="1200.8435" gradientTransform="matrix(-31.1866 -38.9411 -38.9411 31.1866 48038.5156 -36779.3477)">
										<stop  offset="0" style="stop-color:#4700CC"/>
										<stop  offset="1" style="stop-color:#BABAFF"/>
									</linearGradient>
									<polygon class="st96" points="1128.6,564.9 1205.2,503.6 1265,578.2 1188.4,639.5 									"/>
								</g>
							</g>
						</g>
					</g>
				</g>
			</g>
		</g>
		<g>
			<g>
				<g>
					<defs>
						<rect id="SVGID_175_" x="1169.2" y="387" width="90.8" height="54.6"/>
					</defs>
					<clipPath id="SVGID_176_">
						<use xlink:href="#SVGID_175_"  style="overflow:visible;"/>
					</clipPath>
					<g class="st97">
						<g>
							<g>
								<defs>
									<path id="SVGID_177_" d="M1182.1,439c0.4-10.3,4-18.6,10.8-24.8c7.2-6.4,15.7-11.2,25-14c9.6-3.1,19.6-4.9,29.6-5.5
										l-5.7,39.5c-9.8,1.2-19.7,2.1-29.6,2.8C1202.4,437.8,1192.3,438.4,1182.1,439"/>
								</defs>
								<clipPath id="SVGID_178_">
									<use xlink:href="#SVGID_177_"  style="overflow:visible;"/>
								</clipPath>
								<g class="st98">
									
										<linearGradient id="SVGID_179_" gradientUnits="userSpaceOnUse" x1="1.6501" y1="1200.8295" x2="2.6501" y2="1200.8295" gradientTransform="matrix(-23.0279 -33.1945 -33.1945 23.0279 41137.625 -27146.6113)">
										<stop  offset="0" style="stop-color:#4700CC"/>
										<stop  offset="1" style="stop-color:#BABAFF"/>
									</linearGradient>
									<polygon class="st99" points="1161.3,409 1226.3,364 1268.3,424.5 1203.3,469.5 									"/>
								</g>
							</g>
						</g>
					</g>
				</g>
			</g>
		</g>
		<g>
			<g>
				<g>
					<defs>
						<rect id="SVGID_180_" x="1241.9" y="401" width="267.4" height="277.9"/>
					</defs>
					<clipPath id="SVGID_181_">
						<use xlink:href="#SVGID_180_"  style="overflow:visible;"/>
					</clipPath>
					<g class="st100">
						<g>
							<g>
								<defs>
									<path id="SVGID_182_" d="M1418,664.4c-7.9,0.8-15.9,0.9-23.8,0.4c-7.2-0.6-14.3-1.9-21.3-3.7c-5.8,3-12,5.3-18.4,6.9
										c-7.1,1.9-14.3,3.2-21.6,3.8c-19.1,1.7-34.4-3.2-45.8-14.5c-11.4-11.4-18.3-30.1-20.6-56.2c-2-22.2-0.8-44.5,3.6-66.3
										c4.4-21.2,11.2-40.4,20.3-57.4c9.1-17,19.8-30.7,32-41.1c12.3-10.4,25.2-16.2,38.9-17.4c5.1-0.5,10.3-0.4,15.4,0.1
										c5.7,0.8,11.4,2.2,16.8,4.3c6.1-3.3,12.6-5.8,19.3-7.2c6.6-1.6,13.4-2.8,20.2-3.5c18.5-1.6,33.9,0.2,46.2,5.6
										c0.6,6.4,0.2,16.1-1,29.2s-3,27.6-5.4,43.3c-2.3,15.8-4.7,31.1-7.1,45.9s-4.5,27-6.2,36.4c3.1-0.9,5.7-1.6,7.8-2.1
										s3.7-1,4.9-1.4c2.2,3.8,4.1,7.7,5.6,11.8c2.1,5.7,3.3,11.7,3.7,17.7c1.7,19.1-3.6,34.3-15.8,45.7
										C1453.7,656.2,1437.8,662.7,1418,664.4"/>
								</defs>
								<clipPath id="SVGID_183_">
									<use xlink:href="#SVGID_182_"  style="overflow:visible;"/>
								</clipPath>
								<g class="st101">
									
										<linearGradient id="SVGID_184_" gradientUnits="userSpaceOnUse" x1="0.8468" y1="1200.7906" x2="1.8468" y2="1200.7906" gradientTransform="matrix(-93.976 70.482 70.482 93.976 -83117.5625 -112415.2188)">
										<stop  offset="0" style="stop-color:#BABAFF"/>
										<stop  offset="1" style="stop-color:#BABAFF"/>
									</linearGradient>
									<polygon class="st102" points="1137.6,501.3 1403.4,301.9 1608.1,574.9 1342.3,774.2 									"/>
								</g>
							</g>
						</g>
					</g>
				</g>
			</g>
		</g>
		<g>
			<g>
				<g>
					<defs>
						<rect id="SVGID_185_" x="1283.5" y="408.5" width="133.7" height="192.3"/>
					</defs>
					<clipPath id="SVGID_186_">
						<use xlink:href="#SVGID_185_"  style="overflow:visible;"/>
					</clipPath>
					<g class="st103">
						<g>
							<g>
								<defs>
									<path id="SVGID_187_" d="M1393.5,423.4c-2.8,11.8-6.8,25.4-11.8,40.8c-5.1,15.4-10.9,31.2-17.5,47.5
										c-6.6,16.3-13.5,31.6-20.8,45.9s-14.5,26.2-21.7,35.8c-4.6,6.2-8.3,6.7-11,1.4s-4.5-14-5.2-26.3c-0.8-14-0.7-28,0.2-41.9
										c0.9-15.6,2.6-31.1,5.1-46.4s5.9-28.3,10.1-38.9c1.9-4.3,5.5-8.1,10.8-11.3c5-3,10.2-5.6,15.7-7.6c5.1-1.9,8.3-2.9,9.6-3
										c6.4-0.7,12.8-0.7,19.2-0.2C1382.2,419.8,1388,421.2,1393.5,423.4"/>
								</defs>
								<clipPath id="SVGID_188_">
									<use xlink:href="#SVGID_187_"  style="overflow:visible;"/>
								</clipPath>
								<g class="st104">
									
										<linearGradient id="SVGID_189_" gradientUnits="userSpaceOnUse" x1="1.1482" y1="1201.3657" x2="2.1482" y2="1201.3657" gradientTransform="matrix(-48.0964 -9.471 -9.471 48.0964 12816.4639 -57254.5547)">
										<stop  offset="0" style="stop-color:#4700CC"/>
										<stop  offset="1" style="stop-color:#BABAFF"/>
									</linearGradient>
									<polygon class="st105" points="1270.4,593.2 1308.1,401.7 1427.9,425.3 1390.2,616.8 									"/>
								</g>
							</g>
						</g>
					</g>
				</g>
			</g>
		</g>
		<g>
			<g>
				<g>
					<g>
						<g>
							<defs>
								<path id="SVGID_190_" d="M1372.9,661.1c-4.9,2.4-9.7,4.5-14.4,6.3c-4.7,1.9-13.2,3.3-25.6,4.4c-10.2,0.9-17.8-0.2-22.7-3.3
									c-4.8-2.8-7.9-7.7-8.6-13.2c-0.4-4.8,1.1-11.1,4.6-19s8.1-16.9,13.8-27c5.7-10.1,11.6-20.6,17.7-31.4
									c6.7-12.1,13.4-23.8,20.3-35c5.8-9.7,12.3-19,19.2-27.9c5.9-7.4,10.9-12,14.9-13.6s6.6,0.9,7.6,7.5
									c1.1,6.7,0.1,18.8-2.8,36.4c-2.5,16-5.7,32.5-9.6,49.7s-8.8,39.2-14.4,66"/>
							</defs>
							<clipPath id="SVGID_191_">
								<use xlink:href="#SVGID_190_"  style="overflow:visible;"/>
							</clipPath>
							<g class="st106">
								
									<linearGradient id="SVGID_192_" gradientUnits="userSpaceOnUse" x1="1.4439" y1="1200.0717" x2="2.4439" y2="1200.0717" gradientTransform="matrix(-30.5712 -15.3757 -15.3757 30.5712 19893.209 -36055.9844)">
									<stop  offset="0" style="stop-color:#4700CC"/>
									<stop  offset="1" style="stop-color:#BABAFF"/>
								</linearGradient>
								<polygon class="st107" points="1231.8,637.8 1321.3,459.8 1470.3,534.8 1380.8,712.7 								"/>
							</g>
						</g>
					</g>
				</g>
			</g>
		</g>
		<g>
			<g>
				<defs>
					<path id="SVGID_193_" d="M1409.9,582.8c0.8-5.2,3.1-11.5,6.8-18.9c8.3-16.2,19.5-30.7,33.1-42.9c6.8-6,13.7-10.3,20.5-12.9
						c-0.3,3.9-1.1,10-2.5,18.3s-2.8,16.9-4.3,25.7s-2.8,15.8-3.9,21c-1.6,0.5-5,1.2-10.4,2.3s-11.6,2.3-18.7,3.6
						C1423.4,580.3,1416.5,581.5,1409.9,582.8"/>
				</defs>
				<clipPath id="SVGID_194_">
					<use xlink:href="#SVGID_193_"  style="overflow:visible;"/>
				</clipPath>
				<g class="st108">
					
						<linearGradient id="SVGID_195_" gradientUnits="userSpaceOnUse" x1="1.6748" y1="1199.6334" x2="2.6748" y2="1199.6334" gradientTransform="matrix(-23.2858 -18.1602 -18.1602 23.2858 23291.4473 -27337.668)">
						<stop  offset="0" style="stop-color:#4700CC"/>
						<stop  offset="1" style="stop-color:#BABAFF"/>
					</linearGradient>
					<polygon class="st109" points="1373.6,554.5 1432.7,478.8 1506.4,536.3 1447.4,612 					"/>
				</g>
			</g>
		</g>
	</g>
</g>
</svg>
