<?xml version="1.0" encoding="utf-8"?>
<!-- Generator: Adobe Illustrator 27.4.0, SVG Export Plug-In . SVG Version: 6.00 Build 0)  -->
<svg version="1.1" id="Ebene_1" xmlns="http://www.w3.org/2000/svg" xmlns:xlink="http://www.w3.org/1999/xlink" x="0px" y="0px"
	 viewBox="0 0 960 1200" style="enable-background:new 0 0 960 1200;" xml:space="preserve">
<style type="text/css">
	.st0{clip-path:url(#SVGID_00000163794054066232001360000007508885620446389919_);fill:#010202;}
	.st1{clip-path:url(#SVGID_00000163794054066232001360000007508885620446389919_);}
	.st2{clip-path:url(#SVGID_00000131367987187264188020000016176159854744121268_);fill:#FFFFFF;}
	
		.st3{clip-path:url(#SVGID_00000131367987187264188020000016176159854744121268_);fill:none;stroke:#FFFFFF;stroke-width:5.245;stroke-miterlimit:10;}
	.st4{clip-path:url(#SVGID_00000163794054066232001360000007508885620446389919_);fill:#FFFFFF;}
	
		.st5{clip-path:url(#SVGID_00000163794054066232001360000007508885620446389919_);fill:none;stroke:#FFFFFF;stroke-width:5.245;stroke-miterlimit:10;}
	.st6{clip-path:url(#SVGID_00000142854816552590440520000017062808259023348131_);fill:#010202;}
	
		.st7{clip-path:url(#SVGID_00000142854816552590440520000017062808259023348131_);fill:none;stroke:#FFFFFF;stroke-width:5.245;stroke-miterlimit:10;}
	.st8{clip-path:url(#SVGID_00000142854816552590440520000017062808259023348131_);fill:#FFFFFF;}
	.st9{clip-path:url(#SVGID_00000102540397491544052690000008157661125097861004_);fill:#010202;}
	.st10{clip-path:url(#SVGID_00000102540397491544052690000008157661125097861004_);}
	.st11{clip-path:url(#SVGID_00000025408932366573625140000011245581159203961022_);fill:#FFFFFF;}
	
		.st12{clip-path:url(#SVGID_00000025408932366573625140000011245581159203961022_);fill:none;stroke:#FFFFFF;stroke-width:2.098;stroke-miterlimit:10;}
	.st13{clip-path:url(#SVGID_00000102540397491544052690000008157661125097861004_);fill:#FFFFFF;}
	
		.st14{clip-path:url(#SVGID_00000102540397491544052690000008157661125097861004_);fill:none;stroke:#FFFFFF;stroke-width:2.098;stroke-miterlimit:10;}
	.st15{clip-path:url(#SVGID_00000128472556467927095220000017398009018963930295_);fill:#010202;}
	
		.st16{clip-path:url(#SVGID_00000128472556467927095220000017398009018963930295_);fill:none;stroke:#FFFFFF;stroke-width:2.098;stroke-miterlimit:10;}
	.st17{clip-path:url(#SVGID_00000128472556467927095220000017398009018963930295_);fill:#FFFFFF;}
	.st18{clip-path:url(#SVGID_00000015334323921677201090000011947721879308328859_);}
	.st19{clip-path:url(#SVGID_00000090290902394669610760000015265680928676273042_);fill:#010202;}
	.st20{clip-path:url(#SVGID_00000072252070515262581020000002732288966263931313_);fill:#010202;}
	.st21{clip-path:url(#SVGID_00000072252070515262581020000002732288966263931313_);}
	.st22{clip-path:url(#SVGID_00000003078933813290050670000008407414732664454548_);fill:#FFFFFF;}
	.st23{clip-path:url(#SVGID_00000163061858274256270890000002726797449271489157_);}
	.st24{clip-path:url(#SVGID_00000095337941772277692660000001565818599131310993_);fill:#010202;}
	
		.st25{clip-path:url(#SVGID_00000095337941772277692660000001565818599131310993_);fill:none;stroke:#010202;stroke-width:23.345;stroke-miterlimit:10;}
	.st26{clip-path:url(#SVGID_00000095337941772277692660000001565818599131310993_);fill:#FFFFFF;}
	
		.st27{clip-path:url(#SVGID_00000095337941772277692660000001565818599131310993_);fill:none;stroke:#FFFFFF;stroke-width:0.657;stroke-miterlimit:10;}
	
		.st28{clip-path:url(#SVGID_00000095337941772277692660000001565818599131310993_);fill:none;stroke:#FFFFFF;stroke-width:6.571;stroke-miterlimit:10;}
	
		.st29{clip-path:url(#SVGID_00000095337941772277692660000001565818599131310993_);fill:none;stroke:#010202;stroke-width:3.147;stroke-miterlimit:10;}
	
		.st30{clip-path:url(#SVGID_00000163061858274256270890000002726797449271489157_);fill:none;stroke:#010202;stroke-width:3.147;stroke-miterlimit:10;}
	.st31{clip-path:url(#SVGID_00000075851428065266258240000001727692093351976849_);fill:#010202;}
	.st32{clip-path:url(#SVGID_00000075851428065266258240000001727692093351976849_);fill:#FFFFFF;}
	.st33{clip-path:url(#SVGID_00000163061858274256270890000002726797449271489157_);fill:#010202;}
	.st34{clip-path:url(#SVGID_00000059277032848432917690000010269009774195340979_);}
	.st35{clip-path:url(#SVGID_00000062911483819698793690000002690420007270002579_);fill:#010202;}
	.st36{clip-path:url(#SVGID_00000062911483819698793690000002690420007270002579_);}
	.st37{clip-path:url(#SVGID_00000099661968522690320700000004804277373702514081_);fill:#FFFFFF;}
	.st38{clip-path:url(#SVGID_00000062911483819698793690000002690420007270002579_);fill:#B4B4B4;}
	.st39{clip-path:url(#SVGID_00000062911483819698793690000002690420007270002579_);fill:#FFFFFF;}
	.st40{clip-path:url(#SVGID_00000047751334155305157840000012907819998560335290_);fill:#010202;}
	.st41{clip-path:url(#SVGID_00000064321322754751714980000014066184178050184334_);fill:#010202;}
	.st42{clip-path:url(#SVGID_00000146470447064390107230000014332094651847242673_);enable-background:new    ;}
	.st43{clip-path:url(#SVGID_00000109749281809843911030000017247302736744612769_);}
	.st44{clip-path:url(#SVGID_00000169538501311762102480000015467860667527814016_);fill:#010202;}
	.st45{clip-path:url(#SVGID_00000169538501311762102480000015467860667527814016_);fill:none;stroke:#010202;stroke-width:0.82;}
	.st46{clip-path:url(#SVGID_00000169538501311762102480000015467860667527814016_);fill:none;stroke:#010202;stroke-width:0.864;}
	.st47{clip-path:url(#SVGID_00000169538501311762102480000015467860667527814016_);fill:#FFFFFF;}
	.st48{clip-path:url(#SVGID_00000169538501311762102480000015467860667527814016_);fill:none;stroke:#010202;stroke-width:1.639;}
	
		.st49{clip-path:url(#SVGID_00000169538501311762102480000015467860667527814016_);fill:none;stroke:#010202;stroke-width:4.918;stroke-linecap:round;}
	
		.st50{clip-path:url(#SVGID_00000169538501311762102480000015467860667527814016_);fill:none;stroke:#010202;stroke-width:4.918;stroke-linecap:round;stroke-dasharray:0.367,7.34;}
	
		.st51{clip-path:url(#SVGID_00000169538501311762102480000015467860667527814016_);fill:none;stroke:#010202;stroke-width:4.918;stroke-linecap:round;stroke-dasharray:0.367,7.34,0.367,7.34;}
	
		.st52{clip-path:url(#SVGID_00000169538501311762102480000015467860667527814016_);fill:none;stroke:#010202;stroke-width:4.918;stroke-linecap:round;stroke-dasharray:0.32,6.386;}
	
		.st53{clip-path:url(#SVGID_00000169538501311762102480000015467860667527814016_);fill:none;stroke:#010202;stroke-width:4.918;stroke-linecap:round;stroke-dasharray:0.32,6.386,0.32,6.386;}
	
		.st54{clip-path:url(#SVGID_00000169538501311762102480000015467860667527814016_);fill:none;stroke:#010202;stroke-width:4.918;stroke-linecap:round;stroke-dasharray:0.359,7.186;}
	
		.st55{clip-path:url(#SVGID_00000169538501311762102480000015467860667527814016_);fill:none;stroke:#010202;stroke-width:4.918;stroke-linecap:round;stroke-dasharray:0.359,7.186,0.359,7.186;}
	
		.st56{clip-path:url(#SVGID_00000169538501311762102480000015467860667527814016_);fill:none;stroke:#010202;stroke-width:4.918;stroke-linecap:round;stroke-dasharray:0.326,6.528;}
	
		.st57{clip-path:url(#SVGID_00000169538501311762102480000015467860667527814016_);fill:none;stroke:#010202;stroke-width:4.918;stroke-linecap:round;stroke-dasharray:0.326,6.528,0.326,6.528;}
	.st58{clip-path:url(#SVGID_00000169538501311762102480000015467860667527814016_);fill:none;stroke:#010202;stroke-width:0.828;}
	.st59{clip-path:url(#SVGID_00000169538501311762102480000015467860667527814016_);fill:none;stroke:#010202;stroke-width:0.987;}
	.st60{opacity:0.33;clip-path:url(#SVGID_00000169538501311762102480000015467860667527814016_);}
	.st61{clip-path:url(#SVGID_00000041988849891862248050000012419831917772946089_);}
	.st62{clip-path:url(#SVGID_00000134241893244928016570000006866559022922359686_);fill:#010202;}
	.st63{clip-path:url(#SVGID_00000146472444093274903490000005330341057199077539_);}
	.st64{clip-path:url(#SVGID_00000155108263628507829260000006347362802728275843_);fill:#010202;}
	.st65{clip-path:url(#SVGID_00000006684329057398022790000009814107990426474880_);}
	.st66{clip-path:url(#SVGID_00000038395429070837677190000016372518983900698007_);fill:#010202;}
	.st67{opacity:0.5;clip-path:url(#SVGID_00000169538501311762102480000015467860667527814016_);}
	.st68{clip-path:url(#SVGID_00000142151935644328001780000002785244557732900787_);}
	.st69{clip-path:url(#SVGID_00000088837646356298030650000008672164507721158039_);fill:#010202;}
	
		.st70{clip-path:url(#SVGID_00000169538501311762102480000015467860667527814016_);fill:none;stroke:#010202;stroke-width:0.82;stroke-miterlimit:10;}
	
		.st71{clip-path:url(#SVGID_00000169538501311762102480000015467860667527814016_);fill:none;stroke:#010202;stroke-width:0.82;stroke-linejoin:bevel;}
	
		.st72{clip-path:url(#SVGID_00000169538501311762102480000015467860667527814016_);fill:none;stroke:#010202;stroke-width:0.83;stroke-linejoin:bevel;}
	
		.st73{clip-path:url(#SVGID_00000169538501311762102480000015467860667527814016_);fill:none;stroke:#010202;stroke-width:0.877;stroke-linejoin:bevel;}
	
		.st74{clip-path:url(#SVGID_00000169538501311762102480000015467860667527814016_);fill:none;stroke:#010202;stroke-width:0.536;stroke-linejoin:bevel;}
	.st75{clip-path:url(#SVGID_00000120554320221973011620000015186054174205567390_);fill:#010202;}
	.st76{clip-path:url(#SVGID_00000005250836653848751160000004221282139035794847_);fill:#9D9D9C;}
	.st77{clip-path:url(#SVGID_00000118393945752320555990000012291377795803207585_);fill:#010202;}
	.st78{clip-path:url(#SVGID_00000088847156696826573350000017407333067321477801_);fill:#010202;}
	.st79{clip-path:url(#SVGID_00000175291719003148555280000012089912828797764253_);fill:#010202;}
	.st80{clip-path:url(#SVGID_00000092445650159907989230000010640943748972893592_);fill:#010202;}
	.st81{clip-path:url(#SVGID_00000101791319704889711690000008852584840305537682_);fill:#010202;}
	.st82{clip-path:url(#SVGID_00000138563915906242127730000008281055978787302039_);fill:#010202;}
	.st83{clip-path:url(#SVGID_00000044154307969949242040000017788636730433149357_);fill:#010202;}
	.st84{clip-path:url(#SVGID_00000028307878775612991570000008238522785080812439_);fill:#010202;}
	.st85{clip-path:url(#SVGID_00000062154190282075677370000011483471125610100908_);fill:#010202;}
	.st86{clip-path:url(#SVGID_00000173858231558741678120000001987440898153970094_);fill:#010202;}
	.st87{clip-path:url(#SVGID_00000087377753091908265460000000405459466876387215_);fill:#010202;}
	.st88{clip-path:url(#SVGID_00000166669415931069416390000006449860951290696072_);fill:#010202;}
	.st89{clip-path:url(#SVGID_00000040534604192467609220000013523671256995201959_);fill:#010202;}
	.st90{clip-path:url(#SVGID_00000132780704922264621520000007109596513415687846_);fill:#010202;}
	.st91{clip-path:url(#SVGID_00000030461880442702812580000008238446758218862248_);fill:#010202;}
	.st92{clip-path:url(#SVGID_00000179621668030220754020000017194723516363186820_);fill:#010202;}
	.st93{clip-path:url(#SVGID_00000151540924934546765170000014011640597271806606_);fill:#010202;}
	.st94{clip-path:url(#SVGID_00000065049518305729410380000000906485149725670044_);fill:#010202;}
	.st95{clip-path:url(#SVGID_00000044856654504901449040000003428131608591716012_);fill:#010202;}
	.st96{clip-path:url(#SVGID_00000101077836273117120140000001712587518408433065_);fill:#010202;}
	.st97{clip-path:url(#SVGID_00000024714145925427545660000014322875347928433286_);fill:#010202;}
	.st98{clip-path:url(#SVGID_00000090255486610965135760000013345852553807134604_);fill:#FFFFFF;}
	.st99{clip-path:url(#SVGID_00000090255486610965135760000013345852553807134604_);fill:#010202;}
	.st100{clip-path:url(#SVGID_00000155864852295149523100000004738037921043926912_);fill:#010202;}
	.st101{clip-path:url(#SVGID_00000099623076242228819540000000740635128935706780_);fill:#010202;}
	.st102{clip-path:url(#SVGID_00000165224645320157355260000001951516694235873442_);fill:#010202;}
	.st103{clip-path:url(#SVGID_00000165224645320157355260000001951516694235873442_);fill:#FFFFFF;}
	.st104{clip-path:url(#SVGID_00000165224645320157355260000001951516694235873442_);fill:none;stroke:#010202;stroke-width:1.366;}
	
		.st105{clip-path:url(#SVGID_00000062911483819698793690000002690420007270002579_);fill:none;stroke:#010202;stroke-width:4.098;stroke-linecap:round;}
	
		.st106{clip-path:url(#SVGID_00000062911483819698793690000002690420007270002579_);fill:none;stroke:#010202;stroke-width:4.098;stroke-linecap:round;stroke-dasharray:0.945,5.199;}
	
		.st107{clip-path:url(#SVGID_00000062911483819698793690000002690420007270002579_);fill:none;stroke:#010202;stroke-width:4.098;stroke-linecap:round;stroke-dasharray:0,4.154,0,4.154;stroke-dashoffset:4;}
	.st108{clip-path:url(#SVGID_00000106110967240041580010000010322562901404792725_);fill:#010202;}
	.st109{clip-path:url(#SVGID_00000106110967240041580010000010322562901404792725_);fill:none;stroke:#010202;stroke-width:1.366;}
	.st110{clip-path:url(#SVGID_00000106110967240041580010000010322562901404792725_);fill:#FFFFFF;}
	
		.st111{clip-path:url(#SVGID_00000062911483819698793690000002690420007270002579_);fill:none;stroke:#010202;stroke-width:4.098;stroke-linecap:round;stroke-dasharray:0.827,4.527;}
	
		.st112{clip-path:url(#SVGID_00000062911483819698793690000002690420007270002579_);fill:none;stroke:#010202;stroke-width:4.098;stroke-linecap:round;stroke-dasharray:2.000000e-03,3.702,2.000000e-03,3.702;stroke-dashoffset:3;}
	.st113{clip-path:url(#SVGID_00000010992250162118181300000009749372799533069203_);fill:#010202;}
	.st114{clip-path:url(#SVGID_00000010992250162118181300000009749372799533069203_);fill:none;stroke:#010202;stroke-width:1.366;}
	.st115{clip-path:url(#SVGID_00000010992250162118181300000009749372799533069203_);fill:#FFFFFF;}
	
		.st116{clip-path:url(#SVGID_00000062911483819698793690000002690420007270002579_);fill:none;stroke:#010202;stroke-width:4.098;stroke-linecap:round;stroke-dasharray:0.929,5.093;}
	
		.st117{clip-path:url(#SVGID_00000062911483819698793690000002690420007270002579_);fill:none;stroke:#010202;stroke-width:4.098;stroke-linecap:round;stroke-dasharray:4.700000e-02,4.212,4.700000e-02,4.212;stroke-dashoffset:4;}
	.st118{clip-path:url(#SVGID_00000030487813482907547420000014698684079601866400_);fill:#010202;}
	.st119{clip-path:url(#SVGID_00000030487813482907547420000014698684079601866400_);fill:none;stroke:#010202;stroke-width:1.366;}
	.st120{clip-path:url(#SVGID_00000030487813482907547420000014698684079601866400_);fill:#FFFFFF;}
	
		.st121{clip-path:url(#SVGID_00000062911483819698793690000002690420007270002579_);fill:none;stroke:#010202;stroke-width:4.098;stroke-linecap:round;stroke-dasharray:0.875,5.128;}
	
		.st122{clip-path:url(#SVGID_00000062911483819698793690000002690420007270002579_);fill:none;stroke:#010202;stroke-width:4.098;stroke-linecap:round;stroke-dasharray:0,4.125,0,4.125;stroke-dashoffset:4;}
	.st123{clip-path:url(#SVGID_00000000210999171613072900000017476197896295288723_);fill:#010202;}
	.st124{clip-path:url(#SVGID_00000000210999171613072900000017476197896295288723_);fill:none;stroke:#010202;stroke-width:1.366;}
	.st125{clip-path:url(#SVGID_00000000210999171613072900000017476197896295288723_);fill:#FFFFFF;}
	
		.st126{clip-path:url(#SVGID_00000062911483819698793690000002690420007270002579_);fill:none;stroke:#010202;stroke-width:4.098;stroke-linecap:round;stroke-dasharray:0.827,5.081;}
	
		.st127{clip-path:url(#SVGID_00000062911483819698793690000002690420007270002579_);fill:none;stroke:#010202;stroke-width:4.098;stroke-linecap:round;stroke-dasharray:0,4.105,0,4.105;stroke-dashoffset:4;}
	.st128{clip-path:url(#SVGID_00000057847764583395121550000010738972916128050871_);fill:#010202;}
	.st129{clip-path:url(#SVGID_00000057847764583395121550000010738972916128050871_);fill:none;stroke:#010202;stroke-width:1.366;}
	.st130{clip-path:url(#SVGID_00000057847764583395121550000010738972916128050871_);fill:#FFFFFF;}
	
		.st131{clip-path:url(#SVGID_00000062911483819698793690000002690420007270002579_);fill:none;stroke:#010202;stroke-width:4.098;stroke-linecap:round;stroke-dasharray:0.829,5.083;}
	
		.st132{clip-path:url(#SVGID_00000062911483819698793690000002690420007270002579_);fill:none;stroke:#010202;stroke-width:4.098;stroke-linecap:round;stroke-dasharray:0,4.106,0,4.106;stroke-dashoffset:4;}
	.st133{clip-path:url(#SVGID_00000150792503741051882630000007088112616709475457_);fill:#010202;}
	.st134{clip-path:url(#SVGID_00000150792503741051882630000007088112616709475457_);fill:none;stroke:#010202;stroke-width:1.366;}
	.st135{clip-path:url(#SVGID_00000150792503741051882630000007088112616709475457_);fill:#FFFFFF;}
	
		.st136{clip-path:url(#SVGID_00000062911483819698793690000002690420007270002579_);fill:none;stroke:#010202;stroke-width:4.098;stroke-linecap:round;stroke-dasharray:0,3.58;}
	.st137{clip-path:url(#SVGID_00000044883915637631751690000001087050460821440690_);fill:#010202;}
	.st138{clip-path:url(#SVGID_00000044883915637631751690000001087050460821440690_);fill:none;stroke:#010202;stroke-width:1.366;}
	.st139{clip-path:url(#SVGID_00000114782335392749231050000016593002776485274500_);fill:#010202;}
	.st140{clip-path:url(#SVGID_00000147932901113507456340000010932478908015911089_);fill:#010202;}
	.st141{clip-path:url(#SVGID_00000057110067305878780680000013286297617480809402_);}
	.st142{clip-path:url(#SVGID_00000181807230879112699730000016718751348491734166_);fill:#010202;}
	.st143{clip-path:url(#SVGID_00000150800230935655645810000013962486015244586684_);}
	.st144{clip-path:url(#SVGID_00000114054724753465398710000001841709027287550594_);fill:#B4B4B4;}
	.st145{clip-path:url(#SVGID_00000114054724753465398710000001841709027287550594_);}
	.st146{clip-path:url(#SVGID_00000076572780458473285840000013602460011774889636_);fill:#020304;}
	
		.st147{clip-path:url(#SVGID_00000058587315352994671410000006248738747658613403_);fill:none;stroke:#FFFFFF;stroke-width:2.226;stroke-miterlimit:10;}
	
		.st148{clip-path:url(#SVGID_00000058587315352994671410000006248738747658613403_);fill:none;stroke:#000000;stroke-width:0.445;stroke-miterlimit:10;}
	.st149{filter:url(#Adobe_OpacityMaskFilter);}
	.st150{clip-path:url(#SVGID_00000147915115760686755810000017903020657051267761_);}
	
		.st151{clip-path:url(#SVGID_00000147915115760686755810000017903020657051267761_);mask:url(#SVGID_00000014621863859827302970000008811917950637276860_);}
	.st152{opacity:0.55;clip-path:url(#SVGID_00000126290783173074380650000000503955242526332555_);fill:#010202;}
	.st153{clip-path:url(#SVGID_00000114054724753465398710000001841709027287550594_);fill:#FFFFFF;}
	.st154{clip-path:url(#SVGID_00000024708644768098928090000008301089571645217692_);fill:#010202;}
	.st155{clip-path:url(#SVGID_00000114054724753465398710000001841709027287550594_);fill:none;stroke:#010202;stroke-width:0.554;}
	.st156{clip-path:url(#SVGID_00000096022295759200026130000000174479500324900509_);fill:#010202;}
	.st157{filter:url(#Adobe_OpacityMaskFilter_00000021110436619596410420000001882236752090465711_);}
	.st158{clip-path:url(#SVGID_00000133520845548108216790000016687473877719247788_);}
	
		.st159{clip-path:url(#SVGID_00000133520845548108216790000016687473877719247788_);mask:url(#SVGID_00000002382090675724472450000011693006463864690622_);}
	.st160{opacity:0.55;clip-path:url(#SVGID_00000140734597365420956750000009754612093731686843_);fill:#010202;}
	.st161{filter:url(#Adobe_OpacityMaskFilter_00000027563064411137568910000016807244497480970385_);}
	.st162{clip-path:url(#SVGID_00000120523983879257426420000001254540462926275223_);}
	
		.st163{clip-path:url(#SVGID_00000120523983879257426420000001254540462926275223_);mask:url(#SVGID_00000031903582969569507530000008113645364548855224_);}
	.st164{opacity:0.55;clip-path:url(#SVGID_00000069378612690623384730000011854154903700579982_);fill:#010202;}
	.st165{clip-path:url(#SVGID_00000173861302486103786810000018283375029055588517_);fill:#010202;}
	.st166{clip-path:url(#SVGID_00000116204338920305441710000005380645390756076431_);fill:none;stroke:#010202;stroke-width:0.554;}
	.st167{clip-path:url(#SVGID_00000116204338920305441710000005380645390756076431_);fill:#010202;}
	.st168{filter:url(#Adobe_OpacityMaskFilter_00000023982785576411030010000010298180365031900082_);}
	.st169{clip-path:url(#SVGID_00000116204338920305441710000005380645390756076431_);}
	
		.st170{clip-path:url(#SVGID_00000116204338920305441710000005380645390756076431_);mask:url(#SVGID_00000170239652176753139480000009377589598278413702_);}
	.st171{opacity:0.55;clip-path:url(#SVGID_00000008868550528614984570000001202961146029028279_);fill:#010202;}
	.st172{filter:url(#Adobe_OpacityMaskFilter_00000172421931668853677740000007336497155188429447_);}
	.st173{clip-path:url(#SVGID_00000000907677072852401900000014681310334058673542_);}
	
		.st174{clip-path:url(#SVGID_00000000907677072852401900000014681310334058673542_);mask:url(#SVGID_00000143608726954584911540000001861265241293602690_);}
	.st175{opacity:0.55;clip-path:url(#SVGID_00000105401029679790280960000007308063927376562619_);fill:#010202;}
	.st176{clip-path:url(#SVGID_00000054241445433055284360000003650398369967608207_);fill:#010202;}
	.st177{clip-path:url(#SVGID_00000016053289118656982980000011828075985072709505_);fill:#010202;}
	.st178{filter:url(#Adobe_OpacityMaskFilter_00000133496203348027299810000005801780918235626904_);}
	.st179{clip-path:url(#SVGID_00000016053289118656982980000011828075985072709505_);}
	
		.st180{clip-path:url(#SVGID_00000016053289118656982980000011828075985072709505_);mask:url(#SVGID_00000083784935424870616830000003509644789912869310_);}
	.st181{opacity:0.55;clip-path:url(#SVGID_00000180369066246543265960000008102240637615268236_);fill:#010202;}
	.st182{clip-path:url(#SVGID_00000041999342380800330290000002878600826517094274_);}
	.st183{clip-path:url(#SVGID_00000075882596653347944940000017729577055090417599_);}
	.st184{clip-path:url(#SVGID_00000093866274043197287740000017882937896321757109_);fill:#010202;}
	
		.st185{clip-path:url(#SVGID_00000093866274043197287740000017882937896321757109_);fill:none;stroke:#010202;stroke-width:11.817;stroke-linejoin:round;}
	.st186{clip-path:url(#SVGID_00000093866274043197287740000017882937896321757109_);fill:#FFFFFF;}
	.st187{clip-path:url(#SVGID_00000093866274043197287740000017882937896321757109_);fill:none;stroke:#010202;stroke-width:1.972;}
	.st188{clip-path:url(#SVGID_00000093866274043197287740000017882937896321757109_);fill:none;stroke:#010202;stroke-width:42.229;}
	.st189{clip-path:url(#SVGID_00000093866274043197287740000017882937896321757109_);fill:none;stroke:#FFFFFF;stroke-width:2.016;}
	.st190{clip-path:url(#SVGID_00000125573791802271009930000005398900741225211558_);fill:#010202;}
	.st191{clip-path:url(#SVGID_00000125573791802271009930000005398900741225211558_);fill:#FFFFFF;}
	.st192{clip-path:url(#SVGID_00000152254028350678913240000000584807969223290281_);fill:#010202;}
	.st193{clip-path:url(#SVGID_00000152254028350678913240000000584807969223290281_);fill:none;stroke:#010202;stroke-width:22.467;}
	.st194{clip-path:url(#SVGID_00000152254028350678913240000000584807969223290281_);fill:none;stroke:#FFFFFF;stroke-width:1.925;}
	.st195{clip-path:url(#SVGID_00000152254028350678913240000000584807969223290281_);fill:#FFFFFF;}
	.st196{clip-path:url(#SVGID_00000152254028350678913240000000584807969223290281_);fill:none;stroke:#010202;stroke-width:2.069;}
	.st197{clip-path:url(#SVGID_00000152254028350678913240000000584807969223290281_);fill:none;stroke:#010202;stroke-width:1.925;}
	
		.st198{clip-path:url(#SVGID_00000152254028350678913240000000584807969223290281_);fill:none;stroke:#010202;stroke-width:28.328;stroke-miterlimit:10;}
	
		.st199{clip-path:url(#SVGID_00000152254028350678913240000000584807969223290281_);fill:none;stroke:#FFFFFF;stroke-width:2.071;stroke-miterlimit:10;}
	.st200{clip-path:url(#SVGID_00000152254028350678913240000000584807969223290281_);fill:none;stroke:#010202;stroke-width:1.348;}
	.st201{clip-path:url(#SVGID_00000130646041127969033180000004231426909205167281_);fill:#FFFFFF;}
	.st202{clip-path:url(#SVGID_00000176013984496290343730000003977966683847645849_);fill:#010202;}
	.st203{clip-path:url(#SVGID_00000012464076249763068290000011199073130687988363_);fill:#FFFFFF;}
	.st204{clip-path:url(#SVGID_00000012464076249763068290000011199073130687988363_);fill:none;stroke:#010202;stroke-width:2.117;}
	.st205{clip-path:url(#SVGID_00000012464076249763068290000011199073130687988363_);fill:#010202;}
	.st206{clip-path:url(#SVGID_00000012464076249763068290000011199073130687988363_);fill:none;stroke:#010202;stroke-width:1.925;}
	
		.st207{clip-path:url(#SVGID_00000055704193270172714870000004704832792782070438_);fill:url(#SVGID_00000122698064674613990830000001597939294807623051_);}
	.st208{clip-path:url(#SVGID_00000037659622703811152630000005903093834914021040_);fill:none;stroke:#010202;stroke-width:3.268;}
	
		.st209{clip-path:url(#SVGID_00000015342538728563084680000004410851973281259930_);fill:url(#SVGID_00000005961689753443823770000007274379424678193588_);}
	.st210{clip-path:url(#SVGID_00000052823386313634734100000006890792825194528651_);fill:none;stroke:#010202;stroke-width:1.925;}
	
		.st211{clip-path:url(#SVGID_00000158005855846446459480000002140570090489332366_);fill:url(#SVGID_00000166641959375598530600000015473477747407507386_);}
	.st212{clip-path:url(#SVGID_00000096749689050751245280000014245740580695659671_);fill:none;stroke:#010202;stroke-width:1.925;}
	.st213{filter:url(#Adobe_OpacityMaskFilter_00000131345773327991409330000010392946073661540481_);}
	.st214{clip-path:url(#SVGID_00000103951044039642012470000017473998816438364556_);}
	
		.st215{clip-path:url(#SVGID_00000002371753071604244290000012026598040380304822_);fill:url(#SVGID_00000004535000562559610520000010450390952714452883_);}
	
		.st216{clip-path:url(#SVGID_00000103951044039642012470000017473998816438364556_);mask:url(#SVGID_00000100355257992516111620000011916059667389234869_);fill:url(#SVGID_00000120540005608250732180000000748704871879405987_);}
	.st217{clip-path:url(#SVGID_00000155124576735251238930000003550376738597844634_);fill:none;stroke:#010202;stroke-width:1.925;}
	.st218{clip-path:url(#SVGID_00000004527444357382754890000003450320225203954089_);fill:#010202;}
	.st219{clip-path:url(#SVGID_00000055673996847821605680000013084081889021104535_);fill:#010202;}
	.st220{clip-path:url(#SVGID_00000055673996847821605680000013084081889021104535_);fill:none;stroke:#010202;stroke-width:30.169;}
	.st221{clip-path:url(#SVGID_00000055673996847821605680000013084081889021104535_);fill:none;stroke:#FFFFFF;stroke-width:2.857;}
	.st222{clip-path:url(#SVGID_00000055673996847821605680000013084081889021104535_);fill:#FFFFFF;}
	.st223{clip-path:url(#SVGID_00000055673996847821605680000013084081889021104535_);fill:none;stroke:#010202;stroke-width:3.693;}
	.st224{clip-path:url(#SVGID_00000160906706488885944920000006003740011131445689_);}
	.st225{clip-path:url(#SVGID_00000000932996007387549380000017755498515187824310_);fill:#010202;}
	.st226{clip-path:url(#SVGID_00000160906706488885944920000006003740011131445689_);fill:none;stroke:#010202;stroke-width:1.105;}
	.st227{clip-path:url(#SVGID_00000071529634905517854750000011603149672825833650_);fill:#010202;}
	.st228{clip-path:url(#SVGID_00000173877332128577480670000002915907070932273053_);fill:#010202;}
	.st229{clip-path:url(#SVGID_00000108995089381919021760000016648292593713195397_);fill:#010202;}
	.st230{clip-path:url(#SVGID_00000133517291708949482000000002946345212825256598_);fill:#010202;}
	.st231{clip-path:url(#SVGID_00000085221898681591385710000004536603578231897216_);fill:#010202;}
	.st232{clip-path:url(#SVGID_00000069390424121539887810000009195282852891703437_);fill:#010202;}
	.st233{clip-path:url(#SVGID_00000069390424121539887810000009195282852891703437_);}
	.st234{clip-path:url(#SVGID_00000054956774756797682250000004077968969930973605_);fill:#FFFFFF;}
	.st235{clip-path:url(#SVGID_00000037657778592516311420000010167785937884638875_);fill:#010202;}
	.st236{clip-path:url(#SVGID_00000037657778592516311420000010167785937884638875_);}
	.st237{clip-path:url(#SVGID_00000059290354567412845980000006028459202027731889_);fill:#FFFFFF;}
	.st238{clip-path:url(#SVGID_00000037657778592516311420000010167785937884638875_);fill:#FFFFFF;}
	.st239{clip-path:url(#SVGID_00000037657778592516311420000010167785937884638875_);fill:none;stroke:#010202;stroke-width:14.314;}
	.st240{clip-path:url(#SVGID_00000008851052988471208280000011003286167598566789_);fill:#010202;}
	.st241{clip-path:url(#SVGID_00000008851052988471208280000011003286167598566789_);}
	.st242{clip-path:url(#SVGID_00000171708483773733463750000006909580150599376287_);fill:#FFFFFF;}
	.st243{clip-path:url(#SVGID_00000008851052988471208280000011003286167598566789_);fill:#FFFFFF;}
	.st244{clip-path:url(#SVGID_00000073723199720343515080000014096563428500333489_);fill:#FFFFFF;}
	.st245{clip-path:url(#SVGID_00000044136963338571344380000010018342609686661800_);fill:#010202;}
	.st246{clip-path:url(#SVGID_00000044136963338571344380000010018342609686661800_);}
	.st247{clip-path:url(#SVGID_00000074411554676653471720000000824391374932061575_);fill:#010202;}
	.st248{clip-path:url(#SVGID_00000071544922968645597420000001953352845512817816_);fill:#FFFFFF;}
	.st249{clip-path:url(#SVGID_00000071544922968645597420000001953352845512817816_);fill:#010202;}
	.st250{clip-path:url(#SVGID_00000044136963338571344380000010018342609686661800_);fill:#FFFFFF;}
	.st251{clip-path:url(#SVGID_00000055702439881653020810000008065685617279118220_);fill:#FFFFFF;}
	.st252{clip-path:url(#SVGID_00000055702439881653020810000008065685617279118220_);fill:#010202;}
	.st253{clip-path:url(#SVGID_00000087380103247374302990000008237433921088091823_);fill:#010202;}
	.st254{clip-path:url(#SVGID_00000087380103247374302990000008237433921088091823_);fill:#FFFFFF;}
	.st255{clip-path:url(#SVGID_00000070120031893855944280000013528749057029097919_);fill:#FFFFFF;}
	.st256{clip-path:url(#SVGID_00000037653516803915509550000005244804249919523742_);fill:#010202;}
	.st257{clip-path:url(#SVGID_00000037653516803915509550000005244804249919523742_);}
	.st258{clip-path:url(#SVGID_00000130628751384072669400000007939706277734055349_);fill:#B4B4B4;}
	.st259{clip-path:url(#SVGID_00000130628751384072669400000007939706277734055349_);fill:#FFFFFF;}
	.st260{clip-path:url(#SVGID_00000037653516803915509550000005244804249919523742_);fill:#FFFFFF;}
	.st261{clip-path:url(#SVGID_00000115509784289253475750000017864035340488462256_);fill:#B4B4B4;}
	.st262{clip-path:url(#SVGID_00000115509784289253475750000017864035340488462256_);fill:#FFFFFF;}
	.st263{clip-path:url(#SVGID_00000011001343860624329610000005622658980719571842_);}
	.st264{clip-path:url(#SVGID_00000157278626640551560070000011703668068610634914_);fill:#010202;}
	.st265{clip-path:url(#SVGID_00000160171903459466948320000005374903817299257739_);fill:#010202;}
	.st266{clip-path:url(#SVGID_00000160171903459466948320000005374903817299257739_);}
	.st267{clip-path:url(#SVGID_00000092418885563472983110000007757141809818997689_);fill:#B4B4B4;}
	.st268{clip-path:url(#SVGID_00000160171903459466948320000005374903817299257739_);fill:#B4B4B4;}
	.st269{clip-path:url(#SVGID_00000028321332571065709210000014844283918265507502_);fill:#B4B4B4;}
	.st270{clip-path:url(#SVGID_00000124129235593138799560000007854159458687699625_);fill:#B4B4B4;}
	.st271{clip-path:url(#SVGID_00000085941676929297529400000005117883039094483343_);fill:#FFFFFF;}
	.st272{clip-path:url(#SVGID_00000160171903459466948320000005374903817299257739_);fill:#FFFFFF;}
	.st273{clip-path:url(#SVGID_00000120532439825546938380000004019512149293291649_);fill:#010202;}
	.st274{clip-path:url(#SVGID_00000037687039974578207300000002609375275424369286_);fill:#010202;}
	.st275{clip-path:url(#SVGID_00000037687039974578207300000002609375275424369286_);}
	.st276{clip-path:url(#SVGID_00000069366208773589013240000006244417520791261324_);fill:#FFFFFF;}
</style>
<g>
	<g>
		<defs>
			<rect id="SVGID_00000108285550347205421020000014845834965037556381_" width="960" height="1200"/>
		</defs>
		<clipPath id="SVGID_00000057827271648631995160000009275579683856101810_">
			<use xlink:href="#SVGID_00000108285550347205421020000014845834965037556381_"  style="overflow:visible;"/>
		</clipPath>
		
			<rect style="clip-path:url(#SVGID_00000057827271648631995160000009275579683856101810_);fill:#010202;" width="960" height="1200"/>
		<g style="clip-path:url(#SVGID_00000057827271648631995160000009275579683856101810_);">
			<defs>
				<rect id="SVGID_00000101092672981621840380000013428235331482426754_" width="960" height="1200"/>
			</defs>
			<clipPath id="SVGID_00000036212650834080056670000002731693058267419315_">
				<use xlink:href="#SVGID_00000101092672981621840380000013428235331482426754_"  style="overflow:visible;"/>
			</clipPath>
			<path style="clip-path:url(#SVGID_00000036212650834080056670000002731693058267419315_);fill:#B4B4B4;" d="M838.3,1085.9
				c5.5,0,9.7-4.2,9.7-9.7c0-5.5-4.2-9.7-9.7-9.7c-5.5,0-9.7,4.2-9.7,9.7C828.6,1081.7,832.9,1085.9,838.3,1085.9 M751.1,1078h2
				l34.4-73.3l3,59c0.5,10.7-4.5,15-15.9,17.6l0.1,2h41.4v-7l-4.4-0.4c-5.1-0.5-7.1-2.9-7.6-10.1l-3.5-50.6
				c-0.7-10.7,2.9-15,14.3-17.6l-0.1-2h-32.4l-27.2,62.5L728,995.7h-33.2v7l5.5,0.4c7.2,0.5,9.2,2.9,8.5,12.9l-3.5,47.7
				c-0.7,10.7-4.5,15-15.9,17.6l0.1,2h38.9v-7l-6.8-0.4c-5.1-0.2-8-2.9-7.6-10.1l3.5-62L751.1,1078z M646.3,1086.1
				c20.5,0,31.6-12.3,31.6-26.6c0-12.7-9.3-20-19-24.2l-10.8-4.7c-8.2-3.6-14.3-8.8-14.3-16.9c0-8,6.1-13.2,15-13.2
				c9.9,0,20.9,6.3,24.2,23.4l1.2-0.1c1.6-10.4,1-21.2-1.6-26.8c-5.3-2.4-13.3-3.9-20.4-3.9c-19.5,0-30.1,12.4-30.1,26.3
				c0,10.8,6.3,17.3,16.5,21.7l10.8,4.7c9.9,4.3,16.2,9.4,16.2,18.3c0,8.8-5.7,14.8-17.1,14.8c-12.4,0-21.4-7.2-27.5-26.8l-1.6,0.2
				c-1.5,9.4-0.6,20.6,3.2,29.2C628.6,1084.5,638.4,1086.1,646.3,1086.1"/>
			<path style="clip-path:url(#SVGID_00000036212650834080056670000002731693058267419315_);fill:#FFFFFF;" d="M580.8,1018.6
				c3.2-23.4,10.8-15.2,14.4,7.1C598.4,1045.2,592.4,1051.1,580.8,1018.6 M579.4,1056.9c-0.4-15.2,0.1-26.6,1-34.9
				C588.8,1043.1,590.4,1052,579.4,1056.9 M565.1,1018.1c3.6-18.5,7.5-25.1,9.9-1.1L565.1,1018.1z M563.7,1063.7
				c45.9-2.6,39.6,3.9,12.6,10.1C563.1,1076.7,561.6,1076.5,563.7,1063.7 M552.5,1064.4c3.4-0.2,6.6-0.5,9.6-0.6
				C559.5,1084.6,555.5,1087.7,552.5,1064.4 M549.7,1023.6c5.7-1.9,14.2-3.1,25.6-4.5c0.7,8.9,1.4,21.5,1.7,38.6
				c-5.6,1.9-13.7,3.1-24.7,4.3C551.1,1052.9,550.3,1040.2,549.7,1023.6 M548.2,1008.6c14.5-4,18.6-3.4,14.3,9.7
				C517.7,1023.1,526.3,1014.6,548.2,1008.6 M545.9,1059.3c-8.7-21.6-9.7-30.2,1.4-34.9C547.5,1039.7,546.9,1051.1,545.9,1059.3
				 M531.3,1055.9c-3.9-20.5-0.1-22.2,13.9,8.3C541.8,1083.8,535.1,1076.9,531.3,1055.9 M518.7,1100.9l1.4,2.2
				c52.2-31.2,55.7-25.6,27.3-3.4l1.5,2c19-16.2,31.2-20.1,51.3-21.4l-0.1-2.5c-40.6,5.2-49.2,1.1,11.8-8.6l0.9-2.2
				c-33.9-5.1-23.1-32.7,7-24.1l0.6-2.5c-26.6-3.9-26.7-9.9-4.1-43l-2.4-0.7c-17.4,29-25.6,19.6-11.6-0.4
				c-24.9,9.6-42,10.8,5.3-15.7l-1.2-2.2c-60.1,36.2-55.7,22.5-27.3,3.4l-1.4-2.1c-19.1,16.3-30.4,18.8-53.8,22v2
				c43.1-5.2,50.9,0.2-11.3,8.2l-0.4,2.4c36.4,7.3,34.3,34.5-10.4,22.4l-0.5,2.1c31.3,7.7,31.7,8.6,8.9,45.4l2.2,1.1
				c17.2-28,27.6-18.5,9.1,2.4C555.1,1068.5,566.9,1074.6,518.7,1100.9"/>
			<path style="clip-path:url(#SVGID_00000036212650834080056670000002731693058267419315_);fill:#B4B4B4;" d="M469.3,1086.2
				c10.3,0,22.2-2.4,29.1-5.8c3.1-8.4,3.7-19.8,3-28.6l-1.6-0.1c-5.2,17.6-15.4,27.3-30.2,27.3c-18.1,0-30.2-15.2-30.2-39.1
				c0-26.7,18.1-39.6,32.8-39.6c11.8,0,22.5,8.2,24.4,22.5h1.4c2.6-7.8,3-17.9,1.2-24.6c-6.8-3.2-15.9-5.1-25-5.1
				c-30.7,0-49.1,22.6-49.1,49.2C425,1070,444.3,1086.2,469.3,1086.2 M379.2,1084.7c3.4-8.9,4.8-17.3,6.1-29.5l-1.5-0.2
				c-4.5,13.3-14.2,20.9-29.5,21.2l-5.5,0.1c-7.6,0.1-11.2-2.7-11.2-9.9v-26l12.7,0.4c11.6,0.4,14.9,3.6,15.4,9.8h1.5
				c2-6.7,2.6-13.7,2-20c-6.3,1.6-16.7,2.9-25.5,2.9h-6.1v-30.9l17.5,0.2c14.9,0.2,21.4,4.2,21.7,15.2h1.5c2.7-8.3,2.7-16.4,1.6-24
				c-8.9,1.1-19.9,1.7-31.2,1.7h-38.1v7l6.8,0.4c5.1,0.2,7.6,2.9,7.6,10.1v51.8c0,9.4-5.7,13.8-15.9,16.4l0.1,2H358
				C365.2,1083.3,373.2,1084,379.2,1084.7 M256.1,1081.3l0.1,2H299v-7l-6.8-0.4c-5.1-0.2-7.6-2.9-7.6-10.1v-50.6
				c0-10.7,4.5-15,15.9-17.6l-0.1-2h-42.7v7l6.8,0.4c5.1,0.2,7.6,2.9,7.6,10.1v19.6h-47.8v-19.9c0-8.4,4.5-13.8,13.4-15.2l-0.1-2
				h-40.3v7l6.8,0.4c5.1,0.2,7.6,2.9,7.6,10.1v51.8c0,9.4-5.7,13.8-15.9,16.4l0.1,2h41.5v-7l-5.6-0.4c-5.1-0.4-7.6-2.9-7.6-10.1
				v-26.2H272v24C272,1074.4,267.6,1078.7,256.1,1081.3 M123.4,1081.3l0.1,2h49.3v-7l-9.7-1.5c-5.1-0.7-7.6-2.9-7.6-10.1v-62.1
				l8.5,0.2c16.2,0.6,20,5.2,21.2,18.6l1.5,0.1c3.4-11.8,4-21.6,2-27.2c-2.4,0.7-11.3,1.2-24.4,1.2H138c-14.9,0-23.7-0.5-26.3-1.1
				c-3,8.3-3.9,17-3.4,26.8l1.5,0.2c3.9-13.5,9.7-18.8,21.1-18.9l12.2-0.2v61.1C143.1,1074.4,136.1,1078.7,123.4,1081.3"/>
			<path style="clip-path:url(#SVGID_00000036212650834080056670000002731693058267419315_);fill:#B4B4B4;" d="M838.6,973.4l2-0.1
				l0.2-16.8l1.6-54.3c0.4-10.7,4.5-15,15.9-17.6l-0.1-2h-38.9v7l5.6,0.4c5.5,0.2,8.7,3.2,8.8,10.1l0.5,48l-51.1-65.4h-27v7l6.8,0.4
				c5.1,0.2,7.7,2.9,7.6,10.1l-1.1,50.6c-0.2,10.7-4.5,15-15.9,17.6l0.1,2h38.9v-7l-6.8-0.4c-5.1-0.2-7.5-2.9-7.6-10.1l-0.7-56.2
				L838.6,973.4z M702.6,968.2l0.1,2h42.7v-7l-6.8-0.4c-5.1-0.2-7.6-2.9-7.6-10.1v-50.6c0-10.7,4.5-15,15.9-17.6l-0.1-2h-42.7v7
				l6.8,0.4c5.1,0.2,7.6,2.9,7.6,10.1v50.6C718.5,961.2,714.1,965.6,702.6,968.2 M651.3,973.4l2-0.1l0.2-16.8l1.6-54.3
				c0.4-10.7,4.5-15,15.9-17.6l-0.1-2H632v7l5.6,0.4c5.5,0.2,8.7,3.2,8.8,10.1l0.5,48l-51.1-65.4h-27v7l6.8,0.4
				c5.1,0.2,7.7,2.9,7.6,10.1l-1.1,50.6c-0.2,10.7-4.5,15-15.9,17.6l0.1,2h38.9v-7l-6.8-0.4c-5.1-0.2-7.5-2.9-7.6-10.1l-0.7-56.2
				L651.3,973.4z M552.8,971.6c3.4-8.9,4.8-17.3,6.1-29.5l-1.5-0.2c-4.5,13.3-14.2,20.9-29.5,21.2l-5.5,0.1
				c-7.6,0.1-11.2-2.7-11.2-9.9v-26l12.7,0.4c11.6,0.4,14.9,3.6,15.4,9.8h1.5c2-6.7,2.6-13.7,2-20c-6.3,1.6-16.7,2.9-25.5,2.9h-6.1
				v-30.9l17.5,0.2c14.9,0.2,21.4,4.2,21.7,15.2h1.5c2.7-8.3,2.7-16.4,1.6-24c-8.9,1.1-19.9,1.7-31.2,1.7h-38.2v7l6.8,0.4
				c5.1,0.2,7.6,2.9,7.6,10.1v51.8c0,9.4-5.7,13.8-15.9,16.4l0.1,2h48.7C538.8,970.2,546.8,970.8,552.8,971.6 M408.6,952.2v-62.8
				l11.2,0.1c22.2,0.2,36.8,13.5,36.8,37.7c0,24.5-13.5,36-33.2,36H421C412.6,963.2,408.6,959.6,408.6,952.2 M380.2,968.2l0.1,2
				h43.1c28.7,0,47.3-16.3,47.3-44.6c0-26.8-19.5-43-44.2-43h-44.9v7l6.8,0.4c5.1,0.2,7.6,2.9,7.6,10.1v51.8
				C396.1,961.2,390.3,965.6,380.2,968.2 M306,952.2v-62.8l11.2,0.1c22.2,0.2,36.8,13.5,36.8,37.7c0,24.5-13.5,36-33.2,36h-2.4
				C309.9,963.2,306,959.6,306,952.2 M277.5,968.2l0.1,2h43.1c28.7,0,47.3-16.3,47.3-44.6c0-26.8-19.5-43-44.2-43H279v7l6.8,0.4
				c5.1,0.2,7.6,2.9,7.6,10.1v51.8C293.4,961.2,287.7,965.6,277.5,968.2"/>
		</g>
		<path style="clip-path:url(#SVGID_00000057827271648631995160000009275579683856101810_);fill:#FFFFFF;" d="M246.7,902.5l1.6,2.6
			h11.9l-3.2-3.6h-9.4L246.7,902.5z M229.9,898.4h9.7l0.1-8.6h8.9l0.1,8.6h9.3l-7.3-12.9l-14-0.1L229.9,898.4z M227.9,905.1h13.3
			l-0.6,29.2l3.6-3.6l0.2-37.8l2.6-1.4h-5.6l-0.1,9.9h-10.1l-2.9-2L227.9,905.1z M227.8,906.8l10.1,42.4l13.3,0.5l8.9-42.9h-11.2
			l0.4,29H239l0.5-29H227.8z M223.9,903l11.4-20.9l17.1,0.7l10.9,19.5l-10.7,51.4l-15.8-0.2l-2.7,11.8l-8.6-41.9L223.9,903z
			 M232.8,972.3h22.6l9.3-47.1l2.2-22.6l-12.3-22.9h-21.4L221,902.6l1.9,20.5L232.8,972.3z"/>
		<g style="clip-path:url(#SVGID_00000057827271648631995160000009275579683856101810_);">
			<defs>
				<rect id="SVGID_00000054255478148703391230000000175746781622288016_" width="960" height="1200"/>
			</defs>
			<clipPath id="SVGID_00000015340201163343363060000017212371767552147595_">
				<use xlink:href="#SVGID_00000054255478148703391230000000175746781622288016_"  style="overflow:visible;"/>
			</clipPath>
			<path style="clip-path:url(#SVGID_00000015340201163343363060000017212371767552147595_);fill:#B4B4B4;" d="M166,968.2l0.1,2
				h42.7v-7l-6.8-0.4c-5.1-0.2-7.6-2.9-7.6-10.1v-50.6c0-10.7,4.5-15,15.9-17.6l-0.1-2h-42.7v7l6.8,0.4c5.1,0.2,7.6,2.9,7.6,10.1
				v19.6h-47.8v-19.9c0-8.5,4.5-13.8,13.4-15.2l-0.1-2h-40.3v7l6.8,0.4c5.1,0.2,7.6,2.9,7.6,10.1v51.8c0,9.4-5.7,13.8-15.9,16.4
				l0.1,2h41.5v-7l-5.6-0.4c-5.1-0.4-7.6-2.9-7.6-10.1v-26.2h47.8v24C181.9,961.2,177.5,965.6,166,968.2"/>
			<path style="clip-path:url(#SVGID_00000015340201163343363060000017212371767552147595_);fill:#B4B4B4;" d="M793.7,859.7
				c5.5,0,9.7-4.2,9.7-9.7s-4.2-9.7-9.7-9.7s-9.7,4.2-9.7,9.7S788.2,859.7,793.7,859.7 M730,855.1l0.1,2h42.7v-7l-6.8-0.4
				c-5.1-0.2-7.6-2.9-7.6-10.1v-50.6c0-10.7,4.5-15,15.9-17.6l-0.1-2h-42.7v7l6.8,0.4c5.1,0.2,7.6,2.9,7.6,10.1v19.6H698v-19.9
				c0-8.5,4.5-13.8,13.4-15.2l-0.1-2h-40.3v7l6.8,0.4c5.1,0.2,7.6,2.9,7.6,10.1v51.8c0,9.4-5.7,13.8-15.9,16.4l0.1,2h41.5v-7
				l-5.6-0.4c-5.1-0.4-7.6-2.9-7.6-10.1v-26.2h47.8v24C745.9,848.1,741.4,852.5,730,855.1"/>
			<path style="clip-path:url(#SVGID_00000015340201163343363060000017212371767552147595_);fill:#FFFFFF;" d="M618.6,794
				c8.2-2.6,19-6.8,19-0.9c0,1.9-0.1,4.4-4.5,15l0.1,1.5l5.5,62.5v2.9h1.7v-2.9l5.5-62.5l0.1-1.5c-4.3-10.7-4.5-13.2-4.5-15
				c0-6,10.8-1.7,19,0.9l0.9-0.7l-1.2-18.3l-1.1,0.1c-2.2,8.9-18.9,16.5-17.4,4.1c0.4-3,2.4-7.6,5.5-12.9l0.1-1.5l-6.8-6.3h-1.7
				l-6.8,6.3l0.1,1.5c3.1,5.3,5.1,9.9,5.5,12.9c1.5,12.4-15.2,4.8-17.4-4.1l-1.1-0.1l-1.2,18.3L618.6,794z"/>
			<path style="clip-path:url(#SVGID_00000015340201163343363060000017212371767552147595_);fill:#B4B4B4;" d="M557.7,818.8
				l12.9-34.7l13.5,34.7H557.7z M582.8,857.1h35.4l0.1-2c-3.6-1.2-9.9-8.4-15.3-22.2l-25.6-65.6h-6.8l-0.2,0.7l-0.1-0.7l-25.7,64.5
				c-5.8,14.5-12.6,22.2-17.1,23.4l0.1,2h30.3l0.2-2l-3-1.6c-6.1-3.4-7.2-8.3-4.7-14.9l4.8-12.9h31.6l2.9,7.2
				c5.2,13.4,3.9,18.3-4,21.1l-3.1,1.1L582.8,857.1z M515.5,858.4c3.4-8.9,4.8-17.3,6.1-29.5l-1.5-0.2
				c-4.5,13.3-14.2,20.9-29.5,21.2l-5.5,0.1c-7.6,0.1-11.2-2.7-11.2-9.9v-26l12.7,0.4c11.6,0.4,14.9,3.6,15.4,9.8h1.5
				c2-6.7,2.6-13.7,2-20c-6.3,1.6-16.7,2.9-25.5,2.9H474v-30.9l17.5,0.2c14.9,0.2,21.4,4.2,21.7,15.2h1.5c2.7-8.3,2.7-16.4,1.6-24
				c-8.9,1.1-19.9,1.7-31.2,1.7H447v7l6.8,0.4c5.1,0.2,7.6,2.9,7.6,10.1v51.8c0,9.4-5.7,13.8-15.9,16.4l0.1,2h48.7
				C501.6,857.1,509.5,857.7,515.5,858.4 M371.3,839v-62.8l11.2,0.1c22.2,0.2,36.8,13.5,36.8,37.7c0,24.5-13.5,36-33.2,36h-2.4
				C375.3,850.1,371.3,846.5,371.3,839 M342.9,855.1l0.1,2h43.1c28.7,0,47.3-16.3,47.3-44.6c0-26.8-19.5-43-44.2-43h-44.9v7l6.8,0.4
				c5.1,0.2,7.6,2.9,7.6,10.1v51.8C358.8,848.1,353.1,852.5,342.9,855.1 M291.6,860.3l2-0.1l0.2-16.8l1.6-54.3
				c0.4-10.7,4.5-15,15.9-17.6l-0.1-2h-38.9v7l5.6,0.4c5.5,0.2,8.7,3.2,8.8,10.1l0.5,48l-51.1-65.4h-27v7l6.8,0.4
				c5.1,0.2,7.7,2.9,7.6,10.1l-1.1,50.6c-0.2,10.7-4.5,15-15.9,17.6l0.1,2h38.9v-7l-6.8-0.4c-5.1-0.2-7.5-2.9-7.6-10.1l-0.7-56.2
				L291.6,860.3z M155.6,855.1l0.1,2h42.7v-7l-6.8-0.4c-5.1-0.2-7.6-2.9-7.6-10.1v-50.6c0-10.7,4.5-15,15.9-17.6l-0.1-2h-42.7v7
				l6.8,0.4c5.1,0.2,7.6,2.9,7.6,10.1v50.6C171.5,848.1,167,852.5,155.6,855.1"/>
			<path style="clip-path:url(#SVGID_00000015340201163343363060000017212371767552147595_);fill:#B4B4B4;" d="M648.3,674.8
				l19.9,26.8v22.6c0,10.7-7,15-19.6,17.6l0.1,2h50.2v-6.3l-10.6-1c-5.1-0.5-7.6-2.9-7.6-10.1v-24.7l19-26.2
				c7.8-10.8,15.8-16.5,21.2-17.3v-2h-33.2v2l3.4,1.4c5,2,6.1,5.7,2.1,11.4l-16,23.1l-17.1-24.7c-4.1-6-2.2-9.6,2.6-10.7l2.1-0.5
				l-0.2-2h-35.3v2C634.4,659.9,642.2,666.5,648.3,674.8 M609.2,747.1l2-0.1l0.2-16.8l1.6-54.3c0.4-10.7,4.5-15,15.9-17.6l-0.1-2
				h-38.9v7l5.6,0.4c5.5,0.2,8.7,3.2,8.8,10.1l0.5,48l-51.1-65.4h-27v7l6.8,0.4c5.1,0.2,7.7,2.9,7.6,10.1l-1.1,50.6
				c-0.2,10.7-4.5,15-15.9,17.6l0.1,2h38.9v-7l-6.8-0.4c-5.1-0.2-7.5-2.9-7.6-10.1l-0.7-56.2L609.2,747.1z"/>
			<path style="clip-path:url(#SVGID_00000015340201163343363060000017212371767552147595_);fill:#FFFFFF;" d="M488.1,728.3
				c0.2-1.6,0.7-2.5,1.7-2.5c0.6,0,1.1,0.6,0.9,2.5c-0.2,1.6-0.9,2.5-1.5,2.5C488.3,730.7,488,729.6,488.1,728.3 M481.8,695.6
				c0,5.3,4.2,9.8,9.6,9.8c5.3,0,9.8-4.5,9.8-9.8c0-5.2-4.5-9.7-9.8-9.7C486,685.9,481.8,690.4,481.8,695.6 M470,715.7h16l-7.8-14.7
				L470,715.7z M468.3,729.4c-0.6-3.1-0.2-4.2,1.1-4.2c1.2,0,2.1,1,2.4,3.7h1.1c-0.1-2.2,0.6-3.1,2.1-3.1c1.1,0,2,0.7,2.2,2h1.1
				c0.1-1.1,0.7-2,2.4-2c1.5,0,2.2,0.6,2.1,3.2h1.1c0.1-2.4,1-3,2.1-3c1.2,0,1.2,1.6,1.1,3.2c-0.2,2.6-1.1,3.9-2.2,3.9
				c-0.5,0-1.1-0.7-1.1-2h-1.1c-0.2,2.6-1.4,3.7-2.7,3.7c-0.9,0-1.5-1-1.6-2.4h-1.1c0,1.5-0.6,2.4-1.7,2.4c-1.2,0-1.9-0.6-2.4-3.9
				H472c0.1,0.9-0.2,1.7-1.1,1.7C469.5,732.7,468.8,731.9,468.3,729.4 M464.7,727.5c-0.2-1.9,0.1-2.5,0.9-2.5c0.9,0,1.5,0.9,1.7,2.5
				c0.1,1.4-0.1,2.5-1.1,2.5C465.5,730,464.9,729.1,464.7,727.5 M461.9,679.2c3.6,2.2,8.6,3.9,15.2,3.9h0.9c6.6,0,11.6-1.6,15.2-3.9
				l-1.7-3.5c-2.6,3.5-7.5,4.4-13.8,4.4c-6.5,0-10.3-0.9-14.3-3.5L461.9,679.2z M456.3,721.4c-1-4.6,3-6.6,4.1-3
				c1.1,3.5,2.2,8.8,2.7,14.7c4.6,2.5,8.9,4.3,14.7,4.3s11.6-2.1,14.4-4.3c1.2-6.5,2.1-13,3.4-17.9c2.1-0.9,3.7-0.7,5.6,0
				c-2.2,6-3,12.4-2,17.9c-4,2.7-9.9,7.7-14,13.2c-2-0.4-5-0.6-7.3-0.6s-5.3,0.2-7.3,0.6c-4.1-5.5-10.1-10.4-14-13.2
				C457.3,728.5,456.8,724,456.3,721.4 M455.1,704.3h17.3V687h-17.3V704.3z M444.1,692.8c-4.7-8.8-1.4-19.5,5.8-31.2
				c7.7-6.6,18.5-10.3,27.8-10.3s20.1,3.7,27.8,10.3c7.2,11.7,9.1,22.5,6.3,31.3c-2.7-3.4-3.1-7.2-2.5-15.5h-2.9
				c-0.2,5.8-0.5,8.8-2.6,12.8c4.8,7.1,6.8,13,3.9,17.8c-3.2,5.2-11.3,5.1-14.9,0c-2,3.9-3.2,10.4-3.2,14.3
				c-1.9,0.5-6.5,0.7-11.9,0.7c-5.5,0-10.1-0.2-11.9-0.7c0-3.9-0.6-8.3-2.6-12.2c-4.7,3.6-12.3,3.1-15.5-2.1
				c-3-4.7-1.4-11.8,5.3-18.9c-2.9-2.4-3.9-5.8-4.1-11.7h-2.4c0,4.6,0.9,8.8,2.4,12.3C448.1,692,445.8,693.6,444.1,692.8
				 M469.5,750.1c2.7-0.7,6-0.9,8.3-0.9s5.6,0.1,8.3,0.9c4.5-6,9.4-11.3,16.3-15.7c-1.2-7.2-1.5-12.4,1.4-19.8
				c2.6-0.9,4.8-2.6,6.3-5.2c1.6-2.9,2.4-6.2,1.4-9.7c6.8-10.1,5.2-25.5-3.9-39.8c-8.3-8-20.5-11.7-29.8-11.7
				c-10.6,0-23.1,4.6-29.8,11.7c-9.1,14.3-12.1,27.2-3.9,39.8c-1,3.5-0.2,6.8,1.4,9.7c1.5,2.6,3.7,4.3,6.3,5.2
				c2.9,7.3,2.6,12.6,1.4,19.8C460.1,738.8,465,744.2,469.5,750.1"/>
			<path style="clip-path:url(#SVGID_00000015340201163343363060000017212371767552147595_);fill:#B4B4B4;" d="M381.9,746.8
				c15.3,0,34.8-5.6,44.1-11.8l-0.4-1.5c-5.8,1.4-9.3-0.9-9.3-6.6v-10.6c0-8.3,3.9-13,9.3-13.5l1.5-0.1v-2h-40.3v7.2l9.3,0.4
				c5.1,0.2,7.6,3.2,7.6,8.3v9.8c0,7.5-4.8,12.1-18.6,12.1c-22,0-36.2-14-36.2-38c0-25.6,15.3-39.3,35.4-39.3
				c15.3,0,25.3,8,26.7,25.8l1.4,0.2c3.5-9.3,4.7-20.3,3.7-28.3c-7.5-2.7-18.3-5.3-29.6-5.3c-29.8,0-51.9,22.6-51.9,49.2
				C334.7,729.9,355.7,746.8,381.9,746.8 M269.9,705.6l12.9-34.7l13.5,34.7H269.9z M295,743.9h35.4l0.1-2
				c-3.6-1.2-9.9-8.5-15.3-22.2l-25.6-65.6h-6.8l-0.2,0.7l-0.1-0.7l-25.7,64.5c-5.8,14.5-12.6,22.2-17.1,23.4l0.1,2h30.3l0.2-2
				l-3-1.6c-6.1-3.4-7.2-8.3-4.7-14.9l4.8-12.9H299l2.9,7.2c5.2,13.4,3.9,18.3-4,21.1l-3.1,1.1L295,743.9z"/>
			<path style="clip-path:url(#SVGID_00000015340201163343363060000017212371767552147595_);fill:#B4B4B4;" d="M758.9,633.4
				c5.5,0,9.7-4.2,9.7-9.7s-4.2-9.7-9.7-9.7s-9.7,4.2-9.7,9.7S753.5,633.4,758.9,633.4 M731.2,634l2-0.1l0.2-16.8l1.6-54.3
				c0.4-10.7,4.5-15,15.9-17.6l-0.1-2h-38.9v7l5.6,0.4c5.5,0.2,8.7,3.2,8.8,10.1l0.5,48l-51.1-65.4h-27v7l6.8,0.4
				c5.1,0.2,7.7,2.9,7.6,10.1l-1.1,50.6c-0.2,10.7-4.5,15-15.9,17.6l0.1,2h38.9v-7l-6.8-0.4c-5.1-0.2-7.5-2.9-7.6-10.1l-0.7-56.2
				L731.2,634z M632.7,632.1c3.4-8.9,4.8-17.3,6.1-29.5l-1.5-0.2c-4.5,13.3-14.2,20.9-29.5,21.2l-5.5,0.1
				c-7.6,0.1-11.2-2.7-11.2-9.9v-26l12.7,0.4c11.6,0.4,14.9,3.6,15.4,9.8h1.5c2-6.7,2.6-13.7,2-20c-6.3,1.6-16.7,2.9-25.5,2.9h-6.1
				V550l17.5,0.2c14.9,0.2,21.4,4.2,21.7,15.2h1.5c2.7-8.3,2.7-16.4,1.6-24c-8.9,1.1-19.9,1.7-31.2,1.7h-38.2v7l6.8,0.4
				c5.1,0.2,7.6,2.9,7.6,10.1v51.8c0,9.4-5.7,13.8-15.9,16.4l0.1,2h48.7C618.7,630.8,626.7,631.4,632.7,632.1 M488.3,584.9l44,45.9
				h20.9v-7c-5.2,0-8.9-2.2-18.1-11.3l-32.4-31.8l22.4-18.9c12.3-10.3,22.5-15.5,26-16.7l-0.2-2h-31.1v2l1.1,0.2
				c4.6,1,5.2,5,1.2,8.6L488.3,584.9z M459.1,628.8l0.1,2h41.5v-7l-5.6-0.4c-5.1-0.4-7.6-2.9-7.6-10.1v-50.6
				c0-10.7,4.5-15,15.9-17.6l-0.1-2h-42.7v7l6.8,0.4c5.1,0.2,7.6,2.9,7.6,10.1v50.6C475,621.8,470.5,626.2,459.1,628.8"/>
			<path style="clip-path:url(#SVGID_00000015340201163343363060000017212371767552147595_);fill:#FFFFFF;" d="M439.1,566.3
				c3.9-2,5.6-0.2,9.6-1.1c2.5-0.6,3.9-2.5,3.4-5c-0.5-2.2-2.4-3.5-5.1-2.9C444,558.1,442,559.9,439.1,566.3 M413.7,564.9
				c1.4,0.4,2.6,1.4,3.7,3c1.4-8.1,6-16.2,13.8-17.1c0.2-0.6,0.2-1.4,0.1-2.4C422.2,548.4,415.6,555.6,413.7,564.9 M409.6,546.6
				c3.6-2.2,5.5-0.6,8.9-1.7c2.9-1,4.1-3.1,3.4-5.5c-0.6-2-2.9-3-5.1-2.2C414,538.2,412.1,540.2,409.6,546.6 M398.7,535.2
				c1.5,4,4.2,4.8,4.8,9.8c4.2-6.8,5.2-10.2,3.9-13.8c-0.9-2.6-3.4-3.7-5.8-2.7C398.9,529.5,397.4,532,398.7,535.2 M389.8,587.4
				c2.7-0.7,6.2-2.4,8.3-3.9c-1-1.9-3.1-2.2-5.1-1.6l-0.2-2c2.1-1,3.2-0.9,5.1,0c0.6-1,0.9-2,1-3.5c-0.6-1.4-2-2.1-4.1-2.4l0.7-1.9
				c2,0.2,3.9,0.7,5,2.1c1.1-0.2,2.4-1,2.9-1.7c-0.2-2.4-1-3.4-2.6-4l1.5-1.6c2.7,1.2,3.9,3.2,3.7,5.6c0.6,0.6,1.2,0.7,2.1,0.6
				c0.6-1.2,0.7-2.4,0-4.3l1.7-0.4c1.1,1.2,1.6,2.9,1.6,4.6c1.7-0.2,3.9-0.9,4.6-2c-2.4-3.1-7.2-5.7-12.3-5.7
				c-0.9-4.1,0.5-7.8,2.6-11.4c-1.2-0.9-3-1.5-5-1c-2.5,3.1-3.5,7.8-1.9,12.8C391.8,569.5,389,578.7,389.8,587.4 M371.7,590.8
				c3.2,0,7.2-0.7,14.9-2.6c-1.1-10.3,2.6-18.6,9.2-23.4c-0.4-1.2-0.5-2.7-0.4-3.9c-6.7,0.9-13.5,7-16.9,12.1
				C370.1,577.6,368.1,585.3,371.7,590.8 M369.8,605.4c0.7,15.4,14.2,26.7,29.9,29c20.1-9.1,24.5-24.7,16.8-34.3l0.6-1.4
				c1.9,0.7,4,2.4,4.8,3.5c2-2.6,3.2-6.6,3.2-10.6c0-4.6-1.9-7.7-6.1-7c-5.2,0.9-9.3,7.1-4.5,11.8L414,598c-4-1.6-4.3,6.3-7.3,9.8
				c2,1.4,3.5,3.2,3.5,5.6c0,1.7,0.6,2.5,0.6,3.7c0,1.1-0.9,3.2-2.1,4.2l-1-1c0.7-0.7,1.2-1.6,1.2-3c0-1.7-0.6-2.2-0.6-3.7
				c0-1.5-1.2-3.2-2.9-3.7c-1.9,2.6-5.1,3.9-6.2,7.1c-1,3-2.5,4.6-4.7,5.6c-2.7,1.2-4.2,3.2-5.3,6.6l-1.4-0.5c0.9-3.6,3-6.3,6-7.6
				c1.2-0.6,2-1.2,2.9-2.2c-0.9,0-2.5,0.4-4,0.4c-1.6,0-3.4-1.4-3.4-4c0-4.7-2.4-6.6-5.5-5.6l-0.4-1.2c4.2-1.4,7.6,0.9,7.6,6
				c0,2.1,0.6,3.1,2.4,3.1c1.9,0,3-0.5,3.9-0.2c1.7-6,5.5-4.1,8-10.9c0.5-1.9-0.9-3-2.9-3c-3.1,0-5,3.6-8.3,3.6
				c-3,0-4.5-2.1-4.5-4.3c0-2.2-1.9-3.2-4.3-3.2c-2.5,0-4.6,1.1-7.3,4l-1-0.9c2.5-2.9,5.3-4.8,8.6-4.8c3.5,0,5.8,1.5,5.8,4.2
				c0,1.9,0.7,3.1,2.2,3.1c3.5,0,5.2-3.9,8.4-3.9c1.6,0,3.1,0.5,4.6,1.4c-1.2-17.3,10.9-23,25.7-25.1c-2.4-1.9-3.7-5.5-2.9-8.7
				c-11.9,3-19.1,11.4-24,7.1c-4,0.6-5.2,4.1-4.6,5.5c0.7-0.5,1.6-1.4,2.4-2l2.5,2.4c-4.7,5.6-12.4,9.6-25.8,10.9
				C372.3,593.2,369.3,595.5,369.8,605.4 M365.9,595.4c-1.7-10.9,1.4-18.6,10.1-24c2.7-4.5,8.7-10.3,14.2-12.8c-0.2-2.7-0.9-5-2-7
				c-1.9,0-6.6,1.6-7.8,3.2c-1-0.7-1.5-1.4-1.9-2.6c2.1-2,5.6-3.2,8.2-3.7c-1.7-2.5-4.2-5.2-7.8-6.3c-0.1-1.4,0.4-2.6,1.4-3.4
				c1.2,0.4,2.7,1.1,3.6,2c0.4-1.6,0.9-2.9,1.7-3.9c1.2,0.4,2,1,2.6,2c-0.9,1-1.2,2.5-1.4,3.9c1.9,1.9,3.1,3.2,4.6,5.6
				c0-3,0.5-6.5,1.4-9.1c0.7-0.2,2.1,0.1,3.1,0.7c-1.1,5.2-1.7,13.5-0.7,18l0.9-0.1c0.7-3.2,1.7-5.7,3.7-8.1c3.9-1,8.8,0.4,10.9,3.5
				c-2.4,2.9-3.4,5.3-3.4,9.3c1.2,0.1,2.7,0.5,3.6,1c2.4-9.6,9.8-18.6,22.6-17.8c1.4,2.5,1,6.7-0.4,8.7c-6.6-0.1-11.4,6-12.4,14.2
				c3.9-1.9,8.8-3.6,11.4-3.6c3.9,2.6,5.6,9.8,3.9,15c-3.2-0.1-7.1,0.6-9.6,1.2c3.2,5.5,2.7,14.3-1.4,21.9
				c1.7,13.8-7.6,29.1-24.2,34C380.1,635.7,363.4,619.6,365.9,595.4 M455,581.1c-2.5-4.3-5.8-6.8-14.3-8.1c3.5,5.5,4,11.4,5.5,13.9
				c1.5,2.5,4.7,3.2,7.2,1.9C456,587.3,456.7,584,455,581.1"/>
			<path style="clip-path:url(#SVGID_00000015340201163343363060000017212371767552147595_);fill:#B4B4B4;" d="M304.6,585.9V550
				l9.2,0.2c13,0.4,18.5,5.8,18.5,14.5C332.3,576.3,322.7,583.2,304.6,585.9 M276.1,628.8l0.1,2h40v-7h-2c-7.1,0-9.7-2.4-9.7-7.5
				v-24.1c2.2-0.2,4.4-0.5,6.3-0.9l29.3,39.4h18.1v-6.8c-4.3-0.6-8.8-2.5-20-16.5l-15.2-19c14.9-5.2,23.1-14.7,23.1-26.1
				c0-12.9-8.8-19.1-26.3-19.1h-42.4v7l6.8,0.4c5.1,0.2,7.6,2.9,7.6,10.1v51.8C292,621.8,286.3,626.2,276.1,628.8 M218.9,581.6V550
				l8.8,0.2c13.9,0.4,20.1,5.5,20.1,14.7c0,7.8-4.3,13.7-12.6,17L218.9,581.6z M218.9,612.9V589h8.9c15.2,0,23.4,6.3,23.4,18.6
				c0,9.9-4.3,16.2-17,16.2h-2.7C221.3,623.8,218.9,620.6,218.9,612.9 M190.4,628.8l0.1,2h46.7c16.2,0,29-10.7,29-26.5
				c0-11.4-8.5-19.3-21.4-21.6c11.2-4.5,17-11.9,17-21c0-11.8-9.4-18.5-26-18.5h-44v7l6.8,0.4c5.1,0.2,7.6,2.9,7.6,10.1v51.8
				C206.3,621.8,200.6,626.2,190.4,628.8"/>
			<path style="clip-path:url(#SVGID_00000015340201163343363060000017212371767552147595_);fill:#B4B4B4;" d="M643.7,515.6l0.1,2
				h49.3v-7l-9.7-1.5c-5.1-0.7-7.6-2.9-7.6-10.1V437l8.5,0.2c16.2,0.6,20,5.2,21.2,18.6l1.5,0.1c3.4-11.8,4-21.6,2-27.2
				c-2.4,0.7-11.3,1.2-24.4,1.2h-26.5c-14.9,0-23.7-0.5-26.3-1.1c-3,8.3-3.9,17-3.4,26.8l1.5,0.2c3.9-13.5,9.7-18.8,21.1-18.9
				l12.2-0.2V498C663.4,508.7,656.4,513,643.7,515.6 M572.4,472.8v-35.9l9.2,0.2c13,0.4,18.5,5.8,18.5,14.5
				C600.1,463.2,590.5,470,572.4,472.8 M543.9,515.6l0.1,2h40v-7h-2c-7.1,0-9.7-2.4-9.7-7.5v-24.1c2.2-0.2,4.3-0.5,6.3-0.9
				l29.3,39.4h18.1v-6.8c-4.3-0.6-8.8-2.5-20-16.5l-15.2-19c14.9-5.2,23.1-14.7,23.1-26.1c0-12.9-8.8-19.1-26.3-19.1h-42.4v7
				l6.8,0.4c5.1,0.2,7.6,2.9,7.6,10.1v51.8C559.8,508.7,554.1,513,543.9,515.6 M478.3,479.4l12.9-34.7l13.5,34.7H478.3z
				 M503.4,517.6h35.4l0.1-2c-3.6-1.2-9.9-8.4-15.3-22.2l-25.6-65.6h-6.8l-0.2,0.7l-0.1-0.7l-25.7,64.5
				c-5.8,14.5-12.6,22.2-17.1,23.4l0.1,2h30.3l0.2-2l-3-1.6c-6.1-3.4-7.2-8.3-4.7-14.9l4.8-12.9h31.6l2.9,7.2
				c5.2,13.4,3.9,18.3-4,21.1l-3.1,1.1L503.4,517.6z M436.1,519c3.4-8.9,4.8-17.3,6.1-29.5l-1.5-0.2c-4.5,13.3-14.2,20.9-29.5,21.2
				l-5.5,0.1c-7.6,0.1-11.2-2.7-11.2-9.9v-26l12.7,0.4c11.6,0.4,14.9,3.6,15.4,9.8h1.5c2-6.7,2.6-13.7,2-20
				c-6.3,1.6-16.7,2.9-25.5,2.9h-6.1v-30.9l17.5,0.2c14.9,0.2,21.4,4.2,21.7,15.2h1.5c2.7-8.3,2.7-16.4,1.6-24
				c-8.9,1.1-19.9,1.7-31.2,1.7h-38.2v7l6.8,0.4c5.1,0.2,7.6,2.9,7.6,10.1v51.8c0,9.4-5.7,13.8-15.9,16.4l0.1,2h48.7
				C422.2,517.6,430.1,518.3,436.1,519 M313,515.6l0.1,2h42.7v-7l-6.8-0.4c-5.1-0.2-7.6-2.9-7.6-10.1v-50.6c0-10.7,4.5-15,15.9-17.6
				l-0.1-2h-42.7v7l6.8,0.4c5.1,0.2,7.6,2.9,7.6,10.1v19.6h-47.8v-19.9c0-8.5,4.5-13.8,13.4-15.2l-0.1-2h-40.3v7l6.8,0.4
				c5.1,0.2,7.6,2.9,7.6,10.1v51.8c0,9.4-5.7,13.8-15.9,16.4l0.1,2h41.5v-7l-5.6-0.4c-5.1-0.4-7.6-2.9-7.6-10.1V474H329v24
				C329,508.7,324.5,513,313,515.6"/>
			<path style="clip-path:url(#SVGID_00000015340201163343363060000017212371767552147595_);fill:#B4B4B4;" d="M826.6,407.1
				c5.5,0,9.7-4.2,9.7-9.7c0-5.5-4.2-9.7-9.7-9.7c-5.5,0-9.7,4.2-9.7,9.7C817,402.9,821.2,407.1,826.6,407.1 M777.3,363.5v-39.8
				l9.2,0.2c11.3,0.2,17.3,4.6,17.3,15.5C803.8,352.9,794.5,361.1,777.3,363.5 M748.9,402.5l0.1,2h46.6v-7h-5
				c-9.1,0-13.3-3.6-13.3-9.7v-18c25.6-2.6,40.5-15.8,40.5-32.9c0-13.8-9.2-20-25.1-20h-42.4v7l6.8,0.4c5.1,0.2,7.6,2.9,7.6,10.1
				v51.8C764.8,395.5,759,399.9,748.9,402.5 M689.8,407.4c24.1,0,38.5-13.4,38.5-30.4v-40.4c0-10.7,3.4-15,12.2-17.6l-0.1-2h-36.8v7
				l6.8,0.4c5.1,0.2,7.6,2.9,7.6,10.1v40.3c0,16.9-9.4,25.2-26.5,25.2c-16.5,0-22.2-8.5-22.2-24.9v-38.4c0-10.7,4.5-15,15.9-17.6
				l-0.1-2h-40.3v7l4.3,0.4c5.1,0.5,7.6,2.9,7.6,10.1V382C656.8,397.7,668.1,407.4,689.8,407.4 M574.8,407.2
				c20.5,0,31.6-12.3,31.6-26.6c0-12.7-9.3-20-19-24.2l-10.8-4.7c-8.2-3.6-14.3-8.8-14.3-16.9c0-8,6.1-13.2,15-13.2
				c9.9,0,20.9,6.3,24.2,23.4l1.2-0.1c1.6-10.4,1-21.2-1.6-26.8c-5.3-2.4-13.3-3.9-20.4-3.9c-19.5,0-30.1,12.4-30.1,26.3
				c0,10.8,6.3,17.3,16.5,21.7L578,367c9.9,4.3,16.2,9.4,16.2,18.3S588.4,400,577,400c-12.4,0-21.4-7.2-27.5-26.8l-1.6,0.2
				c-1.5,9.4-0.6,20.6,3.2,29.2C557,405.6,566.8,407.2,574.8,407.2 M523.8,326.3c-0.1,6-3.1,10.9-9.4,16.2l0.5,1.2
				c11.9-2.9,19.3-12.7,19.3-23.1c0-8.6-4.5-12.7-10.2-12.7c-5.6,0-9.1,3.9-9.1,9.6C514.9,323.3,518.6,326.6,523.8,326.3
				 M497.7,405.9c3.4-8.9,4.8-17.3,6.1-29.5l-1.5-0.2c-4.5,13.3-14.2,20.9-29.5,21.2l-5.5,0.1c-7.6,0.1-11.2-2.7-11.2-9.9v-26
				l12.7,0.4c11.6,0.4,14.9,3.6,15.4,9.8h1.5c2-6.7,2.6-13.7,2-20c-6.3,1.6-16.7,2.9-25.5,2.9h-6.1v-30.9l17.5,0.2
				c14.9,0.2,21.4,4.2,21.7,15.2h1.5c2.7-8.3,2.7-16.4,1.6-24c-8.9,1.1-19.9,1.7-31.2,1.7h-38.1v7l6.8,0.4c5.1,0.2,7.6,2.9,7.6,10.1
				v51.8c0,9.4-5.7,13.8-15.9,16.4l0.1,2h48.7C483.8,404.5,491.7,405.1,497.7,405.9 M351.2,399.2h2l34.4-73.3l3,59
				c0.5,10.7-4.5,15-15.9,17.6l0.1,2h41.4v-7l-4.3-0.4c-5.1-0.5-7.1-2.9-7.6-10.1l-3.5-50.6c-0.7-10.7,2.9-15,14.3-17.6l-0.1-2
				h-32.4l-27.2,62.5l-27.2-62.5h-33.2v7l5.5,0.4c7.2,0.5,9.2,2.9,8.5,12.9l-3.5,47.7c-0.7,10.7-4.5,15-15.9,17.6l0.1,2h38.9v-7
				l-6.8-0.4c-5.1-0.2-8-2.9-7.6-10.1l3.5-62L351.2,399.2z"/>
			<path style="clip-path:url(#SVGID_00000015340201163343363060000017212371767552147595_);fill:#FFFFFF;" d="M264.2,345.1v-11.4
				c1.6,1.7,2.6,5.2,2.6,7.6C266.8,343.9,265.7,345.1,264.2,345.1 M264.2,376.7v-9.3c1.7,1.9,3,4.1,3,6.2
				C267.2,376.3,266,376.7,264.2,376.7 M251.7,359.4v-1.1c4.3-0.2,7.1-1,8.6-2.1v5.5C258.2,360.3,256.1,359.8,251.7,359.4
				 M246.6,368.6c0-2.7,0.9-6.5,3.9-6.5c4.7,0,7.5,1,9.4,2.4v12.2h-5C249.9,376.7,246.6,375,246.6,368.6 M231.7,353.9h25.7
				c-1.2,1.5-5.7,2.7-12.8,2.7C237.4,356.7,232.9,355.4,231.7,353.9 M229.2,386.1h30.7c-1.2,1.5-8.2,2.7-15.3,2.7
				C237.4,388.8,230.4,387.6,229.2,386.1 M227.2,328.8v-4.6h32.7v4c-3.5-1-8-1.6-13.8-1.6h-3.4C235.9,326.6,230.8,327.4,227.2,328.8
				 M227.2,393.6V389c3.6,1.4,8.7,2.2,15.5,2.2h3.4c5.8,0,10.3-0.6,13.8-1.6v4H227.2z M226.6,362.6v-7.5c2.9,1.9,6.1,2.9,10.4,3.1
				v1.1C232.5,359.8,229.2,360.9,226.6,362.6 M223,372.8c0-6,9.4-11.1,15.2-10.9c4,0.1,4.8,4.3,4.8,6.7c0,6.6-4.1,8.1-10.3,8.1
				C227.2,376.7,223,376,223,372.8 M222.3,341.2c0-6.3,4.5-11.3,20.5-11.3h3.1c6.2,0,10.8,0.7,13.9,2.1v13h-33.2
				C223.8,345.1,222.3,343.5,222.3,341.2 M210,400.8v3.1h69.5v-3.1c0-0.9-0.9-1.5-1.6-1.5h-1v-4.1c0-1.2-0.9-1.6-2.2-1.6h-10.4v-5.8
				c4.5-2.6,6-6.6,6-11.1c0-5.1-1.9-9.4-6-12.8v-9.9c4.1-3.4,6-7.7,6-12.8c0-4.5-1.5-8.5-6-11.1v-5.8h9.7c1.4,0,2.2-0.4,2.2-1.6
				v-4.1h1c0.7,0,1.6-0.6,1.6-1.5v-3.1h-69.5v3.1c0,0.9,0.9,1.5,1.6,1.5h59.4v1.4l-58.4,1.2v1.9c0,0.9,0.9,1.2,1.5,1.2h9.4v7.1
				c-3.1,2.5-4.2,6-4.2,9.8c0,4.2,1.4,8.1,4.2,11.2v13.2c-2.9,3.1-4.2,7-4.2,11.2c0,3.9,1.1,7.3,4.2,9.8v7.1h-8.7
				c-0.6,0-1.5,0.4-1.5,1.2v1.9l58.4,1.2v1.4h-59.4C210.9,399.3,210,399.9,210,400.8"/>
			<path style="clip-path:url(#SVGID_00000015340201163343363060000017212371767552147595_);fill:#B4B4B4;" d="M135.1,402.5l0.1,2
				h49.3v-7l-9.7-1.5c-5.1-0.7-7.6-2.9-7.6-10.1v-62.1l8.5,0.2c16.2,0.6,20,5.2,21.2,18.6l1.5,0.1c3.4-11.8,4-21.6,2-27.2
				c-2.4,0.7-11.3,1.2-24.4,1.2h-26.5c-14.9,0-23.7-0.5-26.3-1.1c-3,8.3-3.9,17-3.4,26.8l1.5,0.2c3.9-13.5,9.7-18.8,21.1-18.9
				l12.2-0.2v61.1C154.7,395.5,147.8,399.9,135.1,402.5"/>
			<path style="clip-path:url(#SVGID_00000015340201163343363060000017212371767552147595_);fill:#B4B4B4;" d="M648.3,294
				c5.5,0,9.7-4.2,9.7-9.7c0-5.5-4.2-9.7-9.7-9.7c-5.5,0-9.7,4.2-9.7,9.7C638.6,289.7,642.9,294,648.3,294 M575.3,289.4l0.1,2h49.3
				v-7l-9.7-1.5c-5.1-0.7-7.6-2.9-7.6-10.1v-62.1l8.5,0.2c16.2,0.6,20,5.2,21.2,18.6l1.5,0.1c3.4-11.8,4-21.6,2-27.2
				c-2.4,0.7-11.3,1.2-24.4,1.2h-26.5c-14.9,0-23.7-0.5-26.3-1.1c-3,8.3-3.9,17-3.4,26.8l1.5,0.2c3.9-13.5,9.7-18.8,21.1-18.9
				l12.2-0.2v61.1C594.9,282.4,587.9,286.8,575.3,289.4 M519.2,294.1c20.5,0,31.6-12.3,31.6-26.6c0-12.7-9.3-20-19-24.2l-10.8-4.7
				c-8.2-3.6-14.3-8.8-14.3-16.9c0-8,6.1-13.2,15-13.2c9.9,0,20.9,6.3,24.2,23.4l1.2-0.1c1.6-10.4,1-21.2-1.6-26.8
				c-5.3-2.4-13.3-3.9-20.4-3.9c-19.5,0-30.1,12.4-30.1,26.3c0,10.8,6.3,17.3,16.5,21.7l10.8,4.7c9.9,4.3,16.2,9.4,16.2,18.3
				s-5.7,14.8-17.1,14.8c-12.4,0-21.4-7.2-27.5-26.8l-1.6,0.2c-1.5,9.4-0.6,20.6,3.2,29.2C501.4,292.5,511.3,294.1,519.2,294.1
				 M400.5,247.9c0-26.7,15.9-39.5,31.6-39.5c16.7,0,29.8,15.2,29.8,39.1c0,26.7-15.9,39.4-31.6,39.4
				C413.7,286.9,400.5,271.8,400.5,247.9 M429.4,294.2c27.1,0,46.8-22.5,46.8-49.1c0-26.6-17.8-44.1-43.1-44.1
				c-27.1,0-46.8,22.6-46.8,49.2C386.2,276.8,404,294.2,429.4,294.2 M369.5,292.7c2.6-9.1,5-18.4,6.1-31.2l-1.5-0.2
				c-5.1,15.4-14.3,22-29.5,22.5l-4,0.1c-7.6,0.2-11.2-2.7-11.2-9.9v-49.1c0-12.9,6.1-17.5,18.9-19.1l-0.1-2h-45.7v7l6.8,0.4
				c5.1,0.2,7.6,2.9,7.6,10.1V273c0,9.4-5.7,13.8-15.9,16.4l0.1,2h47.2C355.5,291.4,363.5,292,369.5,292.7"/>
			<path style="clip-path:url(#SVGID_00000015340201163343363060000017212371767552147595_);fill:#B4B4B4;" d="M797.7,179.6
				c3.4-8.9,4.8-17.3,6.1-29.5l-1.5-0.2c-4.5,13.3-14.2,20.9-29.5,21.2l-5.5,0.1c-7.6,0.1-11.2-2.7-11.2-9.9v-26l12.7,0.4
				c11.6,0.4,14.9,3.6,15.4,9.8h1.5c2-6.7,2.6-13.7,2-20c-6.3,1.6-16.7,2.9-25.5,2.9h-6.1V97.4l17.5,0.2
				c14.9,0.2,21.4,4.2,21.7,15.2h1.5c2.7-8.3,2.7-16.4,1.6-24c-8.9,1.1-19.9,1.7-31.2,1.7h-38.2v7l6.8,0.4c5.1,0.2,7.6,2.9,7.6,10.1
				v51.8c0,9.4-5.7,13.8-15.9,16.4l0.1,2h48.7C783.8,178.2,791.7,178.8,797.7,179.6 M676.7,137.2V97.4l9.2,0.2
				c11.3,0.2,17.3,4.6,17.3,15.5C703.1,126.6,693.8,134.8,676.7,137.2 M648.2,176.2l0.1,2h46.6v-7h-5c-9.1,0-13.3-3.6-13.3-9.7v-18
				c25.6-2.6,40.5-15.8,40.5-32.9c0-13.8-9.2-20-25.1-20h-42.4v7l6.8,0.4c5.1,0.2,7.6,2.9,7.6,10.1v51.8
				C664.1,169.3,658.4,173.6,648.2,176.2"/>
			<path style="clip-path:url(#SVGID_00000015340201163343363060000017212371767552147595_);fill:#FFFFFF;" d="M562.1,165.5
				c12.2-0.2,14.8,5.7,15.3,16.9h2.4c0.5-11.2,3.1-17.1,15.3-16.9v-2.9c-12.2,0.2-14.8-5.6-15.2-16.8h-2.6c-0.4,11.2-3,17-15.2,16.8
				V165.5z M548.5,104.1c14.7-0.2,18.5,7,19,20h2.4c0.5-13,4.3-20.3,19-20v-2.9c-14.7,0.2-18.5-6.8-18.9-19.9h-2.6
				c-0.4,13-4.2,20.1-18.9,19.9V104.1z M605,182.8h2.4c0.5-41,6.3-47,40.3-46.7v-2.9c-33.9,0.2-39.8-5.7-40.3-46.7H605
				c-0.5,41-6.3,47-44,46.7v2.9C598.6,135.8,604.5,141.8,605,182.8"/>
			<path style="clip-path:url(#SVGID_00000015340201163343363060000017212371767552147595_);fill:#B4B4B4;" d="M498.6,176.2l0.1,2
				h42.7v-7l-6.8-0.4c-5.1-0.2-7.6-2.9-7.6-10.1v-50.6c0-10.7,4.5-15,15.9-17.6l-0.1-2h-42.7v7l6.8,0.4c5.1,0.2,7.6,2.9,7.6,10.1
				v19.6h-47.8v-19.9c0-8.5,4.5-13.8,13.4-15.2l-0.1-2h-40.3v7l6.8,0.4c5.1,0.2,7.6,2.9,7.6,10.1v51.8c0,9.4-5.7,13.8-15.9,16.4
				l0.1,2h41.5v-7l-5.6-0.4c-5.1-0.4-7.6-2.9-7.6-10.1v-26.2h47.8v24C514.5,169.3,510,173.6,498.6,176.2 M397.9,179.6
				c2.6-9.1,5-18.4,6.1-31.2l-1.5-0.2c-5.1,15.4-14.3,22-29.5,22.5l-4,0.1c-7.6,0.2-11.2-2.7-11.2-9.9v-49.1
				c0-12.9,6.1-17.5,18.9-19.1l-0.1-2h-45.7v7l6.8,0.4c5.1,0.2,7.6,2.9,7.6,10.1v51.8c0,9.4-5.7,13.8-15.9,16.4l0.1,2h47.2
				C384,178.2,392,178.8,397.9,179.6 M316,179.6c2.6-9.1,5-18.4,6.1-31.2l-1.5-0.2c-5.1,15.4-14.3,22-29.5,22.5l-4,0.1
				c-7.6,0.2-11.2-2.7-11.2-9.9v-49.1c0-12.9,6.1-17.5,18.9-19.1l-0.1-2H249v7l6.8,0.4c5.1,0.2,7.6,2.9,7.6,10.1v51.8
				c0,9.4-5.7,13.8-15.9,16.4l0.1,2h47.2C302.1,178.2,310.1,178.8,316,179.6 M181.9,139.9l12.9-34.7l13.5,34.7H181.9z M207,178.2
				h35.4l0.1-2c-3.6-1.2-9.9-8.5-15.3-22.2l-25.6-65.6h-6.8l-0.2,0.7l-0.1-0.7l-25.7,64.5c-5.8,14.5-12.6,22.2-17.1,23.4l0.1,2h30.3
				l0.2-2l-3-1.6c-6.1-3.4-7.2-8.3-4.7-14.9l4.8-12.9H211l2.9,7.2c5.2,13.4,3.9,18.3-4,21.1l-3.1,1.1L207,178.2z"/>
		</g>
	</g>
</g>
</svg>
