<?xml version="1.0" encoding="utf-8"?>
<!-- Generator: Adobe Illustrator 27.4.0, SVG Export Plug-In . SVG Version: 6.00 Build 0)  -->
<svg version="1.1" id="Ebene_1" xmlns="http://www.w3.org/2000/svg" xmlns:xlink="http://www.w3.org/1999/xlink" x="0px" y="0px"
	 viewBox="0 0 1920 1080" style="enable-background:new 0 0 1920 1080;" xml:space="preserve">
<style type="text/css">
	.st0{clip-path:url(#SVGID_00000170250648795570902210000012785730782531143324_);fill:#010202;}
	.st1{clip-path:url(#SVGID_00000170250648795570902210000012785730782531143324_);}
	.st2{clip-path:url(#SVGID_00000119818698427227450940000001540484788839444906_);fill:#FFFFFF;}
	
		.st3{clip-path:url(#SVGID_00000119818698427227450940000001540484788839444906_);fill:none;stroke:#FFFFFF;stroke-width:5.245;stroke-miterlimit:10;}
	.st4{clip-path:url(#SVGID_00000170250648795570902210000012785730782531143324_);fill:#FFFFFF;}
	
		.st5{clip-path:url(#SVGID_00000170250648795570902210000012785730782531143324_);fill:none;stroke:#FFFFFF;stroke-width:5.245;stroke-miterlimit:10;}
	.st6{clip-path:url(#SVGID_00000027578765208120669060000003323948062134154175_);fill:#010202;}
	
		.st7{clip-path:url(#SVGID_00000027578765208120669060000003323948062134154175_);fill:none;stroke:#FFFFFF;stroke-width:5.245;stroke-miterlimit:10;}
	.st8{clip-path:url(#SVGID_00000027578765208120669060000003323948062134154175_);fill:#FFFFFF;}
	.st9{clip-path:url(#SVGID_00000006684331099605341760000011878475279318750347_);fill:#010202;}
	.st10{clip-path:url(#SVGID_00000006684331099605341760000011878475279318750347_);}
	.st11{clip-path:url(#SVGID_00000056400100298843259580000008321745635039330734_);fill:#FFFFFF;}
	
		.st12{clip-path:url(#SVGID_00000056400100298843259580000008321745635039330734_);fill:none;stroke:#FFFFFF;stroke-width:2.098;stroke-miterlimit:10;}
	.st13{clip-path:url(#SVGID_00000006684331099605341760000011878475279318750347_);fill:#FFFFFF;}
	
		.st14{clip-path:url(#SVGID_00000006684331099605341760000011878475279318750347_);fill:none;stroke:#FFFFFF;stroke-width:2.098;stroke-miterlimit:10;}
	.st15{clip-path:url(#SVGID_00000181076513459003467010000009580729389752453264_);fill:#010202;}
	
		.st16{clip-path:url(#SVGID_00000181076513459003467010000009580729389752453264_);fill:none;stroke:#FFFFFF;stroke-width:2.098;stroke-miterlimit:10;}
	.st17{clip-path:url(#SVGID_00000181076513459003467010000009580729389752453264_);fill:#FFFFFF;}
	.st18{clip-path:url(#SVGID_00000006686650552257873090000005944482272355585722_);}
	.st19{clip-path:url(#SVGID_00000106838022677361075560000007719017795352407177_);fill:#010202;}
	.st20{clip-path:url(#SVGID_00000154410540754242255910000008936677777774989495_);fill:#010202;}
	.st21{clip-path:url(#SVGID_00000154410540754242255910000008936677777774989495_);}
	.st22{clip-path:url(#SVGID_00000176758059797117205510000008849215881317007504_);fill:#FFFFFF;}
	.st23{clip-path:url(#SVGID_00000018219374885579161880000011127475989690111162_);}
	.st24{clip-path:url(#SVGID_00000179648524026597202950000017340727325182592395_);fill:#010202;}
	
		.st25{clip-path:url(#SVGID_00000179648524026597202950000017340727325182592395_);fill:none;stroke:#010202;stroke-width:23.345;stroke-miterlimit:10;}
	.st26{clip-path:url(#SVGID_00000179648524026597202950000017340727325182592395_);fill:#FFFFFF;}
	
		.st27{clip-path:url(#SVGID_00000179648524026597202950000017340727325182592395_);fill:none;stroke:#FFFFFF;stroke-width:0.657;stroke-miterlimit:10;}
	
		.st28{clip-path:url(#SVGID_00000179648524026597202950000017340727325182592395_);fill:none;stroke:#FFFFFF;stroke-width:6.571;stroke-miterlimit:10;}
	
		.st29{clip-path:url(#SVGID_00000179648524026597202950000017340727325182592395_);fill:none;stroke:#010202;stroke-width:3.147;stroke-miterlimit:10;}
	
		.st30{clip-path:url(#SVGID_00000018219374885579161880000011127475989690111162_);fill:none;stroke:#010202;stroke-width:3.147;stroke-miterlimit:10;}
	.st31{clip-path:url(#SVGID_00000064328769283962528370000004048768331098143914_);fill:#010202;}
	.st32{clip-path:url(#SVGID_00000064328769283962528370000004048768331098143914_);fill:#FFFFFF;}
	.st33{clip-path:url(#SVGID_00000018219374885579161880000011127475989690111162_);fill:#010202;}
	.st34{clip-path:url(#SVGID_00000165193885503485585050000000468619225641418408_);}
	.st35{clip-path:url(#SVGID_00000025436032427647422220000018319204238322507671_);fill:#010202;}
	.st36{clip-path:url(#SVGID_00000025436032427647422220000018319204238322507671_);}
	.st37{clip-path:url(#SVGID_00000111150829243043489800000007655259872314148757_);fill:#FFFFFF;}
	.st38{clip-path:url(#SVGID_00000025436032427647422220000018319204238322507671_);fill:#B4B4B4;}
	.st39{clip-path:url(#SVGID_00000025436032427647422220000018319204238322507671_);fill:#FFFFFF;}
	.st40{clip-path:url(#SVGID_00000083804337684110248390000003596681969982981548_);fill:#010202;}
	.st41{clip-path:url(#SVGID_00000045592090789294143890000010559824316215135107_);fill:#010202;}
	.st42{clip-path:url(#SVGID_00000031179219751669589140000006125959811649888927_);enable-background:new    ;}
	.st43{clip-path:url(#SVGID_00000125591774260101832930000011407614476082126509_);}
	.st44{clip-path:url(#SVGID_00000008126898558670652990000014153280251276439206_);fill:#010202;}
	.st45{clip-path:url(#SVGID_00000008126898558670652990000014153280251276439206_);fill:none;stroke:#010202;stroke-width:0.82;}
	.st46{clip-path:url(#SVGID_00000008126898558670652990000014153280251276439206_);fill:none;stroke:#010202;stroke-width:0.864;}
	.st47{clip-path:url(#SVGID_00000008126898558670652990000014153280251276439206_);fill:#FFFFFF;}
	.st48{clip-path:url(#SVGID_00000008126898558670652990000014153280251276439206_);fill:none;stroke:#010202;stroke-width:1.639;}
	
		.st49{clip-path:url(#SVGID_00000008126898558670652990000014153280251276439206_);fill:none;stroke:#010202;stroke-width:4.918;stroke-linecap:round;}
	
		.st50{clip-path:url(#SVGID_00000008126898558670652990000014153280251276439206_);fill:none;stroke:#010202;stroke-width:4.918;stroke-linecap:round;stroke-dasharray:0.367,7.34;}
	
		.st51{clip-path:url(#SVGID_00000008126898558670652990000014153280251276439206_);fill:none;stroke:#010202;stroke-width:4.918;stroke-linecap:round;stroke-dasharray:0.367,7.34,0.367,7.34;}
	
		.st52{clip-path:url(#SVGID_00000008126898558670652990000014153280251276439206_);fill:none;stroke:#010202;stroke-width:4.918;stroke-linecap:round;stroke-dasharray:0.32,6.386;}
	
		.st53{clip-path:url(#SVGID_00000008126898558670652990000014153280251276439206_);fill:none;stroke:#010202;stroke-width:4.918;stroke-linecap:round;stroke-dasharray:0.32,6.386,0.32,6.386;}
	
		.st54{clip-path:url(#SVGID_00000008126898558670652990000014153280251276439206_);fill:none;stroke:#010202;stroke-width:4.918;stroke-linecap:round;stroke-dasharray:0.359,7.186;}
	
		.st55{clip-path:url(#SVGID_00000008126898558670652990000014153280251276439206_);fill:none;stroke:#010202;stroke-width:4.918;stroke-linecap:round;stroke-dasharray:0.359,7.186,0.359,7.186;}
	
		.st56{clip-path:url(#SVGID_00000008126898558670652990000014153280251276439206_);fill:none;stroke:#010202;stroke-width:4.918;stroke-linecap:round;stroke-dasharray:0.326,6.528;}
	
		.st57{clip-path:url(#SVGID_00000008126898558670652990000014153280251276439206_);fill:none;stroke:#010202;stroke-width:4.918;stroke-linecap:round;stroke-dasharray:0.326,6.528,0.326,6.528;}
	.st58{clip-path:url(#SVGID_00000008126898558670652990000014153280251276439206_);fill:none;stroke:#010202;stroke-width:0.828;}
	.st59{clip-path:url(#SVGID_00000008126898558670652990000014153280251276439206_);fill:none;stroke:#010202;stroke-width:0.987;}
	.st60{opacity:0.33;clip-path:url(#SVGID_00000008126898558670652990000014153280251276439206_);}
	.st61{clip-path:url(#SVGID_00000103248464477077266730000010491176521110947999_);}
	.st62{clip-path:url(#SVGID_00000078735032828611823360000008320521924547647137_);fill:#010202;}
	.st63{clip-path:url(#SVGID_00000113351181596766455150000014474014644518089899_);}
	.st64{clip-path:url(#SVGID_00000083052970680144589890000000834666110908821657_);fill:#010202;}
	.st65{clip-path:url(#SVGID_00000008112616028883042280000005466070728522029995_);}
	.st66{clip-path:url(#SVGID_00000024721406906220485260000003102942258271028651_);fill:#010202;}
	.st67{opacity:0.5;clip-path:url(#SVGID_00000008126898558670652990000014153280251276439206_);}
	.st68{clip-path:url(#SVGID_00000161593606246864260220000017500031832353538444_);}
	.st69{clip-path:url(#SVGID_00000127765859223194067660000005828091086120815783_);fill:#010202;}
	
		.st70{clip-path:url(#SVGID_00000008126898558670652990000014153280251276439206_);fill:none;stroke:#010202;stroke-width:0.82;stroke-miterlimit:10;}
	
		.st71{clip-path:url(#SVGID_00000008126898558670652990000014153280251276439206_);fill:none;stroke:#010202;stroke-width:0.82;stroke-linejoin:bevel;}
	
		.st72{clip-path:url(#SVGID_00000008126898558670652990000014153280251276439206_);fill:none;stroke:#010202;stroke-width:0.83;stroke-linejoin:bevel;}
	
		.st73{clip-path:url(#SVGID_00000008126898558670652990000014153280251276439206_);fill:none;stroke:#010202;stroke-width:0.877;stroke-linejoin:bevel;}
	
		.st74{clip-path:url(#SVGID_00000008126898558670652990000014153280251276439206_);fill:none;stroke:#010202;stroke-width:0.536;stroke-linejoin:bevel;}
	.st75{clip-path:url(#SVGID_00000087400804186473583440000015567432968755395720_);fill:#010202;}
	.st76{clip-path:url(#SVGID_00000105402982511775615980000015207652578868496061_);fill:#9D9D9C;}
	.st77{clip-path:url(#SVGID_00000025426499382239876770000015288369733029108120_);fill:#010202;}
	.st78{clip-path:url(#SVGID_00000047055108145769386170000004494260019972615085_);fill:#010202;}
	.st79{clip-path:url(#SVGID_00000167394160421935934770000014703266458526849953_);fill:#010202;}
	.st80{clip-path:url(#SVGID_00000157307307343207460070000008263792964489404311_);fill:#010202;}
	.st81{clip-path:url(#SVGID_00000067926895182321889610000012303122270206871996_);fill:#010202;}
	.st82{clip-path:url(#SVGID_00000030452040202107323490000013985488104848936612_);fill:#010202;}
	.st83{clip-path:url(#SVGID_00000045603154960310507540000017579172865435106437_);fill:#010202;}
	.st84{clip-path:url(#SVGID_00000047755071483372791160000014492538772896159622_);fill:#010202;}
	.st85{clip-path:url(#SVGID_00000137107013920413613420000005423859659592547225_);fill:#010202;}
	.st86{clip-path:url(#SVGID_00000173855466526106394360000012130099857665665927_);fill:#010202;}
	.st87{clip-path:url(#SVGID_00000083081402085873969480000015729602899666027665_);fill:#010202;}
	.st88{clip-path:url(#SVGID_00000068674478618773068470000010753927907613933466_);fill:#010202;}
	.st89{clip-path:url(#SVGID_00000023961486480097468650000018051640393185571998_);fill:#010202;}
	.st90{clip-path:url(#SVGID_00000160153232896167458330000005992089675666543291_);fill:#010202;}
	.st91{clip-path:url(#SVGID_00000018935385619059296310000003032274034397852346_);fill:#010202;}
	.st92{clip-path:url(#SVGID_00000178922846477406124980000009939998936452808588_);fill:#010202;}
	.st93{clip-path:url(#SVGID_00000052079266842120410440000001339340594233451660_);fill:#010202;}
	.st94{clip-path:url(#SVGID_00000005253212797471377570000007547979775576206241_);fill:#010202;}
	.st95{clip-path:url(#SVGID_00000079483808478492605530000008740787983263818175_);fill:#010202;}
	.st96{clip-path:url(#SVGID_00000049185356340954243510000003956923195225541511_);fill:#010202;}
	.st97{clip-path:url(#SVGID_00000159430607571197822200000004524856377143114431_);fill:#010202;}
	.st98{clip-path:url(#SVGID_00000031905847206542986800000012947582792262353545_);fill:#FFFFFF;}
	.st99{clip-path:url(#SVGID_00000031905847206542986800000012947582792262353545_);fill:#010202;}
	.st100{clip-path:url(#SVGID_00000139292551249618392140000001636737804512482695_);fill:#010202;}
	.st101{clip-path:url(#SVGID_00000095311505874309155690000009653477100050273412_);fill:#010202;}
	.st102{clip-path:url(#SVGID_00000065054340212195782750000015888912357055551415_);fill:#010202;}
	.st103{clip-path:url(#SVGID_00000065054340212195782750000015888912357055551415_);fill:#FFFFFF;}
	.st104{clip-path:url(#SVGID_00000065054340212195782750000015888912357055551415_);fill:none;stroke:#010202;stroke-width:1.366;}
	
		.st105{clip-path:url(#SVGID_00000025436032427647422220000018319204238322507671_);fill:none;stroke:#010202;stroke-width:4.098;stroke-linecap:round;}
	
		.st106{clip-path:url(#SVGID_00000025436032427647422220000018319204238322507671_);fill:none;stroke:#010202;stroke-width:4.098;stroke-linecap:round;stroke-dasharray:0.945,5.199;}
	
		.st107{clip-path:url(#SVGID_00000025436032427647422220000018319204238322507671_);fill:none;stroke:#010202;stroke-width:4.098;stroke-linecap:round;stroke-dasharray:0,4.154,0,4.154;stroke-dashoffset:4;}
	.st108{clip-path:url(#SVGID_00000155861641460712206070000002079147567194903426_);fill:#010202;}
	.st109{clip-path:url(#SVGID_00000155861641460712206070000002079147567194903426_);fill:none;stroke:#010202;stroke-width:1.366;}
	.st110{clip-path:url(#SVGID_00000155861641460712206070000002079147567194903426_);fill:#FFFFFF;}
	
		.st111{clip-path:url(#SVGID_00000025436032427647422220000018319204238322507671_);fill:none;stroke:#010202;stroke-width:4.098;stroke-linecap:round;stroke-dasharray:0.827,4.527;}
	
		.st112{clip-path:url(#SVGID_00000025436032427647422220000018319204238322507671_);fill:none;stroke:#010202;stroke-width:4.098;stroke-linecap:round;stroke-dasharray:2.000000e-03,3.702,2.000000e-03,3.702;stroke-dashoffset:3;}
	.st113{clip-path:url(#SVGID_00000165196673934808064450000009957458450981563015_);fill:#010202;}
	.st114{clip-path:url(#SVGID_00000165196673934808064450000009957458450981563015_);fill:none;stroke:#010202;stroke-width:1.366;}
	.st115{clip-path:url(#SVGID_00000165196673934808064450000009957458450981563015_);fill:#FFFFFF;}
	
		.st116{clip-path:url(#SVGID_00000025436032427647422220000018319204238322507671_);fill:none;stroke:#010202;stroke-width:4.098;stroke-linecap:round;stroke-dasharray:0.929,5.093;}
	
		.st117{clip-path:url(#SVGID_00000025436032427647422220000018319204238322507671_);fill:none;stroke:#010202;stroke-width:4.098;stroke-linecap:round;stroke-dasharray:4.700000e-02,4.212,4.700000e-02,4.212;stroke-dashoffset:4;}
	.st118{clip-path:url(#SVGID_00000060721538706593160890000016870321760361488572_);fill:#010202;}
	.st119{clip-path:url(#SVGID_00000060721538706593160890000016870321760361488572_);fill:none;stroke:#010202;stroke-width:1.366;}
	.st120{clip-path:url(#SVGID_00000060721538706593160890000016870321760361488572_);fill:#FFFFFF;}
	
		.st121{clip-path:url(#SVGID_00000025436032427647422220000018319204238322507671_);fill:none;stroke:#010202;stroke-width:4.098;stroke-linecap:round;stroke-dasharray:0.875,5.128;}
	
		.st122{clip-path:url(#SVGID_00000025436032427647422220000018319204238322507671_);fill:none;stroke:#010202;stroke-width:4.098;stroke-linecap:round;stroke-dasharray:0,4.125,0,4.125;stroke-dashoffset:4;}
	.st123{clip-path:url(#SVGID_00000066491201577408752120000002924419009337058969_);fill:#010202;}
	.st124{clip-path:url(#SVGID_00000066491201577408752120000002924419009337058969_);fill:none;stroke:#010202;stroke-width:1.366;}
	.st125{clip-path:url(#SVGID_00000066491201577408752120000002924419009337058969_);fill:#FFFFFF;}
	
		.st126{clip-path:url(#SVGID_00000025436032427647422220000018319204238322507671_);fill:none;stroke:#010202;stroke-width:4.098;stroke-linecap:round;stroke-dasharray:0.827,5.081;}
	
		.st127{clip-path:url(#SVGID_00000025436032427647422220000018319204238322507671_);fill:none;stroke:#010202;stroke-width:4.098;stroke-linecap:round;stroke-dasharray:0,4.105,0,4.105;stroke-dashoffset:4;}
	.st128{clip-path:url(#SVGID_00000008131886865611797540000018372984337585869234_);fill:#010202;}
	.st129{clip-path:url(#SVGID_00000008131886865611797540000018372984337585869234_);fill:none;stroke:#010202;stroke-width:1.366;}
	.st130{clip-path:url(#SVGID_00000008131886865611797540000018372984337585869234_);fill:#FFFFFF;}
	
		.st131{clip-path:url(#SVGID_00000025436032427647422220000018319204238322507671_);fill:none;stroke:#010202;stroke-width:4.098;stroke-linecap:round;stroke-dasharray:0.829,5.083;}
	
		.st132{clip-path:url(#SVGID_00000025436032427647422220000018319204238322507671_);fill:none;stroke:#010202;stroke-width:4.098;stroke-linecap:round;stroke-dasharray:0,4.106,0,4.106;stroke-dashoffset:4;}
	.st133{clip-path:url(#SVGID_00000047745891740897972810000000642160688429021569_);fill:#010202;}
	.st134{clip-path:url(#SVGID_00000047745891740897972810000000642160688429021569_);fill:none;stroke:#010202;stroke-width:1.366;}
	.st135{clip-path:url(#SVGID_00000047745891740897972810000000642160688429021569_);fill:#FFFFFF;}
	
		.st136{clip-path:url(#SVGID_00000025436032427647422220000018319204238322507671_);fill:none;stroke:#010202;stroke-width:4.098;stroke-linecap:round;stroke-dasharray:0,3.58;}
	.st137{clip-path:url(#SVGID_00000175295557915995159280000010110067708467099796_);fill:#010202;}
	.st138{clip-path:url(#SVGID_00000175295557915995159280000010110067708467099796_);fill:none;stroke:#010202;stroke-width:1.366;}
	.st139{clip-path:url(#SVGID_00000062909101835428961820000000758918981640774320_);fill:#010202;}
	.st140{clip-path:url(#SVGID_00000131354317878814057510000009990053045696716961_);fill:#010202;}
	.st141{clip-path:url(#SVGID_00000150825444397067320420000010049442580670563232_);}
	.st142{clip-path:url(#SVGID_00000011000158791436706150000008543335720086421400_);fill:#010202;}
	.st143{clip-path:url(#SVGID_00000159465514016692481660000003753579830926102717_);}
	.st144{clip-path:url(#SVGID_00000050655713378102628450000015206870990619420583_);fill:#B4B4B4;}
	.st145{clip-path:url(#SVGID_00000050655713378102628450000015206870990619420583_);}
	.st146{clip-path:url(#SVGID_00000074429163304864051380000016627217177123291062_);fill:#020304;}
	
		.st147{clip-path:url(#SVGID_00000116928882844877233200000006012632075909259142_);fill:none;stroke:#FFFFFF;stroke-width:2.226;stroke-miterlimit:10;}
	
		.st148{clip-path:url(#SVGID_00000116928882844877233200000006012632075909259142_);fill:none;stroke:#000000;stroke-width:0.445;stroke-miterlimit:10;}
	.st149{filter:url(#Adobe_OpacityMaskFilter);}
	.st150{clip-path:url(#SVGID_00000166646837246725603350000005570368091316309652_);}
	
		.st151{clip-path:url(#SVGID_00000166646837246725603350000005570368091316309652_);mask:url(#SVGID_00000034787709280531007650000016502434703376186296_);}
	.st152{opacity:0.55;clip-path:url(#SVGID_00000154392936835784938810000003541663051696578718_);fill:#010202;}
	.st153{clip-path:url(#SVGID_00000050655713378102628450000015206870990619420583_);fill:#FFFFFF;}
	.st154{clip-path:url(#SVGID_00000180327465881572373340000018358169116071631547_);fill:#010202;}
	.st155{clip-path:url(#SVGID_00000050655713378102628450000015206870990619420583_);fill:none;stroke:#010202;stroke-width:0.554;}
	.st156{clip-path:url(#SVGID_00000035496832084218777820000006485733817375504557_);fill:#010202;}
	.st157{filter:url(#Adobe_OpacityMaskFilter_00000002364896146838551690000001015947085371356331_);}
	.st158{clip-path:url(#SVGID_00000076571481234115655650000005457233080889585314_);}
	
		.st159{clip-path:url(#SVGID_00000076571481234115655650000005457233080889585314_);mask:url(#SVGID_00000121990293603954895380000015266865972260061369_);}
	.st160{opacity:0.55;clip-path:url(#SVGID_00000003788197358507963760000012683075301687841927_);fill:#010202;}
	.st161{filter:url(#Adobe_OpacityMaskFilter_00000017507533833385834000000007055443041261014689_);}
	.st162{clip-path:url(#SVGID_00000023267637782820090620000015101227772009677229_);}
	
		.st163{clip-path:url(#SVGID_00000023267637782820090620000015101227772009677229_);mask:url(#SVGID_00000163055128943962574240000008389583797512007581_);}
	.st164{opacity:0.55;clip-path:url(#SVGID_00000084526474605439282520000014237143527625011371_);fill:#010202;}
	.st165{clip-path:url(#SVGID_00000008144552847324146530000014246946519226127775_);fill:#010202;}
	.st166{clip-path:url(#SVGID_00000070840350774386444680000009894379761983425699_);fill:none;stroke:#010202;stroke-width:0.554;}
	.st167{clip-path:url(#SVGID_00000070840350774386444680000009894379761983425699_);fill:#010202;}
	.st168{filter:url(#Adobe_OpacityMaskFilter_00000027565824562834383340000015274981642307119541_);}
	.st169{clip-path:url(#SVGID_00000070840350774386444680000009894379761983425699_);}
	
		.st170{clip-path:url(#SVGID_00000070840350774386444680000009894379761983425699_);mask:url(#SVGID_00000116949714174108730030000004361049684629446837_);}
	.st171{opacity:0.55;clip-path:url(#SVGID_00000061434357054038652480000007084110607553920422_);fill:#010202;}
	.st172{filter:url(#Adobe_OpacityMaskFilter_00000067237993156317321120000016817676814033134225_);}
	.st173{clip-path:url(#SVGID_00000046310290020716890390000004696819640675425455_);}
	
		.st174{clip-path:url(#SVGID_00000046310290020716890390000004696819640675425455_);mask:url(#SVGID_00000107562845730701369970000009751334968757286802_);}
	.st175{opacity:0.55;clip-path:url(#SVGID_00000095316380855583920920000017093127871747915699_);fill:#010202;}
	.st176{clip-path:url(#SVGID_00000049922341042426329390000015411112404679691402_);fill:#010202;}
	.st177{clip-path:url(#SVGID_00000039095218452538383420000010005627517086928533_);fill:#010202;}
	.st178{filter:url(#Adobe_OpacityMaskFilter_00000030486569709906637040000016909813080680411813_);}
	.st179{clip-path:url(#SVGID_00000039095218452538383420000010005627517086928533_);}
	
		.st180{clip-path:url(#SVGID_00000039095218452538383420000010005627517086928533_);mask:url(#SVGID_00000134937751533621375740000007155653056110787493_);}
	.st181{opacity:0.55;clip-path:url(#SVGID_00000086662829739464576330000010147434125949172137_);fill:#010202;}
	.st182{clip-path:url(#SVGID_00000054981640813309454630000006625586703640361110_);}
	.st183{clip-path:url(#SVGID_00000076588753067270242190000005267589148868219554_);}
	.st184{clip-path:url(#SVGID_00000042730694309153325860000013569153775180669319_);fill:#010202;}
	
		.st185{clip-path:url(#SVGID_00000042730694309153325860000013569153775180669319_);fill:none;stroke:#010202;stroke-width:11.817;stroke-linejoin:round;}
	.st186{clip-path:url(#SVGID_00000042730694309153325860000013569153775180669319_);fill:#FFFFFF;}
	.st187{clip-path:url(#SVGID_00000042730694309153325860000013569153775180669319_);fill:none;stroke:#010202;stroke-width:1.972;}
	.st188{clip-path:url(#SVGID_00000042730694309153325860000013569153775180669319_);fill:none;stroke:#010202;stroke-width:42.229;}
	.st189{clip-path:url(#SVGID_00000042730694309153325860000013569153775180669319_);fill:none;stroke:#FFFFFF;stroke-width:2.016;}
	.st190{clip-path:url(#SVGID_00000150824821859091880310000006322514126891460492_);fill:#010202;}
	.st191{clip-path:url(#SVGID_00000150824821859091880310000006322514126891460492_);fill:#FFFFFF;}
	.st192{clip-path:url(#SVGID_00000109728101749194563900000008457984417412108434_);fill:#010202;}
	.st193{clip-path:url(#SVGID_00000109728101749194563900000008457984417412108434_);fill:none;stroke:#010202;stroke-width:22.467;}
	.st194{clip-path:url(#SVGID_00000109728101749194563900000008457984417412108434_);fill:none;stroke:#FFFFFF;stroke-width:1.925;}
	.st195{clip-path:url(#SVGID_00000109728101749194563900000008457984417412108434_);fill:#FFFFFF;}
	.st196{clip-path:url(#SVGID_00000109728101749194563900000008457984417412108434_);fill:none;stroke:#010202;stroke-width:2.069;}
	.st197{clip-path:url(#SVGID_00000109728101749194563900000008457984417412108434_);fill:none;stroke:#010202;stroke-width:1.925;}
	
		.st198{clip-path:url(#SVGID_00000109728101749194563900000008457984417412108434_);fill:none;stroke:#010202;stroke-width:28.328;stroke-miterlimit:10;}
	
		.st199{clip-path:url(#SVGID_00000109728101749194563900000008457984417412108434_);fill:none;stroke:#FFFFFF;stroke-width:2.071;stroke-miterlimit:10;}
	.st200{clip-path:url(#SVGID_00000109728101749194563900000008457984417412108434_);fill:none;stroke:#010202;stroke-width:1.348;}
	.st201{clip-path:url(#SVGID_00000128471079041581610270000011315015374056020145_);fill:#FFFFFF;}
	.st202{clip-path:url(#SVGID_00000037653204367830101690000015423558669802250386_);fill:#010202;}
	.st203{clip-path:url(#SVGID_00000114041105587598455940000007461305980522989982_);fill:#FFFFFF;}
	.st204{clip-path:url(#SVGID_00000114041105587598455940000007461305980522989982_);fill:none;stroke:#010202;stroke-width:2.117;}
	.st205{clip-path:url(#SVGID_00000114041105587598455940000007461305980522989982_);fill:#010202;}
	.st206{clip-path:url(#SVGID_00000114041105587598455940000007461305980522989982_);fill:none;stroke:#010202;stroke-width:1.925;}
	
		.st207{clip-path:url(#SVGID_00000034079217419547658890000011632936570449570697_);fill:url(#SVGID_00000019650381749279975030000015192865773245658763_);}
	.st208{clip-path:url(#SVGID_00000078008849714301361690000017538656517262434979_);fill:none;stroke:#010202;stroke-width:3.268;}
	
		.st209{clip-path:url(#SVGID_00000044172799751284875160000015878791628820578700_);fill:url(#SVGID_00000177442289089929421880000003996559453393546411_);}
	.st210{clip-path:url(#SVGID_00000039106603230491345420000001566484552785254839_);fill:none;stroke:#010202;stroke-width:1.925;}
	
		.st211{clip-path:url(#SVGID_00000078031984857502897350000014228447621324717212_);fill:url(#SVGID_00000030477685048327665650000010192390583078565261_);}
	.st212{clip-path:url(#SVGID_00000070085832753899393470000008453484082803867780_);fill:none;stroke:#010202;stroke-width:1.925;}
	.st213{filter:url(#Adobe_OpacityMaskFilter_00000008848951632785114510000006549583740734698155_);}
	.st214{clip-path:url(#SVGID_00000086674395694621173050000018190913506196261010_);}
	
		.st215{clip-path:url(#SVGID_00000008130366652118582370000001303247128027057061_);fill:url(#SVGID_00000181053041030639317120000006378631552569909668_);}
	
		.st216{clip-path:url(#SVGID_00000086674395694621173050000018190913506196261010_);mask:url(#SVGID_00000152973685376660260870000016460585626775616696_);fill:url(#SVGID_00000037693626263806355250000017166902890804908448_);}
	.st217{clip-path:url(#SVGID_00000070106140494316827080000016543212290171258775_);fill:none;stroke:#010202;stroke-width:1.925;}
	.st218{clip-path:url(#SVGID_00000016781950984902323030000006931832709248608138_);fill:#010202;}
	.st219{clip-path:url(#SVGID_00000098220007814805933810000003969772599153159321_);fill:#010202;}
	.st220{clip-path:url(#SVGID_00000098220007814805933810000003969772599153159321_);fill:none;stroke:#010202;stroke-width:30.169;}
	.st221{clip-path:url(#SVGID_00000098220007814805933810000003969772599153159321_);fill:none;stroke:#FFFFFF;stroke-width:2.857;}
	.st222{clip-path:url(#SVGID_00000098220007814805933810000003969772599153159321_);fill:#FFFFFF;}
	.st223{clip-path:url(#SVGID_00000098220007814805933810000003969772599153159321_);fill:none;stroke:#010202;stroke-width:3.693;}
	.st224{clip-path:url(#SVGID_00000170264258134073008960000018268753234292094092_);}
	.st225{clip-path:url(#SVGID_00000009552317467179676880000011956174816474379651_);fill:#010202;}
	.st226{clip-path:url(#SVGID_00000170264258134073008960000018268753234292094092_);fill:none;stroke:#010202;stroke-width:1.105;}
	.st227{clip-path:url(#SVGID_00000039823936053367933490000017358715598537811886_);fill:#010202;}
	.st228{clip-path:url(#SVGID_00000165941305166669317390000001782987556364910499_);fill:#010202;}
	.st229{clip-path:url(#SVGID_00000003784259093230602360000015268467394824364972_);fill:#010202;}
	.st230{clip-path:url(#SVGID_00000083807244934907091940000009819320847403197876_);fill:#010202;}
	.st231{clip-path:url(#SVGID_00000165955800408967282130000014903886478175499678_);fill:#010202;}
	.st232{clip-path:url(#SVGID_00000097490669986529931000000002651313867678171278_);fill:#010202;}
	.st233{clip-path:url(#SVGID_00000097490669986529931000000002651313867678171278_);}
	.st234{clip-path:url(#SVGID_00000047764390085947486840000018330201516313640077_);fill:#FFFFFF;}
	.st235{clip-path:url(#SVGID_00000111190814490408910990000009731369622253970081_);fill:#010202;}
	.st236{clip-path:url(#SVGID_00000111190814490408910990000009731369622253970081_);}
	.st237{clip-path:url(#SVGID_00000010287766366172633740000005677896707734616758_);fill:#FFFFFF;}
	.st238{clip-path:url(#SVGID_00000111190814490408910990000009731369622253970081_);fill:#FFFFFF;}
	.st239{clip-path:url(#SVGID_00000111190814490408910990000009731369622253970081_);fill:none;stroke:#010202;stroke-width:14.314;}
	.st240{clip-path:url(#SVGID_00000104683279437627033660000008915558071889227424_);fill:#010202;}
	.st241{clip-path:url(#SVGID_00000104683279437627033660000008915558071889227424_);}
	.st242{clip-path:url(#SVGID_00000117635975413531973700000012531618716304388006_);fill:#FFFFFF;}
	.st243{clip-path:url(#SVGID_00000104683279437627033660000008915558071889227424_);fill:#FFFFFF;}
	.st244{clip-path:url(#SVGID_00000007409303496457782940000009308870702186446234_);fill:#FFFFFF;}
	.st245{clip-path:url(#SVGID_00000176764321197742549570000003744352141361127309_);fill:#010202;}
	.st246{clip-path:url(#SVGID_00000176764321197742549570000003744352141361127309_);}
	.st247{clip-path:url(#SVGID_00000069370158447713067250000009224627277571966081_);fill:#010202;}
	.st248{clip-path:url(#SVGID_00000174593402228144820800000017634113321214360228_);fill:#FFFFFF;}
	.st249{clip-path:url(#SVGID_00000174593402228144820800000017634113321214360228_);fill:#010202;}
	.st250{clip-path:url(#SVGID_00000176764321197742549570000003744352141361127309_);fill:#FFFFFF;}
	.st251{clip-path:url(#SVGID_00000100368077221218696550000009995301872521930675_);fill:#FFFFFF;}
	.st252{clip-path:url(#SVGID_00000100368077221218696550000009995301872521930675_);fill:#010202;}
	.st253{clip-path:url(#SVGID_00000147182653164986181520000013069342142619683485_);fill:#010202;}
	.st254{clip-path:url(#SVGID_00000147182653164986181520000013069342142619683485_);fill:#FFFFFF;}
	.st255{clip-path:url(#SVGID_00000020374308842425525790000013920533531757433218_);fill:#FFFFFF;}
	.st256{clip-path:url(#SVGID_00000151541995178240345900000002912924445083012021_);fill:#010202;}
	.st257{clip-path:url(#SVGID_00000151541995178240345900000002912924445083012021_);}
	.st258{clip-path:url(#SVGID_00000103958552468990713690000017823484931262273413_);fill:#B4B4B4;}
	.st259{clip-path:url(#SVGID_00000103958552468990713690000017823484931262273413_);fill:#FFFFFF;}
	.st260{clip-path:url(#SVGID_00000151541995178240345900000002912924445083012021_);fill:#FFFFFF;}
	.st261{clip-path:url(#SVGID_00000172441630368654266140000017020907583042779576_);fill:#B4B4B4;}
	.st262{clip-path:url(#SVGID_00000172441630368654266140000017020907583042779576_);fill:#FFFFFF;}
	.st263{clip-path:url(#SVGID_00000155120342510378948420000009744307125876844463_);}
	.st264{clip-path:url(#SVGID_00000124843929289957272700000000563967064506693822_);fill:#010202;}
	.st265{clip-path:url(#SVGID_00000064339073673527459400000003924837552851278770_);fill:#010202;}
	.st266{clip-path:url(#SVGID_00000064339073673527459400000003924837552851278770_);}
	.st267{clip-path:url(#SVGID_00000070116007186463113200000016827668074528652977_);fill:#B4B4B4;}
	.st268{clip-path:url(#SVGID_00000064339073673527459400000003924837552851278770_);fill:#B4B4B4;}
	.st269{clip-path:url(#SVGID_00000037684669370528204320000008387214346738474939_);fill:#B4B4B4;}
	.st270{clip-path:url(#SVGID_00000029044232965423438930000018054413336870472588_);fill:#B4B4B4;}
	.st271{clip-path:url(#SVGID_00000072281008311795367670000003117462466995948201_);fill:#FFFFFF;}
	.st272{clip-path:url(#SVGID_00000064339073673527459400000003924837552851278770_);fill:#FFFFFF;}
	.st273{clip-path:url(#SVGID_00000059304656329365593580000002747880192124331157_);fill:#010202;}
	.st274{clip-path:url(#SVGID_00000031206241727152395390000003998190390283213991_);fill:#010202;}
	.st275{clip-path:url(#SVGID_00000031206241727152395390000003998190390283213991_);}
	.st276{clip-path:url(#SVGID_00000050654285135053306750000007666792524046436023_);fill:#FFFFFF;}
</style>
<g>
	<g>
		<defs>
			<rect id="SVGID_00000031209693993024708920000000492471518070223281_" width="1920" height="1080"/>
		</defs>
		<clipPath id="SVGID_00000020358791581463236520000003347960118220986512_">
			<use xlink:href="#SVGID_00000031209693993024708920000000492471518070223281_"  style="overflow:visible;"/>
		</clipPath>
		
			<rect style="clip-path:url(#SVGID_00000020358791581463236520000003347960118220986512_);fill:#010202;" width="1920" height="1080"/>
		<g style="clip-path:url(#SVGID_00000020358791581463236520000003347960118220986512_);">
			<defs>
				<rect id="SVGID_00000041275722328606040730000006318325365305870720_" width="1920" height="1080"/>
			</defs>
			<clipPath id="SVGID_00000109008949459210034040000013971206621518800001_">
				<use xlink:href="#SVGID_00000041275722328606040730000006318325365305870720_"  style="overflow:visible;"/>
			</clipPath>
			<path style="clip-path:url(#SVGID_00000109008949459210034040000013971206621518800001_);fill:#FFFFFF;" d="M1835.5,114.6
				c0,24.4-7.7,42.4-20.4,53.4l3.9,4c17.5-13.5,28.2-34.7,28.1-58.6c-0.1-25.1-9.4-42.9-28.1-56.4l-3.9,4
				C1827.8,72.1,1835.5,90.2,1835.5,114.6 M1759,63.9c-1.6,8.5-1.6,16.9,0.3,26.1h1.4c3.9-18.3,12.8-26.7,22.5-26.7
				c7.9,0,12.9,3.8,12.9,12.8c0,10.1-9.2,18.4-22.7,23.9l-0.5,1.4l6.7,22.9h1.5l4.8-23.4c12.9-4.3,22.8-15.1,22.8-26.9
				c0-10.7-6.7-17-23.1-17C1776.4,57,1764.3,59.9,1759,63.9 M1779.7,150.7c5.1,0,9-3.9,9-9c0-5.1-3.9-9-9-9s-9,3.9-9,9
				C1770.8,146.8,1774.7,150.7,1779.7,150.7 M1741.1,149.6c3.1-8.3,4.5-16,5.6-27.3l-1.4-0.2c-4.1,12.3-13.1,19.3-27.3,19.7
				l-5.1,0.1c-7,0.1-10.4-2.5-10.4-9.2v-24.1l11.7,0.3c10.7,0.3,13.8,3.3,14.3,9.1h1.4c1.8-6.2,2.4-12.7,1.8-18.5
				c-5.9,1.5-15.4,2.6-23.6,2.6h-5.6V73.5l16.2,0.2c13.8,0.2,19.8,3.9,20.1,14h1.4c2.5-7.7,2.5-15.2,1.5-22.2
				c-8.3,1-18.4,1.6-28.9,1.6h-35.3v6.4l6.3,0.3c4.7,0.2,7,2.6,7,9.3v48c0,8.8-5.3,12.8-14.7,15.2l0.1,1.8h45.1
				C1728.2,148.3,1735.5,148.9,1741.1,149.6 M1627.1,146.5l0.1,1.8h39.6v-6.4l-6.3-0.3c-4.7-0.2-7-2.6-7-9.3V85.3
				c0-9.9,4.1-13.9,14.7-16.3l-0.1-1.8h-39.6v6.4l6.3,0.3c4.7,0.2,7,2.6,7,9.3v18.2h-44.3V83c0-7.8,4.1-12.8,12.4-14l-0.1-1.8h-37.3
				v6.4l6.3,0.3c4.7,0.2,7,2.6,7,9.3v48c0,8.8-5.3,12.8-14.7,15.2l0.1,1.8h38.5v-6.4l-5.2-0.3c-4.7-0.3-7-2.6-7-9.3v-24.3h44.3v22.2
				C1641.8,140,1637.7,144.1,1627.1,146.5 M1523.8,110.3V73.5l8.5,0.2c10.5,0.2,16,4.3,16,14.4
				C1548.3,100.5,1539.7,108.1,1523.8,110.3 M1497.4,146.5l0.1,1.8h43.2v-6.4h-4.6c-8.4,0-12.3-3.3-12.3-9v-16.7
				c23.7-2.4,37.5-14.6,37.5-30.5c0-12.8-8.5-18.5-23.3-18.5h-39.3v6.4l6.3,0.3c4.7,0.2,7,2.6,7,9.3v48
				C1512.2,140,1506.9,144.1,1497.4,146.5 M1416.2,108c0-24.8,14.7-36.6,29.2-36.6c15.4,0,27.6,14,27.6,36.3
				c0,24.8-14.7,36.5-29.2,36.5C1428.4,144.2,1416.2,130.2,1416.2,108 M1442.9,151c25.1,0,43.4-20.8,43.4-45.5
				c0-24.6-16.5-40.9-40-40.9c-25.1,0-43.4,21-43.4,45.6C1402.9,134.8,1419.4,151,1442.9,151 M1347.5,106.8V73.5l8.5,0.2
				c12.1,0.3,17.2,5.4,17.2,13.5C1373.2,97.9,1364.3,104.2,1347.5,106.8 M1321.2,146.5l0.1,1.8h37.1v-6.4h-1.8c-6.6,0-9-2.2-9-6.9
				v-22.3c2.1-0.2,4-0.5,5.9-0.8l27.2,36.5h16.8V142c-4-0.6-8.2-2.3-18.5-15.3l-14-17.6c13.8-4.8,21.4-13.6,21.4-24.2
				c0-12-8.2-17.7-24.4-17.7h-39.3v6.4l6.3,0.3c4.7,0.2,7,2.6,7,9.3v48C1335.9,140,1330.6,144.1,1321.2,146.5 M1254.2,146.5l0.1,1.8
				h45.7v-6.4l-9-1.4c-4.7-0.7-7-2.6-7-9.3V73.6l7.8,0.2c15,0.6,18.5,4.8,19.7,17.3l1.4,0.1c3.1-10.9,3.7-20,1.8-25.2
				c-2.2,0.7-10.5,1.2-22.6,1.2h-24.5c-13.8,0-22-0.5-24.4-1c-2.8,7.7-3.6,15.8-3.1,24.9l1.4,0.2c3.6-12.5,9-17.4,19.6-17.5
				l11.3-0.2v56.6C1272.4,140,1265.9,144.1,1254.2,146.5 M1202.2,150.8c19,0,29.2-11.4,29.2-24.6c0-11.7-8.6-18.5-17.6-22.5l-10-4.4
				c-7.6-3.3-13.2-8.2-13.2-15.7c0-7.4,5.6-12.2,13.9-12.2c9.2,0,19.3,5.9,22.5,21.6l1.2-0.1c1.5-9.7,0.9-19.7-1.5-24.9
				c-5-2.2-12.3-3.6-18.9-3.6c-18.1,0-27.9,11.5-27.9,24.4c0,10,5.9,16,15.3,20.1l10,4.4c9.2,4,15,8.8,15,16.9
				c0,8.2-5.3,13.7-15.9,13.7c-11.5,0-19.8-6.7-25.4-24.9l-1.5,0.2c-1.4,8.8-0.6,19.1,3,27.1
				C1185.8,149.4,1194.9,150.8,1202.2,150.8 M1112.8,112.9l12-32.1l12.6,32.1H1112.8z M1136,148.3h32.8l0.1-1.8
				c-3.3-1.2-9.2-7.8-14.2-20.6l-23.7-60.8h-6.3l-0.2,0.7l-0.1-0.7l-23.8,59.8c-5.4,13.5-11.6,20.6-15.9,21.6l0.1,1.8h28.1l0.2-1.8
				l-2.8-1.5c-5.6-3.1-6.7-7.7-4.4-13.8l4.5-12h29.2l2.6,6.7c4.8,12.4,3.6,16.9-3.7,19.6l-2.9,1L1136,148.3z M1025.7,146.5l0.1,1.8
				h45.7v-6.4l-9-1.4c-4.7-0.7-7-2.6-7-9.3V73.6l7.8,0.2c15,0.6,18.5,4.8,19.7,17.3l1.4,0.1c3.1-10.9,3.7-20,1.8-25.2
				c-2.2,0.7-10.5,1.2-22.6,1.2h-24.5c-13.8,0-22-0.5-24.4-1c-2.8,7.7-3.6,15.8-3.1,24.9l1.4,0.2c3.6-12.5,9-17.4,19.6-17.5
				l11.3-0.2v56.6C1043.9,140,1037.5,144.1,1025.7,146.5 M959.2,112.9l12-32.1l12.5,32.1H959.2z M982.4,148.3h32.8l0.1-1.8
				c-3.3-1.2-9.2-7.8-14.2-20.6l-23.7-60.8h-6.3l-0.2,0.7l-0.1-0.7L947,124.8c-5.4,13.5-11.6,20.6-15.9,21.6l0.1,1.8h28.1l0.2-1.8
				l-2.8-1.5c-5.6-3.1-6.7-7.7-4.4-13.8l4.5-12h29.2l2.6,6.7c4.8,12.4,3.6,16.9-3.7,19.6l-2.9,1L982.4,148.3z M891.5,151
				c9.6,0,20.6-2.2,26.9-5.4c2.9-7.8,3.5-18.3,2.8-26.5l-1.5-0.1c-4.8,16.3-14.3,25.3-28,25.3c-16.8,0-28-14-28-36.3
				c0-24.8,16.8-36.7,30.4-36.7c10.9,0,20.8,7.6,22.6,20.8h1.3c2.4-7.3,2.8-16.6,1.2-22.8c-6.3-3-14.7-4.7-23.1-4.7
				c-28.4,0-45.5,21-45.5,45.6C850.5,136,868.4,151,891.5,151 M765.7,106.8V73.5l8.5,0.2c12.1,0.3,17.2,5.4,17.2,13.5
				C791.3,97.9,782.5,104.2,765.7,106.8 M739.3,146.5l0.1,1.8h37.1v-6.4h-1.8c-6.6,0-9-2.2-9-6.9v-22.3c2.1-0.2,4-0.5,5.9-0.8
				l27.2,36.5h16.8V142c-4-0.6-8.2-2.3-18.5-15.3l-14-17.6c13.8-4.8,21.4-13.6,21.4-24.2c0-12-8.2-17.7-24.4-17.7h-39.3v6.4l6.3,0.3
				c4.7,0.2,7,2.6,7,9.3v48C754,140,748.7,144.1,739.3,146.5 M678.5,112.9l12-32.1l12.6,32.1H678.5z M701.8,148.3h32.8l0.1-1.8
				c-3.3-1.2-9.2-7.8-14.2-20.6l-23.7-60.8h-6.3l-0.2,0.7l-0.1-0.7l-23.8,59.8c-5.4,13.5-11.6,20.6-15.9,21.6l0.1,1.8h28.1l0.2-1.8
				l-2.8-1.5c-5.6-3.1-6.7-7.7-4.4-13.8l4.5-12h29.2l2.6,6.7c4.8,12.4,3.6,16.9-3.7,19.6l-2.9,1L701.8,148.3z M641.4,149.6
				c2.4-8.4,4.6-17,5.6-28.9l-1.4-0.2c-4.7,14.3-13.2,20.4-27.3,20.8l-3.7,0.1c-7,0.2-10.4-2.5-10.4-9.2V86.7
				c0-12,5.6-16.2,17.5-17.7l-0.1-1.8h-42.4v6.4l6.3,0.3c4.7,0.2,7,2.6,7,9.3v48c0,8.8-5.3,12.8-14.7,15.2l0.1,1.8h43.8
				C628.5,148.3,635.9,148.9,641.4,149.6 M523.3,151c22.3,0,35.7-12.4,35.7-28.2V85.3c0-9.9,3.1-13.9,11.3-16.3l-0.1-1.8h-34.1v6.4
				l6.3,0.3c4.7,0.2,7,2.6,7,9.3v37.3c0,15.7-8.8,23.4-24.5,23.4c-15.3,0-20.6-7.8-20.6-23V85.3c0-9.9,4.1-13.9,14.7-16.3l-0.1-1.8
				h-37.3v6.4l4,0.3c4.7,0.5,7,2.6,7,9.3v44.2C492.7,142,503.2,151,523.3,151 M430.5,151c14.2,0,32.2-5.2,40.9-10.9l-0.3-1.4
				c-5.4,1.3-8.6-0.8-8.6-6.1v-9.8c0-7.7,3.6-12.1,8.6-12.5l1.4-0.1v-1.8h-37.3v6.7l8.6,0.3c4.7,0.2,7,3,7,7.7v9.1
				c0,6.9-4.5,11.2-17.3,11.2c-20.4,0-33.5-13-33.5-35.2c0-23.7,14.2-36.4,32.8-36.4c14.2,0,23.5,7.4,24.8,23.9l1.3,0.2
				c3.2-8.6,4.4-18.8,3.5-26.2c-6.9-2.5-16.9-5-27.4-5c-27.6,0-48.1,21-48.1,45.6C386.8,135.3,406.2,151,430.5,151 M368.4,149.6
				c3.1-8.3,4.5-16,5.6-27.3l-1.4-0.2c-4.1,12.3-13.1,19.3-27.3,19.7l-5.1,0.1c-7,0.1-10.4-2.5-10.4-9.2v-24.1l11.7,0.3
				c10.7,0.3,13.8,3.3,14.3,9.1h1.4c1.8-6.2,2.4-12.7,1.8-18.5c-5.9,1.5-15.4,2.6-23.6,2.6H330V73.5l16.2,0.2
				c13.8,0.2,19.8,3.9,20.1,14h1.4c2.5-7.7,2.5-15.2,1.5-22.2c-8.3,1-18.4,1.6-28.9,1.6H305v6.4l6.3,0.3c4.7,0.2,7,2.6,7,9.3v48
				c0,8.8-5.3,12.8-14.7,15.2l0.1,1.8h45.1C355.6,148.3,362.9,148.9,368.4,149.6 M246.7,106.8V73.5l8.5,0.2
				c12.1,0.3,17.2,5.4,17.2,13.5C272.4,97.9,263.6,104.2,246.7,106.8 M220.4,146.5l0.1,1.8h37.1v-6.4h-1.8c-6.6,0-9-2.2-9-6.9v-22.3
				c2.1-0.2,4-0.5,5.9-0.8l27.2,36.5h16.8V142c-4-0.6-8.2-2.3-18.5-15.3l-14-17.6c13.8-4.8,21.4-13.6,21.4-24.2
				c0-12-8.2-17.7-24.4-17.7h-39.3v6.4l6.3,0.3c4.7,0.2,7,2.6,7,9.3v48C235.1,140,229.8,144.1,220.4,146.5 M134.7,112.9l12-32.1
				l12.6,32.1H134.7z M158,148.3h32.8l0.1-1.8c-3.3-1.2-9.2-7.8-14.2-20.6L153,65.1h-6.3l-0.2,0.7l-0.1-0.7l-23.8,59.8
				c-5.4,13.5-11.6,20.6-15.9,21.6l0.1,1.8h28.1l0.2-1.8l-2.8-1.5c-5.6-3.1-6.7-7.7-4.4-13.8l4.5-12h29.2l2.6,6.7
				c4.8,12.4,3.6,16.9-3.7,19.6l-2.9,1L158,148.3z M84.5,114.5c0-24.4,7.7-42.4,20.4-53.4l-3.9-4c-17.5,13.5-28.2,34.7-28.1,58.6
				c0.1,25.1,9.4,42.9,28.1,56.4l3.9-4C92.2,157,84.5,138.9,84.5,114.5"/>
			<path style="clip-path:url(#SVGID_00000109008949459210034040000013971206621518800001_);fill:#FFFFFF;" d="M1825.8,328.1
				c3.6,0,7.5,0.7,11.3,1.9C1792.1,403.6,1769.4,398.5,1825.8,328.1 M1796.4,276.2l0.2-0.2c2.2-2.4,4.6-4.8,7.2-7.2
				c21.5-18.8,44.4-19.5,12.3,21.5C1786.5,323.5,1753.5,321.1,1796.4,276.2 M1778.8,264.2c26.5-31.6,61.5-42.2,22.4,0.2
				C1760,309.8,1755.4,291.7,1778.8,264.2 M1756.1,391.5c32.3-40.5,48.5-57.7,62.7-62.2C1786.8,372,1765.8,389.6,1756.1,391.5
				 M1750.8,390.1c-4.1-6,6.5-29.4,33.1-56l-3.9-2.9c-35.9,37.6-28,12.1-14.7-0.7C1786.5,310.2,1837.2,294.6,1750.8,390.1
				 M1735.4,257.2c38.8-37.2,42-21,21.2,42.2C1751.8,289.2,1744.1,274,1735.4,257.2 M1653.6,426.8l2.9,3.9
				c118.9-98.4,139.2-103.5,26.5,8.2l3.4,3.6c56.5-58.4,61.8-57.7,166.9-3.1l2.2-4.3c-114.8-51.6-101.6-69.5-7.5-20.5l2.7-3.9
				c-37.6-17.6-44.9-21-9.2-79.1c3.6,1.2,7.5,2.9,11.6,4.8l2.4-4.1c-4.3-1.7-8.2-3.1-11.6-4.6c3.9-6.3,8.4-13.3,13.3-21l-5.1-2.4
				c-4.3,8-8.4,15.2-12.5,21.7c-26.1-10.6-30.6-16.4-19.1-32.6c24.1-28.2,38.1-45.4,64.4-80.3l-3.9-2.9
				c-71.7,69-88.5,43.9-12.8-10.1l-2.7-4.3c-115.1,84.4-107.6,43.2-57.9,5.5l-2.7-4.3c-43.4,34.5-52.4,37.9-103.3,34.5l-1,4.6
				c44.1,2.2,44.1,4.8-3.6,53.3l4.1,3.6c11.6-12.8,21.7-23.4,30.2-31.8c31.1,61.3,26.8,62.5-28.7,54.8l-1.4,5.8
				c34.3,3.1,34.5,5.5-35.2,67.3l2.9,3.9C1803.9,265.4,1814.5,289.5,1653.6,426.8 M1656.2,283.9c-30.2-43.7,0.5-45.6,7.5-23.6
				C1666.9,269.7,1665.9,278.4,1656.2,283.9 M1624.6,353.2c107.8-67.1,68.5-16.9,28.9,11.8C1642.5,360.7,1633.1,356.8,1624.6,353.2
				 M1599.5,289c8-8.2,18.6-18.1,31.6-29.7c6.3,6.3,13,15,21,26.3C1642.2,289.5,1625.6,291.2,1599.5,289 M1595.2,293.6
				c95.8,5.1,101.8,8.4,24.1,57.2C1577.4,331.7,1572,319.6,1595.2,293.6 M1585.1,351.5c15.7,0.5,37.2,5.3,63.9,16.9
				c-11.3,7.7-22.2,13.3-29.2,13.3C1614,381.6,1607.7,379.2,1585.1,351.5 M1582.7,279.1c12.3-31.8,22.9-44.6,45.1-23.4
				C1578.3,304.4,1573,304,1582.7,279.1 M1547.7,257.9c38.8-34.7,42-19.1,21,41.5C1562.6,287.8,1556.6,274.3,1547.7,257.9
				 M1465.7,426.8l2.2,4.3c104.2-82,113.1-35.7,63.2-11.1l2.9,4.1c104.9-49.7,118-47.8,46.6-4.1l2.7,4.1
				c42.9-15.7,65.4-18.1,104.5-27.3l-0.5-5.5c-117.2,28.2-61-7.2,23.4-16.4v-4.3c-67.1,10.1-73.3,3.1,15.2-45.8l1.2-4.8
				c-62-11.1-62.2-16.2-12.8-84.4l-4.6-2.7c-48.7,75.8-60.6,74.1-22.4,0.5c-62.5,17.4-96.7,19.8,10.4-30.4l-2.7-4.3
				c-123.5,63.9-132,54-72.4-0.2l-2.2-3.1c-37.4,31.8-59.8,38.6-106.4,36.7l-1,4.1c45.8,2.2,45.6,4.3-3.9,53.3l3.4,3.4
				c12.1-12.8,22.4-23.2,31.4-31.1c38.4,71.2,35,73.1-30.4,54.5l-1.2,4.8c43.7,7.5,45.8,12.1-28,75l2.9,3.9
				C1602.9,291.4,1613.8,316,1465.7,426.8 M1559,378.7c-10.4-13.8-2.7-25.8,20.5-27C1624.9,403.6,1574.5,399.5,1559,378.7
				 M1451.9,276.5c6.3-45.4,21-29.4,28,13.8C1485.9,328.1,1474.3,339.7,1451.9,276.5 M1449,350.8c-0.7-29.4,0.2-51.6,1.9-67.8
				C1467.3,324,1470.5,341.4,1449,350.8 M1421.3,275.5c7-35.9,14.5-48.7,19.3-2.2L1421.3,275.5z M1418.6,364
				c89-5.1,77,7.5,24.4,19.5C1417.4,389.4,1414.5,388.9,1418.6,364 M1396.9,365.5c6.5-0.5,12.8-1,18.6-1.2
				C1410.4,404.6,1402.7,410.6,1396.9,365.5 M1391.4,286.1c11.1-3.6,27.5-6,49.7-8.7c1.4,17.4,2.7,41.7,3.4,75
				c-10.9,3.6-26.5,6-48,8.4C1394.2,343,1392.6,318.4,1391.4,286.1 M1388.5,257.2c28.2-7.7,36.2-6.5,27.7,18.8
				C1329.4,285.1,1346,268.7,1388.5,257.2 M1384.1,355.6c-16.9-42-18.8-58.6,2.7-67.8C1387.3,317.5,1386,339.7,1384.1,355.6
				 M1355.6,348.8c-7.5-39.8-0.2-43.2,27,16.2C1376.2,403.1,1363.1,389.6,1355.6,348.8 M1331.3,436.2l2.7,4.3
				c101.3-60.6,108.1-49.7,53.1-6.5l2.9,3.9c36.9-31.4,60.6-39.1,99.6-41.5l-0.2-4.8c-78.9,10.1-95.5,2.2,22.9-16.6l1.7-4.3
				c-65.9-9.9-44.9-63.4,13.5-46.8l1.2-4.8c-51.6-7.5-51.9-19.3-8-83.5l-4.6-1.4c-33.8,56.2-49.7,38.1-22.4-0.7
				c-48.2,18.6-81.5,21,10.4-30.4l-2.4-4.3c-116.8,70.2-108.1,43.7-53.1,6.5l-2.7-4.1c-37.2,31.6-59.1,36.4-104.5,42.7v3.9
				c83.7-10.1,98.9,0.5-22,15.9l-0.7,4.6c70.7,14.2,66.6,67.1-20.3,43.4l-1,4.1c60.8,15,61.5,16.6,17.4,88.1l4.3,2.2
				c33.3-54.3,53.6-35.9,17.6,4.6C1402,373.4,1424.9,385.3,1331.3,436.2 M1269.3,392.5c-11.1,0,10.1-50.2,44.9-48.5
				C1293.2,372,1272.7,392.5,1269.3,392.5 M1239.4,333.6c-35.9,20,27-76,59.3-78.9C1290.5,286.8,1278.9,307.8,1239.4,333.6
				 M1205.6,296.5c64.7-75.3,68.8-70.9,32.3,4.3C1204.6,369.1,1202.9,370.1,1205.6,296.5 M1191.6,419.3
				c7.5-39.8,18.6-59.6,58.1-86.1c47-27.3,30.2-6-48.5,63l2.4,3.6C1314.6,299.9,1319.2,324.2,1191.6,419.3 M1188.9,316
				c3.6-4.3,7.2-8.4,10.6-12.3c1.7,42.9-2.4,68.3-9.9,104.2C1188.9,386,1189.7,359.2,1188.9,316 M1185.8,232.8
				c2.9-1.7,6-3.4,9.6-5.3c49,16.4,34,35.7-6.8,81.1C1188.5,287.6,1187.5,262.7,1185.8,232.8 M1169.9,391.3
				c-5.3-78.6,13-93.1,14.5,7.5L1169.9,391.3z M1164.1,362.8c0.2,8,0.7,16.6,1,25.8C1145.8,377.1,1149.4,372.2,1164.1,362.8
				 M1161.2,273.3c-1.2-16.4,1.2-25.1,19.8-37.4C1183.4,347.4,1166.7,343.5,1161.2,273.3 M1111.5,342.8
				c-4.3-50.4,18.3-59.3,27.5,25.1C1119.5,372,1113.2,363.8,1111.5,342.8 M1023.7,426.3l2.4,4.6c130.8-82.3,156.6-75,27.3,8.2
				l2.2,4.3c81.1-57.7,88.3-57.7,128.8-39.3v20.5l-1.9,1.4l1.7,2.7v5.5l4.8,0.5l1.4-8.7c82.5-67.1,104.5-69,21.2,12.8l2.7,4.1
				c48-49.9,67.3-51.1,104.5-39.6l1.9-4.6c-31.8-9.9-27.5-16.6,7.2-65.6l-4.1-2.9c-2.2,3.1-4.3,6-6.3,9.2
				c-53.6-10.1-51.4-25.6,43.2-105.9l-3.9-3.1c-66.6,61.3-88.3,53.1,1.9-18.1l-2.9-4.3c-96,70.7-131.5,64.4-29.2-11.6l-4.1-3.1
				c-63,47.3-75,48.7-121.3,31.1c5.5-2.9,12.1-6.3,19.5-9.9l-2.4-4.3c-90.2,45.1-93.6,28.5-50.7-13.8l-4.1-3.1
				c-36.2,38.8-43.2,41.7-92.4,39.3l-1.2,4.8c47,0.7,45.1,3.6-4.3,52.1l3.4,3.6c97.5-105.2,71.4-41.5-19.5,49.7l4.1,2.9
				c95.3-102.8,104.7-84-14.5,42.9l3.4,3.4c54-56.7,64.9-60.6,66.3-39.1C1110.1,369.8,1096.5,383.3,1023.7,426.3 M1138.8,242.9
				c6.8-4.1,20-0.7,25.1,116c-7.5,3.4-14,5.8-19.5,7.5C1128.9,269,1132,247,1138.8,242.9 M969.9,259.3c22.4-18.3,29.7-16.4,27,20.3
				C993.1,333.6,990.9,354.4,969.9,259.3 M954.7,272.6c4.1-3.9,8-7.2,11.3-10.1c22.4,97.2,20.5,105.9,15.7,105.9
				C974,368.4,962.7,341.6,954.7,272.6 M950.8,231.1c2.9-1.7,6-3.1,9.7-4.8c22.7,12.3,22.2,15.7-6.3,40.3
				C953,255.7,951.8,243.9,950.8,231.1 M924.3,280.3c-6.5-21-3.6-32.3,22-46.8C953.7,334.8,947.7,357,924.3,280.3 M903.8,242.9
				c6.5-3.9,12.5,21,22.4,112.7c-7.2,6-13.3,10.6-18.6,13.8C895.3,291.9,897.3,247,903.8,242.9 M878.7,344.7
				c-2.2-48.5,13.3-46.8,24.6,27C885.9,380,879.9,369.6,878.7,344.7 M960.5,434.7l4.8-0.7c-28.2-120.4-18.8-128.8,32.6-4.1l4.3-2.7
				c-26.3-64.9-23.2-65.9,25.1-37.9l2.2-4.3c-55.7-30.2-54.5-56.2,8.2-79.1l-1-4.3c-57.9,25.6-46.3-10.6,18.3-51.9l-3.4-4.1
				c-77.9,53.8-59.1,6.3,28.5-36.9l-2.2-4.3c-97,52.8-125.7,46.8-43.7,4.6l-2.2-3.9c-40.8,22.4-50.7,25.6-67.3,19.1
				c6.3-2.9,13.5-6,21.7-9.4l-2.4-4.8c-91,45.4-94.3,28.7-51.4-13.5l-4.1-4.1c-34.7,37.2-42.7,40.8-92.9,40.3v5.1
				c52.4-4.1,52.1-2.4-10.6,67.3l3.4,3.6c93.8-109.5,85.2-81.1,11.8,22.4l4.1,2.9c64.9-92.2,77.7-58.4-40.3,54.5l3.4,3.6
				c54-56.7,66.3-58.1,66.3-42.7c0,21.5-12.3,34-84.7,77l1.9,4.6c130.8-82.3,118.7-51.1,27.5,8.4l1.9,4.1
				c58.6-41.3,72.6-50.2,117-41.3l1.4-4.8c-43.4-6.8-45.6-8.7-12.3-35.9c1,9.4,2.2,19.5,3.1,30.2h5.1
				C922.8,277.4,935.6,307.3,960.5,434.7 M786.1,392.5c-10.9,0,9.9-49.5,44.1-48.5C804.6,377.5,789.7,392.5,786.1,392.5 M781,257.9
				c38.8-34.5,41.7-18.8,21,41.5C799.8,297,785.3,267,781,257.9 M699,426.8l3.1,4.1c103.3-81.1,100.4-67.6,26.3,8l3.6,3.9
				c47-49.7,66.3-50.9,103.5-39.3l1.9-4.6c-31.8-9.9-34.5-13,8-65.6l-4.8-2.9c-2.4,3.1-4.6,6.3-6.8,9.2
				c-53.1-10.4-50.7-25.8,43.7-105.9l-3.9-3.1c-79.4,70.7-73.1,37.6,1.9-18.1l-1.9-4.6c-70.4,52.1-71.7,30.4-30.2-11.3l-4.1-3.1
				c-36.2,38.8-42.9,41.5-91.9,38.8l-1.2,4.3c45.8,1.7,44.6,3.6-4.8,53.1l3.4,3.6c12.5-13,23.2-23.6,32.3-31.8
				c28.7,55.2,25.3,67.3-30.4,54.8l-1.2,4.8c48,8.9,48.2,9.9-28,75l2.9,3.9C826.6,298.9,838.9,323.5,699,426.8 M633.8,257.2
				c38.4-35,38.6-17.4,29.7,60.1C656,300.1,642.5,273.8,633.8,257.2 M747.2,210.8l-3.4-4.1c-80.3,84.2-85.9,63-47.8-10.4l-3.9-2.9
				c-26.8,46.8-34.3,47.5-94.1,37.9l-1,4.6c43.9,5.3,45.4,8-1.2,51.9l3.4,3.6c12.1-12.3,22.2-22.7,30.6-30.6
				c32.1,58.1,26.1,64.9-28.7,55.2l-1.2,5.5c40.5,4.1,37.2,9.4-35.2,67.3l2.9,3.9c113.1-98.9,136.3-86.1-16.2,34l2.2,4.3
				c141.4-114.8,150.1-110.3,28.7,7.5l2.7,4.1c56.9-59.3,62-60.3,166.9-3.4l1.9-4.6c-103.3-50.2-71.2-65.9-25.3-27.5l2.4-3.6
				c-33.1-23.6-33.1-25.1,20-102l-4.8-1.7c-76.7,119.7-108.8,122.3-29.4,22.9l-4.3-2.9c-73.1,104.5-109.8,99.2,16.6-32.8l-3.4-3.6
				c-107.8,109.8-94.3,66.3,37.9-50.4l-3.6-3.9C637.5,348.3,649.5,303.5,747.2,210.8 M558.6,313.6c-137.5,43.2,9.2-26.1,21.2-26.1
				c3.4,0,5.1,4.3-4.1,19.8C568.2,310.2,562.4,312.4,558.6,313.6 M527.9,214.7c33.3,23.4,25.1,30.9,1.7,28.7
				c-24.1-2.2-29.7-5.1-1.7-28.9V214.7z M501.9,317.2c68.3-52.8,94.8-67.1,98.9-60.8C606.1,264.6,577.9,281.8,501.9,317.2
				 M497.3,315.5c51.6-68.5,77-99.6,88.8-95.1C597.2,224.8,571.4,260.3,497.3,315.5 M494.9,311.9c15.7-52.8,20.3-62.7,34.7-62.7
				C541.9,249.2,540.5,256.4,494.9,311.9 M491.7,388.4c58.4-39.3,66.3-36.4,63.7-29.2C551.3,369.8,535.6,380,491.7,388.4
				 M485.2,386.9c37.6-49.9,62.7-70,68.8-65.9C559.5,324.9,538.3,348.8,485.2,386.9 M481.1,384.5c7.7-34.3,21.2-52.1,32.1-54.5
				C521.7,328.1,523.6,336,481.1,384.5 M472.7,257.9c38.6-34.5,41.7-19.1,20.7,41.5C488.6,293.6,478,270.4,472.7,257.9 M425.4,436.6
				l3.6,3.4c34.7-33.5,51.4-42.9,86.9-52.1c26.8-7,29.4-7.5,22.2,51.9l5.1-0.7c4.6-62.7,22.2-96.7,35.7-103.5
				c10.6-5.3,13.3,1-22.9,74.8l4.3,1.9c21-42.9,33.5-67.1,56.2-104.5l-4.1-2.7c-120.4,88.5-84.9,40.5,22-17.9l-2.7-4.1
				c-19.8,8.9-35.9,15.9-48,21c17.6-28.7,25.8-48,58.9-93.1l-3.9-2.9c-48.2,63.9-94.8,54.5-3.6-12.1l-2.9-4.6
				c-61.5,31.6-75.3,33.8-100.4,20c3.6-3.1,8.2-6.8,13-10.6l-2.2-4.3c-46.8,35.5-54.8,38.1-107.4,35l-1.2,4.6
				c49.5,1.9,48.2,3.9,0,53.1l3.4,3.6c12.1-12.8,22.4-23.2,31.1-31.1c29.7,56,25.6,66.3-30.4,54.5l-1.4,4.3
				c47.5,7.7,48.5,9.4-27.7,75.3l2.9,3.9c129.1-122.1,97.5-56.2-21.5,27l2.9,4.1C479,367.6,511.8,348.8,425.4,436.6 M376.7,276.5
				c6.3-45.4,21-29.4,28,13.8C410.7,328.1,399.1,339.7,376.7,276.5 M373.8,350.8c-0.7-29.4,0.2-51.6,1.9-67.8
				C392.1,324,395.2,341.4,373.8,350.8 M346,275.5c7-35.9,14.5-48.7,19.3-2.2L346,275.5z M343.4,364c89-5.1,77,7.5,24.4,19.5
				C342.2,389.4,339.3,388.9,343.4,364 M321.7,365.5c6.5-0.5,12.8-1,18.6-1.2C335.2,404.6,327.5,410.6,321.7,365.5 M316.1,286.1
				c11.1-3.6,27.5-6,49.7-8.7c1.4,17.4,2.7,41.7,3.4,75c-10.9,3.6-26.5,6-48,8.4C319,343,317.3,318.4,316.1,286.1 M313.2,257.2
				c28.2-7.7,36.2-6.5,27.7,18.8C254.1,285.1,270.8,268.7,313.2,257.2 M308.9,355.6c-16.9-42-18.8-58.6,2.7-67.8
				C312,317.5,310.8,339.7,308.9,355.6 M280.4,348.8c-7.5-39.8-0.2-43.2,27,16.2C300.9,403.1,287.9,389.6,280.4,348.8 M256,436.2
				l2.7,4.3C360,380,366.8,390.8,311.8,434l2.9,3.9c36.9-31.4,60.6-39.1,99.6-41.5l-0.2-4.8c-78.9,10.1-95.5,2.2,22.9-16.6l1.7-4.3
				c-65.9-9.9-44.9-63.4,13.5-46.8l1.2-4.8c-51.6-7.5-51.9-19.3-8-83.5l-4.6-1.4c-33.8,56.2-49.7,38.1-22.4-0.7
				c-48.2,18.6-81.5,21,10.4-30.4l-2.4-4.3c-116.8,70.2-108.1,43.7-53.1,6.5l-2.7-4.1c-37.2,31.6-59.1,36.4-104.5,42.7v3.9
				c83.7-10.1,98.9,0.5-22,15.9l-0.7,4.6c70.7,14.2,66.6,67.1-20.3,43.4l-1,4.1c60.8,15,61.5,16.6,17.4,88.1l4.3,2.2
				c33.3-54.3,53.6-35.9,17.6,4.6C326.7,373.4,349.6,385.3,256,436.2 M211.2,255c10.4-6.3,15.2-4.1,7,51.9
				C201,267,202.5,260.3,211.2,255 M161.2,370.1c25.8-21.2,35.5-19.3,44.9-5.3C216.5,380.2,192.4,388.2,161.2,370.1 M138.3,255
				c40.5-8.2,52.6-2.9,77.7,55.7c-2.7,0.2-5.3,0.7-8,1.2C100.4,286.6,93.9,263.9,138.3,255 M127.9,341.8
				c6.8-5.8,17.6-11.3,34.3-15.7c64.9-14.7,68-11.6-4.8,41.7C147.7,361.9,137.8,353.2,127.9,341.8 M124.6,345
				c29.2,36.9,27,39.6,20.5,39.6C130.1,384.5,107.7,363.5,124.6,345 M110.3,325.4c-0.5-6.5,31.6-20.3,84.7-11.1
				c-10.6,1.9-21.5,4.3-34.5,7c-1.4,0.2-2.7,0.7-4.1,1c-2.7,0.7-5.5,1.2-8.4,1.9C121.2,329.8,110.6,329.3,110.3,325.4 M56.8,317
				c65.1,9.9,66.6,13.3,17.1,85.2l4.8,3.6c36.9-62,56-39.1,17.6,4.6c66.8-34.7,90-22.4-5.3,25.8l2.4,4.3
				c101.3-60.6,108.1-49.7,53.3-7l2.7,4.3c36.9-31.4,60.6-39.1,105.2-41.5l-1-4.8c-120.4,10.6-121.8-10.6-16.2-6.3l2.9-4.1
				c-45.6-10.1-57.2-83,7-15.7l3.1-3.4c-36.7-40-38.4-46.6,11.3-53.3V304c-15.2,1.9-27.5,3.9-39.3,5.5c9.2-59.1,15.4-67.3,43.4-80.6
				l-1.9-4.8c-83,36.7-120.4,40.8-0.5-21.2l-2.4-3.9c-97.9,56-127.6,61.3-53.1,6l-2.9-4.1c-36.9,25.1-59.3,33.5-106.4,42.9l1.9,4.3
				c98.4-23.6,61,1.2-21.5,15.2l-0.5,5.5c76.5,27.7,89.5,51.1-21,42.7L56.8,317z"/>
			<path style="clip-path:url(#SVGID_00000109008949459210034040000013971206621518800001_);fill:#FFFFFF;" d="M1735.5,708.4
				c43.6,0,77.6-34,77.6-65.9c0-21.1-13.8-36.7-28.6-51.5l-17.5-17.2c-11.1-11.1-18.1-18.7-18.1-34.9c0-19.3,21.1-37.9,40-37.9
				c20.2,0,31.6,12.9,26.5,51.8l3.9,0.6c5.7-6.9,12.6-16.2,17.5-25.9c1.5-15.3,1.8-29.8,0-39.1c-12.3-2.1-26.2-3.6-35.8-3.6
				c-41.5,0-77,29.5-77,67.7c0,14.1,8.7,28,22.9,42.1l17.2,17.2c15.3,15.3,20.8,24.4,20.8,40c0,21.4-15.9,39.1-42.4,39.1
				c-24.7,0-35.8-13.5-29.8-57.5l-3.6-1.2c-6.9,7.2-13.5,15.3-19.3,23.8c-1.5,12.9-2.4,27.1-1.5,42.1
				C1699.4,704.1,1718.6,708.4,1735.5,708.4 M1581.7,570.5l18.1-64.4h16.9c26.2,0,35.2,9.6,35.2,25.6c0,17.5-8.1,33.1-32.5,49
				L1581.7,570.5z M1551.6,676.8l25.9-92.1l21.7,6.3c25,7.2,36.4,18.7,36.4,37.6c0,31-27.1,53.3-59,53.3
				C1566.3,681.9,1555.2,679.5,1551.6,676.8 M1486.9,696.9l0.3,4.8h68.9c64.4,0,110.1-36.7,110.1-72.2c0-19.6-9.3-34.3-32.2-43.6
				c30.7-15.3,49.4-43.3,49.4-65.6c0-20.5-13.2-30.7-46.9-30.7h-78.5l-17.5,12.6l0.6,3.9h18.4c11.1,0,14.1,5.7,8.7,24.7L1532,657.2
				C1525.4,680.1,1511.6,690.6,1486.9,696.9 M1451.4,705h0.3c7.5-5.1,15-10.5,22-16.9c3.9-18.1,5.7-32.5,6.3-50.6l-3.3-1.5
				c-15,37.3-30.4,49-70.4,49c-13.2,0-20.5-0.6-26.8-2.7l25.9-91.2l22.3,0.6c15.3,0.6,20.5,5.4,18.4,30.1l2.4,0.6
				c6.3-5.7,11.4-11.1,15.6-17.8c2.7-11.7,4.5-23.2,5.7-34c-14.4,4.5-31.6,5.7-50,5.7h-10.2l19.9-70.1h33.7
				c26.2,0,32.5,10.5,28.3,40l2.7,1.2c5.1-5.7,12-15.9,16.6-23.5l2.4-38.5c-19.9,2.7-34.6,3.9-58.7,3.9h-66.2l-17.5,12.6l0.6,3.9
				h18.4c11.1,0,14.1,5.7,9.6,21.7l-37,129.4c-6.6,22.9-20.5,33.4-45.1,39.7l0.3,4.8h89.4C1422.5,701.7,1439.1,703.2,1451.4,705
				 M1159.8,489.6h-65.9l-17.2,11.7l0.6,3.9h9c10.5,0,15.6,4.8,16.6,24.7l5.7,122.2c0.9,21.7,3.9,41.2,3,58.1l3.6,0.3l25-18.1
				c-1.8-5.1-0.3-13.8,5.4-25l62.9-103.2l4.2,87.9c0.9,21.7,3.9,41.2,3,58.1l3.6,0.3l24.7-18.1c-1.8-4.8-0.9-12,3.6-21.7l82.2-135.1
				c14.1-23.5,30.4-38.5,39.7-40.3l4.5-0.9l-0.6-4.8h-70.1l-17.2,11.7l0.6,3.9h17.8c14.4,0,19.3,10.2,5.1,34l-72.2,120.4l-4.8-118
				c-1.2-29.5,7.5-42.1,25.9-46l5.7-1.2l-0.3-4.8H1198l-17.2,11.7l0.6,3.9h9c10.5,0,15.6,4.8,16.6,24.7l0.3,5.7l-74,124l-4.8-118
				c-1.2-29.5,7.5-42.1,25.9-46l5.7-1.2L1159.8,489.6z M863.1,696.9l0.3,4.8h87.3l18.1-12.6l-0.6-3.9h-12.9
				c-20.5,0-26.5-6.3-21.7-23.2l43.6-155.6l21.1,0.3c20.8,0.3,33.1,9.3,33.1,26.8c0,31.6-31,56-72.8,67.4l36.4,67.4
				c12.3,15.3,29.5,32.8,47.2,45.4l5.4-4.2c-9-14.1-17.5-29.5-29.8-53.6l-26.5-51.8c45.7-21.4,71.6-51.2,71.6-82.2
				c0-21.7-16.9-32.5-46.9-32.5h-80.6l-17.5,12.6l0.6,3.9h18.4c11.4,0,14.1,5.7,9.6,21.7l-36.7,129.4
				C903.1,680.1,887.8,690.6,863.1,696.9 M822.8,705h0.3c7.5-5.1,15-10.5,22-16.9c3.9-18.1,5.7-32.5,6.3-50.6l-3.3-1.5
				c-15,37.3-30.4,49-70.4,49c-13.2,0-20.5-0.6-26.8-2.7l25.9-91.2l22.3,0.6c15.3,0.6,20.5,5.4,18.4,30.1l2.4,0.6
				c6.3-5.7,11.4-11.1,15.6-17.8c2.7-11.7,4.5-23.2,5.7-34c-14.4,4.5-31.6,5.7-50,5.7H781l19.9-70.1h33.7c26.2,0,32.5,10.5,28.3,40
				l2.7,1.2c5.1-5.7,12-15.9,16.5-23.5l2.4-38.5c-19.9,2.7-34.6,3.9-58.7,3.9h-66.2l-17.5,12.6l0.6,3.9h18.4
				c11.1,0,14.1,5.7,9.6,21.7l-37,129.4c-6.6,22.9-20.5,33.4-45.1,39.7l0.3,4.8h89.4C793.9,701.7,810.4,703.2,822.8,705
				 M549.9,678.3l48.4-172.1h12.3c43.6,0,64.7,18.1,64.7,57.2c0,71.6-49,120.4-99.6,120.4C565.5,683.7,553.8,681.3,549.9,678.3
				 M485.5,696.9l0.3,4.8h78.5c65.3,0,140.2-48.7,140.2-140.2c0-42.7-27.7-71.9-76.4-71.9h-71.6L539,502.2l0.6,3.9H558
				c11.1,0,14.1,5.7,8.7,24.7l-36.1,126.4C524,680.1,510.1,690.6,485.5,696.9 M373.5,696.9l0.3,4.8h78.8l17.5-12.6l-0.3-3.9h-18.4
				c-9.9,0-14.1-5.7-9.6-21.4l37-129.7c6.6-22.9,15.6-36.4,37.3-39.7l-0.3-4.8h-71l-17.5,12.6l0.6,3.9H446c10.8,0,14.1,5.7,8.7,24.7
				l-36.1,126.4C412,680.1,398.2,690.6,373.5,696.9 M291.4,610.6l29.2-103.8h17.8c24.1,0,36.1,9.6,36.1,28
				C374.4,563.9,346.4,594.6,291.4,610.6 M206.5,696.9l0.3,4.8h96.3l18.1-12.6l-0.6-3.9h-25.3c-19.3,0-23.2-6.6-17.8-26.2l8.4-29.5
				C356.1,611.5,406,559.1,406,523.3c0-22.9-16.6-33.7-50-33.7h-77.3l-17.5,12.6l0.6,3.9h18.4c11.1,0,14.1,5.7,9.6,21.7l-37,129.4
				C246.2,680.1,231.2,690.6,206.5,696.9 M127.4,708.4c43.6,0,77.6-34,77.6-65.9c0-21.1-13.8-36.7-28.6-51.5L159,573.8
				c-11.1-11.1-18.1-18.7-18.1-34.9c0-19.3,21.1-37.9,40-37.9c20.2,0,31.6,12.9,26.5,51.8l3.9,0.6c5.7-6.9,12.6-16.2,17.5-25.9
				c1.5-15.3,1.8-29.8,0-39.1c-12.3-2.1-26.2-3.6-35.8-3.6c-41.5,0-77,29.5-77,67.7c0,14.1,8.7,28,22.9,42.1l17.2,17.2
				c15.3,15.3,20.8,24.4,20.8,40c0,21.4-15.9,39.1-42.4,39.1c-24.7,0-35.8-13.5-29.8-57.5l-3.6-1.2c-6.9,7.2-13.5,15.3-19.3,23.8
				c-1.5,12.9-2.4,27.1-1.5,42.1C91.3,704.1,110.5,708.4,127.4,708.4"/>
			<path style="clip-path:url(#SVGID_00000109008949459210034040000013971206621518800001_);fill:#FFFFFF;" d="M1795.1,988.5
				l0.1,0.7h19.1c0.1-0.9,0-2.2,0-2.8l-3.1-0.4c-2.1-0.1-3.2-0.9-3.2-3.6v-22.4l2.7,0.1c6.1,0.2,7.7,2,8.3,6.7l0.6,0.1
				c1.3-4.1,1.5-8.1,0.8-10.1c-0.9,0.3-4.4,0.6-9.3,0.6h-10.1c-5.7,0-9-0.3-10-0.5c-1.2,3.2-1.4,6.9-1.3,10l0.6,0.1
				c1.6-4.8,4.1-6.7,8.5-6.9l4-0.1v20.7C1802.5,985.1,1800.3,987.5,1795.1,988.5 M1780.3,990.5l0.7-0.1l0.1-6.1l0.4-19.3
				c0.1-4.2,1.6-5.9,5.9-6.9l-0.1-0.7h-14.8c-0.1,0.9-0.1,1.7,0,2.8h1.8c2.2,0,3.5,1.3,3.6,3.6l0.3,16.7l-18.9-23.1h-10.9
				c-0.1,0.9-0.1,1.9-0.1,2.8h2.3c2,0,3.2,0.9,3.2,3.6l-0.4,18.1c-0.1,3.9-1.8,5.6-6,6.6l0.1,0.7h14.9c0.1-0.9,0.1-1.8,0-2.8h-2.2
				c-2.1,0-3.1-1.1-3.2-3.6l-0.3-19.9l15.9,19.2C1775.2,985.1,1778.1,988.2,1780.3,990.5 M1740.5,989.7c1.4-3.5,1.9-7,2.2-11.3
				l-0.6-0.1c-1.7,5-5.6,8-11.4,8.1h-1.9c-2.8,0-4.2-1-4.2-3.6v-9.3l4.5,0.2c4.6,0.2,6,1.3,6.2,3.6h0.6c0.9-2.6,1.1-5.5,0.7-7.6
				c-2.5,0.7-6.5,1.1-9.8,1.1h-2.1V960l6.7,0.1c5.7,0.1,8.1,1.7,8.3,5.7h0.6c1.2-3.2,1.1-6.5,0.6-9.1c-3.4,0.4-7.4,0.7-11.9,0.7h-15
				c-0.1,0.9-0.1,1.9,0,2.8h2.2c1.9,0,3.1,0.9,3.1,3.6V982c0,3.8-2.1,5.6-5.9,6.5l0.1,0.7h19C1735,989.2,1738,989.4,1740.5,989.7
				 M1683.2,987.4h0.7l12.9-26l1.1,20.7c0.2,3.8-1.7,5.5-6,6.5l0.1,0.7h16.3c0.1-0.9,0-2.7,0-2.8l-1.4-0.1c-1.9-0.1-3-0.7-3.2-3.6
				l-1.3-17.6c-0.3-4.4,1.2-6.1,5.4-7.1l-0.1-0.7h-12.6l-10.2,22l-10.3-22h-13c-0.1,0.9-0.1,1.7,0,2.8l1.8,0.1
				c2.7,0.1,3.7,0.8,3.5,4.4l-1.3,17.1c-0.3,4-1.9,5.8-6.1,6.8l0.1,0.7h14.9c0.1-0.9,0.1-1.8,0-2.8h-2.2c-2,0-3.3-0.9-3.2-3.6
				l1.3-21.5L1683.2,987.4z M1630,988.5l0.1,0.7h19.9c0.1-0.9,0-2.2,0-2.8l-3.3-0.4c-2.2-0.1-3.4-0.9-3.4-3.6v-22.4l2.9,0.1
				c6.3,0.2,8.1,2,8.7,6.7l0.6,0.1c1.4-4.1,1.6-8.1,0.8-10.1c-0.9,0.3-4.6,0.6-9.7,0.6H1636c-5.9,0-9.4-0.3-10.5-0.5
				c-1.3,3.2-1.5,6.9-1.3,10l0.6,0.1c1.6-4.8,4.3-6.7,8.8-6.9l4.1-0.1v20.7C1637.8,985.1,1635.5,987.5,1630,988.5 M1599.5,972.9V960
				l3.7,0.1c5.1,0.2,7.3,2.1,7.3,5.1C1610.4,969.3,1606.7,971.9,1599.5,972.9 M1587.8,988.5l0.1,0.7h16.4c0.1-0.9,0.1-1.7,0-2.8
				h-0.7c-2.8,0.1-4-0.6-4-2.8v-8.4c0.9-0.1,1.7-0.2,2.6-0.3l11.5,14.2h7.7c0.1-0.9,0.1-1.7,0-2.8c-2.2-0.2-4-1.4-7.5-5.4l-6.2-7.2
				c6.1-1.9,9.2-5.4,9.2-9.4c0-4.7-3.5-7-10.7-7h-17.7c-0.1,0.9-0.1,1.9,0,2.8h2.3c2,0,3.3,1,3.3,3.6V982
				C1593.9,985.8,1591.7,987.6,1587.8,988.5 M1560.5,975.3l5-12.2l5.2,12.2H1560.5z M1569.7,989.2h15.4l0.1-0.7
				c-1.5-0.5-4-3.1-6.2-8.1l-10.3-24.1h-3.3l-10.4,23.7c-2.2,5.1-4.9,8.1-6.8,8.5l0.1,0.7h12.5l0.1-0.7l-1.3-0.7
				c-2.4-1.3-2.9-3.1-1.7-5.8l1.6-4h12.4l1,2.5c1.9,4.4,1.5,6.6-1.7,7.6l-1.5,0.5L1569.7,989.2z M1532.2,974.3V960l3.6,0.1
				c4.5,0.1,6.8,1.7,6.8,5.5C1542.6,970.5,1539,973.4,1532.2,974.3 M1520.4,988.5l0.1,0.7h18.6v-2.8l-1.7,0.1
				c-3.5,0.1-5.2-1.1-5.2-3.5v-6.2c11-1,16.7-5.9,16.7-12.1c0-5-3.7-7.3-10.3-7.3H1521c-0.1,0.9-0.1,1.9,0,2.8h2.3
				c2,0,3.3,1,3.3,3.6V982C1526.6,985.8,1524.4,987.6,1520.4,988.5 M1512.5,989.7c1.5-3.5,2-7,2.3-11.3l-0.6-0.1
				c-1.8,5-5.8,8-11.9,8.1h-2c-3,0-4.4-1-4.4-3.6v-9.3l4.7,0.2c4.8,0.2,6.2,1.3,6.5,3.6h0.6c1-2.6,1.2-5.5,0.8-7.6
				c-2.6,0.7-6.7,1.1-10.2,1.1h-2.2V960l7,0.1c5.9,0.1,8.5,1.7,8.7,5.7h0.6c1.2-3.2,1.2-6.5,0.6-9.1c-3.5,0.4-7.7,0.7-12.4,0.7
				h-15.6c-0.1,0.9-0.1,1.9,0,2.8h2.3c2,0,3.3,0.9,3.3,3.6V982c0,3.8-2.2,5.6-6.2,6.5l0.1,0.7h19.8
				C1506.7,989.2,1509.9,989.4,1512.5,989.7 M1449.4,981.1V953l5.2,0.1c10.4,0.1,17.2,6.1,17.2,16.9c0,11-6.3,16.2-15.5,16.2h-1.1
				C1451.3,986.1,1449.4,984.5,1449.4,981.1 M1436.1,988.3l0.1,0.9h20.2c13.4,0,22.2-7.3,22.2-20c0-12-9.1-19.3-20.7-19.3h-21v3.1
				l3.2,0.2c2.4,0.1,3.5,1.3,3.5,4.5v23.2C1443.5,985.2,1440.9,987.1,1436.1,988.3 M1405.3,990.2c8.1,0,12.9-4.6,12.9-9.9
				c0-4.5-3.7-7.2-7.9-8.9l-4.2-1.7c-3.6-1.4-5.6-3.2-5.6-5.8c0-2.7,2.4-4.6,5.8-4.6c4.1,0,8.3,2.5,9.7,8.5l0.5-0.1
				c0.8-3.7,0.6-7.6-0.3-9.9c-2.2-0.9-5.5-1.4-8.3-1.4c-7.9,0-12.4,4.8-12.4,10c0,3.7,2.3,6.2,6.6,7.9l4.2,1.7
				c4.2,1.6,6.5,3.5,6.5,6.4c0,3.1-2.2,5-6.5,5c-4.8,0-8.8-2.8-11.2-9.6l-0.6,0.1c-0.6,3.5-0.3,7.5,1.1,10.8
				C1398.1,989.6,1401.9,990.2,1405.3,990.2 M1372,974.3V960l3.6,0.1c4.5,0.1,6.8,1.7,6.8,5.5C1382.4,970.5,1378.9,973.4,1372,974.3
				 M1360.2,988.5l0.1,0.7h18.6v-2.8l-1.7,0.1c-3.5,0.1-5.2-1.1-5.2-3.5v-6.2c11-1,16.7-5.9,16.7-12.1c0-5-3.7-7.3-10.3-7.3h-17.6
				c-0.1,0.9-0.1,1.9,0,2.8h2.3c2,0,3.3,1,3.3,3.6V982C1366.4,985.8,1364.2,987.6,1360.2,988.5 M1333,975.3l5-12.2l5.2,12.2H1333z
				 M1342.2,989.2h15.4l0.1-0.7c-1.5-0.5-4-3.1-6.2-8.1l-10.3-24.1h-3.3l-10.4,23.7c-2.2,5.1-4.9,8.1-6.8,8.5l0.1,0.7h12.5l0.1-0.7
				l-1.3-0.7c-2.4-1.3-2.9-3.1-1.7-5.8l1.6-4h12.4l1,2.5c1.9,4.4,1.5,6.6-1.7,7.6l-1.5,0.5L1342.2,989.2z M1300.5,990.5
				c4.8,0,10.4-1.1,13.6-2.6c1.5-3.8,1.7-8.9,1.4-12.8l-0.8-0.1c-2.4,7.9-7.2,12.3-14.1,12.3c-8.5,0-14.1-6.8-14.1-17.5
				c0-12,8.5-17.8,15.4-17.8c5.5,0,10.5,3.7,11.4,10.1h0.6c1.2-3.5,1.4-8,0.6-11c-3.2-1.4-7.4-2.3-11.7-2.3c-14.4,0-23,10.1-23,22.1
				C1279.8,983.2,1288.8,990.5,1300.5,990.5 M1259.7,989.7c1.2-3.1,2-6.9,2.2-11.9l-0.5-0.1c-2,5.8-6,8.4-11.9,8.6l-1.5,0.1
				c-2.9,0.1-4.2-1-4.2-3.6v-16.7c0-5.1,2.5-7.2,7.4-8v-0.7h-18.7c-0.1,0.9-0.1,1.9,0,2.8h2.3c2,0,3.3,0.9,3.3,3.6V982
				c0,3.8-2.2,5.6-6.2,6.5l0.1,0.7h19.3C1254,989.2,1257.1,989.4,1259.7,989.7 M1226,989.7c1.2-3.1,2-6.9,2.2-11.9l-0.5-0.1
				c-2,5.8-6,8.4-11.9,8.6l-1.5,0.1c-2.9,0.1-4.2-1-4.2-3.6v-16.7c0-5.1,2.5-7.2,7.4-8v-0.7h-18.7c-0.1,0.9-0.1,1.9,0,2.8h2.3
				c2,0,3.3,0.9,3.3,3.6V982c0,3.8-2.2,5.6-6.2,6.5l0.1,0.7h19.3C1220.3,989.2,1223.4,989.4,1226,989.7 M1171.1,975.3l5-12.2
				l5.2,12.2H1171.1z M1180.3,989.2h15.4l0.1-0.7c-1.5-0.5-4-3.1-6.2-8.1l-10.3-24.1h-3.3l-10.4,23.7c-2.2,5.1-4.9,8.1-6.8,8.5
				l0.1,0.7h12.5l0.1-0.7l-1.3-0.7c-2.4-1.3-2.9-3.1-1.7-5.8l1.6-4h12.4l1,2.5c1.9,4.4,1.5,6.6-1.7,7.6l-1.5,0.5L1180.3,989.2z
				 M1128.8,987.4h0.8l13.5-26l1.2,20.7c0.2,3.8-1.8,5.5-6.2,6.5l0.1,0.7h17c0.1-0.9,0-2.7,0-2.8l-1.5-0.1c-2-0.1-3.1-0.7-3.3-3.6
				l-1.3-17.6c-0.3-4.4,1.2-6.1,5.6-7.1l-0.1-0.7h-13.2l-10.6,22l-10.8-22h-13.6c-0.1,0.9-0.1,1.7,0,2.8l1.9,0.1
				c2.8,0.1,3.9,0.8,3.6,4.4l-1.3,17.1c-0.3,4-2,5.8-6.3,6.8l0.1,0.7h15.6c0.1-0.9,0.1-1.8,0-2.8h-2.3c-2.1,0-3.5-0.9-3.3-3.6
				l1.3-21.5L1128.8,987.4z M1083.9,990.4c9.6,0,14.8-5.5,14.8-11.9c0-5.7-4.4-9-8.9-10.9l-5.1-2.1c-3.8-1.6-6.7-4-6.7-7.6
				c0-3.6,2.8-5.9,7-5.9c4.7,0,9.8,2.8,11.3,10.5l0.6-0.1c0.8-4.7,0.5-9.5-0.8-12c-2.5-1.1-6.2-1.7-9.5-1.7
				c-9.1,0-14.1,5.6-14.1,11.8c0,4.8,3,7.7,7.7,9.7l5.1,2.1c4.7,2,7.6,4.2,7.6,8.2c0,4-2.7,6.6-8,6.6c-5.8,0-10-3.2-12.9-12
				l-0.8,0.1c-0.7,4.2-0.3,9.2,1.5,13.1C1075.6,989.7,1080.2,990.4,1083.9,990.4 M1046.5,990.5l0.8-0.1l0.1-6.1l0.5-19.3
				c0.1-4.2,1.7-5.9,6.1-6.9l-0.1-0.7h-15.4c-0.1,0.9-0.1,1.7,0,2.8h1.9c2.3,0,3.7,1.3,3.7,3.6l0.3,16.7l-19.7-23.1h-11.3
				c-0.1,0.9-0.1,1.9-0.1,2.8h2.4c2.1,0,3.4,0.9,3.3,3.6l-0.5,18.1c-0.1,3.9-1.9,5.6-6.3,6.6l0.1,0.7h15.6c0.1-0.9,0.1-1.8,0-2.8
				h-2.3c-2.2,0-3.3-1.1-3.3-3.6l-0.3-19.9l16.6,19.2C1041.3,985.1,1044.3,988.2,1046.5,990.5 M985.7,975.3l5-12.2l5.2,12.2H985.7z
				 M994.9,989.2h15.4l0.1-0.7c-1.5-0.5-4-3.1-6.2-8.1l-10.3-24.1h-3.3L980.2,980c-2.2,5.1-4.9,8.1-6.8,8.5l0.1,0.7H986l0.1-0.7
				l-1.3-0.7c-2.4-1.3-2.9-3.1-1.7-5.8l1.6-4H997l1,2.5c1.9,4.4,1.5,6.6-1.7,7.6l-1.5,0.5L994.9,989.2z M952.9,988.5l0.1,0.7h17.3
				v-2.8H968c-2.2,0-3.3-0.9-3.3-3.6v-18c0-3.7,1.6-5.7,6.1-6.7v-0.7h-17.3c-0.1,0.9,0,2.7,0,2.8h2.3c2.2,0,3.3,0.9,3.3,3.6v17.8
				C959.1,985.8,957.3,987.6,952.9,988.5 M947,989.7c1.2-3.1,2-6.9,2.2-11.9l-0.5-0.1c-2,5.8-6,8.4-11.9,8.6l-1.5,0.1
				c-2.9,0.1-4.2-1-4.2-3.6v-16.7c0-5.1,2.5-7.2,7.4-8v-0.7h-18.7c-0.1,0.9-0.1,1.9,0,2.8h2.3c2,0,3.3,0.9,3.3,3.6V982
				c0,3.8-2.2,5.6-6.2,6.5l0.1,0.7h19.2C941.3,989.2,944.4,989.4,947,989.7 M895,990.2c9.6,0,15.4-4.9,15.4-11.1v-14.7
				c0-3.7,1.6-5.5,5.1-6.4l-0.1-0.7h-14.9c-0.1,0.9-0.1,1.9-0.1,2.8h2.4c2.2,0,3.4,0.9,3.4,3.6v14.5c0,5.9-3.5,8.7-10.2,8.7
				c-6.5,0-8.8-2.9-8.8-8.6v-13.6c0-3.7,1.6-5.7,6.2-6.7l-0.1-0.7h-16.5c-0.1,0.9-0.1,2.3,0,2.8l1.5,0.1c2,0.1,3.3,1,3.3,3.6v17
				C881.5,986.7,886.3,990.2,895,990.2 M868.9,989.7c1.5-3.5,2-7,2.3-11.3l-0.6-0.1c-1.8,5-5.8,8-11.9,8.1h-2c-3,0-4.4-1-4.4-3.6
				v-9.3l4.7,0.2c4.8,0.2,6.2,1.3,6.5,3.6h0.6c1-2.6,1.2-5.5,0.8-7.6c-2.6,0.7-6.7,1.1-10.2,1.1h-2.2V960l7,0.1
				c5.9,0.1,8.5,1.7,8.7,5.7h0.6c1.2-3.2,1.2-6.5,0.6-9.1c-3.5,0.4-7.7,0.7-12.4,0.7h-15.6c-0.1,0.9-0.1,1.9,0,2.8h2.3
				c2,0,3.3,0.9,3.3,3.6V982c0,3.8-2.2,5.6-6.2,6.5l0.1,0.7h19.8C863.2,989.2,866.3,989.4,868.9,989.7 M794.6,988.5l0.1,0.7h16.9
				v-2.8h-1.9c-2.2,0-3.3-0.9-3.3-3.6v-9.1h18.4v8c0,4.2-1.9,6-6.2,6.9v0.7h17.3c0.1-0.9,0-2,0-2.8h-2.3c-2.2,0-3.3-0.9-3.3-3.6v-18
				c0-3.8,1.7-5.7,6.2-6.7l-0.1-0.7h-17.3c-0.1,0.9-0.1,1.8,0,2.8h2.3c2.2,0,3.3,0.9,3.3,3.6v7.1h-18.4v-6.9c0-3.2,1.7-5.3,5.3-6
				v-0.7h-16.5c-0.1,0.9,0,2.7,0,2.8h2.3c2.2,0,3.3,0.9,3.3,3.6V982C800.7,985.8,798.5,987.6,794.6,988.5 M769.1,972.9V960l3.7,0.1
				c5.1,0.2,7.3,2.1,7.3,5.1C780,969.3,776.3,971.9,769.1,972.9 M757.3,988.5l0.1,0.7h16.4c0.1-0.9,0.1-1.7,0-2.8h-0.7
				c-2.8,0.1-4-0.6-4-2.8v-8.4c0.9-0.1,1.7-0.2,2.6-0.3l11.5,14.2h7.7c0.1-0.9,0.1-1.7,0-2.8c-2.2-0.2-4-1.4-7.5-5.4l-6.2-7.2
				c6.1-1.9,9.2-5.4,9.2-9.4c0-4.7-3.5-7-10.7-7h-17.7c-0.1,0.9-0.1,1.9,0,2.8h2.3c2,0,3.3,1,3.3,3.6V982
				C763.5,985.8,761.3,987.6,757.3,988.5 M749.4,989.7c1.5-3.5,2-7,2.3-11.3l-0.6-0.1c-1.8,5-5.8,8-11.9,8.1h-2c-3,0-4.4-1-4.4-3.6
				v-9.3l4.7,0.2c4.8,0.2,6.2,1.3,6.5,3.6h0.6c1-2.6,1.2-5.5,0.8-7.6c-2.6,0.7-6.7,1.1-10.2,1.1h-2.2V960l7,0.1
				c5.9,0.1,8.5,1.7,8.7,5.7h0.6c1.2-3.2,1.2-6.5,0.6-9.1c-3.5,0.4-7.7,0.7-12.4,0.7h-15.6c-0.1,0.9-0.1,1.9,0,2.8h2.3
				c2,0,3.3,0.9,3.3,3.6V982c0,3.8-2.2,5.6-6.2,6.5l0.1,0.7h19.8C743.7,989.2,746.8,989.4,749.4,989.7 M693.9,950h-16.6l-0.1,0.9
				c2.3,1.3,4.5,3.7,7,9.9l12,29.5h3.2l0.1-0.3l0.1,0.3l11.5-28.8c3-7.6,5.8-10,8-10.5l-0.1-0.9h-14.2l-0.1,0.9l1.4,0.7
				c2.8,1.5,3.3,3.7,2.2,6.7l-9,24.3l-8.8-21.8c-2.6-6.3-1.9-8.4,1.9-9.5l1.7-0.5L693.9,950z M643.1,969.4c1.2-4.4,4-7.1,7.3-7.1
				c3.8,0,5.6,3,5.6,7.1H643.1z M649.9,990.4c7,0,11.9-5.3,12.2-12.5l-0.6-0.1c-0.9,4.5-4.9,7.6-9.7,7.6c-5.9,0-9.4-3.6-9.4-11.1
				c0-0.7,0.1-1.3,0.1-2H662c0.5-8.3-3.7-13.4-10.4-13.4c-8.1,0-14.7,7.6-14.7,17.4C636.8,984.6,641.9,990.4,649.9,990.4
				 M598.2,988.5l0.1,0.7h15.1v-3h-1.2c-2.4,0-3.5-1.3-3.5-4.5V968c2-2.5,5.4-4.3,8.1-4.3c3.6,0,5.6,1.5,5.6,6.2v9.5
				c0,6.5-1.1,7.6-4.1,9.1l0.1,0.7h13.3v-3h-0.5c-2.4,0-3.4-0.8-3.4-4.4v-14.5c0-5.7-3-8.4-7.7-8.4c-3.6,0-8.2,2.3-11.3,5.4V945
				l-11.8,5.6l0.1,0.6h3.3c2.2,0,3.1,0.6,3.1,2.5v27.8C603.3,985.2,601.2,987.4,598.2,988.5 M586.1,990.5c4.4,0,8-2.2,9.9-6.9
				l-0.3-0.3c-1.6,1.6-3.9,2.6-6.4,2.6c-3.3,0-4.9-1.6-4.9-5.3v-16.8h11.4v-3.6l-11.4-0.1V951l-0.7-0.1l-4.6,9.2l-6.1,3v0.7h6.1
				v18.4C579,987.7,581.8,990.5,586.1,990.5 M534.1,975c0-8.6,4-13,8.7-12.9c4,0.1,8.2,3.3,8.2,12.2c0,8.6-4.1,13-8.8,12.9
				C538.3,987.2,534.1,983.9,534.1,975 M541.2,990.4c9.2,0,15.7-7.1,15.7-17.1c0-8.6-5.1-14.3-13.1-14.3c-8.4,0-15.6,6.6-15.6,17.1
				C528.1,985.3,533.2,990.4,541.2,990.4 M514.2,990.5c4.4,0,8-2.2,9.9-6.9l-0.3-0.3c-1.6,1.6-3.9,2.6-6.4,2.6
				c-3.3,0-4.9-1.6-4.9-5.3v-16.8h11.4v-3.6l-11.4-0.1V951l-0.7-0.1l-4.6,9.2l-6.1,3v0.7h6.1v18.4
				C507.1,987.7,509.9,990.5,514.2,990.5 M474.1,990.4c6.4,0,10.8-4.6,10.8-9.4c0-3.7-1.7-6.1-5.8-8.1l-4.2-2
				c-2.5-1.2-3.8-2.6-3.8-5.1c0-2.1,1.7-3.6,4.4-3.6c3,0,6.5,2.3,8,7.3l0.3-0.1c0.5-3.4,0.2-7.3-0.3-9.5c-0.9-0.5-3.3-0.9-5.3-0.9
				c-6.7,0-12,4.2-12,9.9c0,3,2,5.1,4.5,6.4l4.1,2c3.4,1.7,4.5,3.3,4.5,5.7c0,2.7-1.8,4.3-4.7,4.3c-3.3,0-6.7-2.9-9-9l-0.3,0.1
				c-0.3,3.8-0.2,7.2,0.7,9.9C467.6,989.5,470.5,990.4,474.1,990.4 M439,969.7c0-5.3,2.5-7.5,6.9-7.5c4,0,6.3,2.2,6.3,6.8
				c0,5.6-2.3,7.5-6.9,7.5C441.3,976.5,439,974.3,439,969.7 M436.5,993.4c0-1.8,1-3.5,2.1-4.6c1.3,0.6,3,1,5.1,1.2l5.1,0.5
				c4.9,0.5,6.1,1.6,6.1,3.5c0,2.7-3.2,4.9-9.5,4.9C439.7,998.9,436.5,997.1,436.5,993.4 M443.7,1002.1c10.8,0,17.1-4.1,17.1-9.9
				c0-3.5-3-5.8-9.6-6.5l-5.1-0.5c-4.1-0.4-5.4-1.4-5.4-4v-1.8c1.3,0.3,2.7,0.4,4.3,0.4c6.8,0,12.8-4.6,12.8-10.9
				c0-2.9-1.3-5.3-3.3-7h0.7c2.9,0.1,4.4,1.6,4.7,4.5h0.9c0.6-2.5,0.9-5.6,0.9-8c-1.7,0.7-5.3,1.2-9,1.6l-1,0.1
				c-1.7-0.8-3.6-1.2-5.6-1.2c-7.3,0-12.7,5.1-12.7,11.2c0,4.5,1.7,7.5,5.8,8.9c-1.9,1-3.6,3.7-3.6,5.8c0,1.2,0.5,2.2,1.5,3
				c-3.8,1.2-6.4,4.2-6.4,7.6C430.6,999.5,434.4,1002.1,443.7,1002.1 M415.2,988.5l0.1,0.7h13.3v-3H428c-2.4,0-3.4-0.8-3.4-4.4
				v-14.5c0-5.7-3-8.4-7.7-8.4c-3.6,0-8.2,2.3-11.3,5.4v-5.6l-9.7,4.8l0.1,0.7l1.5-0.1c1.7-0.1,2.8,0.6,2.8,2.6v14.3
				c0,4.3-1.8,6.5-5.1,7.6l0.1,0.7h15v-3h-1.1c-2.4,0-3.5-1.3-3.5-4.5V968c2-2.5,5.4-4.3,8.1-4.3c3.6,0,5.6,1.5,5.6,6.2v9.5
				C419.3,985.8,418.2,987,415.2,988.5 M380.4,950c0,2.2,1.8,4,4.1,4c2.3,0,4.1-1.7,4.1-4c0-2.2-1.8-4-4.1-4
				C382.2,946.1,380.4,947.8,380.4,950 M377.2,988.5l0.1,0.7h14.4v-3h-0.5c-2.4,0-3.5-1.3-3.5-4.5v-23.6l-9.7,6.5l0.1,0.7l1.5-0.1
				c1.7-0.1,2.8,0.6,2.8,2.6v13.1C382.3,985.2,380.5,987.4,377.2,988.5 M364.9,990.5c4.4,0,8-2.2,9.9-6.9l-0.3-0.3
				c-1.6,1.6-3.9,2.6-6.4,2.6c-3.3,0-4.9-1.6-4.9-5.3v-16.8h11.4v-3.6l-11.4-0.1V951l-0.7-0.1l-4.6,9.2l-6.1,3v0.7h6.1v18.4
				C357.9,987.7,360.6,990.5,364.9,990.5 M329.9,969.4c1.2-4.4,4-7.1,7.3-7.1c3.8,0,5.6,3,5.6,7.1H329.9z M336.7,990.4
				c7,0,11.9-5.3,12.2-12.5l-0.6-0.1c-0.9,4.5-4.9,7.6-9.7,7.6c-5.9,0-9.4-3.6-9.4-11.1c0-0.7,0.1-1.3,0.1-2h19.5
				c0.5-8.3-3.7-13.4-10.4-13.4c-8.1,0-14.7,7.6-14.7,17.4C323.7,984.6,328.8,990.4,336.7,990.4 M298.9,969.4c1.2-4.4,4-7.1,7.3-7.1
				c3.8,0,5.6,3,5.6,7.1H298.9z M305.7,990.4c7,0,11.9-5.3,12.2-12.5l-0.6-0.1c-0.9,4.5-4.9,7.6-9.7,7.6c-5.9,0-9.4-3.6-9.4-11.1
				c0-0.7,0.1-1.3,0.1-2h19.5c0.5-8.3-3.7-13.4-10.4-13.4c-8.1,0-14.7,7.6-14.7,17.4C292.7,984.6,297.8,990.4,305.7,990.4
				 M267.6,988.5l0.1,0.7h17.9v-3h-4c-2.4,0-3.5-1.6-3.5-4.8v-14c1.2-1.4,2.9-2.3,4.9-2.3c2.3,0,3.6,1.2,4,3h0.6c0.6-3,0.6-6-0.2-9
				c-3.7,0.2-7.2,2.6-9.3,5.3v-5.7l-9.7,4.8l0.1,0.7l1.5-0.1c1.7-0.1,2.8,0.6,2.8,2.6v14.3C272.7,985.2,270.9,987.4,267.6,988.5
				 M242.1,990.5c7.2,0,16.3-2.5,20.6-5.3l-0.2-0.7c-2.7,0.6-4.4-0.4-4.4-3v-4.7c0-3.7,1.8-5.8,4.4-6.1l0.7-0.1v-0.9h-18.8v3.2
				l4.4,0.2c2.4,0.1,3.5,1.4,3.5,3.7v4.4c0,3.3-2.3,5.4-8.7,5.4c-10.3,0-16.9-6.3-16.9-17c0-11.5,7.2-17.6,16.6-17.6
				c7.2,0,11.9,3.6,12.5,11.6l0.6,0.1c1.6-4.2,2.2-9.1,1.7-12.7c-3.5-1.2-8.5-2.4-13.8-2.4c-14,0-24.3,10.1-24.3,22.1
				C220,982.9,229.9,990.5,242.1,990.5 M177.5,975c0-8.6,4-13,8.7-12.9c4,0.1,8.2,3.3,8.2,12.2c0,8.6-4.1,13-8.8,12.9
				C181.7,987.2,177.5,983.9,177.5,975 M184.6,990.4c9.2,0,15.7-7.1,15.7-17.1c0-8.6-5.1-14.3-13.1-14.3c-8.4,0-15.6,6.6-15.6,17.1
				C171.6,985.3,176.6,990.4,184.6,990.4 M154.2,990.4c6.4,0,10.8-4.6,10.8-9.4c0-3.7-1.7-6.1-5.8-8.1l-4.2-2
				c-2.5-1.2-3.8-2.6-3.8-5.1c0-2.1,1.7-3.6,4.4-3.6c3,0,6.5,2.3,8,7.3l0.3-0.1c0.5-3.4,0.2-7.3-0.3-9.5c-0.9-0.5-3.3-0.9-5.3-0.9
				c-6.7,0-12,4.2-12,9.9c0,3,2,5.1,4.5,6.4l4.1,2c3.4,1.7,4.5,3.3,4.5,5.7c0,2.7-1.8,4.3-4.7,4.3c-3.3,0-6.7-2.9-9-9l-0.3,0.1
				c-0.3,3.8-0.2,7.2,0.7,9.9C147.8,989.5,150.7,990.4,154.2,990.4 M125.6,988.5l0.1,0.7h15.1v-3h-1.2c-2.4,0-3.5-1.3-3.5-4.5V945
				l-11.8,5.6l0.1,0.6h3.3c2.2,0,3.1,0.6,3.1,2.5v27.8C130.8,985.2,128.7,987.4,125.6,988.5 M95.6,972l6-15.5L108,972H95.6z
				 M107.3,989.2h16.6l0.1-0.9c-1.7-0.6-4.7-3.8-7.2-10l-12-29.4h-3.2l-0.1,0.3l-0.1-0.3l-12,28.9c-2.7,6.5-5.9,10-8,10.5l0.1,0.9
				h14.2l0.1-0.9l-1.4-0.7c-2.8-1.5-3.4-3.7-2.2-6.7l2.3-5.8h14.8l1.3,3.2c2.4,6,1.8,8.2-1.9,9.5l-1.5,0.5L107.3,989.2z"/>
			<path style="clip-path:url(#SVGID_00000109008949459210034040000013971206621518800001_);fill:#FFFFFF;" d="M1808.8,762.4
				c6.2,6.1,6.1,10.1,0.5,19.5l1.7,2.4c13-14,17.2-12.8,9.4,7.1l2.9-1.2c7.4-7.4,11.1-9.9,19.3-9.1l2.2-1.7c-7.7-7.4-8.1-11.8-2-22
				l-1.9-2c-14.8,16.2-17,13.1-10.1-4.7l-2.7,0.8c-5.6,7.6-9.3,9.6-17.2,9.4L1808.8,762.4z M1774.5,888.8l1.2,2.2
				c21.7-13.5,33-9.4,18,2.9l1.5,2c10.6-7.9,17.2-8.9,25.9-7.2l0.8-2.5c-17.7-7.9-18.3-28.9,3.5-27.3l0.7-2.4
				c-16.7-2.9-20-9.1,8.9-34.7l-1.3-2c-30.1,23.9-16-3.7,9.1-32.1l-2.2-1.9c-22,19.7-26.1,14.3-24.6,4.7
				c-6.1,6.9-19.7,18.3-23.1,23.1l1.2,1.9c14.5-14.1,17.8-5.4,14,3.2c-2.9,6.6-9.6,13.1-19,11.3l-0.7,2.4c18.2,5,12.6,16-15.1,41.2
				l1.5,2C1808.2,844.7,1800.4,871.3,1774.5,888.8 M1726.6,843.7c14-21.2,28.3-36,36.2-36c2.4,0,3.5,1.5,3.5,4
				C1766.3,817.7,1746.4,835.2,1726.6,843.7 M1752,789.8l-1.9-2.7c-26.4,24.1-23.6,1,14.8-34.2l-1.7-2.5
				c-24.2,20.9-35.5,16.2-34,4.5c-7.4,5.2-15.8,13.5-24.9,21.9l2,2.7c15.5-12.5,21-6.4,16.5,10.1c-5.4,20-7.7,20.9-19,4.9l-2.7,2
				c18,27.1,14.6,39-5.7,34l-0.7,2.4c15.3,4.7,15.8,8.9-8.6,33l1.3,2c27.3-25.7,24.2,0.5-9.4,20.9l1.5,2.5
				c17.8-11.8,39.2-9.8,24.7,2.5l1.5,2c11.8-7.6,18.8-9.4,34.7-6.6l0.5-2.4c-10.8-2.9-10.3-8.7-4.5-16.7l-2-1.9
				c-6.1,6.9-9.4,7.9-14,7.9c-13.8,0,2.9-31.3,15.3-31.3c6.1,0,7.6,11.1-0.5,22l2.2,1.9c10.4-14.6,19.2-6.2,14.3,26.1l3.2,0.8
				c3.7-23.9,11.8-25.1,27.9-3.5l1.8-2c-24.7-35.5-25.9-41.1-12.3-46.4l-0.5-2.5c-37,12.3-15-14.1-4-14.1c3.4,0,6.2,2.4,0.7,12.5
				l2.5,1c8.4-14.6,15.1-25.6,24.1-38.4l-2-1.5c-21.5,22-29.3,8.9-2-7.9l-1.3-2.2c-13.3,7.4-29.4,8.9-37.9,8.6
				c-8.2,15.3-25.6,35.7-29.4,35.7C1718.5,834.9,1727.9,812.4,1752,789.8 M1621.4,876.3c-7.1,0-2.5-19.3,31.3-57.5l-2-1.7
				c-16.5,17.5-23.2,24.2-25.2,24.2c-0.5,0-1-0.8-1-2.2c0-12.6,18.5-31.1,32-31.1c6.2,0,11.1,1.9,13,4.9
				C1661.9,835.1,1635.2,876.5,1621.4,876.3 M1700.6,805.3l-0.8-2.4c-29.1,15.3-32.1,5.7-6.7-9.9l-1-2.4c-18,9.9-31.6,9.9-28.1-4.4
				l-1.7-1c-31.1,32.1-36.8,32.5-46.3,10.4l-2.4,1.2c7.2,20.5,6.1,36.7-16.7,31.6l-0.7,2.4c17,6.2,19.9,13-9.4,43.7l1.7,1.8
				c26.9-25.4,30.8-19.7,6.6,10.8l1.9,1.9c13.6-11.6,26.9-7.9,26.9,6.4l1.7,1.9c12.6-23.6,29.3-44.3,33-44.3c2.7,0-2.4,21-19.5,39.2
				l1.5,2.2c14.8-8.6,25.4-10.1,37.5-9.4l0.2-2.7c-15.8-2.4-14.8-7.9,4.2-18.5l-1.3-2c-13.3,5.6-13.3,0.2-10.6-6.6
				c2.7-7.1,6.6-10.4,16.2-9.4l0.7-2.4C1671.2,835.8,1673.9,820.1,1700.6,805.3 M1538.3,794.2c-9.1,13.6-14.3,23.6-20.7,43.1
				l2.4,1.2c19.5-38.4,34.2-32.1,25.6-16.7l2.5,1c8.4-16.2,28.1-16.2,12.5,6.7c-8.2,11.8-23.9,11.3-18.5-0.8l-2.5-0.5
				c-4.9,8.4-11.9,18.5-22,31.3l1.9,2c11.8-12.3,20-16.5,27.4-17.8c-6.2,10.1-16.2,19-34.5,33.7c-2.7,4.2-4.2,10.6-4.5,16.7
				c7.1-6.9,14-10.3,18.5-10.3c4.7,0,5.4,5,0.3,10.3l1.7,2.2c16.5-9.9,28.8-10.1,45.9-4c6.4-10.1,12.4-27.1,15.3-41.1l-3.4-0.7
				c-17.2,37.2-36.8,35-26.1,14.6l-2.4-1.3c-19.5,24.7-31.6,13.1-6.9-13.8c8.8-9.3,24.2-5.9,16.2,6.9l2.4,1.5
				c5.9-9.3,13.6-20.4,24.1-30.3l-2-2c-10.9,8.2-20.5,11.9-28.4,12.5c7.6-9.8,13.3-16.3,31.1-25.9c2.4-4.5,4.5-11.1,4.5-16.7
				c-6.9,6.2-13.6,9.6-19,9.6c-5.9,0-7.1-5.6,1.7-14l-1.5-2.5C1562.3,800.4,1549.6,801.6,1538.3,794.2 M1444.6,876.3
				c-7.1,0-2.5-19.3,31.3-57.5l-2-1.7c-16.5,17.5-23.2,24.2-25.2,24.2c-0.5,0-1-0.8-1-2.2c0-12.6,18.5-31.1,32-31.1
				c6.2,0,11.1,1.9,13,4.9C1485.1,835.1,1458.4,876.5,1444.6,876.3 M1523.8,805.3l-0.8-2.4c-29.1,15.3-32.1,5.7-6.7-9.9l-1-2.4
				c-18,9.9-31.6,9.9-28.1-4.4l-1.7-1c-31.1,32.1-36.8,32.5-46.3,10.4l-2.4,1.2c7.2,20.5,6.1,36.7-16.7,31.6l-0.7,2.4
				c17,6.2,19.9,13-9.4,43.7l1.7,1.8c26.9-25.4,30.8-19.7,6.6,10.8l1.9,1.9c13.6-11.6,26.9-7.9,26.9,6.4l1.7,1.9
				c12.6-23.6,29.3-44.3,33-44.3c2.7,0-2.4,21-19.5,39.2l1.5,2.2c14.8-8.6,25.4-10.1,37.5-9.4l0.2-2.7c-15.8-2.4-14.8-7.9,4.2-18.5
				l-1.3-2c-13.3,5.6-13.3,0.2-10.6-6.6c2.7-7.1,6.6-10.4,16.2-9.4l0.7-2.4C1494.4,835.8,1497.1,820.1,1523.8,805.3 M1338.1,882.2
				l1.5,1.5c6.9-7.2,12.1-9.3,16-9.3c8.9,0,2.5,15.6-28.6,34.7l0.7,2.7c22.5-12.6,24.2-1.3-9.6,13.8l1.3,2.7
				c38.7-14,48.3-8.6,27.1,3.4l1,2c14.3-8.2,27.4-10.1,50.1-9.9l0.5-3c-23.2,0.7-23.9-5-0.8-21.7l-2.2-2.4
				c-58.4,34-50.6-1.3-0.5-20.9l-0.2-2.5c-24.7,4.5-10.4-14.5,23.1-30.5l0.5-2.4c-11.4-2.7-10.1-13.8,13-48.6l-1.7-1.9
				c-17.7,17-22.7,11.9-20.4,0.3c-7.9,5-20.2,15.3-28.1,23.2l1.7,2c17.8-9.1,24.6-4.4,21.5,10.8c-2.5,12.8-7.1,19-10.9,19
				c-2.5,0-4.9-3.2-3.9-18.3l-2.2-0.3c-3.5,27.3-10.8,38.9-19.5,40.2c-6.1,1.2-9.1-6.7-8.1-14.1c1.5-12.5,5.6-21.4,17-32l-2-2.5
				c-23.2,17.3-16.8-5.9,6.6-29.9l-2.2-2.4c-21.7,20.4-25.4,16.2-24.2,6.2c-6.9,7.7-18.7,18.5-24.2,24.6l1.5,2.2
				c18.7-17,23.4-8.9,2.2,39.4l2.4,1.3C1349.3,834.6,1358.3,841.6,1338.1,882.2 M1308.1,762.4c6.2,6.1,6.1,10.1,0.5,19.5l1.7,2.4
				c13-14,17.2-12.8,9.4,7.1l2.9-1.2c7.4-7.4,11.1-9.9,19.3-9.1l2.2-1.7c-7.7-7.4-8.1-11.8-2-22l-1.9-2c-14.8,16.2-17,13.1-10.1-4.7
				l-2.7,0.8c-5.6,7.6-9.3,9.6-17.2,9.4L1308.1,762.4z M1273.8,888.8l1.2,2.2c21.7-13.5,33-9.4,18,2.9l1.5,2
				c10.6-7.9,17.2-8.9,25.9-7.2l0.8-2.5c-17.7-7.9-18.3-28.9,3.5-27.3l0.7-2.4c-16.7-2.9-20-9.1,8.9-34.7l-1.3-2
				c-30.1,23.9-16-3.7,9.1-32.1l-2.2-1.9c-22,19.7-26.1,14.3-24.6,4.7c-6.1,6.9-19.7,18.3-23.1,23.1l1.2,1.9
				c14.5-14.1,17.8-5.4,14,3.2c-2.9,6.6-9.6,13.1-19,11.3l-0.7,2.4c18.2,5,12.6,16-15.1,41.2l1.5,2
				C1307.4,844.7,1299.7,871.3,1273.8,888.8 M1160.9,784.9c7.4,17.8,13.5,35.3,16.3,87.7l3.4-0.2c-0.2-29.9,10.8-17.5,10.3,24.1
				l3.4,0.3c7.6-24.2,20.2-42.4,38.2-54.2l-2-2.9c-19.9,12.5,7.4-31.1,33.7-54.2c-6.9,31-12.6,41.1-31.6,52.7l1.9,2.9
				c24.7-13.8,16.7-0.3-15.1,28.8l1.7,2.5c32.6-28.3,36.8-15.6-13.1,19.7l1.7,3c30.3-20.2,40.9-19.2,20.4,1.2l1.9,2.9
				c14.3-12.6,27.6-13.6,41.9-10.8l1.3-3.2c-8.7-4.7-7.2-11.4,5.7-29.8l-2.9-2c-10.1,14.8-18.7,22.9-21.5,22.9
				c-8.1,0,2.5-33.8,19.5-31.5l1.2-3.2c-22.7-8.1-10.6-25.4,21.7-58.6l-2.7-2.2c-31.5,32-27.3,10.8,6.4-14.1l-1.2-3.2
				c-36.8,18.3-56,15.1-28.3-2.7l-1.5-3c-18.7,12.3-31.3,13.5-48.6,8.1l-1.3,3.2c16,5.9,10.1,13.3-8.2,34.3l2.5,2.4
				c28.3-33.1,33-32.6,11.9,9.9c-15.1,30.5-18.3,30.3-17.8,1.3l-3.7,0.5c1,21.4-2,35.2-7.2,51.1c-3.4-16.5-5-34.5-5.9-74h-3.4
				c0.3,35.2-7.2,27.1-9.8,4.4c-1.5-12.3,0.2-23.2,16-30l-1.7-3c-34,11.9-37.4,6.2-24.2-4.5l-1.5-3c-13.6,10.6-22.7,11.3-37,10.1
				l-0.8,3.4c13.3,0.2,13,6.6-6.1,23.7l2.4,2.5c36.2-34.7,32.3-9.8-7.1,31.8l2.9,2c30.1-29.1,39.7-19.9-19.7,36.8l2.4,2.4
				c19.9-19.2,27.6-20.5,28.1-13.6c0.3,6.7-8.6,17.7-36.7,33l1.2,3.4c38.5-20.7,52.5-18.8,22.5,1.7l1.5,3c24.1-15.5,32-16,48.5-11.1
				l1-3.2c-10.9-5.2-10.6-9.1,1.7-21l-2-2.2c-22.5,15.5-29.3,13.3-28.3-5c0.7-21,9.4-27.3,14.3,2.5l3.2-0.7
				C1157,820.8,1158,799.7,1160.9,784.9 M1034.7,861.8l-2.4,1.9c6.9,7.2,6.7,11.9,0.5,23.1l2,2.9c14.6-16.3,19.5-15,10.6,8.4
				l3.4-1.5c8.6-8.4,13-11.6,22.4-10.8l2.5-2c-8.8-8.7-9.3-13.8-2.4-25.9l-2-2.2c-17.2,18.7-19.5,15-11.8-5.9l-3,1.2
				C1048.2,859.5,1043.8,862,1034.7,861.8 M1048,799.2l-0.8,2.9c-26.1-2.5-23.1,3.7-8.9,8.2c-2.4,5-5.6,15.6-6.7,28.6l-2.9-0.3
				c-0.3-23.6-14.3-35-22.5-35c-5.7,0-9.1,3-8.9,9.9c0.2,19.3,29.3,51.5,10.9,6.1l2.7-1.3c13,30.8,16.8,36.5,27.3,42.9l-1.5,2.9
				c-16.8-9.4-25.6,2.2-7.7,23.2l-1.5,2c-12.3-7.4-24.4-2-36.2,10.1c-3.5-7.9-14.8-11.9-33.5-13.6l0.2-2.7
				c20.4,2.4,19.9-2.4,6.4-11.4l9.3-24.9l2.4,0.8c-0.8,21.4,10.9,34.5,22,35.2c8.7,0.3,12.3-4.5,12.3-11.1
				c0.5-14.6-31.5-56.9-11.9-2.7l-2.9,1.3c-10.1-24.9-11.3-31.1-26.4-35.2l0.2-2.5c21.4,2.4,18-15,2.9-21.5l0.3-2.4
				c15.3-2,28.6-9.3,40.2-20.7C1018.4,795.2,1026.3,797.4,1048,799.2 M901.6,895.5l2,1.7c11.1-12.8,24.9-28.6,29.8-28.6
				c2.9,0,2.2,6.6-1.3,16l2.7,0.7c7.2-17.5,17.2-34.5,33-31.8l0.7-2.4c-13.3-7.7-12.5-32.1,11.1-59.2l-1.7-1.9
				c-18.3,14.3-22.7,11.9-20.4,0.3c-7.9,5-20.2,15.3-28.1,23.2l1.7,2c16.8-10.6,22.4-8.1,21.2,10.1c-1.5,16.5-5,22.5-9.3,22.5
				c-2.7,0-4.5-2.9-5-21.2l-2.5-0.3c-1.5,30.3-10.8,42.6-17,42.6c-4.4,0-8.1-7.1-8.1-15.5c0-13.8,5.6-25.2,14.6-33.8l-1.7-2
				c-20,16.3-19.3-3.5,6.1-28.9l-2-2c-21.7,20.2-25.4,15.1-24.2,5.2c-6.9,7.7-18,16.3-24.2,24.4l1.2,2.4c23.7-21,21.2,4.9-1.2,45.6
				l2.4,1.3c18.2-33.7,27.6-18.7,6.4,18l1.8,1.7C901.6,870.4,915.2,874.4,901.6,895.5 M849.8,759.5l-1-2.5
				c-13.3,6.7-24.7,12.6-33.3,18.3c3.5,15.1-0.2,20.5-13,5.9l-2.2,1.9c13.8,15.5,9.8,21.7-9.8,15.6l-6.4,24.1l2.7,0.7
				c3.4-9.9,7.2-15.8,12.1-15.8c16,0,6.1,25.7-15.8,22.2l-0.7,2.4c21.9,5.6,19.5,15.3-8.1,34.8l1.5,2c21.9-14.6,19.2-4,3.9,13.3
				l1.7,2c11.3-5,21.2,2.4,28.3,13.3c11.6-8.4,22-12.5,33.3-15.1l0.2-2.7c-7.4,0.3-7.7-7.6,0-28.9l-2.5-1
				c-19.3,42.4-40.9,48.8-13.5,6.6l-2.2-1.5c-21.7,32.8-24.6,21.9-20.9,9.4c5.9-19.9,11.6-25.2,36-23.6l0.5-2.7
				c-38.2-1.8-24.7-24.7-7.4-28.1c12.3-4.2,16.3-3.2,15.6,15.8l3.5,0.8l5.7-27.9l-2.5-0.8c-41.1,10.8-38.5,0.2-5.4-18.2l-1.7-2.4
				C819.8,792.8,819.2,782.9,849.8,759.5 M721.8,822.8c4.2-14.1,8.4-16.5,12.1-16.5c13.8,0.2,8.4,25.9-13.8,24.1l-0.5,2.4
				c17,2.2,19.9,9.8-9.9,38.7l1.9,1.7c29.6-29.6,20.4,0.2-4.5,16.2l1.2,2.2c19.5-11.4,34-10.9,21.5,2.7l1.5,2
				c14-10.9,28.8-11.4,41.1-4.7l1.2-2.4c-6.7-5.2-6.4-13.6,3.2-28.1l-2-1.5c-10.6,15-16.3,17.5-26.1,17.5
				c-16.3,0-11.9-18.2,16.8-22.5l0.5-2.5c-29.1,1.2-24.6-7.2,6.6-28.8l-1.5-2.7c-37.4,31-18.8-14.3-1.2-14.3c8.9,0,13,2.4,11.1,21.7
				l3.5,0.7l10.1-35.2l-2.9-0.8c-7.7,6.2-14.6,7.9-22,7.9c-11.8,0-11.3-18.2,6.4-24.2c11.4-3.9,14.5,3.2,7.2,17.8l2.7,1
				c5.4-6.4,11.4-15.1,17-25.1c-24.7,5.4-36.2-4.5-1.5-13.8l-0.7-2.5c-16.3,3.4-29.6,6.9-40.5,11.6c0.5,23.6-7.1,33-16.5-1.3l-2.7,1
				c7.4,31.8,1.5,36.8-15.5,33.8l-6.2,23.4L721.8,822.8z M645.9,876.3c-7.1,0-2.5-19.3,31.3-57.5l-2-1.7
				c-16.5,17.5-23.2,24.2-25.2,24.2c-0.5,0-1-0.8-1-2.2c0-12.6,18.5-31.1,32-31.1c6.2,0,11.1,1.9,13,4.9
				C686.4,835.1,659.7,876.5,645.9,876.3 M725.1,805.3l-0.8-2.4c-29.1,15.3-32.1,5.7-6.7-9.9l-1-2.4c-18,9.9-31.6,9.9-28.1-4.4
				l-1.7-1c-31.1,32.1-36.8,32.5-46.3,10.4l-2.4,1.2c7.2,20.5,6.1,36.7-16.7,31.6l-0.7,2.4c17,6.2,19.9,13-9.4,43.7l1.7,1.8
				c26.9-25.4,30.8-19.7,6.6,10.8l1.9,1.9c13.6-11.6,26.9-7.9,26.9,6.4l1.7,1.9c12.6-23.6,29.3-44.3,33-44.3c2.7,0-2.4,21-19.5,39.2
				l1.5,2.2c14.8-8.6,25.4-10.1,37.5-9.4l0.2-2.7c-15.8-2.4-14.8-7.9,4.2-18.5l-1.3-2c-13.3,5.6-13.3,0.2-10.6-6.6
				c2.7-7.1,6.6-10.4,16.2-9.4l0.7-2.4C695.7,835.8,698.4,820.1,725.1,805.3 M604.8,892.8l1.9-1.7c-9.4-8.4-5.4-19,3.4-31.6l-2-1.7
				c-10.1,14.3-20.7,19.9-27.8,19.9c-19.3,0,16.5-54.5,26.1-54.5c4.5,0,5,10.1-10.3,31.8l2,1.5c15.8-18.5,23.6-33.7,32-57.2l-2-1.7
				c-11.8,16.7-19.5,15.6-11.6-7.1l-2.5-1.3c-11.4,24.1-33.3,56.5-37.7,56.5c-5.4,0,13.6-36.7,29.1-56.9l-1.7-2.2
				c-21.9,18.8-26.1,13.8-25.4,2.9c-5.7,7.4-13.8,14.5-22.4,24.2l1.3,2.2c13.1-11.9,20.4-8.1,16.8,1.2c-1.7,6.4-9.1,14.6-21.5,12.8
				l-0.7,2.4c17.7,5.9,17.7,13.6-13.6,41.6l1.5,2c33.8-28.1,26.4-3.7-3.2,13.3l1.2,2.2c17.2-11.3,35.7-12.3,20.7,3l1.5,2
				C574.2,886.6,593.2,886.6,604.8,892.8 M512.8,859l-2.2-1.7c-29.3,32.6-26.1,1.9,8.6-35.5l-2-1.5c-15,16.7-22.4,22.2-24.9,22.2
				c-8.8,0,11.1-33.1,28.1-33.1c5.9,0,9.4,4.4,9.4,11.8c0,6.6-4,16.2-15.3,31.6l2.2,1.5c12.5-11.8,21.5-20.7,31.5-31.3
				c-14.5,0-16.3-9.1,10.6-11.1v-2.5c-19.7-2.5-29.6-6.7-33.5-20.2l-2.4-1.3c-18.8,22.9-29.6,26.9-39.5,6.6l-2.2,1.2
				c6.2,19,8.6,38.7-14.1,33.7l-0.7,2.4c14.5,6.2,13,15.6-10.6,38.5l1.7,1.7c24.7-23.2,32.6-14,7.7,10.3l1.5,2
				c15-7.4,27.4-1.2,30.8,15.3l2.4,1.5c10.4-16.3,22.4-18.8,44.8-23.7l-0.7-2.9c-14,2.9-17.7-0.2-8.2-25.1l-2.5-0.8
				C515.1,884.5,485.2,897.7,512.8,859 M403.3,841c-8.9,0,17-34.3,31.5-34.3c21.5,0-18.7,46.8-27.1,46.8c-3.2,0,1.7-12.3,19.5-32.5
				l-1.9-1.7C409,838.1,405.6,841,403.3,841 M400.9,872.1c0-8.4,26.1-32.5,33.8-32.5c2.5,0-2.4,8.7-8.9,16.5l2.4,1.8
				c14.8-14.8,27.8-24.6,34.7-34.5c-20.5-1-21-9.8,8.6-11.6v-2.4c-19-2.7-29.9-7.7-34.7-20.7l-2-1c-19,22.7-29.1,28.9-38.2,8.2
				l-2.2,1.2c5.9,23.2,6.2,37.5-15.6,32.3l-0.7,2.4c16.3,6.4,15,15.5-9.9,39.5l1.7,1.7c23.7-21.5,29.9-11.4,8.4,11.8l1.5,2
				c13-3.5,25.2-2,29.6,12.8l2.2,1.2c10.4-16.3,23.4-18.3,46.1-19.7l-0.3-3c-14-1-17.5-6.7-5.4-28.9l-2.7-1
				c-15.8,23.4-28.3,35.5-35.7,35.5c-4.4,0-2.9-8.1,7.7-18.7l-2.4-1.9C407.3,876.6,400.9,877.1,400.9,872.1 M312.1,895.5l2,1.7
				c11.1-12.8,24.9-28.6,29.8-28.6c2.9,0,2.2,6.6-1.3,16l2.7,0.7c7.2-17.5,17.2-34.5,33-31.8l0.7-2.4c-13.3-7.7-12.5-32.1,11.1-59.2
				l-1.7-1.9c-18.3,14.3-22.7,11.9-20.4,0.3c-7.9,5-20.2,15.3-28.1,23.2l1.7,2c16.8-10.6,22.4-8.1,21.2,10.1
				c-1.5,16.5-5,22.5-9.3,22.5c-2.7,0-4.5-2.9-5-21.2l-2.5-0.3c-1.5,30.3-10.8,42.6-17,42.6c-4.4,0-8.1-7.1-8.1-15.5
				c0-13.8,5.6-25.2,14.6-33.8l-1.7-2c-20,16.3-19.3-3.5,6.1-28.9l-2-2c-21.7,20.2-25.4,15.1-24.2,5.2c-6.9,7.7-18,16.3-24.2,24.4
				l1.2,2.4c23.7-21,21.2,4.9-1.2,45.6l2.4,1.3c18.2-33.7,27.6-18.7,6.4,18l1.9,1.7C312.1,870.4,325.7,874.4,312.1,895.5
				 M215.7,862.5c1.9-6.9,4-8.6,13-3.2l1.2-2.4c-11.6-8.1-8.7-15.6,14.1-38.9l-2-1.9c-15.1,16-20.4,19.2-22.4,19.2
				c-6.9,0,7.9-27.6,31.8-27.6c8.7,0,14.3,7.6,11.8,17.5c-1.2,5-5.4,6.2-15.6,2l-1.3,2.4c10.6,5.9,10.1,10.1-13.1,37.7l2,1.3
				c14.5-15.3,20-20.2,22.4-20.2c9.8,0-3.4,31.1-29.1,31.1C218.9,879.7,213.5,870.7,215.7,862.5 M211.1,794.4l-2.2,1.2
				c7.4,20.9,5.7,39.5-16.7,34l-0.8,2.4c16.5,6.4,14.1,15-9.1,38l1.5,2c25.6-24.4,29.8-8.6,7.9,14l1.5,2
				c16.5-8.2,28.9-0.3,30.1,11.3l2.2,1.5c23.1-25.1,32.8-26.6,42.6-8.2l2.4-1.2c-8.1-19.2-7.4-39.9,15.6-34.7l0.7-2.4
				c-17-6.2-15.3-14.3,11.1-39.4l-1.5-2c-25.1,23.2-33.8,13.3-8.1-10.6l-1.5-2c-17,7.2-32.8,1.2-29.9-11.8L255,787
				C227.1,813.2,220.9,814.7,211.1,794.4 M178.3,765.6l-1.7-3c-31.5,20.2-39.4,15.6-25.4-3.2l-2-2.9c-14.5,13.5-23.6,14.8-41.7,12.1
				l-1,3.2c10.9,2.4,9.3,7.9-5.7,23.6l2.4,2.5c25.2-26.9,33.8-24.7,23.7,11.1c-2.5-4.4-6.4-11.1-9.1-16.5l-3.4,1.3
				c10.9,28.6,7.9,35.7-9.3,33.8l-0.8,3.5c15,3.9,13.1,11.3-22.4,40.4l2,2.7c37.2-33,43.9-20.7-8.7,18l1.5,3
				c39.9-27.9,47.8-25.4,20.7,0.8l1.9,2.9c19.7-16.7,45.3-15.3,77.4-1.3l1.3-3.2c-34-15.6-18-24.2-1.3-8.6l2.7-1.5
				c-2.7-13.5,1.3-32.5,10.6-55.2l-3.4-0.7c-20.5,50.6-43.4,53.7-22.7,22l-3-2c-31.1,41.9-62.3,40-8.1-16.8l-2.4-2.5
				c-29.8,24.7-26.1,2.4,24.1-43.1l-2.2-2.7C127.7,824.1,134.4,795.4,178.3,765.6"/>
		</g>
	</g>
</g>
</svg>
