<?xml version="1.0" encoding="utf-8"?>
<!-- Generator: Adobe Illustrator 27.4.0, SVG Export Plug-In . SVG Version: 6.00 Build 0)  -->
<svg version="1.1" id="Ebene_1" xmlns="http://www.w3.org/2000/svg" xmlns:xlink="http://www.w3.org/1999/xlink" x="0px" y="0px"
	 viewBox="0 0 960 1200" style="enable-background:new 0 0 960 1200;" xml:space="preserve">
<style type="text/css">
	.st0{clip-path:url(#SVGID_00000176722997739240550090000000890730960262045617_);fill:#010202;}
	.st1{clip-path:url(#SVGID_00000176722997739240550090000000890730960262045617_);}
	.st2{clip-path:url(#SVGID_00000052091295639139696720000016904683407919636616_);fill:#FFFFFF;}
	
		.st3{clip-path:url(#SVGID_00000052091295639139696720000016904683407919636616_);fill:none;stroke:#FFFFFF;stroke-width:5.245;stroke-miterlimit:10;}
	.st4{clip-path:url(#SVGID_00000176722997739240550090000000890730960262045617_);fill:#FFFFFF;}
	
		.st5{clip-path:url(#SVGID_00000176722997739240550090000000890730960262045617_);fill:none;stroke:#FFFFFF;stroke-width:5.245;stroke-miterlimit:10;}
	.st6{clip-path:url(#SVGID_00000107552432133664377840000018211433353454236343_);fill:#010202;}
	
		.st7{clip-path:url(#SVGID_00000107552432133664377840000018211433353454236343_);fill:none;stroke:#FFFFFF;stroke-width:5.245;stroke-miterlimit:10;}
	.st8{clip-path:url(#SVGID_00000107552432133664377840000018211433353454236343_);fill:#FFFFFF;}
	.st9{clip-path:url(#SVGID_00000031189856346675310210000017068341885293952953_);fill:#010202;}
	.st10{clip-path:url(#SVGID_00000031189856346675310210000017068341885293952953_);}
	.st11{clip-path:url(#SVGID_00000026164516558591273250000012274577855457350034_);fill:#FFFFFF;}
	
		.st12{clip-path:url(#SVGID_00000026164516558591273250000012274577855457350034_);fill:none;stroke:#FFFFFF;stroke-width:2.098;stroke-miterlimit:10;}
	.st13{clip-path:url(#SVGID_00000031189856346675310210000017068341885293952953_);fill:#FFFFFF;}
	
		.st14{clip-path:url(#SVGID_00000031189856346675310210000017068341885293952953_);fill:none;stroke:#FFFFFF;stroke-width:2.098;stroke-miterlimit:10;}
	.st15{clip-path:url(#SVGID_00000116198572305900152860000010591005482439635621_);fill:#010202;}
	
		.st16{clip-path:url(#SVGID_00000116198572305900152860000010591005482439635621_);fill:none;stroke:#FFFFFF;stroke-width:2.098;stroke-miterlimit:10;}
	.st17{clip-path:url(#SVGID_00000116198572305900152860000010591005482439635621_);fill:#FFFFFF;}
	.st18{clip-path:url(#SVGID_00000168821319151123223660000006274512994081728148_);}
	.st19{clip-path:url(#SVGID_00000100361877586456167950000010461584920580357249_);fill:#010202;}
	.st20{clip-path:url(#SVGID_00000150819286983055861840000015706184958537542334_);fill:#010202;}
	.st21{clip-path:url(#SVGID_00000150819286983055861840000015706184958537542334_);}
	.st22{clip-path:url(#SVGID_00000023997456250915576700000015268353143132066715_);fill:#FFFFFF;}
	.st23{clip-path:url(#SVGID_00000065074773424981537960000000044748998798701228_);}
	.st24{clip-path:url(#SVGID_00000024712061658798285080000000305823806564323479_);fill:#010202;}
	
		.st25{clip-path:url(#SVGID_00000024712061658798285080000000305823806564323479_);fill:none;stroke:#010202;stroke-width:23.345;stroke-miterlimit:10;}
	.st26{clip-path:url(#SVGID_00000024712061658798285080000000305823806564323479_);fill:#FFFFFF;}
	
		.st27{clip-path:url(#SVGID_00000024712061658798285080000000305823806564323479_);fill:none;stroke:#FFFFFF;stroke-width:0.657;stroke-miterlimit:10;}
	
		.st28{clip-path:url(#SVGID_00000024712061658798285080000000305823806564323479_);fill:none;stroke:#FFFFFF;stroke-width:6.571;stroke-miterlimit:10;}
	
		.st29{clip-path:url(#SVGID_00000024712061658798285080000000305823806564323479_);fill:none;stroke:#010202;stroke-width:3.147;stroke-miterlimit:10;}
	
		.st30{clip-path:url(#SVGID_00000065074773424981537960000000044748998798701228_);fill:none;stroke:#010202;stroke-width:3.147;stroke-miterlimit:10;}
	.st31{clip-path:url(#SVGID_00000154426912781822648630000000059746186873562533_);fill:#010202;}
	.st32{clip-path:url(#SVGID_00000154426912781822648630000000059746186873562533_);fill:#FFFFFF;}
	.st33{clip-path:url(#SVGID_00000065074773424981537960000000044748998798701228_);fill:#010202;}
	.st34{clip-path:url(#SVGID_00000100353262522748433140000016968514400749387679_);}
	.st35{clip-path:url(#SVGID_00000083785224097726833380000004160291606599899313_);fill:#010202;}
	.st36{clip-path:url(#SVGID_00000083785224097726833380000004160291606599899313_);}
	.st37{clip-path:url(#SVGID_00000034077895844096576600000007607475778417912722_);fill:#FFFFFF;}
	.st38{clip-path:url(#SVGID_00000083785224097726833380000004160291606599899313_);fill:#B4B4B4;}
	.st39{clip-path:url(#SVGID_00000083785224097726833380000004160291606599899313_);fill:#FFFFFF;}
	.st40{clip-path:url(#SVGID_00000181070786212505852900000002007728249021805207_);fill:#010202;}
	.st41{clip-path:url(#SVGID_00000135656501475634104350000002028240985733815210_);fill:#010202;}
	.st42{clip-path:url(#SVGID_00000176722448805176708670000017821605960102527645_);enable-background:new    ;}
	.st43{clip-path:url(#SVGID_00000090278793025244662770000003962460837588658310_);}
	.st44{clip-path:url(#SVGID_00000013900918059360473730000004796415704196249249_);fill:#010202;}
	.st45{clip-path:url(#SVGID_00000013900918059360473730000004796415704196249249_);fill:none;stroke:#010202;stroke-width:0.82;}
	.st46{clip-path:url(#SVGID_00000013900918059360473730000004796415704196249249_);fill:none;stroke:#010202;stroke-width:0.864;}
	.st47{clip-path:url(#SVGID_00000013900918059360473730000004796415704196249249_);fill:#FFFFFF;}
	.st48{clip-path:url(#SVGID_00000013900918059360473730000004796415704196249249_);fill:none;stroke:#010202;stroke-width:1.639;}
	
		.st49{clip-path:url(#SVGID_00000013900918059360473730000004796415704196249249_);fill:none;stroke:#010202;stroke-width:4.918;stroke-linecap:round;}
	
		.st50{clip-path:url(#SVGID_00000013900918059360473730000004796415704196249249_);fill:none;stroke:#010202;stroke-width:4.918;stroke-linecap:round;stroke-dasharray:0.367,7.34;}
	
		.st51{clip-path:url(#SVGID_00000013900918059360473730000004796415704196249249_);fill:none;stroke:#010202;stroke-width:4.918;stroke-linecap:round;stroke-dasharray:0.367,7.34,0.367,7.34;}
	
		.st52{clip-path:url(#SVGID_00000013900918059360473730000004796415704196249249_);fill:none;stroke:#010202;stroke-width:4.918;stroke-linecap:round;stroke-dasharray:0.32,6.386;}
	
		.st53{clip-path:url(#SVGID_00000013900918059360473730000004796415704196249249_);fill:none;stroke:#010202;stroke-width:4.918;stroke-linecap:round;stroke-dasharray:0.32,6.386,0.32,6.386;}
	
		.st54{clip-path:url(#SVGID_00000013900918059360473730000004796415704196249249_);fill:none;stroke:#010202;stroke-width:4.918;stroke-linecap:round;stroke-dasharray:0.359,7.186;}
	
		.st55{clip-path:url(#SVGID_00000013900918059360473730000004796415704196249249_);fill:none;stroke:#010202;stroke-width:4.918;stroke-linecap:round;stroke-dasharray:0.359,7.186,0.359,7.186;}
	
		.st56{clip-path:url(#SVGID_00000013900918059360473730000004796415704196249249_);fill:none;stroke:#010202;stroke-width:4.918;stroke-linecap:round;stroke-dasharray:0.326,6.528;}
	
		.st57{clip-path:url(#SVGID_00000013900918059360473730000004796415704196249249_);fill:none;stroke:#010202;stroke-width:4.918;stroke-linecap:round;stroke-dasharray:0.326,6.528,0.326,6.528;}
	.st58{clip-path:url(#SVGID_00000013900918059360473730000004796415704196249249_);fill:none;stroke:#010202;stroke-width:0.828;}
	.st59{clip-path:url(#SVGID_00000013900918059360473730000004796415704196249249_);fill:none;stroke:#010202;stroke-width:0.987;}
	.st60{opacity:0.33;clip-path:url(#SVGID_00000013900918059360473730000004796415704196249249_);}
	.st61{clip-path:url(#SVGID_00000018195228195388331370000017769265920449645224_);}
	.st62{clip-path:url(#SVGID_00000173145635289974425820000012462265070743335818_);fill:#010202;}
	.st63{clip-path:url(#SVGID_00000129924476537137594420000006545357999266040214_);}
	.st64{clip-path:url(#SVGID_00000133494970780547306150000012092400205229034943_);fill:#010202;}
	.st65{clip-path:url(#SVGID_00000088097990854790561760000005733390408908790972_);}
	.st66{clip-path:url(#SVGID_00000138560906827282728240000011814433477801768878_);fill:#010202;}
	.st67{opacity:0.5;clip-path:url(#SVGID_00000013900918059360473730000004796415704196249249_);}
	.st68{clip-path:url(#SVGID_00000158020291668090073210000011865347848215349651_);}
	.st69{clip-path:url(#SVGID_00000018919680759085020170000017206165369856791986_);fill:#010202;}
	
		.st70{clip-path:url(#SVGID_00000013900918059360473730000004796415704196249249_);fill:none;stroke:#010202;stroke-width:0.82;stroke-miterlimit:10;}
	
		.st71{clip-path:url(#SVGID_00000013900918059360473730000004796415704196249249_);fill:none;stroke:#010202;stroke-width:0.82;stroke-linejoin:bevel;}
	
		.st72{clip-path:url(#SVGID_00000013900918059360473730000004796415704196249249_);fill:none;stroke:#010202;stroke-width:0.83;stroke-linejoin:bevel;}
	
		.st73{clip-path:url(#SVGID_00000013900918059360473730000004796415704196249249_);fill:none;stroke:#010202;stroke-width:0.877;stroke-linejoin:bevel;}
	
		.st74{clip-path:url(#SVGID_00000013900918059360473730000004796415704196249249_);fill:none;stroke:#010202;stroke-width:0.536;stroke-linejoin:bevel;}
	.st75{clip-path:url(#SVGID_00000166637954644241446730000014490723239101135752_);fill:#010202;}
	.st76{clip-path:url(#SVGID_00000134962062431305147030000002461611167168681139_);fill:#9D9D9C;}
	.st77{clip-path:url(#SVGID_00000121959451445356464940000018005165986658551691_);fill:#010202;}
	.st78{clip-path:url(#SVGID_00000083051867005490000530000017975243374796628355_);fill:#010202;}
	.st79{clip-path:url(#SVGID_00000033330682899371134510000002091601842868738717_);fill:#010202;}
	.st80{clip-path:url(#SVGID_00000156555405557526995100000000160340034377758129_);fill:#010202;}
	.st81{clip-path:url(#SVGID_00000068641380811509237920000004187389264469603217_);fill:#010202;}
	.st82{clip-path:url(#SVGID_00000108996533871663705130000017789327739019800760_);fill:#010202;}
	.st83{clip-path:url(#SVGID_00000182502994707262240820000010244931520139844484_);fill:#010202;}
	.st84{clip-path:url(#SVGID_00000041990770915590279480000017013367039535598979_);fill:#010202;}
	.st85{clip-path:url(#SVGID_00000179604101035462077460000012356260825748824217_);fill:#010202;}
	.st86{clip-path:url(#SVGID_00000123420979485193354360000014628678676252518800_);fill:#010202;}
	.st87{clip-path:url(#SVGID_00000033361995481611819610000012476991502198558608_);fill:#010202;}
	.st88{clip-path:url(#SVGID_00000155827247387023743980000007237618368869586876_);fill:#010202;}
	.st89{clip-path:url(#SVGID_00000080896750345181103470000001208599939693450399_);fill:#010202;}
	.st90{clip-path:url(#SVGID_00000076588304428300491790000001240959961983276945_);fill:#010202;}
	.st91{clip-path:url(#SVGID_00000116913787128529450480000008383523153566086062_);fill:#010202;}
	.st92{clip-path:url(#SVGID_00000160870721741176434400000009017166060448049064_);fill:#010202;}
	.st93{clip-path:url(#SVGID_00000119078287427420855620000008536819897167191704_);fill:#010202;}
	.st94{clip-path:url(#SVGID_00000087401254639146261320000013902174600744525989_);fill:#010202;}
	.st95{clip-path:url(#SVGID_00000026873511959427703730000017961324077484946079_);fill:#010202;}
	.st96{clip-path:url(#SVGID_00000017485779005813484590000004046623763517058999_);fill:#010202;}
	.st97{clip-path:url(#SVGID_00000092453158855716928350000014557983393243904924_);fill:#010202;}
	.st98{clip-path:url(#SVGID_00000172415138534378631600000005770503964685518249_);fill:#FFFFFF;}
	.st99{clip-path:url(#SVGID_00000172415138534378631600000005770503964685518249_);fill:#010202;}
	.st100{clip-path:url(#SVGID_00000088816767022113402970000004597456238361997186_);fill:#010202;}
	.st101{clip-path:url(#SVGID_00000119115912120760098240000008005743607027017902_);fill:#010202;}
	.st102{clip-path:url(#SVGID_00000031207280967399423030000011232612428430967178_);fill:#010202;}
	.st103{clip-path:url(#SVGID_00000031207280967399423030000011232612428430967178_);fill:#FFFFFF;}
	.st104{clip-path:url(#SVGID_00000031207280967399423030000011232612428430967178_);fill:none;stroke:#010202;stroke-width:1.366;}
	
		.st105{clip-path:url(#SVGID_00000083785224097726833380000004160291606599899313_);fill:none;stroke:#010202;stroke-width:4.098;stroke-linecap:round;}
	
		.st106{clip-path:url(#SVGID_00000083785224097726833380000004160291606599899313_);fill:none;stroke:#010202;stroke-width:4.098;stroke-linecap:round;stroke-dasharray:0.945,5.199;}
	
		.st107{clip-path:url(#SVGID_00000083785224097726833380000004160291606599899313_);fill:none;stroke:#010202;stroke-width:4.098;stroke-linecap:round;stroke-dasharray:0,4.154,0,4.154;stroke-dashoffset:4;}
	.st108{clip-path:url(#SVGID_00000132799648854476931920000000963764685575268777_);fill:#010202;}
	.st109{clip-path:url(#SVGID_00000132799648854476931920000000963764685575268777_);fill:none;stroke:#010202;stroke-width:1.366;}
	.st110{clip-path:url(#SVGID_00000132799648854476931920000000963764685575268777_);fill:#FFFFFF;}
	
		.st111{clip-path:url(#SVGID_00000083785224097726833380000004160291606599899313_);fill:none;stroke:#010202;stroke-width:4.098;stroke-linecap:round;stroke-dasharray:0.827,4.527;}
	
		.st112{clip-path:url(#SVGID_00000083785224097726833380000004160291606599899313_);fill:none;stroke:#010202;stroke-width:4.098;stroke-linecap:round;stroke-dasharray:2.000000e-03,3.702,2.000000e-03,3.702;stroke-dashoffset:3;}
	.st113{clip-path:url(#SVGID_00000022542034649056120810000014240488256556737932_);fill:#010202;}
	.st114{clip-path:url(#SVGID_00000022542034649056120810000014240488256556737932_);fill:none;stroke:#010202;stroke-width:1.366;}
	.st115{clip-path:url(#SVGID_00000022542034649056120810000014240488256556737932_);fill:#FFFFFF;}
	
		.st116{clip-path:url(#SVGID_00000083785224097726833380000004160291606599899313_);fill:none;stroke:#010202;stroke-width:4.098;stroke-linecap:round;stroke-dasharray:0.929,5.093;}
	
		.st117{clip-path:url(#SVGID_00000083785224097726833380000004160291606599899313_);fill:none;stroke:#010202;stroke-width:4.098;stroke-linecap:round;stroke-dasharray:4.700000e-02,4.212,4.700000e-02,4.212;stroke-dashoffset:4;}
	.st118{clip-path:url(#SVGID_00000086665144504663813990000000729833607098599560_);fill:#010202;}
	.st119{clip-path:url(#SVGID_00000086665144504663813990000000729833607098599560_);fill:none;stroke:#010202;stroke-width:1.366;}
	.st120{clip-path:url(#SVGID_00000086665144504663813990000000729833607098599560_);fill:#FFFFFF;}
	
		.st121{clip-path:url(#SVGID_00000083785224097726833380000004160291606599899313_);fill:none;stroke:#010202;stroke-width:4.098;stroke-linecap:round;stroke-dasharray:0.875,5.128;}
	
		.st122{clip-path:url(#SVGID_00000083785224097726833380000004160291606599899313_);fill:none;stroke:#010202;stroke-width:4.098;stroke-linecap:round;stroke-dasharray:0,4.125,0,4.125;stroke-dashoffset:4;}
	.st123{clip-path:url(#SVGID_00000124146785305176750520000014824870313428602775_);fill:#010202;}
	.st124{clip-path:url(#SVGID_00000124146785305176750520000014824870313428602775_);fill:none;stroke:#010202;stroke-width:1.366;}
	.st125{clip-path:url(#SVGID_00000124146785305176750520000014824870313428602775_);fill:#FFFFFF;}
	
		.st126{clip-path:url(#SVGID_00000083785224097726833380000004160291606599899313_);fill:none;stroke:#010202;stroke-width:4.098;stroke-linecap:round;stroke-dasharray:0.827,5.081;}
	
		.st127{clip-path:url(#SVGID_00000083785224097726833380000004160291606599899313_);fill:none;stroke:#010202;stroke-width:4.098;stroke-linecap:round;stroke-dasharray:0,4.105,0,4.105;stroke-dashoffset:4;}
	.st128{clip-path:url(#SVGID_00000164488643768884996920000003299302101026962080_);fill:#010202;}
	.st129{clip-path:url(#SVGID_00000164488643768884996920000003299302101026962080_);fill:none;stroke:#010202;stroke-width:1.366;}
	.st130{clip-path:url(#SVGID_00000164488643768884996920000003299302101026962080_);fill:#FFFFFF;}
	
		.st131{clip-path:url(#SVGID_00000083785224097726833380000004160291606599899313_);fill:none;stroke:#010202;stroke-width:4.098;stroke-linecap:round;stroke-dasharray:0.829,5.083;}
	
		.st132{clip-path:url(#SVGID_00000083785224097726833380000004160291606599899313_);fill:none;stroke:#010202;stroke-width:4.098;stroke-linecap:round;stroke-dasharray:0,4.106,0,4.106;stroke-dashoffset:4;}
	.st133{clip-path:url(#SVGID_00000165217571746442503180000003444230147652626091_);fill:#010202;}
	.st134{clip-path:url(#SVGID_00000165217571746442503180000003444230147652626091_);fill:none;stroke:#010202;stroke-width:1.366;}
	.st135{clip-path:url(#SVGID_00000165217571746442503180000003444230147652626091_);fill:#FFFFFF;}
	
		.st136{clip-path:url(#SVGID_00000083785224097726833380000004160291606599899313_);fill:none;stroke:#010202;stroke-width:4.098;stroke-linecap:round;stroke-dasharray:0,3.58;}
	.st137{clip-path:url(#SVGID_00000078741749188978422670000014665773433656036020_);fill:#010202;}
	.st138{clip-path:url(#SVGID_00000078741749188978422670000014665773433656036020_);fill:none;stroke:#010202;stroke-width:1.366;}
	.st139{clip-path:url(#SVGID_00000044136097978103506380000003926952930954625690_);fill:#010202;}
	.st140{clip-path:url(#SVGID_00000139998345426704986370000004993384916143283644_);fill:#010202;}
	.st141{clip-path:url(#SVGID_00000123438331384316989940000003457593741551361707_);}
	.st142{clip-path:url(#SVGID_00000178914483589936608730000009601083124467317892_);fill:#010202;}
	.st143{clip-path:url(#SVGID_00000047019931107095908750000017243551177826822817_);}
	.st144{clip-path:url(#SVGID_00000036959311469498489430000000599875957255419815_);fill:#B4B4B4;}
	.st145{clip-path:url(#SVGID_00000036959311469498489430000000599875957255419815_);}
	.st146{clip-path:url(#SVGID_00000002349384197829761230000009826596246350898841_);fill:#020304;}
	
		.st147{clip-path:url(#SVGID_00000008838677902088716430000008415408243576822695_);fill:none;stroke:#FFFFFF;stroke-width:2.226;stroke-miterlimit:10;}
	
		.st148{clip-path:url(#SVGID_00000008838677902088716430000008415408243576822695_);fill:none;stroke:#000000;stroke-width:0.445;stroke-miterlimit:10;}
	.st149{filter:url(#Adobe_OpacityMaskFilter);}
	.st150{clip-path:url(#SVGID_00000152266651172596387480000002046747733146743178_);}
	
		.st151{clip-path:url(#SVGID_00000152266651172596387480000002046747733146743178_);mask:url(#SVGID_00000145767424836829415970000003572030193806223801_);}
	.st152{opacity:0.55;clip-path:url(#SVGID_00000173158005133519591820000005160493151547926695_);fill:#010202;}
	.st153{clip-path:url(#SVGID_00000036959311469498489430000000599875957255419815_);fill:#FFFFFF;}
	.st154{clip-path:url(#SVGID_00000120533061378006420390000002842781523827829430_);fill:#010202;}
	.st155{clip-path:url(#SVGID_00000036959311469498489430000000599875957255419815_);fill:none;stroke:#010202;stroke-width:0.554;}
	.st156{clip-path:url(#SVGID_00000157274192371874494180000000745046156613036471_);fill:#010202;}
	.st157{filter:url(#Adobe_OpacityMaskFilter_00000093880326435875671600000014048330531033593236_);}
	.st158{clip-path:url(#SVGID_00000021823623432972001050000012505891876931509904_);}
	
		.st159{clip-path:url(#SVGID_00000021823623432972001050000012505891876931509904_);mask:url(#SVGID_00000005984023427688872400000012482037851295856008_);}
	.st160{opacity:0.55;clip-path:url(#SVGID_00000052800725461506484050000014591168528737414833_);fill:#010202;}
	.st161{filter:url(#Adobe_OpacityMaskFilter_00000149378234914164077070000007296516984436559249_);}
	.st162{clip-path:url(#SVGID_00000088817904698778906370000012518063178572064147_);}
	
		.st163{clip-path:url(#SVGID_00000088817904698778906370000012518063178572064147_);mask:url(#SVGID_00000163771340147538029340000014190352014442468512_);}
	.st164{opacity:0.55;clip-path:url(#SVGID_00000081644681911150356010000003384325278117559699_);fill:#010202;}
	.st165{clip-path:url(#SVGID_00000118384518530807311930000008410181283942593420_);fill:#010202;}
	.st166{clip-path:url(#SVGID_00000003105574002550936670000015177417815943803017_);fill:none;stroke:#010202;stroke-width:0.554;}
	.st167{clip-path:url(#SVGID_00000003105574002550936670000015177417815943803017_);fill:#010202;}
	.st168{filter:url(#Adobe_OpacityMaskFilter_00000104698108348086428480000006485066809163654017_);}
	.st169{clip-path:url(#SVGID_00000003105574002550936670000015177417815943803017_);}
	
		.st170{clip-path:url(#SVGID_00000003105574002550936670000015177417815943803017_);mask:url(#SVGID_00000101816493338577332050000013390771990496397228_);}
	.st171{opacity:0.55;clip-path:url(#SVGID_00000123429552901581101920000008351337500245578918_);fill:#010202;}
	.st172{filter:url(#Adobe_OpacityMaskFilter_00000103246236144944875460000010355215894343074443_);}
	.st173{clip-path:url(#SVGID_00000048498414366114257080000006967635839081042569_);}
	
		.st174{clip-path:url(#SVGID_00000048498414366114257080000006967635839081042569_);mask:url(#SVGID_00000038383282712404116600000004888516358895731598_);}
	.st175{opacity:0.55;clip-path:url(#SVGID_00000094582359890415911070000013058476187848048290_);fill:#010202;}
	.st176{clip-path:url(#SVGID_00000070809705791839899950000008615773670744747177_);fill:#010202;}
	.st177{clip-path:url(#SVGID_00000030475891963127068480000009225164275829648809_);fill:#010202;}
	.st178{filter:url(#Adobe_OpacityMaskFilter_00000144309302714689023660000005955158961199309966_);}
	.st179{clip-path:url(#SVGID_00000030475891963127068480000009225164275829648809_);}
	
		.st180{clip-path:url(#SVGID_00000030475891963127068480000009225164275829648809_);mask:url(#SVGID_00000166645103726386811030000016769554863034730120_);}
	.st181{opacity:0.55;clip-path:url(#SVGID_00000107555951305321000170000012574872546483376025_);fill:#010202;}
	.st182{clip-path:url(#SVGID_00000179608491941732058830000001758217508476121269_);}
	.st183{clip-path:url(#SVGID_00000089550072521115141450000007167049128100233386_);}
	.st184{clip-path:url(#SVGID_00000150781488315161288000000015142591603695193262_);fill:#010202;}
	
		.st185{clip-path:url(#SVGID_00000150781488315161288000000015142591603695193262_);fill:none;stroke:#010202;stroke-width:11.817;stroke-linejoin:round;}
	.st186{clip-path:url(#SVGID_00000150781488315161288000000015142591603695193262_);fill:#FFFFFF;}
	.st187{clip-path:url(#SVGID_00000150781488315161288000000015142591603695193262_);fill:none;stroke:#010202;stroke-width:1.972;}
	.st188{clip-path:url(#SVGID_00000150781488315161288000000015142591603695193262_);fill:none;stroke:#010202;stroke-width:42.229;}
	.st189{clip-path:url(#SVGID_00000150781488315161288000000015142591603695193262_);fill:none;stroke:#FFFFFF;stroke-width:2.016;}
	.st190{clip-path:url(#SVGID_00000124156102211949455360000015165611091616938374_);fill:#010202;}
	.st191{clip-path:url(#SVGID_00000124156102211949455360000015165611091616938374_);fill:#FFFFFF;}
	.st192{clip-path:url(#SVGID_00000053503797075008102340000002209213894532326784_);fill:#010202;}
	.st193{clip-path:url(#SVGID_00000053503797075008102340000002209213894532326784_);fill:none;stroke:#010202;stroke-width:22.467;}
	.st194{clip-path:url(#SVGID_00000053503797075008102340000002209213894532326784_);fill:none;stroke:#FFFFFF;stroke-width:1.925;}
	.st195{clip-path:url(#SVGID_00000053503797075008102340000002209213894532326784_);fill:#FFFFFF;}
	.st196{clip-path:url(#SVGID_00000053503797075008102340000002209213894532326784_);fill:none;stroke:#010202;stroke-width:2.069;}
	.st197{clip-path:url(#SVGID_00000053503797075008102340000002209213894532326784_);fill:none;stroke:#010202;stroke-width:1.925;}
	
		.st198{clip-path:url(#SVGID_00000053503797075008102340000002209213894532326784_);fill:none;stroke:#010202;stroke-width:28.328;stroke-miterlimit:10;}
	
		.st199{clip-path:url(#SVGID_00000053503797075008102340000002209213894532326784_);fill:none;stroke:#FFFFFF;stroke-width:2.071;stroke-miterlimit:10;}
	.st200{clip-path:url(#SVGID_00000053503797075008102340000002209213894532326784_);fill:none;stroke:#010202;stroke-width:1.348;}
	.st201{clip-path:url(#SVGID_00000002343438333423451610000007080824150976223645_);fill:#FFFFFF;}
	.st202{clip-path:url(#SVGID_00000027597136437048862300000014908192907265572247_);fill:#010202;}
	.st203{clip-path:url(#SVGID_00000046326144651318311610000004349961295158873481_);fill:#FFFFFF;}
	.st204{clip-path:url(#SVGID_00000046326144651318311610000004349961295158873481_);fill:none;stroke:#010202;stroke-width:2.117;}
	.st205{clip-path:url(#SVGID_00000046326144651318311610000004349961295158873481_);fill:#010202;}
	.st206{clip-path:url(#SVGID_00000046326144651318311610000004349961295158873481_);fill:none;stroke:#010202;stroke-width:1.925;}
	
		.st207{clip-path:url(#SVGID_00000020394241931524406810000008014296776207735190_);fill:url(#SVGID_00000004514365056846017750000005797450542057052064_);}
	.st208{clip-path:url(#SVGID_00000175289191471670882740000008340141804551717001_);fill:none;stroke:#010202;stroke-width:3.268;}
	
		.st209{clip-path:url(#SVGID_00000067922859274292283340000009722669796802947255_);fill:url(#SVGID_00000159449534292528386240000015802515632091653528_);}
	.st210{clip-path:url(#SVGID_00000006676689495711905530000006170732187149551795_);fill:none;stroke:#010202;stroke-width:1.925;}
	
		.st211{clip-path:url(#SVGID_00000018922204908793722440000005555188026711786429_);fill:url(#SVGID_00000020384083408248475970000011306450606235317650_);}
	.st212{clip-path:url(#SVGID_00000164514198992503821430000004721142910802791816_);fill:none;stroke:#010202;stroke-width:1.925;}
	.st213{filter:url(#Adobe_OpacityMaskFilter_00000088841648897317701990000000048802729448567957_);}
	.st214{clip-path:url(#SVGID_00000155858554779201429980000015234786890330172570_);}
	
		.st215{clip-path:url(#SVGID_00000052813226018384426410000014891752035571789741_);fill:url(#SVGID_00000174562901631954308610000002784941973179277973_);}
	
		.st216{clip-path:url(#SVGID_00000155858554779201429980000015234786890330172570_);mask:url(#SVGID_00000057844695720177641710000014974580818429674885_);fill:url(#SVGID_00000013168213722256014210000007573912471339842979_);}
	.st217{clip-path:url(#SVGID_00000052100850020847978780000006746977784777890463_);fill:none;stroke:#010202;stroke-width:1.925;}
	.st218{clip-path:url(#SVGID_00000047757513632063868350000000485635469895575994_);fill:#010202;}
	.st219{clip-path:url(#SVGID_00000015318650956148380930000007215807279588385201_);fill:#010202;}
	.st220{clip-path:url(#SVGID_00000015318650956148380930000007215807279588385201_);fill:none;stroke:#010202;stroke-width:30.169;}
	.st221{clip-path:url(#SVGID_00000015318650956148380930000007215807279588385201_);fill:none;stroke:#FFFFFF;stroke-width:2.857;}
	.st222{clip-path:url(#SVGID_00000015318650956148380930000007215807279588385201_);fill:#FFFFFF;}
	.st223{clip-path:url(#SVGID_00000015318650956148380930000007215807279588385201_);fill:none;stroke:#010202;stroke-width:3.693;}
	.st224{clip-path:url(#SVGID_00000049907943398617817170000000490282075122891937_);}
	.st225{clip-path:url(#SVGID_00000095332644621155821540000016764227316461258430_);fill:#010202;}
	.st226{clip-path:url(#SVGID_00000049907943398617817170000000490282075122891937_);fill:none;stroke:#010202;stroke-width:1.105;}
	.st227{clip-path:url(#SVGID_00000142174176620130379000000001800637795402878635_);fill:#010202;}
	.st228{clip-path:url(#SVGID_00000119827696963554003640000014505853505218858411_);fill:#010202;}
	.st229{clip-path:url(#SVGID_00000008116486690793093970000012979913610265019288_);fill:#010202;}
	.st230{clip-path:url(#SVGID_00000072991791136446907780000007937016068201879476_);fill:#010202;}
	.st231{clip-path:url(#SVGID_00000087388188594331948830000009099329264975872933_);fill:#010202;}
	.st232{clip-path:url(#SVGID_00000030448592843168743800000008398867350083694224_);fill:#010202;}
	.st233{clip-path:url(#SVGID_00000030448592843168743800000008398867350083694224_);}
	.st234{clip-path:url(#SVGID_00000081635224553433322840000013944722060142042810_);fill:#FFFFFF;}
	.st235{clip-path:url(#SVGID_00000120518934327384451790000012974143417827810473_);fill:#010202;}
	.st236{clip-path:url(#SVGID_00000120518934327384451790000012974143417827810473_);}
	.st237{clip-path:url(#SVGID_00000006708316673275484060000000694188852817365680_);fill:#FFFFFF;}
	.st238{clip-path:url(#SVGID_00000120518934327384451790000012974143417827810473_);fill:#FFFFFF;}
	.st239{clip-path:url(#SVGID_00000120518934327384451790000012974143417827810473_);fill:none;stroke:#010202;stroke-width:14.314;}
	.st240{clip-path:url(#SVGID_00000023272122653038222850000000702052643404097683_);fill:#010202;}
	.st241{clip-path:url(#SVGID_00000023272122653038222850000000702052643404097683_);}
	.st242{clip-path:url(#SVGID_00000111886974267528442730000012598621387371024549_);fill:#FFFFFF;}
	.st243{clip-path:url(#SVGID_00000023272122653038222850000000702052643404097683_);fill:#FFFFFF;}
	.st244{clip-path:url(#SVGID_00000165228916775097967280000016591935217860992431_);fill:#FFFFFF;}
	.st245{clip-path:url(#SVGID_00000029022740588393481440000012565924856904945550_);fill:#010202;}
	.st246{clip-path:url(#SVGID_00000029022740588393481440000012565924856904945550_);}
	.st247{clip-path:url(#SVGID_00000050645048617313329730000004129313263932905649_);fill:#010202;}
	.st248{clip-path:url(#SVGID_00000120543574895155526820000002148636981429992099_);fill:#FFFFFF;}
	.st249{clip-path:url(#SVGID_00000120543574895155526820000002148636981429992099_);fill:#010202;}
	.st250{clip-path:url(#SVGID_00000029022740588393481440000012565924856904945550_);fill:#FFFFFF;}
	.st251{clip-path:url(#SVGID_00000069389690901642615490000000255759332445379762_);fill:#FFFFFF;}
	.st252{clip-path:url(#SVGID_00000069389690901642615490000000255759332445379762_);fill:#010202;}
	.st253{clip-path:url(#SVGID_00000103977749750244989980000015039020353539389577_);fill:#010202;}
	.st254{clip-path:url(#SVGID_00000103977749750244989980000015039020353539389577_);fill:#FFFFFF;}
	.st255{clip-path:url(#SVGID_00000175306898550239978880000003534928344535351681_);fill:#FFFFFF;}
	.st256{clip-path:url(#SVGID_00000021820265531804386380000002685814188560831393_);fill:#010202;}
	.st257{clip-path:url(#SVGID_00000021820265531804386380000002685814188560831393_);}
	.st258{clip-path:url(#SVGID_00000011741515199809730170000018269486220877079978_);fill:#B4B4B4;}
	.st259{clip-path:url(#SVGID_00000011741515199809730170000018269486220877079978_);fill:#FFFFFF;}
	.st260{clip-path:url(#SVGID_00000021820265531804386380000002685814188560831393_);fill:#FFFFFF;}
	.st261{clip-path:url(#SVGID_00000051356038225420484530000008712043672100554918_);fill:#B4B4B4;}
	.st262{clip-path:url(#SVGID_00000051356038225420484530000008712043672100554918_);fill:#FFFFFF;}
	.st263{clip-path:url(#SVGID_00000137133208601791876010000002756065701567647379_);}
	.st264{clip-path:url(#SVGID_00000116933240063008476870000001962512785943216771_);fill:#010202;}
	.st265{clip-path:url(#SVGID_00000160884861467356791550000001063385444545535636_);fill:#010202;}
	.st266{clip-path:url(#SVGID_00000160884861467356791550000001063385444545535636_);}
	.st267{clip-path:url(#SVGID_00000125587836415498510850000002964132694318855053_);fill:#B4B4B4;}
	.st268{clip-path:url(#SVGID_00000160884861467356791550000001063385444545535636_);fill:#B4B4B4;}
	.st269{clip-path:url(#SVGID_00000034056691139169851980000004472445294958262688_);fill:#B4B4B4;}
	.st270{clip-path:url(#SVGID_00000088095296420887138000000001711126946037456816_);fill:#B4B4B4;}
	.st271{clip-path:url(#SVGID_00000085239259797300489060000002862793571092387755_);fill:#FFFFFF;}
	.st272{clip-path:url(#SVGID_00000160884861467356791550000001063385444545535636_);fill:#FFFFFF;}
	.st273{clip-path:url(#SVGID_00000173846187726156778450000014097063902985555869_);fill:#010202;}
	.st274{clip-path:url(#SVGID_00000057106680203976433900000005025331370738656681_);fill:#010202;}
	.st275{clip-path:url(#SVGID_00000057106680203976433900000005025331370738656681_);}
	.st276{clip-path:url(#SVGID_00000178883285308496329030000010597739279016745865_);fill:#FFFFFF;}
</style>
<g>
	<g>
		<defs>
			<rect id="SVGID_00000065036335021194865160000014072417180174816424_" width="960" height="1200"/>
		</defs>
		<clipPath id="SVGID_00000049924252926075766280000001312440726063024782_">
			<use xlink:href="#SVGID_00000065036335021194865160000014072417180174816424_"  style="overflow:visible;"/>
		</clipPath>
		
			<rect x="70.2" y="714.4" style="clip-path:url(#SVGID_00000049924252926075766280000001312440726063024782_);fill:#010202;" width="803.9" height="417.7"/>
		<g style="clip-path:url(#SVGID_00000049924252926075766280000001312440726063024782_);">
			<defs>
				<rect id="SVGID_00000096030885921139070630000005822912440657063603_" width="960" height="1200"/>
			</defs>
			<clipPath id="SVGID_00000060007482815457306320000009133172247241588145_">
				<use xlink:href="#SVGID_00000096030885921139070630000005822912440657063603_"  style="overflow:visible;"/>
			</clipPath>
			<path style="clip-path:url(#SVGID_00000060007482815457306320000009133172247241588145_);fill:#B4B4B4;" d="M772,770.1
				c-35.7,2.4-72.6,4.3-108.3,6c-6.6,0.4-13.1,0.6-19.7,0.4c-6.1-0.2-23.1-0.1-29.5-0.1c-100,0-369.2,0-472.5,0l6.3-6.3
				c-0.3,27.4,0.5,157.1-0.2,182c-1.5,35.2-3.9,74.2-6.1,109.2c-2.6-38.2-4.7-79.9-6.4-118.3c0.5-22.8-0.1-154.3,0.1-179.2
				c108.2,0,373.9,0,478.8,0c5.9,0,23.6,0,29.5-0.1c6.6-0.2,13.1,0,19.7,0.4C699.4,765.8,736.4,767.7,772,770.1"/>
			<path style="clip-path:url(#SVGID_00000060007482815457306320000009133172247241588145_);fill:#B4B4B4;" d="M121.8,1088.2
				c36-1.9,73.5-3.4,109.5-4.7c6.9-0.3,15.3-0.6,21.9-0.8c7.3-0.1,14.6,0.2,21.9,0.1c124.5,0,419.8,0,547.5,0l-5.4,5.4
				c0.3-31.1-0.5-178,0.2-206.1c1.3-39.9,3.4-84,5.2-123.7c2.2,43.2,4,90.5,5.5,134c-0.5,24.2,0.1,174.4-0.1,201.2
				c-119.5,0-415.3,0-531,0c-12.4-0.1-31.4,0.1-43.8,0.1C209.7,1092.2,165.2,1090.3,121.8,1088.2"/>
		</g>
		<polygon style="clip-path:url(#SVGID_00000049924252926075766280000001312440726063024782_);fill:#B4B4B4;" points="138.1,775.1 
			70.2,714.4 145.9,765.1 		"/>
		<polygon style="clip-path:url(#SVGID_00000049924252926075766280000001312440726063024782_);fill:#B4B4B4;" points="827,1083.9 
			874.3,1133 818.2,1094.2 		"/>
		<g style="clip-path:url(#SVGID_00000049924252926075766280000001312440726063024782_);">
			<defs>
				<rect id="SVGID_00000079445455577282902350000005069870775642586024_" width="960" height="1200"/>
			</defs>
			<clipPath id="SVGID_00000095322210874082398370000013789156450084038813_">
				<use xlink:href="#SVGID_00000079445455577282902350000005069870775642586024_"  style="overflow:visible;"/>
			</clipPath>
			<path style="clip-path:url(#SVGID_00000095322210874082398370000013789156450084038813_);fill:#B4B4B4;" d="M810.7,1084.1
				l44.7,48.9c-0.1,1-53.3-39.3-53.5-39.1C801.9,1093.9,810.7,1084.1,810.7,1084.1"/>
		</g>
		<polygon style="clip-path:url(#SVGID_00000049924252926075766280000001312440726063024782_);fill:#B4B4B4;" points="794.5,1084.4 
			836.6,1133.1 836.2,1133.6 785.6,1093.7 		"/>
		<polygon style="clip-path:url(#SVGID_00000049924252926075766280000001312440726063024782_);fill:#B4B4B4;" points="778.2,1084.6 
			817.7,1133.2 817.1,1133.9 769.2,1093.4 		"/>
		<polygon style="clip-path:url(#SVGID_00000049924252926075766280000001312440726063024782_);fill:#B4B4B4;" points="761.9,1084.8 
			798.9,1133.4 798,1134.1 752.9,1093.1 		"/>
		<polygon style="clip-path:url(#SVGID_00000049924252926075766280000001312440726063024782_);fill:#B4B4B4;" points="745.7,1085.1 
			780,1133.5 778.9,1134.4 736.6,1092.8 		"/>
		<polygon style="clip-path:url(#SVGID_00000049924252926075766280000001312440726063024782_);fill:#B4B4B4;" points="729.4,1085.3 
			761.1,1133.6 759.9,1134.6 720.3,1092.5 		"/>
		<polygon style="clip-path:url(#SVGID_00000049924252926075766280000001312440726063024782_);fill:#B4B4B4;" points="713.1,1085.6 
			742.3,1133.8 740.8,1134.9 703.9,1092.2 		"/>
		<polygon style="clip-path:url(#SVGID_00000049924252926075766280000001312440726063024782_);fill:#B4B4B4;" points="696.8,1085.8 
			723.4,1133.9 721.7,1135.1 687.6,1091.9 		"/>
		<polygon style="clip-path:url(#SVGID_00000049924252926075766280000001312440726063024782_);fill:#B4B4B4;" points="680.5,1086.1 
			704.6,1134.1 702.6,1135.3 671.4,1091.6 		"/>
		<polygon style="clip-path:url(#SVGID_00000049924252926075766280000001312440726063024782_);fill:#B4B4B4;" points="664.2,1086.4 
			685.7,1134.3 683.6,1135.5 655.1,1091.3 		"/>
		<polygon style="clip-path:url(#SVGID_00000049924252926075766280000001312440726063024782_);fill:#B4B4B4;" points="647.9,1086.6 
			666.8,1134.5 664.5,1135.6 638.8,1091 		"/>
		<polygon style="clip-path:url(#SVGID_00000049924252926075766280000001312440726063024782_);fill:#B4B4B4;" points="631.5,1086.9 
			648,1134.7 645.4,1135.8 622.5,1090.7 		"/>
		<polygon style="clip-path:url(#SVGID_00000049924252926075766280000001312440726063024782_);fill:#B4B4B4;" points="615.2,1087.2 
			629.1,1135 626.4,1135.9 606.3,1090.4 		"/>
		<polygon style="clip-path:url(#SVGID_00000049924252926075766280000001312440726063024782_);fill:#B4B4B4;" points="598.8,1087.4 
			610.2,1135.2 607.3,1136.1 590.1,1090.1 		"/>
		<polygon style="clip-path:url(#SVGID_00000049924252926075766280000001312440726063024782_);fill:#B4B4B4;" points="582.4,1087.7 
			591.3,1135.5 588.3,1136.2 573.9,1089.8 		"/>
		<polygon style="clip-path:url(#SVGID_00000049924252926075766280000001312440726063024782_);fill:#B4B4B4;" points="566,1087.9 
			572.4,1135.7 569.3,1136.3 557.7,1089.5 		"/>
		<polygon style="clip-path:url(#SVGID_00000049924252926075766280000001312440726063024782_);fill:#B4B4B4;" points="549.6,1088.2 
			553.5,1136 550.3,1136.4 541.5,1089.2 		"/>
		<polygon style="clip-path:url(#SVGID_00000049924252926075766280000001312440726063024782_);fill:#B4B4B4;" points="533.1,1088.4 
			534.5,1136.3 531.3,1136.5 525.3,1089 		"/>
		<polygon style="clip-path:url(#SVGID_00000049924252926075766280000001312440726063024782_);fill:#B4B4B4;" points="516.7,1088.6 
			515.6,1136.6 512.3,1136.6 509.2,1088.7 		"/>
		<polygon style="clip-path:url(#SVGID_00000049924252926075766280000001312440726063024782_);fill:#B4B4B4;" points="500.2,1088.8 
			496.6,1136.8 493.3,1136.7 493,1088.5 		"/>
		<polygon style="clip-path:url(#SVGID_00000049924252926075766280000001312440726063024782_);fill:#B4B4B4;" points="483.8,1088.9 
			477.7,1137.1 474.3,1136.8 476.9,1088.3 		"/>
		<polygon style="clip-path:url(#SVGID_00000049924252926075766280000001312440726063024782_);fill:#B4B4B4;" points="467.3,1089.1 
			458.7,1137.4 455.3,1136.9 460.8,1088.1 		"/>
		<polygon style="clip-path:url(#SVGID_00000049924252926075766280000001312440726063024782_);fill:#B4B4B4;" points="450.8,1089.2 
			439.7,1137.7 436.4,1137 444.7,1088 		"/>
		<polygon style="clip-path:url(#SVGID_00000049924252926075766280000001312440726063024782_);fill:#B4B4B4;" points="434.3,1089.3 
			420.7,1138 417.5,1137.1 428.5,1087.8 		"/>
		<polygon style="clip-path:url(#SVGID_00000049924252926075766280000001312440726063024782_);fill:#B4B4B4;" points="417.8,1089.4 
			401.7,1138.2 398.5,1137.3 412.4,1087.7 		"/>
		<polygon style="clip-path:url(#SVGID_00000049924252926075766280000001312440726063024782_);fill:#B4B4B4;" points="401.4,1089.4 
			382.7,1138.5 379.6,1137.4 396.3,1087.6 		"/>
		<polygon style="clip-path:url(#SVGID_00000049924252926075766280000001312440726063024782_);fill:#B4B4B4;" points="384.9,1089.4 
			363.6,1138.7 360.7,1137.5 380.2,1087.5 		"/>
		<polygon style="clip-path:url(#SVGID_00000049924252926075766280000001312440726063024782_);fill:#B4B4B4;" points="368.4,1089.5 
			344.6,1138.9 341.8,1137.7 364.1,1087.5 		"/>
		<polygon style="clip-path:url(#SVGID_00000049924252926075766280000001312440726063024782_);fill:#B4B4B4;" points="351.9,1089.4 
			325.6,1139.2 322.9,1137.8 348,1087.4 		"/>
		<polygon style="clip-path:url(#SVGID_00000049924252926075766280000001312440726063024782_);fill:#B4B4B4;" points="335.4,1089.4 
			306.5,1139.4 304,1138 331.9,1087.4 		"/>
		<polygon style="clip-path:url(#SVGID_00000049924252926075766280000001312440726063024782_);fill:#B4B4B4;" points="319,1089.4 
			287.5,1139.6 285.1,1138.2 315.7,1087.4 		"/>
		<polygon style="clip-path:url(#SVGID_00000049924252926075766280000001312440726063024782_);fill:#B4B4B4;" points="302.5,1089.3 
			268.4,1139.8 266.3,1138.4 299.6,1087.4 		"/>
		<polygon style="clip-path:url(#SVGID_00000049924252926075766280000001312440726063024782_);fill:#B4B4B4;" points="286,1089.3 
			249.4,1140 247.4,1138.6 283.5,1087.4 		"/>
		<polygon style="clip-path:url(#SVGID_00000049924252926075766280000001312440726063024782_);fill:#B4B4B4;" points="269.6,1089.2 
			230.3,1140.1 228.5,1138.8 267.3,1087.5 		"/>
		<polygon style="clip-path:url(#SVGID_00000049924252926075766280000001312440726063024782_);fill:#B4B4B4;" points="253.1,1089.1 
			211.2,1140.3 209.6,1139 251.2,1087.5 		"/>
		<polygon style="clip-path:url(#SVGID_00000049924252926075766280000001312440726063024782_);fill:#B4B4B4;" points="236.7,1089 
			192.2,1140.4 190.8,1139.2 235,1087.6 		"/>
		<polygon style="clip-path:url(#SVGID_00000049924252926075766280000001312440726063024782_);fill:#B4B4B4;" points="220.2,1088.9 
			173.1,1140.6 171.9,1139.5 218.9,1087.6 		"/>
		<polygon style="clip-path:url(#SVGID_00000049924252926075766280000001312440726063024782_);fill:#B4B4B4;" points="203.8,1088.8 
			154,1140.7 153,1139.7 202.7,1087.7 		"/>
		<polygon style="clip-path:url(#SVGID_00000049924252926075766280000001312440726063024782_);fill:#B4B4B4;" points="187.4,1088.7 
			135,1140.8 134.2,1140 186.5,1087.8 		"/>
		<polygon style="clip-path:url(#SVGID_00000049924252926075766280000001312440726063024782_);fill:#B4B4B4;" points="171,1088.6 
			115.9,1140.9 115.3,1140.3 170.3,1087.9 		"/>
		<polygon style="clip-path:url(#SVGID_00000049924252926075766280000001312440726063024782_);fill:#B4B4B4;" points="154.6,1088.4 
			96.8,1141 96.4,1140.6 154.1,1088 		"/>
		<g style="clip-path:url(#SVGID_00000049924252926075766280000001312440726063024782_);">
			<defs>
				<rect id="SVGID_00000055697452507199336010000001981362309074217860_" width="960" height="1200"/>
			</defs>
			<clipPath id="SVGID_00000167385155512237724730000013253052351789596042_">
				<use xlink:href="#SVGID_00000055697452507199336010000001981362309074217860_"  style="overflow:visible;"/>
			</clipPath>
			<path style="clip-path:url(#SVGID_00000167385155512237724730000013253052351789596042_);fill:#B4B4B4;" d="M138.2,1088.3
				l-60.4,52.8l-0.2-0.2C77.8,1141,138,1087.3,138.2,1088.3"/>
		</g>
		<polygon style="clip-path:url(#SVGID_00000049924252926075766280000001312440726063024782_);fill:#B4B4B4;" points="827,1083 
			874.3,1133 818.2,1093.3 		"/>
		<polygon style="clip-path:url(#SVGID_00000049924252926075766280000001312440726063024782_);fill:#B4B4B4;" points="826.6,1067.4 
			874.9,1112.8 874.6,1113.3 818.7,1077.5 		"/>
		<polygon style="clip-path:url(#SVGID_00000049924252926075766280000001312440726063024782_);fill:#B4B4B4;" points="826.1,1051.7 
			875.5,1092.6 874.8,1093.6 819.1,1061.8 		"/>
		<polygon style="clip-path:url(#SVGID_00000049924252926075766280000001312440726063024782_);fill:#B4B4B4;" points="825.6,1036.1 
			876,1072.5 875.2,1073.9 819.6,1046 		"/>
		<polygon style="clip-path:url(#SVGID_00000049924252926075766280000001312440726063024782_);fill:#B4B4B4;" points="825.1,1020.5 
			876.5,1052.3 875.6,1054.2 820.1,1030.2 		"/>
		<polygon style="clip-path:url(#SVGID_00000049924252926075766280000001312440726063024782_);fill:#B4B4B4;" points="824.7,1004.9 
			877,1032.2 876,1034.4 820.5,1014.3 		"/>
		<polygon style="clip-path:url(#SVGID_00000049924252926075766280000001312440726063024782_);fill:#B4B4B4;" points="824.2,989.4 
			877.4,1012.1 876.4,1014.7 821,998.5 		"/>
		<polygon style="clip-path:url(#SVGID_00000049924252926075766280000001312440726063024782_);fill:#B4B4B4;" points="823.8,973.9 
			877.7,992 876.9,994.9 821.4,982.6 		"/>
		<polygon style="clip-path:url(#SVGID_00000049924252926075766280000001312440726063024782_);fill:#B4B4B4;" points="823.4,958.4 
			878.1,971.9 877.4,975.1 821.8,966.6 		"/>
		<polygon style="clip-path:url(#SVGID_00000049924252926075766280000001312440726063024782_);fill:#B4B4B4;" points="823.1,943 
			878.4,951.9 878,955.2 822.1,950.6 		"/>
		<polygon style="clip-path:url(#SVGID_00000049924252926075766280000001312440726063024782_);fill:#B4B4B4;" points="822.8,927.6 
			878.7,932 878.5,935.3 822.5,934.6 		"/>
		<polygon style="clip-path:url(#SVGID_00000049924252926075766280000001312440726063024782_);fill:#B4B4B4;" points="822.5,912.2 
			879,912 879.1,915.4 822.7,918.6 		"/>
		<polygon style="clip-path:url(#SVGID_00000049924252926075766280000001312440726063024782_);fill:#B4B4B4;" points="822.3,896.8 
			879.3,892.1 879.6,895.4 822.9,902.6 		"/>
		<polygon style="clip-path:url(#SVGID_00000049924252926075766280000001312440726063024782_);fill:#B4B4B4;" points="822.2,881.4 
			879.6,872.3 880.2,875.4 823.1,886.5 		"/>
		<polygon style="clip-path:url(#SVGID_00000049924252926075766280000001312440726063024782_);fill:#B4B4B4;" points="822.1,866.1 
			880,852.5 880.7,855.4 823.2,870.5 		"/>
		<polygon style="clip-path:url(#SVGID_00000049924252926075766280000001312440726063024782_);fill:#B4B4B4;" points="822,850.7 
			880.3,832.7 881.2,835.3 823.2,854.4 		"/>
		<polygon style="clip-path:url(#SVGID_00000049924252926075766280000001312440726063024782_);fill:#B4B4B4;" points="822,835.4 
			880.7,812.9 881.6,815.2 823.2,838.4 		"/>
		<polygon style="clip-path:url(#SVGID_00000049924252926075766280000001312440726063024782_);fill:#B4B4B4;" points="822.1,820 
			881.2,793.2 882,795.1 823.2,822.3 		"/>
		<polygon style="clip-path:url(#SVGID_00000049924252926075766280000001312440726063024782_);fill:#B4B4B4;" points="822.2,804.6 
			881.6,773.4 882.4,774.9 823.1,806.3 		"/>
		<polygon style="clip-path:url(#SVGID_00000049924252926075766280000001312440726063024782_);fill:#B4B4B4;" points="822.3,789.2 
			882.2,753.7 882.8,754.7 822.9,790.3 		"/>
		<polygon style="clip-path:url(#SVGID_00000049924252926075766280000001312440726063024782_);fill:#B4B4B4;" points="822.4,773.8 
			882.7,734 883.1,734.6 822.8,774.3 		"/>
		<g style="clip-path:url(#SVGID_00000049924252926075766280000001312440726063024782_);">
			<defs>
				<rect id="SVGID_00000124883121118784904910000015046812381689063069_" width="960" height="1200"/>
			</defs>
			<clipPath id="SVGID_00000147197033053702317310000008938676358774899646_">
				<use xlink:href="#SVGID_00000124883121118784904910000015046812381689063069_"  style="overflow:visible;"/>
			</clipPath>
			<path style="clip-path:url(#SVGID_00000147197033053702317310000008938676358774899646_);fill:#FFFFFF;" d="M752.4,1012l-0.7,0.5
				c2,2.1,1.9,3.4,0.1,6.6l0.6,0.8c4.2-4.7,5.6-4.3,3,2.4l1-0.4c2.5-2.4,3.7-3.3,6.4-3.1l0.7-0.6c-2.5-2.5-2.6-3.9-0.7-7.4l-0.6-0.6
				c-4.9,5.3-5.8,4-3.1-1.7l-0.9,0.3C756,1011.1,754.7,1011.8,752.4,1012 M749.3,1020.8l0.5-0.5c-2.7-2.4-1.5-5.4,1-9l-0.6-0.5
				c-2.9,4.1-5.9,5.7-7.9,5.7c-5.5,0,4.7-15.6,7.4-15.6c1.3,0,1.4,2.9-2.9,9.1l0.6,0.4c4.5-5.3,6.7-9.6,9.1-16.3l-0.6-0.5
				c-3.4,4.8-5.6,4.5-3.3-2l-0.7-0.4c-3.3,6.9-9.5,16.1-10.8,16.1c-1.5,0,3.9-10.5,8.3-16.2l-0.5-0.6c-6.2,5.4-7.4,3.9-7.3,0.8
				c-1.6,2.1-3.9,4.1-6.4,6.9l0.4,0.6c3.7-3.4,5.8-2.3,4.8,0.3c-0.5,1.8-2.6,4.2-6.2,3.7l-0.2,0.7c5,1.7,5,3.9-3.9,11.9l0.4,0.6
				c9.7-8,7.5-1.1-0.9,3.8l0.3,0.6c4.9-3.2,10.2-3.5,5.9,0.9l0.4,0.6C740.6,1019,746,1019,749.3,1020.8 M712.2,1012.1
				c0.5-2,1.2-2.5,3.7-0.9l0.3-0.7c-3.3-2.3-2.5-4.5,4-11.1l-0.6-0.5c-4.3,4.6-5.8,5.5-6.4,5.5c-2,0,2.3-7.9,9.1-7.9
				c2.5,0,4.1,2.2,3.4,5c-0.3,1.4-1.5,1.8-4.5,0.6l-0.4,0.7c3,1.7,2.9,2.9-3.7,10.8l0.6,0.4c4.1-4.4,5.7-5.8,6.4-5.8
				c2.8,0-1,8.9-8.3,8.9C713.1,1017,711.5,1014.5,712.2,1012.1 M710.9,992.7l-0.6,0.3c2.1,6,1.6,11.3-4.8,9.7l-0.2,0.7
				c4.7,1.8,4,4.3-2.6,10.9l0.4,0.6c7.3-7,8.5-2.5,2.3,4l0.4,0.6c4.7-2.4,8.3-0.1,8.6,3.2l0.6,0.4c6.6-7.2,9.4-7.6,12.2-2.4l0.7-0.3
				c-2.3-5.5-2.1-11.4,4.5-9.9l0.2-0.7c-4.9-1.8-4.4-4.1,3.2-11.2l-0.4-0.6c-7.2,6.6-9.7,3.8-2.3-3l-0.4-0.6
				c-4.9,2.1-9.4,0.3-8.6-3.4l-0.5-0.4C715.4,998.1,713.6,998.5,710.9,992.7 M700.5,1020.8l0.5-0.5c-2.7-2.4-1.5-5.4,1-9l-0.6-0.5
				c-2.9,4.1-5.9,5.7-7.9,5.7c-5.5,0,4.7-15.6,7.4-15.6c1.3,0,1.4,2.9-2.9,9.1l0.6,0.4c4.5-5.3,6.7-9.6,9.1-16.3l-0.6-0.5
				c-3.4,4.8-5.6,4.5-3.3-2l-0.7-0.4c-3.3,6.9-9.5,16.1-10.8,16.1c-1.5,0,3.9-10.5,8.3-16.2l-0.5-0.6c-6.2,5.4-7.4,3.9-7.3,0.8
				c-1.6,2.1-3.9,4.1-6.4,6.9l0.4,0.6c3.7-3.4,5.8-2.3,4.8,0.3c-0.5,1.8-2.6,4.2-6.2,3.7l-0.2,0.7c5,1.7,5,3.9-3.9,11.9l0.4,0.6
				c9.7-8,7.5-1.1-0.9,3.8l0.3,0.6c4.9-3.2,10.2-3.5,5.9,0.9l0.4,0.6C691.7,1019,697.2,1019,700.5,1020.8 M680,1020.8l0.5-0.5
				c-2.7-2.4-1.5-5.4,1-9l-0.6-0.5c-2.9,4.1-5.9,5.7-7.9,5.7c-5.5,0,4.7-15.6,7.4-15.6c1.3,0,1.4,2.9-2.9,9.1l0.6,0.4
				c4.5-5.3,6.7-9.6,9.1-16.3l-0.6-0.5c-3.4,4.8-5.6,4.5-3.3-2l-0.7-0.4c-3.3,6.9-9.5,16.1-10.8,16.1c-1.5,0,3.9-10.5,8.3-16.2
				l-0.5-0.6c-6.2,5.4-7.4,3.9-7.3,0.8c-1.6,2.1-3.9,4.1-6.4,6.9l0.4,0.6c3.7-3.4,5.8-2.3,4.8,0.3c-0.5,1.8-2.6,4.2-6.2,3.7
				l-0.2,0.7c5,1.7,5,3.9-3.9,11.9l0.4,0.6c9.7-8,7.5-1.1-0.9,3.8l0.3,0.6c4.9-3.2,10.2-3.5,5.9,0.9l0.4,0.6
				C671.2,1019,676.6,1019,680,1020.8 M642.8,1012.1c0.5-2,1.2-2.5,3.7-0.9l0.3-0.7c-3.3-2.3-2.5-4.5,4-11.1l-0.6-0.5
				c-4.3,4.6-5.8,5.5-6.4,5.5c-2,0,2.3-7.9,9.1-7.9c2.5,0,4.1,2.2,3.4,5c-0.3,1.4-1.5,1.8-4.5,0.6l-0.4,0.7c3,1.7,2.9,2.9-3.7,10.8
				l0.6,0.4c4.1-4.4,5.7-5.8,6.4-5.8c2.8,0-1,8.9-8.3,8.9C643.7,1017,642.1,1014.5,642.8,1012.1 M641.5,992.7l-0.6,0.3
				c2.1,6,1.6,11.3-4.8,9.7l-0.2,0.7c4.7,1.8,4,4.3-2.6,10.9l0.4,0.6c7.3-7,8.5-2.5,2.3,4l0.4,0.6c4.7-2.4,8.3-0.1,8.6,3.2l0.6,0.4
				c6.6-7.2,9.4-7.6,12.2-2.4l0.7-0.3c-2.3-5.5-2.1-11.4,4.5-9.9l0.2-0.7c-4.9-1.8-4.4-4.1,3.2-11.2l-0.4-0.6
				c-7.2,6.6-9.7,3.8-2.3-3l-0.4-0.6c-4.9,2.1-9.4,0.3-8.6-3.4l-0.5-0.4C646,998.1,644.3,998.5,641.5,992.7 M622.2,1007l0.4-1
				c-7.1-2.5-6.4-4-1.8-3.2c6.4,1,5.8,3-5.1,11.9l0.6,0.8c10.4-8.5,11.6-5-2.5,5.1l0.4,0.9c9.3-6.1,11.2-5.1,5.9,0.3l0.5,0.8
				c4.3-3.7,7.9-4,11.9-2.9l0.5-1c-2.5-1.3-3.5-2.6,0.4-7.7l-0.8-0.6c-2.8,4.1-4.8,6.1-5.4,6.1c-1.7,0,1.5-9.5,6-9.4l0.3-0.9
				c-6.1-2.2-4.9-4.7,6.5-17l-0.7-0.6c-10.9,11.3-6.1,1.2,1.4-4.1l-0.3-0.7c-7.2,4.7-9.5,2.5-6.2-0.7l-0.5-0.8
				c-3.8,3-6,3.5-10.6,3.1l-0.3,0.9c3.2,0.4,2.7,2-1.8,7.1l0.8,0.6c6.8-8.2,9.9-7.1,6.3,2.1c-0.7-1-1.4-2.4-2.2-3.9l-0.7,0.3
				c3.2,8.7,1.9,9.6-10.6,4.8l-0.3,0.7c7.5,2.5,6.5,3.6,3,2.9c-7-1-7.1-1.7,3.6-11.1l-0.7-0.6c-10.3,9.6-7.7,2.4,1.4-4.5l-0.4-0.9
				c-8.5,4.6-9.5,2.5-6.2-0.7l-0.5-0.8c-3.9,3.1-5.8,3.5-10.6,3.1l-0.3,0.9c3.2,0.5,2.6,2.1-1.8,6.8l0.7,0.7c7.1-7.7,10-7,6.4,2.3
				c-0.6-0.9-1.4-2.4-2.2-3.9l-1,0.4c3,8.1,2.3,10.4-2.7,9.8l-0.2,1c4.7,1.3,4.4,3.2-6,11.9l0.6,0.8c10.2-9.5,11.6-5.4-2.8,4.8
				l0.4,0.9c9.6-6.2,11.3-5.1,5.9,0.3l0.5,0.8c4.4-3.7,7.5-3.9,11.9-3.1l0.4-0.9c-2.6-1.4-2.5-3.1,1.8-8.6l-0.8-0.6
				c-3.9,5.4-5.2,6.5-6.1,6.4c-2.1-0.1,0.4-10,5.4-8.8l0.4-0.9C608.3,1004.6,609.4,1001.6,622.2,1007 M579.6,1011.1l-0.6-0.5
				c-8.4,9.3-7.4,0.5,2.5-10.1l-0.6-0.4c-4.3,4.8-6.4,6.3-7.1,6.3c-2.5,0,3.2-9.5,8-9.5c1.7,0,2.7,1.2,2.7,3.4c0,1.9-1.2,4.6-4.4,9
				l0.6,0.4c3.6-3.4,6.2-5.9,9-8.9c-4.1,0-4.7-2.6,3-3.2V997c-5.6-0.7-8.5-1.9-9.6-5.8l-0.7-0.4c-5.4,6.5-8.5,7.7-11.3,1.9l-0.6,0.3
				c1.8,5.4,2.5,11.1-4,9.6l-0.2,0.7c4.1,1.8,3.7,4.5-3,11l0.5,0.5c7.1-6.6,9.3-4,2.2,2.9l0.4,0.6c4.3-2.1,7.8-0.3,8.8,4.4l0.7,0.4
				c3-4.7,6.4-5.4,12.8-6.8l-0.2-0.8c-4,0.8-5,0-2.4-7.2l-0.7-0.2C580.3,1018.4,571.7,1022.2,579.6,1011.1 M559.4,983.6
				c1.8,1.7,1.7,2.9,0.1,5.6l0.5,0.7c3.7-4,4.9-3.7,2.7,2l0.8-0.3c2.1-2.1,3.2-2.8,5.5-2.6l0.6-0.5c-2.2-2.1-2.3-3.4-0.6-6.3
				l-0.5-0.6c-4.2,4.6-4.9,3.7-2.9-1.3l-0.8,0.2c-1.6,2.2-2.6,2.7-4.9,2.7L559.4,983.6z M549.6,1019.6l0.3,0.6
				c6.2-3.8,9.4-2.7,5.1,0.8l0.4,0.6c3-2.3,4.9-2.5,7.4-2.1l0.2-0.7c-5-2.3-5.2-8.3,1-7.8l0.2-0.7c-4.8-0.8-5.7-2.6,2.5-9.9
				l-0.4-0.6c-8.6,6.8-4.6-1.1,2.6-9.2l-0.6-0.5c-6.3,5.6-7.4,4.1-7,1.3c-1.7,2-5.6,5.2-6.6,6.6l0.3,0.5c4.1-4,5.1-1.5,4,0.9
				c-0.8,1.9-2.7,3.7-5.4,3.2l-0.2,0.7c5.2,1.4,3.6,4.6-4.3,11.8l0.4,0.6C559.2,1007,557,1014.6,549.6,1019.6 M516.9,1005.6
				c-1.3,0,1.3-6.2,8.3-14.8l-0.6-0.5c-6.2,5.9-7.6,4.2-7.4,1.1c-1.6,2.1-4,4.1-6.5,6.9l0.4,0.6c7.5-7.1,5.9,5.3-1.3,4l-0.3,0.7
				c4.6,1.7,5.4,4.1-4,11.6l0.4,0.6c8.9-7.5,7.4-0.8-0.5,3.9l0.3,0.6c5.7-3.7,9.8-2.9,6,0.8l0.4,0.6c3.1-2.4,4.9-2.8,8.4-2.1
				l0.3-0.7c-1.9-0.7-1.4-2.2,1.3-5.7l-0.5-0.4c-1.5,1.4-3.1,2.2-4.6,2.2c-5.9,0,6.3-16.5,10.9-16.5c1.1,0,1.6,0.7,1.6,2.3
				c0,2.2-2,6-7.1,11.1l0.6,0.4c3.4-3.4,4.2-4.2,4.9-4.2c1.4,0-2,7.7-7.6,11.9l0.4,0.6c6.1-4.5,9.4-3.1,5.5,0.5l0.3,0.6
				c3.4-2.5,5.7-3,9.2-2.2l0.3-0.7c-2-0.7-1.5-2.2,1.2-5.6l-0.6-0.4c-1.4,1.3-3,2.1-4.5,2.1c-5.8,0,6.4-16.5,10.9-16.5
				c1.1,0,1.6,0.7,1.6,2.2c0,2.4-2.1,6.3-7.2,11.3l0.6,0.4c4.6-4.7,5.3-5.2,6-5.2c1.4,0-2.3,7.8-8.6,12.9l0.4,0.6
				c5.5-3.9,9.8-4,4.9,1.2l0.4,0.6c2.8-2.6,5.2-2.9,8.4-1.9l0.4-0.8c-5.1-4.3-6.2-9.1-0.2-7.8l0.2-0.7c-4-1.3-4.1-2.5,3.4-8.2
				l-0.4-0.6c-6.3,4.1-3.7-2,2-8l-0.5-0.6c-9,9.5-12,5.2-1.9-1.2l-0.3-0.7c-5.4,3.2-9.5,3.8-10,1l-0.8-0.1
				c-4.5,8.1-7.6,11.6-8.7,11.6c-0.8,0-1.1-2.4,5.5-9.5l-0.5-0.5c-7.2,7.7-10.2,4.5-0.3-2.1l-0.3-0.7c-5.4,3.6-9.7,4.2-10.2,1.3
				l-0.8-0.1C523.4,998.2,518,1005.6,516.9,1005.6 M495.1,1022.7c3.4-3.5,6.8-5,10.3-2.9l0.4-0.6c-5.1-6-2.6-9.3,2.2-6.6l0.4-0.8
				c-3-1.8-4.1-3.5-7.8-12.3l-0.8,0.4c5.2,13-3.1,3.8-3.1-1.7c0-2,0.9-2.8,2.5-2.8c2.4,0,6.3,3.3,6.4,10l0.8,0.1
				c0.3-3.7,1.2-6.7,1.9-8.2c-4-1.3-4.9-3.1,2.5-2.4l0.2-0.8c-6.2-0.5-8.5-1.2-10.1-3.2c-3.3,3.3-7.1,5.3-11.5,5.9l-0.1,0.7
				c4.3,1.9,5.3,6.8-0.8,6.2l0,0.7c4.3,1.2,4.7,2.9,7.5,10l0.8-0.4c-5.6-15.5,3.6-3.4,3.4,0.8c0,1.9-1,3.3-3.5,3.2
				c-3.2-0.2-6.5-3.9-6.3-10l-0.7-0.2l-2.6,7.1c3.8,2.6,4,3.9-1.8,3.3l0,0.8C490.8,1019.3,494,1020.4,495.1,1022.7 M466.9,1012.1
				c0.5-2,1.2-2.5,3.7-0.9l0.3-0.7c-3.3-2.3-2.5-4.5,4-11.1l-0.6-0.5c-4.3,4.6-5.8,5.5-6.4,5.5c-2,0,2.3-7.9,9.1-7.9
				c2.5,0,4.1,2.2,3.4,5c-0.3,1.4-1.5,1.8-4.5,0.6l-0.4,0.7c3,1.7,2.9,2.9-3.7,10.8l0.6,0.4c4.1-4.4,5.7-5.8,6.4-5.8
				c2.8,0-1,8.9-8.3,8.9C467.8,1017,466.3,1014.5,466.9,1012.1 M465.6,992.7L465,993c2.1,6,1.6,11.3-4.8,9.7l-0.2,0.7
				c4.7,1.8,4,4.3-2.6,10.9l0.4,0.6c7.3-7,8.5-2.5,2.3,4l0.4,0.6c4.7-2.4,8.3-0.1,8.6,3.2l0.6,0.4c6.6-7.2,9.4-7.6,12.2-2.4l0.7-0.3
				c-2.3-5.5-2.1-11.4,4.5-9.9l0.2-0.7c-4.9-1.8-4.4-4.1,3.2-11.2L490,998c-7.2,6.6-9.7,3.8-2.3-3l-0.4-0.6
				c-4.9,2.1-9.4,0.3-8.6-3.4l-0.5-0.4C470.2,998.1,468.4,998.5,465.6,992.7 M454.3,995.9l0.8-0.7c-2.8-4.8-2.5-6.1-1-6.3
				c2-0.4,4.8,3.4,3.2,11.3l0.9,0.3c1.9-7.1,3.5-10.7,5.9-14l-0.8-0.6c-8.2,4.5-8.8,1.6-1.6-3.1l-0.5-0.9c-9.9,5.7-13.9,4.9-8.9,0.9
				l-0.6-0.8c-4.3,2.4-8.7,4.1-13.7,5.3l0.2,1c9.5-2.4,3.2,3.3-4.7,3.5l-0.3,1c6.2,1.4,2.3,11-4,9.8l-0.1,0.9
				c4.4,1.6,4.9,2.9-0.1,13l0.9,0.3c4-7.8,5.9-5.4,3.5,1.8c7.7-1.2,9.1-0.3,1.3,4l0.5,0.9c10.3-5.4,14.2-4.6,9.9-0.7l0.6,0.8
				c3.9-2.8,7.1-3.7,11.7-4.3l-0.2-0.9c-4.9,0.4-6.4,0-6.3-0.7c0.1-0.8,3.2-1.6,7.1-0.9l0.5-0.9c-2.2-0.4-2.3-2.3,1.7-10.1l-1-0.4
				c-4.6,9.2-8.5,12.1-7.2,3.6l-0.9-0.2c-2.1,9-3.1,9.9-10.4,0.3l-0.7,0.7c4.9,6.1,3.9,6.6,2.5,6.6c-4.6,0-8.5-14.7-0.4-7.5l0.5-0.8
				c-6.2-4.9-5.1-9.7,6-7.7l0.1-1c-12.4-2.1-8.6-7.5-4.1-9C448.7,988.7,450.6,989.7,454.3,995.9 M397,1007.1
				c0-7.4,3.3-11.2,7.2-11.1c3.3,0,6.8,2.9,6.8,10.5c0,7.4-3.4,11.2-7.3,11.1C400.4,1017.6,397,1014.8,397,1007.1 M402.8,1020.4
				c7.6,0,13-6.2,13-14.8c0-7.4-4.2-12.3-10.8-12.3c-7,0-12.9,5.7-12.9,14.8C392.1,1016,396.3,1020.4,402.8,1020.4 M380.6,1020.5
				c3.7,0,6.6-1.9,8.2-5.9l-0.2-0.2c-1.3,1.3-3.2,2.3-5.3,2.3c-2.7,0-4.1-1.4-4.1-4.6v-14.5h9.4v-3.1l-9.4,0v-7.9l-0.6,0l-3.8,7.9
				l-5,2.6v0.6h5v15.9C374.7,1018.1,377,1020.5,380.6,1020.5 M344.4,1005.2c-2.5,0,4.2-8.8,8.3-8.8c6.2,0-3.2,10.8-5.8,10.8
				c-0.9,0-0.6-1.7,2.4-5.5l-0.6-0.4C346.1,1004.4,345,1005.2,344.4,1005.2 M343.5,1014.2c0-2.4,5.8-7.2,7.9-7.2
				c0.7,0,0.8,0.9-0.6,2.7l0.7,0.5c3.1-2.5,7.3-5.8,9.3-9.4c-4.8,0-4.6-2.7,1.2-3.3v-0.7c-3.1-1.2-6.7-2.9-9.3-4.6l-0.5-0.3
				c-6.2,5.7-7.9,6.2-10.5,1.6l-0.6,0.3c1.4,5,1.6,10.4-3.6,9.3l-0.2,0.7c3.3,1.4,3,4.5-2.3,9.7l0.5,0.5c5-4.4,6.4-0.3,2,3.8
				l0.4,0.6c2.9,0.2,6.1,1.1,8.4,2.7l0.6,0.4c3.3-2.9,6.6-3.7,10.9-4.9l-0.1-0.9c-1.4,0.1-2.7-2-1.7-6.4l-0.7-0.2
				c-2.4,4.8-5.6,8.2-7.9,8.2c-1.2,0-1.5-1.3,1.5-4.3l-0.7-0.5C345.1,1015.9,343.5,1015.6,343.5,1014.2 M321.6,1021.2
				c3.6-1.8,7.2-2.7,9.8-3l0.4-0.6c-3.1-2.5-1.4-6.9,2.1-5.3l0.4-0.8c-1.1-0.8-2.3-2.6-5.1-10l-0.8,0.4c1.9,7.5-3.8,1.5-3.8-3.3
				c0-1.8,0.7-2.7,2.4-2.7c2.2,0,6.2,3.1,6.3,8.4l0.8,0.1c0.6-2.2,1.7-5.6,2.2-7.1c-2.7-0.9-4.5-2.9,0.7-2.6l0.2-0.8
				c-3.4-0.1-6.3-0.8-8.7-1.9c-3.5,2.5-7,4.2-10.4,5.9l-0.1,0.7c2.4,1.4,2.3,5.1-0.3,5.2l0,0.7c2.6,1.1,2.9,3.3,5,8.1l0.8-0.4
				c-3.1-10.6,3.9-1.2,3.8,2.5c0,1.5-0.7,2.7-3.2,2.7c-2.6,0-5.9-3.7-6.4-8.6l-0.7-0.2l-2.7,6.1c2.6,1.8,2.8,3.4-0.9,3.1l-0.1,0.7
				C316,1018.7,320.1,1020,321.6,1021.2 M294.8,1016.3c-1.6,0-0.3-5.3,7.8-15.5l-0.5-0.5c-2.6,2.9-4.8,5.2-5.3,5.2
				c-0.1,0-0.2-0.2-0.2-0.5c0-3.6,4.5-8.3,8.4-8.3c1.8,0,3.1,0.5,3.6,1.3C306.4,1004.4,298.7,1016.3,294.8,1016.3 M316.7,996
				l-0.3-0.7c-6.7,3.7-7.9,0.7-2.3-1.9l-0.3-0.7c-3.4,0.8-5.7,0.3-7.4-0.6l-0.5-0.3c-8.2,7.2-10.3,7.2-12.7,2.2l-0.7,0.3
				c1.4,3.8,1.6,9.4-3.2,8.5l-0.2,0.7c2.8,1.3,3.9,3.6-3.3,11.7l0.5,0.5c5.9-5.4,6.8-4.2,1.9,2.5l0.5,0.5c2.5-1.4,6-0.1,7.2,1.8
				l0.4,0.7c3.7-5.7,7.4-10.7,8.5-10.7c0.8,0,0.9,4.4-3.8,8.8l0.4,0.6c3.8-0.9,7.6-1.4,9.6-1.5l0-0.8c-3.1-0.5-2.7-2.3,1.2-5.3
				l-0.4-0.6c-2.7,1.5-2.7-0.2-2.2-1.9c0.6-1.9,1.6-3.1,3.3-2.8l0.2-0.7C310.5,1004.6,311.4,999,316.7,996 M271.1,1005.2
				c-2.5,0,4.2-8.8,8.3-8.8c6.2,0-3.2,10.8-5.8,10.8c-0.9,0-0.6-1.7,2.4-5.5l-0.6-0.4C272.9,1004.4,271.8,1005.2,271.1,1005.2
				 M270.2,1014.2c0-2.4,5.8-7.2,7.9-7.2c0.7,0,0.8,0.9-0.6,2.7l0.7,0.5c3.1-2.5,7.3-5.8,9.3-9.4c-4.8,0-4.6-2.7,1.2-3.3v-0.7
				c-3.1-1.2-6.7-2.9-9.3-4.6l-0.5-0.3c-6.2,5.7-7.9,6.2-10.5,1.6l-0.6,0.3c1.4,5,1.6,10.4-3.6,9.3l-0.2,0.7c3.3,1.4,3,4.5-2.3,9.7
				l0.5,0.5c5-4.4,6.4-0.3,2,3.8l0.4,0.6c2.9,0.2,6.1,1.1,8.4,2.7l0.6,0.4c3.3-2.9,6.6-3.7,10.9-4.9l-0.1-0.9
				c-1.4,0.1-2.7-2-1.7-6.4l-0.7-0.2c-2.4,4.8-5.6,8.2-7.9,8.2c-1.2,0-1.5-1.3,1.5-4.3l-0.7-0.5
				C271.9,1015.9,270.2,1015.6,270.2,1014.2 M243.8,1004.2c-1.3,0,0.1-4.8,5.6-11.5l-0.6-0.5c-4.9,3.7-6.5,2.1-5.9-0.3
				c-3,2.1-5.2,4.3-6.7,6.4l0.5,0.5c5.8-5.3,4.9,4.8-0.3,4.2l-0.3,0.7c3.3,1.4,4.1,3.8-3.8,10.6l0.4,0.6c6.6-5.6,5,1-1.6,4.2
				l0.3,0.6c4-2.2,8.9-2.2,6.3,0.5l0.4,0.6c2.2-1.4,4.3-1.9,7.4-1.5l0.3-0.7c-1.3-0.2-0.7-2.1,1.4-4.9l-0.5-0.5
				c-0.9,0.7-2.2,1.4-3.6,1.4c-5.9,0,5.8-16.2,10.2-16.2c1.2,0,1.7,0.8,1.7,2.5c0,2.4-2,6.1-7,11l0.5,0.5c2.8-2.5,3.6-3.1,4.2-3.1
				c1.5,0-2.2,7.1-6.3,9.9l0.4,0.6c4.3-2.5,7.5-1.7,5,0.6l0.3,0.6c2-1.1,4.8-1.6,6.1-1.6l0.3-0.7c-3.4-4.2-2.8-7.5,0.7-7.2l0.2-0.7
				c-2.9-0.9-3.2-2,2.1-6.5l-0.4-0.6c-4.1,2.6-0.7-4.5,2.4-7.8l-0.5-0.5c-7.2,7.4-9,2.4-1.2-1.9l-0.3-0.7c-1.7,0.7-7.1,1.5-9.4,1.4
				l-0.8,0C249.7,997.2,245,1004.2,243.8,1004.2 M210.7,1003.1v-1c-3.5,0.4-1.5-2.9,5.7-11.4l-0.8-0.6c-7.8,8.6-5.3,1.4,2.1-4.4
				l-0.4-0.9c-5.5,1.8-9.4,1-7.1-0.1l-0.3-0.9c-2.8,1.4-4.7,2-7.6,1.6l-0.3,0.9c2,0.4,0.2,3.1-2,5.4l0.6,0.8
				c4.8-5.3,8.3-4.9,5.2,2.5c-0.5-0.5-1.1-1.4-1.5-2.3l-0.9,0.4c2.2,7.7,0.6,10-1.7,9.7l-0.3,0.9c1.8,1.3,1.4,3.9-2.5,12.2l0.8,0.3
				c2.9-5.7,4.6-5.6,3.9,1c5.9,0.7,5.2,1.5,1.1,4l0.5,0.8c7.5-3.8,9.7-3.4,8.3-1.4l0.5,0.8c2.9-1.5,6.2-2.5,10-3l-0.4-0.9
				c-6.1,0.9,2.2-5.9,6-4.9l0.4-0.9c-3.8-1.6-1-8.9,3-9.2l0.1-1c-3.5,0-3.2-3.2,3.8-10.5l-0.6-0.7c-7.5,8.2-2.7-1.8,2.1-4.3
				l-0.3-0.9c-5.2,1.6-8,0.9-6.3-0.2l-0.2-1c-2.8,1.4-5.1,2-8.1,1.6l-0.3,0.9c1.4,0.5,0.1,3-2,5.5l0.7,0.6c4.8-5.3,8.5-4.6,5.3,2.7
				c-0.5-0.5-1.1-1.4-1.5-2.3l-0.9,0.4c2.3,5.2,1.3,9.2-6.9,15.9l0.7,0.6c8.1-7.8,5.9,1.1,0.5,4c-3.7,2-6.7,0.4-9.2-3l-0.8,0.6
				c6.8,7.9-0.9,6.9-1.8-1.1C207.3,1006.8,208.1,1003.2,210.7,1003.1"/>
			<path style="clip-path:url(#SVGID_00000147197033053702317310000008938676358774899646_);fill:#FFFFFF;" d="M770.5,948.8
				c-2.5,0,4.2-8.8,8.3-8.8c6.2,0-3.2,10.8-5.8,10.8c-0.9,0-0.6-1.7,2.4-5.5l-0.6-0.4C772.2,948,771.1,948.8,770.5,948.8
				 M769.5,957.8c0-2.4,5.8-7.2,7.9-7.2c0.7,0,0.8,0.9-0.6,2.7l0.7,0.5c3.1-2.5,7.3-5.8,9.3-9.4c-4.8,0-4.6-2.7,1.2-3.3v-0.7
				c-3.1-1.2-6.7-2.9-9.3-4.6l-0.5-0.3c-6.2,5.7-7.9,6.2-10.5,1.6l-0.6,0.3c1.4,5,1.6,10.4-3.6,9.3l-0.2,0.7c3.3,1.4,3,4.5-2.3,9.7
				l0.5,0.5c5-4.4,6.4-0.3,2,3.8l0.4,0.6c2.9,0.2,6.1,1.1,8.4,2.7l0.6,0.4c3.3-2.9,6.6-3.7,10.9-4.9l-0.1-0.9
				c-1.4,0.1-2.7-2-1.7-6.4l-0.7-0.2c-2.4,4.8-5.6,8.2-7.9,8.2c-1.2,0-1.5-1.3,1.5-4.3l-0.7-0.5
				C771.2,959.5,769.5,959.2,769.5,957.8 M752.4,963.7l0.2,0.6c2.8-0.4,4.9-1.1,7.2-2.3l-0.2-0.7c-2.6,0.8-4-1.2-3.3-4.2
				c0.4-1.8,1.4-3.5,3.3-3.5l0.2-0.7c-2.5-1.1-3.2-3.7,3.2-8.5l-0.4-0.7c-4.1,3.2-2.7-3.5,2.4-7.4l-0.3-0.7
				c-3.9,2.4-1.9-4.7,3.9-10.1l-0.4-0.6c-5,3.7-8.2,2.4-7.6,0c-2.5,1.6-5,4-6.7,5.6l0.4,0.6c3.7-2.4,5.1-1.4,3.7,3.7
				c-1.3,4.9-1.9,6.2-3.7,3.1l-0.7,0.3c2.8,5.8,2.4,9.2-2,8.4l-0.2,0.8c3.9,1.3,3.2,3.3-3.3,9.5l0.5,0.6c4.9-4,4.6,0.9-2.4,5.1
				l0.2,0.7C753.1,961.2,754.6,962.3,752.4,963.7 M748.8,927.2l-0.3-0.7c-2.5,1.1-5.8,2.8-8.3,4.4c0.7,2.9-0.2,5-3.2,2l-0.6,0.5
				c3.6,3.6,2.2,5.8-3.3,4.2l-1.6,6.1l0.8,0.2c0.8-1.8,2-3.7,3.4-3.7c2.8,0,1.6,7.3-3.1,6.5l-0.2,0.7c4,1.5,3.4,4.7-1.8,8l0.4,0.6
				c4.5-2.4,2.6,1.2,0.1,4.3l0.5,0.6c2.4,0,4.9,2,7.3,4.2c3.4-1.9,6.2-2.8,8.8-3.6l0-0.8c-0.9-0.3-0.9-3.2,0.2-7.8l-0.7-0.3
				c-4.2,9.8-10.4,11.9-4.3,2.6l-0.6-0.4c-4.7,6.6-5.2,4.5-4.4,1.8c1.7-5.7,2.9-7.7,7.5-7.7l0.1-0.8c-8.5-0.1-3.3-7.9,0.8-7.9
				c1.6,0,3,0.4,3.5,3.3l1.1,0.2l1.6-6.2l-0.7-0.2c-8.9,1.3-10.8-0.2-3.7-4.1l-0.5-0.7C742.6,934.9,742.5,933,748.8,927.2
				 M709.4,958.8c2.1-6.3,10-18.3,14-18.3c1.6,0,0.2,5.3-8,15.6l0.6,0.4c2.6-2.9,5-5.2,5.5-5.2c0.1,0,0.2,0.2,0.2,0.5
				c0,3.6-4.4,8.3-8.2,8.3C711.7,960.1,710,959.7,709.4,958.8 M711.6,935.3c-1.4,5.2-1.7,5.6-4.3,2.7l-0.8,0.7
				c4,4.3,2.5,9.3-0.7,8.6l-0.2,0.7c1.3,0.6,2.9,1.8-3,7.5l0.4,0.6c5.5-4.9,4.1,2.6-2.6,5.8l0.2,0.8c5.5-1.3,9.1-0.4,11.3,1.8
				l0.7,0.7c8.1-7.5,10.1-7.1,12.4-2.2l0.7-0.3c-1.3-3.9-1.6-9.5,3.2-8.6l0.2-0.7c-2.8-1.3-3.8-3.7,3.4-11.8l-0.5-0.5
				c-5.9,5.5-6.5,3.7-1.6-3l-0.5-0.5c-2.2,0.6-5.6,0.4-7.1-1.2l-0.6-0.6c-3.7,5.7-7.7,10.6-8.7,10.6c-0.8,0-0.1-4.9,5.5-10.1
				l-0.5-0.8c-4.3,3-3.3-3.4,4.6-9.7l-0.5-0.7c-5.4,3.8-9.2,2.4-8.6,0c-2.4,1.6-4.7,3.5-6.7,5.6l0.5,0.7
				C711.2,928.9,713,930.2,711.6,935.3 M677.7,940.9l0.4,0.7c4.2-3.6,3.6,5.6-0.8,4.9l-0.2,0.7c3.7,1.3,3.3,4.4-3.2,11.7l0.5,0.5
				c5.8-5.4,6.4-3.7,1.5,3l0.5,0.6c2.5-1.4,6-0.6,7.4,1.2l0.6,0.8c4.2-6.5,7.4-10.7,8.5-10.7c0.8,0,0.8,4.4-3.9,8.8l0.4,0.6
				c4.4-1.1,7.6-1.4,9.6-1.5l0-0.8c-2.3,0-2.7-2.3,1.2-5.3l-0.4-0.6c-2.7,1.5-2.7-0.2-2.2-1.9c0.6-1.9,1.3-3.1,3.2-2.8l0.2-0.7
				c-2.5-2.6-1.3-7.7,3.9-11.6l-0.2-0.8c-3.8,1.2-7.4,0.7-8.6-1.7c-2.1,1.8-3.8,3.4-5.4,5.5l0.6,0.4c2.1-1.9,4.4-1.2,4.4,1.2
				c0,4.5-8.6,16.1-12.9,16.1c-1.7,0-0.8-6.7,7-15.4l-0.6-0.5c-2.6,2.7-3.9,3.8-4.5,3.8c-1.1,0-0.5-3.7,5.4-10.9l-0.5-0.5
				c-4,3.7-5.9,2.1-5.3-0.2C682.2,937,679.7,938.8,677.7,940.9 M661,964.9c3.6-1.8,7.2-2.7,9.8-3l0.4-0.6c-3.1-2.5-1.4-6.9,2.1-5.3
				l0.4-0.8c-1.1-0.8-2.3-2.6-5.1-10l-0.8,0.4c1.9,7.5-3.8,1.5-3.8-3.3c0-1.8,0.7-2.7,2.4-2.7c2.2,0,6.1,3.1,6.3,8.4l0.8,0.1
				c0.6-2.2,1.7-5.6,2.2-7.1c-2.7-0.9-4.5-2.9,0.7-2.6l0.2-0.8c-3.4-0.1-6.3-0.8-8.7-1.9c-3.5,2.5-7,4.2-10.4,5.9l-0.1,0.7
				c2.4,1.4,2.3,5.1-0.3,5.2l0,0.7c2.6,1.1,2.9,3.3,5,8.1l0.8-0.4c-3.1-10.6,3.9-1.2,3.8,2.5c0,1.5-0.7,2.7-3.2,2.7
				c-2.6,0-5.9-3.7-6.4-8.6l-0.7-0.2l-2.7,6.1c2.6,1.8,2.8,3.4-0.9,3.1l-0.1,0.7C655.4,962.3,659.5,963.6,661,964.9 M615.9,962.4
				l0,0.6h11v-2.5h-0.4c-2,0-2.8-0.7-2.8-3.8v-12.4c1.7-1.9,4.3-3.3,6.3-3.3c3,0,4.7,1.3,4.7,5.4v8.2c0,5.6-0.9,6.5-3.4,7.8l0,0.6
				h11v-2.5h-0.4c-2,0-2.8-0.7-2.8-3.8v-12.5c0-4.9-2.5-7.3-6.3-7.3c-2.9,0-6.7,2-9.3,4.6c-0.8-3.1-3-4.6-6.1-4.6
				c-3,0-6.8,2-9.4,4.7v-4.9l-8,4.2l0.1,0.6l1.2-0.1c1.4-0.1,2.3,0.5,2.3,2.2v12.3c0,3.7-1.5,5.6-4.2,6.5l0,0.6h12.4v-2.6h-0.9
				c-2,0-2.9-1.1-2.9-3.9v-11.8c1.7-2.2,4.5-3.7,6.7-3.7c3,0,4.7,1.3,4.7,5.4v8.2C619.3,960.1,618.4,961.1,615.9,962.4 M576.6,950.8
				c0-7.4,3.3-11.2,7.2-11.1c3.3,0,6.8,2.9,6.8,10.5c0,7.4-3.4,11.2-7.3,11.1C580.1,961.3,576.6,958.4,576.6,950.8 M582.5,964
				c7.6,0,13-6.2,13-14.8c0-7.4-4.2-12.3-10.8-12.3c-7,0-12.9,5.7-12.9,14.8C571.7,959.6,575.9,964,582.5,964 M551,962.4l0,0.6h14.8
				v-2.5h-3.3c-2,0-2.9-1.4-2.9-4.2v-12.1c1-1.2,2.4-2,4-2c1.9,0,3,1.1,3.3,2.6h0.5c0.5-2.5,0.5-5.2-0.1-7.8c-3,0.2-6,2.3-7.7,4.6
				v-4.9l-8,4.2l0.1,0.6l1.2-0.1c1.4-0.1,2.3,0.5,2.3,2.2v12.3C555.2,959.5,553.7,961.5,551,962.4 M532.8,962.4l0,0.6h14.9v-2.6
				h-3.4c-2,0-2.9-1.1-2.9-3.9v-15.3h6.3V938l-6.3,0v-4.4c0-3.1,1.4-5,3.6-5c2.3,0,4.2,1.3,5.3,4h0.5c0.4-2.2,0.6-4.3,0.3-6.1
				c-1.1-0.5-2.5-0.8-4.3-0.8c-5.8,0-9.8,4.8-9.8,9.9v2.5l-4.8,2.5v0.6h4.8v15.2C537,959.5,535.3,961.4,532.8,962.4 M522.7,944.8
				c0.7-1.9,1.2-4.2,1.2-5.9c0-1.4-0.8-2.1-1.7-2.1c-1.3,0-4.4,2.7-9.3,9.8l-0.5,0l3.9-10.6l-9.5,4.7v0.5l1.1,0.2
				c2,0.4,2.6,1.4,2.1,3.4l-2.9,10.2c-1,3.6-3.5,6.4-6.2,7.3l0,0.6h11.1l2.7-2.3v-0.3h-2.8c-1.8,0-2.5-0.8-2.1-2.2l1.7-5.9
				c4.3-7.2,6.7-9.8,8-9.8c0.8,0,1.3,1.6,0.9,4.4l0.4,0.1L522.7,944.8z M483.1,957c0-8.1,5.4-16.9,9.8-16.9c1.7,0,3.1,0.6,3.9,1.5
				l-3.4,10.2c-5.2,5.4-8.1,7.9-9,7.9C483.5,959.7,483.1,959,483.1,957 M481.8,964.1c2.9,0,8.1-5.4,10.8-8.6h0.2l-2.9,8.8l9.9-3.7
				l-0.1-0.6l-1.8-0.1c-2.2-0.1-2.9-1.3-1.8-4.7l3.9-12.4c0.8-2.6,1.8-3.3,2.8-3.3V939c-1.9-1.2-4.7-2-7.4-2
				c-7.8,0-16.6,9.5-16.6,22.1C478.7,962.7,479.8,964.1,481.8,964.1 M461.9,952.2c1.4-6.3,5.8-12.1,9.2-12.1c1.2,0,1.9,0.7,1.9,2.2
				C473,946.3,468.5,950.2,461.9,952.2 M462.6,964.1c3.9,0,9.1-3.4,12.7-10.3l-0.5-0.4c-3.9,4.4-7.7,6.8-10.6,6.8
				c-1.9,0-2.8-1-2.8-4.1c0-0.3,0-0.7,0-1.1c8.2-2.1,16.2-9.7,16.2-14.8c0-2-1.3-3.3-4.1-3.3c-8.4,0-16.6,11.7-16.6,20.1
				C457,961.4,459.1,964.1,462.6,964.1 M440.4,956.6l2.9-10.6l4.2,0.1c2.5,0.1,3.3,1.3,2.9,5.3l0.4,0.1c1-1,1.9-2,2.6-3
				c0.4-1.9,0.7-4,0.8-5.7c-2.3,0.7-5,0.9-8,0.9H444l3.3-11.9h3.9c4.7,0,5.7,1.7,5,6.4l0.4,0.2c0.8-0.9,1.9-2.5,2.6-3.7
				c0.2-2,0.3-4,0.4-6.2c-3.2,0.4-5.1,0.7-9,0.7h-10l-2.8,2l0.1,0.6h2.9c1.7,0,2.3,0.9,1.5,3.5l-5.9,20.7c-1.1,3.7-3.3,5.3-7.2,6.3
				l0,0.8h13.6l2.7-2l0-0.6h-3.1C440.5,960.3,439.7,959.1,440.4,956.6 M416.6,937.2l-0.2,0.8l-5.6,2.7l-0.2,0.6h4.9l-4.9,18.5
				c-2.2,8.2-4.6,10.3-6.5,10.3c-1.8,0-2.9-1.3-2.6-4.5l-0.3-0.2c-1,1.2-2,2.4-2.7,3.5c-0.1,1.2-0.1,2.5,0,3.6
				c0.7,0.4,1.9,0.8,3.1,0.8c5.2,0,10.8-5.5,13-14.1l4.7-17.9h4.3l3.1-2.8V938h-6.5l0.7-2.7c1.1-3.9,3.3-5.8,4.8-5.8
				c1.6,0,2.4,1.2,2,4.2l0.3,0.1c1-0.8,2.2-2,2.9-3.1c0.3-1.5,0.4-2.8,0.4-4.8c-0.6-0.1-1.5-0.2-2.5-0.2
				C423.7,925.7,418.1,931.5,416.6,937.2 M390.9,955.1c0-7.4,4.5-14.8,8.9-14.8c2.4,0,3.6,1.6,3.6,5.7c0,7.4-4.5,14.8-9.1,14.8
				C392.2,960.8,390.9,959.2,390.9,955.1 M392.9,964c7.5,0,14.8-10.3,14.8-19.4c0-5.5-2.4-7.7-6.3-7.7c-7.5,0-14.8,10.3-14.8,19.4
				C386.6,961.8,389,964,392.9,964 M356.8,955.8c0-8,4.9-15.7,9.3-15.7c1.8,0,3.3,0.7,4.1,1.8l-2.7,9c-5.7,5.9-8.5,7.6-9.5,7.6
				C357.2,958.5,356.8,957.8,356.8,955.8 M352.7,968.9c0-1.6,1.2-4,2.8-6h0c2.9,0,8.1-4.8,10.8-8l0.3,0l-1.3,3.8l-0.7,2.7
				c-1.8,6.7-5.1,9.9-9.5,9.9C353.5,971.3,352.7,970.5,352.7,968.9 M352.5,974.1c7.8,0,14.3-5.8,16.2-13.6l3.4-13.2
				c1.5-5.9,2.5-6.9,4.2-8V939c-1.9-1.2-4.9-2-7.6-2c-7.8,0-16.2,8.3-16.2,20.9c0,2.4,0.5,3.8,1.3,4.6c-3.3,2.4-5.7,6.1-5.7,8.2
				C348.1,973,349.9,974.1,352.5,974.1 M342.9,947l-5,17.3l9.8-3.2l-0.1-0.7h-1.4c-2.6,0-3.4-1-2.2-4.7l3.1-9.7
				c1.3-4,1.7-5.5,1.7-6.9c0-1.6-0.8-2.3-2.2-2.3c-2.7,0-8.6,4.6-12.6,9h-0.3l3.5-9.8l-9.5,4.7v0.5l1.1,0.2c2,0.4,2.7,1.5,2.1,3.5
				l-3.1,10.1c-1.1,3.6-3.5,6.4-6.2,7.3l0,0.6h10.1l2.7-2.3v-0.3h-3.1c-1.2,0-1.5-0.3-1.1-1.6l2.8-9.4c5.1-4.9,9.1-8.1,10.4-8.1
				c0.5,0,0.8,0.3,0.8,1C344.1,943,343.7,944.2,342.9,947 M307.9,962.4l0,0.6h9.9l2.7-2.3v-0.3h-2.9c-1.2,0-1.5-0.3-1.1-1.6
				l7.1-22.8l-9.6,4.7v0.5l1.1,0.2c2,0.4,2.7,1.5,2.1,3.4l-3.6,11.1C312.6,959.6,310.6,961.5,307.9,962.4 M327.2,925.8h-4.4
				l-2.9,2.8l0.2,0.2l2.5,4.5C324.6,931.4,326.5,928.2,327.2,925.8 M290.9,957c0-8.1,5.4-16.9,9.8-16.9c1.8,0,3.2,0.6,4,1.7l-3,9.4
				c-5.5,5.8-8.6,8.5-9.6,8.5C291.2,959.7,290.9,959,290.9,957 M307.7,932.2l-1.6,5c-1-0.1-1.9-0.2-2.9-0.2
				c-7.8,0-16.6,9.5-16.6,22.1c0,3.7,1.1,5.1,3.1,5.1c2.9,0,8.2-5.4,10.8-8.6h0.2l-2.9,8.8l10.1-3.7l-0.1-0.6l-1.8-0.1
				c-2.2-0.1-2.9-1.3-1.8-4.7l9.4-30.1l-11,5.2v0.6h4.3C307.7,930.8,308,931.2,307.7,932.2 M282.6,932.6l-8.1,26.3l-1.6,5.3l9.9-3.2
				l-0.1-0.7h-1.4c-2.6,0-3.4-1-2.2-4.7l9.4-30.7l-10,5.6v0.6h3.4C282.7,931.2,282.9,931.7,282.6,932.6 M254.6,955.1
				c0-7.4,4.5-14.8,8.9-14.8c2.4,0,3.6,1.6,3.6,5.7c0,7.4-4.5,14.8-9.1,14.8C255.9,960.8,254.6,959.2,254.6,955.1 M256.7,964
				c7.5,0,14.8-10.3,14.8-19.4c0-5.5-2.4-7.7-6.3-7.7c-7.5,0-14.8,10.3-14.8,19.4C250.4,961.8,252.7,964,256.7,964 M243.5,937.2
				l-0.2,0.8l-5.6,2.7l-0.2,0.6h4.9l-4.9,18.5c-2.2,8.2-4.6,10.3-6.5,10.3c-1.8,0-2.9-1.3-2.6-4.5l-0.3-0.2c-1,1.2-2,2.4-2.7,3.5
				c-0.1,1.2-0.1,2.5,0,3.6c0.7,0.4,1.9,0.8,3.1,0.8c5.2,0,10.8-5.5,13-14.1l4.7-17.9h4.3l3.1-2.8V938H247l0.7-2.7
				c1.1-3.9,3.3-5.8,4.8-5.8c1.6,0,2.4,1.2,2,4.2l0.3,0.1c1-0.8,2.2-2,2.9-3.1c0.3-1.5,0.4-2.8,0.4-4.8c-0.6-0.1-1.5-0.2-2.5-0.2
				C250.6,925.7,245,931.5,243.5,937.2 M228.7,947l-5,17.3l9.8-3.2l-0.1-0.7h-1.4c-2.6,0-3.4-1-2.2-4.7l3.1-9.7
				c1.3-4,1.7-5.5,1.7-6.9c0-1.6-0.8-2.3-2.2-2.3c-2.7,0-8.6,4.6-12.6,9h-0.3l3.5-9.8l-9.5,4.7v0.5l1.1,0.2c2,0.4,2.7,1.5,2.1,3.5
				l-3.1,10.1c-1.1,3.6-3.5,6.4-6.2,7.3l0,0.6h10.1l2.7-2.3v-0.3H217c-1.2,0-1.5-0.3-1.1-1.6l2.8-9.4c5.1-4.9,9.1-8.1,10.4-8.1
				c0.5,0,0.8,0.3,0.8,1C229.8,943,229.5,944.2,228.7,947 M187.9,964.1c7.7,0,13.9-5.3,15.8-11.8l4.6-16.1c1.1-3.7,2.5-5.8,6-6.3
				v-0.8h-10.8l-2.8,2l0.1,0.6h2.9c1.8,0,2.3,0.9,1.3,4.2l-4.4,15.4c-1.8,6.4-6,9.8-11.3,9.8c-5.1,0-6.5-3.3-4.7-9.6l4.4-15.3
				c1.1-3.7,2.5-5.8,6-6.3l0-0.8h-11.3l-2.8,2l0.1,0.6h2.9c1.7,0,2.3,0.9,1.4,3.9l-5.3,18.6C178.1,960.3,181,964.1,187.9,964.1"/>
			<path style="clip-path:url(#SVGID_00000147197033053702317310000008938676358774899646_);fill:#FFFFFF;" d="M747.4,890.6l-5,17.2
				l9.9-3.2l-0.1-0.7h-1.4c-2.6,0-3.4-1-2.2-4.7l3.1-9.7c1.3-4,1.7-5.5,1.7-6.9c0-1.6-0.8-2.3-2.2-2.3c-2.7,0-8.6,4.6-12.8,9H738
				l2-4.4l5-16.4l-9.5,4.7v0.5l1.1,0.2c2,0.4,2.7,1.5,2.1,3.5l-6.6,21.1c-1.1,3.6-3.5,6.4-6.2,7.3l0,0.6h10.2l2.7-2.3V904h-3.2
				c-1.2,0-1.5-0.3-1.1-1.6l2.9-9.4c5-4.9,9-8.1,10.3-8.1c0.5,0,0.8,0.3,0.8,1C748.6,886.6,748.2,887.8,747.4,890.6 M716.7,907.7
				c4.1,0,8.5-3.6,8.5-7.6c0-1.6-0.9-3.6-1.8-5l-2.7-4c-0.7-1.1-1.5-2.6-1.5-4.1c0-2.3,2.2-3.4,4-3.4c2.6,0,3.2,1.9,2.9,6.3l0.6,0.1
				c0.8-0.8,1.7-1.7,2.4-2.6c0.4-2.1,0.5-4.5,0.6-6.3c-1.3-0.4-2.2-0.5-4.2-0.5c-4.2,0-9.9,3.7-9.9,8.4c0,1.6,0.7,3.5,1.6,4.9
				l2.8,4.2c0.8,1.2,1.3,2.3,1.3,3.5c0,1.7-1.2,3.2-3.5,3.2c-3.1,0-5.2-2.5-4.7-8.2h-0.5c-0.9,1.7-1.7,3.4-2.4,5.1
				c0,1.4,0.2,3.7,0.4,4.9C712.1,907.3,714,907.7,716.7,907.7 M695,906l0,0.6h9.9l2.7-2.3V904h-2.9c-1.2,0-1.5-0.3-1.1-1.6l7.1-22.8
				l-9.6,4.7v0.5l1.1,0.2c2,0.4,2.7,1.5,2.1,3.4l-3.6,11.1C699.8,903.2,697.8,905.1,695,906 M714.3,869.4h-4.4l-2.9,2.8l0.2,0.2
				l2.5,4.5C711.8,875.1,713.6,871.8,714.3,869.4 M698.6,888.5c0.7-1.9,1.2-4.2,1.2-5.9c0-1.4-0.8-2.1-1.7-2.1
				c-1.3,0-4.4,2.7-9.3,9.8l-0.5,0l3.9-10.6l-9.5,4.7v0.5l1.1,0.2c2,0.4,2.6,1.4,2.1,3.4l-2.9,10.2c-1,3.6-3.5,6.4-6.2,7.3l0,0.6
				h11.1l2.7-2.3V904h-2.8c-1.8,0-2.5-0.8-2.1-2.2l1.7-5.9c4.3-7.2,6.7-9.8,8-9.8c0.8,0,1.3,1.6,0.9,4.4l0.4,0.1L698.6,888.5z
				 M659,900.7c0-8.1,5.4-16.9,9.8-16.9c1.7,0,3.1,0.6,3.9,1.5l-3.4,10.2c-5.2,5.4-8.1,7.9-9,7.9C659.4,903.4,659,902.6,659,900.7
				 M657.7,907.7c2.9,0,8.1-5.4,10.8-8.6h0.2l-2.9,8.8l9.8-3.7l-0.1-0.6l-1.8-0.1c-2.2-0.1-2.9-1.3-1.8-4.7l3.9-12.4
				c0.8-2.6,1.8-3.3,2.8-3.3v-0.4c-1.9-1.2-4.7-2-7.4-2c-7.8,0-16.6,9.5-16.6,22.1C654.7,906.3,655.8,907.7,657.7,907.7 M625,906
				l0,0.6h10.2l2.7-2.3V904h-3.4c-1.2,0-1.5-0.3-1.1-1.6l2.9-9.4c5.1-4.9,9.1-8.1,10.4-8.1c0.5,0,0.8,0.3,0.8,1
				c0,0.7-0.3,1.9-1.2,4.7l-5,17.2l9.8-3.2l-0.1-0.7h-1.4c-2.6,0-3.4-1-2.2-4.7l3.1-9.7c1.3-4,1.7-5.5,1.7-6.9
				c0-1.6-0.8-2.3-2.2-2.3c-2.7,0-8.4,4.8-12.5,9.3l0-0.1h-0.2c1.5-3,2.1-5.2,2.1-6.9c0-1.6-0.8-2.3-2.2-2.3c-2.7,0-8.6,4.6-12.8,9
				h-0.3l3.6-9.8l-9.6,4.7v0.5l1.1,0.2c2,0.4,2.7,1.5,2.1,3.5l-3.1,10.1c-1.1,3.6-3.5,6.4-6.2,7.3l0,0.6h9.2l2.7-2.3V904h-2.1
				c-1.2,0-1.5-0.3-1.1-1.6l2.8-9.4c5.1-4.9,9.1-8.1,10.4-8.1c0.5,0,0.8,0.3,0.8,1c0,0.7-0.3,1.9-1.2,4.7l-2.5,8.6
				C630,902.6,627.6,905.1,625,906 M602.3,907.8c2.6,0,6.2-2.5,10.7-8.5l-0.4-0.5c-2.8,2.8-6.2,4.8-8,4.8c-0.8,0-1.2-0.4-1.2-1.2
				c0-0.7,0.2-1.5,0.6-2.6l4.5-14.7h5.3l3.1-2.8v-0.5h-7.4l2.8-9.3l-0.5,0l-6,9.3l-4.9,2.7v0.6h3.8l-5,16.5
				C598.6,905.3,599.5,907.8,602.3,907.8 M590.3,890.6l-5,17.2l9.9-3.2l-0.1-0.7h-1.4c-2.6,0-3.4-1-2.2-4.7l3.1-9.7
				c1.3-4,1.7-5.5,1.7-6.9c0-1.6-0.8-2.3-2.2-2.3c-2.7,0-8.6,4.6-12.8,9h-0.3l2-4.4l5-16.4l-9.5,4.7v0.5l1.1,0.2
				c2,0.4,2.7,1.5,2.1,3.5l-6.6,21.1c-1.1,3.6-3.5,6.4-6.2,7.3l0,0.6H579l2.7-2.3V904h-3.2c-1.2,0-1.5-0.3-1.1-1.6l2.9-9.4
				c5-4.9,9-8.1,10.3-8.1c0.5,0,0.8,0.3,0.8,1C591.5,886.6,591.1,887.8,590.3,890.6 M552.6,899.4c0-8,4.9-15.7,9.3-15.7
				c1.8,0,3.3,0.7,4.1,1.8l-2.7,9c-5.7,5.9-8.5,7.6-9.5,7.6C553,902.2,552.6,901.4,552.6,899.4 M548.4,912.5c0-1.6,1.2-4,2.8-6h0
				c2.9,0,8.1-4.8,10.8-8l0.3,0l-1.3,3.8l-0.7,2.7c-1.8,6.7-5.1,9.9-9.5,9.9C549.3,914.9,548.4,914.2,548.4,912.5 M548.3,917.8
				c7.8,0,14.3-5.8,16.2-13.6l3.4-13.2c1.5-5.9,2.5-6.9,4.2-8v-0.4c-1.9-1.2-5-2-7.6-2c-7.8,0-16.2,8.3-16.2,20.9
				c0,2.4,0.5,3.8,1.3,4.6c-3.3,2.4-5.7,6.1-5.7,8.2C543.9,916.6,545.7,917.8,548.3,917.8 M530,906l0,0.6h9.9l2.7-2.3V904h-2.9
				c-1.2,0-1.5-0.3-1.1-1.6l7.1-22.8l-9.6,4.7v0.5l1.1,0.2c2,0.4,2.7,1.5,2.1,3.4l-3.6,11.1C534.7,903.2,532.7,905.1,530,906
				 M549.3,869.4h-4.4l-2.9,2.8l0.2,0.2l2.5,4.5C546.7,875.1,548.6,871.8,549.3,869.4 M518.2,896.3l3.2,8.2c1.5,2,3.3,3.8,5.1,4.9
				l0.5-0.2l-2.4-6.3l0-0.1v0l6.2-22.3c1.2-4.1,3-5.8,7.1-6.8l0-0.8h-12.7l-2.7,2l0.1,0.6h2.9c2.4,0,3.5,1,2.8,3.7l-5,19.8
				l-7.7-20.3c-1-2.6-1.2-4.3-1.2-5.9h-8l-2.6,2l0.1,0.6h2.9c1.7,0,2.7,1.2,1.9,3.9l-5.8,20.2c-1.1,3.7-3.6,5.3-7.5,6.3l0.1,0.8
				h12.3l2.8-2l0-0.6h-3.4c-1.7,0-2.4-0.9-1.7-3.4l5.9-22L518.2,896.3z M469.5,889.5c1-3.8,3.3-6.2,6.1-6.2c3.1,0,4.7,2.5,4.7,6.2
				H469.5z M475.1,907.7c5.8,0,9.8-4.6,10.1-10.8l-0.5,0c-0.7,3.8-4.1,6.6-8,6.6c-4.9,0-7.7-3.1-7.7-9.6c0-0.6,0-1.2,0-1.7h16.1
				c0.4-7.2-3.1-11.5-8.6-11.5c-6.7,0-12.2,6.5-12.2,15C464.3,902.7,468.5,907.7,475.1,907.7 M432.4,906.1l0,0.6h12.4V904h-1
				c-2,0-2.9-1.1-2.9-3.9v-11.8c1.7-2.2,4.5-3.7,6.7-3.7c3,0,4.7,1.3,4.7,5.4v8.2c0,5.6-0.9,6.5-3.4,7.8l0,0.6h11v-2.5h-0.4
				c-2,0-2.8-0.7-2.8-3.8v-12.5c0-4.9-2.5-7.3-6.3-7.3c-3,0-6.8,2-9.4,4.7v-16.6l-9.8,4.9l0.1,0.5h2.7c1.8,0,2.6,0.5,2.6,2.1v24
				C436.7,903.2,434.9,905,432.4,906.1 M422.4,907.8c3.7,0,6.6-1.9,8.2-5.9l-0.2-0.2c-1.3,1.3-3.2,2.3-5.3,2.3
				c-2.7,0-4.1-1.4-4.1-4.6v-14.5h9.4v-3.1l-9.4,0v-7.9l-0.6,0l-3.8,7.9l-5,2.6v0.6h5v15.9C416.6,905.4,418.8,907.8,422.4,907.8
				 M389.2,907.7c5.3,0,8.9-4,8.9-8.1c0-3.2-1.4-5.3-4.8-7l-3.5-1.7c-2.1-1.1-3.2-2.3-3.2-4.4c0-1.8,1.4-3.1,3.7-3.1
				c2.5,0,5.4,2,6.6,6.3l0.3,0c0.4-2.9,0.2-6.3-0.3-8.2c-0.8-0.4-2.7-0.8-4.4-0.8c-5.5,0-9.9,3.7-9.9,8.6c0,2.6,1.6,4.4,3.7,5.5
				l3.4,1.7c2.8,1.4,3.7,2.8,3.7,4.9c0,2.4-1.5,3.7-3.8,3.7c-2.7,0-5.6-2.5-7.4-7.7l-0.2,0c-0.2,3.3-0.2,6.2,0.6,8.6
				C383.9,906.9,386.3,907.7,389.2,907.7 M361.6,889.5c1-3.8,3.3-6.2,6.1-6.2c3.1,0,4.7,2.5,4.7,6.2H361.6z M367.2,907.7
				c5.8,0,9.8-4.6,10.1-10.8l-0.5,0c-0.7,3.8-4.1,6.6-8,6.6c-4.9,0-7.7-3.1-7.7-9.6c0-0.6,0-1.2,0-1.7h16.1
				c0.4-7.2-3.1-11.5-8.6-11.5c-6.7,0-12.2,6.5-12.2,15C356.5,902.7,360.6,907.7,367.2,907.7 M335.7,906l0,0.6h14.8v-2.5h-3.3
				c-2,0-2.9-1.4-2.9-4.2v-12.1c1-1.2,2.4-2,4-2c1.9,0,3,1.1,3.3,2.6h0.5c0.5-2.5,0.5-5.2-0.1-7.8c-3,0.2-6,2.3-7.7,4.6v-4.9l-8,4.2
				l0.1,0.6l1.2-0.1c1.4-0.1,2.3,0.5,2.3,2.2v12.3C339.9,903.2,338.4,905.1,335.7,906 M313,894.4c0-7.4,3.3-11.2,7.2-11.1
				c3.3,0,6.8,2.9,6.8,10.5c0,7.4-3.4,11.2-7.3,11.1C316.4,904.9,313,902.1,313,894.4 M318.8,907.7c7.6,0,13-6.2,13-14.8
				c0-7.4-4.2-12.3-10.8-12.3c-7,0-12.9,5.7-12.9,14.8C308.1,903.3,312.2,907.7,318.8,907.7 M291.6,906.1l0,0.6h12.4V904h-1
				c-2,0-2.9-1.1-2.9-3.9v-31.6l-9.8,4.9l0.1,0.5h2.7c1.8,0,2.6,0.5,2.6,2.1v24C295.8,903.2,294.1,905,291.6,906.1 M270.4,903v-14.9
				c1.4-2.1,3.6-3.5,6.4-3.5c3.6,0,6.3,2.8,6.3,8.9c0,7.3-3.6,11.1-8,11.1C273.2,904.6,271.6,904.1,270.4,903 M261.8,916.2l0,0.5
				h14.4v-2.5h-2.9c-2,0-2.9-1.1-2.9-3.9v-2.9c0.9,0.2,2.1,0.3,2.9,0.3c9.5,0,14.4-7.6,14.4-16.1c0-6.2-3.6-11-8.6-11
				c-3.2,0-6.5,1.6-8.7,4.5v-4.7l-8,4.2l0.1,0.6l1.2-0.1c1.5-0.1,2.3,0.5,2.3,2.2v22.9C266.1,913.3,264.7,915.3,261.8,916.2
				 M248.6,906.1l0.1,0.6h12.1l0-0.6c-1.1-0.3-2.6-1.5-4.6-3.8l-7.7-9l5.2-5.9c2.2-2.5,4.2-4.8,5.6-5l0-0.6h-9.9l-0.1,0.6
				c2.6,0.4,3.6,1.7,1.6,4.2l-3.7,4.9l-3-4.4c-1.9-2.8-1.6-4.1,1.4-4.7l0-0.6h-12.4l0,0.6c1.1,0.3,2.9,1.5,4.3,3.3l7.1,9l-5.6,6.6
				c-3,3.5-4.8,4.7-5.9,5l0,0.6h11.3l0.1-0.6c-3.1-0.5-3.8-2.7-1.6-5.5l3.2-4.2l4.1,5.3C252,904.1,251.3,905.6,248.6,906.1
				 M214.8,889.5c1-3.8,3.3-6.2,6.1-6.2c3.1,0,4.7,2.5,4.7,6.2H214.8z M220.4,907.7c5.8,0,9.8-4.6,10.1-10.8l-0.5,0
				c-0.7,3.8-4.1,6.6-8,6.6c-4.9,0-7.7-3.1-7.7-9.6c0-0.6,0-1.2,0-1.7h16.1c0.4-7.2-3.1-11.5-8.6-11.5c-6.7,0-12.2,6.5-12.2,15
				C209.7,902.7,213.8,907.7,220.4,907.7"/>
			<path style="clip-path:url(#SVGID_00000147197033053702317310000008938676358774899646_);fill:#FFFFFF;" d="M734.1,851.4
				c3.7,0,6.6-1.9,8.2-5.9l-0.2-0.2c-1.3,1.3-3.2,2.3-5.3,2.3c-2.7,0-4.1-1.4-4.1-4.6v-14.5h9.4v-3.1l-9.4,0v-7.9l-0.6,0l-3.8,7.9
				l-5,2.6v0.6h5v15.9C728.3,849,730.6,851.4,734.1,851.4 M704.5,844.4c0-1.8,1.1-3.2,4.7-4.6l4.2-1.6v5.7c-1.5,2-4,3.5-6.1,3.5
				C705.4,847.3,704.5,846,704.5,844.4 M718,851.3c2.7,0,4.8-2.9,4.2-6.1h-0.4c-0.1,1.5-1,2.9-2.3,2.9c-1.1,0-1.7-0.8-1.7-2.8v-13.6
				c0-4.8-2.6-7.5-7-7.5c-2.8,0-7.3,1.3-9.8,3.1c-0.3,2.5-0.4,6.2,0.2,9.4l0.5,0c1.8-6.8,5-9.7,7.7-9.7c2.4,0,3.9,1.6,3.9,5.7v3.3
				l-5.1,1.7c-6.1,2-8.1,4.9-8.1,8.3c0,3.3,2.3,5.4,5.6,5.4c3.1,0,6.1-2.3,7.7-5.4C713.8,849.7,715.3,851.3,718,851.3 M668.1,849.7
				l0,0.6h12.4v-2.6h-1c-2,0-2.9-1.1-2.9-3.9V832c1.7-2.2,4.5-3.7,6.7-3.7c3,0,4.7,1.3,4.7,5.4v8.2c0,5.6-0.9,6.5-3.4,7.8l0,0.6h11
				v-2.5h-0.4c-2,0-2.8-0.7-2.8-3.8v-12.5c0-4.9-2.5-7.3-6.3-7.3c-3,0-6.8,2-9.4,4.7v-16.6l-9.8,4.9l0.1,0.5h2.7
				c1.8,0,2.6,0.5,2.6,2.1v24C672.3,846.8,670.6,848.7,668.1,849.7 M658,851.4c3.7,0,6.6-1.9,8.2-5.9l-0.2-0.2
				c-1.3,1.3-3.2,2.3-5.3,2.3c-2.7,0-4.1-1.4-4.1-4.6v-14.5h9.4v-3.1l-9.4,0v-7.9l-0.6,0l-3.8,7.9l-5,2.6v0.6h5v15.9
				C652.2,849,654.5,851.4,658,851.4 M618.7,833.2c1-3.8,3.3-6.2,6.1-6.2c3.1,0,4.7,2.5,4.7,6.2H618.7z M624.3,851.3
				c5.8,0,9.8-4.6,10.1-10.8l-0.5,0c-0.7,3.8-4.1,6.6-8,6.6c-4.9,0-7.7-3.1-7.7-9.6c0-0.6,0-1.2,0-1.7h16.1
				c0.4-7.2-3.1-11.5-8.6-11.5c-6.7,0-12.2,6.5-12.2,15C613.6,846.3,617.8,851.3,624.3,851.3 M599.8,851.3c5.8,0,9.9-4.9,9.9-11.8
				l-0.5,0c-0.8,4.1-3.8,7.4-7.7,7.4c-5.1,0-7.8-3.8-7.8-9.4c0-6.2,3.2-10.3,7.5-10.3c3.4,0,5.5,2.4,6.7,7l0.3,0
				c0.4-3.1,0.4-6.6,0-8.8c-1.2-0.7-3-1.1-4.9-1.1c-8.5,0-14.3,6.6-14.3,15C589,846.3,593.2,851.3,599.8,851.3 M567.9,844.4
				c0-1.8,1.1-3.2,4.7-4.6l4.2-1.6v5.7c-1.5,2-4,3.5-6.1,3.5C568.8,847.3,567.9,846,567.9,844.4 M581.4,851.3c2.7,0,4.8-2.9,4.2-6.1
				h-0.4c-0.1,1.5-1,2.9-2.3,2.9c-1.1,0-1.7-0.8-1.7-2.8v-13.6c0-4.8-2.6-7.5-7-7.5c-2.8,0-7.3,1.3-9.8,3.1
				c-0.3,2.5-0.4,6.2,0.2,9.4l0.5,0c1.8-6.8,4.9-9.7,7.7-9.7c2.4,0,3.9,1.6,3.9,5.7v3.3l-5.1,1.7c-6.1,2-8.1,4.9-8.1,8.3
				c0,3.3,2.3,5.4,5.6,5.4c3.1,0,6.1-2.3,7.7-5.4C577.2,849.7,578.7,851.3,581.4,851.3 M543.8,849.7l0,0.6h14.9v-2.6h-3.4
				c-2,0-2.9-1.1-2.9-3.9v-15.3h6.3v-3.2l-6.3,0v-4.4c0-3.1,1.4-5,3.6-5c2.3,0,4.2,1.3,5.3,4h0.5c0.4-2.2,0.6-4.3,0.3-6.1
				c-1.1-0.5-2.5-0.8-4.3-0.8c-5.8,0-9.8,4.8-9.8,9.9v2.5l-4.8,2.5v0.6h4.8v15.2C548,846.8,546.3,848.7,543.8,849.7 M524.4,833.2
				c1-3.8,3.3-6.2,6.1-6.2c3.1,0,4.7,2.5,4.7,6.2H524.4z M530.1,851.3c5.8,0,9.8-4.6,10.1-10.8l-0.5,0c-0.7,3.8-4.1,6.6-8,6.6
				c-4.9,0-7.7-3.1-7.7-9.6c0-0.6,0-1.2,0-1.7h16.1c0.4-7.2-3.1-11.5-8.6-11.5c-6.7,0-12.2,6.5-12.2,15
				C519.3,846.3,523.5,851.3,530.1,851.3 M496.7,846.6v-14.9c1.4-2.1,3.6-3.5,6.4-3.5c3.6,0,6.3,2.8,6.3,8.9c0,7.3-3.6,11.1-8,11.1
				C499.4,848.3,497.8,847.8,496.7,846.6 M488.1,859.8l0,0.5h14.4v-2.5h-2.9c-2,0-2.9-1.1-2.9-3.9V851c0.9,0.2,2.1,0.3,2.9,0.3
				c9.5,0,14.4-7.6,14.4-16.1c0-6.2-3.6-11-8.6-11c-3.2,0-6.5,1.6-8.7,4.5v-4.7l-8,4.2l0.1,0.6l1.2-0.1c1.5-0.1,2.3,0.5,2.3,2.2
				v22.9C492.3,856.9,490.9,858.9,488.1,859.8 M467.1,860.2c3.5,0,6.9-2.7,9.4-8.8l8.1-19.8c1.6-3.9,2.7-5.4,4.1-5.7l0-0.6h-9.9
				l-0.1,0.6c2.9,0.5,4.3,2.7,2.6,7.3l-3.7,10.1l-4.4-11.7c-1.2-3.3-0.3-5.2,2.4-5.7l-0.1-0.6h-11.1l-0.1,0.6
				c1.2,0.3,3.2,2.4,4.4,5.5l6.7,16.9c-1.9,5-3.9,7.3-6.5,7.3c-1.6,0-3.4-1.3-4.1-3.2l-0.4,0c-0.3,2.2-0.3,5.1,0,7.2
				C465,860,466.1,860.2,467.1,860.2 M455.8,851.4c3.7,0,6.6-1.9,8.2-5.9l-0.2-0.2c-1.3,1.3-3.2,2.3-5.3,2.3c-2.7,0-4.1-1.4-4.1-4.6
				v-14.5h9.4v-3.1l-9.4,0v-7.9l-0.6,0l-3.8,7.9l-5,2.6v0.6h5v15.9C450,849,452.3,851.4,455.8,851.4 M415.8,844.4
				c0-1.8,1.1-3.2,4.7-4.6l4.2-1.6v5.7c-1.5,2-4,3.5-6.1,3.5C416.8,847.3,415.8,846,415.8,844.4 M429.3,851.3c2.7,0,4.8-2.9,4.2-6.1
				h-0.4c-0.1,1.5-1,2.9-2.3,2.9c-1.1,0-1.7-0.8-1.7-2.8v-13.6c0-4.8-2.6-7.5-7-7.5c-2.8,0-7.3,1.3-9.8,3.1
				c-0.3,2.5-0.4,6.2,0.2,9.4l0.5,0c1.8-6.8,4.9-9.7,7.7-9.7c2.4,0,3.9,1.6,3.9,5.7v3.3l-5.1,1.7c-6.1,2-8.1,4.9-8.1,8.3
				c0,3.3,2.3,5.4,5.6,5.4c3.1,0,6.1-2.3,7.7-5.4C425.1,849.7,426.7,851.3,429.3,851.3 M386.6,851.3c5.3,0,8.9-4,8.9-8.1
				c0-3.2-1.4-5.3-4.8-7l-3.5-1.7c-2.1-1.1-3.2-2.3-3.2-4.4c0-1.8,1.4-3.1,3.7-3.1c2.5,0,5.4,2,6.6,6.3l0.3,0
				c0.4-2.9,0.2-6.3-0.3-8.2c-0.8-0.4-2.7-0.8-4.4-0.8c-5.5,0-9.9,3.7-9.9,8.6c0,2.6,1.6,4.4,3.7,5.5l3.4,1.7
				c2.8,1.4,3.7,2.8,3.7,4.9c0,2.4-1.5,3.7-3.8,3.7c-2.7,0-5.6-2.5-7.4-7.7l-0.2,0c-0.2,3.3-0.2,6.2,0.6,8.6
				C381.2,850.5,383.7,851.3,386.6,851.3 M365.8,816.5c0,1.9,1.5,3.4,3.4,3.4s3.4-1.5,3.4-3.4s-1.5-3.4-3.4-3.4
				S365.8,814.6,365.8,816.5 M363.2,849.7l0,0.6h11.9v-2.6h-0.4c-2,0-2.9-1.1-2.9-3.9v-20.3l-8,5.6l0.1,0.6l1.2-0.1
				c1.4-0.1,2.3,0.5,2.3,2.2v11.3C367.4,846.8,365.9,848.7,363.2,849.7 M323.5,849.7l0,0.6h11v-2.5h-0.4c-2,0-2.8-0.7-2.8-3.8v-12.4
				c1.7-1.9,4.3-3.3,6.3-3.3c3,0,4.7,1.3,4.7,5.4v8.2c0,5.6-0.9,6.5-3.4,7.8l0,0.6h11v-2.5h-0.4c-2,0-2.8-0.7-2.8-3.8v-12.5
				c0-4.9-2.5-7.3-6.3-7.3c-2.9,0-6.7,2-9.3,4.6c-0.8-3.1-3-4.6-6.1-4.6c-3,0-6.8,2-9.4,4.7v-4.9l-8,4.2l0.1,0.6l1.2-0.1
				c1.4-0.1,2.3,0.5,2.3,2.2v12.3c0,3.7-1.5,5.6-4.2,6.5l0,0.6h12.4v-2.6h-0.9c-2,0-2.9-1.1-2.9-3.9V832c1.7-2.2,4.5-3.7,6.7-3.7
				c3,0,4.7,1.3,4.7,5.4v8.2C326.9,847.4,326,848.4,323.5,849.7 M294,851.3c5.3,0,8.9-4,8.9-8.1c0-3.2-1.4-5.3-4.8-7l-3.5-1.7
				c-2.1-1.1-3.2-2.3-3.2-4.4c0-1.8,1.4-3.1,3.7-3.1c2.4,0,5.4,2,6.6,6.3l0.3,0c0.4-2.9,0.2-6.3-0.3-8.2c-0.8-0.4-2.7-0.8-4.4-0.8
				c-5.5,0-9.9,3.7-9.9,8.6c0,2.6,1.6,4.4,3.7,5.5l3.4,1.7c2.8,1.4,3.7,2.8,3.7,4.9c0,2.4-1.5,3.7-3.8,3.7c-2.7,0-5.6-2.5-7.4-7.7
				l-0.2,0c-0.2,3.3-0.2,6.2,0.6,8.6C288.7,850.5,291.1,851.3,294,851.3 M262.8,838.1c0-7.4,3.3-11.2,7.2-11.1
				c3.3,0,6.8,2.9,6.8,10.5c0,7.4-3.4,11.2-7.3,11.1C266.2,848.5,262.8,845.7,262.8,838.1 M268.6,851.3c7.6,0,13-6.2,13-14.8
				c0-7.4-4.2-12.3-10.8-12.3c-7,0-12.9,5.7-12.9,14.8C257.9,846.9,262,851.3,268.6,851.3 M238.9,851.4c4,0,8.6-0.9,11.2-2.3
				c1.2-3.3,1.4-7.6,1.2-11.1l-0.6,0c-2,6.8-6,10.6-11.7,10.6c-7,0-11.7-5.9-11.7-15.1c0-10.3,7-15.3,12.7-15.3
				c4.6,0,8.7,3.2,9.4,8.7h0.5c1-3,1.2-6.9,0.5-9.5c-2.6-1.2-6.2-2-9.7-2c-11.9,0-19,8.7-19,19C221.8,845.1,229.3,851.4,238.9,851.4
				"/>
		</g>
		<path style="clip-path:url(#SVGID_00000049924252926075766280000001312440726063024782_);fill:#FFFFFF;" d="M70.2,714.4h803.9
			v417.7H70.2V714.4z M23.4,1182.1H921V0H23.4V1182.1z"/>
		<g style="clip-path:url(#SVGID_00000049924252926075766280000001312440726063024782_);">
			<defs>
				<rect id="SVGID_00000168805944387427175370000007060710881260502436_" width="960" height="1200"/>
			</defs>
			<clipPath id="SVGID_00000097460166107058337920000001097564211980198329_">
				<use xlink:href="#SVGID_00000168805944387427175370000007060710881260502436_"  style="overflow:visible;"/>
			</clipPath>
			<path style="clip-path:url(#SVGID_00000097460166107058337920000001097564211980198329_);fill:#010202;" d="M611.7,319.5
				C732,168,813.9,342.1,681.3,404.4C513.9,482.6,500.5,480.1,611.7,319.5 M592.1,321.9c-100.8,117.3-86.8,31.8,43.4-160.7
				C659.3,188.7,655.6,238.8,592.1,321.9 M565.2,134.4c24.4,1.2,47,7.3,62.3,19.6C561.6,238.2,509,218.7,565.2,134.4 M463.2,519.2
				c233.4-106.3,237-106.9,174.7,6.1c-50.1,81.9-75.1,72.7-147.8,20.2C407.6,599.9,341,589.5,463.2,519.2 M412.5,458.2
				c-31.2,0,55.6-232.8,122.8-232.8c16.5,0,28.1,3.7,31.8,12.2C548.7,295,447.3,458.2,412.5,458.2 M396.6,202.2
				c37.3-36,92.9-66.6,157-67.8C445.5,304.2,435.1,303,396.6,202.2 M373.4,318.2c-37.9-12.2-25.7-63.5,16.5-108.7
				C435.7,322.5,433.9,337.2,373.4,318.2 M298.2,494.8c76.4-56.2,103.2-37.9,131.4,1.2l4.9,6.7c20.2-72.1,84.9-121,105.7-121
				c16.5,0-11,70.9-64.1,114.2C381.9,566.9,323.9,543.7,298.2,494.8 M293.4,485.6c-30.5-71.5-0.6-184.5,77.6-160.1
				C435.7,348.8,433.3,382.4,293.4,485.6 M594.6,646.3c17.7-42.2,45.2-97.8,72.7-152.1c38.5-71.5,85.5-153.3,116.1-211.4
				c-194.9-95.3-119.7-109.4,34.2-31.2l4.9-8.6C582.9,130.1,580.5,120.9,740,59.2l-0.6-9.2c-329.9,120.4-342.1,115.5-293.3,7.3
				l-9.8-3.7C289.7,395.2,279.9,390.3,297.6,95.9l-9.8-3.7c-64.8,202.8-93.5,299.4-126.5,479l11.6,2.4
				c102.6-496.7,128.3-383.1,81.3-61.7c224.2,102.6,220.6,174.7-61.1,58l-1.2,10.4c95.9,47.7,174.7,66.6,267,62.3
				C413.1,530.2,528,557.7,594.6,646.3"/>
		</g>
	</g>
</g>
</svg>
