<?xml version="1.0" encoding="utf-8"?>
<!-- Generator: Adobe Illustrator 27.4.0, SVG Export Plug-In . SVG Version: 6.00 Build 0)  -->
<svg version="1.1" id="Ebene_1" xmlns="http://www.w3.org/2000/svg" xmlns:xlink="http://www.w3.org/1999/xlink" x="0px" y="0px"
	 viewBox="0 0 960 1200" style="enable-background:new 0 0 960 1200;" xml:space="preserve">
<style type="text/css">
	.st0{clip-path:url(#SVGID_00000088096638660475431570000012349170787823021957_);fill:#010202;}
	.st1{clip-path:url(#SVGID_00000088096638660475431570000012349170787823021957_);}
	.st2{clip-path:url(#SVGID_00000112628935390664008190000013727556885994658454_);fill:#FFFFFF;}
	
		.st3{clip-path:url(#SVGID_00000112628935390664008190000013727556885994658454_);fill:none;stroke:#FFFFFF;stroke-width:5.245;stroke-miterlimit:10;}
	.st4{clip-path:url(#SVGID_00000088096638660475431570000012349170787823021957_);fill:#FFFFFF;}
	
		.st5{clip-path:url(#SVGID_00000088096638660475431570000012349170787823021957_);fill:none;stroke:#FFFFFF;stroke-width:5.245;stroke-miterlimit:10;}
	.st6{clip-path:url(#SVGID_00000112631186336509528950000014844131913768290988_);fill:#010202;}
	
		.st7{clip-path:url(#SVGID_00000112631186336509528950000014844131913768290988_);fill:none;stroke:#FFFFFF;stroke-width:5.245;stroke-miterlimit:10;}
	.st8{clip-path:url(#SVGID_00000112631186336509528950000014844131913768290988_);fill:#FFFFFF;}
	.st9{clip-path:url(#SVGID_00000103224354829013977600000009940546026028419770_);fill:#010202;}
	.st10{clip-path:url(#SVGID_00000103224354829013977600000009940546026028419770_);}
	.st11{clip-path:url(#SVGID_00000078019063790574255440000011040240249693695365_);fill:#FFFFFF;}
	
		.st12{clip-path:url(#SVGID_00000078019063790574255440000011040240249693695365_);fill:none;stroke:#FFFFFF;stroke-width:2.098;stroke-miterlimit:10;}
	.st13{clip-path:url(#SVGID_00000103224354829013977600000009940546026028419770_);fill:#FFFFFF;}
	
		.st14{clip-path:url(#SVGID_00000103224354829013977600000009940546026028419770_);fill:none;stroke:#FFFFFF;stroke-width:2.098;stroke-miterlimit:10;}
	.st15{clip-path:url(#SVGID_00000076575709583627748430000011745092524370770081_);fill:#010202;}
	
		.st16{clip-path:url(#SVGID_00000076575709583627748430000011745092524370770081_);fill:none;stroke:#FFFFFF;stroke-width:2.098;stroke-miterlimit:10;}
	.st17{clip-path:url(#SVGID_00000076575709583627748430000011745092524370770081_);fill:#FFFFFF;}
	.st18{clip-path:url(#SVGID_00000106832699950391480310000013355197224910668174_);}
	.st19{clip-path:url(#SVGID_00000151509568375136974660000012119219352628593302_);fill:#010202;}
	.st20{clip-path:url(#SVGID_00000089554163233641240460000011191545534512771765_);fill:#010202;}
	.st21{clip-path:url(#SVGID_00000089554163233641240460000011191545534512771765_);}
	.st22{clip-path:url(#SVGID_00000098905759663589565540000001664501292258354353_);fill:#FFFFFF;}
	.st23{clip-path:url(#SVGID_00000165929395850347517950000010538325675335847059_);}
	.st24{clip-path:url(#SVGID_00000106119347764046697260000014063652845119733666_);fill:#010202;}
	
		.st25{clip-path:url(#SVGID_00000106119347764046697260000014063652845119733666_);fill:none;stroke:#010202;stroke-width:23.345;stroke-miterlimit:10;}
	.st26{clip-path:url(#SVGID_00000106119347764046697260000014063652845119733666_);fill:#FFFFFF;}
	
		.st27{clip-path:url(#SVGID_00000106119347764046697260000014063652845119733666_);fill:none;stroke:#FFFFFF;stroke-width:0.657;stroke-miterlimit:10;}
	
		.st28{clip-path:url(#SVGID_00000106119347764046697260000014063652845119733666_);fill:none;stroke:#FFFFFF;stroke-width:6.571;stroke-miterlimit:10;}
	
		.st29{clip-path:url(#SVGID_00000106119347764046697260000014063652845119733666_);fill:none;stroke:#010202;stroke-width:3.147;stroke-miterlimit:10;}
	
		.st30{clip-path:url(#SVGID_00000165929395850347517950000010538325675335847059_);fill:none;stroke:#010202;stroke-width:3.147;stroke-miterlimit:10;}
	.st31{clip-path:url(#SVGID_00000157990702346746240930000010411472992313207206_);fill:#010202;}
	.st32{clip-path:url(#SVGID_00000157990702346746240930000010411472992313207206_);fill:#FFFFFF;}
	.st33{clip-path:url(#SVGID_00000165929395850347517950000010538325675335847059_);fill:#010202;}
	.st34{clip-path:url(#SVGID_00000174577302214936000610000010204910456050731682_);}
	.st35{clip-path:url(#SVGID_00000158735253246115574720000013993891826022484870_);fill:#010202;}
	.st36{clip-path:url(#SVGID_00000158735253246115574720000013993891826022484870_);}
	.st37{clip-path:url(#SVGID_00000009562430479542356090000006448131043610656670_);fill:#FFFFFF;}
	.st38{clip-path:url(#SVGID_00000158735253246115574720000013993891826022484870_);fill:#B4B4B4;}
	.st39{clip-path:url(#SVGID_00000158735253246115574720000013993891826022484870_);fill:#FFFFFF;}
	.st40{clip-path:url(#SVGID_00000043430654372862187880000002296203242158056883_);fill:#010202;}
	.st41{clip-path:url(#SVGID_00000179616653747053442380000014813806124496012932_);fill:#010202;}
	.st42{clip-path:url(#SVGID_00000073694458705972209690000005174097207798180265_);enable-background:new    ;}
	.st43{clip-path:url(#SVGID_00000014630747642163554290000010791395752799017916_);}
	.st44{clip-path:url(#SVGID_00000036938099242623644700000011001784214160303233_);fill:#010202;}
	.st45{clip-path:url(#SVGID_00000036938099242623644700000011001784214160303233_);fill:none;stroke:#010202;stroke-width:0.82;}
	.st46{clip-path:url(#SVGID_00000036938099242623644700000011001784214160303233_);fill:none;stroke:#010202;stroke-width:0.864;}
	.st47{clip-path:url(#SVGID_00000036938099242623644700000011001784214160303233_);fill:#FFFFFF;}
	.st48{clip-path:url(#SVGID_00000036938099242623644700000011001784214160303233_);fill:none;stroke:#010202;stroke-width:1.639;}
	
		.st49{clip-path:url(#SVGID_00000036938099242623644700000011001784214160303233_);fill:none;stroke:#010202;stroke-width:4.918;stroke-linecap:round;}
	
		.st50{clip-path:url(#SVGID_00000036938099242623644700000011001784214160303233_);fill:none;stroke:#010202;stroke-width:4.918;stroke-linecap:round;stroke-dasharray:0.367,7.34;}
	
		.st51{clip-path:url(#SVGID_00000036938099242623644700000011001784214160303233_);fill:none;stroke:#010202;stroke-width:4.918;stroke-linecap:round;stroke-dasharray:0.367,7.34,0.367,7.34;}
	
		.st52{clip-path:url(#SVGID_00000036938099242623644700000011001784214160303233_);fill:none;stroke:#010202;stroke-width:4.918;stroke-linecap:round;stroke-dasharray:0.32,6.386;}
	
		.st53{clip-path:url(#SVGID_00000036938099242623644700000011001784214160303233_);fill:none;stroke:#010202;stroke-width:4.918;stroke-linecap:round;stroke-dasharray:0.32,6.386,0.32,6.386;}
	
		.st54{clip-path:url(#SVGID_00000036938099242623644700000011001784214160303233_);fill:none;stroke:#010202;stroke-width:4.918;stroke-linecap:round;stroke-dasharray:0.359,7.186;}
	
		.st55{clip-path:url(#SVGID_00000036938099242623644700000011001784214160303233_);fill:none;stroke:#010202;stroke-width:4.918;stroke-linecap:round;stroke-dasharray:0.359,7.186,0.359,7.186;}
	
		.st56{clip-path:url(#SVGID_00000036938099242623644700000011001784214160303233_);fill:none;stroke:#010202;stroke-width:4.918;stroke-linecap:round;stroke-dasharray:0.326,6.528;}
	
		.st57{clip-path:url(#SVGID_00000036938099242623644700000011001784214160303233_);fill:none;stroke:#010202;stroke-width:4.918;stroke-linecap:round;stroke-dasharray:0.326,6.528,0.326,6.528;}
	.st58{clip-path:url(#SVGID_00000036938099242623644700000011001784214160303233_);fill:none;stroke:#010202;stroke-width:0.828;}
	.st59{clip-path:url(#SVGID_00000036938099242623644700000011001784214160303233_);fill:none;stroke:#010202;stroke-width:0.987;}
	.st60{opacity:0.33;clip-path:url(#SVGID_00000036938099242623644700000011001784214160303233_);}
	.st61{clip-path:url(#SVGID_00000176010903246344239420000003842237571921444782_);}
	.st62{clip-path:url(#SVGID_00000069362071717826785070000002669291040807942282_);fill:#010202;}
	.st63{clip-path:url(#SVGID_00000136373438708035082960000013167548220168433320_);}
	.st64{clip-path:url(#SVGID_00000129166986773413035880000008345356200529441424_);fill:#010202;}
	.st65{clip-path:url(#SVGID_00000073694023610350103610000016283457162839249293_);}
	.st66{clip-path:url(#SVGID_00000064342014945843448140000006048344547835274393_);fill:#010202;}
	.st67{opacity:0.5;clip-path:url(#SVGID_00000036938099242623644700000011001784214160303233_);}
	.st68{clip-path:url(#SVGID_00000103264972486681570110000001796219669816142466_);}
	.st69{clip-path:url(#SVGID_00000006680794644315612580000013828828224147136692_);fill:#010202;}
	
		.st70{clip-path:url(#SVGID_00000036938099242623644700000011001784214160303233_);fill:none;stroke:#010202;stroke-width:0.82;stroke-miterlimit:10;}
	
		.st71{clip-path:url(#SVGID_00000036938099242623644700000011001784214160303233_);fill:none;stroke:#010202;stroke-width:0.82;stroke-linejoin:bevel;}
	
		.st72{clip-path:url(#SVGID_00000036938099242623644700000011001784214160303233_);fill:none;stroke:#010202;stroke-width:0.83;stroke-linejoin:bevel;}
	
		.st73{clip-path:url(#SVGID_00000036938099242623644700000011001784214160303233_);fill:none;stroke:#010202;stroke-width:0.877;stroke-linejoin:bevel;}
	
		.st74{clip-path:url(#SVGID_00000036938099242623644700000011001784214160303233_);fill:none;stroke:#010202;stroke-width:0.536;stroke-linejoin:bevel;}
	.st75{clip-path:url(#SVGID_00000043416049128128638210000005501781116656184747_);fill:#010202;}
	.st76{clip-path:url(#SVGID_00000020360542086089736210000014007333819252162695_);fill:#9D9D9C;}
	.st77{clip-path:url(#SVGID_00000156589006858553518910000012686559007950532744_);fill:#010202;}
	.st78{clip-path:url(#SVGID_00000091701383944272644970000002575895702752141205_);fill:#010202;}
	.st79{clip-path:url(#SVGID_00000094597613646907725540000004390247481000336538_);fill:#010202;}
	.st80{clip-path:url(#SVGID_00000008129785481666001720000013605224071147795390_);fill:#010202;}
	.st81{clip-path:url(#SVGID_00000067932193694989067870000017544494765773217422_);fill:#010202;}
	.st82{clip-path:url(#SVGID_00000168798853551612486690000009988506490995055538_);fill:#010202;}
	.st83{clip-path:url(#SVGID_00000036943384923701314200000004753496609741096337_);fill:#010202;}
	.st84{clip-path:url(#SVGID_00000147934017914755810280000007502141459397167270_);fill:#010202;}
	.st85{clip-path:url(#SVGID_00000175309869130012650810000002037803712520390291_);fill:#010202;}
	.st86{clip-path:url(#SVGID_00000053510389157853061150000006008959600796819584_);fill:#010202;}
	.st87{clip-path:url(#SVGID_00000021827384965313117860000004542380030287821485_);fill:#010202;}
	.st88{clip-path:url(#SVGID_00000052103123827611791160000012133693606798297993_);fill:#010202;}
	.st89{clip-path:url(#SVGID_00000167395301627480506950000000138851216509081019_);fill:#010202;}
	.st90{clip-path:url(#SVGID_00000030462095317032907800000011380443661837141667_);fill:#010202;}
	.st91{clip-path:url(#SVGID_00000158019965407400319170000015294525258467212164_);fill:#010202;}
	.st92{clip-path:url(#SVGID_00000136411015756541942430000005368816308448242835_);fill:#010202;}
	.st93{clip-path:url(#SVGID_00000134936365497726059370000008341067377741198494_);fill:#010202;}
	.st94{clip-path:url(#SVGID_00000136399171200512940450000001164094622750354871_);fill:#010202;}
	.st95{clip-path:url(#SVGID_00000082370070704949750620000004534182615862456247_);fill:#010202;}
	.st96{clip-path:url(#SVGID_00000108990936543855994770000003075708507543832963_);fill:#010202;}
	.st97{clip-path:url(#SVGID_00000137124716879568021180000001078444967056843150_);fill:#010202;}
	.st98{clip-path:url(#SVGID_00000067229656713915958790000001631606310321037746_);fill:#FFFFFF;}
	.st99{clip-path:url(#SVGID_00000067229656713915958790000001631606310321037746_);fill:#010202;}
	.st100{clip-path:url(#SVGID_00000070797946835136370500000012113551244306556555_);fill:#010202;}
	.st101{clip-path:url(#SVGID_00000062184798660987123550000010193454696443711877_);fill:#010202;}
	.st102{clip-path:url(#SVGID_00000117643177631700679130000006195716833429420956_);fill:#010202;}
	.st103{clip-path:url(#SVGID_00000117643177631700679130000006195716833429420956_);fill:#FFFFFF;}
	.st104{clip-path:url(#SVGID_00000117643177631700679130000006195716833429420956_);fill:none;stroke:#010202;stroke-width:1.366;}
	
		.st105{clip-path:url(#SVGID_00000158735253246115574720000013993891826022484870_);fill:none;stroke:#010202;stroke-width:4.098;stroke-linecap:round;}
	
		.st106{clip-path:url(#SVGID_00000158735253246115574720000013993891826022484870_);fill:none;stroke:#010202;stroke-width:4.098;stroke-linecap:round;stroke-dasharray:0.945,5.199;}
	
		.st107{clip-path:url(#SVGID_00000158735253246115574720000013993891826022484870_);fill:none;stroke:#010202;stroke-width:4.098;stroke-linecap:round;stroke-dasharray:0,4.154,0,4.154;stroke-dashoffset:4;}
	.st108{clip-path:url(#SVGID_00000142156100894399781130000011595399931236452018_);fill:#010202;}
	.st109{clip-path:url(#SVGID_00000142156100894399781130000011595399931236452018_);fill:none;stroke:#010202;stroke-width:1.366;}
	.st110{clip-path:url(#SVGID_00000142156100894399781130000011595399931236452018_);fill:#FFFFFF;}
	
		.st111{clip-path:url(#SVGID_00000158735253246115574720000013993891826022484870_);fill:none;stroke:#010202;stroke-width:4.098;stroke-linecap:round;stroke-dasharray:0.827,4.527;}
	
		.st112{clip-path:url(#SVGID_00000158735253246115574720000013993891826022484870_);fill:none;stroke:#010202;stroke-width:4.098;stroke-linecap:round;stroke-dasharray:2.000000e-03,3.702,2.000000e-03,3.702;stroke-dashoffset:3;}
	.st113{clip-path:url(#SVGID_00000133522928150009188250000005368477996485887902_);fill:#010202;}
	.st114{clip-path:url(#SVGID_00000133522928150009188250000005368477996485887902_);fill:none;stroke:#010202;stroke-width:1.366;}
	.st115{clip-path:url(#SVGID_00000133522928150009188250000005368477996485887902_);fill:#FFFFFF;}
	
		.st116{clip-path:url(#SVGID_00000158735253246115574720000013993891826022484870_);fill:none;stroke:#010202;stroke-width:4.098;stroke-linecap:round;stroke-dasharray:0.929,5.093;}
	
		.st117{clip-path:url(#SVGID_00000158735253246115574720000013993891826022484870_);fill:none;stroke:#010202;stroke-width:4.098;stroke-linecap:round;stroke-dasharray:4.700000e-02,4.212,4.700000e-02,4.212;stroke-dashoffset:4;}
	.st118{clip-path:url(#SVGID_00000170273190132644192940000017841363547058860200_);fill:#010202;}
	.st119{clip-path:url(#SVGID_00000170273190132644192940000017841363547058860200_);fill:none;stroke:#010202;stroke-width:1.366;}
	.st120{clip-path:url(#SVGID_00000170273190132644192940000017841363547058860200_);fill:#FFFFFF;}
	
		.st121{clip-path:url(#SVGID_00000158735253246115574720000013993891826022484870_);fill:none;stroke:#010202;stroke-width:4.098;stroke-linecap:round;stroke-dasharray:0.875,5.128;}
	
		.st122{clip-path:url(#SVGID_00000158735253246115574720000013993891826022484870_);fill:none;stroke:#010202;stroke-width:4.098;stroke-linecap:round;stroke-dasharray:0,4.125,0,4.125;stroke-dashoffset:4;}
	.st123{clip-path:url(#SVGID_00000012445905123782811890000017690117516373711239_);fill:#010202;}
	.st124{clip-path:url(#SVGID_00000012445905123782811890000017690117516373711239_);fill:none;stroke:#010202;stroke-width:1.366;}
	.st125{clip-path:url(#SVGID_00000012445905123782811890000017690117516373711239_);fill:#FFFFFF;}
	
		.st126{clip-path:url(#SVGID_00000158735253246115574720000013993891826022484870_);fill:none;stroke:#010202;stroke-width:4.098;stroke-linecap:round;stroke-dasharray:0.827,5.081;}
	
		.st127{clip-path:url(#SVGID_00000158735253246115574720000013993891826022484870_);fill:none;stroke:#010202;stroke-width:4.098;stroke-linecap:round;stroke-dasharray:0,4.105,0,4.105;stroke-dashoffset:4;}
	.st128{clip-path:url(#SVGID_00000105396852721047734300000004516215212284245161_);fill:#010202;}
	.st129{clip-path:url(#SVGID_00000105396852721047734300000004516215212284245161_);fill:none;stroke:#010202;stroke-width:1.366;}
	.st130{clip-path:url(#SVGID_00000105396852721047734300000004516215212284245161_);fill:#FFFFFF;}
	
		.st131{clip-path:url(#SVGID_00000158735253246115574720000013993891826022484870_);fill:none;stroke:#010202;stroke-width:4.098;stroke-linecap:round;stroke-dasharray:0.829,5.083;}
	
		.st132{clip-path:url(#SVGID_00000158735253246115574720000013993891826022484870_);fill:none;stroke:#010202;stroke-width:4.098;stroke-linecap:round;stroke-dasharray:0,4.106,0,4.106;stroke-dashoffset:4;}
	.st133{clip-path:url(#SVGID_00000067217418960689000910000010424907654878768312_);fill:#010202;}
	.st134{clip-path:url(#SVGID_00000067217418960689000910000010424907654878768312_);fill:none;stroke:#010202;stroke-width:1.366;}
	.st135{clip-path:url(#SVGID_00000067217418960689000910000010424907654878768312_);fill:#FFFFFF;}
	
		.st136{clip-path:url(#SVGID_00000158735253246115574720000013993891826022484870_);fill:none;stroke:#010202;stroke-width:4.098;stroke-linecap:round;stroke-dasharray:0,3.58;}
	.st137{clip-path:url(#SVGID_00000072272634580453538020000007838221598265024394_);fill:#010202;}
	.st138{clip-path:url(#SVGID_00000072272634580453538020000007838221598265024394_);fill:none;stroke:#010202;stroke-width:1.366;}
	.st139{clip-path:url(#SVGID_00000167376639443702608100000003934402312671142816_);fill:#010202;}
	.st140{clip-path:url(#SVGID_00000145740789124416410170000016002048999321575867_);fill:#010202;}
	.st141{clip-path:url(#SVGID_00000096031210579575494320000009793009440527830690_);}
	.st142{clip-path:url(#SVGID_00000090256242993278844770000006042573089988512952_);fill:#010202;}
	.st143{clip-path:url(#SVGID_00000053514583443463466690000017166419002724591235_);}
	.st144{clip-path:url(#SVGID_00000005224761777139475540000003198349986127706044_);fill:#B4B4B4;}
	.st145{clip-path:url(#SVGID_00000005224761777139475540000003198349986127706044_);}
	.st146{clip-path:url(#SVGID_00000168099430240692781340000003868935947980325806_);fill:#020304;}
	
		.st147{clip-path:url(#SVGID_00000181783038542240334140000008907228023479792260_);fill:none;stroke:#FFFFFF;stroke-width:2.226;stroke-miterlimit:10;}
	
		.st148{clip-path:url(#SVGID_00000181783038542240334140000008907228023479792260_);fill:none;stroke:#000000;stroke-width:0.445;stroke-miterlimit:10;}
	.st149{filter:url(#Adobe_OpacityMaskFilter);}
	.st150{clip-path:url(#SVGID_00000142863715822034051290000018431961671162781885_);}
	
		.st151{clip-path:url(#SVGID_00000142863715822034051290000018431961671162781885_);mask:url(#SVGID_00000016795420499803573220000012093224426991872447_);}
	.st152{opacity:0.55;clip-path:url(#SVGID_00000169553689007932557870000016443095764382389902_);fill:#010202;}
	.st153{clip-path:url(#SVGID_00000005224761777139475540000003198349986127706044_);fill:#FFFFFF;}
	.st154{clip-path:url(#SVGID_00000150786984860301774760000008205999029132549509_);fill:#010202;}
	.st155{clip-path:url(#SVGID_00000005224761777139475540000003198349986127706044_);fill:none;stroke:#010202;stroke-width:0.554;}
	.st156{clip-path:url(#SVGID_00000165222084156378045220000007056656301002999173_);fill:#010202;}
	.st157{filter:url(#Adobe_OpacityMaskFilter_00000029019701013465012500000003010362417074347940_);}
	.st158{clip-path:url(#SVGID_00000066509888188643514190000009143901833491618193_);}
	
		.st159{clip-path:url(#SVGID_00000066509888188643514190000009143901833491618193_);mask:url(#SVGID_00000139993088149713094810000003310531211569371528_);}
	.st160{opacity:0.55;clip-path:url(#SVGID_00000041289930107307050010000007560118537826559126_);fill:#010202;}
	.st161{filter:url(#Adobe_OpacityMaskFilter_00000135669893335034271660000009919532723835861172_);}
	.st162{clip-path:url(#SVGID_00000026845946163710674910000016250159799365970111_);}
	
		.st163{clip-path:url(#SVGID_00000026845946163710674910000016250159799365970111_);mask:url(#SVGID_00000042712065944926266610000000243085869838395290_);}
	.st164{opacity:0.55;clip-path:url(#SVGID_00000168119086128905969610000000414628566369358499_);fill:#010202;}
	.st165{clip-path:url(#SVGID_00000132071321871720138920000014294981533430466728_);fill:#010202;}
	.st166{clip-path:url(#SVGID_00000030479782031752580130000015556078541293735857_);fill:none;stroke:#010202;stroke-width:0.554;}
	.st167{clip-path:url(#SVGID_00000030479782031752580130000015556078541293735857_);fill:#010202;}
	.st168{filter:url(#Adobe_OpacityMaskFilter_00000030455295067172799220000011888417465005177274_);}
	.st169{clip-path:url(#SVGID_00000030479782031752580130000015556078541293735857_);}
	
		.st170{clip-path:url(#SVGID_00000030479782031752580130000015556078541293735857_);mask:url(#SVGID_00000128456728451852899600000006083728716264867763_);}
	.st171{opacity:0.55;clip-path:url(#SVGID_00000133492686334227428710000013138001521568945293_);fill:#010202;}
	.st172{filter:url(#Adobe_OpacityMaskFilter_00000169557988982909937000000016926643016465975470_);}
	.st173{clip-path:url(#SVGID_00000026124786122462047640000003679255216527176331_);}
	
		.st174{clip-path:url(#SVGID_00000026124786122462047640000003679255216527176331_);mask:url(#SVGID_00000039852508471472726050000006851797239402597805_);}
	.st175{opacity:0.55;clip-path:url(#SVGID_00000067931032550681447590000000677088684753374390_);fill:#010202;}
	.st176{clip-path:url(#SVGID_00000137849910208612090130000014188179026014238848_);fill:#010202;}
	.st177{clip-path:url(#SVGID_00000116943830589372660540000006402463305899589794_);fill:#010202;}
	.st178{filter:url(#Adobe_OpacityMaskFilter_00000011721755255583863360000006756642039160435104_);}
	.st179{clip-path:url(#SVGID_00000116943830589372660540000006402463305899589794_);}
	
		.st180{clip-path:url(#SVGID_00000116943830589372660540000006402463305899589794_);mask:url(#SVGID_00000148661065029695355580000010595668248263748279_);}
	.st181{opacity:0.55;clip-path:url(#SVGID_00000144321941769716021990000003830592801596800952_);fill:#010202;}
	.st182{clip-path:url(#SVGID_00000122715266689229405580000012951653917281711267_);}
	.st183{clip-path:url(#SVGID_00000046306620416956243500000000427367914091705493_);}
	.st184{clip-path:url(#SVGID_00000165233709403959023320000015167117436105001913_);fill:#010202;}
	
		.st185{clip-path:url(#SVGID_00000165233709403959023320000015167117436105001913_);fill:none;stroke:#010202;stroke-width:11.817;stroke-linejoin:round;}
	.st186{clip-path:url(#SVGID_00000165233709403959023320000015167117436105001913_);fill:#FFFFFF;}
	.st187{clip-path:url(#SVGID_00000165233709403959023320000015167117436105001913_);fill:none;stroke:#010202;stroke-width:1.972;}
	.st188{clip-path:url(#SVGID_00000165233709403959023320000015167117436105001913_);fill:none;stroke:#010202;stroke-width:42.229;}
	.st189{clip-path:url(#SVGID_00000165233709403959023320000015167117436105001913_);fill:none;stroke:#FFFFFF;stroke-width:2.016;}
	.st190{clip-path:url(#SVGID_00000014632927635572123310000007904992271734579115_);fill:#010202;}
	.st191{clip-path:url(#SVGID_00000014632927635572123310000007904992271734579115_);fill:#FFFFFF;}
	.st192{clip-path:url(#SVGID_00000106833981432943667410000009057028689246195597_);fill:#010202;}
	.st193{clip-path:url(#SVGID_00000106833981432943667410000009057028689246195597_);fill:none;stroke:#010202;stroke-width:22.467;}
	.st194{clip-path:url(#SVGID_00000106833981432943667410000009057028689246195597_);fill:none;stroke:#FFFFFF;stroke-width:1.925;}
	.st195{clip-path:url(#SVGID_00000106833981432943667410000009057028689246195597_);fill:#FFFFFF;}
	.st196{clip-path:url(#SVGID_00000106833981432943667410000009057028689246195597_);fill:none;stroke:#010202;stroke-width:2.069;}
	.st197{clip-path:url(#SVGID_00000106833981432943667410000009057028689246195597_);fill:none;stroke:#010202;stroke-width:1.925;}
	
		.st198{clip-path:url(#SVGID_00000106833981432943667410000009057028689246195597_);fill:none;stroke:#010202;stroke-width:28.328;stroke-miterlimit:10;}
	
		.st199{clip-path:url(#SVGID_00000106833981432943667410000009057028689246195597_);fill:none;stroke:#FFFFFF;stroke-width:2.071;stroke-miterlimit:10;}
	.st200{clip-path:url(#SVGID_00000106833981432943667410000009057028689246195597_);fill:none;stroke:#010202;stroke-width:1.348;}
	.st201{clip-path:url(#SVGID_00000049222195696771840580000011312657115631211165_);fill:#FFFFFF;}
	.st202{clip-path:url(#SVGID_00000146500158580155325810000000351625495095965832_);fill:#010202;}
	.st203{clip-path:url(#SVGID_00000114037611632627179980000012500307328636948612_);fill:#FFFFFF;}
	.st204{clip-path:url(#SVGID_00000114037611632627179980000012500307328636948612_);fill:none;stroke:#010202;stroke-width:2.117;}
	.st205{clip-path:url(#SVGID_00000114037611632627179980000012500307328636948612_);fill:#010202;}
	.st206{clip-path:url(#SVGID_00000114037611632627179980000012500307328636948612_);fill:none;stroke:#010202;stroke-width:1.925;}
	
		.st207{clip-path:url(#SVGID_00000111876181356588239830000000113017236631806380_);fill:url(#SVGID_00000070083168295641301760000015033545085270307484_);}
	.st208{clip-path:url(#SVGID_00000082356126758349612170000016584230205754028222_);fill:none;stroke:#010202;stroke-width:3.268;}
	
		.st209{clip-path:url(#SVGID_00000043450088352587474540000015727863693429833644_);fill:url(#SVGID_00000142138057038005605350000003944746271829508243_);}
	.st210{clip-path:url(#SVGID_00000013884683694542310290000015556010926570299823_);fill:none;stroke:#010202;stroke-width:1.925;}
	
		.st211{clip-path:url(#SVGID_00000115491942806611578000000011507444042857149576_);fill:url(#SVGID_00000038393955459154675290000008448238242072956818_);}
	.st212{clip-path:url(#SVGID_00000006692120336309302850000003147983489281980039_);fill:none;stroke:#010202;stroke-width:1.925;}
	.st213{filter:url(#Adobe_OpacityMaskFilter_00000069360907239818894470000011166717499114359221_);}
	.st214{clip-path:url(#SVGID_00000102517354188145512820000008048958292627794308_);}
	
		.st215{clip-path:url(#SVGID_00000124861352125158775790000014851676623206581691_);fill:url(#SVGID_00000047027971406514883010000007785871221834682300_);}
	
		.st216{clip-path:url(#SVGID_00000102517354188145512820000008048958292627794308_);mask:url(#SVGID_00000101825808005327274170000008008644392365775037_);fill:url(#SVGID_00000099620221302358947500000017283881846778347442_);}
	.st217{clip-path:url(#SVGID_00000027577481661747101520000005339385907065432730_);fill:none;stroke:#010202;stroke-width:1.925;}
	.st218{clip-path:url(#SVGID_00000020381593185376907960000012542607131449026946_);fill:#010202;}
	.st219{clip-path:url(#SVGID_00000152945994512058986260000009740480106338645942_);fill:#010202;}
	.st220{clip-path:url(#SVGID_00000152945994512058986260000009740480106338645942_);fill:none;stroke:#010202;stroke-width:30.169;}
	.st221{clip-path:url(#SVGID_00000152945994512058986260000009740480106338645942_);fill:none;stroke:#FFFFFF;stroke-width:2.857;}
	.st222{clip-path:url(#SVGID_00000152945994512058986260000009740480106338645942_);fill:#FFFFFF;}
	.st223{clip-path:url(#SVGID_00000152945994512058986260000009740480106338645942_);fill:none;stroke:#010202;stroke-width:3.693;}
	.st224{clip-path:url(#SVGID_00000041261909188295851350000015836816567861547688_);}
	.st225{clip-path:url(#SVGID_00000007397131363341273360000002846665827506498181_);fill:#010202;}
	.st226{clip-path:url(#SVGID_00000041261909188295851350000015836816567861547688_);fill:none;stroke:#010202;stroke-width:1.105;}
	.st227{clip-path:url(#SVGID_00000173870213730729907510000008071334460591828145_);fill:#010202;}
	.st228{clip-path:url(#SVGID_00000183950338186390756670000017695542030792633229_);fill:#010202;}
	.st229{clip-path:url(#SVGID_00000140693773237821970350000010146219190397875331_);fill:#010202;}
	.st230{clip-path:url(#SVGID_00000013151482331667462900000014054089048976628882_);fill:#010202;}
	.st231{clip-path:url(#SVGID_00000029736284112097689660000012692251138527716497_);fill:#010202;}
	.st232{clip-path:url(#SVGID_00000022519235171815240800000011952637801830342534_);fill:#010202;}
	.st233{clip-path:url(#SVGID_00000022519235171815240800000011952637801830342534_);}
	.st234{clip-path:url(#SVGID_00000003802480226433571770000013528726402747270589_);fill:#FFFFFF;}
	.st235{clip-path:url(#SVGID_00000163065328534557267290000008843473229583663772_);fill:#010202;}
	.st236{clip-path:url(#SVGID_00000163065328534557267290000008843473229583663772_);}
	.st237{clip-path:url(#SVGID_00000126302845273856200760000010107413549075094203_);fill:#FFFFFF;}
	.st238{clip-path:url(#SVGID_00000163065328534557267290000008843473229583663772_);fill:#FFFFFF;}
	.st239{clip-path:url(#SVGID_00000163065328534557267290000008843473229583663772_);fill:none;stroke:#010202;stroke-width:14.314;}
	.st240{clip-path:url(#SVGID_00000018220567317576527550000001981074518990998939_);fill:#010202;}
	.st241{clip-path:url(#SVGID_00000018220567317576527550000001981074518990998939_);}
	.st242{clip-path:url(#SVGID_00000101066677850144740980000013242636712602068894_);fill:#FFFFFF;}
	.st243{clip-path:url(#SVGID_00000018220567317576527550000001981074518990998939_);fill:#FFFFFF;}
	.st244{clip-path:url(#SVGID_00000070804615570384942070000017609820807740888963_);fill:#FFFFFF;}
	.st245{clip-path:url(#SVGID_00000146471040914320630990000007156347122981916297_);fill:#010202;}
	.st246{clip-path:url(#SVGID_00000146471040914320630990000007156347122981916297_);}
	.st247{clip-path:url(#SVGID_00000084519142975052425920000011420965569351451839_);fill:#010202;}
	.st248{clip-path:url(#SVGID_00000081607001499470133060000010636200868662401408_);fill:#FFFFFF;}
	.st249{clip-path:url(#SVGID_00000081607001499470133060000010636200868662401408_);fill:#010202;}
	.st250{clip-path:url(#SVGID_00000146471040914320630990000007156347122981916297_);fill:#FFFFFF;}
	.st251{clip-path:url(#SVGID_00000134225792344663917230000012115899052863878281_);fill:#FFFFFF;}
	.st252{clip-path:url(#SVGID_00000134225792344663917230000012115899052863878281_);fill:#010202;}
	.st253{clip-path:url(#SVGID_00000127028468274211478660000015779774698047065259_);fill:#010202;}
	.st254{clip-path:url(#SVGID_00000127028468274211478660000015779774698047065259_);fill:#FFFFFF;}
	.st255{clip-path:url(#SVGID_00000100352996518659781260000017917276911540965054_);fill:#FFFFFF;}
	.st256{clip-path:url(#SVGID_00000103955633037771765690000014170652926372701325_);fill:#010202;}
	.st257{clip-path:url(#SVGID_00000103955633037771765690000014170652926372701325_);}
	.st258{clip-path:url(#SVGID_00000142897605969387453250000014315388469866847144_);fill:#B4B4B4;}
	.st259{clip-path:url(#SVGID_00000142897605969387453250000014315388469866847144_);fill:#FFFFFF;}
	.st260{clip-path:url(#SVGID_00000103955633037771765690000014170652926372701325_);fill:#FFFFFF;}
	.st261{clip-path:url(#SVGID_00000168807457639260983580000018086158986459091361_);fill:#B4B4B4;}
	.st262{clip-path:url(#SVGID_00000168807457639260983580000018086158986459091361_);fill:#FFFFFF;}
	.st263{clip-path:url(#SVGID_00000103223575756391124450000014727544723663875503_);}
	.st264{clip-path:url(#SVGID_00000143618960118452778760000017216769125540939920_);fill:#010202;}
	.st265{clip-path:url(#SVGID_00000060024066830296307950000015109373829892372627_);fill:#010202;}
	.st266{clip-path:url(#SVGID_00000060024066830296307950000015109373829892372627_);}
	.st267{clip-path:url(#SVGID_00000134947878537734422380000015336018175973981330_);fill:#B4B4B4;}
	.st268{clip-path:url(#SVGID_00000060024066830296307950000015109373829892372627_);fill:#B4B4B4;}
	.st269{clip-path:url(#SVGID_00000072975573818745978140000007201394561802753165_);fill:#B4B4B4;}
	.st270{clip-path:url(#SVGID_00000129169869163945004310000009773010879298677676_);fill:#B4B4B4;}
	.st271{clip-path:url(#SVGID_00000071525460279934994000000011734064904714536119_);fill:#FFFFFF;}
	.st272{clip-path:url(#SVGID_00000060024066830296307950000015109373829892372627_);fill:#FFFFFF;}
	.st273{clip-path:url(#SVGID_00000022537518842748405290000016205685580292383916_);fill:#010202;}
	.st274{clip-path:url(#SVGID_00000181769394901068100230000004386076427354010777_);fill:#010202;}
	.st275{clip-path:url(#SVGID_00000181769394901068100230000004386076427354010777_);}
	.st276{clip-path:url(#SVGID_00000074437849753505158330000016158861806812577970_);fill:#FFFFFF;}
</style>
<g>
	<g>
		<defs>
			<rect id="SVGID_00000147186875724020394560000009234972147006286733_" width="960" height="1200"/>
		</defs>
		<clipPath id="SVGID_00000113320364470120014430000002293531703092538546_">
			<use xlink:href="#SVGID_00000147186875724020394560000009234972147006286733_"  style="overflow:visible;"/>
		</clipPath>
		
			<rect style="clip-path:url(#SVGID_00000113320364470120014430000002293531703092538546_);fill:#010202;" width="960" height="1200"/>
		<g style="clip-path:url(#SVGID_00000113320364470120014430000002293531703092538546_);">
			<defs>
				<rect id="SVGID_00000162347680534739797070000017954379640113383870_" width="960" height="1200"/>
			</defs>
			<clipPath id="SVGID_00000074440436903920004820000017121742454722002833_">
				<use xlink:href="#SVGID_00000162347680534739797070000017954379640113383870_"  style="overflow:visible;"/>
			</clipPath>
			<path style="clip-path:url(#SVGID_00000074440436903920004820000017121742454722002833_);fill:#FFFFFF;" d="M820.1,1098.5
				c9-4.5,18.3-6.9,24.7-7.6l1-1.6c-7.9-6.5-3.7-17.4,5.2-13.4l1.1-2.1c-2.7-1.9-5.7-6.6-13-25.3l-1.9,1c4.9,19-9.6,3.9-9.6-8.4
				c0-4.6,1.8-6.9,6-6.9c5.6,0,15.6,7.9,16,21.2l2.1,0.2c1.5-5.5,4.3-14.3,5.5-17.9c-6.9-2.2-11.5-7.3,1.8-6.6l0.6-2.1
				c-8.6-0.4-16-2.1-22-4.8c-8.8,6.2-17.7,10.7-26.3,15l-0.2,1.8c6.1,3.5,5.8,12.9-0.9,13.2l-0.1,1.8c6.7,2.8,7.4,8.3,12.7,20.5
				l2.1-1c-7.8-26.8,10-3,9.6,6.2c-0.1,3.9-1.8,6.9-8.2,6.9c-6.6,0-15-9.4-16.3-21.8l-1.7-0.6l-6.8,15.5c6.6,4.6,7.2,8.6-2.3,7.8
				l-0.2,1.8C806,1092,816.4,1095.3,820.1,1098.5 M752.4,1085.9c-4,0-0.9-13.5,20-39.3l-1.5-1.1c-6.5,7.3-11.9,13.2-13.3,13.2
				c-0.2,0-0.6-0.5-0.6-1.3c0-9.1,11.3-21,21.1-21c3.9,0,8.3,1.1,9.6,3.3C782.4,1055.7,762.9,1085.9,752.4,1085.9 M755.7,1097.4
				l0.9,1.5c8.5-15.7,18.8-27.2,21.4-27.2c1.8,0,2.1,11.2-10,22.3l1.1,1.6c11.4-2.7,19.5-3.5,24.2-3.8l0.2-1.9
				c-5.8-0.6-6.8-5.8,3-13.4l-1-1.5c-6.8,3.8-6.9-0.5-5.6-4.8c1.5-4.8,3.4-7.8,8.2-7.2l0.5-1.7c-6.5-6.6-1.9-24.4,10.8-27l-0.1-1.6
				c-8.3,0-9.1-2.8-6.9-9.4c2.8-8.3,8.6-19.2,13.5-24.2l-1.5-1.7c-13.6,9.5-20.8,6-19.4,0c-7.9,5.1-14.1,10.7-18,14.3l1.2,1.7
				c11.5-6.3,17.2-1.3,14.4,8.5c-3.8,13.4-6.6,13-11.5,3.3l-0.6-1.2c-21.2,18.2-26.3,18.2-32.4,5.5l-1.7,0.9c3.7,9.6,4,23.9-8,21.7
				l-0.5,1.7c7.2,3.4,9.7,9.1-8.5,29.7l1.2,1.3c15-13.8,16.6-9.4,4.1,7.7l1.3,1.3C742.8,1089.9,752.8,1092.3,755.7,1097.4
				 M683.1,1085.9c-4.1,0-0.9-13.5,19.9-39.2l-1.3-1.2c-6.6,7.4-12.1,13.2-13.4,13.2c-0.2,0-0.6-0.5-0.6-1.3c0-9.1,11.5-21,21.2-21
				c4.5,0,7.8,1.2,9.1,3.4C712.6,1055.8,693.1,1086,683.1,1085.9 M738.6,1034.5l-0.9-1.8c-16.9,9.4-20.1,1.8-5.7-4.8l-0.7-1.7
				c-8.6,1.9-14.4,0.9-18.9-1.6l-1.3-0.7c-20.8,18.3-26.1,18.2-32.2,5.6l-1.7,0.9c3.7,9.6,4,23.8-8,21.6l-0.5,1.7
				c7.2,3.4,9.9,9.1-8.4,29.7l1.2,1.3c14.9-13.8,17.2-10.7,4.8,6.3l1.3,1.3c6.5-3.7,15.1-0.4,18.3,4.6l1.1,1.7
				c9.4-14.5,18.9-27,21.6-27c1.9,0,2.2,11.2-9.7,22.3l1.1,1.6c9.6-2.3,19.4-3.7,24.4-3.8l0.1-1.9c-7.8-1.2-6.9-5.7,3-13.4l-1-1.5
				c-6.8,3.8-6.9-0.5-5.6-4.8c1.5-4.8,4.1-7.8,8.3-7.2l0.5-1.7C722.9,1056.4,725.1,1042.1,738.6,1034.5 M623.2,1057.8
				c-6.5,0,10.6-22.4,21.1-22.4c15.6,0-8,27.4-14.7,27.4c-2.3,0-1.6-4.3,6.2-13.9l-1.5-1.1C627.6,1055.7,624.7,1057.8,623.2,1057.8
				 M620.9,1080.6c0-6.1,14.6-18.3,20.1-18.3c1.8,0,2.1,2.2-1.5,6.8l1.7,1.3c7.8-6.3,18.5-14.7,23.5-23.8c-12.2,0-11.6-6.8,3-8.3
				v-1.7c-7.9-2.9-16.9-7.4-23.5-11.7l-1.3-0.9c-15.7,14.4-20.1,15.7-26.7,4l-1.6,0.9c3.5,12.7,4.1,26.4-9,23.6l-0.5,1.7
				c8.3,3.7,7.7,11.3-5.8,24.5l1.2,1.2c12.8-11.1,16.2-0.7,5,9.6l1.1,1.5c7.4,0.6,15.5,2.8,21.3,6.8l1.6,1.1
				c8.3-7.4,16.8-9.5,27.7-12.5l-0.4-2.3c-3.7,0.4-6.8-5-4.3-16.2l-1.8-0.6c-6.1,12.1-14.3,20.8-20,20.8c-3.2,0-3.9-3.3,3.8-11
				l-1.7-1.3C625,1084.9,620.9,1084.2,620.9,1080.6 M566,1061.6l0.9-2.3c-9.5-3.2-7.9-7.3-0.9-6.7c14.3,1.3,12.1,7.4-11,27.8
				l1.5,1.9c17.1-14.7,19.5-5.5-5.7,11.7l1.1,2.2c14.7-7.6,20.8-6,15.2-0.4l1.3,2.1c5.8-3.7,15.3-4.5,22.9-3.7l1-2.3
				c-3-2.9-6.1-6.5,0-14.9l-2.1-1.5c-5.1,7.7-8,10.6-9.4,10.6c-3.8-0.1,4.5-22,12.8-24.2l0.9-2.2c-10.7-5.6-7.2-13,14.3-38.6
				l-1.8-1.6c-22.3,24.6-6.9-3.8,5.4-11.1l-0.7-1.9c-12.8,7.1-20.2,3.3-15.8-0.7l-1.1-2.2c-7.1,3.7-12.8,4.9-20.2,3.9l-0.9,2.3
				c3,1.2,1.3,6.3-5.4,14l1.7,1.8c12.2-13.5,20.1-12.1,12.2,6.5c-1.2-1.3-2.7-3.5-3.8-5.8l-1.8,0.9c6.2,20,2.4,22.8-25.7,11.6
				l-0.9,1.7c9.7,3.7,7.6,6.2,3.7,5.8c-15.1-1.2-15.5-3,6-25.1l-1.8-1.6c-20.2,21-12.2,2.8,5.5-10.7l-0.9-2.3
				c-16.8,6.5-20.2,3.3-15.8-0.7l-1.1-2.2c-7.1,3.7-12.8,4.9-20.2,3.9l-0.9,2.3c3,1.2,1.3,6.3-5.4,14l1.7,1.8
				c12.2-13.5,20.1-12.1,12.2,6.5c-1.2-1.3-2.7-3.5-3.8-5.8l-2.4,1c5,17.5,3,23.1-4.3,23l-0.6,2.4c7.6,3,6.6,9.3-15.7,27.7l1.5,1.9
				c16.8-15.1,19.5-5.5-5.7,11.7l1.1,2.2c14.7-7.6,20.8-6,15.2-0.4l1.3,2.1c5.8-3.7,15.3-4.5,22.9-3.7l1-2.3
				c-3-2.9-2.3-8.3,4.3-17.8l-2.1-1.5c-5.8,8.9-9.6,11.9-11.7,11.7c-5.5-0.5,0.7-23.8,10.8-22.3l0.9-2.3
				C536.8,1056.7,538.5,1051,566,1061.6 M440.6,1057.3c0-9.1,11.5-21,21.2-21c4.1,0,7.7,1.2,9,3.4c-3,12.2-24.2,42.3-29.2,42.3
				c-4.4,0-5.5-10.7,14.4-35.6l-1.5-1.1c-6.6,7.6-11.8,13.3-13.2,13.3C440.9,1058.6,440.6,1058.1,440.6,1057.3 M433,1087.9
				c2.9,1.1,5.7,2.8,8.2,5.1c6.1-9.9,19.5-25.7,21.9-25.7c1.6,0-1.2,11.2-16.4,27.9l1.5,1.5c14-15.3,2.9,15.3-6.2,15.3
				c-3.4,0-4.4-2.6-1-7.4l-1.5-1.3C426.1,1117,420.7,1111,433,1087.9 M424.4,1085.1l1.3,1.6c1.3-0.1,2.8,0,4.3,0.4
				c-5.2,9.4-13,21.1-21.3,27l0.6,2.1c5.2,0.6,10.8,3.5,13.4,6.9l1.7,2.3c9.7-6.8,27.9-10.4,39.2-10.4l1.6-1.1
				c-1.5-5.7-1.1-11.9,0.1-16.8c1.8-6.7,5.5-10.7,8.5-6.6l1.7-0.9c-6.9-15.8-3.9-24.4,7.2-22.4l0.5-1.7c-6.5-5-7.8-22.2,8.4-31.1
				l-0.5-1.9c-17.3,9.5-20.5,1.9-6.1-4.6l-0.7-1.7c-8.4,1.9-14,0.9-18.6-1.5l-1.7-0.9c-18.6,17.5-25.6,18-32,5.6l-1.7,0.9
				c3.5,9.6,4,23.8-8,21.6l-0.5,1.7c7.2,3.4,9.3,9.4-8.5,29.8l1.5,1.1C428,1070.3,430.8,1075.3,424.4,1085.1 M370.3,1055.3
				c-3.4,0,0.4-12.1,14.3-29.1l-1.5-1.2c-12.3,9.3-16.6,5.2-14.9-0.7c-7.6,5.2-13.2,11-16.9,16.2l1.2,1.3
				c14.6-13.4,12.4,12.1-0.9,10.7l-0.7,1.7c8.4,3.7,10.5,9.6-9.7,26.9l1.1,1.6c16.8-14.3,12.7,2.4-4.1,10.6l0.9,1.6
				c10.1-5.6,22.5-5.5,16.1,1.2l1.1,1.5c5.5-3.5,11-4.8,18.6-3.9l0.9-1.7c-3.3-0.6-1.7-5.4,3.5-12.4l-1.3-1.2
				c-2.3,1.8-5.6,3.5-9.1,3.5c-14.9,0,14.6-41.2,25.9-41.2c3.2,0,4.4,2.1,4.4,6.2c0,6-5,15.6-17.7,27.8l1.3,1.2
				c7.2-6.5,9-7.9,10.7-7.9c3.8,0-5.6,17.9-16,25.1l1,1.6c11-6.5,19.1-4.4,12.7,1.5l0.9,1.6c5-2.8,12.2-4,15.5-4l0.7-1.8
				c-8.5-10.7-7.1-19,1.7-18.2l0.5-1.8c-7.3-2.2-8-5.1,5.4-16.6l-1.1-1.6c-10.5,6.6-1.8-11.3,6-19.7l-1.3-1.3
				c-18.2,18.9-22.8,6.1-3.2-4.8l-0.7-1.7c-4.4,1.7-17.9,3.9-23.9,3.5l-2.1-0.1C385.1,1037.6,373.1,1055.3,370.3,1055.3
				 M331.1,1016.1l1.2,1.7c5.5-6.7,8.5-5.6,6.9,4.8l2.2-1.3l9.9-6l1.8-1.1c-1.3-3.7-1.5-6.9-0.6-11.6l-1.3-1.5
				c-7.2,7.6-8.9,4.6-5.8-4.4l-1.9,1.1l-9.9,5.4l-1.9,1.1C332.6,1008.1,332.1,1011.4,331.1,1016.1 M306.3,1093.3l0.9,1.6
				c10-5.6,21.3-4.9,13.8,1.2l1.1,1.5c4.9-2.8,10.6-3.9,14-3.9l0.6-1.8c-8.6-5.1-6.9-19.7,1.9-18.9l0.5-1.7c-6.3-2.2-9.4-8,6.1-21.3
				l-1.1-1.6c-10.5,6.6-5.5-7.7,6.6-22.2l-1.6-1.3c-12.3,9.3-15.2,5.4-13.5-0.6c-5,4-14.9,12.5-17.1,16l0.9,1.6
				c7.7-7.6,10.2-2.3,8.8,3.2c-1.2,4.1-4.6,8.3-10.1,7.6l-0.5,1.7c10,2.7,4.6,12.9-9.9,26.9l1.1,1.5
				C324.7,1067,319.5,1085.7,306.3,1093.3 M271.7,1060.7c10.6-16,17.3-23.4,23-23.4c1.7,0,2.7,1.2,2.7,3.2
				C297.4,1044.9,286.6,1055,271.7,1060.7 M285,1025.6l-1.3-1.9c-10.8,7.7-8.4-8.6,11.3-24.6l-1.2-1.8c-13.4,9.6-23,6.1-21.6,0.1
				c-6.2,4-12.7,10.1-17.1,14.3l1.2,1.7c9.3-6.1,13.6-2.3,10.2,10.2c-3.7,13.3-5.2,14.1-11.7,6.8l-1.9,1.7
				c10.7,12.5,7.6,23.6-1,21.7l-0.5,1.7c5.1,2.2,5.6,6-7.6,19.2l1,1.5c15-13.3,9.1,9-8.3,16.9l1.1,1.8c9.7-5.6,25.9-5.5,19.6,1.2
				l1.1,1.5c5.4-3.5,11-4.8,18.6-3.9l0.4-1.7c-3.5-0.9-3.9-5.7-0.7-9.9l-1.5-1.3c-2.8,3.2-4.6,3.7-7.4,3.7c-7.8,0-3.8-19.5,6.1-19.5
				c5.2,0,6.3,8.2,3.2,13.4l1.5,1.3c3.8-6,12.1,2.1,10.4,16.4l2.3,0.6c1.5-7.6,9.4-7.9,18.3-1.6l1-1.5c-18.4-22.9-19.9-27.7-14-30.5
				l-0.4-1.8c-17.9,6-4-8.8,2.7-8.8c2.4,0,4.5,1.3,3.8,3.9l1.8,0.7c3.9-7.7,7.4-14.4,11.7-22.4l-1.5-1.1c-14.3,14.1-14.5,2.8-1-5.6
				l-1-1.6c-4.9,1.9-18.8,3-24,3c-6.3,10.5-15.2,22.9-18,22.9C267.7,1052.5,271.8,1036.7,285,1025.6 M220.3,1095.4l0.6,1.6
				c7.1-1.1,12.3-2.8,18.2-5.7l-0.6-1.8c-6.6,1.9-10.1-3.2-8.3-10.7c1.1-4.5,3.7-8.9,8.4-8.9l0.5-1.7c-6.2-2.7-8-9.3,8.2-21.6
				l-1-1.7c-10.4,8.2-6.8-8.8,6.1-18.8l-0.7-1.7c-9.9,6-4.8-11.8,10-25.6l-1.1-1.6c-12.8,9.5-20.8,6.1-19.4,0.1
				c-6.2,4-12.7,10.1-17.1,14.3l1.1,1.6c9.3-6.1,12.9-3.5,9.5,9.3c-3.3,12.4-4.8,15.8-9.5,7.9l-1.7,0.9c7.2,14.6,6,23.3-5,21.3
				l-0.5,1.9c10,3.4,8.2,8.3-8.4,24l1.2,1.6c12.3-10.2,11.6,2.2-6.1,13l0.6,1.8C222,1089.1,225.7,1092,220.3,1095.4 M162.2,1085.9
				c-4.1,0-0.9-13.5,19.9-39.2l-1.3-1.2c-6.6,7.4-12.1,13.2-13.4,13.2c-0.2,0-0.6-0.5-0.6-1.3c0-9.1,11.5-21,21.2-21
				c4.5,0,7.8,1.2,9.1,3.4C191.7,1055.8,172.2,1086,162.2,1085.9 M217.8,1034.5l-0.9-1.8c-16.9,9.4-20.1,1.8-5.7-4.8l-0.7-1.7
				c-8.6,1.9-14.4,0.9-18.9-1.6l-1.3-0.7c-20.8,18.3-26.1,18.2-32.2,5.6l-1.7,0.9c3.7,9.6,4,23.8-8,21.6l-0.5,1.7
				c7.2,3.4,9.9,9.1-8.4,29.7l1.2,1.3c14.9-13.8,17.2-10.7,4.8,6.3l1.3,1.3c6.5-3.7,15.1-0.4,18.3,4.6l1.1,1.7
				c9.4-14.5,18.9-27,21.6-27c1.9,0,2.2,11.2-9.7,22.3l1.1,1.6c9.6-2.3,19.4-3.7,24.4-3.8l0.1-1.9c-7.8-1.2-6.9-5.7,3-13.4l-1-1.5
				c-6.8,3.8-6.9-0.5-5.6-4.8c1.5-4.8,4.1-7.8,8.3-7.2l0.5-1.7C202,1056.4,204.2,1042.1,217.8,1034.5 M82.3,1030.5l1.8,1.2
				c14.5-22.5,16.6-18.2,12.1-6.3l1.9,1.2c8.5-9.9,16.9-13,13.6-0.4c-1.7,6.6-5.1,13.5-9,4.4l-2.2,1.2c5.6,11.8,5.4,24.9-3,23.1
				l-0.9,2.2c7.3,2.7,7.2,5.1-12.5,18.8l1.7,1.9c16.9-11.5,17.1-0.4-7.3,16.1l1.1,2.2c14.7-7.6,20.8-6,15.2-0.4l1.6,2.2
				c5.6-3.7,16.1-4.8,23.4-3.8l1-2.3c-3.4-1.1-4.3-5.6,5.6-14l-1.5-1.9c-12.3,10-17.5,6.8-14.9-1.8c1.6-5.1,4.8-8.5,10.4-9.1
				l0.1-2.3c-7.9-4.3-6.8-10.6,11-31.8l-1.8-1.7c-2.8,3.3-4.6,4.3-6.5,4.3c-3.5,0,3.3-17.1,10-17.1c2.7,0,3.9,1.6,1.8,5.6l2.1,1.6
				c6.5-10.8,12.4-4.3,5,8.2l1.8,1.8c6.9-7.1,12.3-14.1,16.2-19.6l-1.6-1.8c-5.5,3.5-9.1-1.6-1.6-7.4l-1.5-1.9
				c-14,7.9-22.9,8.5-17.9,2.1l-1.2-2c-11.3,5-25,10.1-22.4,0.6l-2.3-0.7c-2.7,5.7-9.4,6.9-22.7,2.8l-1.1,2.2
				C91.1,1008.9,90.2,1012.9,82.3,1030.5"/>
			<path style="clip-path:url(#SVGID_00000074440436903920004820000017121742454722002833_);fill:#FFFFFF;" d="M806.5,941.7
				c-3.7,0,0.4-13.2,15.7-32l-1.6-1.3c-13.5,10.2-18.2,5.8-16.3-0.8c-8.3,5.8-14.4,12-18.6,17.8l1.3,1.5
				c16.1-14.7,13.6,13.2-0.9,11.8l-0.8,1.9c9.2,4,11.5,10.6-10.7,29.6l1.2,1.7c18.5-15.7,13.9,2.7-4.5,11.6l0.9,1.7
				c11.1-6.2,24.8-6,17.7,1.3l1.2,1.6c6-3.9,12-5.2,20.5-4.3l0.9-1.9c-3.6-0.7-1.9-5.9,3.9-13.6l-1.5-1.3c-2.5,2-6.2,3.9-10,3.9
				c-16.3,0,16.1-45.2,28.5-45.2c3.5,0,4.8,2.3,4.8,6.8c0,6.6-5.5,17.1-19.4,30.5l1.5,1.3c7.9-7.1,9.9-8.7,11.8-8.7
				c4.1,0-6.2,19.7-17.5,27.6l1.1,1.7c12-7.1,21-4.8,13.9,1.6l0.9,1.7c5.5-3.1,13.4-4.4,17-4.4l0.8-2c-9.4-11.8-7.8-20.9,1.9-19.9
				l0.5-2c-8-2.4-8.8-5.6,5.9-18.2l-1.2-1.7c-11.5,7.2-2-12.4,6.6-21.7l-1.5-1.5c-19.9,20.7-25,6.7-3.5-5.2l-0.8-1.9
				c-4.8,1.9-19.7,4.3-26.2,3.9l-2.3-0.1C822.8,922.2,809.6,941.7,806.5,941.7 M722.6,975.3c-4.5,0-0.9-14.9,21.8-43.1l-1.5-1.3
				c-7.2,8.2-13.2,14.5-14.7,14.5c-0.3,0-0.7-0.5-0.7-1.5c0-10,12.6-23,23.3-23c5,0,8.6,1.3,10,3.7
				C755,942.3,733.6,975.4,722.6,975.3 M783.6,918.9l-0.9-2c-18.6,10.3-22.1,2-6.3-5.2l-0.8-1.9c-9.5,2.1-15.8,0.9-20.7-1.7
				l-1.5-0.8c-22.9,20.1-28.6,19.9-35.3,6.2l-1.9,0.9c4,10.6,4.4,26.1-8.8,23.7l-0.5,1.9c7.9,3.7,10.8,10-9.2,32.6l1.3,1.5
				c16.3-15.1,18.9-11.8,5.2,7l1.5,1.5c7.1-4,16.6-0.4,20.1,5.1l1.2,1.9c10.3-15.9,20.7-29.7,23.7-29.7c2.1,0,2.4,12.3-10.7,24.5
				l1.2,1.7c10.6-2.5,21.3-4,26.8-4.1l0.1-2.1c-8.6-1.3-7.6-6.3,3.3-14.7l-1.1-1.6c-7.5,4.1-7.6-0.5-6.2-5.2
				c1.6-5.2,4.6-8.6,9.1-7.9l0.5-1.9C766.4,942.9,768.8,927.1,783.6,918.9 M656.8,944.4c-7.1,0,11.6-24.6,23.1-24.6
				c17.1,0-8.8,30.1-16.2,30.1c-2.5,0-1.7-4.7,6.8-15.3l-1.6-1.2C661.6,942.1,658.5,944.4,656.8,944.4 M654.3,969.4
				c0-6.7,16.1-20.1,22.1-20.1c2,0,2.3,2.4-1.6,7.5l1.9,1.5c8.6-7,20.3-16.2,25.8-26.1c-13.4,0-12.7-7.5,3.3-9.1v-1.9
				c-8.7-3.2-18.6-8.2-25.8-12.8l-1.5-0.9c-17.3,15.8-22.1,17.3-29.3,4.4l-1.7,0.9c3.9,13.9,4.5,29-9.9,26l-0.5,1.9
				c9.1,4,8.4,12.4-6.4,26.9l1.3,1.3c14-12.2,17.8-0.8,5.5,10.6l1.2,1.6c8.2,0.7,17,3.1,23.4,7.5l1.7,1.2
				c9.1-8.2,18.5-10.4,30.4-13.8l-0.4-2.5c-4,0.4-7.5-5.5-4.7-17.8l-2-0.7c-6.7,13.2-15.7,22.9-21.9,22.9c-3.5,0-4.3-3.6,4.1-12
				l-1.9-1.5C658.8,974.2,654.3,973.4,654.3,969.4 M604.2,961.7l-1.7-1.3c-24,25.2-12.8-5.5,3.7-25.4l-1.6-1.2
				c-7.1,8.2-12.4,13.1-13.9,13.1c-7,0,6.8-24.5,20.2-24.5c4,0,6.6,3.7,6.6,9.6c0,4.8-3.5,13-9.8,22.1l1.7,1.2
				c7.8-5.4,15.9-13.2,24.1-23c-11.4,0-12.6-7.4,3.3-9.1v-1.9c-9.6-3.1-18.2-7.6-24.5-12.4l-1.7-1.3c-17.3,15.8-22.1,17.3-29.3,4.4
				l-1.7,0.9c3.2,8.7,6.4,28.5-7.6,26l-0.5,1.9c7.6,3.1,5.8,12.4-9.1,26.9l1.3,1.3c14-12.2,18.7-4.5,6.3,6.6l1.2,1.6
				c8.2,0.7,16.9,6,23,11.2l1.7,1.5c9.1-8.2,17.9-10.6,29.8-13.9l-0.5-2.3c-5.2,1.2-8.4-2.9-5.6-15.3l-2-0.7
				C610.9,973.6,583.8,991,604.2,961.7 M486.3,965.9c-7.9-22.6-2.3-33.5,4.8-13.9l2.3-0.9c-10-28-8.4-28.9,19.9-33.9l-0.4-2.4
				c-21.9,3.7-13.4-6.7-6.6-11.2c7.2-4.8,13.2-3.2,13.2,3.5l2.5,0.7c2.1-12,9-20.1,10.7,9.8l2.5-0.1c0.1-17.9,5.8-23.1,10.4-9
				c7.8,23.7,2.5,33.5-4.6,14.9l-2.3,0.9c10,27,7.9,28-20.2,32.9l0.4,2.4c21.9-3.7,13.4,6.7,6.6,11.2c-7.2,4.8-13.1,2.9-13.2-3.6
				l-2.5-0.7c-2.1,12-9,20.1-10.4-10l-2.4,0.1C497.2,976.1,491.3,980.1,486.3,965.9 M481.7,990.2l1.5,2.4c20.9-10.7,30.9-9.6,27-4.3
				l1.6,2.1c7.6-4.1,20.7-8.4,30.2-11l-0.1-2.7c-16.7,0-1.1-13.1,14.3-10.7l1.1-2.4c-9.9-2.1,3.1-27.2,11.2-27.7l0.7-2.7
				c-5-3.7-9.2-14.3,0.1-36l-2.5-0.8c-7.4,16.2-13.9,11.2-10.3-4.1c-15.5,0.5-18.9-2.3-7.4-9.4l-1.3-2.4c-20.9,10.7-32,9-26.9,4.7
				l-1.5-2.3c-8.2,4.3-19.8,8-29.6,10.8l0.9,2.7c14.9-3.2,0.5,13-14.9,10.4l-1.1,2.5c9.9,2.1-3.1,27.2-11.2,27.7l-0.7,2.7
				c5,3.7,10.2,10.3-0.1,34.3l2.5,0.8c8-17.5,9.8-12.3,8,5.9C489,982.9,490.1,984.9,481.7,990.2 M390.3,947.6
				c11.6-17.5,19-25.7,25.3-25.7c1.9,0,2.9,1.3,2.9,3.5C418.5,930.2,406.6,941.3,390.3,947.6 M404.9,909.1l-1.5-2.1
				c-11.9,8.4-9.2-9.5,12.4-27l-1.3-2c-14.7,10.6-25.3,6.7-23.7,0.1c-6.8,4.4-13.9,11.1-18.7,15.7l1.3,1.9
				c10.2-6.7,15-2.5,11.2,11.2c-4,14.6-5.8,15.5-12.8,7.5l-2.1,1.9c11.8,13.8,8.3,26-1.1,23.8l-0.5,1.9c5.6,2.4,6.2,6.6-8.3,21.1
				l1.1,1.6c16.5-14.6,10,9.9-9.1,18.6l1.2,2c10.7-6.2,28.5-6,21.5,1.3l1.2,1.6c5.9-3.9,12-5.2,20.5-4.3l0.4-1.9
				c-3.9-0.9-4.3-6.3-0.8-10.8l-1.6-1.5c-3.1,3.5-5.1,4-8.2,4c-8.6,0-4.1-21.4,6.7-21.4c5.8,0,7,9,3.5,14.7l1.6,1.5
				c4.1-6.6,13.2,2.3,11.4,18.1l2.5,0.7c1.6-8.3,10.3-8.7,20.1-1.7l1.1-1.6c-20.2-25.2-21.8-30.4-15.4-33.4l-0.4-2
				c-19.7,6.6-4.4-9.6,2.9-9.6c2.7,0,5,1.5,4.1,4.3l2,0.8c4.3-8.4,8.2-15.8,12.8-24.6l-1.6-1.2c-15.7,15.5-15.9,3.1-1.1-6.2
				l-1.1-1.7c-5.4,2.1-20.6,3.3-26.4,3.3c-7,11.5-16.7,25.2-19.8,25.2C385.9,938.7,390.4,921.3,404.9,909.1 M308,941.7
				c-3.7,0,0.4-13.2,15.7-32l-1.6-1.3c-13.5,10.2-18.2,5.8-16.3-0.8c-8.3,5.8-14.5,12-18.6,17.8l1.3,1.5
				c16.1-14.7,13.6,13.2-0.9,11.8l-0.8,1.9c9.2,4,11.5,10.6-10.7,29.6l1.2,1.7c18.5-15.7,13.9,2.7-4.5,11.6l0.9,1.7
				c11.1-6.2,24.8-6,17.7,1.3l1.2,1.6c6-3.9,12-5.2,20.5-4.3l0.9-1.9c-3.6-0.7-1.9-5.9,3.9-13.6l-1.5-1.3c-2.5,2-6.2,3.9-10,3.9
				c-16.3,0,16.1-45.2,28.5-45.2c3.5,0,4.8,2.3,4.8,6.8c0,6.6-5.5,17.1-19.4,30.5l1.5,1.3c7.9-7.1,9.9-8.7,11.8-8.7
				c4.1,0-6.2,19.7-17.5,27.6l1.1,1.7c12-7.1,21-4.8,13.9,1.6l0.9,1.7c5.5-3.1,13.4-4.4,17-4.4l0.8-2c-9.4-11.8-7.8-20.9,1.9-19.9
				l0.5-2c-8-2.4-8.8-5.6,5.9-18.2l-1.2-1.7c-11.5,7.2-2-12.4,6.6-21.7l-1.5-1.5c-19.9,20.7-25,6.7-3.5-5.2l-0.8-1.9
				c-4.8,1.9-19.7,4.3-26.2,3.9l-2.3-0.1C324.3,922.2,311.1,941.7,308,941.7 M224.1,975.3c-4.5,0-0.9-14.9,21.8-43.1l-1.5-1.3
				c-7.2,8.2-13.2,14.5-14.7,14.5c-0.3,0-0.7-0.5-0.7-1.5c0-10,12.6-23,23.3-23c5,0,8.6,1.3,10,3.7
				C256.5,942.3,235.1,975.4,224.1,975.3 M285.1,918.9l-0.9-2c-18.6,10.3-22.1,2-6.3-5.2l-0.8-1.9c-9.5,2.1-15.8,0.9-20.7-1.7
				l-1.5-0.8c-22.9,20.1-28.6,19.9-35.3,6.2l-1.9,0.9c4,10.6,4.4,26.1-8.8,23.7l-0.5,1.9c7.9,3.7,10.8,10-9.2,32.6l1.3,1.5
				c16.3-15.1,18.9-11.8,5.2,7l1.5,1.5c7.1-4,16.6-0.4,20.1,5.1l1.2,1.9c10.3-15.9,20.7-29.7,23.7-29.7c2.1,0,2.4,12.3-10.7,24.5
				l1.2,1.7c10.6-2.5,21.3-4,26.8-4.1l0.1-2.1c-8.6-1.3-7.6-6.3,3.3-14.7l-1.1-1.6c-7.5,4.1-7.6-0.5-6.2-5.2
				c1.6-5.2,4.5-8.6,9.1-7.9l0.5-1.9C267.9,942.9,270.3,927.1,285.1,918.9 M189.2,986.4l1.5-1.3c-4.7-5.9,0.7-16.5,4.5-22.2
				l-1.6-1.3c-6.6,9.1-13.6,13.1-18.9,13.1c-15.4,0,9.6-39.2,17.5-39.2c3.6,0,4.7,5.9-3.6,18.5l1.6,1.2
				c9.4-10.8,15.3-23.3,18.6-37.1l-1.5-1.6c-6.6,5.4-11.5,4.8-7.9-6.2l-2-1.1c-7.4,15.4-22.7,38.8-25.6,38.8
				c-3.2,0,8.2-26.8,16.7-38.3l-1.9-1.5c-13.1,10.2-16.5,5.9-14.9-0.7c-5.4,4.4-13.1,10.8-17.9,17.4l1.1,1.9c8-7.4,11.2-4,10.7,1.1
				c-0.5,5-4.8,11.4-11.8,10.7l-0.5,1.9c9.4,4,8.8,11.8-10.7,29.6l1.1,1.6c21.1-16.9,13.8,2.8-4.6,11.8l0.9,1.7
				c11-6.2,24.6-6,17.8,1.3l1.2,1.6C168.4,983.9,184.1,983.9,189.2,986.4 M68.9,984.1l1.2,2.4c16.2-8.3,28.2-5.2,22.1,0.9l1.5,2.3
				c6.4-4,21.1-7.2,32-3.7l1.3-2.4c-5.6-3.3-6.8-8.2-1.9-16.7l-2.3-1.3c-21.8,15.5-34.5,12.8-7.2-13.1l-2.1-1.9
				c-9.4,9-9.5,4.7-7.2,0.9c9.2-15.3,30.4-18.2,17,2.9l2.1,1.6c7.2-10.3,13.4-15.4,18.6-14.7l0.5-2.7c-5.8-1.5-5.1-4.7-1.3-10.8
				l-2.1-1.3c-28,9.5-33.2,4.8-15-12.7l-1.7-2.1c-5.9,4.5-8.6,2.5-3.7-5.6c4.3-7.2,9.2-10.8,12,7.8l2.5-0.8
				c-0.8-8.7,3.1-13.4,6.3-13.2c3.6,0,6.6,6.3,0.4,19.9l2.9,2.1c6.6-8.6,12.6-17.4,18.1-26.5l-2.4-2c-7.5,5.2-13.6-0.5-4.4-7.1
				l-1.6-2.8c-19.1,11.5-32,11-22.3,3.7l-1.5-2.4c-10.4,5.6-27.8,5.5-36,4.4l-0.9,2.5c3.3,1.3,1.5,7-5.9,15.4l1.9,2
				c13.4-14.9,22.1-13.2,13.4,7.1c-1.3-1.5-2.9-3.9-4.1-6.4l-2.7,1.1c5.5,19.3,3.3,25.4-4.7,25.3l-0.7,2.7
				c8.3,3.3,6.8,10.3-17.3,30.4l1.6,2.1C93.7,954.7,96.6,965.3,68.9,984.1"/>
			<path style="clip-path:url(#SVGID_00000074440436903920004820000017121742454722002833_);fill:#FFFFFF;" d="M813.9,863.7
				c10.6-5.3,21.6-8.2,29.2-8.9l1.2-1.9c-9.3-7.6-4.3-20.6,6.2-15.8l1.3-2.4c-3.2-2.3-6.8-7.8-15.4-29.9l-2.3,1.2
				c5.8,22.4-11.4,4.6-11.4-9.9c0-5.5,2.2-8.2,7-8.2c6.6,0,18.4,9.3,18.8,25l2.4,0.3c1.7-6.5,5-16.8,6.5-21.1
				c-8.2-2.6-13.5-8.6,2.2-7.8l0.7-2.4c-10.2-0.4-18.8-2.4-26-5.6c-10.4,7.3-20.8,12.7-31.1,17.7l-0.3,2.2c7.2,4.2,6.9,15.2-1,15.5
				l-0.1,2.2c7.9,3.3,8.8,9.8,15,24.2l2.4-1.1C810,805,831,833,830.5,844c-0.1,4.6-2.2,8.2-9.6,8.2c-7.8,0-17.7-11.1-19.3-25.7
				l-2-0.7l-8.1,18.3c7.8,5.5,8.5,10.2-2.7,9.2l-0.3,2.2C797.2,856.1,809.4,859.9,813.9,863.7 M731.5,845.6
				c6-19,29.6-54.6,41.8-54.6c4.9,0,0.4,16-24.9,47l1.7,1.3c8.1-9.2,15.5-16.1,17.1-16.1c4.5,0-8.5,26.3-24.2,26.3
				C737.8,849.4,733.1,848.1,731.5,845.6 M705.3,857.1l0.6,2.2c8.8-2.4,6.2,21.3-12.7,30.8l1.3,1.9c20.4-10.1,25.7-4,20.4,1.3
				l1.1,1.9c7.8-4.9,18.1-6,29.2-4.5l0.6-2.2c-8.3-2.6-8.3-9.5,4.3-22.9l-1.4-1.7c-23.1,21.3-28.5,18-25.5,7.3
				c2.2-7.9,4.2-12.5,7.6-12.8c2.3-0.1,5.3,1.7,9.6,6l2.2-2c22-20.6,28.2-19.3,34.9-4.6l2-1c-4.2-11.8-4.7-28.2,9.5-25.6l0.6-2.2
				c-8.5-4-11.5-10.9,10.2-35.2l-1.6-1.6c-17.7,16.4-19.6,11.1-4.9-9.1l-1.3-1.7c-6.5,2-17.5,2-21.3-2.9l-1.9-2.4
				c-11.1,17.1-23,31.8-26.2,31.8c-3.5,0,1-15.2,18.5-47.2l-2-1c-15.5,20.3-24.7,28.9-33.1,19.6L724,781c9.1,10.9,9.1,29.8-5.5,27.6
				l-0.6,2.2c12.2,5,7.2,17.1-8.3,27.5l0.9,2C720.8,834.2,721.4,850.6,705.3,857.1 M695.7,766.5l1.4,2c6.5-7.9,10.1-6.6,8.2,5.6
				l2.6-1.6l11.6-7l2.2-1.3c-1.6-4.3-1.7-8.2-0.7-13.7l-1.6-1.7c-8.5,8.9-10.5,5.5-6.9-5.2l-2.3,1.3l-11.6,6.3l-2.3,1.3
				C697.5,757,697,760.9,695.7,766.5 M666.5,857.6l1,1.9c11.8-6.6,25.2-5.8,16.2,1.4l1.3,1.7c5.8-3.3,12.5-4.6,16.5-4.6l0.7-2.2
				c-10.2-6-8.2-23.3,2.3-22.3l0.6-2c-7.5-2.6-11.1-9.5,7.2-25.2l-1.3-1.9c-12.4,7.8-6.5-9.1,7.8-26.2l-1.9-1.6
				c-14.5,10.9-18,6.3-16-0.7c-5.9,4.7-17.5,14.8-20.1,18.8l1,1.9c9.1-8.9,12.1-2.7,10.4,3.7c-1.4,4.9-5.5,9.8-11.9,8.9l-0.6,2
				c11.8,3.2,5.5,15.2-11.6,31.8l1.3,1.7C688.2,826.6,682,848.6,666.5,857.6 M657.4,860.8l1.6-1.4c-5-6.3,0.7-17.7,4.9-23.9
				l-1.7-1.4c-7,9.8-14.7,14.1-20.3,14.1c-16.5,0,10.4-42.1,18.8-42.1c3.9,0,5,6.3-3.9,19.8l1.7,1.3c10.1-11.6,16.4-25,20-39.8
				l-1.6-1.7c-7,5.8-12.4,5.2-8.5-6.6l-2.2-1.1c-7.9,16.5-24.4,41.7-27.5,41.7c-3.5,0,8.8-28.8,18-41.1l-2-1.6
				c-14.1,10.9-17.7,6.3-16-0.7c-5.8,4.7-14.1,11.6-19.3,18.7l1.2,2c8.6-7.9,12.1-4.3,11.5,1.1c-0.6,5.3-5.2,12.2-12.7,11.5l-0.6,2
				c10.1,4.3,9.5,12.7-11.5,31.8l1.2,1.7c22.7-18.1,14.8,3-4.9,12.7l1,1.9c11.8-6.6,26.5-6.5,19.1,1.4l1.3,1.7
				C635.1,858.1,652,858.1,657.4,860.8 M580.4,781.4l2.3-2c-5.3-9.2-2.6-14.5,2-14.5c6.8,0,17.7,8.9,13.8,29.6l2.6,1.3
				c5.3-11.6,11.2-25,14.7-35.5l-2.6-1.6c-15.8,8.6-22.9,1.7-6.8-7.6l-1.4-2.3c-22.4,11.5-31.1,7-25.6,2.2l-1.7-2.4
				c-10.1,4.6-23.4,9.6-34.1,12.9l1.2,2.6c18.3-4.7,0.7,12.9-14.1,10.9l-1.4,2.7c10.6,2.3-2.9,30.2-11.6,30.8l-0.7,2.3
				c5.3,4,7.3,8.8-3.7,34.5l2.9,0.9c8.6-18.8,12.1-13.4,10.2,6.2c17.5,2,18.7,3.2,6.3,10.8l1.4,2.6c21.3-9.9,36.4-10.2,30.1-3.2
				l1.3,2.6c6.8-3.6,16.2-7.3,25.6-8.6l-0.6-2.9c-12.4,0.9-7.9-8.1,6.8-5.6l1.7-2.4c-10.9-2.4-2-20.4,5-17.5l1.9-2
				c-6.6-10.4-4.6-19.8,7.2-22v-2.9c-17,0.9-30.3,3.2-47.2,7.3l0.9,2.7c16.1-3.2,20.8,0.7,8.8,13.9l2.2,1.9
				c9.8-10.9,12.5-3.9,8.6,6.2c-4.2,10.8-16.7,20-34.8-1l-2,1.7c9.9,11.8,8.6,13.7,4.5,13.7c-12.7,0-24.6-22,0.9-32.5l-1.1-2.7
				c-9.8,3.9-14.4,1.7-14.4-2.3c0-5.8,7.5-14.5,19.7-15.7l0.1-3c-17.7,0-6.8-19.4,6.9-19.4C571.7,771.9,575.5,774.2,580.4,781.4
				 M408.4,809.5l-0.9,2c10.1,4.3,12.7,11.4-11.2,31.8l1.3,1.9c19.8-16.8,15,2.9-4.9,12.5l1,1.9c11.8-6.6,26.5-6.3,18.8,1.6l1.3,1.7
				c6.5-4.2,13.1-5.8,22.1-4.7l1-2c-3.9-0.7-1.7-6.3,4.2-14.7l-1.6-1.4c-2.7,2.2-6.9,4.2-11.1,4.2c-17.5,0,17.3-48.6,30.6-48.6
				c3.9,0,5.2,2.4,5.2,7.3c0,8.2-5.6,18.4-20.6,32.8l1.6,1.4c8.1-7.8,10.6-9.3,12.7-9.3c4.2,0-6.8,21.1-18.8,29.6l1.1,1.9
				c12.8-7.6,22.3-5,14.8,1.7l1,1.9c5.8-3.2,14.4-4.7,18.3-4.7l0.9-2.2c-10.1-12.7-8.2-22.4,2.2-21.4l0.4-2.2
				c-8.6-2.6-9.3-6,6.5-19.6l-1.4-1.9c-12.4,7.8-2-13.4,7.3-22.9l-2-2c-21.4,22.3-26.9,7.3-3.5-5.5l-0.9-2.2c-5.3,2-21.4,4.9-28.5,4
				H453c-4.7,9.3-19.3,30.3-22.6,30.3c-7,0,15-30.2,19.8-35.5l-1.4-2.2c-15.4,10.9-5.5-12.8,13.9-28.8l-1.4-2.2
				c-16.2,11.4-27.6,7.2-25.9,0.1c-7.3,4.7-15,11.8-20,16.7l1.4,2.2c10.9-7.3,15.4-0.9,11.9,10.6c-4.2,14.1-7.2,18-14.4,7l-2,1.3
				C423.8,803.7,421.5,810.8,408.4,809.5 M398.2,750.9l-0.9-2.2c-7.6,3.3-17.4,8.3-24.7,13.2c2,8.6-0.7,15.1-9.6,5.9l-1.9,1.6
				c10.6,10.8,6.5,17.3-9.8,12.5l-4.9,18.3l2.3,0.6c2.3-5.5,6-10.9,10.2-10.9c8.3,0,4.7,21.7-9.3,19.6l-0.6,2
				c11.9,4.6,10.2,13.9-5.5,24l1.3,1.7c13.4-7.2,7.8,3.7,0.3,12.8l1.4,1.7c7.2,0,14.7,6,21.7,12.7c10.2-5.6,18.7-8.5,26.3-10.8
				l0.1-2.3c-2.7-0.9-2.6-9.5,0.7-23.3l-2.2-0.9c-12.5,29.3-31.1,35.5-12.8,7.8l-1.9-1.3c-13.9,19.7-15.7,13.4-13.2,5.3
				c5-17,8.8-23.1,22.6-23.1l0.4-2.3c-25.3-0.4-9.8-23.7,2.3-23.7c4.9,0,8.9,1.3,10.4,9.9l3.3,0.7l4.7-18.4l-2.2-0.7
				c-26.7,4-32.2-0.6-11.1-12.2l-1.4-2C379.8,774,379.4,768.3,398.2,750.9 M282.9,848.9c-4.9,0-1-16,23.4-46.3l-1.6-1.4
				c-7.8,8.8-14.2,15.5-15.8,15.5c-0.3,0-0.7-0.6-0.7-1.6c0-10.8,13.5-24.7,25-24.7c5.3,0,9.2,1.4,10.8,4
				C317.7,813.3,294.7,849,282.9,848.9 M348.4,788.2l-1-2.2c-20,11.1-23.7,2.2-6.8-5.6l-0.9-2c-10.2,2.3-17,1-22.3-1.9l-1.6-0.9
				c-24.6,21.6-30.8,21.4-38,6.6l-2,1c4.3,11.4,4.7,28-9.5,25.5l-0.6,2c8.5,4,11.6,10.8-9.9,35.1l1.4,1.6
				c17.5-16.2,20.3-12.7,5.6,7.5l1.6,1.6c7.6-4.3,17.8-0.4,21.6,5.5l1.3,2c11.1-17.1,22.3-31.9,25.4-31.9c2.3,0,2.6,13.2-11.5,26.3
				l1.3,1.9c11.4-2.7,22.9-4.3,28.8-4.5l0.1-2.3c-9.2-1.4-8.2-6.8,3.6-15.8l-1.1-1.7c-8.1,4.5-8.2-0.6-6.6-5.6
				c1.7-5.6,4.9-9.2,9.8-8.5l0.6-2C329.9,814.1,332.5,797.1,348.4,788.2 M212.1,815.6c-7.6,0,12.5-26.5,24.9-26.5
				c18.4,0-9.5,32.4-17.4,32.4c-2.7,0-1.9-5,7.3-16.4l-1.7-1.3C217.3,813.2,214,815.6,212.1,815.6 M209.4,842.5
				c0-7.2,17.3-21.6,23.7-21.6c2.2,0,2.4,2.6-1.7,8.1l2,1.6c9.2-7.5,21.9-17.4,27.8-28c-14.4,0-13.7-8.1,3.6-9.8v-2
				c-9.3-3.5-20-8.8-27.7-13.8l-1.6-1c-18.5,17-23.7,18.5-31.5,4.7l-1.9,1c4.2,15,4.9,31.2-10.6,27.9l-0.6,2
				c9.8,4.3,9.1,13.4-6.9,28.9l1.4,1.4c15.1-13.1,19.1-0.9,5.9,11.4l1.3,1.7c8.8,0.7,18.3,3.3,25.2,8.1l1.9,1.3
				c9.8-8.8,19.8-11.2,32.6-14.8l-0.4-2.7c-4.3,0.4-8.1-5.9-5-19.1l-2.2-0.7c-7.2,14.2-16.8,24.6-23.6,24.6c-3.7,0-4.6-3.9,4.5-12.9
				l-2-1.6C214.3,847.7,209.4,846.8,209.4,842.5 M69.8,858.4l1.3,2.6c21.6-8.6,47.4-7.3,27.8,4l1.7,2.4
				c22.4-11.5,34.4-10.1,28.8-4.9l1.4,2.3c8.8-4.6,18.4-8.1,28.9-11.1l-1.2-2.7c-24.7,5.6,3.3-15.1,17.7-11.9l1.3-2.6
				c-10.6-2.3,2.9-29.2,11.6-29.8l0.7-2.9c-5.3-4-9.3-11.1,1.7-36.8l-2.7-0.9c-8.6,18.8-13.4,16.7-11.5-2.9
				c-13.8,0-18.3-4.2-11.6-9.3l-1.6-2.6c-19.8,11.2-36.8,5.8-29.3,0l-1.3-1.9c-15.5,7.2-29.2,8.2-38,7l-0.9,1.9
				c4.7,0.9,3.7,7.8-6.6,17.4l1.9,1.7c14.4-16,26-14.1,16.7,7.8c-1.4-1.6-3.2-4.2-4.5-6.9l-3,1c5.9,20.8,3.6,27.5-5,27.3l-0.7,2.9
				c8.9,3.6,7.8,10.9-18.5,32.6l1.7,2.3C96.4,828.3,101.4,837.6,69.8,858.4 M108.8,830.3c1.4-8.3,6.3-11.2,12.5-10.4l0.9-2.9
				c-11.6-3-10.4-7.3,11.5-32.2l-2.2-2c-9.1,9.6-14.2,5.5-8.1-7.2c5.2-10.5,14.1-11.9,31.6,6.6l2.3-1.9c-21-25,11.9-13.1,10.9,6.9
				c-0.3,5.2-3.9,8.8-12.9,7.5l-0.7,2.9c15,3.2,18.1,8.5-10.2,27.2l1.6,2.4c35.4-23.1,12.8,15.7-7.3,15.7c-6.9,0-9.3-2.9-15.4-10.1
				l-1.9,2.2C140,857.6,104.7,853.5,108.8,830.3"/>
			<path style="clip-path:url(#SVGID_00000074440436903920004820000017121742454722002833_);fill:#FFFFFF;" d="M856.2,610.2
				l-0.9-2.2c-7.8,3.4-17.9,8.6-25.4,13.6c2.1,8.9-0.7,15.5-9.9,6.1l-1.9,1.6c10.9,11.1,6.6,17.7-10,12.9l-5,18.8l2.4,0.6
				c2.4-5.6,6.2-11.2,10.5-11.2c8.6,0,4.9,22.3-9.6,20.1l-0.6,2.1c12.3,4.7,10.5,14.3-5.6,24.7l1.3,1.8c13.7-7.4,8,3.8,0.3,13.2
				l1.5,1.8c7.4,0,15.1,6.2,22.3,13c10.5-5.8,19.2-8.7,27-11.1l0.1-2.4c-2.8-0.9-2.7-9.8,0.7-23.9l-2.2-0.9
				c-12.9,30.1-31.9,36.5-13.2,8l-1.9-1.3c-14.3,20.2-16.1,13.7-13.6,5.5c5.2-17.4,9-23.8,23.2-23.8l0.4-2.4
				c-26-0.4-10-24.4,2.4-24.4c5,0,9.2,1.3,10.6,10.2l3.4,0.7l4.9-18.9l-2.2-0.7c-27.5,4.1-33.1-0.6-11.4-12.6l-1.5-2.1
				C837.3,633.8,836.8,628.1,856.2,610.2 M737.7,710.8c-5,0-1-16.4,24.1-47.6l-1.6-1.5c-8,9-14.6,16-16.3,16c-0.3,0-0.7-0.6-0.7-1.6
				c0-11.1,13.9-25.4,25.7-25.4c5.5,0,9.5,1.5,11.1,4.1C773.4,674.3,749.8,711,737.7,710.8 M805.1,648.5l-1-2.2
				c-20.5,11.4-24.4,2.2-6.9-5.8l-0.9-2.1c-10.5,2.4-17.4,1-22.9-1.9l-1.6-0.9c-25.3,22.2-31.6,22-39,6.8l-2.1,1
				c4.4,11.7,4.9,28.8-9.8,26.2l-0.6,2.1c8.7,4.1,12,11.1-10.2,36.1l1.5,1.6c18-16.7,20.8-13,5.8,7.7l1.6,1.6
				c7.8-4.4,18.3-0.4,22.2,5.6l1.3,2.1c11.4-17.6,22.9-32.8,26.2-32.8c2.4,0,2.7,13.6-11.8,27l1.3,1.9c11.7-2.8,23.5-4.4,29.6-4.6
				l0.1-2.4c-9.5-1.5-8.4-6.9,3.7-16.3l-1.2-1.8c-8.3,4.6-8.4-0.6-6.8-5.8c1.8-5.8,5-9.5,10-8.7l0.6-2.1
				C786,675.1,788.7,657.6,805.1,648.5 M683.7,695.7l-1.9-1.5c-26.5,27.8-14.2-6.1,4.1-28.1l-1.8-1.3c-7.8,9-13.7,14.5-15.4,14.5
				c-7.7,0,7.5-27,22.3-27c4.4,0,7.2,4.1,7.2,10.6c0,5.3-3.8,14.3-10.8,24.4l1.9,1.3c8.6-5.9,17.6-14.6,26.6-25.4
				c-12.6,0-13.9-8.1,3.7-10v-2.1c-10.6-3.4-20.1-8.4-27-13.7l-1.9-1.5c-19.1,17.4-24.4,19.1-32.4,4.9l-1.9,1
				c3.5,9.6,7.1,31.5-8.4,28.7l-0.6,2.1c8.4,3.4,6.4,13.7-10,29.7l1.5,1.5c15.5-13.4,20.7-5,6.9,7.2l1.3,1.8
				c9,0.7,18.6,6.6,25.4,12.4l1.9,1.6c10-9,19.8-11.7,33-15.4l-0.6-2.5c-5.8,1.3-9.3-3.3-6.2-16.8l-2.2-0.7
				C691.1,708.9,661.1,728.1,683.7,695.7 M625.2,723.1l1.6-1.5c-5.2-6.5,0.7-18.2,5-24.5l-1.8-1.5c-7.2,10-15.1,14.5-20.8,14.5
				c-17,0,10.6-43.3,19.4-43.3c4,0,5.2,6.5-4,20.4l1.8,1.3c10.3-12,16.8-25.7,20.5-40.9l-1.6-1.8c-7.2,5.9-12.7,5.3-8.7-6.8
				l-2.2-1.2c-8.1,17-25.1,42.9-28.2,42.9c-3.5,0,9-29.6,18.5-42.3l-2.1-1.6c-14.5,11.2-18.2,6.5-16.4-0.7
				c-5.9,4.9-14.5,12-19.8,19.2l1.2,2.1c8.9-8.1,12.4-4.4,11.8,1.2c-0.6,5.5-5.3,12.6-13,11.8l-0.6,2.1c10.3,4.4,9.8,13-11.8,32.7
				l1.2,1.8c23.3-18.6,15.2,3.1-5,13l1,1.9c12.1-6.8,27.2-6.7,19.7,1.5l1.3,1.8C602.3,720.3,619.6,720.3,625.2,723.1 M528,676.7
				c-7.8,0,12.9-27.2,25.6-27.2c18.9,0-9.8,33.2-17.9,33.2c-2.8,0-1.9-5.2,7.5-16.8l-1.8-1.3C533.3,674.2,529.9,676.7,528,676.7
				 M525.2,704.3c0-7.4,17.7-22.2,24.4-22.2c2.2,0,2.5,2.7-1.8,8.3l2.1,1.6c9.5-7.7,22.5-17.9,28.5-28.8c-14.8,0-14-8.3,3.7-10v-2.1
				c-9.6-3.5-20.5-9-28.5-14.2l-1.6-1c-19.1,17.4-24.4,19.1-32.4,4.9l-1.9,1c4.3,15.4,5,32.1-10.9,28.7l-0.6,2.1
				c10,4.4,9.3,13.7-7.1,29.7l1.5,1.5c15.5-13.4,19.7-0.9,6.1,11.7l1.3,1.8c9,0.7,18.8,3.4,25.9,8.3l1.9,1.3
				c10-9,20.4-11.5,33.5-15.2l-0.4-2.8c-4.4,0.4-8.3-6.1-5.2-19.7l-2.2-0.7c-7.4,14.6-17.3,25.3-24.2,25.3c-3.8,0-4.7-4,4.6-13.3
				l-2.1-1.6C530.2,709.6,525.2,708.7,525.2,704.3 M440.1,710.8c-4.9,0-1-16.4,24.2-47.7l-1.8-1.3c-7.8,8.9-14.5,16-16.1,16
				c-0.3,0-0.7-0.6-0.7-1.6c0-11.1,13.7-25.4,25.6-25.4c4.7,0,10,1.3,11.7,4C476.4,674.2,452.8,710.8,440.1,710.8 M444,724.7l1,1.8
				c10.3-19.1,22.8-33,26-33c2.2,0,2.5,13.6-12.1,27l1.3,1.9c13.9-3.3,23.6-4.3,29.4-4.6l0.3-2.4c-7.1-0.7-8.3-7.1,3.7-16.3
				l-1.2-1.8c-8.3,4.6-8.4-0.6-6.8-5.8c1.8-5.8,4.1-9.5,9.9-8.7l0.6-2.1c-7.8-8-2.4-29.6,13.2-32.8l-0.1-1.9
				c-10,0-11.1-3.4-8.4-11.4c3.4-10,10.5-23.3,16.4-29.4l-1.8-2.1c-16.6,11.5-25.3,7.2-23.5,0c-9.6,6.2-17.1,13-21.9,17.3l1.5,2.1
				c13.9-7.7,20.8-1.6,17.4,10.3c-4.6,16.3-8,15.8-13.9,4l-0.7-1.5c-25.7,22-31.9,22-39.3,6.7l-2.1,1c4.4,11.7,4.9,29-9.8,26.3
				l-0.6,2.1c8.7,4.1,11.8,11.1-10.3,36.1l1.5,1.6c18.2-16.7,20.1-11.4,5,9.3l1.6,1.6C428.4,715.7,440.5,718.5,444,724.7
				 M360.3,673.7c-4.1,0,0.4-14.6,17.3-35.3l-1.8-1.5c-14.9,11.2-20.1,6.4-18-0.9c-9.2,6.4-16,13.3-20.5,19.7l1.5,1.6
				c17.7-16.3,15.1,14.6-1,13l-0.9,2.1c10.2,4.4,12.7,11.7-11.8,32.7l1.3,1.9c20.4-17.3,15.4,3-5,12.9l1,1.9
				c12.3-6.8,27.3-6.7,19.5,1.5l1.3,1.8c6.7-4.3,13.3-5.8,22.6-4.7l1-2.1c-4-0.7-2.1-6.5,4.3-15.1l-1.6-1.5
				c-2.8,2.2-6.8,4.3-11.1,4.3c-18,0,17.7-50,31.5-50c3.8,0,5.3,2.5,5.3,7.5c0,7.2-6.1,18.9-21.4,33.7l1.6,1.5
				c8.7-7.8,10.9-9.6,13-9.6c4.6,0-6.8,21.7-19.4,30.4l1.2,1.9c13.3-7.8,23.2-5.3,15.4,1.8l1,1.9c6.1-3.4,14.8-4.9,18.8-4.9l0.9-2.2
				c-10.3-13-8.6-23.1,2.1-22l0.6-2.2c-8.9-2.7-9.8-6.2,6.5-20.1l-1.3-1.9c-12.7,8-2.2-13.7,7.2-23.9l-1.6-1.6
				c-22,22.9-27.6,7.4-3.8-5.8l-0.9-2.1c-5.3,2.1-21.7,4.7-29,4.3l-2.5-0.1C378.3,652.1,363.7,673.7,360.3,673.7 M251.9,652.4
				l1.2,2.2c13-10.9,11.1,17.1-2.5,15.1l-0.6,2.1c11.2,4,10.2,13.6-9.8,35.9l1.5,1.6c17.9-16.7,19.8-11.4,4.7,9.2l1.5,1.8
				c7.5-4.4,18.5-1.9,22.8,3.7l1.8,2.4c12.9-19.9,22.9-32.8,26.2-32.8c2.4,0,2.5,13.6-12,27l1.3,1.9c13.6-3.3,23.5-4.4,29.6-4.6
				l0.1-2.4c-7.1,0-8.4-6.9,3.7-16.3l-1.2-1.8c-8.3,4.6-8.4-0.6-6.8-5.8c1.8-5.8,4.1-9.5,9.9-8.7l0.6-2.1c-7.8-8-4.1-23.8,12.1-35.8
				l-0.6-2.4c-11.8,3.5-22.6,2.1-26.6-5.3c-6.5,5.6-11.8,10.5-16.6,16.8l1.8,1.3c6.5-5.8,13.4-3.5,13.4,3.8
				c0,13.7-26.6,49.5-39.8,49.5c-5.2,0-2.5-20.5,21.4-47.4l-1.9-1.5c-8.1,8.3-12.1,11.7-13.7,11.7c-3.4,0-1.6-11.4,16.7-33.4
				l-1.6-1.6c-12.3,11.2-18.2,6.5-16.4-0.7C265.7,640.5,258.1,645.9,251.9,652.4 M163.9,670.3l-0.9,2.1c10.3,4.4,13,11.7-11.5,32.7
				l1.3,1.9c20.4-17.3,15.4,3-5,12.9l1,1.9c12.1-6.8,27.2-6.5,19.4,1.6l1.3,1.8c6.7-4.3,13.4-5.9,22.8-4.9l1-2.1
				c-4-0.7-1.8-6.5,4.3-15.1l-1.6-1.5c-2.8,2.2-7.1,4.3-11.4,4.3c-18,0,17.7-50,31.5-50c4,0,5.3,2.5,5.3,7.5
				c0,8.4-5.8,18.9-21.1,33.7l1.6,1.5c8.3-8,10.9-9.6,13-9.6c4.3,0-6.9,21.7-19.4,30.4l1.2,1.9c13.2-7.8,22.9-5.2,15.2,1.8l1,1.9
				c5.9-3.3,14.8-4.9,18.8-4.9l0.9-2.2c-10.3-13-8.4-23.1,2.2-22l0.4-2.2c-8.9-2.7-9.6-6.2,6.7-20.1l-1.5-1.9
				c-12.7,8-2.1-13.7,7.5-23.5l-2.1-2.1c-22,22.9-27.6,7.5-3.5-5.6l-0.9-2.2c-5.5,2.1-22,5-29.3,4.1h-2.5
				c-4.9,9.6-19.8,31.2-23.2,31.2c-7.2,0,15.4-31,20.4-36.5l-1.5-2.2c-15.8,11.2-5.6-13.2,14.3-29.6l-1.5-2.2
				c-16.7,11.7-28.4,7.4-26.6,0.1c-7.5,4.9-15.4,12.1-20.5,17.1l1.5,2.2c11.2-7.5,15.8-0.9,12.3,10.9c-4.3,14.5-7.4,18.5-14.8,7.2
				l-2.1,1.3C179.7,664.4,177.3,671.7,163.9,670.3 M81.3,643.6l2.2,1.5c17.6-27.3,20.1-22,14.6-7.7l2.4,1.5
				c10.3-12,20.5-15.8,16.6-0.4c-2.1,8-6.2,16.4-10.9,5.3l-2.7,1.5c6.8,14.3,6.5,30.1-3.7,28.1l-1,2.7c8.9,3.3,8.7,6.2-15.2,22.8
				l2.1,2.4c20.5-13.9,20.7-0.4-8.9,19.5l1.3,2.7c17.9-9.2,25.3-7.2,18.5-0.4l1.9,2.7c6.8-4.4,19.5-5.8,28.4-4.6l1.2-2.8
				c-4.1-1.3-5.2-6.8,6.8-17l-1.8-2.4c-14.9,12.1-21.3,8.3-18-2.2c1.9-6.2,5.8-10.3,12.6-11.1l0.1-2.8c-9.6-5.2-8.3-12.9,13.3-38.6
				l-2.2-2.1c-3.4,4-5.6,5.2-7.8,5.2c-4.3,0,4-20.7,12.1-20.7c3.3,0,4.7,1.9,2.2,6.8l2.5,1.9c7.8-13.2,15.1-5.2,6.1,9.9l2.2,2.2
				c8.4-8.6,14.9-17.1,19.7-23.8l-1.9-2.2c-6.7,4.3-11.1-1.9-1.9-9l-1.8-2.4c-17,9.6-27.8,10.3-21.7,2.5l-1.5-2.4
				c-13.7,6.1-30.3,12.3-27.2,0.7l-2.8-0.9c-3.3,6.9-11.4,8.4-27.5,3.4l-1.3,2.7C91.9,617.4,90.9,622.3,81.3,643.6"/>
			<path style="clip-path:url(#SVGID_00000074440436903920004820000017121742454722002833_);fill:#FFFFFF;" d="M796.6,527.5
				c-9.5,0,15.6-33.1,31.1-33.1c23,0-11.9,40.4-21.7,40.4c-3.4,0-2.3-6.3,9.2-20.5l-2.2-1.6C803.1,524.4,799,527.5,796.6,527.5
				 M793.2,561.1c0-9,21.6-27,29.7-27c2.7,0,3.1,3.2-2.2,10.1l2.5,2c11.5-9.3,27.3-21.7,34.7-35c-18,0-17.1-10.1,4.5-12.2v-2.5
				c-11.7-4.3-25-11-34.7-17.3l-2-1.3c-23.2,21.2-29.7,23.2-39.4,5.9L784,485c5.2,18.7,6.1,39-13.3,34.9l-0.7,2.5
				c12.2,5.4,11.3,16.7-8.6,36.1l1.8,1.8c18.9-16.4,23.9-1.1,7.4,14.2l1.6,2.2c11,0.9,22.8,4.1,31.5,10.1l2.3,1.6
				c12.2-11,24.8-14,40.8-18.5l-0.5-3.4c-5.4,0.5-10.1-7.4-6.3-23.9l-2.7-0.9c-9,17.8-21,30.7-29.5,30.7c-4.7,0-5.8-4.9,5.6-16.2
				l-2.5-2C799.3,567.5,793.2,566.5,793.2,561.1 M698.3,526.7c0-13.5,16.9-30.9,31.3-30.9c6.1,0,11.3,1.8,13.3,5
				c-4.5,18-35.8,62.4-43.1,62.4c-6.5,0-8.1-15.8,21.2-52.5l-2.2-1.6c-9.7,11.1-17.4,19.6-19.4,19.6
				C698.9,528.7,698.3,528,698.3,526.7 M687.2,571.9c4.3,1.6,8.4,4.1,12,7.5c9-14.6,28.8-37.9,32.4-37.9c2.3,0-1.8,16.5-24.3,41.2
				l2.2,2.2c20.7-22.6,4.3,22.6-9.2,22.6c-5,0-6.5-3.8-1.4-11l-2.2-2C676.9,614.8,669,606,687.2,571.9 M674.4,567.7l2,2.3
				c2-0.2,4.1,0,6.3,0.5c-7.7,13.8-19.2,31.1-31.5,39.9l0.9,3.1c7.7,0.9,16,5.2,19.8,10.2l2.5,3.4c14.4-10.1,41.2-15.3,57.9-15.3
				l2.3-1.6c-2.2-8.4-1.6-17.6,0.2-24.8c2.7-9.9,8.1-15.8,12.6-9.7l2.5-1.3c-10.2-23.4-5.8-35.9,10.6-33.1l0.7-2.5
				c-9.5-7.4-11.5-32.7,12.4-45.8l-0.7-2.9c-25.5,14-30.2,2.9-9-6.8l-1.1-2.5c-12.4,2.9-20.7,1.3-27.5-2.2l-2.5-1.3
				c-27.5,25.9-37.7,26.6-47.3,8.3L683,487c5.2,14.2,5.9,35-11.9,31.8l-0.7,2.5c10.6,5,13.7,13.8-12.6,44l2.2,1.6
				C679.8,546,683.9,553.3,674.4,567.7 M644.8,583.9l2-1.8c-6.3-7.9,0.9-22.1,6.1-29.8l-2.2-1.8c-8.8,12.2-18.3,17.6-25.3,17.6
				c-20.7,0,12.9-52.7,23.5-52.7c4.9,0,6.3,7.9-4.9,24.8l2.2,1.6c12.6-14.6,20.5-31.3,25-49.8l-2-2.2c-8.8,7.2-15.5,6.5-10.6-8.3
				l-2.7-1.4c-9.9,20.7-30.6,52.1-34.3,52.1c-4.3,0,11-35.9,22.5-51.4l-2.5-2c-17.6,13.7-22.1,7.9-20-0.9
				c-7.2,5.9-17.6,14.6-24.1,23.4l1.4,2.5c10.8-9.9,15.1-5.4,14.4,1.4c-0.7,6.6-6.5,15.3-15.8,14.4l-0.7,2.5
				c12.6,5.4,11.9,15.8-14.4,39.7l1.4,2.2c28.4-22.6,18.5,3.8-6.1,15.8l1.3,2.3c14.7-8.3,33.1-8.1,23.9,1.8l1.6,2.2
				C616.9,580.5,637.9,580.5,644.8,583.9 M526.5,527.5c-9.5,0,15.6-33.1,31.1-33.1c23,0-11.9,40.4-21.7,40.4
				c-3.4,0-2.3-6.3,9.2-20.5l-2.2-1.6C533,524.4,528.8,527.5,526.5,527.5 M523.1,561.1c0-9,21.6-27,29.7-27c2.7,0,3.1,3.2-2.2,10.1
				l2.5,2c11.5-9.3,27.3-21.7,34.7-35c-18,0-17.1-10.1,4.5-12.2v-2.5c-11.7-4.3-25-11-34.7-17.3l-2-1.3
				c-23.2,21.2-29.7,23.2-39.4,5.9l-2.3,1.3c5.2,18.7,6.1,39-13.3,34.9l-0.7,2.5c12.2,5.4,11.3,16.7-8.6,36.1l1.8,1.8
				c18.9-16.4,23.9-1.1,7.4,14.2l1.6,2.2c11,0.9,22.8,4.1,31.5,10.1l2.3,1.6c12.2-11,24.8-14,40.8-18.5l-0.5-3.4
				c-5.4,0.5-10.1-7.4-6.3-23.9l-2.7-0.9c-9,17.8-21,30.7-29.5,30.7c-4.7,0-5.8-4.9,5.6-16.2l-2.5-2
				C529.2,567.5,523.1,566.5,523.1,561.1 M426,586.2l2.2,1.8c6.1-4.3,23.9-25.7,29.8-25.7c3.1,0,3.1,4.3,0.2,11l2.9,0.7
				c8.3-17.6,20.3-33.6,30.6-36.3l0.7-2.5c-6.8-4.1-6.1-29.1,11-52.5l-1.8-2c-15.3,11-19.8,7.5-17.6-2.7c-9.3,4.9-20.7,14.4-28,22.3
				l1.8,2.2c12.9-6.3,20.3-3.4,20.3,12.4c0,11-4.5,18-9,18c-2.7,0-4.3-3.1-4.5-11.7l-2.7-0.4c-2.7,23-11.5,38.8-17.8,38.8
				c-3.8,0-7.4-8.4-7.4-16.2c0-13.7,2.5-24.8,12.2-34.5l-1.8-2.2c-16.4,13.5-15.3-7,4.3-24.4l-2.2-2.2c-18.2,13.7-22.5,6.7-20-2.2
				c-6.8,5.6-17.8,14.7-24.4,23.4l1.3,2.5c21.4-18.7,14.6,19.4,0.9,45.1l2.5,1.4c14.2-24.3,16.4,0.9,4.9,20.8l2,1.8
				C425.8,565.9,436.1,570.2,426,586.2 M331.1,523.9c-5,0,0.5-17.8,21-43l-2.2-1.8c-18.2,13.7-24.4,7.7-21.9-1.1
				c-11.1,7.7-19.4,16.2-25,23.9l1.8,2c21.6-19.8,18.3,17.8-1.3,15.8l-1.1,2.5c12.4,5.4,15.5,14.2-14.4,39.7l1.6,2.3
				c24.8-21,18.7,3.6-6.1,15.6l1.3,2.3c14.9-8.3,33.2-8.1,23.7,1.8l1.6,2.2c8.1-5.2,16.2-7,27.5-5.8l1.3-2.5
				c-4.9-0.9-2.5-7.9,5.2-18.3l-2-1.8c-3.4,2.7-8.3,5.2-13.5,5.2c-21.9,0,21.6-60.7,38.3-60.7c4.7,0,6.5,3.1,6.5,9.2
				c0,8.8-7.4,23-26.1,41l2,1.8c10.6-9.5,13.3-11.7,15.8-11.7c5.6,0-8.3,26.4-23.5,37l1.4,2.3c16.2-9.5,28.2-6.5,18.7,2.2l1.3,2.3
				c7.4-4.1,18-5.9,22.8-5.9l1.1-2.7c-12.6-15.8-10.4-28,2.5-26.8l0.7-2.7c-10.8-3.2-11.9-7.5,7.9-24.4l-1.6-2.3
				c-15.5,9.7-2.7-16.7,8.8-29.1l-2-2c-26.8,27.9-33.6,9-4.7-7l-1.1-2.5c-6.5,2.5-26.4,5.8-35.2,5.2l-3.1-0.2
				C353.1,497.6,335.3,523.9,331.1,523.9 M215.7,552.6c1.8-6.5,3.8-8.4,10.4-4.5l1.3-2.5c-9-6.3-4.9-16.2,13.8-34.3l-2.2-2
				c-8.4,7.7-14.6,11.3-16.5,11.3c-7.4,0,6.1-24.6,30.9-24.6c9.3,0,15.5,7.2,12.6,17.8c-1.3,4.5-5.6,6.7-12.9,4.1l-1.4,2.5
				c6.6,3.6,6.1,9-13.3,32.2l2.2,1.4c8.8-7.9,14.2-12,16.2-12c12,0-0.7,28-28,28C218.6,570.1,213.4,561.4,215.7,552.6 M210.2,483.8
				l-2.3,1.3c5.6,14.7,5.6,39-13.8,34.9l-0.9,2.5c12.4,5.4,9.5,16.4-10.1,35.9l1.6,2.2c18.9-16.5,24.3-1.3,8.6,14l1.6,2.2
				c11.7,0.7,24.3,4.7,33.4,10.2l2.3,1.4c23.2-21.2,32-22.8,41-6.3l2.5-1.3c-5.6-14.9-5.6-39.2,14-35l0.7-2.5
				c-12.4-5.4-9.5-16.4,10.1-35.9l-1.6-2.2c-18.9,16.5-24.3,3.1-8.6-12.2l-1.6-2.2c-11.3-1.1-26.4-5.6-35.6-11.5l-2-1.3
				C226.3,499.2,220.2,501.6,210.2,483.8 M164.5,485l3.1-3.1c-8.4-10.6-7.2-16-2.9-16.4c6.6-0.5,20.7,11.5,15.8,35.4l3.2,1.6
				c6.7-14.6,13.1-30.2,17.4-43.3l-3.2-2c-12.9,9.7-20.1,0.5-8.1-10.2l-2-3.2c-27,14.4-38.3,8.8-31.5,2.7l-2.2-3.1
				c-12.6,5.8-29.3,12-42.4,15.8l1.3,3.6c22.8-5.9,0.9,16.2-17.8,13.7l-1.4,3.4c13.1,3.8-4.7,38.1-14.9,38.5l-0.5,2.9
				c6.7,5,9.2,11-4.7,43.1l3.4,1.1c10.8-23.5,15.1-16.7,12.8,7.7c21.9,2.5,23.4,4,7.9,13.5l2,3.2c26.4-12.4,44-10.8,36.3-2l2.2,2.9
				c10.1-6.1,20.3-9.2,32-11l-0.9-3.4c-6.8,0.5-9.5-1.3-9.2-3.2c0.5-2.5,6.8-5.2,16.9-3.1l2-3.2c-3.2-1.4-3.2-10.1,5.4-30.9
				l-3.6-1.6c-12.2,26.1-24.8,31.3-23,15.3l-3.4-0.9c-6.5,22.5-10.4,25.5-32.7-1.1l-2.7,2.5c12.9,15.5,9.5,17.8,4.3,17.8
				c-14.9,0-28.2-43-5.8-31.3l2-2.9c-18.9-10.6-13.5-32.4,12.2-29.7l0.5-3.6c-27.1-3.4-8.1-24.4,2.9-29.5
				C146.2,466.4,152.5,469.8,164.5,485"/>
			<path style="clip-path:url(#SVGID_00000074440436903920004820000017121742454722002833_);fill:#FFFFFF;" d="M795.1,369.1
				c17.2-25.9,28.1-38,37.4-38c2.8,0,4.4,2,4.4,5.1C836.9,343.4,819.3,359.8,795.1,369.1 M816.7,312.2l-2.2-3.2
				c-17.6,12.5-13.6-14,18.4-39.9l-2-3c-21.7,15.6-37.4,9.9-35,0.2c-10.1,6.5-20.6,16.4-27.7,23.1l2,2.8c15-9.9,22.1-3.8,16.6,16.6
				c-5.9,21.5-8.5,22.9-19,11.1l-3.2,2.8c17.4,20.4,12.3,38.4-1.6,35.2l-0.8,2.8c8.3,3.6,9.1,9.7-12.3,31.2l1.6,2.4
				c24.3-21.5,14.8,14.6-13.4,27.5l1.8,3c15.8-9.1,42.1-8.9,31.8,2l1.8,2.4c8.7-5.7,17.8-7.7,30.2-6.3l0.6-2.8
				c-5.7-1.4-6.3-9.3-1.2-16l-2.4-2.2c-4.5,5.1-7.5,5.9-12.1,5.9c-12.7,0-6.1-31.6,9.9-31.6c8.5,0,10.3,13.2,5.1,21.7l2.4,2.2
				c6.1-9.7,19.6,3.4,16.8,26.7l3.8,1c2.4-12.3,15.2-12.9,29.7-2.6l1.6-2.4c-29.9-37.2-32.2-44.9-22.7-49.4l-0.6-3
				c-29.1,9.7-6.5-14.2,4.3-14.2c4,0,7.3,2.2,6.1,6.3l3,1.2c6.3-12.5,12.1-23.3,19-36.4l-2.4-1.8c-23.1,22.9-23.5,4.5-1.6-9.1
				l-1.6-2.6c-7.9,3.2-30.4,4.9-38.9,4.9c-10.3,17-24.7,37.2-29.3,37.2C788.6,355.9,795.3,330.2,816.7,312.2 M708.1,389.9l-2.6-2
				c-35.4,37.2-19-8.1,5.5-37.6l-2.4-1.8c-10.5,12.1-18.4,19.4-20.6,19.4c-10.3,0,10.1-36.2,29.9-36.2c5.9,0,9.7,5.5,9.7,14.2
				c0,7.1-5.1,19.2-14.4,32.6l2.6,1.8c11.5-7.9,23.5-19.6,35.6-34c-16.8,0-18.6-10.9,4.9-13.4v-2.8c-14.2-4.5-26.9-11.3-36.2-18.4
				l-2.6-2c-25.5,23.3-32.6,25.5-43.3,6.5l-2.6,1.4c4.7,12.9,9.5,42.1-11.3,38.4l-0.8,2.8c11.3,4.5,8.5,18.4-13.4,39.7l2,2
				c20.8-18,27.7-6.7,9.3,9.7l1.8,2.4c12.1,1,24.9,8.9,34,16.6l2.6,2.2c13.4-12.1,26.5-15.6,44.1-20.6l-0.8-3.4
				c-7.7,1.8-12.5-4.4-8.3-22.5l-3-1C718,407.5,677.9,433.2,708.1,389.9 M584.2,364.4c-10.5,0,17.2-36.4,34.2-36.4
				c25.3,0-13,44.5-23.9,44.5c-3.8,0-2.6-6.9,10.1-22.5l-2.4-1.8C591.3,361,586.8,364.4,584.2,364.4 M580.4,401.4
				c0-9.9,23.7-29.7,32.6-29.7c3,0,3.4,3.6-2.4,11.1l2.8,2.2c12.7-10.3,30.1-23.9,38.2-38.6c-19.8,0-18.8-11.1,4.9-13.4v-2.8
				c-12.9-4.7-27.5-12.1-38.2-19l-2.2-1.4c-25.5,23.3-32.6,25.5-43.3,6.5l-2.6,1.4c5.7,20.6,6.7,42.9-14.6,38.4l-0.8,2.8
				c13.4,5.9,12.5,18.4-9.5,39.7l2,2c20.8-18,26.3-1.2,8.1,15.6l1.8,2.4c12.1,1,25.1,4.5,34.6,11.1l2.6,1.8
				c13.4-12.1,27.3-15.4,44.9-20.4l-0.6-3.8c-5.9,0.6-11.1-8.1-6.9-26.3l-3-1c-9.9,19.6-23.1,33.8-32.4,33.8
				c-5.1,0-6.3-5.3,6.1-17.8l-2.8-2.2C587.2,408.5,580.4,407.3,580.4,401.4 M463.2,405.5c8.3-26.1,40.7-75.1,57.5-75.1
				c6.7,0,0.6,21.9-34.2,64.6l2.4,1.8c11.1-12.7,21.4-22.1,23.5-22.1c6.1,0-11.7,36.2-33.2,36.2
				C471.9,410.9,465.4,409.1,463.2,405.5 M427.2,421.3l0.8,3c12.1-3.4,8.5,29.3-17.4,42.3l1.8,2.6c28.1-13.8,35.4-5.5,28.1,1.8
				l1.6,2.6c10.7-6.7,24.9-8.3,40.1-6.1l0.8-3c-11.5-3.6-11.5-13,5.9-31.4l-2-2.4c-31.8,29.3-39.1,24.7-35,10.1
				c3-10.9,5.7-17.2,10.5-17.6c3.2-0.2,7.3,2.4,13.2,8.3l3-2.8c30.2-28.3,38.7-26.5,48-6.3l2.8-1.4c-5.7-16.2-6.5-38.8,13-35.2
				l0.8-3c-11.7-5.5-15.8-15,14-48.4l-2.2-2.2c-24.3,22.5-26.9,15.2-6.7-12.5l-1.8-2.4c-8.9,2.8-24.1,2.8-29.3-4l-2.6-3.4
				c-15.2,23.5-31.6,43.7-36,43.7c-4.7,0,1.4-21,25.5-64.8l-2.8-1.4c-21.4,27.9-34,39.7-45.5,26.9l-3.2,2.4
				c12.5,15,12.5,40.9-7.5,38l-0.8,3c16.8,6.9,9.9,23.5-11.5,37.8l1.2,2.8C448.6,389.9,449.4,412.4,427.2,421.3 M367.5,344
				c4-12.7,10.1-15.6,13.2-15.6c11.5,0,8.7,30.4-8.9,27.5l-0.6,2.8c10.9,3.8,16.4,11.7-9.1,38l2.2,2c18.4-17.8,8.1,13.8-12.7,23.5
				l1.4,2.6c18.2-7.9,34.2-8.9,26.5,2l1.8,2.4c11.5-6.3,33.4-6.9,42.3-4.2l1.4-2.8c-5.7-4.5-3.6-17.2,2.8-27.7l-2.4-2
				c-8.9,13-16.2,16.6-25.5,16.6c-18,0-10.5-23.1,10.3-24.9l0.6-3c-20.8-4.5-18.4-12.1,8.9-31.2l-1.6-2.6
				c-22.5,17.8-13.2-19.6,4.3-19.6c8.3,0,14,2.8,16,14.6l4.5,1l6.5-24.7l-3.4-1c-9.5,2-17.8,2.2-23.1,2.2
				c-13.8,0-12.3-21.2,4.5-28.1c11.1-4.5,16.6,4,10.9,17.6l2.8,1.4c6.1-6.5,14.2-17.4,20-25.9c-18,4-27.9-9.1-2.4-16l-0.8-3
				c-19.2,4-31.8,7.1-44.3,11.9c-2.6,17.8-10.5,28.3-19.4,2.4l-3.2,1.2c7.3,33.2-1.6,40.7-20,36.8l-6.7,25.1L367.5,344z
				 M320.9,425.5l1,2.6c11.5-1.8,20-4.5,29.5-9.3l-1-3c-10.7,3.2-16.4-5.1-13.4-17.4c1.8-7.3,5.9-14.4,13.6-14.4l0.8-2.8
				c-10.1-4.3-13-15,13.2-35l-1.6-2.8c-16.8,13.2-11.1-14.2,9.9-30.4l-1.2-2.8c-16,9.7-7.7-19.2,16.2-41.5l-1.8-2.6
				c-20.8,15.4-33.8,9.9-31.4,0.2c-10.1,6.5-20.6,16.4-27.7,23.1l1.8,2.6c15-9.9,21-5.7,15.4,15c-5.3,20.2-7.7,25.7-15.4,12.9
				l-2.8,1.4c11.7,23.7,9.7,37.8-8.1,34.6l-0.8,3.2c16.2,5.5,13.2,13.4-13.6,38.9l2,2.6c20-16.6,18.8,3.6-9.9,21.2l1,3
				C323.6,415.2,329.6,419.9,320.9,425.5 M205.6,332l1.6,3c17.4-14.6,14.8,22.9-3.4,20.2l-0.8,2.8c15,5.3,13.6,18.2-13,48l2,2.2
				c23.9-22.3,26.5-15.2,6.3,12.3l2,2.4c10.1-5.9,24.7-2.6,30.4,4.9l2.4,3.2c17.2-26.7,30.6-43.9,35-43.9c3.2,0,3.4,18.2-16,36.2
				l1.8,2.6c18.2-4.3,31.4-5.9,39.5-6.1l0.2-3.2c-9.5,0-11.3-9.3,4.9-21.7l-1.6-2.4c-11.1,6.1-11.3-0.8-9.1-7.7
				c2.4-7.7,5.5-12.7,13.2-11.7l0.8-2.8c-10.5-10.7-5.5-31.8,16.2-47.8l-0.8-3.2c-15.8,4.7-30.2,2.8-35.6-7.1
				c-8.7,7.5-15.8,14-22.1,22.5l2.4,1.8c8.7-7.7,18-4.7,18,5.1c0,18.4-35.6,66.2-53.2,66.2c-6.9,0-3.4-27.5,28.7-63.5l-2.6-2
				c-10.9,11.1-16.2,15.6-18.4,15.6c-4.5,0-2.2-15.2,22.3-44.7l-2.2-2.2c-16.4,15-24.3,8.7-21.9-1C224,316,213.9,323.3,205.6,332
				 M91.3,359.3v4c18.4,1.6,22.9,30.6,6.9,51.6l2.8,3c18.4-18.4,35.8-7.5,9.5,8.9l2.8,3c17.4-8.5,36.8-23.5,51.2-37l-2-3.4
				c-10.1,7.1-13.8,6.9-13.8,3.4c-0.2-8.5,21-36.4,31.4-30.1l2-3.6c-9.9-4.9-5.3-15.6,30.8-46.3l-2.6-3.2
				c-10.3,7.3-20.8-2.2,8.5-27.5l-1.6-3.8c-23.5,11.5-34.4,10.7-26.1,1.8l-1.8-3.8c-8.5,4.9-17,6.9-28.7,5.1l-0.2,4.2
				c5.3,0.6,7.1,7.5-9.3,25.9l2.8,3.2c9.9-10.9,17.6-14.8,22.7-14.8c7.3,0-19,65-50,98.7c1-13.6,6.9-29.3,12.3-38.9l-3-3
				c-14.8,14-18-3.4,6.9-30.8l-2.8-3.2c-20.8,24.3-35.8-4.7,5.9-39.9l-1.4-3.8c-23.5,9.5-35.4,7.7-26.1,0.8l-1.4-3.8
				c-8.7,4.3-20.6,7.7-29.5,5.7l-1,4c19.8,6.5,23.9,48.4,0.2,8.3l-3.2,2.8C113.5,343.2,112.9,360.4,91.3,359.3"/>
			<path style="clip-path:url(#SVGID_00000074440436903920004820000017121742454722002833_);fill:#FFFFFF;" d="M767.3,231.7
				c-7.1,0-1.5-23.1,33.9-66.9l-2.3-2.1c-11.2,12.7-20.6,22.4-22.8,22.4c-0.4,0-1-0.8-1-2.3c0-15.6,19.5-35.7,36.1-35.7
				c7.7,0,13.3,2.1,15.6,5.8C817.6,180.4,784.4,231.9,767.3,231.7 M862.1,144l-1.5-3.1c-28.9,16-34.3,3.1-9.8-8.1l-1.2-2.9
				c-14.7,3.3-24.5,1.5-32.2-2.7l-2.3-1.2c-35.5,31.2-44.4,30.9-54.8,9.6l-2.9,1.5c6.2,16.4,6.9,40.5-13.7,36.8l-0.8,2.9
				c12.3,5.8,16.8,15.6-14.3,50.7l2.1,2.3c25.3-23.5,29.3-18.3,8.1,10.8l2.3,2.3c11-6.2,25.8-0.6,31.2,7.9l1.9,2.9
				c16-24.7,32.2-46.1,36.8-46.1c3.3,0,3.7,19.1-16.6,38l1.9,2.7c16.4-3.9,33-6.2,41.5-6.4l0.2-3.3c-13.3-2.1-11.8-9.8,5.2-22.8
				l-1.7-2.5c-11.6,6.4-11.8-0.8-9.6-8.1c2.5-8.1,7.1-13.3,14.1-12.3l0.8-2.9C835.3,181.4,839,156.9,862.1,144 M655.2,179.6
				c-5.8,0,0.6-20.6,24.3-49.6l-2.5-2.1c-21,15.8-28.2,8.9-25.3-1.2c-12.9,8.9-22.4,18.7-28.9,27.6l2.1,2.3
				c24.9-22.8,21.2,20.6-1.5,18.3l-1.2,2.9c14.3,6.2,17.9,16.4-16.6,45.9l1.9,2.7c28.7-24.3,21.6,4.2-7.1,18.1l1.5,2.7
				c17.2-9.6,38.4-9.3,27.4,2.1l1.9,2.5c9.3-6,18.7-8.1,31.8-6.6l1.5-2.9c-5.6-1-2.9-9.1,6-21.2l-2.3-2.1c-3.9,3.1-9.6,6-15.6,6
				c-25.3,0,24.9-70.2,44.2-70.2c5.4,0,7.5,3.5,7.5,10.6c0,10.2-8.5,26.6-30.1,47.4l2.3,2.1c12.3-11,15.4-13.5,18.3-13.5
				c6.4,0-9.6,30.5-27.2,42.8l1.7,2.7c18.7-11,32.6-7.5,21.6,2.5l1.5,2.7c8.5-4.8,20.8-6.9,26.4-6.9l1.2-3.1
				c-14.5-18.3-12-32.4,2.9-30.9l0.8-3.1c-12.5-3.7-13.7-8.7,9.1-28.2l-1.9-2.7c-17.9,11.2-3.1-19.3,10.2-33.6l-2.3-2.3
				c-30.9,32.2-38.8,10.4-5.4-8.1l-1.2-2.9c-7.5,2.9-30.5,6.6-40.7,6l-3.5-0.2C680.5,149.2,660,179.6,655.2,179.6 M525,231.7
				c-7.1,0-1.5-23.1,33.9-66.9l-2.3-2.1c-11.2,12.7-20.6,22.4-22.8,22.4c-0.4,0-1-0.8-1-2.3c0-15.6,19.5-35.7,36.1-35.7
				c7.7,0,13.3,2.1,15.6,5.8C575.2,180.4,542,231.9,525,231.7 M619.7,144l-1.5-3.1c-28.9,16-34.3,3.1-9.8-8.1l-1.2-2.9
				c-14.7,3.3-24.5,1.5-32.2-2.7l-2.3-1.2c-35.5,31.2-44.4,30.9-54.8,9.6L515,137c6.2,16.4,6.9,40.5-13.7,36.8l-0.8,2.9
				c12.3,5.8,16.8,15.6-14.3,50.7l2.1,2.3c25.3-23.5,29.3-18.3,8.1,10.8l2.3,2.3c11-6.2,25.8-0.6,31.2,7.9l1.9,2.9
				c16-24.7,32.2-46.1,36.8-46.1c3.3,0,3.7,19.1-16.6,38l1.9,2.7c16.4-3.9,33-6.2,41.5-6.4l0.2-3.3c-13.3-2.1-11.8-9.8,5.2-22.8
				l-1.7-2.5c-11.6,6.4-11.8-0.8-9.6-8.1c2.5-8.1,7.1-13.3,14.1-12.3l0.8-2.9C592.9,181.4,596.6,156.9,619.7,144 M414.7,251.6
				l2.5,2.1c7.1-5,27.6-29.7,34.5-29.7c3.5,0,3.5,5,0.2,12.7l3.3,0.8c9.6-20.4,23.5-38.8,35.3-42l0.8-2.9
				c-7.9-4.8-7.1-33.6,12.7-60.6l-2.1-2.3c-17.7,12.7-22.8,8.7-20.4-3.1c-10.8,5.6-23.9,16.6-32.4,25.8l2.1,2.5
				c15-7.3,23.5-3.9,23.5,14.3c0,12.7-5.2,20.8-10.4,20.8c-3.1,0-5-3.5-5.2-13.5L456,176c-3.1,26.6-13.3,44.9-20.6,44.9
				c-4.4,0-8.5-9.8-8.5-18.7c0-15.8,2.9-28.7,14.1-39.9l-2.1-2.5c-18.9,15.6-17.7-8.1,5-28.2l-2.5-2.5c-21,15.8-26,7.7-23.1-2.5
				c-7.9,6.4-20.6,17-28.2,27l1.5,2.9c24.7-21.6,16.8,22.4,1,52.1l2.9,1.7c16.4-28,18.9,1,5.6,24.1l2.3,2.1
				C414.5,228.2,426.3,233.1,414.7,251.6 M363,248.9l2.3-2.1c-7.3-9.1,1-25.5,7.1-34.5l-2.5-2.1c-10.2,14.1-21.2,20.4-29.3,20.4
				c-23.9,0,15-60.9,27.2-60.9c5.6,0,7.3,9.1-5.6,28.7l2.5,1.9c14.5-16.8,23.7-36.1,28.9-57.5l-2.3-2.5c-10.2,8.3-17.9,7.5-12.3-9.6
				l-3.1-1.7c-11.4,23.9-35.3,60.2-39.7,60.2c-5,0,12.7-41.5,26-59.4l-2.9-2.3c-20.4,15.8-25.5,9.1-23.1-1
				c-8.3,6.9-20.4,16.8-27.8,27l1.7,2.9c12.5-11.4,17.4-6.2,16.6,1.7c-0.8,7.7-7.5,17.7-18.3,16.6l-0.8,2.9
				c14.5,6.2,13.7,18.3-16.6,45.9l1.7,2.5c32.8-26.2,21.4,4.4-7.1,18.3l1.5,2.7c17-9.6,38.2-9.3,27.6,2.1l1.9,2.5
				C330.8,245,355.1,245,363,248.9 M273.7,112.7l2.1,2.9c9.3-11.4,14.5-9.6,11.8,8.1l3.7-2.3l16.8-10.2l3.1-1.9
				c-2.3-6.2-2.5-11.8-1-19.7l-2.3-2.5c-12.3,12.9-15.2,7.9-10-7.5l-3.3,1.9l-16.8,9.1l-3.3,1.9C276.4,99,275.5,104.6,273.7,112.7
				 M231.5,244.4l1.5,2.7c17-9.6,36.3-8.3,23.5,2.1l1.9,2.5c8.3-4.8,18.1-6.6,23.9-6.6l1-3.1c-14.7-8.7-11.8-33.6,3.3-32.2l0.8-2.9
				c-10.8-3.7-16-13.7,10.4-36.3l-1.9-2.7c-17.9,11.2-9.3-13.1,11.2-37.8l-2.7-2.3c-21,15.8-26,9.1-23.1-1
				c-8.5,6.9-25.3,21.4-29.1,27.2l1.5,2.7c13.1-12.9,17.4-3.9,15,5.4c-2.1,7.1-7.9,14.1-17.2,12.9l-0.8,2.9c17,4.6,7.9,22-16.8,45.9
				l1.9,2.5C262.9,199.5,253.9,231.3,231.5,244.4 M186.2,247.1l4.2-0.6c0.6-12,10.4-12,21.8,8.7l3.7-2.3c-9.3-18.9-1-35.1,8.9-32.6
				l1.9-3.7c-16.4-7.1-13.5-29.9,10-45.3l-0.8-3.7c-17.4,6-12.3-13.7,18.1-45.5l-2.9-3.5c-47.4,49.6-20.4,1.2,9.1-18.3l-1.2-3.9
				c-34.5,14.3-37.8,5.8-26.6-2.3l-1.7-3.9c-12,6.2-22.2,9.6-34.9,7.9l-0.4,3.9c7.5,0.8,5.6,9.6-9.6,23.9l2.7,3.3
				c19.1-19.7,33.2-19.1,27.2,10.4c-3.5,17.7-10.6,20.8-13.5,3.7l-3.1,1.5c4.8,41.3,5.2,60.4,0.4,74.8c-7.1-8.1-11.8-29.5-16.2-74.6
				h-4.2c3.1,28-4.8,29.3-15.2-6.4c-6.9-23.5-5.4-30.9,3.7-35.9l-1.5-3.9c-25.5,9.8-29.3,4.4-22.6-1.5l-1.2-3.7
				c-9.6,5-22.8,5.8-32.4,4.8l-0.6,4.2c8.5,0,8.5,9.1-8.7,23.5l2.9,3.1c31.6-26.8,32.8-3.9-5.8,38.2l3.1,3.1
				c22-18.5,35.7-9.3-28,47.8l2.9,3.1c16.8-15,26.8-16.2,26.8-11.2c0,5.8-11,20.1-37.6,32.4l1.7,3.9c24.9-10.4,43.8-8.3,31.8,1.7
				l1.7,3.5c16.2-8.7,26.8-8.5,42-6l1.2-4.2c-5.4-2.3-5.4-8.5,8.9-24.5l-3.5-2.7c-22,19.3-34.7,14.3-30.7-3.9
				c5.4-25.3,10.4-27.6,15.8-3.1l3.9-1.2c-3.3-50.5-2.5-66.7,0.2-82.5c7.5,16.8,11.6,36.8,16.2,75.8h4.4
				C155.7,168.8,168.2,180.4,186.2,247.1"/>
		</g>
	</g>
</g>
</svg>
