<?xml version="1.0" encoding="utf-8"?>
<!-- Generator: Adobe Illustrator 27.4.0, SVG Export Plug-In . SVG Version: 6.00 Build 0)  -->
<svg version="1.1" id="Ebene_1" xmlns="http://www.w3.org/2000/svg" xmlns:xlink="http://www.w3.org/1999/xlink" x="0px" y="0px"
	 viewBox="0 0 960 1200" style="enable-background:new 0 0 960 1200;" xml:space="preserve">
<style type="text/css">
	.st0{clip-path:url(#SVGID_00000025409723662776020540000018340966636622158471_);fill:#1D1D1B;}
	
		.st1{clip-path:url(#SVGID_00000025409723662776020540000018340966636622158471_);fill:none;stroke:#1D1D1B;stroke-width:23.345;stroke-miterlimit:10;}
	.st2{clip-path:url(#SVGID_00000025409723662776020540000018340966636622158471_);fill:#FFFFFF;}
	
		.st3{clip-path:url(#SVGID_00000025409723662776020540000018340966636622158471_);fill:none;stroke:#FFFFFF;stroke-width:0.657;stroke-miterlimit:10;}
	
		.st4{clip-path:url(#SVGID_00000025409723662776020540000018340966636622158471_);fill:none;stroke:#FFFFFF;stroke-width:6.571;stroke-miterlimit:10;}
	
		.st5{clip-path:url(#SVGID_00000025409723662776020540000018340966636622158471_);fill:none;stroke:#1D1D1B;stroke-width:3.147;stroke-miterlimit:10;}
	.st6{fill:none;stroke:#1D1D1B;stroke-width:3.147;stroke-miterlimit:10;}
	.st7{clip-path:url(#SVGID_00000079487466494194987850000016327328610499404477_);fill:#1D1D1B;}
	.st8{clip-path:url(#SVGID_00000079487466494194987850000016327328610499404477_);fill:#FFFFFF;}
	.st9{clip-path:url(#SVGID_00000075849036267858115850000002106204352688410507_);fill:#1D1D1B;}
	.st10{fill:#1D1D1B;}
	.st11{clip-path:url(#SVGID_00000043421075776318310030000016806045310304740757_);fill:#1D1D1B;}
</style>
<g>
	<g>
		<defs>
			<rect id="SVGID_1_" x="155.2" y="97.6" width="651.5" height="1006.7"/>
		</defs>
		<clipPath id="SVGID_00000071557465761035522740000007729272063220017329_">
			<use xlink:href="#SVGID_1_"  style="overflow:visible;"/>
		</clipPath>
		<path style="clip-path:url(#SVGID_00000071557465761035522740000007729272063220017329_);fill:#1D1D1B;" d="M222.2,1092.7H749
			c25,0,45.3-20.3,45.3-45.3V164.6c0-25-20.3-45.3-45.3-45.3H222.2c-25,0-45.3,20.3-45.3,45.3v882.9
			C176.9,1072.4,197.2,1092.7,222.2,1092.7"/>
		
			<path style="clip-path:url(#SVGID_00000071557465761035522740000007729272063220017329_);fill:none;stroke:#1D1D1B;stroke-width:23.345;stroke-miterlimit:10;" d="
			M222.2,1092.7H749c25,0,45.3-20.3,45.3-45.3V164.6c0-25-20.3-45.3-45.3-45.3H222.2c-25,0-45.3,20.3-45.3,45.3v882.9
			C176.9,1072.4,197.2,1092.7,222.2,1092.7z"/>
		<path style="clip-path:url(#SVGID_00000071557465761035522740000007729272063220017329_);fill:#FFFFFF;" d="M204.6,1073.4h525.3
			c24.9,0,45.2-20.2,45.2-45.2V147c0-24.9-20.2-45.2-45.2-45.2H204.6c-24.9,0-45.2,20.2-45.2,45.2v881.2
			C159.4,1053.2,179.6,1073.4,204.6,1073.4"/>
		
			<path style="clip-path:url(#SVGID_00000071557465761035522740000007729272063220017329_);fill:none;stroke:#FFFFFF;stroke-width:0.657;stroke-miterlimit:10;" d="
			M204.6,1073.4h525.3c24.9,0,45.2-20.2,45.2-45.2V147c0-24.9-20.2-45.2-45.2-45.2H204.6c-24.9,0-45.2,20.2-45.2,45.2v881.2
			C159.4,1053.2,179.6,1073.4,204.6,1073.4z"/>
		<path style="clip-path:url(#SVGID_00000071557465761035522740000007729272063220017329_);fill:#1D1D1B;" d="M477.2,104.5
			c-87.7,2.4-176,3.4-263.7,3.9c-4,0-8.1,0-11.6,0.3c-5.5,0.6-10.7,2.1-15.6,4.7c-1.2,0.6-2.4,1.5-3.5,2.1c-0.7,0.5-2.6,1.9-3.3,2.4
			c-0.7,0.6-2.3,2.2-3,2.8c-2.1,2.3-4.3,4.8-5.8,7.5c-0.4,0.7-1,1.6-1.4,2.3l-1.2,2.5c-0.7,1.4-1.1,3-1.7,4.4
			c-0.1,0.4-0.7,2.9-0.8,3.3c-0.2,0.7-0.4,1.9-0.5,2.7c-0.1,0.8-0.3,1.9-0.3,2.7c-0.1,1.7-0.2,3.9-0.2,5.6
			c0.2,70.4-0.1,270.9-0.9,341c-0.6,63.9-1.6,127.9-3.3,191.8c-3.7-137.8-4.4-391.8-4.2-529.8c0-3.2,0-7,0.3-10.2
			c0.2-1.2,0.4-2.9,0.6-4c0.2-1.5,1-4.1,1.4-5.6c0.7-1.7,1.2-3.7,2.1-5.3c0.5-0.9,1.6-3.5,2.2-4.4c7.8-13.8,22.6-23.3,38.4-24.5
			c4.5-0.3,8.3-0.1,12.3-0.1C301.2,101.1,389.5,102.1,477.2,104.5"/>
		<path style="clip-path:url(#SVGID_00000071557465761035522740000007729272063220017329_);fill:#1D1D1B;" d="M462.7,111.4
			c-82.1,2.4-164.8,3.4-246.9,3.9c-7.3,0-14-0.1-20.7,2.6c-4,1.4-7.6,3.7-10.9,6.3c-0.7,0.6-2.2,2-2.8,2.6c-0.8,1-1.7,1.9-2.5,2.8
			c-2.6,3.3-4.8,7-6.2,11c-0.1,0.4-0.5,1.4-0.7,1.8c-0.1,0.3-0.7,2.7-0.8,3.1c-0.2,0.7-0.3,1.8-0.4,2.5c-0.1,0.7-0.3,1.8-0.3,2.5
			c-0.3,49.5-0.1,126.9-0.6,176.4c-0.6,74.7-1.5,260.1-3.8,334.8c-3.6-125.2-4.3-366.4-4.2-491.9l0-11.2c0-3.3,0-7,0.4-10.3
			c0.2-1.4,0.4-3.2,0.8-4.6c0.3-1,0.8-3.5,1.2-4.5c0.6-1.4,1-3,1.7-4.3l1.3-2.8c7.2-13.7,21.5-23.2,36.9-24.4
			c4.2-0.3,7.8-0.1,11.6-0.1C298,108,380.6,109,462.7,111.4"/>
		<path style="clip-path:url(#SVGID_00000071557465761035522740000007729272063220017329_);fill:#1D1D1B;" d="M448.3,118.2
			c-79.9,2.7-160.4,3.1-240.3,4.1c-11.7,1.1-22.6,8.4-28,18.8l-1,2.1c-0.6,1.2-1,2.6-1.5,3.8c-0.2,1.1-0.8,2.9-1,4
			c-0.1,0.8-0.3,2.1-0.4,2.9c0,0.4-0.1,2.5-0.1,2.9c0.1,54.1-0.1,129-0.6,183c-0.7,62.7-1.6,235.9-3.6,298.6
			c-3.6-116.7-4.3-349-4.2-466l0-10.5c0-3,0-6.6,0.4-9.6c0.2-1.3,0.4-3,0.7-4.3c0.3-0.9,0.8-3.3,1.2-4.2c0.5-1.3,0.9-2.8,1.6-4
			l1.3-2.6c6.7-12.8,20.2-21.8,34.6-22.9c4-0.3,7.3-0.1,10.8-0.1C294.7,114.9,371.7,115.8,448.3,118.2"/>
		<path style="clip-path:url(#SVGID_00000071557465761035522740000007729272063220017329_);fill:#1D1D1B;" d="M433.8,125.1
			c-64.5,2.2-129.4,3.1-194,3.7l-19.4,0.2c-6.3,0-12-0.1-17.7,2.2c-3.9,1.4-7.9,3.9-10.9,6.8c-3.1,2.9-5.7,6.5-7.4,10.5
			c-0.3,0.6-0.5,1.3-0.8,2c-0.2,0.6-0.5,1.4-0.7,2c-0.2,0.8-0.7,2.4-0.7,3.1c-0.1,0.5-0.2,1.6-0.3,2.1c-0.2,1.8-0.2,3.7-0.2,5.6
			c0,1.5,0,10.4,0,12.1c0.1,108.5-0.6,331.8-4.2,440c-2.2-64.5-3.2-239.7-3.8-304.3c-0.4-39.7-0.6-105.8-0.5-145.5
			c0-2.8,0-6.1,0.3-9c0.2-1,0.4-2.4,0.5-3.3c0.4-1.2,0.8-3.4,1.3-4.6c0.5-1.2,0.9-2.6,1.5-3.8c4.4-9.8,12.9-17.9,23.1-21.5
			c6.4-2.6,14-2.6,20.5-2.4C291.4,121.7,362.8,122.7,433.8,125.1"/>
		<path style="clip-path:url(#SVGID_00000071557465761035522740000007729272063220017329_);fill:#1D1D1B;" d="M419.3,132
			c-59.5,2.2-119.2,3.1-178.7,3.7l-17.9,0.2c-5.8,0-11-0.1-16.2,2c-3.6,1.3-7.1,3.5-9.9,6.2c-2.9,2.7-5.2,6-6.8,9.5
			c-0.3,0.6-0.5,1.2-0.7,1.8c-0.2,0.6-0.5,1.3-0.6,1.9c-0.2,0.7-0.6,2.2-0.7,2.9c-0.1,0.5-0.2,1.4-0.3,1.9c-0.2,1.6-0.2,3.4-0.2,5.1
			c0,1.4,0,9.6,0,11.2c0.1,100-0.6,314.4-4.2,414.1c-2-53.5-2.9-217.6-3.6-271.1c-0.3-47.1-1.1-111.8-0.4-159c0.1-1.4,0.4-3,0.6-4.3
			c0.3-1.1,0.7-3.2,1.2-4.2c0.5-1.1,0.8-2.4,1.4-3.5c4.1-9.1,11.9-16.6,21.4-19.9c5.9-2.4,13-2.4,19-2.2
			C288.2,128.6,353.9,129.6,419.3,132"/>
		<path style="clip-path:url(#SVGID_00000071557465761035522740000007729272063220017329_);fill:#1D1D1B;" d="M404.9,138.8
			c-49,2-98.1,2.9-147.1,3.6c-11.6,0.3-29,0.1-40.5,0.5c-7.1,0.7-13.7,4.3-18.2,9.8c-4.2,5.1-6.2,11.7-5.9,18.3
			c0.2,34.4-0.1,90.3-0.4,124.6c-0.6,54.4-1.6,219.4-3.8,273.7c-2.2-54.4-3.2-219.3-3.8-273.7c-0.4-34.4-0.6-90.3-0.4-124.6
			c-0.2-8.4,2.5-16.9,7.9-23.5c5.9-7.2,14.7-11.8,23.9-12.5c6.1-0.3,18.7,0.1,24.9,0.1C295.8,135.7,350.5,136.6,404.9,138.8"/>
		<path style="clip-path:url(#SVGID_00000071557465761035522740000007729272063220017329_);fill:#1D1D1B;" d="M390.4,145.7
			c-54.2,2.4-108.8,3.4-163,3.9c-4.8,0-8.9-0.1-13.2,1.7c-8.4,3.1-14.6,11.3-15.3,20.3c-0.2,3.2-0.1,9.3-0.1,12.6
			c0.1,84-0.7,278.3-4.3,362.2c-3.4-79-4.2-268.3-4.3-347.4c0-4.9,0-17.5,0-22.2c0-1.8,0-4.1,0.2-5.9c1-12.1,9.4-23.2,20.9-27.1
			c5-2,11-2,16-1.9C281.7,142.3,336.2,143.3,390.4,145.7"/>
		<path style="clip-path:url(#SVGID_00000071557465761035522740000007729272063220017329_);fill:#1D1D1B;" d="M457.3,1070.7
			c87.7-2.4,176-3.4,263.7-3.9c4,0,8.1,0,11.6-0.3c5.5-0.6,10.7-2.1,15.6-4.7c1.2-0.6,2.4-1.5,3.5-2.1c0.7-0.5,2.6-1.9,3.3-2.4
			c0.7-0.6,2.3-2.2,3-2.8c2.1-2.3,4.3-4.8,5.8-7.5c0.4-0.7,1-1.6,1.4-2.3l1.2-2.5c0.7-1.4,1.1-3,1.7-4.4c0.1-0.4,0.7-2.9,0.8-3.3
			c0.2-0.7,0.4-1.9,0.5-2.7c0.1-0.8,0.3-1.9,0.3-2.7c0.1-1.7,0.2-3.9,0.2-5.6c-0.2-70.4,0.1-160.6,0.9-230.8
			c0.6-63.9,1.6-127.9,3.3-191.8c3.7,137.8,4.4,281.5,4.2,419.6c0,3.2,0,7-0.3,10.2c-0.2,1.2-0.4,2.9-0.6,4c-0.2,1.5-1,4.1-1.4,5.6
			c-0.7,1.7-1.2,3.7-2.1,5.3c-0.5,0.9-1.6,3.5-2.2,4.4c-7.8,13.8-22.6,23.3-38.4,24.5c-4.5,0.3-8.3,0.1-12.3,0.1
			C633.2,1074.1,545,1073.1,457.3,1070.7"/>
		<path style="clip-path:url(#SVGID_00000071557465761035522740000007729272063220017329_);fill:#1D1D1B;" d="M471.7,1063.9
			c82.1-2.4,164.8-3.4,246.9-3.9c7.3,0,14,0.1,20.7-2.6c4-1.4,7.6-3.7,10.9-6.3c0.7-0.6,2.2-2,2.8-2.6c0.8-1,1.7-1.9,2.5-2.8
			c2.6-3.3,4.8-7,6.2-11c0.1-0.4,0.5-1.4,0.7-1.8c0.1-0.3,0.7-2.7,0.8-3.1c0.2-0.7,0.3-1.8,0.4-2.5c0.1-0.7,0.3-1.8,0.3-2.5
			c0.3-49.5,0.1-126.9,0.6-176.4c0.6-74.7,1.5-149.8,3.8-224.5c3.6,125.2,4.3,256.1,4.2,381.6l0,11.2c0,3.3,0,7-0.4,10.3
			c-0.2,1.4-0.4,3.2-0.8,4.6c-0.3,1-0.8,3.5-1.2,4.5c-0.6,1.4-1,3-1.7,4.3l-1.3,2.8c-7.2,13.7-21.5,23.2-36.9,24.4
			c-4.2,0.3-7.8,0.1-11.6,0.1C636.5,1067.2,553.9,1066.3,471.7,1063.9"/>
		<path style="clip-path:url(#SVGID_00000071557465761035522740000007729272063220017329_);fill:#1D1D1B;" d="M486.2,1057
			c79.9-2.7,160.4-3.1,240.3-4.1c11.7-1.1,22.6-8.4,28-18.8l1-2.1c0.6-1.2,1-2.6,1.5-3.8c0.2-1.1,0.8-2.9,1-4
			c0.1-0.8,0.3-2.1,0.4-2.9c0-0.4,0.1-2.5,0.1-2.9c-0.1-54.1,0.1-129,0.6-183c0.7-62.7,1.6-125.6,3.6-188.3
			c3.6,116.7,4.3,238.7,4.2,355.7l0,10.5c0,3,0,6.6-0.4,9.6c-0.2,1.3-0.4,3-0.7,4.3c-0.3,0.9-0.8,3.3-1.2,4.2
			c-0.5,1.3-0.9,2.8-1.6,4l-1.3,2.6c-6.7,12.8-20.2,21.8-34.6,22.9c-4,0.3-7.3,0.1-10.8,0.1C639.8,1060.4,562.8,1059.4,486.2,1057"
			/>
		<path style="clip-path:url(#SVGID_00000071557465761035522740000007729272063220017329_);fill:#1D1D1B;" d="M500.7,1050.1
			c64.5-2.2,129.4-3.1,194-3.7l19.4-0.2c6.3,0,12,0.1,17.7-2.2c3.9-1.4,7.9-3.9,10.9-6.8c3.1-2.9,5.7-6.5,7.4-10.5
			c0.3-0.6,0.5-1.3,0.8-2c0.2-0.6,0.5-1.4,0.7-2c0.2-0.8,0.7-2.4,0.7-3.1c0.1-0.5,0.2-1.6,0.3-2.1c0.2-1.8,0.2-3.7,0.2-5.6
			c0-1.5,0-10.4,0-12.1c-0.1-108.5,0.6-221.5,4.2-329.7c2.2,64.5,3.2,129.4,3.8,194c0.4,39.7,0.6,105.8,0.5,145.5c0,2.8,0,6.1-0.3,9
			c-0.2,1-0.4,2.4-0.5,3.3c-0.4,1.2-0.8,3.4-1.3,4.6c-0.5,1.2-0.9,2.6-1.5,3.8c-4.4,9.8-12.9,17.9-23.1,21.5
			c-6.4,2.6-14,2.6-20.5,2.4C643,1053.5,571.6,1052.5,500.7,1050.1"/>
		<path style="clip-path:url(#SVGID_00000071557465761035522740000007729272063220017329_);fill:#1D1D1B;" d="M515.1,1043.3
			c59.5-2.2,119.2-3.1,178.7-3.7l17.9-0.2c5.8,0,11,0.1,16.2-2c3.6-1.3,7.1-3.5,9.9-6.2c2.9-2.7,5.2-6,6.8-9.5
			c0.3-0.6,0.5-1.2,0.7-1.8c0.2-0.6,0.5-1.3,0.6-1.9c0.2-0.7,0.6-2.2,0.7-2.9c0.1-0.5,0.2-1.4,0.3-1.9c0.2-1.6,0.2-3.4,0.2-5.1
			c0-1.4,0-9.6,0-11.2c-0.1-100,0.6-204.1,4.2-303.8c2,53.5,2.9,107.3,3.6,160.8c0.3,47.1,1.1,111.8,0.4,159c-0.1,1.4-0.4,3-0.6,4.3
			c-0.3,1.1-0.7,3.2-1.2,4.2c-0.5,1.1-0.8,2.4-1.4,3.5c-4.1,9.1-11.9,16.6-21.4,19.9c-5.9,2.4-13,2.4-19,2.2
			C646.3,1046.6,580.5,1045.7,515.1,1043.3"/>
		<path style="clip-path:url(#SVGID_00000071557465761035522740000007729272063220017329_);fill:#1D1D1B;" d="M529.6,1036.4
			c49-2,98.1-2.9,147.1-3.6c11.6-0.3,29-0.1,40.5-0.5c7.1-0.7,13.7-4.3,18.2-9.8c4.2-5.1,6.2-11.7,5.9-18.3
			c-0.2-34.4,0.1-90.3,0.4-124.6c0.6-54.4,1.5-109.1,3.8-163.5c2.2,54.4,3.2,109,3.8,163.5c0.4,34.4,0.6,90.3,0.4,124.6
			c0.2,8.5-2.5,16.9-7.9,23.5c-5.9,7.2-14.7,11.8-23.9,12.5c-6.1,0.3-18.7-0.1-24.9-0.1C638.6,1039.6,584,1038.6,529.6,1036.4"/>
		<path style="clip-path:url(#SVGID_00000071557465761035522740000007729272063220017329_);fill:#1D1D1B;" d="M544.1,1029.5
			c54.2-2.4,108.8-3.4,163-3.9c4.8,0,8.9,0.1,13.2-1.7c8.4-3.1,14.6-11.3,15.3-20.3c0.2-3.2,0.1-9.3,0.1-12.6
			c-0.1-84,0.7-168,4.3-251.9c3.4,79,4.2,158,4.3,237.1c0,4.9,0,17.5,0,22.2c0,1.8,0,4.1-0.2,5.9c-1,12.1-9.4,23.2-20.9,27.1
			c-5,2-11,2-16,1.9C652.8,1032.9,598.3,1031.9,544.1,1029.5"/>
		
			<path style="clip-path:url(#SVGID_00000071557465761035522740000007729272063220017329_);fill:none;stroke:#FFFFFF;stroke-width:6.571;stroke-miterlimit:10;" d="
			M203.8,1074.3h526.8c25,0,45.3-20.3,45.3-45.3V146.2c0-25-20.3-45.3-45.3-45.3H203.8c-25,0-45.3,20.3-45.3,45.3V1029
			C158.5,1054,178.8,1074.3,203.8,1074.3z"/>
		<path style="clip-path:url(#SVGID_00000071557465761035522740000007729272063220017329_);fill:#1D1D1B;" d="M544.1,145.7
			c54.2-2.4,108.8-3.4,163-3.9c5-0.1,11.1-0.1,16,1.9c11.5,4,19.9,15.1,20.9,27.1c0.1,1.9,0.2,4.1,0.1,5.9c0,4.7,0,17.4,0,22.2
			c-0.1,79.1-0.9,268.4-4.3,347.4c-3.6-83.9-4.3-278.2-4.3-362.2c0-3.3,0.1-9.4-0.1-12.6c-0.6-9-6.9-17.2-15.3-20.3
			c-4.3-1.8-8.4-1.6-13.2-1.7C652.8,149,598.3,148.1,544.1,145.7"/>
		<path style="clip-path:url(#SVGID_00000071557465761035522740000007729272063220017329_);fill:#1D1D1B;" d="M398.8,1028.7
			c-54.2,2.4-108.8,3.4-163,3.9c-5,0.1-11.1,0.1-16-1.9c-11.5-4-19.9-15.1-20.9-27.1c-0.1-1.9-0.2-4.1-0.1-5.9c0-4.7,0-17.4,0-22.2
			c0.1-79.1,0.9-158.1,4.3-237.1c3.6,83.9,4.3,167.9,4.3,251.9c0,3.3-0.1,9.4,0.1,12.6c0.6,9,6.9,17.2,15.3,20.3
			c4.3,1.8,8.4,1.6,13.2,1.7C290,1025.3,344.5,1026.3,398.8,1028.7"/>
		<path style="clip-path:url(#SVGID_00000071557465761035522740000007729272063220017329_);fill:#1D1D1B;" d="M542.3,603.9
			c0,36.3-29.4,65.7-65.7,65.7c-36.3,0-65.7-29.4-65.7-65.7s29.4-65.7,65.7-65.7C512.9,538.2,542.3,567.6,542.3,603.9"/>
		<path style="clip-path:url(#SVGID_00000071557465761035522740000007729272063220017329_);fill:#1D1D1B;" d="M476.6,540.9
			c-34.7,0-63,28.3-63,63c0,34.7,28.3,63,63,63s63-28.3,63-63C539.6,569.2,511.3,540.9,476.6,540.9 M476.6,672.4
			c-37.7,0-68.5-30.7-68.5-68.5c0-37.7,30.7-68.5,68.5-68.5s68.5,30.7,68.5,68.5C545,641.7,514.3,672.4,476.6,672.4"/>
		<path style="clip-path:url(#SVGID_00000071557465761035522740000007729272063220017329_);fill:#FFFFFF;" d="M526.6,603.9
			c0,27.6-22.4,50-50,50c-27.6,0-50-22.4-50-50s22.4-50,50-50C504.2,553.9,526.6,576.3,526.6,603.9"/>
		
			<ellipse transform="matrix(0.9239 -0.3827 0.3827 0.9239 -194.8425 228.3435)" style="clip-path:url(#SVGID_00000071557465761035522740000007729272063220017329_);fill:none;stroke:#1D1D1B;stroke-width:3.147;stroke-miterlimit:10;" cx="476.6" cy="603.9" rx="50" ry="50"/>
	</g>
	<line class="st6" x1="481.1" y1="610.2" x2="503" y2="638.4"/>
	<g>
		<defs>
			<rect id="SVGID_00000127042232471059610570000017244153116193724335_" x="155.2" y="97.6" width="651.5" height="1006.7"/>
		</defs>
		<clipPath id="SVGID_00000134252237543066778760000012529670507490120321_">
			<use xlink:href="#SVGID_00000127042232471059610570000017244153116193724335_"  style="overflow:visible;"/>
		</clipPath>
		<path style="clip-path:url(#SVGID_00000134252237543066778760000012529670507490120321_);fill:#1D1D1B;" d="M433.5,609.4
			c3.2,14.4,12.8,27.1,26.8,33.2c13.7,6,29.5,4.3,42.1-3.4c-17.2,15.1-44.8,12-59.6-6.3C437.2,625.8,433.7,618.1,433.5,609.4"/>
		<path style="clip-path:url(#SVGID_00000134252237543066778760000012529670507490120321_);fill:#1D1D1B;" d="M436.6,605.9
			c0.9,8,4.2,15.3,9.4,22c12.8,15.9,34.7,19.3,51.8,10.1c-11.4,8.8-27.3,9.7-40.4,2.7C444.4,633.8,435.8,620.2,436.6,605.9"/>
		<path style="clip-path:url(#SVGID_00000134252237543066778760000012529670507490120321_);fill:#1D1D1B;" d="M439.9,602.9
			c1.3,13.9,9.2,27.3,22.5,33.2c10,4.3,21.2,4.3,31.3,0.4c-11.9,7.9-28,6.5-39.5-1.9C444.4,627,438.6,615.3,439.9,602.9"/>
		<path style="clip-path:url(#SVGID_00000134252237543066778760000012529670507490120321_);fill:#1D1D1B;" d="M443.5,600.4
			c-0.4,12.1,5.7,23.9,16.3,30.5c8.9,5.8,20.2,6.7,30,3.8c-8,4.5-17.7,4.5-26.2,1.4C449.4,630.3,440.5,615.1,443.5,600.4"/>
		<path style="clip-path:url(#SVGID_00000134252237543066778760000012529670507490120321_);fill:#1D1D1B;" d="M447.2,598.4
			c-0.9,10.8,3.9,21.8,12.6,28.3c7.5,5.4,17.3,7.7,26.6,5.4c-9.5,4.5-21,2.8-29.2-3.9C448.6,621.1,443.6,609.2,447.2,598.4"/>
		<path style="clip-path:url(#SVGID_00000134252237543066778760000012529670507490120321_);fill:#1D1D1B;" d="M451,597
			c-3.4,18.2,14.1,36.1,32.3,32.5c-8,3.4-16.8,1.4-23.7-3.5C451.4,619.2,446.4,607.4,451,597"/>
		<path style="clip-path:url(#SVGID_00000134252237543066778760000012529670507490120321_);fill:#1D1D1B;" d="M454.8,596.1
			c-1.1,6.5,0,13.2,3.3,18.9c4.6,7.6,13.8,12.4,22.7,11.5c-8.7,3.2-17.8-0.4-23.4-7.5C452.5,612.4,451.1,603.8,454.8,596.1"/>
		<path style="clip-path:url(#SVGID_00000134252237543066778760000012529670507490120321_);fill:#1D1D1B;" d="M458.6,595.8
			c-3.7,13.2,6.3,27.1,20,27.9c-7.2,1.8-14.9-1.5-19.1-7.9C455.4,609.9,454.6,601.8,458.6,595.8"/>
		<path style="clip-path:url(#SVGID_00000134252237543066778760000012529670507490120321_);fill:#1D1D1B;" d="M462.3,596
			c-3.4,10.7,3.8,22.8,15,24.3c-7.1,1.4-14.2-2.8-16.8-9.5C458.4,605.8,459.1,600.4,462.3,596"/>
		<path style="clip-path:url(#SVGID_00000134252237543066778760000012529670507490120321_);fill:#1D1D1B;" d="M465.8,596.7
			c-3,8.1,1.4,17.9,10.2,19.9c-3.7,1.2-7.3-0.5-10-3.1C461.7,609,461.1,601.3,465.8,596.7"/>
		<path style="clip-path:url(#SVGID_00000134252237543066778760000012529670507490120321_);fill:#1D1D1B;" d="M520.5,598.9
			c-2-15.8-13.7-28.7-28.1-34.9c-16.5-6.8-36.1-2.1-48.2,10.7c5.2-7.9,13.6-12.7,22.8-15C492.9,552.5,519.8,573,520.5,598.9"/>
		<path style="clip-path:url(#SVGID_00000134252237543066778760000012529670507490120321_);fill:#1D1D1B;" d="M517.3,602.3
			c-1.5-14.8-10.7-27.8-24.3-34.1c-15-6.7-31.9-3.5-44.3,6.2c9.2-10.2,24-14,37.2-11.5C503.9,566.7,517.9,583.7,517.3,602.3"/>
		<path style="clip-path:url(#SVGID_00000134252237543066778760000012529670507490120321_);fill:#1D1D1B;" d="M513.9,605.3
			c-0.3-9.8-4.1-19-11.1-26.2c-13.2-13.3-34.9-14.4-49.4-3.8c8.4-8.9,21.7-10.9,33-8.5C503.2,570.6,516.5,587.7,513.9,605.3"/>
		<path style="clip-path:url(#SVGID_00000134252237543066778760000012529670507490120321_);fill:#1D1D1B;" d="M510.3,607.7
			c0.8-7.3-1.7-14.3-5.6-20.6c-10.1-15.1-31.6-19.9-47.1-11.1c8.8-7.7,21.7-8.2,32.5-4.2C503.9,577.6,513.5,592.9,510.3,607.7"/>
		<path style="clip-path:url(#SVGID_00000134252237543066778760000012529670507490120321_);fill:#1D1D1B;" d="M506.5,609.6
			c1.7-8.1-1.4-16-6.3-22.6c-9.4-11.9-25.7-15.3-39-9.2c13.2-9.8,33-4.4,41.9,9.3C507.3,593.8,509.1,602.2,506.5,609.6"/>
		<path style="clip-path:url(#SVGID_00000134252237543066778760000012529670507490120321_);fill:#1D1D1B;" d="M502.7,611
			c1.9-7.4-0.4-15.2-5.1-21.3c-7.7-10-21.2-14-32.7-10.1c10.8-6.7,25.4-2.7,33.6,7C504,593.7,506.7,602.7,502.7,611"/>
		<path style="clip-path:url(#SVGID_00000134252237543066778760000012529670507490120321_);fill:#1D1D1B;" d="M498.9,611.8
			c2.2-8.8-1.1-18.7-8.1-24.3c-6.2-4.7-14.3-7.7-22.4-5.4c6.7-4.1,15.9-2,22.3,2C499.4,589.8,504,601.9,498.9,611.8"/>
		<path style="clip-path:url(#SVGID_00000134252237543066778760000012529670507490120321_);fill:#1D1D1B;" d="M495.1,612
			c2.2-7.5,0-15.9-6-21.3c-4.8-4.3-11.6-6.9-18.1-6.1c9.7-4.1,21.2,1.7,25.4,11.1C498.6,601.2,498.4,607.1,495.1,612"/>
		<path style="clip-path:url(#SVGID_00000134252237543066778760000012529670507490120321_);fill:#1D1D1B;" d="M491.4,611.7
			c4.8-11.6-5.7-25-18.3-24.3c7.8-2.7,16.7,2,20.2,9.6C495.7,602.2,494.6,607.5,491.4,611.7"/>
		<path style="clip-path:url(#SVGID_00000134252237543066778760000012529670507490120321_);fill:#1D1D1B;" d="M487.9,611
			c4.1-9.3-3-19.9-13-20.4c5.8-2.1,12.8,0.9,15.3,6.8C492,602,491.6,607.5,487.9,611"/>
		<path style="clip-path:url(#SVGID_00000134252237543066778760000012529670507490120321_);fill:#1D1D1B;" d="M476.6,553.3
			c-27.9,0-50.6,22.7-50.6,50.6c0,27.9,22.7,50.6,50.6,50.6c27.9,0,50.6-22.7,50.6-50.6C527.2,576,504.5,553.3,476.6,553.3
			 M476.6,669.1c-35.9,0-65.2-29.2-65.2-65.2c0-35.9,29.2-65.2,65.2-65.2c35.9,0,65.2,29.2,65.2,65.2
			C541.7,639.9,512.5,669.1,476.6,669.1"/>
		<path style="clip-path:url(#SVGID_00000134252237543066778760000012529670507490120321_);fill:#FFFFFF;" d="M514.5,554.5
			c1.7,1,3.4,2.2,4.9,3.5c2.7,2.2,5,4.9,6.7,8c-3.7-9-11.9-15.5-20.6-19.3c0,0,0,0.1,0,0.1c-11.7-5.9-25.2-8.1-38.2-6.3
			c-13.8,2-26.3,8.3-36.2,18.2c-20,20-24.5,50.5-11.5,75.3h0c1.9,4.5,4.6,8.6,7.8,12.3c3.2,3.5,7.1,6.6,11.5,8.3
			c-2.1-1.2-3.9-2.5-5.6-4.2c-2.3-2.3-4.3-4.9-6-7.7c0.6,0.7,1.1,1.3,1.7,1.9c2.4,2.6,5.3,4.9,8.4,6.7c1,0.6,2.1,1.1,3.2,1.5
			c-1.7-1-3.5-2.3-4.9-3.6c-2.5-2.3-4.6-4.9-6.5-7.7c0.5,0.5,0.9,1,1.4,1.5c2.5,2.6,5.4,4.8,8.5,6.5c1,0.5,2.2,1.1,3.2,1.5
			c-1.4-0.8-3-2-4.3-3c-2.7-2.3-5.1-5-7.1-7.9c0.4,0.4,0.8,0.9,1.3,1.3c2.5,2.5,5.4,4.7,8.6,6.4c0.9,0.5,2.2,1.1,3.2,1.5
			c-1.1-0.6-2.6-1.7-3.6-2.5c-3-2.4-5.6-5.2-7.9-8.3c0.4,0.4,0.9,0.9,1.3,1.3c2.6,2.4,5.5,4.5,8.7,6.2c0.9,0.5,2.2,1.1,3.2,1.5
			c-0.8-0.5-2.2-1.4-2.9-1.9c-3.4-2.5-6.4-5.6-9-8.9c3.1,3,6.5,5.7,10.4,7.7c0.9,0.5,2.3,1.1,3.2,1.5c-0.5-0.3-1.8-1-2.3-1.4
			c-5.4-3.6-9.9-8.6-13.3-14.2l0,0c-11.9-20.3-8.6-46.1,8.1-62.8c8-8,18.1-13,29.2-14.6c10.8-1.5,21.9,0.4,31.5,5.4l0.1-0.1
			c2.8,1.6,5.5,3.5,8,5.6c2.6,2.2,5,4.8,7,7.7c0.6,0.8,1.3,2.1,1.9,3l-0.7-1.6c-2-4.5-5.1-8.6-8.6-12.2c0.7,0.5,1.3,1,2,1.5
			c1.2,1,2.3,2,3.4,3.1c1.3,1.4,2.6,2.9,3.7,4.4c0.6,0.8,1.3,2,1.9,2.9c0.1,0.1-0.4-1.1-0.4-1c-2-4.6-5.1-8.7-8.8-12.3
			c0.6,0.4,1.2,0.8,1.7,1.3c1.2,0.9,2.3,1.9,3.4,3c1.4,1.3,2.6,2.8,3.7,4.3c0.6,0.8,1.3,2,1.9,2.9c0.1,0.2-0.2-0.6-0.1-0.4
			c-2-4.7-5.3-8.9-9.1-12.4c0.5,0.4,1,0.7,1.6,1.1c1.2,0.9,2.4,1.8,3.4,2.8c1.4,1.3,2.6,2.7,3.8,4.1c0.7,0.8,1.3,1.9,1.9,2.8
			c0.2,0.3,0.1-0.1,0.2,0.2c-2.1-4.9-5.4-9.1-9.4-12.6c0.5,0.3,1,0.6,1.4,1c1.2,0.8,2.4,1.8,3.5,2.7c1.4,1.2,2.7,2.6,3.8,4
			c0.7,0.8,1.4,1.8,1.9,2.7c0.2,0.4,0.3,0.4,0.5,0.8C522.1,562.3,518.6,558,514.5,554.5"/>
	</g>
	<path class="st6" d="M401.3,528.7l20.4,20.4 M531.5,659.1l20.4,20.4 M401.3,679.5l20.4-20.4 M531.5,549.1l20.4-20.4 M370.1,604.1
		h28.8 M554.2,604.1H583 M476.6,526.3v-28.9"/>
	<g>
		<defs>
			<rect id="SVGID_00000086694148637925919720000017923606600866430390_" x="155.2" y="97.6" width="651.5" height="1006.7"/>
		</defs>
		<clipPath id="SVGID_00000103953232748289271470000001634603509956290237_">
			<use xlink:href="#SVGID_00000086694148637925919720000017923606600866430390_"  style="overflow:visible;"/>
		</clipPath>
		<path style="clip-path:url(#SVGID_00000103953232748289271470000001634603509956290237_);fill:#1D1D1B;" d="M359.7,748l0.3,0
			l0-2.3l0.2-7.2c0-1.6,0.6-2.2,2.2-2.6l0-0.2h-5.5c0,0.3,0,0.6,0,1h0.7c0.8,0,1.3,0.5,1.3,1.3l0.1,6.2l-7-8.6h-4c0,0.3,0,0.7,0,1
			h0.9c0.7,0,1.2,0.3,1.2,1.3l-0.2,6.7c0,1.5-0.7,2.1-2.2,2.5l0,0.2h5.6c0-0.3,0-0.7,0-1h-0.8c-0.8,0-1.2-0.4-1.2-1.3l-0.1-7.4
			l5.9,7.2C357.8,746,358.9,747.1,359.7,748 M338,742.3l1.8-4.5l1.8,4.5H338z M341.3,747.5h5.5l0-0.2c-0.5-0.2-1.4-1.2-2.2-3l-3.7-9
			h-1.2l-3.7,8.8c-0.8,1.9-1.7,3-2.4,3.2l0,0.2h4.5l0-0.2l-0.5-0.3c-0.9-0.5-1-1.1-0.6-2.2l0.6-1.5h4.4l0.4,0.9
			c0.7,1.6,0.5,2.4-0.6,2.8l-0.5,0.2L341.3,747.5z M323,746.8h0.3l4.8-9.7l0.4,7.7c0.1,1.4-0.6,2-2.2,2.4l0,0.2h6.1c0-0.3,0-1,0-1
			l-0.5,0c-0.7,0-1.1-0.2-1.2-1.3l-0.5-6.6c-0.1-1.6,0.4-2.3,2-2.6l0-0.2h-4.7l-3.8,8.2l-3.8-8.2h-4.8c0,0.3,0,0.6,0,1l0.7,0
			c1,0,1.4,0.3,1.3,1.6l-0.5,6.4c-0.1,1.5-0.7,2.2-2.3,2.5l0,0.2h5.6c0-0.3,0-0.7,0-1h-0.8c-0.7,0-1.2-0.3-1.2-1.3l0.5-8L323,746.8z
			 M301.8,741.7c0-3.7,2-5.3,4.3-5.3c2.3,0,4,1.9,4,5.1c0,3.6-2,5.2-4.3,5.2C303.5,746.8,301.8,744.9,301.8,741.7 M306.3,735.3
			c-3.9,0-6.8,3-6.8,6.7c0,3.6,2.4,5.9,6,5.9c3.9,0,6.8-3.1,6.8-6.6C312.3,737.6,309.9,735.3,306.3,735.3 M290,741.4v-4.8l1.3,0
			c1.8,0.1,2.6,0.8,2.6,1.9C293.9,740.1,292.5,741,290,741.4 M285.8,747.2l0,0.2h5.9c0-0.3,0-0.6,0-1h-0.2c-1,0-1.4-0.2-1.4-1v-3.1
			c0.3,0,0.6-0.1,0.9-0.1l4.1,5.3h2.8c0-0.3,0-0.6,0-1.1c-0.8-0.1-1.4-0.5-2.7-2l-2.2-2.7c2.2-0.7,3.3-2,3.3-3.5
			c0-1.7-1.3-2.6-3.8-2.6H286c0,0.3,0,0.7,0,1.1h0.8c0.7,0,1.2,0.4,1.2,1.3v6.8C288,746.2,287.2,746.9,285.8,747.2"/>
		<path style="clip-path:url(#SVGID_00000103953232748289271470000001634603509956290237_);fill:#1D1D1B;" d="M351.3,721.1l0,0.4
			h7.9v-1.8h-0.3c-1.4,0-2-0.5-2-2.7v-8.9c1.2-1.4,3.1-2.3,4.5-2.3c2.1,0,3.3,0.9,3.3,3.9v5.9c0,4-0.7,4.7-2.4,5.6l0,0.4h7.9v-1.8
			h-0.3c-1.4,0-2-0.5-2-2.7v-9c0-3.5-1.8-5.2-4.5-5.2c-2.1,0-4.8,1.4-6.6,3.3c-0.6-2.2-2.1-3.3-4.3-3.3c-2.1,0-4.9,1.4-6.7,3.3v-3.5
			l-5.8,3l0.1,0.4l0.9-0.1c1-0.1,1.7,0.4,1.7,1.6v8.8c0,2.7-1.1,4-3,4.7l0,0.4h8.9v-1.9h-0.7c-1.4,0-2.1-0.8-2.1-2.8v-8.5
			c1.2-1.5,3.2-2.7,4.8-2.7c2.1,0,3.3,0.9,3.3,3.9v5.9C353.8,719.5,353.1,720.2,351.3,721.1 M330.2,722.3c3.8,0,6.4-2.9,6.4-5.8
			c0-2.3-1-3.8-3.4-5l-2.5-1.2c-1.5-0.8-2.3-1.6-2.3-3.1c0-1.3,1-2.2,2.6-2.2c1.8,0,3.9,1.4,4.7,4.5l0.2,0c0.3-2.1,0.1-4.5-0.2-5.9
			c-0.6-0.3-1.9-0.6-3.1-0.6c-4,0-7.1,2.6-7.1,6.1c0,1.9,1.2,3.2,2.7,3.9l2.4,1.2c2,1,2.7,2,2.7,3.5c0,1.7-1.1,2.7-2.8,2.7
			c-1.9,0-4-1.8-5.3-5.5l-0.2,0c-0.2,2.3-0.1,4.5,0.4,6.1C326.4,721.7,328.1,722.3,330.2,722.3 M307.8,712.8c0-5.3,2.4-8,5.2-8
			c2.4,0,4.9,2.1,4.9,7.5c0,5.3-2.4,8-5.2,8C310.3,720.3,307.8,718.3,307.8,712.8 M312,722.3c5.5,0,9.3-4.4,9.3-10.6
			c0-5.3-3-8.8-7.7-8.8c-5,0-9.3,4.1-9.3,10.6C304.3,719.1,307.3,722.3,312,722.3 M290.7,722.3c2.9,0,6.2-0.7,8.1-1.6
			c0.9-2.3,1-5.5,0.8-7.9l-0.4,0c-1.4,4.9-4.3,7.6-8.4,7.6c-5,0-8.4-4.2-8.4-10.8c0-7.4,5-11,9.1-11c3.3,0,6.2,2.3,6.7,6.2h0.4
			c0.7-2.2,0.8-5,0.3-6.8c-1.9-0.9-4.4-1.4-6.9-1.4c-8.5,0-13.6,6.3-13.6,13.6C278.5,717.9,283.8,722.3,290.7,722.3"/>
		<path style="clip-path:url(#SVGID_00000103953232748289271470000001634603509956290237_);fill:#1D1D1B;" d="M328.4,680.8
			c0-4.5,2.2-7.4,6.7-7.4c4.5,0,6.7,2.9,6.7,7.4c0,4.7-2.7,7.4-6.7,7.4C331.1,688.2,328.4,685.5,328.4,680.8 M335.1,691.3
			c6.6,0,9.1-5.1,9.1-10.5c0-5.4-3.1-10.5-9.1-10.5c-6,0-9,5.1-9,10.5C326,686.3,328.5,691.3,335.1,691.3 M306,680.8
			c0-4.5,2.2-7.4,6.7-7.4c4.5,0,6.7,2.9,6.7,7.4c0,4.7-2.7,7.4-6.7,7.4C308.7,688.2,306,685.5,306,680.8 M312.7,691.3
			c6.6,0,9.1-5.1,9.1-10.5c0-5.4-3.1-10.5-9.1-10.5c-6,0-9,5.1-9,10.5C303.6,686.3,306.1,691.3,312.7,691.3"/>
		<path style="clip-path:url(#SVGID_00000103953232748289271470000001634603509956290237_);fill:#1D1D1B;" d="M318.7,627.3
			c1.4,0,3.1-0.3,4.1-0.8c0.4-1.1,0.5-2.8,0.4-4l-0.2,0c-0.8,2.4-2.2,3.7-4.3,3.7c-2.4,0-4.1-1.9-4.1-5.2c0-3.6,2.5-5.2,4.5-5.2
			c1.7,0,3.2,1.1,3.5,3h0.2c0.4-1,0.5-2.4,0.2-3.4c-1-0.4-2.2-0.7-3.6-0.7c-4.4,0-7.1,3.1-7.1,6.7
			C312.2,625.2,314.9,627.3,318.7,627.3 M303.9,626.7l0,0.2h6.2v-1h-0.8c-0.8,0-1.2-0.4-1.2-1.3v-6.7c0-1.4,0.6-2.1,2.2-2.5v-0.2
			h-6.2c0,0.4,0,1,0,1h0.8c0.8,0,1.2,0.4,1.2,1.3v6.6C306.1,625.6,305.5,626.3,303.9,626.7 M301.8,627.1c0.4-1.1,0.7-2.6,0.8-4.4
			l-0.2,0c-0.7,2.2-2.1,3.1-4.2,3.2l-0.5,0c-1,0-1.5-0.4-1.5-1.3v-6.2c0-1.9,0.9-2.7,2.7-3v-0.2h-6.7c0,0.3,0,0.7,0,1.1h0.8
			c0.7,0,1.2,0.4,1.2,1.3v6.8c0,1.4-0.8,2.1-2.2,2.4l0,0.2h6.9C299.8,626.9,300.9,627,301.8,627.1 M282.2,621.7l1.8-4.5l1.8,4.5
			H282.2z M285.5,626.9h5.5l0-0.2c-0.5-0.2-1.4-1.2-2.2-3l-3.7-9h-1.2l-3.7,8.8c-0.8,1.9-1.7,3-2.4,3.2l0,0.2h4.5l0-0.2l-0.5-0.3
			c-0.9-0.5-1-1.1-0.6-2.2l0.6-1.5h4.4l0.4,0.9c0.7,1.6,0.5,2.4-0.6,2.8l-0.5,0.2L285.5,626.9z M267.7,626.7l0,0.2h7.1
			c0-0.3,0-0.8,0-1l-1.2-0.1c-0.8,0-1.2-0.4-1.2-1.3v-8.3l1,0c2.3,0.1,2.9,0.7,3.1,2.5l0.2,0c0.5-1.5,0.6-3,0.3-3.8
			c-0.3,0.1-1.6,0.2-3.5,0.2h-3.8c-2.1,0-3.4-0.1-3.7-0.2c-0.5,1.2-0.5,2.6-0.5,3.7l0.2,0c0.6-1.8,1.5-2.5,3.2-2.6l1.5,0v7.7
			C270.4,625.4,269.6,626.3,267.7,626.7 M258,626.7l0,0.2h6.2v-1h-0.8c-0.8,0-1.2-0.4-1.2-1.3v-6.7c0-1.4,0.6-2.1,2.2-2.5v-0.2h-6.2
			c0,0.4,0,1,0,1h0.8c0.8,0,1.2,0.4,1.2,1.3v6.6C260.2,625.6,259.6,626.3,258,626.7"/>
		<path style="clip-path:url(#SVGID_00000103953232748289271470000001634603509956290237_);fill:#1D1D1B;" d="M309.6,600.5l0,0.4
			h7.3l2-1.7v-0.2h-2.4c-0.8,0-1.1-0.2-0.8-1.1l2.1-6.7c3.6-3.5,6.5-5.8,7.4-5.8c0.3,0,0.6,0.2,0.6,0.7c0,0.5-0.2,1.4-0.8,3.4
			l-3.6,12.4l7-2.3l-0.1-0.5h-1c-1.9,0-2.4-0.7-1.6-3.3l2.2-7c0.9-2.9,1.2-4,1.2-4.9c0-1.1-0.6-1.6-1.6-1.6c-1.9,0-6,3.4-9,6.6
			l0-0.1h-0.2c1.1-2.2,1.5-3.8,1.5-4.9c0-1.1-0.6-1.6-1.6-1.6c-2,0-6.2,3.3-9.2,6.5H309l2.6-7.1l-6.9,3.4v0.4l0.8,0.2
			c1.4,0.3,1.9,1.1,1.5,2.5l-2.2,7.2c-0.8,2.5-2.5,4.6-4.5,5.2l0,0.4h6.6l2-1.7v-0.2h-1.5c-0.8,0-1.1-0.2-0.8-1.1l2-6.7
			c3.7-3.5,6.5-5.8,7.4-5.8c0.3,0,0.6,0.2,0.6,0.7c0,0.5-0.2,1.4-0.8,3.4l-1.8,6.2C313.2,598.1,311.5,599.9,309.6,600.5
			 M293.7,601.7c3,0,6.1-2.6,6.1-5.4c0-1.1-0.6-2.5-1.3-3.5l-1.9-2.9c-0.5-0.8-1.1-1.9-1.1-2.9c0-1.7,1.6-2.4,2.9-2.4
			c1.9,0,2.3,1.4,2.1,4.5l0.4,0.1c0.6-0.6,1.2-1.2,1.7-1.9c0.3-1.5,0.4-3.2,0.4-4.5c-1-0.3-1.6-0.4-3-0.4c-3,0-7.1,2.7-7.1,6
			c0,1.2,0.5,2.5,1.1,3.5l2,3c0.6,0.9,1,1.7,1,2.5c0,1.2-0.8,2.3-2.5,2.3c-2.2,0-3.8-1.8-3.4-5.9h-0.4c-0.7,1.2-1.2,2.4-1.7,3.7
			c0,1,0.2,2.7,0.3,3.5C290.4,601.4,291.7,601.7,293.7,601.7 M276.5,595.3c0-5.3,3.2-10.6,6.4-10.6c1.7,0,2.6,1.1,2.6,4.1
			c0,5.3-3.2,10.6-6.5,10.6C277.4,599.4,276.5,598.3,276.5,595.3 M278,601.7c5.4,0,10.6-7.4,10.6-13.9c0-4-1.7-5.5-4.5-5.5
			c-5.4,0-10.6,7.4-10.6,13.9C273.5,600.1,275.2,601.7,278,601.7 M260.7,601.8c3.7,0,6.8-2.4,9.2-7l-0.5-0.3c-2.5,3.6-5,4.9-7.6,4.9
			c-2.9,0-4.5-2-4.6-6c-0.1-7.5,5.3-15.3,10.4-15.3c2.6,0,4.2,2.1,3.5,6.1l0.3,0.1c0.8-0.9,1.5-1.8,2.2-2.8c0.2-1.9,0.1-3.5,0-5
			c-0.8-0.3-2.5-0.6-5.2-0.6c-8,0-14.7,9.4-14.7,17.6C253.7,598.5,256.2,601.8,260.7,601.8"/>
		<path style="clip-path:url(#SVGID_00000103953232748289271470000001634603509956290237_);fill:#1D1D1B;" d="M293.8,570h11.6
			c2.4,0,3.5,0,4.2,0.2c0.2-1.4,0.2-3.1,0-4.6h-0.2c-0.4,0.9-1.4,1.4-3.9,1.4H299l2-1.9c5.7-5.5,7.6-7.5,7.6-10.7
			c0-2.9-2.4-4.7-5.9-4.7c-4,0-6.7,2.3-8.2,6.9l0.4,0.2c1.6-2.5,4-4.1,6.5-4.1c2.1,0,3.4,1.2,3.4,3c0,2.1-1.3,4.3-5.9,8.7l-5.2,5.1
			L293.8,570z M274.9,560.2c0-4.5,2.2-7.4,6.7-7.4c4.5,0,6.7,2.9,6.7,7.4c0,4.7-2.7,7.4-6.7,7.4C277.6,567.6,274.9,565,274.9,560.2
			 M281.6,570.7c6.6,0,9.1-5.1,9.1-10.5c0-5.4-3.1-10.5-9.1-10.5c-6,0-9,5.1-9,10.5C272.6,565.7,275,570.7,281.6,570.7"/>
		<path style="clip-path:url(#SVGID_00000103953232748289271470000001634603509956290237_);fill:#1D1D1B;" d="M341.2,509v-8.4l1.5,0
			c3.1,0,5.2,1.8,5.2,5.1c0,3.2-1.9,4.8-4.7,4.8h-0.4C341.8,510.4,341.2,510,341.2,509 M337.1,511.2l0,0.2h6.2c4.3,0,7-2.2,7-6
			c0-3.6-2.8-5.9-6.6-5.9h-6.4c0,0.4,0,0.9,0,1.1h0.8c0.7,0,1.2,0.4,1.2,1.3v6.7C339.3,510.1,338.4,510.8,337.1,511.2 M328,505.4
			v-4.8l1.3,0c1.8,0.1,2.6,0.8,2.6,1.9C331.9,504,330.5,505,328,505.4 M323.8,511.2l0,0.2h5.9c0-0.3,0-0.6,0-1h-0.2
			c-1,0-1.4-0.2-1.4-1v-3.1c0.3,0,0.6-0.1,0.9-0.1l4.1,5.3h2.8c0-0.3,0-0.6,0-1.1c-0.8-0.1-1.4-0.5-2.7-2l-2.2-2.7
			c2.2-0.7,3.3-2,3.3-3.5c0-1.7-1.3-2.6-3.8-2.6H324c0,0.3,0,0.7,0,1.1h0.8c0.7,0,1.2,0.4,1.2,1.3v6.8
			C326,510.2,325.2,510.8,323.8,511.2 M314.1,506.3l1.8-4.5l1.8,4.5H314.1z M317.3,511.4h5.5l0-0.2c-0.5-0.2-1.4-1.2-2.2-3l-3.7-9
			h-1.2l-3.7,8.8c-0.8,1.9-1.7,3-2.4,3.2l0,0.2h4.5l0-0.2l-0.5-0.3c-0.9-0.5-1-1.1-0.6-2.2l0.6-1.5h4.4l0.4,0.9
			c0.7,1.6,0.5,2.4-0.6,2.8l-0.5,0.2L317.3,511.4z M293.8,511.2l0,0.2h6v-1h-0.7c-0.8,0-1.2-0.4-1.2-1.3v-3.4h6.6v3
			c0,1.6-0.7,2.2-2.2,2.6v0.2h6.2c0-0.3,0-0.7,0-1h-0.8c-0.8,0-1.2-0.4-1.2-1.3v-6.7c0-1.4,0.6-2.1,2.2-2.5l0-0.2h-6.2
			c0,0.3,0,0.7,0,1h0.8c0.8,0,1.2,0.4,1.2,1.3v2.7H298v-2.6c0-1.2,0.6-2,1.9-2.2v-0.2H294c0,0.4,0,1,0,1h0.8c0.8,0,1.2,0.4,1.2,1.3
			v6.8C296,510.2,295.2,510.8,293.8,511.2"/>
		<path style="clip-path:url(#SVGID_00000103953232748289271470000001634603509956290237_);fill:#1D1D1B;" d="M342.3,474.6
			c-1,0,0.1-3.4,4-8.2l-0.4-0.4c-3.5,2.6-4.6,1.5-4.2-0.2c-1.4,1.1-3.4,2.8-4.7,4.5l0.2,0.4c4.1-3.8,3.5,3.4-0.2,3l-0.2,0.5
			c2.4,1,3,2.7-2.8,7.6l0.3,0.4c5.4-4.7,3.6,0.7-1.1,3l0.2,0.4c2.9-1.6,6.4-1.5,4.5,0.3l0.3,0.4c1.5-1,3.1-1.3,5.3-1.1l0.2-0.5
			c-0.9-0.2-0.5-1.5,1-3.5l-0.4-0.3c-0.7,0.5-1.6,1-2.6,1c-4.2,0,4.1-11.6,7.3-11.6c0.9,0,1.2,0.6,1.2,1.8c0,1.7-1.4,4.4-5,7.8
			l0.4,0.3c2-1.8,2.5-2.2,3-2.2c1.1,0-1.6,5.1-4.5,7.1l0.3,0.4c3.1-1.8,5.4-1.2,3.6,0.4l0.2,0.4c1.8-1,3.8-1.4,6-1.1l0.2-0.5
			c-0.9-0.2-0.5-1.5,1-3.5l-0.4-0.3c-0.7,0.5-1.6,1-2.6,1c-4.2,0,4.1-11.6,7.3-11.6c0.9,0,1.2,0.6,1.2,1.8c0,1.7-1.4,4.4-5,7.8
			l0.4,0.3c2-1.8,2.5-2.2,3-2.2c1.1,0-1.6,5.1-4.5,7.1l0.3,0.4c3.1-1.8,5.4-1.2,3.6,0.4l0.2,0.4c1.4-0.8,3.4-1.1,4.4-1.1l0.3-0.6
			c-2.5-3-2.1-5.3,0.4-5.1l0.1-0.5c-2.1-0.6-2.3-1.4,1.5-4.7l-0.3-0.4c-3,1.9-0.5-3.2,1.7-5.6l-0.4-0.4c-5.1,5.3-6.4,1.7-0.9-1.3
			l-0.2-0.5c-1.2,0.5-5.1,1.2-6.7,1h-0.6c-3,5-4.9,7.3-5.8,7.3c-0.6,0-0.8-1.7,3.4-6l-0.4-0.4c-4.7,4.9-6.1,1.7-0.6-1.3l-0.2-0.5
			c-1.2,0.5-5.1,1.2-6.7,1h-0.6C346.5,469.6,343.1,474.6,342.3,474.6 M325,486.8c2.5-1.3,5.2-2,7-2.1l0.3-0.4
			c-2.2-1.8-1-4.9,1.5-3.8l0.3-0.6c-0.8-0.5-1.6-1.9-3.7-7.2l-0.6,0.3c1.4,5.4-2.7,1.1-2.7-2.4c0-1.3,0.5-2,1.7-2
			c1.6,0,4.4,2.2,4.5,6l0.6,0.1c0.4-1.5,1.2-4,1.5-5.1c-2-0.6-3.2-2.1,0.5-1.9l0.2-0.6c-2.4-0.1-4.5-0.6-6.2-1.3
			c-2.5,1.8-5,3-7.4,4.2l-0.1,0.5c1.7,1,1.7,3.7-0.2,3.7l0,0.5c1.9,0.8,2.1,2.3,3.6,5.8l0.6-0.3c-2.2-7.6,2.8-0.9,2.7,1.8
			c0,1.1-0.5,2-2.3,2c-1.9,0-4.2-2.7-4.6-6.2l-0.5-0.2l-1.9,4.4c1.9,1.3,2,2.4-0.7,2.2l-0.1,0.5C321,485,324,485.9,325,486.8
			 M305.3,480.2c0.3-1.2,0.7-1.6,2-0.9l0.2-0.5c-1.7-1.2-0.9-3.1,2.7-6.6l-0.4-0.4c-1.6,1.5-2.8,2.2-3.2,2.2c-1.4,0,1.2-4.7,5.9-4.7
			c1.8,0,3,1.4,2.4,3.4c-0.2,0.9-1.1,1.3-2.5,0.8l-0.3,0.5c1.3,0.7,1.2,1.7-2.5,6.2l0.4,0.3c1.7-1.5,2.7-2.3,3.1-2.3
			c2.3,0-0.1,5.4-5.4,5.4C305.8,483.5,304.8,481.8,305.3,480.2 M304.2,467l-0.4,0.2c1.1,2.8,1.1,7.5-2.7,6.7l-0.2,0.5
			c2.4,1,1.8,3.1-1.9,6.9l0.3,0.4c3.6-3.2,4.6-0.2,1.7,2.7l0.3,0.4c2.2,0.1,4.6,0.9,6.4,2l0.4,0.3c4.4-4.1,6.1-4.4,7.9-1.2l0.5-0.2
			c-1.1-2.9-1.1-7.5,2.7-6.7l0.1-0.5c-2.4-1-1.8-3.1,1.9-6.9l-0.3-0.4c-3.6,3.2-4.6,0.6-1.7-2.3l-0.3-0.4c-2.2-0.2-5.1-1.1-6.8-2.2
			l-0.4-0.2C307.3,469.9,306.2,470.4,304.2,467 M295.5,467.2l0.6-0.6c-1.6-2-1.4-3.1-0.6-3.1c1.3-0.1,4,2.2,3,6.8l0.6,0.3
			c1.3-2.8,2.5-5.8,3.3-8.3l-0.6-0.4c-2.5,1.9-3.9,0.1-1.5-2l-0.4-0.6c-5.2,2.8-7.3,1.7-6,0.5l-0.4-0.6c-2.4,1.1-5.6,2.3-8.1,3
			l0.2,0.7c4.4-1.1,0.2,3.1-3.4,2.6l-0.3,0.7c2.5,0.7-0.9,7.3-2.9,7.4l-0.1,0.5c1.3,1,1.8,2.1-0.9,8.3l0.7,0.2
			c2.1-4.5,2.9-3.2,2.4,1.5c4.2,0.5,4.5,0.8,1.5,2.6l0.4,0.6c5.1-2.4,8.4-2.1,7-0.4l0.4,0.6c1.9-1.2,3.9-1.8,6.1-2.1l-0.2-0.7
			c-1.3,0.1-1.8-0.2-1.8-0.6c0.1-0.5,1.3-1,3.2-0.6l0.4-0.6c-0.6-0.3-0.6-1.9,1-5.9l-0.7-0.3c-2.3,5-4.8,6-4.4,2.9l-0.7-0.2
			c-1.2,4.3-2,4.9-6.3-0.2l-0.5,0.5c2.5,3,1.8,3.4,0.8,3.4c-2.9,0-5.4-8.2-1.1-6l0.4-0.6c-3.6-2-2.6-6.2,2.3-5.7l0.1-0.7
			c-5.2-0.7-1.5-4.7,0.6-5.6C292,463.6,293.2,464.3,295.5,467.2"/>
		<path style="clip-path:url(#SVGID_00000103953232748289271470000001634603509956290237_);fill:#1D1D1B;" d="M327.7,450.1l7.2-9.5
			v10.2l-6.7,0.1C327.6,450.9,327.4,450.5,327.7,450.1 M323.5,453.2h11.4v4.3c0,1.6-0.4,2.7-1.2,3.3l0,0.2c1.5,0.3,3.5,0.2,5,0.1
			c-0.5-1.1-0.8-2.6-0.8-7v-0.9h5.1v-2.5l-5.1,0.1v-16.9l-0.5,0l-14,18.9L323.5,453.2z M305.3,444.8c0-4.5,2.2-7.4,6.7-7.4
			c4.5,0,6.7,2.9,6.7,7.4c0,4.7-2.7,7.4-6.7,7.4C308,452.1,305.3,449.5,305.3,444.8 M311.9,455.3c6.6,0,9.1-5.1,9.1-10.5
			c0-5.4-3.1-10.5-9.1-10.5c-6,0-9,5.1-9,10.5C302.9,450.2,305.4,455.2,311.9,455.3"/>
		<path style="clip-path:url(#SVGID_00000103953232748289271470000001634603509956290237_);fill:#1D1D1B;" d="M501.7,461.4l6.2,6.2
			h3.1c0-0.4,0-0.6,0-1.1c-0.7,0-1.2-0.2-2.5-1.4l-4.5-4.3l3-2.5c1.8-1.4,3.2-2.1,3.7-2.3l0-0.2H506v0.2l0.2,0.1
			c0.6,0.2,0.7,0.8,0.1,1.3L501.7,461.4z M497.4,467.3l0,0.2h6v-1h-0.7c-0.8,0-1.2-0.4-1.2-1.3v-6.7c0-1.4,0.6-2.1,2.2-2.5v-0.2
			h-6.2c0,0.4,0,1,0,1h0.8c0.8,0,1.2,0.4,1.2,1.3v6.6C499.6,466.2,499,466.9,497.4,467.3 M490.8,467.9c1.4,0,3.1-0.3,4.1-0.8
			c0.4-1.1,0.5-2.8,0.4-4l-0.2,0c-0.8,2.4-2.2,3.7-4.3,3.7c-2.4,0-4.1-1.9-4.1-5.2c0-3.6,2.5-5.2,4.5-5.2c1.7,0,3.2,1.1,3.5,3h0.2
			c0.4-1,0.5-2.4,0.2-3.4c-1-0.4-2.2-0.7-3.6-0.7c-4.4,0-7.1,3.1-7.1,6.7C484.4,465.8,487,467.9,490.8,467.9 M474.2,462.3l1.8-4.5
			l1.8,4.5H474.2z M477.5,467.5h5.5l0-0.2c-0.5-0.2-1.4-1.2-2.2-3l-3.7-9h-1.2l-3.7,8.8c-0.8,1.9-1.7,3-2.4,3.2l0,0.2h4.5l0-0.2
			l-0.5-0.3c-0.9-0.5-1-1.1-0.6-2.2l0.6-1.5h4.4l0.4,0.9c0.7,1.6,0.5,2.4-0.6,2.8l-0.5,0.2L477.5,467.5z M468.2,467.7
			c0.4-1.1,0.7-2.6,0.8-4.4l-0.2,0c-0.7,2.2-2.1,3.1-4.2,3.2l-0.5,0c-1,0-1.5-0.4-1.5-1.3v-6.2c0-1.9,0.9-2.7,2.7-3v-0.2h-6.7
			c0,0.3,0,0.7,0,1.1h0.8c0.7,0,1.2,0.4,1.2,1.3v6.8c0,1.4-0.8,2.1-2.2,2.4l0,0.2h6.9C466.2,467.5,467.3,467.6,468.2,467.7
			 M449.9,460.8v-4.2l1.3,0c1.9,0.1,2.7,0.7,2.7,1.9c0,1-0.6,1.8-1.7,2.3L449.9,460.8z M449.9,465.1v-3.2l1.3,0
			c2.1,0,3.2,0.9,3.2,2.5c0,1.3-0.7,2.1-2.3,2.1h-0.5C450.3,466.5,449.9,466.1,449.9,465.1 M445.7,467.3l0,0.2h6.8
			c2.4,0,4.2-1.4,4.2-3.5c0-1.5-1.2-2.6-3.1-3c1.6-0.6,2.5-1.6,2.5-2.8c0-1.6-1.4-2.5-3.8-2.5h-6.5c0,0.3,0,1,0,1.1h0.8
			c0.7,0,1.2,0.4,1.2,1.4v6.7C447.9,466.2,447.1,466.9,445.7,467.3"/>
		<path style="clip-path:url(#SVGID_00000103953232748289271470000001634603509956290237_);fill:#1D1D1B;" d="M497.1,431.7
			c-1,0,1-4.4,6-10.6l-0.4-0.4c-4.4,4.2-5.5,3-5.3,0.8c-1.2,1.5-2.9,2.9-4.6,4.9l0.3,0.4c5.4-5.1,4.2,3.8-0.9,2.9l-0.2,0.5
			c3.3,1.2,3.9,2.9-2.9,8.3l0.3,0.4c6.4-5.4,5.3-0.6-0.4,2.8l0.2,0.4c4.1-2.7,7-2.1,4.3,0.6l0.3,0.4c2.2-1.7,3.5-2,6-1.5l0.2-0.5
			c-1.4-0.5-1-1.5,0.9-4.1l-0.4-0.3c-1.1,1-2.2,1.5-3.3,1.5c-4.2,0,4.5-11.8,7.8-11.8c0.8,0,1.2,0.5,1.2,1.6c0,1.6-1.4,4.3-5.1,8
			l0.4,0.3c2.4-2.4,3-3,3.5-3c1,0-1.4,5.5-5.4,8.5l0.3,0.4c4.4-3.2,6.7-2.2,3.9,0.4l0.2,0.4c2.4-1.8,4.1-2.1,6.6-1.6l0.2-0.5
			c-1.4-0.5-1.1-1.5,0.9-4l-0.4-0.3c-1,0.9-2.1,1.5-3.2,1.5c-4.2,0,4.6-11.8,7.8-11.8c0.8,0,1.2,0.5,1.2,1.6c0,1.7-1.5,4.5-5.2,8.1
			l0.4,0.3c3.3-3.3,3.8-3.8,4.3-3.8c1,0-1.6,5.6-6.2,9.2l0.3,0.4c3.9-2.8,7-2.9,3.5,0.8l0.3,0.4c2-1.9,3.7-2.1,6-1.3l0.3-0.5
			c-3.7-3.1-4.5-6.5-0.1-5.6l0.1-0.5c-2.9-0.9-3-1.8,2.4-5.9l-0.3-0.4c-4.5,3-2.7-1.4,1.4-5.7l-0.4-0.4c-6.4,6.8-8.6,3.7-1.3-0.8
			l-0.2-0.5c-3.9,2.3-6.8,2.7-7.2,0.7l-0.6-0.1c-3.2,5.8-5.4,8.3-6.2,8.3c-0.6,0-0.8-1.7,3.9-6.8l-0.4-0.4c-5.1,5.5-7.3,3.2-0.2-1.5
			l-0.2-0.5c-3.9,2.6-6.9,3-7.3,1l-0.6-0.1C501.8,426.4,497.9,431.7,497.1,431.7 M481.5,444c2.4-2.5,4.9-3.6,7.4-2.1l0.3-0.4
			c-3.6-4.3-1.9-6.7,1.6-4.8l0.3-0.6c-2.1-1.3-2.9-2.5-5.6-8.8l-0.6,0.3c3.8,9.3-2.2,2.7-2.2-1.2c0-1.4,0.7-2,1.8-2
			c1.7,0,4.5,2.3,4.6,7.2l0.6,0.1c0.2-2.7,0.9-4.8,1.4-5.9c-2.9-0.9-3.5-2.2,1.8-1.7l0.2-0.6c-4.4-0.4-6.1-0.8-7.3-2.3
			c-2.4,2.3-5.1,3.8-8.2,4.2l-0.1,0.5c3.1,1.3,3.8,4.9-0.6,4.4l0,0.5c3.1,0.8,3.3,2.1,5.4,7.2l0.6-0.3c-4-11.1,2.5-2.4,2.4,0.6
			c0,1.3-0.7,2.3-2.5,2.3c-2.3-0.1-4.7-2.8-4.5-7.2l-0.5-0.2l-1.9,5.1c2.8,1.9,2.9,2.8-1.3,2.3l0,0.6
			C478.5,441.5,480.8,442.3,481.5,444 M461.3,436.4c0.4-1.4,0.8-1.8,2.7-0.7l0.2-0.5c-2.4-1.7-1.8-3.2,2.9-8l-0.4-0.4
			c-3.1,3.3-4.2,3.9-4.6,3.9c-1.4,0,1.6-5.6,6.5-5.6c1.8,0,2.9,1.5,2.4,3.6c-0.2,1-1.1,1.3-3.2,0.4l-0.3,0.5
			c2.2,1.2,2.1,2.1-2.7,7.7l0.4,0.3c3-3.1,4.1-4.1,4.6-4.1c2,0-0.7,6.4-6,6.4C462,439.9,460.9,438.1,461.3,436.4 M460.4,422.5
			l-0.4,0.2c1.5,4.3,1.2,8.1-3.4,7l-0.2,0.5c3.4,1.3,2.9,3.1-1.9,7.8l0.3,0.4c5.2-5,6.1-1.8,1.6,2.9l0.3,0.4
			c3.4-1.7,5.9-0.1,6.2,2.3l0.4,0.3c4.7-5.1,6.7-5.4,8.7-1.7l0.5-0.2c-1.7-3.9-1.5-8.2,3.2-7.1l0.1-0.5c-3.5-1.3-3.1-2.9,2.3-8.1
			l-0.3-0.4c-5.1,4.8-6.9,2.7-1.7-2.2l-0.3-0.4c-3.5,1.5-6.7,0.2-6.1-2.4l-0.4-0.3C463.7,426.3,462.4,426.6,460.4,422.5
			 M452.3,424.7l0.6-0.5c-2-3.4-1.8-4.3-0.7-4.5c1.4-0.3,3.4,2.4,2.3,8.1l0.7,0.2c1.4-5.1,2.5-7.6,4.2-10.1l-0.6-0.4
			c-5.9,3.2-6.3,1.1-1.2-2.2l-0.4-0.6c-7.1,4.1-9.9,3.5-6.4,0.6l-0.4-0.6c-3.1,1.7-6.2,2.9-9.8,3.8l0.2,0.7c6.8-1.7,2.3,2.4-3.3,2.5
			l-0.2,0.7c4.5,1,1.7,7.8-2.9,7l-0.1,0.6c3.2,1.1,3.5,2.1-0.1,9.3l0.7,0.2c2.9-5.6,4.2-3.9,2.5,1.3c5.5-0.9,6.5-0.2,0.9,2.9
			l0.4,0.6c7.4-3.9,10.2-3.3,7.1-0.5l0.4,0.6c2.8-2,5.1-2.7,8.4-3.1l-0.2-0.7c-3.5,0.3-4.6,0-4.5-0.5c0.1-0.6,2.3-1.1,5.1-0.6
			l0.3-0.6c-1.6-0.3-1.6-1.7,1.2-7.3l-0.7-0.3c-3.3,6.6-6.1,8.7-5.1,2.6l-0.7-0.2c-1.5,6.5-2.2,7.1-7.4,0.2l-0.5,0.5
			c3.5,4.3,2.8,4.8,1.8,4.8c-3.3,0-6.1-10.5-0.3-5.4l0.4-0.6c-4.5-3.5-3.7-7,4.3-5.5l0.1-0.7c-8.9-1.5-6.2-5.4-2.9-6.4
			C448.3,419.6,449.6,420.3,452.3,424.7"/>
		<path style="clip-path:url(#SVGID_00000103953232748289271470000001634603509956290237_);fill:#1D1D1B;" d="M484.3,401.4
			c0-0.9,0.1-1.8,0.2-2.7c1.2-1.5,2.8-2.2,4.8-2.2c3.6,0,5.3,2.4,5.3,6.5c0,4.1-2.1,6.2-5.1,6.2C486.9,409,484.3,406.8,484.3,401.4
			 M481.1,402.8c0,6,3.6,8.5,7.2,8.5c5.4,0,9.7-4.4,9.7-10.5c0-4-2.4-7.2-6.8-7.2c-2.2,0-4.3,0.9-6,2.3c1.7-4.3,5.3-8,10.8-11
			l-0.1-0.4h-6.4C488.6,387.4,481.1,395.2,481.1,402.8 M461.9,400.8c0-4.5,2.2-7.4,6.7-7.4c4.5,0,6.7,2.9,6.7,7.4
			c0,4.7-2.7,7.4-6.7,7.4C464.6,408.2,461.9,405.6,461.9,400.8 M468.5,411.3c6.6,0,9.1-5.1,9.1-10.5c0-5.4-3.1-10.5-9.1-10.5
			c-6,0-9,5.1-9,10.5C459.5,406.3,462,411.3,468.5,411.3"/>
		<path style="clip-path:url(#SVGID_00000103953232748289271470000001634603509956290237_);fill:#1D1D1B;" d="M651.8,501.4v0.2
			c0.7,0.2,1.8,1.1,2.7,2.3l2.8,3.7v2.5c0,1.7-0.9,2.5-2.8,2.9v0.2h7.2v-1l-1.3-0.1c-0.8,0-1.2-0.4-1.2-1.3v-3.3l2.6-3.5
			c1.1-1.5,2.3-2.4,3-2.5v-0.2h-4.8v0.2l0.5,0.2c0.7,0.3,0.9,0.9,0.2,1.8l-2.1,2.9l-2.3-3.2c-0.6-0.9-0.4-1.4,0.4-1.6l0.4-0.1l0-0.2
			H651.8z M644,501.4h-5.5l0,0.2c0.7,0.3,1.4,1.1,2.1,3l3.7,9h1.2l3.6-8.8c0.9-2.2,1.8-3,2.4-3.2l0-0.2h-4.5l0,0.2l0.5,0.3
			c0.9,0.5,1,1.2,0.6,2.3l-2.6,6.9l-2.6-6.4c-0.7-1.8-0.4-2.5,0.7-2.8l0.6-0.2L644,501.4z M629.3,508.1l1.8-4.5l1.8,4.5H629.3z
			 M632.6,513.3h5.5l0-0.2c-0.5-0.2-1.4-1.2-2.2-3l-3.7-9H631l-3.7,8.8c-0.8,1.9-1.7,3-2.4,3.2l0,0.2h4.5l0-0.2l-0.5-0.3
			c-0.9-0.5-1-1.1-0.6-2.2l0.6-1.5h4.4l0.4,0.9c0.7,1.6,0.5,2.4-0.6,2.8l-0.5,0.2L632.6,513.3z M623,513.5c0.5-1.3,0.7-2.6,0.8-4.2
			l-0.2,0c-0.6,1.8-2.1,3-4.2,3h-0.7c-1.1,0-1.6-0.4-1.6-1.3v-3.5l1.7,0.1c1.7,0.1,2.2,0.5,2.3,1.3h0.2c0.4-1,0.4-2,0.3-2.8
			c-0.9,0.2-2.4,0.4-3.7,0.4h-0.8v-4.1l2.5,0c2.1,0,3,0.6,3.1,2.1h0.2c0.4-1.2,0.4-2.4,0.2-3.4c-1.3,0.2-2.8,0.3-4.4,0.3h-5.6
			c0,0.3,0,0.7,0,1.1h0.8c0.7,0,1.2,0.4,1.2,1.3v6.8c0,1.4-0.8,2.1-2.2,2.4l0,0.2h7.1C621,513.3,622.1,513.4,623,513.5 M596.5,513
			l0,0.2h6v-1h-0.7c-0.8,0-1.2-0.4-1.2-1.3v-3.4h6.6v3c0,1.6-0.7,2.2-2.2,2.6v0.2h6.2c0-0.3,0-0.7,0-1h-0.8c-0.8,0-1.2-0.4-1.2-1.3
			v-6.7c0-1.4,0.6-2.1,2.2-2.5l0-0.2h-6.2c0,0.3,0,0.7,0,1h0.8c0.8,0,1.2,0.4,1.2,1.3v2.7h-6.6v-2.6c0-1.2,0.6-2,1.9-2.2v-0.2h-5.9
			c0,0.4,0,1,0,1h0.8c0.8,0,1.2,0.4,1.2,1.3v6.8C598.7,512,597.9,512.7,596.5,513"/>
		<path style="clip-path:url(#SVGID_00000103953232748289271470000001634603509956290237_);fill:#1D1D1B;" d="M659.5,484.4
			c-4.1,0,5.1-12,8.3-12c0.7,0,1.1,0.4,1.1,1.4c0,1.8-1.6,4.7-5.3,8.4l0.5,0.3c4.5-4.9,5.1-5.3,5.5-5.3c0.9,0-1.3,5.4-6.6,10.3
			l0.1-0.3c-2-0.8-1.7-1.6,0.8-4.5l-0.5-0.2C662,483.8,660.8,484.4,659.5,484.4 M648.4,484.4c-4.2,0,4.9-12,8.3-12
			c0.7,0,1.1,0.4,1.1,1.4c0,1.5-1.4,4.2-5.1,8.1l0.4,0.3c2.9-3.1,3.5-3.8,4.1-3.8c0.9,0-1,5.2-5.4,9.1l0.2-0.5
			c-1.9-0.8-1.6-1.5,0.8-4.6l-0.4-0.3C650.9,483.8,649.6,484.4,648.4,484.4 M647.9,478.5c-1,0,1.8-5.5,7.9-13l-0.4-0.4
			c-5.4,5.7-6.3,4.4-6.3,1.7c-1,1.8-2.3,3.1-4.6,5.4l0.3,0.4c6.6-6.4,4.9,4.2-1.7,2.7l-0.2,0.5c4.2,1.4,4.8,3.1-3,9l0.3,0.4
			c7.4-6,6.9-1.9,0.3,2.6l0.2,0.4c5.3-3.8,7.6-2.7,4,0.8l0.3,0.4c2.9-2.4,3.9-2.7,6.7-1.8l-0.9,0.8l0.3,0.4c5.6-4.6,8.1-3.1,4.3,0.3
			l0.2,0.4c3.1-2.6,4.3-2.9,7.1-2c-0.3,0.3-0.7,0.6-1,0.9l0.3,0.4c4.8-3.8,8.6-4.5,3.4,1.2l0.3,0.4c2.6-2.9,4-3.1,7.7-1.5l0.3-0.6
			c-4.9-3.2-6.9-7.8-0.7-6.1l0.1-0.5c-3.7-1.3-3.6-2.1,3.4-7.1l-0.3-0.4c-6.2,4.1-4.9,0.3,1.2-5.9l-0.4-0.4
			c-7.7,8.2-10.7,5.7-1.8-0.3l-0.2-0.6c-6.5,4.1-8.6,4.2-7.6,0.4l-0.6-0.1c-3.5,6.7-6,9.4-6.6,9.4c-0.6,0-0.7-1.7,4.4-7.6l-0.4-0.4
			c-5.5,6.1-8.6,4.7,0.2-1.8l-0.3-0.5c-6.5,4.6-8.7,4.8-7.8,0.9l-0.6-0.1C653,472.8,648.7,478.5,647.9,478.5 M633.9,490.7
			c2.3-3.7,4.6-5.2,7.8-2l0.3-0.4c-5-6.8-2.7-8.4,1.7-5.7l0.3-0.6c-3.6-2.1-4.3-3.1-7.5-10.5l-0.6,0.3c6.2,13.3-1.7,4.4-1.8-0.1
			c0-1.5,0.8-2.1,2-2.1c1.8,0,4.7,2.5,4.8,8.3l0.6,0.1c0.1-3.7,0.6-5.6,1.2-6.6c-3.9-1.2-3.9-2.3,3.1-1.5l0.2-0.6
			c-6.4-0.7-7.6-1.1-8.3-3.3c-2.2,2.9-5.2,4.6-9,4.2l-0.1,0.5c4.5,1.7,6,6.1-0.9,5.1l0,0.5c4.3,0.9,4.6,1.9,7.2,8.6l0.6-0.3
			c-5.8-14.6,2.2-4,2.2-0.7c0,1.6-1,2.7-2.8,2.5c-2.7-0.3-5.1-3-4.4-8.2l-0.5-0.2l-1.9,5.8c3.6,2.4,3.6,3.2-2,2.4l0,0.6
			C631.8,487.7,633.5,488.4,633.9,490.7 M613.3,482.3c0.4-1.6,1-1.9,3.4-0.4l0.2-0.5c-3.1-2.1-2.7-3.3,3.1-9.4l-0.4-0.4
			c-4.5,5-5.5,5.7-5.9,5.7c-1.4,0,2-6.6,7.1-6.6c1.8,0,2.9,1.7,2.4,3.8c-0.3,1.2-1.1,1.3-3.9,0.1l-0.3,0.5c3,1.7,2.9,2.3-2.9,9.2
			l0.4,0.3c4.2-4.8,5.4-6,6.1-6c1.7,0-1.3,7.4-6.5,7.4C614,486,612.8,484,613.3,482.3 M612.5,467.6l-0.4,0.2
			c1.9,5.8,1.2,8.8-4.2,7.3l-0.2,0.5c4.3,1.5,4,3-1.8,8.6l0.3,0.4c6.9-6.8,7.5-3.3,1.5,3.1l0.3,0.4c4.5-3.5,7.2-1,5.9,2.7l0.4,0.3
			c5.1-6.1,7.3-6.5,9.6-2.1l0.5-0.2c-2.2-5-1.9-8.8,3.8-7.5l0.1-0.5c-4.6-1.5-4.4-2.7,2.7-9.2l-0.3-0.4c-6.7,6.3-9.2,4.8-1.7-2
			l-0.3-0.4c-4.8,3.2-8.4,1.5-5.5-2.7l-0.4-0.3C616,472.4,614.6,472.6,612.5,467.6 M605,471.9l0.5-0.4c-2.4-4.8-2.1-5.6-0.8-6
			c1.6-0.4,2.8,2.7,1.5,9.4l0.7,0.2c1.5-7.4,2.6-9.5,5.1-11.8l-0.4-0.5c-9.3,4.6-8.8,2.2-0.8-2.5l-0.4-0.6
			c-9.1,5.4-12.5,5.3-6.8,0.7l-0.4-0.6c-3.8,2.3-6.8,3.5-11.5,4.5l0.1,0.7c9.2-2.3,4.4,1.6-3.3,2.4l-0.1,0.7
			c6.5,1.3,4.2,8.4-2.9,6.7l-0.1,0.7c5.1,1.3,5.4,2.1,0.8,10.4l0.7,0.2c3.7-6.7,5.5-4.6,2.5,1.1c6.9-2.2,8.7-1.2,0.4,3.1l0.4,0.6
			c9.7-5.4,11.9-4.5,7.3-0.7l0.4,0.6c3.6-2.8,6.3-3.7,10.6-4l-0.2-0.7c-5.8,0.4-7.4,0.2-7.3-0.4c0.1-0.6,3.3-1.2,7-0.6l0.3-0.6
			c-2.5-0.3-2.6-1.4,1.3-8.6l-0.7-0.3c-4.3,8.3-7.4,11.4-5.8,2.2l-0.7-0.2c-1.8,8.6-2.4,9.3-8.6,0.7l-0.5,0.5
			c4.5,5.7,3.8,6.1,2.8,6.1c-3.8,0-6.7-12.8,0.5-4.8l0.4-0.6c-5.4-5-4.9-7.7,6.1-5.4l0.1-0.7c-12.6-2.4-10.8-6-6.4-7.2
			C600.6,465.3,602,466,605,471.9"/>
		<path style="clip-path:url(#SVGID_00000103953232748289271470000001634603509956290237_);fill:#1D1D1B;" d="M637.9,435.7
			c0-2.6,1.7-3.9,3.9-3.9c2.6,0,4,1.4,4,3.9c0,2.3-0.9,4-2.8,5.4l-1.8-1.2C638.7,438.3,637.9,437.1,637.9,435.7 M636.5,449.5
			c0-3,1.6-4.8,3.9-6l3,2c2.3,1.5,3.4,2.7,3.4,5.1c0,2.4-1.8,4.5-4.9,4.5C638.6,455,636.5,452.7,636.5,449.5 M641.1,457.1
			c5.2,0,9-3.3,9-7.7c0-2.9-1.9-4.8-4.1-6.3l-1.6-1c2.8-1.6,4.7-4.3,4.7-6.6c0-3.6-2.9-5.6-6.8-5.6c-4,0-7.5,3.1-7.5,6.4
			c0,2.7,1.6,4.5,3.9,6.1l0.3,0.2c-3.6,1.4-5.8,4.1-5.8,7.8C633.2,454.1,636.3,457.1,641.1,457.1 M613.8,446.6
			c0-4.5,2.2-7.4,6.7-7.4c4.5,0,6.7,2.9,6.7,7.4c0,4.7-2.7,7.4-6.7,7.4C616.5,454,613.8,451.3,613.8,446.6 M620.5,457.1
			c6.6,0,9.1-5.1,9.1-10.5c0-5.4-3.1-10.5-9.1-10.5c-6,0-9,5.1-9,10.5C611.4,452,613.9,457.1,620.5,457.1"/>
		<path style="clip-path:url(#SVGID_00000103953232748289271470000001634603509956290237_);fill:#1D1D1B;" d="M677.6,628.5l0,0.2h6
			v-1H683c-0.8,0-1.2-0.4-1.2-1.3V623h6.6v3c0,1.6-0.7,2.2-2.2,2.6v0.2h6.2c0-0.3,0-0.7,0-1h-0.8c-0.8,0-1.2-0.4-1.2-1.3v-6.7
			c0-1.4,0.6-2.1,2.2-2.5l0-0.2h-6.2c0,0.3,0,0.7,0,1h0.8c0.8,0,1.2,0.4,1.2,1.3v2.7h-6.6v-2.6c0-1.2,0.6-2,1.9-2.2v-0.2h-5.9
			c0,0.4,0,1,0,1h0.8c0.8,0,1.2,0.4,1.2,1.3v6.8C679.8,627.5,679,628.2,677.6,628.5 M671.1,629.1c2.9,0,4.6-1.7,4.6-3.7
			c0-1.7-1.3-2.7-2.8-3.3l-1.5-0.6c-1.3-0.5-2-1.2-2-2.2c0-1,0.8-1.7,2.1-1.7c1.5,0,3,0.9,3.5,3.2l0.2,0c0.3-1.4,0.2-2.8-0.1-3.7
			c-0.8-0.3-2-0.5-3-0.5c-2.8,0-4.4,1.8-4.4,3.7c0,1.4,0.8,2.3,2.4,2.9l1.5,0.6c1.5,0.6,2.3,1.3,2.3,2.4c0,1.1-0.8,1.9-2.3,1.9
			c-1.7,0-3.2-1-4-3.6l-0.2,0c-0.2,1.3-0.1,2.8,0.4,4C668.5,628.9,669.9,629.1,671.1,629.1 M657,623.6l1.8-4.5l1.8,4.5H657z
			 M660.3,628.8h5.5l0-0.2c-0.5-0.2-1.4-1.2-2.2-3l-3.7-9h-1.2l-3.7,8.8c-0.8,1.9-1.7,3-2.4,3.2l0,0.2h4.5l0-0.2l-0.5-0.3
			c-0.9-0.5-1-1.1-0.6-2.2l0.6-1.5h4.4l0.4,0.9c0.7,1.6,0.5,2.4-0.6,2.8l-0.5,0.2L660.3,628.8z M644.1,622.7v-4.8l1.3,0
			c1.8,0.1,2.6,0.8,2.6,1.9C648,621.3,646.6,622.3,644.1,622.7 M639.9,628.5l0,0.2h5.9c0-0.3,0-0.6,0-1h-0.2c-1,0-1.4-0.2-1.4-1
			v-3.1c0.3,0,0.6-0.1,0.9-0.1l4.1,5.3h2.8c0-0.3,0-0.6,0-1.1c-0.8-0.1-1.4-0.5-2.7-2l-2.2-2.7c2.2-0.7,3.3-2,3.3-3.5
			c0-1.7-1.3-2.6-3.8-2.6h-6.3c0,0.3,0,0.7,0,1.1h0.8c0.7,0,1.2,0.4,1.2,1.3v6.8C642.1,627.5,641.3,628.2,639.9,628.5 M629.2,628.5
			l0,0.2h7.1c0-0.3,0-0.8,0-1l-1.2-0.1c-0.8,0-1.2-0.4-1.2-1.3v-8.3l1,0c2.3,0.1,2.9,0.7,3.1,2.5l0.2,0c0.5-1.5,0.6-3,0.3-3.8
			c-0.3,0.1-1.6,0.2-3.5,0.2h-3.8c-2.1,0-3.4-0.1-3.7-0.2c-0.5,1.2-0.5,2.6-0.5,3.7l0.2,0c0.6-1.8,1.5-2.5,3.2-2.6l1.5,0v7.7
			C632,627.2,631.2,628.1,629.2,628.5"/>
		<path style="clip-path:url(#SVGID_00000103953232748289271470000001634603509956290237_);fill:#1D1D1B;" d="M692.7,602.8
			c-2.3-1.1-2.1-1.6,0.6-4.8c5.7-6.3,6.3-6.7,6.7-6.7C700.8,591.3,698.8,596.8,692.7,602.8 M688.4,600.1c-4.1,0,5.6-12.1,8.8-12.1
			c0.6,0,1,0.3,1,1.2c0,1.8-1.7,4.8-5.4,8.6h0C691.1,599.5,689.7,600.1,688.4,600.1 M681.5,602.9c-2.3-1.1-2.2-1.6,0.7-5.1
			c3.3-3.7,4-4.5,4.6-4.5C687.6,593.3,686.2,598.3,681.5,602.9 M677.2,600.1c-4.2,0,5.3-12.1,8.8-12.1c0.6,0,1,0.3,1,1.3
			c0,1.4-1.4,4.1-5.1,8.3C679.9,599.4,678.5,600.1,677.2,600.1 M676.2,595c-1,0,2.7-6.5,9.8-15.4l-0.4-0.4c-6.3,7.3-7.1,5.9-7.4,2.7
			c-0.8,2.2-1.8,3.3-4.6,5.8l0.3,0.4c7.8-7.6,5.6,4.6-2.3,2.5l-0.2,0.5c5.1,1.7,5.7,3.3-3.1,9.7l0.3,0.5c8.5-6.7,8.6-3.2,1.1,2.4
			l0.2,0.4c6.6-4.9,8.2-3.2,3.7,1l0.3,0.4c3.4-3,4.2-3.3,7.2-2.3c-0.5,0.5-1,0.9-1.5,1.3l0.3,0.4c6.9-6,9.4-4.1,4.6,0.3l0.2,0.4
			c3.7-3.2,4.6-3.6,7.5-2.6c-0.6,0.5-1.1,1-1.7,1.5l0.3,0.4c5.5-4.8,10.3-6.2,3.3,1.7l0.4,0.4c3.2-4,4.3-4,9.4-1.8l0.3-0.6
			c-6.1-3.2-9.3-9-1.3-6.6l0.1-0.5c-4.5-1.6-4.3-2.4,4.3-8.3l-0.3-0.4c-7.8,5.2-7,2,1-6.1l-0.4-0.4c-9.1,9.7-12.9,7.6-2.2,0.2
			l-0.3-0.6c-9.2,5.9-10.3,5.8-8.1,0.1l-0.6-0.2c-3.8,7.5-6.5,10.5-7.1,10.5c-0.6,0-0.6-1.8,4.9-8.4l-0.4-0.4
			c-6,6.7-9.8,6.2,0.5-1.9l-0.3-0.5c-9.1,6.7-10.6,6.6-8.4,0.9l-0.6-0.2C681.8,589,677,595,676.2,595 M663.8,607.3
			c2.1-4.9,4.3-6.9,8.2-1.9l0.4-0.3c-6.4-9.3-3.5-10.2,1.9-6.7l0.3-0.6c-5-2.9-5.6-3.8-9.4-12.1l-0.6,0.3c8.5,17.2-1.2,6-1.3,1.1
			c-0.1-1.7,0.9-2.2,2.1-2.2c1.9,0,4.9,2.5,4.9,9.4l0.6,0.1c-0.1-4.8,0.3-6.4,1-7.4c-4.8-1.5-4.1-2.5,4.4-1.3l0.2-0.5
			c-8.4-1-9.1-1.3-9.3-4.2c-2.1,3.5-5.3,5.4-9.8,4.2l-0.1,0.5c5.9,2,8.1,7.4-1.3,5.7l0,0.5c5.5,0.9,5.9,1.6,9.1,10.1l0.6-0.3
			c-7.6-18.1,2-5.6,1.9-1.9c0,1.8-1.2,3-3,2.8c-3.1-0.4-5.5-3.2-4.3-9.2l-0.5-0.2l-1.8,6.5c4.5,3,4.5,3.5-2.6,2.5l0,0.7
			C662.7,603.6,663.7,604.2,663.8,607.3 M642.5,593.7c-1.4,0,2.4-7.5,7.6-7.5c1.8,0,2.9,1.9,2.4,4c-0.3,1.3-1.1,1.3-4.6-0.3
			l-0.3,0.5c3.9,2.2,3.8,2.7-3,10.8l0.4,0.3c5.5-6.4,6.9-7.8,7.5-7.8c1.4,0-1.8,8.4-7.1,8.4c-1.9,0-3.2-2.2-2.8-3.9
			c0.4-1.8,1.1-2,4-0.2l0.2-0.5c-3.8-2.5-3.5-3.4,3.3-10.7l-0.4-0.4C643.8,593,643,593.7,642.5,593.7 M642.1,582.5l-0.4,0.2
			c2.4,7.2,1.3,9.4-4.9,7.6l-0.2,0.5c5.3,1.8,5,2.9-1.8,9.5l0.3,0.4c8.5-8.6,9-4.8,1.5,3.2l0.3,0.4c5.7-5.3,8.5-1.9,5.7,3.1l0.4,0.3
			c5.3-7.2,7.9-7.6,10.4-2.6l0.5-0.2c-2.8-6-2.4-9.4,4.2-7.8l0.1-0.5c-5.6-1.8-5.7-2.5,3-10.4l-0.3-0.4c-8.2,7.9-11.5,7-1.7-1.8
			l-0.3-0.4c-6.2,4.9-10.1,2.9-4.8-2.9l-0.4-0.4C645.7,588.1,644.2,588.2,642.1,582.5 M635.3,588.9l0.5-0.3
			c-2.8-6.2-2.5-6.9-0.9-7.4c1.7-0.6,2.2,2.9,0.7,10.8l0.7,0.1c1.6-9.7,2.6-11.4,5.9-13.6l-0.4-0.6c-12.6,6-11.3,3.3-0.4-2.8
			l-0.4-0.6c-10.9,6.7-15.1,7.1-7.2,0.8l-0.4-0.6c-4.5,3-7.4,4.1-13.2,5.3l0,0.7c11.6-2.8,6.6,0.9-3.2,2.3l-0.1,0.8
			c8.4,1.6,6.8,9-3,6.4l-0.1,0.7c7,1.5,7.2,2.1,1.6,11.4l0.7,0.2c4.5-7.7,6.8-5.3,2.5,0.9c8.2-3.6,10.7-2.2-0.2,3.4l0.4,0.6
			c12.1-6.8,13.6-5.7,7.4-0.8l0.4,0.6c4.4-3.6,7.4-4.6,12.8-5l-0.2-0.7c-8.1,0.6-10.1,0.4-10.1-0.3c0-0.6,4.3-1.3,8.8-0.7l0.3-0.6
			c-3.5-0.3-3.5-1.1,1.5-10l-0.7-0.3c-5.2,9.9-8.8,14.1-6.5,1.9l-0.7-0.2c-2.1,10.8-2.7,11.5-9.8,1.2l-0.5,0.5
			c5.5,7.1,4.8,7.4,3.8,7.4c-4.2,0-7.4-15,1.3-4.2l0.4-0.6c-6.3-6.5-6-8.5,8.1-5.3l0.1-0.7c-16.4-3.2-15.4-6.7-9.9-8
			C630.3,580.7,631.9,581.5,635.3,588.9"/>
		<path style="clip-path:url(#SVGID_00000103953232748289271470000001634603509956290237_);fill:#1D1D1B;" d="M660.6,562.1
			c0-4.5,2.2-7.4,6.7-7.4c4.5,0,6.7,2.9,6.7,7.4c0,4.7-2.7,7.4-6.7,7.4C663.3,569.5,660.6,566.8,660.6,562.1 M667.2,572.6
			c6.6,0,9.1-5.1,9.1-10.5c0-5.4-3.1-10.5-9.1-10.5c-6,0-9,5.1-9,10.5C658.2,567.5,660.7,572.6,667.2,572.6 M642.4,571.4l0,0.4h12.8
			v-2.2H653c-1.4,0-2.1-0.8-2.1-2.8v-15.6l-8.4,5.1l0.1,0.4l5.2-0.8v10.4C647.7,569.2,646.4,570.6,642.4,571.4"/>
		<path style="clip-path:url(#SVGID_00000103953232748289271470000001634603509956290237_);fill:#1D1D1B;" d="M641.5,746.8h0.3
			l4.8-9.7l0.4,7.7c0.1,1.4-0.6,2-2.2,2.4l0,0.2h6.1c0-0.3,0-1,0-1l-0.5,0c-0.7,0-1.1-0.2-1.2-1.3l-0.5-6.6c-0.1-1.6,0.4-2.3,2-2.6
			l0-0.2H646l-3.8,8.2l-3.8-8.2h-4.8c0,0.3,0,0.6,0,1l0.7,0c1,0,1.4,0.3,1.3,1.6l-0.5,6.4c-0.1,1.5-0.7,2.2-2.3,2.5l0,0.2h5.6
			c0-0.3,0-0.7,0-1h-0.8c-0.7,0-1.2-0.3-1.2-1.3l0.5-8L641.5,746.8z M620.4,741.7c0-3.7,2-5.3,4.3-5.3c2.3,0,4,1.9,4,5.1
			c0,3.6-2,5.2-4.3,5.2C622.1,746.8,620.4,744.9,620.4,741.7 M624.9,735.3c-3.9,0-6.8,3-6.8,6.7c0,3.6,2.4,5.9,6,5.9
			c3.9,0,6.8-3.1,6.8-6.6C630.9,737.6,628.5,735.3,624.9,735.3 M605.2,741.7c0-3.7,2-5.3,4.3-5.3c2.3,0,4,1.9,4,5.1
			c0,3.6-2,5.2-4.3,5.2C606.9,746.8,605.2,744.9,605.2,741.7 M609.7,735.3c-3.9,0-6.8,3-6.8,6.7c0,3.6,2.4,5.9,6,5.9
			c3.9,0,6.8-3.1,6.8-6.6C615.7,737.6,613.3,735.3,609.7,735.3 M591.6,745v-8.4l1.5,0c3.1,0,5.2,1.8,5.2,5.1c0,3.2-1.9,4.8-4.7,4.8
			h-0.4C592.1,746.5,591.6,746,591.6,745 M587.4,747.2l0,0.2h6.2c4.3,0,7-2.2,7-6c0-3.6-2.8-5.9-6.6-5.9h-6.4c0,0.4,0,0.9,0,1.1h0.8
			c0.7,0,1.2,0.4,1.2,1.3v6.7C589.6,746.2,588.8,746.9,587.4,747.2"/>
		<path style="clip-path:url(#SVGID_00000103953232748289271470000001634603509956290237_);fill:#1D1D1B;" d="M651.9,721.6
			c-2.4-1.2-2.2-1.7,0.3-4.6c7.1-7.9,7.6-8.4,8-8.4C661,708.6,659,714.4,651.9,721.6 M647.1,719c-4.1,0,6.1-12.3,9.3-12.3
			c0.5,0,1,0.2,1,1.1c0,1.8-1.8,4.9-5.6,8.9C649.9,718.5,648.4,719,647.1,719 M640.7,721.7c-2.5-1.3-2.4-1.7,0.9-5.6
			c3.4-4,4.2-4.8,4.7-4.8C647,711.3,645.8,716.5,640.7,721.7 M635.7,719c-4.2,0,5.7-12.3,9.3-12.3c0.5,0,1,0.2,1,1.1
			c0,1.3-1.3,3.9-5,8.2C638.7,718.3,637.1,719,635.7,719 M634.3,714.7c-1,0,3.5-7.6,11.7-17.8l-0.4-0.4c-7.3,8.9-7.9,7.3-8.5,3.6
			c-0.6,2.5-1.2,3.4-4.5,6.3l0.3,0.4c9.1-8.9,6.2,5-3,2.3l-0.2,0.5c6.1,1.9,6.6,3.5-3.2,10.5l0.3,0.5c9.5-7.4,10.2-4.4,1.9,2.2
			l0.2,0.4c7.8-5.9,8.9-3.8,3.4,1.2l0.3,0.4c4-3.6,4.5-4,7.7-2.7c-0.7,0.7-1.3,1.3-2.1,1.9l0.3,0.4c8.2-7.4,10.7-5,5,0.3l0.2,0.4
			c4.2-3.9,4.9-4.3,7.9-3.1c-0.7,0.7-1.5,1.4-2.3,2.2l0.3,0.4c6.4-5.7,11.9-7.8,3.3,2.1l0.5,0.4c3.8-5,4.6-5,11.1-1.9l0.3-0.5
			c-7.3-3.3-11.7-10.2-1.9-7.1l0.1-0.5c-5.3-1.9-4.9-2.7,5.2-9.5l-0.3-0.4c-9.4,6.3-9.2,3.8,0.7-6.3l-0.4-0.5
			c-10.4,11.1-15.1,9.6-2.7,0.7l-0.3-0.6c-11.8,7.7-12,7.3-8.5-0.1l-0.6-0.3c-4.1,8.4-7,11.5-7.5,11.5c-0.6,0-0.6-1.8,5.3-9.1
			l-0.4-0.4c-6.4,7.4-11.1,7.6,0.9-2.1l-0.3-0.5c-11.7,8.8-12.5,8.4-9,0.9l-0.6-0.3C640.3,708.4,635,714.7,634.3,714.7 M625.4,721.4
			c-9.3-21.4,1.7-7.1,1.7-3C627.1,720,626.4,721,625.4,721.4 M623.7,703.3c0.2,0,0.4-0.1,0.7-0.1c1.9,0,4.8,2.5,5,9.7
			C627.4,711.1,626.2,708.7,623.7,703.3 M622.1,705.5c0-1.1,0.4-1.7,1-2C633.7,724.3,622.3,710.9,622.1,705.5 M619.6,711.9
			c1.9,1.3,3,3.8,5.2,9.7c-0.3,0-0.6,0-0.9,0C620.5,721.1,618.1,718.4,619.6,711.9 M623.5,727.1c2-6.1,4-8.5,8.6-1.8l0.4-0.3
			c-7.8-11.8-4.4-11.9,2-7.6l0.3-0.6c-2.2-1.3-3.7-2.2-4.9-3.2c-0.2-5.5,0-6.8,0.9-7.8c-5.8-1.8-4.4-2.6,5.6-1.2l0.2-0.6
			c-10.3-1.3-10.6-1.5-10.3-5.2c-2,4.1-5.4,6.2-10.6,4.2l-0.1,0.4c7.3,2.4,10.3,8.6-1.6,6.4l0,0.5c2.4,0.3,4,0.6,5.2,1.3l-1.7,6.9
			c5.4,3.5,5.3,3.9-3.3,2.7l0.1,0.7C623.3,722.7,623.8,723.2,623.5,727.1 M606.8,708.3c0.8-1,1.9-2.2,3.1-3.5
			c1.5,0.3,2.3,2.2,1.9,4.1C611.6,710.3,610.7,710.1,606.8,708.3 M606.4,708.7c3.7,2.1,4.3,2.8,0.4,7.7
			C603.3,714.1,602.7,713.2,606.4,708.7 M603.9,720.8c6.4-7.6,7.8-9.2,8.6-9.2c1.1,0-2.4,9.4-7.7,9.4
			C604.5,721,604.2,720.9,603.9,720.8 M601.9,716.9c0.5-1.9,1.2-2.1,4.6,0c-0.8,1-1.8,2.2-3,3.6
			C602.3,719.8,601.6,718.1,601.9,716.9 M601.2,713.2c-1.4,0,2.8-8.4,8.1-8.5C602.4,712.6,601.8,713.2,601.2,713.2 M601.4,700.7
			l-0.4,0.2c2.8,8.7,1.4,10.1-5.7,7.9l-0.2,0.5c6.3,2.1,6.1,2.8-1.7,10.4l0.3,0.4c10.1-10.4,10.5-6.3,1.5,3.4l0.3,0.4
			c6.8-7.2,9.7-2.9,5.5,3.4l0.4,0.3c5.6-8.2,8.5-8.6,11.3-3.1l0.5-0.2c-3.4-7.1-2.8-10.1,4.8-8.2l0.1-0.5c-6.7-2-7-2.3,3.4-11.6
			l-0.3-0.4c-9.8,9.5-13.7,9.1-1.7-1.6l-0.3-0.4c-7.5,6.5-11.7,4.2-4.1-3.1l-0.4-0.4C605.3,707.2,603.6,707.1,601.4,700.7
			 M594.7,700.1c1.6-0.6,1.7,2,0.7,8C592.5,701.3,592.9,700.8,594.7,700.1 M584.1,700.5c5.7-1.1,7.4-0.4,11.1,8.2
			C577.3,704.9,577.7,701.8,584.1,700.5 M580.8,710.4c0.9-0.4,2.8,0.7,6.1,5.2l0.4-0.5c-6.2-7-7-8.8,4.1-6.4
			C589.2,721.2,588.6,721.9,580.8,710.4 M580.4,710.9c6.1,8,5.3,8.2,4.4,8.2C582,719.2,579.7,713,580.4,710.9 M572.3,709.4
			c8.8,1.7,9,2.1,2.5,12.5l0.7,0.2c5.3-8.8,8.1-6.1,2.5,0.7c9.5-5,12.8-3.2-0.8,3.7l0.4,0.6c14.5-8.3,15.3-7,7.6-0.9l0.4,0.6
			c5.3-4.5,8.6-5.6,15-6l-0.2-0.7c-10.3,0.7-12.9,0.6-12.9-0.2c0-0.7,5.3-1.5,10.6-0.7l0.2-0.6c-4.5-0.3-4.5-0.9,1.7-11.3l-0.7-0.3
			c-6.2,11.5-10.1,16.7-7.2,1.8c0.9,0.2,1.9,0.4,3,0.7c-0.2,0.9-0.3,1.8-0.5,2.8h0.7c0.1-0.9,0.3-1.8,0.4-2.6c0.5,0.1,1,0.2,1.5,0.3
			l0.2-0.7c-0.5-0.1-1.1-0.2-1.6-0.3c1.4-9,2.5-10.2,6.3-12.1l-0.3-0.7c-16,7.3-13.7,4.3-0.1-3l-0.4-0.6c-12.9,8.1-17.7,8.8-7.5,0.9
			l-0.4-0.6c-5.2,3.6-8,4.8-14.9,6.1v0.7c14-3.4,8.7,0.2-3.1,2.2v0.8c10.4,1.9,9.3,9.5-3,6.1L572.3,709.4z"/>
		<path style="clip-path:url(#SVGID_00000103953232748289271470000001634603509956290237_);fill:#1D1D1B;" d="M620.2,690.1l0,0.4
			H633v-2.2h-2.3c-1.4,0-2.1-0.8-2.1-2.8V670l-8.4,5.1l0.1,0.4l5.2-0.8v10.4C625.5,687.9,624.2,689.3,620.2,690.1 M605.7,690.1
			l0,0.4h12.8v-2.2h-2.3c-1.4,0-2.1-0.8-2.1-2.8V670l-8.4,5.1l0.1,0.4l5.2-0.8v10.4C611,687.9,609.7,689.3,605.7,690.1"/>
	</g>
	<g>
		<path class="st10" d="M257.2,183.4c-7,3.2-19.2,16.7-1.8,18.9l-0.3,2.3c-16.5-1.7-19.9,12.2-7.8,19l-1.3,1.8
			c-14.4-7.5-5.9,20,3.7,20c3.3,0,5.5-1.5-2.8-11.4l1.7-1.6c14.3,17,16.8,15.1,21,0.7l2.2,0.6c-1.2,10.3,6.9,6.9,14.7-9.8l2.3,1
			c-5.5,13.4-5.5,18.9-3.5,19.8l-1.3,2.1c-6.5-1.4-10.5,0.3-10.8,2c-0.2,1.3,1.5,2.4,5.9,2.1l0.6,2.2c-7.5,1.2-14.1,3.1-20.5,7
			l-1.4-1.8c5-5.6-6.3-6.7-23.3,1.3l-1.3-2.1c9.9-6.1,9-7-5.1-8.6c1.5-15.7-1.3-20-8.2-5l-2.2-0.7c8.9-20.6,7.3-24.4,3-27.6l0.3-1.8
			c6.6-0.2,18-22.2,9.6-24.7l0.9-2.2c12,1.6,26-12.6,11.4-8.8l-0.8-2.3c8.4-2.4,19.1-6.5,27.2-10.1l1.4,2c-4.4,3.9,2.9,7.5,20.2-1.7
			l1.3,2.1c-7.7,6.9-3.1,12.8,5.2,6.6l2.1,1.3c-2.8,8.4-6.9,18.4-11.2,27.8l-2.1-1c3.1-15.3-5.9-23-10.1-22.7
			c-2.8,0.2-3.6,3.7,1.8,10.5l-2,2C268.2,182.5,264.2,180.3,257.2,183.4z"/>
		<path class="st10" d="M300.1,192.6l1.6-1c5.8,8.8,8.2,5.6,11.5-5.6c2.8-9.2-0.8-14.4-9.6-8.5l-1.2-1.7c4-3.9,10.1-9.6,16-13.4
			c-1.4,5.6,7.7,9,20.7-0.1l1.2,1.7c-15.6,12.8-23.5,31.8-11.2,23l1.2,1.7c-3.9,4.3-21.5,28.5-15.9,28.5c2.6,0,14.3-16.8,18.1-24.3
			h2c5.6,0.7,18.5-1.6,22.8-3.2l0.7,1.7c-18.8,10.3-14.4,22.2,2.8,4.4l1.6,1.6c-7.5,7.6-15.8,24.5-5.9,18.3l1.2,1.5
			c-12.7,10.8-12.1,13.6-5.2,15.7l-0.3,1.7c-8.3-0.8-9.8,7-1.7,17.2l-0.7,1.7c-3.1,0-10,1.3-14.6,3.8l-0.8-1.5
			c6-5.4-1.6-7.5-11.9-1.4l-0.9-1.5c9.7-6.8,18.4-23.7,15.1-23.7c-1.6,0-3.7,1.3-10.1,7.5l-1.3-1.2c12-11.5,16.5-19.7,16.5-26.3
			c0-3.9-1-5.9-4.1-5.9c-10.7,0-38.6,38.9-24.5,38.9c3.3,0,6.7-1.6,8.9-3.3l1.3,1.2c-4.7,6.7-6.5,11.2-3.3,11.8l-0.8,1.6
			c-7.3-0.8-12.6,0.5-17.7,3.8l-1-1.4c6.1-6.3-5.6-6.6-15.1-1.3l-0.8-1.5c15.9-7.7,19.8-23.5,3.9-10l-1-1.5
			c19.1-16.4,17.1-22,9-25.5l0.7-1.6C307.4,215.6,309.2,209.9,300.1,192.6z"/>
		<path class="st10" d="M399.2,187.8l1.3,0.8c5.9,3.8,15.6,6.7,22.8,7.4l1,1.4c-10,9.8-6.6,18.4,5.5,7.8l1,1.4
			c-12.6,12.6-14.4,19.6-6.5,23l-0.5,1.6c-12.6-2.6-12.6,12.9-9,22.5l-1.6,0.8c-5.8-10.6-11.4-9.6-26.3,4l-1.5-0.9
			c-5.9-3.6-13.9-6.1-21.4-6.6l-1-1.4c10-9.8,6.6-19.6-5.5-9l-1-1.4c12.6-12.6,14.4-19.6,6.5-23l0.6-1.6
			c12.4,2.6,12.4-12.9,8.9-22.3l1.5-0.8C380.4,202.9,384.4,201.4,399.2,187.8z M385.9,246.8c17.5,0,25.7-18,18-18
			c-1.3,0-4.7,2.6-10.4,7.7l-1.4-0.9c12.4-14.9,12.8-18.3,8.5-20.6l0.9-1.6c4.7,1.6,7.5,0.2,8.3-2.6c1.8-6.8-2.1-11.4-8.1-11.4
			c-15.9,0-24.5,15.8-19.8,15.8c1.3,0,5.2-2.3,10.6-7.3l1.4,1.3c-12,11.6-14.6,18-8.9,22l-0.8,1.6c-4.3-2.5-5.5-1.3-6.7,2.9
			C376.1,241.3,379.4,246.8,385.9,246.8z"/>
		<path class="st10" d="M467.2,187.8l1.3,0.8c5.9,3.8,15.6,6.7,22.8,7.4l1,1.4c-10,9.8-6.6,18.4,5.5,7.8l1,1.4
			c-12.6,12.6-14.4,19.6-6.5,23l-0.5,1.6c-12.6-2.6-12.6,12.9-9,22.5l-1.6,0.8c-5.8-10.6-11.4-9.6-26.3,4l-1.5-0.9
			c-5.9-3.6-13.9-6.1-21.4-6.6l-1-1.4c10-9.8,6.6-19.6-5.5-9l-1-1.4c12.6-12.6,14.4-19.6,6.5-23l0.6-1.6
			c12.4,2.6,12.4-12.9,8.9-22.3l1.5-0.8C448.4,202.9,452.3,201.4,467.2,187.8z M453.8,246.8c17.5,0,25.7-18,18-18
			c-1.3,0-4.7,2.6-10.4,7.7l-1.4-0.9c12.4-14.9,12.8-18.3,8.5-20.6l0.9-1.6c4.7,1.6,7.5,0.2,8.3-2.6c1.8-6.8-2.1-11.4-8.1-11.4
			c-15.9,0-24.5,15.8-19.8,15.8c1.3,0,5.2-2.3,10.6-7.3l1.4,1.3c-12,11.6-14.6,18-8.9,22l-0.8,1.6c-4.3-2.5-5.5-1.3-6.7,2.9
			C444,241.3,447.4,246.8,453.8,246.8z"/>
		<path class="st10" d="M491.3,251.3l0.2-1.7c9,0.8,8.4-3,2.2-7.4l6.5-14.6l1.6,0.6c1.3,11.8,9.2,20.6,15.4,20.6
			c6,0,7.6-2.9,7.7-6.6c0.3-8.8-16.5-31.2-9.1-5.9l-2,0.9c-5-11.5-5.6-16.7-12-19.4l0.1-1.7c6.3-0.2,6.6-9.1,0.8-12.4l0.2-1.7
			c8.2-4,16.6-8.3,24.9-14.2c5.8,2.5,12.7,4.1,20.9,4.5l-0.6,2c-12.6-0.7-8.3,4.1-1.7,6.2c-1.2,3.5-3.8,11.8-5.2,16.9l-2-0.2
			c-0.3-12.6-9.8-20-15.1-20c-3.9,0-5.6,2.2-5.6,6.6c0,11.6,13.7,25.9,9.1,7.9l1.8-0.9c6.9,17.7,9.8,22.1,12.3,24l-1,2
			c-8.4-3.8-12.4,6.6-5,12.7l-0.9,1.5c-6.1,0.6-14.9,2.9-23.4,7.1C508,255,498.2,251.9,491.3,251.3z"/>
		<path class="st10" d="M575.3,236.6l1.6,1.3c-7.3,7.3-6.6,10.4-3.6,10.4c5.4,0,13.1-8.3,18.9-19.7l1.7,0.6
			c-2.4,10.6,0.6,15.7,4,15.3l0.3,2.2c-10.3,2.9-18.3,4.8-26.2,11.9l-1.5-1c-5.5-3.8-13.1-5.9-20.2-6.5l-1-1.4
			c10.6-9.8,7.4-19.6-4.7-9.1l-1.2-1.2c12.8-12.4,13.4-19.7,5.5-23.2l0.5-1.6c12.4,2.6,11.9-10.4,8.5-22.3l1.5-0.8
			c6.2,11.1,10.4,9.8,25.2-3.8l1.3,0.8c6.2,4,14.7,8.3,22.2,11.1v1.6c-13.8,1.4-14.4,7.8-2.9,7.8c-4.7,8.5-14.9,16.5-22.2,22.5
			l-1.6-1.3c3.3-4.4,3.1-6.5,1.4-6.5c-5.2,0-19,11.5-19,17.3C564,244.5,567.9,245.2,575.3,236.6z M576.6,210l1.4,1
			c-7.4,9.1-8.1,13.1-5.9,13.1c6.3,0,28.7-25.9,13.9-25.9c-9.9,0-26,21.2-19.9,21.2C567.7,219.5,570.3,217.5,576.6,210z"/>
	</g>
	<g>
		<path class="st10" d="M222.8,311.1l-1.6-0.9c12.4-30.1,8.8-37.4-0.6-28.9l-0.8-1.5c2.1-3.1,11.3-11.5,15.7-15.1
			c-1.6,5.6,1.2,9.3,12.8,0.6l1.5,1.6c-12.7,11.8-12.9,24.7-3.2,16.6l1.5,1.8c-6.2,6.2-7.8,12.6-7.8,21.3c0,5,2.6,10,5.1,10
			c4,0,9.3-9.8,11.1-24.5l1.5,0.2c0.1,5.5,1.4,7.5,3.1,7.5c2.9,0,5.8-4.5,5.8-11.5c0-7.9-3.8-10.6-13-7.9l-1.2-1.4
			c4.7-5.1,12-11.2,18-14.3c-1.4,6.6,1.5,8.8,11.3,1.7l1.2,1.3c-10.9,17.3-12.1,26.4-7.8,30.6l-0.5,1.6
			c-13.2,7.9-21.4,18.9-14.1,20.4l0.1,1.7c-32.8,13.9-32.6,34-3.3,18.5l1.6,1.7c-4.8,5.5-5.6,10.6,1.4,11.5l-0.5,2.2
			c-9.9-0.8-19.6-0.1-25.8,3.8l-0.7-1.2c7.3-5-0.6-8.4-19.9-0.3l-1-1.7c14.7-6.3,12.4-12.1,6.6-9.4l-0.3-2c19-12,21.9-23,16.4-23
			c-1.7,0-4.1,0.5-7.1,2.2l-1-1C234.4,304.6,230.7,297.8,222.8,311.1z"/>
		<path class="st10" d="M316.6,264.6l1.3,0.8c5.9,3.8,15.6,6.7,22.8,7.4l1,1.4c-10,9.8-6.6,18.4,5.5,7.8l1,1.4
			c-12.6,12.6-14.4,19.6-6.5,23l-0.5,1.6c-12.6-2.6-12.6,12.9-9,22.5l-1.6,0.8c-5.8-10.6-11.4-9.6-26.3,4l-1.5-0.9
			c-5.9-3.6-13.9-6.1-21.4-6.6l-1-1.4c10-9.8,6.6-19.6-5.5-9l-1-1.4c12.6-12.6,14.4-19.6,6.5-23l0.6-1.6
			c12.4,2.6,12.4-12.9,8.9-22.3l1.5-0.8C297.8,279.7,301.8,278.2,316.6,264.6z M303.3,323.6c17.5,0,25.7-18,18-18
			c-1.3,0-4.7,2.6-10.4,7.7l-1.4-0.9c12.4-14.9,12.8-18.3,8.5-20.6l0.9-1.6c4.7,1.6,7.5,0.2,8.3-2.6c1.8-6.8-2.1-11.4-8.1-11.4
			c-15.9,0-24.5,15.8-19.8,15.8c1.3,0,5.2-2.3,10.6-7.3l1.4,1.3c-12,11.6-14.6,18-8.9,22l-0.8,1.6c-4.3-2.5-5.5-1.3-6.7,2.9
			C293.5,318.1,296.8,323.6,303.3,323.6z"/>
		<path class="st10" d="M366.7,264.6c-1.4,5.6,3.2,9.3,12.8,0.6l1.3,1.3c-14.3,17.2-15.7,26-13,26c1.3,0,4.4-2.6,10.7-9.1l1.5,1.2
			c-18.7,21-20.7,37-16.7,37c10.3,0,31-27.9,31-38.6c0-5.8-5.4-7.5-10.5-3l-1.4-1c3.7-5,7.8-8.8,12.9-13.1
			c3.1,5.8,11.5,6.9,20.7,4.1l0.5,1.8c-12.7,9.3-15.6,21.7-9.4,27.9l-0.5,1.6c-4.5-0.6-6.3,2.3-7.7,6.8c-1.3,4-1.2,8.1,5.3,4.5
			l0.9,1.4c-9.4,7.3-8.4,12.7-2.9,12.7l-0.1,1.8c-4.7,0.1-12.4,1-23,3.6l-1-1.5c11.3-10.5,11.2-21.1,9.3-21.1
			c-2.5,0-10.4,10-20.4,25.6l-1.4-1.8c-3.3-4.4-11.9-6.3-17.7-2.9l-1.2-1.4c11.8-16,10.3-20.2-3.7-7.1l-1.2-1.3
			c15.6-17.4,16.4-24.9,7.6-28l0.5-1.6c10.6,1.6,12.1-20.3,2-11.8l-0.9-1.7C355.8,272.4,361.7,268.1,366.7,264.6z"/>
		<path class="st10" d="M422,334l-1-1.4c5.9-6.3-5.9-6.5-15.3-1.2l-0.8-1.5c15.8-7.7,22.1-24.7,3.9-10.1l-0.9-1.4
			c16.8-15.3,17.3-22,9.2-25.5l0.5-1.6c6,0.6,9.7-5,10.1-9.2c0.5-4.4-2.3-7.3-9.2-0.9l-0.9-1.6c4.1-5.6,10.8-11.2,15.4-15
			c-1.4,5.6,1.5,9.3,12.8,0.6l1.6,1.3c-7.4,9.9-17.2,32.9-14.4,32.9c2.4,0,15.7-20.2,22-33.4l1.7,0.9c-3.1,9.4,1.2,9.9,6.8,5.3
			l1.3,1.4c-2.9,11.9-7.9,22.6-16,31.9l-1.4-1c7.1-10.8,6.2-15.9,3.1-15.9c-6.8,0-28.3,33.8-15.1,33.8c4.5,0,10.6-3.5,16.2-11.3
			l1.4,1.2c-3.3,5-7.9,14.1-3.9,19.1l-1.3,1.2C443.5,330.3,430,330.3,422,334z"/>
	</g>
	<g>
		<defs>
			<rect id="SVGID_00000031897461658325131880000017310255994540931712_" x="155.2" y="97.6" width="651.5" height="1006.7"/>
		</defs>
		<clipPath id="SVGID_00000153680585526854466610000005166534928002582188_">
			<use xlink:href="#SVGID_00000031897461658325131880000017310255994540931712_"  style="overflow:visible;"/>
		</clipPath>
		<path style="clip-path:url(#SVGID_00000153680585526854466610000005166534928002582188_);fill:#1D1D1B;" d="M682,993.9l1.2-1.1
			c-3.8-4.8,0.5-13.5,3.7-18.2l-1.3-1.1c-5.4,7.5-11.2,10.7-15.5,10.7c-12.6,0,7.9-32.1,14.4-32.1c3,0,3.8,4.8-3,15.1l1.3,1
			c7.7-8.9,12.5-19.1,15.2-30.4l-1.2-1.3c-5.4,4.4-9.4,3.9-6.5-5l-1.6-0.9c-6,12.6-18.6,31.8-20.9,31.8c-2.6,0,6.7-21.9,13.7-31.4
			l-1.5-1.2c-10.7,8.3-13.5,4.8-12.2-0.5c-4.4,3.6-10.7,8.9-14.7,14.2l0.9,1.5c6.6-6,9.2-3.3,8.8,0.9c-0.4,4.1-3.9,9.3-9.6,8.8
			l-0.4,1.5c7.7,3.3,7.2,9.6-8.8,24.2l0.9,1.3c17.3-13.8,11.3,2.3-3.7,9.6l0.8,1.4c9-5,20.2-4.9,14.6,1.1l1,1.3
			C665,991.8,677.8,991.8,682,993.9 M599.8,974.8c1.1-3.9,2.3-5.2,6.4-2.7l0.8-1.5c-5.5-3.8-3-9.9,8.4-20.9l-1.3-1.2
			c-5.2,4.7-8.9,6.9-10.1,6.9c-4.5,0,3.7-15,18.9-15c5.7,0,9.4,4.4,7.7,10.9c-0.8,2.7-3.4,4.1-7.9,2.5l-0.9,1.5
			c4.1,2.2,3.7,5.5-8.1,19.6l1.3,0.9c5.4-4.8,8.7-7.3,9.9-7.3c7.3,0-0.4,17.1-17.1,17.1C601.6,985.4,598.4,980.2,599.8,974.8
			 M596.4,932.8l-1.4,0.8c3.4,9,3.4,23.8-8.4,21.3l-0.5,1.5c7.6,3.3,5.8,10-6.1,21.9l1,1.3c11.5-10.1,14.8-0.8,5.3,8.5l1,1.3
			c7.1,0.4,14.8,2.9,20.4,6.2l1.4,0.9c14.1-12.9,19.5-13.9,25-3.8l1.5-0.8c-3.4-9.1-3.4-23.9,8.6-21.4l0.4-1.5
			c-7.6-3.3-5.8-10,6.1-21.9l-1-1.3c-11.5,10.1-14.8,1.9-5.3-7.5l-1-1.3c-6.9-0.7-16.1-3.4-21.7-7l-1.2-0.8
			C606.3,942.3,602.5,943.7,596.4,932.8 M570.5,993.9l1.2-1.1c-3.8-4.8,0.5-13.5,3.7-18.2l-1.3-1.1c-5.4,7.5-11.2,10.7-15.5,10.7
			c-12.6,0,7.9-32.1,14.4-32.1c3,0,3.8,4.8-3,15.1l1.3,1c7.7-8.9,12.5-19.1,15.2-30.4l-1.2-1.3c-5.4,4.4-9.4,3.9-6.5-5l-1.6-0.9
			c-6,12.6-18.6,31.8-20.9,31.8c-2.6,0,6.7-21.9,13.7-31.4l-1.5-1.2c-10.7,8.3-13.5,4.8-12.2-0.5c-4.4,3.6-10.7,8.9-14.7,14.2
			l0.9,1.5c6.6-6,9.2-3.3,8.8,0.9c-0.4,4.1-3.9,9.3-9.6,8.8l-0.4,1.5c7.7,3.3,7.2,9.6-8.8,24.2l0.9,1.3c17.3-13.8,11.3,2.3-3.7,9.6
			l0.8,1.4c9-5,20.2-4.9,14.6,1.1l1,1.3C553.5,991.8,566.4,991.8,570.5,993.9 M523.7,993.9l1.2-1.1c-3.8-4.8,0.5-13.5,3.7-18.2
			l-1.3-1.1c-5.4,7.5-11.2,10.7-15.5,10.7c-12.6,0,7.9-32.1,14.4-32.1c3,0,3.8,4.8-3,15.1l1.3,1c7.7-8.9,12.5-19.1,15.2-30.4
			l-1.2-1.3c-5.4,4.4-9.4,3.9-6.5-5l-1.6-0.9c-6,12.6-18.6,31.8-20.9,31.8c-2.6,0,6.7-21.9,13.7-31.4l-1.5-1.2
			c-10.7,8.3-13.5,4.8-12.2-0.5c-4.4,3.6-10.7,8.9-14.7,14.2l0.9,1.5c6.6-6,9.2-3.3,8.8,0.9c-0.4,4.1-3.9,9.3-9.6,8.8l-0.4,1.5
			c7.7,3.3,7.2,9.6-8.8,24.2l0.9,1.3c17.3-13.8,11.3,2.3-3.7,9.6l0.8,1.4c9-5,20.2-4.9,14.6,1.1l1,1.3
			C506.7,991.8,519.6,991.8,523.7,993.9 M451.6,959.5c-5.8,0,9.5-20.2,19-20.2c14,0-7.2,24.7-13.3,24.7c-2.1,0-1.4-3.8,5.6-12.5
			l-1.3-1C455.5,957.6,453,959.5,451.6,959.5 M449.5,980c0-5.5,13.2-16.4,18.1-16.4c1.6,0,1.9,2-1.3,6.1l1.5,1.2
			c7-5.7,16.7-13.3,21.2-21.4c-11,0-10.4-6.1,2.7-7.5v-1.5c-7.1-2.6-15.2-6.7-21.2-10.5l-1.2-0.8c-14.1,12.9-18.1,14.1-24,3.6
			l-1.4,0.8c3.2,11.4,3.7,23.8-8.1,21.3l-0.4,1.5c7.5,3.3,6.9,10.2-5.3,22l1.1,1.1c11.5-10,14.6-0.7,4.5,8.7l1,1.3
			c6.7,0.5,13.9,2.5,19.2,6.1l1.4,1c7.5-6.7,15.1-8.5,24.9-11.3l-0.3-2.1c-3.3,0.3-6.1-4.5-3.8-14.6l-1.6-0.5
			c-5.5,10.9-12.8,18.7-18,18.7c-2.9,0-3.5-3,3.4-9.9l-1.5-1.2C453.2,983.9,449.5,983.3,449.5,980 M381,934.9l1.6,1.1
			c13-20.3,14.9-16.3,10.9-5.7l1.8,1.1c7.7-8.9,15.2-11.7,12.3-0.3c-1.5,5.9-4.6,12.2-8.1,3.9l-2,1.1c5,10.6,4.8,22.4-2.7,20.8
			l-0.8,2c6.6,2.4,6.5,4.6-11.3,16.9l1.5,1.8c15.2-10.3,15.3-0.3-6.6,14.5l1,2c13.3-6.8,18.7-5.4,13.7-0.3l1.4,2
			c5-3.3,14.5-4.3,21-3.4l0.9-2.1c-3.1-1-3.8-5,5-12.6l-1.3-1.8c-11.1,9-15.8,6.1-13.4-1.6c1.4-4.6,4.3-7.7,9.3-8.2l0.1-2.1
			c-7.1-3.8-6.1-9.5,9.9-28.6l-1.6-1.5c-2.5,3-4.2,3.8-5.8,3.8c-3.2,0,3-15.3,9-15.3c2.4,0,3.5,1.4,1.6,5l1.9,1.4
			c5.8-9.8,11.2-3.8,4.5,7.3l1.6,1.6c6.2-6.4,11.1-12.7,14.6-17.6l-1.4-1.6c-4.9,3.2-8.2-1.4-1.4-6.7l-1.3-1.8
			c-12.6,7.1-20.6,7.7-16.1,1.9l-1.1-1.8c-10.2,4.5-22.5,9.1-20.2,0.5l-2.1-0.7c-2.4,5.2-8.4,6.2-20.4,2.5l-1,2
			C388.9,915.5,388.1,919.1,381,934.9"/>
		<path style="clip-path:url(#SVGID_00000153680585526854466610000005166534928002582188_);fill:#1D1D1B;" d="M679.4,866.1
			c-5.8,0,9.5-20.2,19-20.2c14,0-7.2,24.7-13.3,24.7c-2.1,0-1.4-3.8,5.6-12.5l-1.3-1C683.3,864.3,680.8,866.1,679.4,866.1
			 M677.3,886.6c0-5.5,13.2-16.4,18.1-16.4c1.6,0,1.9,2-1.3,6.1l1.5,1.2c7-5.7,16.7-13.3,21.2-21.4c-11,0-10.4-6.1,2.7-7.5v-1.5
			c-7.1-2.6-15.2-6.7-21.2-10.5l-1.2-0.8c-14.1,12.9-18.1,14.1-24,3.6l-1.4,0.8c3.2,11.4,3.7,23.8-8.1,21.3l-0.4,1.5
			c7.5,3.3,6.9,10.2-5.3,22l1.1,1.1c11.5-10,14.6-0.7,4.5,8.7l1,1.3c6.7,0.5,13.9,2.5,19.2,6.1l1.4,1c7.5-6.7,15.1-8.6,24.9-11.3
			l-0.3-2.1c-3.3,0.3-6.1-4.5-3.8-14.6l-1.6-0.5c-5.5,10.9-12.8,18.7-18,18.7c-2.9,0-3.5-3,3.4-9.9l-1.5-1.2
			C681,890.6,677.3,889.9,677.3,886.6 M582.5,863.9c-3.1,0,0.3-10.9,12.8-26.2l-1.4-1.2c-11.1,8.3-14.8,4.8-13.3-0.5
			c-4.5,3.6-10.9,8.9-14.9,14.4l0.8,1.4c13.2-12.1,11.2,10.9-0.8,9.6l-0.7,1.5c7.6,3.3,9.4,8.7-8.8,24.2l0.9,1.3
			c17.1-14.9,11.5,2.3-3.6,9.6l0.8,1.4c9.1-5,20.3-4.9,14.5,1.1l1,1.3c4.9-3.2,9.9-4.3,16.8-3.5l0.8-1.5c-3-0.5-1.5-4.8,3.2-11.2
			l-1.2-1.1c-2.1,1.6-5,3.2-8.2,3.2c-13.4,0,13.2-37,23.3-37c2.8,0,3.9,1.9,3.9,5.6c0,5.4-4.5,14-15.9,25l1.2,1.1
			c6.5-5.8,8.1-7.1,9.6-7.1c3.4,0-5,16.1-14.4,22.6l0.9,1.4c9.9-5.8,17.2-3.9,11.4,1.3l0.8,1.4c5.6-3.3,12.1-4.4,19-3.6l0.8-1.5
			c-3-0.5-1.5-4.8,3.2-11.2l-1.2-1.1c-2.1,1.6-5,3.2-8.2,3.2c-13.4,0,13.2-37,23.3-37c2.9,0,3.9,1.9,3.9,5.6c0,5.4-4.5,14-15.9,25
			l1.2,1.1c6.5-5.8,8.1-7.1,9.6-7.1c3.4,0-5,16.1-14.4,22.6l0.9,1.4c9.9-5.8,17.2-3.9,11.4,1.3l0.8,1.4c4.5-2.5,11-3.6,13.9-3.6
			l0.9-1.8c-7.9-9.5-6.6-17,1.3-16.2l0.4-1.6c-6.6-2-7.2-4.6,4.8-14.9l-1-1.4c-9.4,5.9-1.6-10.2,5.4-17.8l-1.2-1.2
			c-16.3,17-20.5,5.5-2.9-4.3l-0.7-1.5c-3.9,1.5-16.1,3.7-21.5,3.1h-1.9c-9.4,15.8-15.7,23.1-18.4,23.1c-1.9,0-2.5-5.3,11-19.2
			l-1.2-1.2c-14.9,15.6-19.4,5.5-1.8-4.3l-0.7-1.5c-3.9,1.5-16.1,3.7-21.5,3.1h-1.9C595.9,847.9,585,863.9,582.5,863.9 M502.5,848.2
			l0.9,1.6c9.6-8.1,8.2,12.7-1.9,11.2l-0.4,1.5c8.3,3,7.6,10.1-7.2,26.6l1.1,1.2c13.3-12.4,14.7-8.4,3.5,6.8l1.1,1.3
			c5.6-3.3,13.7-1.4,16.9,2.7l1.3,1.8c9.5-14.8,17-24.3,19.4-24.3c1.8,0,1.9,10.1-8.9,20.1l1,1.4c10.1-2.4,17.4-3.3,21.9-3.4
			l0.1-1.8c-5.3,0-6.2-5.2,2.7-12.1l-0.9-1.3c-6.1,3.4-6.2-0.4-5-4.3c1.3-4.3,3.1-7,7.3-6.5l0.4-1.5c-5.8-5.9-3.1-17.6,9-26.5
			l-0.4-1.8c-8.8,2.6-16.8,1.5-19.7-3.9c-4.8,4.2-8.8,7.8-12.3,12.5l1.3,1c4.8-4.3,10-2.6,10,2.9c0,10.2-19.7,36.7-29.5,36.7
			c-3.8,0-1.9-15.2,15.9-35.2l-1.4-1.1c-6,6.1-9,8.7-10.2,8.7c-2.5,0-1.2-8.4,12.4-24.8l-1.2-1.2c-9.1,8.3-13.5,4.8-12.2-0.5
			C512.7,839.3,507.1,843.3,502.5,848.2 M475.2,900l0.5,1.4c6.4-1,11.1-2.5,16.3-5.2l-0.5-1.6c-5.9,1.8-9.1-2.8-7.5-9.6
			c1-4.1,3.3-8,7.6-8l0.4-1.5c-5.6-2.4-7.2-8.3,7.3-19.4l-0.9-1.5c-9.3,7.3-6.1-7.9,5.5-16.9l-0.7-1.5c-8.9,5.4-4.3-10.6,9-23
			l-1-1.4c-11.5,8.6-18.7,5.5-17.4,0.1c-5.6,3.6-11.4,9.1-15.3,12.8l1,1.4c8.3-5.5,11.6-3.2,8.6,8.3c-3,11.2-4.3,14.2-8.6,7.1
			l-1.5,0.8c6.5,13.2,5.4,20.9-4.5,19.2l-0.4,1.8c9,3.1,7.3,7.5-7.6,21.6l1.1,1.4c11.1-9.2,10.4,2-5.5,11.7l0.5,1.6
			C476.7,894.3,480,896.9,475.2,900 M421.2,881.5c1.1-3.9,2.3-5.2,6.4-2.7l0.8-1.5c-5.5-3.8-3-9.9,8.4-20.9l-1.3-1.2
			c-5.2,4.7-8.9,6.9-10.1,6.9c-4.5,0,3.7-15,18.9-15c5.7,0,9.4,4.4,7.7,10.9c-0.8,2.7-3.4,4.1-7.9,2.5l-0.9,1.5
			c4.1,2.2,3.7,5.5-8.1,19.6l1.3,0.9c5.4-4.8,8.7-7.3,9.9-7.3c7.3,0-0.4,17.1-17.1,17.1C423,892.1,419.8,886.9,421.2,881.5
			 M417.8,839.5l-1.4,0.8c3.4,9,3.4,23.8-8.4,21.3l-0.5,1.5c7.6,3.3,5.8,10-6.1,21.9l1,1.3c11.5-10.1,14.8-0.8,5.3,8.5l1,1.3
			c7.1,0.4,14.8,2.8,20.4,6.2l1.4,0.9c14.1-12.9,19.5-13.9,25-3.8l1.5-0.8c-3.4-9.1-3.4-23.9,8.6-21.4l0.4-1.5
			c-7.6-3.3-5.8-10,6.1-21.9l-1-1.3c-11.5,10.1-14.8,1.9-5.3-7.5l-1-1.3c-6.9-0.7-16.1-3.4-21.7-7l-1.2-0.8
			C427.7,848.9,424,850.4,417.8,839.5 M346.5,863.3v2.2c10.2,0.9,12.7,17,3.8,28.6l1.5,1.6c10.2-10.2,19.8-4.2,5.3,4.9l1.5,1.6
			c9.6-4.7,20.4-13,28.4-20.5l-1.1-1.9c-5.6,3.9-7.7,3.8-7.7,1.9c-0.1-4.7,11.6-20.2,17.4-16.7l1.1-2c-5.5-2.7-3-8.7,17.1-25.7
			l-1.4-1.8c-5.7,4.1-11.5-1.2,4.7-15.2l-0.9-2.1c-13,6.4-19.1,5.9-14.5,1l-1-2.1c-4.7,2.7-9.4,3.8-15.9,2.9l-0.1,2.3
			c3,0.3,3.9,4.2-5.2,14.4l1.5,1.8c5.5-6,9.8-8.2,12.6-8.2c4.1,0-10.5,36.1-27.7,54.7c0.5-7.6,3.8-16.2,6.8-21.6l-1.6-1.6
			c-8.2,7.8-10-1.9,3.8-17.1l-1.5-1.8c-11.5,13.5-19.8-2.6,3.3-22.1l-0.8-2.1c-13,5.3-19.6,4.3-14.5,0.4l-0.8-2.1
			c-4.8,2.4-11.4,4.3-16.3,3.2l-0.5,2.2c11,3.6,13.3,26.9,0.1,4.6l-1.8,1.5C358.8,854.4,358.4,863.9,346.5,863.3"/>
		<path style="clip-path:url(#SVGID_00000153680585526854466610000005166534928002582188_);fill:#1D1D1B;" d="M335.9,938.9
			c1.7-5.5,4.4-6.8,5.8-6.8c5,0,3.8,13.3-3.9,12l-0.3,1.2c4.8,1.6,7.2,5.1-4,16.6l1,0.9c8.1-7.8,3.6,6.1-5.5,10.3l0.6,1.1
			c8-3.5,15-3.9,11.6,0.9l0.8,1c5-2.8,14.6-3,18.5-1.8l0.6-1.2c-2.5-2-1.6-7.5,1.2-12.1l-1-0.9c-3.9,5.7-7.1,7.3-11.2,7.3
			c-7.9,0-4.6-10.1,4.5-10.9l0.3-1.3c-9.1-2-8.1-5.3,3.9-13.7l-0.7-1.1c-9.9,7.8-5.8-8.6,1.9-8.6c3.6,0,6.2,1.2,7,6.4l2,0.4
			l2.9-10.8l-1.5-0.4c-4.2,0.9-7.8,1-10.1,1c-6.1,0-5.4-9.3,2-12.3c4.9-2,7.3,1.7,4.8,7.7l1.2,0.6c2.7-2.9,6.2-7.6,8.8-11.4
			c-7.9,1.7-12.2-4-1-7l-0.3-1.3c-8.4,1.7-14,3.1-19.4,5.2c-1.1,7.8-4.6,12.4-8.5,1l-1.4,0.5c3.2,14.6-0.7,17.9-8.8,16.1l-2.9,11
			L335.9,938.9z M295,960c0.9-3.1,1.8-4.1,5-2.2l0.6-1.2c-4.3-3-2.3-7.8,6.7-16.6l-1-1c-4.1,3.7-7,5.5-8,5.5
			c-3.6,0,2.9-11.9,14.9-11.9c4.5,0,7.5,3.5,6.1,8.6c-0.6,2.2-2.7,3.2-6.2,2l-0.7,1.2c3.2,1.7,2.9,4.3-6.4,15.5l1,0.7
			c4.2-3.8,6.8-5.8,7.8-5.8c5.8,0-0.3,13.5-13.5,13.5C296.3,968.4,293.8,964.2,295,960 M292.3,926.8l-1.1,0.6
			c2.7,7.1,2.7,18.8-6.7,16.8l-0.4,1.2c6,2.6,4.6,7.9-4.9,17.3l0.8,1c9.1-8,11.7-0.6,4.2,6.8l0.8,1c5.6,0.3,11.7,2.3,16.1,4.9
			l1.1,0.7c11.2-10.2,15.4-11,19.8-3l1.2-0.6c-2.7-7.2-2.7-18.9,6.8-16.9l0.3-1.2c-6-2.6-4.6-7.9,4.9-17.3l-0.8-1
			c-9.1,8-11.7,1.5-4.2-5.9l-0.8-1c-5.5-0.5-12.7-2.7-17.2-5.5l-1-0.6C300.1,934.2,297.1,935.4,292.3,926.8"/>
	</g>
</g>
</svg>
