<?xml version="1.0" encoding="utf-8"?>
<!-- Generator: Adobe Illustrator 27.4.0, SVG Export Plug-In . SVG Version: 6.00 Build 0)  -->
<svg version="1.1" id="Ebene_1" xmlns="http://www.w3.org/2000/svg" xmlns:xlink="http://www.w3.org/1999/xlink" x="0px" y="0px"
	 viewBox="0 0 700 1200" style="enable-background:new 0 0 700 1200;" xml:space="preserve">
<style type="text/css">
	.st0{clip-path:url(#SVGID_00000156552778195332678160000005453723777231636158_);fill:#010202;}
	.st1{clip-path:url(#SVGID_00000156552778195332678160000005453723777231636158_);}
	.st2{clip-path:url(#SVGID_00000079452631536285373740000015714882534073644970_);fill:#FFFFFF;}
	
		.st3{clip-path:url(#SVGID_00000079452631536285373740000015714882534073644970_);fill:none;stroke:#FFFFFF;stroke-width:5.245;stroke-miterlimit:10;}
	.st4{clip-path:url(#SVGID_00000156552778195332678160000005453723777231636158_);fill:#FFFFFF;}
	
		.st5{clip-path:url(#SVGID_00000156552778195332678160000005453723777231636158_);fill:none;stroke:#FFFFFF;stroke-width:5.245;stroke-miterlimit:10;}
	.st6{clip-path:url(#SVGID_00000011741314779655299280000009656974394045012148_);fill:#010202;}
	
		.st7{clip-path:url(#SVGID_00000011741314779655299280000009656974394045012148_);fill:none;stroke:#FFFFFF;stroke-width:5.245;stroke-miterlimit:10;}
	.st8{clip-path:url(#SVGID_00000011741314779655299280000009656974394045012148_);fill:#FFFFFF;}
	.st9{clip-path:url(#SVGID_00000088850459626162820870000006374404200231875499_);fill:#010202;}
	.st10{clip-path:url(#SVGID_00000088850459626162820870000006374404200231875499_);}
	.st11{clip-path:url(#SVGID_00000054968036218726631480000000709533314616762298_);fill:#FFFFFF;}
	
		.st12{clip-path:url(#SVGID_00000054968036218726631480000000709533314616762298_);fill:none;stroke:#FFFFFF;stroke-width:2.098;stroke-miterlimit:10;}
	.st13{clip-path:url(#SVGID_00000088850459626162820870000006374404200231875499_);fill:#FFFFFF;}
	
		.st14{clip-path:url(#SVGID_00000088850459626162820870000006374404200231875499_);fill:none;stroke:#FFFFFF;stroke-width:2.098;stroke-miterlimit:10;}
	.st15{clip-path:url(#SVGID_00000066485931000632271880000015171512569205439107_);fill:#010202;}
	
		.st16{clip-path:url(#SVGID_00000066485931000632271880000015171512569205439107_);fill:none;stroke:#FFFFFF;stroke-width:2.098;stroke-miterlimit:10;}
	.st17{clip-path:url(#SVGID_00000066485931000632271880000015171512569205439107_);fill:#FFFFFF;}
	.st18{clip-path:url(#SVGID_00000054236618050131418190000005737373691016160423_);}
	.st19{clip-path:url(#SVGID_00000081611844251054516840000002143172750415693954_);fill:#010202;}
	.st20{clip-path:url(#SVGID_00000155124227605653678260000018086633248958983571_);fill:#010202;}
	.st21{clip-path:url(#SVGID_00000155124227605653678260000018086633248958983571_);}
	.st22{clip-path:url(#SVGID_00000045591049084305526620000006613024490272544434_);fill:#FFFFFF;}
	.st23{clip-path:url(#SVGID_00000124129412482483574410000010655617962789054892_);}
	.st24{clip-path:url(#SVGID_00000143600075621615035400000001630508197617496742_);fill:#010202;}
	
		.st25{clip-path:url(#SVGID_00000143600075621615035400000001630508197617496742_);fill:none;stroke:#010202;stroke-width:23.345;stroke-miterlimit:10;}
	.st26{clip-path:url(#SVGID_00000143600075621615035400000001630508197617496742_);fill:#FFFFFF;}
	
		.st27{clip-path:url(#SVGID_00000143600075621615035400000001630508197617496742_);fill:none;stroke:#FFFFFF;stroke-width:0.657;stroke-miterlimit:10;}
	
		.st28{clip-path:url(#SVGID_00000143600075621615035400000001630508197617496742_);fill:none;stroke:#FFFFFF;stroke-width:6.571;stroke-miterlimit:10;}
	
		.st29{clip-path:url(#SVGID_00000143600075621615035400000001630508197617496742_);fill:none;stroke:#010202;stroke-width:3.147;stroke-miterlimit:10;}
	
		.st30{clip-path:url(#SVGID_00000124129412482483574410000010655617962789054892_);fill:none;stroke:#010202;stroke-width:3.147;stroke-miterlimit:10;}
	.st31{clip-path:url(#SVGID_00000016073851209748335170000008565032072828942783_);fill:#010202;}
	.st32{clip-path:url(#SVGID_00000016073851209748335170000008565032072828942783_);fill:#FFFFFF;}
	.st33{clip-path:url(#SVGID_00000124129412482483574410000010655617962789054892_);fill:#010202;}
	.st34{clip-path:url(#SVGID_00000084499303032558511180000016981637929096951462_);}
	.st35{clip-path:url(#SVGID_00000052089045529383810070000010992833518702707883_);fill:#010202;}
	.st36{clip-path:url(#SVGID_00000052089045529383810070000010992833518702707883_);}
	.st37{clip-path:url(#SVGID_00000129903461299611794700000008139175591576053938_);fill:#FFFFFF;}
	.st38{clip-path:url(#SVGID_00000052089045529383810070000010992833518702707883_);fill:#B4B4B4;}
	.st39{clip-path:url(#SVGID_00000052089045529383810070000010992833518702707883_);fill:#FFFFFF;}
	.st40{clip-path:url(#SVGID_00000083782874957956339190000003324165896198194082_);fill:#010202;}
	.st41{clip-path:url(#SVGID_00000067931178268471365170000000918095333796112527_);fill:#010202;}
	.st42{clip-path:url(#SVGID_00000004506288918308126810000016971564555721976996_);enable-background:new    ;}
	.st43{clip-path:url(#SVGID_00000109024026924804148810000015724675200181715885_);}
	.st44{clip-path:url(#SVGID_00000098189716994338752190000011602128038098385333_);fill:#010202;}
	.st45{clip-path:url(#SVGID_00000098189716994338752190000011602128038098385333_);fill:none;stroke:#010202;stroke-width:0.82;}
	.st46{clip-path:url(#SVGID_00000098189716994338752190000011602128038098385333_);fill:none;stroke:#010202;stroke-width:0.864;}
	.st47{clip-path:url(#SVGID_00000098189716994338752190000011602128038098385333_);fill:#FFFFFF;}
	.st48{clip-path:url(#SVGID_00000098189716994338752190000011602128038098385333_);fill:none;stroke:#010202;stroke-width:1.639;}
	
		.st49{clip-path:url(#SVGID_00000098189716994338752190000011602128038098385333_);fill:none;stroke:#010202;stroke-width:4.918;stroke-linecap:round;}
	
		.st50{clip-path:url(#SVGID_00000098189716994338752190000011602128038098385333_);fill:none;stroke:#010202;stroke-width:4.918;stroke-linecap:round;stroke-dasharray:0.367,7.34;}
	
		.st51{clip-path:url(#SVGID_00000098189716994338752190000011602128038098385333_);fill:none;stroke:#010202;stroke-width:4.918;stroke-linecap:round;stroke-dasharray:0.367,7.34,0.367,7.34;}
	
		.st52{clip-path:url(#SVGID_00000098189716994338752190000011602128038098385333_);fill:none;stroke:#010202;stroke-width:4.918;stroke-linecap:round;stroke-dasharray:0.32,6.386;}
	
		.st53{clip-path:url(#SVGID_00000098189716994338752190000011602128038098385333_);fill:none;stroke:#010202;stroke-width:4.918;stroke-linecap:round;stroke-dasharray:0.32,6.386,0.32,6.386;}
	
		.st54{clip-path:url(#SVGID_00000098189716994338752190000011602128038098385333_);fill:none;stroke:#010202;stroke-width:4.918;stroke-linecap:round;stroke-dasharray:0.359,7.186;}
	
		.st55{clip-path:url(#SVGID_00000098189716994338752190000011602128038098385333_);fill:none;stroke:#010202;stroke-width:4.918;stroke-linecap:round;stroke-dasharray:0.359,7.186,0.359,7.186;}
	
		.st56{clip-path:url(#SVGID_00000098189716994338752190000011602128038098385333_);fill:none;stroke:#010202;stroke-width:4.918;stroke-linecap:round;stroke-dasharray:0.326,6.528;}
	
		.st57{clip-path:url(#SVGID_00000098189716994338752190000011602128038098385333_);fill:none;stroke:#010202;stroke-width:4.918;stroke-linecap:round;stroke-dasharray:0.326,6.528,0.326,6.528;}
	.st58{clip-path:url(#SVGID_00000098189716994338752190000011602128038098385333_);fill:none;stroke:#010202;stroke-width:0.828;}
	.st59{clip-path:url(#SVGID_00000098189716994338752190000011602128038098385333_);fill:none;stroke:#010202;stroke-width:0.987;}
	.st60{opacity:0.33;clip-path:url(#SVGID_00000098189716994338752190000011602128038098385333_);}
	.st61{clip-path:url(#SVGID_00000137829336767229413830000014494943447165910158_);}
	.st62{clip-path:url(#SVGID_00000037670289523119410210000005110718098175029145_);fill:#010202;}
	.st63{clip-path:url(#SVGID_00000176733560557126441370000017490814379194691772_);}
	.st64{clip-path:url(#SVGID_00000121268985510744258840000000593301197760074624_);fill:#010202;}
	.st65{clip-path:url(#SVGID_00000006690258685080047780000016871321707949406090_);}
	.st66{clip-path:url(#SVGID_00000176020874290755569190000008354051921555958956_);fill:#010202;}
	.st67{opacity:0.5;clip-path:url(#SVGID_00000098189716994338752190000011602128038098385333_);}
	.st68{clip-path:url(#SVGID_00000097496698528860963930000008016293418193665160_);}
	.st69{clip-path:url(#SVGID_00000163759559056916898960000001796684252468652161_);fill:#010202;}
	
		.st70{clip-path:url(#SVGID_00000098189716994338752190000011602128038098385333_);fill:none;stroke:#010202;stroke-width:0.82;stroke-miterlimit:10;}
	
		.st71{clip-path:url(#SVGID_00000098189716994338752190000011602128038098385333_);fill:none;stroke:#010202;stroke-width:0.82;stroke-linejoin:bevel;}
	
		.st72{clip-path:url(#SVGID_00000098189716994338752190000011602128038098385333_);fill:none;stroke:#010202;stroke-width:0.83;stroke-linejoin:bevel;}
	
		.st73{clip-path:url(#SVGID_00000098189716994338752190000011602128038098385333_);fill:none;stroke:#010202;stroke-width:0.877;stroke-linejoin:bevel;}
	
		.st74{clip-path:url(#SVGID_00000098189716994338752190000011602128038098385333_);fill:none;stroke:#010202;stroke-width:0.536;stroke-linejoin:bevel;}
	.st75{clip-path:url(#SVGID_00000145763025226366290410000018077085900308405130_);fill:#010202;}
	.st76{clip-path:url(#SVGID_00000018958552890849010040000004438768314742238878_);fill:#9D9D9C;}
	.st77{clip-path:url(#SVGID_00000145015958208541932410000017219422668160733064_);fill:#010202;}
	.st78{clip-path:url(#SVGID_00000139263675562536217770000007406280432723720857_);fill:#010202;}
	.st79{clip-path:url(#SVGID_00000022557916171310701290000006929336324319039648_);fill:#010202;}
	.st80{clip-path:url(#SVGID_00000174569487795918785460000018130427646061439928_);fill:#010202;}
	.st81{clip-path:url(#SVGID_00000134942586813907767590000010000909501433237161_);fill:#010202;}
	.st82{clip-path:url(#SVGID_00000112608439147513339170000014447554975522436770_);fill:#010202;}
	.st83{clip-path:url(#SVGID_00000070800497678912763810000014402072439952942743_);fill:#010202;}
	.st84{clip-path:url(#SVGID_00000010275241638567307390000013814604928705789081_);fill:#010202;}
	.st85{clip-path:url(#SVGID_00000067933622421755704590000007386478195450354093_);fill:#010202;}
	.st86{clip-path:url(#SVGID_00000170239794468515374740000000788857361342037146_);fill:#010202;}
	.st87{clip-path:url(#SVGID_00000037652716056116908710000003498103204623072133_);fill:#010202;}
	.st88{clip-path:url(#SVGID_00000070084214317659173770000010673183464096545208_);fill:#010202;}
	.st89{clip-path:url(#SVGID_00000131334303608062357080000015611758740244519324_);fill:#010202;}
	.st90{clip-path:url(#SVGID_00000000912678448289734950000001196046575702978692_);fill:#010202;}
	.st91{clip-path:url(#SVGID_00000147178510951250519080000008626621521015792045_);fill:#010202;}
	.st92{clip-path:url(#SVGID_00000130604683310412052240000004533505772731199618_);fill:#010202;}
	.st93{clip-path:url(#SVGID_00000061431005559427697650000010425873223437723567_);fill:#010202;}
	.st94{clip-path:url(#SVGID_00000035520417342516672500000012743378661502077116_);fill:#010202;}
	.st95{clip-path:url(#SVGID_00000182522195012671982530000005754798320761646489_);fill:#010202;}
	.st96{clip-path:url(#SVGID_00000054231024065404658930000004076780853419585709_);fill:#010202;}
	.st97{clip-path:url(#SVGID_00000122689773282847739420000014714441836612759724_);fill:#010202;}
	.st98{clip-path:url(#SVGID_00000111151388677826956570000006885786082897537182_);fill:#FFFFFF;}
	.st99{clip-path:url(#SVGID_00000111151388677826956570000006885786082897537182_);fill:#010202;}
	.st100{clip-path:url(#SVGID_00000009579390526133716990000010802836616553481654_);fill:#010202;}
	.st101{clip-path:url(#SVGID_00000140700741389582921060000015381684436419666345_);fill:#010202;}
	.st102{clip-path:url(#SVGID_00000166660307323960498730000011506193369652514206_);fill:#010202;}
	.st103{clip-path:url(#SVGID_00000166660307323960498730000011506193369652514206_);fill:#FFFFFF;}
	.st104{clip-path:url(#SVGID_00000166660307323960498730000011506193369652514206_);fill:none;stroke:#010202;stroke-width:1.366;}
	
		.st105{clip-path:url(#SVGID_00000052089045529383810070000010992833518702707883_);fill:none;stroke:#010202;stroke-width:4.098;stroke-linecap:round;}
	
		.st106{clip-path:url(#SVGID_00000052089045529383810070000010992833518702707883_);fill:none;stroke:#010202;stroke-width:4.098;stroke-linecap:round;stroke-dasharray:0.945,5.199;}
	
		.st107{clip-path:url(#SVGID_00000052089045529383810070000010992833518702707883_);fill:none;stroke:#010202;stroke-width:4.098;stroke-linecap:round;stroke-dasharray:0,4.154,0,4.154;stroke-dashoffset:4;}
	.st108{clip-path:url(#SVGID_00000119801778379636120990000006139023273736488598_);fill:#010202;}
	.st109{clip-path:url(#SVGID_00000119801778379636120990000006139023273736488598_);fill:none;stroke:#010202;stroke-width:1.366;}
	.st110{clip-path:url(#SVGID_00000119801778379636120990000006139023273736488598_);fill:#FFFFFF;}
	
		.st111{clip-path:url(#SVGID_00000052089045529383810070000010992833518702707883_);fill:none;stroke:#010202;stroke-width:4.098;stroke-linecap:round;stroke-dasharray:0.827,4.527;}
	
		.st112{clip-path:url(#SVGID_00000052089045529383810070000010992833518702707883_);fill:none;stroke:#010202;stroke-width:4.098;stroke-linecap:round;stroke-dasharray:2.000000e-03,3.702,2.000000e-03,3.702;stroke-dashoffset:3;}
	.st113{clip-path:url(#SVGID_00000115511242707059446060000012509483081094992568_);fill:#010202;}
	.st114{clip-path:url(#SVGID_00000115511242707059446060000012509483081094992568_);fill:none;stroke:#010202;stroke-width:1.366;}
	.st115{clip-path:url(#SVGID_00000115511242707059446060000012509483081094992568_);fill:#FFFFFF;}
	
		.st116{clip-path:url(#SVGID_00000052089045529383810070000010992833518702707883_);fill:none;stroke:#010202;stroke-width:4.098;stroke-linecap:round;stroke-dasharray:0.929,5.093;}
	
		.st117{clip-path:url(#SVGID_00000052089045529383810070000010992833518702707883_);fill:none;stroke:#010202;stroke-width:4.098;stroke-linecap:round;stroke-dasharray:4.700000e-02,4.212,4.700000e-02,4.212;stroke-dashoffset:4;}
	.st118{clip-path:url(#SVGID_00000040568948455427897950000000282840376921882008_);fill:#010202;}
	.st119{clip-path:url(#SVGID_00000040568948455427897950000000282840376921882008_);fill:none;stroke:#010202;stroke-width:1.366;}
	.st120{clip-path:url(#SVGID_00000040568948455427897950000000282840376921882008_);fill:#FFFFFF;}
	
		.st121{clip-path:url(#SVGID_00000052089045529383810070000010992833518702707883_);fill:none;stroke:#010202;stroke-width:4.098;stroke-linecap:round;stroke-dasharray:0.875,5.128;}
	
		.st122{clip-path:url(#SVGID_00000052089045529383810070000010992833518702707883_);fill:none;stroke:#010202;stroke-width:4.098;stroke-linecap:round;stroke-dasharray:0,4.125,0,4.125;stroke-dashoffset:4;}
	.st123{clip-path:url(#SVGID_00000028306562162864461840000003309258678758065560_);fill:#010202;}
	.st124{clip-path:url(#SVGID_00000028306562162864461840000003309258678758065560_);fill:none;stroke:#010202;stroke-width:1.366;}
	.st125{clip-path:url(#SVGID_00000028306562162864461840000003309258678758065560_);fill:#FFFFFF;}
	
		.st126{clip-path:url(#SVGID_00000052089045529383810070000010992833518702707883_);fill:none;stroke:#010202;stroke-width:4.098;stroke-linecap:round;stroke-dasharray:0.827,5.081;}
	
		.st127{clip-path:url(#SVGID_00000052089045529383810070000010992833518702707883_);fill:none;stroke:#010202;stroke-width:4.098;stroke-linecap:round;stroke-dasharray:0,4.105,0,4.105;stroke-dashoffset:4;}
	.st128{clip-path:url(#SVGID_00000018921250883213126030000009123203228725090972_);fill:#010202;}
	.st129{clip-path:url(#SVGID_00000018921250883213126030000009123203228725090972_);fill:none;stroke:#010202;stroke-width:1.366;}
	.st130{clip-path:url(#SVGID_00000018921250883213126030000009123203228725090972_);fill:#FFFFFF;}
	
		.st131{clip-path:url(#SVGID_00000052089045529383810070000010992833518702707883_);fill:none;stroke:#010202;stroke-width:4.098;stroke-linecap:round;stroke-dasharray:0.829,5.083;}
	
		.st132{clip-path:url(#SVGID_00000052089045529383810070000010992833518702707883_);fill:none;stroke:#010202;stroke-width:4.098;stroke-linecap:round;stroke-dasharray:0,4.106,0,4.106;stroke-dashoffset:4;}
	.st133{clip-path:url(#SVGID_00000164504722375254156850000003692585807802331828_);fill:#010202;}
	.st134{clip-path:url(#SVGID_00000164504722375254156850000003692585807802331828_);fill:none;stroke:#010202;stroke-width:1.366;}
	.st135{clip-path:url(#SVGID_00000164504722375254156850000003692585807802331828_);fill:#FFFFFF;}
	
		.st136{clip-path:url(#SVGID_00000052089045529383810070000010992833518702707883_);fill:none;stroke:#010202;stroke-width:4.098;stroke-linecap:round;stroke-dasharray:0,3.58;}
	.st137{clip-path:url(#SVGID_00000035496356322955239770000000050805923871173772_);fill:#010202;}
	.st138{clip-path:url(#SVGID_00000035496356322955239770000000050805923871173772_);fill:none;stroke:#010202;stroke-width:1.366;}
	.st139{clip-path:url(#SVGID_00000183957568754833051200000007335281027686594960_);fill:#010202;}
	.st140{clip-path:url(#SVGID_00000160185257162270034560000002238977587048415122_);fill:#010202;}
	.st141{clip-path:url(#SVGID_00000096769922318089803230000004770898721198150530_);}
	.st142{clip-path:url(#SVGID_00000136394454555366056900000008771112542762122168_);fill:#010202;}
	.st143{clip-path:url(#SVGID_00000065755602590587586080000005042954725804642980_);}
	.st144{clip-path:url(#SVGID_00000170959237929069611000000015475463722342614711_);fill:#B4B4B4;}
	.st145{clip-path:url(#SVGID_00000170959237929069611000000015475463722342614711_);}
	.st146{clip-path:url(#SVGID_00000039096102522988644120000007162337121592859818_);fill:#020304;}
	
		.st147{clip-path:url(#SVGID_00000009553787507618848830000018357136248988844200_);fill:none;stroke:#FFFFFF;stroke-width:2.226;stroke-miterlimit:10;}
	
		.st148{clip-path:url(#SVGID_00000009553787507618848830000018357136248988844200_);fill:none;stroke:#000000;stroke-width:0.445;stroke-miterlimit:10;}
	.st149{filter:url(#Adobe_OpacityMaskFilter);}
	.st150{clip-path:url(#SVGID_00000129164552882800634910000006329614761162098851_);}
	
		.st151{clip-path:url(#SVGID_00000129164552882800634910000006329614761162098851_);mask:url(#SVGID_00000065039717299673060800000013695943351494537123_);}
	.st152{opacity:0.55;clip-path:url(#SVGID_00000099642329205680771060000000759636207215077540_);fill:#010202;}
	.st153{clip-path:url(#SVGID_00000170959237929069611000000015475463722342614711_);fill:#FFFFFF;}
	.st154{clip-path:url(#SVGID_00000068664631825989062930000011532306574772532393_);fill:#010202;}
	.st155{clip-path:url(#SVGID_00000170959237929069611000000015475463722342614711_);fill:none;stroke:#010202;stroke-width:0.554;}
	.st156{clip-path:url(#SVGID_00000183931437776497128580000011099494960530683054_);fill:#010202;}
	.st157{filter:url(#Adobe_OpacityMaskFilter_00000049181441460574697400000003354075373607716751_);}
	.st158{clip-path:url(#SVGID_00000034060942347949589980000015222139012400514944_);}
	
		.st159{clip-path:url(#SVGID_00000034060942347949589980000015222139012400514944_);mask:url(#SVGID_00000070085016128282257150000017510113778345328270_);}
	.st160{opacity:0.55;clip-path:url(#SVGID_00000099638845377708909040000017307982096160866973_);fill:#010202;}
	.st161{filter:url(#Adobe_OpacityMaskFilter_00000159462735495840213120000006737677586654335413_);}
	.st162{clip-path:url(#SVGID_00000037690211399629578850000012678686900514130577_);}
	
		.st163{clip-path:url(#SVGID_00000037690211399629578850000012678686900514130577_);mask:url(#SVGID_00000068643867187723766670000015765121573511808128_);}
	.st164{opacity:0.55;clip-path:url(#SVGID_00000121969011855531275480000000439367142965474444_);fill:#010202;}
	.st165{clip-path:url(#SVGID_00000061448356745240854310000000445207529124786052_);fill:#010202;}
	.st166{clip-path:url(#SVGID_00000045612899038493116800000002039858569114660263_);fill:none;stroke:#010202;stroke-width:0.554;}
	.st167{clip-path:url(#SVGID_00000045612899038493116800000002039858569114660263_);fill:#010202;}
	.st168{filter:url(#Adobe_OpacityMaskFilter_00000000938985094513690800000008101519408073885061_);}
	.st169{clip-path:url(#SVGID_00000045612899038493116800000002039858569114660263_);}
	
		.st170{clip-path:url(#SVGID_00000045612899038493116800000002039858569114660263_);mask:url(#SVGID_00000136397252501091140480000014035303940595996060_);}
	.st171{opacity:0.55;clip-path:url(#SVGID_00000156561158433599303390000002546358511894315181_);fill:#010202;}
	.st172{filter:url(#Adobe_OpacityMaskFilter_00000129922199289529496060000012777572077547122833_);}
	.st173{clip-path:url(#SVGID_00000053546812901416854880000010563658446835920034_);}
	
		.st174{clip-path:url(#SVGID_00000053546812901416854880000010563658446835920034_);mask:url(#SVGID_00000057852872299624969010000010441957782381034943_);}
	.st175{opacity:0.55;clip-path:url(#SVGID_00000044896468798168004480000005362256508861718425_);fill:#010202;}
	.st176{clip-path:url(#SVGID_00000029767567925671295170000006360786811240154253_);fill:#010202;}
	.st177{clip-path:url(#SVGID_00000169516168055745570270000012358380583283703199_);fill:#010202;}
	.st178{filter:url(#Adobe_OpacityMaskFilter_00000163772606550441849590000000273345123245460357_);}
	.st179{clip-path:url(#SVGID_00000169516168055745570270000012358380583283703199_);}
	
		.st180{clip-path:url(#SVGID_00000169516168055745570270000012358380583283703199_);mask:url(#SVGID_00000074435461346102092130000008136179604182307262_);}
	.st181{opacity:0.55;clip-path:url(#SVGID_00000012468559854589180080000012426398605266510770_);fill:#010202;}
	.st182{clip-path:url(#SVGID_00000007417394152162864770000002208432054222894215_);}
	.st183{clip-path:url(#SVGID_00000156562183379390918820000001826616104906743477_);}
	.st184{clip-path:url(#SVGID_00000071529659185989778740000006774513372227324808_);fill:#010202;}
	
		.st185{clip-path:url(#SVGID_00000071529659185989778740000006774513372227324808_);fill:none;stroke:#010202;stroke-width:11.817;stroke-linejoin:round;}
	.st186{clip-path:url(#SVGID_00000071529659185989778740000006774513372227324808_);fill:#FFFFFF;}
	.st187{clip-path:url(#SVGID_00000071529659185989778740000006774513372227324808_);fill:none;stroke:#010202;stroke-width:1.972;}
	.st188{clip-path:url(#SVGID_00000071529659185989778740000006774513372227324808_);fill:none;stroke:#010202;stroke-width:42.229;}
	.st189{clip-path:url(#SVGID_00000071529659185989778740000006774513372227324808_);fill:none;stroke:#FFFFFF;stroke-width:2.016;}
	.st190{clip-path:url(#SVGID_00000183961869517952366910000012425401080743105166_);fill:#010202;}
	.st191{clip-path:url(#SVGID_00000183961869517952366910000012425401080743105166_);fill:#FFFFFF;}
	.st192{clip-path:url(#SVGID_00000180332939657117536310000012474024210637028526_);fill:#010202;}
	.st193{clip-path:url(#SVGID_00000180332939657117536310000012474024210637028526_);fill:none;stroke:#010202;stroke-width:22.467;}
	.st194{clip-path:url(#SVGID_00000180332939657117536310000012474024210637028526_);fill:none;stroke:#FFFFFF;stroke-width:1.925;}
	.st195{clip-path:url(#SVGID_00000180332939657117536310000012474024210637028526_);fill:#FFFFFF;}
	.st196{clip-path:url(#SVGID_00000180332939657117536310000012474024210637028526_);fill:none;stroke:#010202;stroke-width:2.069;}
	.st197{clip-path:url(#SVGID_00000180332939657117536310000012474024210637028526_);fill:none;stroke:#010202;stroke-width:1.925;}
	
		.st198{clip-path:url(#SVGID_00000180332939657117536310000012474024210637028526_);fill:none;stroke:#010202;stroke-width:28.328;stroke-miterlimit:10;}
	
		.st199{clip-path:url(#SVGID_00000180332939657117536310000012474024210637028526_);fill:none;stroke:#FFFFFF;stroke-width:2.071;stroke-miterlimit:10;}
	.st200{clip-path:url(#SVGID_00000180332939657117536310000012474024210637028526_);fill:none;stroke:#010202;stroke-width:1.348;}
	.st201{clip-path:url(#SVGID_00000094579711117928599270000001172083351296703374_);fill:#FFFFFF;}
	.st202{clip-path:url(#SVGID_00000013177170811121232470000018015802294870677167_);fill:#010202;}
	.st203{clip-path:url(#SVGID_00000026132908047499410520000007604849751911087751_);fill:#FFFFFF;}
	.st204{clip-path:url(#SVGID_00000026132908047499410520000007604849751911087751_);fill:none;stroke:#010202;stroke-width:2.117;}
	.st205{clip-path:url(#SVGID_00000026132908047499410520000007604849751911087751_);fill:#010202;}
	.st206{clip-path:url(#SVGID_00000026132908047499410520000007604849751911087751_);fill:none;stroke:#010202;stroke-width:1.925;}
	
		.st207{clip-path:url(#SVGID_00000149360870637013448900000014686106882195472567_);fill:url(#SVGID_00000127762117565867975430000006426058600891245444_);}
	.st208{clip-path:url(#SVGID_00000034054743971646225850000010461607072453099703_);fill:none;stroke:#010202;stroke-width:3.268;}
	
		.st209{clip-path:url(#SVGID_00000108991475669676785230000007094232037982960026_);fill:url(#SVGID_00000138552471975988109410000004592119772908177315_);}
	.st210{clip-path:url(#SVGID_00000145740883277691745460000012128428023345365433_);fill:none;stroke:#010202;stroke-width:1.925;}
	
		.st211{clip-path:url(#SVGID_00000108283189005320903690000010410445692578472076_);fill:url(#SVGID_00000098933615403258418150000014956228462764443318_);}
	.st212{clip-path:url(#SVGID_00000176749267442631834160000017984387799219741355_);fill:none;stroke:#010202;stroke-width:1.925;}
	.st213{filter:url(#Adobe_OpacityMaskFilter_00000092438957884636366170000009592854552463698859_);}
	.st214{clip-path:url(#SVGID_00000068635098291802810620000010248449977238339473_);}
	
		.st215{clip-path:url(#SVGID_00000125586583970625977310000007632218193184448404_);fill:url(#SVGID_00000121993729764945634040000003634472554283477400_);}
	
		.st216{clip-path:url(#SVGID_00000068635098291802810620000010248449977238339473_);mask:url(#SVGID_00000021824976479187404130000013135934892905832114_);fill:url(#SVGID_00000106105468181997451120000001225170659975508651_);}
	.st217{clip-path:url(#SVGID_00000101804224180733037350000006583835160155511478_);fill:none;stroke:#010202;stroke-width:1.925;}
	.st218{clip-path:url(#SVGID_00000154407373543447606300000008720445535961555102_);fill:#010202;}
	.st219{clip-path:url(#SVGID_00000140698642600021018130000017458321913725184138_);fill:#010202;}
	.st220{clip-path:url(#SVGID_00000140698642600021018130000017458321913725184138_);fill:none;stroke:#010202;stroke-width:30.169;}
	.st221{clip-path:url(#SVGID_00000140698642600021018130000017458321913725184138_);fill:none;stroke:#FFFFFF;stroke-width:2.857;}
	.st222{clip-path:url(#SVGID_00000140698642600021018130000017458321913725184138_);fill:#FFFFFF;}
	.st223{clip-path:url(#SVGID_00000140698642600021018130000017458321913725184138_);fill:none;stroke:#010202;stroke-width:3.693;}
	.st224{clip-path:url(#SVGID_00000047024442602929656010000010544302685232398760_);}
	.st225{clip-path:url(#SVGID_00000163755071612105024890000013891477227750268833_);fill:#010202;}
	.st226{clip-path:url(#SVGID_00000047024442602929656010000010544302685232398760_);fill:none;stroke:#010202;stroke-width:1.105;}
	.st227{clip-path:url(#SVGID_00000080176497563311091450000013334981387477186709_);fill:#010202;}
	.st228{clip-path:url(#SVGID_00000016070964857308781700000001138665765046379937_);fill:#010202;}
	.st229{clip-path:url(#SVGID_00000076592859195425406180000001848761993614467474_);fill:#010202;}
	.st230{clip-path:url(#SVGID_00000176738559976256374300000009682761070009034914_);fill:#010202;}
	.st231{clip-path:url(#SVGID_00000032636077434572064330000007846202936307692710_);fill:#010202;}
	.st232{clip-path:url(#SVGID_00000050635310842609194610000004859940570511816347_);fill:#010202;}
	.st233{clip-path:url(#SVGID_00000050635310842609194610000004859940570511816347_);}
	.st234{clip-path:url(#SVGID_00000170975847371545306590000004317706892855152002_);fill:#FFFFFF;}
	.st235{clip-path:url(#SVGID_00000009548430223874345360000014293107996115687553_);fill:#010202;}
	.st236{clip-path:url(#SVGID_00000009548430223874345360000014293107996115687553_);}
	.st237{clip-path:url(#SVGID_00000048488779589975411550000005027710405104205989_);fill:#FFFFFF;}
	.st238{clip-path:url(#SVGID_00000009548430223874345360000014293107996115687553_);fill:#FFFFFF;}
	.st239{clip-path:url(#SVGID_00000009548430223874345360000014293107996115687553_);fill:none;stroke:#010202;stroke-width:14.314;}
	.st240{clip-path:url(#SVGID_00000002348748236204651730000007952257947308412326_);fill:#010202;}
	.st241{clip-path:url(#SVGID_00000002348748236204651730000007952257947308412326_);}
	.st242{clip-path:url(#SVGID_00000174586256959968222890000000739388228931337113_);fill:#FFFFFF;}
	.st243{clip-path:url(#SVGID_00000002348748236204651730000007952257947308412326_);fill:#FFFFFF;}
	.st244{clip-path:url(#SVGID_00000019641561296129410570000014510467548565581698_);fill:#FFFFFF;}
	.st245{clip-path:url(#SVGID_00000176725828433362158910000013680045370614927293_);fill:#010202;}
	.st246{clip-path:url(#SVGID_00000176725828433362158910000013680045370614927293_);}
	.st247{clip-path:url(#SVGID_00000039110141823649456190000001354112894775224988_);fill:#010202;}
	.st248{clip-path:url(#SVGID_00000170258475557750504830000001777116591980008377_);fill:#FFFFFF;}
	.st249{clip-path:url(#SVGID_00000170258475557750504830000001777116591980008377_);fill:#010202;}
	.st250{clip-path:url(#SVGID_00000176725828433362158910000013680045370614927293_);fill:#FFFFFF;}
	.st251{clip-path:url(#SVGID_00000153664221189701176550000018130694732949385618_);fill:#FFFFFF;}
	.st252{clip-path:url(#SVGID_00000153664221189701176550000018130694732949385618_);fill:#010202;}
	.st253{clip-path:url(#SVGID_00000153670625779025575580000002919217020384702908_);fill:#010202;}
	.st254{clip-path:url(#SVGID_00000153670625779025575580000002919217020384702908_);fill:#FFFFFF;}
	.st255{clip-path:url(#SVGID_00000058585365861046362370000006180397174522804374_);fill:#FFFFFF;}
	.st256{clip-path:url(#SVGID_00000087382857898071748960000008905899695379449225_);fill:#010202;}
	.st257{clip-path:url(#SVGID_00000087382857898071748960000008905899695379449225_);}
	.st258{clip-path:url(#SVGID_00000103260736498130004970000009243644246122098058_);fill:#B4B4B4;}
	.st259{clip-path:url(#SVGID_00000103260736498130004970000009243644246122098058_);fill:#FFFFFF;}
	.st260{clip-path:url(#SVGID_00000087382857898071748960000008905899695379449225_);fill:#FFFFFF;}
	.st261{clip-path:url(#SVGID_00000093136831101121972520000009810108065329672883_);fill:#B4B4B4;}
	.st262{clip-path:url(#SVGID_00000093136831101121972520000009810108065329672883_);fill:#FFFFFF;}
	.st263{clip-path:url(#SVGID_00000031200990738443924960000013105274297635242156_);}
	.st264{clip-path:url(#SVGID_00000103266996627052430460000011958004048044790711_);fill:#010202;}
	.st265{clip-path:url(#SVGID_00000080185258374795210730000017878415693722263694_);fill:#010202;}
	.st266{clip-path:url(#SVGID_00000080185258374795210730000017878415693722263694_);}
	.st267{clip-path:url(#SVGID_00000175318521286469352830000005187521820648225687_);fill:#B4B4B4;}
	.st268{clip-path:url(#SVGID_00000080185258374795210730000017878415693722263694_);fill:#B4B4B4;}
	.st269{clip-path:url(#SVGID_00000104706744861778085480000006404997648839598737_);fill:#B4B4B4;}
	.st270{clip-path:url(#SVGID_00000179632593874710266650000012178244260242252725_);fill:#B4B4B4;}
	.st271{clip-path:url(#SVGID_00000139289003631773342980000018214267648758084284_);fill:#FFFFFF;}
	.st272{clip-path:url(#SVGID_00000080185258374795210730000017878415693722263694_);fill:#FFFFFF;}
	.st273{clip-path:url(#SVGID_00000109028046495689603380000004687799262650974633_);fill:#010202;}
	.st274{clip-path:url(#SVGID_00000042732150930273339650000010439968808850159029_);fill:#010202;}
	.st275{clip-path:url(#SVGID_00000042732150930273339650000010439968808850159029_);}
	.st276{clip-path:url(#SVGID_00000168097183705751108250000008011408558793256844_);fill:#FFFFFF;}
</style>
<g>
	<g>
		<defs>
			<rect id="SVGID_00000055697451116275044320000008915861481089978758_" width="700" height="1200"/>
		</defs>
		<clipPath id="SVGID_00000160166666174821947430000013384050605627816360_">
			<use xlink:href="#SVGID_00000055697451116275044320000008915861481089978758_"  style="overflow:visible;"/>
		</clipPath>
		
			<rect style="clip-path:url(#SVGID_00000160166666174821947430000013384050605627816360_);fill:#010202;" width="700" height="1200"/>
		<g style="clip-path:url(#SVGID_00000160166666174821947430000013384050605627816360_);">
			<defs>
				<rect id="SVGID_00000006694263763939619540000008827738641692579464_" width="700" height="1200"/>
			</defs>
			<clipPath id="SVGID_00000175312664332020034180000012384671350290700451_">
				<use xlink:href="#SVGID_00000006694263763939619540000008827738641692579464_"  style="overflow:visible;"/>
			</clipPath>
			<path style="clip-path:url(#SVGID_00000175312664332020034180000012384671350290700451_);fill:#FFFFFF;" d="M638.8,841.6v-27
				c0-1.2,1-2.2,2.2-2.2l2.5,0.6v-1.6c0-2.9-1-5.5-2.6-7.7c-0.8-1.1-3-3.1-3.3-2.8c-2.6,2.6-2.8,7.6-3.6,6.8
				c-0.8-0.8,0.7-3.5,3.3-6.1c0.2-0.2,0.3-0.6,0.5-0.8c-1.3-2.6-2.2-3.2-3.6-4.2l-5.6,2l1.2,3.8c0,0.9-0.8,1.7-1.7,1.7h-547
				c-0.9,0-1.7-0.8-1.7-1.7l1.2-3.8l-3.3-4.4c-2.7,0-4,5.2-6,6.7c0.2,0.2,0.4,0.4,0.6,0.6c2.6,2.6,4.1,5.4,3.3,6.1
				c-0.8,0.8-3.5-0.7-6.1-3.3c-0.2-0.2-0.5-0.5-0.7-0.7c-1.6,2.1-6.4,2.7-6.4,5.6L66,813l2.5-0.6c1.2,0,2.2,1,2.2,2.2v27v3.7v27
				c0,1.2-1,2.2-2.2,2.2l-2.5-0.6l-1.3,4.9c1.2,1.4,2.2,2.7,3.9,4.4c0.2-0.2,0.4-0.5,0.7-0.7c2.6-2.6,5.4-4.1,6.1-3.3
				c0.8,0.8-4.2,1.4-6.8,4c-0.2,0.2,2.6,2.4,3.2,2.8c2.1,1.4,4.3,2.3,7,2.3h2l-1.2-3.8c0-0.9,0.8-1.7,1.7-1.7h547
				c0.9,0-1.9,1.3-3.2,1.9l3.7,3.6h2c2.7,0,5.2-0.8,7.2-2.3c-0.2-0.2-0.4-0.4-0.6-0.6c-2.6-2.6-4.1-5.4-3.3-6.1
				c0.8-0.8,3.5,0.7,6.1,3.3c0.2,0.2,0.5,0.5,0.7,0.7c1.6-2.1,2.6-4.8,2.6-7.7v-1.6l-3.4-4.5c-1.1,0.4-1.4,4.2-1.4,2.9v-27V841.6z"
				/>
			
				<path style="clip-path:url(#SVGID_00000175312664332020034180000012384671350290700451_);fill:none;stroke:#FFFFFF;stroke-width:2.098;stroke-miterlimit:10;" d="
				M638.8,841.6v-27c0-1.2,1-2.2,2.2-2.2l2.5,0.6v-1.6c0-2.9-1-5.5-2.6-7.7c-0.8-1.1-3-3.1-3.3-2.8c-2.6,2.6-2.8,7.6-3.6,6.8
				c-0.8-0.8,0.7-3.5,3.3-6.1c0.2-0.2,0.3-0.6,0.5-0.8c-1.3-2.6-2.2-3.2-3.6-4.2l-5.6,2l1.2,3.8c0,0.9-0.8,1.7-1.7,1.7h-547
				c-0.9,0-1.7-0.8-1.7-1.7l1.2-3.8l-3.3-4.4c-2.7,0-4,5.2-6,6.7c0.2,0.2,0.4,0.4,0.6,0.6c2.6,2.6,4.1,5.4,3.3,6.1
				c-0.8,0.8-3.5-0.7-6.1-3.3c-0.2-0.2-0.5-0.5-0.7-0.7c-1.6,2.1-6.4,2.7-6.4,5.6L66,813l2.5-0.6c1.2,0,2.2,1,2.2,2.2v27v3.7v27
				c0,1.2-1,2.2-2.2,2.2l-2.5-0.6l-1.3,4.9c1.2,1.4,2.2,2.7,3.9,4.4c0.2-0.2,0.4-0.5,0.7-0.7c2.6-2.6,5.4-4.1,6.1-3.3
				c0.8,0.8-4.2,1.4-6.8,4c-0.2,0.2,2.6,2.4,3.2,2.8c2.1,1.4,4.3,2.3,7,2.3h2l-1.2-3.8c0-0.9,0.8-1.7,1.7-1.7h547
				c0.9,0-1.9,1.3-3.2,1.9l3.7,3.6h2c2.7,0,5.2-0.8,7.2-2.3c-0.2-0.2-0.4-0.4-0.6-0.6c-2.6-2.6-4.1-5.4-3.3-6.1
				c0.8-0.8,3.5,0.7,6.1,3.3c0.2,0.2,0.5,0.5,0.7,0.7c1.6-2.1,2.6-4.8,2.6-7.7v-1.6l-3.4-4.5c-1.1,0.4-1.4,4.2-1.4,2.9v-27V841.6z"
				/>
		</g>
		
			<rect x="71.5" y="803.3" style="clip-path:url(#SVGID_00000160166666174821947430000013384050605627816360_);fill:#FFFFFF;" width="558.7" height="71.5"/>
		
			<rect x="71.5" y="803.3" style="clip-path:url(#SVGID_00000160166666174821947430000013384050605627816360_);fill:none;stroke:#FFFFFF;stroke-width:2.098;stroke-miterlimit:10;" width="558.7" height="71.5"/>
		<g style="clip-path:url(#SVGID_00000160166666174821947430000013384050605627816360_);">
			<defs>
				<rect id="SVGID_00000043446888591795244380000015549057738723277244_" width="700" height="1200"/>
			</defs>
			<clipPath id="SVGID_00000130619849879343114290000014624591218072807596_">
				<use xlink:href="#SVGID_00000043446888591795244380000015549057738723277244_"  style="overflow:visible;"/>
			</clipPath>
			<path style="clip-path:url(#SVGID_00000130619849879343114290000014624591218072807596_);fill:#010202;" d="M625.9,836.3v5.4V865
				c-3.8-2.4-6.8-3.2-7.9-2.1c-1.1,1.1-0.3,3.8,1.8,7.4H171.2h-31.4H82c2.1-3.6,2.9-6.3,1.8-7.4c-1.1-1.1-4.1-0.3-7.9,2.1v-16.2
				v-19.6V813c3.8,2.3,6.8,3.2,7.9,2.1c1.1-1.1,0.3-3.8-1.8-7.4h107.5h27.1h403.1c-2.1,3.6-2.9,6.3-1.8,7.4c1.1,1.1,4.1,0.3,7.9-2.1
				V836.3z M634.9,837.2v-27c0-1.2,1-2.2,2.2-2.2l2.5,0.6V807c0-2.9-1-5.5-2.6-7.7c-0.2,0.2-0.4,0.5-0.7,0.7
				c-2.6,2.6-5.4,4.1-6.1,3.3c-0.8-0.8,0.7-3.5,3.3-6.1c0.2-0.2,0.4-0.4,0.6-0.6c-2.1-1.4-4.6-2.3-7.2-2.3h-2l1.2,3.8
				c0,0.9-0.8,1.7-1.7,1.7h-547c-0.9,0-1.7-0.8-1.7-1.7l1.2-3.8h-2c-2.7,0-5.2,0.8-7.2,2.3c0.2,0.2,0.4,0.4,0.6,0.6
				c2.6,2.6,4.1,5.4,3.3,6.1c-0.8,0.8-3.5-0.7-6.1-3.3c-0.2-0.2-0.5-0.5-0.7-0.7c-1.6,2.1-2.6,4.8-2.6,7.7v1.6l2.5-0.6
				c1.2,0,2.2,1,2.2,2.2v27v3.7v27c0,1.2-1,2.2-2.2,2.2l-2.5-0.6v1.6c0,2.9,1,5.5,2.6,7.7c0.2-0.2,0.4-0.5,0.7-0.7
				c2.6-2.6,5.4-4.1,6.1-3.3c0.8,0.8-0.7,3.5-3.3,6.1c-0.2,0.2-0.4,0.4-0.6,0.6c2.1,1.4,4.5,2.3,7.2,2.3h2l-1.2-3.8
				c0-0.9,0.8-1.7,1.7-1.7h547c0.9,0,1.7,0.8,1.7,1.7l-1.2,3.8h2c2.7,0,5.2-0.8,7.2-2.3c-0.2-0.2-0.4-0.4-0.6-0.6
				c-2.6-2.6-4.1-5.4-3.3-6.1c0.8-0.8,3.5,0.7,6.1,3.3c0.2,0.2,0.5,0.5,0.7,0.7c1.6-2.1,2.6-4.8,2.6-7.7v-1.6l-2.5,0.6
				c-1.2,0-2.2-1-2.2-2.2v-27V837.2z"/>
			
				<path style="clip-path:url(#SVGID_00000130619849879343114290000014624591218072807596_);fill:none;stroke:#FFFFFF;stroke-width:2.098;stroke-miterlimit:10;" d="
				M625.9,836.3v5.4V865c-3.8-2.4-6.8-3.2-7.9-2.1c-1.1,1.1-0.3,3.8,1.8,7.4H171.2h-31.4H82c2.1-3.6,2.9-6.3,1.8-7.4
				c-1.1-1.1-4.1-0.3-7.9,2.1v-16.2v-19.6V813c3.8,2.3,6.8,3.2,7.9,2.1c1.1-1.1,0.3-3.8-1.8-7.4h107.5h27.1h403.1
				c-2.1,3.6-2.9,6.3-1.8,7.4c1.1,1.1,4.1,0.3,7.9-2.1V836.3z M634.9,837.2v-27c0-1.2,1-2.2,2.2-2.2l2.5,0.6V807
				c0-2.9-1-5.5-2.6-7.7c-0.2,0.2-0.4,0.5-0.7,0.7c-2.6,2.6-5.4,4.1-6.1,3.3c-0.8-0.8,0.7-3.5,3.3-6.1c0.2-0.2,0.4-0.4,0.6-0.6
				c-2.1-1.4-4.6-2.3-7.2-2.3h-2l1.2,3.8c0,0.9-0.8,1.7-1.7,1.7h-547c-0.9,0-1.7-0.8-1.7-1.7l1.2-3.8h-2c-2.7,0-5.2,0.8-7.2,2.3
				c0.2,0.2,0.4,0.4,0.6,0.6c2.6,2.6,4.1,5.4,3.3,6.1c-0.8,0.8-3.5-0.7-6.1-3.3c-0.2-0.2-0.5-0.5-0.7-0.7c-1.6,2.1-2.6,4.8-2.6,7.7
				v1.6l2.5-0.6c1.2,0,2.2,1,2.2,2.2v27v3.7v27c0,1.2-1,2.2-2.2,2.2l-2.5-0.6v1.6c0,2.9,1,5.5,2.6,7.7c0.2-0.2,0.4-0.5,0.7-0.7
				c2.6-2.6,5.4-4.1,6.1-3.3c0.8,0.8-0.7,3.5-3.3,6.1c-0.2,0.2-0.4,0.4-0.6,0.6c2.1,1.4,4.5,2.3,7.2,2.3h2l-1.2-3.8
				c0-0.9,0.8-1.7,1.7-1.7h547c0.9,0,1.7,0.8,1.7,1.7l-1.2,3.8h2c2.7,0,5.2-0.8,7.2-2.3c-0.2-0.2-0.4-0.4-0.6-0.6
				c-2.6-2.6-4.1-5.4-3.3-6.1c0.8-0.8,3.5,0.7,6.1,3.3c0.2,0.2,0.5,0.5,0.7,0.7c1.6-2.1,2.6-4.8,2.6-7.7v-1.6l-2.5,0.6
				c-1.2,0-2.2-1-2.2-2.2v-27V837.2z"/>
			<path style="clip-path:url(#SVGID_00000130619849879343114290000014624591218072807596_);fill:#010202;" d="M625.9,836.3v5.4V865
				c-3.8-2.4-6.8-3.2-7.9-2.1c-1.1,1.1-0.3,3.8,1.8,7.4H171.2h-31.4H88.4H82c1.8-3,2.6-5.5,2.1-6.8c-0.1-0.2-0.2-0.4-0.4-0.6
				c-0.7-0.7-2-0.5-3.5-0.1l0.1-45.2c3.8,2.4,6.8,3.2,7.9,2.1c1.1-1.1,0.3-3.8-1.8-7.4c0,0,531.3-0.9,531.1,0.4
				c-0.2,1.1-0.1,1.9,0.4,2.4c1.1,1.1,4.1,0.3,7.9-2.1V836.3z"/>
			
				<path style="clip-path:url(#SVGID_00000130619849879343114290000014624591218072807596_);fill:none;stroke:#FFFFFF;stroke-width:2.098;stroke-miterlimit:10;" d="
				M625.9,836.3v5.4V865c-3.8-2.4-6.8-3.2-7.9-2.1c-1.1,1.1-0.3,3.8,1.8,7.4H171.2h-31.4H88.4H82c1.8-3,2.6-5.5,2.1-6.8
				c-0.1-0.2-0.2-0.4-0.4-0.6c-0.7-0.7-2-0.5-3.5-0.1l0.1-45.2c3.8,2.4,6.8,3.2,7.9,2.1c1.1-1.1,0.3-3.8-1.8-7.4
				c0,0,531.3-0.9,531.1,0.4c-0.2,1.1-0.1,1.9,0.4,2.4c1.1,1.1,4.1,0.3,7.9-2.1V836.3z"/>
			<path style="clip-path:url(#SVGID_00000130619849879343114290000014624591218072807596_);fill:#FFFFFF;" d="M85,862.6
				c1.6,2.2,5.2,7.3,5.2,7.3s-6.3-0.3-7.1,0.2C82.2,870.6,84.7,867.3,85,862.6"/>
			<path style="clip-path:url(#SVGID_00000130619849879343114290000014624591218072807596_);fill:#FFFFFF;" d="M618.1,816.5
				c2.2,1.6,7.3,5,7.3,5s-0.3-6.3,0.2-7.1L618.1,816.5z"/>
			<path style="clip-path:url(#SVGID_00000130619849879343114290000014624591218072807596_);fill:#FFFFFF;" d="M584.3,841.6v0.5
				c5,2.4,8.1,4.1,12.9,7.6l0.4-0.5c-4-3.7-3.4-6.3-0.5-6.3c1.9,0,5.6,1,7.4,5.2l9.6,0.4l0.3-0.5c-6-1.9-7-4.4-7-6.2
				c0-1.8,1-4.3,7-6.2l-0.3-0.5l-9.6,0.4c-1.8,4.2-5.5,5.2-7.4,5.2c-2.9,0-3.5-2.6,0.5-6.3l-0.4-0.5
				C592.4,837.5,589.2,839.3,584.3,841.6 M551.6,854h14.1c3,0,4.3,0,5.1,0.3c0.3-1.8,0.3-3.7,0-5.6h-0.3c-0.5,1.1-1.7,1.8-4.7,1.8
				h-7.9l2.4-2.3c6.9-6.7,9.3-9.1,9.3-13c0-3.6-2.9-5.7-7.2-5.7c-4.9,0-8.2,2.9-9.9,8.4l0.5,0.3c1.9-3.1,4.9-5,8-5
				c2.6,0,4.1,1.4,4.1,3.7c0,2.5-1.6,5.2-7.2,10.7l-6.3,6.2L551.6,854z M528.4,854h14.1c3,0,4.3,0,5.1,0.3c0.3-1.8,0.3-3.7,0-5.6
				h-0.3c-0.5,1.1-1.7,1.8-4.7,1.8h-7.9l2.4-2.3c6.9-6.7,9.3-9.1,9.3-13c0-3.6-2.9-5.7-7.2-5.7c-4.9,0-8.2,2.9-9.9,8.4l0.5,0.3
				c1.9-3.1,4.9-5,8-5c2.6,0,4.1,1.4,4.1,3.7c0,2.5-1.6,5.2-7.2,10.7l-6.3,6.2L528.4,854z M505.9,842.1c0-5.5,2.7-9,8.1-9
				c5.5,0,8.1,3.5,8.1,9c0,5.7-3.3,9-8.1,9C509.2,851.1,505.9,847.8,505.9,842.1 M514,854.9c8,0,11-6.2,11-12.8
				c0-6.6-3.8-12.8-11.1-12.8c-7.3,0-11,6.2-11,12.8C503,848.7,506,854.8,514,854.9 M479.2,854h14.1c3,0,4.3,0,5.1,0.3
				c0.3-1.8,0.3-3.7,0-5.6h-0.3c-0.5,1.1-1.7,1.8-4.7,1.8h-7.9l2.4-2.3c6.9-6.7,9.3-9.1,9.3-13c0-3.6-2.9-5.7-7.2-5.7
				c-4.9,0-8.2,2.9-9.9,8.4l0.5,0.3c1.9-3.1,4.9-5,8-5c2.6,0,4.1,1.4,4.1,3.7c0,2.5-1.6,5.2-7.2,10.7l-6.3,6.2L479.2,854z
				 M452.7,853.4l0,0.5h9.6v-2.2h-0.4c-1.7,0-2.5-0.6-2.5-3.3v-10.9c1.5-1.7,3.7-2.9,5.5-2.9c2.6,0,4.1,1.1,4.1,4.7v7.2
				c0,4.9-0.8,5.7-3,6.8l0,0.5h9.6v-2.2h-0.4c-1.7,0-2.5-0.6-2.5-3.3v-11c0-4.3-2.2-6.3-5.5-6.3c-2.6,0-5.8,1.7-8.1,4
				c-0.7-2.7-2.6-4-5.3-4c-2.6,0-5.9,1.8-8.2,4.1V831l-7,3.7l0.1,0.5l1.1-0.1c1.3-0.1,2,0.5,2,1.9v10.7c0,3.2-1.3,4.9-3.7,5.7l0,0.5
				h10.8v-2.3h-0.8c-1.7,0-2.6-1-2.6-3.4V838c1.5-1.9,3.9-3.3,5.8-3.3c2.6,0,4.1,1.1,4.1,4.7v7.2
				C455.6,851.4,454.8,852.3,452.7,853.4 M428.7,855c3.2,0,5.7-1.7,7.1-5.2l-0.2-0.2c-1.1,1.2-2.8,2-4.6,2c-2.4,0-3.6-1.2-3.6-4
				v-12.7h8.2v-2.7l-8.2,0v-6.9l-0.5,0l-3.3,6.9l-4.4,2.3v0.5h4.4v13.8C423.6,852.9,425.6,855,428.7,855 M404.2,854.5
				c0.2,2.3-0.8,4.7-3.1,6.6l0.2,0.5c4.2-1,6.8-4.5,6.8-9.1c0-2.6-1.6-4.1-3.6-4.1c-2,0-3.2,1.2-3.2,3.2
				C401.3,853.5,402.5,854.5,404.2,854.5 M397,824.7l0.2,0.8c0,0.1-0.1,0.1-0.1,0.1l-0.6-0.7c-0.1-0.1-0.2-0.3-0.2-0.4l-0.1-0.1
				l-1.3-0.5l-0.1,0.1l0.8,1.1l0.1,0.1c0.2,0,0.4,0.1,0.5,0.2l0.7,0.4c0.1,0,0.1,0.1,0,0.1l-0.8,0c-0.2,0-0.4,0-0.5-0.1l-0.1,0
				l-1.2,0.8l0,0.1l1.4,0.1l0.1,0c0.1-0.1,0.3-0.2,0.4-0.3l0.7-0.3c0.1,0,0.2,0,0.1,0.1l-0.5,0.7c-0.1,0.1-0.2,0.2-0.4,0.3l-0.1,0.1
				l-0.2,1.4l0.1,0.1l1-1l0.1-0.1c0-0.2,0-0.3,0-0.6l0.2-0.7c0-0.1,0.1-0.1,0.1,0l0.2,0.7c0,0.2,0.1,0.4,0,0.6l0.1,0.1l0.9,1h0
				l0.1-0.1l-0.2-1.4l-0.1-0.1c-0.1-0.1-0.3-0.2-0.4-0.3l-0.5-0.6c-0.1-0.1,0-0.2,0.1-0.1l0.8,0.4c0.1,0.1,0.3,0.2,0.4,0.3l0.1,0
				l1.4-0.1l0-0.1l-1.2-0.7l-0.1,0c-0.2,0.1-0.3,0.1-0.5,0.1l-0.8,0c-0.1,0-0.1-0.1,0-0.2l0.8-0.4c0.2-0.1,0.3-0.1,0.4-0.1l0.1-0.1
				l0.7-1.1l-0.1-0.1l-1.3,0.5l-0.1,0.1c-0.1,0.2-0.2,0.4-0.3,0.5l-0.5,0.6c-0.1,0.1-0.1,0-0.1-0.1l0.2-0.8c0-0.2,0.1-0.3,0.2-0.5
				l0-0.1l-0.4-1.3h-0.2l-0.4,1.3l0,0.1C396.9,824.3,397,824.5,397,824.7 M384.2,853.4l0,0.5h9.6v-2.2h-0.4c-1.7,0-2.5-0.6-2.5-3.3
				v-11c0-4.3-2.2-6.3-5.5-6.3c-2.6,0-5.9,1.8-8.2,4.1V831l-7,3.7l0.1,0.5l1.1-0.1c1.3-0.1,2,0.5,2,1.9v10.7c0,3.2-1.3,4.9-3.7,5.7
				l0,0.5h10.8v-2.3h-0.8c-1.7,0-2.6-1-2.6-3.4V838c1.5-1.9,3.9-3.3,5.8-3.3c2.6,0,4.1,1.1,4.1,4.7v7.2
				C387.2,851.4,386.4,852.3,384.2,853.4 M352.4,853.4l0,0.5h12.9v-2.2h-2.9c-1.7,0-2.6-1.2-2.6-3.7v-10.6c0.9-1,2.1-1.7,3.5-1.7
				c1.6,0,2.6,0.9,2.9,2.3h0.5c0.4-2.2,0.5-4.5-0.1-6.8c-2.6,0.2-5.2,2-6.7,4V831l-7,3.7l0.1,0.5l1.1-0.1c1.3-0.1,2,0.5,2,1.9v10.7
				C356,850.9,354.7,852.6,352.4,853.4 M333.4,843.3c0-6.5,2.9-9.8,6.3-9.7c2.9,0,5.9,2.5,5.9,9.2c0,6.5-3,9.8-6.3,9.7
				C336.4,852.4,333.4,850,333.4,843.3 M338.5,854.9c6.7,0,11.3-5.4,11.3-12.9c0-6.5-3.7-10.8-9.4-10.8c-6.1,0-11.3,5-11.3,12.9
				C329.1,851,332.7,854.9,338.5,854.9 M323.6,854.2c1-3,1.6-6.6,1.7-10.7l-0.5-0.1c-2,5.6-5.2,7.6-12,7.9l-7.3,0.3l14.6-21.3
				c1.3-1.9,3.2-4.3,4.4-5.3l-0.1-0.7h-10.6c-6,0-11-0.1-13.7-0.3c-0.6,3.2-0.8,6-0.7,9.7l0.5,0c1-4.6,3.6-6.9,8.8-7l9.1-0.3
				l-12.8,18.8c-3.7,5.4-5.4,7.1-6.8,7.8l0,0.7h13.7C317.1,854,320.8,854.1,323.6,854.2 M276.8,853.4l0,0.5h9.6v-2.2h-0.4
				c-1.7,0-2.5-0.6-2.5-3.3v-11c0-4.3-2.2-6.3-5.5-6.3c-2.6,0-5.9,1.8-8.2,4.1V831l-7,3.7l0.1,0.5l1.1-0.1c1.3-0.1,2,0.5,2,1.9v10.7
				c0,3.2-1.3,4.9-3.7,5.7l0,0.5h10.8v-2.3h-0.8c-1.7,0-2.6-1-2.6-3.4V838c1.5-1.9,3.9-3.3,5.8-3.3c2.6,0,4.1,1.1,4.1,4.7v7.2
				C279.8,851.4,279,852.3,276.8,853.4 M249.5,853.4l0,0.5h9.6v-2.2h-0.4c-1.7,0-2.5-0.6-2.5-3.3v-11c0-4.3-2.2-6.3-5.5-6.3
				c-2.6,0-5.9,1.8-8.2,4.1V831l-7,3.7l0.1,0.5l1.1-0.1c1.3-0.1,2,0.5,2,1.9v10.7c0,3.2-1.3,4.9-3.7,5.7l0,0.5H246v-2.3h-0.8
				c-1.7,0-2.6-1-2.6-3.4V838c1.5-1.9,3.9-3.3,5.8-3.3c2.6,0,4.1,1.1,4.1,4.7v7.2C252.5,851.4,251.7,852.3,249.5,853.4 M218.7,839
				c0.8-3.3,2.9-5.4,5.3-5.4c2.7,0,4.1,2.2,4.1,5.4H218.7z M223.7,854.9c5,0,8.6-4,8.8-9.4l-0.4,0c-0.6,3.4-3.6,5.7-7,5.7
				c-4.2,0-6.8-2.7-6.8-8.4c0-0.5,0-1,0-1.5h14.1c0.4-6.3-2.7-10.1-7.5-10.1c-5.9,0-10.6,5.7-10.6,13.1
				C214.3,850.5,217.9,854.9,223.7,854.9 M194.1,837.3v-10.7l3,0.1c4.7,0.1,6.8,1.8,6.8,5c0,2.6-1.5,4.6-4.2,5.7L194.1,837.3z
				 M194.1,847.9v-8.1h3c5.1,0,7.9,2.1,7.9,6.3c0,3.4-1.5,5.5-5.7,5.5h-0.9C195,851.6,194.1,850.5,194.1,847.9 M184.5,853.3l0,0.7
				h15.8c5.5,0,9.8-3.6,9.8-8.9c0-3.9-2.9-6.5-7.2-7.3c3.8-1.5,5.7-4,5.7-7.1c0-4-3.2-6.3-8.8-6.3H185v2.4l2.3,0.1
				c1.7,0.1,2.6,1,2.6,3.4v17.5C189.9,850.9,188,852.4,184.5,853.3 M156,862.6c3,0,6-2.3,8.2-7.7l7.1-17.3c1.4-3.4,2.4-4.7,3.6-5
				l0-0.5h-8.7l-0.1,0.5c2.5,0.4,3.8,2.3,2.3,6.3l-3.3,8.8l-3.9-10.2c-1.1-2.9-0.3-4.5,2.1-5l-0.1-0.5h-9.7l-0.1,0.5
				c1,0.3,2.8,2.1,3.9,4.8l5.9,14.7c-1.7,4.4-3.4,6.3-5.7,6.3c-1.4,0-3-1.2-3.6-2.8l-0.3,0c-0.3,1.9-0.3,4.5,0,6.3
				C154.3,862.4,155.2,862.6,156,862.6 M136.8,850.7v-12.8c1.2-1.9,3.2-3.1,5.7-3.1c3.1,0,5.5,2.4,5.5,7.8c0,6.3-3.2,9.7-7,9.7
				C139.1,852.2,137.6,851.5,136.8,850.7 M139.3,854.9c8.3,0,12.7-6.6,12.7-14.1c0-5.5-3.1-9.6-7.6-9.6c-2.8,0-5.7,1.5-7.7,4v-14.6
				l-8.5,4.3l0.1,0.5h2.3c1.6,0,2.3,0.5,2.3,1.8V848c0,1.6-0.8,2.2-1.8,2.2h-1.3v0.5C131.9,853.3,135.5,854.9,139.3,854.9
				 M116.8,842.1v-0.5c-5-2.3-8.1-4.1-12.9-7.6l-0.4,0.5c4,3.7,3.4,6.3,0.5,6.3c-1.9,0-5.6-1-7.4-5.2l-9.6-0.4l-0.3,0.5
				c6,1.9,7,4.4,7,6.2c0,1.8-1,4.3-7,6.2l0.3,0.5l9.6-0.4c1.8-4.2,5.5-5.2,7.4-5.2c2.9,0,3.5,2.6-0.5,6.3l0.4,0.5
				C108.7,846.2,111.8,844.5,116.8,842.1"/>
			<path style="clip-path:url(#SVGID_00000130619849879343114290000014624591218072807596_);fill:#FFFFFF;" d="M494.5,648.5
				c9.3,27.9,14.4,53,17.7,92.9l3.8-0.2c1.3-22.2,11.8-1.3,11.6,24.9l3.8,0.4c9.3-22.8,26-44.8,40.9-54.3l-2.1-3.2
				c-15.4,8,7.2-28.7,37.6-62.7c-8.2,37.8-13.5,47.3-30.2,57.6l2.1,3.2c20.3-10.5,11.4,4.9-13.9,29.1l1.9,2.8
				c19.4-15.8,25.1-4-14.2,22.8l1.7,3.4c23-11.8,32.5-9.3,23.8-0.6l2.1,3.2c9.1-5.7,23.9-7,35.7-5.7l1.5-3.6
				c-4.8-4.6-3.6-12.9,6.7-27.7l-3.2-2.3c-8.9,13.3-14.6,18.2-18,18.2c-9.1,0,0.8-37,16.7-34.8l1.3-3.6
				c-19.8-9.5-1.7-31.7,21.9-60.2l-3-2.5c-30,31.9-17.9,2.3,9.1-16.5l-1.1-3.8c-30.2,9.1-49.8,5.9-34.8-1l-1.3-3.6
				c-11,5.7-27.2,7.4-40.3,4.2l-1.5,3.6c10.6,4.4,6.8,10.3-9.1,28.7l2.8,2.7c20.9-24.1,25.8-23,4.6,19.6
				c-14.1,28.1-18.4,27.6-18.4,3.2l-3.8,0.2c0.8,20.1-2.7,34.2-8.4,48.4c-4.8-16.2-8-31.5-8-65h-3.8c-0.2,22.2-7,10.8-9.5-4.8
				c-1.7-12-0.8-26.6,8.4-29.5l-1.9-3.4c-27.4,6.1-31.5,1.7-23.2-3.4l-1.1-3.6c-11,5.7-22.8,5.9-31.5,4.9l-0.9,3.8
				c7.8,0,7.8,8.7-8,21.8l2.7,2.9c28.9-24.5,30-3.6-5.3,35l3.2,2.3c20.1-16.9,32.3-8-26,44.3l2.7,2.7c15.8-14.1,24.7-15.2,24.9-10.3
				c0.4,5.5-9.7,18.4-32.7,30.4l0.9,3.8c23.8-9.7,38-8.7,27,0.4l1.5,3.4c14.8-8,25.1-8.9,39-6.6l1.1-3.6c-4.9-2.1-5.1-6.8,8-21.5
				l-3-2.5c-23,18.6-30.4,16.5-28.1-3.4c2.1-18.4,9.1-25.6,14.1-3.2l3.6-0.8C491.3,695.4,491.8,669.6,494.5,648.5 M333.9,752.1
				l1.5,3.6c18.6-5.5,34.6-1.3,18.6,9.3l2.3,3.2c16-6.3,22.6-7.4,38.2-3.2c4.6-13.3,20.9-26.8,18.8-10.1l4-0.6
				c4.8-12,11.8-29.3,14.2-43.3l-3.6-1.7c-4.4,14.8-10.3,4.9-28.5-47.3l-3.8,1.1c12.2,31.5,8.4,36.7-6.5,10.8
				c-9.5-16.7-4.9-31,5.3-31c6.1,0,10.3,2.1,14.6,11.6l3.6-1.3c-1-4.6,1.3-7.4,4.4-7.4c5.1,0,12.4,7.8,10.3,28.5l3.6,1.5
				c9.5-12.3,16.1-28.5,18.8-39l-1.5-3.6c-27,6.5-26.6-1.9-8-12.5l-1.7-3.4c-42.9,16.9-58.5,17.7-61,4l-4.4,0.4
				c-2.8,35-8.4,38.9-18,37.4l-1,3.8c7.6,5.5,12.9,17.7,28.1,63.1l3.6-1.5c-12.2-36.7-1.9-34.4,14.1-2.3c7,14.1,1.3,23.6-9.9,23.6
				c-7.2,0-14.2-4.4-20.1-15l-3.4,1.5c1.9,5.5,0.2,8.5-2.7,8.5c-4.8,0.2-13.1-8-12.5-26.2l-3.8-0.4
				C340.8,726,335.5,744.8,333.9,752.1 M227.2,735.9c-11.2-32.1-3.2-47.5,6.8-19.8l3.2-1.3c-14.2-39.7-12-41,28.3-48.1l-0.6-3.4
				c-31.2,5.3-19-9.5-9.3-16c10.3-6.8,18.8-4.6,18.8,4.9l3.6,1c3-17.1,12.7-28.5,15.2,13.9l3.6-0.2c0.2-25.5,8.2-32.9,14.8-12.7
				c11,33.6,3.6,47.5-6.5,21.1l-3.2,1.3c14.2,38.4,11.2,39.7-28.7,46.7l0.6,3.4c31.2-5.3,19,9.5,9.3,16c-10.3,6.8-18.6,4.2-18.8-5.1
				l-3.6-1c-3,17.1-12.7,28.5-14.8-14.2l-3.4,0.2C242.6,750.4,234.2,756.1,227.2,735.9 M220.5,770.3l2.1,3.4
				c29.6-15.2,43.9-13.7,38.4-6.1l2.3,3c10.8-5.9,29.5-12,42.9-15.6l-0.2-3.8c-23.8,0-1.5-18.6,20.3-15.2l1.5-3.4
				c-14.1-3,4.4-38.6,16-39.3l1-3.8c-7-5.3-13.1-20.3,0.2-51.1l-3.6-1.1c-10.4,23-19.8,16-14.6-5.9c-22,0.8-26.8-3.2-10.4-13.3
				l-1.9-3.4c-29.6,15.2-45.4,12.7-38.2,6.7l-2.1-3.2c-11.6,6.1-28.1,11.4-42,15.4l1.3,3.8c21.1-4.6,0.8,18.4-21.1,14.8l-1.5,3.6
				c14.1,3-4.4,38.6-16,39.3l-1,3.8c7,5.3,14.4,14.6-0.2,48.6l3.6,1.1c11.4-24.9,13.9-17.5,11.4,8.4
				C231,760,232.5,762.9,220.5,770.3 M163.5,660.5l3.2-3.2c-8.9-11.2-7.6-16.9-3-17.3c7-0.6,21.9,12.2,16.7,37.4l3.4,1.7
				c7-15.4,13.9-31.9,18.4-45.8l-3.4-2.1c-13.7,10.3-21.3,0.6-8.6-10.8l-2.1-3.4c-28.5,15.2-40.5,9.3-33.2,2.8l-2.3-3.2
				c-13.3,6.1-31,12.7-44.8,16.7l1.3,3.8c24.1-6.3,1,17.1-18.8,14.4l-1.5,3.6c13.9,4-4.9,40.3-15.8,40.7l-0.6,3
				c7,5.3,9.7,11.6-4.9,45.6l3.6,1.1c11.4-24.9,16-17.7,13.5,8.2c23.2,2.7,24.7,4.2,8.4,14.2l2.1,3.4c27.9-13.1,46.5-11.4,38.4-2.1
				l2.3,3c10.6-6.5,21.5-9.7,33.8-11.6l-0.9-3.6c-7.2,0.6-10.1-1.3-9.7-3.4c0.6-2.7,7.2-5.5,17.9-3.2l2.1-3.4
				c-3.4-1.5-3.4-10.6,5.7-32.7l-3.8-1.7c-12.9,27.6-26.2,33.1-24.3,16.2l-3.6-1c-6.8,23.8-11,27-34.6-1.1l-2.8,2.7
				c13.7,16.3,10.1,18.8,4.6,18.8c-15.8,0-29.8-45.4-6.1-33.1l2.1-3c-19.9-11.2-14.2-34.2,12.9-31.4l0.6-3.8
				c-28.7-3.6-8.5-25.8,3-31.2C144.1,640.7,150.8,644.3,163.5,660.5"/>
			<path style="clip-path:url(#SVGID_00000130619849879343114290000014624591218072807596_);fill:#FFFFFF;" d="M431.3,895.2l2.2,3
				v2.5c0,1.2-0.8,1.7-2.2,2l0,0.2h5.7v-0.7l-1.2-0.1c-0.6-0.1-0.9-0.3-0.9-1.1v-2.8l2.1-3c0.9-1.2,1.8-1.9,2.4-1.9v-0.2h-3.7v0.2
				l0.4,0.2c0.6,0.2,0.7,0.6,0.2,1.3l-1.8,2.6l-1.9-2.8c-0.5-0.7-0.3-1.1,0.3-1.2l0.2-0.1l0-0.2h-4v0.2
				C429.7,893.5,430.6,894.2,431.3,895.2 M427.6,903.1c0.3-1,0.5-2.2,0.6-3.6l-0.2,0c-0.7,1.9-1.7,2.5-4,2.6l-2.4,0.1l4.9-7.1
				c0.4-0.6,1.1-1.4,1.5-1.8l0-0.2h-3.5c-2,0-3.7,0-4.6-0.1c-0.2,1.1-0.3,2-0.2,3.2l0.2,0c0.3-1.5,1.2-2.3,2.9-2.3l3-0.1l-4.3,6.3
				c-1.2,1.8-1.8,2.4-2.3,2.6l0,0.2h4.6C425.5,903,426.7,903,427.6,903.1 M411.3,898.7l1.5-3.9l1.5,3.9H411.3z M414.1,903h4l0-0.2
				c-0.4-0.1-1.1-1-1.7-2.5l-2.9-7.4h-0.8l0,0.1l0-0.1l-2.9,7.3c-0.7,1.6-1.4,2.5-1.9,2.6l0,0.2h3.4l0-0.2l-0.3-0.2
				c-0.7-0.4-0.8-0.9-0.5-1.7l0.5-1.5h3.6l0.3,0.8c0.6,1.5,0.4,2.1-0.4,2.4l-0.4,0.1L414.1,903z M406.4,903.1c0.3-1,0.6-2.1,0.7-3.5
				l-0.2,0c-0.6,1.7-1.6,2.5-3.3,2.5l-0.4,0c-0.9,0-1.3-0.3-1.3-1.1v-5.5c0-1.5,0.7-2,2.1-2.2l0-0.2h-5.1v0.8l0.8,0
				c0.6,0,0.9,0.3,0.9,1.1v5.8c0,1.1-0.6,1.6-1.8,1.8l0,0.2h5.3C404.8,903,405.7,903,406.4,903.1 M392.4,897.4v-3.6l1,0
				c1.6,0,2.3,0.6,2.3,1.7c0,0.9-0.5,1.5-1.4,1.9L392.4,897.4z M392.4,900.9v-2.7h1c1.7,0,2.6,0.7,2.6,2.1c0,1.1-0.5,1.8-1.9,1.8
				h-0.3C392.7,902.2,392.4,901.8,392.4,900.9 M389.2,902.7l0,0.2h5.3c1.8,0,3.3-1.2,3.3-3c0-1.3-1-2.2-2.4-2.4
				c1.3-0.5,1.9-1.3,1.9-2.4c0-1.3-1.1-2.1-2.9-2.1h-5v0.8l0.8,0c0.6,0,0.9,0.3,0.9,1.1v5.8C391,902,390.4,902.4,389.2,902.7
				 M383.4,903.3l0.2,0l0-1.9l0.2-6.1c0-1.2,0.5-1.7,1.8-2l0-0.2h-4.4v0.8l0.6,0c0.6,0,1,0.4,1,1.1l0.1,5.4l-5.7-7.4h-3v0.8l0.8,0
				c0.6,0,0.9,0.3,0.9,1.1l-0.1,5.7c0,1.2-0.5,1.7-1.8,2l0,0.2h4.4v-0.8l-0.8,0c-0.6,0-0.8-0.3-0.9-1.1l-0.1-6.3L383.4,903.3z
				 M367.8,902.7l0,0.2h4.8v-0.8l-0.8,0c-0.6,0-0.9-0.3-0.9-1.1v-5.7c0-1.2,0.5-1.7,1.8-2l0-0.2h-4.8v0.8l0.8,0
				c0.6,0,0.9,0.3,0.9,1.1v5.7C369.5,902,369,902.4,367.8,902.7 M358.9,902.4h0.2l3.9-8.3l0.3,6.6c0.1,1.2-0.5,1.7-1.8,2l0,0.2h4.7
				v-0.8l-0.5,0c-0.6-0.1-0.8-0.3-0.9-1.1l-0.4-5.7c-0.1-1.2,0.3-1.7,1.6-2l0-0.2h-3.7l-3.1,7l-3.1-7h-3.7v0.8l0.6,0
				c0.8,0.1,1,0.3,1,1.5l-0.4,5.4c-0.1,1.2-0.5,1.7-1.8,2l0,0.2h4.4v-0.8l-0.8,0c-0.6,0-0.9-0.3-0.9-1.1l0.4-7L358.9,902.4z
				 M344,898.7l1.5-3.9l1.5,3.9H344z M346.9,903h4l0-0.2c-0.4-0.1-1.1-1-1.7-2.5l-2.9-7.4h-0.8l0,0.1l0-0.1l-2.9,7.3
				c-0.7,1.6-1.4,2.5-1.9,2.6l0,0.2h3.4l0-0.2l-0.3-0.2c-0.7-0.4-0.8-0.9-0.5-1.7l0.5-1.5h3.6l0.3,0.8c0.6,1.5,0.4,2.1-0.4,2.4
				l-0.3,0.1L346.9,903z M335.9,905.7c1.7,0,3-1.3,3-4.8v-5.6c0-1.2,0.4-1.7,1.4-2l0-0.2h-4.5v0.8l0.5,0c1,0.1,1.2,0.3,1.2,1.2v7.3
				c0,1.7-0.5,2.3-1.2,2.3c-0.6,0-1.1-0.5-1.5-1.9l-0.2,0c-0.1,1-0.1,1.9,0.1,2.6C335,905.6,335.4,905.7,335.9,905.7 M332,903.3
				l0.2,0l0-1.9l0.2-6.1c0-1.2,0.5-1.7,1.8-2l0-0.2h-4.4v0.8l0.6,0c0.6,0,1,0.4,1,1.1l0.1,5.4l-5.7-7.4h-3v0.8l0.8,0
				c0.6,0,0.9,0.3,0.9,1.1l-0.1,5.7c0,1.2-0.5,1.7-1.8,2l0,0.2h4.4v-0.8l-0.8,0c-0.6,0-0.8-0.3-0.9-1.1l-0.1-6.3L332,903.3z
				 M320.7,903.1c0.4-1,0.5-1.9,0.7-3.3l-0.2,0c-0.5,1.5-1.6,2.3-3.3,2.4l-0.6,0c-0.9,0-1.3-0.3-1.3-1.1v-2.9l1.4,0
				c1.3,0,1.7,0.4,1.7,1.1h0.2c0.2-0.8,0.3-1.5,0.2-2.3c-0.7,0.2-1.9,0.3-2.9,0.3h-0.7v-3.5l2,0c1.7,0,2.4,0.5,2.4,1.7h0.2
				c0.3-0.9,0.3-1.8,0.2-2.7c-1,0.1-2.2,0.2-3.5,0.2H313v0.8l0.8,0c0.6,0,0.9,0.3,0.9,1.1v5.8c0,1.1-0.6,1.6-1.8,1.8l0,0.2h5.5
				C319.2,903,320.1,903,320.7,903.1 M306.6,897.4v-3.6l1,0c1.6,0,2.3,0.6,2.3,1.7c0,0.9-0.5,1.5-1.4,1.9L306.6,897.4z M306.6,900.9
				v-2.7h1c1.7,0,2.6,0.7,2.6,2.1c0,1.1-0.5,1.8-1.9,1.8H308C306.9,902.2,306.6,901.8,306.6,900.9 M303.4,902.7l0,0.2h5.3
				c1.8,0,3.3-1.2,3.3-3c0-1.3-1-2.2-2.4-2.4c1.3-0.5,1.9-1.3,1.9-2.4c0-1.3-1.1-2.1-2.9-2.1h-5v0.8l0.8,0c0.6,0,0.9,0.3,0.9,1.1
				v5.8C305.2,902,304.6,902.4,303.4,902.7 M293,898.7l1.5-3.9l1.5,3.9H293z M295.8,903h4l0-0.2c-0.4-0.1-1.1-1-1.7-2.5l-2.9-7.4
				h-0.8l0,0.1l0-0.1l-2.9,7.3c-0.7,1.6-1.4,2.5-1.9,2.6l0,0.2h3.4l0-0.2l-0.3-0.2c-0.7-0.4-0.8-0.9-0.5-1.7l0.5-1.5h3.6l0.3,0.8
				c0.6,1.5,0.4,2.1-0.4,2.4l-0.3,0.1L295.8,903z M281.1,897.8l5,5.2h2.3v-0.8c-0.6,0-1-0.3-2-1.3l-3.7-3.6l2.5-2.1
				c1.4-1.2,2.5-1.7,2.9-1.9l0-0.2h-3.5v0.2l0.1,0c0.5,0.1,0.6,0.6,0.1,1L281.1,897.8z M277.8,902.7l0,0.2h4.7v-0.8l-0.6,0
				c-0.6,0-0.9-0.3-0.9-1.1v-5.7c0-1.2,0.5-1.7,1.8-2l0-0.2H278v0.8l0.8,0c0.6,0,0.9,0.3,0.9,1.1v5.7
				C279.6,902,279.1,902.4,277.8,902.7 M269.9,898.7l1.5-3.9l1.5,3.9H269.9z M272.7,903h4l0-0.2c-0.4-0.1-1.1-1-1.7-2.5l-2.9-7.4
				h-0.8l0,0.1l0-0.1l-2.9,7.3c-0.7,1.6-1.4,2.5-1.9,2.6l0,0.2h3.4l0-0.2l-0.3-0.2c-0.7-0.4-0.8-0.9-0.5-1.7l0.5-1.5h3.6l0.3,0.8
				c0.6,1.5,0.4,2.1-0.4,2.4l-0.4,0.1L272.7,903z M263.8,893.9l0.2,0.8c0,0.1-0.1,0.1-0.1,0.1l-0.6-0.7c-0.1-0.1-0.2-0.3-0.2-0.4
				l-0.1-0.1l-1.3-0.5l-0.1,0.1l0.8,1.1l0.1,0.1c0.2,0,0.4,0.1,0.5,0.2l0.7,0.4c0.1,0,0.1,0.1,0,0.1l-0.8,0c-0.2,0-0.4,0-0.5-0.1
				l-0.1,0l-1.2,0.8l0,0.1l1.4,0.1l0.1,0c0.1-0.1,0.3-0.2,0.4-0.3l0.7-0.3c0.1,0,0.2,0,0.1,0.1l-0.5,0.7c-0.1,0.1-0.2,0.2-0.4,0.3
				l-0.1,0.1l-0.2,1.4l0.1,0.1l1-1l0.1-0.1c0-0.2,0-0.3,0-0.6l0.2-0.7c0-0.1,0.1-0.1,0.1,0l0.2,0.7c0,0.2,0.1,0.4,0,0.6l0.1,0.1
				l0.9,1h0l0.1-0.1l-0.2-1.4l-0.1-0.1c-0.1-0.1-0.3-0.2-0.4-0.3l-0.5-0.6c-0.1-0.1,0-0.2,0.1-0.1l0.8,0.3c0.1,0.1,0.3,0.2,0.4,0.3
				l0.1,0l1.4-0.1l0-0.1l-1.2-0.7l-0.1,0c-0.2,0.1-0.3,0.1-0.5,0.1l-0.8,0c-0.1,0-0.1-0.1,0-0.2l0.8-0.4c0.2-0.1,0.3-0.1,0.4-0.1
				l0.1-0.1l0.7-1.1l-0.1-0.1l-1.3,0.5l-0.1,0.1c-0.1,0.2-0.2,0.4-0.3,0.5l-0.5,0.6c-0.1,0.1-0.1,0-0.1-0.1l0.2-0.8
				c0-0.2,0.1-0.3,0.2-0.5l0-0.1l-0.4-1.3H264l-0.4,1.3l0,0.1C263.7,893.6,263.7,893.8,263.8,893.9"/>
			<path style="clip-path:url(#SVGID_00000130619849879343114290000014624591218072807596_);fill:#FFFFFF;" d="M614.1,1008.4
				l0.6,22.7l-0.4,0.6c-4.6,6.9-9.7,11.1-14.1,12.5l0.1,0.8h19.5l3.6-3v-0.4h-7.8c-2,0-2-1-2-1.7c0-0.8,0.6-2.2,4.4-8.6l12.8-21.5
				c2.6-4.4,5.6-8.2,8.7-11.2v-0.5h-12.1l-3.6,3.1v0.4h2.9c3.1,0,4.1,1.7,1.5,6.4l-9,16.1l-0.4-28.2l-10,6v0.7l2,0.4
				C612.8,1003.4,614,1004.8,614.1,1008.4 M590.5,1032.8c3.4,0,8.3-3.2,14.1-11.3l-0.6-0.6c-3.7,3.7-8.3,6.3-10.6,6.3
				c-1,0-1.6-0.5-1.6-1.7c0-0.9,0.3-2,0.8-3.5l6-19.5h7.1l4.1-3.7v-0.7h-9.8l3.8-12.3l-0.7-0.1l-8,12.3l-6.4,3.6v0.8h5.1l-6.6,21.8
				C585.6,1029.6,586.8,1032.8,590.5,1032.8 M563.3,1030.5l0.1,0.8h13.2l3.6-3.1v-0.4h-3.8c-1.5,0-2-0.4-1.5-2.1l9.4-30.2l-12.7,6.2
				v0.7l1.5,0.3c2.7,0.6,3.6,2,2.8,4.5l-4.8,14.8C569.6,1026.8,566.9,1029.3,563.3,1030.5 M588.8,982H583l-3.9,3.7l0.3,0.3l3.3,5.9
				C585.5,989.5,587.9,985.2,588.8,982 M557,1010.1l-6.7,22.8l12.9-4.3l-0.1-0.9h-1.8c-3.5,0-4.5-1.3-2.9-6.2l4.1-12.9
				c1.7-5.3,2.2-7.3,2.2-9.1c0-2.1-1-3-2.9-3c-3.6,0-11.3,6-16.7,12h-0.4l4.6-13l-12.5,6.2v0.7l1.5,0.3c2.7,0.6,3.6,2,2.7,4.6
				l-4.1,13.4c-1.5,4.7-4.6,8.5-8.3,9.7l0.1,0.8H542l3.6-3.1v-0.4h-4.1c-1.5,0-2-0.4-1.5-2.1l3.8-12.4c6.7-6.6,12-10.8,13.7-10.8
				c0.6,0,1,0.4,1,1.3C558.6,1004.8,558.1,1006.4,557,1010.1 M505.3,1023.4c0-10.7,7.1-22.4,12.9-22.4c2.2,0,4.1,0.8,5.2,2
				l-4.5,13.5c-6.9,7.1-10.7,10.4-12,10.4C505.8,1027,505.3,1025.9,505.3,1023.4 M503.6,1032.7c3.9,0,10.8-7.2,14.3-11.5h0.3
				l-3.9,11.6l13-4.9l-0.1-0.8l-2.4-0.1c-2.9-0.1-3.8-1.8-2.4-6.2l5.2-16.5c1.1-3.4,2.4-4.4,3.8-4.4v-0.6c-2.5-1.7-6.2-2.7-9.8-2.7
				c-10.4,0-22,12.5-22,29.2C499.6,1030.9,501,1032.7,503.6,1032.7 M478.4,1032.7c9.2,0,16.4-7.2,16.4-13.9c0-4.5-2.9-7.8-6-10.9
				l-3.7-3.6c-2.4-2.4-3.8-3.9-3.8-7.4c0-4.1,4.5-8,8.5-8c4.3,0,6.7,2.7,5.6,10.9l0.8,0.1c1.2-1.5,2.7-3.4,3.7-5.5
				c0.3-3.2,0.4-6.3,0-8.3c-2.6-0.4-5.5-0.8-7.6-0.8c-8.8,0-16.3,6.2-16.3,14.3c0,3,1.8,5.9,4.8,8.9l3.6,3.6
				c3.2,3.2,4.4,5.2,4.4,8.5c0,4.5-3.4,8.3-9,8.3c-5.2,0-7.6-2.9-6.3-12.2l-0.8-0.3c-1.5,1.5-2.9,3.2-4.1,5
				c-0.3,2.7-0.5,5.7-0.3,8.9C470.8,1031.8,474.8,1032.7,478.4,1032.7 M429.6,1021.7c0-10.6,6.6-20.7,12.3-20.7
				c2.4,0,4.4,0.9,5.4,2.4l-3.6,12c-7.6,7.8-11.2,10.1-12.6,10.1C430.2,1025.4,429.6,1024.4,429.6,1021.7 M424.2,1039.1
				c0-2.1,1.5-5.3,3.8-8h0.1c3.8,0,10.8-6.4,14.3-10.6l0.4,0.1l-1.8,5l-1,3.6c-2.4,8.8-6.8,13-12.6,13
				C425.3,1042.3,424.2,1041.3,424.2,1039.1 M424,1046c10.4,0,18.9-7.7,21.5-17.9l4.5-17.4c2-7.8,3.2-9.1,5.5-10.6v-0.6
				c-2.5-1.7-6.6-2.7-10.1-2.7c-10.4,0-21.4,10.9-21.4,27.6c0,3.2,0.6,5.1,1.8,6c-4.3,3.2-7.6,8-7.6,10.9
				C418.1,1044.5,420.5,1046,424,1046 M411.3,1010.1l-6.7,22.8l12.9-4.3l-0.1-0.9h-1.8c-3.5,0-4.5-1.3-2.9-6.2l4.1-12.9
				c1.7-5.3,2.2-7.3,2.2-9.1c0-2.1-1-3-2.9-3c-3.6,0-11.3,6-16.7,12h-0.4l4.6-13l-12.5,6.2v0.7l1.5,0.3c2.7,0.6,3.6,2,2.7,4.6
				l-4.1,13.4c-1.5,4.7-4.6,8.5-8.3,9.7l0.1,0.8h13.4l3.6-3.1v-0.4h-4.1c-1.5,0-2-0.4-1.5-2.1l3.8-12.4c6.7-6.6,12-10.8,13.7-10.8
				c0.6,0,1,0.4,1,1.3C412.8,1004.8,412.3,1006.4,411.3,1010.1 M364.9,1030.5l0.1,0.8h13.2l3.6-3.1v-0.4h-3.8c-1.5,0-2-0.4-1.5-2.1
				l9.4-30.2l-12.7,6.2v0.7l1.5,0.3c2.7,0.6,3.6,2,2.8,4.5l-4.8,14.8C371.2,1026.8,368.5,1029.3,364.9,1030.5 M390.5,982h-5.9
				l-3.9,3.7l0.3,0.3l3.3,5.9C387.1,989.5,389.5,985.2,390.5,982 M352.2,1032.8c3.4,0,8.3-3.2,14.1-11.3l-0.6-0.6
				c-3.7,3.7-8.3,6.3-10.6,6.3c-1,0-1.6-0.5-1.6-1.7c0-0.9,0.3-2,0.8-3.5l6-19.5h7.1l4.1-3.7v-0.7h-9.8l3.8-12.3l-0.7-0.1l-8,12.3
				l-6.4,3.6v0.8h5.1l-6.6,21.8C347.3,1029.6,348.5,1032.8,352.2,1032.8 M325.1,1017c1.8-8.3,7.6-16,12.2-16c1.6,0,2.5,1,2.5,2.9
				C339.7,1009.1,333.8,1014.3,325.1,1017 M326.1,1032.7c5.2,0,12.1-4.5,16.9-13.7l-0.6-0.5c-5.2,5.8-10.2,9-14.1,9
				c-2.5,0-3.7-1.3-3.7-5.5c0-0.4,0-1,0.1-1.4c10.9-2.7,21.4-12.8,21.4-19.6c0-2.7-1.7-4.3-5.5-4.3c-11.1,0-22,15.5-22,26.6
				C318.6,1029.1,321.4,1032.7,326.1,1032.7 M313.3,991.1l-10.7,34.8l-2.1,7.1l13.1-4.3l-0.1-0.9h-1.8c-3.5,0-4.5-1.3-2.9-6.2
				l12.5-40.6l-13.3,7.4v0.8h4.5C313.4,989.2,313.7,989.8,313.3,991.1 M275.2,1026.2l3.9-12.3c7.3-7.6,11.4-11.3,12.7-11.3
				c1.1,0,1.6,1,1.6,3.2c0,8.9-7.1,22.8-12.9,22.8C278.2,1028.6,276.2,1027.7,275.2,1026.2L275.2,1026.2z M259.5,1044.2l0.1,0.8
				h17.1l3.7-3.1v-0.3h-6.2c-2.4,0-3.4-1.6-2.5-4.6l1.5-4.6c1.3,0.3,2.7,0.4,4.1,0.4c10.4,0,22-14.3,22-29.2c0-4.9-1.5-6.7-3.8-6.7
				c-4.3,0-11.5,7.6-14.8,11.8h-0.6l5.6-13l3.6-10.9l-0.4-0.2l-8.3,10.6l-6.2,19.7l-8.1,8.4l1.1,1.1l5.4-4.8l-5,15.1
				C266.6,1039.3,263.1,1043,259.5,1044.2 M246.5,1017c1.8-8.3,7.6-16,12.2-16c1.6,0,2.5,1,2.5,2.9
				C261.1,1009.1,255.1,1014.3,246.5,1017 M247.4,1032.7c5.2,0,12.1-4.5,16.9-13.7l-0.6-0.5c-5.2,5.8-10.2,9-14.1,9
				c-2.5,0-3.7-1.3-3.7-5.5c0-0.4,0-1,0.1-1.4c10.9-2.7,21.4-12.8,21.4-19.6c0-2.7-1.7-4.3-5.5-4.3c-11.1,0-22,15.5-22,26.6
				C240,1029.1,242.7,1032.7,247.4,1032.7 M205,1026.3l10.2-36.4h2.6c9.2,0,13.7,3.8,13.7,12.1c0,15.1-10.4,25.5-21.1,25.5
				C208.3,1027.5,205.9,1027,205,1026.3 M191.4,1030.3l0.1,1h16.6c13.8,0,29.7-10.3,29.7-29.7c0-9-5.9-15.2-16.2-15.2h-15.1
				l-3.7,2.7l0.1,0.8h3.9c2.4,0,3,1.2,1.8,5.2l-7.6,26.7C199.6,1026.7,196.6,1028.9,191.4,1030.3 M171.8,1010.1l-6.7,22.8l13.1-4.3
				l-0.1-0.9h-1.8c-3.5,0-4.5-1.3-2.9-6.2l4.1-12.9c1.7-5.3,2.2-7.3,2.2-9.1c0-2.1-1-3-2.9-3c-3.6,0-11.5,6-16.9,12h-0.4l2.6-5.9
				l6.6-21.8l-12.6,6.2v0.7l1.5,0.3c2.7,0.6,3.6,2,2.7,4.6l-8.7,27.9c-1.5,4.7-4.6,8.5-8.3,9.7l0.1,0.8h13.6l3.6-3.1v-0.4h-4.2
				c-1.5,0-2-0.4-1.5-2.1l3.8-12.5c6.7-6.5,12-10.7,13.7-10.7c0.6,0,1,0.4,1,1.3C173.3,1004.8,172.9,1006.4,171.8,1010.1
				 M130.7,1032.8c3.4,0,8.3-3.2,14.1-11.3l-0.6-0.6c-3.7,3.7-8.3,6.3-10.6,6.3c-1,0-1.6-0.5-1.6-1.7c0-0.9,0.3-2,0.8-3.5l6-19.5
				h7.1l4.1-3.7v-0.7h-9.8l3.8-12.3l-0.7-0.1l-8,12.3l-6.4,3.6v0.8h5.1l-6.6,21.8C125.8,1029.6,127,1032.8,130.7,1032.8
				 M103.4,1030.5l0.1,0.8h13.2l3.6-3.1v-0.4h-3.8c-1.5,0-2-0.4-1.5-2.1l9.4-30.2l-12.7,6.2v0.7l1.5,0.3c2.7,0.6,3.6,2,2.8,4.5
				l-4.8,14.8C109.7,1026.8,107,1029.3,103.4,1030.5 M129,982h-5.9l-3.9,3.7l0.3,0.3l3.3,5.9C125.6,989.5,128,985.2,129,982
				 M70.5,1033.5l3.9-4.8l11.5-16.5l2.2,21.3h0.4l3.6-4.8l10.8-18.8c2.5-4.5,5.6-8.2,8.7-11.2v-0.5h-12l-3.6,3.1v0.4h4.4
				c2.2,0,2.6,1.4,1.5,3.4l-10.2,19.4L89,995.9l-8.9,6v0.7l2,0.5c2,0.5,2.9,1.2,3.3,4.6l-11,16.4l-0.1-28.2l-10.1,6v0.7l2,0.5
				c2.1,0.5,3.3,1.3,3.4,5.3l0.6,25.1H70.5z"/>
			<path style="clip-path:url(#SVGID_00000130619849879343114290000014624591218072807596_);fill:#FFFFFF;" d="M627.9,961.9l0.5-0.4
				c-1.6-2,0.2-5.5,1.5-7.4l-0.5-0.4c-2.2,3-4.6,4.4-6.3,4.4c-5.1,0,3.2-13.1,5.9-13.1c1.2,0,1.6,2-1.2,6.2l0.5,0.4
				c3.1-3.6,5.1-7.8,6.2-12.4l-0.5-0.5c-2.2,1.8-3.9,1.6-2.6-2.1l-0.7-0.4c-2.5,5.1-7.6,13-8.6,13c-1.1,0,2.7-9,5.6-12.8l-0.6-0.5
				c-4.4,3.4-5.5,2-5-0.2c-1.8,1.5-4.4,3.6-6,5.8l0.4,0.6c2.7-2.5,3.8-1.3,3.6,0.4c-0.2,1.7-1.6,3.8-3.9,3.6l-0.2,0.6
				c3.1,1.3,3,3.9-3.6,9.9l0.4,0.5c7.1-5.6,4.6,0.9-1.5,3.9l0.3,0.6c3.7-2.1,8.2-2,6,0.4l0.4,0.5C620.9,961,626.2,961,627.9,961.9
				 M595,958.2c-1.5,0-0.3-5,7.3-14.4l-0.5-0.4c-2.4,2.7-4.4,4.8-4.9,4.8c-0.1,0-0.2-0.2-0.2-0.5c0-3.4,4.2-7.7,7.8-7.7
				c1.7,0,2.9,0.4,3.4,1.3C605.8,947.1,598.6,958.2,595,958.2 M615.4,939.3l-0.3-0.7c-6.2,3.4-7.4,0.7-2.1-1.7l-0.3-0.6
				c-3.2,0.7-5.3,0.3-6.9-0.6l-0.5-0.3c-7.7,6.7-9.6,6.7-11.8,2.1l-0.6,0.3c1.3,3.5,1.5,8.7-3,7.9l-0.2,0.6
				c2.6,1.3,3.6,3.4-3.1,10.9l0.4,0.5c5.5-5.1,6.3-3.9,1.7,2.3l0.5,0.5c2.4-1.3,5.6-0.1,6.7,1.7l0.4,0.6c3.4-5.3,6.9-9.9,7.9-9.9
				c0.7,0,0.8,4.1-3.6,8.2l0.4,0.6c3.5-0.9,7.1-1.3,9-1.4l0-0.7c-2.9-0.4-2.6-2.1,1.1-4.9l-0.4-0.5c-2.5,1.4-2.6-0.2-2.1-1.7
				c0.5-1.7,1.5-2.9,3-2.6l0.2-0.6C609.6,947.3,610.4,942,615.4,939.3 M572.9,947.8c-2.4,0,3.9-8.2,7.7-8.2c5.7,0-3,10.1-5.4,10.1
				c-0.9,0-0.6-1.6,2.3-5.1l-0.5-0.4C574.5,947.1,573.5,947.8,572.9,947.8 M572.1,956.2c0-2.2,5.4-6.7,7.4-6.7
				c0.7,0,0.8,0.8-0.5,2.5l0.6,0.5c2.9-2.3,6.8-5.4,8.6-8.7c-4.5,0-4.3-2.5,1.1-3v-0.6c-2.9-1.1-6.2-2.7-8.6-4.3l-0.5-0.3
				c-5.8,5.3-7.4,5.8-9.8,1.5l-0.6,0.3c1.3,4.7,1.5,9.7-3.3,8.7l-0.2,0.6c3,1.3,2.8,4.2-2.1,9l0.4,0.4c4.7-4.1,6-0.3,1.8,3.5
				l0.4,0.5c2.7,0.2,5.7,1,7.8,2.5l0.6,0.4c3-2.7,6.2-3.5,10.2-4.6l-0.1-0.9c-1.3,0.1-2.5-1.8-1.6-6l-0.7-0.2
				c-2.2,4.4-5.2,7.7-7.3,7.7c-1.2,0-1.4-1.2,1.4-4l-0.6-0.5C573.6,957.8,572.1,957.5,572.1,956.2 M538.9,961.1l0.4,0.8
				c5.4-2.8,9.4-1.7,7.4,0.3l0.5,0.8c2.1-1.3,7.1-2.4,10.7-1.3l0.4-0.8c-1.9-1.1-2.3-2.7-0.6-5.6l-0.8-0.4
				c-7.3,5.2-11.6,4.3-2.4-4.4l-0.7-0.6c-3.1,3-3.2,1.6-2.4,0.3c3.1-5.1,10.2-6.1,5.7,1l0.7,0.5c2.4-3.4,4.5-5.1,6.2-4.9l0.2-0.9
				c-1.9-0.5-1.7-1.6-0.4-3.6l-0.7-0.4c-9.4,3.2-11.1,1.6-5-4.3l-0.6-0.7c-2,1.5-2.9,0.9-1.3-1.9c1.4-2.4,3.1-3.6,4,2.6l0.9-0.3
				c-0.3-2.9,1-4.5,2.1-4.4c1.2,0,2.2,2.1,0.1,6.7l1,0.7c2.2-2.9,4.2-5.8,6-8.9l-0.8-0.7c-2.5,1.7-4.6-0.2-1.5-2.4l-0.5-0.9
				c-6.4,3.9-10.7,3.7-7.5,1.3l-0.5-0.8c-3.5,1.9-9.3,1.8-12,1.5l-0.3,0.9c1.1,0.4,0.5,2.3-2,5.1l0.6,0.7c4.5-5,7.4-4.4,4.5,2.4
				c-0.4-0.5-1-1.3-1.4-2.1l-0.9,0.4c1.8,6.4,1.1,8.5-1.6,8.5l-0.2,0.9c2.8,1.1,2.3,3.4-5.8,10.2l0.5,0.7
				C547.1,951.3,548.1,954.8,538.9,961.1 M516.3,943.2c0.9-2.9,2.3-3.5,3-3.5c2.6,0,2,6.9-2,6.2l-0.1,0.6c2.5,0.9,3.7,2.6-2.1,8.6
				l0.5,0.4c4.2-4,1.8,3.1-2.9,5.3l0.3,0.6c4.1-1.8,7.7-2,6,0.4l0.4,0.5c2.6-1.4,7.6-1.6,9.6-0.9l0.3-0.6c-1.3-1-0.8-3.9,0.6-6.3
				l-0.5-0.4c-2,3-3.7,3.8-5.8,3.8c-4.1,0-2.4-5.2,2.3-5.6l0.1-0.7c-4.7-1-4.2-2.7,2-7.1l-0.4-0.6c-5.1,4-3-4.4,1-4.4
				c1.9,0,3.2,0.6,3.6,3.3l1,0.2l1.5-5.6l-0.8-0.2c-2.1,0.4-4,0.5-5.2,0.5c-3.1,0-2.8-4.8,1-6.4c2.5-1,3.8,0.9,2.5,4l0.6,0.3
				c1.4-1.5,3.2-3.9,4.5-5.9c-4.1,0.9-6.3-2.1-0.5-3.6l-0.2-0.7c-4.3,0.9-7.2,1.6-10,2.7c-0.6,4-2.4,6.4-4.4,0.5l-0.7,0.3
				c1.7,7.5-0.4,9.2-4.5,8.3l-1.5,5.7L516.3,943.2z M495.1,954.1c0.4-1.6,0.9-2.1,2.6-1.1l0.3-0.6c-2.2-1.6-1.2-4,3.4-8.6l-0.5-0.5
				c-2.1,1.9-3.6,2.8-4.1,2.8c-1.8,0,1.5-6.1,7.7-6.1c2.3,0,3.9,1.8,3.1,4.4c-0.3,1.1-1.4,1.7-3.2,1l-0.4,0.6c1.7,0.9,1.5,2.2-3.3,8
				l0.5,0.4c2.2-2,3.5-3,4-3c3,0-0.2,7-7,7C495.8,958.4,494.5,956.3,495.1,954.1 M493.7,936.9l-0.6,0.3c1.4,3.7,1.4,9.7-3.4,8.7
				l-0.2,0.6c3.1,1.3,2.4,4.1-2.5,9l0.4,0.5c4.7-4.1,6-0.3,2.1,3.5l0.4,0.5c2.9,0.2,6,1.2,8.3,2.6l0.6,0.4c5.8-5.3,8-5.7,10.2-1.6
				l0.6-0.3c-1.4-3.7-1.4-9.8,3.5-8.7l0.2-0.6c-3.1-1.3-2.4-4.1,2.5-9l-0.4-0.5c-4.7,4.1-6,0.8-2.1-3l-0.4-0.5
				c-2.8-0.3-6.6-1.4-8.9-2.9l-0.5-0.3C497.8,940.8,496.2,941.4,493.7,936.9 M466.8,962.8c3.3-1.7,6.7-2.6,9.1-2.8l0.4-0.6
				c-2.9-2.4-1.3-6.4,1.9-4.9l0.4-0.8c-1-0.7-2.1-2.4-4.8-9.3l-0.7,0.4c1.8,7-3.5,1.4-3.5-3.1c0-1.7,0.7-2.6,2.2-2.6
				c2.1,0,5.7,2.9,5.9,7.8l0.8,0.1c0.5-2,1.6-5.2,2-6.6c-2.6-0.8-4.2-2.7,0.7-2.4l0.2-0.8c-3.2-0.1-5.9-0.8-8.1-1.7
				c-3.2,2.3-6.5,3.9-9.7,5.5l-0.1,0.7c2.2,1.3,2.1,4.7-0.3,4.8l0,0.7c2.5,1,2.7,3,4.7,7.5l0.8-0.4c-2.9-9.9,3.7-1.1,3.5,2.3
				c0,1.4-0.7,2.6-3,2.6c-2.4,0-5.5-3.4-6-8l-0.6-0.2l-2.5,5.7c2.4,1.7,2.6,3.2-0.9,2.9l-0.1,0.7
				C461.6,960.4,465.4,961.6,466.8,962.8 M451,953.6l-0.6-0.4c-8,8.4-4.3-1.8,1.3-8.5l-0.5-0.4c-2.4,2.7-4.2,4.4-4.7,4.4
				c-2.3,0,2.3-8.2,6.8-8.2c1.3,0,2.2,1.3,2.2,3.2c0,1.6-1.2,4.3-3.3,7.4l0.6,0.4c2.6-1.8,5.3-4.4,8.1-7.7c-3.8,0-4.2-2.5,1.1-3
				v-0.6c-3.2-1-6.1-2.6-8.2-4.2l-0.6-0.4c-5.8,5.3-7.4,5.8-9.8,1.5l-0.6,0.3c1.1,2.9,2.2,9.5-2.6,8.7l-0.2,0.6c2.6,1,1.9,4.2-3,9
				l0.4,0.4c4.7-4.1,6.3-1.5,2.1,2.2l0.4,0.5c2.7,0.2,5.6,2,7.7,3.8l0.6,0.5c3-2.7,6-3.5,10-4.7l-0.2-0.8c-1.7,0.4-2.8-1-1.9-5.1
				l-0.7-0.2C453.2,957.6,444.1,963.4,451,953.6 M433.1,932.5l0.4,0.6c2-2.5,3.1-2.1,2.6,1.7l0.8-0.5l3.6-2.2l0.7-0.4
				c-0.5-1.3-0.5-2.6-0.2-4.3l-0.5-0.5c-2.6,2.8-3.3,1.7-2.1-1.6l-0.7,0.4l-3.6,2l-0.7,0.4C433.7,929.5,433.5,930.8,433.1,932.5
				 M424,960.9l0.3,0.6c3.7-2.1,7.8-1.8,5.1,0.4l0.4,0.5c1.8-1,3.9-1.4,5.1-1.4l0.2-0.7c-3.2-1.9-2.6-7.3,0.7-6.9l0.2-0.6
				c-2.3-0.8-3.4-3,2.2-7.8l-0.4-0.6c-3.9,2.4-2-2.8,2.4-8.2l-0.6-0.5c-4.5,3.4-5.6,2-5-0.2c-1.8,1.5-5.5,4.6-6.3,5.9l0.3,0.6
				c2.8-2.8,3.8-0.9,3.2,1.2c-0.4,1.5-1.7,3-3.7,2.8l-0.2,0.6c3.7,1,1.7,4.7-3.6,9.9l0.4,0.5C430.8,951.2,428.8,958.1,424,960.9
				 M425.3,927.7l-0.3-0.7c-2.4,1-5.4,2.6-7.7,4.1c0.6,2.7-0.2,4.7-3,1.8l-0.6,0.5c3.3,3.4,2,5.4-3,3.9l-1.5,5.7l0.7,0.2
				c0.7-1.7,1.9-3.4,3.2-3.4c2.6,0,1.5,6.8-2.9,6.1l-0.2,0.6c3.7,1.4,3.2,4.3-1.7,7.5l0.4,0.5c4.2-2.2,2.4,1.2,0.1,4l0.4,0.5
				c2.2,0,4.6,1.9,6.8,3.9c3.2-1.7,5.8-2.6,8.2-3.4l0-0.7c-0.9-0.3-0.8-3,0.2-7.3l-0.7-0.3c-3.9,9.1-9.7,11.1-4,2.4l-0.6-0.4
				c-4.3,6.1-4.9,4.2-4.1,1.7c1.6-5.3,2.7-7.2,7-7.2l0.1-0.7c-7.9-0.1-3-7.4,0.7-7.4c1.5,0,2.8,0.4,3.2,3.1l1,0.2l1.5-5.7l-0.7-0.2
				c-8.3,1.3-10-0.2-3.4-3.8l-0.4-0.6C419.6,934.8,419.5,933.1,425.3,927.7 M392.9,947.8c-2.4,0,3.9-8.2,7.7-8.2
				c5.7,0-3,10.1-5.4,10.1c-0.9,0-0.6-1.6,2.3-5.1l-0.5-0.4C394.5,947.1,393.5,947.8,392.9,947.8 M392,956.2c0-2.2,5.4-6.7,7.4-6.7
				c0.7,0,0.8,0.8-0.5,2.5l0.6,0.5c2.9-2.3,6.8-5.4,8.6-8.7c-4.5,0-4.3-2.5,1.1-3v-0.6c-2.9-1.1-6.2-2.7-8.6-4.3l-0.5-0.3
				c-5.8,5.3-7.4,5.8-9.8,1.5l-0.6,0.3c1.3,4.7,1.5,9.7-3.3,8.7l-0.2,0.6c3,1.3,2.8,4.2-2.1,9l0.4,0.4c4.7-4.1,6-0.3,1.8,3.5
				l0.4,0.5c2.7,0.2,5.7,1,7.8,2.5l0.6,0.4c3-2.7,6.2-3.5,10.2-4.6l-0.1-0.9c-1.3,0.1-2.5-1.8-1.6-6l-0.7-0.2
				c-2.2,4.4-5.2,7.7-7.3,7.7c-1.2,0-1.4-1.2,1.4-4l-0.6-0.5C393.6,957.8,392,957.5,392,956.2 M360.6,945.9l-0.3,0.6
				c3.1,1.3,3.9,3.5-3.5,9.9l0.4,0.6c6.2-5.2,4.7,0.9-1.5,3.9l0.3,0.6c3.7-2.1,8.2-2,5.9,0.5l0.4,0.5c2-1.3,4.1-1.8,6.9-1.5l0.3-0.6
				c-1.2-0.2-0.5-2,1.3-4.6l-0.5-0.4c-0.9,0.7-2.1,1.3-3.4,1.3c-5.5,0,5.4-15.1,9.5-15.1c1.2,0,1.6,0.8,1.6,2.3
				c0,2.6-1.7,5.7-6.4,10.2l0.5,0.4c2.5-2.4,3.3-2.9,3.9-2.9c1.3,0-2.1,6.6-5.9,9.2l0.4,0.6c4-2.4,6.9-1.6,4.6,0.5l0.3,0.6
				c1.8-1,4.5-1.5,5.7-1.5l0.3-0.7c-3.1-3.9-2.6-7,0.7-6.7l0.1-0.7c-2.7-0.8-2.9-1.9,2-6.1l-0.4-0.6c-3.9,2.4-0.6-4.2,2.3-7.1
				l-0.6-0.6c-6.7,6.9-8.4,2.3-1.1-1.7l-0.3-0.7c-1.7,0.6-6.7,1.5-8.9,1.3h-0.8c-1.5,2.9-6,9.4-7,9.4c-2.2,0,4.7-9.4,6.2-11.1
				l-0.4-0.7c-4.8,3.4-1.7-4,4.3-9l-0.4-0.7c-5.1,3.5-8.6,2.2-8.1,0c-2.3,1.5-4.7,3.7-6.2,5.2l0.4,0.7c3.4-2.3,4.8-0.3,3.7,3.3
				c-1.3,4.4-2.2,5.6-4.5,2.2l-0.6,0.4C365.3,944.1,364.6,946.3,360.6,945.9 M357.4,927.7l-0.3-0.7c-2.4,1-5.4,2.6-7.7,4.1
				c0.6,2.7-0.2,4.7-3,1.8l-0.6,0.5c3.3,3.4,2,5.4-3,3.9l-1.5,5.7l0.7,0.2c0.7-1.7,1.9-3.4,3.2-3.4c2.6,0,1.5,6.8-2.9,6.1l-0.2,0.6
				c3.7,1.4,3.2,4.3-1.7,7.5l0.4,0.5c4.2-2.2,2.4,1.2,0.1,4l0.4,0.5c2.2,0,4.6,1.9,6.8,3.9c3.2-1.7,5.8-2.6,8.2-3.4l0-0.7
				c-0.9-0.3-0.8-3,0.2-7.3l-0.7-0.3c-3.9,9.1-9.7,11.1-4,2.4l-0.6-0.4c-4.3,6.1-4.9,4.2-4.1,1.7c1.6-5.3,2.7-7.2,7-7.2l0.1-0.7
				c-7.9-0.1-3-7.4,0.7-7.4c1.5,0,2.8,0.4,3.2,3.1l1,0.2l1.5-5.7l-0.7-0.2c-8.3,1.3-10-0.2-3.4-3.8l-0.4-0.6
				C351.6,934.8,351.5,933.1,357.4,927.7 M327,962.8c3.3-1.7,6.7-2.6,9.1-2.8l0.4-0.6c-2.9-2.4-1.3-6.4,1.9-4.9l0.4-0.8
				c-1-0.7-2.1-2.4-4.8-9.3l-0.7,0.4c1.8,7-3.5,1.4-3.5-3.1c0-1.7,0.7-2.6,2.2-2.6c2.1,0,5.7,2.9,5.9,7.8l0.8,0.1
				c0.5-2,1.6-5.2,2-6.6c-2.6-0.8-4.2-2.7,0.7-2.4l0.2-0.8c-3.2-0.1-5.9-0.8-8.1-1.7c-3.2,2.3-6.5,3.9-9.7,5.5l-0.1,0.7
				c2.2,1.3,2.1,4.7-0.3,4.8l0,0.7c2.5,1,2.7,3,4.7,7.5l0.8-0.4c-2.9-9.9,3.7-1.1,3.5,2.3c0,1.4-0.7,2.6-3,2.6c-2.4,0-5.5-3.4-6-8
				l-0.6-0.2l-2.5,5.7c2.4,1.7,2.6,3.2-0.9,2.9l-0.1,0.7C321.8,960.4,325.6,961.6,327,962.8 M305.4,947.8c-2.4,0,3.9-8.2,7.7-8.2
				c5.7,0-3,10.1-5.4,10.1c-0.9,0-0.6-1.6,2.3-5.1l-0.5-0.4C307,947.1,306,947.8,305.4,947.8 M304.6,956.2c0-2.2,5.4-6.7,7.4-6.7
				c0.7,0,0.8,0.8-0.5,2.5l0.6,0.5c2.9-2.3,6.8-5.4,8.6-8.7c-4.5,0-4.3-2.5,1.1-3v-0.6c-2.9-1.1-6.2-2.7-8.6-4.3l-0.5-0.3
				c-5.8,5.3-7.4,5.8-9.8,1.5l-0.6,0.3c1.3,4.7,1.5,9.7-3.3,8.7l-0.2,0.6c3,1.3,2.8,4.2-2.1,9l0.4,0.4c4.7-4.1,6-0.3,1.8,3.5
				l0.4,0.5c2.7,0.2,5.7,1,7.8,2.5l0.6,0.4c3-2.7,6.2-3.5,10.2-4.6l-0.1-0.9c-1.3,0.1-2.5-1.8-1.6-6l-0.7-0.2
				c-2.2,4.4-5.2,7.7-7.3,7.7c-1.2,0-1.4-1.2,1.4-4l-0.6-0.5C306.1,957.8,304.6,957.5,304.6,956.2 M278.4,948c-1.7,0,1-5.7,8.1-14.7
				c0,3.9-0.9,7-3.4,10.7l0.4,0.4c3.1-5.1,5.4-2.7,2.6,1.6c-2.1,3.2-5.2,2.4-3.1-0.8l-0.5-0.4C280.4,947.5,279.5,948,278.4,948
				 M269.3,961.5l0.3,0.5c2-1.1,4.9-1.3,8.4-0.9l0.1-0.9c-1.2-0.1-3.1-1.3,0.7-5.1l-0.7-0.6c-2,1.9-3.3,2.6-5.2,2.6
				c-1.5,0-1.7-1.5-0.4-3.4c1.7-2.2,3.8-3.4,6.1-3.4c2,0,2.9,1,1.3,2.4l0.7,0.6c6.2-5.2,11.9-0.3,1.1,7.7l0.3,0.6
				c6-2.6,8.1-2.1,6-0.5l0.2,0.9c3.6-1.3,5-1.3,7.6-1l0.3-0.8c-4.5-3.1-6.1-12.3-0.5-3.2l0.7-0.6c-6.4-9.6-6.1-12.9-2.3-12.7v-0.9
				c-3-0.4-5.2-9.4-1.1-13.6l-0.7-0.6c-3.2,3-6.4,2.3-2.7-1.2l-0.7-0.6c-3.1,2.8-7,5.6-10.1,7.6l0.4,0.8c6.4-2.8-0.9,6.9-4.7,6.2
				l-0.3,0.9c2.8,1.1,1.5,3.9-7.1,10.4l0.5,0.6c2.6-1.7,4.6-0.5-4.1,7.8l0.3,0.6C269.2,959.1,271.3,959.5,269.3,961.5 M243.1,947.6
				c0-3.4,4.2-7.7,7.8-7.7c1.5,0,2.8,0.4,3.3,1.3c-1.1,4.5-8.9,15.5-10.7,15.5c-1.6,0-2-3.9,5.3-13.1l-0.5-0.4
				c-2.4,2.8-4.3,4.9-4.8,4.9C243.2,948.1,243.1,947.9,243.1,947.6 M240.3,958.9c1.1,0.4,2.1,1,3,1.9c2.2-3.6,7.2-9.4,8.1-9.4
				c0.6,0-0.4,4.1-6,10.3l0.5,0.5c5.1-5.6,1.1,5.6-2.3,5.6c-1.3,0-1.6-0.9-0.4-2.7l-0.5-0.5C237.8,969.6,235.8,967.4,240.3,958.9
				 M237.1,957.8l0.5,0.6c0.5,0,1,0,1.6,0.1c-1.9,3.4-4.8,7.7-7.8,9.9l0.2,0.8c1.9,0.2,4,1.3,4.9,2.6l0.6,0.9
				c3.6-2.5,10.3-3.8,14.4-3.8l0.6-0.4c-0.5-2.1-0.4-4.4,0-6.2c0.7-2.5,2-3.9,3.1-2.4l0.6-0.3c-2.6-5.8-1.4-9,2.6-8.2l0.2-0.6
				c-2.4-1.8-2.9-8.1,3.1-11.4l-0.2-0.7c-6.4,3.5-7.5,0.7-2.2-1.7l-0.3-0.6c-3.1,0.7-5.1,0.3-6.9-0.5l-0.6-0.3
				c-6.9,6.4-9.4,6.6-11.8,2.1l-0.6,0.3c1.3,3.5,1.5,8.7-3,7.9l-0.2,0.6c2.6,1.3,3.4,3.4-3.1,11l0.5,0.4
				C238.5,952.4,239.5,954.3,237.1,957.8 M217.3,946.9c-1.3,0,0.1-4.4,5.2-10.7l-0.5-0.4c-4.5,3.4-6.1,1.9-5.5-0.3
				c-2.8,1.9-4.8,4-6.2,6l0.4,0.5c5.4-4.9,4.6,4.4-0.3,3.9l-0.3,0.6c3.1,1.3,3.9,3.5-3.6,9.9l0.4,0.6c6.2-5.2,4.7,0.9-1.5,3.9
				l0.3,0.6c3.7-2.1,8.3-2,5.9,0.4l0.4,0.5c2-1.3,4-1.7,6.9-1.4l0.3-0.6c-1.2-0.2-0.6-2,1.3-4.6l-0.5-0.4c-0.9,0.7-2.1,1.3-3.4,1.3
				c-5.5,0,5.4-15.1,9.5-15.1c1.2,0,1.6,0.8,1.6,2.3c0,2.2-1.8,5.7-6.5,10.2l0.5,0.4c2.6-2.4,3.3-2.9,3.9-2.9c1.4,0-2.1,6.6-5.9,9.2
				l0.4,0.6c4-2.4,7-1.6,4.7,0.5l0.3,0.6c1.8-1,4.5-1.5,5.7-1.5l0.3-0.7c-3.1-3.9-2.6-7,0.6-6.7l0.2-0.7c-2.7-0.8-3-1.9,2-6.1
				l-0.4-0.6c-3.9,2.4-0.7-4.2,2.2-7.3l-0.5-0.5c-6.7,6.9-8.4,2.2-1.2-1.7l-0.3-0.6c-1.6,0.6-6.6,1.4-8.8,1.3l-0.8,0
				C222.7,940.4,218.3,946.9,217.3,946.9 M202.8,932.5l0.4,0.6c2-2.5,3.1-2.1,2.6,1.7l0.8-0.5l3.6-2.2l0.7-0.4
				c-0.5-1.3-0.5-2.6-0.2-4.3l-0.5-0.5c-2.6,2.8-3.3,1.7-2.1-1.6l-0.7,0.4l-3.6,2l-0.7,0.4C203.4,929.5,203.2,930.8,202.8,932.5
				 M193.8,960.9l0.3,0.6c3.7-2.1,7.8-1.8,5.1,0.4l0.4,0.5c1.8-1,3.9-1.4,5.1-1.4l0.2-0.7c-3.2-1.9-2.6-7.3,0.7-6.9l0.2-0.6
				c-2.3-0.8-3.4-3,2.2-7.8l-0.4-0.6c-3.9,2.4-2-2.8,2.4-8.2l-0.6-0.5c-4.5,3.4-5.6,2-5-0.2c-1.8,1.5-5.5,4.6-6.3,5.9l0.3,0.6
				c2.8-2.8,3.8-0.9,3.2,1.2c-0.4,1.5-1.7,3-3.7,2.8l-0.2,0.6c3.7,1,1.7,4.7-3.6,9.9l0.4,0.5C200.5,951.2,198.6,958.1,193.8,960.9
				 M190.9,961.9l0.5-0.4c-1.6-2,0.2-5.5,1.5-7.4l-0.5-0.4c-2.2,3-4.6,4.4-6.3,4.4c-5.1,0,3.2-13.1,5.9-13.1c1.2,0,1.6,2-1.2,6.2
				l0.5,0.4c3.1-3.6,5.1-7.8,6.2-12.4l-0.5-0.5c-2.2,1.8-3.9,1.6-2.6-2.1l-0.7-0.4c-2.5,5.1-7.6,13-8.6,13c-1.1,0,2.7-9,5.6-12.8
				l-0.6-0.5c-4.4,3.4-5.5,2-5-0.2c-1.8,1.5-4.4,3.6-6,5.8l0.4,0.6c2.7-2.5,3.8-1.3,3.6,0.4c-0.2,1.7-1.6,3.8-3.9,3.6l-0.2,0.6
				c3.1,1.3,3,3.9-3.6,9.9l0.4,0.5c7.1-5.6,4.6,0.9-1.5,3.9l0.3,0.6c3.7-2.1,8.2-2,6,0.4l0.4,0.5C184,961,189.2,961,190.9,961.9
				 M157.3,954.1c0.4-1.6,0.9-2.1,2.6-1.1l0.3-0.6c-2.2-1.6-1.2-4,3.4-8.6l-0.5-0.5c-2.1,1.9-3.6,2.8-4.1,2.8
				c-1.8,0,1.5-6.1,7.7-6.1c2.3,0,3.9,1.8,3.1,4.4c-0.3,1.1-1.4,1.7-3.2,1l-0.4,0.6c1.7,0.9,1.5,2.2-3.3,8l0.5,0.4c2.2-2,3.5-3,4-3
				c3,0-0.2,7-7,7C158.1,958.4,156.8,956.3,157.3,954.1 M156,936.9l-0.6,0.3c1.4,3.7,1.4,9.7-3.4,8.7l-0.2,0.6
				c3.1,1.3,2.4,4.1-2.5,9l0.4,0.5c4.7-4.1,6-0.3,2.1,3.5l0.4,0.5c2.9,0.2,6,1.2,8.3,2.6l0.6,0.4c5.8-5.3,8-5.7,10.2-1.6l0.6-0.3
				c-1.4-3.7-1.4-9.8,3.5-8.7l0.2-0.6c-3.1-1.3-2.4-4.1,2.5-9l-0.4-0.5c-4.7,4.1-6,0.8-2.1-3l-0.4-0.5c-2.8-0.3-6.6-1.4-8.9-2.9
				l-0.5-0.3C160,940.8,158.5,941.4,156,936.9 M141.5,961.7l0.2,0.6c2.6-0.4,4.5-1,6.7-2.1l-0.2-0.7c-2.4,0.7-3.7-1.2-3-3.9
				c0.4-1.7,1.3-3.3,3.1-3.3l0.2-0.6c-2.3-1-3-3.4,3-7.9l-0.4-0.6c-3.8,3-2.5-3.2,2.2-6.9l-0.3-0.6c-3.6,2.2-1.7-4.3,3.7-9.4
				l-0.4-0.6c-4.7,3.5-7.7,2.2-7.1,0c-2.3,1.5-4.7,3.7-6.3,5.2l0.4,0.6c3.4-2.2,4.7-1.3,3.5,3.4c-1.2,4.6-1.7,5.8-3.5,2.9l-0.6,0.3
				c2.6,5.4,2.2,8.6-1.8,7.8l-0.2,0.7c3.7,1.3,3,3-3.1,8.8l0.4,0.6c4.5-3.8,4.3,0.8-2.2,4.8l0.2,0.7
				C142.2,959.3,143.5,960.4,141.5,961.7 M119.5,957.1c1.9-5.9,9.2-17,13-17c1.5,0,0.1,5-7.7,14.6l0.5,0.4c2.5-2.9,4.8-5,5.3-5
				c1.4,0-2.6,8.2-7.5,8.2C121.5,958.3,120,957.9,119.5,957.1 M111.4,960.7l0.2,0.7c2.7-0.8,1.9,6.6-3.9,9.6l0.4,0.6
				c6.4-3.1,8-1.3,6.4,0.4l0.4,0.6c2.4-1.5,5.6-1.9,9.1-1.4l0.2-0.7c-2.6-0.8-2.6-3,1.3-7.1l-0.4-0.5c-7.2,6.6-8.9,5.6-7.9,2.3
				c0.7-2.5,1.3-3.9,2.4-4c0.7,0,1.7,0.5,3,1.9l0.7-0.6c6.9-6.4,8.8-6,10.9-1.4l0.6-0.3c-1.3-3.7-1.5-8.8,3-8l0.2-0.7
				c-2.6-1.3-3.6-3.4,3.2-11l-0.5-0.5c-5.5,5.1-6.1,3.4-1.5-2.8l-0.4-0.5c-2,0.6-5.5,0.6-6.6-0.9l-0.6-0.8c-3.4,5.3-7.2,9.9-8.2,9.9
				c-1.1,0,0.3-4.7,5.8-14.7l-0.6-0.3c-4.8,6.3-7.7,9-10.3,6.1l-0.7,0.5c2.8,3.4,2.8,9.3-1.7,8.6l-0.2,0.7c3.8,1.6,2.2,5.3-2.6,8.6
				l0.3,0.6C116.2,953.6,116.4,958.7,111.4,960.7 M99,955.5l0.4,0.6c1.4-1.4,5.5,0.7,0.5,4.7l0.4,0.6c3.8-1.7,5.8-1.1,3.9,0.5
				l0.3,0.6c1.8-1,4.4-1.9,6.1-1.5l0.3-0.7c-1.7-0.3-1.6-1.6-0.4-4.1l-0.5-0.5c-3.7,3.1-4.9-1.1-0.7-4.7l-0.4-0.6
				c-3,2.3-4,1.7-4,0.7c0-2.1,2.2-5.6,7.9-9c0-2.1,1.3-4.3,3-5.8l-0.5-0.5c-3.6,3.2-6.6,2.5-5.4,0c-2.4,1.7-4.2,3.3-5.6,5.2l0.4,0.5
				c0.7-0.4,1.4-0.8,2-0.8c2.5,0,0,6-3,6c-0.7,0-1.6-0.4-1.6-1.4c0-1.2,0.9-2.2,1.6-2.8l-0.4-0.5c-1.7,1.3-2.8,1.1-2.8-0.5
				c0-1.9,0.6-3.1,3-5.2l-0.4-0.5c-3.9,2.4-5.6,1.7-5.1-0.3c-1.8,1.5-4.2,3.5-6.1,5.9l0.4,0.5c3.8-2.8,6.1,2,2.1,6l0.4,0.6
				c2.6-2.2,3.7-1.5,3.7-0.6c0,1.4-3.1,5.6-9,8.7c-0.5,1.7-1.1,2.9-2.1,4.2l0.5,0.7c3.9-1.8,7.9-1.2,7.2,0.5l0.7,0.3
				c0.7-1.7,1.7-3.6,2.6-5l-0.4-0.6c-0.7,0.6-1.6,1.3-2.3,1.3c-0.8,0-1.2-0.4-1.2-1.1c0-2.3,6.2-8.2,6.2-4.2
				C100.4,953.3,99.6,954.9,99,955.5 M60.6,961.1l0.4,0.8c5.4-2.8,7.7-2.2,5.6-0.1l0.5,0.8c2.1-1.3,11.4-1.3,16.3,0.2l0.4-0.8
				c-5.2-1.5-3.3-3.7,1.9-1.4l0.8-0.4c1.1-3.3,2-7.9,2-11.2l-0.9-0.1c-3,9-7.5,10.9-4.7,5.2l-0.8-0.5c-8.3,7.5-15.7,6-5.3-4.5
				l-0.7-0.5c-3.2,2.5-3.1,0.2-1.1-1.7c2.5-2.2,8.9-4.1,4.4,2.8l0.8,0.5c1.9-3.4,3.9-4.7,6-3.7l0.4-0.8c-1.7-1.1-2.5-1.9-0.6-5
				l-0.8-0.6c-7.7,2.6-12.5,3.7-5.6-2l-0.6-0.7c-2.2,1.4-3.3,0-1.6-2c3.7-4.3,7.5-3.8,4.1-0.1l0.6,0.6c4.7-4.4,7.7-3.1,4.3,2.1
				l0.7,0.6c2.4-2.5,4.3-5.2,6-8l-0.7-0.5c-2.4,1.7-4.8,0-1.9-2l-0.5-0.8c-6,3.7-11.6,3.7-8.4,1.3l-0.5-0.8c-3.5,1.9-9.3,1.8-12,1.5
				l-0.3,0.9c1.1,0.4,0.5,2.3-2,5.1l0.6,0.7c4.5-5,7.4-4.4,4.5,2.4c-0.4-0.5-1-1.3-1.4-2.1l-0.9,0.4c1.8,6.4,1.1,8.5-1.6,8.5
				l-0.2,0.9c2.8,1.1,2.3,3.4-5.8,10.2l0.5,0.7C68.9,951.3,69.9,954.8,60.6,961.1"/>
			<path style="clip-path:url(#SVGID_00000130619849879343114290000014624591218072807596_);fill:#FFFFFF;" d="M359.2,383.7
				c1-2.6,8.4-11,25.7-26.2c19.4-16.8,31-25.7,34.1-26.2c0,0.5-1,2.1-4.7,6.8c-4.7,5.2-12.6,12.6-25.2,24.7
				C375.5,374.7,362.9,382.6,359.2,383.7 M357.6,374.7c-0.5-1.6,0-5.2,0-9.5v-1.6l2.1-34.7c0.5-2.6,0.5-4.2,1-4.7h2.1h3.7l27.8,3.1
				c4.7,0.5,6.3,1.6,6.3,2.1c0.5,0.5-0.5,2.6-5.2,7.3l-28.9,29.4C362.3,370.5,358.7,374.2,357.6,374.7 M297.8,329.1
				c0-0.5,0.5-1,5.2-1.6l29.9-3.1h3.7h1.6c1,0.5,1,2.1,1,4.7l2.1,34.7l0.5,1.6c0,4.2,0.5,7.9,0,9.5c-1.6-0.5-4.7-4.2-8.9-8.4
				l-28.9-29.4C302,334.8,297.2,330.1,297.8,329.1 M199.1,337.5h1.6c43.1-6.8,60.9-4.2,81.9,12.6l44.1,34.1c4.7,3.7,6.8,5.8,6.8,7.9
				c0,1.6-2.1,3.7-5.8,7.3c-20.5,17.9-44.1,33.1-67.2,47.8l-1.6,1l12.1,14.2l1-1c21.5-19.4,37.3-34.1,48.8-45.1
				c6.3-5.2,11.5-10,14.7-13.1c-2.6,3.7-6.8,8.9-11.6,15.8c-10,12.6-23.1,29.9-40.4,53.5l-1.1,1l14.7,10.5l2.1-3.7
				c7.4-13.7,17.9-32,27.3-47.2c11-18.9,15.8-25.2,17.9-27.3c-1,3.7-3.7,11.5-6.3,17.8c-4.7,12.1-10.5,27.3-12.1,37.8l8.9,103.4
				l0.5,1.1h6.8v-60.9c0-43,4.7-84,7.4-94c2.6,10,6.8,50.9,6.8,94v60.9h7.3l8.9-104v-0.5c-1.1-10.5-6.8-25.7-11.6-37.8
				c-2.6-6.3-5.8-14.2-6.3-17.8c2.1,2.1,5.8,7.9,15.2,23.6c8.4,13.6,17.9,30.4,25.2,43.6c2.1,3.7,4.2,6.8,5.8,10l0.5,1l14.7-10.5
				l-0.5-1c-16.8-22.6-29.9-39.4-39.4-52c-5.8-7.3-10-13.1-13.1-17.3c3.7,3.7,9.5,8.4,16.3,14.7c11.6,10.5,27.3,25.2,47.8,43.6l1,1
				l12.1-14.2l-1.6-1c-23.1-14.7-47.2-29.9-67.2-47.8c-3.7-3.1-5.8-5.8-5.8-7.9c0-1.6,2.6-4.2,6.3-6.8l45.1-34.7
				c22.6-17.3,41-20.5,82.4-14.7h1.1v-16.8h-1.1c-82.9,1-129.1-1.6-139.1-3.7c8.4-2.1,44.1-5.2,139.1-5.8h1.1v-18.9l-132.8,15.2
				c-3.1,0.5-5.8,0.5-6.8,0c-0.5-0.5-0.5-3.2-0.5-5.8c7.4-174.8,12.1-185.3,16.3-210.5c1.1-7.3,2.1-14.7,3.2-24.2l0.5-1.6l-23.1-2.1
				v1.6c0.5,25.7-0.5,112.9-2.1,194.2c-2.1,75.1-4.2,122.3-5.8,137c-1.6-14.7-3.7-61.9-5.8-137c-2.1-81.4-3.1-168.5-2.6-194.2v-1.6
				l-22.6,2.1V65c1.1,9.5,2.6,16.8,3.7,24.2c4.2,25.2,8.9,35.7,15.8,210.5c0.5,2.6,0.5,5.2,0,5.8c-1.1,0.5-3.7,0.5-6.8,0
				l-132.3-15.2v18.9h1.6c88.7,0,129.1,3.2,136.5,5.8c-2.6,0.5-11,2.1-36.2,3.1c-18.4,1.1-50.4,1.6-100.3,1.1h-1.6V337.5z
				 M314.6,357.4c17.3,15.2,24.7,23.6,25.7,26.2c-3.7-1-16.3-8.9-29.9-21c-12.6-12.1-20.5-19.4-25.2-24.7c-3.7-4.7-4.7-6.3-4.7-6.8
				C283.6,331.7,294.6,340.6,314.6,357.4"/>
			<path style="clip-path:url(#SVGID_00000130619849879343114290000014624591218072807596_);fill:#FFFFFF;" d="M634.6,1132.6
				c0.5-1.5,0.9-3.2,0.9-4.4c0-1.1-0.6-1.6-1.3-1.6c-1,0-3.3,2-7,7.4l-0.4,0l2.9-8l-7.1,3.6v0.4l0.8,0.2c1.5,0.3,2,1.1,1.6,2.5
				l-2.2,7.7c-0.8,2.7-2.6,4.8-4.7,5.5l0,0.5h8.3l2.1-1.7v-0.2h-2.1c-1.3,0-1.9-0.6-1.6-1.7l1.3-4.5c3.3-5.4,5-7.4,6.1-7.4
				c0.6,0,1,1.2,0.7,3.3l0.3,0.1L634.6,1132.6z M606.1,1140.3c0-5.5,3.4-11.2,6.7-11.2c1.8,0,2.7,1.2,2.7,4.3
				c0,5.5-3.4,11.2-6.9,11.2C607,1144.6,606.1,1143.4,606.1,1140.3 M607.6,1147.1c5.7,0,11.2-7.8,11.2-14.6c0-4.2-1.8-5.8-4.8-5.8
				c-5.7,0-11.2,7.8-11.2,14.6C602.9,1145.4,604.6,1147.1,607.6,1147.1 M602.6,1132.6c0.5-1.5,0.9-3.2,0.9-4.4
				c0-1.1-0.6-1.6-1.3-1.6c-1,0-3.3,2-7,7.4l-0.4,0l2.9-8l-7.1,3.6v0.4l0.8,0.2c1.5,0.3,2,1.1,1.6,2.5l-2.2,7.7
				c-0.8,2.7-2.6,4.8-4.7,5.5l0,0.5h8.3l2.1-1.7v-0.2h-2.1c-1.3,0-1.9-0.6-1.6-1.7l1.3-4.5c3.3-5.4,5-7.4,6.1-7.4
				c0.6,0,1,1.2,0.7,3.3l0.3,0.1L602.6,1132.6z M588.5,1132.6c0.5-1.5,0.9-3.2,0.9-4.4c0-1.1-0.6-1.6-1.3-1.6c-1,0-3.3,2-7,7.4
				l-0.4,0l2.9-8l-7.1,3.6v0.4l0.8,0.2c1.5,0.3,2,1.1,1.6,2.5l-2.2,7.7c-0.8,2.7-2.6,4.8-4.7,5.5l0,0.5h8.3l2.1-1.7v-0.2h-2.1
				c-1.3,0-1.9-0.6-1.6-1.7l1.3-4.5c3.3-5.4,5-7.4,6.1-7.4c0.6,0,1,1.2,0.7,3.3l0.3,0.1L588.5,1132.6z M560,1140.3
				c0-5.5,3.4-11.2,6.7-11.2c1.8,0,2.7,1.2,2.7,4.3c0,5.5-3.4,11.2-6.9,11.2C560.9,1144.6,560,1143.4,560,1140.3 M561.5,1147.1
				c5.7,0,11.2-7.8,11.2-14.6c0-4.2-1.8-5.8-4.8-5.8c-5.7,0-11.2,7.8-11.2,14.6C556.8,1145.4,558.5,1147.1,561.5,1147.1
				 M541.3,1145.7l0,0.6h9.5l2.1-1.5l0-0.5h-2.2c-1.2,0-1.7-0.7-1.2-2.6l4.5-15.6c0.8-2.8,1.9-4.4,4.5-4.8l0-0.6h-8.6l-2.1,1.5
				l0.1,0.5h2.2c1.3,0,1.7,0.7,1.1,3l-1.7,6.1h-11.1l1.6-5.7c0.8-2.8,1.9-4.4,4.5-4.8l0-0.6h-8.6l-2.1,1.5l0.1,0.5h2.2
				c1.3,0,1.7,0.7,1.1,3l-4.4,15.2c-0.8,2.8-2.5,4-5.4,4.8l0,0.6h9.5l2.1-1.5l0-0.5h-2.2c-1.2,0-1.7-0.7-1.2-2.6l2.2-7.9h11.1
				l-2,7.1C545.9,1143.7,544.2,1145,541.3,1145.7 M511.4,1147.1c3.1,0,6.6-3.1,8.9-8.2l-0.3-0.3c-2.9,4-5.3,5.5-7,5.5
				c-1.4,0-2.3-1.1-2.3-3.5c0-5,4-11.7,7.3-11.7c1.4,0,1.8,1,1.6,4.5l0.3,0.1c0.8-0.8,1.4-1.7,2.1-2.6c0.2-1.3,0.3-2.7,0.3-3.7
				c-0.5-0.3-1.5-0.6-2.4-0.6c-6.5,0-12.5,8.7-12.5,15.2C507.4,1145.1,508.9,1147.1,511.4,1147.1 M494.8,1145.8l0,0.5h7.5l2.1-1.7
				v-0.2h-2.2c-0.9,0-1.1-0.2-0.8-1.2l5.4-17.2l-7.2,3.6v0.4l0.8,0.2c1.5,0.3,2.1,1.1,1.6,2.5l-2.7,8.4
				C498.4,1143.7,496.9,1145.1,494.8,1145.8 M509.4,1118.2h-3.3l-2.2,2.1l0.2,0.2l1.9,3.4C507.5,1122.5,508.9,1120,509.4,1118.2
				 M475.1,1145.8l0,0.5h7.7l2.1-1.7v-0.2h-2.6c-0.9,0-1.2-0.2-0.8-1.2l2.2-7.1c3.8-3.7,6.9-6.1,7.8-6.1c0.4,0,0.6,0.3,0.6,0.7
				c0,0.5-0.3,1.4-0.9,3.6l-3.8,13l7.4-2.4l-0.1-0.5h-1.1c-2,0-2.5-0.7-1.7-3.5l2.3-7.3c1-3,1.3-4.2,1.3-5.2c0-1.2-0.6-1.7-1.7-1.7
				c-2,0-6.3,3.6-9.4,7l0-0.1h-0.2c1.2-2.3,1.6-4,1.6-5.2c0-1.2-0.6-1.7-1.7-1.7c-2.1,0-6.5,3.4-9.6,6.8h-0.3l2.7-7.4l-7.3,3.6v0.4
				l0.8,0.2c1.5,0.3,2,1.1,1.6,2.6l-2.3,7.6c-0.8,2.7-2.6,4.8-4.7,5.5l0,0.5h6.9l2.1-1.7v-0.2h-1.6c-0.9,0-1.1-0.2-0.8-1.2l2.1-7.1
				c3.8-3.7,6.9-6.1,7.8-6.1c0.4,0,0.6,0.3,0.6,0.7c0,0.5-0.3,1.4-0.9,3.6l-1.9,6.5C478.8,1143.3,477.1,1145.2,475.1,1145.8
				 M458.3,1147.1c3.1,0,6.4-2.7,6.4-5.7c0-1.2-0.7-2.7-1.3-3.7l-2-3c-0.5-0.8-1.1-2-1.1-3.1c0-1.7,1.7-2.5,3-2.5
				c2,0,2.4,1.5,2.2,4.8l0.4,0.1c0.6-0.6,1.3-1.3,1.8-2c0.3-1.6,0.4-3.4,0.4-4.8c-1-0.3-1.7-0.4-3.2-0.4c-3.2,0-7.4,2.8-7.4,6.3
				c0,1.2,0.5,2.6,1.2,3.7l2.1,3.2c0.6,0.9,1,1.7,1,2.6c0,1.3-0.9,2.4-2.6,2.4c-2.4,0-4-1.9-3.6-6.2h-0.4c-0.7,1.3-1.3,2.6-1.8,3.9
				c0,1.1,0.2,2.8,0.3,3.7C454.8,1146.8,456.2,1147.1,458.3,1147.1 M440.3,1140.3c0-5.5,3.4-11.2,6.7-11.2c1.8,0,2.7,1.2,2.7,4.3
				c0,5.5-3.4,11.2-6.9,11.2C441.2,1144.6,440.3,1143.4,440.3,1140.3 M441.8,1147.1c5.7,0,11.2-7.8,11.2-14.6c0-4.2-1.8-5.8-4.8-5.8
				c-5.7,0-11.2,7.8-11.2,14.6C437,1145.4,438.8,1147.1,441.8,1147.1 M423.6,1147.1c3.9,0,7.2-2.5,9.6-7.4l-0.5-0.3
				c-2.6,3.8-5.2,5.2-8,5.2c-3.1,0-4.8-2.1-4.8-6.3c-0.1-7.9,5.6-16.1,10.9-16.1c2.8,0,4.4,2.2,3.7,6.4l0.3,0.1
				c0.9-1,1.6-1.9,2.3-2.9c0.2-2,0.1-3.7,0-5.3c-0.9-0.4-2.6-0.6-5.5-0.6c-8.4,0-15.5,9.9-15.5,18.5
				C416.2,1143.7,418.9,1147.1,423.6,1147.1 M393,1140.3c0-5.5,3.4-11.2,6.7-11.2c1.8,0,2.7,1.2,2.7,4.3c0,5.5-3.4,11.2-6.9,11.2
				C394,1144.6,393,1143.4,393,1140.3 M394.6,1147.1c5.7,0,11.2-7.8,11.2-14.6c0-4.2-1.8-5.8-4.8-5.8c-5.7,0-11.2,7.8-11.2,14.6
				C389.8,1145.4,391.6,1147.1,394.6,1147.1 M379.6,1147.2c2,0,4.7-1.8,8-6.4l-0.3-0.4c-2.1,2.1-4.7,3.6-6.1,3.6
				c-0.6,0-0.9-0.3-0.9-0.9c0-0.5,0.2-1.1,0.4-2l3.4-11.1h4l2.3-2.1v-0.4H385l2.1-7l-0.4,0l-4.5,7l-3.7,2.1v0.4h2.9l-3.7,12.4
				C376.8,1145.3,377.5,1147.2,379.6,1147.2 M360,1147.1c3.1,0,6.4-2.7,6.4-5.7c0-1.2-0.7-2.7-1.3-3.7l-2-3c-0.5-0.8-1.1-2-1.1-3.1
				c0-1.7,1.7-2.5,3-2.5c2,0,2.4,1.5,2.2,4.8l0.4,0.1c0.6-0.6,1.3-1.3,1.8-2c0.3-1.6,0.4-3.4,0.4-4.8c-1-0.3-1.7-0.4-3.2-0.4
				c-3.2,0-7.4,2.8-7.4,6.3c0,1.2,0.5,2.6,1.2,3.7l2.1,3.2c0.6,0.9,1,1.7,1,2.6c0,1.3-0.9,2.4-2.6,2.4c-2.4,0-4-1.9-3.6-6.2H357
				c-0.7,1.3-1.3,2.6-1.8,3.9c0,1.1,0.2,2.8,0.3,3.7C356.6,1146.8,357.9,1147.1,360,1147.1 M350.1,1134.2l-3.8,13l7.5-2.4l-0.1-0.5
				h-1.1c-2,0-2.5-0.7-1.7-3.5l2.3-7.3c1-3,1.3-4.2,1.3-5.2c0-1.2-0.6-1.7-1.7-1.7c-2.1,0-6.5,3.4-9.6,6.8H343l1.5-3.3l3.8-12.4
				l-7.2,3.6v0.4l0.8,0.2c1.5,0.3,2,1.1,1.6,2.6l-5,15.9c-0.8,2.7-2.6,4.8-4.7,5.5l0,0.5h7.7l2.1-1.7v-0.2h-2.4
				c-0.9,0-1.1-0.2-0.8-1.2l2.2-7.1c3.8-3.7,6.8-6.1,7.8-6.1c0.4,0,0.6,0.3,0.6,0.7C351,1131.2,350.7,1132.1,350.1,1134.2
				 M326.6,1147.2c2,0,4.7-1.8,8.1-6.4l-0.3-0.4c-2.1,2.1-4.7,3.6-6.1,3.6c-0.6,0-0.9-0.3-0.9-0.9c0-0.5,0.2-1.1,0.4-2l3.4-11.1h4
				l2.3-2.1v-0.4H332l2.1-7l-0.4,0l-4.5,7l-3.7,2.1v0.4h2.9l-3.7,12.4C323.9,1145.3,324.5,1147.2,326.6,1147.2 M308.9,1143.4l2.2-7
				c4.1-4.4,6.5-6.4,7.3-6.4c0.6,0,0.9,0.6,0.9,1.8c0,5.1-4,13-7.3,13C310.6,1144.7,309.5,1144.2,308.9,1143.4L308.9,1143.4z
				 M299.9,1153.7l0,0.5h9.8l2.1-1.8v-0.2h-3.5c-1.4,0-2-0.9-1.4-2.6l0.8-2.6c0.8,0.1,1.5,0.2,2.3,0.2c5.9,0,12.5-8.2,12.5-16.6
				c0-2.8-0.8-3.8-2.2-3.8c-2.4,0-6.5,4.4-8.4,6.7h-0.3l3.2-7.4l2.1-6.2l-0.3-0.1l-4.8,6l-3.6,11.2l-4.6,4.8l0.7,0.7l3.1-2.8
				l-2.8,8.6C303.9,1150.9,302,1153,299.9,1153.7 M292.5,1138.1c1.1-4.8,4.4-9.1,6.9-9.1c0.9,0,1.4,0.5,1.4,1.7
				C300.8,1133.7,297.4,1136.6,292.5,1138.1 M293,1147.1c3,0,6.9-2.5,9.6-7.8l-0.4-0.3c-2.9,3.3-5.8,5.1-8,5.1
				c-1.4,0-2.1-0.8-2.1-3.1c0-0.3,0-0.5,0-0.8c6.2-1.6,12.2-7.3,12.2-11.2c0-1.5-1-2.5-3.1-2.5c-6.3,0-12.5,8.8-12.5,15.2
				C288.8,1145.1,290.3,1147.1,293,1147.1 M268.9,1143.5l5.8-20.7h1.5c5.3,0,7.8,2.2,7.8,6.9c0,8.6-5.9,14.5-12,14.5
				C270.8,1144.1,269.4,1143.8,268.9,1143.5 M261.1,1145.7l0,0.6h9.5c7.9,0,16.9-5.9,16.9-16.9c0-5.1-3.3-8.7-9.2-8.7h-8.6l-2.1,1.5
				l0.1,0.5h2.2c1.3,0,1.7,0.7,1.1,3l-4.4,15.2C265.8,1143.7,264.1,1145,261.1,1145.7 M245.3,1147.1c3.1,0,6.6-3.1,8.9-8.2l-0.3-0.3
				c-2.9,4-5.3,5.5-7,5.5c-1.4,0-2.3-1.1-2.3-3.5c0-5,4-11.7,7.3-11.7c1.4,0,1.8,1,1.6,4.5l0.3,0.1c0.8-0.8,1.4-1.7,2.1-2.6
				c0.2-1.3,0.3-2.7,0.3-3.7c-0.5-0.3-1.5-0.6-2.4-0.6c-6.5,0-12.5,8.7-12.5,15.2C241.3,1145.1,242.8,1147.1,245.3,1147.1
				 M228.7,1145.8l0,0.5h7.5l2.1-1.7v-0.2h-2.2c-0.9,0-1.1-0.2-0.8-1.2l5.4-17.2l-7.2,3.6v0.4l0.8,0.2c1.5,0.3,2.1,1.1,1.6,2.5
				l-2.7,8.4C232.3,1143.7,230.8,1145.1,228.7,1145.8 M243.3,1118.2H240l-2.2,2.1l0.2,0.2l1.9,3.4
				C241.4,1122.5,242.8,1120,243.3,1118.2 M221.5,1147.2c2,0,4.7-1.8,8.1-6.4l-0.3-0.4c-2.1,2.1-4.7,3.6-6.1,3.6
				c-0.6,0-0.9-0.3-0.9-0.9c0-0.5,0.2-1.1,0.4-2l3.4-11.1h4l2.3-2.1v-0.4h-5.6l2.1-7l-0.4,0l-4.5,7l-3.7,2.1v0.4h2.9l-3.7,12.4
				C218.7,1145.3,219.4,1147.2,221.5,1147.2 M204.6,1138.8l4-12.9l-7.2,3.6v0.4l0.8,0.2c1.5,0.3,2.1,1.1,1.6,2.5l-2.4,7.6
				c-0.9,2.8-1.3,4.4-1.3,5.1c0,1.2,0.6,1.8,1.8,1.8c1.7,0,5.3-2.8,8.6-6.5h0.2l-2.3,6.6l7.7-2.8l-0.1-0.5l-1.3-0.1
				c-1.7-0.1-2.1-1.1-1.3-3.8l4.4-14.1l-7.2,3.6v0.4l0.8,0.2c1.5,0.3,2.1,1.1,1.6,2.5l-1.7,5.1c-3.2,3.8-5.5,5.8-6.6,5.8
				c-0.6,0-0.9-0.4-0.9-0.8C203.7,1142.1,203.8,1141.3,204.6,1138.8 M183.7,1141.8c0-6.1,4.1-12.8,7.4-12.8c1.3,0,2.3,0.4,2.9,1.2
				l-2.6,7.7c-3.9,4.1-6.1,5.9-6.8,5.9C184,1143.8,183.7,1143.3,183.7,1141.8 M182.8,1147.1c2.2,0,6.1-4.1,8.1-6.5h0.2l-2.2,6.6
				l7.4-2.8l-0.1-0.5l-1.3-0.1c-1.6-0.1-2.2-1-1.4-3.5l2.9-9.4c0.6-2,1.3-2.5,2.1-2.5v-0.3c-1.4-0.9-3.6-1.5-5.6-1.5
				c-5.9,0-12.5,7.1-12.5,16.6C180.4,1146.1,181.3,1147.1,182.8,1147.1 M168.9,1138.5l2.4,6.2c1.1,1.5,2.5,2.9,3.9,3.7l0.4-0.2
				l-1.8-4.8l0-0.1v0l4.7-16.9c0.9-3.1,2.2-4.4,5.4-5.1l0-0.6h-9.6l-2.1,1.5l0.1,0.5h2.2c1.8,0,2.6,0.7,2.1,2.8l-3.8,15l-5.8-15.3
				c-0.8-2-0.9-3.3-0.9-4.5h-6.1l-2,1.5l0.1,0.5h2.2c1.3,0,2,0.9,1.4,3l-4.4,15.2c-0.8,2.8-2.7,4-5.7,4.8l0.1,0.6h9.3l2.1-1.5l0-0.5
				h-2.5c-1.3,0-1.8-0.7-1.3-2.6l4.4-16.6L168.9,1138.5z M124.5,1145.8l0,0.5h7.7l2.1-1.7v-0.2h-2.6c-0.9,0-1.2-0.2-0.8-1.2l2.2-7.1
				c3.8-3.7,6.9-6.1,7.8-6.1c0.4,0,0.6,0.3,0.6,0.7c0,0.5-0.3,1.4-0.9,3.6l-3.8,13l7.4-2.4l-0.1-0.5h-1.1c-2,0-2.5-0.7-1.7-3.5
				l2.3-7.3c1-3,1.3-4.2,1.3-5.2c0-1.2-0.6-1.7-1.7-1.7c-2,0-6.3,3.6-9.4,7l0-0.1h-0.2c1.2-2.3,1.6-4,1.6-5.2c0-1.2-0.6-1.7-1.7-1.7
				c-2.1,0-6.5,3.4-9.6,6.8h-0.3l2.7-7.4l-7.3,3.6v0.4l0.8,0.2c1.5,0.3,2,1.1,1.6,2.6l-2.3,7.6c-0.8,2.7-2.6,4.8-4.7,5.5l0,0.5h6.9
				l2.1-1.7v-0.2H122c-0.9,0-1.1-0.2-0.8-1.2l2.1-7.1c3.8-3.7,6.9-6.1,7.8-6.1c0.4,0,0.6,0.3,0.6,0.7c0,0.5-0.3,1.4-0.9,3.6
				l-1.9,6.5C128.2,1143.3,126.4,1145.2,124.5,1145.8 M102.8,1140.3c0-5.5,3.4-11.2,6.7-11.2c1.8,0,2.7,1.2,2.7,4.3
				c0,5.5-3.4,11.2-6.9,11.2C103.7,1144.6,102.8,1143.4,102.8,1140.3 M104.3,1147.1c5.7,0,11.2-7.8,11.2-14.6c0-4.2-1.8-5.8-4.8-5.8
				c-5.7,0-11.2,7.8-11.2,14.6C99.6,1145.4,101.3,1147.1,104.3,1147.1 M99.3,1132.6c0.5-1.5,0.9-3.2,0.9-4.4c0-1.1-0.6-1.6-1.3-1.6
				c-1,0-3.3,2-7,7.4l-0.4,0l2.9-8l-7.1,3.6v0.4l0.8,0.2c1.5,0.3,2,1.1,1.6,2.5l-2.2,7.7c-0.8,2.7-2.6,4.8-4.7,5.5l0,0.5h8.3
				l2.1-1.7v-0.2h-2.1c-1.3,0-1.9-0.6-1.6-1.7l1.3-4.5c3.3-5.4,5-7.4,6.1-7.4c0.6,0,1,1.2,0.7,3.3l0.3,0.1L99.3,1132.6z
				 M72.7,1141.4l2.2-8l3.2,0.1c1.8,0.1,2.5,1,2.2,4l0.3,0.1c0.7-0.7,1.5-1.5,2-2.3c0.3-1.4,0.5-3,0.6-4.3c-1.7,0.5-3.8,0.7-6,0.7
				h-1.7l2.5-9h2.9c3.6,0,4.3,1.3,3.8,4.8l0.3,0.1c0.6-0.7,1.5-1.9,2-2.8c0.1-1.5,0.3-3,0.3-4.7c-2.4,0.3-3.9,0.5-6.8,0.5H73
				l-2.1,1.5l0.1,0.5h2.2c1.3,0,1.7,0.7,1.2,2.6l-4.5,15.6c-0.8,2.8-2.5,4-5.4,4.8l0,0.6h10.3l2.1-1.5l0-0.5h-2.4
				C72.8,1144.3,72.2,1143.4,72.7,1141.4"/>
			<path style="clip-path:url(#SVGID_00000130619849879343114290000014624591218072807596_);fill:#FFFFFF;" d="M635.6,1094.8
				c1.2-3,1.6-5.9,1.8-9.5l-0.5-0.1c-1.5,4.2-4.7,6.7-9.6,6.9h-1.6c-2.4,0-3.6-0.8-3.6-3.1v-7.9l3.8,0.1c3.9,0.1,5,1.1,5.2,3.1h0.5
				c0.8-2.2,0.9-4.6,0.6-6.4c-2.1,0.6-5.5,0.9-8.3,0.9h-1.8v-9.2l5.6,0.1c4.8,0.1,6.9,1.4,7,4.8h0.5c1-2.7,0.9-5.5,0.5-7.7
				c-2.9,0.4-6.3,0.6-10.1,0.6h-12.7c0,0.8,0,1.6,0,2.4h1.9c1.6,0,2.6,0.8,2.6,3v15.4c0,3.2-1.8,4.7-5,5.5l0,0.6h16
				C630.9,1094.3,633.4,1094.5,635.6,1094.8 M597.5,1095.2c3.2,0,7.1-0.7,9.4-1.8c1-2.6,1.1-6.4,0.9-9.1l-0.5,0
				c-1.7,5.6-5,8.4-9.7,8.4c-5.6,0-9.4-4.4-9.4-11.8c0-8.2,5.6-11.9,10.2-11.9c3.8,0,7.2,2.4,7.9,6.8h0.4c0.8-2.2,1.1-5.5,0.5-7.7
				c-2.2-1-5.1-1.6-8.1-1.6c-9.9,0-16.1,7-16.1,15.1C583,1090.4,589,1095.2,597.5,1095.2 M559.9,1082.6l4-10.3l4.2,10.3H559.9z
				 M567.3,1094.3h12.4l0-0.6c-1.2-0.4-3.2-2.6-5-6.9l-8.3-20.4h-2.6l-8.4,20c-1.8,4.3-4,6.8-5.5,7.2l0,0.6h10.1l0-0.6l-1.1-0.6
				c-2-1.1-2.4-2.6-1.4-4.9l1.3-3.4h10l0.8,2.1c1.5,3.7,1.2,5.6-1.4,6.4l-1.2,0.4L567.3,1094.3z M534.1,1081.8v-12.1l2.9,0.1
				c3.7,0.1,5.5,1.5,5.5,4.7C542.6,1078.5,539.7,1081,534.1,1081.8 M524.6,1093.8l0,0.6h15.1v-2.4l-1.4,0c-2.8,0.1-4.2-0.9-4.2-2.9
				v-5.3c8.9-0.8,13.5-5,13.5-10.2c0-4.2-3-6.2-8.3-6.2h-14.3c0,0.8,0,1.6,0,2.4h1.9c1.6,0,2.6,0.8,2.6,3v15.4
				C529.6,1091.5,527.8,1093,524.6,1093.8 M509.9,1095.2c6.6,0,10.4-3.9,10.4-8.4c0-3.8-3-6.1-6.4-7.5l-3.4-1.4
				c-2.9-1.2-4.6-2.7-4.6-4.9c0-2.3,1.9-3.9,4.7-3.9c3.3,0,6.7,2.1,7.9,7.2l0.4,0c0.6-3.2,0.5-6.4-0.2-8.4c-1.8-0.8-4.5-1.2-6.7-1.2
				c-6.4,0-10,4.1-10,8.4c0,3.1,1.8,5.2,5.4,6.7l3.4,1.4c3.4,1.4,5.3,2.9,5.3,5.4c0,2.6-1.8,4.2-5.3,4.2c-3.9,0-7.2-2.4-9-8.1
				l-0.5,0c-0.5,3-0.3,6.4,0.9,9.1C504,1094.7,507.1,1095.2,509.9,1095.2 M491.6,1095.4l0.6-0.1l0.1-5.1l0.4-16.3
				c0.1-3.6,1.4-5,4.9-5.8l0-0.6h-12.5c0,0.8,0,1.4,0,2.4h1.6c1.9,0,3,1.1,3,3.1l0.3,14.1l-15.9-19.5h-9.2c0,0.8,0,1.6,0,2.4h1.9
				c1.7,0,2.7,0.8,2.7,3.1l-0.4,15.3c-0.1,3.3-1.6,4.8-5.1,5.6l0,0.6h12.6c0-0.8,0-1.6,0-2.4h-1.9c-1.8,0-2.6-0.9-2.7-3.1l-0.2-16.8
				l13.5,16.2C487.3,1090.9,489.8,1093.5,491.6,1095.4 M446,1095.2c4.8,0,11.4-1.7,14.4-3.7l-0.1-0.4c-1.9,0.4-3.2-0.5-3.2-2.3v-2.9
				c0-2.5,1.2-4,3-4.3l0.6-0.1v-0.6h-13.3c0,0.8,0,2,0,2.4l2.6,0.1c1.6,0,2.6,0.9,2.6,2.5v2.8c0,2.4-1.6,3.8-5.6,3.8
				c-6.7,0-11.1-4.2-11.1-11.6c0-7.7,4.8-11.9,10.9-11.9c4.7,0,8.1,2.5,8.6,7.9l0.5,0c1.1-2.6,1.6-6.2,1.2-8.7
				c-2.6-1-6.4-1.6-9.5-1.6c-9.6,0-16.9,7-16.9,15.1C430.7,1090.2,437.1,1095.2,446,1095.2 M411.9,1093.8l0,0.6h14v-2.4H424
				c-1.7,0-2.6-0.8-2.6-3.1v-15.2c0-3.2,1.3-4.8,4.9-5.7v-0.6h-14c0,0.8,0,2.3,0,2.4h1.9c1.7,0,2.6,0.8,2.6,3.1v15.1
				C416.8,1091.5,415.4,1093,411.9,1093.8 M397.1,1095.2c6.6,0,10.4-3.9,10.4-8.4c0-3.8-3-6.1-6.4-7.5l-3.4-1.4
				c-2.9-1.2-4.6-2.7-4.6-4.9c0-2.3,1.9-3.9,4.7-3.9c3.3,0,6.7,2.1,7.9,7.2l0.4,0c0.6-3.2,0.5-6.4-0.2-8.4c-1.8-0.8-4.5-1.2-6.7-1.2
				c-6.4,0-10,4.1-10,8.4c0,3.1,1.8,5.2,5.4,6.7l3.4,1.4c3.4,1.4,5.3,2.9,5.3,5.4c0,2.6-1.8,4.2-5.3,4.2c-3.9,0-7.2-2.4-9-8.1
				l-0.5,0c-0.5,3-0.3,6.4,0.9,9.1C391.3,1094.7,394.4,1095.2,397.1,1095.2 M381.8,1094.8c1.2-3,1.6-5.9,1.8-9.5l-0.5-0.1
				c-1.5,4.2-4.7,6.7-9.6,6.9h-1.6c-2.4,0-3.6-0.8-3.6-3.1v-7.9l3.8,0.1c3.9,0.1,5,1.1,5.2,3.1h0.5c0.8-2.2,0.9-4.6,0.6-6.4
				c-2.1,0.6-5.5,0.9-8.3,0.9h-1.8v-9.2l5.6,0.1c4.8,0.1,6.9,1.4,7,4.8h0.5c1-2.7,0.9-5.5,0.5-7.7c-2.9,0.4-6.3,0.6-10.1,0.6h-12.7
				c0,0.8,0,1.6,0,2.4h1.9c1.6,0,2.6,0.8,2.6,3v15.4c0,3.2-1.8,4.7-5,5.5l0,0.6h16C377.1,1094.3,379.6,1094.5,381.8,1094.8
				 M330.7,1087.5v-23.8l4.2,0c8.4,0.1,13.9,5.1,13.9,14.3c0,9.3-5.1,13.6-12.6,13.6h-0.9C332.2,1091.7,330.7,1090.3,330.7,1087.5
				 M319.9,1093.6l0,0.8h16.3c10.9,0,17.9-6.2,17.9-16.9c0-10.2-7.4-16.3-16.7-16.3h-17v2.6l2.6,0.1c1.9,0.1,2.9,1.1,2.9,3.8v19.6
				C326,1090.9,323.8,1092.6,319.9,1093.6 M291.4,1095.2c4.8,0,11.4-1.7,14.4-3.7l-0.1-0.4c-1.9,0.4-3.2-0.5-3.2-2.3v-2.9
				c0-2.5,1.2-4,3-4.3l0.6-0.1v-0.6h-13.3c0,0.8,0,2,0,2.4l2.6,0.1c1.6,0,2.6,0.9,2.6,2.5v2.8c0,2.4-1.6,3.8-5.6,3.8
				c-6.7,0-11.1-4.2-11.1-11.6c0-7.7,4.8-11.9,10.9-11.9c4.7,0,8.1,2.5,8.6,7.9l0.5,0c1.1-2.6,1.6-6.2,1.2-8.7
				c-2.6-1-6.4-1.6-9.5-1.6c-9.6,0-16.9,7-16.9,15.1C276,1090.2,282.4,1095.2,291.4,1095.2 M266.6,1095.4l0.6-0.1l0.1-5.1l0.4-16.3
				c0.1-3.6,1.4-5,4.9-5.8l0-0.6h-12.5c0,0.8,0,1.4,0,2.4h1.6c1.9,0,3,1.1,3,3.1l0.3,14.1l-15.9-19.5h-9.2c0,0.8,0,1.6,0,2.4h1.9
				c1.7,0,2.7,0.8,2.7,3.1l-0.4,15.3c-0.1,3.3-1.6,4.8-5.1,5.6l0,0.6h12.6c0-0.8,0-1.6,0-2.4h-1.9c-1.8,0-2.6-0.9-2.7-3.1l-0.2-16.8
				l13.5,16.2C262.4,1090.9,264.8,1093.5,266.6,1095.4 M221.7,1093.8l0,0.6h14v-2.4h-1.9c-1.7,0-2.6-0.8-2.6-3.1v-15.2
				c0-3.2,1.3-4.8,4.9-5.7v-0.6h-14c0,0.8,0,2.3,0,2.4h1.9c1.7,0,2.6,0.8,2.6,3.1v15.1C226.6,1091.5,225.2,1093,221.7,1093.8
				 M189.8,1067.5v0.6c1.6,0.5,4,2.6,6.1,5.3l6.4,8.3v5.6c0,3.9-2.1,5.7-6.3,6.5v0.6h16.4v-2.2l-2.9-0.2c-1.9,0-2.7-0.9-2.7-3v-7.4
				l6-7.9c2.6-3.4,5.2-5.4,6.8-5.6v-0.6h-10.9v0.6l1.2,0.5c1.7,0.8,2,1.9,0.4,4l-4.8,6.6l-5.2-7.2c-1.4-2-0.8-3.2,0.9-3.7l0.9-0.2
				l-0.1-0.6H189.8z M169,1082.6l4-10.3l4.2,10.3H169z M176.4,1094.3h12.4l0-0.6c-1.2-0.4-3.2-2.6-5-6.9l-8.3-20.4h-2.6l-8.4,20
				c-1.8,4.3-4,6.8-5.5,7.2l0,0.6h10.1l0-0.6l-1.1-0.6c-2-1.1-2.4-2.6-1.4-4.9l1.3-3.4h10l0.8,2.1c1.5,3.7,1.2,5.6-1.4,6.4l-1.2,0.4
				L176.4,1094.3z M145.2,1095.2c3.2,0,7.1-0.7,9.4-1.8c1-2.6,1.1-6.4,0.9-9.1l-0.5,0c-1.7,5.6-5,8.4-9.7,8.4
				c-5.6,0-9.4-4.4-9.4-11.8c0-8.2,5.6-11.9,10.2-11.9c3.8,0,7.1,2.4,7.9,6.8h0.4c0.8-2.2,1.1-5.5,0.5-7.7c-2.2-1-5.1-1.6-8.1-1.6
				c-9.9,0-16.1,7-16.1,15.1C130.6,1090.4,136.7,1095.2,145.2,1095.2 M124.1,1094.8c1.2-3,1.6-5.9,1.8-9.5l-0.5-0.1
				c-1.5,4.2-4.7,6.7-9.6,6.9h-1.6c-2.4,0-3.6-0.8-3.6-3.1v-7.9l3.8,0.1c3.9,0.1,5,1.1,5.2,3.1h0.5c0.8-2.2,0.9-4.6,0.6-6.4
				c-2.1,0.6-5.5,0.9-8.3,0.9h-1.8v-9.2l5.6,0.1c4.8,0.1,6.9,1.4,7,4.8h0.5c1-2.7,0.9-5.5,0.5-7.7c-2.9,0.4-6.3,0.6-10.1,0.6h-12.7
				c0,0.8,0,1.6,0,2.4h1.9c1.6,0,2.6,0.8,2.6,3v15.4c0,3.2-1.8,4.7-5,5.5l0,0.6h16C119.4,1094.3,122,1094.5,124.1,1094.8
				 M73.1,1087.5v-23.8l4.2,0c8.4,0.1,13.9,5.1,13.9,14.3c0,9.3-5.1,13.6-12.6,13.6h-0.9C74.6,1091.7,73.1,1090.3,73.1,1087.5
				 M62.3,1093.6l0,0.8h16.3c10.9,0,17.9-6.2,17.9-16.9c0-10.2-7.4-16.3-16.7-16.3h-17v2.6l2.6,0.1c1.9,0.1,2.9,1.1,2.9,3.8v19.6
				C68.3,1090.9,66.1,1092.6,62.3,1093.6"/>
		</g>
	</g>
</g>
</svg>
