<?xml version="1.0" encoding="utf-8"?>
<!-- Generator: Adobe Illustrator 27.4.0, SVG Export Plug-In . SVG Version: 6.00 Build 0)  -->
<svg version="1.1" id="Layer_1" xmlns="http://www.w3.org/2000/svg" xmlns:xlink="http://www.w3.org/1999/xlink" x="0px" y="0px"
	 viewBox="0 0 1980 1200" style="enable-background:new 0 0 1980 1200;" xml:space="preserve">
<style type="text/css">
	.st0{fill:#1D1D1B;}
</style>
<g>
	<path class="st0" d="M710.11,108.19c0-18.85,12.75-31.92,34.36-31.92c7.16,0,12.61,1.57,16.44,1.48l2.26,14.73h-3.69l-0.69-2.31
		c-2.4-7.99-8.96-10.02-15.98-10.02c-15.8,0-23.79,10.58-23.79,27.02c0,15.24,7.81,26.33,24.43,26.33c10.3,0,12.06-1.76,12.06-6.51
		v-9.42c0-4.48-0.55-5.13-5.64-5.08l-10.99,0.14v-4.2h25.87c-0.65,3.46-1.39,6.37-1.39,15.06v10.95
		c-5.36,1.75-12.29,2.91-20.55,2.91C722.26,137.33,710.11,126.34,710.11,108.19z"/>
	<path class="st0" d="M796.15,131.74c-5.82,4.3-8.31,5.31-10.9,5.31c-6.74,0-11.22-5.45-11.22-11.18c0-3.46,1.48-5.4,2.96-6.42
		c1.62-1.15,5.96-3.09,19.21-5.03l0.09-7.16c0.09-6.93-2.03-9.15-6.65-9.15c-2.54,0-4.16,0.6-4.94,1.43
		c-0.51,0.55-0.51,1.25-0.05,3.83c-1.71,1.39-4.2,2.36-5.91,2.36s-2.82-1.11-2.82-2.49c0-4.02,9.42-9.61,18.75-9.61
		c6.42,0,9.33,3.05,9.19,9.61l-0.42,19.12c-0.19,7.62,0.92,9.61,3.33,9.61c1.02,0,2.68-0.69,3.69-1.25l0.83,2.68
		c-3.97,2.31-7.3,3.65-9.47,3.65c-2.82,0-4.85-1.99-5.45-5.31H796.15z M796.2,118.25c-2.77,0.14-8.96,1.43-11.87,2.4
		c-1.8,0.6-2.59,1.71-2.59,3.6c0,4.25,3.33,7.58,6.84,7.58c1.75,0,4.34-0.65,7.53-2.86L796.2,118.25z"/>
	<path class="st0" d="M818.92,135.99c0.42-2.22,0.92-4.99,0.92-15.89V83.61c0-2.4-0.28-3.56-1.43-4.43l-3.97-3.14v-1.43l13.67-4.2
		c-0.55,5.27-0.74,8.68-0.74,13.21v10.53c0,3.28-0.14,4.39-0.32,6l0.14,0.05l1.29-1.06c3.83-3.14,8.45-5.5,12.98-5.5
		c9.15,0,16.03,7.48,16.03,19.35c0,12.79-9.75,23.37-25.87,23.37c-3.37,0-7.07-0.37-10.44-0.37H818.92z M827.37,123.61
		c0,6.6,2.22,8.68,8.27,8.68c8.78,0,14.55-7.39,14.55-17.78c0-8.82-4.53-14.69-13.12-14.69c-2.91,0-6.7,1.15-9.7,3V123.61z"/>
	<path class="st0" d="M867.27,79.18l-3.97-3.14v-1.43l13.67-4.2c-0.55,5.27-0.74,8.68-0.74,13.21v44.11c0,3.69,0.55,5.17,3.93,5.27
		l2.77,0.09v2.91H862v-2.91l2.77-0.09c3.37-0.09,3.93-1.57,3.93-5.27V83.61C868.7,81.21,868.43,80.06,867.27,79.18z"/>
	<path class="st0" d="M907.36,93.64c7.34,0,12.24,4.99,14.13,11.18c0.6,1.85,1.06,2.96,1.94,3.37l-0.37,1.75
		c-9.52,0.69-18.48,0.79-27.9,0.6c-0.09,0.88-0.09,2.17-0.09,3.19c0,9.38,5.13,17.6,15.1,17.6c3.14,0,8.78-1.52,12.01-2.59l0.6,2.26
		c-6.51,3.88-11.45,6.05-16.44,6.05c-9.42,0-18.94-6.93-18.94-19.49C887.41,104.26,896.74,93.64,907.36,93.64z M914.7,106.66
		c-1.48-5.73-5.54-9.15-9.47-9.15c-4.3,0-7.9,3.97-9.38,9.84L914.7,106.66z"/>
	<path class="st0" d="M955.9,132.39c-4.85,2.82-10.07,4.71-13.21,4.71c-5.5,0-9.05-2.73-8.96-9.51l0.32-25.73
		c0.05-2.73-0.14-3.14-1.89-3.79l-2.73-1.02c0-0.05,0-1.48,0-1.48l11.87-9.01l-0.32,8.13h14.18l-0.18,2.12
		c-0.65,1.25-2.82,1.89-7.62,1.89h-6.1v26.42c0,4.94,2.08,6.51,5.31,6.51c2.17,0,6.19-0.83,8.82-1.57L955.9,132.39z"/>
	<path class="st0" d="M979.82,135.99v-3.09l3.51-0.14c4.3-0.18,4.99-1.99,4.99-6.65V87.49c0-4.67-0.69-6.47-4.99-6.65l-3.51-0.14
		v-3.09h24.8c13.76,0,19.35,4.25,19.35,13.12c0,7.16-4.07,12.33-12.66,16.12l5.91,7.62c9.93,12.84,14.55,17.14,19.26,18.11
		l1.75,0.37l-0.32,3.05h-9.56c-3.6,0-5.4-1.15-12.47-10.53l-11.36-15.1c-0.97-1.25-1.66-1.57-3.19-1.57h-4.99v17.32
		c0,4.67,0.69,6.47,4.99,6.65l3.51,0.14v3.09H979.82z M996.35,104.72c2.73,0.09,5.31,0.18,7.99,0.18c7.3,0,11.5-5.31,11.5-12.61
		c0-9.79-8.27-10.99-19.49-10.58V104.72z"/>
	<path class="st0" d="M1061.84,93.64c7.34,0,12.24,4.99,14.13,11.18c0.6,1.85,1.06,2.96,1.94,3.37l-0.37,1.75
		c-9.51,0.69-18.48,0.79-27.9,0.6c-0.09,0.88-0.09,2.17-0.09,3.19c0,9.38,5.13,17.6,15.1,17.6c3.14,0,8.78-1.52,12.01-2.59l0.6,2.26
		c-6.51,3.88-11.46,6.05-16.44,6.05c-9.42,0-18.94-6.93-18.94-19.49C1041.89,104.26,1051.22,93.64,1061.84,93.64z M1069.19,106.66
		c-1.48-5.73-5.54-9.15-9.47-9.15c-4.29,0-7.9,3.97-9.38,9.84L1069.19,106.66z"/>
	<path class="st0" d="M1094.91,136.73c-5.27-0.19-7.3-1.99-7.3-4.34c0-2.03,1.48-4.06,10.72-9.01v-0.23
		c-8.27-0.46-13.44-6.37-13.44-13.72c0-8.45,6.74-15.8,17.55-15.8c3.51,0,6.47,0.74,8.92,2.17l13.16-1.02l-0.18,1.99
		c-0.55,1.25-2.08,2.22-6.97,2.54l-1.85,0.18c1.66,2.26,2.4,5.08,2.4,8.27c0,6.97-2.96,11.32-12.19,15.24
		c-6.51,2.73-10.3,4.85-10.3,6.33c0,1.39,3.93,1.85,14.13,2.45c10.76,0.6,14.78,2.12,14.78,8.31c0,10.44-10.76,18.11-26.28,18.11
		c-10.76,0-17.04-3.65-17.04-9.56c0-4.25,3.14-6.37,13.9-11.78V136.73z M1088.49,147.21c0,4.11,5.27,6.79,13.44,6.79
		c9.51,0,15.61-4.11,15.61-10.58c0-4.02-2.26-5.13-11.73-5.68c-3.6-0.23-5.59-0.28-7.44-0.42
		C1090.7,142.46,1088.49,144.58,1088.49,147.21z M1110.52,109.29c0-5.31-2.31-12.1-8.91-12.1c-6.79,0-9.38,5.45-9.38,11.22
		c0,5.68,2.72,11.18,9.47,11.18C1108.44,119.59,1110.52,114.7,1110.52,109.29z"/>
	<path class="st0" d="M1158.97,137.15l-0.6-6.24h-0.09l-3.14,2.17c-4.25,2.91-8.04,3.97-11.73,3.97c-7.21,0-10.99-4.16-10.99-12.06
		c0-9.47,0.23-15.75,0.23-19.63c0-2.45-0.42-3.42-1.43-4.39l-3.09-2.86v-1.39l12.61-4.25c-0.55,5.08-0.74,8.64-0.74,13.12v14.92
		c0,7.67,2.22,10.58,8.17,10.58c3.33,0,7.16-1.11,10.12-2.77v-22.77c0-2.59-0.37-3.51-1.43-4.57l-2.86-2.86v-1.39l12.61-4.25
		c-0.55,5.08-0.79,8.64-0.79,13.12v19.21c0,5.4,0.83,7.39,3.23,7.39c0.83,0,2.03-0.23,3.14-0.46l0.23,2.96L1158.97,137.15z"/>
	<path class="st0" d="M1181.22,79.18l-3.97-3.14v-1.43l13.67-4.2c-0.55,5.27-0.74,8.68-0.74,13.21v44.11c0,3.69,0.55,5.17,3.93,5.27
		l2.77,0.09v2.91h-20.92v-2.91l2.77-0.09c3.37-0.09,3.93-1.57,3.93-5.27V83.61C1182.65,81.21,1182.38,80.06,1181.22,79.18z"/>
	<path class="st0" d="M1223.44,131.74c-5.82,4.3-8.31,5.31-10.9,5.31c-6.74,0-11.22-5.45-11.22-11.18c0-3.46,1.48-5.4,2.96-6.42
		c1.62-1.15,5.96-3.09,19.21-5.03l0.09-7.16c0.09-6.93-2.03-9.15-6.65-9.15c-2.54,0-4.16,0.6-4.94,1.43
		c-0.51,0.55-0.51,1.25-0.05,3.83c-1.71,1.39-4.2,2.36-5.91,2.36s-2.82-1.11-2.82-2.49c0-4.02,9.42-9.61,18.75-9.61
		c6.42,0,9.33,3.05,9.19,9.61l-0.42,19.12c-0.18,7.62,0.92,9.61,3.33,9.61c1.02,0,2.68-0.69,3.7-1.25l0.83,2.68
		c-3.97,2.31-7.3,3.65-9.47,3.65c-2.82,0-4.85-1.99-5.45-5.31H1223.44z M1223.48,118.25c-2.77,0.14-8.96,1.43-11.87,2.4
		c-1.8,0.6-2.59,1.71-2.59,3.6c0,4.25,3.33,7.58,6.84,7.58c1.75,0,4.34-0.65,7.53-2.86L1223.48,118.25z"/>
	<path class="st0" d="M1242.41,133.08l2.77-0.09c3.37-0.09,3.93-1.57,3.93-5.27v-22.45c0-2.4-0.46-3.33-1.48-4.39l-2.82-2.91v-1.39
		l11.78-4.02l-0.19,8.78l0.19,0.05l1.25-1.39c3.93-4.39,7.25-6.37,10.39-6.37c2.49,0,4.3,1.29,4.3,3c0,2.22-1.52,4.16-3.19,4.8
		l-1.39-0.6c-1.48-0.65-2.68-1.06-3.37-1.06c-1.15,0-3.23,1.11-6.56,3.65l-1.39,1.06v22.72c0,4.2,0.6,5.68,4.85,5.77l3.46,0.09v2.91
		h-22.54V133.08z"/>
</g>
<g>
	<path class="st0" d="M667.58,186.65c7.21,0,12.98,1.85,17.04,2.4l0.46,15.1h-3.56l-0.42-3.42c-0.79-6.6-7.57-10.53-15.98-10.53
		c-9.79,0-19.17,7.3-22.17,22.22c-3.37,16.9,1.25,31.27,17.55,31.27c9.56,0,12.66-1.71,13.67-6.74l1.71-8.54
		c0.97-4.9,0.6-5.54-2.86-5.5L660.74,223l0.88-4.34h23.79c-1.11,3-2.31,8.18-4.02,16.3l-1.99,9.47c-5.63,1.89-12.75,3.28-19.35,3.28
		c-20.6,0-29.51-14.73-25.59-34.27C637.97,195.93,650.35,186.65,667.58,186.65z"/>
	<path class="st0" d="M693.34,227.06c2.82-14,12.47-23.83,23.42-23.83c1.8,0,4.25,0.23,6.37,0.65c0.97,0.18,1.8,0.32,2.26,0.32
		c0.88,0,1.34-0.37,2.03-2.08l0.79-1.94l3.23,0.92c-1.52,4.06-4.11,12.47-5.31,18.15l-0.74,3.56c-3,14.41-2.22,19.35-0.88,19.35
		c0.97,0,3.14-1.85,4.94-3.88l1.29,2.22c-2.63,3.42-6.7,6.97-11.36,6.97c-3.33,0-4.16-4.62-1.06-20.23l-0.18-0.05
		c-7.57,15.06-13.35,20.28-18.52,20.28C693.25,247.48,691.03,238.61,693.34,227.06z M714.87,227.43c3.6-6.33,4.94-10.3,5.91-14.09
		l0.37-1.43c0.6-2.26-2.54-4.11-7.02-4.11c-6.37,0-11.22,6.42-13.16,16.12c-1.89,9.56-1.2,16.86,2.08,16.86
		C705.68,240.78,710.57,234.96,714.87,227.43z"/>
	<path class="st0" d="M746.59,193.39c0.51-2.59,0.51-3.65-0.46-4.53l-3.65-3.23l0.18-1.06l13.63-3.56
		c-1.48,5.03-2.22,8.54-4.43,18.52l-1.25,5.63c-1.34,5.96-2.45,11.04-3.51,15.06l0.23,0.09c6.05-11.64,11.22-17.09,17.41-17.09
		c6.84,0,9.93,6.7,7.71,17.69c-3,15.06-12.7,26.56-24.48,26.56c-3,0-6.79-0.6-11.78-2.26L746.59,193.39z M764.79,224.57
		c1.66-8.13,0.69-14.55-3.51-14.55c-3.7,0-7.44,3.97-11.13,10.62c-3.42,6.19-4.99,10.67-6.24,18.15c-0.42,2.54,2.26,4.11,7.02,4.11
		C758.14,242.91,762.99,233.48,764.79,224.57z"/>
	<path class="st0" d="M784.33,184.57l13.67-3.56c-1.57,5.03-2.54,8.73-4.53,18.75l-7.16,35.84c-1.06,5.31-0.51,6.42,0.46,6.42
		c1.06,0,3.33-1.34,6.33-4.53l1.39,2.17c-2.59,3.65-7.57,7.81-12.29,7.81c-3,0-4.48-1.85-3.69-5.63l9.75-48.45
		c0.51-2.59,0.55-3.65-0.46-4.53l-3.65-3.23L784.33,184.57z"/>
	<path class="st0" d="M801.32,225.45c2.59-13.35,12.66-22.22,22.35-22.22c5.22,0,8.64,3.93,7.62,9.05c-1.06,5.17-6,8.31-15.2,10.85
		l-8.04,2.22c-1.25,9.7,0.69,16.07,5.08,16.07c2.59,0,9.33-3.37,12.61-5.63l1.39,2.08c-4.85,4.94-12.52,9.61-17.09,9.61
		C802.47,247.48,799.01,237.55,801.32,225.45z M808.66,221.61l5.96-1.85c6.24-1.94,9.65-4.57,10.16-7.57
		c0.46-2.73-1.52-4.94-3.97-4.94c-4.16,0-10.21,4.85-12.1,14.23L808.66,221.61z"/>
	<path class="st0" d="M835.77,238.61l6.47-30.58h-5.64l0.46-2.4l3.37-0.69c2.08-0.42,2.63-1.11,3-2.91l1.39-6.84
		c0.51-2.4,1.94-3.93,3.88-3.93c2.4,0,3.28,1.62,2.68,4.16l-2.12,8.91h11.82l-0.51,2.49c-0.83,1.06-2.31,1.2-7.85,1.2h-4.25
		l-5.13,26.84c-1.02,5.22-0.23,6.74,2.31,6.74c1.8,0,6.47-3.09,9.24-5.31l1.15,2.31c-4.76,5.36-9.93,8.87-14.36,8.87
		C837.53,247.48,834.57,244.38,835.77,238.61z"/>
	<path class="st0" d="M878.31,246.37l0.6-2.96l3.33-0.14c4.16-0.18,5.08-1.48,6.1-6.65l7.81-38.89c1.06-5.31,0.65-6.47-3.42-6.65
		l-3.33-0.14l0.6-2.96h6.88c4.9,0,9.38-0.05,14.69-0.05c12.24,0,18.34,5.31,16.26,15.61c-1.43,7.02-7.07,12.24-15.47,14.32
		l4.71,8.59c6.65,12.1,8.87,15.38,12.98,16.77l1.39,0.46l-0.88,2.68h-7.3c-3.42,0-4.57-1.06-7.21-6.42l-9.05-18.43
		c-1.02-2.08-1.62-2.45-3.51-2.54l-4.53-0.23l-3.56,17.88c-1.06,5.31-0.65,6.47,3.42,6.65l3.33,0.14l-0.6,2.96H878.31z
		 M899.83,214.5c2.91,0.51,5.68,0.79,8.13,0.79c6.56,0,11.04-4.39,12.42-11.22c1.71-8.45-2.22-12.24-12.84-12.24
		c-1.02,0-2.08,0.05-3.23,0.09L899.83,214.5z"/>
	<path class="st0" d="M938.21,225.45c2.59-13.35,12.66-22.22,22.35-22.22c5.22,0,8.64,3.93,7.62,9.05c-1.06,5.17-6,8.31-15.2,10.85
		l-8.04,2.22c-1.25,9.7,0.69,16.07,5.08,16.07c2.59,0,9.33-3.37,12.61-5.63l1.39,2.08c-4.85,4.94-12.52,9.61-17.09,9.61
		C939.36,247.48,935.9,237.55,938.21,225.45z M945.55,221.61l5.96-1.85c6.24-1.94,9.65-4.57,10.16-7.57
		c0.46-2.73-1.52-4.94-3.97-4.94c-4.16,0-10.21,4.85-12.1,14.23L945.55,221.61z"/>
	<path class="st0" d="M1000.74,210.48c1.29,3.28,1.39,7.16,0.74,10.39c-1.15,5.68-4.53,10.16-11.27,13.72
		c-4.11,2.22-6.37,3.97-6.7,5.73c-0.28,1.43,0.37,2.22,12.47,4.62c8.41,1.62,11.78,5.31,10.39,11.5
		c-1.39,6.37-11.5,12.29-22.03,12.29c-13.95,0-23.28-6.93-21.75-13.63c0.74-3.33,4.39-5.59,17.18-7.76v-0.23
		c-2.49-0.88-3.93-2.4-3.56-4.06c0.55-2.31,4.02-4.85,7.34-7.48v-0.14c-6.93-0.79-12.56-7.44-10.72-16.77
		c1.8-9.24,8.78-15.43,17.23-15.43c3.97,0,6.79,1.48,8.64,3.74l5.36-2.91c2.68-1.48,3.79-2.36,4.8-3.09c0.79,0.6,0.83,3,0.6,4.11
		c-0.23,1.02-0.83,1.62-2.36,2.36L1000.74,210.48z M999.5,257.46c0.83-4.11-1.75-6.05-8.54-7.48c-2.96-0.65-5.4-1.25-6.6-1.29
		c-9.75,2.63-13.76,4.53-14.18,6.24c-0.88,3.74,5.31,9.65,16.17,9.65C994.04,264.57,998.66,261.57,999.5,257.46z M994.69,220.46
		c1.57-7.81-1.34-13.81-5.73-13.81c-4.16,0-8.31,5.82-9.28,12.56c-1.11,7.57,2.03,12.75,6.05,12.75
		C989.8,231.96,993.35,226.88,994.69,220.46z"/>
	<path class="st0" d="M1050.48,204.15c-1.34,2.82-3.14,8.31-4.67,14.92c-3.46,14.92-3.6,23.09-1.71,23.09
		c0.97,0,3.14-1.85,4.94-3.88l1.29,2.22c-2.63,3.42-6.7,6.97-11.36,6.97c-3.09,0-3.88-4.76-1.34-17.27h-0.23
		c-5.27,10.02-11.73,17.27-18.57,17.27c-4.39,0-6.28-3.33-4.11-12.29l4.85-20.18c1.25-5.27,0.65-6.33-0.32-6.33
		c-1.2,0-3.28,1.39-5.82,3.74l-1.39-2.17c2.49-3.33,8.08-7.02,12.01-7.02c2.03,0,3.6,1.02,4.3,2.63l-6.14,25.4
		c-1.99,8.13-0.88,9.84,0.92,9.84c3.46,0,9.01-6.47,13.53-14.78c1.25-2.26,1.71-3.23,1.94-4.39c0.65-3,1.34-6.6,3.14-13.9
		c0.69-2.86,3.05-4.57,8.04-4.57L1050.48,204.15z"/>
	<path class="st0" d="M1063.13,184.57l13.67-3.56c-1.57,5.03-2.54,8.73-4.53,18.75l-7.16,35.84c-1.06,5.31-0.51,6.42,0.46,6.42
		c1.06,0,3.33-1.34,6.33-4.53l1.39,2.17c-2.59,3.65-7.58,7.81-12.29,7.81c-3,0-4.48-1.85-3.7-5.63l9.75-48.45
		c0.51-2.59,0.55-3.65-0.46-4.53l-3.65-3.23L1063.13,184.57z"/>
	<path class="st0" d="M1080.31,227.06c2.82-14,12.47-23.83,23.42-23.83c1.8,0,4.25,0.23,6.37,0.65c0.97,0.18,1.8,0.32,2.26,0.32
		c0.88,0,1.34-0.37,2.03-2.08l0.79-1.94l3.23,0.92c-1.52,4.06-4.11,12.47-5.31,18.15l-0.74,3.56c-3,14.41-2.22,19.35-0.88,19.35
		c0.97,0,3.14-1.85,4.94-3.88l1.29,2.22c-2.63,3.42-6.7,6.97-11.36,6.97c-3.33,0-4.16-4.62-1.06-20.23l-0.19-0.05
		c-7.57,15.06-13.35,20.28-18.52,20.28C1080.22,247.48,1078,238.61,1080.31,227.06z M1101.84,227.43c3.6-6.33,4.94-10.3,5.91-14.09
		l0.37-1.43c0.6-2.26-2.54-4.11-7.02-4.11c-6.37,0-11.22,6.42-13.16,16.12c-1.89,9.56-1.2,16.86,2.08,16.86
		C1092.64,240.78,1097.54,234.96,1101.84,227.43z"/>
	<path class="st0" d="M1125.11,246.74c1.62-3.46,3.93-10.85,5.68-19.45c2.91-14.32,2.08-18.71,0.65-18.71
		c-1.06,0-3.65,1.8-5.45,3.83l-1.52-2.12c2.63-3.42,6.93-7.07,11.64-7.07c1.89,0,3.46,0.6,4.2,1.57
		c-0.09,2.03-1.39,11.78-2.68,17.55l0.18,0.05c6.33-14.23,10.35-19.17,15.47-19.17c2.31,0,3.93,1.66,3.51,3.7
		c-0.42,2.08-2.03,4.11-4.39,5.82c-1.66-1.34-2.4-1.85-3.42-1.85c-1.39,0-3.46,1.76-10.25,14.87c-1.2,2.31-1.94,4.3-2.49,6.65
		c-0.55,2.4-1.2,5.59-2.4,10.44c-0.69,2.86-3.05,4.57-8.04,4.57L1125.11,246.74z"/>
	<path class="st0" d="M1173.09,243.41l3.33-0.14c4.16-0.18,5.08-1.48,6.1-6.65l7.81-38.89c1.06-5.31,0.65-6.47-3.42-6.65l-3.33-0.14
		l0.6-2.96h23.23l-0.6,2.96l-3.33,0.14c-4.16,0.19-5.08,1.48-6.1,6.65l-7.81,38.89c-1.06,5.31-0.65,6.47,3.42,6.65l3.33,0.14
		l-0.6,2.96h-23.23L1173.09,243.41z"/>
	<path class="st0" d="M1209.81,238.61l6.47-30.58h-5.63l0.46-2.4l3.37-0.69c2.08-0.42,2.63-1.11,3-2.91l1.39-6.84
		c0.51-2.4,1.94-3.93,3.88-3.93c2.4,0,3.28,1.62,2.68,4.16l-2.12,8.91h11.82l-0.51,2.49c-0.83,1.06-2.31,1.2-7.85,1.2h-4.25
		l-5.13,26.84c-1.02,5.22-0.23,6.74,2.31,6.74c1.8,0,6.47-3.09,9.24-5.31l1.15,2.31c-4.76,5.36-9.93,8.87-14.36,8.87
		C1211.57,247.48,1208.61,244.38,1209.81,238.61z"/>
	<path class="st0" d="M1237.89,227.06c2.82-14,12.47-23.83,23.42-23.83c1.8,0,4.25,0.23,6.37,0.65c0.97,0.18,1.8,0.32,2.26,0.32
		c0.88,0,1.34-0.37,2.03-2.08l0.79-1.94l3.23,0.92c-1.52,4.06-4.11,12.47-5.31,18.15l-0.74,3.56c-3,14.41-2.22,19.35-0.88,19.35
		c0.97,0,3.14-1.85,4.94-3.88l1.29,2.22c-2.63,3.42-6.7,6.97-11.36,6.97c-3.33,0-4.16-4.62-1.06-20.23l-0.19-0.05
		c-7.57,15.06-13.35,20.28-18.52,20.28C1237.8,247.48,1235.58,238.61,1237.89,227.06z M1259.41,227.43
		c3.6-6.33,4.94-10.3,5.91-14.09l0.37-1.43c0.6-2.26-2.54-4.11-7.02-4.11c-6.37,0-11.22,6.42-13.16,16.12
		c-1.89,9.56-1.2,16.86,2.08,16.86C1250.22,240.78,1255.12,234.96,1259.41,227.43z"/>
	<path class="st0" d="M1287.54,184.57l13.67-3.56c-1.57,5.03-2.54,8.73-4.53,18.75l-7.16,35.84c-1.06,5.31-0.51,6.42,0.46,6.42
		c1.06,0,3.33-1.34,6.33-4.53l1.39,2.17c-2.59,3.65-7.58,7.81-12.29,7.81c-3,0-4.48-1.85-3.7-5.63l9.75-48.45
		c0.51-2.59,0.55-3.65-0.46-4.53l-3.65-3.23L1287.54,184.57z"/>
	<path class="st0" d="M1310.49,247.48c-3,0-4.48-2.03-3.83-5.22l5.5-27.02c1.06-5.27,0.83-6.56-0.23-6.56
		c-1.02,0-2.45,0.74-6.28,4.53l-1.39-2.17c3.09-4.3,8.13-7.81,12.15-7.81c1.71,0,3.88,0.6,4.39,2.31l-6.19,30.07
		c-1.11,5.31-0.42,6.42,0.51,6.42c1.15,0,3.33-1.57,6.28-4.53l1.48,2.12C1320.28,243.23,1315.15,247.48,1310.49,247.48z
		 M1315.15,189.33c0.55-2.4,2.49-3.97,4.94-3.97c2.91,0,4.71,2.26,4.25,5.36c-0.42,2.68-2.4,4.43-5.08,4.43
		C1316.4,195.15,1314.37,192.65,1315.15,189.33z"/>
	<path class="st0" d="M1330.16,225.63c2.77-13.81,12.61-22.4,22.59-22.4c4.02,0,7.58,1.85,7.02,4.62c-0.42,2.17-2.82,4.34-3.42,4.34
		c-2.63-1.94-5.13-3.56-8.08-3.56c-6.28,0-9.7,9.98-10.67,14.83c-2.03,10.16-0.65,17.92,4.53,17.92c2.63,0,6.47-1.89,12.52-5.59
		l1.39,2.08c-5.4,6.14-12.56,9.61-17,9.61C1331.32,247.48,1327.67,238.15,1330.16,225.63z"/>
</g>
<g>
	<path class="st0" d="M753.84,328.94c0-18.98,12.89-32.01,34.5-32.01c7.21,0,12.66,1.62,16.54,1.52l2.26,14.96h-3.88l-0.74-2.36
		c-2.45-7.9-8.78-10.02-15.84-10.02c-15.38,0-23.19,10.39-23.19,26.88c0,15.33,7.62,26.14,23.83,26.14c9.84,0,11.59-1.76,11.59-6.47
		v-9.24c0-4.48-0.6-5.13-5.73-5.08l-10.48,0.14v-4.43h26c-0.65,3.46-1.34,6.47-1.34,15.1v10.99c-5.73,1.85-12.89,3.05-21.06,3.05
		C765.95,358.14,753.84,347.23,753.84,328.94z"/>
	<path class="st0" d="M840.02,352.41c-5.73,4.3-8.41,5.45-11.13,5.45c-6.65,0-11.27-5.4-11.22-11.36c0-3.46,1.43-5.5,3-6.56
		c1.71-1.15,6.1-3.09,19.35-5.03l0.09-7.07c0.05-6.65-1.99-8.87-6.56-8.87c-2.49,0-4.11,0.6-4.85,1.43
		c-0.55,0.55-0.51,1.25-0.05,3.88c-1.71,1.39-4.3,2.4-6.14,2.4c-1.8,0-2.96-1.15-2.96-2.59c0-4.2,9.75-9.79,19.31-9.79
		c6.65,0,9.56,3.19,9.42,9.84l-0.42,18.89c-0.18,7.39,0.92,9.42,3.23,9.42c0.97,0,2.63-0.69,3.69-1.25l0.83,2.82
		c-4.02,2.4-7.48,3.79-9.79,3.79c-2.86,0-4.94-1.94-5.59-5.4H840.02z M840.02,338.92c-2.91,0.14-8.82,1.39-11.55,2.36
		c-1.76,0.6-2.54,1.76-2.54,3.6c0,4.16,3.23,7.48,6.65,7.48c1.71,0,4.25-0.69,7.34-2.86L840.02,338.92z"/>
	<path class="st0" d="M863.07,356.75c0.46-2.31,0.92-5.08,0.92-15.57v-36.67c0-2.45-0.28-3.6-1.43-4.53l-3.93-3.05v-1.57l14.27-4.2
		c-0.55,4.99-0.79,8.59-0.79,13.3v10.02c0,3.23-0.14,4.53-0.32,6.28l0.14,0.05l1.29-1.06c3.88-3.14,8.45-5.45,12.93-5.45
		c9.24,0,16.17,7.53,16.17,19.35c0,12.93-9.88,23.46-26.33,23.46c-3.23,0-7.16-0.32-10.67-0.37H863.07z M872.12,344.37
		c0,6.42,2.22,8.5,8.04,8.5c8.45,0,14.13-7.11,14.13-17.51c0-8.78-4.43-14.6-12.89-14.6c-2.77,0-6.37,1.06-9.28,2.82V344.37z"/>
	<path class="st0" d="M911.79,299.98l-3.88-3.05v-1.57l14.27-4.2c-0.55,4.99-0.79,8.59-0.79,13.3v44.02c0,3.6,0.55,5.03,3.88,5.13
		l2.73,0.09v3.05h-21.34v-3.05l2.77-0.09c3.28-0.09,3.83-1.52,3.83-5.13v-43.97C913.27,302.06,912.99,300.91,911.79,299.98z"/>
	<path class="st0" d="M952.53,314.3c7.39,0,12.29,4.94,14.23,11.27c0.65,1.94,1.15,3.05,2.03,3.46l-0.46,1.85
		c-9.56,0.69-18.38,0.83-27.71,0.65c-0.09,0.79-0.09,1.99-0.09,2.86c0.05,9.28,5.17,17.32,15.01,17.32c3.19,0,8.78-1.52,11.96-2.59
		l0.65,2.36c-6.47,4.02-11.55,6.37-16.81,6.37c-9.65,0-19.03-7.11-19.03-19.63C932.3,324.83,941.86,314.3,952.53,314.3z
		 M959.69,327.47c-1.43-5.73-5.36-9.1-9.28-9.1c-4.3,0-7.76,3.97-9.15,9.84L959.69,327.47z"/>
	<path class="st0" d="M1001.62,352.82c-4.9,3.09-10.16,5.03-13.62,5.03c-5.68,0-9.28-2.86-9.19-9.75l0.32-25.27
		c0.05-2.73-0.14-3.23-1.89-3.88l-2.77-1.02c0-0.05,0-1.62,0-1.62l12.52-9.1l-0.32,8.18h14.13l-0.18,2.31
		c-0.65,1.25-2.82,1.89-7.62,1.89h-6.05v25.96c0,4.9,2.08,6.51,5.36,6.51c2.22,0,6.14-0.83,8.78-1.62L1001.62,352.82z"/>
	<path class="st0" d="M1023.28,353.52l3.14-0.14c4.02-0.23,5.59-1.66,5.73-7.9l0.74-38.06l-1.29-1.66
		c-2.17-2.82-5.59-4.16-8.82-4.16h-0.88v-3.28h16.67c1.48,2.73,3.51,5.68,9.93,13.26l24.43,29.19h0.09l-0.42-31.92
		c-0.05-5.13-0.83-6.97-5.63-7.11l-4.71-0.19v-3.23h24.34v3.23l-3.09,0.14c-4.02,0.19-5.73,1.62-5.77,7.85l-0.18,27.71
		c-0.09,10.21,0.32,14.97,0.88,19.49h-4.11l-37.04-44.66h-0.09l0.09,33.99c0,5.17,0.83,7.07,5.54,7.25l4.8,0.18v3.23h-24.34V353.52z
		"/>
	<path class="st0" d="M1110.93,314.3c7.39,0,12.29,4.94,14.23,11.27c0.65,1.94,1.16,3.05,2.03,3.46l-0.46,1.85
		c-9.56,0.69-18.38,0.83-27.71,0.65c-0.09,0.79-0.09,1.99-0.09,2.86c0.05,9.28,5.17,17.32,15.01,17.32c3.19,0,8.78-1.52,11.96-2.59
		l0.65,2.36c-6.47,4.02-11.55,6.37-16.81,6.37c-9.65,0-19.03-7.11-19.03-19.63C1090.7,324.83,1100.26,314.3,1110.93,314.3z
		 M1118.09,327.47c-1.43-5.73-5.36-9.1-9.28-9.1c-4.3,0-7.76,3.97-9.15,9.84L1118.09,327.47z"/>
	<path class="st0" d="M1147.47,357.77l-11.92-35.43c-1.06-3-2.54-3.74-4.76-3.83l-1.02-0.05v-3.05h20.05v3.05l-2.91,0.18
		c-3.28,0.14-3.7,1.06-2.68,4.53l6.7,22.26h0.18l10.02-30.02h3.28l11.08,30.16h0.14c4.16-12.42,6.28-20.32,6.28-23.6
		c0-2.49-1.25-3.14-3.65-3.33l-2.31-0.18v-3.05h17.83v3.05l-1.02,0.05c-2.54,0.14-3.79,1.15-4.76,3.88l-13.07,35.38h-3.14
		l-10.76-28.96h-0.14l-10.25,28.96H1147.47z"/>
	<path class="st0" d="M1198.03,343.86h3.65l0.69,1.89c2.03,5.54,5.26,7.99,9.75,7.99c4.34,0,7.48-2.91,7.48-6.84
		c0-4.62-2.96-6.28-10.12-9.01c-8.04-3.09-10.39-6.24-10.39-11.41c0-6.1,5.31-12.19,15.24-12.19c4.2,0,7.07,0.83,9.24,0.83
		l1.43,11.04h-3.65l-0.51-1.94c-1.11-4.25-3.56-6-7.71-6c-4.11,0-6.84,2.54-6.84,5.63c0,3.14,2.03,5.31,9.42,7.99
		c7.81,2.86,10.76,6.33,10.76,12.19c0,8.13-5.91,13.81-15.8,13.81c-3.33,0-7.02-0.69-10.62-2.54L1198.03,343.86z"/>
</g>
<g>
	<path class="st0" d="M710.07,407.32c7.34,0,13.12,1.85,17.23,2.4l0.42,15.43h-3.74l-0.42-3.42c-0.88-6.79-7.48-10.62-15.7-10.62
		c-9.7,0-18.89,7.44-21.85,22.17c-3.37,16.81,1.29,30.99,17.04,30.99c9.15,0,12.05-1.71,13.02-6.56l1.71-8.54
		c0.97-4.9,0.55-5.54-3.19-5.5l-11.5,0.09l0.92-4.48h24.02c-1.15,3-2.36,8.04-4.02,16.17l-2.03,9.7
		c-5.82,1.94-12.84,3.37-19.54,3.37c-20.6,0-29.7-14.64-25.77-34.27C680.23,416.65,692.65,407.32,710.07,407.32z"/>
	<path class="st0" d="M735.74,447.68c2.82-14,12.47-23.79,23.74-23.79c1.89,0,4.48,0.23,6.7,0.74c0.97,0.18,1.76,0.32,2.22,0.32
		c0.88,0,1.34-0.37,1.99-2.08l0.79-1.99l3.42,0.92c-1.52,4.16-4.02,12.15-5.17,17.74l-0.83,3.93c-2.96,14.18-2.26,19.12-0.88,19.12
		c1.02,0,3.09-1.76,5.17-3.97l1.29,2.4c-2.82,3.69-7.02,7.21-11.78,7.21c-3.65,0-4.67-4.48-1.43-20.09l-0.23-0.05
		c-7.44,14.83-13.26,20.14-18.57,20.14C735.74,468.24,733.38,459.37,735.74,447.68z M757.31,448.33c3.56-6.19,4.99-10.25,6-14.18
		l0.37-1.43c0.65-2.31-2.49-4.16-6.93-4.16c-6.24,0-10.85,6.19-12.79,15.84s-1.15,16.72,2.03,16.72
		C748.53,461.12,753.15,455.63,757.31,448.33z"/>
	<path class="st0" d="M789.64,414.15c0.46-2.49,0.46-3.6-0.51-4.43l-3.65-3.14l0.23-1.25l14.27-3.6c-1.48,4.99-2.22,8.41-4.3,17.88
		l-1.2,5.36c-1.39,6.33-2.49,11.36-3.6,15.61l0.23,0.09c5.87-11.32,10.95-16.77,17.27-16.77c6.93,0,10.12,6.7,7.85,17.92
		c-3,15.24-13.12,26.42-24.85,26.42c-3.19,0-7.21-0.69-12.15-2.36L789.64,414.15z M808.02,445.47c1.66-8.13,0.69-14.36-3.42-14.36
		c-3.56,0-7.25,3.93-10.81,10.44c-3.28,5.96-4.85,10.48-6.14,17.88c-0.42,2.54,2.22,4.11,6.79,4.11
		C801.41,463.53,806.22,454.43,808.02,445.47z"/>
	<path class="st0" d="M827.97,405.33l14.27-3.6c-1.52,4.99-2.45,8.59-4.34,18.06l-7.16,36.03c-1.11,5.54-0.6,6.7,0.37,6.7
		c1.06,0,3.33-1.39,6.37-4.57l1.34,2.31c-2.73,3.83-7.67,7.99-12.61,7.99c-3.23,0-4.85-1.99-4.06-5.87l9.75-48.22
		c0.51-2.49,0.51-3.6-0.51-4.43l-3.65-3.14L827.97,405.33z"/>
	<path class="st0" d="M845.38,446.07c2.59-13.35,12.61-22.17,22.54-22.17c5.54,0,9.05,4.02,8.04,9.15
		c-1.06,5.17-5.96,8.41-15.38,10.95l-7.81,2.12c-1.15,9.61,0.79,15.75,5.13,15.75c2.59,0,9.15-3.23,12.75-5.68l1.43,2.22
		c-5.22,5.27-12.84,9.84-17.55,9.84C846.72,468.24,843.02,458.35,845.38,446.07z M859.05,440.52c6.1-1.85,9.47-4.48,9.98-7.53
		c0.46-2.73-1.48-4.94-3.93-4.94c-3.97,0-9.79,4.67-11.69,14c0,0.05,0,0.14,0,0.18L859.05,440.52z"/>
	<path class="st0" d="M880.52,459.19l6.47-30.25h-5.68l0.51-2.63l3.42-0.69c2.08-0.42,2.59-1.06,2.96-2.82l1.39-6.7
		c0.55-2.54,2.08-4.11,4.2-4.11c2.59,0,3.56,1.71,2.96,4.43l-2.08,8.59h11.64l-0.51,2.68c-0.83,1.06-2.4,1.25-7.85,1.25h-4.06
		l-5.08,26.23c-1.02,5.31-0.32,6.88,2.12,6.88c1.85,0,6.47-3.09,9.33-5.36l1.2,2.45c-4.76,5.45-10.07,9.1-14.78,9.1
		C882.28,468.24,879.28,465.14,880.52,459.19z"/>
	<path class="st0" d="M920.98,467.13l0.65-3.09l3.33-0.14c4.06-0.18,4.99-1.48,6-6.42l8.64-42.17c-2.08-2.31-4.25-3.23-7.53-3.46
		l-1.48-0.09l0.6-3.05h15.1c1.06,3.05,2.17,5.31,7.81,14.87l17.04,29.19h0.09l6.51-34.36c0.97-5.22,0.51-6.42-3.65-6.51l-4.9-0.14
		l0.6-3.05h22.63l-0.6,3.05l-3.23,0.18c-4.02,0.19-4.9,1.43-5.91,6.42l-7.16,35.06c-1.39,6.79-1.94,10.95-2.03,13.72h-3.65
		l-26.93-46.23h-0.09l-7.07,36.53c-1.02,5.17-0.55,6.37,3.56,6.47l4.94,0.14l-0.65,3.09H920.98z"/>
	<path class="st0" d="M988.68,446.07c2.59-13.35,12.61-22.17,22.54-22.17c5.54,0,9.05,4.02,8.04,9.15
		c-1.06,5.17-5.96,8.41-15.38,10.95l-7.81,2.12c-1.16,9.61,0.79,15.75,5.13,15.75c2.59,0,9.15-3.23,12.75-5.68l1.43,2.22
		c-5.22,5.27-12.84,9.84-17.55,9.84C990.02,468.24,986.33,458.35,988.68,446.07z M1002.36,440.52c6.1-1.85,9.47-4.48,9.98-7.53
		c0.46-2.73-1.48-4.94-3.93-4.94c-3.97,0-9.79,4.67-11.69,14c0,0.05,0,0.14,0,0.18L1002.36,440.52z"/>
	<path class="st0" d="M1047.2,455.35c-3.93,7.67-10.12,12.93-15.47,12.93c-6,0-8.27-5.08-3.56-25.96
		c2.54-11.04,2.63-12.38,1.43-12.38c-1.06,0-2.4,0.79-5.68,4.25l-1.39-2.31c3.14-4.43,8.36-7.99,12.56-7.99
		c1.85,0,3.7,0.74,4.34,2.49c-6.97,27.25-7.3,35.93-3.42,35.93c3.23,0,10.35-9.19,12.15-15.47c0.28-1.85,0.6-3.88,1.02-6.05
		c0.74-4.11,1.2-7.21,2.26-11.32c0.69-2.96,3.05-4.76,8.41-4.62l0.69,0.69c-6.84,20.32-7.3,36.77-3.79,36.77
		c4.9,0,11.96-10.16,14.32-21.71c1.25-6.14,0.51-12.33-1.29-14.27c1.25-1.71,3.05-2.45,4.8-2.45c3.7,0,6.1,3.74,4.43,12.15
		c-3.28,16.3-16.26,32.24-26.51,32.24C1048.54,468.28,1046.56,465.19,1047.2,455.35z"/>
	<path class="st0" d="M1081.24,461.26c0.28-1.57,1.2-2.86,2.31-3.42c2.54,3.37,6.19,5.22,9.51,5.22c3.05,0,4.99-1.62,5.59-4.53
		c0.6-3.09-0.51-6-5.77-10.53c-6.05-5.17-7.21-8.5-6.42-13.12c0.88-5.64,7.99-10.99,15.01-10.99c4.76,0,8.08,2.26,7.58,4.94
		c-0.32,1.62-1.43,3-2.96,3.93c-2.63-2.54-5.77-4.02-8.22-4.02c-2.54,0-4.39,1.62-4.8,4.02c-0.55,2.96,0.65,5.82,6.05,10.62
		c5.96,5.22,6.97,8.45,6.1,12.93c-1.29,6.6-8.45,11.92-15.7,11.92C1084.01,468.24,1080.45,465.24,1081.24,461.26z"/>
	<path class="st0" d="M1128.34,464.03l3.33-0.14c4.06-0.18,4.94-1.48,5.96-6.42l7.85-39.12c1.02-5.08,0.55-6.24-3.37-6.42
		l-3.33-0.18l0.6-3.05h23.74l-0.6,3.05l-3.37,0.18c-4.02,0.19-4.94,1.43-5.91,6.42l-7.85,39.12c-1.02,5.08-0.6,6.24,3.33,6.42
		l3.37,0.14l-0.65,3.09h-23.74L1128.34,464.03z"/>
	<path class="st0" d="M1165.24,459.19l6.47-30.25h-5.68l0.51-2.63l3.42-0.69c2.08-0.42,2.59-1.06,2.96-2.82l1.39-6.7
		c0.55-2.54,2.08-4.11,4.2-4.11c2.59,0,3.56,1.71,2.96,4.43l-2.08,8.59h11.64l-0.51,2.68c-0.83,1.06-2.4,1.25-7.85,1.25h-4.06
		l-5.08,26.23c-1.02,5.31-0.32,6.88,2.12,6.88c1.85,0,6.47-3.09,9.33-5.36l1.2,2.45c-4.76,5.45-10.07,9.1-14.78,9.1
		C1167,468.24,1164,465.14,1165.24,459.19z"/>
	<path class="st0" d="M1193.65,447.68c2.82-14,12.47-23.79,23.74-23.79c1.89,0,4.48,0.23,6.7,0.74c0.97,0.18,1.75,0.32,2.22,0.32
		c0.88,0,1.34-0.37,1.99-2.08l0.79-1.99l3.42,0.92c-1.52,4.16-4.02,12.15-5.17,17.74l-0.83,3.93c-2.96,14.18-2.26,19.12-0.88,19.12
		c1.02,0,3.09-1.76,5.17-3.97l1.29,2.4c-2.82,3.69-7.02,7.21-11.78,7.21c-3.65,0-4.67-4.48-1.43-20.09l-0.23-0.05
		c-7.44,14.83-13.26,20.14-18.57,20.14C1193.65,468.24,1191.29,459.37,1193.65,447.68z M1215.22,448.33
		c3.56-6.19,4.99-10.25,6-14.18l0.37-1.43c0.65-2.31-2.49-4.16-6.93-4.16c-6.24,0-10.85,6.19-12.79,15.84
		c-1.94,9.65-1.15,16.72,2.03,16.72C1206.44,461.12,1211.06,455.63,1215.22,448.33z"/>
	<path class="st0" d="M1243.89,405.33l14.27-3.6c-1.52,4.99-2.45,8.59-4.34,18.06l-7.16,36.03c-1.11,5.54-0.6,6.7,0.37,6.7
		c1.06,0,3.33-1.39,6.37-4.57l1.34,2.31c-2.72,3.83-7.67,7.99-12.61,7.99c-3.23,0-4.85-1.99-4.06-5.87l9.75-48.22
		c0.51-2.49,0.51-3.6-0.51-4.43l-3.65-3.14L1243.89,405.33z"/>
	<path class="st0" d="M1267.63,468.24c-3.23,0-4.85-2.12-4.16-5.45l5.36-26.33c1.11-5.5,0.88-6.84-0.19-6.84
		c-1.02,0-2.54,0.83-6.33,4.57l-1.39-2.31c3.19-4.39,8.27-7.99,12.47-7.99c1.94,0,4.25,0.74,4.76,2.59l-6,29.33
		c-1.15,5.54-0.51,6.7,0.42,6.7c1.15,0,3.28-1.57,6.33-4.57l1.43,2.26C1277.61,464.03,1272.58,468.24,1267.63,468.24z
		 M1272.02,409.99c0.6-2.54,2.63-4.25,5.22-4.25c3.05,0,4.94,2.36,4.43,5.63c-0.46,2.77-2.54,4.67-5.36,4.67
		C1273.31,416.04,1271.24,413.41,1272.02,409.99z"/>
	<path class="st0" d="M1287.35,446.16c2.82-13.81,12.79-22.26,22.86-22.26c4.34,0,7.99,1.94,7.39,4.85
		c-0.46,2.22-2.91,4.43-3.7,4.43c-2.86-2.17-5.45-3.79-8.27-3.79c-5.91,0-9.19,9.84-10.12,14.36c-2.08,10.16-0.65,18.06,4.53,18.06
		c2.63,0,6.56-1.94,12.56-5.59l1.43,2.17c-5.54,6.28-12.79,9.84-17.46,9.84C1288.74,468.24,1284.77,458.91,1287.35,446.16z"/>
</g>
<g>
	<path class="st0" d="M692.19,549.7c0-19.17,13.02-32.1,34.6-32.1c7.3,0,12.75,1.62,16.63,1.57l2.26,15.24h-4.02l-0.83-2.49
		c-2.49-7.76-8.59-9.98-15.66-9.98c-14.96,0-22.63,10.21-22.63,26.74c0,15.38,7.44,25.91,23.23,25.91c9.38,0,11.18-1.71,11.18-6.33
		v-9.1c0-4.53-0.65-5.17-5.87-5.08l-9.88,0.09v-4.57h26.1c-0.6,3.42-1.29,6.56-1.29,15.15v11.04c-6.1,1.89-13.44,3.09-21.62,3.09
		C704.24,578.9,692.19,568.18,692.19,549.7z"/>
	<path class="st0" d="M778.51,573.08c-5.68,4.3-8.54,5.54-11.36,5.54c-6.56,0-11.27-5.36-11.27-11.5c0-3.51,1.39-5.59,3.09-6.7
		c1.75-1.2,6.24-3.05,19.49-5.03l0.05-6.93c0.09-6.47-1.94-8.64-6.42-8.64c-2.45,0-4.02,0.6-4.8,1.43
		c-0.51,0.55-0.51,1.29-0.05,3.93c-1.66,1.39-4.34,2.45-6.28,2.45s-3.14-1.15-3.14-2.73c0-4.3,10.07-9.88,19.86-9.88
		c6.88,0,9.75,3.28,9.61,10.02l-0.37,18.71c-0.19,7.11,0.88,9.19,3.14,9.19c0.92,0,2.59-0.69,3.65-1.29l0.83,3
		c-4.02,2.49-7.62,3.97-10.07,3.97c-2.96,0-5.03-1.94-5.73-5.54H778.51z M778.46,559.59c-3.05,0.14-8.64,1.39-11.27,2.26
		c-1.71,0.65-2.4,1.8-2.4,3.65c0,4.06,3.14,7.34,6.47,7.34c1.66,0,4.16-0.74,7.11-2.82L778.46,559.59z"/>
	<path class="st0" d="M801.87,577.51c0.42-2.4,0.92-5.13,0.92-15.2v-36.86c0-2.54-0.32-3.7-1.52-4.62l-3.88-3.05v-1.71l14.92-4.16
		c-0.55,4.71-0.79,8.54-0.79,13.35v9.56c0,3.19-0.14,4.71-0.32,6.51l0.14,0.05l1.25-1.02c3.88-3.14,8.45-5.36,12.89-5.36
		c9.38,0,16.26,7.53,16.26,19.31c0,13.07-9.98,23.56-26.74,23.56c-3.14,0-7.25-0.32-10.9-0.37H801.87z M811.53,565.08
		c0,6.28,2.12,8.36,7.76,8.36c8.08,0,13.76-6.84,13.76-17.18c0-8.78-4.43-14.55-12.7-14.55c-2.68,0-6.1,1.02-8.82,2.63V565.08z"/>
	<path class="st0" d="M850.92,520.84l-3.88-3.05v-1.71l14.92-4.16c-0.55,4.71-0.83,8.54-0.83,13.35v43.97
		c0,3.51,0.55,4.85,3.79,4.99l2.77,0.09v3.19h-21.8v-3.19l2.77-0.09c3.19-0.14,3.74-1.48,3.74-4.99v-43.79
		C852.4,522.91,852.12,521.76,850.92,520.84z"/>
	<path class="st0" d="M892.3,535.02c7.34,0,12.29,4.85,14.32,11.32c0.65,2.03,1.2,3.14,2.03,3.56l-0.46,1.94
		c-9.7,0.74-18.34,0.88-27.57,0.69c-0.09,0.69-0.09,1.75-0.09,2.59c0.09,9.19,5.22,17.04,14.97,17.04c3.23,0,8.68-1.52,11.92-2.68
		l0.6,2.45c-6.37,4.2-11.59,6.7-17.14,6.7c-9.88,0-19.12-7.21-19.12-19.77C871.75,545.45,881.5,535.02,892.3,535.02z M899.23,548.27
		c-1.39-5.73-5.22-9.05-9.1-9.05c-4.25,0-7.62,3.93-8.96,9.84L899.23,548.27z"/>
	<path class="st0" d="M941.86,573.31c-4.94,3.33-10.25,5.36-14.04,5.36c-5.77,0-9.47-3.05-9.38-10.07l0.32-24.76
		c0.05-2.68-0.14-3.28-1.89-3.93l-2.86-1.11c0-0.05,0-1.75,0-1.75l13.21-9.15l-0.32,8.22h14.09l-0.23,2.54
		c-0.65,1.25-2.82,1.89-7.62,1.89h-5.96v25.5c0,4.76,2.08,6.42,5.4,6.42c2.31,0,6.05-0.79,8.78-1.66L941.86,573.31z"/>
	<path class="st0" d="M961.81,574.14l1.8-0.09c5.87-0.37,7.48-2.17,8.82-13.39l3.93-32.1c0.65-5.22-1.02-5.59-5.08-5.87l-4.3-0.28
		v-3.37h20.32c1.2,4.39,3.23,9.38,5.59,14.83l9.75,21.85h0.14l15.75-36.67h19.31v3.37l-4.62,0.14c-3.83,0.14-4.99,0.79-4.53,5.4
		l3.93,38.11c0.69,6.65,2.03,7.94,6.93,8.04l2.36,0.05v3.37h-26.14v-3.37l3.46-0.28c4.06-0.32,4.66-1.48,4.06-7.81l-3.83-36.81
		h-0.09l-16.77,38.34h-4.3l-17.23-38.2h-0.09l-3.37,31.5c-1.15,10.53-0.23,13.03,5.17,13.16l3.6,0.09v3.37h-24.57V574.14z"/>
	<path class="st0" d="M1066.69,535.02c7.34,0,12.29,4.85,14.32,11.32c0.65,2.03,1.2,3.14,2.03,3.56l-0.46,1.94
		c-9.7,0.74-18.34,0.88-27.57,0.69c-0.09,0.69-0.09,1.75-0.09,2.59c0.09,9.19,5.22,17.04,14.96,17.04c3.23,0,8.68-1.52,11.92-2.68
		l0.6,2.45c-6.37,4.2-11.59,6.7-17.14,6.7c-9.88,0-19.12-7.21-19.12-19.77C1046.14,545.45,1055.88,535.02,1066.69,535.02z
		 M1073.62,548.27c-1.38-5.73-5.22-9.05-9.1-9.05c-4.25,0-7.62,3.93-8.96,9.84L1073.62,548.27z"/>
	<path class="st0" d="M1120.17,525.46c0-2.54-0.32-3.7-1.52-4.62l-3.93-3.05v-1.66l14.96-4.2c-0.55,4.71-0.79,8.54-0.79,13.35v41.15
		c0,5.17,0.69,6.93,3.05,6.93c0.79,0,1.99-0.14,3.05-0.37l0.23,3.23l-14.41,2.49l-0.46-6.47l-0.19-0.05l-1.71,1.25
		c-4.67,3.42-8.54,5.17-12.24,5.17c-10.16,0-18.25-8.18-18.25-20.69c0-13.26,10.25-22.91,24.43-22.91c2.77,0,5.4,0.23,7.76,1.02
		V525.46z M1120.17,544.81c0-3.37-3.88-5.73-9.05-5.73c-9.15,0-14.27,7.11-14.27,16.63c0,9.88,5.64,16.21,14.37,16.21
		c2.03,0,5.13-0.69,8.96-2.73V544.81z"/>
	<path class="st0" d="M1140.03,574.32l2.77-0.09c3.23-0.14,3.79-1.48,3.79-4.99v-22.08c0-2.59-0.46-3.56-1.57-4.57l-2.86-2.77v-1.71
		l13.9-4.06c-0.55,4.71-0.74,8.5-0.74,13.39v21.8c0,3.51,0.55,4.85,3.74,4.99l2.77,0.09v3.19h-21.8V574.32z M1145.29,521.25
		c0-3.14,2.31-5.45,5.54-5.45c3.28,0,5.54,2.26,5.54,5.45c0,3.42-2.26,5.63-5.54,5.63C1147.6,526.89,1145.29,524.58,1145.29,521.25z
		"/>
	<path class="st0" d="M1196.79,578.71l-0.51-6.47h-0.09l-2.91,2.08c-4.16,3.05-8.08,4.3-12.01,4.3c-7.25,0-11.18-4.25-11.18-12.06
		c0-9.24,0.23-15.15,0.23-19.58c0-2.54-0.42-3.51-1.52-4.57l-3.05-2.73v-1.66l13.86-3.93c-0.51,4.9-0.74,8.54-0.74,13.58v14
		c0,7.48,2.08,10.35,7.76,10.35c3.14,0,6.74-1.06,9.51-2.68v-22.49c0-2.45-0.42-3.37-1.57-4.39l-2.91-2.77v-1.66l13.95-3.93
		c-0.51,4.9-0.74,8.54-0.74,13.58v18.75c0,5.08,0.74,6.97,3.05,6.97c0.83,0,2.08-0.18,3.05-0.42l0.23,3.23L1196.79,578.71z"/>
	<path class="st0" d="M1216.09,574.32l2.77-0.09c3.23-0.14,3.79-1.48,3.79-4.99v-22.03c0-2.54-0.46-3.46-1.57-4.57l-2.91-2.82v-1.71
		l13.12-4.06l-0.19,7.34l0.19,0.05l2.45-1.66c4.62-3.23,8.68-4.76,12.15-4.76c5.13,0,8.73,2.08,10.67,6.79h0.14l2.96-2.22
		c4.76-3.51,8.64-4.57,12.15-4.57c7.62,0,11.64,4.8,11.64,14.09c0,5.4-0.14,14.41-0.14,20.14c0,3.93,0.69,4.94,3.83,5.03l2.63,0.05
		v3.19h-21.02v-3.19l2.45-0.09c3-0.19,3.37-1.29,3.37-4.99l0.09-17.51c0-7.44-2.68-10.12-8.31-10.12c-3.51,0-6.61,1.39-9.19,2.86
		c0.18,1.34,0.28,2.77,0.28,5.17c0,3.42,0,16.63,0,19.58c0,3.93,0.69,4.94,3.83,5.03l2.59,0.05v3.19h-21.06v-3.19l2.54-0.14
		c3-0.18,3.37-1.25,3.37-4.94v-17.51c0-7.44-2.63-10.12-8.22-10.12c-3.46,0-6.51,1.29-9.1,2.77v24.99c0,3.42,0.55,4.8,3.74,4.85
		l2.59,0.09v3.19h-21.62V574.32z"/>
</g>
<g>
	<path class="st0" d="M649.98,627.98c7.57,0,13.35,1.85,17.46,2.45l0.42,15.75h-3.93l-0.51-3.51c-0.97-6.93-7.34-10.62-15.43-10.62
		c-9.61,0-18.57,7.53-21.48,22.08c-3.33,16.72,1.34,30.71,16.58,30.71c8.64,0,11.36-1.71,12.29-6.33l1.76-8.59
		c0.97-4.9,0.46-5.59-3.46-5.5l-10.76,0.09l0.92-4.67h24.25c-1.11,3.05-2.31,7.99-4.02,16.12l-2.03,9.88
		c-6,1.94-12.98,3.42-19.72,3.42c-20.55,0-29.93-14.5-25.96-34.23C619.91,637.36,632.47,627.98,649.98,627.98z"/>
	<path class="st0" d="M675.47,668.3c2.82-14,12.42-23.79,24.02-23.79c2.03,0,4.76,0.32,7.11,0.83c0.92,0.23,1.66,0.37,2.12,0.37
		c0.88,0,1.29-0.37,1.94-2.03l0.79-2.08l3.56,0.92c-1.52,4.25-3.83,11.78-5.03,17.32l-0.88,4.29c-2.96,13.95-2.31,18.94-0.83,18.94
		c0.97,0,3-1.71,5.36-4.06l1.25,2.49c-3,3.97-7.34,7.53-12.19,7.53c-3.93,0-5.13-4.39-1.75-20l-0.28-0.05
		c-7.3,14.64-13.21,20.04-18.57,20.04C675.52,689.04,673.07,680.13,675.47,668.3z M697.13,669.27c3.51-6.05,4.94-10.21,6.05-14.36
		l0.37-1.39c0.65-2.31-2.45-4.2-6.84-4.2c-6.1,0-10.53,5.96-12.42,15.57c-1.99,9.75-1.06,16.54,1.99,16.54
		C688.68,681.42,693.07,676.25,697.13,669.27z"/>
	<path class="st0" d="M729.97,634.91c0.51-2.4,0.51-3.51-0.55-4.39l-3.6-3l0.23-1.43l14.92-3.6c-1.43,4.94-2.12,8.27-4.11,17.18
		l-1.11,5.08c-1.48,6.74-2.59,11.69-3.79,16.17l0.28,0.14c5.68-10.99,10.72-16.54,17.14-16.54c7.02,0,10.35,6.74,8.04,18.2
		c-3.09,15.47-13.63,26.33-25.27,26.33c-3.37,0-7.57-0.83-12.52-2.49L729.97,634.91z M748.58,666.37
		c1.66-8.18,0.74-14.13-3.28-14.13c-3.46,0-7.11,3.88-10.58,10.21c-3.09,5.73-4.71,10.3-5.96,17.6c-0.46,2.59,2.17,4.16,6.51,4.16
		C742.02,684.19,746.73,675.42,748.58,666.37z"/>
	<path class="st0" d="M768.9,626.09l14.92-3.6c-1.52,4.94-2.45,8.41-4.2,17.37l-7.21,36.12c-1.15,5.82-0.65,6.97,0.32,6.97
		c1.06,0,3.33-1.34,6.42-4.57l1.34,2.49c-2.82,3.93-7.9,8.17-12.98,8.17c-3.46,0-5.22-2.12-4.39-6.1l9.7-48.04
		c0.46-2.4,0.51-3.51-0.55-4.39l-3.65-3L768.9,626.09z"/>
	<path class="st0" d="M786.77,666.69c2.59-13.3,12.56-22.17,22.73-22.17c5.91,0,9.47,4.16,8.45,9.28
		c-1.06,5.17-5.91,8.5-15.57,11.04l-7.57,2.03c-1.11,9.51,0.92,15.47,5.17,15.47c2.59,0,8.96-3.14,12.89-5.77l1.43,2.36
		c-5.59,5.64-13.16,10.12-18.01,10.12C788.3,689.04,784.37,679.16,786.77,666.69z M800.86,661.28c5.87-1.75,9.19-4.39,9.75-7.44
		c0.46-2.72-1.43-4.99-3.83-4.99c-3.88,0-9.42,4.43-11.27,13.76c-0.05,0.09-0.05,0.18-0.05,0.28L800.86,661.28z"/>
	<path class="st0" d="M822.61,679.76l6.42-29.93h-5.68l0.55-2.86l3.42-0.69c2.03-0.37,2.59-1.02,2.96-2.73l1.34-6.51
		c0.6-2.68,2.22-4.34,4.53-4.34c2.73,0,3.88,1.85,3.19,4.71l-1.94,8.27h11.45l-0.55,2.82c-0.88,1.11-2.49,1.34-7.9,1.34h-3.88
		l-4.94,25.63c-1.06,5.4-0.42,7.02,1.94,7.02c1.89,0,6.47-3.05,9.38-5.36l1.2,2.54c-4.71,5.59-10.12,9.38-15.15,9.38
		C824.32,689.04,821.27,685.9,822.61,679.76z"/>
	<path class="st0" d="M914.89,684.7l3.79-0.28c3.37-0.23,5.13-1.48,5.64-8.08l2.63-36.77h-0.09l-23.56,38.57h-3.97l-8.64-38.57
		h-0.14l-11.27,33.76c-3.14,9.28-1.8,10.85,3.05,11.18l3.05,0.19l-0.65,3.19h-24.02l0.65-3.19l1.76-0.14
		c5.59-0.46,7.85-2.31,10.99-11.46l11.87-34.78c1.48-4.39-0.05-5.31-4.02-5.54l-4.06-0.18l0.65-3.19h19.4
		c0.28,4.02,0.74,6.93,2.49,15.06l4.62,21.43h0.09l21.85-36.49h18.66L945,632.6l-4.76,0.28c-3.65,0.19-4.71,1.29-4.94,4.8
		l-2.49,38.8c-0.51,7.39,0.46,7.85,4.99,8.08l2.08,0.14l-0.65,3.19h-24.99L914.89,684.7z"/>
	<path class="st0" d="M947.07,666.69c2.59-13.3,12.56-22.17,22.72-22.17c5.91,0,9.47,4.16,8.45,9.28
		c-1.06,5.17-5.91,8.5-15.57,11.04l-7.57,2.03c-1.11,9.51,0.92,15.47,5.17,15.47c2.59,0,8.96-3.14,12.89-5.77l1.43,2.36
		c-5.59,5.64-13.16,10.12-18.01,10.12C948.6,689.04,944.67,679.16,947.07,666.69z M961.16,661.28c5.87-1.75,9.19-4.39,9.75-7.44
		c0.46-2.72-1.43-4.99-3.83-4.99c-3.88,0-9.42,4.43-11.27,13.76c-0.05,0.09-0.05,0.18-0.05,0.28L961.16,661.28z"/>
	<path class="st0" d="M1016.49,659.48c-3.56,15.75-3.74,23.6-1.8,23.6c0.97,0,3-1.71,5.36-4.06l1.25,2.49
		c-3,3.97-7.34,7.53-12.19,7.53c-3.93,0-5.27-5.22-1.76-20l-0.28-0.05c-7.3,14.64-13.21,20.04-18.57,20.04
		c-6.56,0-9.01-8.91-6.6-20.74c2.82-14,12.42-23.79,24.02-23.79c2.12,0,4.9,0.37,6.51,0.83l2.17-10.62c0.55-2.68,0.37-3.6-0.55-4.39
		l-3.6-3l0.23-1.43l15.33-3.6c-2.82,8.31-5.13,17.64-8.27,31.46L1016.49,659.48z M1003.56,669.27c3.51-6.05,4.94-10.21,6.05-14.36
		l0.37-1.39c0.65-2.31-2.45-4.2-6.84-4.2c-6.1,0-10.53,5.96-12.42,15.57c-1.99,9.75-1.06,16.54,1.99,16.54
		C995.11,681.42,999.5,676.25,1003.56,669.27z"/>
	<path class="st0" d="M1034.59,689.04c-3.51,0-5.27-2.26-4.53-5.77l5.22-25.59c1.16-5.73,0.88-7.07-0.14-7.07
		c-1.06,0-2.63,0.92-6.37,4.57l-1.34-2.49c3.19-4.48,8.36-8.18,12.75-8.18c2.22,0,4.62,0.92,5.13,2.96l-5.87,28.5
		c-1.2,5.82-0.55,6.97,0.37,6.97c1.15,0,3.28-1.48,6.37-4.57l1.43,2.45C1044.8,684.7,1039.63,689.04,1034.59,689.04z
		 M1038.66,630.66c0.6-2.72,2.77-4.53,5.54-4.53c3.19,0,5.13,2.49,4.57,5.91c-0.51,2.91-2.68,4.9-5.59,4.9
		C1039.95,636.94,1037.87,634.17,1038.66,630.66z"/>
	<path class="st0" d="M1094.22,645.53c-1.48,3.56-3.09,8.5-4.57,15.01c-3.46,14.96-3.56,22.54-1.66,22.54
		c1.02,0,3.05-1.71,5.36-4.06l1.29,2.49c-3,3.97-7.34,7.53-12.19,7.53c-3.69,0-4.8-4.67-1.99-17.37l-0.28-0.05
		c-5.54,10.58-11.73,17.41-18.75,17.41c-4.71,0-6.65-3.56-4.67-11.96l4.62-19.58c1.34-5.77,0.6-6.74-0.32-6.74
		c-1.2,0-3.05,1.25-5.82,3.79l-1.34-2.45c2.73-3.74,8.31-7.58,12.66-7.58c2.49,0,4.3,1.16,5.04,3.05l-6,25.22
		c-1.8,7.39-0.79,9.05,0.97,9.05c3.05,0,7.94-5.68,12.61-13.86c1.39-2.4,1.89-3.56,2.17-5.08c0.65-2.96,1.25-6.42,2.96-13.44
		c0.74-3.05,3.56-4.94,9.28-4.67L1094.22,645.53z"/>
	<path class="st0" d="M1101.79,688.17c1.75-4.06,3.79-10.53,5.45-18.84c2.91-14.27,2.22-18.66,0.69-18.66
		c-1.11,0-3.56,1.75-5.5,3.88l-1.48-2.4c2.86-3.79,7.44-7.62,12.33-7.62c2.26,0,3.97,0.74,4.8,1.99c-0.18,2.49-1.48,11.22-2.63,15.7
		l0.23,0.05c6.6-12.15,12.56-17.74,18.84-17.74c5.13,0,6.79,3.97,4.85,11.32l-1.48,5.63l0.28,0.09
		c5.73-10.58,12.15-17.04,18.98-17.04c4.71,0,6.65,3.56,4.9,10.85l-4.9,20.69c-1.39,5.77-0.74,6.88,0.23,6.88c1.2,0,3-1.2,6.47-4.57
		l1.34,2.49c-3.46,4.99-8.54,8.17-12.79,8.17c-3.74,0-5.63-1.99-4.8-5.54l5.27-22.72c1.75-7.39,0.88-9.05-0.79-9.05
		c-3.14,0-7.71,4.53-13.58,13.95c-0.88,1.34-1.2,2.03-1.57,4.11c-0.55,3.46-1.29,7.94-2.91,14.46c-0.79,3.05-3.6,4.94-9.33,4.67
		l-0.65-0.74c1.75-4.11,3.56-11.36,5.4-19.58c2.68-12.15,3.09-16.86,0.97-16.86c-3.09,0-9.01,5.77-14.23,14.92
		c-0.69,1.2-1.15,2.4-1.43,3.65c-0.65,3.19-1.25,6.88-3,13.95c-0.74,3.05-3.6,4.94-9.33,4.67L1101.79,688.17z"/>
	<path class="st0" d="M1185.8,684.7l3.42-0.19c3.88-0.18,4.8-1.43,5.73-6.19l7.9-39.35c0.97-4.85,0.55-6.05-3.28-6.24l-3.33-0.14
		l0.65-3.19h24.25l-0.65,3.19l-3.42,0.14c-3.88,0.18-4.8,1.48-5.73,6.24l-7.9,39.35c-0.97,4.85-0.55,6,3.28,6.19l3.33,0.19
		l-0.65,3.19h-24.25L1185.8,684.7z"/>
	<path class="st0" d="M1222.97,679.76l6.42-29.93h-5.68l0.55-2.86l3.42-0.69c2.03-0.37,2.59-1.02,2.96-2.73l1.34-6.51
		c0.6-2.68,2.22-4.34,4.53-4.34c2.73,0,3.88,1.85,3.19,4.71l-1.94,8.27h11.46l-0.55,2.82c-0.88,1.11-2.49,1.34-7.9,1.34h-3.88
		l-4.94,25.63c-1.06,5.4-0.42,7.02,1.94,7.02c1.89,0,6.47-3.05,9.38-5.36l1.2,2.54c-4.71,5.59-10.12,9.38-15.15,9.38
		C1224.68,689.04,1221.63,685.9,1222.97,679.76z"/>
	<path class="st0" d="M1251.61,668.3c2.82-14,12.42-23.79,24.02-23.79c2.03,0,4.76,0.32,7.11,0.83c0.92,0.23,1.66,0.37,2.12,0.37
		c0.88,0,1.29-0.37,1.94-2.03l0.79-2.08l3.56,0.92c-1.52,4.25-3.83,11.78-5.03,17.32l-0.88,4.29c-2.96,13.95-2.31,18.94-0.83,18.94
		c0.97,0,3-1.71,5.36-4.06l1.25,2.49c-3,3.97-7.34,7.53-12.19,7.53c-3.93,0-5.13-4.39-1.76-20l-0.28-0.05
		c-7.3,14.64-13.21,20.04-18.57,20.04C1251.65,689.04,1249.21,680.13,1251.61,668.3z M1273.27,669.27
		c3.51-6.05,4.94-10.21,6.05-14.36l0.37-1.39c0.65-2.31-2.45-4.2-6.84-4.2c-6.1,0-10.53,5.96-12.42,15.57
		c-1.99,9.75-1.06,16.54,1.99,16.54C1264.82,681.42,1269.21,676.25,1273.27,669.27z"/>
	<path class="st0" d="M1302.46,626.09l14.92-3.6c-1.52,4.94-2.45,8.41-4.2,17.37l-7.21,36.12c-1.16,5.82-0.65,6.97,0.32,6.97
		c1.06,0,3.33-1.34,6.42-4.57l1.34,2.49c-2.82,3.93-7.9,8.17-12.98,8.17c-3.46,0-5.22-2.12-4.39-6.1l9.7-48.04
		c0.46-2.4,0.51-3.51-0.55-4.39l-3.65-3L1302.46,626.09z"/>
	<path class="st0" d="M1327.07,689.04c-3.51,0-5.27-2.26-4.53-5.77l5.22-25.59c1.16-5.73,0.88-7.07-0.14-7.07
		c-1.06,0-2.63,0.92-6.37,4.57l-1.34-2.49c3.19-4.48,8.36-8.18,12.75-8.18c2.22,0,4.62,0.92,5.13,2.96l-5.87,28.5
		c-1.2,5.82-0.55,6.97,0.37,6.97c1.15,0,3.28-1.48,6.37-4.57l1.43,2.45C1337.28,684.7,1332.11,689.04,1327.07,689.04z
		 M1331.14,630.66c0.6-2.72,2.77-4.53,5.54-4.53c3.19,0,5.13,2.49,4.57,5.91c-0.51,2.91-2.68,4.9-5.59,4.9
		C1332.43,636.94,1330.35,634.17,1331.14,630.66z"/>
	<path class="st0" d="M1346.84,666.69c2.86-13.76,12.89-22.17,23.05-22.17c4.67,0,8.41,2.12,7.76,5.13
		c-0.46,2.26-2.91,4.48-3.97,4.57c-3.09-2.49-5.59-4.02-8.27-4.02c-5.73,0-8.82,9.51-9.75,13.9c-2.08,10.12-0.65,18.2,4.62,18.2
		c2.59,0,6.65-1.99,12.56-5.68l1.43,2.36c-5.63,6.37-12.98,10.07-17.88,10.07C1348.41,689.04,1344.11,679.62,1346.84,666.69z"/>
</g>
<g>
	<path class="st0" d="M760.31,770.51c0-19.82,13.63-32.47,35.15-32.47c7.57,0,12.93,1.71,17,1.66l2.26,16.26h-4.67l-1.11-2.77
		c-2.73-7.3-7.85-9.88-15.01-9.88c-13.35,0-20.37,9.47-20.37,26.1c0,15.75,6.7,25.17,20.88,25.17c7.53,0,9.38-1.66,9.38-6v-8.41
		c0-4.62-0.83-5.27-6.33-5.17l-7.71,0.09v-5.4h26.65c-0.6,3.33-1.2,6.93-1.2,15.33v11.27c-7.48,2.12-15.75,3.51-23.65,3.51
		C772.18,799.79,760.31,789.54,760.31,770.51z"/>
	<path class="st0" d="M847.32,793.42c-5.4,4.39-9.01,6.05-12.38,6.05c-6.19,0-11.36-5.13-11.32-12.19c0-3.51,1.25-5.91,3.33-7.16
		c2.12-1.29,6.88-3.05,20.05-5.03l0.05-6.56c0-5.45-1.8-7.62-6.05-7.62c-2.17,0-3.74,0.6-4.48,1.43c-0.55,0.65-0.46,1.39-0.05,4.2
		c-1.62,1.34-4.67,2.59-7.07,2.59c-2.31,0-3.69-1.25-3.69-3.14c0-4.94,11.27-10.53,21.99-10.53c7.81,0,10.67,3.74,10.53,10.9
		l-0.37,17.83c-0.14,6.14,0.83,8.36,2.77,8.36c0.83,0,2.4-0.6,3.65-1.29l0.83,3.65c-4.11,2.86-8.36,4.53-11.27,4.53
		c-3.23,0-5.5-1.85-6.28-6H847.32z M847,779.93c-3.51,0.14-7.99,1.29-9.98,2.08c-1.52,0.65-2.12,1.99-2.12,3.65
		c0,3.7,2.77,6.97,5.73,6.97c1.48,0,3.79-0.92,6.33-2.77L847,779.93z"/>
	<path class="st0" d="M871.75,798.27c0.51-2.77,0.92-5.4,0.92-13.86v-37.6c0-2.77-0.32-3.97-1.66-4.94l-3.65-2.82v-2.26l17.41-4.11
		c-0.6,3.65-0.97,8.27-0.97,13.67v7.53c0,3.05-0.14,5.4-0.32,7.62l0.14,0.05l1.25-0.97c3.97-3.09,8.45-5.13,12.7-5.13
		c9.75,0,16.72,7.62,16.72,19.31c0,13.58-10.44,23.93-28.59,23.93c-2.63,0-7.62-0.23-11.82-0.37L871.75,798.27z M883.81,785.8
		c0,5.54,1.99,7.71,6.74,7.71c6.74,0,12.19-5.77,12.19-16.07c0-8.59-4.16-14.23-11.82-14.23c-2.17,0-4.85,0.69-7.11,1.89V785.8z"/>
	<path class="st0" d="M922.23,741.87l-3.65-2.82v-2.26l17.46-4.11c-0.6,3.65-1.02,8.27-1.02,13.67v43.6c0,3.23,0.55,4.29,3.46,4.43
		l2.73,0.18v3.7H917.7v-3.7l2.73-0.18c2.91-0.14,3.46-1.2,3.46-4.43v-43.14C923.89,744.04,923.52,742.84,922.23,741.87z"/>
	<path class="st0" d="M966.29,755.45c7.39,0,12.42,4.57,14.69,11.69c0.74,2.31,1.48,3.46,2.31,3.93l-0.74,2.31
		c-9.98,0.79-17.97,0.97-26.88,0.83c-0.05,0.37-0.05,0.97-0.05,1.39c0.28,8.82,5.31,15.89,14.6,15.89c3.42,0,8.59-1.52,11.73-2.77
		l0.69,2.82c-6.1,4.85-11.96,7.94-18.52,7.94c-10.81,0-19.49-7.81-19.49-20.28C944.63,765.52,955.21,755.45,966.29,755.45z
		 M972.48,769.17c-1.29-5.73-4.57-8.82-8.36-8.82c-4.25,0-7.16,3.88-8.13,9.88L972.48,769.17z"/>
	<path class="st0" d="M1017.88,792.86c-5.13,4.3-10.62,6.61-15.7,6.61c-6.42,0-10.3-3.7-10.21-11.09l0.23-22.82
		c0.05-2.68-0.14-3.65-1.85-4.3l-3.14-1.2c0-0.05,0-2.31,0-2.31l15.93-9.52l-0.32,8.41h13.9l-0.32,3.37
		c-0.65,1.25-2.82,1.94-7.62,1.94h-5.68v23.6c0,4.48,2.03,6.33,5.59,6.33c2.49,0,5.77-0.79,8.59-1.85L1017.88,792.86z"/>
	<path class="st0" d="M1039.17,798.27v-3.88l3.65-0.28c3.51-0.23,4.25-1.57,4.25-5.27v-39.86c0-3.7-0.74-5.03-4.25-5.27l-3.65-0.23
		v-3.93h12.75c6.79,0,11.55-0.19,17.83-0.19c11.45,0,16.26,4.99,16.26,12.7c0,6.79-5.03,12.93-12.7,14.78v0.23
		c11.04,1.2,16.81,6.42,16.81,14.69c0,11.22-8.13,16.49-26.42,16.49H1039.17z M1059.26,764.83c1.99,0.14,4.53,0.28,6.42,0.28
		c3.42,0,8.5-3.05,8.5-11.08c0-7.02-2.77-9.19-10.72-9.19c-1.25,0-2.68,0.05-4.2,0.14V764.83z M1059.26,787.69
		c0,4.11,1.2,5.22,6.24,5.22c8.22,0,12.15-3.51,12.15-11.18c0-7.16-5.36-11.46-14.18-11.46c-1.02,0-2.68,0-4.2,0.14V787.69z"/>
	<path class="st0" d="M1096.85,779.19c0-13.49,9.88-23.74,23.6-23.74c12.84,0,21.52,8.59,21.52,20.51
		c0,13.44-9.98,23.51-23.79,23.51C1105.44,799.47,1096.85,790.92,1096.85,779.19z M1129.55,777.9c0-9.88-4.25-17.6-10.39-17.6
		c-5.91,0-9.93,7.21-9.93,16.72c0,9.93,4.34,17.55,10.44,17.55C1125.58,794.57,1129.55,787.65,1129.55,777.9z"/>
	<path class="st0" d="M1150.19,741.87l-3.65-2.82v-2.26l17.46-4.11c-0.6,3.65-1.02,8.27-1.02,13.67v43.6c0,3.23,0.55,4.29,3.46,4.43
		l2.72,0.18v3.7h-23.51v-3.7l2.73-0.18c2.91-0.14,3.46-1.2,3.46-4.43v-43.14C1151.85,744.04,1151.48,742.84,1150.19,741.87z"/>
	<path class="st0" d="M1204.14,746.81c0-2.82-0.37-3.97-1.66-4.94l-3.65-2.82v-2.31l17.41-4.11c-0.6,3.7-0.97,8.31-0.97,13.67v41.06
		c0,4.57,0.65,6.14,2.96,6.14c0.6,0,1.85-0.14,2.63-0.28l0.23,3.74l-16.35,2.63l-0.28-6.19l-0.19-0.05l-1.71,1.2
		c-4.53,3.28-8.31,4.9-12.06,4.9c-10.21,0-17.88-8.13-17.88-20.37c0-13.9,10.76-23.65,24.8-23.65c2.4,0,4.67,0.14,6.7,0.74V746.81z
		 M1204.14,767c0-4.43-3.19-6.74-7.9-6.74c-7.3,0-12.06,5.91-12.06,15.8c0,9.61,4.99,15.66,12.79,15.66c1.75,0,4.25-0.51,7.16-1.94
		V767z"/>
</g>
<g>
	<path class="st0" d="M706.74,848.42c8.22,0,14,1.85,18.29,2.45l0.23,17.04h-4.67l-0.6-3.6c-1.39-7.67-6.88-10.9-14.32-10.9
		c-9.28,0-17.37,7.99-20.14,21.85c-3.28,16.3,1.48,29.56,14.6,29.56c6.84,0,8.87-1.62,9.61-5.5l1.76-8.59
		c0.97-4.99,0.28-5.68-4.67-5.54l-7.71,0.14l1.06-5.31h25.17c-1.15,3.14-2.36,7.58-4.02,15.66l-2.17,10.81
		c-6.74,2.03-13.35,3.7-20.37,3.7c-20.55,0-30.76-14.04-26.7-34.13C675.7,857.93,688.59,848.42,706.74,848.42z"/>
	<path class="st0" d="M731.72,888.46c2.82-14,12.38-23.6,25.27-23.6c2.49,0,5.73,0.42,8.54,1.2c0.92,0.23,1.48,0.37,1.94,0.37
		c0.88,0,1.2-0.37,1.76-1.94l0.74-2.26l4.25,0.92c-1.57,4.53-3.37,10.39-4.48,15.57l-1.25,5.82c-2.77,12.98-2.45,18.06-0.74,18.06
		c1.06,0,2.82-1.34,6.19-4.39l1.25,3.09c-3.74,5.08-8.68,8.54-13.86,8.54c-5.13,0-7.16-3.83-3.23-19.49l-0.37-0.09
		c-6.74,13.81-12.98,19.58-18.75,19.58C732.14,909.85,729.23,900.89,731.72,888.46z M753.66,890.63c3.33-5.5,5.03-10.02,6.42-14.83
		l0.37-1.39c0.69-2.36-2.26-4.3-6.56-4.3c-5.45,0-9.05,4.99-10.95,14.37c-2.08,10.16-0.79,15.98,1.8,15.98
		C746.73,900.47,750.1,896.59,753.66,890.63z"/>
	<path class="st0" d="M788.76,855.72c0.42-2.12,0.42-3.33-0.74-4.11l-3.6-2.59l0.42-2.22l17.46-3.65
		c-1.29,4.71-1.99,7.71-3.46,14.46l-0.88,3.97c-1.75,8.36-2.77,13.07-4.25,18.48l0.37,0.14c4.85-9.65,9.61-15.33,16.58-15.33
		c7.3,0,11.08,6.79,8.59,19.12c-3.23,16.3-15.38,25.87-26.74,25.87c-4.11,0-9.24-1.2-14-2.96L788.76,855.72z M808.16,887.63
		c1.66-8.18,0.79-13.26-2.86-13.26c-2.91,0-6.42,3.69-9.42,9.42c-2.49,4.71-4.11,9.56-5.45,16.49c-0.46,2.59,1.99,4.16,5.5,4.16
		C801.74,904.45,806.26,897.01,808.16,887.63z"/>
	<path class="st0" d="M830.09,846.8l17.37-3.65c-1.34,4.71-2.17,7.81-3.46,14.55l-7.34,36.77c-1.34,6.74-0.92,8.08,0.09,8.08
		c0.97,0,3.23-1.39,6.51-4.67l1.25,3.05c-3.74,5.27-8.96,8.92-14.18,8.92c-4.43,0.05-6.88-2.59-5.96-6.97l9.61-47.16
		c0.42-2.12,0.42-3.33-0.74-4.11l-3.56-2.59L830.09,846.8z"/>
	<path class="st0" d="M849.63,886.89c2.59-13.26,12.42-22.03,23.46-22.03c7.3,0,11.13,4.62,10.12,9.65
		c-1.06,5.26-5.73,8.96-16.21,11.5l-6.65,1.66c-0.83,9.05,1.25,14.18,5.36,14.18c2.54,0,8.18-2.59,13.39-6l1.57,2.91
		c-7.07,6.97-14.46,11.09-19.91,11.09C851.89,909.85,847.04,900.15,849.63,886.89z M865.28,882.09c5.17-1.43,8.36-4.11,8.96-7.25
		c0.51-2.73-1.2-4.99-3.6-4.99c-3.23,0-7.85,3.6-9.61,12.79c0,0.18-0.05,0.42-0.09,0.6L865.28,882.09z"/>
	<path class="st0" d="M888.28,899.78l6.37-28.68h-5.82l0.74-3.74l3.56-0.65c1.99-0.37,2.45-0.83,2.82-2.36l1.34-5.96
		c0.69-3.19,2.73-5.13,5.73-5.13c3.46,0,5.08,2.31,4.25,5.87l-1.62,6.93h10.72l-0.65,3.51c-0.88,1.2-2.86,1.52-7.9,1.52h-3.19
		l-4.62,23.28c-1.15,5.77-0.79,7.62,1.2,7.62c2.08,0,6.47-3.05,9.65-5.54l1.39,3.05c-4.62,6.05-10.58,10.35-16.77,10.35
		C889.9,909.85,886.76,906.62,888.28,899.78z"/>
	<path class="st0" d="M929.71,908.65l0.74-3.7l3.51-0.18c3.37-0.18,4.25-1.43,5.03-5.31l8.08-40.32c0.79-3.93,0.32-5.13-2.96-5.31
		l-3.42-0.19l0.74-3.69h11.27c5.59,0,9.75-0.19,15.52-0.19c10.9,0,15.75,5.59,14.09,13.86c-1.39,7.16-7.07,12.1-14.18,13.81v0.28
		c9.28,1.34,14.04,7.07,12.38,15.38c-2.08,10.44-10.35,15.57-26.1,15.57H929.71z M968.27,892.58c1.66-8.13-2.45-12.01-10.53-12.01
		c-0.97,0-2.22,0.05-3.65,0.18l-3.37,16.9c-0.92,4.57,0.05,6.05,4.8,6.05C962.96,903.71,966.84,899.69,968.27,892.58z M955.2,875.35
		l5.4,0.37c3.09,0.23,8.5-2.59,10.07-10.35c1.34-6.7-0.97-10.39-8.54-10.39c-0.88,0-1.85,0.05-2.86,0.14L955.2,875.35z"/>
	<path class="st0" d="M988.04,886.15c2.59-12.79,12.01-21.29,23-21.29c12.84,0,18.52,10.76,15.93,23.69
		c-2.59,12.84-11.96,21.29-22.96,21.29C991.13,909.85,985.45,899.04,988.04,886.15z M1015.24,888.7c1.52-9.33,1.11-18.98-4.8-18.98
		c-4.43,0-9.01,6.84-10.72,16.72c-1.57,9.42-0.83,18.57,5.27,18.57C1009.1,905,1013.58,898.3,1015.24,888.7z"/>
	<path class="st0" d="M1038.33,846.8l17.37-3.65c-1.34,4.71-2.17,7.81-3.46,14.55l-7.34,36.77c-1.34,6.74-0.92,8.08,0.09,8.08
		c0.97,0,3.23-1.39,6.51-4.67l1.25,3.05c-3.74,5.27-8.96,8.92-14.18,8.92c-4.43,0.05-6.88-2.59-5.96-6.97l9.61-47.16
		c0.42-2.12,0.42-3.33-0.74-4.11l-3.56-2.59L1038.33,846.8z"/>
	<path class="st0" d="M1096.06,878.67c-3.83,17.41-3.93,23.93-1.99,23.93c1.06,0,2.82-1.34,6.19-4.39l1.25,3.09
		c-3.74,5.08-8.68,8.54-13.86,8.54c-5.13,0-7.21-4.3-3.23-19.49l-0.37-0.09c-6.74,13.81-12.98,19.58-18.75,19.58
		c-6.84,0-9.75-8.96-7.25-21.39c2.82-14,12.38-23.6,25.27-23.6c1.8,0,4.11,0.28,5.82,0.65l1.75-9.88c0.42-2.22,0.23-3.33-0.83-4.11
		l-3.56-2.59l0.42-2.22l17.88-3.65c-2.03,6.42-3.6,12.42-6.74,26.51L1096.06,878.67z M1079.99,890.63
		c3.33-5.5,5.04-10.02,6.42-14.83l0.37-1.39c0.69-2.36-2.26-4.3-6.56-4.3c-5.45,0-9.05,4.99-10.95,14.37
		c-2.08,10.16-0.79,15.98,1.8,15.98C1073.06,900.47,1076.43,896.59,1079.99,890.63z"/>
	<path class="st0" d="M1119.29,904.95l3.51-0.18c3.37-0.18,4.25-1.43,5.03-5.31l8.08-40.32c0.79-3.93,0.32-5.13-2.96-5.31
		l-3.42-0.19l0.74-3.69h26.28l-0.74,3.69l-3.51,0.19c-3.37,0.18-4.25,1.43-5.04,5.31l-8.08,40.32c-0.79,3.97-0.32,5.13,2.96,5.31
		l3.42,0.18l-0.74,3.7h-26.28L1119.29,904.95z"/>
	<path class="st0" d="M1157.35,899.78l6.37-28.68h-5.82l0.74-3.74l3.56-0.65c1.99-0.37,2.45-0.83,2.82-2.36l1.34-5.96
		c0.69-3.19,2.73-5.13,5.73-5.13c3.46,0,5.08,2.31,4.25,5.87l-1.62,6.93h10.72l-0.65,3.51c-0.88,1.2-2.86,1.52-7.9,1.52h-3.19
		l-4.62,23.28c-1.16,5.77-0.79,7.62,1.2,7.62c2.08,0,6.47-3.05,9.65-5.54l1.39,3.05c-4.62,6.05-10.58,10.35-16.77,10.35
		C1158.96,909.85,1155.82,906.62,1157.35,899.78z"/>
	<path class="st0" d="M1187.13,888.46c2.82-14,12.38-23.6,25.27-23.6c2.49,0,5.73,0.42,8.54,1.2c0.92,0.23,1.48,0.37,1.94,0.37
		c0.88,0,1.2-0.37,1.75-1.94l0.74-2.26l4.25,0.92c-1.57,4.53-3.37,10.39-4.48,15.57l-1.25,5.82c-2.77,12.98-2.45,18.06-0.74,18.06
		c1.06,0,2.82-1.34,6.19-4.39l1.25,3.09c-3.74,5.08-8.68,8.54-13.86,8.54c-5.13,0-7.16-3.83-3.23-19.49l-0.37-0.09
		c-6.74,13.81-12.98,19.58-18.75,19.58C1187.55,909.85,1184.64,900.89,1187.13,888.46z M1209.07,890.63
		c3.33-5.5,5.04-10.02,6.42-14.83l0.37-1.39c0.69-2.36-2.26-4.3-6.56-4.3c-5.45,0-9.05,4.99-10.95,14.37
		c-2.08,10.16-0.79,15.98,1.8,15.98C1202.14,900.47,1205.52,896.59,1209.07,890.63z"/>
	<path class="st0" d="M1240.38,846.8l17.37-3.65c-1.34,4.71-2.17,7.81-3.46,14.55l-7.34,36.77c-1.34,6.74-0.92,8.08,0.09,8.08
		c0.97,0,3.23-1.39,6.51-4.67l1.25,3.05c-3.74,5.27-8.96,8.92-14.18,8.92c-4.43,0.05-6.88-2.59-5.96-6.97l9.61-47.16
		c0.42-2.12,0.42-3.33-0.74-4.11l-3.56-2.59L1240.38,846.8z"/>
	<path class="st0" d="M1262.32,903.06l4.67-22.72c1.39-6.74,1.06-8.18,0.05-8.18c-1.06,0-3,1.29-6.56,4.67l-1.25-3.05
		c3.46-4.85,8.91-8.91,13.95-8.91c3.23,0,6.1,1.48,6.7,4.16l-5.27,25.45c-1.38,6.74-0.88,8.08,0.14,8.08c1.06,0,3.09-1.34,6.47-4.67
		l1.34,3.05c-3.56,4.94-8.82,8.92-14.23,8.92C1263.84,909.9,1261.49,907.17,1262.32,903.06z M1271.19,851.01
		c0.69-3.28,3.23-5.64,6.65-5.64c3.74,0,6.05,2.96,5.27,7.07c-0.65,3.37-3.19,5.77-6.65,5.77
		C1272.57,858.21,1270.4,854.88,1271.19,851.01z"/>
	<path class="st0" d="M1288.23,886.52c3.05-13.67,13.49-21.66,24.06-21.66c5.96,0,10.07,2.59,9.24,6.14c-0.55,2.36-3,4.62-5.08,4.94
		c-4.11-3.56-6.56-4.94-8.59-4.94c-4.67,0-7.25,8.59-7.99,12.06c-2.22,10.02-0.6,18.8,4.76,18.8c2.49,0,7.02-2.22,12.66-5.82
		l1.62,2.86c-6.14,6.88-13.86,10.95-19.63,10.95C1290.63,909.85,1285.09,900.33,1288.23,886.52z"/>
</g>
<g>
	<path class="st0" d="M737.59,991.32c0-20.51,14.18-32.84,35.66-32.84c7.85,0,13.12,1.75,17.37,1.8l2.22,17.23h-5.31l-1.34-3.09
		c-2.96-6.79-7.16-9.79-14.36-9.79c-11.73,0-18.11,8.78-18.11,25.5c0,16.07,5.96,24.39,18.52,24.39c5.68,0,7.57-1.57,7.57-5.63
		v-7.71c0-4.71-1.02-5.36-6.79-5.27l-5.54,0.09v-6.19h27.2c-0.6,3.23-1.06,7.3-1.06,15.47v11.5c-8.91,2.4-18.06,3.93-25.77,3.93
		C749.27,1020.69,737.59,1010.95,737.59,991.32z"/>
	<path class="st0" d="M825.2,1013.76c-5.13,4.48-9.42,6.56-13.3,6.56c-5.82,0-11.45-4.9-11.41-12.89c0-3.56,1.06-6.24,3.56-7.67
		c2.45-1.39,7.48-2.96,20.6-4.99v-6.19c0-4.48-1.62-6.56-5.63-6.56c-1.89,0-3.46,0.55-4.16,1.39c-0.55,0.69-0.42,1.48-0.05,4.43
		c-1.52,1.34-4.94,2.77-7.81,2.77c-2.73,0-4.34-1.34-4.34-3.6c0-5.5,12.52-11.13,24.16-11.13c8.73,0,11.55,4.2,11.41,11.78
		l-0.32,16.95c-0.09,5.17,0.79,7.58,2.4,7.58c0.69,0,2.22-0.6,3.65-1.39l0.79,4.34c-4.2,3.23-9.01,5.08-12.42,5.08
		c-3.51,0-5.96-1.76-6.88-6.47H825.2z M824.65,1000.32c-4.02,0.14-7.3,1.15-8.73,1.85c-1.29,0.65-1.76,2.12-1.76,3.65
		c0,3.37,2.36,6.56,4.99,6.56c1.29,0,3.42-1.06,5.5-2.68V1000.32z"/>
	<path class="st0" d="M850.78,1019.03c0.51-3.14,0.88-5.68,0.88-12.47v-38.34c0-3.05-0.37-4.25-1.8-5.31l-3.42-2.59v-2.86
		l19.91-4.02c-0.65,2.59-1.15,7.99-1.15,14v5.5c0,2.91-0.14,6.1-0.28,8.68l0.14,0.05l1.2-0.88c4.06-3.09,8.45-4.9,12.47-4.9
		c10.21,0,17.18,7.76,17.18,19.31c0,14.09-10.85,24.25-30.35,24.25c-2.17,0-8.04-0.14-12.75-0.32L850.78,1019.03z M865.19,1006.51
		c0,4.85,1.85,7.02,5.77,7.02c5.36,0,10.62-4.67,10.62-14.87c0-8.45-3.97-13.95-10.99-13.95c-1.66,0-3.6,0.42-5.4,1.16V1006.51z"/>
	<path class="st0" d="M902.65,962.91l-3.46-2.59v-2.86l19.95-4.02c-0.6,2.59-1.15,7.99-1.15,14v43.23c0,2.96,0.55,3.74,3.14,3.93
		l2.73,0.19v4.25h-25.27v-4.25l2.73-0.19c2.59-0.18,3.14-0.97,3.14-3.93v-42.45C904.45,965.17,904.03,963.97,902.65,962.91z"/>
	<path class="st0" d="M949.39,975.89c7.39,0,12.52,4.29,15.06,12.05c0.83,2.59,1.71,3.79,2.49,4.25l-0.97,2.68
		c-10.25,0.88-17.64,1.11-26.19,1.02v0.18c0.46,8.45,5.45,14.78,14.27,14.78c3.56,0,8.45-1.57,11.55-2.91l0.69,3.19
		c-5.82,5.45-12.29,9.19-19.91,9.19c-11.69,0-19.86-8.41-19.86-20.83C926.52,985.63,937.98,975.89,949.39,975.89z M954.79,990.07
		c-1.15-5.68-3.93-8.59-7.67-8.59c-4.16,0-6.65,3.79-7.25,9.88L954.79,990.07z"/>
	<path class="st0" d="M1002.96,1012.42c-5.31,5.31-11.04,7.9-17.37,7.9c-7.02,0-11.18-4.34-11.09-12.15l0.23-20.92
		c0.05-2.59-0.19-3.93-1.85-4.57l-3.42-1.34c0-0.09,0-2.91,0-2.91l18.66-9.84l-0.37,8.59h13.72l-0.42,4.25
		c-0.65,1.25-2.82,1.94-7.62,1.94h-5.4v21.75c0,4.16,2.03,6.19,5.82,6.19c2.68,0,5.45-0.74,8.45-2.08L1002.96,1012.42z"/>
	<path class="st0" d="M1022.45,1019.03v-4.43l3.74-0.32c2.96-0.28,3.69-1.29,3.69-4.34v-40.69c0-3.05-0.74-4.06-3.69-4.34
		l-3.74-0.32v-4.43h13.02c8.04,0,12.52-0.32,19.72-0.32c12.7,0,16.86,5.31,16.86,13.21c0,6.93-5.36,13.21-12.7,14.92v0.37
		c10.39,0.88,16.35,6,16.35,14.04c0,11.87-8.64,16.67-25.87,16.67H1022.45z M1044.85,985.13c1.75,0.23,4.25,0.42,5.59,0.42
		c3.23,0,7.25-3.28,7.25-10.35c0-6.97-2.03-8.91-8.22-8.91c-1.34,0-2.86,0.09-4.62,0.23V985.13z M1044.85,1008.87
		c0,3.05,1.25,3.83,5.26,3.83c7.25,0,10.3-3.05,10.3-10.99c0-6.47-4.53-10.21-12.52-10.21c-0.74,0-1.8,0.05-3.05,0.14V1008.87z"/>
	<path class="st0" d="M1083.87,962.91l-3.46-2.59v-2.86l19.95-4.02c-0.6,2.59-1.16,7.99-1.16,14v43.23c0,2.96,0.55,3.74,3.14,3.93
		l2.72,0.19v4.25h-25.26v-4.25l2.72-0.19c2.59-0.18,3.14-0.97,3.14-3.93v-42.45C1085.67,965.17,1085.26,963.97,1083.87,962.91z"/>
	<path class="st0" d="M1132.97,1013.76c-5.13,4.48-9.42,6.56-13.3,6.56c-5.82,0-11.45-4.9-11.41-12.89c0-3.56,1.06-6.24,3.56-7.67
		c2.45-1.39,7.48-2.96,20.6-4.99v-6.19c0-4.48-1.62-6.56-5.63-6.56c-1.89,0-3.46,0.55-4.16,1.39c-0.55,0.69-0.42,1.48-0.05,4.43
		c-1.52,1.34-4.94,2.77-7.81,2.77c-2.73,0-4.34-1.34-4.34-3.6c0-5.5,12.52-11.13,24.16-11.13c8.73,0,11.55,4.2,11.41,11.78
		l-0.32,16.95c-0.09,5.17,0.79,7.58,2.4,7.58c0.69,0,2.22-0.6,3.65-1.39l0.79,4.34c-4.2,3.23-9.01,5.08-12.42,5.08
		c-3.51,0-5.96-1.76-6.88-6.47H1132.97z M1132.41,1000.32c-4.02,0.14-7.3,1.15-8.73,1.85c-1.29,0.65-1.75,2.12-1.75,3.65
		c0,3.37,2.36,6.56,4.99,6.56c1.29,0,3.42-1.06,5.5-2.68V1000.32z"/>
	<path class="st0" d="M1180.4,975.89c6.93,0,12.42,3.23,12.42,6.84c0,2.12-2.86,5.59-5.59,6.1l-3.97-2.36
		c-4.53-2.91-6.74-3.65-8.82-3.65c-3.83,0-6.56,4.2-6.65,11.5c-0.23,10.25,5.77,16.54,13.49,16.54c3.74,0,7.71-1.25,10.72-2.63
		l1.34,2.91c-5.59,5.45-11.82,9.19-19.21,9.19c-11.22,0-19.54-8.54-19.54-20.42C1154.58,985.54,1166.86,975.89,1180.4,975.89z"/>
	<path class="st0" d="M1194.94,1014.78l2.72-0.19c2.59-0.18,3.14-0.97,3.14-3.93v-42.45c0-3.05-0.42-4.25-1.8-5.31l-3.46-2.59v-2.86
		l20-4.02c-0.65,2.59-1.2,7.99-1.2,14v25.03c0.92,0.37,1.66,0.55,2.63,0.55c0.88,0,1.66-0.42,2.73-1.25
		c5.73-4.53,7.71-6.97,7.71-8.36c0-0.92-0.65-1.48-1.99-1.66l-2.36-0.32v-4.25h21.15v4.25c-4.11,0.05-7.25,1.85-12.56,6.56
		l-4.53,4.06l9.65,14.59c3.88,5.82,5.87,7.9,8.36,8.64l-0.46,3.74h-11.13c-5.22,0-7.07-2.36-9.51-6.79l-7.67-13.9
		c-0.69-1.25-1.02-1.43-1.8-1.43h-0.23v13.76c0,2.96,0.55,3.74,3.14,3.93l2.72,0.19v4.25h-25.26V1014.78z"/>
</g>
<g>
	<path class="st0" d="M674.04,1068.86c8.96,0,14.69,1.85,19.17,2.45l0.05,18.38h-5.36l-0.79-3.74c-1.76-8.36-6.42-11.18-13.21-11.18
		c-8.91,0-16.12,8.5-18.75,21.62c-3.19,15.93,1.66,28.41,12.61,28.41c5.03,0,6.33-1.57,6.93-4.62l1.76-8.68
		c1.02-4.99,0.09-5.73-5.82-5.54l-4.71,0.14l1.2-5.91h26.1c-1.2,3.19-2.4,7.16-4.02,15.24l-2.31,11.64
		c-7.44,2.17-13.72,4.02-21.02,4.02c-20.55,0-31.59-13.58-27.48-34.04C642.08,1078.51,655.29,1068.86,674.04,1068.86z"/>
	<path class="st0" d="M698.42,1108.62c2.77-14,12.29-23.46,26.47-23.46c2.96,0,6.7,0.6,10.02,1.62c0.83,0.23,1.25,0.37,1.71,0.37
		c0.83,0,1.11-0.32,1.52-1.85l0.74-2.49l4.9,0.97c-1.57,4.85-2.82,8.96-3.88,13.81l-1.57,7.34c-2.63,12.01-2.63,17.18-0.69,17.18
		c1.15,0,2.59-1.02,7.02-4.71l1.2,3.65c-4.48,6.24-9.98,9.65-15.52,9.65c-6.33,0-9.15-3.33-4.67-19.03l-0.51-0.09
		c-6.19,12.93-12.7,19.12-18.84,19.12C699.12,1130.7,695.79,1121.65,698.42,1108.62z M720.64,1112c3.09-4.94,5.08-9.84,6.7-15.29
		l0.42-1.39c0.74-2.4-2.12-4.39-6.24-4.39c-4.85,0-7.67,4.02-9.52,13.16c-2.17,10.58-0.46,15.38,1.66,15.38
		C715.19,1119.48,717.55,1116.94,720.64,1112z"/>
	<path class="st0" d="M758,1076.48c0.37-1.76,0.32-3.05-0.92-3.79l-3.6-2.17l0.6-2.96l20-3.74c-1.2,4.53-1.85,7.16-2.82,11.73
		l-0.6,2.86c-2.08,9.98-3.05,14.46-4.8,20.74l0.51,0.18c4.02-8.31,8.54-14.18,15.98-14.18c7.62,0,11.87,6.88,9.24,20.14
		c-3.42,17.09-17.18,25.4-28.27,25.4c-4.9,0-10.9-1.62-15.47-3.46L758,1076.48z M778.19,1108.9c1.66-8.17,0.83-12.38-2.4-12.38
		c-2.45,0-5.77,3.51-8.31,8.64c-1.85,3.74-3.51,8.82-4.9,15.38c-0.55,2.63,1.76,4.16,4.48,4.16
		C771.9,1124.7,776.2,1118.6,778.19,1108.9z"/>
	<path class="st0" d="M801.74,1067.56l19.81-3.74c-1.2,4.53-1.89,7.21-2.77,11.73l-7.44,37.37c-1.52,7.76-1.2,9.19-0.14,9.19
		c0.92,0,3.14-1.39,6.6-4.71l1.2,3.65c-3.74,5.22-9.05,9.65-15.52,9.65c-5.4,0-8.41-3.14-7.44-7.9l9.51-46.33
		c0.37-1.76,0.37-3.05-0.88-3.79l-3.56-2.17L801.74,1067.56z"/>
	<path class="st0" d="M822.98,1107.1c2.59-13.21,12.24-21.94,24.16-21.94c8.68,0,12.84,5.08,11.82,10.12
		c-1.06,5.31-5.59,9.33-16.91,11.92l-5.73,1.34c-0.55,8.45,1.62,12.89,5.5,12.89c2.54,0,7.44-2.08,13.95-6.28l1.71,3.46
		c-8.54,8.36-15.75,12.1-21.8,12.1C825.98,1130.7,820.16,1121.09,822.98,1107.1z M840.21,1102.85c4.43-1.06,7.48-3.74,8.13-7.02
		c0.55-2.72-0.97-4.99-3.33-4.99c-2.63,0-6.33,2.77-7.94,11.82c-0.05,0.32-0.09,0.69-0.18,1.02L840.21,1102.85z"/>
	<path class="st0" d="M864.45,1119.8l6.28-27.44h-5.91l0.88-4.62l3.7-0.6c1.89-0.32,2.36-0.69,2.68-2.03l1.29-5.36
		c0.88-3.7,3.28-5.91,7.02-5.91c4.16,0,6.24,2.77,5.27,7.02l-1.29,5.59h10.02l-0.79,4.2c-0.88,1.25-3.23,1.71-7.94,1.71h-2.45
		l-4.3,20.92c-1.25,6.14-1.11,8.22,0.46,8.22c2.31,0,6.47-3.05,9.98-5.73l1.52,3.56c-4.53,6.51-10.99,11.36-18.38,11.36
		C865.98,1130.7,862.7,1127.33,864.45,1119.8z"/>
	<path class="st0" d="M905.09,1129.41l0.83-4.16l3.65-0.23c2.86-0.18,3.74-1.39,4.34-4.43l8.27-41.25c0.6-3.05,0.09-4.25-2.68-4.43
		l-3.46-0.23l0.83-4.16h13.4c5.54,0,11.13-0.23,16.67-0.23c11.22,0,15.61,5.5,14,13.58c-1.48,7.62-7.71,12.66-15.06,14.27
		l-0.05,0.37c9.33,1.39,14.46,7.21,12.79,15.38c-2.17,10.99-11.45,15.52-27.81,15.52H905.09z M943.2,1112.6
		c1.52-7.62-1.76-10.9-9.01-10.9c-0.65,0-1.25,0.05-2.31,0.14l-3.23,16.26c-0.79,4.02,0.28,5.63,4.06,5.63
		C938.3,1123.73,941.67,1119.94,943.2,1112.6z M933.08,1095.78l4.25,0.51c3.05,0.32,7.39-2.86,8.78-9.84
		c1.34-6.61,0-10.12-6.93-10.12c-0.69,0-1.43,0-2.26,0.09L933.08,1095.78z"/>
	<path class="st0" d="M970.72,1067.56l19.81-3.74c-1.2,4.53-1.89,7.21-2.77,11.73l-7.44,37.37c-1.52,7.76-1.2,9.19-0.14,9.19
		c0.92,0,3.14-1.39,6.61-4.71l1.2,3.65c-3.74,5.22-9.05,9.65-15.52,9.65c-5.4,0-8.41-3.14-7.44-7.9l9.51-46.33
		c0.37-1.76,0.37-3.05-0.88-3.79l-3.56-2.17L970.72,1067.56z"/>
	<path class="st0" d="M992.15,1108.62c2.77-14,12.29-23.46,26.47-23.46c2.96,0,6.7,0.6,10.02,1.62c0.83,0.23,1.25,0.37,1.71,0.37
		c0.83,0,1.11-0.32,1.52-1.85l0.74-2.49l4.9,0.97c-1.57,4.85-2.82,8.96-3.88,13.81l-1.57,7.34c-2.63,12.01-2.63,17.18-0.69,17.18
		c1.15,0,2.59-1.02,7.02-4.71l1.2,3.65c-4.48,6.24-9.98,9.65-15.52,9.65c-6.33,0-9.15-3.33-4.67-19.03l-0.51-0.09
		c-6.19,12.93-12.7,19.12-18.84,19.12C992.84,1130.7,989.52,1121.65,992.15,1108.62z M1014.37,1112c3.09-4.94,5.08-9.84,6.7-15.29
		l0.42-1.39c0.74-2.4-2.12-4.39-6.24-4.39c-4.85,0-7.67,4.02-9.51,13.16c-2.17,10.58-0.46,15.38,1.66,15.38
		C1008.92,1119.48,1011.27,1116.94,1014.37,1112z"/>
	<path class="st0" d="M1043.04,1106.36c3.23-13.58,14.09-21.2,25.08-21.2c7.21,0,11.69,3.09,10.67,7.21
		c-0.6,2.45-3.09,4.76-6.19,5.36c-5.08-4.71-7.48-5.87-8.78-5.87c-2.45,0-4.76,3.46-6.33,10.21c-2.31,9.93-0.55,19.35,4.9,19.35
		c2.45,0,7.44-2.45,12.79-6l1.71,3.42c-6.6,7.34-14.69,11.87-21.38,11.87C1046.28,1130.7,1039.49,1121.05,1043.04,1106.36z"/>
	<path class="st0" d="M1079.16,1129.36c2.31-6,4.2-14.87,7.39-30.81l4.39-22.08c0.37-1.76,0.32-3.05-0.88-3.79l-3.65-2.17l0.6-2.96
		l20-3.74c-1.2,4.53-1.8,7.21-2.82,11.73l-1.02,4.43c-2.03,8.82-2.49,10.25-4.39,16.49l0.37,0.09c6.33-7.81,12.33-11.41,18.06-11.41
		c6.14,0,9.7,4.11,8.59,9.93c-1.06,5.5-5.73,9.88-14.69,13.26v0.23c1.52,1.43,3.05,3.74,6.42,11.69c0.6,1.43,1.06,1.66,1.57,1.66
		c1.02,0,2.59-0.83,6.42-4.53l1.16,3.65c-5.91,7.94-11.55,9.65-15.52,9.65c-3.93,0-5.54-1.66-7.58-9.14
		c-1.48-5.5-2.26-8.64-3.79-10.49l0.6-2.59c8.64-3.51,11.36-6.1,12.1-9.52c0.46-2.22-0.23-4.25-2.73-4.25
		c-2.59,0-5.59,1.71-8.87,5.17c-2.12,2.22-2.68,3.28-3.14,6c-0.92,5.4-2.45,14.32-3.56,19.31c-0.69,3.09-4.25,5.4-10.35,5.4
		c-1.29,0-2.68-0.09-4.2-0.32L1079.16,1129.36z"/>
	<path class="st0" d="M1141.92,1125.25l3.65-0.23c2.86-0.18,3.74-1.39,4.34-4.43l8.27-41.25c0.6-3.05,0.09-4.25-2.68-4.43
		l-3.46-0.23l0.83-4.16h28.36l-0.83,4.16l-3.65,0.23c-2.86,0.18-3.74,1.39-4.34,4.43l-8.27,41.25c-0.6,3.05-0.09,4.25,2.68,4.43
		l3.46,0.23l-0.83,4.16h-28.36L1141.92,1125.25z"/>
	<path class="st0" d="M1180.95,1119.8l6.28-27.44h-5.91l0.88-4.62l3.7-0.6c1.89-0.32,2.36-0.69,2.68-2.03l1.29-5.36
		c0.88-3.7,3.28-5.91,7.02-5.91c4.16,0,6.24,2.77,5.26,7.02l-1.29,5.59h10.02l-0.79,4.2c-0.88,1.25-3.23,1.71-7.95,1.71h-2.45
		l-4.3,20.92c-1.25,6.14-1.11,8.22,0.46,8.22c2.31,0,6.47-3.05,9.98-5.73l1.52,3.56c-4.53,6.51-10.99,11.36-18.38,11.36
		C1182.47,1130.7,1179.19,1127.33,1180.95,1119.8z"/>
	<path class="st0" d="M1211.89,1108.62c2.77-14,12.29-23.46,26.47-23.46c2.96,0,6.7,0.6,10.02,1.62c0.83,0.23,1.25,0.37,1.71,0.37
		c0.83,0,1.11-0.32,1.52-1.85l0.74-2.49l4.9,0.97c-1.57,4.85-2.82,8.96-3.88,13.81l-1.57,7.34c-2.63,12.01-2.63,17.18-0.69,17.18
		c1.15,0,2.59-1.02,7.02-4.71l1.2,3.65c-4.48,6.24-9.98,9.65-15.52,9.65c-6.33,0-9.15-3.33-4.67-19.03l-0.51-0.09
		c-6.19,12.93-12.7,19.12-18.84,19.12C1212.58,1130.7,1209.26,1121.65,1211.89,1108.62z M1234.11,1112
		c3.09-4.94,5.08-9.84,6.7-15.29l0.42-1.39c0.74-2.4-2.12-4.39-6.24-4.39c-4.85,0-7.67,4.02-9.51,13.16
		c-2.17,10.58-0.46,15.38,1.66,15.38C1228.66,1119.48,1231.01,1116.94,1234.11,1112z"/>
	<path class="st0" d="M1267.54,1067.56l19.82-3.74c-1.2,4.53-1.89,7.21-2.77,11.73l-7.44,37.37c-1.52,7.76-1.2,9.19-0.14,9.19
		c0.92,0,3.14-1.39,6.61-4.71l1.2,3.65c-3.74,5.22-9.05,9.65-15.52,9.65c-5.4,0-8.41-3.14-7.44-7.9l9.51-46.33
		c0.37-1.76,0.37-3.05-0.88-3.79l-3.56-2.17L1267.54,1067.56z"/>
	<path class="st0" d="M1291.37,1122.8l4.06-19.82c1.62-7.71,1.2-9.24,0.23-9.24c-1.11,0-3.33,1.66-6.7,4.71l-1.2-3.6
		c3.74-5.27,9.42-9.7,15.15-9.7c4.3,0,7.58,2.12,8.22,5.4l-4.62,22.36c-1.57,7.76-1.2,9.19-0.14,9.19c1.02,0,2.96-1.15,6.65-4.71
		l1.2,3.65c-3.74,5.22-9.1,9.65-15.52,9.65C1293.26,1130.7,1290.36,1127.56,1291.37,1122.8z M1300.47,1071.4
		c0.79-3.88,3.74-6.79,7.76-6.79c4.34,0,6.93,3.42,5.96,8.22c-0.79,3.83-3.7,6.7-7.67,6.7
		C1301.9,1079.52,1299.64,1075.64,1300.47,1071.4z"/>
	<path class="st0" d="M1318.85,1106.36c3.23-13.58,14.09-21.2,25.08-21.2c7.21,0,11.69,3.09,10.67,7.21
		c-0.6,2.45-3.09,4.76-6.19,5.36c-5.08-4.71-7.48-5.87-8.78-5.87c-2.45,0-4.76,3.46-6.33,10.21c-2.31,9.93-0.55,19.35,4.9,19.35
		c2.45,0,7.44-2.45,12.79-6l1.71,3.42c-6.6,7.34-14.69,11.87-21.38,11.87C1322.08,1130.7,1315.29,1121.05,1318.85,1106.36z"/>
</g>
</svg>
