<?xml version="1.0" encoding="utf-8"?>
<!-- Generator: Adobe Illustrator 27.4.0, SVG Export Plug-In . SVG Version: 6.00 Build 0)  -->
<svg version="1.1" id="Layer_1" xmlns="http://www.w3.org/2000/svg" xmlns:xlink="http://www.w3.org/1999/xlink" x="0px" y="0px"
	 viewBox="0 0 700 873.02" style="enable-background:new 0 0 700 873.02;" xml:space="preserve">
<style type="text/css">
	.st0{fill:#716A5D;}
	.st1{fill:#392E37;}
	.st2{fill:#1D1D1B;}
</style>
<g>
	<path class="st2" d="M156.87,93.37c0-13,8.79-22.02,23.7-22.02c4.94,0,8.7,1.08,11.34,1.02l1.56,10.16h-2.55l-0.48-1.59
		c-1.66-5.51-6.18-6.91-11.02-6.91c-10.9,0-16.41,7.3-16.41,18.64c0,10.51,5.38,18.16,16.85,18.16c7.1,0,8.32-1.21,8.32-4.49v-6.5
		c0-3.09-0.38-3.54-3.89-3.5l-7.58,0.1v-2.9h17.84c-0.45,2.39-0.96,4.4-0.96,10.39v7.55c-3.7,1.21-8.48,2.01-14.18,2.01
		C165.25,113.48,156.87,105.9,156.87,93.37z"/>
	<path class="st2" d="M216.24,109.62c-4.01,2.96-5.73,3.66-7.52,3.66c-4.65,0-7.74-3.76-7.74-7.71c0-2.39,1.02-3.73,2.04-4.43
		c1.12-0.8,4.11-2.13,13.25-3.47l0.06-4.94c0.06-4.78-1.4-6.31-4.59-6.31c-1.75,0-2.87,0.41-3.41,0.99
		c-0.35,0.38-0.35,0.86-0.03,2.64c-1.18,0.96-2.9,1.62-4.08,1.62c-1.18,0-1.94-0.76-1.94-1.72c0-2.77,6.5-6.63,12.94-6.63
		c4.43,0,6.44,2.1,6.34,6.63l-0.29,13.19c-0.13,5.26,0.64,6.63,2.29,6.63c0.7,0,1.85-0.48,2.55-0.86l0.57,1.85
		c-2.74,1.59-5.03,2.52-6.53,2.52c-1.94,0-3.35-1.37-3.76-3.66H216.24z M216.27,100.32c-1.91,0.1-6.18,0.99-8.19,1.66
		c-1.24,0.41-1.78,1.18-1.78,2.48c0,2.93,2.29,5.23,4.72,5.23c1.21,0,2.99-0.45,5.19-1.98L216.27,100.32z"/>
	<path class="st2" d="M231.95,112.55c0.29-1.53,0.64-3.44,0.64-10.96V76.42c0-1.66-0.19-2.45-0.99-3.06l-2.74-2.17v-0.99l9.43-2.9
		c-0.38,3.63-0.51,5.99-0.51,9.11v7.26c0,2.26-0.1,3.03-0.22,4.14l0.1,0.03l0.89-0.73c2.64-2.17,5.83-3.79,8.95-3.79
		c6.31,0,11.06,5.16,11.06,13.35c0,8.83-6.72,16.12-17.84,16.12c-2.33,0-4.88-0.25-7.2-0.25H231.95z M237.78,104.02
		c0,4.56,1.53,5.99,5.7,5.99c6.05,0,10.04-5.1,10.04-12.27c0-6.09-3.12-10.13-9.05-10.13c-2.01,0-4.62,0.8-6.69,2.07V104.02z"/>
	<path class="st2" d="M265.32,73.37l-2.74-2.17v-0.99l9.43-2.9c-0.38,3.63-0.51,5.99-0.51,9.11v30.43c0,2.55,0.38,3.57,2.71,3.63
		l1.91,0.06v2.01h-14.43v-2.01l1.91-0.06c2.33-0.06,2.71-1.08,2.71-3.63V76.42C266.3,74.77,266.11,73.97,265.32,73.37z"/>
	<path class="st2" d="M292.97,83.34c5.07,0,8.44,3.44,9.75,7.71c0.41,1.27,0.73,2.04,1.34,2.33l-0.25,1.21
		c-6.56,0.48-12.74,0.54-19.24,0.41c-0.06,0.61-0.06,1.5-0.06,2.2c0,6.47,3.54,12.14,10.42,12.14c2.17,0,6.05-1.05,8.28-1.78
		l0.41,1.56c-4.49,2.68-7.9,4.17-11.34,4.17c-6.5,0-13.06-4.78-13.06-13.45C279.21,90.67,285.65,83.34,292.97,83.34z M298.04,92.32
		c-1.02-3.95-3.82-6.31-6.53-6.31c-2.96,0-5.45,2.74-6.47,6.79L298.04,92.32z"/>
	<path class="st2" d="M326.46,110.07c-3.35,1.94-6.95,3.25-9.11,3.25c-3.79,0-6.24-1.88-6.18-6.56l0.22-17.75
		c0.03-1.88-0.1-2.17-1.31-2.61l-1.88-0.7c0-0.03,0-1.02,0-1.02l8.19-6.21l-0.22,5.61h9.78l-0.13,1.47
		c-0.45,0.86-1.94,1.31-5.26,1.31h-4.21v18.22c0,3.41,1.43,4.49,3.66,4.49c1.5,0,4.27-0.57,6.09-1.08L326.46,110.07z"/>
	<path class="st2" d="M342.97,112.55v-2.13l2.42-0.1c2.96-0.13,3.44-1.37,3.44-4.59V79.1c0-3.22-0.48-4.46-3.44-4.59l-2.42-0.1
		v-2.13h17.11c9.49,0,13.35,2.93,13.35,9.05c0,4.94-2.8,8.51-8.73,11.12l4.08,5.26c6.85,8.86,10.04,11.82,13.29,12.49l1.21,0.25
		l-0.22,2.1h-6.6c-2.48,0-3.73-0.8-8.6-7.26l-7.84-10.42c-0.67-0.86-1.15-1.08-2.2-1.08h-3.44v11.95c0,3.22,0.48,4.46,3.44,4.59
		l2.42,0.1v2.13H342.97z M354.38,90.98c1.88,0.06,3.66,0.13,5.51,0.13c5.03,0,7.93-3.66,7.93-8.7c0-6.75-5.7-7.58-13.44-7.3V90.98z"
		/>
	<path class="st2" d="M399.57,83.34c5.07,0,8.44,3.44,9.75,7.71c0.41,1.27,0.73,2.04,1.34,2.33l-0.25,1.21
		c-6.56,0.48-12.74,0.54-19.24,0.41c-0.06,0.61-0.06,1.5-0.06,2.2c0,6.47,3.54,12.14,10.42,12.14c2.17,0,6.05-1.05,8.28-1.78
		l0.41,1.56c-4.49,2.68-7.9,4.17-11.34,4.17c-6.5,0-13.06-4.78-13.06-13.45C385.8,90.67,392.24,83.34,399.57,83.34z M404.63,92.32
		c-1.02-3.95-3.82-6.31-6.53-6.31c-2.96,0-5.45,2.74-6.47,6.79L404.63,92.32z"/>
	<path class="st2" d="M422.38,113.06c-3.63-0.13-5.03-1.37-5.03-3c0-1.4,1.02-2.8,7.39-6.21v-0.16c-5.7-0.32-9.27-4.4-9.27-9.46
		c0-5.83,4.65-10.9,12.11-10.9c2.42,0,4.46,0.51,6.15,1.5l9.08-0.7l-0.13,1.37c-0.38,0.86-1.43,1.53-4.81,1.75l-1.27,0.13
		c1.15,1.56,1.66,3.5,1.66,5.7c0,4.81-2.04,7.81-8.41,10.51c-4.49,1.88-7.1,3.35-7.1,4.36c0,0.96,2.71,1.27,9.75,1.69
		c7.42,0.41,10.2,1.47,10.2,5.73c0,7.2-7.42,12.49-18.13,12.49c-7.42,0-11.76-2.52-11.76-6.6c0-2.93,2.17-4.4,9.59-8.12V113.06z
		 M417.95,120.3c0,2.84,3.63,4.68,9.27,4.68c6.56,0,10.77-2.84,10.77-7.3c0-2.77-1.56-3.54-8.09-3.92
		c-2.48-0.16-3.85-0.19-5.13-0.29C419.48,117.01,417.95,118.48,417.95,120.3z M433.15,94.14c0-3.66-1.59-8.35-6.15-8.35
		c-4.68,0-6.47,3.76-6.47,7.74c0,3.92,1.88,7.71,6.53,7.71C431.72,101.24,433.15,97.87,433.15,94.14z"/>
	<path class="st2" d="M466.58,113.35l-0.41-4.3h-0.06l-2.17,1.5c-2.93,2.01-5.54,2.74-8.09,2.74c-4.97,0-7.58-2.87-7.58-8.32
		c0-6.53,0.16-10.86,0.16-13.54c0-1.69-0.29-2.36-0.99-3.03l-2.13-1.98v-0.96l8.7-2.93c-0.38,3.5-0.51,5.96-0.51,9.05v10.29
		c0,5.29,1.53,7.3,5.64,7.3c2.29,0,4.94-0.76,6.98-1.91V91.56c0-1.78-0.25-2.42-0.99-3.15l-1.98-1.98v-0.96l8.7-2.93
		c-0.38,3.5-0.54,5.96-0.54,9.05v13.25c0,3.73,0.57,5.1,2.23,5.1c0.57,0,1.4-0.16,2.17-0.32l0.16,2.04L466.58,113.35z"/>
	<path class="st2" d="M481.94,73.37l-2.74-2.17v-0.99l9.43-2.9c-0.38,3.63-0.51,5.99-0.51,9.11v30.43c0,2.55,0.38,3.57,2.71,3.63
		l1.91,0.06v2.01h-14.43v-2.01l1.91-0.06c2.33-0.06,2.71-1.08,2.71-3.63V76.42C482.93,74.77,482.74,73.97,481.94,73.37z"/>
	<path class="st2" d="M511.07,109.62c-4.01,2.96-5.73,3.66-7.52,3.66c-4.65,0-7.74-3.76-7.74-7.71c0-2.39,1.02-3.73,2.04-4.43
		c1.12-0.8,4.11-2.13,13.25-3.47l0.06-4.94c0.06-4.78-1.4-6.31-4.59-6.31c-1.75,0-2.87,0.41-3.41,0.99
		c-0.35,0.38-0.35,0.86-0.03,2.64c-1.18,0.96-2.9,1.62-4.08,1.62s-1.94-0.76-1.94-1.72c0-2.77,6.5-6.63,12.94-6.63
		c4.43,0,6.44,2.1,6.34,6.63l-0.29,13.19c-0.13,5.26,0.64,6.63,2.29,6.63c0.7,0,1.85-0.48,2.55-0.86l0.57,1.85
		c-2.74,1.59-5.03,2.52-6.53,2.52c-1.94,0-3.35-1.37-3.76-3.66H511.07z M511.1,100.32c-1.91,0.1-6.18,0.99-8.19,1.66
		c-1.24,0.41-1.78,1.18-1.78,2.48c0,2.93,2.29,5.23,4.72,5.23c1.21,0,3-0.45,5.19-1.98L511.1,100.32z"/>
	<path class="st2" d="M524.17,110.55l1.91-0.06c2.33-0.06,2.71-1.08,2.71-3.63V91.37c0-1.66-0.32-2.29-1.02-3.03l-1.94-2.01v-0.96
		l8.12-2.77l-0.13,6.05l0.13,0.03l0.86-0.96c2.71-3.03,5-4.4,7.17-4.4c1.72,0,2.96,0.89,2.96,2.07c0,1.53-1.05,2.87-2.2,3.31
		l-0.96-0.41c-1.02-0.45-1.85-0.73-2.33-0.73c-0.8,0-2.23,0.76-4.52,2.52l-0.96,0.73v15.67c0,2.9,0.41,3.92,3.35,3.98l2.39,0.06
		v2.01h-15.55V110.55z"/>
</g>
<g>
	<path class="st2" d="M127.52,147.52c4.97,0,8.95,1.27,11.76,1.66l0.32,10.42h-2.45l-0.29-2.36c-0.54-4.56-5.23-7.26-11.02-7.26
		c-6.75,0-13.22,5.03-15.29,15.32c-2.33,11.66,0.86,21.57,12.11,21.57c6.6,0,8.73-1.18,9.43-4.65l1.18-5.89
		c0.67-3.38,0.41-3.82-1.98-3.79l-8.48,0.06l0.61-3h16.41c-0.76,2.07-1.59,5.64-2.77,11.25l-1.37,6.53
		c-3.89,1.31-8.79,2.26-13.35,2.26c-14.21,0-20.36-10.16-17.65-23.64C107.1,153.92,115.64,147.52,127.52,147.52z"/>
	<path class="st2" d="M145.31,175.4c1.94-9.65,8.6-16.44,16.15-16.44c1.24,0,2.93,0.16,4.4,0.45c0.67,0.13,1.24,0.22,1.56,0.22
		c0.61,0,0.92-0.25,1.4-1.43l0.54-1.34l2.23,0.64c-1.05,2.8-2.84,8.6-3.66,12.52l-0.51,2.45c-2.07,9.94-1.53,13.35-0.6,13.35
		c0.67,0,2.17-1.27,3.41-2.68l0.89,1.53c-1.82,2.36-4.62,4.81-7.84,4.81c-2.29,0-2.87-3.19-0.73-13.96l-0.13-0.03
		c-5.23,10.39-9.21,13.99-12.78,13.99C145.24,189.48,143.71,183.36,145.31,175.4z M160.15,175.65c2.48-4.37,3.41-7.1,4.08-9.72
		l0.25-0.99c0.41-1.56-1.75-2.84-4.84-2.84c-4.4,0-7.74,4.43-9.08,11.12c-1.31,6.6-0.83,11.63,1.43,11.63
		C153.81,184.86,157.19,180.85,160.15,175.65z"/>
	<path class="st2" d="M182.05,152.17c0.35-1.78,0.35-2.52-0.32-3.12l-2.52-2.23l0.13-0.73l9.4-2.45c-1.02,3.47-1.53,5.89-3.06,12.78
		l-0.86,3.89c-0.92,4.11-1.69,7.61-2.42,10.39l0.16,0.06c4.17-8.03,7.74-11.79,12.01-11.79c4.72,0,6.85,4.62,5.32,12.2
		c-2.07,10.39-8.76,18.32-16.89,18.32c-2.07,0-4.68-0.41-8.12-1.56L182.05,152.17z M194.6,173.68c1.15-5.61,0.48-10.04-2.42-10.04
		c-2.55,0-5.13,2.74-7.68,7.33c-2.36,4.27-3.44,7.36-4.3,12.52c-0.29,1.75,1.56,2.84,4.84,2.84
		C190.01,186.33,193.36,179.83,194.6,173.68z"/>
	<path class="st2" d="M208.08,146.09l9.43-2.45c-1.08,3.47-1.75,6.02-3.12,12.94l-4.94,24.72c-0.73,3.66-0.35,4.43,0.32,4.43
		c0.73,0,2.29-0.92,4.36-3.12l0.96,1.5c-1.78,2.52-5.23,5.38-8.47,5.38c-2.07,0-3.09-1.27-2.55-3.89l6.72-33.42
		c0.35-1.78,0.38-2.52-0.32-3.12l-2.52-2.23L208.08,146.09z"/>
	<path class="st2" d="M219.81,174.28c1.78-9.21,8.73-15.33,15.42-15.33c3.6,0,5.96,2.71,5.26,6.25c-0.73,3.57-4.14,5.73-10.48,7.49
		l-5.54,1.53c-0.86,6.69,0.48,11.09,3.5,11.09c1.78,0,6.44-2.33,8.7-3.89l0.96,1.43c-3.35,3.41-8.63,6.63-11.79,6.63
		C220.61,189.48,218.22,182.63,219.81,174.28z M224.87,171.64l4.11-1.27c4.3-1.34,6.66-3.15,7.01-5.23
		c0.32-1.88-1.05-3.41-2.74-3.41c-2.87,0-7.04,3.35-8.35,9.81L224.87,171.64z"/>
	<path class="st2" d="M243.58,183.36l4.46-21.09h-3.89l0.32-1.66l2.33-0.48c1.43-0.29,1.82-0.76,2.07-2.01l0.96-4.72
		c0.35-1.66,1.34-2.71,2.68-2.71c1.66,0,2.26,1.11,1.85,2.87l-1.47,6.15h8.16l-0.35,1.72c-0.57,0.73-1.59,0.83-5.42,0.83h-2.93
		l-3.54,18.51c-0.7,3.6-0.16,4.65,1.59,4.65c1.24,0,4.46-2.13,6.37-3.66l0.8,1.59c-3.28,3.7-6.85,6.12-9.91,6.12
		C244.79,189.48,242.75,187.35,243.58,183.36z"/>
	<path class="st2" d="M272.93,188.72l0.41-2.04l2.29-0.1c2.87-0.13,3.5-1.02,4.21-4.59l5.38-26.83c0.73-3.66,0.45-4.46-2.36-4.59
		l-2.29-0.1l0.41-2.04h4.75c3.38,0,6.47-0.03,10.13-0.03c8.44,0,12.65,3.66,11.21,10.77c-0.99,4.84-4.88,8.44-10.67,9.88l3.25,5.93
		c4.59,8.35,6.12,10.61,8.95,11.57l0.96,0.32l-0.61,1.85h-5.03c-2.36,0-3.15-0.73-4.97-4.43l-6.24-12.71
		c-0.7-1.43-1.12-1.69-2.42-1.75l-3.12-0.16l-2.45,12.33c-0.73,3.66-0.45,4.46,2.36,4.59l2.29,0.1l-0.41,2.04H272.93z
		 M287.78,166.73c2.01,0.35,3.92,0.54,5.61,0.54c4.52,0,7.61-3.03,8.57-7.74c1.18-5.83-1.53-8.44-8.86-8.44
		c-0.7,0-1.43,0.03-2.23,0.06L287.78,166.73z"/>
	<path class="st2" d="M314.26,174.28c1.78-9.21,8.73-15.33,15.42-15.33c3.6,0,5.96,2.71,5.26,6.25c-0.73,3.57-4.14,5.73-10.48,7.49
		l-5.54,1.53c-0.86,6.69,0.48,11.09,3.5,11.09c1.78,0,6.44-2.33,8.7-3.89l0.96,1.43c-3.35,3.41-8.63,6.63-11.79,6.63
		C315.06,189.48,312.67,182.63,314.26,174.28z M319.33,171.64l4.11-1.27c4.3-1.34,6.66-3.15,7.01-5.23
		c0.32-1.88-1.05-3.41-2.74-3.41c-2.87,0-7.04,3.35-8.35,9.81L319.33,171.64z"/>
	<path class="st2" d="M357.41,163.96c0.89,2.26,0.96,4.94,0.51,7.17c-0.8,3.92-3.12,7.01-7.77,9.46c-2.84,1.53-4.4,2.74-4.62,3.95
		c-0.19,0.99,0.25,1.53,8.6,3.19c5.8,1.12,8.12,3.66,7.17,7.93c-0.96,4.4-7.93,8.48-15.2,8.48c-9.62,0-16.06-4.78-15.01-9.4
		c0.51-2.29,3.03-3.85,11.85-5.35v-0.16c-1.72-0.61-2.71-1.66-2.45-2.8c0.38-1.59,2.77-3.35,5.07-5.16v-0.1
		c-4.78-0.54-8.67-5.13-7.39-11.57c1.24-6.37,6.05-10.64,11.88-10.64c2.74,0,4.68,1.02,5.96,2.58l3.7-2.01
		c1.85-1.02,2.61-1.62,3.31-2.13c0.54,0.41,0.57,2.07,0.41,2.84c-0.16,0.7-0.57,1.12-1.62,1.62L357.41,163.96z M356.54,196.36
		c0.57-2.84-1.21-4.17-5.89-5.16c-2.04-0.45-3.73-0.86-4.56-0.89c-6.72,1.82-9.49,3.12-9.78,4.3c-0.6,2.58,3.66,6.66,11.15,6.66
		C352.79,201.27,355.97,199.2,356.54,196.36z M353.23,170.84c1.08-5.38-0.92-9.53-3.95-9.53c-2.87,0-5.73,4.01-6.4,8.67
		c-0.76,5.23,1.4,8.79,4.17,8.79C349.85,178.78,352.31,175.27,353.23,170.84z"/>
	<path class="st2" d="M391.72,159.6c-0.92,1.94-2.17,5.73-3.22,10.29c-2.39,10.29-2.49,15.93-1.18,15.93c0.67,0,2.17-1.27,3.41-2.68
		l0.89,1.53c-1.82,2.36-4.62,4.81-7.84,4.81c-2.13,0-2.68-3.28-0.92-11.92h-0.16c-3.63,6.91-8.09,11.92-12.81,11.92
		c-3.03,0-4.33-2.29-2.84-8.47l3.35-13.92c0.86-3.63,0.45-4.36-0.22-4.36c-0.83,0-2.26,0.96-4.01,2.58l-0.96-1.5
		c1.72-2.29,5.58-4.84,8.28-4.84c1.4,0,2.48,0.7,2.96,1.82l-4.24,17.52c-1.37,5.61-0.61,6.79,0.64,6.79c2.39,0,6.21-4.46,9.33-10.2
		c0.86-1.56,1.18-2.23,1.34-3.03c0.45-2.07,0.92-4.56,2.17-9.59c0.48-1.98,2.1-3.15,5.54-3.15L391.72,159.6z"/>
	<path class="st2" d="M400.46,146.09l9.43-2.45c-1.08,3.47-1.75,6.02-3.12,12.94l-4.94,24.72c-0.73,3.66-0.35,4.43,0.32,4.43
		c0.73,0,2.29-0.92,4.37-3.12l0.96,1.5c-1.78,2.52-5.23,5.38-8.48,5.38c-2.07,0-3.09-1.27-2.55-3.89l6.72-33.42
		c0.35-1.78,0.38-2.52-0.32-3.12l-2.52-2.23L400.46,146.09z"/>
	<path class="st2" d="M412.31,175.4c1.94-9.65,8.6-16.44,16.15-16.44c1.24,0,2.93,0.16,4.4,0.45c0.67,0.13,1.24,0.22,1.56,0.22
		c0.6,0,0.92-0.25,1.4-1.43l0.54-1.34l2.23,0.64c-1.05,2.8-2.84,8.6-3.66,12.52l-0.51,2.45c-2.07,9.94-1.53,13.35-0.61,13.35
		c0.67,0,2.17-1.27,3.41-2.68l0.89,1.53c-1.82,2.36-4.62,4.81-7.84,4.81c-2.29,0-2.87-3.19-0.73-13.96l-0.13-0.03
		c-5.23,10.39-9.21,13.99-12.78,13.99C412.25,189.48,410.72,183.36,412.31,175.4z M427.16,175.65c2.49-4.37,3.41-7.1,4.08-9.72
		l0.25-0.99c0.41-1.56-1.75-2.84-4.84-2.84c-4.4,0-7.74,4.43-9.08,11.12c-1.31,6.6-0.83,11.63,1.43,11.63
		C420.82,184.86,424.2,180.85,427.16,175.65z"/>
	<path class="st2" d="M443.22,188.97c1.11-2.39,2.71-7.49,3.92-13.41c2.01-9.88,1.43-12.9,0.45-12.9c-0.73,0-2.52,1.24-3.76,2.64
		l-1.05-1.47c1.82-2.36,4.78-4.88,8.03-4.88c1.31,0,2.39,0.41,2.9,1.08c-0.06,1.4-0.96,8.12-1.85,12.11l0.13,0.03
		c4.37-9.81,7.14-13.22,10.67-13.22c1.59,0,2.71,1.15,2.42,2.55c-0.29,1.43-1.4,2.84-3.03,4.01c-1.15-0.92-1.66-1.27-2.36-1.27
		c-0.96,0-2.39,1.21-7.07,10.26c-0.83,1.59-1.34,2.96-1.72,4.59c-0.38,1.66-0.83,3.86-1.66,7.2c-0.48,1.98-2.1,3.15-5.54,3.15
		L443.22,188.97z"/>
	<path class="st2" d="M476.27,186.68l2.29-0.1c2.87-0.13,3.5-1.02,4.21-4.59l5.38-26.83c0.73-3.66,0.45-4.46-2.36-4.59l-2.29-0.1
		l0.41-2.04h16.03l-0.41,2.04l-2.29,0.1c-2.87,0.13-3.5,1.02-4.21,4.59l-5.38,26.83c-0.73,3.66-0.45,4.46,2.36,4.59l2.29,0.1
		l-0.41,2.04h-16.03L476.27,186.68z"/>
	<path class="st2" d="M501.6,183.36l4.46-21.09h-3.89l0.32-1.66l2.33-0.48c1.43-0.29,1.82-0.76,2.07-2.01l0.96-4.72
		c0.35-1.66,1.34-2.71,2.68-2.71c1.66,0,2.26,1.11,1.85,2.87l-1.47,6.15h8.16l-0.35,1.72c-0.57,0.73-1.59,0.83-5.42,0.83h-2.93
		l-3.54,18.51c-0.7,3.6-0.16,4.65,1.59,4.65c1.24,0,4.46-2.13,6.37-3.66l0.8,1.59c-3.28,3.7-6.85,6.12-9.91,6.12
		C502.81,189.48,500.78,187.35,501.6,183.36z"/>
	<path class="st2" d="M520.98,175.4c1.94-9.65,8.6-16.44,16.15-16.44c1.24,0,2.93,0.16,4.4,0.45c0.67,0.13,1.24,0.22,1.56,0.22
		c0.61,0,0.92-0.25,1.4-1.43l0.54-1.34l2.23,0.64c-1.05,2.8-2.84,8.6-3.66,12.52l-0.51,2.45c-2.07,9.94-1.53,13.35-0.6,13.35
		c0.67,0,2.17-1.27,3.41-2.68l0.89,1.53c-1.82,2.36-4.62,4.81-7.84,4.81c-2.29,0-2.87-3.19-0.73-13.96l-0.13-0.03
		c-5.23,10.39-9.21,13.99-12.78,13.99C520.91,189.48,519.39,183.36,520.98,175.4z M535.83,175.65c2.48-4.37,3.41-7.1,4.08-9.72
		l0.25-0.99c0.41-1.56-1.75-2.84-4.84-2.84c-4.4,0-7.74,4.43-9.08,11.12c-1.31,6.6-0.83,11.63,1.43,11.63
		C529.49,184.86,532.86,180.85,535.83,175.65z"/>
	<path class="st2" d="M555.23,146.09l9.43-2.45c-1.08,3.47-1.75,6.02-3.12,12.94l-4.94,24.72c-0.73,3.66-0.35,4.43,0.32,4.43
		c0.73,0,2.29-0.92,4.36-3.12l0.96,1.5c-1.78,2.52-5.23,5.38-8.47,5.38c-2.07,0-3.09-1.27-2.55-3.89l6.72-33.42
		c0.35-1.78,0.38-2.52-0.32-3.12l-2.52-2.23L555.23,146.09z"/>
	<path class="st2" d="M571.07,189.48c-2.07,0-3.09-1.4-2.64-3.6l3.79-18.64c0.73-3.63,0.57-4.52-0.16-4.52
		c-0.7,0-1.69,0.51-4.33,3.12l-0.96-1.5c2.13-2.96,5.61-5.38,8.38-5.38c1.18,0,2.68,0.41,3.03,1.59l-4.27,20.74
		c-0.76,3.66-0.29,4.43,0.35,4.43c0.8,0,2.29-1.08,4.33-3.12l1.02,1.47C577.83,186.55,574.29,189.48,571.07,189.48z M574.29,149.37
		c0.38-1.66,1.72-2.74,3.41-2.74c2.01,0,3.25,1.56,2.93,3.7c-0.29,1.85-1.66,3.06-3.5,3.06
		C575.15,153.38,573.75,151.66,574.29,149.37z"/>
	<path class="st2" d="M584.65,174.41c1.91-9.53,8.7-15.45,15.58-15.45c2.77,0,5.23,1.27,4.84,3.19c-0.29,1.5-1.94,2.99-2.36,2.99
		c-1.82-1.34-3.54-2.45-5.58-2.45c-4.33,0-6.69,6.88-7.36,10.23c-1.4,7.01-0.45,12.36,3.12,12.36c1.82,0,4.46-1.31,8.63-3.85
		l0.96,1.43c-3.73,4.24-8.67,6.63-11.72,6.63C585.44,189.48,582.93,183.05,584.65,174.41z"/>
</g>
<g>
	<path class="st2" d="M187.05,245.7c0-13.09,8.89-22.08,23.8-22.08c4.97,0,8.73,1.12,11.41,1.05l1.56,10.32h-2.68l-0.51-1.62
		c-1.69-5.45-6.05-6.91-10.93-6.91c-10.61,0-15.99,7.17-15.99,18.54c0,10.58,5.26,18.03,16.44,18.03c6.79,0,8-1.21,8-4.46v-6.37
		c0-3.09-0.41-3.54-3.95-3.5l-7.23,0.1v-3.06h17.94c-0.45,2.39-0.92,4.46-0.92,10.42v7.58c-3.95,1.27-8.89,2.1-14.53,2.1
		C195.4,265.83,187.05,258.31,187.05,245.7z"/>
	<path class="st2" d="M246.51,261.88c-3.95,2.96-5.8,3.76-7.68,3.76c-4.59,0-7.77-3.73-7.74-7.84c0-2.39,0.99-3.79,2.07-4.52
		c1.18-0.8,4.21-2.13,13.35-3.47l0.06-4.87c0.03-4.59-1.37-6.12-4.52-6.12c-1.72,0-2.84,0.41-3.35,0.99
		c-0.38,0.38-0.35,0.86-0.03,2.68c-1.18,0.96-2.96,1.66-4.24,1.66c-1.24,0-2.04-0.8-2.04-1.78c0-2.9,6.72-6.75,13.32-6.75
		c4.59,0,6.6,2.2,6.5,6.79l-0.29,13.03c-0.13,5.1,0.64,6.5,2.23,6.5c0.67,0,1.82-0.48,2.55-0.86l0.57,1.94
		c-2.77,1.66-5.16,2.61-6.75,2.61c-1.98,0-3.41-1.34-3.86-3.73H246.51z M246.51,252.58c-2.01,0.1-6.09,0.96-7.96,1.62
		c-1.21,0.41-1.75,1.21-1.75,2.49c0,2.87,2.23,5.16,4.59,5.16c1.18,0,2.93-0.48,5.07-1.98L246.51,252.58z"/>
	<path class="st2" d="M262.42,264.88c0.32-1.59,0.64-3.5,0.64-10.74v-25.3c0-1.69-0.19-2.48-0.99-3.12l-2.71-2.1v-1.08l9.84-2.9
		c-0.38,3.44-0.54,5.93-0.54,9.18v6.91c0,2.23-0.1,3.12-0.22,4.33l0.1,0.03l0.89-0.73c2.68-2.17,5.83-3.76,8.92-3.76
		c6.37,0,11.15,5.19,11.15,13.35c0,8.92-6.82,16.19-18.16,16.19c-2.23,0-4.94-0.22-7.36-0.25H262.42z M268.66,256.34
		c0,4.43,1.53,5.86,5.54,5.86c5.83,0,9.75-4.91,9.75-12.08c0-6.05-3.06-10.07-8.89-10.07c-1.91,0-4.4,0.73-6.4,1.94V256.34z"/>
	<path class="st2" d="M296.03,225.72l-2.68-2.1v-1.08l9.84-2.9c-0.38,3.44-0.54,5.93-0.54,9.18v30.36c0,2.49,0.38,3.47,2.68,3.54
		l1.88,0.06v2.1H292.5v-2.1l1.91-0.06c2.26-0.06,2.64-1.05,2.64-3.54v-30.33C297.05,227.16,296.86,226.36,296.03,225.72z"/>
	<path class="st2" d="M324.14,235.6c5.1,0,8.48,3.41,9.81,7.77c0.45,1.34,0.8,2.1,1.4,2.39l-0.32,1.27
		c-6.6,0.48-12.68,0.57-19.12,0.45c-0.06,0.54-0.06,1.37-0.06,1.98c0.03,6.4,3.57,11.95,10.35,11.95c2.2,0,6.05-1.05,8.25-1.78
		l0.45,1.62c-4.46,2.77-7.97,4.4-11.6,4.4c-6.66,0-13.13-4.91-13.13-13.54C310.18,242.86,316.78,235.6,324.14,235.6z M329.08,244.68
		c-0.99-3.95-3.7-6.28-6.4-6.28c-2.96,0-5.35,2.74-6.31,6.79L329.08,244.68z"/>
	<path class="st2" d="M358.01,262.17c-3.38,2.13-7.01,3.47-9.4,3.47c-3.92,0-6.4-1.98-6.34-6.72l0.22-17.43
		c0.03-1.88-0.1-2.23-1.31-2.68l-1.91-0.7c0-0.03,0-1.12,0-1.12l8.63-6.28l-0.22,5.64h9.75l-0.13,1.59
		c-0.45,0.86-1.94,1.31-5.26,1.31h-4.17v17.91c0,3.38,1.43,4.49,3.7,4.49c1.53,0,4.24-0.57,6.05-1.12L358.01,262.17z"/>
	<path class="st2" d="M372.96,262.65l2.17-0.1c2.77-0.16,3.86-1.15,3.95-5.45l0.51-26.25l-0.89-1.15c-1.5-1.94-3.85-2.87-6.08-2.87
		h-0.61v-2.26h11.5c1.02,1.88,2.42,3.92,6.85,9.14l16.85,20.14h0.06l-0.29-22.02c-0.03-3.54-0.57-4.81-3.89-4.91l-3.25-0.13v-2.23
		h16.79v2.23l-2.13,0.1c-2.77,0.13-3.95,1.12-3.98,5.42l-0.13,19.12c-0.06,7.04,0.22,10.32,0.61,13.45h-2.84l-25.55-30.81h-0.06
		l0.06,23.45c0,3.57,0.57,4.87,3.82,5l3.31,0.13v2.23h-16.79V262.65z"/>
	<path class="st2" d="M433.44,235.6c5.1,0,8.48,3.41,9.81,7.77c0.45,1.34,0.8,2.1,1.4,2.39l-0.32,1.27
		c-6.6,0.48-12.68,0.57-19.12,0.45c-0.06,0.54-0.06,1.37-0.06,1.98c0.03,6.4,3.57,11.95,10.35,11.95c2.2,0,6.05-1.05,8.25-1.78
		l0.45,1.62c-4.46,2.77-7.97,4.4-11.6,4.4c-6.66,0-13.13-4.91-13.13-13.54C419.49,242.86,426.08,235.6,433.44,235.6z M438.38,244.68
		c-0.99-3.95-3.7-6.28-6.4-6.28c-2.96,0-5.35,2.74-6.31,6.79L438.38,244.68z"/>
	<path class="st2" d="M458.65,265.58l-8.22-24.44c-0.73-2.07-1.75-2.58-3.28-2.64l-0.7-0.03v-2.1h13.83v2.1l-2.01,0.13
		c-2.26,0.1-2.55,0.73-1.85,3.12l4.62,15.36h0.13l6.91-20.71h2.26l7.65,20.81h0.1c2.87-8.57,4.33-14.02,4.33-16.28
		c0-1.72-0.86-2.17-2.52-2.29l-1.59-0.13v-2.1h12.3v2.1l-0.7,0.03c-1.75,0.1-2.61,0.8-3.28,2.68l-9.02,24.41h-2.17l-7.42-19.98h-0.1
		l-7.07,19.98H458.65z"/>
	<path class="st2" d="M493.54,255.99h2.52l0.48,1.31c1.4,3.82,3.63,5.51,6.72,5.51c2.99,0,5.16-2.01,5.16-4.72
		c0-3.19-2.04-4.33-6.98-6.21c-5.54-2.13-7.17-4.3-7.17-7.87c0-4.21,3.66-8.41,10.51-8.41c2.9,0,4.87,0.57,6.37,0.57l0.99,7.61
		h-2.52l-0.35-1.34c-0.76-2.93-2.45-4.14-5.32-4.14c-2.84,0-4.72,1.75-4.72,3.89c0,2.17,1.4,3.66,6.5,5.51
		c5.38,1.98,7.42,4.37,7.42,8.41c0,5.61-4.08,9.53-10.9,9.53c-2.29,0-4.84-0.48-7.33-1.75L493.54,255.99z"/>
</g>
<g>
	<path class="st2" d="M156.84,299.78c5.07,0,9.05,1.27,11.88,1.66l0.29,10.64h-2.58l-0.29-2.36c-0.61-4.68-5.16-7.33-10.83-7.33
		c-6.69,0-13.03,5.13-15.07,15.29c-2.33,11.6,0.89,21.38,11.76,21.38c6.31,0,8.32-1.18,8.98-4.52l1.18-5.89
		c0.67-3.38,0.38-3.82-2.2-3.79l-7.93,0.06l0.64-3.09h16.57c-0.8,2.07-1.62,5.54-2.77,11.15l-1.4,6.69
		c-4.01,1.34-8.86,2.33-13.48,2.33c-14.21,0-20.49-10.1-17.78-23.64C136.26,306.22,144.83,299.78,156.84,299.78z"/>
	<path class="st2" d="M174.56,327.63c1.94-9.65,8.6-16.41,16.38-16.41c1.31,0,3.09,0.16,4.62,0.51c0.67,0.13,1.21,0.22,1.53,0.22
		c0.61,0,0.92-0.25,1.37-1.43l0.54-1.37l2.36,0.64c-1.05,2.87-2.77,8.38-3.57,12.23l-0.57,2.71c-2.04,9.78-1.56,13.19-0.6,13.19
		c0.7,0,2.13-1.21,3.57-2.74l0.89,1.66c-1.94,2.55-4.84,4.97-8.12,4.97c-2.52,0-3.22-3.09-0.99-13.86l-0.16-0.03
		c-5.13,10.23-9.14,13.89-12.81,13.89C174.56,341.8,172.93,335.69,174.56,327.63z M189.44,328.07c2.45-4.27,3.44-7.07,4.14-9.78
		l0.25-0.99c0.45-1.59-1.72-2.87-4.78-2.87c-4.3,0-7.49,4.27-8.83,10.93c-1.34,6.66-0.8,11.53,1.4,11.53
		C183.38,336.9,186.57,333.11,189.44,328.07z"/>
	<path class="st2" d="M211.75,304.5c0.32-1.72,0.32-2.49-0.35-3.06l-2.52-2.17l0.16-0.86l9.84-2.49c-1.02,3.44-1.53,5.8-2.96,12.33
		l-0.83,3.7c-0.96,4.37-1.72,7.84-2.48,10.77l0.16,0.06c4.05-7.81,7.55-11.57,11.92-11.57c4.78,0,6.98,4.62,5.42,12.36
		c-2.07,10.51-9.05,18.22-17.14,18.22c-2.2,0-4.97-0.48-8.38-1.62L211.75,304.5z M224.43,326.1c1.15-5.61,0.48-9.91-2.36-9.91
		c-2.45,0-5,2.71-7.46,7.2c-2.26,4.11-3.35,7.23-4.24,12.33c-0.29,1.75,1.53,2.83,4.68,2.83
		C219.87,338.55,223.18,332.28,224.43,326.1z"/>
	<path class="st2" d="M238.2,298.41l9.85-2.49c-1.05,3.44-1.69,5.93-3,12.46l-4.94,24.85c-0.76,3.82-0.41,4.62,0.25,4.62
		c0.73,0,2.29-0.96,4.4-3.15l0.92,1.59c-1.88,2.64-5.29,5.51-8.7,5.51c-2.23,0-3.35-1.37-2.8-4.05l6.72-33.26
		c0.35-1.72,0.35-2.49-0.35-3.06l-2.52-2.17L238.2,298.41z"/>
	<path class="st2" d="M250.21,326.51c1.78-9.21,8.7-15.29,15.55-15.29c3.82,0,6.24,2.77,5.54,6.31c-0.73,3.57-4.11,5.8-10.61,7.55
		l-5.38,1.47c-0.8,6.63,0.54,10.86,3.54,10.86c1.78,0,6.31-2.23,8.79-3.92l0.99,1.53c-3.6,3.63-8.86,6.79-12.11,6.79
		C251.13,341.8,248.59,334.99,250.21,326.51z M259.64,322.69c4.21-1.27,6.53-3.09,6.88-5.19c0.32-1.88-1.02-3.41-2.71-3.41
		c-2.74,0-6.75,3.22-8.06,9.65c0,0.03,0,0.1,0,0.13L259.64,322.69z"/>
	<path class="st2" d="M274.46,335.56l4.46-20.87H275l0.35-1.82l2.36-0.48c1.43-0.29,1.78-0.73,2.04-1.94l0.96-4.62
		c0.38-1.75,1.43-2.83,2.9-2.83c1.78,0,2.45,1.18,2.04,3.06l-1.43,5.93h8.03l-0.35,1.85c-0.57,0.73-1.66,0.86-5.42,0.86h-2.8
		l-3.5,18.1c-0.7,3.66-0.22,4.75,1.47,4.75c1.27,0,4.46-2.13,6.44-3.7l0.83,1.69c-3.28,3.76-6.95,6.28-10.2,6.28
		C275.67,341.8,273.6,339.67,274.46,335.56z"/>
	<path class="st2" d="M302.38,341.04l0.45-2.13l2.29-0.1c2.8-0.13,3.44-1.02,4.14-4.43l5.96-29.09c-1.43-1.59-2.93-2.23-5.19-2.39
		l-1.02-0.06l0.41-2.1h10.42c0.73,2.1,1.5,3.66,5.38,10.26l11.76,20.14h0.06l4.49-23.7c0.67-3.6,0.35-4.43-2.52-4.49l-3.38-0.1
		l0.41-2.1h15.61l-0.41,2.1l-2.23,0.13c-2.77,0.13-3.38,0.99-4.08,4.43L340,331.58c-0.96,4.68-1.34,7.55-1.4,9.46h-2.52
		l-18.57-31.89h-0.06l-4.87,25.2c-0.7,3.57-0.38,4.4,2.45,4.46l3.41,0.1l-0.45,2.13H302.38z"/>
	<path class="st2" d="M349.09,326.51c1.78-9.21,8.7-15.29,15.55-15.29c3.82,0,6.24,2.77,5.54,6.31c-0.73,3.57-4.11,5.8-10.61,7.55
		l-5.38,1.47c-0.8,6.63,0.54,10.86,3.54,10.86c1.78,0,6.31-2.23,8.79-3.92l0.99,1.53c-3.6,3.63-8.86,6.79-12.11,6.79
		C350.02,341.8,347.47,334.99,349.09,326.51z M358.52,322.69c4.21-1.27,6.53-3.09,6.88-5.19c0.32-1.88-1.02-3.41-2.71-3.41
		c-2.74,0-6.75,3.22-8.06,9.65c0,0.03,0,0.1,0,0.13L358.52,322.69z"/>
	<path class="st2" d="M389.46,332.92c-2.71,5.29-6.98,8.92-10.67,8.92c-4.14,0-5.7-3.5-2.45-17.91c1.75-7.61,1.82-8.54,0.99-8.54
		c-0.73,0-1.66,0.54-3.92,2.93l-0.96-1.59c2.17-3.06,5.77-5.51,8.67-5.51c1.27,0,2.55,0.51,2.99,1.72
		c-4.81,18.8-5.03,24.79-2.36,24.79c2.23,0,7.14-6.34,8.38-10.67c0.19-1.27,0.41-2.68,0.7-4.17c0.51-2.84,0.83-4.97,1.56-7.81
		c0.48-2.04,2.1-3.28,5.8-3.19l0.48,0.48c-4.72,14.02-5.03,25.36-2.61,25.36c3.38,0,8.25-7.01,9.88-14.97
		c0.86-4.24,0.35-8.51-0.89-9.84c0.86-1.18,2.1-1.69,3.31-1.69c2.55,0,4.21,2.58,3.06,8.38c-2.26,11.25-11.21,22.24-18.29,22.24
		C390.39,341.84,389.02,339.7,389.46,332.92z"/>
	<path class="st2" d="M412.95,336.99c0.19-1.08,0.83-1.98,1.59-2.36c1.75,2.33,4.27,3.6,6.56,3.6c2.1,0,3.44-1.12,3.85-3.12
		c0.41-2.13-0.35-4.14-3.98-7.26c-4.17-3.57-4.97-5.86-4.43-9.05c0.61-3.89,5.51-7.58,10.35-7.58c3.28,0,5.58,1.56,5.23,3.41
		c-0.22,1.12-0.99,2.07-2.04,2.71c-1.82-1.75-3.98-2.77-5.67-2.77c-1.75,0-3.03,1.12-3.31,2.77c-0.38,2.04,0.45,4.01,4.17,7.33
		c4.11,3.6,4.81,5.83,4.21,8.92c-0.89,4.56-5.83,8.22-10.83,8.22C414.86,341.8,412.41,339.73,412.95,336.99z"/>
	<path class="st2" d="M445.46,338.91l2.29-0.1c2.8-0.13,3.41-1.02,4.11-4.43l5.42-26.99c0.7-3.5,0.38-4.3-2.33-4.43l-2.29-0.13
		l0.41-2.1h16.38l-0.41,2.1l-2.33,0.13c-2.77,0.13-3.41,0.99-4.08,4.43l-5.42,26.99c-0.7,3.5-0.41,4.3,2.29,4.43l2.33,0.1
		l-0.45,2.13h-16.38L445.46,338.91z"/>
	<path class="st2" d="M470.92,335.56l4.46-20.87h-3.92l0.35-1.82l2.36-0.48c1.43-0.29,1.78-0.73,2.04-1.94l0.96-4.62
		c0.38-1.75,1.43-2.83,2.9-2.83c1.78,0,2.45,1.18,2.04,3.06l-1.43,5.93h8.03l-0.35,1.85c-0.57,0.73-1.66,0.86-5.42,0.86h-2.8
		l-3.5,18.1c-0.7,3.66-0.22,4.75,1.47,4.75c1.27,0,4.46-2.13,6.44-3.7l0.83,1.69c-3.28,3.76-6.95,6.28-10.2,6.28
		C472.13,341.8,470.06,339.67,470.92,335.56z"/>
	<path class="st2" d="M490.51,327.63c1.94-9.65,8.6-16.41,16.38-16.41c1.31,0,3.09,0.16,4.62,0.51c0.67,0.13,1.21,0.22,1.53,0.22
		c0.61,0,0.92-0.25,1.37-1.43l0.54-1.37l2.36,0.64c-1.05,2.87-2.77,8.38-3.57,12.23l-0.57,2.71c-2.04,9.78-1.56,13.19-0.6,13.19
		c0.7,0,2.13-1.21,3.57-2.74l0.89,1.66c-1.94,2.55-4.84,4.97-8.12,4.97c-2.52,0-3.22-3.09-0.99-13.86l-0.16-0.03
		c-5.13,10.23-9.14,13.89-12.81,13.89C490.51,341.8,488.89,335.69,490.51,327.63z M505.39,328.07c2.45-4.27,3.44-7.07,4.14-9.78
		l0.25-0.99c0.45-1.59-1.72-2.87-4.78-2.87c-4.3,0-7.49,4.27-8.83,10.93c-1.34,6.66-0.8,11.53,1.4,11.53
		C499.34,336.9,502.53,333.11,505.39,328.07z"/>
	<path class="st2" d="M525.18,298.41l9.85-2.49c-1.05,3.44-1.69,5.93-3,12.46l-4.94,24.85c-0.76,3.82-0.41,4.62,0.25,4.62
		c0.73,0,2.29-0.96,4.4-3.15l0.92,1.59c-1.88,2.64-5.29,5.51-8.7,5.51c-2.23,0-3.35-1.37-2.8-4.05l6.72-33.26
		c0.35-1.72,0.35-2.49-0.35-3.06l-2.52-2.17L525.18,298.41z"/>
	<path class="st2" d="M541.56,341.8c-2.23,0-3.35-1.47-2.87-3.76l3.7-18.16c0.76-3.79,0.61-4.71-0.13-4.71
		c-0.7,0-1.75,0.57-4.36,3.15l-0.96-1.59c2.2-3.03,5.7-5.51,8.6-5.51c1.34,0,2.93,0.51,3.28,1.78l-4.14,20.23
		c-0.8,3.82-0.35,4.62,0.29,4.62c0.8,0,2.26-1.08,4.37-3.15l0.99,1.56C548.45,338.91,544.97,341.8,541.56,341.8z M544.59,301.63
		c0.41-1.75,1.82-2.93,3.6-2.93c2.1,0,3.41,1.62,3.06,3.89c-0.32,1.91-1.75,3.22-3.7,3.22C545.48,305.8,544.05,303.99,544.59,301.63
		z"/>
	<path class="st2" d="M555.17,326.58c1.94-9.53,8.83-15.36,15.77-15.36c2.99,0,5.51,1.34,5.1,3.35c-0.32,1.53-2.01,3.06-2.55,3.06
		c-1.98-1.5-3.76-2.61-5.7-2.61c-4.08,0-6.34,6.79-6.98,9.91c-1.43,7.01-0.45,12.46,3.12,12.46c1.82,0,4.52-1.34,8.67-3.85l0.99,1.5
		c-3.82,4.33-8.83,6.79-12.04,6.79C556.13,341.8,553.39,335.37,555.17,326.58z"/>
</g>
<g>
	<path class="st2" d="M144.51,398.02c0-13.22,8.98-22.14,23.86-22.14c5.03,0,8.79,1.12,11.47,1.08l1.56,10.51h-2.77l-0.57-1.72
		c-1.72-5.35-5.93-6.88-10.8-6.88c-10.32,0-15.61,7.04-15.61,18.45c0,10.61,5.13,17.87,16.03,17.87c6.47,0,7.71-1.18,7.71-4.37
		v-6.28c0-3.12-0.45-3.57-4.05-3.5l-6.82,0.06v-3.15h18c-0.41,2.36-0.89,4.52-0.89,10.45v7.62c-4.21,1.31-9.27,2.13-14.91,2.13
		C152.83,418.16,144.51,410.77,144.51,398.02z"/>
	<path class="st2" d="M204.07,414.14c-3.92,2.96-5.89,3.82-7.84,3.82c-4.52,0-7.77-3.7-7.77-7.93c0-2.42,0.96-3.85,2.13-4.62
		c1.21-0.83,4.3-2.1,13.45-3.47l0.03-4.78c0.06-4.46-1.34-5.96-4.43-5.96c-1.69,0-2.77,0.41-3.31,0.99
		c-0.35,0.38-0.35,0.89-0.03,2.71c-1.15,0.96-3,1.69-4.33,1.69s-2.17-0.8-2.17-1.88c0-2.96,6.95-6.82,13.7-6.82
		c4.75,0,6.72,2.26,6.63,6.91l-0.25,12.9c-0.13,4.91,0.61,6.34,2.17,6.34c0.64,0,1.78-0.48,2.52-0.89l0.57,2.07
		c-2.77,1.72-5.26,2.74-6.95,2.74c-2.04,0-3.47-1.34-3.95-3.82H204.07z M204.03,404.84c-2.1,0.1-5.96,0.96-7.77,1.56
		c-1.18,0.45-1.66,1.24-1.66,2.52c0,2.8,2.17,5.07,4.46,5.07c1.15,0,2.87-0.51,4.91-1.94L204.03,404.84z"/>
	<path class="st2" d="M220.19,417.2c0.29-1.66,0.64-3.54,0.64-10.48V381.3c0-1.75-0.22-2.55-1.05-3.19l-2.68-2.1v-1.18l10.29-2.87
		c-0.38,3.25-0.54,5.89-0.54,9.21v6.6c0,2.2-0.1,3.25-0.22,4.49l0.1,0.03l0.86-0.7c2.68-2.17,5.83-3.7,8.89-3.7
		c6.47,0,11.21,5.19,11.21,13.32c0,9.02-6.88,16.25-18.45,16.25c-2.17,0-5-0.22-7.52-0.25H220.19z M226.85,408.63
		c0,4.33,1.47,5.77,5.35,5.77c5.58,0,9.49-4.71,9.49-11.85c0-6.05-3.06-10.04-8.76-10.04c-1.85,0-4.21,0.7-6.09,1.82V408.63z"/>
	<path class="st2" d="M254.03,378.11l-2.68-2.1v-1.18l10.29-2.87c-0.38,3.25-0.57,5.89-0.57,9.21v30.33c0,2.42,0.38,3.35,2.61,3.44
		l1.91,0.06v2.2h-15.04V415l1.91-0.06c2.2-0.1,2.58-1.02,2.58-3.44v-30.2C255.05,379.54,254.86,378.75,254.03,378.11z"/>
	<path class="st2" d="M282.58,387.89c5.07,0,8.48,3.35,9.88,7.81c0.45,1.4,0.83,2.17,1.4,2.45l-0.32,1.34
		c-6.69,0.51-12.65,0.6-19.02,0.48c-0.06,0.48-0.06,1.21-0.06,1.78c0.06,6.34,3.6,11.76,10.32,11.76c2.23,0,5.99-1.05,8.22-1.85
		l0.41,1.69c-4.4,2.9-8,4.62-11.82,4.62c-6.82,0-13.19-4.97-13.19-13.64C268.41,395.09,275.13,387.89,282.58,387.89z M287.36,397.03
		c-0.96-3.95-3.6-6.24-6.28-6.24c-2.93,0-5.26,2.71-6.18,6.79L287.36,397.03z"/>
	<path class="st2" d="M316.78,414.3c-3.41,2.29-7.07,3.7-9.69,3.7c-3.98,0-6.53-2.1-6.47-6.95l0.22-17.08
		c0.03-1.85-0.1-2.26-1.31-2.71l-1.98-0.76c0-0.03,0-1.21,0-1.21l9.11-6.31l-0.22,5.67h9.72l-0.16,1.75
		c-0.45,0.86-1.94,1.31-5.26,1.31h-4.11v17.59c0,3.28,1.43,4.43,3.73,4.43c1.59,0,4.17-0.54,6.05-1.15L316.78,414.3z"/>
	<path class="st2" d="M330.55,414.88l1.24-0.06c4.05-0.25,5.16-1.5,6.09-9.24l2.71-22.14c0.45-3.6-0.7-3.85-3.5-4.05l-2.96-0.19
		v-2.33h14.02c0.83,3.03,2.23,6.47,3.85,10.23l6.72,15.07h0.1l10.86-25.3h13.32v2.33l-3.19,0.1c-2.64,0.1-3.44,0.54-3.12,3.73
		l2.71,26.29c0.48,4.59,1.4,5.48,4.78,5.54l1.62,0.03v2.33h-18.03v-2.33l2.39-0.19c2.8-0.22,3.22-1.02,2.8-5.38l-2.64-25.39h-0.06
		l-11.57,26.44h-2.96L343.83,384h-0.06l-2.33,21.73c-0.8,7.26-0.16,8.98,3.57,9.08l2.48,0.06v2.33h-16.95V414.88z"/>
	<path class="st2" d="M402.91,387.89c5.07,0,8.48,3.35,9.88,7.81c0.45,1.4,0.83,2.17,1.4,2.45l-0.32,1.34
		c-6.69,0.51-12.65,0.6-19.02,0.48c-0.06,0.48-0.06,1.21-0.06,1.78c0.06,6.34,3.6,11.76,10.32,11.76c2.23,0,5.99-1.05,8.22-1.85
		l0.41,1.69c-4.4,2.9-8,4.62-11.82,4.62c-6.82,0-13.19-4.97-13.19-13.64C388.73,395.09,395.46,387.89,402.91,387.89z M407.69,397.03
		c-0.96-3.95-3.6-6.24-6.28-6.24c-2.93,0-5.26,2.71-6.18,6.79L407.69,397.03z"/>
	<path class="st2" d="M439.81,381.3c0-1.75-0.22-2.55-1.05-3.19l-2.71-2.1v-1.15l10.32-2.9c-0.38,3.25-0.54,5.89-0.54,9.21v28.39
		c0,3.57,0.48,4.78,2.1,4.78c0.54,0,1.37-0.1,2.1-0.25l0.16,2.23l-9.94,1.72l-0.32-4.46l-0.13-0.03l-1.18,0.86
		c-3.22,2.36-5.89,3.57-8.44,3.57c-7.01,0-12.58-5.64-12.58-14.27c0-9.14,7.07-15.8,16.85-15.8c1.91,0,3.73,0.16,5.35,0.7V381.3z
		 M439.81,394.64c0-2.33-2.68-3.95-6.24-3.95c-6.31,0-9.84,4.91-9.84,11.47c0,6.82,3.89,11.18,9.91,11.18c1.4,0,3.54-0.48,6.18-1.88
		V394.64z"/>
	<path class="st2" d="M453.52,415l1.91-0.06c2.23-0.1,2.61-1.02,2.61-3.44v-15.23c0-1.78-0.32-2.45-1.08-3.15l-1.98-1.91v-1.18
		l9.59-2.8c-0.38,3.25-0.51,5.86-0.51,9.24v15.04c0,2.42,0.38,3.35,2.58,3.44l1.91,0.06v2.2h-15.04V415z M457.15,378.4
		c0-2.17,1.59-3.76,3.82-3.76c2.26,0,3.82,1.56,3.82,3.76c0,2.36-1.56,3.89-3.82,3.89C458.74,382.28,457.15,380.69,457.15,378.4z"/>
	<path class="st2" d="M492.68,418.03l-0.35-4.46h-0.06l-2.01,1.43c-2.87,2.1-5.58,2.96-8.28,2.96c-5,0-7.71-2.93-7.71-8.32
		c0-6.37,0.16-10.45,0.16-13.51c0-1.75-0.29-2.42-1.05-3.15l-2.1-1.88v-1.15l9.56-2.71c-0.35,3.38-0.51,5.89-0.51,9.37v9.65
		c0,5.16,1.43,7.14,5.35,7.14c2.17,0,4.65-0.73,6.56-1.85v-15.52c0-1.69-0.29-2.33-1.08-3.03l-2.01-1.91v-1.15l9.62-2.71
		c-0.35,3.38-0.51,5.89-0.51,9.37v12.94c0,3.5,0.51,4.81,2.1,4.81c0.57,0,1.43-0.13,2.1-0.29l0.16,2.23L492.68,418.03z"/>
	<path class="st2" d="M506,415l1.91-0.06c2.23-0.1,2.61-1.02,2.61-3.44v-15.2c0-1.75-0.32-2.39-1.08-3.15l-2.01-1.94v-1.18l9.05-2.8
		l-0.13,5.07l0.13,0.03l1.69-1.15c3.19-2.23,5.99-3.28,8.38-3.28c3.54,0,6.02,1.43,7.36,4.68h0.1l2.04-1.53
		c3.28-2.42,5.96-3.15,8.38-3.15c5.26,0,8.03,3.31,8.03,9.72c0,3.73-0.1,9.94-0.1,13.89c0,2.71,0.48,3.41,2.64,3.47l1.82,0.03v2.2
		h-14.5V415l1.69-0.06c2.07-0.13,2.33-0.89,2.33-3.44l0.06-12.08c0-5.13-1.85-6.98-5.73-6.98c-2.42,0-4.56,0.96-6.34,1.98
		c0.13,0.92,0.19,1.91,0.19,3.57c0,2.36,0,11.47,0,13.51c0,2.71,0.48,3.41,2.64,3.47l1.78,0.03v2.2h-14.53V415l1.75-0.1
		c2.07-0.13,2.33-0.86,2.33-3.41v-12.08c0-5.13-1.82-6.98-5.67-6.98c-2.39,0-4.49,0.89-6.28,1.91v17.24c0,2.36,0.38,3.31,2.58,3.35
		l1.78,0.06v2.2H506V415z"/>
</g>
<g>
	<path class="st2" d="M115.38,452.04c5.23,0,9.21,1.27,12.04,1.69l0.29,10.86H125l-0.35-2.42c-0.67-4.78-5.07-7.33-10.64-7.33
		c-6.63,0-12.81,5.19-14.81,15.23c-2.29,11.53,0.92,21.19,11.44,21.19c5.96,0,7.84-1.18,8.48-4.37l1.21-5.93
		c0.67-3.38,0.32-3.86-2.39-3.79l-7.42,0.06l0.64-3.22h16.73c-0.76,2.1-1.59,5.51-2.77,11.12l-1.4,6.82
		c-4.14,1.34-8.95,2.36-13.6,2.36c-14.18,0-20.65-10-17.91-23.61C94.64,458.51,103.3,452.04,115.38,452.04z"/>
	<path class="st2" d="M132.97,479.86c1.94-9.65,8.57-16.41,16.57-16.41c1.4,0,3.28,0.22,4.91,0.57c0.64,0.16,1.15,0.25,1.47,0.25
		c0.61,0,0.89-0.25,1.34-1.4l0.54-1.43l2.45,0.64c-1.05,2.93-2.64,8.12-3.47,11.95l-0.61,2.96c-2.04,9.62-1.59,13.06-0.57,13.06
		c0.67,0,2.07-1.18,3.7-2.8l0.86,1.72c-2.07,2.74-5.07,5.19-8.41,5.19c-2.71,0-3.54-3.03-1.21-13.8l-0.19-0.03
		c-5.03,10.1-9.11,13.83-12.81,13.83C133,494.16,131.32,488.01,132.97,479.86z M147.92,480.52c2.42-4.17,3.41-7.04,4.17-9.91
		l0.25-0.96c0.45-1.59-1.69-2.9-4.72-2.9c-4.21,0-7.26,4.11-8.57,10.74c-1.37,6.72-0.73,11.41,1.37,11.41
		C142.09,488.9,145.11,485.34,147.92,480.52z"/>
	<path class="st2" d="M170.57,456.82c0.35-1.66,0.35-2.42-0.38-3.03l-2.49-2.07l0.16-0.99l10.29-2.49
		c-0.99,3.41-1.47,5.7-2.84,11.85l-0.76,3.5c-1.02,4.65-1.78,8.06-2.61,11.15l0.19,0.1c3.92-7.58,7.39-11.41,11.82-11.41
		c4.84,0,7.14,4.65,5.54,12.55c-2.13,10.67-9.4,18.16-17.43,18.16c-2.33,0-5.23-0.57-8.63-1.72L170.57,456.82z M183.41,478.52
		c1.15-5.64,0.51-9.75-2.26-9.75c-2.39,0-4.91,2.68-7.3,7.04c-2.13,3.95-3.25,7.1-4.11,12.14c-0.32,1.78,1.5,2.87,4.49,2.87
		C178.89,490.82,182.14,484.76,183.41,478.52z"/>
	<path class="st2" d="M197.44,450.74l10.29-2.49c-1.05,3.41-1.69,5.8-2.9,11.98l-4.97,24.92c-0.8,4.01-0.45,4.81,0.22,4.81
		c0.73,0,2.29-0.92,4.43-3.15l0.92,1.72c-1.94,2.71-5.45,5.64-8.95,5.64c-2.39,0-3.6-1.47-3.03-4.21l6.69-33.13
		c0.32-1.66,0.35-2.42-0.38-3.03l-2.52-2.07L197.44,450.74z"/>
	<path class="st2" d="M209.77,478.74c1.78-9.18,8.67-15.29,15.68-15.29c4.08,0,6.53,2.87,5.83,6.4c-0.73,3.57-4.08,5.86-10.74,7.61
		l-5.23,1.4c-0.76,6.56,0.64,10.67,3.57,10.67c1.78,0,6.18-2.17,8.89-3.98l0.99,1.62c-3.85,3.89-9.08,6.98-12.43,6.98
		C210.82,494.16,208.11,487.34,209.77,478.74z M219.49,475.01c4.05-1.21,6.34-3.03,6.72-5.13c0.32-1.88-0.99-3.44-2.64-3.44
		c-2.68,0-6.5,3.06-7.77,9.49c-0.03,0.06-0.03,0.13-0.03,0.19L219.49,475.01z"/>
	<path class="st2" d="M234.5,487.76l4.43-20.65h-3.92l0.38-1.98l2.36-0.48c1.4-0.25,1.78-0.7,2.04-1.88l0.92-4.49
		c0.41-1.85,1.53-3,3.12-3c1.88,0,2.68,1.27,2.2,3.25l-1.34,5.7h7.9l-0.38,1.94c-0.6,0.76-1.72,0.92-5.45,0.92h-2.68l-3.41,17.68
		c-0.73,3.73-0.29,4.84,1.34,4.84c1.31,0,4.46-2.1,6.47-3.7l0.83,1.75c-3.25,3.85-6.98,6.47-10.45,6.47
		C235.68,494.16,233.58,491.99,234.5,487.76z"/>
	<path class="st2" d="M298.16,491.17l2.61-0.19c2.33-0.16,3.54-1.02,3.89-5.58l1.82-25.36h-0.06l-16.25,26.6h-2.74l-5.96-26.6h-0.1
		l-7.77,23.29c-2.17,6.4-1.24,7.49,2.1,7.71l2.1,0.13l-0.45,2.2h-16.57l0.45-2.2l1.21-0.1c3.86-0.32,5.42-1.59,7.58-7.9l8.19-23.99
		c1.02-3.03-0.03-3.66-2.77-3.82l-2.8-0.13l0.45-2.2h13.38c0.19,2.77,0.51,4.78,1.72,10.39l3.19,14.78h0.06l15.07-25.17h12.87
		l-0.45,2.2l-3.28,0.19c-2.52,0.13-3.25,0.89-3.41,3.31l-1.72,26.76c-0.35,5.1,0.32,5.42,3.44,5.58l1.43,0.1l-0.45,2.2h-17.24
		L298.16,491.17z"/>
	<path class="st2" d="M320.38,478.74c1.78-9.18,8.67-15.29,15.68-15.29c4.08,0,6.53,2.87,5.83,6.4c-0.73,3.57-4.08,5.86-10.74,7.61
		l-5.22,1.4c-0.76,6.56,0.64,10.67,3.57,10.67c1.78,0,6.18-2.17,8.89-3.98l0.99,1.62c-3.85,3.89-9.08,6.98-12.43,6.98
		C321.43,494.16,318.72,487.34,320.38,478.74z M330.1,475.01c4.05-1.21,6.34-3.03,6.72-5.13c0.32-1.88-0.99-3.44-2.64-3.44
		c-2.68,0-6.5,3.06-7.77,9.49c-0.03,0.06-0.03,0.13-0.03,0.19L330.1,475.01z"/>
	<path class="st2" d="M368.27,473.77c-2.45,10.86-2.58,16.28-1.24,16.28c0.67,0,2.07-1.18,3.7-2.8l0.86,1.72
		c-2.07,2.74-5.07,5.19-8.41,5.19c-2.71,0-3.63-3.6-1.21-13.8l-0.19-0.03c-5.03,10.1-9.11,13.83-12.81,13.83
		c-4.52,0-6.21-6.15-4.56-14.31c1.94-9.65,8.57-16.41,16.57-16.41c1.47,0,3.38,0.25,4.49,0.57l1.5-7.33
		c0.38-1.85,0.25-2.49-0.38-3.03l-2.49-2.07l0.16-0.99l10.58-2.48c-1.94,5.73-3.54,12.17-5.7,21.7L368.27,473.77z M359.35,480.52
		c2.42-4.17,3.41-7.04,4.17-9.91l0.25-0.96c0.45-1.59-1.69-2.9-4.72-2.9c-4.21,0-7.26,4.11-8.57,10.74
		c-1.37,6.72-0.73,11.41,1.37,11.41C353.52,488.9,356.55,485.34,359.35,480.52z"/>
	<path class="st2" d="M380.77,494.16c-2.42,0-3.63-1.56-3.12-3.98l3.6-17.65c0.8-3.95,0.61-4.87-0.1-4.87
		c-0.73,0-1.82,0.64-4.4,3.15l-0.92-1.72c2.2-3.09,5.77-5.64,8.79-5.64c1.53,0,3.19,0.64,3.54,2.04l-4.05,19.66
		c-0.83,4.01-0.38,4.81,0.25,4.81c0.8,0,2.26-1.02,4.4-3.15l0.99,1.69C387.81,491.17,384.24,494.16,380.77,494.16z M383.57,453.89
		c0.41-1.88,1.91-3.12,3.82-3.12c2.2,0,3.54,1.72,3.15,4.08c-0.35,2.01-1.85,3.38-3.85,3.38
		C384.46,458.22,383.03,456.31,383.57,453.89z"/>
	<path class="st2" d="M421.9,464.15c-1.02,2.45-2.13,5.86-3.15,10.35c-2.39,10.32-2.45,15.55-1.15,15.55c0.7,0,2.1-1.18,3.7-2.8
		l0.89,1.72c-2.07,2.74-5.07,5.19-8.41,5.19c-2.55,0-3.31-3.22-1.37-11.98l-0.19-0.03c-3.82,7.3-8.09,12.01-12.94,12.01
		c-3.25,0-4.59-2.45-3.22-8.25l3.19-13.51c0.92-3.98,0.41-4.65-0.22-4.65c-0.83,0-2.1,0.86-4.01,2.61l-0.92-1.69
		c1.88-2.58,5.73-5.23,8.73-5.23c1.72,0,2.96,0.8,3.47,2.1l-4.14,17.4c-1.24,5.1-0.54,6.24,0.67,6.24c2.1,0,5.48-3.92,8.7-9.56
		c0.96-1.66,1.31-2.45,1.5-3.5c0.45-2.04,0.86-4.43,2.04-9.27c0.51-2.1,2.45-3.41,6.4-3.22L421.9,464.15z"/>
	<path class="st2" d="M427.13,493.56c1.21-2.8,2.61-7.26,3.76-13c2.01-9.84,1.53-12.87,0.48-12.87c-0.76,0-2.45,1.21-3.79,2.68
		l-1.02-1.66c1.98-2.61,5.13-5.26,8.51-5.26c1.56,0,2.74,0.51,3.31,1.37c-0.13,1.72-1.02,7.74-1.82,10.83l0.16,0.03
		c4.56-8.38,8.67-12.23,13-12.23c3.54,0,4.68,2.74,3.35,7.81l-1.02,3.89l0.19,0.06c3.95-7.3,8.38-11.76,13.09-11.76
		c3.25,0,4.59,2.45,3.38,7.49l-3.38,14.27c-0.96,3.98-0.51,4.75,0.16,4.75c0.83,0,2.07-0.83,4.46-3.15l0.92,1.72
		c-2.39,3.44-5.89,5.64-8.83,5.64c-2.58,0-3.89-1.37-3.31-3.82l3.63-15.68c1.21-5.1,0.61-6.24-0.54-6.24
		c-2.17,0-5.32,3.12-9.37,9.62c-0.61,0.92-0.83,1.4-1.08,2.84c-0.38,2.39-0.89,5.48-2.01,9.97c-0.54,2.1-2.48,3.41-6.44,3.22
		l-0.45-0.51c1.21-2.84,2.45-7.84,3.73-13.51c1.85-8.38,2.13-11.63,0.67-11.63c-2.13,0-6.21,3.98-9.81,10.29
		c-0.48,0.83-0.8,1.66-0.99,2.52c-0.45,2.2-0.86,4.75-2.07,9.62c-0.51,2.1-2.48,3.41-6.44,3.22L427.13,493.56z"/>
	<path class="st2" d="M485.1,491.17l2.36-0.13c2.68-0.13,3.31-0.99,3.95-4.27l5.45-27.15c0.67-3.34,0.38-4.17-2.26-4.3l-2.29-0.1
		l0.45-2.2h16.73l-0.45,2.2l-2.36,0.1c-2.68,0.13-3.31,1.02-3.95,4.3l-5.45,27.15c-0.67,3.34-0.38,4.14,2.26,4.27l2.29,0.13
		l-0.45,2.2h-16.73L485.1,491.17z"/>
	<path class="st2" d="M510.75,487.76l4.43-20.65h-3.92l0.38-1.98l2.36-0.48c1.4-0.25,1.78-0.7,2.04-1.88l0.92-4.49
		c0.41-1.85,1.53-3,3.12-3c1.88,0,2.68,1.27,2.2,3.25l-1.34,5.7h7.9l-0.38,1.94c-0.6,0.76-1.72,0.92-5.45,0.92h-2.68l-3.41,17.68
		c-0.73,3.73-0.29,4.84,1.34,4.84c1.31,0,4.46-2.1,6.47-3.7l0.83,1.75c-3.25,3.85-6.98,6.47-10.45,6.47
		C511.93,494.16,509.83,491.99,510.75,487.76z"/>
	<path class="st2" d="M530.51,479.86c1.94-9.65,8.57-16.41,16.57-16.41c1.4,0,3.28,0.22,4.91,0.57c0.64,0.16,1.15,0.25,1.47,0.25
		c0.61,0,0.89-0.25,1.34-1.4l0.54-1.43l2.45,0.64c-1.05,2.93-2.64,8.12-3.47,11.95l-0.61,2.96c-2.04,9.62-1.59,13.06-0.57,13.06
		c0.67,0,2.07-1.18,3.7-2.8l0.86,1.72c-2.07,2.74-5.07,5.19-8.41,5.19c-2.71,0-3.54-3.03-1.21-13.8l-0.19-0.03
		c-5.03,10.1-9.11,13.83-12.81,13.83C530.54,494.16,528.85,488.01,530.51,479.86z M545.45,480.52c2.42-4.17,3.41-7.04,4.17-9.91
		l0.25-0.96c0.45-1.59-1.69-2.9-4.72-2.9c-4.21,0-7.26,4.11-8.57,10.74c-1.37,6.72-0.73,11.41,1.37,11.41
		C539.62,488.9,542.65,485.34,545.45,480.52z"/>
	<path class="st2" d="M565.59,450.74l10.29-2.49c-1.05,3.41-1.69,5.8-2.9,11.98l-4.97,24.92c-0.8,4.01-0.45,4.81,0.22,4.81
		c0.73,0,2.29-0.92,4.43-3.15l0.92,1.72c-1.94,2.71-5.45,5.64-8.95,5.64c-2.39,0-3.6-1.47-3.03-4.21l6.69-33.13
		c0.32-1.66,0.35-2.42-0.38-3.03l-2.52-2.07L565.59,450.74z"/>
	<path class="st2" d="M582.58,494.16c-2.42,0-3.63-1.56-3.12-3.98l3.6-17.65c0.8-3.95,0.61-4.87-0.1-4.87
		c-0.73,0-1.82,0.64-4.4,3.15l-0.92-1.72c2.2-3.09,5.77-5.64,8.79-5.64c1.53,0,3.19,0.64,3.54,2.04l-4.05,19.66
		c-0.83,4.01-0.38,4.81,0.25,4.81c0.8,0,2.26-1.02,4.4-3.15l0.99,1.69C589.62,491.17,586.05,494.16,582.58,494.16z M585.38,453.89
		c0.41-1.88,1.91-3.12,3.82-3.12c2.2,0,3.54,1.72,3.15,4.08c-0.35,2.01-1.85,3.38-3.85,3.38
		C586.27,458.22,584.84,456.31,585.38,453.89z"/>
	<path class="st2" d="M596.22,478.74c1.98-9.49,8.89-15.29,15.9-15.29c3.22,0,5.8,1.47,5.35,3.54c-0.32,1.56-2.01,3.09-2.74,3.15
		c-2.13-1.72-3.85-2.77-5.7-2.77c-3.95,0-6.08,6.56-6.72,9.59c-1.43,6.98-0.45,12.55,3.19,12.55c1.78,0,4.59-1.37,8.67-3.92
		l0.99,1.62c-3.89,4.4-8.95,6.95-12.33,6.95C597.3,494.16,594.34,487.66,596.22,478.74z"/>
</g>
<g>
	<path class="st2" d="M191.51,550.38c0-13.67,9.4-22.4,24.25-22.4c5.23,0,8.92,1.18,11.72,1.15l1.56,11.21h-3.22l-0.76-1.91
		c-1.88-5.03-5.42-6.82-10.35-6.82c-9.21,0-14.05,6.53-14.05,18c0,10.87,4.62,17.36,14.4,17.36c5.19,0,6.47-1.15,6.47-4.14v-5.8
		c0-3.19-0.57-3.63-4.36-3.57l-5.32,0.06v-3.73h18.38c-0.41,2.29-0.83,4.78-0.83,10.58v7.77c-5.16,1.47-10.86,2.42-16.31,2.42
		C199.7,570.58,191.51,563.51,191.51,550.38z"/>
	<path class="st2" d="M251.55,566.18c-3.73,3.03-6.21,4.17-8.54,4.17c-4.27,0-7.84-3.54-7.81-8.41c0-2.42,0.86-4.08,2.29-4.94
		c1.47-0.89,4.75-2.1,13.83-3.47l0.03-4.52c0-3.76-1.24-5.26-4.17-5.26c-1.5,0-2.58,0.42-3.09,0.99c-0.38,0.45-0.32,0.96-0.03,2.9
		c-1.11,0.92-3.22,1.78-4.87,1.78c-1.59,0-2.55-0.86-2.55-2.17c0-3.41,7.77-7.26,15.17-7.26c5.38,0,7.36,2.58,7.26,7.52l-0.25,12.3
		c-0.1,4.24,0.57,5.77,1.91,5.77c0.57,0,1.66-0.42,2.52-0.89l0.57,2.52c-2.84,1.98-5.77,3.12-7.77,3.12c-2.23,0-3.79-1.27-4.33-4.14
		H251.55z M251.32,556.88c-2.42,0.1-5.51,0.89-6.88,1.43c-1.05,0.45-1.47,1.37-1.47,2.52c0,2.55,1.91,4.81,3.95,4.81
		c1.02,0,2.61-0.64,4.36-1.91L251.32,556.88z"/>
	<path class="st2" d="M268.41,569.53c0.35-1.91,0.64-3.73,0.64-9.56v-25.93c0-1.91-0.22-2.74-1.15-3.41l-2.52-1.94v-1.56l12.01-2.83
		c-0.41,2.52-0.67,5.7-0.67,9.43v5.19c0,2.1-0.1,3.73-0.22,5.26l0.1,0.03l0.86-0.67c2.74-2.13,5.83-3.54,8.76-3.54
		c6.72,0,11.53,5.26,11.53,13.32c0,9.37-7.2,16.5-19.72,16.5c-1.82,0-5.26-0.16-8.16-0.25L268.41,569.53z M276.72,560.92
		c0,3.82,1.37,5.32,4.65,5.32c4.65,0,8.41-3.98,8.41-11.09c0-5.93-2.87-9.81-8.16-9.81c-1.5,0-3.35,0.48-4.91,1.31V560.92z"/>
	<path class="st2" d="M303.24,530.63l-2.52-1.94v-1.56l12.04-2.83c-0.41,2.52-0.7,5.7-0.7,9.43v30.08c0,2.23,0.38,2.96,2.39,3.06
		l1.88,0.13v2.55h-16.22v-2.55l1.88-0.13c2.01-0.09,2.39-0.83,2.39-3.06v-29.76C304.38,532.12,304.13,531.29,303.24,530.63z"/>
	<path class="st2" d="M333.64,539.99c5.1,0,8.57,3.15,10.13,8.06c0.51,1.59,1.02,2.39,1.59,2.71l-0.51,1.59
		c-6.88,0.54-12.39,0.67-18.54,0.57c-0.03,0.25-0.03,0.67-0.03,0.96c0.19,6.09,3.66,10.96,10.07,10.96c2.36,0,5.93-1.05,8.09-1.91
		l0.48,1.94c-4.21,3.34-8.25,5.48-12.78,5.48c-7.46,0-13.45-5.38-13.45-13.99C318.69,546.94,325.99,539.99,333.64,539.99z
		 M337.91,549.45c-0.89-3.95-3.15-6.08-5.77-6.08c-2.93,0-4.94,2.68-5.61,6.82L337.91,549.45z"/>
	<path class="st2" d="M369.23,565.8c-3.54,2.96-7.33,4.56-10.83,4.56c-4.43,0-7.1-2.55-7.04-7.65l0.16-15.74
		c0.03-1.85-0.1-2.52-1.27-2.96l-2.17-0.83c0-0.03,0-1.59,0-1.59l10.99-6.56l-0.22,5.8h9.59l-0.22,2.33
		c-0.45,0.86-1.94,1.34-5.26,1.34h-3.92v16.28c0,3.09,1.4,4.37,3.85,4.37c1.72,0,3.98-0.54,5.93-1.27L369.23,565.8z"/>
	<path class="st2" d="M383.92,569.53v-2.68l2.52-0.19c2.42-0.16,2.93-1.08,2.93-3.63v-27.5c0-2.55-0.51-3.47-2.93-3.63l-2.52-0.16
		v-2.71h8.79c4.68,0,7.97-0.13,12.3-0.13c7.9,0,11.21,3.44,11.21,8.76c0,4.68-3.47,8.92-8.76,10.2v0.16
		c7.61,0.83,11.6,4.43,11.6,10.13c0,7.74-5.61,11.37-18.22,11.37H383.92z M397.78,546.46c1.37,0.1,3.12,0.19,4.43,0.19
		c2.36,0,5.86-2.1,5.86-7.65c0-4.84-1.91-6.34-7.39-6.34c-0.86,0-1.85,0.03-2.9,0.1V546.46z M397.78,562.23c0,2.84,0.83,3.6,4.3,3.6
		c5.67,0,8.38-2.42,8.38-7.71c0-4.94-3.7-7.9-9.78-7.9c-0.7,0-1.85,0-2.9,0.1V562.23z"/>
	<path class="st2" d="M423.73,556.37c0-9.3,6.82-16.38,16.28-16.38c8.86,0,14.85,5.93,14.85,14.15c0,9.27-6.88,16.22-16.41,16.22
		C429.65,570.35,423.73,564.46,423.73,556.37z M446.28,555.48c0-6.82-2.93-12.14-7.17-12.14c-4.08,0-6.85,4.97-6.85,11.53
		c0,6.85,3,12.11,7.2,12.11C443.54,566.98,446.28,562.2,446.28,555.48z"/>
	<path class="st2" d="M460.53,530.63l-2.52-1.94v-1.56l12.04-2.83c-0.41,2.52-0.7,5.7-0.7,9.43v30.08c0,2.23,0.38,2.96,2.39,3.06
		l1.88,0.13v2.55h-16.22v-2.55l1.88-0.13c2.01-0.09,2.39-0.83,2.39-3.06v-29.76C461.68,532.12,461.42,531.29,460.53,530.63z"/>
	<path class="st2" d="M497.75,534.03c0-1.94-0.25-2.74-1.15-3.41l-2.52-1.94v-1.59l12.01-2.83c-0.41,2.55-0.67,5.73-0.67,9.43v28.32
		c0,3.15,0.45,4.24,2.04,4.24c0.41,0,1.27-0.1,1.82-0.19l0.16,2.58l-11.28,1.82l-0.19-4.27l-0.13-0.03l-1.18,0.83
		c-3.12,2.26-5.73,3.38-8.32,3.38c-7.04,0-12.33-5.61-12.33-14.05c0-9.59,7.42-16.31,17.11-16.31c1.66,0,3.22,0.1,4.62,0.51V534.03z
		 M497.75,547.96c0-3.06-2.2-4.65-5.45-4.65c-5.03,0-8.32,4.08-8.32,10.9c0,6.63,3.44,10.8,8.83,10.8c1.21,0,2.93-0.35,4.94-1.34
		V547.96z"/>
</g>
<g>
	<path class="st2" d="M154.54,604.14c5.67,0,9.65,1.27,12.62,1.69l0.16,11.76h-3.22l-0.41-2.49c-0.96-5.29-4.75-7.52-9.88-7.52
		c-6.4,0-11.98,5.51-13.89,15.07c-2.26,11.25,1.02,20.39,10.07,20.39c4.72,0,6.12-1.12,6.63-3.79l1.21-5.93
		c0.67-3.44,0.19-3.92-3.22-3.82l-5.32,0.1l0.73-3.66h17.36c-0.8,2.17-1.62,5.23-2.77,10.8l-1.5,7.46
		c-4.65,1.4-9.21,2.55-14.05,2.55c-14.18,0-21.22-9.69-18.42-23.54C133.13,610.71,142.02,604.14,154.54,604.14z"/>
	<path class="st2" d="M171.79,631.76c1.94-9.65,8.54-16.28,17.43-16.28c1.72,0,3.95,0.29,5.89,0.83c0.64,0.16,1.02,0.25,1.34,0.25
		c0.61,0,0.83-0.25,1.21-1.34l0.51-1.56l2.93,0.64c-1.08,3.12-2.33,7.17-3.09,10.74l-0.86,4.01c-1.91,8.95-1.69,12.46-0.51,12.46
		c0.73,0,1.94-0.92,4.27-3.03l0.86,2.13c-2.58,3.5-5.99,5.89-9.56,5.89c-3.54,0-4.94-2.64-2.23-13.45l-0.25-0.06
		c-4.65,9.53-8.95,13.51-12.94,13.51C172.07,646.52,170.07,640.34,171.79,631.76z M186.92,633.26c2.29-3.79,3.47-6.91,4.43-10.23
		l0.25-0.96c0.48-1.62-1.56-2.96-4.52-2.96c-3.76,0-6.24,3.44-7.55,9.91c-1.43,7.01-0.54,11.02,1.24,11.02
		C182.14,640.05,184.47,637.37,186.92,633.26z"/>
	<path class="st2" d="M211.14,609.18c0.29-1.47,0.29-2.29-0.51-2.84l-2.48-1.78l0.29-1.53l12.04-2.52
		c-0.89,3.25-1.37,5.32-2.39,9.97l-0.61,2.74c-1.21,5.77-1.91,9.02-2.93,12.74l0.25,0.1c3.35-6.66,6.63-10.58,11.44-10.58
		c5.03,0,7.65,4.68,5.93,13.19c-2.23,11.25-10.61,17.84-18.45,17.84c-2.84,0-6.37-0.83-9.65-2.04L211.14,609.18z M224.52,631.19
		c1.15-5.64,0.54-9.14-1.98-9.14c-2.01,0-4.43,2.55-6.5,6.5c-1.72,3.25-2.84,6.59-3.76,11.37c-0.32,1.78,1.37,2.87,3.79,2.87
		C220.09,642.79,223.22,637.66,224.52,631.19z"/>
	<path class="st2" d="M239.66,603.03l11.98-2.52c-0.92,3.25-1.5,5.38-2.39,10.04l-5.07,25.36c-0.92,4.65-0.64,5.58,0.06,5.58
		c0.67,0,2.23-0.96,4.49-3.22l0.86,2.1c-2.58,3.63-6.18,6.15-9.78,6.15c-3.06,0.03-4.75-1.78-4.11-4.81l6.63-32.53
		c0.29-1.47,0.29-2.29-0.51-2.84l-2.45-1.78L239.66,603.03z"/>
	<path class="st2" d="M253.14,630.68c1.78-9.14,8.57-15.2,16.19-15.2c5.03,0,7.68,3.19,6.98,6.66c-0.73,3.63-3.95,6.18-11.18,7.93
		l-4.59,1.15c-0.57,6.25,0.86,9.78,3.7,9.78c1.75,0,5.64-1.78,9.24-4.14l1.08,2.01c-4.87,4.81-9.97,7.65-13.73,7.65
		C254.7,646.52,251.36,639.83,253.14,630.68z M263.94,627.37c3.57-0.99,5.77-2.84,6.18-5c0.35-1.88-0.83-3.44-2.48-3.44
		c-2.23,0-5.42,2.49-6.63,8.83c0,0.13-0.03,0.29-0.06,0.41L263.94,627.37z"/>
	<path class="st2" d="M279.81,639.57l4.4-19.79h-4.01l0.51-2.58l2.45-0.45c1.37-0.25,1.69-0.57,1.94-1.62l0.92-4.11
		c0.48-2.2,1.88-3.54,3.95-3.54c2.39,0,3.5,1.59,2.93,4.05l-1.11,4.78h7.39l-0.45,2.42c-0.6,0.83-1.98,1.05-5.45,1.05h-2.2
		l-3.19,16.06c-0.8,3.98-0.54,5.26,0.83,5.26c1.43,0,4.46-2.1,6.66-3.82l0.96,2.1c-3.19,4.17-7.3,7.14-11.57,7.14
		C280.93,646.52,278.76,644.29,279.81,639.57z"/>
	<path class="st2" d="M308.4,645.69l0.51-2.55l2.42-0.13c2.33-0.13,2.93-0.99,3.47-3.66l5.58-27.81c0.54-2.71,0.22-3.54-2.04-3.66
		l-2.36-0.13l0.51-2.55h7.77c3.85,0,6.72-0.13,10.71-0.13c7.52,0,10.86,3.86,9.72,9.56c-0.96,4.94-4.87,8.35-9.78,9.53v0.19
		c6.4,0.92,9.69,4.88,8.54,10.61c-1.43,7.2-7.14,10.74-18,10.74H308.4z M335,634.6c1.15-5.61-1.69-8.28-7.26-8.28
		c-0.67,0-1.53,0.03-2.52,0.13l-2.33,11.66c-0.64,3.15,0.03,4.17,3.31,4.17C331.34,642.28,334.01,639.51,335,634.6z M325.98,622.72
		l3.73,0.25c2.13,0.16,5.86-1.78,6.95-7.14c0.92-4.62-0.67-7.17-5.89-7.17c-0.61,0-1.27,0.03-1.98,0.1L325.98,622.72z"/>
	<path class="st2" d="M348.65,630.17c1.78-8.83,8.28-14.69,15.87-14.69c8.86,0,12.78,7.42,10.99,16.34
		c-1.78,8.86-8.25,14.69-15.83,14.69C350.78,646.52,346.86,639.06,348.65,630.17z M367.41,631.92c1.05-6.44,0.76-13.09-3.31-13.09
		c-3.06,0-6.21,4.72-7.39,11.53c-1.08,6.5-0.57,12.81,3.63,12.81C363.17,643.17,366.26,638.55,367.41,631.92z"/>
	<path class="st2" d="M383.35,603.03l11.98-2.52c-0.92,3.25-1.5,5.38-2.39,10.04l-5.07,25.36c-0.92,4.65-0.64,5.58,0.06,5.58
		c0.67,0,2.23-0.96,4.49-3.22l0.86,2.1c-2.58,3.63-6.18,6.15-9.78,6.15c-3.06,0.03-4.75-1.78-4.11-4.81l6.63-32.53
		c0.29-1.47,0.29-2.29-0.51-2.84l-2.45-1.78L383.35,603.03z"/>
	<path class="st2" d="M423.18,625.01c-2.64,12.01-2.71,16.5-1.37,16.5c0.73,0,1.94-0.92,4.27-3.03l0.86,2.13
		c-2.58,3.5-5.99,5.89-9.56,5.89c-3.54,0-4.97-2.96-2.23-13.45l-0.25-0.06c-4.65,9.53-8.95,13.51-12.94,13.51
		c-4.72,0-6.72-6.18-5-14.75c1.94-9.65,8.54-16.28,17.43-16.28c1.24,0,2.84,0.19,4.01,0.45l1.21-6.82c0.29-1.53,0.16-2.29-0.57-2.83
		l-2.45-1.78l0.29-1.53l12.33-2.52c-1.4,4.43-2.49,8.57-4.65,18.29L423.18,625.01z M412.09,633.26c2.29-3.79,3.47-6.91,4.43-10.23
		l0.25-0.96c0.48-1.62-1.56-2.96-4.52-2.96c-3.76,0-6.24,3.44-7.55,9.91c-1.43,7.01-0.54,11.02,1.24,11.02
		C407.31,640.05,409.63,637.37,412.09,633.26z"/>
	<path class="st2" d="M439.21,643.14l2.42-0.13c2.33-0.13,2.93-0.99,3.47-3.66l5.58-27.81c0.54-2.71,0.22-3.54-2.04-3.66l-2.36-0.13
		l0.51-2.55h18.13l-0.51,2.55l-2.42,0.13c-2.33,0.13-2.93,0.99-3.47,3.66l-5.58,27.81c-0.54,2.74-0.22,3.54,2.04,3.66l2.36,0.13
		l-0.51,2.55H438.7L439.21,643.14z"/>
	<path class="st2" d="M465.47,639.57l4.4-19.79h-4.01l0.51-2.58l2.45-0.45c1.37-0.25,1.69-0.57,1.94-1.62l0.92-4.11
		c0.48-2.2,1.88-3.54,3.95-3.54c2.39,0,3.5,1.59,2.93,4.05l-1.12,4.78h7.39l-0.45,2.42c-0.61,0.83-1.98,1.05-5.45,1.05h-2.2
		l-3.19,16.06c-0.8,3.98-0.54,5.26,0.83,5.26c1.43,0,4.46-2.1,6.66-3.82l0.96,2.1c-3.19,4.17-7.3,7.14-11.56,7.14
		C466.58,646.52,464.42,644.29,465.47,639.57z"/>
	<path class="st2" d="M486.02,631.76c1.94-9.65,8.54-16.28,17.43-16.28c1.72,0,3.95,0.29,5.89,0.83c0.64,0.16,1.02,0.25,1.34,0.25
		c0.61,0,0.83-0.25,1.21-1.34l0.51-1.56l2.93,0.64c-1.08,3.12-2.33,7.17-3.09,10.74l-0.86,4.01c-1.91,8.95-1.69,12.46-0.51,12.46
		c0.73,0,1.94-0.92,4.27-3.03l0.86,2.13c-2.58,3.5-5.99,5.89-9.56,5.89c-3.54,0-4.94-2.64-2.23-13.45l-0.25-0.06
		c-4.65,9.53-8.95,13.51-12.94,13.51C486.31,646.52,484.3,640.34,486.02,631.76z M501.15,633.26c2.29-3.79,3.47-6.91,4.43-10.23
		l0.25-0.96c0.48-1.62-1.56-2.96-4.52-2.96c-3.76,0-6.24,3.44-7.55,9.91c-1.43,7.01-0.54,11.02,1.24,11.02
		C496.38,640.05,498.7,637.37,501.15,633.26z"/>
	<path class="st2" d="M522.76,603.03l11.98-2.52c-0.92,3.25-1.5,5.38-2.39,10.04l-5.07,25.36c-0.92,4.65-0.64,5.58,0.06,5.58
		c0.67,0,2.23-0.96,4.49-3.22l0.86,2.1c-2.58,3.63-6.18,6.15-9.78,6.15c-3.06,0.03-4.75-1.78-4.11-4.81l6.63-32.53
		c0.29-1.47,0.29-2.29-0.51-2.84l-2.45-1.78L522.76,603.03z"/>
	<path class="st2" d="M537.9,641.83l3.22-15.67c0.96-4.65,0.73-5.64,0.03-5.64c-0.73,0-2.07,0.89-4.52,3.22l-0.86-2.1
		c2.39-3.35,6.15-6.15,9.62-6.15c2.23,0,4.21,1.02,4.62,2.87l-3.63,17.55c-0.96,4.65-0.6,5.58,0.1,5.58c0.73,0,2.13-0.92,4.46-3.22
		l0.92,2.1c-2.45,3.41-6.08,6.15-9.81,6.15C538.95,646.55,537.32,644.67,537.9,641.83z M544.02,605.93
		c0.48-2.26,2.23-3.89,4.59-3.89c2.58,0,4.17,2.04,3.63,4.87c-0.45,2.33-2.2,3.98-4.59,3.98
		C544.97,610.9,543.47,608.6,544.02,605.93z"/>
	<path class="st2" d="M555.78,630.43c2.1-9.43,9.3-14.94,16.6-14.94c4.11,0,6.95,1.78,6.37,4.24c-0.38,1.62-2.07,3.19-3.5,3.41
		c-2.84-2.45-4.52-3.41-5.93-3.41c-3.22,0-5,5.93-5.51,8.32c-1.53,6.91-0.41,12.97,3.28,12.97c1.72,0,4.84-1.53,8.73-4.01l1.12,1.98
		c-4.24,4.75-9.56,7.55-13.54,7.55C557.43,646.52,553.61,639.95,555.78,630.43z"/>
</g>
<g>
	<path class="st2" d="M175.83,702.73c0-14.15,9.78-22.65,24.6-22.65c5.42,0,9.05,1.21,11.98,1.24l1.53,11.88h-3.66l-0.92-2.13
		c-2.04-4.68-4.94-6.75-9.91-6.75c-8.09,0-12.49,6.05-12.49,17.59c0,11.09,4.11,16.82,12.78,16.82c3.92,0,5.23-1.08,5.23-3.89v-5.32
		c0-3.25-0.7-3.7-4.68-3.63l-3.82,0.06v-4.27h18.77c-0.41,2.23-0.73,5.03-0.73,10.67v7.93c-6.15,1.66-12.46,2.71-17.78,2.71
		C183.9,723,175.83,716.27,175.83,702.73z"/>
	<path class="st2" d="M236.28,718.22c-3.54,3.09-6.5,4.52-9.18,4.52c-4.01,0-7.9-3.38-7.87-8.89c0-2.45,0.73-4.3,2.45-5.29
		c1.69-0.96,5.16-2.04,14.21-3.44v-4.27c0-3.09-1.12-4.52-3.89-4.52c-1.31,0-2.39,0.38-2.87,0.96c-0.38,0.48-0.29,1.02-0.03,3.06
		c-1.05,0.92-3.41,1.91-5.38,1.91c-1.88,0-3-0.92-3-2.49c0-3.79,8.63-7.68,16.66-7.68c6.02,0,7.97,2.9,7.87,8.12l-0.22,11.69
		c-0.06,3.57,0.54,5.23,1.66,5.23c0.48,0,1.53-0.42,2.52-0.96l0.54,3c-2.9,2.23-6.21,3.5-8.57,3.5c-2.42,0-4.11-1.21-4.75-4.46
		H236.28z M235.9,708.95c-2.77,0.1-5.03,0.8-6.02,1.27c-0.89,0.45-1.21,1.47-1.21,2.52c0,2.33,1.62,4.52,3.44,4.52
		c0.89,0,2.36-0.73,3.79-1.85V708.95z"/>
	<path class="st2" d="M253.94,721.85c0.35-2.17,0.61-3.92,0.61-8.6V686.8c0-2.1-0.25-2.93-1.24-3.66l-2.36-1.78v-1.98l13.73-2.77
		c-0.45,1.79-0.8,5.51-0.8,9.65v3.79c0,2.01-0.1,4.21-0.19,5.99l0.1,0.03l0.83-0.61c2.8-2.13,5.83-3.38,8.6-3.38
		c7.04,0,11.85,5.35,11.85,13.32c0,9.72-7.49,16.73-20.93,16.73c-1.5,0-5.54-0.1-8.79-0.22L253.94,721.85z M263.88,713.22
		c0,3.34,1.27,4.84,3.98,4.84c3.7,0,7.33-3.22,7.33-10.26c0-5.83-2.74-9.62-7.58-9.62c-1.15,0-2.48,0.29-3.73,0.8V713.22z"/>
	<path class="st2" d="M289.73,683.14l-2.39-1.78v-1.98l13.76-2.77c-0.41,1.79-0.8,5.51-0.8,9.65v29.82c0,2.04,0.38,2.58,2.17,2.71
		l1.88,0.13v2.93h-17.43v-2.93l1.88-0.13c1.78-0.13,2.17-0.67,2.17-2.71V686.8C290.97,684.7,290.68,683.87,289.73,683.14z"/>
	<path class="st2" d="M321.97,692.09c5.1,0,8.63,2.96,10.39,8.32c0.57,1.78,1.18,2.61,1.72,2.93l-0.67,1.85
		c-7.07,0.61-12.17,0.76-18.06,0.7v0.13c0.32,5.83,3.76,10.2,9.84,10.2c2.45,0,5.83-1.08,7.96-2.01l0.48,2.2
		c-4.01,3.76-8.48,6.34-13.73,6.34c-8.06,0-13.7-5.8-13.7-14.37C306.2,698.81,314.1,692.09,321.97,692.09z M325.7,701.87
		c-0.8-3.92-2.71-5.93-5.29-5.93c-2.87,0-4.59,2.61-5,6.82L325.7,701.87z"/>
	<path class="st2" d="M358.94,717.29c-3.66,3.66-7.61,5.45-11.98,5.45c-4.84,0-7.71-3-7.65-8.38l0.16-14.43
		c0.03-1.78-0.13-2.71-1.27-3.15l-2.36-0.92c0-0.06,0-2.01,0-2.01l12.87-6.79l-0.25,5.93h9.46l-0.29,2.93
		c-0.45,0.86-1.94,1.34-5.26,1.34h-3.73v15.01c0,2.87,1.4,4.27,4.01,4.27c1.85,0,3.76-0.51,5.83-1.43L358.94,717.29z"/>
	<path class="st2" d="M372.39,721.85v-3.06l2.58-0.22c2.04-0.19,2.55-0.89,2.55-3V687.5c0-2.1-0.51-2.8-2.55-2.99l-2.58-0.22v-3.06
		h8.98c5.54,0,8.63-0.22,13.6-0.22c8.76,0,11.63,3.66,11.63,9.11c0,4.78-3.7,9.11-8.76,10.29v0.25c7.17,0.61,11.28,4.14,11.28,9.69
		c0,8.19-5.96,11.5-17.84,11.5H372.39z M387.84,698.46c1.21,0.16,2.93,0.29,3.85,0.29c2.23,0,5-2.26,5-7.14
		c0-4.81-1.4-6.15-5.67-6.15c-0.92,0-1.98,0.06-3.19,0.16V698.46z M387.84,714.84c0,2.1,0.86,2.64,3.63,2.64c5,0,7.1-2.1,7.1-7.58
		c0-4.46-3.12-7.04-8.63-7.04c-0.51,0-1.24,0.03-2.1,0.09V714.84z"/>
	<path class="st2" d="M414.77,683.14l-2.39-1.78v-1.98l13.76-2.77c-0.41,1.79-0.8,5.51-0.8,9.65v29.82c0,2.04,0.38,2.58,2.17,2.71
		l1.88,0.13v2.93h-17.43v-2.93l1.88-0.13c1.78-0.13,2.17-0.67,2.17-2.71V686.8C416.01,684.7,415.73,683.87,414.77,683.14z"/>
	<path class="st2" d="M448.64,718.22c-3.54,3.09-6.5,4.52-9.18,4.52c-4.01,0-7.9-3.38-7.87-8.89c0-2.45,0.73-4.3,2.45-5.29
		c1.69-0.96,5.16-2.04,14.21-3.44v-4.27c0-3.09-1.12-4.52-3.89-4.52c-1.31,0-2.39,0.38-2.87,0.96c-0.38,0.48-0.29,1.02-0.03,3.06
		c-1.05,0.92-3.41,1.91-5.38,1.91c-1.88,0-3-0.92-3-2.49c0-3.79,8.63-7.68,16.66-7.68c6.02,0,7.97,2.9,7.87,8.12l-0.22,11.69
		c-0.06,3.57,0.54,5.23,1.66,5.23c0.48,0,1.53-0.42,2.52-0.96l0.54,3c-2.9,2.23-6.21,3.5-8.57,3.5c-2.42,0-4.11-1.21-4.75-4.46
		H448.64z M448.26,708.95c-2.77,0.1-5.03,0.8-6.02,1.27c-0.89,0.45-1.21,1.47-1.21,2.52c0,2.33,1.62,4.52,3.44,4.52
		c0.89,0,2.36-0.73,3.79-1.85V708.95z"/>
	<path class="st2" d="M481.37,692.09c4.78,0,8.57,2.23,8.57,4.72c0,1.47-1.98,3.85-3.86,4.21l-2.74-1.62
		c-3.12-2.01-4.65-2.52-6.09-2.52c-2.64,0-4.52,2.9-4.59,7.93c-0.16,7.07,3.98,11.41,9.3,11.41c2.58,0,5.32-0.86,7.39-1.82
		l0.92,2.01c-3.86,3.76-8.16,6.34-13.25,6.34c-7.74,0-13.48-5.89-13.48-14.08C463.56,698.75,472.03,692.09,481.37,692.09z"/>
	<path class="st2" d="M491.41,718.92l1.88-0.13c1.78-0.13,2.17-0.67,2.17-2.71V686.8c0-2.1-0.29-2.93-1.24-3.66l-2.39-1.78v-1.98
		l13.8-2.77c-0.45,1.79-0.83,5.51-0.83,9.65v17.27c0.64,0.25,1.15,0.38,1.82,0.38c0.61,0,1.15-0.29,1.88-0.86
		c3.95-3.12,5.32-4.81,5.32-5.77c0-0.64-0.45-1.02-1.37-1.15l-1.62-0.22v-2.93h14.59v2.93c-2.84,0.03-5,1.27-8.67,4.52l-3.12,2.8
		l6.66,10.07c2.68,4.01,4.05,5.45,5.77,5.96l-0.32,2.58h-7.68c-3.6,0-4.87-1.62-6.56-4.68l-5.29-9.59c-0.48-0.86-0.7-0.99-1.24-0.99
		h-0.16v9.49c0,2.04,0.38,2.58,2.17,2.71l1.88,0.13v2.93h-17.43V718.92z"/>
</g>
<g>
	<path class="st2" d="M131.98,756.24c6.18,0,10.13,1.27,13.22,1.69l0.03,12.68h-3.7l-0.54-2.58c-1.21-5.77-4.43-7.71-9.11-7.71
		c-6.15,0-11.12,5.86-12.94,14.91c-2.2,10.99,1.15,19.59,8.7,19.59c3.47,0,4.36-1.08,4.78-3.19l1.21-5.99
		c0.7-3.44,0.06-3.95-4.01-3.82l-3.25,0.1l0.83-4.08h18c-0.83,2.2-1.66,4.94-2.77,10.51l-1.59,8.03c-5.13,1.5-9.46,2.77-14.5,2.77
		c-14.18,0-21.79-9.37-18.96-23.48C109.93,762.9,119.05,756.24,131.98,756.24z"/>
	<path class="st2" d="M148.81,783.68c1.91-9.65,8.47-16.19,18.26-16.19c2.04,0,4.62,0.41,6.91,1.12c0.57,0.16,0.86,0.25,1.18,0.25
		c0.57,0,0.76-0.22,1.05-1.27l0.51-1.72l3.38,0.67c-1.08,3.35-1.94,6.18-2.68,9.53l-1.08,5.07c-1.82,8.28-1.82,11.85-0.48,11.85
		c0.8,0,1.78-0.7,4.84-3.25l0.83,2.52c-3.09,4.3-6.88,6.66-10.71,6.66c-4.36,0-6.31-2.29-3.22-13.13l-0.35-0.06
		c-4.27,8.92-8.76,13.19-13,13.19C149.29,798.9,147,792.66,148.81,783.68z M164.14,786c2.13-3.41,3.5-6.79,4.62-10.54l0.29-0.96
		c0.51-1.66-1.47-3.03-4.3-3.03c-3.35,0-5.29,2.77-6.56,9.08c-1.5,7.3-0.32,10.61,1.15,10.61C160.38,791.16,162,789.41,164.14,786z"
		/>
	<path class="st2" d="M189.92,761.5c0.25-1.21,0.22-2.1-0.64-2.61l-2.48-1.5l0.41-2.04l13.8-2.58c-0.83,3.12-1.27,4.94-1.94,8.09
		l-0.41,1.98c-1.43,6.88-2.1,9.97-3.31,14.31l0.35,0.13c2.77-5.73,5.89-9.78,11.02-9.78c5.26,0,8.19,4.75,6.37,13.89
		c-2.36,11.79-11.85,17.52-19.5,17.52c-3.38,0-7.52-1.12-10.67-2.39L189.92,761.5z M203.84,783.87c1.15-5.64,0.57-8.54-1.66-8.54
		c-1.69,0-3.98,2.42-5.73,5.96c-1.27,2.58-2.42,6.08-3.38,10.61c-0.38,1.82,1.21,2.87,3.09,2.87
		C199.51,794.76,202.47,790.56,203.84,783.87z"/>
	<path class="st2" d="M220.1,755.35l13.67-2.58c-0.83,3.12-1.31,4.97-1.91,8.09l-5.13,25.78c-1.05,5.35-0.83,6.34-0.1,6.34
		c0.64,0,2.17-0.96,4.56-3.25l0.83,2.52c-2.58,3.6-6.24,6.66-10.71,6.66c-3.73,0-5.8-2.17-5.13-5.45l6.56-31.96
		c0.25-1.21,0.25-2.1-0.61-2.61l-2.45-1.5L220.1,755.35z"/>
	<path class="st2" d="M234.76,782.62c1.78-9.11,8.44-15.13,16.66-15.13c5.99,0,8.86,3.5,8.16,6.98c-0.73,3.66-3.86,6.44-11.66,8.22
		l-3.95,0.92c-0.38,5.83,1.12,8.89,3.79,8.89c1.75,0,5.13-1.43,9.62-4.33l1.18,2.39c-5.89,5.77-10.86,8.35-15.04,8.35
		C236.83,798.9,232.81,792.28,234.76,782.62z M246.64,779.69c3.06-0.73,5.16-2.58,5.61-4.84c0.38-1.88-0.67-3.44-2.29-3.44
		c-1.82,0-4.36,1.91-5.48,8.16c-0.03,0.22-0.06,0.48-0.13,0.7L246.64,779.69z"/>
	<path class="st2" d="M263.37,791.39l4.33-18.92h-4.08l0.61-3.19l2.55-0.41c1.31-0.22,1.62-0.48,1.85-1.4l0.89-3.7
		c0.6-2.55,2.26-4.08,4.84-4.08c2.87,0,4.3,1.91,3.63,4.84l-0.89,3.86h6.91l-0.54,2.9c-0.61,0.86-2.23,1.18-5.48,1.18h-1.69
		l-2.96,14.43c-0.86,4.24-0.76,5.67,0.32,5.67c1.59,0,4.46-2.1,6.88-3.95l1.05,2.45c-3.12,4.49-7.58,7.84-12.68,7.84
		C264.42,798.9,262.16,796.58,263.37,791.39z"/>
	<path class="st2" d="M291.41,798.01l0.57-2.87l2.52-0.16c1.98-0.13,2.58-0.96,3-3.06l5.7-28.45c0.41-2.1,0.06-2.93-1.85-3.06
		l-2.39-0.16l0.57-2.87h9.24c3.82,0,7.68-0.16,11.5-0.16c7.74,0,10.77,3.79,9.65,9.37c-1.02,5.26-5.32,8.73-10.39,9.84l-0.03,0.25
		c6.44,0.96,9.97,4.97,8.83,10.61c-1.5,7.58-7.9,10.71-19.18,10.71H291.41z M317.7,786.41c1.05-5.26-1.21-7.52-6.21-7.52
		c-0.45,0-0.86,0.03-1.59,0.1l-2.23,11.21c-0.54,2.77,0.19,3.89,2.8,3.89C314.32,794.09,316.65,791.48,317.7,786.41z M310.72,774.82
		l2.93,0.35c2.1,0.22,5.1-1.98,6.05-6.79c0.92-4.56,0-6.98-4.78-6.98c-0.48,0-0.99,0-1.56,0.06L310.72,774.82z"/>
	<path class="st2" d="M336.69,755.35l13.67-2.58c-0.83,3.12-1.31,4.97-1.91,8.09l-5.13,25.78c-1.05,5.35-0.83,6.34-0.1,6.34
		c0.64,0,2.17-0.96,4.56-3.25l0.83,2.52c-2.58,3.6-6.25,6.66-10.71,6.66c-3.73,0-5.8-2.17-5.13-5.45l6.56-31.96
		c0.25-1.21,0.25-2.1-0.61-2.61l-2.45-1.5L336.69,755.35z"/>
	<path class="st2" d="M351.48,783.68c1.91-9.65,8.47-16.19,18.26-16.19c2.04,0,4.62,0.41,6.91,1.12c0.57,0.16,0.86,0.25,1.18,0.25
		c0.57,0,0.76-0.22,1.05-1.27l0.51-1.72l3.38,0.67c-1.08,3.35-1.94,6.18-2.68,9.53l-1.08,5.07c-1.82,8.28-1.82,11.85-0.48,11.85
		c0.8,0,1.78-0.7,4.84-3.25l0.83,2.52c-3.09,4.3-6.88,6.66-10.71,6.66c-4.37,0-6.31-2.29-3.22-13.13l-0.35-0.06
		c-4.27,8.92-8.76,13.19-13,13.19C351.96,798.9,349.67,792.66,351.48,783.68z M366.81,786c2.13-3.41,3.5-6.79,4.62-10.54l0.29-0.96
		c0.51-1.66-1.47-3.03-4.3-3.03c-3.35,0-5.29,2.77-6.56,9.08c-1.5,7.3-0.32,10.61,1.15,10.61
		C363.05,791.16,364.67,789.41,366.81,786z"/>
	<path class="st2" d="M386.6,782.11c2.23-9.37,9.72-14.62,17.3-14.62c4.97,0,8.06,2.13,7.36,4.97c-0.41,1.69-2.13,3.28-4.27,3.7
		c-3.5-3.25-5.16-4.05-6.05-4.05c-1.69,0-3.28,2.39-4.37,7.04c-1.59,6.85-0.38,13.35,3.38,13.35c1.69,0,5.13-1.69,8.83-4.14
		l1.18,2.36c-4.56,5.07-10.13,8.19-14.75,8.19C388.83,798.9,384.15,792.25,386.6,782.11z"/>
	<path class="st2" d="M411.52,797.98c1.59-4.14,2.9-10.26,5.1-21.25l3.03-15.23c0.25-1.21,0.22-2.1-0.61-2.61l-2.52-1.5l0.41-2.04
		l13.8-2.58c-0.83,3.12-1.24,4.97-1.94,8.09l-0.7,3.06c-1.4,6.09-1.72,7.07-3.03,11.37l0.25,0.06c4.37-5.38,8.51-7.87,12.46-7.87
		c4.24,0,6.69,2.84,5.93,6.85c-0.73,3.79-3.95,6.82-10.13,9.14v0.16c1.05,0.99,2.1,2.58,4.43,8.06c0.41,0.99,0.73,1.15,1.08,1.15
		c0.7,0,1.78-0.57,4.43-3.12l0.8,2.52c-4.08,5.48-7.96,6.66-10.71,6.66c-2.71,0-3.82-1.15-5.23-6.31c-1.02-3.79-1.56-5.96-2.61-7.23
		l0.41-1.78c5.96-2.42,7.84-4.21,8.35-6.56c0.32-1.53-0.16-2.93-1.88-2.93c-1.78,0-3.86,1.18-6.12,3.57
		c-1.47,1.53-1.85,2.26-2.17,4.14c-0.64,3.73-1.69,9.88-2.45,13.32c-0.48,2.13-2.93,3.73-7.14,3.73c-0.89,0-1.85-0.06-2.9-0.22
		L411.52,797.98z"/>
	<path class="st2" d="M454.82,795.14l2.52-0.16c1.98-0.13,2.58-0.96,2.99-3.06l5.7-28.45c0.41-2.1,0.06-2.93-1.85-3.06l-2.39-0.16
		l0.57-2.87h19.56l-0.57,2.87l-2.52,0.16c-1.98,0.13-2.58,0.96-2.99,3.06l-5.7,28.45c-0.41,2.1-0.06,2.93,1.85,3.06l2.39,0.16
		l-0.57,2.87h-19.56L454.82,795.14z"/>
	<path class="st2" d="M481.75,791.39l4.33-18.92h-4.08l0.61-3.19l2.55-0.41c1.31-0.22,1.62-0.48,1.85-1.4l0.89-3.7
		c0.61-2.55,2.26-4.08,4.84-4.08c2.87,0,4.3,1.91,3.63,4.84l-0.89,3.86h6.91l-0.54,2.9c-0.61,0.86-2.23,1.18-5.48,1.18h-1.69
		l-2.96,14.43c-0.86,4.24-0.76,5.67,0.32,5.67c1.59,0,4.46-2.1,6.88-3.95l1.05,2.45c-3.12,4.49-7.58,7.84-12.68,7.84
		C482.8,798.9,480.54,796.58,481.75,791.39z"/>
	<path class="st2" d="M503.1,783.68c1.91-9.65,8.47-16.19,18.26-16.19c2.04,0,4.62,0.41,6.91,1.12c0.57,0.16,0.86,0.25,1.18,0.25
		c0.57,0,0.76-0.22,1.05-1.27l0.51-1.72l3.38,0.67c-1.08,3.35-1.94,6.18-2.68,9.53l-1.08,5.07c-1.82,8.28-1.82,11.85-0.48,11.85
		c0.8,0,1.78-0.7,4.84-3.25l0.83,2.52c-3.09,4.3-6.88,6.66-10.71,6.66c-4.36,0-6.31-2.29-3.22-13.13l-0.35-0.06
		c-4.27,8.92-8.76,13.19-13,13.19C503.58,798.9,501.29,792.66,503.1,783.68z M518.43,786c2.13-3.41,3.5-6.79,4.62-10.54l0.29-0.96
		c0.51-1.66-1.47-3.03-4.3-3.03c-3.35,0-5.29,2.77-6.56,9.08c-1.5,7.3-0.32,10.61,1.15,10.61
		C514.67,791.16,516.29,789.41,518.43,786z"/>
	<path class="st2" d="M541.5,755.35l13.67-2.58c-0.83,3.12-1.31,4.97-1.91,8.09l-5.13,25.78c-1.05,5.35-0.83,6.34-0.1,6.34
		c0.64,0,2.17-0.96,4.56-3.25l0.83,2.52c-2.58,3.6-6.24,6.66-10.71,6.66c-3.73,0-5.8-2.17-5.13-5.45l6.56-31.96
		c0.25-1.21,0.25-2.1-0.61-2.61l-2.45-1.5L541.5,755.35z"/>
	<path class="st2" d="M557.94,793.46l2.8-13.67c1.12-5.32,0.83-6.37,0.16-6.37c-0.76,0-2.29,1.15-4.62,3.25l-0.83-2.49
		c2.58-3.63,6.5-6.69,10.45-6.69c2.96,0,5.23,1.47,5.67,3.73l-3.19,15.42c-1.08,5.35-0.83,6.34-0.1,6.34c0.7,0,2.04-0.8,4.59-3.25
		l0.83,2.52c-2.58,3.6-6.28,6.66-10.71,6.66C559.25,798.9,557.24,796.74,557.94,793.46z M564.22,758c0.54-2.68,2.58-4.68,5.35-4.68
		c3,0,4.78,2.36,4.11,5.67c-0.54,2.64-2.55,4.62-5.29,4.62C565.21,763.6,563.65,760.93,564.22,758z"/>
	<path class="st2" d="M576.91,782.11c2.23-9.37,9.72-14.62,17.3-14.62c4.97,0,8.06,2.13,7.36,4.97c-0.41,1.69-2.13,3.28-4.27,3.7
		c-3.5-3.25-5.16-4.05-6.05-4.05c-1.69,0-3.28,2.39-4.37,7.04c-1.59,6.85-0.38,13.35,3.38,13.35c1.69,0,5.13-1.69,8.83-4.14
		l1.18,2.36c-4.56,5.07-10.13,8.19-14.75,8.19C579.14,798.9,574.45,792.25,576.91,782.11z"/>
</g>
</svg>
