<?xml version="1.0" encoding="utf-8"?>
<!-- Generator: Adobe Illustrator 27.4.0, SVG Export Plug-In . SVG Version: 6.00 Build 0)  -->
<svg version="1.1" id="Layer_1" xmlns="http://www.w3.org/2000/svg" xmlns:xlink="http://www.w3.org/1999/xlink" x="0px" y="0px"
	 viewBox="0 0 1000 606.06" style="enable-background:new 0 0 1000 606.06;" xml:space="preserve">
<style type="text/css">
	.st0{fill:#D24AAC;}
	.st1{fill:#711717;}
</style>
<rect class="st0" width="1000" height="606.06"/>
<g>
	<path class="st1" d="M139.63,360.49c-8.42,8.62-20.24,13.23-32.07,13.23c-26.46,0-45.7-21.25-45.7-47.3
		c-6.41-8.02-9.82-18.04-9.82-28.06c0-25.26,20.65-46.1,45.5-46.1c2.41,0,5.01,0.2,7.22,0.6l0.2-1
		c-14.83-7.82-24.65-23.25-24.65-40.29c0-20.25,13.63-38.28,33.07-44.1c8.42-12.43,22.65-20.24,38.08-20.24
		c22.85,0,42.49,17.44,45.3,40.09h0.4c2.81-22.65,22.45-40.09,45.3-40.09c15.43,0,29.67,7.82,38.08,20.24
		c19.44,5.81,33.07,23.85,33.07,44.1c0,17.04-9.82,32.47-24.65,40.29l0.2,1c2.21-0.4,4.81-0.6,7.22-0.6
		c24.85,0,45.5,20.85,45.5,46.1c0,10.02-3.41,20.04-9.82,28.06c0,26.06-19.24,47.3-45.7,47.3c-11.83,0-23.65-4.61-32.07-13.23
		l-0.6,0.4c3.21,6.21,4.81,13.63,4.81,20.65c0,25.05-20.65,45.7-45.5,45.7c-5.41,0-11.02-1.2-16.04-3.01
		c-5.01,1.8-10.62,3.01-16.04,3.01c-24.85,0-45.5-20.65-45.5-45.7c0-7.02,1.6-14.43,4.81-20.65L139.63,360.49z M164.48,353.28
		c-10.22,5.81-16.24,16.84-16.24,28.26c0,17.64,14.63,32.47,32.47,32.47c5.61,0,11.22-1.2,16.24-4.01
		c5.01,2.81,10.62,4.01,16.24,4.01c17.84,0,32.47-14.83,32.47-32.47c0-11.42-6.01-22.45-16.24-28.26
		c-1.2-10.42,7.02-20.04,16.84-20.04c2.61,0,5.81,0.8,8.02,1.8c3.81,15.03,16.64,25.66,32.07,25.66c17.84,0,32.67-14.63,32.67-32.67
		c0-2,0-4.21-0.4-6.21c6.61-5.81,10.42-14.63,10.42-23.45c0-18.24-14.63-33.07-32.67-33.07c-7.82,0-15.43,2.81-21.25,8.02
		c-10.62-2.81-15.43-8.22-15.43-17.04c0-6.62,3.01-9.62,5.21-12.43c1.2,0.2,2,0.2,3.01,0.2c17.84,0,32.67-14.43,32.67-32.47
		c0-16.24-12.23-30.27-28.46-32.47c-5.41-11.42-16.84-18.64-29.67-18.64c-18.04,0-32.47,14.83-32.47,32.87
		c0,4.21,0.6,8.62,2.61,12.23c-3.41,6.01-7.22,9.82-15.63,9.82c-8.42,0-12.23-3.81-15.63-9.82c2-3.61,2.61-8.02,2.61-12.23
		c0-18.04-14.43-32.87-32.47-32.87c-12.83,0-24.25,7.22-29.67,18.64c-16.24,2.21-28.46,16.24-28.46,32.47
		c0,18.04,14.83,32.47,32.67,32.47c1,0,1.8,0,3.01-0.2c2.21,2.81,5.21,5.81,5.21,12.43c0,8.82-4.81,14.23-15.43,17.04
		c-5.81-5.21-13.43-8.02-21.25-8.02c-18.04,0-32.67,14.83-32.67,33.07c0,8.82,3.81,17.64,10.42,23.45c-0.4,2-0.4,4.21-0.4,6.21
		c0,18.04,14.83,32.67,32.67,32.67c15.43,0,28.26-10.62,32.07-25.66c2.21-1,5.41-1.8,8.02-1.8
		C157.47,333.23,165.68,342.86,164.48,353.28z M121.79,319.8c1.4,2.61,2,5.61,2,8.22c0,9.02-7.22,16.44-16.24,16.44
		c-8.82,0-16.24-7.62-16.24-16.44c0-5.41,2.81-10.62,7.62-13.63c-9.42,0-17.64-6.41-17.64-16.04c0-9.22,7.22-16.44,16.24-16.44
		c8.02,0,15.43,6.01,16.24,14.03l0.4,0.2c3.41-5.61,8.62-8.02,15.03-8.02c8.02,0,15.03,8.02,15.03,16.64
		c0,8.82-7.42,16.24-16.44,16.24c-2,0-4.21-0.4-5.81-1.4L121.79,319.8z M137.82,222.79c-3.01,3.21-7.22,4.81-11.83,4.81
		c-8.42,0-16.24-7.02-16.24-15.43c0-9.22,7.02-16.84,16.24-16.84c3.21,0,5.81,0.8,8.62,2.4l0.8-0.4c-0.4-1.4-0.6-2.81-0.6-4.01
		c0-9.22,6.82-16.44,15.63-16.44s16.84,7.22,16.84,14.63c0,7.22-2.21,12.63-8.82,16.04v0.4c6.21,1.4,12.23,7.82,12.23,15.83
		s-6.01,16.24-16.64,16.24c-9.62,0-16.04-8.02-16.04-17.24H137.82z M213.19,248.05c0,2.81-0.6,5.01-1.4,7.22l6.62,5.01
		c3.01-2.81,6.81-4.61,11.22-4.61c9.22,0,16.44,7.62,16.44,16.44s-7.62,16.04-16.44,16.04c-1.2,0-2.41,0-3.81-0.2l-2.81,7.22
		c6.21,2.41,10.42,8.42,10.42,15.23c0,9.02-7.22,16.24-16.04,16.24c-9.02,0-16.44-7.22-16.44-16.24h-8.02
		c0,9.02-7.42,16.24-16.44,16.24c-8.82,0-16.04-7.22-16.04-16.24c0-6.82,4.21-12.83,10.42-15.23l-2.81-7.22
		c-1.4,0.2-2.61,0.2-3.81,0.2c-8.82,0-16.44-7.22-16.44-16.04s7.22-16.44,16.44-16.44c4.41,0,8.22,1.8,11.22,4.61l6.61-5.01
		c-0.8-2.2-1.4-4.41-1.4-7.22c0-9.02,7.22-16.44,16.24-16.44S213.19,239.03,213.19,248.05z M196.95,338.85
		c9.22,0,16.24,8.02,16.24,16.04c0,4.01-1.4,7.62-3.61,10.42v0.2c1,0,2-0.2,3.21-0.2c9.22,0,15.63,7.82,15.63,16.24
		c0,8.82-7.42,16.24-16.24,16.24c-6.41,0-12.43-4.01-15.03-10.22h-0.4c-2.61,6.21-8.62,10.22-15.03,10.22
		c-8.82,0-16.24-7.42-16.24-16.24c0-8.42,6.41-16.24,15.63-16.24c1.2,0,2.21,0.2,3.21,0.2v-0.2c-2.21-2.81-3.61-6.41-3.61-10.42
		C180.72,346.86,187.73,338.85,196.95,338.85z M255.88,222.79c0,9.22-6.41,17.24-16.04,17.24c-10.62,0-16.64-8.22-16.64-16.24
		s6.01-14.43,12.23-15.83v-0.4c-6.61-3.41-8.82-8.82-8.82-16.04c0-7.42,8.02-14.63,16.84-14.63s15.63,7.22,15.63,16.44
		c0,1.2-0.2,2.61-0.6,4.01l0.8,0.4c2.81-1.6,5.41-2.4,8.62-2.4c9.22,0,16.24,7.62,16.24,16.84c0,8.42-7.82,15.43-16.24,15.43
		c-4.61,0-8.82-1.6-11.83-4.81H255.88z M271.92,319.6c-1.6,1-3.81,1.4-5.81,1.4c-9.02,0-16.44-7.42-16.44-16.24
		c0-8.62,7.01-16.64,15.03-16.64c6.41,0,11.63,2.41,15.03,8.02l0.4-0.2c0.8-8.02,8.22-14.03,16.24-14.03
		c9.02,0,16.24,7.21,16.24,16.44c0,9.62-8.22,16.04-17.64,16.04c4.81,3.01,7.62,8.22,7.62,13.63c0,8.82-7.42,16.44-16.24,16.44
		c-9.02,0-16.24-7.42-16.24-16.44c0-2.61,0.6-5.61,2-8.22L271.92,319.6z"/>
	<path class="st1" d="M409.21,327.62c-24.85,0-39.29-17.64-39.29-41.89s14.43-41.89,39.29-41.89c11.42,0,18.84,3.81,22.85,5.41
		c4.61-9.62,18.64-16.64,29.67-14.43c-2.21-11.02,4.81-25.05,14.43-29.67c-1.6-4.01-5.41-11.42-5.41-22.85
		c0-24.85,17.64-39.29,41.89-39.29c24.25,0,41.89,14.43,41.89,39.29c0,11.43-3.81,18.84-5.41,22.85
		c9.62,4.61,16.64,18.64,14.43,29.67c11.02-2.21,25.05,4.81,29.67,14.43c4.01-1.6,11.42-5.41,22.85-5.41
		c24.85,0,39.29,17.64,39.29,41.89s-14.43,41.89-39.29,41.89c-11.43,0-18.84-3.81-22.85-5.41c-4.61,9.62-18.64,16.64-29.67,14.43
		c2.21,11.02-4.81,25.05-14.43,29.67c1.6,4.01,5.41,11.42,5.41,22.85c0,24.85-17.64,39.29-41.89,39.29
		c-24.25,0-41.89-14.43-41.89-39.29c0-11.42,3.81-18.84,5.41-22.85c-9.62-4.61-16.64-18.64-14.43-29.67
		c-11.02,2.2-25.05-4.81-29.67-14.43C428.05,323.81,420.63,327.62,409.21,327.62z M485.98,184.51c0,9.42,3.61,18.04,6.21,25.46
		l-0.2,1c-15.83,8.42-21.25,24.65-13.23,39.89l-1,1c-15.23-8.02-31.47-2.61-39.89,13.23l-1,0.2c-7.42-2.61-16.04-6.21-25.46-6.21
		c-17.04,0-26.46,11.42-26.46,26.66s9.42,26.66,26.46,26.66c9.42,0,18.04-3.61,25.46-6.21l1,0.2c8.42,15.83,24.65,21.25,39.89,13.23
		l1,1c-8.02,15.23-2.61,31.47,13.23,39.89l0.2,1c-2.61,7.42-6.21,16.04-6.21,25.46c0,17.04,11.43,26.46,26.66,26.46
		s26.66-9.42,26.66-26.46c0-9.42-3.61-18.04-6.21-25.46l0.2-1c15.83-8.42,21.25-24.65,13.23-39.89l1-1
		c15.23,8.02,31.47,2.61,39.89-13.23l1-0.2c7.42,2.61,16.04,6.21,25.46,6.21c17.04,0,26.46-11.43,26.46-26.66
		s-9.42-26.66-26.46-26.66c-9.42,0-18.04,3.61-25.46,6.21l-1-0.2c-8.42-15.83-24.65-21.25-39.89-13.23l-1-1
		c8.02-15.23,2.61-31.47-13.23-39.89l-0.2-1c2.61-7.42,6.21-16.04,6.21-25.46c0-17.04-11.42-26.46-26.66-26.46
		S485.98,167.47,485.98,184.51z M491.99,244.84c0-9.02,5.01-17.04,12.63-20.24c-2.61-22.25-4.81-32.87-4.81-39.29
		c0-9.02,6.61-13.03,12.83-13.03c6.21,0,12.83,4.01,12.83,13.03c0,6.41-2.21,17.04-4.81,39.29c7.62,3.21,12.63,11.22,12.63,20.24
		c0,6.01-2.41,11.63-6.81,15.83c-5.21,5.01-4.01,10.02-1.4,12.63s7.62,3.81,12.63-1.4c4.21-4.41,9.82-6.82,15.83-6.82
		c9.02,0,17.04,5.01,20.24,12.63c22.25-2.61,32.87-4.81,39.29-4.81c9.02,0,13.03,6.61,13.03,12.83s-4.01,12.83-13.03,12.83
		c-6.41,0-17.04-2.2-39.29-4.81c-3.21,7.62-11.22,12.63-20.24,12.63c-6.01,0-11.63-2.41-15.83-6.81c-5.01-5.21-10.02-4.01-12.63-1.4
		c-2.61,2.61-3.81,7.62,1.4,12.63c4.41,4.21,6.81,9.82,6.81,15.83c0,9.02-5.01,17.04-12.63,20.24c2.61,22.25,4.81,32.87,4.81,39.29
		c0,9.02-6.62,13.03-12.83,13.03c-6.21,0-12.83-4.01-12.83-13.03c0-6.41,2.2-17.04,4.81-39.29c-7.62-3.21-12.63-11.22-12.63-20.24
		c0-6.01,2.41-11.62,6.81-15.83c5.21-5.01,4.01-10.02,1.4-12.63c-2.61-2.61-7.62-3.81-12.63,1.4c-4.21,4.41-9.82,6.81-15.83,6.81
		c-9.02,0-17.04-5.01-20.25-12.63c-22.25,2.61-32.87,4.81-39.29,4.81c-9.02,0-13.03-6.61-13.03-12.83s4.01-12.83,13.03-12.83
		c6.41,0,17.04,2.21,39.29,4.81c3.21-7.62,11.22-12.63,20.25-12.63c6.01,0,11.62,2.41,15.83,6.82c5.01,5.21,10.02,4.01,12.63,1.4
		s3.81-7.62-1.4-12.63C494.39,256.47,491.99,250.85,491.99,244.84z M524.86,298.16c0,0,0.2,0,0.2-0.2L524.86,298.16z"/>
	<path class="st1" d="M874.21,184.71c4.01-0.8,8.42-1.4,12.43-1.4c33.67,0,61.33,27.26,61.33,60.93c0,15.03-5.61,30.07-15.23,41.29
		c9.62,11.22,15.23,26.26,15.23,41.29c0,33.67-27.66,60.93-61.33,60.93c-4.01,0-8.42-0.6-12.43-1.4
		c-9.62,25.46-30.87,42.29-58.53,42.29c-27.66,0-48.91-16.84-58.53-42.29c-4.01,0.8-8.42,1.4-12.43,1.4
		c-33.67,0-61.33-27.26-61.33-60.93c0-15.03,5.61-30.07,15.23-41.29c-9.62-11.22-15.23-26.26-15.23-41.29
		c0-33.67,27.66-60.93,61.33-60.93c4.01,0,8.42,0.6,12.43,1.4c9.62-25.46,30.87-42.29,58.53-42.29
		C843.35,142.42,864.59,159.25,874.21,184.71z M767.98,202.15l-0.8,0.6c-6.41-3.41-13.63-5.21-20.85-5.21
		c-26.26,0-47.91,21.65-47.91,47.91c0,15.83,7.82,30.87,21.65,40.09c-13.83,9.22-21.65,24.25-21.65,40.09
		c0,26.26,21.65,47.91,47.91,47.91c7.22,0,14.43-1.8,20.85-5.21l0.8,0.6c0,24.85,24.05,44.5,47.71,44.5
		c23.65,0,47.7-19.64,47.7-44.5l0.8-0.6c6.41,3.41,13.63,5.21,20.85,5.21c26.26,0,47.91-21.65,47.91-47.91
		c0-15.83-7.82-30.87-21.65-40.09c13.83-9.22,21.65-24.25,21.65-40.09c0-26.26-21.65-47.91-47.91-47.91
		c-7.22,0-14.43,1.8-20.85,5.21l-0.8-0.6c0-24.85-24.05-44.5-47.7-44.5C792.03,157.65,767.98,177.29,767.98,202.15z M769.38,270.9
		c-1.8,0-4.01,0.6-7.62,2.81c-3.81,2.61-9.82,4.01-15.83,4.01c-17.84,0-32.47-14.63-32.47-32.47s14.83-32.27,32.67-32.27
		c18.04,0,31.27,12.63,32.27,32.47c0.4,6.01,3.81,11.83,11.42,11.83c8.62,0,15.83-7.62,15.83-15.43c0-3.01-2-6.01-5.41-7.82
		c-10.42-5.61-17.24-16.84-17.24-28.66c0-18.04,14.83-32.67,32.67-32.67c17.84,0,32.67,14.63,32.67,32.67
		c0,11.83-6.81,23.05-17.24,28.66c-3.41,1.8-5.41,4.81-5.41,7.82c0,7.82,7.22,15.43,15.83,15.43c7.62,0,11.22-5.81,11.42-11.83
		c0.8-17.84,14.23-32.47,32.27-32.47c17.84,0,32.67,14.43,32.67,32.27s-14.63,32.47-32.47,32.47c-6.01,0-12.03-1.4-15.83-4.01
		c-3.61-2.21-5.81-2.81-7.62-2.81c-6.61,0-11.02,8.62-11.02,14.63s4.41,14.63,11.02,14.63c1.8,0,4.01-0.6,7.62-2.81
		c3.81-2.61,9.82-4.01,15.83-4.01c17.84,0,32.47,14.63,32.47,32.47s-14.83,32.27-32.67,32.27c-18.04,0-31.67-14.63-32.27-32.47
		c-0.2-6.81-3.81-11.83-11.42-11.83c-8.62,0-15.83,7.62-15.83,15.43c0,3.01,2,6.01,5.41,7.82c10.42,5.61,17.24,16.84,17.24,28.66
		c0,18.04-14.83,32.67-32.67,32.67c-17.84,0-32.67-14.63-32.67-32.67c0-11.83,6.81-23.05,17.24-28.66c3.41-1.8,5.41-4.81,5.41-7.82
		c0-7.82-7.22-15.43-15.83-15.43c-7.62,0-11.02,5.21-11.42,11.83c-1,19.44-14.23,32.47-32.27,32.47
		c-17.84,0-32.67-14.43-32.67-32.27s14.63-32.47,32.47-32.47c6.01,0,12.03,1.4,15.83,4.01c3.61,2.21,5.81,2.81,7.62,2.81
		c6.61,0,11.02-8.62,11.02-14.63S776,270.9,769.38,270.9z M746.13,260.47c8.42,0,15.23-6.82,15.23-15.23
		c0-8.42-6.82-15.23-15.23-15.23c-8.42,0-15.23,6.81-15.23,15.23C730.9,253.66,737.71,260.47,746.13,260.47z M746.13,341.05
		c8.42,0,15.23-6.81,15.23-15.23c0-8.42-6.82-15.23-15.23-15.23c-8.42,0-15.23,6.82-15.23,15.23
		C730.9,334.24,737.71,341.05,746.13,341.05z M815.69,220.39c8.42,0,15.23-6.82,15.23-15.23c0-8.42-7.02-15.03-15.23-15.03
		c-8.22,0-15.23,6.61-15.23,15.03C800.45,213.57,807.27,220.39,815.69,220.39z M815.69,380.94c8.22,0,15.23-6.61,15.23-15.03
		c0-8.42-6.82-15.23-15.23-15.23c-8.42,0-15.23,6.82-15.23,15.23C800.45,374.32,807.47,380.94,815.69,380.94z M815.69,270.3
		c-8.22,0-15.03,7.02-15.03,15.23s6.81,15.23,15.03,15.23c8.22,0,15.03-7.02,15.03-15.23S823.9,270.3,815.69,270.3z M885.24,230.01
		c-8.42,0-15.23,6.81-15.23,15.23c0,8.42,6.82,15.23,15.23,15.23c8.42,0,15.23-6.82,15.23-15.23
		C900.47,236.82,893.66,230.01,885.24,230.01z M885.24,310.58c-8.42,0-15.23,6.82-15.23,15.23c0,8.42,6.82,15.23,15.23,15.23
		c8.42,0,15.23-6.81,15.23-15.23C900.47,317.4,893.66,310.58,885.24,310.58z"/>
</g>
</svg>
