<?xml version="1.0" encoding="utf-8"?>
<!-- Generator: Adobe Illustrator 27.4.0, SVG Export Plug-In . SVG Version: 6.00 Build 0)  -->
<svg version="1.1" id="Layer_1" xmlns="http://www.w3.org/2000/svg" xmlns:xlink="http://www.w3.org/1999/xlink" x="0px" y="0px"
	 viewBox="0 0 1000 606.06" style="enable-background:new 0 0 1000 606.06;" xml:space="preserve">
<style type="text/css">
	.st0{fill:#1D1D1B;}
	.st1{fill:#FFFFFF;}
</style>
<rect class="st0" width="1000" height="606.06"/>
<path class="st1" d="M39.32,87.08l3.12-0.27c2.47-0.23,3.09-1.08,3.09-3.63V49.2c0-2.55-0.62-3.39-3.09-3.63l-3.12-0.27v-3.7h29.9
	c4.28,0,7.1-0.27,8.91-0.66l-0.19,12.34h-4.36v-2.28c0-3.43-1.27-4.01-9.1-4.01h-6.44v15.35h9.49c3.32,0,3.36-0.42,3.86-2.62
	l0.42-1.89h3.97v14.43H71.8l-0.42-1.89c-0.5-2.2-0.54-2.62-3.86-2.62h-9.49v13.77c0,4.17,0.62,5.05,4.78,5.32l3.74,0.23v3.7H39.32
	V87.08z M81.48,74.77c0-11.42,8.56-20.02,20.44-20.02c11.19,0,18.86,7.33,18.86,17.44c0,11.34-8.76,19.67-20.71,19.67
	C89,91.86,81.48,84.61,81.48,74.77z M107.94,73.54c0-7.95-2.7-14.04-6.9-14.04c-4.17,0-6.83,5.98-6.83,13.62c0,7.98,2.78,14,7.02,14
	C105.4,87.12,107.94,81.52,107.94,73.54z M124.77,87.23l2.28-0.15c2.16-0.15,2.62-0.81,2.62-3.28V66.9c0-2.58-0.35-3.51-1.5-4.4
	l-2.7-2.16v-2.39l15.31-3.66l-0.04,7.14l0.15,0.04l0.81-1.31c1.97-3.2,5.09-5.4,8.29-5.4c2.74,0,4.67,1.74,4.67,4.09
	c0,2.39-2.47,5.55-4.05,6.33l-2.58-1.12c-1.74-0.77-3.12-1.08-3.9-1.08c-0.73,0-1.39,0.42-2.28,1.54l-0.89,1.12v18.36
	c0,2.47,0.77,3.01,2.58,3.09l3.59,0.15v3.55h-22.37V87.23z M169.36,87.23l2.28-0.15c2.16-0.15,2.62-0.81,2.62-3.28V66.9
	c0-2.58-0.35-3.47-1.5-4.4l-2.7-2.16v-2.39l16.12-3.66c-0.31,2.28-0.62,6.67-0.62,11.65V83.8c0,2.47,0.46,3.12,2.62,3.28l2.28,0.15
	v3.55h-21.1V87.23z M173.3,44.03c0-3.55,2.58-6.02,6.25-6.02s6.25,2.47,6.25,6.02c0,3.59-2.55,6.09-6.25,6.09
	S173.3,47.62,173.3,44.03z M194.05,87.23l2.28-0.15c2.16-0.15,2.58-0.81,2.58-3.28V67.25c0-2.55-0.39-3.47-1.5-4.4l-2.7-2.16V58.3
	l15.31-4.01l-0.12,5.98l0.15,0.08l1.74-1.27c3.12-2.28,6.98-4.32,11.19-4.32c6.36,0,10.15,4.2,10.15,11.07
	c0,5.28-0.08,13.54-0.08,17.98c0,2.47,0.46,3.12,2.62,3.28l2.28,0.15v3.55h-20.71v-3.55l1.93-0.15c2.16-0.15,2.62-0.81,2.62-3.28
	V70.14c0-5.48-1.31-7.71-5.59-7.71c-2.12,0-4.28,0.62-5.98,1.47v19.9c0,2.47,0.46,3.36,2.62,3.39l1.62,0.04v3.55h-20.41V87.23z
	 M240.92,79.63h4.01l0.27,0.69c1.97,5.05,4.36,6.9,7.71,6.9c2.7,0,4.94-1.31,4.94-4.24c0-2.39-1.5-4.2-6.9-6.36
	c-6.9-2.78-9.49-5.55-9.49-10.38c0-6.6,5.55-11.5,14.81-11.5c4.24,0,8.06,0.89,9.57,0.81l1.23,9.49h-4.01l-0.35-0.96
	c-1.47-4.13-3.78-5.09-6.17-5.09c-2.58,0-4.13,1.35-4.13,3.39c0,2.7,1.97,3.97,5.9,5.55c8.06,3.24,10.49,6.25,10.49,10.99
	c0,8.18-6.87,12.92-16.39,12.92c-3.82,0-7.41-0.69-9.64-1.81L240.92,79.63z M299.02,85.26c-4.44,4.44-9.22,6.6-14.5,6.6
	c-5.86,0-9.33-3.63-9.26-10.15l0.19-17.47c0.04-2.16-0.15-3.28-1.54-3.82l-2.85-1.12c0-0.08,0-2.43,0-2.43l15.58-8.22l-0.31,7.17
	h11.46l-0.35,3.55c-0.54,1.04-2.35,1.62-6.36,1.62h-4.51v18.17c0,3.47,1.7,5.17,4.86,5.17c2.24,0,4.55-0.62,7.06-1.74L299.02,85.26z
	 M321.59,86.38c-4.28,3.74-7.87,5.48-11.11,5.48c-4.86,0-9.57-4.09-9.53-10.76c0-2.97,0.89-5.21,2.97-6.4
	c2.04-1.16,6.25-2.47,17.2-4.17v-5.17c0-3.74-1.35-5.48-4.71-5.48c-1.58,0-2.89,0.46-3.47,1.16c-0.46,0.58-0.35,1.23-0.04,3.7
	c-1.27,1.12-4.13,2.31-6.52,2.31c-2.28,0-3.63-1.12-3.63-3.01c0-4.59,10.45-9.3,20.17-9.3c7.29,0,9.64,3.51,9.53,9.84l-0.27,14.16
	c-0.08,4.32,0.66,6.33,2.01,6.33c0.58,0,1.85-0.5,3.05-1.16l0.66,3.63c-3.51,2.7-7.52,4.24-10.38,4.24c-2.93,0-4.98-1.47-5.75-5.4
	H321.59z M321.13,75.16c-3.36,0.12-6.09,0.96-7.29,1.54c-1.08,0.54-1.47,1.77-1.47,3.05c0,2.82,1.97,5.48,4.17,5.48
	c1.08,0,2.85-0.89,4.59-2.24V75.16z M340.49,87.23l2.28-0.15c2.16-0.15,2.58-0.81,2.58-3.28V67.25c0-2.55-0.39-3.47-1.5-4.4
	l-2.7-2.16V58.3l15.31-4.01l-0.12,5.98l0.15,0.08l1.74-1.27c3.12-2.28,6.98-4.32,11.19-4.32c6.36,0,10.15,4.2,10.15,11.07
	c0,5.28-0.08,13.54-0.08,17.98c0,2.47,0.46,3.12,2.62,3.28l2.28,0.15v3.55h-20.71v-3.55l1.93-0.15c2.16-0.15,2.62-0.81,2.62-3.28
	V70.14c0-5.48-1.31-7.71-5.59-7.71c-2.12,0-4.28,0.62-5.98,1.47v19.9c0,2.47,0.46,3.36,2.62,3.39l1.62,0.04v3.55h-20.41V87.23z
	 M408.19,54.75c5.79,0,10.38,2.7,10.38,5.71c0,1.77-2.39,4.67-4.67,5.09l-3.32-1.97c-3.78-2.43-5.63-3.05-7.37-3.05
	c-3.2,0-5.48,3.51-5.55,9.6c-0.19,8.56,4.82,13.81,11.26,13.81c3.12,0,6.44-1.04,8.95-2.2l1.12,2.43
	c-4.67,4.55-9.88,7.68-16.05,7.68c-9.37,0-16.32-7.14-16.32-17.05C386.63,62.81,396.89,54.75,408.19,54.75z M440.21,54.75
	c6.17,0,10.45,3.59,12.58,10.07c0.69,2.16,1.43,3.16,2.08,3.55l-0.81,2.24c-8.56,0.73-14.74,0.93-21.87,0.85v0.15
	c0.39,7.06,4.55,12.34,11.92,12.34c2.97,0,7.06-1.31,9.64-2.43l0.58,2.66c-4.86,4.55-10.26,7.68-16.63,7.68
	c-9.76,0-16.59-7.02-16.59-17.4C421.12,62.89,430.69,54.75,440.21,54.75z M444.73,66.59c-0.96-4.74-3.28-7.17-6.4-7.17
	c-3.47,0-5.55,3.16-6.06,8.25L444.73,66.59z M474.47,88.89c0,8.37-5.82,15.85-14.74,19.02l-1.08-2.89c5.05-2.7,8.41-7.75,8.41-11.26
	c0-2.51-1.12-3.39-6.52-5.21c-0.23-0.66-0.31-1.5-0.31-2.12c0-3.86,2.97-6.75,6.6-6.75C471.27,79.67,474.47,83.14,474.47,88.89z
	 M520.3,85.26c-4.44,4.44-9.22,6.6-14.5,6.6c-5.86,0-9.33-3.63-9.26-10.15l0.19-17.47c0.04-2.16-0.15-3.28-1.54-3.82l-2.85-1.12
	c0-0.08,0-2.43,0-2.43l15.58-8.22l-0.31,7.17h11.46l-0.35,3.55c-0.54,1.04-2.35,1.62-6.36,1.62h-4.51v18.17
	c0,3.47,1.7,5.17,4.86,5.17c2.24,0,4.55-0.62,7.06-1.74L520.3,85.26z M521.04,87.23l2.28-0.15c2.16-0.15,2.58-0.81,2.58-3.28V48.35
	c0-2.55-0.35-3.55-1.5-4.44l-2.89-2.16v-2.39L538.16,36c-0.54,2.16-1,6.67-1,11.69v5.21c0,2.93,0.12,4.71-0.12,7.25l0.12,0.08
	l1.62-1.16c3.12-2.28,6.98-4.32,11.19-4.32c6.36,0,10.07,4.2,10.07,11.07c0,4.24-0.04,12.85-0.04,18.36c0,2.16,0.58,2.74,2.62,2.89
	l2.28,0.15v3.55h-20.71v-3.55l1.93-0.15c2.16-0.15,2.62-0.81,2.62-3.28V70.14c0-5.48-1.27-7.71-5.55-7.71
	c-2.12,0-4.24,0.62-5.98,1.47v19.9c0,2.47,0.46,3.36,2.62,3.39l1.62,0.04v3.55h-20.41V87.23z M586.19,54.75
	c6.17,0,10.45,3.59,12.58,10.07c0.69,2.16,1.43,3.16,2.08,3.55l-0.81,2.24c-8.56,0.73-14.74,0.93-21.87,0.85v0.15
	c0.39,7.06,4.55,12.34,11.92,12.34c2.97,0,7.06-1.31,9.64-2.43l0.58,2.66c-4.86,4.55-10.26,7.68-16.63,7.68
	c-9.76,0-16.59-7.02-16.59-17.4C567.1,62.89,576.66,54.75,586.19,54.75z M590.7,66.59c-0.96-4.74-3.28-7.17-6.4-7.17
	c-3.47,0-5.55,3.16-6.06,8.25L590.7,66.59z M617.59,93.87c0-2.08,1.16-3.82,3.12-4.74c4.24,3.32,6.67,4.94,9.57,4.94
	c3.93,0,6.79-3.12,6.79-7.17c0-4.28-3.36-6.71-11.38-6.75l-0.39-1.12l4.05-4.32c4.67-4.98,6.4-7.52,6.4-10.38
	c0-2.97-2.28-4.94-5.59-4.94c-3.24,0-5.75,1.85-8.18,5.94l-3.28-1.62c2.39-7.75,8.02-11.92,16.05-11.92
	c7.56,0,12.46,4.05,12.46,10.07c0,3.97-2.43,7.71-10.61,12.19v0.19c7.6,0.42,12.38,4.32,12.38,10.11c0,9.64-13.27,15.39-22.33,15.39
	C621.22,99.73,617.59,97.45,617.59,93.87z M653.12,73.34c0-12.34,8.18-21.68,20.06-21.68c11.19,0,18.48,7.95,18.48,18.9
	c0,12.27-8.37,21.29-20.33,21.29C660.26,91.86,653.12,84.03,653.12,73.34z M678.82,72.03c0-8.6-2.31-15.2-6.52-15.2
	c-4.17,0-6.44,6.44-6.44,14.74c0,8.64,2.39,15.16,6.63,15.16C676.65,86.73,678.82,80.67,678.82,72.03z M723.84,85.26
	c-4.44,4.44-9.22,6.6-14.5,6.6c-5.86,0-9.33-3.63-9.26-10.15l0.19-17.47c0.04-2.16-0.15-3.28-1.54-3.82l-2.85-1.12
	c0-0.08,0-2.43,0-2.43l15.58-8.22l-0.31,7.17h11.46l-0.35,3.55c-0.54,1.04-2.35,1.62-6.36,1.62h-4.51v18.17
	c0,3.47,1.7,5.17,4.86,5.17c2.24,0,4.55-0.62,7.06-1.74L723.84,85.26z M724.57,87.23l2.28-0.15c2.16-0.15,2.58-0.81,2.58-3.28V48.35
	c0-2.55-0.35-3.55-1.5-4.44l-2.89-2.16v-2.39L741.7,36c-0.54,2.16-1,6.67-1,11.69v5.21c0,2.93,0.12,4.71-0.12,7.25l0.12,0.08
	l1.62-1.16c3.12-2.28,6.98-4.32,11.19-4.32c6.36,0,10.07,4.2,10.07,11.07c0,4.24-0.04,12.85-0.04,18.36c0,2.16,0.58,2.74,2.62,2.89
	l2.28,0.15v3.55h-20.71v-3.55l1.93-0.15c2.16-0.15,2.62-0.81,2.62-3.28V70.14c0-5.48-1.27-7.71-5.55-7.71
	c-2.12,0-4.24,0.62-5.98,1.47v19.9c0,2.47,0.46,3.36,2.62,3.39l1.62,0.04v3.55h-20.41V87.23z"/>
<g>
	<path class="st1" d="M38.35,168.71l2.28-0.15c2.16-0.15,2.58-0.81,2.58-3.28v-16.9c0-2.58-0.35-3.47-1.5-4.4l-2.7-2.16v-2.39
		l15.31-3.66l-0.04,6.06l0.12,0.04l1.77-1.35c3.09-2.39,6.48-4.28,10.68-4.28c4.59,0,7.83,2.2,9.3,5.98h0.12l2.28-1.7
		c3.09-2.31,6.48-4.28,10.68-4.28c6.37,0,10.15,4.21,10.15,11.07c0,5.98-0.08,12-0.08,17.98c0,2.47,0.42,3.12,2.58,3.28l2.28,0.15
		v3.55H83.75v-3.55l1.62-0.04c2.16-0.04,2.66-0.93,2.66-3.39v-13.66c0-5.48-1.31-7.71-5.55-7.71c-2.01,0-3.97,0.46-5.63,1.27
		c0.12,0.66,0.15,1.39,0.15,2.12c0,5.17-0.08,13.58-0.08,18.01c0,2.43,0.46,3.09,2.62,3.24l1.93,0.15v3.55H61.07v-3.55l1.93-0.15
		c2.16-0.15,2.62-0.81,2.62-3.28l0.04-13.66c0-5.48-1.31-7.71-5.55-7.71c-2.01,0-3.97,0.46-5.59,1.27v20.71
		c0,2.01,0.62,2.74,2.58,2.78l1.62,0.04v3.55H38.35V168.71z"/>
	<path class="st1" d="M125.5,136.23c6.17,0,10.45,3.59,12.58,10.07c0.69,2.16,1.43,3.16,2.08,3.55l-0.81,2.24
		c-8.56,0.73-14.74,0.93-21.87,0.85v0.15c0.39,7.06,4.55,12.34,11.92,12.34c2.97,0,7.06-1.31,9.64-2.43l0.58,2.66
		c-4.86,4.55-10.26,7.68-16.62,7.68c-9.76,0-16.59-7.02-16.59-17.4C106.4,144.37,115.97,136.23,125.5,136.23z M130.01,148.07
		c-0.96-4.74-3.28-7.17-6.4-7.17c-3.47,0-5.55,3.16-6.06,8.25L130.01,148.07z"/>
	<path class="st1" d="M143.59,168.71l2.28-0.15c2.16-0.15,2.62-0.81,2.62-3.28v-16.9c0-2.58-0.35-3.51-1.5-4.4l-2.7-2.16v-2.39
		l15.31-3.66l-0.04,7.14l0.15,0.04l0.81-1.31c1.97-3.2,5.09-5.4,8.29-5.4c2.74,0,4.67,1.74,4.67,4.09c0,2.39-2.47,5.55-4.05,6.33
		l-2.58-1.12c-1.74-0.77-3.12-1.08-3.9-1.08c-0.73,0-1.39,0.42-2.28,1.54l-0.89,1.12v18.36c0,2.47,0.77,3.01,2.58,3.09l3.59,0.15
		v3.55h-22.37V168.71z"/>
	<path class="st1" d="M175.22,168.71l2.28-0.15c2.16-0.15,2.62-0.81,2.62-3.28v-16.9c0-2.58-0.35-3.47-1.5-4.4l-2.7-2.16v-2.39
		l16.12-3.66c-0.31,2.28-0.62,6.67-0.62,11.65v17.86c0,2.47,0.46,3.12,2.62,3.28l2.28,0.15v3.55h-21.1V168.71z M179.16,125.5
		c0-3.55,2.58-6.02,6.25-6.02c3.67,0,6.25,2.47,6.25,6.02c0,3.59-2.55,6.09-6.25,6.09S179.16,129.09,179.16,125.5z"/>
	<path class="st1" d="M224.83,129.79c0-2.55-0.31-3.51-1.47-4.4l-2.89-2.2v-2.43l16.63-3.32c-0.5,2.16-0.96,6.71-0.96,11.65v34.22
		c0,3.32,0.5,4.47,2.39,4.47c0.35,0,1.43-0.12,1.85-0.15l0.19,3.55l-15.24,2.28l-0.12-4.94l-0.15-0.04l-1.47,1
		c-3.63,2.62-6.71,3.86-9.84,3.86c-8.6,0-14.7-6.79-14.7-16.74c0-12.11,9.45-20.37,21.06-20.37c1.7,0,3.32,0.08,4.71,0.42V129.79z
		 M224.83,147.34c0-4.59-2.12-6.44-5.63-6.44c-4.55,0-8.18,3.86-8.18,12.5c0,7.71,3.63,12.57,9.37,12.57c1.2,0,2.78-0.27,4.44-0.96
		V147.34z"/>
	<path class="st1" d="M244.2,168.71l2.28-0.15c2.16-0.15,2.62-0.81,2.62-3.28v-16.9c0-2.58-0.35-3.47-1.5-4.4l-2.7-2.16v-2.39
		l16.12-3.66c-0.31,2.28-0.62,6.67-0.62,11.65v17.86c0,2.47,0.46,3.12,2.62,3.28l2.28,0.15v3.55h-21.1V168.71z M248.13,125.5
		c0-3.55,2.58-6.02,6.25-6.02c3.66,0,6.25,2.47,6.25,6.02c0,3.59-2.55,6.09-6.25,6.09S248.13,129.09,248.13,125.5z"/>
	<path class="st1" d="M289.1,167.86c-4.28,3.74-7.87,5.48-11.11,5.48c-4.86,0-9.57-4.09-9.53-10.76c0-2.97,0.89-5.21,2.97-6.4
		c2.04-1.16,6.25-2.47,17.2-4.17v-5.17c0-3.74-1.35-5.48-4.71-5.48c-1.58,0-2.89,0.46-3.47,1.16c-0.46,0.58-0.35,1.23-0.04,3.7
		c-1.27,1.12-4.13,2.31-6.52,2.31c-2.28,0-3.63-1.12-3.63-3.01c0-4.59,10.45-9.3,20.17-9.3c7.29,0,9.64,3.51,9.53,9.84l-0.27,14.16
		c-0.08,4.32,0.66,6.33,2.01,6.33c0.58,0,1.85-0.5,3.05-1.16l0.66,3.63c-3.51,2.7-7.52,4.24-10.38,4.24c-2.93,0-4.98-1.47-5.75-5.4
		H289.1z M288.64,156.63c-3.36,0.12-6.09,0.96-7.29,1.54c-1.08,0.54-1.47,1.77-1.47,3.05c0,2.82,1.97,5.48,4.17,5.48
		c1.08,0,2.85-0.89,4.59-2.24V156.63z"/>
	<path class="st1" d="M308,168.71l2.28-0.15c2.16-0.15,2.58-0.81,2.58-3.28v-16.55c0-2.55-0.39-3.47-1.5-4.4l-2.7-2.16v-2.39
		l15.31-4.01l-0.12,5.98l0.15,0.08l1.74-1.27c3.12-2.28,6.98-4.32,11.19-4.32c6.36,0,10.14,4.21,10.14,11.07
		c0,5.29-0.08,13.54-0.08,17.98c0,2.47,0.46,3.12,2.62,3.28l2.28,0.15v3.55h-20.71v-3.55l1.93-0.15c2.16-0.15,2.62-0.81,2.62-3.28
		v-13.66c0-5.48-1.31-7.71-5.59-7.71c-2.12,0-4.28,0.62-5.98,1.47v19.9c0,2.47,0.46,3.36,2.62,3.39l1.62,0.04v3.55H308V168.71z"/>
	<path class="st1" d="M386.2,136.23c6.17,0,10.45,3.59,12.58,10.07c0.69,2.16,1.43,3.16,2.08,3.55l-0.81,2.24
		c-8.56,0.73-14.74,0.93-21.87,0.85v0.15c0.39,7.06,4.55,12.34,11.92,12.34c2.97,0,7.06-1.31,9.64-2.43l0.58,2.66
		c-4.86,4.55-10.26,7.68-16.62,7.68c-9.76,0-16.59-7.02-16.59-17.4C367.11,144.37,376.67,136.23,386.2,136.23z M390.71,148.07
		c-0.96-4.74-3.28-7.17-6.4-7.17c-3.47,0-5.55,3.16-6.06,8.25L390.71,148.07z"/>
	<path class="st1" d="M424.51,167.86c-4.28,3.74-7.87,5.48-11.11,5.48c-4.86,0-9.57-4.09-9.53-10.76c0-2.97,0.89-5.21,2.97-6.4
		c2.04-1.16,6.25-2.47,17.2-4.17v-5.17c0-3.74-1.35-5.48-4.71-5.48c-1.58,0-2.89,0.46-3.47,1.16c-0.46,0.58-0.35,1.23-0.04,3.7
		c-1.27,1.12-4.13,2.31-6.52,2.31c-2.28,0-3.63-1.12-3.63-3.01c0-4.59,10.45-9.3,20.17-9.3c7.29,0,9.64,3.51,9.53,9.84l-0.27,14.16
		c-0.08,4.32,0.66,6.33,2.01,6.33c0.58,0,1.85-0.5,3.05-1.16l0.66,3.63c-3.51,2.7-7.52,4.24-10.38,4.24c-2.93,0-4.98-1.47-5.75-5.4
		H424.51z M424.04,156.63c-3.36,0.12-6.09,0.96-7.29,1.54c-1.08,0.54-1.47,1.77-1.47,3.05c0,2.82,1.97,5.48,4.17,5.48
		c1.08,0,2.85-0.89,4.59-2.24V156.63z"/>
	<path class="st1" d="M443.29,161.11h4.01l0.27,0.69c1.97,5.05,4.36,6.91,7.71,6.91c2.7,0,4.94-1.31,4.94-4.24
		c0-2.39-1.5-4.21-6.91-6.37c-6.9-2.78-9.49-5.55-9.49-10.38c0-6.6,5.55-11.5,14.81-11.5c4.24,0,8.06,0.89,9.57,0.81l1.23,9.49
		h-4.01l-0.35-0.96c-1.47-4.13-3.78-5.09-6.17-5.09c-2.58,0-4.13,1.35-4.13,3.39c0,2.7,1.97,3.97,5.9,5.55
		c8.06,3.24,10.49,6.25,10.49,10.99c0,8.18-6.87,12.92-16.39,12.92c-3.82,0-7.41-0.69-9.64-1.81L443.29,161.11z"/>
	<path class="st1" d="M501.43,166.74c-4.44,4.44-9.22,6.6-14.5,6.6c-5.86,0-9.33-3.63-9.26-10.15l0.19-17.47
		c0.04-2.16-0.15-3.28-1.54-3.82l-2.85-1.12c0-0.08,0-2.43,0-2.43l15.58-8.22l-0.31,7.17h11.46l-0.35,3.55
		c-0.54,1.04-2.35,1.62-6.37,1.62h-4.51v18.17c0,3.47,1.7,5.17,4.86,5.17c2.24,0,4.55-0.62,7.06-1.74L501.43,166.74z"/>
</g>
<g>
	<path class="st1" d="M539.74,190.93c-12.96-5.01-22.41-19.44-22.41-37.19s9.45-32.17,22.41-37.19l1.04,2.28
		c-10.11,5.52-17.82,18.67-17.82,34.91s7.71,29.39,17.82,34.91L539.74,190.93z"/>
</g>
<path class="st1" d="M551.09,161.18v-20.56c0-4.01-0.5-4.82-2.89-4.94l-2.58-0.12v-2.43h17.28v2.43l-2.82,0.27
	c-2.28,0.23-2.66,0.85-2.66,4.74v18.55c0,7.29,3.16,10.53,9.88,10.53c7.48,0,11.3-3.51,11.3-10.88V140.7c0-4.2-0.58-4.98-3.51-5.05
	l-3.01-0.08v-2.43h15.74v2.43l-2.35,0.19c-2.66,0.23-3.09,0.89-3.09,4.98v19.67c0,7.87-6.56,12.85-16.28,12.85
	S551.09,169.17,551.09,161.18z M601.7,169.83l3.09-0.08c2.82-0.08,3.28-1.31,3.28-4.4v-28.89h-4.74c-5.21,0-6.17,0.23-7.14,4.05
	l-0.73,2.89h-3.01l1.31-10.72c1.5,0.31,3.43,0.46,6.79,0.46h22.3c3.36,0,5.28-0.15,6.79-0.46l-1.23,10.72h-3.01v-2.89
	c0-4.01-0.5-4.05-5.67-4.05h-5.36v28.89c0,3.09,0.46,4.32,3.28,4.4l3.09,0.08v2.43H601.7V169.83z M655.44,132.14
	c4.28,0,7.6,0.89,10.69,0.93l1.5,10.49h-2.93l-1.12-2.89c-1.7-4.17-4.24-5.55-9.1-5.55c-9.8,0-14.43,6.83-14.43,17.86
	c0,10.15,5.36,17.28,14.62,17.28c4.63,0,7.44-1.5,9.03-5.67l1.27-3.32l2.93-0.04l-1.66,9.45c-2.93,1.54-7.52,2.58-13.23,2.58
	c-12.42,0-19.87-7.52-19.87-19.6C633.14,140.89,641.94,132.14,655.44,132.14z"/>
<path class="st1" d="M689.43,154.43h-16.05v-3.82h16.05v-16.97h4.13v16.97h16.01v3.82h-16.01v17.82h-4.13V154.43z M716.2,155.09
	c0-11.96,7.37-21.25,17.74-21.25c9.57,0,15.89,7.56,15.89,18.05c0,11.96-7.37,21.25-17.71,21.25
	C722.53,173.14,716.2,165.58,716.2,155.09z M743.28,154.16c0-9.45-4.44-17.01-10.61-17.01c-5.86,0-9.88,6.6-9.88,15.7
	c0,9.45,4.47,16.93,10.57,16.93C739.23,169.79,743.28,163.19,743.28,154.16z M757.55,170.94l10.99-11.96
	c5.79-6.33,8.41-10.07,8.41-14.12c0-3.36-2.16-6.02-6.33-6.02c-3.63,0-6.21,2.31-8.91,7.29l-2.08-0.66
	c1.66-6.94,6.75-11.57,13.31-11.57c6.02,0,10.96,3.51,10.96,9.68c0,4.05-1.58,7.56-11.3,16.47l-7.06,6.52v0.15l14.7-0.35
	c4.32-0.12,4.94-1,5.67-3.09l0.85-2.74h3.12l-2.12,11.69h-30.2V170.94z M803.69,137.31c2.97,0,4.94,2.01,4.94,5.13
	s-1.97,5.21-4.94,5.21c-3.09,0-5.13-2.08-5.13-5.21S800.61,137.31,803.69,137.31z M803.69,162.77c2.97,0,4.94,2.04,4.94,5.21
	c0,3.12-1.97,5.21-4.94,5.21c-3.09,0-5.13-2.08-5.13-5.21C798.56,164.81,800.61,162.77,803.69,162.77z M818.74,155.09
	c0-11.96,7.37-21.25,17.74-21.25c9.57,0,15.89,7.56,15.89,18.05c0,11.96-7.37,21.25-17.71,21.25
	C825.06,173.14,818.74,165.58,818.74,155.09z M845.82,154.16c0-9.45-4.44-17.01-10.61-17.01c-5.86,0-9.88,6.6-9.88,15.7
	c0,9.45,4.47,16.93,10.57,16.93C841.77,169.79,845.82,163.19,845.82,154.16z M860.25,155.09c0-11.96,7.37-21.25,17.74-21.25
	c9.57,0,15.89,7.56,15.89,18.05c0,11.96-7.37,21.25-17.71,21.25C866.57,173.14,860.25,165.58,860.25,155.09z M887.33,154.16
	c0-9.45-4.44-17.01-10.61-17.01c-5.86,0-9.88,6.6-9.88,15.7c0,9.45,4.47,16.93,10.57,16.93
	C883.28,169.79,887.33,163.19,887.33,154.16z"/>
<g>
	<path class="st1" d="M898.98,188.65c10.11-5.52,17.82-18.67,17.82-34.91s-7.71-29.39-17.82-34.91l1.04-2.28
		c12.96,5.01,22.41,19.44,22.41,37.19s-9.45,32.17-22.41,37.19L898.98,188.65z"/>
</g>
<g>
	<path class="st1" d="M38.35,250.18l2.28-0.15c2.16-0.15,2.62-0.81,2.62-3.28v-16.89c0-2.58-0.35-3.47-1.5-4.4l-2.7-2.16v-2.39
		l16.12-3.67c-0.31,2.28-0.62,6.67-0.62,11.65v17.86c0,2.47,0.46,3.12,2.62,3.28l2.28,0.15v3.55h-21.1V250.18z M42.29,206.98
		c0-3.55,2.58-6.02,6.25-6.02c3.66,0,6.25,2.47,6.25,6.02c0,3.59-2.55,6.09-6.25,6.09S42.29,210.57,42.29,206.98z"/>
	<path class="st1" d="M62.93,242.58h4.01l0.27,0.7c1.97,5.05,4.36,6.9,7.71,6.9c2.7,0,4.94-1.31,4.94-4.24c0-2.39-1.5-4.2-6.9-6.36
		c-6.91-2.78-9.49-5.55-9.49-10.38c0-6.6,5.55-11.5,14.81-11.5c4.24,0,8.06,0.89,9.57,0.81l1.23,9.49h-4.01l-0.35-0.96
		c-1.47-4.13-3.78-5.09-6.17-5.09c-2.58,0-4.13,1.35-4.13,3.39c0,2.7,1.97,3.97,5.9,5.55c8.06,3.24,10.49,6.25,10.49,10.99
		c0,8.18-6.87,12.92-16.39,12.92c-3.82,0-7.41-0.69-9.64-1.81L62.93,242.58z"/>
	<path class="st1" d="M134.02,248.22c-4.44,4.44-9.22,6.6-14.5,6.6c-5.86,0-9.33-3.63-9.26-10.14l0.19-17.47
		c0.04-2.16-0.15-3.28-1.54-3.82l-2.85-1.12c0-0.08,0-2.43,0-2.43l15.58-8.22l-0.31,7.17h11.46l-0.35,3.55
		c-0.54,1.04-2.35,1.62-6.36,1.62h-4.51v18.17c0,3.47,1.7,5.17,4.86,5.17c2.24,0,4.55-0.62,7.06-1.74L134.02,248.22z"/>
	<path class="st1" d="M134.76,250.18l2.28-0.15c2.16-0.15,2.58-0.81,2.58-3.28V211.3c0-2.55-0.35-3.55-1.5-4.44l-2.89-2.16v-2.39
		l16.66-3.36c-0.54,2.16-1,6.67-1,11.69v5.21c0,2.93,0.12,4.71-0.12,7.25l0.12,0.08l1.62-1.16c3.12-2.28,6.98-4.32,11.19-4.32
		c6.36,0,10.07,4.2,10.07,11.07c0,4.24-0.04,12.84-0.04,18.36c0,2.16,0.58,2.74,2.62,2.89l2.28,0.15v3.55H157.9v-3.55l1.93-0.15
		c2.16-0.15,2.62-0.81,2.62-3.28v-13.65c0-5.48-1.27-7.71-5.55-7.71c-2.12,0-4.24,0.62-5.98,1.46v19.9c0,2.47,0.46,3.36,2.62,3.39
		l1.62,0.04v3.55h-20.41V250.18z"/>
	<path class="st1" d="M199.95,217.7c6.17,0,10.45,3.59,12.58,10.07c0.69,2.16,1.43,3.16,2.08,3.55l-0.81,2.24
		c-8.56,0.73-14.74,0.93-21.87,0.85v0.15c0.39,7.06,4.55,12.34,11.92,12.34c2.97,0,7.06-1.31,9.64-2.43l0.58,2.66
		c-4.86,4.55-10.26,7.68-16.62,7.68c-9.76,0-16.59-7.02-16.59-17.4C180.86,225.84,190.42,217.7,199.95,217.7z M204.46,229.55
		c-0.96-4.75-3.28-7.18-6.4-7.18c-3.47,0-5.55,3.16-6.06,8.26L204.46,229.55z"/>
	<path class="st1" d="M230.89,242.58h4.01l0.27,0.7c1.97,5.05,4.36,6.9,7.71,6.9c2.7,0,4.94-1.31,4.94-4.24
		c0-2.39-1.5-4.2-6.91-6.36c-6.9-2.78-9.49-5.55-9.49-10.38c0-6.6,5.55-11.5,14.81-11.5c4.24,0,8.06,0.89,9.57,0.81l1.23,9.49h-4.01
		l-0.35-0.96c-1.47-4.13-3.78-5.09-6.17-5.09c-2.58,0-4.13,1.35-4.13,3.39c0,2.7,1.97,3.97,5.9,5.55
		c8.06,3.24,10.49,6.25,10.49,10.99c0,8.18-6.87,12.92-16.39,12.92c-3.82,0-7.41-0.69-9.64-1.81L230.89,242.58z"/>
	<path class="st1" d="M289.02,248.22c-4.44,4.44-9.22,6.6-14.5,6.6c-5.86,0-9.33-3.63-9.26-10.14l0.19-17.47
		c0.04-2.16-0.15-3.28-1.54-3.82l-2.85-1.12c0-0.08,0-2.43,0-2.43l15.58-8.22l-0.31,7.17h11.46l-0.35,3.55
		c-0.54,1.04-2.35,1.62-6.36,1.62h-4.51v18.17c0,3.47,1.7,5.17,4.86,5.17c2.24,0,4.55-0.62,7.06-1.74L289.02,248.22z"/>
	<path class="st1" d="M311.59,249.33c-4.28,3.74-7.87,5.48-11.11,5.48c-4.86,0-9.57-4.09-9.53-10.76c0-2.97,0.89-5.21,2.97-6.4
		c2.04-1.16,6.25-2.47,17.2-4.17v-5.17c0-3.74-1.35-5.48-4.71-5.48c-1.58,0-2.89,0.46-3.47,1.16c-0.46,0.58-0.35,1.23-0.04,3.7
		c-1.27,1.12-4.13,2.31-6.52,2.31c-2.28,0-3.63-1.12-3.63-3.01c0-4.59,10.45-9.3,20.17-9.3c7.29,0,9.64,3.51,9.53,9.84l-0.27,14.16
		c-0.08,4.32,0.66,6.33,2.01,6.33c0.58,0,1.85-0.5,3.05-1.16l0.66,3.63c-3.51,2.7-7.52,4.24-10.38,4.24c-2.93,0-4.98-1.47-5.75-5.4
		H311.59z M311.13,238.11c-3.36,0.12-6.09,0.96-7.29,1.54c-1.08,0.54-1.47,1.78-1.47,3.05c0,2.82,1.97,5.48,4.17,5.48
		c1.08,0,2.85-0.89,4.59-2.24V238.11z"/>
	<path class="st1" d="M330.5,250.18l2.28-0.15c2.16-0.15,2.58-0.81,2.58-3.28V230.2c0-2.55-0.39-3.47-1.5-4.4l-2.7-2.16v-2.39
		l15.31-4.01l-0.12,5.98l0.15,0.08l1.74-1.27c3.12-2.28,6.98-4.32,11.19-4.32c6.36,0,10.14,4.2,10.14,11.07
		c0,5.28-0.08,13.54-0.08,17.97c0,2.47,0.46,3.12,2.62,3.28l2.28,0.15v3.55h-20.71v-3.55l1.93-0.15c2.16-0.15,2.62-0.81,2.62-3.28
		v-13.65c0-5.48-1.31-7.71-5.59-7.71c-2.12,0-4.28,0.62-5.98,1.46v19.9c0,2.47,0.46,3.36,2.62,3.39l1.62,0.04v3.55H330.5V250.18z"/>
	<path class="st1" d="M402.4,211.26c0-2.54-0.31-3.51-1.47-4.4l-2.89-2.2v-2.43l16.62-3.32c-0.5,2.16-0.96,6.71-0.96,11.65v34.21
		c0,3.32,0.5,4.47,2.39,4.47c0.35,0,1.43-0.12,1.85-0.15l0.19,3.55l-15.24,2.28l-0.12-4.94l-0.15-0.04l-1.47,1
		c-3.63,2.62-6.71,3.86-9.84,3.86c-8.6,0-14.7-6.79-14.7-16.74c0-12.11,9.45-20.37,21.06-20.37c1.7,0,3.32,0.08,4.71,0.42V211.26z
		 M402.4,228.81c0-4.59-2.12-6.44-5.63-6.44c-4.55,0-8.18,3.86-8.18,12.5c0,7.71,3.63,12.58,9.37,12.58c1.2,0,2.78-0.27,4.44-0.96
		V228.81z"/>
	<path class="st1" d="M441.98,249.33c-4.28,3.74-7.87,5.48-11.11,5.48c-4.86,0-9.57-4.09-9.53-10.76c0-2.97,0.89-5.21,2.97-6.4
		c2.04-1.16,6.25-2.47,17.2-4.17v-5.17c0-3.74-1.35-5.48-4.71-5.48c-1.58,0-2.89,0.46-3.47,1.16c-0.46,0.58-0.35,1.23-0.04,3.7
		c-1.27,1.12-4.13,2.31-6.52,2.31c-2.28,0-3.63-1.12-3.63-3.01c0-4.59,10.45-9.3,20.17-9.3c7.29,0,9.64,3.51,9.53,9.84l-0.27,14.16
		c-0.08,4.32,0.66,6.33,2.01,6.33c0.58,0,1.85-0.5,3.05-1.16l0.66,3.63c-3.51,2.7-7.52,4.24-10.38,4.24c-2.93,0-4.98-1.47-5.75-5.4
		H441.98z M441.52,238.11c-3.36,0.12-6.09,0.96-7.29,1.54c-1.08,0.54-1.47,1.78-1.47,3.05c0,2.82,1.97,5.48,4.17,5.48
		c1.08,0,2.85-0.89,4.59-2.24V238.11z"/>
	<path class="st1" d="M460.89,250.18l2.28-0.15c2.16-0.15,2.62-0.81,2.62-3.28v-16.89c0-2.58-0.35-3.51-1.5-4.4l-2.7-2.16v-2.39
		l15.31-3.67l-0.04,7.14l0.15,0.04l0.81-1.31c1.97-3.2,5.09-5.4,8.29-5.4c2.74,0,4.67,1.74,4.67,4.09c0,2.39-2.47,5.55-4.05,6.33
		l-2.58-1.12c-1.74-0.77-3.12-1.08-3.9-1.08c-0.73,0-1.39,0.42-2.28,1.54l-0.89,1.12v18.36c0,2.47,0.77,3.01,2.58,3.09l3.59,0.15
		v3.55h-22.37V250.18z"/>
	<path class="st1" d="M517.13,211.26c0-2.54-0.31-3.51-1.47-4.4l-2.89-2.2v-2.43l16.63-3.32c-0.5,2.16-0.96,6.71-0.96,11.65v34.21
		c0,3.32,0.5,4.47,2.39,4.47c0.35,0,1.43-0.12,1.85-0.15l0.19,3.55l-15.24,2.28l-0.12-4.94l-0.15-0.04l-1.47,1
		c-3.63,2.62-6.71,3.86-9.84,3.86c-8.6,0-14.7-6.79-14.7-16.74c0-12.11,9.45-20.37,21.06-20.37c1.7,0,3.32,0.08,4.71,0.42V211.26z
		 M517.13,228.81c0-4.59-2.12-6.44-5.63-6.44c-4.55,0-8.18,3.86-8.18,12.5c0,7.71,3.63,12.58,9.37,12.58c1.2,0,2.78-0.27,4.44-0.96
		V228.81z"/>
	<path class="st1" d="M549.46,250.18l2.28-0.15c2.16-0.15,2.58-0.81,2.58-3.28v-16.89c0-2.58-0.35-3.47-1.5-4.4l-2.7-2.16v-2.39
		l15.31-3.67l-0.04,6.06l0.12,0.04l1.77-1.35c3.09-2.39,6.48-4.28,10.68-4.28c4.59,0,7.83,2.2,9.3,5.98h0.12l2.28-1.7
		c3.09-2.31,6.48-4.28,10.68-4.28c6.37,0,10.15,4.2,10.15,11.07c0,5.98-0.08,12-0.08,17.97c0,2.47,0.42,3.12,2.58,3.28l2.28,0.15
		v3.55h-20.41v-3.55l1.62-0.04c2.16-0.04,2.66-0.93,2.66-3.39v-13.65c0-5.48-1.31-7.71-5.55-7.71c-2.01,0-3.97,0.46-5.63,1.27
		c0.12,0.66,0.15,1.39,0.15,2.12c0,5.17-0.08,13.58-0.08,18.01c0,2.43,0.46,3.09,2.62,3.24l1.93,0.15v3.55h-20.41v-3.55l1.93-0.15
		c2.16-0.15,2.62-0.81,2.62-3.28l0.04-13.65c0-5.48-1.31-7.71-5.55-7.71c-2.01,0-3.97,0.46-5.59,1.27v20.71
		c0,2.01,0.62,2.74,2.58,2.78l1.62,0.04v3.55h-20.37V250.18z"/>
	<path class="st1" d="M636.6,217.7c6.17,0,10.45,3.59,12.58,10.07c0.69,2.16,1.43,3.16,2.08,3.55l-0.81,2.24
		c-8.56,0.73-14.74,0.93-21.87,0.85v0.15c0.39,7.06,4.55,12.34,11.92,12.34c2.97,0,7.06-1.31,9.64-2.43l0.58,2.66
		c-4.86,4.55-10.26,7.68-16.62,7.68c-9.76,0-16.59-7.02-16.59-17.4C617.51,225.84,627.07,217.7,636.6,217.7z M641.11,229.55
		c-0.96-4.75-3.28-7.18-6.4-7.18c-3.47,0-5.55,3.16-6.06,8.26L641.11,229.55z"/>
	<path class="st1" d="M654.7,250.18l2.28-0.15c2.16-0.15,2.62-0.81,2.62-3.28v-16.89c0-2.58-0.35-3.51-1.5-4.4l-2.7-2.16v-2.39
		l15.31-3.67l-0.04,7.14l0.15,0.04l0.81-1.31c1.97-3.2,5.09-5.4,8.29-5.4c2.74,0,4.67,1.74,4.67,4.09c0,2.39-2.47,5.55-4.05,6.33
		l-2.58-1.12c-1.74-0.77-3.12-1.08-3.9-1.08c-0.73,0-1.39,0.42-2.28,1.54l-0.89,1.12v18.36c0,2.47,0.77,3.01,2.58,3.09l3.59,0.15
		v3.55H654.7V250.18z"/>
	<path class="st1" d="M686.33,250.18l2.28-0.15c2.16-0.15,2.62-0.81,2.62-3.28v-16.89c0-2.58-0.35-3.47-1.5-4.4l-2.7-2.16v-2.39
		l16.12-3.67c-0.31,2.28-0.62,6.67-0.62,11.65v17.86c0,2.47,0.46,3.12,2.62,3.28l2.28,0.15v3.55h-21.1V250.18z M690.26,206.98
		c0-3.55,2.58-6.02,6.25-6.02c3.67,0,6.25,2.47,6.25,6.02c0,3.59-2.55,6.09-6.25,6.09S690.26,210.57,690.26,206.98z"/>
	<path class="st1" d="M735.94,211.26c0-2.54-0.31-3.51-1.47-4.4l-2.89-2.2v-2.43l16.63-3.32c-0.5,2.16-0.96,6.71-0.96,11.65v34.21
		c0,3.32,0.5,4.47,2.39,4.47c0.35,0,1.43-0.12,1.85-0.15l0.19,3.55l-15.24,2.28l-0.12-4.94l-0.15-0.04l-1.47,1
		c-3.63,2.62-6.71,3.86-9.84,3.86c-8.6,0-14.7-6.79-14.7-16.74c0-12.11,9.45-20.37,21.06-20.37c1.7,0,3.32,0.08,4.71,0.42V211.26z
		 M735.94,228.81c0-4.59-2.12-6.44-5.63-6.44c-4.55,0-8.18,3.86-8.18,12.5c0,7.71,3.63,12.58,9.37,12.58c1.2,0,2.78-0.27,4.44-0.96
		V228.81z"/>
	<path class="st1" d="M755.3,250.18l2.28-0.15c2.16-0.15,2.62-0.81,2.62-3.28v-16.89c0-2.58-0.35-3.47-1.5-4.4l-2.7-2.16v-2.39
		l16.12-3.67c-0.31,2.28-0.62,6.67-0.62,11.65v17.86c0,2.47,0.46,3.12,2.62,3.28l2.28,0.15v3.55h-21.1V250.18z M759.24,206.98
		c0-3.55,2.58-6.02,6.25-6.02c3.66,0,6.25,2.47,6.25,6.02c0,3.59-2.55,6.09-6.25,6.09S759.24,210.57,759.24,206.98z"/>
	<path class="st1" d="M800.21,249.33c-4.28,3.74-7.87,5.48-11.11,5.48c-4.86,0-9.57-4.09-9.53-10.76c0-2.97,0.89-5.21,2.97-6.4
		c2.04-1.16,6.25-2.47,17.2-4.17v-5.17c0-3.74-1.35-5.48-4.71-5.48c-1.58,0-2.89,0.46-3.47,1.16c-0.46,0.58-0.35,1.23-0.04,3.7
		c-1.27,1.12-4.13,2.31-6.52,2.31c-2.28,0-3.63-1.12-3.63-3.01c0-4.59,10.45-9.3,20.17-9.3c7.29,0,9.64,3.51,9.53,9.84l-0.27,14.16
		c-0.08,4.32,0.66,6.33,2.01,6.33c0.58,0,1.85-0.5,3.05-1.16l0.66,3.63c-3.51,2.7-7.52,4.24-10.38,4.24c-2.93,0-4.98-1.47-5.75-5.4
		H800.21z M799.74,238.11c-3.36,0.12-6.09,0.96-7.29,1.54c-1.08,0.54-1.47,1.78-1.47,3.05c0,2.82,1.97,5.48,4.17,5.48
		c1.08,0,2.85-0.89,4.59-2.24V238.11z"/>
	<path class="st1" d="M819.11,250.18l2.28-0.15c2.16-0.15,2.58-0.81,2.58-3.28V230.2c0-2.55-0.39-3.47-1.5-4.4l-2.7-2.16v-2.39
		l15.31-4.01l-0.12,5.98l0.15,0.08l1.74-1.27c3.12-2.28,6.98-4.32,11.19-4.32c6.36,0,10.14,4.2,10.14,11.07
		c0,5.28-0.08,13.54-0.08,17.97c0,2.47,0.46,3.12,2.62,3.28l2.28,0.15v3.55h-20.71v-3.55l1.93-0.15c2.16-0.15,2.62-0.81,2.62-3.28
		v-13.65c0-5.48-1.31-7.71-5.59-7.71c-2.12,0-4.28,0.62-5.98,1.46v19.9c0,2.47,0.46,3.36,2.62,3.39l1.62,0.04v3.55h-20.41V250.18z"
		/>
</g>
<g>
	<path class="st1" d="M63.2,300.26l-0.35,3.55c-0.54,1.04-2.35,1.62-6.33,1.62h-2.24v22.99c0,2.47,0.77,3.01,2.58,3.09l3.59,0.15
		v3.55H38.08v-3.55l2.28-0.15c2.16-0.15,2.62-0.81,2.62-3.28v-22.8h-4.51v-3.67l2.58-0.66c1.66-0.42,1.81-1.47,1.85-3.2
		c0.27-10.11,9.18-18.71,20.37-18.71c6.29,0,9.03,3.01,9.03,6.09c0,1.85-1.7,3.59-4.28,4.21l-2.04-1.62
		c-2.39-1.89-5.05-2.97-7.06-2.97c-3.7,0-4.82,3.67-4.74,15.35H63.2z"/>
	<path class="st1" d="M64.12,319.2c0-11.42,8.56-20.02,20.44-20.02c11.19,0,18.86,7.33,18.86,17.44c0,11.34-8.76,19.67-20.71,19.67
		C71.64,336.29,64.12,329.03,64.12,319.2z M90.58,317.96c0-7.95-2.7-14.04-6.9-14.04c-4.17,0-6.83,5.98-6.83,13.62
		c0,7.98,2.78,14,7.02,14C88.04,331.54,90.58,325.95,90.58,317.96z"/>
	<path class="st1" d="M107.44,331.66l2.28-0.15c2.16-0.15,2.62-0.81,2.62-3.28v-16.9c0-2.58-0.35-3.51-1.5-4.4l-2.7-2.16v-2.39
		l15.31-3.66l-0.04,7.14l0.15,0.04l0.81-1.31c1.97-3.2,5.09-5.4,8.29-5.4c2.74,0,4.67,1.74,4.67,4.09c0,2.39-2.47,5.55-4.05,6.33
		l-2.58-1.12c-1.74-0.77-3.12-1.08-3.9-1.08c-0.73,0-1.39,0.42-2.28,1.54l-0.89,1.12v18.36c0,2.47,0.77,3.01,2.58,3.09l3.59,0.15
		v3.55h-22.37V331.66z"/>
</g>
<g>
	<path class="st1" d="M152.77,335.21l0.69-3.47l3.05-0.19c2.39-0.15,3.12-1.16,3.63-3.7l6.9-34.45c0.5-2.55,0.08-3.55-2.24-3.7
		l-2.89-0.19l0.69-3.47h29.12c4.09,0,6.79-0.27,8.6-0.66l-2.66,12.34h-4.13l0.42-2.39c0.62-3.43-0.31-4.47-7.75-4.47h-6.79
		l-3.24,16.12h9.68c3.16,0,3.28-0.46,4.21-2.62l0.81-1.89h3.78l-2.78,13.85h-3.78l-0.04-1.89c-0.04-2.2,0-2.62-3.16-2.62h-9.68
		l-2.85,14.35c-0.66,3.24,0.35,4.24,6.02,4.24c8.41,0,10.22-1.43,12.54-6.52l1.66-3.63h4.63l-5.13,14.97H152.77z"/>
	<path class="st1" d="M200.46,317.85c2.31-11.69,10.26-19.6,22.1-19.6c2.47,0,5.59,0.5,8.37,1.35c0.69,0.19,1.04,0.31,1.43,0.31
		c0.69,0,0.93-0.27,1.27-1.54l0.62-2.08l4.09,0.81c-1.31,4.05-2.35,7.48-3.24,11.53l-1.31,6.13c-2.2,10.03-2.2,14.35-0.58,14.35
		c0.96,0,2.16-0.85,5.86-3.93l1,3.05c-3.74,5.21-8.33,8.06-12.96,8.06c-5.28,0-7.64-2.78-3.9-15.89l-0.42-0.08
		c-5.17,10.8-10.61,15.97-15.74,15.97C201.03,336.29,198.26,328.73,200.46,317.85z M219.01,320.66c2.58-4.13,4.24-8.22,5.59-12.77
		l0.35-1.16c0.62-2.01-1.77-3.66-5.21-3.66c-4.05,0-6.4,3.36-7.95,10.99c-1.81,8.83-0.39,12.84,1.39,12.84
		C214.46,326.91,216.43,324.79,219.01,320.66z"/>
	<path class="st1" d="M240.73,328.76c0.39-2.04,1.74-3.2,3.74-4.13c3.59,4.74,6.48,5.71,8.64,5.71c2.35,0,3.82-1.35,4.17-3.16
		c0.35-1.74-0.35-3.28-5.09-6.17c-6.52-3.97-8.64-7.37-7.6-12.38c1.04-5.09,7.37-10.38,16.01-10.38c5.28,0,9.18,2.62,8.52,6.02
		c-0.42,2.12-2.16,4.13-4.4,4.59c-3.16-3.51-6.02-5.36-8.18-5.36c-1.35,0-2.47,0.73-2.78,2.16c-0.35,1.77,0.5,3.28,5.52,6.29
		c6.75,4.05,8.64,6.94,7.71,11.61c-1.54,7.71-8.6,12.73-16.7,12.73C244.47,336.29,239.92,333.12,240.73,328.76z"/>
	<path class="st1" d="M273.48,327.18l5.25-22.91h-4.94l0.73-3.86l3.09-0.5c1.58-0.27,1.97-0.58,2.24-1.7l1.08-4.47
		c0.73-3.09,2.74-4.94,5.86-4.94c3.47,0,5.21,2.31,4.4,5.86l-1.08,4.67h8.37l-0.66,3.51c-0.73,1.04-2.7,1.43-6.63,1.43h-2.04
		l-3.59,17.47c-1.04,5.13-0.93,6.87,0.39,6.87c1.93,0,5.4-2.54,8.33-4.78l1.27,2.97c-3.78,5.44-9.18,9.49-15.35,9.49
		C274.75,336.29,272.02,333.47,273.48,327.18z"/>
	<path class="st1" d="M299.17,316.57c2.16-11.03,10.22-18.32,20.17-18.32c7.25,0,10.72,4.24,9.88,8.45
		c-0.89,4.44-4.67,7.79-14.12,9.95l-4.78,1.12c-0.46,7.06,1.35,10.76,4.59,10.76c2.12,0,6.21-1.74,11.65-5.25l1.43,2.89
		c-7.14,6.98-13.15,10.11-18.21,10.11C301.68,336.29,296.82,328.26,299.17,316.57z M313.56,313.03c3.7-0.89,6.25-3.12,6.79-5.86
		c0.46-2.28-0.81-4.17-2.78-4.17c-2.2,0-5.28,2.31-6.63,9.88c-0.04,0.27-0.08,0.58-0.15,0.85L313.56,313.03z"/>
	<path class="st1" d="M333.43,335.17c1.89-5.48,2.62-7.68,3.82-13.69c2.31-11.76,2.28-15.43,0.62-15.43c-1,0-2.62,1.31-4.75,3.32
		l-1-3.01c3.12-4.4,7.87-8.1,12.65-8.1c3.09,0,4.94,1.08,5.98,3.01c-0.5,3.67-1.74,8.22-2.7,11.57l0.39,0.12
		c4.78-10.69,8.52-14.7,12.84-14.7c3.09,0,4.63,2.01,3.97,5.17c-0.5,2.55-2.62,5.71-4.94,7.1c-2.08-1.5-2.82-2.39-3.78-2.39
		c-1.23,0-3.63,2.31-7.33,9.1c-0.81,1.43-1.2,2.78-1.47,4.36c-0.46,2.82-0.96,6.06-1.93,10.11c-0.62,2.58-3.43,4.51-8.45,4.51
		c-1.08,0-2.24-0.08-3.51-0.27L333.43,335.17z"/>
	<path class="st1" d="M366.72,335.17c1.89-5.48,2.62-7.68,3.82-13.69c2.31-11.76,2.28-15.43,0.62-15.43c-1,0-2.62,1.31-4.74,3.32
		l-1-3.01c3.12-4.4,7.87-8.1,12.65-8.1c3.09,0,5.36,1.08,6.4,3.01c-0.58,3.67-2.04,7.79-2.93,11.15l0.39,0.12
		c5.25-9.88,10.68-14.27,17.2-14.27c5.01,0,6.83,3.7,5.75,8.79l-3.09,14.39c-1.39,6.48-1,7.68-0.04,7.68c0.85,0,1.77-0.66,5.44-3.93
		l1,3.05c-3.12,4.36-7.56,8.06-12.96,8.06c-4.51,0-6.98-2.62-6.09-6.6l3.9-17.78c0.81-3.74,0.35-4.82-0.89-4.82
		c-2.01,0-5.71,3.7-9.06,8.41c-1.16,1.62-1.58,2.74-1.81,4.36c-0.46,3.24-1,6.94-2.16,11.84c-0.62,2.58-3.43,4.51-8.45,4.51
		c-1.08,0-2.24-0.08-3.51-0.27L366.72,335.17z"/>
	<path class="st1" d="M419.76,335.21l0.69-3.47l3.05-0.19c2.39-0.15,3.12-1.16,3.63-3.7l6.9-34.45c0.5-2.55,0.08-3.55-2.24-3.7
		l-2.89-0.19l0.69-3.47h29.12c4.09,0,6.79-0.27,8.6-0.66l-2.66,12.34h-4.13l0.42-2.39c0.62-3.43-0.31-4.47-7.75-4.47h-6.79
		l-3.24,16.12h9.68c3.16,0,3.28-0.46,4.21-2.62l0.81-1.89h3.78l-2.78,13.85h-3.78l-0.04-1.89c-0.04-2.2,0-2.62-3.16-2.62h-9.68
		l-2.85,14.35c-0.66,3.24,0.35,4.24,6.02,4.24c8.41,0,10.22-1.43,12.54-6.52l1.66-3.63h4.63l-5.13,14.97H419.76z"/>
	<path class="st1" d="M506.48,299.37c-1.77,5.48-2.43,7.75-3.55,12.77c-2.82,12.69-2.82,16.97-1.2,16.97c0.96,0,2.16-0.85,5.86-3.93
		l1,3.05c-3.74,5.21-8.33,8.06-12.96,8.06c-5.05,0-7.06-3.47-3.86-14.85l-0.39-0.15c-5.48,10.68-9.68,15-16.2,15
		c-5.01,0-6.83-3.7-5.75-8.79l3.09-14.39c1.39-6.48,0.39-7.06-0.35-7.06c-0.85,0-1.7,0.58-4.74,3.32l-1-3.05
		c3.12-4.36,7.71-8.06,12.65-8.06c3.63,0,5.94,1.35,6.75,3.82l-4.55,20.56c-0.81,3.74-0.35,4.82,0.89,4.82s3.2-1.97,7.52-8.41
		c1.7-2.54,2.12-4.09,2.58-6.48c0.46-2.47,0.69-4.82,1.81-9.72c0.62-2.58,3.43-4.51,8.45-4.51c1.08,0,2.24,0.08,3.51,0.27
		L506.48,299.37z"/>
	<path class="st1" d="M512.16,335.17c1.89-5.48,2.62-7.68,3.82-13.69c2.31-11.76,2.28-15.43,0.62-15.43c-1,0-2.62,1.31-4.74,3.32
		l-1-3.01c3.12-4.4,7.87-8.1,12.65-8.1c3.09,0,4.94,1.08,5.98,3.01c-0.5,3.67-1.74,8.22-2.7,11.57l0.39,0.12
		c4.78-10.69,8.53-14.7,12.85-14.7c3.09,0,4.63,2.01,3.97,5.17c-0.5,2.55-2.62,5.71-4.94,7.1c-2.08-1.5-2.82-2.39-3.78-2.39
		c-1.23,0-3.63,2.31-7.33,9.1c-0.81,1.43-1.2,2.78-1.47,4.36c-0.46,2.82-0.96,6.06-1.93,10.11c-0.62,2.58-3.43,4.51-8.45,4.51
		c-1.08,0-2.24-0.08-3.51-0.27L512.16,335.17z"/>
	<path class="st1" d="M543.25,316.04c2.28-11.26,10.38-17.78,20.06-17.78c10.68,0,17.32,7.95,14.85,20.25
		c-2.24,11.3-10.34,17.78-20.02,17.78C547.41,336.29,540.82,328.34,543.25,316.04z M566.24,317.96c1.47-9.72,0.31-14.89-3.2-14.89
		c-3.01,0-6.52,5.13-7.83,13.5c-1.47,9.72-0.31,14.89,3.51,14.89C561.42,331.47,564.93,326.33,566.24,317.96z"/>
	<path class="st1" d="M574.65,353.61l0.77-3.39l2.51-0.19c1.7-0.12,2.39-0.58,2.85-2.93l6.94-34.79c-1.89,1-3.93,2.12-6.13,3.43
		l-0.62-3.47c2.97-1.77,5.52-3.24,7.71-4.44l2.66-14.08c0.66-3.51,3.47-4.94,6.13-4.94c3.47,0,5.44,2.31,4.63,5.86l-1.89,8.26
		c4.71-3.2,7.75-4.63,11.34-4.63c6.6,0,9.8,5.9,7.75,16.05c-3.2,15.7-15.04,22.18-19.02,22.18c-4.67,0-6.09-4.59-2.39-7.95
		c1.62,0.96,2.93,1.77,4.4,1.77c1.31,0,3.67-3.82,5.21-11.46c1.77-8.79,0.58-13.19-3.93-13.19c-1.27,0-2.43,0.35-4.13,1.16
		l-7.41,39.15c-0.66,3.47-0.23,4.13,2.7,4.17l3.59,0.04l-0.69,3.39H574.65z"/>
	<path class="st1" d="M623.84,316.57c2.16-11.03,10.22-18.32,20.17-18.32c7.25,0,10.72,4.24,9.88,8.45
		c-0.89,4.44-4.67,7.79-14.12,9.95l-4.78,1.12c-0.46,7.06,1.35,10.76,4.59,10.76c2.12,0,6.21-1.74,11.65-5.25l1.43,2.89
		c-7.14,6.98-13.15,10.11-18.21,10.11C626.34,336.29,621.48,328.26,623.84,316.57z M638.22,313.03c3.7-0.89,6.25-3.12,6.79-5.86
		c0.46-2.28-0.81-4.17-2.78-4.17c-2.2,0-5.28,2.31-6.63,9.88c-0.04,0.27-0.08,0.58-0.15,0.85L638.22,313.03z"/>
	<path class="st1" d="M657.78,317.85c2.31-11.69,10.26-19.6,22.1-19.6c2.47,0,5.59,0.5,8.37,1.35c0.69,0.19,1.04,0.31,1.43,0.31
		c0.69,0,0.93-0.27,1.27-1.54l0.62-2.08l4.09,0.81c-1.31,4.05-2.35,7.48-3.24,11.53l-1.31,6.13c-2.2,10.03-2.2,14.35-0.58,14.35
		c0.96,0,2.16-0.85,5.86-3.93l1,3.05c-3.74,5.21-8.33,8.06-12.96,8.06c-5.28,0-7.64-2.78-3.9-15.89l-0.42-0.08
		c-5.17,10.8-10.61,15.97-15.74,15.97C658.36,336.29,655.58,328.73,657.78,317.85z M676.34,320.66c2.58-4.13,4.24-8.22,5.59-12.77
		l0.35-1.16c0.62-2.01-1.77-3.66-5.21-3.66c-4.05,0-6.4,3.36-7.95,10.99c-1.81,8.83-0.39,12.84,1.39,12.84
		C671.78,326.91,673.75,324.79,676.34,320.66z"/>
	<path class="st1" d="M700.22,335.17c1.89-5.48,2.62-7.68,3.82-13.69c2.31-11.76,2.28-15.43,0.62-15.43c-1,0-2.62,1.31-4.74,3.32
		l-1-3.01c3.12-4.4,7.87-8.1,12.65-8.1c3.09,0,5.36,1.08,6.4,3.01c-0.58,3.67-2.04,7.79-2.93,11.15l0.39,0.12
		c5.25-9.88,10.68-14.27,17.2-14.27c5.01,0,6.83,3.7,5.75,8.79l-3.09,14.39c-1.39,6.48-1,7.68-0.04,7.68c0.85,0,1.77-0.66,5.44-3.93
		l1,3.05c-3.12,4.36-7.56,8.06-12.96,8.06c-4.51,0-6.98-2.62-6.09-6.6l3.9-17.78c0.81-3.74,0.35-4.82-0.89-4.82
		c-2.01,0-5.71,3.7-9.06,8.41c-1.16,1.62-1.58,2.74-1.81,4.36c-0.46,3.24-1,6.94-2.16,11.84c-0.62,2.58-3.43,4.51-8.45,4.51
		c-1.08,0-2.24-0.08-3.51-0.27L700.22,335.17z"/>
	<path class="st1" d="M762.4,285.37c1.66,0.39,3.93,0.66,7.99,0.66h29.51c4.01,0,6.4-0.27,8.22-0.66l-4.4,14.58h-4.36l0.66-4.09
		c0.66-4.09,0.08-4.86-4.82-4.86h-5.98l-7.33,36.84c-0.5,2.55-0.08,3.55,2.24,3.7l2.89,0.19l-0.69,3.47h-23.68l0.69-3.47l3.05-0.19
		c2.39-0.15,3.12-1.16,3.63-3.7l7.33-36.84h-6.17c-4.24,0-5.21,0.77-6.83,4.44l-2.01,4.51h-4.36L762.4,285.37z"/>
	<path class="st1" d="M806.07,329.69l3.39-16.55c1.35-6.44,1-7.71,0.19-7.71c-0.93,0-2.78,1.39-5.59,3.93l-1-3.01
		c3.12-4.4,7.87-8.1,12.65-8.1c3.59,0,6.33,1.77,6.87,4.51l-3.86,18.67c-1.31,6.48-1,7.68-0.12,7.68c0.85,0,2.47-0.96,5.55-3.93
		l1,3.05c-3.12,4.36-7.6,8.06-12.96,8.06C807.65,336.29,805.22,333.66,806.07,329.69z M813.67,286.76c0.66-3.24,3.12-5.67,6.48-5.67
		c3.63,0,5.79,2.86,4.98,6.87c-0.66,3.2-3.09,5.59-6.4,5.59C814.87,293.55,812.98,290.31,813.67,286.76z"/>
	<path class="st1" d="M828.95,335.17c1.89-5.48,2.62-7.68,3.82-13.69c2.31-11.76,2.28-15.43,0.62-15.43c-1,0-2.62,1.31-4.75,3.32
		l-1-3.01c3.12-4.4,7.87-8.1,12.65-8.1c3.09,0,4.94,1.08,5.98,3.01c-0.42,3.67-1.5,7.71-2.39,11.07l0.39,0.15
		c5.01-10.3,9.22-14.23,15.35-14.23c4.71,0,7.33,3.51,5.98,8.1l-1.77,6.02l0.39,0.15c5.25-9.84,10.45-14.27,16.63-14.27
		c5.09,0,6.83,3.7,5.75,8.79l-3.09,14.39c-1.39,6.48-0.96,7.68-0.12,7.68c0.96,0,1.62-0.46,5.55-3.93l1,3.05
		c-3.12,4.36-7.6,8.06-12.96,8.06c-4.71,0-7.02-2.62-6.13-6.6l3.9-17.78c0.81-3.74,0.27-4.82-0.77-4.82c-1.77,0-4.63,2.82-8.79,8.41
		c-1,1.35-1.39,2.39-1.58,3.9c-0.58,4.13-1,8.22-1.97,12.3c-0.62,2.58-3.43,4.51-8.45,4.51c-1.08,0-2.24-0.08-3.51-0.27l-0.42-0.77
		c1.93-5.55,2.97-10.99,4.13-16.78c1.89-9.41,1.74-11.3,0.19-11.3c-1.39,0-4.01,1.89-8.41,8.33c-1,1.43-1.5,3.05-1.66,4.44
		c-0.35,3.24-1,6.94-2.16,11.84c-0.62,2.58-3.43,4.51-8.45,4.51c-1.08,0-2.24-0.08-3.51-0.27L828.95,335.17z"/>
	<path class="st1" d="M893.26,316.57c2.16-11.03,10.22-18.32,20.17-18.32c7.25,0,10.72,4.24,9.88,8.45
		c-0.89,4.44-4.67,7.79-14.12,9.95l-4.78,1.12c-0.46,7.06,1.35,10.76,4.59,10.76c2.12,0,6.21-1.74,11.65-5.25l1.43,2.89
		c-7.14,6.98-13.15,10.11-18.21,10.11C895.76,336.29,890.9,328.26,893.26,316.57z M907.64,313.03c3.7-0.89,6.25-3.12,6.79-5.86
		c0.46-2.28-0.81-4.17-2.78-4.17c-2.2,0-5.28,2.31-6.63,9.88c-0.04,0.27-0.08,0.58-0.15,0.85L907.64,313.03z"/>
</g>
<g>
	<path class="st1" d="M38.24,405.53h4.01l0.27,0.7c1.97,5.05,4.36,6.9,7.71,6.9c2.7,0,4.94-1.31,4.94-4.24c0-2.39-1.5-4.2-6.91-6.36
		c-6.9-2.78-9.49-5.55-9.49-10.38c0-6.6,5.55-11.5,14.81-11.5c4.24,0,8.06,0.89,9.57,0.81l1.23,9.49h-4.01l-0.35-0.96
		c-1.47-4.13-3.78-5.09-6.17-5.09c-2.58,0-4.13,1.35-4.13,3.39c0,2.7,1.97,3.97,5.9,5.55c8.06,3.24,10.49,6.25,10.49,10.99
		c0,8.18-6.87,12.92-16.39,12.92c-3.82,0-7.41-0.69-9.64-1.81L38.24,405.53z"/>
	<path class="st1" d="M69.72,413.13l2.28-0.15c2.16-0.15,2.62-0.81,2.62-3.28V392.8c0-2.58-0.35-3.47-1.5-4.4l-2.7-2.16v-2.39
		l16.12-3.67c-0.31,2.28-0.62,6.67-0.62,11.65v17.86c0,2.47,0.46,3.12,2.62,3.28l2.28,0.15v3.55h-21.1V413.13z M73.65,369.93
		c0-3.55,2.58-6.02,6.25-6.02c3.66,0,6.25,2.47,6.25,6.02c0,3.59-2.55,6.09-6.25,6.09S73.65,373.52,73.65,369.93z"/>
	<path class="st1" d="M94.41,413.13l2.28-0.15c2.16-0.15,2.58-0.81,2.58-3.28v-16.55c0-2.55-0.39-3.47-1.5-4.4l-2.7-2.16v-2.39
		l15.31-4.01l-0.12,5.98l0.15,0.08l1.74-1.27c3.12-2.28,6.98-4.32,11.19-4.32c6.37,0,10.15,4.2,10.15,11.07
		c0,5.28-0.08,13.54-0.08,17.97c0,2.47,0.46,3.12,2.62,3.28l2.28,0.15v3.55h-20.71v-3.55l1.93-0.15c2.16-0.15,2.62-0.81,2.62-3.28
		v-13.65c0-5.48-1.31-7.71-5.59-7.71c-2.12,0-4.28,0.62-5.98,1.46v19.9c0,2.47,0.46,3.36,2.62,3.39l1.62,0.04v3.55H94.41V413.13z"/>
	<path class="st1" d="M162.11,380.65c5.79,0,10.38,2.7,10.38,5.71c0,1.77-2.39,4.67-4.67,5.09l-3.32-1.97
		c-3.78-2.43-5.63-3.05-7.37-3.05c-3.2,0-5.48,3.51-5.55,9.61c-0.19,8.56,4.82,13.81,11.26,13.81c3.12,0,6.44-1.04,8.95-2.2
		l1.12,2.43c-4.67,4.55-9.88,7.68-16.05,7.68c-9.37,0-16.32-7.14-16.32-17.05C140.54,388.72,150.8,380.65,162.11,380.65z"/>
	<path class="st1" d="M194.12,380.65c6.17,0,10.45,3.59,12.58,10.07c0.69,2.16,1.43,3.16,2.08,3.55l-0.81,2.24
		c-8.56,0.73-14.74,0.93-21.87,0.85v0.15c0.39,7.06,4.55,12.34,11.92,12.34c2.97,0,7.06-1.31,9.64-2.43l0.58,2.66
		c-4.86,4.55-10.26,7.68-16.62,7.68c-9.76,0-16.59-7.02-16.59-17.4C175.03,388.79,184.6,380.65,194.12,380.65z M198.64,392.5
		c-0.96-4.75-3.28-7.18-6.4-7.18c-3.47,0-5.55,3.16-6.06,8.26L198.64,392.5z"/>
	<path class="st1" d="M251.84,411.17c-4.44,4.44-9.22,6.6-14.5,6.6c-5.86,0-9.33-3.63-9.26-10.14l0.19-17.47
		c0.04-2.16-0.15-3.28-1.54-3.82l-2.85-1.12c0-0.08,0-2.43,0-2.43l15.58-8.22l-0.31,7.17h11.46l-0.35,3.55
		c-0.54,1.04-2.35,1.62-6.37,1.62h-4.51v18.17c0,3.47,1.7,5.17,4.86,5.17c2.24,0,4.55-0.62,7.06-1.74L251.84,411.17z"/>
	<path class="st1" d="M252.57,413.13l2.28-0.15c2.16-0.15,2.58-0.81,2.58-3.28v-35.45c0-2.55-0.35-3.55-1.5-4.44l-2.89-2.16v-2.39
		l16.66-3.36c-0.54,2.16-1,6.67-1,11.69v5.21c0,2.93,0.12,4.71-0.12,7.25l0.12,0.08l1.62-1.16c3.12-2.28,6.98-4.32,11.19-4.32
		c6.37,0,10.07,4.2,10.07,11.07c0,4.24-0.04,12.84-0.04,18.36c0,2.16,0.58,2.74,2.62,2.89l2.28,0.15v3.55h-20.71v-3.55l1.93-0.15
		c2.16-0.15,2.62-0.81,2.62-3.28v-13.65c0-5.48-1.27-7.71-5.55-7.71c-2.12,0-4.24,0.62-5.98,1.46v19.9c0,2.47,0.46,3.36,2.62,3.39
		l1.62,0.04v3.55h-20.41V413.13z"/>
	<path class="st1" d="M317.76,380.65c6.17,0,10.45,3.59,12.58,10.07c0.69,2.16,1.43,3.16,2.08,3.55l-0.81,2.24
		c-8.56,0.73-14.74,0.93-21.87,0.85v0.15c0.39,7.06,4.55,12.34,11.92,12.34c2.97,0,7.06-1.31,9.64-2.43l0.58,2.66
		c-4.86,4.55-10.26,7.68-16.63,7.68c-9.76,0-16.59-7.02-16.59-17.4C298.67,388.79,308.24,380.65,317.76,380.65z M322.28,392.5
		c-0.96-4.75-3.28-7.18-6.4-7.18c-3.47,0-5.55,3.16-6.06,8.26L322.28,392.5z"/>
	<path class="st1" d="M369.03,412.28c-4.28,3.74-7.87,5.48-11.11,5.48c-4.86,0-9.57-4.09-9.53-10.76c0-2.97,0.89-5.21,2.97-6.4
		c2.04-1.16,6.25-2.47,17.2-4.17v-5.17c0-3.74-1.35-5.48-4.71-5.48c-1.58,0-2.89,0.46-3.47,1.16c-0.46,0.58-0.35,1.23-0.04,3.7
		c-1.27,1.12-4.13,2.31-6.52,2.31c-2.28,0-3.63-1.12-3.63-3.01c0-4.59,10.45-9.3,20.17-9.3c7.29,0,9.64,3.51,9.53,9.84l-0.27,14.16
		c-0.08,4.32,0.66,6.33,2.01,6.33c0.58,0,1.85-0.5,3.05-1.16l0.66,3.63c-3.51,2.7-7.52,4.24-10.38,4.24c-2.93,0-4.98-1.47-5.75-5.4
		H369.03z M368.57,401.06c-3.36,0.12-6.09,0.96-7.29,1.54c-1.08,0.54-1.47,1.78-1.47,3.05c0,2.82,1.97,5.48,4.17,5.48
		c1.08,0,2.85-0.89,4.59-2.24V401.06z"/>
	<path class="st1" d="M412.86,374.21c0-2.54-0.31-3.51-1.47-4.4l-2.89-2.2v-2.43l16.63-3.32c-0.5,2.16-0.96,6.71-0.96,11.65v34.21
		c0,3.32,0.5,4.47,2.39,4.47c0.35,0,1.43-0.12,1.85-0.15l0.19,3.55l-15.24,2.28l-0.12-4.94l-0.15-0.04l-1.47,1
		c-3.63,2.62-6.71,3.86-9.84,3.86c-8.6,0-14.7-6.79-14.7-16.74c0-12.11,9.45-20.37,21.06-20.37c1.7,0,3.32,0.08,4.71,0.42V374.21z
		 M412.86,391.76c0-4.59-2.12-6.44-5.63-6.44c-4.55,0-8.18,3.86-8.18,12.5c0,7.71,3.63,12.58,9.37,12.58c1.2,0,2.78-0.27,4.44-0.96
		V391.76z"/>
	<path class="st1" d="M431.53,400.67c0-11.42,8.56-20.02,20.44-20.02c11.19,0,18.86,7.33,18.86,17.44
		c0,11.34-8.76,19.67-20.71,19.67C439.05,417.76,431.53,410.51,431.53,400.67z M457.99,399.44c0-7.95-2.7-14.04-6.91-14.04
		c-4.17,0-6.83,5.98-6.83,13.62c0,7.99,2.78,14,7.02,14C455.45,413.02,457.99,407.42,457.99,399.44z"/>
	<path class="st1" d="M473.69,435.08v-3.55l2.28-0.15c2.16-0.15,2.62-0.81,2.62-3.28V392.8c0-2.58-0.31-3.51-1.5-4.4l-2.7-2.16
		v-2.39l15.35-3.67l-0.04,5.21l0.12,0.04c4.82-3.47,7.91-4.78,11.42-4.78c8.49,0,14.31,6.48,14.31,16.12
		c0,11.77-9.88,20.25-24.03,20.25c-0.5,0-1.04-0.04-1.62-0.12v11.38c0,2.47,0.77,3.01,2.58,3.09l3.59,0.15v3.55H473.69z
		 M489.89,406.27c0,4.01,1.54,5.86,4.82,5.86c4.47,0,8.87-3.93,8.87-12.46c0-7.06-3.28-11.65-9.18-11.65
		c-1.35,0-3.01,0.35-4.51,0.96V406.27z"/>
	<path class="st1" d="M546.06,411.17c-4.44,4.44-9.22,6.6-14.5,6.6c-5.86,0-9.33-3.63-9.26-10.14l0.19-17.47
		c0.04-2.16-0.15-3.28-1.54-3.82l-2.85-1.12c0-0.08,0-2.43,0-2.43l15.58-8.22l-0.31,7.17h11.46l-0.35,3.55
		c-0.54,1.04-2.35,1.62-6.36,1.62h-4.51v18.17c0,3.47,1.7,5.17,4.86,5.17c2.24,0,4.55-0.62,7.06-1.74L546.06,411.17z"/>
	<path class="st1" d="M548.42,413.13l2.28-0.15c2.16-0.15,2.62-0.81,2.62-3.28V392.8c0-2.58-0.35-3.47-1.5-4.4l-2.7-2.16v-2.39
		l16.12-3.67c-0.31,2.28-0.62,6.67-0.62,11.65v17.86c0,2.47,0.46,3.12,2.62,3.28l2.28,0.15v3.55h-21.1V413.13z M552.35,369.93
		c0-3.55,2.58-6.02,6.25-6.02c3.67,0,6.25,2.47,6.25,6.02c0,3.59-2.55,6.09-6.25,6.09S552.35,373.52,552.35,369.93z"/>
	<path class="st1" d="M572.41,400.67c0-11.42,8.56-20.02,20.44-20.02c11.19,0,18.86,7.33,18.86,17.44
		c0,11.34-8.76,19.67-20.71,19.67C579.93,417.76,572.41,410.51,572.41,400.67z M598.87,399.44c0-7.95-2.7-14.04-6.91-14.04
		c-4.17,0-6.83,5.98-6.83,13.62c0,7.99,2.78,14,7.02,14C596.33,413.02,598.87,407.42,598.87,399.44z"/>
	<path class="st1" d="M615.73,413.13l2.28-0.15c2.16-0.15,2.58-0.81,2.58-3.28v-16.55c0-2.55-0.39-3.47-1.5-4.4l-2.7-2.16v-2.39
		l15.31-4.01l-0.12,5.98l0.15,0.08l1.74-1.27c3.12-2.28,6.98-4.32,11.19-4.32c6.37,0,10.15,4.2,10.15,11.07
		c0,5.28-0.08,13.54-0.08,17.97c0,2.47,0.46,3.12,2.62,3.28l2.28,0.15v3.55h-20.71v-3.55l1.93-0.15c2.16-0.15,2.62-0.81,2.62-3.28
		v-13.65c0-5.48-1.31-7.71-5.59-7.71c-2.12,0-4.28,0.62-5.98,1.46v19.9c0,2.47,0.46,3.36,2.62,3.39l1.62,0.04v3.55h-20.41V413.13z"
		/>
	<path class="st1" d="M674.99,400.67c0-11.42,8.56-20.02,20.44-20.02c11.19,0,18.86,7.33,18.86,17.44
		c0,11.34-8.76,19.67-20.71,19.67C682.51,417.76,674.99,410.51,674.99,400.67z M701.45,399.44c0-7.95-2.7-14.04-6.91-14.04
		c-4.17,0-6.83,5.98-6.83,13.62c0,7.99,2.78,14,7.02,14C698.9,413.02,701.45,407.42,701.45,399.44z"/>
	<path class="st1" d="M743.15,381.73l-0.35,3.55c-0.54,1.04-2.35,1.62-6.33,1.62h-2.24v22.99c0,2.47,0.77,3.01,2.58,3.09l3.59,0.15
		v3.55h-22.37v-3.55l2.28-0.15c2.16-0.15,2.62-0.81,2.62-3.28v-22.8h-4.51v-3.66l2.58-0.66c1.66-0.42,1.81-1.47,1.85-3.2
		c0.27-10.11,9.18-18.71,20.37-18.71c6.29,0,9.03,3.01,9.03,6.09c0,1.85-1.7,3.59-4.28,4.2l-2.04-1.62
		c-2.39-1.89-5.05-2.97-7.06-2.97c-3.7,0-4.82,3.66-4.75,15.35H743.15z"/>
</g>
<g>
	<path class="st1" d="M65.01,492.47c-4.44,4.44-9.22,6.6-14.5,6.6c-5.86,0-9.33-3.63-9.26-10.14l0.19-17.47
		c0.04-2.16-0.15-3.28-1.54-3.82l-2.85-1.12c0-0.08,0-2.43,0-2.43l15.58-8.22l-0.31,7.17h11.46l-0.35,3.55
		c-0.54,1.04-2.35,1.62-6.37,1.62h-4.51v18.17c0,3.47,1.7,5.17,4.86,5.17c2.24,0,4.55-0.62,7.06-1.74L65.01,492.47z"/>
	<path class="st1" d="M67.36,494.44l2.28-0.15c2.16-0.15,2.62-0.81,2.62-3.28v-16.89c0-2.58-0.35-3.47-1.5-4.4l-2.7-2.16v-2.39
		l16.12-3.67c-0.31,2.28-0.62,6.67-0.62,11.65V491c0,2.47,0.46,3.12,2.62,3.28l2.28,0.15v3.55h-21.1V494.44z M71.3,451.23
		c0-3.55,2.58-6.02,6.25-6.02c3.66,0,6.25,2.47,6.25,6.02c0,3.59-2.55,6.09-6.25,6.09S71.3,454.82,71.3,451.23z"/>
	<path class="st1" d="M92.05,494.44l2.28-0.15c2.16-0.15,2.58-0.81,2.58-3.28v-16.89c0-2.58-0.35-3.47-1.5-4.4l-2.7-2.16v-2.39
		l15.31-3.67l-0.04,6.06l0.12,0.04l1.77-1.35c3.09-2.39,6.48-4.28,10.69-4.28c4.59,0,7.83,2.2,9.3,5.98h0.12l2.28-1.7
		c3.09-2.31,6.48-4.28,10.69-4.28c6.36,0,10.14,4.2,10.14,11.07c0,5.98-0.08,12-0.08,17.97c0,2.47,0.42,3.12,2.58,3.28l2.28,0.15
		v3.55h-20.41v-3.55l1.62-0.04c2.16-0.04,2.66-0.93,2.66-3.39v-13.65c0-5.48-1.31-7.71-5.55-7.71c-2.01,0-3.97,0.46-5.63,1.27
		c0.12,0.66,0.15,1.39,0.15,2.12c0,5.17-0.08,13.58-0.08,18.01c0,2.43,0.46,3.09,2.62,3.24l1.93,0.15v3.55h-20.41v-3.55l1.93-0.15
		c2.16-0.15,2.62-0.81,2.62-3.28l0.04-13.65c0-5.48-1.31-7.71-5.55-7.71c-2.01,0-3.97,0.46-5.59,1.27v20.71
		c0,2.01,0.62,2.74,2.58,2.78l1.62,0.04v3.55H92.05V494.44z"/>
	<path class="st1" d="M179.2,461.96c6.17,0,10.45,3.59,12.58,10.07c0.69,2.16,1.43,3.16,2.08,3.55l-0.81,2.24
		c-8.56,0.73-14.74,0.93-21.87,0.85v0.15c0.39,7.06,4.55,12.34,11.92,12.34c2.97,0,7.06-1.31,9.64-2.43l0.58,2.66
		c-4.86,4.55-10.26,7.68-16.63,7.68c-9.76,0-16.59-7.02-16.59-17.4C160.1,470.1,169.67,461.96,179.2,461.96z M183.71,473.8
		c-0.96-4.75-3.28-7.18-6.4-7.18c-3.47,0-5.55,3.16-6.06,8.26L183.71,473.8z"/>
	<path class="st1" d="M209.87,496.1l18.98-28.27l-0.04-0.08l-5.59,0.04c-6.75,0.04-7.44,0.23-8.06,3.59l-0.35,1.93h-4.01l1.12-10.84
		c2.35,0.42,4.51,0.58,8.72,0.58h22.99v1.85l-18.75,28.27l0.04,0.08h5.48c7.6,0,8.99-0.96,10.26-5.25l0.35-1.16h4.01l-2.35,11.15
		h-32.79V496.1z"/>
	<path class="st1" d="M247.48,481.98c0-11.42,8.56-20.02,20.44-20.02c11.19,0,18.86,7.33,18.86,17.44
		c0,11.34-8.76,19.67-20.71,19.67C255,499.07,247.48,491.81,247.48,481.98z M273.94,480.74c0-7.95-2.7-14.04-6.91-14.04
		c-4.17,0-6.83,5.98-6.83,13.62c0,7.99,2.78,14,7.02,14C271.39,494.32,273.94,488.73,273.94,480.74z"/>
	<path class="st1" d="M290.8,494.44l2.28-0.15c2.16-0.15,2.58-0.81,2.58-3.28v-16.55c0-2.55-0.39-3.47-1.5-4.4l-2.7-2.16v-2.39
		l15.31-4.01l-0.12,5.98l0.15,0.08l1.74-1.27c3.12-2.28,6.98-4.32,11.19-4.32c6.37,0,10.15,4.2,10.15,11.07
		c0,5.28-0.08,13.54-0.08,17.97c0,2.47,0.46,3.12,2.62,3.28l2.28,0.15v3.55h-20.71v-3.55l1.93-0.15c2.16-0.15,2.62-0.81,2.62-3.28
		v-13.65c0-5.48-1.31-7.71-5.59-7.71c-2.12,0-4.28,0.62-5.98,1.46V491c0,2.47,0.46,3.36,2.62,3.39l1.62,0.04v3.55H290.8V494.44z"/>
	<path class="st1" d="M356.03,461.96c6.17,0,10.45,3.59,12.58,10.07c0.69,2.16,1.43,3.16,2.08,3.55l-0.81,2.24
		c-8.56,0.73-14.74,0.93-21.87,0.85v0.15c0.39,7.06,4.55,12.34,11.92,12.34c2.97,0,7.06-1.31,9.64-2.43l0.58,2.66
		c-4.86,4.55-10.26,7.68-16.62,7.68c-9.76,0-16.59-7.02-16.59-17.4C336.94,470.1,346.5,461.96,356.03,461.96z M360.55,473.8
		c-0.96-4.75-3.28-7.18-6.4-7.18c-3.47,0-5.55,3.16-6.06,8.26L360.55,473.8z"/>
	<path class="st1" d="M374.01,486.84h4.01l0.27,0.7c1.97,5.05,4.36,6.9,7.71,6.9c2.7,0,4.94-1.31,4.94-4.24c0-2.39-1.5-4.2-6.9-6.36
		c-6.91-2.78-9.49-5.55-9.49-10.38c0-6.6,5.55-11.5,14.81-11.5c4.24,0,8.06,0.89,9.57,0.81l1.23,9.49h-4.01l-0.35-0.96
		c-1.47-4.13-3.78-5.09-6.17-5.09c-2.58,0-4.13,1.35-4.13,3.39c0,2.7,1.97,3.97,5.9,5.55c8.06,3.24,10.49,6.25,10.49,10.99
		c0,8.18-6.87,12.92-16.39,12.92c-3.82,0-7.41-0.69-9.64-1.81L374.01,486.84z"/>
	<path class="st1" d="M413.98,486.18c3.82,0,6.37,2.55,6.37,6.48c0,3.82-2.55,6.4-6.37,6.4c-3.9,0-6.44-2.58-6.44-6.4
		C407.53,488.73,410.08,486.18,413.98,486.18z"/>
</g>
</svg>
