<?xml version="1.0" encoding="utf-8"?>
<!-- Generator: Adobe Illustrator 27.4.0, SVG Export Plug-In . SVG Version: 6.00 Build 0)  -->
<svg version="1.1" id="Layer_1" xmlns="http://www.w3.org/2000/svg" xmlns:xlink="http://www.w3.org/1999/xlink" x="0px" y="0px"
	 viewBox="0 0 1980 1200" style="enable-background:new 0 0 1980 1200;" xml:space="preserve">
<style type="text/css">
	.st0{fill:#87CAFB;}
	.st1{fill:#1F8AFB;}
	.st2{fill:#FFFFFF;}
</style>
<rect class="st0" width="1980" height="1200"/>
<path class="st1" d="M253.98,99.84c31.74,0,50.95,24.1,44.02,58.2c-3.94,19.61-16.77,35.52-34.49,43.08l-0.08,0.39
	c27.64,17.33,43.86,23.7,60.64,23.7c9.29,0,17.48-1.97,27.33-6.46l2.13,5.99c-16.22,12.29-30.63,18.11-44.89,18.11
	c-22.37,0-35.04-6.54-70.8-36.93c-30.63-0.95-48.98-24.89-42.21-58.35C201.14,119.92,224.52,99.84,253.98,99.84z M270.28,156.46
	c5.36-26.62-1.18-46.46-17.09-46.46c-12.99,0-24.89,14.49-29.85,39.06c-5.36,26.62,1.18,46.62,17.09,46.62
	C253.43,195.67,265.32,181.03,270.28,156.46z M387.7,129.92c-3.62,11.18-4.96,15.83-7.25,26.07c-5.75,25.91-5.75,34.65-2.44,34.65
	c1.97,0,4.41-1.73,11.97-8.03l2.05,6.22c-7.64,10.63-17.01,16.46-26.46,16.46c-10.32,0-14.41-7.09-7.88-30.32l-0.79-0.32
	c-11.18,21.81-19.77,30.63-33.08,30.63c-10.24,0-13.94-7.56-11.73-17.96l6.3-29.37c2.84-13.23,0.79-14.41-0.71-14.41
	c-1.73,0-3.47,1.18-9.69,6.77l-2.05-6.22c6.38-8.9,15.75-16.46,25.83-16.46c7.4,0,12.13,2.76,13.78,7.8l-9.29,41.97
	c-1.65,7.64-0.71,9.84,1.81,9.84s6.54-4.02,15.36-17.17c3.47-5.2,4.33-8.35,5.28-13.23c0.95-5.04,1.42-9.84,3.7-19.85
	c1.26-5.28,7.01-9.21,17.25-9.21c2.21,0,4.57,0.16,7.17,0.55L387.7,129.92z M398.56,167.64c4.73-23.86,20.95-40.01,45.12-40.01
	c5.04,0,11.42,1.02,17.09,2.76c1.42,0.39,2.13,0.63,2.91,0.63c1.42,0,1.89-0.55,2.6-3.15l1.26-4.25l8.35,1.65
	c-2.68,8.27-4.8,15.28-6.62,23.55l-2.68,12.52c-4.49,20.48-4.49,29.3-1.18,29.3c1.97,0,4.41-1.73,11.97-8.03l2.05,6.22
	c-7.64,10.63-17.01,16.46-26.46,16.46c-10.79,0-15.59-5.67-7.95-32.45l-0.87-0.16c-10.55,22.05-21.66,32.6-32.13,32.6
	C399.74,205.28,394.07,189.85,398.56,167.64z M436.44,173.39c5.28-8.43,8.66-16.77,11.42-26.07l0.71-2.36
	c1.26-4.09-3.62-7.48-10.63-7.48c-8.27,0-13.07,6.85-16.22,22.44c-3.7,18.03-0.79,26.22,2.84,26.22
	C427.15,186.15,431.16,181.81,436.44,173.39z M485.19,203c3.86-11.18,5.36-15.67,7.8-27.96c4.73-24.02,4.65-31.5,1.26-31.5
	c-2.05,0-5.36,2.68-9.69,6.77l-2.05-6.14c6.38-8.98,16.07-16.54,25.83-16.54c6.3,0,10.95,2.2,13.07,6.14
	c-1.18,7.48-4.17,15.91-5.99,22.76l0.79,0.24c10.71-20.16,21.81-29.14,35.12-29.14c10.24,0,13.94,7.56,11.73,17.96l-6.3,29.37
	c-2.84,13.23-2.05,15.67-0.08,15.67c1.73,0,3.62-1.34,11.1-8.03l2.05,6.22c-6.38,8.9-15.44,16.46-26.46,16.46
	c-9.21,0-14.25-5.36-12.44-13.47l7.95-36.3c1.65-7.64,0.71-9.84-1.81-9.84c-4.1,0-11.66,7.56-18.51,17.17
	c-2.36,3.31-3.23,5.59-3.7,8.9c-0.95,6.61-2.05,14.18-4.41,24.18c-1.26,5.28-7.01,9.21-17.25,9.21c-2.21,0-4.57-0.16-7.17-0.55
	L485.19,203z M578.27,186.7l10.71-46.78H578.9l1.5-7.88l6.3-1.02c3.23-0.55,4.02-1.18,4.57-3.46l2.2-9.14
	c1.5-6.3,5.59-10.08,11.97-10.08c7.09,0,10.63,4.73,8.98,11.97l-2.21,9.53h17.09l-1.34,7.17c-1.5,2.13-5.51,2.91-13.55,2.91h-4.17
	l-7.32,35.67c-2.13,10.47-1.89,14.02,0.79,14.02c3.94,0,11.03-5.2,17.01-9.77l2.6,6.06c-7.72,11.1-18.74,19.37-31.34,19.37
	C580.87,205.28,575.28,199.53,578.27,186.7z M635.13,191.82l6.93-33.78c2.76-13.15,2.05-15.75,0.39-15.75
	c-1.89,0-5.67,2.84-11.42,8.03l-2.05-6.14c6.38-8.98,16.07-16.54,25.83-16.54c7.32,0,12.92,3.62,14.02,9.21l-7.88,38.12
	c-2.68,13.23-2.05,15.67-0.24,15.67c1.73,0,5.04-1.97,11.34-8.03l2.05,6.22c-6.38,8.9-15.51,16.46-26.46,16.46
	C638.35,205.28,633.39,199.93,635.13,191.82z M650.64,104.17c1.34-6.61,6.38-11.58,13.23-11.58c7.4,0,11.81,5.83,10.16,14.02
	c-1.34,6.54-6.3,11.42-13.07,11.42C653.08,118.03,649.22,111.41,650.64,104.17z M682.67,186.7l10.71-46.78H683.3l1.5-7.88l6.3-1.02
	c3.23-0.55,4.02-1.18,4.57-3.46l2.2-9.14c1.5-6.3,5.59-10.08,11.97-10.08c7.09,0,10.63,4.73,8.98,11.97l-2.21,9.53h17.09l-1.34,7.17
	c-1.5,2.13-5.51,2.91-13.55,2.91h-4.17l-7.32,35.67c-2.13,10.47-1.89,14.02,0.79,14.02c3.94,0,11.03-5.2,17.01-9.77l2.6,6.06
	c-7.72,11.1-18.74,19.37-31.34,19.37C685.27,205.28,679.68,199.53,682.67,186.7z M735.44,167.64c4.73-23.86,20.95-40.01,45.12-40.01
	c5.04,0,11.42,1.02,17.09,2.76c1.42,0.39,2.13,0.63,2.91,0.63c1.42,0,1.89-0.55,2.6-3.15l1.26-4.25l8.35,1.65
	c-2.68,8.27-4.8,15.28-6.62,23.55l-2.68,12.52c-4.49,20.48-4.49,29.3-1.18,29.3c1.97,0,4.41-1.73,11.97-8.03l2.05,6.22
	c-7.64,10.63-17.01,16.46-26.46,16.46c-10.79,0-15.59-5.67-7.95-32.45l-0.87-0.16c-10.55,22.05-21.66,32.6-32.13,32.6
	C736.62,205.28,730.95,189.85,735.44,167.64z M773.31,173.39c5.28-8.43,8.66-16.77,11.42-26.07l0.71-2.36
	c1.26-4.09-3.62-7.48-10.63-7.48c-8.27,0-13.07,6.85-16.22,22.44c-3.7,18.03-0.79,26.22,2.84,26.22
	C764.02,186.15,768.04,181.81,773.31,173.39z M822.85,186.7l10.71-46.78h-10.08l1.5-7.88l6.3-1.02c3.23-0.55,4.02-1.18,4.57-3.46
	l2.21-9.14c1.5-6.3,5.59-10.08,11.97-10.08c7.09,0,10.63,4.73,8.98,11.97l-2.21,9.53h17.09l-1.34,7.17
	c-1.5,2.13-5.51,2.91-13.55,2.91h-4.17l-7.32,35.67c-2.13,10.47-1.89,14.02,0.79,14.02c3.94,0,11.03-5.2,17.01-9.77l2.6,6.06
	c-7.72,11.1-18.74,19.37-31.34,19.37C825.45,205.28,819.86,199.53,822.85,186.7z M879.71,191.82l6.93-33.78
	c2.76-13.15,2.05-15.75,0.39-15.75c-1.89,0-5.67,2.84-11.42,8.03l-2.05-6.14c6.38-8.98,16.07-16.54,25.83-16.54
	c7.32,0,12.92,3.62,14.02,9.21l-7.88,38.12c-2.68,13.23-2.05,15.67-0.24,15.67c1.73,0,5.04-1.97,11.34-8.03l2.05,6.22
	c-6.38,8.9-15.51,16.46-26.46,16.46C882.93,205.28,877.97,199.93,879.71,191.82z M895.22,104.17c1.34-6.61,6.38-11.58,13.23-11.58
	c7.4,0,11.81,5.83,10.16,14.02c-1.34,6.54-6.3,11.42-13.07,11.42C897.66,118.03,893.8,111.41,895.22,104.17z M933.81,143.54
	c-1.65,0-4.8,1.97-9.69,6.77l-2.05-6.14c5.04-8.51,16.14-16.54,25.83-16.54c5.12,0,9.61,1.5,12.68,7.09
	c-9.61,49.85-7.8,55.2-3.78,55.2c5.2,0,12.36-3.94,16.07-22.44c3.31-16.54,1.1-30.95-2.13-34.34c2.44-3.15,7.64-5.51,12.76-5.51
	c9.14,0,16.07,12.44,12.6,29.85c-5.2,26.15-30.95,48.43-52.53,48.43c-11.97,0-15.83-10.24-10.16-42.45
	C936.33,146.85,936.33,143.54,933.81,143.54z M1002.79,165.04c4.41-22.52,20.87-37.41,41.19-37.41c14.81,0,21.89,8.66,20.16,17.25
	c-1.81,9.06-9.53,15.91-28.82,20.32l-9.77,2.28c-0.95,14.41,2.76,21.97,9.37,21.97c4.33,0,12.68-3.54,23.78-10.71l2.91,5.91
	c-14.57,14.25-26.85,20.63-37.17,20.63C1007.91,205.28,997.99,188.9,1002.79,165.04z M1032.17,157.8
	c7.56-1.81,12.76-6.38,13.86-11.97c0.95-4.65-1.65-8.51-5.67-8.51c-4.49,0-10.79,4.73-13.55,20.16c-0.08,0.55-0.16,1.18-0.32,1.73
	L1032.17,157.8z M1121.15,170.32c-6.38,11.5-8.43,16.22-9.06,19.37c-0.63,3.39,0.63,5.43,7.72,5.91l5.83,0.39l-1.42,7.09h-41.9
	l1.42-7.09l3.07-0.24c4.57-0.39,7.95-1.89,16.3-16.14l44.97-76.94h16.46l15.12,81.11c1.81,9.53,3.39,11.73,8.98,12.05l2.52,0.16
	l-1.42,7.09h-52.53l1.42-7.09l8.03-0.71c6.85-0.63,8.98-2.68,8.11-8.27l-2.68-16.7H1121.15z M1150.45,160.08l-5.2-32.29h-0.31
	l-18.03,32.29H1150.45z M1200.06,163.78c5.51-23.15,24.02-36.15,42.76-36.15c12.29,0,19.92,5.28,18.19,12.29
	c-1.02,4.17-5.28,8.11-10.55,9.14c-8.66-8.03-12.76-10-14.96-10c-4.17,0-8.11,5.91-10.79,17.4c-3.94,16.93-0.94,33,8.35,33
	c4.17,0,12.68-4.17,21.81-10.24l2.91,5.83c-11.26,12.52-25.04,20.24-36.46,20.24C1205.57,205.28,1194,188.82,1200.06,163.78z
	 M1266.84,203c3.86-11.18,5.35-15.67,7.8-27.96c4.73-24.02,4.65-31.5,1.26-31.5c-2.05,0-5.35,2.68-9.69,6.77l-2.05-6.14
	c6.38-8.98,16.07-16.54,25.83-16.54c6.3,0,10.08,2.2,12.21,6.14c-1.02,7.48-3.54,16.77-5.51,23.63l0.79,0.24
	c9.77-21.81,17.4-30,26.22-30c6.3,0,9.45,4.09,8.11,10.55c-1.02,5.2-5.36,11.66-10.08,14.49c-4.25-3.07-5.75-4.88-7.72-4.88
	c-2.52,0-7.4,4.72-14.96,18.59c-1.65,2.91-2.44,5.67-2.99,8.9c-0.94,5.75-1.97,12.36-3.94,20.63c-1.26,5.28-7.01,9.21-17.25,9.21
	c-2.21,0-4.57-0.16-7.17-0.55L1266.84,203z M1330.16,163.94c4.65-23,21.18-36.3,40.95-36.3c21.81,0,35.36,16.22,30.32,41.34
	c-4.57,23.07-21.11,36.3-40.87,36.3C1338.66,205.28,1325.2,189.06,1330.16,163.94z M1377.09,167.88c2.99-19.85,0.63-30.4-6.54-30.4
	c-6.14,0-13.31,10.47-15.99,27.56c-2.99,19.85-0.63,30.4,7.17,30.4C1367.25,195.44,1374.42,184.96,1377.09,167.88z M1426,112.83
	c0.63-2.99,0.55-5.2-1.58-6.46l-6.14-3.7l1.02-5.04l34.1-6.38c-2.05,7.72-3.15,12.21-4.8,20l-1.02,4.88
	c-3.54,17.01-5.2,24.65-8.19,35.36l0.87,0.31c6.85-14.18,14.57-24.18,27.25-24.18c12.99,0,20.24,11.73,15.75,34.34
	c-5.83,29.14-29.3,43.31-48.2,43.31c-8.35,0-18.59-2.76-26.38-5.91L1426,112.83z M1460.41,168.11c2.84-13.94,1.42-21.11-4.09-21.11
	c-4.17,0-9.84,5.99-14.18,14.73c-3.15,6.38-5.98,15.04-8.35,26.22c-0.95,4.49,2.99,7.09,7.64,7.09
	C1449.7,195.04,1457.03,184.65,1460.41,168.11z M1492.46,167.64c4.72-23.86,20.95-40.01,45.12-40.01c5.04,0,11.42,1.02,17.09,2.76
	c1.42,0.39,2.13,0.63,2.91,0.63c1.42,0,1.89-0.55,2.6-3.15l1.26-4.25l8.35,1.65c-2.68,8.27-4.8,15.28-6.62,23.55l-2.68,12.52
	c-4.49,20.48-4.49,29.3-1.18,29.3c1.97,0,4.41-1.73,11.97-8.03l2.05,6.22c-7.64,10.63-17.01,16.46-26.46,16.46
	c-10.79,0-15.59-5.67-7.95-32.45l-0.87-0.16c-10.55,22.05-21.66,32.6-32.13,32.6C1493.65,205.28,1487.97,189.85,1492.46,167.64z
	 M1530.34,173.39c5.28-8.43,8.66-16.77,11.42-26.07l0.71-2.36c1.26-4.09-3.62-7.48-10.63-7.48c-8.27,0-13.07,6.85-16.22,22.44
	c-3.7,18.03-0.79,26.22,2.83,26.22C1521.05,186.15,1525.07,181.81,1530.34,173.39z M1579.88,186.7l10.71-46.78h-10.08l1.5-7.88
	l6.3-1.02c3.23-0.55,4.02-1.18,4.57-3.46l2.2-9.14c1.5-6.3,5.59-10.08,11.97-10.08c7.09,0,10.63,4.73,8.98,11.97l-2.21,9.53h17.09
	l-1.34,7.17c-1.5,2.13-5.51,2.91-13.55,2.91h-4.17l-7.32,35.67c-2.13,10.47-1.89,14.02,0.79,14.02c3.94,0,11.03-5.2,17.01-9.77
	l2.6,6.06c-7.72,11.1-18.74,19.37-31.34,19.37C1582.48,205.28,1576.88,199.53,1579.88,186.7z M1636.73,191.82l6.93-33.78
	c2.76-13.15,2.05-15.75,0.39-15.75c-1.89,0-5.67,2.84-11.42,8.03l-2.05-6.14c6.38-8.98,16.07-16.54,25.83-16.54
	c7.32,0,12.92,3.62,14.02,9.21l-7.88,38.12c-2.68,13.23-2.05,15.67-0.24,15.67c1.73,0,5.04-1.97,11.34-8.03l2.05,6.22
	c-6.38,8.9-15.51,16.46-26.46,16.46C1639.96,205.28,1635,199.93,1636.73,191.82z M1652.25,104.17c1.34-6.61,6.38-11.58,13.23-11.58
	c7.4,0,11.81,5.83,10.16,14.02c-1.34,6.54-6.3,11.42-13.07,11.42C1654.69,118.03,1650.83,111.41,1652.25,104.17z M1683.51,163.78
	c5.51-23.15,24.02-36.15,42.76-36.15c12.29,0,19.92,5.28,18.19,12.29c-1.02,4.17-5.28,8.11-10.55,9.14c-8.66-8.03-12.76-10-14.96-10
	c-4.17,0-8.11,5.91-10.79,17.4c-3.94,16.93-0.94,33,8.35,33c4.17,0,12.68-4.17,21.81-10.24l2.91,5.83
	c-11.26,12.52-25.04,20.24-36.46,20.24C1689.02,205.28,1677.45,188.82,1683.51,163.78z M1745.88,189.93
	c0.79-4.17,3.54-6.54,7.64-8.43c7.32,9.69,13.23,11.66,17.64,11.66c4.8,0,7.8-2.76,8.51-6.46c0.71-3.54-0.71-6.69-10.4-12.6
	c-13.31-8.11-17.64-15.04-15.51-25.28c2.13-10.4,15.04-21.18,32.68-21.18c10.79,0,18.74,5.35,17.4,12.29
	c-0.87,4.33-4.41,8.43-8.98,9.37c-6.46-7.17-12.29-10.95-16.7-10.95c-2.76,0-5.04,1.5-5.67,4.41c-0.71,3.62,1.02,6.69,11.26,12.84
	c13.78,8.27,17.64,14.18,15.75,23.7c-3.15,15.75-17.56,25.99-34.1,25.99C1753.52,205.28,1744.23,198.82,1745.88,189.93z"/>
<g>
	<path class="st2" d="M218.15,344.83c-5.83,15.75-8.27,23.15-8.27,26.62c0,3.47,1.97,5.28,8.27,5.75l8.43,0.63v5.28h-42.68v-5.28
		l2.44-0.16c8.74-0.55,12.29-3.94,18.66-19.77l30.4-75.68h3.39l33.15,83.24c3.46,8.66,7.09,11.81,13.94,12.21l2.52,0.16v5.28h-43.08
		v-5.28l7.25-0.55c7.88-0.63,8.03-2.68,5.12-10.16l-8.58-22.29H218.15z M246.42,338.05l-12.99-33.71l-12.68,33.71H246.42z"/>
	<path class="st2" d="M293.98,378.14l4.73-0.16c5.75-0.16,6.69-2.68,6.69-8.98v-38.27c0-4.1-0.79-5.67-2.52-7.48l-4.8-4.96v-2.36
		l20.08-6.85l-0.31,14.96l0.31,0.08l2.13-2.36c6.69-7.48,12.36-10.87,17.72-10.87c4.25,0,7.32,2.21,7.32,5.12
		c0,3.78-2.6,7.09-5.43,8.19l-2.36-1.02c-2.52-1.1-4.57-1.81-5.75-1.81c-1.97,0-5.51,1.89-11.18,6.22l-2.36,1.81v38.75
		c0,7.17,1.02,9.69,8.27,9.84l5.91,0.16v4.96h-38.43V378.14z"/>
	<path class="st2" d="M390.92,310.89c10.71,0,18.03,3.46,18.03,7.95c0,2.91-2.6,6.06-5.59,7.17c-6.77-3.7-12.29-7.09-19.37-7.09
		c-11.81,0-20.32,11.58-20.32,27.72c0,19.21,12.99,28.51,25.52,28.51c5.35,0,15.12-2.6,20.63-4.49l0.94,3.94
		c-11.18,6.61-19.77,10.32-28.19,10.32c-15.12,0-32.37-11.81-32.37-34.41C350.21,329,368.48,310.89,390.92,310.89z"/>
	<path class="st2" d="M417.3,378.14l4.73-0.16c5.75-0.16,6.69-2.68,6.69-8.98V293.8c0-4.1-0.47-6.06-2.44-7.56l-6.77-5.35v-2.44
		l23.31-7.17c-0.94,8.98-1.26,14.81-1.26,22.52v18.74c0,3.31-0.08,5.91-0.32,9.14l0.24,0.08l3.86-2.6
		c8.27-5.59,15.99-8.27,21.5-8.27c13.23,0,20.24,8.11,20.24,24.41c0,8.43-0.31,21.58-0.31,33.71c0,7.17,1.26,8.98,6.85,9.06
		l4.49,0.08v4.96h-34.41v-4.96l4.41-0.24c5.28-0.31,5.83-2.2,5.83-8.9l0.16-30.32c0.08-12.36-4.57-17.64-15.36-17.64
		c-6.62,0-12.36,2.44-17.17,5.2V369c0,6.3,0.94,8.82,6.69,8.98l4.73,0.16v4.96H417.3V378.14z"/>
	<path class="st2" d="M505.97,378.14l4.73-0.16c5.75-0.16,6.69-2.68,6.69-8.98v-38.43c0-4.17-0.79-5.75-2.52-7.48l-4.8-4.8v-2.36
		l21.42-6.85c-1.02,8.9-1.26,14.73-1.26,22.6V369c0,6.3,0.94,8.82,6.69,8.98l4.73,0.16v4.96h-35.67V378.14z M515.18,287.1
		c0-4.96,3.54-8.58,8.58-8.58c5.12,0,8.58,3.54,8.58,8.58c0,5.43-3.47,8.82-8.58,8.82C518.73,295.92,515.18,292.3,515.18,287.1z"/>
	<path class="st2" d="M549.83,378.14l4.73-0.16c5.75-0.16,6.69-2.68,6.69-8.98v-38.27c0-4.1-0.79-5.67-2.52-7.48l-4.8-4.96v-2.36
		l20.08-6.85l-0.31,12.6l0.31,0.08l4.25-2.91c8.27-5.67,15.2-7.95,20.48-7.95c8.58,0,14.65,3.31,18.03,11.42h0.16l5.2-3.86
		c8.5-6.22,15.04-7.56,20.4-7.56c12.99,0,19.61,8.11,19.61,24.41c0,8.43-0.24,24.57-0.24,33.71c0,7.17,1.26,8.98,6.85,9.06
		l4.49,0.08v4.96h-34.41v-4.96l4.41-0.24c5.28-0.31,5.83-2.2,5.83-8.9l0.16-30.32c0.08-12.99-5.04-17.64-14.88-17.64
		c-6.38,0-11.97,2.76-16.69,5.51c0.39,2.52,0.55,5.2,0.55,9.92c0,4.65,0,28.51,0,32.52c0,7.17,1.26,8.98,6.85,9.06l4.49,0.08v4.96
		h-34.41v-4.96l4.41-0.24c5.28-0.31,5.83-2.2,5.83-8.9v-30.32c0-12.99-4.96-17.64-14.73-17.64c-6.3,0-11.81,2.6-16.54,5.28V369
		c0,6.3,0.94,8.82,6.69,8.98l4.73,0.16v4.96h-35.67V378.14z"/>
	<path class="st2" d="M714.89,310.89c12.52,0,20.87,8.5,24.1,19.06c1.02,3.15,1.81,5.04,3.31,5.75l-0.63,2.99
		c-16.22,1.18-31.5,1.34-47.57,1.02c-0.16,1.5-0.16,3.7-0.16,5.43c0,15.99,8.74,30,25.75,30c5.35,0,14.96-2.6,20.48-4.41l1.02,3.86
		c-11.1,6.61-19.53,10.32-28.04,10.32c-16.07,0-32.29-11.81-32.29-33.23C680.87,329,696.78,310.89,714.89,310.89z M727.41,333.09
		c-2.52-9.76-8.98-15.59-15.67-15.59c-7.32,0-13.94,6.77-16.46,16.77L727.41,333.09z"/>
	<path class="st2" d="M806.87,293.88c0-4.17-0.55-6.14-2.52-7.64l-6.85-5.35v-2.36l23.39-7.24c-0.94,8.98-1.18,14.81-1.18,22.52
		v70.25c0,9.37,1.18,12.52,5.28,12.52c1.5,0,3.54-0.31,5.51-0.71l0.39,5.04l-22.92,4.17l-0.94-11.26l-0.24-0.08l-2.91,2.13
		c-8.11,5.91-14.8,9.06-21.1,9.06c-17.25,0-31.34-13.94-31.34-35.52c0-22.13,17.01-38.51,41.27-38.51c5.04,0,9.84,0.47,14.17,1.97
		V293.88z M806.87,326.08c0-4.8-7.17-8.9-16.38-8.9c-17.17,0-26.3,13.23-26.3,29.06c0,17.17,10.16,28.11,25.83,28.11
		c3.7,0,9.53-1.26,16.85-5.28V326.08z"/>
	<path class="st2" d="M873.18,310.89c12.52,0,20.87,8.5,24.1,19.06c1.02,3.15,1.81,5.04,3.31,5.75l-0.63,2.99
		c-16.22,1.18-31.5,1.34-47.57,1.02c-0.16,1.5-0.16,3.7-0.16,5.43c0,15.99,8.74,30,25.75,30c5.35,0,14.96-2.6,20.48-4.41l1.02,3.86
		c-11.1,6.61-19.53,10.32-28.04,10.32c-16.06,0-32.29-11.81-32.29-33.23C839.16,329,855.06,310.89,873.18,310.89z M885.7,333.09
		c-2.52-9.76-8.98-15.59-15.67-15.59c-7.32,0-13.94,6.77-16.46,16.77L885.7,333.09z"/>
	<path class="st2" d="M911.76,361.21h5.99l1.26,3.46c3.39,9.37,8.98,13.55,16.7,13.55c7.56,0,13.07-5.2,13.07-11.97
		c0-8.19-5.28-10.95-17.64-15.67c-13.62-5.2-17.56-10.47-17.56-19.22c0-10.08,8.82-20.48,25.59-20.48c6.93,0,11.5,1.34,15.28,1.34
		l2.44,18.82h-5.99l-0.87-3.46c-1.81-7.17-5.91-10.24-13.23-10.24c-7.25,0-12.05,4.49-12.05,9.92c0,5.35,3.46,9.13,16.54,13.86
		c12.92,4.73,18.03,10.55,18.03,20.63c0,13.54-9.69,23.15-26.22,23.15c-5.43,0-11.66-1.1-17.96-4.33L911.76,361.21z"/>
	<path class="st2" d="M1004.06,377.82l5.99-0.24c7.32-0.31,8.5-3.39,8.5-11.34v-65.84c0-7.95-1.18-11.03-8.5-11.34l-5.99-0.24v-5.28
		h42.68v5.28l-5.99,0.24c-7.32,0.31-8.5,3.39-8.5,11.34v28.82h51.74v-28.82c0-7.95-1.18-11.03-8.51-11.34l-5.98-0.24v-5.28h42.68
		v5.28l-5.99,0.24c-7.32,0.31-8.5,3.39-8.5,11.34v65.84c0,7.95,1.18,11.02,8.5,11.34l5.99,0.24v5.28h-42.68v-5.28l5.98-0.24
		c7.32-0.31,8.51-3.39,8.51-11.34v-30.08h-51.74v30.08c0,7.95,1.18,11.02,8.5,11.34l5.99,0.24v5.28h-42.68V377.82z"/>
	<path class="st2" d="M1118.01,312.7h34.89v4.96l-5.28,0.24c-6.22,0.31-6.85,2.76-4.96,7.64l15.67,41.27h0.31
		c10.4-23.07,16.14-38.43,16.14-44.18c0-2.99-2.36-4.49-6.77-4.73l-4.09-0.24v-4.96h31.42v4.96l-1.81,0.08
		c-4.25,0.16-6.46,1.89-8.58,6.54l-35.52,77.88c-6.85,14.96-8.58,18.82-13.94,18.82c-3.15,0-6.14-1.97-7.48-4.88
		c4.96-4.25,14.57-16.54,19.53-26.3l3.94-7.72l-23.15-57.8c-2.05-5.2-4.65-6.38-8.58-6.54l-1.73-0.08V312.7z"/>
	<path class="st2" d="M1256.61,293.88c0-4.17-0.55-6.14-2.52-7.64l-6.85-5.35v-2.36l23.39-7.24c-0.95,8.98-1.18,14.81-1.18,22.52
		v70.25c0,9.37,1.18,12.52,5.28,12.52c1.5,0,3.54-0.31,5.51-0.71l0.39,5.04l-22.92,4.17l-0.95-11.26l-0.24-0.08l-2.91,2.13
		c-8.11,5.91-14.8,9.06-21.1,9.06c-17.25,0-31.34-13.94-31.34-35.52c0-22.13,17.01-38.51,41.26-38.51c5.04,0,9.84,0.47,14.18,1.97
		V293.88z M1256.61,326.08c0-4.8-7.17-8.9-16.38-8.9c-17.17,0-26.3,13.23-26.3,29.06c0,17.17,10.16,28.11,25.83,28.11
		c3.7,0,9.53-1.26,16.85-5.28V326.08z"/>
	<path class="st2" d="M1289.13,378.14l4.73-0.16c5.75-0.16,6.69-2.68,6.69-8.98v-38.27c0-4.1-0.79-5.67-2.52-7.48l-4.8-4.96v-2.36
		l20.08-6.85l-0.32,14.96l0.32,0.08l2.13-2.36c6.69-7.48,12.36-10.87,17.72-10.87c4.25,0,7.32,2.21,7.32,5.12
		c0,3.78-2.6,7.09-5.43,8.19l-2.36-1.02c-2.52-1.1-4.57-1.81-5.75-1.81c-1.97,0-5.51,1.89-11.18,6.22l-2.36,1.81v38.75
		c0,7.17,1.02,9.69,8.27,9.84l5.91,0.16v4.96h-38.43V378.14z"/>
	<path class="st2" d="M1345.28,350.89c0-22.52,15.75-40.01,37.96-40.01c20.4,0,33.94,14.25,33.94,34.02c0,22.52-15.75,40-37.88,40
		C1358.82,384.91,1345.28,370.66,1345.28,350.89z M1403.55,349.16c0-17.8-9.92-32.05-23.07-32.05c-12.52,0-21.5,12.44-21.5,29.61
		c0,17.8,9.92,31.89,23,31.89C1394.5,378.61,1403.55,366.17,1403.55,349.16z"/>
	<path class="st2" d="M1447.65,384.36c-8.98-0.31-12.44-3.39-12.44-7.4c0-3.46,2.52-6.93,18.27-15.36v-0.39
		c-14.1-0.79-22.92-10.87-22.92-23.39c0-14.41,11.5-26.93,29.92-26.93c5.99,0,11.03,1.26,15.2,3.7l22.44-1.73l-0.32,3.39
		c-0.95,2.13-3.54,3.78-11.89,4.33l-3.15,0.31c2.83,3.86,4.09,8.66,4.09,14.1c0,11.89-5.04,19.29-20.79,25.99
		c-11.1,4.65-17.56,8.27-17.56,10.79c0,2.36,6.69,3.15,24.1,4.17c18.35,1.02,25.2,3.62,25.2,14.18c0,17.8-18.35,30.87-44.81,30.87
		c-18.35,0-29.06-6.22-29.06-16.3c0-7.25,5.36-10.87,23.7-20.08V384.36z M1436.71,402.24c0,7.01,8.98,11.58,22.92,11.58
		c16.22,0,26.62-7.01,26.62-18.03c0-6.85-3.86-8.74-20-9.69c-6.14-0.39-9.53-0.47-12.68-0.71
		C1440.49,394.12,1436.71,397.75,1436.71,402.24z M1474.27,337.58c0-9.06-3.94-20.63-15.2-20.63c-11.58,0-15.99,9.29-15.99,19.14
		c0,9.69,4.65,19.06,16.14,19.06C1470.73,355.14,1474.27,346.8,1474.27,337.58z"/>
	<path class="st2" d="M1505.37,378.14l4.73-0.16c5.75-0.16,6.69-2.68,6.69-8.98v-38.27c0-4.1-0.79-5.67-2.52-7.48l-4.8-4.96v-2.36
		l20.08-6.85l-0.32,14.96l0.32,0.08l2.13-2.36c6.69-7.48,12.36-10.87,17.72-10.87c4.25,0,7.32,2.21,7.32,5.12
		c0,3.78-2.6,7.09-5.43,8.19l-2.36-1.02c-2.52-1.1-4.57-1.81-5.75-1.81c-1.97,0-5.51,1.89-11.18,6.22l-2.36,1.81v38.75
		c0,7.17,1.02,9.69,8.27,9.84l5.91,0.16v4.96h-38.43V378.14z"/>
	<path class="st2" d="M1600.66,375.85c-9.92,7.32-14.18,9.06-18.59,9.06c-11.5,0-19.14-8.5-19.14-18.27c0-5.91,2.52-10,5.04-11.73
		c2.76-1.97,10.16-5.28,32.76-8.58l0.16-12.21c0.16-11.81-3.46-15.36-10.39-15.36c-4.49,0-8.11,1.65-9.45,2.91
		c-0.95,0.94-0.79,1.65,0,6.06c-2.91,2.36-7.17,4.02-10.08,4.02s-4.8-2.13-4.8-4.49c0-6.85,16.07-16.38,31.97-16.38
		c10.95,0,15.91,5.2,15.67,16.38l-0.71,32.6c-0.32,12.99,2.13,16.38,5.83,16.38c1.89,0,5.2-1.18,6.93-2.13l1.42,4.57
		c-6.77,3.94-11.81,6.22-15.51,6.22c-4.8,0-8.9-3.31-10.71-9.06H1600.66z M1600.74,352.86c-4.72,0.24-15.28,2.44-20.24,4.1
		c-3.07,1.02-4.41,3.7-4.41,6.93c0,7.25,5.67,12.13,11.65,12.13c2.99,0,7.4-1.1,12.84-4.88L1600.74,352.86z"/>
	<path class="st2" d="M1631.84,419.17v-4.96l4.65-0.16c5.43-0.16,6.3-2.68,6.3-8.98v-74.42c0-4.1-0.87-5.83-2.52-7.48l-4.8-4.96
		v-2.36l20.16-6.85l-0.47,12.99l0.24,0.08c6.62-5.51,14.88-11.18,24.25-11.18c15.67,0,27.33,12.76,27.33,33
		c0,22.05-19.29,39.85-39.85,39.85c-5.28,0-8.03-0.47-11.5-1.1v21.66c0,7.17,0.87,9.69,7.8,9.84l5.75,0.16v4.96L1631.84,419.17z
		 M1655.63,361.99c0,11.26,3.86,14.81,14.1,14.81c14.96,0,24.81-12.6,24.81-30.32c0-15.04-7.72-25.04-22.29-25.04
		c-5.04,0-11.42,1.97-16.62,5.12V361.99z"/>
	<path class="st2" d="M1714.77,378.14l4.72-0.16c5.75-0.16,6.69-2.68,6.69-8.98V293.8c0-4.1-0.47-6.06-2.44-7.56l-6.77-5.35v-2.44
		l23.31-7.17c-0.95,8.98-1.26,14.81-1.26,22.52v18.74c0,3.31-0.08,5.91-0.31,9.14l0.24,0.08l3.86-2.6
		c8.27-5.59,15.99-8.27,21.5-8.27c13.23,0,20.24,8.11,20.24,24.41c0,8.43-0.32,21.58-0.32,33.71c0,7.17,1.26,8.98,6.85,9.06
		l4.49,0.08v4.96h-34.41v-4.96l4.41-0.24c5.28-0.31,5.83-2.2,5.83-8.9l0.16-30.32c0.08-12.36-4.57-17.64-15.36-17.64
		c-6.62,0-12.36,2.44-17.17,5.2V369c0,6.3,0.95,8.82,6.69,8.98l4.72,0.16v4.96h-35.67V378.14z"/>
</g>
<g>
	<path class="st1" d="M230.51,545.09l-0.16-0.08c-3.39,3.54-8.27,5.51-13.07,5.51c-10.87,0-18.82-8.98-18.82-20.08
		c-2.52-3.39-3.94-7.64-3.94-11.89c0-10.71,8.51-19.53,18.66-19.53c0.94,0,1.97,0.08,2.76,0.24l0.16-0.39h0.08
		c-6.14-3.39-10.16-9.92-10.16-17.17c0-8.58,5.59-16.22,13.55-18.66h-0.08c3.39-5.28,9.29-8.58,15.67-8.58
		c9.21,0,17.09,7.09,18.51,16.46c1.5-9.21,9.37-16.46,18.51-16.46c6.38,0,12.21,3.31,15.67,8.58h-0.08
		c7.88,2.44,13.55,10.08,13.55,18.66c0,7.25-4.02,13.78-10.16,17.17h0.08l0.08,0.39c0.94-0.16,1.81-0.24,2.83-0.24
		c10.16,0,18.66,8.82,18.66,19.53c0,4.25-1.42,8.5-4.1,11.89h0.08c0,11.1-7.95,20.08-18.74,20.08c-4.8,0-9.69-1.97-13.07-5.51
		l-0.16,0.08h0.08c1.26,2.68,1.97,5.75,1.97,8.74c0,10.63-8.43,19.45-18.66,19.45c-2.28,0-4.49-0.55-6.54-1.34
		c-2.05,0.79-4.33,1.34-6.54,1.34c-10.16,0-18.66-8.82-18.66-19.45c0-2.99,0.63-6.06,1.97-8.74H230.51z M240.67,540.91
		c0,0.31-0.08,0.63-0.08,0.87c-4.17,2.44-6.62,7.25-6.62,12.05c0,7.48,5.91,13.78,13.07,13.78c2.21,0,4.49-0.47,6.62-1.73
		c2.05,1.26,4.33,1.73,6.61,1.73c7.17,0,13.07-6.3,13.07-13.78c0-4.8-2.52-9.61-6.62-12.05c0-4.25,2.44-8.43,7.01-8.43
		c1.1,0,2.36,0.31,3.39,0.87c1.58,6.3,6.69,10.79,12.92,10.79c7.17,0,13.15-6.22,13.15-13.86c0-0.87,0-1.81-0.16-2.68
		c2.68-2.36,4.25-6.14,4.25-9.92c0-7.72-5.91-14.02-13.15-14.02c-3.15,0-6.22,1.18-8.66,3.39c-4.41-1.18-6.46-3.47-6.46-7.25
		c0-2.52,1.02-3.86,1.97-5.04l0.24-0.24c0.55,0.08,0.87,0.08,1.34,0.08c7.17,0,13.15-6.06,13.15-13.78
		c0-6.85-4.96-12.84-11.66-13.78c-2.21-4.8-6.69-7.88-11.89-7.88c-7.25,0-13.07,6.3-13.07,13.94c0,1.81,0.31,3.7,1.02,5.2
		c-1.34,2.52-2.91,4.17-6.46,4.17c-3.54,0-5.2-1.65-6.54-4.17c0.87-1.5,1.1-3.39,1.1-5.2c0-7.64-5.83-13.94-13.07-13.94
		c-5.2,0-9.76,3.07-11.97,7.88c-6.54,0.94-11.58,6.93-11.58,13.78c0,7.72,5.99,13.78,13.15,13.78c0.39,0,0.79,0,1.34-0.08l0.16,0.24
		c0.94,1.18,1.97,2.52,1.97,5.04c0,3.78-2.05,6.06-6.46,7.25c-2.36-2.21-5.43-3.39-8.58-3.39c-7.32,0-13.07,6.3-13.07,14.02
		c0,3.78,1.5,7.56,4.17,9.92c-0.16,0.87-0.16,1.81-0.16,2.68c0,7.64,5.91,13.86,13.15,13.86c6.22,0,11.34-4.49,12.84-10.79
		c1.02-0.55,2.44-0.87,3.47-0.87C237.28,533.35,240.67,536.9,240.67,540.91z M224.05,531.15c0,3.86-3.07,6.93-6.77,6.93
		c-3.7,0-6.77-3.23-6.77-6.93c0-2.28,1.1-4.49,3.15-5.83h0.08c-3.94,0-7.32-2.68-7.32-6.77c0-3.94,2.99-6.93,6.77-6.93
		c3.39,0,6.38,2.44,6.77,5.83c1.42-2.21,3.54-3.23,6.14-3.23c3.31,0,6.22,3.39,6.22,7.09c0,3.7-3.07,6.85-6.77,6.85
		c-0.87,0-1.73-0.16-2.36-0.47C223.82,528.79,224.05,530.05,224.05,531.15z M224.76,488.55c-3.46,0-6.77-2.99-6.77-6.54
		c0-3.94,2.91-7.17,6.77-7.17c1.34,0,2.44,0.31,3.47,1.02l0.31-0.16h-0.08l-0.08-0.24c-0.08-0.55-0.24-1.02-0.24-1.5
		c0-3.94,2.91-6.93,6.62-6.93c3.62,0,6.93,2.99,6.93,6.14c0,3.07-0.79,5.35-3.62,6.85h0.08v0.16h-0.16c2.6,0.63,5.12,3.31,5.12,6.69
		c0,3.46-2.52,6.93-6.93,6.93c-3.94,0-6.54-3.31-6.61-7.17C228.23,487.92,226.65,488.55,224.76,488.55z M260.43,497.21
		c0,1.18-0.31,2.13-0.63,3.07h-0.08l2.68,2.05c1.18-1.18,2.68-1.89,4.49-1.89c3.86,0,6.93,3.23,6.93,7.01c0,3.7-3.23,6.77-6.93,6.77
		c-0.39,0-0.87,0-1.34-0.08l-1.1,3.07h-0.08c2.44,1.02,4.25,3.54,4.25,6.46c0,3.78-2.99,6.85-6.69,6.85c-3.62,0-6.69-3.15-6.77-6.85
		h-2.99c-0.08,3.7-3.15,6.85-6.85,6.85c-3.62,0-6.62-3.07-6.62-6.85c0-2.91,1.73-5.43,4.25-6.46h-0.08l-1.1-3.07
		c-0.55,0.08-0.87,0.08-1.42,0.08c-3.62,0-6.85-3.07-6.85-6.77c0-3.78,3.07-7.01,6.85-7.01c1.89,0,3.31,0.71,4.57,1.89l2.6-2.05
		h-0.08c-0.31-0.95-0.55-1.89-0.55-3.07c0-3.86,3.07-7.01,6.77-7.01C257.44,490.2,260.43,493.35,260.43,497.21z M253.66,535.72
		c3.86,0,6.77,3.39,6.77,6.85c0,1.65-0.63,3.23-1.58,4.41h0.08v0.08h0.47c0.16-0.08,0.39-0.08,0.71-0.08c3.78,0,6.54,3.31,6.54,6.85
		c0,3.78-3.15,6.93-6.85,6.93c-2.52,0-5.04-1.65-6.14-4.17c-1.18,2.44-3.62,4.17-6.22,4.17c-3.62,0-6.69-3.15-6.69-6.93
		c0-3.54,2.6-6.85,6.46-6.85c0.24,0,0.47,0,0.71,0.08h0.39v-0.08h0.08c-0.95-1.18-1.5-2.76-1.5-4.41
		C246.89,539.1,249.88,535.72,253.66,535.72z M271.07,493.82c-4.33,0-6.85-3.46-6.85-6.93c0-3.39,2.52-6.06,5.12-6.69h-0.16v-0.16
		h0.08c-2.76-1.5-3.7-3.78-3.7-6.85c0-3.15,3.31-6.14,7.01-6.14c3.62,0,6.54,2.99,6.54,6.93c0,0.55-0.08,1.1-0.24,1.73h-0.08
		l0.24,0.16c1.02-0.71,2.21-1.02,3.54-1.02c3.78,0,6.69,3.23,6.69,7.17c0,3.54-3.23,6.54-6.69,6.54c-1.89,0-3.54-0.63-4.73-1.89
		C277.76,490.51,275,493.82,271.07,493.82z M281.78,528.16c-3.78,0-6.85-3.15-6.85-6.85c0-3.7,2.99-7.09,6.3-7.09
		c2.6,0,4.73,1.02,6.06,3.23c0.47-3.39,3.54-5.83,6.85-5.83c3.78,0,6.69,2.99,6.69,6.93c0,4.09-3.39,6.77-7.32,6.77h0.08
		c2.05,1.34,3.15,3.54,3.15,5.83c0,3.7-3.07,6.93-6.69,6.93c-3.78,0-6.77-3.07-6.77-6.93c0-1.1,0.24-2.36,0.79-3.47
		C283.43,528,282.64,528.16,281.78,528.16z M284.14,527.68l0.08-0.08c-0.08,0-0.08,0.08-0.16,0.08H284.14z"/>
	<path class="st1" d="M393.36,567.14c-8.43,0-19.06-6.93-19.06-24.81c0-8.03,2.83-16.07,7.32-22.92h0.08
		c-5.98-3.23-11.26-6.85-15.44-10.87c-7.25,7.48-15.04,12.44-23.7,12.44c-11.42,0-19.21-9.06-19.21-19.06
		c0-9.21,7.01-17.56,14.88-17.56c5.75,0,8.03,4.25,8.03,7.01c0,0.55,0,1.02-0.16,1.42c-0.94-0.08-1.73-0.16-2.52-0.16
		c-5.83,0-11.89,3.39-11.89,10.79c0,6.46,4.57,9.61,10.63,9.61c6.46,0,12.36-4.33,18.27-10.87h-0.08
		c-4.33-5.91-6.69-12.36-6.69-19.45c0-15.04,11.97-25.91,26.93-25.91c4.33,0,8.58,1.26,12.68,3.23
		c7.32-7.17,14.41-10.79,23.07-10.79c13.07,0,21.58,8.66,21.58,19.22c0,10.87-9.21,19.53-18.74,19.53c-7.01,0-10.4-4.8-10.47-8.27
		c0-1.02,0.31-2.05,1.02-2.76c2.76,1.97,5.59,2.05,6.69,2.05c7.56,0,11.73-5.04,11.73-12.05c0-6.62-5.12-10.63-11.18-10.63
		c-8.66,0-17.25,8.19-31.97,28.35l-1.42,1.89c-3.86,5.35-7.72,10.87-11.89,15.75c3.86,3.86,8.74,7.56,14.57,11.02
		c7.95-8.5,19.06-14.33,30.63-14.33c12.13,0,22.44,6.3,22.44,15.51c0,5.67-3.07,8.43-6.22,8.98c-3.86-3.62-8.58-5.36-13.15-5.36
		c-14.1,0-24.25,14.81-24.25,26.62c0,7.09,2.83,13.86,7.48,16.54C402.11,564.93,398.09,567.14,393.36,567.14z M376.83,480.51
		c4.49-6.06,8.43-11.26,12.05-15.51c-2.44-1.34-5.2-2.05-7.95-2.05c-10.24,0-18.27,6.38-18.27,18.59c0,4.8,1.34,9.37,3.7,13.54
		C369.66,490.59,373.28,485.63,376.83,480.51z M447.23,556.11c0,0.55,0.16,0.94,0.55,1.42c1.02,1.18,1.65,2.6,1.65,4.17
		c0,3.23-2.68,5.91-5.75,5.91c-1.02,0-1.89-0.16-2.6-0.39c-0.39-0.16-0.63-0.24-0.94-0.24c-0.39,0-0.71,0.08-1.02,0.24
		c-2.36,1.1-5.12,1.97-8.58,1.97c-11.42,0-26.93-8.9-26.93-22.44c0-10.87,8.9-20.79,18.27-20.79c11.42,0,26.3,13.55,26.3,23.78
		c0,1.97-0.24,3.94-0.87,5.83C447.23,555.72,447.23,555.96,447.23,556.11z"/>
	<path class="st1" d="M599.06,538.63h-0.08c-0.47-1.34-0.87-2.6-1.34-3.86c-1.57-4.8-2.99-9.21-5.67-14.18l-0.16-0.31
		c0.16-1.97,4.02-3.94,5.67-3.94c1.73,0,2.68,1.34,3.86,5.12c0.63,1.89,1.18,3.86,1.65,5.83c2.6,8.98,5.2,18.19,12.76,18.19
		c3.94,0,10.16-2.36,15.99-5.35c-6.38-2.91-13.07-5.51-19.14-5.51c-0.16,0-0.39,0-0.71,0.08c-0.47,0.08-1.1,0.16-1.65,0.16
		c-0.94,0-1.73-0.16-1.73-0.79v-0.08l0.16-0.39c1.73-4.8,3.39-9.45,3.39-14.49c0-11.66-6.38-18.11-17.33-18.11
		c-11.89,0-23.15,3.54-34.41,7.09c-7.64,2.44-15.36,4.88-23.31,6.14h0.16c0.08,1.1,0.08,2.21,0.08,3.39
		c0,10.55-6.93,23.15-18.35,23.15c-1.58,0-3.46-0.39-5.35-1.02c-0.63,4.96-2.05,9.84-4.57,14.25c-2.91,5.12-9.14,9.45-14.96,9.45
		c-4.02,0-4.88-4.1-4.88-7.32c0-3.39,0.55-6.54,1.1-9.29v-0.08c-2.36,2.76-5.91,5.43-9.21,8.03c-4.57,3.54-8.74,6.77-8.74,9.61
		c0,2.91,2.76,4.8,7.32,4.8c0.08,0-2.36,4.65-7.25,4.65c-3.94,0-6.93-2.83-6.93-7.25c0-0.94,0.16-1.81,0.39-2.68
		c1.02-3.7,8.19-9.21,13.23-13.07c5.28-4.17,8.5-7.09,12.29-13.07l0.55-1.02c1.1-1.65,3.62-3.39,5.67-3.39
		c0.55,0,1.18,0.24,1.18,0.79v0.16c-0.31,1.97-0.71,3.94-1.02,5.83c-0.79,4.17-1.57,8.35-1.57,12.76c0,1.89,0.39,5.91,2.76,5.91
		c6.06,0,8.66-16.85,8.74-21.81h0.08c-7.48-4.41-14.49-11.73-14.49-16.7c0-4.41,4.73-8.27,10.16-8.27
		c7.88,0,10.47,15.83,10.47,21.58v1.5h-0.08c2.68,1.18,5.12,1.81,7.17,1.81c6.46,0,9.45-10.79,9.45-16.06
		c0-1.89-0.16-3.86-0.47-5.83c-1.26,0.08-2.52,0.16-3.86,0.16c-19.92,0-21.5-13.94-22.6-29.93h0.08
		c-8.74-5.04-17.25-12.6-17.25-23.86c0-6.3,4.8-12.29,10.24-12.29c2.91,0,5.28,1.81,7.09,5.51c3.54,7.25,4.17,17.25,4.65,25.36
		h-0.08c1.81,1.1,3.7,2.21,5.59,3.23c9.92,5.59,20.48,11.97,23,27.17c7.01-1.34,14.65-3.62,22.6-5.99c13.23-3.94,27.09-8.11,40-8.11
		c12.13,0,19.69,6.69,19.69,19.61c0,4.65-1.42,9.69-3.15,14.1h0.16c7.88,0,15.83,3.07,22.76,6.38c5.51-3.15,11.58-5.91,18.27-5.91
		c6.14,0,12.44,2.21,12.44,8.19c0,6.22-8.98,11.02-14.25,11.02c-4.88,0-14.81-4.88-19.45-7.56c-7.72,4.1-16.22,8.43-23.63,8.43
		c-6.85,0-10.16-3.62-12.44-9.61c-3.7,3.78-9.37,5.28-12.92,5.28c-7.4,0-13.86-5.36-19.92-10.4c-5.51-4.49-10.63-8.74-15.83-8.74
		c-3.15,0-5.04,1.65-5.04,4.1c0,2.91,2.99,5.04,5.67,5.59c-1.18,2.68-4.25,4.02-6.3,4.02c-2.68,0-6.3-2.21-6.3-6.38
		c0-6.69,9.14-11.58,14.88-11.58c6.93,0,13.31,4.88,19.53,9.61c5.99,4.65,11.89,9.14,17.96,9.14
		C593.94,541.54,596.77,540.21,599.06,538.63z M499.04,458.78c-1.18-2.76-2.91-5.04-4.1-5.04c-1.02,0-1.65,0.95-1.65,4.33
		c0,7.4,4.02,13.78,9.53,18.19C502.27,470.27,501.25,464.13,499.04,458.78z M501.01,516.42c-1.89,0-2.76,0.79-2.76,3.07
		c0,3.94,4.17,8.58,9.14,11.97C506.84,525.4,505.19,517.37,501.01,516.42z M529.13,511.3c-0.16-0.79-0.39-1.5-0.55-2.21l-0.24-0.55
		c-4.25-11.58-11.89-16.3-19.77-20.55c0.95,12.44,3.62,23.39,18.11,23.39c0.87,0,1.81,0,2.6-0.08H529.13z M617.09,499.26
		c0.79-2.44,2.83-4.02,5.28-4.02h0.16c1.18,0,2.68,0.55,4.33,1.02c1.81,0.63,3.7,1.26,5.28,1.26c3.31,0,5.59-1.1,5.59-5.35
		c0-1.42-2.83-2.21-5.83-2.99c-5.36-1.42-6.54-1.73-9.84-6.14c-1.97-2.68-3.7-4.96-7.95-4.96c-5.91,0-7.8-3.7-10.08-8.66
		c-1.18-2.28-2.36-4.73-3.23-5.75h-0.16c-0.79,2.13-1.26,4.57-1.26,6.85c0,6.62,2.21,10.63,7.09,12.21c0,2.28-2.13,3.62-4.17,3.62
		c-4.41,0-9.92-4.8-9.92-12.52c0-6.77,3.54-15.91,11.34-15.91c2.99,0,4.88,3.62,6.77,7.4c2.05,4.02,4.17,8.11,7.48,8.11
		c6.06,0,7.48,1.73,10,4.88c0.71,0.79,1.34,1.73,2.21,2.68c2.44,2.76,5.43,3.39,8.51,4.02c0.71,0.16,1.34,0.31,1.97,0.47
		c1.65,0.39,4.02,1.26,4.02,3.39c0,7.56-9.45,13.39-15.91,13.39C624.49,502.25,618.82,500.12,617.09,499.26z M632.13,559.66
		c-0.16-0.39-0.24-0.71-0.24-1.02c0-2.36,3.78-3.86,7.8-3.86c4.8,0,14.81,2.28,14.81,9.77c0,6.14-9.29,9.21-15.36,9.21
		c-8.58,0-16.54-7.25-22.21-12.44c-1.73-1.5-3.23-2.91-4.49-3.78c0.63-1.97,2.99-4.1,5.35-4.1c1.02,0,1.97,0.32,2.76,1.18
		c3.54,3.78,15.67,15.12,23.23,15.12c2.21,0,3.78-1.02,3.78-2.36c0-5.04-8.74-7.88-12.52-7.88
		C634.34,559.5,633.08,559.58,632.13,559.66z M643.32,538.39l-0.08,0.08c0.63,0.31,1.26,0.63,1.97,1.02
		c5.91,2.91,11.02,5.51,14.81,5.51c1.73,0,2.6-1.1,2.6-3.15c0-4.65-5.12-6.69-8.66-6.69c-2.99,0-6.69,1.26-10.71,3.23H643.32z"/>
	<path class="st1" d="M706.55,483.82c-12.28,0-21.03,9.53-21.03,21.03c0,9.69,6.14,14.96,13.31,14.96c4.41,0,7.8-1.18,10.79-2.36
		c0.08,0.71,0.16,1.26,0.16,1.89c0,7.4-6.69,11.89-13.78,11.89c-9.77,0-21.5-7.72-21.5-23.55c0-17.48,14.33-31.11,32.05-31.11
		c7.8,0,14.25,2.76,18.59,7.25l0.08-0.08h-0.08c0-0.87-0.08-1.65-0.08-2.44c0-18.98,11.81-33.15,27.56-33.15
		c10.95,0,16.85,6.54,16.85,14.57c0,12.36-14.57,22.29-30.95,22.29c-2.21,0-4.33-0.16-6.46-0.55c2.6,10.71,7.72,18.11,13.15,23.31
		c1.18,1.02,1.65,2.83,1.65,4.57c0,2.28-0.79,4.65-2.05,5.75c-5.35-4.57-11.58-11.26-16.85-20.4
		C723.72,490.44,716.79,483.82,706.55,483.82z M817.43,561.39c-14.41,10.95-38.98,17.4-58.59,17.4c-27.88,0-43.94-14.57-43.94-33.63
		c0-14.57,10.79-25.52,23.63-25.52c4.73,0,9.29,3.86,11.18,8.03l-0.55,0.87c-0.24,0.47-0.31,0.87-0.55,1.02
		c-2.76-2.36-4.88-3.86-8.27-3.86c-6.77,0-13.47,5.83-13.47,16.07c0,16.46,14.96,28.43,38.67,28.43c13.31,0,32.92-2.44,50.32-11.65
		L817.43,561.39z M731.12,478.86c2.05,0.24,3.94,0.31,5.75,0.31c14.25,0,23.7-6.54,23.7-14.88c0-5.51-4.8-8.82-10.87-8.82
		c-11.03,0-18.43,11.18-18.43,21.81v1.58H731.12z M802.63,519.81c3.31,18.59,8.98,26.54,14.8,26.54c6.06,0,9.06-7.8,9.06-19.69
		c0-4.49-0.47-9.53-1.34-14.96c1.58-0.31,3.15-0.47,4.49-0.47c9.37,0,16.22,6.77,16.22,16.85c0,16.62-25.04,28.59-44.42,28.59
		c-24.25,0-50.16-25.52-50.16-45.83c0-12.68,10.16-23.86,23.47-23.86C790.81,486.97,798.53,496.03,802.63,519.81z"/>
</g>
<g>
	<path class="st1" d="M940.52,470.75c1.73-0.71,3.94-1.02,6.3-1.02c14.25,0,26.15,11.81,26.15,25.83c0,6.38-3.15,12.76-7.48,17.56
		c4.49,4.73,7.4,11.1,7.4,17.48c0,15.2-12.76,25.91-25.2,25.91c-2.44,0-4.96-0.39-6.77-0.87c-3.15,11.26-13.15,18.19-24.89,18.19
		s-21.66-6.93-24.81-18.19c-1.89,0.47-4.33,0.87-6.85,0.87c-12.36,0-25.12-10.71-25.12-25.91c0-6.38,2.83-12.76,7.4-17.48
		c-4.33-4.8-7.48-11.18-7.48-17.56c0-14.02,11.89-25.83,26.07-25.83c2.36,0,4.65,0.32,6.3,1.02c2.68-11.42,12.76-18.35,24.49-18.35
		S937.92,459.33,940.52,470.75z M895.79,477.83l-0.31,0.16c-2.76-1.42-5.83-2.21-8.82-2.21c-11.18,0-20.4,9.14-20.4,20.32
		c0,6.69,3.39,12.99,9.21,16.85v0.39c-5.83,3.86-9.21,10.08-9.21,16.77c0,11.1,9.21,20.32,20.4,20.32c2.99,0,6.06-0.79,8.82-2.21
		l0.31,0.24c0,10.55,10.24,18.9,20.24,18.9c10.08,0,20.24-8.35,20.24-18.9l0.39-0.24c2.68,1.42,5.75,2.21,8.82,2.21
		c11.1,0,20.32-9.21,20.32-20.32c0-6.69-3.31-12.92-9.21-16.77v-0.39c5.91-3.86,9.21-10.16,9.21-16.85
		c0-11.18-9.21-20.32-20.32-20.32c-3.07,0-6.14,0.79-8.82,2.21l-0.39-0.16c0-10.55-9.77-18.98-20.24-18.98
		C905.55,458.86,895.79,467.28,895.79,477.83z M916.03,561c-7.56,0-13.86-6.22-13.86-13.86c0-5.04,2.91-9.77,7.32-12.13
		c1.42-0.79,2.28-1.81,2.28-3.39c0-3.31-3.07-6.54-6.69-6.54c-3.23,0-4.8,2.13-4.88,5.04c-0.24,7.56-5.98,13.78-13.7,13.78
		c-7.56,0-13.86-6.14-13.86-13.7s6.22-13.78,13.78-13.78c2.6,0,5.12,0.63,6.77,1.73c1.5,0.95,2.28,1.18,3.23,1.18
		c2.76,0,4.65-2.83,4.65-6.22c0-3.39-1.89-6.22-4.65-6.22c-0.95,0-1.73,0.24-3.23,1.18c-1.65,1.1-4.17,1.73-6.77,1.73
		c-7.56,0-13.78-6.22-13.78-13.78s6.3-13.7,13.86-13.7c7.72,0,13.47,6.22,13.7,13.78c0.08,2.91,1.65,5.04,4.88,5.04
		c3.62,0,6.69-3.23,6.69-6.54c0-1.57-0.87-2.6-2.28-3.39c-4.41-2.36-7.32-7.09-7.32-12.13c0-7.64,6.3-13.86,13.86-13.86
		s13.86,6.22,13.86,13.86c0,5.04-2.83,9.77-7.32,12.13c-1.42,0.79-2.28,1.81-2.28,3.39c0,3.31,3.07,6.54,6.77,6.54
		c3.23,0,4.73-2.13,4.8-5.04c0.24-7.56,6.06-13.78,13.7-13.78c7.56,0,13.86,6.14,13.86,13.7s-6.22,13.78-13.78,13.78
		c-2.52,0-5.12-0.63-6.69-1.73c-1.58-0.94-2.28-1.18-3.23-1.18c-2.83,0-4.73,2.83-4.73,6.22c0,3.39,1.89,6.22,4.73,6.22
		c0.94,0,1.65-0.24,3.23-1.18c1.57-1.1,4.17-1.73,6.69-1.73c7.56,0,13.78,6.22,13.78,13.78s-6.3,13.7-13.86,13.7
		c-7.64,0-13.47-6.22-13.7-13.78c-0.08-2.91-1.57-5.04-4.8-5.04c-3.7,0-6.77,3.23-6.77,6.54c0,1.57,0.87,2.6,2.28,3.39
		c4.49,2.36,7.32,7.09,7.32,12.13C929.89,554.77,923.59,561,916.03,561z M893.03,496.03c0-3.54-2.91-6.46-6.54-6.46
		c-3.54,0-6.46,2.91-6.46,6.46c0,3.54,2.91,6.46,6.46,6.46C890.12,502.48,893.03,499.57,893.03,496.03z M880.04,530.2
		c0,3.54,2.91,6.46,6.46,6.46c3.62,0,6.54-2.91,6.54-6.46c0-3.54-2.91-6.46-6.54-6.46C882.95,523.75,880.04,526.66,880.04,530.2z
		 M916.03,485.47c3.62,0,6.46-2.91,6.46-6.46c0-3.54-2.99-6.38-6.46-6.38c-3.47,0-6.46,2.83-6.46,6.38
		C909.57,482.56,912.48,485.47,916.03,485.47z M916.03,553.59c3.46,0,6.46-2.83,6.46-6.38c0-3.54-2.83-6.46-6.46-6.46
		c-3.54,0-6.46,2.91-6.46,6.46C909.57,550.76,912.56,553.59,916.03,553.59z M922.41,513.12c0-3.46-2.91-6.46-6.38-6.46
		c-3.47,0-6.38,2.99-6.38,6.46c0,3.47,2.91,6.46,6.38,6.46C919.49,519.57,922.41,516.58,922.41,513.12z M952.02,496.03
		c0-3.54-2.91-6.46-6.46-6.46c-3.54,0-6.46,2.91-6.46,6.46c0,3.54,2.91,6.46,6.46,6.46C949.1,502.48,952.02,499.57,952.02,496.03z
		 M939.1,530.2c0,3.54,2.91,6.46,6.46,6.46c3.54,0,6.46-2.91,6.46-6.46c0-3.54-2.91-6.46-6.46-6.46
		C942.02,523.75,939.1,526.66,939.1,530.2z"/>
</g>
<g>
	<path class="st1" d="M1053.53,488.23h-0.16c-2.91-8.66-11.34-14.33-23.23-14.33c-18.66,0-31.26,12.84-31.26,23.47
		c0,6.3,4.1,13.7,12.52,13.78c-0.79,4.1-7.48,7.01-12.76,7.01c-5.99,0-12.44-5.59-12.44-14.8c0-17.4,20.55-35.04,44.97-35.04
		c16.38,0,27.56,7.88,31.03,18.51c1.26-0.08,2.52-0.16,3.94-0.16c8.74,0,17.72,1.97,26.38,6.54c-1.42,1.81-3.94,2.91-6.85,2.91
		c-1.26,0-2.6-0.24-4.02-0.71c-0.87-0.31-10.79-3.07-17.09-3.15h-1.42c0.08,0.63,0.08,1.34,0.08,1.89
		c0,18.43-19.92,32.52-34.49,35.36h0.16c1.5,15.75,12.84,24.18,23.86,24.18c4.09,0,9.13-1.18,12.92-3.46
		c0.63,0.79,0.87,1.73,0.87,2.76c0,5.35-7.56,13.62-19.61,13.62c-14.17,0-28.67-14.25-28.67-35.67
		C1018.25,509.34,1033.6,493.11,1053.53,488.23z M1054.39,494.92v-1.1c-12.92,3.54-24.41,14.33-25.67,29.61
		C1040.45,519.18,1054.39,510.28,1054.39,494.92z M1096.6,499.1c23.55,0,57.09,12.13,74.1,24.89l-1.42,3.07
		c-7.17-3.31-13.7-4.41-19.69-4.41c-11.5,0-21.5,4.8-31.26,9.45c-9.61,4.65-19.06,9.14-29.77,9.14c-13.47,0-23.23-8.9-23.23-20.63
		C1065.34,507.6,1077.31,499.1,1096.6,499.1z M1096.44,491.85c-6.93-2.68-10.32-7.32-10.32-11.81c0-6.38,6.54-12.52,19.85-12.52
		c34.02,0,84.66,49.53,84.66,73.71c0,7.8-6.14,12.76-12.6,12.76c-5.2,0-7.32-3.15-7.32-5.83c0-0.24,0.08-0.47,0.08-0.71
		c4.65-1.1,9.92-4.88,9.92-12.05c0-23.62-47.01-56.54-71.43-56.54c-9.29,0-12.6,3.7-12.6,8.03c0,1.26,0.24,2.6,0.79,3.86
		L1096.44,491.85z"/>
	<path class="st1" d="M1214.65,480.35c16.14,0,27.96,39.77,27.96,62.76c0,14.73-9.77,22.52-17.17,22.52c-5.36,0-9.13-3.78-9.13-9.29
		c0-4.88,2.44-8.9,5.35-12.44h-0.08v-0.16h-0.24c-5.28,0-10.71-5.04-10.71-10.63c0-3.39,1.5-6.62,3.86-8.98h-0.08v-0.16h0.16
		c-4.25-0.24-8.9-3.62-8.9-8.74c0-3.46,2.13-7.01,5.04-9.37h-0.08v-0.16c-6.38,0-11.81-4.02-11.81-10.87
		C1198.82,487.6,1208.11,480.35,1214.65,480.35z M1205.83,491.62c0,6.54,4.8,9.69,10.47,9.69c0.71,0,1.5-0.16,2.13-0.31
		c0.79-0.16,1.42-0.31,2.21-0.31c0.55,0,1.1,0.31,1.1,0.79c0,1.57-1.58,2.28-3.39,3.15c-2.52,1.18-5.75,2.68-5.75,7.48
		c0,4.02,3.54,7.48,7.17,7.48c0.94,0,1.97-0.31,2.91-0.71c0.87-0.31,1.89-0.63,2.83-0.63c0.47,0,1.18,0.24,1.18,0.71
		c0,1.73-1.58,2.36-3.46,3.15c-2.6,1.1-5.67,2.44-5.67,7.72c0,4.57,4.02,9.29,8.35,9.29c0.55,0,1.1-0.16,1.5-0.39
		c0.55-0.16,1.1-0.31,1.73-0.31c0.39,0,1.02,0.24,1.02,0.71c0,0.47-0.71,1.18-1.58,2.21c-1.97,2.28-5.2,5.98-5.2,11.66
		c0,3.54,2.21,8.03,5.91,8.03c3.46,0,6.38-6.69,6.38-14.65c0-22.21-11.66-61.19-25.67-61.19
		C1208.03,485.16,1205.83,488.55,1205.83,491.62z M1350.96,499.41c-2.99,0-7.09,0.63-12.13,1.42c-11.97,1.97-23.86,3.62-35.83,5.2
		c-1.1,0.16-2.36,0.39-3.7,0.63c-3.23,0.47-6.77,1.1-9.14,1.1c-0.47,0-1.18-0.24-1.18-0.79c0-1.42,2.99-3.15,4.09-3.54
		c2.6-0.95,6.62-1.34,10.08-1.65c1.34-0.08,2.52-0.16,3.62-0.31c5.28-0.71,10.55-1.5,15.75-2.21c5.43-0.79,11.02-1.58,16.3-2.28
		c12.36-1.73,16.77-2.36,20.16-3.23c1.81-0.55,2.28-1.73,2.28-2.83c0-4.17-3.39-4.8-6.85-4.8c-4.65,0-10,0.63-15.2,1.26
		c-2.05,0.24-4.1,0.47-6.06,0.71c-9.37,1.02-18.66,2.13-27.88,3.46c-1.1,0.16-2.68,0.39-4.33,0.71c-4.25,0.63-9.29,1.5-12.36,1.5
		c-0.39,0-1.1-0.31-1.1-0.79c0-1.34,2.68-2.99,3.78-3.46c2.44-1.26,24.1-3.54,29.61-4.1h-0.16c0.16-0.47,0.16-0.94,0.16-1.34
		c0-4.25-3.62-7.01-8.19-7.01c-5.83,0-16.22,1.97-24.02,3.39c-2.68,0.47-5.51,0.94-8.19,1.57c-2.52,0.47-4.96,1.02-7.48,1.02
		c-1.58,0-3.86-0.24-3.86-2.21c0-1.1,1.34-3.46,3.15-6.54c3.46-5.99,8.58-14.81,8.58-23.23c0-3.15-0.71-7.17-2.68-9.45
		c-3.62,7.25-8.66,13.15-14.33,18.66c-6.77,6.61-8.27,8.58-12.52,17.17c-2.44,5.04-9.14,17.56-14.33,17.56
		c-0.71,0-1.42-0.24-2.13-0.55c3.7-4.73,6.93-9.53,9.61-14.96c4.49-8.82,7.56-13.07,14.57-19.85c4.8-4.57,9.69-9.29,13.78-18.51
		c2.13-4.8,4.33-6.93,7.09-6.93c3.86,0,7.88,6.93,7.88,13.47c0,9.13-6.22,19.85-9.61,25.67c-1.18,2.13-2.05,3.62-2.05,4.1
		c0,0.87,1.02,0.87,1.42,0.87c2.28,0,4.57-0.47,6.93-0.94c0.95-0.24,1.97-0.47,2.99-0.63c1.02-0.24,2.28-0.39,3.46-0.71
		c8.19-1.58,18.98-3.62,25.04-3.62c6.77,0,11.81,2.68,11.81,8.11c0,1.73-0.47,2.83-1.58,4.1l0.16,0.16c0.79-0.16,1.5-0.24,2.28-0.31
		c9.37-1.34,19.21-2.76,30-2.76c6.46,0,9.53,1.81,9.53,5.83v0.16c-0.08,3.78-3.94,7.01-7.48,8.11h0.08v0.16h-0.08
		c1.73,1.02,3.47,2.76,3.47,5.04c0,10.4-19.61,13.54-29.61,15.2c-1.34,0.24-2.44,0.39-3.39,0.55c-8.98,1.73-17.96,3.47-27.01,4.88
		h0.16v0.16h-0.08c1.02,0.39,2.6,0.87,4.49,1.5c9.76,3.15,27.8,8.98,31.66,11.81c1.26,0.79,2.52,1.89,2.52,3.62
		c0,5.91-7.56,9.84-12.52,9.84c-8.19,0-17.25-3.07-26.22-6.14c-8.82-2.99-17.56-5.91-25.12-5.91c-2.76,0-5.51,0.24-8.35,0.47
		c-2.76,0.24-5.51,0.47-8.35,0.47c-1.81,0-12.99-0.55-12.99-2.28c0-1.89,2.99-3.46,5.75-4.02c4.88,1.18,8.98,1.34,12.92,1.34
		c2.44,0,4.73-0.16,7.25-0.32c2.6-0.16,5.36-0.31,8.43-0.31c8.03,0,17.64,3.23,26.62,6.14c4.65,1.58,9.37,2.99,14.1,4.33
		c2.83,0.87,5.43,1.65,8.74,1.65c1.1,0,2.6-0.24,2.6-1.89c0-3.39-13.23-7.95-16.46-8.66l-21.34-7.4c-1.02-0.39-1.97-0.71-2.76-0.95
		c-3.7-1.26-4.65-1.5-4.65-2.6c0-3.15,11.1-4.57,13.31-4.8c8.11-1.34,48.75-8.03,51.11-9.69c1.89-1.18,2.13-2.05,2.13-3.23
		C1357.11,500.36,1354.82,499.41,1350.96,499.41z"/>
	<path class="st1" d="M1401.83,515.24c-8.19,0.94-19.77,1.42-21.26,1.42c-2.76,0-4.1-1.42-4.1-3.46c0-2.05,1.34-3.39,4.17-3.47
		c1.42,0,13.07,0.55,21.26,1.42c1.02,0.08,1.73,0.95,1.73,2.05S1402.94,515.16,1401.83,515.24z M1390.65,545.17l-0.63,0.47
		c-1.02,0.47-1.81,0.71-2.52,0.71c-1.65,0-3.46-1.73-3.46-3.54c0-1.1,0.71-2.2,2.44-3.15c2.13-1.5,18.51-10.08,20-10.08
		c0.55,0,1.18,0.31,1.65,1.02c0.16,0.39,0.24,0.71,0.24,1.02c0,0.63-0.32,1.18-0.87,1.65
		C1401.68,537.84,1393.41,543.36,1390.65,545.17z M1386.56,486.66c-1.58-1.02-2.28-2.21-2.36-3.31c0.32-1.73,1.42-3.46,3.31-3.46
		c0.79,0,1.58,0.31,2.52,0.79c1.26,0.79,11.1,7.32,17.72,12.44c0.47,0.39,0.79,0.94,0.79,1.5c0,0.31-0.08,0.79-0.32,1.18
		c-0.47,0.63-1.1,0.94-1.65,1.02c-0.32-0.08-0.63-0.16-0.87-0.24C1397.97,493.03,1387.82,487.52,1386.56,486.66z M1411.68,565.64
		c-1.02,1.73-2.13,2.44-3.23,2.44c-1.65,0-3.54-1.5-3.54-3.23c0-0.71,0.24-1.57,0.79-2.6c0.71-1.34,7.01-11.5,11.89-18.51
		c0.31-0.47,0.87-0.71,1.58-0.71c1.1,0,2.28,0.79,2.28,2.05c0,0.24-0.08,0.47-0.16,0.71
		C1417.82,553.75,1412.46,564.38,1411.68,565.64z M1406.32,464.92c-0.16-0.31-0.31-0.55-0.55-0.87c-0.55-1.02-0.79-1.89-0.79-2.52
		c0-1.65,1.97-3.39,3.62-3.39c1.1,0,2.21,0.79,3.15,2.52c0.79,1.26,6.06,11.89,9.53,19.77c0.08,0.31,0.16,0.63,0.16,0.87
		c0,0.55-0.31,1.18-1.1,1.65c-0.39,0.16-0.63,0.31-1.02,0.31c-0.71,0-1.34-0.31-1.73-0.87
		C1413.33,476.42,1408.13,467.83,1406.32,464.92z M1431.68,495.24c0,1.97-1.81,3.31-5.98,3.31c-0.47,0-1.26-0.08-2.05-0.08
		c-0.87-0.08-1.89-0.16-2.91-0.16c-1.1,0-2.36,0.08-3.23,0.39c-0.95,0.31-2.13,0.47-2.83,0.47c-0.55,0-1.34-0.32-1.34-0.95
		c0-2.68,10.95-4.96,15.36-4.96C1430.58,493.27,1431.68,493.59,1431.68,495.24z M1427.03,509.81c-1.18,0-7.88-0.87-7.88-3.07
		c0-1.65,4.09-4.02,8.43-4.02c2.13,0,3.46,1.26,3.46,3.39C1431.05,508.15,1429.32,509.81,1427.03,509.81z M1437.11,527.68
		c1.57-1.5,2.76-2.13,4.8-2.13c1.65,0,2.99,0.24,4.33,0.47c1.34,0.24,2.68,0.47,4.09,0.47c0.71,0,0.95,0.16,0.95,0.47
		c0,1.65-2.36,2.44-3.62,2.44c-2.28,0-4.33,0.24-6.61,0.87c-1.26,0.31-2.36,0.63-4.1,0.63c-1.65,0-2.68-0.31-3.94-0.63
		c-2.21-0.63-4.25-0.87-6.69-0.87c-1.18,0-3.7-0.79-3.7-2.44c0-0.31,0.31-0.47,0.94-0.47c1.5,0,2.76-0.24,4.1-0.47
		c1.34-0.24,2.76-0.47,4.41-0.47c2.05,0,3.15,0.63,4.72,2.13H1437.11z M1440.97,516.11c0.08-0.16,0.24-0.39,0.32-0.63
		c0.31-0.47,0.55-0.87,1.5-0.87c1.58,0,3.07,1.57,3.07,3.39c0,1.65-1.42,2.6-3.07,2.6h-1.89c-0.47,0-0.94,0.16-1.42,0.39
		c-0.71,0.24-1.34,0.55-2.52,0.55c-1.02,0-1.81-0.32-2.44-0.55c-0.39-0.16-0.94-0.39-1.5-0.39h-1.81c-1.73,0-3.07-0.94-3.07-2.6
		c0-1.81,1.42-3.39,3.07-3.39c1.02,0,1.26,0.39,1.5,0.94c0.08,0.24,0.16,0.39,0.31,0.55h-0.08c1.34,1.58,2.76,1.73,4.02,1.73
		C1438.29,517.84,1439.71,517.68,1440.97,516.11z M1439.48,535.32l0.24-0.16c0.47-0.39,0.87-0.63,1.34-0.63
		c0.63,0,1.18,0.79,1.18,1.65c0,1.57-2.13,3.7-5.28,3.7c-3.07,0-5.28-2.13-5.28-3.7c0-0.87,0.71-1.65,1.18-1.65s0.79,0.16,1.26,0.47
		c0.16,0.08,0.32,0.24,0.39,0.31c0.71,0.47,1.5,0.63,2.44,0.63C1437.98,535.95,1438.69,535.8,1439.48,535.32z M1433.49,454.37
		c0-2.76,1.42-4.1,3.46-4.1c2.05,0,3.39,1.34,3.47,4.17c0,1.5-0.47,13.62-1.34,22.21c-0.08,0.95-0.95,1.65-2.13,1.65
		c-1.1,0-2.05-0.71-2.13-1.73C1433.96,467.91,1433.49,455.94,1433.49,454.37z M1439.08,549.73c0.87,8.66,1.34,20.71,1.34,22.21
		c-0.08,2.83-1.42,4.17-3.47,4.17c-2.05,0-3.39-1.34-3.46-4.17c0-1.5,0.55-13.55,1.34-22.21c0.08-0.87,1.02-1.65,2.13-1.65
		C1438.14,548.08,1439,548.87,1439.08,549.73z M1460.58,498.23c0,0.63-0.63,0.95-1.34,0.95c-0.63,0-1.89-0.16-2.76-0.47
		c-0.95-0.31-2.13-0.39-3.31-0.39c-1.02,0-1.97,0.08-2.91,0.16c-0.79,0-1.5,0.08-2.05,0.08c-4.17,0-5.91-1.34-5.91-3.31
		c0-1.65,1.18-1.97,2.99-1.97C1449.71,493.27,1460.58,495.55,1460.58,498.23z M1446.33,502.72c4.49,0,8.58,2.36,8.58,4.02
		c0,2.2-6.85,3.07-7.95,3.07c-2.28,0-4.1-1.65-4.1-3.7C1442.86,503.98,1444.2,502.72,1446.33,502.72z M1462.31,460.75
		c1.02-1.73,2.13-2.44,3.31-2.44c1.58,0,3.47,1.5,3.47,3.23c0,0.79-0.32,1.65-0.79,2.6c-0.71,1.34-7.01,11.42-11.89,18.51
		c-0.32,0.47-0.87,0.71-1.5,0.71c-1.02,0-2.36-0.79-2.36-1.97c0-0.24,0.08-0.55,0.24-0.79
		C1456.09,472.64,1461.45,462.01,1462.31,460.75z M1452.63,545.01c0-1.18,1.18-1.97,2.28-1.97c0.63,0,1.18,0.24,1.5,0.71
		c4.88,7.09,11.18,17.17,11.89,18.51c0.47,1.02,0.79,1.89,0.79,2.6c0,1.73-1.89,3.23-3.47,3.23c-1.18,0-2.28-0.71-3.31-2.44
		c-0.87-1.26-6.14-11.89-9.53-19.85C1452.71,545.56,1452.63,545.25,1452.63,545.01z M1486.49,480.04c1.34,0,2.13,0.71,2.91,1.89
		c0.32,0.55,0.55,1.1,0.55,1.65c0,1.1-0.79,2.21-2.44,3.15c-2.28,1.58-18.59,10.08-20,10.08c-1.1,0-1.89-1.02-1.89-2.13
		c0-0.55,0.32-1.18,0.79-1.58C1469.01,491.14,1483.5,480.04,1486.49,480.04z M1465.62,531.7c0-1.1,0.79-2.13,1.89-2.13
		c1.42,0,17.72,8.51,20,10.08c1.65,0.95,2.44,2.05,2.44,3.15c0,1.73-1.73,3.54-3.46,3.54c-0.71,0-1.58-0.24-2.52-0.71l-0.63-0.39
		c-2.52-1.73-10.95-7.4-16.93-11.97C1465.94,532.88,1465.62,532.25,1465.62,531.7z M1470.27,513.19c0-1.1,0.87-1.97,1.89-2.05
		c8.27-0.94,19.77-1.42,21.34-1.42c2.6,0,4.02,1.42,4.02,3.47c0,2.05-1.42,3.46-4.02,3.46c-1.58,0-13.07-0.47-21.34-1.42
		C1471.13,515.16,1470.27,514.3,1470.27,513.19z"/>
	<path class="st1" d="M1580.52,511.93c-0.79,1.81-3.15,3.23-5.12,3.23c-1.02,0-1.89-0.31-2.52-1.02c2.91-6.62,3.46-12.52,3.46-19.22
		c0-8.66-0.24-15.99-9.84-15.99c-6.38,0-12.6,1.81-18.74,3.54c-4.65,1.34-9.13,2.68-13.62,3.15h0.16
		c1.5,10.95,3.54,25.36,7.32,35.28c3.7-2.21,7.64-3.46,11.58-3.46c4.41,0,10,2.21,10,7.4c0,6.77-8.35,12.68-14.49,12.68h-0.95
		c-4.49,0-7.88-3.23-10.47-7.8c-2.52,3.94-3.86,8.82-3.86,12.99c0,12.99,11.03,20.16,22.6,20.16c9.37,0,14.96-4.65,19.14-8.03
		c1.02-0.87,2.13-1.73,3.07-2.36c0.87-0.47,1.58-0.79,2.36-0.79c0.94,0,1.65,0.39,2.21,1.18c0.55,0.95,1.02,1.89,1.57,2.76
		c6.54,11.89,16.7,16.77,29.85,16.77c24.49,0,36.3-19.06,36.38-39.14c0-14.73-6.3-30-18.66-38.82c-0.47-0.31-1.02-0.71-1.58-1.02
		c-1.73-1.02-3.62-2.13-4.41-3.94c-1.02-2.13-1.1-5.28-1.26-9.14c-0.47-9.92-1.1-23.31-13.86-23.31c-7.56,0-15.36,5.51-15.36,10
		c0,2.05,1.34,2.44,2.44,2.44c0.87,0,1.89-0.32,2.52-0.55c0.39-0.08,0.71-0.24,1.02-0.24c0.55,0,1.1,0.08,1.1,0.79
		c0,1.89-0.63,3.94-1.42,6.06c-0.79,2.28-1.58,4.73-1.58,7.09c0,3.23,1.34,3.39,2.76,3.54c3.39,0.47,3.47,2.36,3.47,5.67
		c-0.08,0.47-0.08,0.95-0.08,1.42c0,1.97,0.31,4.09,2.21,4.09c4.57,0,6.14-6.61,6.14-10.47c0-3.54-1.26-8.03-5.28-8.03h-0.87
		c0.16-2.44,2.13-4.41,4.96-4.41c4.41,0,6.3,5.28,6.3,9.77c0,9.21-5.75,17.88-15.67,17.88c-4.02,0-4.72-2.36-4.72-5.83
		c0-0.31,0-0.71,0.08-1.1v-1.34c0-1.02-0.08-1.97-0.55-2.6c-0.08-0.08-0.32-0.16-0.71-0.16c-1.65-0.16-5.04-0.47-5.04-5.12
		c0-2.21,0.71-4.25,1.58-6.38c0.63-1.81,1.34-3.62,1.5-5.59h0.08l-0.16-0.08c-0.63,0.16-1.18,0.24-1.89,0.24
		c-3.62,0-5.2-1.65-5.2-5.43c0.55-7.64,14.57-15.83,24.81-15.83c11.34,0,16.77,7.8,18.11,15.44c0.47,3.31,0.55,6.62,0.63,9.53
		c0,4.33,0.08,7.8,1.58,9.21c1.18,1.02,2.76,2.05,4.33,3.15c12.99,8.5,20.24,22.84,20.4,38.82v0.63c0,24.57-17.25,49.14-47.17,49.14
		c-13.39,0-27.17-7.09-33.86-19.45c-6.69,5.67-15.99,10-24.89,10c-12.68,0-26.07-8.82-26.07-23.39c0-7.17,3.62-14.57,9.06-20.08
		c-3.62-8.58-5.28-18.19-6.46-27.48c-0.55-3.47-1.18-8.11-2.05-12.84h0.16c-8.35-1.1-18.27-6.06-18.27-15.75
		c0-6.54,7.17-9.84,13.31-9.84c1.81,0,3.7,0.31,5.28,1.97c2.91,3.15,4.73,11.02,6.22,20.16c3.62-0.47,8.66-1.89,12.13-2.84
		l1.34-0.39c0.94-0.24,1.89-0.55,2.99-0.79c6.77-1.97,13.62-3.86,20.71-3.86c11.73,0,12.68,6.85,12.68,17.4
		C1583.43,496.74,1582.56,507.52,1580.52,511.93z M1521.3,465.71c-0.79-0.94-1.89-1.5-2.83-1.5c-1.5,0-2.68,1.1-2.68,3.7
		c0,6.54,4.57,11.18,10.32,13.15C1524.68,474.13,1523.03,467.91,1521.3,465.71z M1542.87,523.83c1.89,3.94,4.17,6.77,7.01,8.27
		c0.87,0.39,1.81,0.79,2.68,0.79c2.91,0,3.7-1.73,3.7-4.8c0-4.1-4.41-5.99-7.72-5.99c-2.05,0-3.94,0.63-5.75,1.73H1542.87z
		 M1564.84,495.63c0,1.97,0,4.49,0.24,6.62c0.16,1.18,1.1,1.26,1.73,1.26h0.32c0.63,0,1.1,0.08,1.1,0.47c0,1.89-3.94,4.33-6.14,4.33
		c-2.68,0-3.54-3.31-3.78-7.01c-2.76,0.55-5.28,2.13-5.28,3.39c0,1.65,1.5,1.73,3.07,1.73h0.95c0.55,0,0.79,0.24,0.79,0.71
		c0,1.81-3.86,3.62-7.09,3.62c-2.44,0-4.57-1.02-4.57-3.86c0-3.94,5.75-6.69,11.97-8.98h-0.08c-0.16-3.78-0.31-7.17-1.81-7.25
		c-0.16,0-0.32,0-0.47,0.08c-1.26,0.39-2.05,1.26-2.05,2.76c0,0.39,0,0.79,0.16,1.26c-0.94,2.44-4.02,3.86-5.35,3.86
		c-1.02,0-1.73-0.47-1.73-1.5c0-4.96,8.35-11.18,13.54-11.18c4.49,0,4.49,4.25,4.49,7.64V495.63z M1631.55,515.71
		c-0.39-0.71-0.63-1.18-0.63-1.26c0.71-1.73,2.44-2.91,4.09-2.91c4.88,0,7.72,11.34,7.72,15.2c0,10.47-10.32,17.33-19.69,17.33
		c-8.43,0-16.14-5.12-23.31-9.84l-1.34-0.79c-6.69,3.7-13.31,7.48-22.6,7.48c-3.62,0-9.45-1.26-9.45-5.91
		c0-8.27,10.79-13.39,18.66-13.39c5.59,0,11.03,2.6,16.46,5.83c4.1-1.97,8.98-3.94,14.65-4.96h-0.16
		c-2.28-3.78-4.33-8.27-4.33-12.68c0-3.7,2.68-6.38,5.83-6.38c0.63,0,1.18,0.08,1.81,0.24c-0.08,0.16-0.16,0.39-0.24,0.55
		c-0.24,0.55-0.39,1.26-0.39,2.28c0,4.73,1.58,9.21,4.33,12.99c1.1,1.5,1.65,2.83,1.73,3.7c0,2.36-1.81,2.68-3.78,2.76
		c-4.17,0.16-8.98,0.95-15.59,3.94l1.26,0.79c7.01,4.33,13.94,8.66,21.11,8.66c5.83,0,8.11-3.39,8.11-9.29
		C1635.8,524.3,1632.81,518.31,1631.55,515.71z M1582.09,526.5c-5.12,0-8.74,2.13-8.74,5.12c0,3.54,4.57,4.33,7.01,4.33
		c5.28,0,9.69-2.21,14.33-4.8C1590.36,528.47,1586.11,526.5,1582.09,526.5z"/>
	<path class="st1" d="M1695.96,528.71c-0.32,0.08-0.63,0.24-0.95,0.39c-1.81,0.71-4.49,1.89-8.5,1.89
		c-10.16,0-16.14-7.48-16.14-17.8s5.98-17.8,16.14-17.8c4.02,0,6.69,1.18,8.5,1.89c0.32,0.16,0.47,0.24,0.79,0.31
		c1.57-3.46,6.14-6.14,10.32-6.14c0.55,0,1.18,0,1.57,0.16c-0.08-0.55-0.16-1.18-0.16-1.73c0-4.33,2.68-9.13,6.14-10.87h-0.08
		c-0.08-0.32-0.24-0.63-0.39-0.95c-0.63-1.89-1.81-4.73-1.81-8.74c0-10.55,7.25-16.7,17.25-16.7c9.92,0,17.17,6.14,17.17,16.7
		c0,4.25-1.26,7.25-1.97,9.14l-0.24,0.55h-0.08c3.46,1.73,6.14,6.46,6.14,10.79c0,0.55-0.08,1.18-0.16,1.81
		c0.39-0.16,1.02-0.16,1.57-0.16c4.17,0,8.74,2.68,10.4,6.14c0.24-0.08,0.55-0.16,0.87-0.31c1.73-0.71,4.41-1.89,8.35-1.89
		c10.24,0,16.22,7.48,16.22,17.8s-5.99,17.8-16.22,17.8c-3.94,0-6.62-1.18-8.35-1.89c-0.32-0.16-0.55-0.24-0.87-0.31
		c-1.65,3.47-6.22,6.14-10.4,6.14c-0.55,0-1.18,0-1.57-0.16c0.08,0.63,0.16,1.26,0.16,1.81c0,4.33-2.68,9.06-6.14,10.79h0.08
		l0.24,0.55c0.71,1.89,1.97,4.88,1.97,9.13c0,10.55-7.25,16.7-17.17,16.7c-10,0-17.25-6.14-17.25-16.7c0-4.02,1.18-6.85,1.81-8.74
		c0.16-0.31,0.32-0.63,0.39-0.94h0.08c-3.46-1.73-6.14-6.54-6.14-10.87c0-0.55,0.08-1.18,0.16-1.73c-0.39,0.16-1.02,0.16-1.57,0.16
		c-4.17,0-8.74-2.68-10.32-6.14L1695.96,528.71z M1717.93,470.27c0,3.39,1.1,6.62,2.13,9.45c0.16,0.47,0.24,0.87,0.39,1.34
		l-0.08,0.31c-4.41,2.52-6.85,6.69-6.93,11.02c0,1.97,0.55,4.02,1.5,5.99l-0.39,0.55c-2.05-1.1-4.09-1.65-5.91-1.65
		c-4.09,0-8.03,2.52-10.32,7.17l-0.47,0.08l-1.42-0.47c-2.68-1.02-5.83-2.21-9.06-2.21c-6.77,0-10.55,4.88-10.55,11.34
		s3.78,11.34,10.55,11.34c3.23,0,6.38-1.18,9.06-2.21l1.42-0.47l0.47,0.08c2.36,4.73,6.22,7.25,10.4,7.25
		c1.81,0,3.78-0.55,5.83-1.65l0.39,0.47c-0.94,1.97-1.5,4.02-1.5,5.98c0,4.49,2.44,8.5,6.93,11.02l0.08,0.31
		c-0.16,0.47-0.24,0.87-0.39,1.34c-1.02,2.83-2.13,6.06-2.13,9.45c0,7.25,4.57,11.26,10.71,11.26s10.63-4.02,10.63-11.26
		c0-2.99-1.1-8.03-2.44-10.79l0.08-0.31c4.41-2.52,6.85-6.54,6.85-11.02c0-1.97-0.47-4.02-1.5-5.98l0.55-0.47
		c1.97,1.1,3.94,1.65,5.75,1.65c4.17,0,7.95-2.52,10.39-7.25l0.47-0.08c0.47,0.16,1.02,0.31,1.5,0.55c2.6,1.02,5.59,2.13,8.9,2.13
		c6.85,0,10.63-4.88,10.63-11.34s-3.78-11.34-10.63-11.34c-3.31,0-6.3,1.1-8.9,2.13c-0.47,0.24-1.02,0.39-1.5,0.55l-0.47-0.08
		c-2.36-4.65-6.22-7.17-10.32-7.17c-1.89,0-3.86,0.55-5.91,1.65l-0.47-0.55c0.94-1.97,1.5-4.02,1.5-5.99c0-4.41-2.44-8.5-6.85-11.02
		l-0.08-0.31c1.34-2.76,2.44-7.8,2.44-10.79c0-7.24-4.49-11.26-10.63-11.26S1717.93,463.03,1717.93,470.27z M1720.14,495.87
		c0-3.86,2.05-7.25,5.2-8.58h-0.08c-0.47-4.17-0.94-7.32-1.26-9.84c-0.39-3.23-0.71-5.35-0.71-6.85c0-3.86,2.68-5.51,5.36-5.51
		c2.6,0,5.35,1.65,5.35,5.51c0,1.5-0.31,3.62-0.79,6.85c-0.24,2.52-0.71,5.67-1.18,9.84h-0.08c3.07,1.34,5.2,4.73,5.2,8.58
		c0,2.52-0.95,4.88-2.83,6.69c-1.02,1.02-1.34,2.13-1.34,3.07c0,0.94,0.32,1.73,0.79,2.28c0.55,0.55,1.26,0.94,2.13,0.94
		s1.81-0.39,2.83-1.5c1.73-1.89,4.02-2.91,6.54-2.91c3.7,0,7.01,2.21,8.35,5.36c3.94-0.47,6.93-0.95,9.29-1.26
		c3.15-0.47,5.12-0.79,6.62-0.79c3.7,0,5.43,2.83,5.43,5.43c0,2.68-1.73,5.43-5.43,5.43c-1.5,0-3.46-0.31-6.62-0.79
		c-2.36-0.31-5.35-0.79-9.29-1.26c-1.34,3.15-4.65,5.35-8.35,5.35c-2.52,0-4.8-1.02-6.54-2.83c-1.02-1.18-1.97-1.58-2.83-1.58
		s-1.58,0.39-2.13,0.95c-0.47,0.55-0.79,1.34-0.79,2.28c0,0.94,0.32,2.05,1.34,3.07c1.89,1.81,2.83,4.17,2.83,6.69
		c0,3.86-2.13,7.24-5.2,8.58h0.08c0.47,4.17,0.95,7.4,1.18,9.92c0.47,3.23,0.79,5.28,0.79,6.77c0,3.86-2.76,5.51-5.35,5.51
		c-2.68,0-5.36-1.65-5.36-5.51c0-1.5,0.32-3.54,0.71-6.77c0.32-2.52,0.79-5.75,1.26-9.92h0.08c-3.15-1.34-5.2-4.73-5.2-8.58
		c0-2.52,0.87-4.88,2.76-6.69c1.02-1.02,1.42-2.13,1.42-3.15c0-0.94-0.39-1.65-0.79-2.2c-0.55-0.55-1.34-0.95-2.13-0.95
		c-0.87,0-1.81,0.39-2.91,1.58c-1.73,1.81-3.94,2.83-6.54,2.83c-3.62,0-6.93-2.21-8.35-5.35c-3.94,0.47-7.01,0.94-9.37,1.34
		c-3.07,0.39-5.04,0.71-6.46,0.71c-3.78,0-5.51-2.76-5.51-5.43c0-2.6,1.73-5.43,5.51-5.43c1.42,0,3.39,0.31,6.46,0.71
		c2.36,0.39,5.35,0.87,9.37,1.34c1.42-3.15,4.72-5.36,8.35-5.36c2.6,0,4.8,1.02,6.54,2.91c1.1,1.1,2.05,1.5,2.91,1.5
		c0.71,0,1.58-0.39,2.13-0.94c0.39-0.55,0.79-1.34,0.79-2.21c0-1.02-0.39-2.13-1.42-3.15
		C1721.01,500.75,1720.14,498.39,1720.14,495.87z M1733.76,518.39h-0.24c0,0.08,0.08,0.08,0.08,0.08L1733.76,518.39z"/>
</g>
<path class="st2" d="M179.32,743.14v-7.56l6.38-0.55c5.04-0.47,6.3-2.21,6.3-7.4v-69.38c0-5.2-1.26-6.93-6.3-7.4l-6.38-0.55v-7.56
	h22.21c12.76,0,25.91-0.47,38.67-0.47c31.89,0,47.01,15.59,47.01,47.25c0,33.39-21.42,53.55-52.92,53.94
	c-15.12,0.16-25.67-0.32-40.95-0.32H179.32z M217.59,724.09c0,5.91,1.81,8.35,9.53,8.35c17.25,0,32.52-9.53,32.52-39.3
	c0-28.9-12.6-39.77-33.78-39.77c-3.07,0-5.91,0.08-8.27,0.16V724.09z M345.4,660.3c26.07,0,43.79,16.62,43.79,41.03
	c0,26.22-19.29,44.18-47.33,44.18c-27.17,0-45.2-15.99-45.2-40.16C296.66,679.75,317.68,660.3,345.4,660.3z M363.91,703.93
	c0-20.87-8.9-33.94-20.71-33.94c-13.39,0-21.26,12.99-21.26,31.89c0,21.5,8.98,33.78,21.11,33.78
	C356.27,735.66,363.91,722.43,363.91,703.93z M408.33,719.91v-43.71c0-4.41-1.02-5.83-5.75-6.06l-4.49-0.24v-7.25h43.55v7.25
	l-5.04,0.47c-3.86,0.39-5.2,1.5-5.2,5.83v39.93c0,10.95,6.3,16.62,17.09,16.62c11.26,0,18.66-5.04,18.66-17.33v-37.09
	c0-6.06-1.97-7.56-7.56-7.95l-7.01-0.47v-7.25h38.04v7.25l-5.59,0.39c-5.75,0.39-6.85,2.52-6.85,9.77v37.56
	c0,17.09-13.78,27.88-35.75,27.88C421.01,745.51,408.33,737.4,408.33,719.91z M522.12,772.91c3.39,0.95,6.93,1.42,10,1.42
	c5.36,0,7.8-1.73,7.8-5.43c0-2.91-1.58-3.94-7.88-5.12c-6.06-1.18-6.85-2.76-6.85-4.65c0-2.36,2.84-6.46,10.24-13.7
	c-25.67-1.34-39.22-15.51-39.22-40.24c0-27.64,19.53-44.89,48.43-44.89c11.66,0,17.72,2.44,23.94,2.6l3.07,26.3h-8.58l-1.26-3.54
	c-4.17-11.66-8.9-15.83-19.37-15.83c-14.96,0-21.42,13.07-21.42,32.05c0,21.66,8.35,34.18,22.05,34.18
	c9.53,0,14.49-4.49,19.06-16.07l1.73-4.41h8.58l-3.94,24.26c-6.3,2.83-15.83,5.12-25.67,5.59c-2.76,3.15-4.25,5.67-4.25,7.01
	c0,0.94,0.87,1.57,5.2,2.36c9.84,1.73,12.13,4.57,12.13,9.77c0,10-8.51,15.91-21.42,15.91c-4.88,0-9.53-0.87-13.62-2.6
	L522.12,772.91z M615.05,743.14h-36.7v-7.25l2.84-0.24c4.65-0.39,7.32-1.97,11.5-12.05l25.2-60.95h18.19l25.59,65.05
	c2.76,7.17,4.57,7.64,9.84,8.03l2.2,0.16v7.25h-48.67v-7.25l7.72-0.71c5.04-0.47,5.91-2.76,4.49-6.46l-4.17-10.87H606.7
	c-2.76,7.17-4.1,10.87-4.1,13.07c0,2.68,1.1,3.94,6.3,4.41l6.14,0.55V743.14z M617.57,652.27h-10.24l-0.63-1.02l11.66-27.96h19.22
	l11.66,27.96l-0.63,1.02h-10.4l-10.32-18.66L617.57,652.27z M619.77,684.16l-9.37,24.26h18.98l-9.37-24.26H619.77z M695.21,735.9
	l6.22-0.32c4.41-0.24,5.35-1.65,5.35-6.69v-56.78h-10.55c-6.77,0-8.03,0.47-9.45,5.99l-1.97,7.48h-8.58l2.52-23.94
	c3.07,0.63,7.24,1.02,14.33,1.02h53.55c7.09,0,11.26-0.39,14.33-1.02l-2.6,23.94h-8.27l-0.39-6.54c-0.39-6.38-1.73-6.93-9.84-6.93
	h-10v56.78c0,5.04,0.95,6.46,5.36,6.69l6.22,0.32v7.25h-46.23V735.9z M769.71,743.14v-7.25l4.65-0.32c4.41-0.32,5.36-1.65,5.36-6.69
	v-51.98c0-5.04-0.95-6.38-5.36-6.69l-4.65-0.31v-7.25h10.4c11.81,0,24.73-0.55,39.3-0.55c17.17,0,25.28,5.99,25.28,18.59
	c0,10.87-5.99,18.19-16.3,21.03l18.11,24.96c5.36,7.32,7.56,8.98,11.5,10.08l0.87,0.24l-0.79,6.14h-18.03
	c-10.79,0-13.15-2.21-20.63-15.28l-10.95-19.22c-0.79-1.34-1.5-1.89-2.99-1.89h-2.68v22.13c0,5.04,0.95,6.38,5.36,6.69l4.65,0.32
	v7.25H769.71z M802.78,698.26c1.65,0.24,4.57,0.71,7.72,0.71c6.62,0,10.95-5.51,10.95-13.94c0-11.34-3.78-14.02-18.66-13.15V698.26z
	 M866.02,735.9l5.04-0.47c3.86-0.39,5.12-1.73,5.12-6.06v-53.16c0-4.96-1.34-6.3-6.77-6.3h-3.39v-7.25h53.87
	c7.17,0,11.97-0.39,15.04-1.02l-0.32,20.24h-8.43v-3.07c0-5.59-1.97-6.46-9.37-6.46h-17.56v23.86h15.04c5.59,0,5.83-0.24,6.38-3.78
	l0.47-3.07h7.88v23.39h-7.88l-0.47-3.07c-0.55-3.54-0.79-3.78-6.38-3.78h-15.04v19.61c0,7.01,0.87,8.11,12.05,8.11
	c14.73,0,17.25-1.26,19.22-8.9l1.73-6.62h8.43l-2.76,25.04h-71.9V735.9z M984.3,662.03c-3.94-10.16-6.46-11.26-11.97-11.58
	l-2.52-0.16c0-2.28,0-7.17,0-7.56c8.66,0,40.32,0,56.07,0v7.56l-9.45,0.95c-6.46,0.63-7.17,3.78-4.96,9.45l22.21,57.8h0.39
	c2.2-6.14,10.47-28.74,14.81-40.79c4.33-11.89,6.06-18.19,6.06-21.18c0-3.39-2.05-4.8-8.03-5.43l-7.32-0.79c0-1.81,0-6.22,0-7.56
	h44.1v7.56l-4.49,0.47c-5.35,0.55-7.64,3.47-12.44,15.44l-31.11,76.94c-5.35,0-14.41,0-19.85,0L984.3,662.03z M1081.78,735.9
	l4.65-0.32c4.41-0.32,5.36-1.65,5.36-6.69v-51.98c0-5.04-0.95-6.38-5.36-6.69l-4.65-0.31v-7.25h43.08v7.25l-4.65,0.31
	c-4.41,0.32-5.35,1.65-5.35,6.69v51.98c0,5.04,0.94,6.38,5.35,6.69l4.65,0.32v7.25h-43.08V735.9z M1137.93,717.79h8.19l2.05,4.41
	c4.88,10.55,9.37,14.02,16.46,14.02c7.32,0,11.58-3.7,11.58-10.16c0-6.46-3.78-9.92-15.91-15.51c-14.1-6.46-21.11-12.92-21.11-24.89
	c0-14.88,13.47-25.36,34.41-25.36c7.56,0,14.88,1.97,18.27,1.73l3.15,22.6h-8.19l-1.42-4.02c-2.99-8.43-7.24-10.95-12.99-10.95
	c-6.61,0-10.63,3.31-10.63,8.43c0,5.91,3.78,9.45,14.57,14.02c17.72,7.4,22.21,14.96,22.21,25.36c0,17.8-14.57,28.04-36.07,28.04
	c-7.64,0-14.73-1.42-20.08-3.86L1137.93,717.79z M1208.57,735.9l4.65-0.32c4.41-0.32,5.36-1.65,5.36-6.69v-51.98
	c0-5.04-0.95-6.38-5.36-6.69l-4.65-0.31v-7.25h43.08v7.25l-4.65,0.31c-4.41,0.32-5.35,1.65-5.35,6.69v21.03
	c1.02,0.39,2.52,0.87,3.54,0.87c1.58,0,3.07-0.71,4.96-2.6c15.2-14.73,20-20.87,20-23.39c0-1.81-1.34-2.52-4.8-2.76l-2.76-0.16
	v-7.25h39.38v7.25l-1.81,0.24c-9.29,1.18-17.88,4.8-30.24,17.72l-7.17,7.8l21.74,25.59c9.84,11.89,13.31,13.94,16.07,14.96
	l1.73,0.63l-0.79,6.3h-19.77c-9.21,0-10.47-0.95-20.16-14.65l-13.47-19.14c-1.5-2.13-2.84-2.99-5.12-2.99h-1.34v22.52
	c0,5.04,0.94,6.38,5.35,6.69l4.65,0.32v7.25h-43.08V735.9z M1358.11,660.3c26.07,0,43.79,16.62,43.79,41.03
	c0,26.22-19.29,44.18-47.33,44.18c-27.17,0-45.2-15.99-45.2-40.16C1309.37,679.75,1330.39,660.3,1358.11,660.3z M1376.62,703.93
	c0-20.87-8.9-33.94-20.71-33.94c-13.39,0-21.26,12.99-21.26,31.89c0,21.5,8.98,33.78,21.11,33.78
	C1368.98,735.66,1376.62,722.43,1376.62,703.93z M1412.61,717.79h8.19l2.05,4.41c4.88,10.55,9.37,14.02,16.46,14.02
	c7.32,0,11.58-3.7,11.58-10.16c0-6.46-3.78-9.92-15.91-15.51c-14.1-6.46-21.11-12.92-21.11-24.89c0-14.88,13.47-25.36,34.41-25.36
	c7.56,0,14.88,1.97,18.27,1.73l3.15,22.6h-8.19l-1.42-4.02c-2.99-8.43-7.24-10.95-12.99-10.95c-6.61,0-10.63,3.31-10.63,8.43
	c0,5.91,3.78,9.45,14.57,14.02c17.72,7.4,22.21,14.96,22.21,25.36c0,17.8-14.57,28.04-36.07,28.04c-7.64,0-14.73-1.42-20.08-3.86
	L1412.61,717.79z M1483.25,735.9l4.65-0.32c4.41-0.32,5.36-1.65,5.36-6.69v-51.98c0-5.04-0.95-6.38-5.36-6.69l-4.65-0.31v-7.25
	h43.08v7.25l-4.65,0.31c-4.41,0.32-5.35,1.65-5.35,6.69v51.98c0,5.04,0.94,6.38,5.35,6.69l4.65,0.32v7.25h-43.08V735.9z
	 M1554.04,735.9l6.22-0.32c4.41-0.24,5.35-1.65,5.35-6.69v-56.78h-10.55c-6.77,0-8.03,0.47-9.45,5.99l-1.97,7.48h-8.58l2.52-23.94
	c3.07,0.63,7.24,1.02,14.33,1.02h53.55c7.09,0,11.26-0.39,14.33-1.02l-2.6,23.94h-8.27l-0.39-6.54c-0.39-6.38-1.73-6.93-9.84-6.93
	h-10v56.78c0,5.04,0.94,6.46,5.35,6.69l6.22,0.32v7.25h-46.23V735.9z M1659.1,743.14h-36.7v-7.25l2.84-0.24
	c4.65-0.39,7.32-1.97,11.5-12.05l25.2-60.95h18.19l25.59,65.05c2.76,7.17,4.57,7.64,9.84,8.03l2.21,0.16v7.25h-48.67v-7.25
	l7.72-0.71c5.04-0.47,5.91-2.76,4.49-6.46l-4.17-10.87h-26.38c-2.76,7.17-4.09,10.87-4.09,13.07c0,2.68,1.1,3.94,6.3,4.41l6.14,0.55
	V743.14z M1648.31,637.78c0-6.77,3.54-11.5,10.08-11.5c6.69,0,10.32,4.73,10.32,11.5c0,6.85-3.47,11.58-10.32,11.58
	C1651.69,649.35,1648.31,644.63,1648.31,637.78z M1663.82,684.16l-9.37,24.26h18.98l-9.37-24.26H1663.82z M1675.24,637.78
	c0-6.77,3.54-11.5,10.08-11.5c6.69,0,10.32,4.73,10.32,11.5c0,6.85-3.47,11.58-10.32,11.58
	C1678.63,649.35,1675.24,644.63,1675.24,637.78z M1739.26,735.9l6.22-0.32c4.41-0.24,5.35-1.65,5.35-6.69v-56.78h-10.55
	c-6.77,0-8.03,0.47-9.45,5.99l-1.97,7.48h-8.58l2.52-23.94c3.07,0.63,7.24,1.02,14.33,1.02h53.55c7.09,0,11.26-0.39,14.33-1.02
	l-2.6,23.94h-8.27l-0.39-6.54c-0.39-6.38-1.73-6.93-9.84-6.93h-10v56.78c0,5.04,0.94,6.46,5.35,6.69l6.22,0.32v7.25h-46.23V735.9z"
	/>
<path class="st1" d="M260.36,916.08l6.22-0.39c4.88-0.32,6.38-2.36,7.4-7.56l14.1-70.32c1.02-5.2,0.16-7.25-4.57-7.56l-5.91-0.39
	l1.42-7.09h19.06c10.24,0,20.71-0.16,32.05-0.16c21.89,0,31.74,9.69,28.04,27.96c-4.65,22.92-26.85,34.57-49.85,33.31l1.42-7.17
	c11.81-2.52,18.27-9.61,20.95-22.92c2.76-13.78-0.39-20.95-13.15-20.95c-1.26,0-2.76,0.08-4.25,0.24l-14.88,74.42
	c-1.42,6.93,1.5,8.19,9.77,8.43l5.91,0.16l-1.42,7.09h-53.71L260.36,916.08z M357.85,887.73c4.73-23.86,20.95-40.01,45.12-40.01
	c5.04,0,11.42,1.02,17.09,2.76c1.42,0.39,2.13,0.63,2.91,0.63c1.42,0,1.89-0.55,2.6-3.15l1.26-4.25l8.35,1.65
	c-2.68,8.27-4.8,15.28-6.62,23.55l-2.68,12.52c-4.49,20.48-4.49,29.3-1.18,29.3c1.97,0,4.41-1.73,11.97-8.03l2.05,6.22
	c-7.64,10.63-17.01,16.46-26.46,16.46c-10.79,0-15.59-5.67-7.95-32.45l-0.87-0.16c-10.55,22.05-21.66,32.6-32.13,32.6
	C359.03,925.37,353.36,909.94,357.85,887.73z M395.73,893.48c5.28-8.43,8.66-16.77,11.42-26.07l0.71-2.36
	c1.26-4.09-3.62-7.48-10.63-7.48c-8.27,0-13.07,6.85-16.22,22.44c-3.7,18.03-0.79,26.22,2.84,26.22
	C386.43,906.24,390.45,901.9,395.73,893.48z M445.26,906.79l10.71-46.78h-10.08l1.5-7.88l6.3-1.02c3.23-0.55,4.02-1.18,4.57-3.47
	l2.21-9.14c1.5-6.3,5.59-10.08,11.97-10.08c7.09,0,10.63,4.73,8.98,11.97l-2.21,9.53h17.09l-1.34,7.17
	c-1.5,2.13-5.51,2.91-13.55,2.91h-4.17l-7.32,35.67c-2.13,10.47-1.89,14.02,0.79,14.02c3.94,0,11.03-5.2,17.01-9.77l2.6,6.06
	c-7.72,11.1-18.74,19.37-31.34,19.37C447.86,925.37,442.27,919.62,445.26,906.79z M497.71,885.13
	c4.41-22.52,20.87-37.41,41.19-37.41c14.81,0,21.89,8.66,20.16,17.25c-1.81,9.06-9.53,15.91-28.82,20.32l-9.77,2.28
	c-0.95,14.41,2.76,21.97,9.37,21.97c4.33,0,12.68-3.54,23.78-10.71l2.91,5.91c-14.57,14.25-26.85,20.63-37.17,20.63
	C502.83,925.37,492.9,908.99,497.71,885.13z M527.08,877.89c7.56-1.81,12.76-6.38,13.86-11.97c0.95-4.65-1.65-8.51-5.67-8.51
	c-4.49,0-10.79,4.73-13.55,20.16c-0.08,0.55-0.16,1.18-0.32,1.73L527.08,877.89z M567.64,923.09c3.86-11.18,5.36-15.67,7.8-27.96
	c4.73-24.02,4.65-31.5,1.26-31.5c-2.05,0-5.35,2.68-9.69,6.77l-2.05-6.14c6.38-8.98,16.07-16.54,25.83-16.54
	c6.3,0,10.95,2.2,13.07,6.14c-1.18,7.48-4.17,15.91-5.99,22.76l0.79,0.24c10.71-20.16,21.81-29.14,35.12-29.14
	c10.24,0,13.94,7.56,11.73,17.96l-6.3,29.37c-2.84,13.23-2.05,15.67-0.08,15.67c1.73,0,3.62-1.34,11.1-8.03l2.05,6.22
	c-6.38,8.9-15.44,16.46-26.46,16.46c-9.21,0-14.25-5.36-12.44-13.47l7.95-36.3c1.65-7.64,0.71-9.84-1.81-9.84
	c-4.09,0-11.66,7.56-18.51,17.17c-2.36,3.31-3.23,5.59-3.7,8.9c-0.95,6.61-2.05,14.18-4.41,24.18c-1.26,5.28-7.01,9.21-17.25,9.21
	c-2.21,0-4.57-0.16-7.17-0.55L567.64,923.09z M660.72,906.79l10.71-46.78h-10.08l1.5-7.88l6.3-1.02c3.23-0.55,4.02-1.18,4.57-3.47
	l2.2-9.14c1.5-6.3,5.59-10.08,11.97-10.08c7.09,0,10.63,4.73,8.98,11.97l-2.21,9.53h17.09l-1.34,7.17
	c-1.5,2.13-5.51,2.91-13.55,2.91h-4.17l-7.32,35.67c-2.13,10.47-1.89,14.02,0.79,14.02c3.94,0,11.03-5.2,17.01-9.77l2.6,6.06
	c-7.72,11.1-18.74,19.37-31.34,19.37C663.32,925.37,657.73,919.62,660.72,906.79z M797.51,819.93c31.74,0,50.95,24.1,44.02,58.2
	c-5.51,27.64-28.9,47.88-58.35,47.88c-31.74,0-50.95-24.26-44.02-58.35C744.67,840.01,768.06,819.93,797.51,819.93z M813.81,876.55
	c5.36-26.62-1.18-46.46-17.09-46.46c-12.99,0-24.89,14.49-29.85,39.06c-5.36,26.62,1.18,46.62,17.09,46.62
	C796.96,915.76,808.85,901.12,813.81,876.55z M932.8,860.01l-6.69,43.47c-5.51,35.6-29.22,52.53-49.69,52.53
	c-8.58,0-14.73-2.99-17.33-7.17c-8.27,9.21-18.82,14.1-30.08,14.1c-13.15,0-18.51-6.62-17.25-12.52c0.87-4.1,4.1-7.72,9.61-9.29
	c4.96,4.73,10.4,7.56,16.3,7.56c7.01,0,11.03-3.78,18.03-54.73l4.65-33.94h-9.06l1.42-7.88l3.39-0.55c4.88-0.79,5.67-1.5,5.99-3.94
	c2.84-20.95,20.24-35.28,43.08-35.28c9.61,0,17.96,3.54,21.5,8.74c8.19-7.48,19.45-12.21,32.76-12.21
	c17.72,0,27.56,8.43,26.22,16.22c-1.02,5.67-6.85,10.4-13.23,10.4c-5.51-7.95-14.81-15.59-20.71-15.59
	c-6.85,0-14.33,7.4-16.93,25.59l-0.63,4.41h24.33c3.07-1.42,6.22-2.2,9.37-2.2c7.32,0,12.92,3.62,14.02,9.21l-7.88,38.12
	c-2.68,13.23-2.05,15.67-0.24,15.67c1.73,0,5.04-1.97,11.34-8.03l2.05,6.22c-6.38,8.9-15.51,16.46-26.46,16.46
	c-9.29,0-14.25-5.36-12.52-13.47l9.69-45.44c1.18-5.36,0.55-6.46-3.39-6.46H932.8z M882.56,860.01l-6.46,47.49
	c-1.42,10.24-3.94,19.14-7.48,26.62c2.28,4.1,8.9,8.43,16.3,8.43c8.51,0,13.62-6.93,18.03-34.97l7.4-47.57H882.56z M883.9,849.93
	h28.04l0.39-2.28c0.63-4.02,1.81-7.95,3.46-11.66c-3.62-6.93-11.34-13.23-16.85-13.23c-7.48,0-12.29,7.88-14.41,22.76L883.9,849.93z
	 M994.93,883.87c5.51-23.15,24.02-36.15,42.76-36.15c12.29,0,19.92,5.28,18.19,12.29c-1.02,4.17-5.28,8.11-10.55,9.14
	c-8.66-8.03-12.76-10-14.96-10c-4.17,0-8.11,5.91-10.79,17.4c-3.94,16.93-0.95,33,8.35,33c4.17,0,12.68-4.17,21.81-10.24l2.91,5.83
	c-11.26,12.52-25.04,20.24-36.46,20.24C1000.45,925.37,988.87,908.91,994.93,883.87z M1060.77,885.13
	c4.41-22.52,20.87-37.41,41.19-37.41c14.81,0,21.89,8.66,20.16,17.25c-1.81,9.06-9.53,15.91-28.82,20.32l-9.77,2.28
	c-0.94,14.41,2.76,21.97,9.37,21.97c4.33,0,12.68-3.54,23.78-10.71l2.91,5.91c-14.57,14.25-26.85,20.63-37.17,20.63
	C1065.89,925.37,1055.97,908.99,1060.77,885.13z M1090.14,877.89c7.56-1.81,12.76-6.38,13.86-11.97c0.94-4.65-1.65-8.51-5.67-8.51
	c-4.49,0-10.79,4.73-13.55,20.16c-0.08,0.55-0.16,1.18-0.31,1.73L1090.14,877.89z M1233.08,916.08l6.85-0.47
	c5.75-0.39,7.17-0.95,7.8-9.92l4.33-61.27h-0.31l-34.41,65.13h-14.18l-10.95-65.13h-0.32l-17.8,59.14
	c-2.99,9.92-0.55,11.89,5.43,12.21l5.51,0.31l-1.42,7.09h-42.53l1.42-7.09l3.86-0.31c9.21-0.79,12.21-2.6,16.77-16.85l18.66-58.67
	c2.2-7.01,1.02-9.53-4.8-9.92l-7.72-0.47l1.42-7.09h44.34c-0.08,4.25,0.24,8.35,1.65,17.25l5.99,37.8h0.16l27.25-55.05h42.92
	l-1.42,7.09l-7.95,0.39c-5.04,0.24-6.69,2.21-7.09,8.19l-3.94,64.89c-0.71,10.95,0.71,11.97,7.17,12.44l4.49,0.31l-1.42,7.09h-51.19
	L1233.08,916.08z M1375.14,850.01c-3.62,11.18-4.96,15.83-7.24,26.07c-5.75,25.91-5.75,34.65-2.44,34.65
	c1.97,0,4.41-1.73,11.97-8.03l2.05,6.22c-7.64,10.63-17.01,16.46-26.46,16.46c-10.32,0-14.41-7.09-7.88-30.32l-0.79-0.32
	c-11.18,21.81-19.77,30.63-33.08,30.63c-10.24,0-13.94-7.56-11.73-17.96l6.3-29.37c2.84-13.23,0.79-14.41-0.71-14.41
	c-1.73,0-3.46,1.18-9.69,6.77l-2.05-6.22c6.38-8.9,15.75-16.46,25.83-16.46c7.4,0,12.13,2.76,13.78,7.8l-9.29,41.97
	c-1.65,7.64-0.71,9.84,1.81,9.84s6.54-4.02,15.36-17.17c3.46-5.2,4.33-8.35,5.28-13.23c0.95-5.04,1.42-9.84,3.7-19.85
	c1.26-5.28,7.01-9.21,17.25-9.21c2.2,0,4.57,0.16,7.17,0.55L1375.14,850.01z M1382.23,910.02c0.79-4.17,3.54-6.54,7.64-8.43
	c7.32,9.69,13.23,11.66,17.64,11.66c4.8,0,7.8-2.76,8.51-6.46c0.71-3.54-0.71-6.69-10.4-12.6c-13.31-8.11-17.64-15.04-15.51-25.28
	c2.13-10.4,15.04-21.18,32.68-21.18c10.79,0,18.74,5.35,17.4,12.29c-0.87,4.33-4.41,8.43-8.98,9.37
	c-6.46-7.17-12.29-10.95-16.7-10.95c-2.76,0-5.04,1.5-5.67,4.41c-0.71,3.62,1.02,6.69,11.26,12.84
	c13.78,8.27,17.64,14.18,15.75,23.7c-3.15,15.75-17.56,25.99-34.1,25.99C1389.87,925.37,1380.57,918.91,1382.23,910.02z
	 M1446.57,885.13c4.41-22.52,20.87-37.41,41.19-37.41c14.81,0,21.89,8.66,20.16,17.25c-1.81,9.06-9.53,15.91-28.82,20.32l-9.77,2.28
	c-0.94,14.41,2.76,21.97,9.37,21.97c4.33,0,12.68-3.54,23.78-10.71l2.91,5.91c-14.57,14.25-26.85,20.63-37.17,20.63
	C1451.69,925.37,1441.76,908.99,1446.57,885.13z M1475.94,877.89c7.56-1.81,12.76-6.38,13.86-11.97c0.94-4.65-1.65-8.51-5.67-8.51
	c-4.49,0-10.79,4.73-13.55,20.16c-0.08,0.55-0.16,1.18-0.31,1.73L1475.94,877.89z M1595.56,850.01
	c-3.62,11.18-4.96,15.83-7.24,26.07c-5.75,25.91-5.75,34.65-2.44,34.65c1.97,0,4.41-1.73,11.97-8.03l2.05,6.22
	c-7.64,10.63-17.01,16.46-26.46,16.46c-10.32,0-14.41-7.09-7.88-30.32l-0.79-0.32c-11.18,21.81-19.77,30.63-33.08,30.63
	c-10.24,0-13.94-7.56-11.73-17.96l6.3-29.37c2.84-13.23,0.79-14.41-0.71-14.41c-1.73,0-3.46,1.18-9.69,6.77l-2.05-6.22
	c6.38-8.9,15.75-16.46,25.83-16.46c7.4,0,12.13,2.76,13.78,7.8l-9.29,41.97c-1.65,7.64-0.71,9.84,1.81,9.84s6.54-4.02,15.36-17.17
	c3.46-5.2,4.33-8.35,5.28-13.23c0.95-5.04,1.42-9.84,3.7-19.85c1.26-5.28,7.01-9.21,17.25-9.21c2.2,0,4.57,0.16,7.17,0.55
	L1595.56,850.01z M1607.06,923.09c3.86-11.18,5.35-15.67,7.8-27.96c4.73-24.02,4.65-31.5,1.26-31.5c-2.05,0-5.35,2.68-9.69,6.77
	l-2.05-6.14c6.38-8.98,16.07-16.54,25.83-16.54c6.3,0,10.08,2.2,12.21,6.14c-0.87,7.48-3.07,15.75-4.88,22.6l0.79,0.32
	c10.24-21.03,18.82-29.06,31.34-29.06c9.61,0,14.96,7.17,12.21,16.54l-3.62,12.29l0.79,0.32c10.71-20.08,21.34-29.14,33.94-29.14
	c10.4,0,13.94,7.56,11.73,17.96l-6.3,29.37c-2.84,13.23-1.97,15.67-0.24,15.67c1.97,0,3.31-0.95,11.34-8.03l2.05,6.22
	c-6.38,8.9-15.51,16.46-26.46,16.46c-9.61,0-14.33-5.36-12.52-13.47l7.95-36.3c1.65-7.64,0.55-9.84-1.57-9.84
	c-3.62,0-9.45,5.75-17.96,17.17c-2.05,2.76-2.83,4.88-3.23,7.95c-1.18,8.43-2.05,16.77-4.02,25.12c-1.26,5.28-7.01,9.21-17.25,9.21
	c-2.2,0-4.57-0.16-7.17-0.55l-0.87-1.58c3.94-11.34,6.06-22.44,8.43-34.26c3.86-19.22,3.54-23.07,0.39-23.07
	c-2.84,0-8.19,3.86-17.17,17.01c-2.05,2.91-3.07,6.22-3.39,9.06c-0.71,6.61-2.05,14.18-4.41,24.18c-1.26,5.28-7.01,9.21-17.25,9.21
	c-2.21,0-4.57-0.16-7.17-0.55L1607.06,923.09z"/>
<path class="st2" d="M316.98,1098.07l10.79-0.71c4.96-0.32,5.83-1.65,7.72-11.03l9.06-45.12c0.63-3.07,0.08-4.65-2.68-4.65
	c-0.79,0-1.81,0.08-2.99,0.39l-10.71,2.6l-1.02-5.51l33.23-9.29c-2.05,8.58-4.17,17.09-5.91,25.83l-7.17,35.83
	c-1.89,9.37-1.58,10.63,3.31,10.95l10.47,0.71l-1.02,5.12h-44.1L316.98,1098.07z M370.61,1109.25c0.63-3.15,3.47-5.83,5.67-6.06
	c5.75,7.17,12.29,9.21,18.74,9.21c8.98,0,14.49-5.04,16.14-13.47c2.21-11.42-5.2-20.16-20.08-21.42l-0.16-0.94l6.69-5.67
	c12.92-10.95,17.72-16.38,19.14-23.7c1.5-7.4-3.07-12.99-11.81-12.99c-7.32,0-13.23,4.17-19.37,14.18l-3.94-1.97
	c4.41-13.39,14.33-21.66,27.01-21.66c13.86,0,20.95,10.16,18.82,20.55c-1.73,8.43-10.16,17.09-22.84,25.91l0.24,0.08
	c12.76,3.15,20.4,13.7,18.27,24.65c-2.84,14.33-18.59,25.28-34.26,25.28C377.69,1121.22,369.35,1115.55,370.61,1109.25z
	 M443.61,1063.26c4.65-23.39,19.53-38.51,38.04-38.51c21.26,0,32.13,17.17,27.17,41.9c-4.49,22.52-19.53,38.43-39.14,38.43
	C449.67,1105.08,438.73,1087.52,443.61,1063.26z M495.43,1069.72c4.73-23.47-2.13-39.06-14.73-39.06
	c-11.34,0-19.92,10.16-23.86,30.16c-4.57,23.55,1.26,38.27,14.65,38.27C482.75,1099.09,491.57,1089.01,495.43,1069.72z
	 M546.06,1103.11c-3.07,15.51-16.46,29.14-33,35.2l-1.34-5.2c10-4.96,19.77-14.57,21.11-21.58c0.95-4.72-2.36-7.24-9.53-11.73
	c-0.24-1.73-0.08-3.47,0.16-4.73c1.1-5.59,5.99-10.47,11.73-10.47C543.62,1084.6,548.19,1092.48,546.06,1103.11z M570.24,1063.26
	c4.65-23.39,19.53-38.51,38.04-38.51c21.26,0,32.13,17.17,27.17,41.9c-4.49,22.52-19.53,38.43-39.14,38.43
	C576.3,1105.08,565.36,1087.52,570.24,1063.26z M622.06,1069.72c4.73-23.47-2.13-39.06-14.73-39.06
	c-11.34,0-19.92,10.16-23.86,30.16c-4.57,23.55,1.26,38.27,14.65,38.27C609.38,1099.09,618.2,1089.01,622.06,1069.72z
	 M652.3,1063.26c4.65-23.39,19.53-38.51,38.04-38.51c21.26,0,32.13,17.17,27.17,41.9c-4.49,22.52-19.53,38.43-39.14,38.43
	C658.36,1105.08,647.41,1087.52,652.3,1063.26z M704.11,1069.72c4.72-23.47-2.13-39.06-14.73-39.06
	c-11.34,0-19.92,10.16-23.86,30.16c-4.57,23.55,1.26,38.27,14.65,38.27C691.43,1099.09,700.25,1089.01,704.11,1069.72z
	 M734.35,1063.26c4.65-23.39,19.53-38.51,38.04-38.51c21.26,0,32.13,17.17,27.17,41.9c-4.49,22.52-19.53,38.43-39.14,38.43
	C740.42,1105.08,729.47,1087.52,734.35,1063.26z M786.17,1069.72c4.72-23.47-2.13-39.06-14.73-39.06
	c-11.34,0-19.92,10.16-23.86,30.16c-4.57,23.55,1.26,38.27,14.65,38.27C773.49,1099.09,782.31,1089.01,786.17,1069.72z
	 M814.68,1058.46h40.87l-1.73,8.66h-40.87L814.68,1058.46z M845.23,1132.72c0.79-3.7,3.62-4.65,5.43-5.36
	c1.58,1.18,6.14,2.13,10.24,2.13c6.06,0,12.05-1.73,19.53-9.92c3.39-3.7,5.75-7.8,6.06-15.44c0.79-20.79-2.99-49.69-9.37-63.32
	c-0.87-1.81-1.5-2.28-2.13-2.28c-1.42,0-3.86,1.89-8.35,6.77l-1.89-3.86c4.02-6.22,11.73-11.81,16.22-11.81
	c1.81,0,3.54,1.18,5.2,3.86c6.77,10.63,12.6,44.34,10.47,69.3c9.53-15.75,16.07-33.31,16.85-51.82c0.39-7.8-0.47-12.99-2.52-17.25
	c1.5-2.44,4.57-4.1,7.56-4.1c6.85,0,9.45,7.95,6.85,21.03c-10.08,50.56-48.43,90.64-70.56,90.64
	C848.15,1141.3,844.29,1137.29,845.23,1132.72z M932.25,1067.52c4.41-22.76,21.58-37.88,38.12-37.88c8.9,0,14.73,6.69,12.99,15.44
	c-1.81,8.82-10.24,14.18-25.91,18.51l-13.7,3.78c-2.13,16.54,1.18,27.41,8.66,27.41c4.41,0,15.91-5.75,21.5-9.61l2.36,3.54
	c-8.27,8.43-21.34,16.38-29.14,16.38C934.22,1105.08,928.31,1088.15,932.25,1067.52z M944.77,1060.98l10.16-3.15
	c10.63-3.31,16.46-7.8,17.33-12.92c0.79-4.65-2.6-8.43-6.77-8.43c-7.09,0-17.4,8.27-20.63,24.26L944.77,1060.98z M989.11,1070.27
	c4.8-23.86,21.26-40.64,39.93-40.64c3.07,0,7.24,0.39,10.87,1.1c1.65,0.31,3.07,0.55,3.86,0.55c1.5,0,2.28-0.63,3.47-3.54l1.34-3.31
	l5.51,1.57c-2.6,6.93-7.01,21.26-9.06,30.95l-1.26,6.06c-5.12,24.57-3.78,33-1.5,33c1.65,0,5.35-3.15,8.43-6.62l2.21,3.78
	c-4.49,5.83-11.42,11.89-19.37,11.89c-5.67,0-7.09-7.88-1.81-34.49l-0.31-0.08c-12.92,25.67-22.76,34.57-31.58,34.57
	C988.95,1105.08,985.17,1089.96,989.11,1070.27z M1025.8,1070.9c6.14-10.79,8.43-17.56,10.08-24.02l0.63-2.44
	c1.02-3.86-4.33-7.01-11.97-7.01c-10.87,0-19.14,10.95-22.44,27.48c-3.23,16.3-2.05,28.74,3.54,28.74
	C1010.13,1093.66,1018.48,1083.74,1025.8,1070.9z M1065.42,1103.82c2.76-5.91,6.69-18.51,9.69-33.15
	c4.96-24.41,3.54-31.89,1.1-31.89c-1.81,0-6.22,3.07-9.29,6.54l-2.6-3.62c4.49-5.83,11.81-12.05,19.85-12.05
	c3.23,0,5.91,1.02,7.17,2.68c-0.16,3.47-2.36,20.08-4.57,29.93l0.32,0.08c10.79-24.26,17.64-32.68,26.38-32.68
	c3.94,0,6.69,2.84,5.98,6.3c-0.71,3.54-3.46,7.01-7.48,9.92c-2.83-2.28-4.09-3.15-5.83-3.15c-2.36,0-5.91,2.99-17.48,25.36
	c-2.05,3.94-3.31,7.32-4.25,11.34c-0.95,4.1-2.05,9.53-4.1,17.8c-1.18,4.88-5.2,7.8-13.7,7.8L1065.42,1103.82z M1151.02,1066.1
	c4.09-20.16,19.37-36.46,36.7-36.46c21.89,0,25.91,21.58,22.37,39.06c-4.09,20.08-19.22,36.38-36.54,36.38
	C1151.57,1105.08,1147.55,1083.19,1151.02,1066.1z M1196.61,1070.98c2.05-10.08,3.7-35.44-10.63-35.44
	c-9.77,0-18.51,13.47-21.81,30.08c-2.05,10.24-2.6,33.47,11.73,33.47C1185.19,1099.09,1193.54,1086.34,1196.61,1070.98z
	 M1231.58,997.82l23.31-6.06c-2.68,8.58-4.33,14.88-7.72,31.97l-12.21,61.11c-1.81,9.06-0.87,10.95,0.79,10.95
	c1.81,0,5.67-2.28,10.79-7.72l2.36,3.7c-4.41,6.22-12.92,13.31-20.95,13.31c-5.12,0-7.64-3.15-6.3-9.61l16.62-82.61
	c0.87-4.41,0.95-6.22-0.79-7.72l-6.22-5.51L1231.58,997.82z M1316.94,1056.1c-5.83,25.44-6.14,39.93-2.91,39.93
	c1.65,0,5.35-3.15,8.43-6.62l2.21,3.78c-4.49,5.83-11.42,11.89-19.37,11.89c-5.67,0-7.32-9.61-1.81-34.49l-0.31-0.08
	c-12.92,25.67-22.76,34.57-31.58,34.57c-10.87,0-14.65-15.12-10.71-34.81c4.8-23.86,21.26-40.64,39.93-40.64
	c3.86,0,9.06,0.71,11.73,1.58l4.02-18.74c1.1-4.96,0.71-6.46-0.71-7.72l-6.14-5.51l0.24-1.81l23.94-6.06
	c-5.43,15.75-10,34.57-15.36,57.88L1316.94,1056.1z M1297.57,1070.9c6.14-10.79,8.43-17.56,10.08-24.02l0.63-2.44
	c1.02-3.86-4.33-7.01-11.97-7.01c-10.87,0-19.14,10.95-22.44,27.48c-3.23,16.3-2.05,28.74,3.54,28.74
	C1281.9,1093.66,1290.25,1083.74,1297.57,1070.9z M1368.68,1089.96l11.03-52.13h-9.61l0.79-4.09l5.75-1.18
	c3.54-0.71,4.49-1.89,5.12-4.96l2.36-11.66c0.87-4.1,3.31-6.69,6.61-6.69c4.1,0,5.59,2.76,4.57,7.09l-3.62,15.2h20.16l-0.87,4.25
	c-1.42,1.81-3.94,2.05-13.39,2.05h-7.24l-8.74,45.75c-1.73,8.9-0.39,11.5,3.94,11.5c3.07,0,11.03-5.28,15.75-9.06l1.97,3.94
	c-8.11,9.14-16.93,15.12-24.49,15.12C1371.67,1105.08,1366.63,1099.8,1368.68,1089.96z M1416.48,1066.1
	c4.09-20.16,19.37-36.46,36.7-36.46c21.89,0,25.91,21.58,22.37,39.06c-4.09,20.08-19.22,36.38-36.54,36.38
	C1417.03,1105.08,1413.02,1083.19,1416.48,1066.1z M1462.08,1070.98c2.05-10.08,3.7-35.44-10.63-35.44
	c-9.77,0-18.51,13.47-21.81,30.08c-2.05,10.24-2.6,33.47,11.73,33.47C1450.66,1099.09,1459.01,1086.34,1462.08,1070.98z
	 M1489.09,1066.1c4.09-20.16,19.37-36.46,36.7-36.46c21.89,0,25.91,21.58,22.37,39.06c-4.09,20.08-19.22,36.38-36.54,36.38
	C1489.64,1105.08,1485.62,1083.19,1489.09,1066.1z M1534.69,1070.98c2.05-10.08,3.7-35.44-10.63-35.44
	c-9.77,0-18.51,13.47-21.81,30.08c-2.05,10.24-2.6,33.47,11.73,33.47C1523.27,1099.09,1531.62,1086.34,1534.69,1070.98z
	 M1562.72,1089.96l11.03-52.13h-9.61l0.79-4.09l5.75-1.18c3.54-0.71,4.49-1.89,5.12-4.96l2.36-11.66c0.87-4.1,3.31-6.69,6.61-6.69
	c4.1,0,5.59,2.76,4.57,7.09l-3.62,15.2h20.16l-0.87,4.25c-1.42,1.81-3.94,2.05-13.39,2.05h-7.24l-8.74,45.75
	c-1.73,8.9-0.39,11.5,3.94,11.5c3.07,0,11.03-5.28,15.75-9.06l1.97,3.94c-8.11,9.14-16.93,15.12-24.49,15.12
	C1565.71,1105.08,1560.67,1099.8,1562.72,1089.96z M1606.43,1103.82c2.76-5.91,6.85-18.43,12.05-44.81l9.06-46.15
	c0.87-4.41,0.87-6.14-0.87-7.72l-6.06-5.51l0.39-1.81l23.23-6.06c-2.68,8.58-4.25,14.88-7.64,31.97l-1.81,9.21
	c-2.52,12.68-4.25,19.37-6.22,26.15l0.32,0.08c9.06-17.09,22.76-29.53,34.41-29.53c7.48,0,10.79,5.67,7.72,18.59l-8.82,36.78
	c-2.13,8.98-1.26,10.79,0.39,10.79c2.05,0,5.59-2.36,10.95-7.72l2.36,3.7c-5.83,8.43-14.33,13.31-20.71,13.31
	c-5.51,0-8.43-2.76-7.09-8.43l9.21-39.38c3.23-13.86,1.73-16.77-1.34-16.77c-9.21,0-27.01,23.55-29.3,33
	c-1.18,5.12-2.2,11.1-5.35,23.7c-1.18,4.88-5.2,7.8-13.7,7.8L1606.43,1103.82z"/>
</svg>
