<?xml version="1.0" encoding="utf-8"?>
<!-- Generator: Adobe Illustrator 27.4.0, SVG Export Plug-In . SVG Version: 6.00 Build 0)  -->
<svg version="1.1" id="Layer_1" xmlns="http://www.w3.org/2000/svg" xmlns:xlink="http://www.w3.org/1999/xlink" x="0px" y="0px"
	 viewBox="0 0 1000 606.06" style="enable-background:new 0 0 1000 606.06;" xml:space="preserve">
<style type="text/css">
	.st0{fill:#FDFF88;}
	.st1{clip-path:url(#SVGID_00000090280695334090463760000012245933527625487771_);fill:#1D1D1B;}
	.st2{clip-path:url(#SVGID_00000054962234086220224590000011242491685448631194_);fill:#1D1D1B;}
	.st3{clip-path:url(#SVGID_00000085960600841186171260000017507623223198730913_);fill:#1D1D1B;}
	.st4{clip-path:url(#SVGID_00000101809172465726480010000001270684702998168757_);fill:#1D1D1B;}
	.st5{clip-path:url(#SVGID_00000154414129059746643650000000982773961227317934_);fill:#1D1D1B;}
	.st6{clip-path:url(#SVGID_00000072266632146901272990000016310096487249134246_);fill:#1D1D1B;}
	.st7{clip-path:url(#SVGID_00000170998176975948017560000009488975062744737972_);fill:#1D1D1B;}
	.st8{clip-path:url(#SVGID_00000100371741685229764620000012547182674892246447_);fill:#1D1D1B;}
</style>
<g>
	<rect class="st0" width="1000" height="606.06"/>
	<g>
		<g>
			<g>
				<defs>
					<rect id="SVGID_1_" x="674.4" y="367.76" width="153.01" height="151.08"/>
				</defs>
				<clipPath id="SVGID_00000164497629833875548060000005199874089156578948_">
					<use xlink:href="#SVGID_1_"  style="overflow:visible;"/>
				</clipPath>
				<path style="clip-path:url(#SVGID_00000164497629833875548060000005199874089156578948_);fill:#1D1D1B;" d="M770.57,427.31
					c7.79,0,39.78,0.54,39.78,12.14c0,4.44-2.63,6.34-6.89,6.34c-5.98,0-11.87-0.54-17.76-1.18c-5.89-0.54-11.96-1.18-17.94-1.18
					c-1.9,0-6.98,1.9-7.88,5.26c9.51,0,41.77,2.17,41.77,11.69c0,6.34-4.8,7.25-9.79,7.25c-6.16,0-11.96-1.18-17.94-2.45
					c-1.27-0.27-2.63-0.54-4.08-0.82c-0.54-0.09-1.18-0.27-1.81-0.45c-1.27-0.27-2.72-0.63-3.99-0.63c-1.81,0-7.25,2.9-7.25,5.07
					c0.91,0.18,2.17,0.36,3.62,0.64c4.44,0.82,11.24,2.08,17.67,3.8c8.43,2.45,16.04,5.62,16.04,10.06c0,5.17-5.71,5.8-9.33,5.8
					c-7.7,0-15.22-2.45-22.65-5.07l-0.36-0.27c-1.99,0-6.98,2.45-6.98,4.62c0,1.27,4.44,2.45,9.88,3.8
					c1.27,0.36,2.63,0.73,4.08,1.09c7.16,2.08,14.59,4.71,14.68,8.61v0.18c0,5.62-4.71,5.8-9.33,5.8c-13.95,0-32.71-6.52-46.3-11.69
					c-2.81,0-6.98,2.54-6.98,4.17c0,0.54,0.63,1.09,2.08,1.63c12.32,5.53,33.35,11.33,48.21,11.33c7.97,0,20.39-5.35,20.39-15.22
					c0-2.08-1.72-4.26-3.17-5.35h0.09v-0.18h-0.18c6.25-1,13.95-6.89,13.95-12.87c0-2.9-2.36-5.89-6.43-7.88h0.09v-0.27h-0.09
					c7.07-2.08,13.86-6.71,13.86-14.5c0-2.17-2.45-5.08-5.26-6.34h0.09v-0.18h-0.18c7.07-1.54,14.14-7.52,14.14-14.32
					c0-13.59-33.8-13.86-42.5-13.86c-2.63,0-10.51,0.18-13.05,0.82v-0.09h-0.09c7.97-7.34,12.78-19.12,12.78-29.99
					c0-9.61-3.53-17.85-14.04-17.85c-3.35,0-6.07,2.08-7.97,8.43c-6.34,20.57-16.49,40.68-31.26,56.09c0.09,0.54,0.73,0.82,1.9,0.82
					c7.52,0,20.03-21.2,23.83-27.46c5.62-9.7,10.51-20.39,13.41-31.17c4.98,3.08,6.16,9.33,6.16,14.95
					c0,8.43-4.71,22.83-11.87,27.36l-0.36,0.27c-0.72,0.36-1.72,1-3.35,1.45c-8.43,2.63-10.42,4.71-10.42,7.34
					C749.82,429.4,761.24,427.31,770.57,427.31 M693.55,446.52v0.27h0.09c-4.08,2.45-8.34,6.71-8.34,11.96
					c0,5.53,2.81,8.88,7.97,10.24h-0.18v0.18h0.09c-4.8,2.72-7.52,6.61-7.52,11.05c0,5.8,3.72,10.42,10.15,10.78h-0.18v0.18h0.09
					c-5.62,4.35-9.7,9.51-9.7,15.31c0,6.71,3.81,11.33,10.51,11.33c13.77,0,24.92-17.76,24.92-45.22c0-12.78-1.72-55.18-19.39-55.18
					c-7.34,0-18.67,7.7-18.67,16.04c0,6.61,4.53,11.15,10.24,13.05H693.55z M696.81,422.87c14.41,0,16.67,42.68,16.67,53.55
					c0,7.34-1.63,35.97-11.69,35.97c-4.98,0-7.79-4.17-7.79-9.15c0-6.89,4.8-10.24,8.16-12.59c1.9-1.27,3.35-2.36,3.35-3.35
					c0-0.54-1-0.63-2.08-0.72h-0.54c-5.16-0.45-9.33-4.71-9.33-10.06c0-4.62,1.9-5.98,5.26-6.7c2.45-0.45,8.07-1.54,8.07-5.07
					c0-0.45-0.45-0.63-0.82-0.63h-0.27c-1.72,0.45-3.26,0.63-4.71,0.63c-4.98,0-7.88-2.72-7.88-8.88c0-5.98,3.81-7.34,7.79-8.25
					c4.53-1,5.89-2.54,5.89-3.99c0-0.73-2.36-1.18-3.9-1.45c-0.45-0.09-0.91-0.18-1.09-0.27c-5.53-1.72-10.6-5.44-10.6-11.96
					C691.28,426.59,693.28,422.87,696.81,422.87"/>
			</g>
		</g>
		<g>
			<g>
				<defs>
					<rect id="SVGID_00000094606024197764582900000003351328882331124895_" x="421.36" y="374.14" width="157.27" height="152.8"/>
				</defs>
				<clipPath id="SVGID_00000159443464277240284200000011647329556202823077_">
					<use xlink:href="#SVGID_00000094606024197764582900000003351328882331124895_"  style="overflow:visible;"/>
				</clipPath>
				<path style="clip-path:url(#SVGID_00000159443464277240284200000011647329556202823077_);fill:#1D1D1B;" d="M518.17,416.02
					c-0.18,0.27-0.27,0.63-0.27,0.91c0,1.36,1.54,2.27,2.72,2.27c0.73,0,1.36-0.27,1.72-0.82c5.62-8.15,12.87-19.75,13.68-21.29
					c0.54-1.09,0.91-2.08,0.91-2.99c0-1.99-2.17-3.71-3.99-3.71c-1.36,0-2.63,0.82-3.81,2.81
					C528.13,394.64,521.97,406.87,518.17,416.02 M497.51,411.4c0.09,1.18,1.18,1.99,2.45,1.99c1.36,0,2.36-0.82,2.45-1.9
					c1-9.88,1.54-23.83,1.54-25.55c-0.09-3.26-1.63-4.8-3.99-4.8c-2.36,0-3.99,1.54-3.99,4.71
					C495.97,387.66,496.51,401.43,497.51,411.4 M477.66,418.11c0.45,0.63,1.18,1,1.99,1c0.45,0,0.73-0.18,1.18-0.36
					c0.91-0.54,1.27-1.27,1.27-1.9c0-0.27-0.09-0.64-0.18-1c-3.99-9.06-10.06-21.29-10.96-22.74c-1.09-1.99-2.36-2.9-3.62-2.9
					c-1.9,0-4.17,1.99-4.17,3.9c0,0.73,0.27,1.72,0.91,2.9c0.27,0.36,0.45,0.63,0.64,1C466.79,401.34,472.77,411.22,477.66,418.11
					 M533.84,430.43c-0.54,0.45-0.91,1.18-0.91,1.81c0,1.27,0.91,2.45,2.17,2.45c1.63,0,20.39-9.79,23.02-11.6
					c1.9-1.09,2.81-2.36,2.81-3.62c0-0.63-0.27-1.27-0.63-1.9c-0.91-1.36-1.81-2.17-3.35-2.17
					C553.51,415.39,536.83,428.16,533.84,430.43 M509.56,430.61c-2.08,0-3.44,0.36-3.44,2.26c0,2.27,1.99,3.81,6.8,3.81
					c0.64,0,1.45-0.09,2.36-0.09c1.09-0.09,2.17-0.18,3.35-0.18c1.36,0,2.72,0.09,3.81,0.45c1,0.36,2.45,0.54,3.17,0.54
					c0.82,0,1.54-0.36,1.54-1.09C527.14,433.24,514.63,430.61,509.56,430.61 M506.75,445.38c0,2.36,2.08,4.26,4.71,4.26
					c1.27,0,9.15-1,9.15-3.53c0-1.9-4.71-4.62-9.88-4.62C508.29,441.48,506.75,442.93,506.75,445.38 M493.16,445.38
					c0-2.45-1.54-3.9-3.99-3.9c-4.98,0-9.7,2.72-9.7,4.62c0,2.54,7.7,3.53,9.06,3.53C491.16,449.64,493.16,447.74,493.16,445.38
					 M490.44,430.61c-5.08,0-17.67,2.63-17.67,5.71c0,0.73,0.91,1.09,1.54,1.09c0.82,0,2.17-0.18,3.26-0.54
					c1-0.36,2.45-0.45,3.71-0.45c1.18,0,2.36,0.09,3.35,0.18c0.91,0,1.81,0.09,2.36,0.09c4.8,0,6.89-1.54,6.89-3.81
					C493.88,430.97,492.61,430.61,490.44,430.61 M463.98,434.42c0.27,0.09,0.63,0.18,1,0.27c0.63-0.09,1.36-0.45,1.9-1.18
					c0.27-0.45,0.36-1,0.36-1.36c0-0.63-0.36-1.27-0.91-1.72c-7.61-5.89-18.94-13.41-20.39-14.32c-1.09-0.54-1.99-0.91-2.9-0.91
					c-2.17,0-3.44,1.99-3.81,3.99c0.09,1.27,0.91,2.63,2.72,3.8C443.41,424,455.1,430.34,463.98,434.42 M540.46,455.89
					c9.51,1.09,22.74,1.63,24.55,1.63c2.99,0,4.62-1.63,4.62-3.99c0-2.36-1.63-3.99-4.62-3.99c-1.81,0-15.04,0.54-24.55,1.63
					c-1.18,0.09-2.17,1.09-2.17,2.36C538.28,454.8,539.28,455.8,540.46,455.89 M499.95,458.88c-1.45,0-3.08-0.18-4.62-1.99h0.09
					c-0.18-0.18-0.27-0.36-0.36-0.63c-0.27-0.63-0.54-1.09-1.72-1.09c-1.9,0-3.53,1.81-3.53,3.9c0,1.9,1.54,2.99,3.53,2.99h2.08
					c0.63,0,1.27,0.27,1.72,0.45c0.73,0.27,1.63,0.63,2.81,0.63c1.36,0,2.08-0.36,2.9-0.63c0.54-0.27,1.09-0.45,1.63-0.45h2.17
					c1.9,0,3.53-1.09,3.53-2.99c0-2.08-1.72-3.9-3.53-3.9c-1.09,0-1.36,0.45-1.72,1c-0.09,0.27-0.27,0.54-0.36,0.73
					C503.13,458.7,501.49,458.88,499.95,458.88 M499.77,470.21c-1.81-1.72-3.08-2.45-5.44-2.45c-1.9,0-3.53,0.27-5.07,0.54
					c-1.54,0.27-2.99,0.54-4.71,0.54c-0.72,0-1.09,0.18-1.09,0.54c0,1.9,2.9,2.81,4.26,2.81c2.81,0,5.16,0.27,7.7,1
					c1.45,0.36,2.63,0.73,4.53,0.73c1.99,0,3.26-0.36,4.71-0.73c2.63-0.73,4.98-1,7.61-1c1.45,0,4.17-0.91,4.17-2.81
					c0-0.36-0.27-0.54-1.09-0.54c-1.63,0-3.17-0.27-4.71-0.54c-1.54-0.27-3.08-0.54-4.98-0.54c-2.35,0-3.71,0.73-5.53,2.45H499.77z
					 M461.63,453.54c0-1.27-0.82-2.27-1.99-2.36c-9.42-1-22.83-1.63-24.46-1.63c-3.26,0.09-4.8,1.63-4.8,3.99
					c0,2.35,1.54,3.99,4.71,3.99c1.72,0,15.04-0.54,24.46-1.63C460.81,455.8,461.63,454.8,461.63,453.54 M533.84,476.64
					c6.89,5.26,16.58,11.78,19.48,13.77l0.73,0.45c1.09,0.54,2.08,0.82,2.9,0.82c1.99,0,3.99-2.08,3.99-4.08
					c0-1.27-0.91-2.54-2.81-3.62c-2.63-1.81-21.39-11.6-23.02-11.6c-1.27,0-2.17,1.18-2.17,2.45
					C532.94,475.46,533.3,476.19,533.84,476.64 M499.95,479.72c-1.09,0-1.99-0.18-2.81-0.72c-0.09-0.09-0.27-0.27-0.45-0.36
					c-0.54-0.36-0.91-0.54-1.45-0.54s-1.36,0.91-1.36,1.9c0,1.81,2.54,4.26,6.07,4.26c3.62,0,6.07-2.45,6.07-4.26
					c0-1-0.63-1.9-1.36-1.9c-0.54,0-1,0.27-1.54,0.72l-0.27,0.18C501.95,479.54,501.13,479.72,499.95,479.72 M466.07,476.64
					c0.63-0.54,1-1.18,1-1.9c0-0.36-0.09-0.73-0.27-1.18c-0.54-0.82-1.27-1.18-1.9-1.18c-1.72,0-20.57,9.88-23.02,11.6
					c-1.99,1.09-2.81,2.36-2.81,3.62c0,2.08,2.08,4.08,3.99,4.08c0.82,0,1.72-0.27,2.9-0.82l0.73-0.54
					C449.85,488.24,459.36,481.9,466.07,476.64 M518.17,491.05c3.9,9.15,9.97,21.38,10.96,22.83c1.18,1.99,2.45,2.81,3.81,2.81
					c1.81,0,3.99-1.72,3.99-3.72c0-0.82-0.36-1.81-0.91-2.99c-0.82-1.54-8.07-13.14-13.68-21.29c-0.36-0.54-1-0.82-1.72-0.82
					c-1.27,0-2.63,0.91-2.63,2.27C517.99,490.42,518.08,490.78,518.17,491.05 M499.95,493.68c-1.27,0-2.36,0.91-2.45,1.9
					c-0.91,9.97-1.54,23.83-1.54,25.55c0.09,3.26,1.63,4.8,3.99,4.8c2.36,0,3.9-1.54,3.99-4.8c0-1.72-0.54-15.59-1.54-25.55
					C502.31,494.58,501.31,493.68,499.95,493.68 M481.92,491.05c0.09-0.27,0.18-0.54,0.18-0.82c0-1.45-1.36-2.36-2.63-2.36
					c-0.82,0-1.45,0.27-1.81,0.82c-5.62,8.07-12.87,19.75-13.68,21.29c-0.63,1.18-0.91,2.17-0.91,2.99c0,1.99,2.17,3.72,4.08,3.72
					c1.27,0,2.54-0.82,3.71-2.81C471.77,512.43,477.94,500.2,481.92,491.05"/>
			</g>
		</g>
		<g>
			<g>
				<defs>
					<rect id="SVGID_00000061448448784007952510000000568206541685677484_" x="747.08" y="69.33" width="212.91" height="159.23"/>
				</defs>
				<clipPath id="SVGID_00000032650679445448987690000000694051135191786660_">
					<use xlink:href="#SVGID_00000061448448784007952510000000568206541685677484_"  style="overflow:visible;"/>
				</clipPath>
				<path style="clip-path:url(#SVGID_00000032650679445448987690000000694051135191786660_);fill:#1D1D1B;" d="M938.21,157.52
					c0,1.36-0.27,2.36-2.45,3.72c-2.72,1.9-49.47,9.6-58.81,11.15c-2.54,0.27-15.31,1.9-15.31,5.53c0,1.27,1.09,1.54,5.35,2.99
					c0.91,0.27,1.99,0.64,3.17,1.09l24.56,8.52c3.71,0.82,18.94,6.07,18.94,9.97c0,1.9-1.72,2.17-2.99,2.17
					c-3.81,0-6.8-0.91-10.06-1.9c-5.44-1.54-10.87-3.17-16.22-4.98c-10.33-3.35-21.39-7.07-30.63-7.07c-3.53,0-6.7,0.18-9.7,0.36
					c-2.9,0.18-5.53,0.36-8.34,0.36c-4.53,0-9.24-0.18-14.86-1.54c-3.17,0.63-6.61,2.45-6.61,4.62c0,1.99,12.87,2.63,14.95,2.63
					c3.26,0,6.43-0.27,9.6-0.54c3.26-0.27,6.43-0.54,9.6-0.54c8.7,0,18.76,3.35,28.91,6.8c10.33,3.53,20.75,7.07,30.17,7.07
					c5.71,0,14.41-4.53,14.41-11.33c0-1.99-1.45-3.26-2.9-4.17c-4.44-3.26-25.19-9.97-36.43-13.59c-2.17-0.72-3.99-1.27-5.16-1.72
					h0.09v-0.18h-0.18c10.42-1.63,20.75-3.62,31.08-5.62c1.09-0.18,2.36-0.36,3.9-0.63c11.51-1.9,34.07-5.53,34.07-17.49
					c0-2.63-1.99-4.62-3.99-5.8h0.09v-0.18h-0.09c4.08-1.27,8.52-4.98,8.61-9.33v-0.18c0-4.62-3.53-6.7-10.96-6.7
					c-12.41,0-23.74,1.63-34.52,3.17c-0.91,0.09-1.72,0.18-2.63,0.36l-0.18-0.18c1.27-1.45,1.81-2.72,1.81-4.71
					c0-6.25-5.8-9.33-13.59-9.33c-6.98,0-19.39,2.36-28.82,4.17c-1.36,0.36-2.81,0.54-3.99,0.81c-1.18,0.18-2.35,0.45-3.44,0.73
					c-2.72,0.54-5.35,1.09-7.97,1.09c-0.45,0-1.63,0-1.63-1c0-0.54,1-2.26,2.36-4.71c3.9-6.7,11.06-19.03,11.06-29.54
					c0-7.52-4.62-15.49-9.06-15.49c-3.17,0-5.71,2.45-8.15,7.97c-4.71,10.6-10.33,16.04-15.86,21.29
					c-8.06,7.79-11.6,12.68-16.76,22.83c-3.08,6.25-6.8,11.78-11.05,17.22c0.82,0.36,1.63,0.64,2.45,0.64
					c5.98,0,13.68-14.41,16.49-20.21c4.89-9.88,6.61-12.14,14.41-19.75c6.52-6.34,12.32-13.14,16.49-21.48
					c2.27,2.63,3.08,7.25,3.08,10.87c0,9.7-5.89,19.84-9.88,26.73c-2.08,3.53-3.62,6.25-3.62,7.52c0,2.27,2.63,2.54,4.44,2.54
					c2.9,0,5.71-0.63,8.61-1.18c3.08-0.73,6.34-1.27,9.42-1.81c8.97-1.63,20.93-3.9,27.64-3.9c5.26,0,9.42,3.17,9.42,8.06
					c0,0.45,0,1-0.18,1.54h0.18c-6.34,0.63-31.26,3.26-34.07,4.71c-1.27,0.54-4.35,2.45-4.35,3.99c0,0.54,0.82,0.91,1.27,0.91
					c3.53,0,9.33-1,14.23-1.72c1.9-0.36,3.72-0.63,4.98-0.82c10.6-1.54,21.29-2.81,32.08-3.99c2.27-0.27,4.62-0.54,6.98-0.82
					c5.98-0.72,12.14-1.45,17.49-1.45c3.99,0,7.88,0.73,7.88,5.53c0,1.27-0.54,2.63-2.63,3.26c-3.9,1-8.97,1.72-23.2,3.71
					c-6.07,0.82-12.51,1.72-18.76,2.63c-5.98,0.82-12.05,1.72-18.12,2.54c-1.27,0.18-2.63,0.27-4.17,0.36
					c-3.99,0.36-8.61,0.82-11.6,1.9c-1.27,0.45-4.71,2.45-4.71,4.08c0,0.63,0.82,0.91,1.36,0.91c2.72,0,6.8-0.73,10.51-1.27
					c1.54-0.27,2.99-0.54,4.26-0.73c13.77-1.81,27.46-3.71,41.23-5.98c5.8-0.91,10.51-1.63,13.95-1.63
					C935.58,151.36,938.21,152.44,938.21,157.52 M756.08,146.1c0,7.88,6.25,12.51,13.59,12.51v0.18h0.09
					c-3.35,2.72-5.8,6.8-5.8,10.78c0,5.89,5.35,9.79,10.24,10.06h-0.18v0.18h0.09c-2.72,2.72-4.44,6.43-4.44,10.33
					c0,6.43,6.25,12.23,12.32,12.23h0.27v0.18h0.09c-3.35,4.08-6.16,8.7-6.16,14.32c0,6.34,4.35,10.69,10.51,10.69
					c8.52,0,19.75-8.97,19.75-25.91c0-26.46-13.59-72.22-32.17-72.22C766.77,129.43,756.08,137.76,756.08,146.1 M768.95,134.95
					c16.13,0,29.54,44.85,29.54,70.41c0,9.15-3.35,16.85-7.34,16.85c-4.26,0-6.8-5.17-6.8-9.24c0-6.52,3.72-10.78,5.98-13.41
					c1-1.18,1.81-1.99,1.81-2.54c0-0.54-0.73-0.82-1.18-0.82c-0.72,0-1.36,0.18-1.99,0.36c-0.45,0.27-1.09,0.45-1.72,0.45
					c-4.98,0-9.61-5.44-9.61-10.69c0-6.07,3.53-7.61,6.52-8.88c2.17-0.91,3.99-1.63,3.99-3.62c0-0.54-0.82-0.82-1.36-0.82
					c-1.09,0-2.27,0.36-3.26,0.73c-1.09,0.45-2.27,0.82-3.35,0.82c-4.17,0-8.25-3.99-8.25-8.61c0-5.53,3.72-7.25,6.61-8.61
					c2.08-1,3.9-1.81,3.9-3.62c0-0.54-0.63-0.91-1.27-0.91c-0.91,0-1.63,0.18-2.54,0.36c-0.72,0.18-1.63,0.36-2.45,0.36
					c-6.52,0-12.05-3.62-12.05-11.15C764.15,138.85,766.68,134.95,768.95,134.95"/>
			</g>
		</g>
		<g>
			<g>
				<defs>
					<rect id="SVGID_00000070829802311676399430000011325442793338361750_" x="157" y="374.14" width="190.07" height="152.89"/>
				</defs>
				<clipPath id="SVGID_00000087399045288436837910000012661363187757914753_">
					<use xlink:href="#SVGID_00000070829802311676399430000011325442793338361750_"  style="overflow:visible;"/>
				</clipPath>
				<path style="clip-path:url(#SVGID_00000087399045288436837910000012661363187757914753_);fill:#1D1D1B;" d="M230.51,427.98
					c0-3.9,0-8.79-5.16-8.79c-5.98,0-15.59,7.16-15.59,12.87c0,1.18,0.82,1.72,1.99,1.72c1.54,0,5.07-1.63,6.16-4.44
					c-0.18-0.54-0.18-1-0.18-1.45c0-1.72,0.91-2.72,2.36-3.17c0.18-0.09,0.36-0.09,0.54-0.09c1.72,0.09,1.9,3.99,2.08,8.34h0.09
					c-7.16,2.63-13.77,5.8-13.77,10.33c0,3.26,2.45,4.44,5.26,4.44c3.72,0,8.15-2.08,8.15-4.17c0-0.54-0.27-0.82-0.91-0.82h-1.09
					c-1.81,0-3.53-0.09-3.53-1.99c0-1.45,2.9-3.26,6.07-3.9c0.27,4.26,1.27,8.06,4.35,8.06c2.54,0,7.07-2.81,7.07-4.98
					c0-0.45-0.54-0.54-1.27-0.54h-0.36c-0.72,0-1.81-0.09-1.99-1.45c-0.27-2.45-0.27-5.35-0.27-7.61V427.98z M312.15,469.94
					c0,6.8-2.63,10.69-9.33,10.69c-8.25,0-16.22-4.98-24.28-9.97l-1.45-0.91c7.61-3.44,13.14-4.35,17.94-4.53
					c2.27-0.09,4.35-0.45,4.35-3.17c-0.09-1-0.72-2.54-1.99-4.26c-3.17-4.35-4.98-9.51-4.98-14.95c0-1.18,0.18-1.99,0.45-2.63
					c0.09-0.18,0.18-0.45,0.27-0.64c-0.72-0.18-1.36-0.27-2.08-0.27c-3.62,0-6.71,3.08-6.71,7.34c0,5.07,2.36,10.24,4.98,14.59h0.18
					c-6.52,1.18-12.14,3.44-16.85,5.71c-6.25-3.71-12.5-6.7-18.94-6.7c-9.06,0-21.48,5.89-21.48,15.4c0,5.35,6.71,6.8,10.87,6.8
					c10.69,0,18.3-4.35,26.01-8.61l1.54,0.91c8.25,5.44,17.12,11.33,26.82,11.33c10.78,0,22.65-7.88,22.65-19.93
					c0-4.44-3.26-17.49-8.88-17.49c-1.9,0-3.9,1.36-4.71,3.35c0,0.09,0.27,0.63,0.73,1.45
					C308.71,456.44,312.15,463.32,312.15,469.94 M251.9,425.72c0-12.14-1.09-20.03-14.59-20.03c-8.16,0-16.04,2.17-23.83,4.44
					c-1.27,0.27-2.36,0.63-3.44,0.91l-1.54,0.45c-3.99,1.09-9.79,2.72-13.96,3.26c-1.72-10.51-3.8-19.57-7.16-23.2
					c-1.81-1.9-3.99-2.27-6.07-2.27c-7.07,0-15.31,3.81-15.31,11.33c0,11.15,11.42,16.85,21.02,18.12h-0.18
					c1,5.44,1.72,10.78,2.36,14.77c1.36,10.69,3.26,21.75,7.43,31.62c-6.25,6.34-10.42,14.86-10.42,23.11
					c0,16.76,15.4,26.91,29.99,26.91c10.24,0,20.93-4.98,28.63-11.51c7.7,14.23,23.56,22.38,38.96,22.38
					c34.43,0,54.28-28.27,54.28-56.54v-0.73c-0.18-18.39-8.52-34.89-23.47-44.67c-1.81-1.27-3.62-2.45-4.98-3.62
					c-1.72-1.63-1.81-5.62-1.81-10.6c-0.09-3.35-0.18-7.16-0.72-10.96c-1.54-8.79-7.79-17.76-20.84-17.76
					c-11.78,0-27.91,9.42-28.54,18.21c0,4.35,1.81,6.25,5.98,6.25c0.82,0,1.45-0.09,2.18-0.27l0.18,0.09h-0.09
					c-0.18,2.27-1,4.35-1.72,6.43c-1,2.45-1.81,4.8-1.81,7.34c0,5.35,3.9,5.71,5.8,5.89c0.45,0,0.73,0.09,0.82,0.18
					c0.54,0.72,0.63,1.81,0.63,2.99v1.54c-0.09,0.45-0.09,0.91-0.09,1.27c0,3.99,0.82,6.7,5.44,6.7c11.42,0,18.03-9.97,18.03-20.57
					c0-5.17-2.17-11.24-7.25-11.24c-3.26,0-5.53,2.27-5.71,5.07h1c4.62,0,6.07,5.17,6.07,9.24c0,4.44-1.81,12.05-7.07,12.05
					c-2.17,0-2.54-2.45-2.54-4.71c0-0.54,0-1.09,0.09-1.63c0-3.81-0.09-5.98-3.99-6.52c-1.63-0.18-3.17-0.36-3.17-4.08
					c0-2.72,0.91-5.53,1.81-8.15c0.91-2.45,1.63-4.8,1.63-6.98c0-0.82-0.64-0.91-1.27-0.91c-0.36,0-0.73,0.18-1.18,0.27
					c-0.72,0.27-1.9,0.63-2.9,0.63c-1.27,0-2.81-0.45-2.81-2.81c0-5.17,8.97-11.51,17.67-11.51c14.68,0,15.4,15.4,15.95,26.82
					c0.18,4.44,0.27,8.07,1.45,10.51c0.91,2.08,3.08,3.35,5.08,4.53c0.63,0.36,1.27,0.82,1.81,1.18
					c14.23,10.15,21.48,27.73,21.48,44.67c-0.09,23.11-13.68,45.04-41.86,45.04c-15.13,0-26.82-5.62-34.34-19.3
					c-0.63-1-1.18-2.08-1.81-3.17c-0.63-0.91-1.45-1.36-2.54-1.36c-0.91,0-1.72,0.36-2.72,0.91c-1.09,0.73-2.36,1.72-3.53,2.72
					c-4.8,3.9-11.24,9.24-22.02,9.24c-13.32,0-26.01-8.25-26.01-23.2c0-4.8,1.54-10.42,4.44-14.95c2.99,5.25,6.89,8.97,12.05,8.97
					h1.09c7.07,0,16.67-6.8,16.67-14.59c0-5.98-6.43-8.52-11.51-8.52c-4.53,0-9.06,1.45-13.32,3.99c-4.35-11.42-6.71-28-8.43-40.59
					h-0.18c5.16-0.54,10.33-2.08,15.68-3.62c7.07-1.99,14.23-4.08,21.57-4.08c11.05,0,11.33,8.43,11.33,18.39
					c0,7.7-0.63,14.5-3.99,22.11c0.73,0.82,1.72,1.18,2.9,1.18c2.27,0,4.98-1.63,5.89-3.71C250.9,444.02,251.9,431.61,251.9,425.72
					 M185.93,413.58c-6.61-2.27-11.87-7.61-11.87-15.13c0-2.99,1.36-4.26,3.08-4.26c1.09,0,2.36,0.63,3.26,1.72
					C182.4,398.44,184.3,405.6,185.93,413.58 M264.85,471.21c-5.35,2.99-10.42,5.53-16.49,5.53c-2.81,0-8.06-0.91-8.06-4.98
					c0-3.44,4.17-5.89,10.06-5.89C254.98,465.86,259.87,468.12,264.85,471.21 M205.14,462.78c2.08-1.27,4.26-1.99,6.62-1.99
					c3.8,0,8.88,2.17,8.88,6.89c0,3.53-0.91,5.53-4.26,5.53c-1,0-2.08-0.45-3.08-0.91c-3.26-1.72-5.89-4.98-8.06-9.51H205.14z"/>
			</g>
		</g>
		<g>
			<g>
				<defs>
					<rect id="SVGID_00000108281854649817231950000009217420594493276805_" x="522.77" y="91.84" width="205.66" height="118.46"/>
				</defs>
				<clipPath id="SVGID_00000155113702663007825220000013473809604662505879_">
					<use xlink:href="#SVGID_00000108281854649817231950000009217420594493276805_"  style="overflow:visible;"/>
				</clipPath>
				<path style="clip-path:url(#SVGID_00000155113702663007825220000013473809604662505879_);fill:#1D1D1B;" d="M620.11,133.46
					c-13.59,2.36-28,7.25-40.68,14.68c-8.52-11.33-15.31-24.65-20.03-38.24c-0.09-0.36-0.27-0.91-0.54-1.63
					c-0.91-3.26-2.72-9.42-4.26-9.42c-4.26,0-10.69,6.71-12.78,10.24c-3.08,4.98-4.98,11.05-4.98,16.94
					c0,10.06,3.53,18.58,10.6,25.46c-10.24,5.8-15.68,15.58-15.68,27.73c0,7.7,3.99,25.19,9.79,30.08c3.62,0,6.89-3.99,6.89-7.43
					c0-5.16,1.27-10.96,3.17-15.86c4.44-12.78,12.5-22.47,22.38-29.99c14.32,17.94,33.98,31.26,57.99,31.26
					c8.88,0,19.03-2.26,27.55-6.8c5.35,2.81,11.87,3.99,18.39,3.99c18.4,0,41.5-8.25,41.5-24.46c0-6.16-4.98-12.6-9.15-16.58
					c-22.56-21.75-58.35-31.62-88.44-31.62c-5.44,0-10.42,1.27-10.42,4.44c0,0.82,0.36,1.36,1.18,2.63l0.27,0.36
					c2.81,4.53,5.62,9.06,7.07,14.23H620.11z M663.43,173.6c-5.71-3.99-9.7-10.42-9.7-19.57c0-4.35,1.27-11.78,6.43-11.78
					c6.8,0,10.6,6.16,10.6,12.96c0,8.43-2.9,14.32-7.43,18.48L663.43,173.6z M622.2,117.33c22.93,0.82,46.3,7.79,66.06,19.75
					c7.97,4.8,23.11,16.13,23.11,26.64c0,11.87-13.77,15.22-28.45,15.22c-5.53,0-11.15-1.09-15.95-3.35
					c7.16-5.71,11.87-13.77,11.87-24.19c0-8.34-4.98-14.5-13.32-14.5c-10.6,0-19.93,9.88-19.93,20.84c0,9.7,4.08,16.31,10.33,20.66
					c-5.89,2.45-12.59,3.35-19.3,3.35c-22.93,0-41.23-13.14-55.09-30.72c13.32-7.43,23.38-10.6,38.51-12.96
					c5.08-0.82,8.61-1.9,8.61-4.8C628.63,128.47,624.55,121.4,622.2,117.33 M542.73,192.17c-1.72-5.17-3.08-11.05-3.08-16.67
					c0-16.04,7.79-20.02,12.96-22.74c2.45-1.27,4.35-2.18,4.62-3.81l-0.27-0.54c-7.97-7.25-11.96-14.95-11.96-26.1
					c0-4.98,1.45-10.96,4.17-15.22c4.89,15.86,12.41,32.26,22.56,45.94h0.09C558.32,162.63,547.53,175.68,542.73,192.17"/>
			</g>
		</g>
		<g>
			<g>
				<defs>
					<rect id="SVGID_00000157993730360205134330000009256698340369144243_" x="241.32" y="73.18" width="252.87" height="151.53"/>
				</defs>
				<clipPath id="SVGID_00000013164219396320419280000008637870581991238062_">
					<use xlink:href="#SVGID_00000157993730360205134330000009256698340369144243_"  style="overflow:visible;"/>
				</clipPath>
				<path style="clip-path:url(#SVGID_00000013164219396320419280000008637870581991238062_);fill:#1D1D1B;" d="M445.5,207.22
					c4.35,0,14.41,3.26,14.41,9.06c0,1.54-1.81,2.72-4.35,2.72c-8.7,0-22.65-13.05-26.73-17.4c-0.91-1-1.99-1.36-3.17-1.36
					c-2.72,0-5.44,2.45-6.16,4.71c1.45,1,3.17,2.63,5.16,4.35c6.52,5.98,15.68,14.32,25.55,14.32c6.98,0,17.67-3.53,17.67-10.6
					c0-8.61-11.51-11.24-17.04-11.24c-4.62,0-8.97,1.72-8.97,4.44c0,0.36,0.09,0.73,0.27,1.18
					C443.24,207.31,444.69,207.22,445.5,207.22 M438.25,141.34c7.43,0,18.3-6.7,18.3-15.4c0-2.45-2.72-3.44-4.62-3.9
					c-0.73-0.18-1.45-0.36-2.27-0.54c-3.53-0.73-6.98-1.45-9.79-4.62c-1-1.09-1.72-2.18-2.54-3.08c-2.9-3.62-4.53-5.62-11.51-5.62
					c-3.8,0-6.25-4.71-8.61-9.33c-2.17-4.35-4.35-8.52-7.79-8.52c-8.97,0-13.05,10.51-13.05,18.3c0,8.88,6.34,14.41,11.42,14.41
					c2.36,0,4.8-1.54,4.8-4.17c-5.62-1.81-8.15-6.43-8.15-14.05c0-2.63,0.54-5.44,1.45-7.88h0.18c1,1.18,2.36,3.99,3.71,6.61
					c2.63,5.71,4.8,9.97,11.6,9.97c4.89,0,6.89,2.63,9.15,5.71c3.81,5.07,5.17,5.44,11.33,7.07c3.44,0.91,6.71,1.81,6.71,3.44
					c0,4.89-2.63,6.16-6.43,6.16c-1.81,0-3.99-0.72-6.07-1.45c-1.9-0.54-3.62-1.18-4.98-1.18h-0.18c-2.81,0-5.17,1.81-6.07,4.62
					C426.83,138.9,433.36,141.34,438.25,141.34 M395.39,186.56c-6.98,0-13.77-5.16-20.66-10.51c-7.16-5.44-14.5-11.05-22.47-11.05
					c-6.61,0-17.12,5.62-17.12,13.32c0,4.8,4.17,7.34,7.25,7.34c2.36,0,5.89-1.54,7.25-4.62c-3.08-0.63-6.52-3.08-6.52-6.43
					c0-2.81,2.17-4.71,5.8-4.71c5.98,0,11.87,4.89,18.21,10.06c6.98,5.8,14.41,11.96,22.93,11.96c4.08,0,10.6-1.72,14.86-6.07
					c2.63,6.89,6.43,11.05,14.32,11.05c8.52,0,18.3-4.98,27.18-9.7c5.35,3.08,16.76,8.7,22.38,8.7c6.07,0,16.4-5.53,16.4-12.69
					c0-6.89-7.25-9.42-14.32-9.42c-7.7,0-14.68,3.17-21.02,6.8c-7.97-3.81-17.13-7.34-26.19-7.34h-0.18
					c1.99-5.07,3.62-10.87,3.62-16.22c0-14.86-8.7-22.56-22.65-22.56c-14.86,0-30.81,4.8-46.03,9.33
					c-9.15,2.72-17.94,5.35-26.01,6.89c-2.9-17.49-15.04-24.83-26.46-31.26c-2.18-1.18-4.35-2.45-6.43-3.71h0.09
					c-0.54-9.33-1.27-20.84-5.35-29.18c-2.09-4.26-4.8-6.34-8.16-6.34c-6.25,0-11.78,6.89-11.78,14.14
					c0,12.96,9.79,21.66,19.84,27.46h-0.09c1.27,18.39,3.08,34.43,26.01,34.43c1.54,0,2.99-0.09,4.44-0.18
					c0.36,2.26,0.54,4.53,0.54,6.7c0,6.07-3.44,18.49-10.87,18.49c-2.36,0-5.17-0.73-8.25-2.08h0.09v-1.72
					c0-6.61-2.99-24.83-12.05-24.83c-6.25,0-11.69,4.44-11.69,9.51c0,5.71,8.06,14.14,16.67,19.21h-0.09
					c-0.09,5.71-3.08,25.1-10.06,25.1c-2.72,0-3.17-4.62-3.17-6.8c0-5.08,0.91-9.88,1.81-14.68c0.36-2.17,0.82-4.44,1.18-6.71v-0.18
					c0-0.63-0.73-0.91-1.36-0.91c-2.36,0-5.26,1.99-6.52,3.9l-0.63,1.18c-4.35,6.89-8.06,10.24-14.14,15.04
					c-5.8,4.44-14.04,10.78-15.22,15.04c-0.27,1-0.45,1.99-0.45,3.08c0,5.07,3.44,8.34,7.97,8.34c5.62,0,8.43-5.35,8.34-5.35
					c-5.26,0-8.43-2.17-8.43-5.53c0-3.26,4.8-6.98,10.06-11.06c3.81-2.99,7.88-6.07,10.6-9.24v0.09c-0.63,3.17-1.27,6.79-1.27,10.69
					c0,3.71,1,8.43,5.62,8.43c6.7,0,13.86-4.98,17.22-10.87c2.9-5.07,4.53-10.69,5.26-16.4c2.17,0.73,4.35,1.18,6.16,1.18
					c13.14,0,21.11-14.5,21.11-26.64c0-1.36,0-2.63-0.09-3.9h-0.18c9.15-1.45,18.03-4.26,26.82-7.07
					c12.96-4.08,25.92-8.16,39.6-8.16c12.59,0,19.93,7.43,19.93,20.84c0,5.8-1.9,11.15-3.9,16.67l-0.18,0.45v0.09
					c0,0.73,0.91,0.91,1.99,0.91c0.64,0,1.36-0.09,1.9-0.18c0.36-0.09,0.64-0.09,0.82-0.09c6.98,0,14.68,2.99,22.02,6.34
					c-6.71,3.44-13.86,6.16-18.39,6.16c-8.7,0-11.69-10.6-14.68-20.93c-0.54-2.27-1.18-4.53-1.9-6.71
					c-1.36-4.35-2.45-5.89-4.44-5.89c-1.9,0-6.34,2.27-6.52,4.53l0.18,0.36c3.08,5.71,4.71,10.78,6.52,16.31
					c0.54,1.45,1,2.9,1.54,4.44h0.09C401.46,185.02,398.2,186.56,395.39,186.56 M293.36,111.44c-6.34-5.07-10.96-12.41-10.96-20.93
					c0-3.9,0.73-4.98,1.9-4.98c1.36,0,3.35,2.63,4.71,5.8C291.55,97.49,292.73,104.55,293.36,111.44 M323.81,151.76
					c-0.91,0.09-1.99,0.09-2.99,0.09c-16.67,0-19.75-12.6-20.84-26.91c9.06,4.89,17.85,10.33,22.74,23.65l0.27,0.63
					c0.18,0.82,0.45,1.63,0.63,2.54H323.81z M298.62,174.96c-5.71-3.9-10.51-9.24-10.51-13.77c0-2.63,1-3.53,3.17-3.53
					C296.08,158.74,297.98,167.98,298.62,174.96 M454.92,182.93c4.62-2.27,8.88-3.71,12.32-3.71c4.08,0,9.97,2.36,9.97,7.7
					c0,2.36-1,3.62-2.99,3.62c-4.35,0-10.24-2.99-17.03-6.34c-0.82-0.45-1.54-0.82-2.27-1.18l0.09-0.09H454.92z"/>
			</g>
		</g>
		<g>
			<g>
				<defs>
					<rect id="SVGID_00000116203010200999076280000011232491696896549049_" x="47.1" y="73.18" width="198.95" height="143.65"/>
				</defs>
				<clipPath id="SVGID_00000123438495406220985800000005745019045590728356_">
					<use xlink:href="#SVGID_00000116203010200999076280000011232491696896549049_"  style="overflow:visible;"/>
				</clipPath>
				<path style="clip-path:url(#SVGID_00000123438495406220985800000005745019045590728356_);fill:#1D1D1B;" d="M166.47,92.32
					c0-6.43-3.99-12.14-8.34-12.14c-3.44,0-5.44,1.9-6.71,3.8c-0.63,1-1.18,1.99-1.81,3.08c-9.69,16.76-28.09,35.7-43.77,45.58
					c-0.91,0.45-1.81,0.91-2.63,1.36c-1.18,0.63-2.36,1.27-3.62,1.81c-2.81,1.27-3.53,2.9-3.53,4.08c0,0.73,0.27,1.45,0.45,1.9
					c2.27-1.09,4.44-2.27,6.34-3.44c20.03-11.51,46.39-13.41,68.96-13.41c50.83,0,57.18,1.63,57.18,4.98
					c0,6.34-8.88,9.33-13.68,9.33c-5.07,0-9.24-1.18-13.32-4.53c-0.27-0.27-0.45-0.36-1-0.36c-2.17,0-3.53,1.09-5.17,2.45
					c-2.17,1.81-4.8,4.08-10.33,4.08c-5.16,0-9.51-2.54-11.6-3.81c-0.54-0.36-1.09-0.63-1.36-0.63c-1.72,0-2.99,0.91-4.62,2.08
					c-2.18,1.54-5.07,3.53-10.06,4.17c-6.98-1-13.95-1.27-17.4-1.27c-2.54,0-6.71,2.36-6.71,5.53v0.09c8.7,0,36.06,0.63,36.06,11.24
					c0,5.08-4.98,6.61-11.05,6.61c-4.8,0-10.24-1-14.23-1.99h0.09c-0.09,0-0.63-0.09-0.72-0.18l-0.45-0.09
					c-2.27-0.54-4.71-1.09-6.89-1.09c-3.81,0-6.71,2.18-6.71,4.08c0,0.18,0,0.45,0.09,0.63c2.63,0.36,5.44,1,7.97,1.63
					c1.9,0.45,3.71,0.82,5.44,1.18c10.33,1.99,22.56,6.34,22.56,13.32c0,4.62-2.54,6.25-6.34,6.25c-5.53,0-12.96-2.63-18.76-4.8
					c-3.71-1.36-6.89-2.45-8.43-2.45c-2.45,0-4.44,2.45-5.16,5.08c0.18,0.27,9.15,3.62,10.96,4.35c6.43,2.54,13.41,6.34,13.41,11.96
					c0,2.63-0.82,4.98-5.62,4.98c-7.88,0-23.83-5.98-36.24-10.6c-3.35-1.27-6.34-2.36-8.88-3.26l-0.36-0.18
					c-1.99,0-6.98,2.45-6.98,4.62c0,0.82,3.99,1.99,5.98,2.63c0.36,0.09,0.63,0.18,0.81,0.27c2.45,0.82,5.17,1.81,7.88,2.81
					c11.24,4.08,24.74,9.06,33.07,9.06c8.97,0,18.39-4.8,18.39-12.96c0-2.18-0.73-4.53-3.53-6.34h0.09v-0.18
					c0.63,0.09,1,0.09,1.63,0.09c9.97,0,16.13-7.79,16.13-15.04c0-4.8-4.62-8.07-10.15-10.33h0.09l0.09-0.27h-0.18
					c5.8-1.45,14.14-6.61,14.14-13.5c0-5.17-5.53-8.25-12.5-10.06h0.18v-0.36h-0.09l0.18-0.09c0.82-0.36,1.54-0.63,2.18-1
					c3.81,2.36,7.88,3.17,12.32,3.17c5.62,0,11.33-1.9,16.13-5.07c3.81,2.45,9.15,3.44,13.59,3.44c8.34,0,16.67-3.9,22.47-9.88
					c2.36-2.27,4.62-5.17,4.62-8.61c0-6.25-13.59-6.52-48.21-6.52h-5.44c-11.51,0-23.11,0.09-34.71,1.45
					C157.59,114.97,166.47,103.01,166.47,92.32 M66.34,144.69c-3.99,2.63-8.34,6.89-8.34,12.14c0,5.44,2.81,8.79,6.8,10.24
					c-3.72,2.9-6.43,6.8-6.43,11.24c0,5.71,3.71,10.06,9.15,11.42h-0.09c-4.26,3.53-8.7,8.97-8.7,14.86
					c0,6.61,3.81,11.24,10.51,11.24c0.45,0,1-0.09,1.45-0.18c20.48-3.35,23.47-27.55,23.47-45.04c0-12.6-1.81-55.18-19.39-55.18
					c-7.34,0-18.67,7.7-18.67,16.04C56.1,138.08,60.72,142.61,66.34,144.69 M155.59,87.52c2.17,2.17,2.9,5.35,2.9,8.52
					c0,7.43-8.06,20.75-15.4,25.55h0.09c-1.81,0.45-3.99,0.91-6.43,1.45c-5.62,1.27-12.23,2.63-17.04,4.26l-0.09-0.27h-0.09
					c14.04-10.96,26.1-24.83,35.97-39.42h-0.09L155.59,87.52z M69.51,120.95c14.41,0,16.67,42.68,16.67,53.46
					c0,7.43-1.63,36.06-11.69,36.06c-4.89,0-7.79-4.35-7.79-9.24c0-6.79,4.8-10.06,8.15-12.5c1.9-1.36,3.35-2.36,3.35-3.44
					c0-0.63-0.45-0.82-1.09-0.82c-0.36,0-0.72,0.09-1,0.09c-0.18,0.09-0.36,0.09-0.54,0.09c-5.17,0-9.33-4.62-9.33-10.15
					c0-3.99,1.72-5.8,4.53-6.52c0.54,0,1-0.09,1.63-0.27l0.36-0.09c1.99,0,7.16-2.17,7.16-4.62c0-0.73-0.81-0.91-1.36-0.91
					c-1.18,0-2.54,0.18-3.9,0.54c-4.89-0.45-8.7-3.71-8.7-9.24c0-5.53,3.08-6.34,6.43-7.16c2.17-0.63,4.44-1.18,6.07-2.9
					c0.45-0.36,1.09-1.09,1.09-1.63c0-0.73-2.45-1.27-3.9-1.54c-0.54-0.09-0.91-0.18-1.09-0.27c-5.53-1.63-10.6-5.35-10.6-11.96
					C63.98,124.58,65.98,120.95,69.51,120.95"/>
			</g>
		</g>
		<g>
			<g>
				<defs>
					<rect id="SVGID_00000165220652421852259800000008649862090813198516_" x="321.55" y="283.12" width="356.91" height="41.95"/>
				</defs>
				<clipPath id="SVGID_00000102534381654681985160000002423978974469062584_">
					<use xlink:href="#SVGID_00000165220652421852259800000008649862090813198516_"  style="overflow:visible;"/>
				</clipPath>
				<path style="clip-path:url(#SVGID_00000102534381654681985160000002423978974469062584_);fill:#1D1D1B;" d="M414.56,297.03
					c4.82,0,8.03,3.61,8.03,8.45c0,5.46-3.68,9.14-9.02,9.14c-4.78,0-8-3.51-8-8.33C405.57,300.79,409.25,297.03,414.56,297.03z
					 M419.59,306.33c0-4.6-2.52-8-5.71-8c-3.04,0-5.34,2.52-5.34,7.08c0,4.59,2.52,7.9,5.72,7.9
					C417.3,313.31,419.59,310.87,419.59,306.33z M428.59,314.18v-1.04l0.99-0.03c1.2-0.03,1.4-0.56,1.4-1.88v-10.82
					c0-1.32-0.2-1.85-1.4-1.88l-0.99-0.03v-1.04h7.54c3.84,0,5.44,1.2,5.44,3.78c0,1.8-0.86,3.4-3.55,4.57l1.62,2.16
					c2.67,3.56,3.84,4.75,5.26,5.21l0.51,0.16l-0.12,0.84h-2.87c-1.22,0-1.73-0.35-3.68-3.04l-3.08-4.26
					c-0.23-0.31-0.46-0.41-0.81-0.41h-1.19v4.75c0,1.32,0.2,1.85,1.4,1.88l0.99,0.03v1.04H428.59z M433.67,305.19
					c0.73,0.03,1.39,0.05,2.09,0.05c1.96,0,3.07-1.5,3.07-3.5c0-2.29-1.48-3.15-5.16-2.99V305.19z M452.38,300.05
					c-0.86-1.19-1.2-1.4-2.38-1.5l-0.58-0.05v-1.04h4.88c0.63,1.12,1.35,2.24,3.33,4.64l6.1,7.41h0.08l-0.08-8.94
					c-0.02-1.44-0.33-1.95-1.5-2l-1.44-0.07v-1.04h6.89v1.04l-1.09,0.12c-0.97,0.1-1.27,0.54-1.27,2.03l-0.05,9.35
					c-0.02,1.83,0.13,3.41,0.23,4.19h-1.3l-10.38-12.57h-0.03l0.03,9.47c0,1.44,0.33,1.95,1.5,2l1.44,0.07v1.04h-6.89v-1.04
					l1.09-0.12c0.97-0.1,1.25-0.54,1.27-2.03L452.38,300.05z M471.79,314.18v-1.04l0.48-0.07c0.97-0.13,1.7-0.97,2.57-3.04
					l5.31-12.67h1.19l5.54,13.58c0.71,1.73,1.39,2.11,2.23,2.16l0.54,0.03v1.04h-7.54v-1.04l1.44-0.12
					c0.94-0.08,1.04-0.64,0.68-1.57l-1.45-3.63h-5.43c-0.91,2.26-1.29,3.36-1.29,4.04c0,0.78,0.41,1.15,1.7,1.22l1.01,0.05v1.04
					H471.79z M477.86,306.56h4.4l-2.19-5.49h-0.03L477.86,306.56z M493.5,313.14l0.56-0.03c1.65-0.1,2.13-0.54,2.51-3.76l1.09-9.4
					c0.12-0.97-0.13-1.27-1.01-1.34l-1.68-0.12v-1.04h5.95c0.28,0.92,0.66,2.01,1.68,4.31l2.64,5.94h0.03l4.31-10.24h5.49v1.04
					l-1.45,0.08c-1.02,0.07-1.24,0.3-1.15,1.11l1.22,11.23c0.21,2,0.61,2.08,1.96,2.18l0.66,0.05v1.04h-7.39v-1.04l1.14-0.08
					c0.79-0.05,1.07-0.64,0.94-1.85l-1.11-10.72h-0.03l-4.75,10.87h-0.92l-4.95-10.9h-0.03l-0.99,8.99
					c-0.33,3.04-0.05,3.53,1.25,3.61l1.24,0.08v1.04h-7.21V313.14z M521.52,313.14l0.99-0.03c1.2-0.03,1.4-0.56,1.4-1.88v-10.82
					c0-1.32-0.2-1.85-1.4-1.88l-0.99-0.03v-1.04h9.43c1.44,0,2.29-0.07,2.95-0.2l-0.05,4.12h-1.29v-1.17c0-1.19-0.23-1.34-2.08-1.34
					h-3.89v5.79h3.73c1.07,0,1.15-0.23,1.22-1.12l0.05-0.63h1.17v4.92h-1.17l-0.05-0.63c-0.07-0.89-0.15-1.12-1.22-1.12h-3.73v5.08
					c0,1.37,0.21,1.6,2.61,1.6c3.08,0,3.56-0.21,4.29-2.57l0.18-0.59h1.25l-0.79,4.59h-12.62V313.14z M542.6,300.05
					c-0.86-1.19-1.2-1.4-2.38-1.5l-0.58-0.05v-1.04h4.88c0.63,1.12,1.35,2.24,3.33,4.64l6.1,7.41h0.08l-0.08-8.94
					c-0.02-1.44-0.33-1.95-1.5-2l-1.44-0.07v-1.04h6.89v1.04l-1.09,0.12c-0.97,0.1-1.27,0.54-1.27,2.03l-0.05,9.35
					c-0.02,1.83,0.13,3.41,0.23,4.19h-1.3l-10.38-12.57h-0.03l0.03,9.47c0,1.44,0.33,1.95,1.5,2l1.43,0.07v1.04h-6.89v-1.04
					l1.09-0.12c0.97-0.1,1.25-0.54,1.27-2.03L542.6,300.05z M566.1,313.14l1.32-0.03c1.2-0.03,1.4-0.56,1.4-1.88v-12.35h-2.03
					c-2.23,0-2.64,0.1-3.05,1.73l-0.31,1.24h-1.29l0.56-4.59c0.64,0.13,1.47,0.2,2.9,0.2h9.53c1.44,0,2.26-0.07,2.9-0.2l-0.53,4.59
					h-1.29v-1.24c0-1.72-0.21-1.73-2.42-1.73h-2.29v12.35c0,1.32,0.2,1.85,1.4,1.88l1.32,0.03v1.04h-8.13V313.14z M583.37,309.56
					h1.27l0.3,0.79c0.71,1.98,1.75,2.89,3.3,2.89c2.03,0,3.35-1.11,3.35-2.87c0-1.72-0.94-2.59-3.78-3.86
					c-2.89-1.32-4.09-2.56-4.09-4.85c0-2.62,2.33-4.64,5.66-4.64c1.35,0,2.33,0.33,3.41,0.31l0.46,4.37h-1.29l-0.23-0.91
					c-0.43-1.72-1.24-2.41-2.82-2.41c-1.65,0-2.74,0.99-2.74,2.44c0,1.68,1.22,2.51,3.96,3.76c2.79,1.24,3.83,2.56,3.83,4.83
					c0,3.04-2.57,5.18-5.97,5.18c-1.55,0-3.17-0.43-4.01-1.06L583.37,309.56z"/>
			</g>
		</g>
	</g>
</g>
</svg>
