<?xml version="1.0" encoding="utf-8"?>
<!-- Generator: Adobe Illustrator 27.4.0, SVG Export Plug-In . SVG Version: 6.00 Build 0)  -->
<svg version="1.1" id="Layer_1" xmlns="http://www.w3.org/2000/svg" xmlns:xlink="http://www.w3.org/1999/xlink" x="0px" y="0px"
	 viewBox="0 0 1000 606.06" style="enable-background:new 0 0 1000 606.06;" xml:space="preserve">
<style type="text/css">
	.st0{fill:#716A5D;}
	.st1{fill:#392E37;}
</style>
<rect class="st0" width="1000" height="606.06"/>
<path class="st1" d="M166.71,107.47c-0.64,0-1.28-0.11-2.03-0.21c1.28-2.68,2.78-8.13,2.78-13.06c0-14.77-11.02-24.51-24.29-24.51
	c-18.3,0-28.46,18.73-28.46,35.42c0,30.39,24.29,42.16,48.8,45.59c13.8-33.28,40.98-87.64,82.5-87.64c8.45,0,19.58,3.42,19.58,13.8
	c0,15.94-14.98,19.26-27.18,20.55c-7.17,0.86-14.55,1.71-20.65,6.21c-12.2,9.42-18.83,29.64-20.76,48.69h-0.11
	c7.7,0.21,15.2,0.54,21.72,0.96c-1.28-2.68-1.5-6.1-1.5-9.31c0-16.91,14.77-28.57,30.6-28.57s27.07,11.24,27.07,27.72
	c0,15.3-11.88,28.04-24.83,33.92h0.11l-0.11,0.32h-0.11c5.89,3.96,8.99,10.06,8.99,17.01c0,17.34-14.98,30.82-35.53,30.82
	c-25.47,0-36.38-28.36-36.38-53.5c0-4.39,0.11-8.77,0.64-13.06h0.21c-3.32-0.11-6.74-0.21-10.17-0.32c-3.32,0-6.53-0.11-9.84-0.21
	c-1.07,2.68-2.25,5.35-3.32,7.81c-1.82,4.6-3.53,8.67-5.14,12.31c-0.43,1.07-0.96,2.03-1.39,3.1
	c-9.52,20.44-21.94,43.87-46.76,43.87c-17.98,0-29.43-12.09-29.43-27.93c0-18.83,16.37-33.28,28.57-33.28
	c3.75,0,5.14,1.18,5.14,3.32c0,0.54-0.11,1.07-0.21,1.61c-14.13,0.64-23.65,11.77-23.65,24.51c0,13.7,11.13,23.76,23.86,23.76
	c18.94,0,27.72-19.9,34.35-34.99c0.86-1.71,1.5-3.32,2.14-4.82c2.14-4.49,3.96-8.88,5.78-13.06c0.96-2.25,1.82-4.39,2.78-6.53h0.21
	c-27.29-2.14-55.65-15.3-55.65-48.26c0-23.97,20.33-46.44,43.66-46.44c15.73,0,28.36,10.06,28.36,26.54
	C177.09,99.87,172.38,107.47,166.71,107.47z M170.35,151.35c2.46,0.21,5.03,0.32,7.38,0.32c1.61,0,3.21,0.11,4.82,0.21
	c1.93,0.11,3.75,0.11,5.78,0.21c4.82-29.96,18.73-58.11,50.83-60.25c9.84-0.75,16.69-3.1,16.69-11.24c0-8.77-8.67-10.91-15.84-10.91
	c-31.78,0-54.36,46.01-69.45,81.65H170.35z M241.61,173.82l1.18,0.11h0.75c12.52,0,21.62-14.45,21.62-26.43
	c0-15.2-9.1-26.65-21.19-26.65c-11.45,0-19.26,8.77-19.26,19.15c0,4.82,2.35,12.31,5.14,14.45c0,4.92-3.53,6.42-7.7,6.42
	c-8.56-0.96-17.01-1.5-25.47-1.93v4.17c0,28.36,10.7,55.54,33.82,55.54c13.16,0,18.62-8.67,18.62-19.8
	c0-10.59-5.99-16.37-15.2-18.83c-0.32,0-0.75-0.21-1.07-0.21C233.8,176.07,238.08,173.82,241.61,173.82z M388.65,140.43
	c1.71-1.39,3.32-2.03,4.82-2.03c3.42,0,5.56,2.46,5.56,7.92c0,14.02-13.48,23.44-27.5,23.44c-12.2,0-23.97-8.13-23.97-21.72
	c0-8.45,5.03-15.84,12.2-20.33c-8.35-3.53-14.98-12.31-14.98-21.62c0-28.04,32.1-43.34,66.35-43.34c12.63,0,27.82,3.1,40.24,9.52
	c8.99-6.85,18.62-10.49,28.46-10.49c11.77,0,22.37,6.96,22.37,18.62c0,9.52-6.96,13.48-11.02,13.48c-0.54,0-1.18-0.11-1.61-0.21
	c1.93-2.35,3.42-7.28,3.42-10.27c0-11.13-8.56-15.84-18.3-15.84c-7.06,0-13.27,2.78-18.83,7.38c12.63,8.13,21.94,20.55,21.94,38.2
	c0,14.02-10.59,27.29-26.86,33.92v0.21h-0.11c19.37,2.25,32.53,16.69,32.53,35.63c0,24.83-21.94,43.34-48.26,43.34
	c-17.55,0-32.32-8.13-45.59-15.73c-7.7,8.56-17.98,15.73-29.53,15.73c-8.56,0-20.65-4.28-20.65-14.98
	c0-12.63,14.13-19.15,24.72-19.15c8.35,0,16.69,3.75,25.47,8.56c8.35-14.87,14.55-35.63,19.05-51.15
	c7.28-24.83,17.98-52.11,35.74-70.63c-11.88-6.21-26.43-9.2-39.7-9.2c-28.79,0-51.26,10.49-51.26,32.21
	c0,10.49,9.63,21.19,19.69,21.51c0.32,0,0.64,0,0.96-0.11h0.96c0,4.17-4.49,5.89-7.81,5.89c-0.75,0-1.28,0-1.82-0.11
	c-5.78,0.96-9.2,9.1-9.2,14.55c0,12.2,10.06,20.33,21.19,20.33c9.31,0,13.16-5.56,13.16-15.2
	C390.47,147.49,390.04,143.43,388.65,140.43z M385.01,207.85c-9.52-5.46-18.41-9.95-26.75-9.95c-6.31,0-10.38,1.82-10.38,9.31
	c0,9.1,10.06,13.27,17.44,13.27c7.6,0,13.91-4.92,19.58-12.63H385.01z M394.75,203.57c13.7,7.92,28.46,16.91,45.16,16.91
	c20.12,0,33.6-12.95,33.6-33.39c0-19.15-13.48-33.92-32.64-33.92c-2.57,0-4.92,0.54-7.7,1.18l-1.28,0.21v-0.43
	c0-2.03,1.5-4.07,4.28-5.03c12.31-4.6,31.46-13.16,31.46-35.74c0-14.13-7.7-24.51-18.62-31.67c-10.7,12.52-18.3,30.93-23.01,43.55
	c-2.89,7.92-5.24,15.73-7.81,23.33c-5.67,18.3-11.24,35.96-22.47,53.5c-0.21,0.54-0.54,0.96-0.86,1.5H394.75z M601.61,68.84
	c4.6,0,6.63,3.1,6.63,5.78c0,0.86-0.21,1.71-0.64,2.35c-2.14-0.54-4.17-0.86-6.21-0.86c-13.06,0-25.68,11.56-25.68,29.64
	c0,9.74,3.85,17.87,10.91,22.69c13.91-35.74,46.76-66.77,84.75-66.77c19.58,0,31.03,8.77,31.03,24.18
	c0,16.69-13.91,28.04-29.75,28.04c-7.81,0-16.37-3-23.76-9.1c-7.92,23.44-28.57,35.96-46.01,35.96c-3,0-6.1-0.32-8.88-0.96
	c-1.61,7.38-2.46,14.98-2.46,22.15c0,35.1,18.83,55.32,45.37,55.32c17.12,0,29.32-8.56,40.24-30.93c1.39-3,5.14-5.99,8.45-5.99
	c1.07,0,2.03,0.32,2.89,0.96c-12.63,27.29-34.35,43.87-57.89,43.87c-29.32,0-50.94-24.4-50.94-59.93c0-9.74,1.5-19.69,4.39-29.32
	h0.11c-10.27-5.56-17.34-16.05-17.34-28.68C566.83,85.75,586.84,68.84,601.61,68.84z M595.62,132.83c3,0.86,6.42,1.28,9.95,1.28
	c20.12,0,33.92-18.51,36.6-37.99c0.43-2.46,5.56-5.67,9.2-5.67c1.28,5.03,7.92,18.94,24.51,18.94c10.38,0,16.69-8.45,16.69-18.94
	c0-14.13-9.63-22.69-25.79-22.69c-35.42,0-61.32,31.14-71.05,65.06H595.62z M847.95,61.78c14.13,0,27.29,3.53,38.42,9.63
	c8.67-5.89,18.94-9.74,30.39-9.74c13.06,0,24.61,8.56,24.61,23.54c0,12.95-7.81,23.01-18.08,28.68h0.11
	c4.17,10.7,6.42,22.58,6.42,34.99c0,39.38-25.9,76.3-62.49,76.3c-19.26,0-36.06-8.56-50.08-16.05
	c-8.67,9.52-19.05,16.05-30.93,16.05c-11.13,0-19.37-6.31-19.37-14.98c0-12.95,14.87-19.8,25.58-19.8c8.13,0,16.37,3.64,25.25,8.35
	c8.67-14.23,15.84-33.6,22.26-50.72c-3.96,0.75-7.7,1.28-11.66,1.28c-21.4,0-44.73-9.84-44.73-35.85
	C783.64,85.75,813.28,61.78,847.95,61.78z M812.42,206.56c-9.84-5.14-18.62-9.52-26.43-9.52c-7.06,0-9.31,3.32-9.31,8.45
	c0,8.88,8.77,13.16,16.37,13.16c8.56,0,14.23-5.46,19.26-12.09H812.42z M793.48,108.86c0,23.11,18.19,35.21,37.56,35.21
	c3.85,0,7.49-0.32,11.02-1.07h-0.21c8.56-23.11,18.83-48.05,36.7-65.06c-10.49-6.1-22.69-9.52-35.53-9.52
	C813.49,68.41,793.48,84.79,793.48,108.86z M850.3,145.03h0.11c-6.53,17.12-15.09,39.59-27.18,56.61h-0.11l2.25,1.28
	c13.59,7.49,28.57,15.73,46.23,15.73c31.35,0,48.37-31.67,48.37-64.96c0-12.52-2.57-24.83-7.17-35.85c-3,0.64-5.99,1.07-9.2,1.07
	c-6.74,0-14.98-1.28-20.65-4.39C877.81,128.98,864.54,139.58,850.3,145.03z M875.88,109.83c0.54-3.32,4.92-5.35,8.13-5.35
	c5.35,4.92,16.69,8.99,24.93,8.99c0.43,0,0.75,0,1.07-0.11h0.86c-6.53-13.16-15.84-24.29-27.29-32.32
	c-14.13,15.09-23.86,39.38-31.35,58.86C864.22,134.65,872.88,124.7,875.88,109.83z M921.36,109.93
	c6.31-3.96,10.17-11.34,10.17-20.01c0-13.16-9.74-21.62-21.19-21.62c-6.53,0-12.84,1.82-19.05,6.1
	c13.06,8.45,23.65,20.87,30.18,35.42L921.36,109.93z"/>
<path class="st1" d="M220.75,504.59c1.39-2.78,5.03-4.92,7.7-4.92c0.96,0,1.93,0.21,2.46,0.75c-13.16,27.93-31.35,41.09-56.39,41.09
	c-22.69,0-42.27-14.34-42.27-40.02c0-20.33,19.37-39.38,45.69-44.94h-0.11c-5.46-3.53-10.7-7.92-14.45-13.48
	c-2.57,0.43-5.14,0.54-7.6,0.54c-21.4,0-31.57-14.34-31.57-29.11c0-15.73,14.87-31.57,29.32-31.57c5.46,0,7.38,1.93,7.38,3.96
	c0,1.07-0.54,2.14-1.5,3c-2.14-0.64-4.28-0.96-6.31-0.96c-10.27,0-19.58,7.92-19.58,21.83c0,16.8,11.56,26.65,26.86,26.75
	c-1.61-3.85-2.57-8.35-2.57-13.16c0-25.9,22.47-47.51,51.26-47.51c16.05,0,30.18,7.17,30.18,18.83c0,15.73-13.91,25.58-28.89,25.58
	c-4.39,0-8.45-1.07-12.52-2.78c-4.07,9.52-12.95,17.34-23.22,21.4c4.82,5.99,11.45,10.81,20.33,14.13c0,5.99-7.28,7.06-11.77,7.49
	c-20.44,1.18-39.17,13.27-39.17,36.81c0,22.37,15.41,36.49,37.13,36.49C199.02,534.77,211.12,525.35,220.75,504.59z M171.52,435.68
	c10.06-3.32,18.73-10.59,18.73-21.51c0-4.28,3.64-6.74,7.81-7.7l0.86,0.96c3.64,3.96,7.6,8.24,16.8,8.24c8.67,0,13.7-7.81,13.7-15.3
	c0-10.38-8.99-18.73-23.54-18.73c-22.9,0-38.2,18.08-38.2,37.56c0,5.99,1.39,11.45,4.07,16.37L171.52,435.68z M303.79,512.73
	c0-18.83,16.27-33.28,28.46-33.28c3.75,0,5.14,1.28,5.14,3.42c0,0.43,0,0.96-0.11,1.5c-14.23,0.64-23.65,11.77-23.65,24.51
	c0,13.7,10.38,24.51,22.79,24.51c16.48,0,24.61-13.59,32.21-40.56c0.43-1.28,0.75-2.57,1.18-3.96c1.28-4.92,2.78-10.17,4.39-15.2
	h0.21c-12.95-3-24.83-10.38-24.83-26.22c0-4.07,1.28-9.31,3.42-12.73h0.11l-0.21-0.11c-4.82,2.35-10.27,4.07-15.73,4.07
	c-13.7,0-24.18-12.2-24.18-25.9c0-20.44,22.58-33.6,40.24-33.6c13.7,0,26.65,5.24,40.24,10.7c6.21,2.57,12.41,5.03,19.15,7.28
	c11.13-11.24,25.58-20.01,40.88-20.01c9.1,0,17.01,5.46,17.01,11.66c0,15.09-19.8,20.65-31.57,20.65c-8.88,0-17.34-1.18-25.47-3.32
	c-12.73,18.62-20.97,41.41-28.14,63.46h-0.11c2.78,0.43,5.67,0.75,8.45,0.75c0.86,0,1.71-0.11,2.89-0.21c0.75,0,1.39-0.11,2.25-0.11
	h-0.21c7.6-17.01,18.73-31.46,32.75-31.46c6.21,0,11.24,4.39,11.24,10.81c0,2.35-0.75,4.6-1.71,6.63
	c-6.1,11.88-22.15,16.91-36.49,18.73h0.21c-2.03,6.31-4.07,13.59-6.1,21.94c-0.75,3.42-6.53,4.6-9.42,4.6
	c1.5-7.92,3.96-17.12,7.38-25.9c-1.61,0.11-3.42,0.11-4.92,0.11c-2.68,0-5.14-0.11-8.03-0.32c-0.96,3.21-2.14,6.63-3.21,9.84
	c-6.31,22.58-20.65,55.65-48.05,55.65C315.14,540.66,303.79,528.56,303.79,512.73z M376.03,467.46
	c6.63-20.76,16.27-46.44,30.28-63.24c-8.03-2.46-15.73-5.46-23.01-8.35c-13.16-5.24-25.25-10.06-36.7-10.06
	c-12.63,0-23.86,7.81-23.86,22.04c0,12.09,9.31,23.97,21.19,23.97c6.1,0,10.7-2.57,14.02-5.24c2.35-1.82,4.82-2.78,6.53-2.78
	c0.86,0,1.61,0.21,2.03,0.75c0,0.11-0.43,0.86-1.18,1.93c-1.93,3.42-5.89,10.27-5.89,16.27c0,13.48,7.28,20.87,16.59,24.61V467.46z
	 M432.63,452.8c0-4.07-2.46-7.92-7.49-7.92c-6.74,0-12.95,8.77-18.62,24.4C418.29,467.36,432.63,462.75,432.63,452.8z
	 M445.05,402.83c9.63,0,15.62-2.46,15.62-9.2c0-5.14-6.53-9.74-13.8-9.74c-11.66,0-20.76,6.21-28.04,15.09
	C427.07,401.33,435.52,402.83,445.05,402.83z M628.36,433.01c-8.45,0-17.44-1.18-25.36-8.03c-7.06,20.12-23.76,32.85-39.38,35.53
	h0.21c4.28,21.83,20.44,39.59,46.23,39.59c2.89,0,5.78-0.21,8.45-0.64h-0.21c0.11-0.32,0.11-0.64,0.21-0.96
	c0.11-0.21,0.21-0.54,0.21-0.86c0.54-2.14,0.96-4.17,1.39-6.21c2.78-12.95,5.24-23.97,12.09-34.46c4.92-7.6,10.49-10.7,19.05-10.7
	c5.03,0,10.38,3,10.38,12.2c0,18.08-14.02,36.49-34.99,44.3h0.11c-7.06,22.26-24.72,37.88-48.15,37.88
	c-21.62,0-33.17-13.27-33.17-26.86c0-11.99,6.63-16.69,10.49-16.69c1.07,0,2.03,0.32,2.46,1.07c-1.28,1.39-3,6.31-3,10.59
	c0,15.2,11.02,25.36,28.57,25.36c17.23,0,27.29-12.73,32.53-28.57c-4.07,0.75-8.03,1.28-12.31,1.28
	c-29.75,0-47.94-20.55-51.04-45.91h0.21c-17.87-1.61-32.42-15.3-32.42-33.39c0-21.51,20.12-38.42,34.78-38.42
	c4.6,0,6.74,3.1,6.74,5.78c0,0.86-0.21,1.71-0.64,2.35c-2.14-0.54-4.17-0.86-6.21-0.86c-13.06,0-25.68,11.56-25.68,29.64
	c0,14.13,8.88,24.61,22.69,27.61v-0.64c0-42.38,32.96-75.87,71.38-75.87c18.94,0,34.78,9.63,34.78,29
	C658.75,422.3,643.56,433.01,628.36,433.01z M596.37,416.42c0.43-2.35,5.56-5.67,9.1-5.67c1.28,5.14,8.03,17.87,24.51,17.87
	c10.49,0,18.83-7.28,18.94-17.87v-0.21c0-18.83-15.09-26.75-28.57-26.75c-36.17,0-57.79,29.64-57.79,64.53
	c0,2.14,0.11,4.17,0.32,6.21C584.38,453.55,593.05,435.57,596.37,416.42z M652.76,461.26c0-6.96-2.68-9.52-7.06-9.52
	c-9.42,0-13.91,26.11-16.27,39.49c-0.43,2.25-0.75,4.07-1.07,5.46C643.34,490.58,652.76,477.09,652.76,461.26z M747.79,474.95
	c2.57,1.5,6.53,3,9.52,3h0.43c0.96,0,2.57,0.11,2.57,1.07c0,2.25-5.35,4.82-7.38,4.82c-14.23,0-25.68-11.56-25.68-26.32
	c0-19.58,17.66-32.85,35.31-32.85c14.23,0,26.22,7.81,37.13,16.8c5.56-14.66,11.88-28.89,20.65-40.98
	c8.88-12.09,21.83-23.22,37.35-23.22c12.63,0,21.83,8.03,21.83,21.51c0,17.01-15.62,27.72-29.32,32.85
	c7.49,2.35,13.16,8.67,13.16,17.12c0,15.09-16.05,23.97-29,23.97c-11.34,0-21.62-7.92-32.1-16.8c-4.39,12.84-8.88,25.68-13.91,38.31
	c-3.1,7.6-6.63,16.16-11.13,23.86c0.43,0.21,0.75,0.43,1.18,0.64c16.48,8.99,31.46,17.23,50.83,17.23c21.19,0,32-10.27,32-32v-2.46
	l0.11-0.32c0-0.32,0.11-0.64,0.32-1.07c1.18-1.61,4.92-3.53,6.96-3.53c1.28,0,1.39,0.75,1.39,1.71v1.61
	c0,28.04-21.72,41.84-46.66,41.84c-18.08,0-35.31-7.28-50.72-16.59c-7.06,9.63-16.27,16.59-28.79,16.59
	c-9.2,0-20.33-4.6-20.33-15.73c0-11.99,14.77-18.41,24.83-18.41c8.24,0,16.27,3.75,23.44,7.6c8.45-16.91,16.48-40.34,20.44-52.33
	c1.39-3.96,2.78-8.03,4.17-12.09c-11.99-10.38-24.61-20.33-39.7-20.33c-13.27,0-20.76,9.95-20.76,23.11
	C735.91,462.43,740.41,470.57,747.79,474.95z M742.44,513.37c-5.89,0-10.17,1.82-10.17,8.56c0,9.74,9.63,14.02,17.44,14.02
	c9.63,0,13.48-5.89,18.08-13.48C759.56,517.97,750.36,513.37,742.44,513.37z M807.61,448.2c11.24,9.74,21.72,18.73,32.64,18.73
	c8.88,0,14.34-4.82,14.34-14.23c0-10.92-9.52-16.59-18.94-16.59c-0.64,0-1.39,0-2.25,0.11c-0.75,0-1.39,0.11-2.14,0.11
	c-0.75,0-1.39-0.21-1.39-0.96c0-3,6.1-4.71,8.56-5.14c0.32,0,0.64,0,1.07-0.11c14.34-3,31.35-9.2,31.35-27.39
	c0-12.09-7.81-19.69-19.05-19.69c-3.53,0-7.17,0.86-10.38,2.68c-16.05,8.88-28.46,39.91-35.96,60.67
	C806.22,447.02,806.97,447.56,807.61,448.2z"/>
<path class="st1" d="M364.97,313.14l1.32-0.03c1.2-0.03,1.4-0.56,1.4-1.88v-12.35h-2.03c-2.23,0-2.64,0.1-3.05,1.73l-0.31,1.24
	h-1.29l0.56-4.59c0.64,0.13,1.47,0.2,2.9,0.2h9.53c1.44,0,2.26-0.07,2.9-0.2l-0.53,4.59h-1.29v-1.24c0-1.72-0.21-1.73-2.42-1.73
	h-2.29v12.35c0,1.32,0.2,1.85,1.4,1.88l1.32,0.03v1.04h-8.13V313.14z M382.02,313.14l0.99-0.03c1.2-0.03,1.4-0.56,1.4-1.88v-10.82
	c0-1.32-0.2-1.85-1.4-1.88l-0.99-0.03v-1.04h7.47v1.04l-0.99,0.03c-1.2,0.03-1.4,0.56-1.4,1.88v10.82c0,1.32,0.2,1.85,1.4,1.88
	l0.99,0.03v1.04h-7.47V313.14z M398.53,313.14l1.32-0.03c1.2-0.03,1.4-0.56,1.4-1.88v-12.35h-2.03c-2.23,0-2.64,0.1-3.05,1.73
	l-0.31,1.24h-1.29l0.56-4.59c0.64,0.13,1.47,0.2,2.9,0.2h9.53c1.44,0,2.26-0.07,2.9-0.2l-0.53,4.59h-1.29v-1.24
	c0-1.72-0.21-1.73-2.42-1.73h-2.29v12.35c0,1.32,0.2,1.85,1.4,1.88l1.32,0.03v1.04h-8.13V313.14z M415.73,313.14l0.99-0.03
	c1.2-0.03,1.4-0.56,1.4-1.88v-10.82c0-1.32-0.2-1.85-1.4-1.88l-0.99-0.03v-1.04h7.47v1.04l-0.99,0.03c-1.2,0.03-1.4,0.56-1.4,1.88
	v10.54c0,1.53,0.4,1.81,2.61,1.81c3.43,0,3.71-0.69,4.31-2.54l0.21-0.66h1.29l-0.89,4.62h-12.6V313.14z M434.55,313.14l0.99-0.03
	c1.2-0.03,1.4-0.56,1.4-1.88v-10.82c0-1.32-0.2-1.85-1.4-1.88l-0.99-0.03v-1.04h7.47v1.04l-0.99,0.03c-1.2,0.03-1.4,0.56-1.4,1.88
	v10.82c0,1.32,0.2,1.85,1.4,1.88l0.99,0.03v1.04h-7.47V313.14z M450.21,300.05c-0.86-1.19-1.2-1.4-2.38-1.5l-0.58-0.05v-1.04h4.88
	c0.63,1.12,1.35,2.24,3.33,4.64l6.1,7.41h0.08l-0.08-8.94c-0.02-1.44-0.33-1.95-1.5-2l-1.44-0.07v-1.04h6.89v1.04l-1.09,0.12
	c-0.97,0.1-1.27,0.54-1.27,2.03l-0.05,9.35c-0.02,1.83,0.13,3.41,0.23,4.19h-1.3l-10.38-12.57h-0.03l0.03,9.47
	c0,1.44,0.33,1.95,1.5,2l1.44,0.07v1.04h-6.89v-1.04l1.09-0.12c0.97-0.1,1.25-0.54,1.27-2.03L450.21,300.05z M470.51,306.33
	c0-5.53,3.86-9.3,10.05-9.3c1.96,0,3.02,0.4,4.55,0.4l0.66,4.49h-1.29l-0.38-0.94c-0.78-1.88-1.81-2.66-4.04-2.66
	c-4.59,0-6.55,3.4-6.55,7.62c0,4.32,2.06,7.39,7.22,7.39c2.18,0,2.57-0.58,2.57-2.09v-2.52c0-1.12-0.23-1.2-1.27-1.19l-3.2,0.07
	v-1.35h7.31c-0.25,1.57-0.38,2.69-0.38,4.32v3.15c-2.33,0.66-3.88,0.91-5.71,0.91C473.56,314.61,470.51,311.49,470.51,306.33z
	 M502.83,313.14l0.99-0.03c1.2-0.03,1.4-0.56,1.4-1.88v-10.82c0-1.32-0.2-1.85-1.4-1.88l-0.99-0.03v-1.04h7.47v1.04l-0.99,0.03
	c-1.2,0.03-1.4,0.56-1.4,1.88v10.82c0,1.32,0.2,1.85,1.4,1.88l0.99,0.03v1.04h-7.47V313.14z M518.49,300.05
	c-0.86-1.19-1.2-1.4-2.38-1.5l-0.58-0.05v-1.04h4.88c0.63,1.12,1.35,2.24,3.33,4.64l6.1,7.41h0.08l-0.08-8.94
	c-0.02-1.44-0.33-1.95-1.5-2l-1.44-0.07v-1.04h6.89v1.04l-1.09,0.12c-0.97,0.1-1.27,0.54-1.27,2.03l-0.05,9.35
	c-0.02,1.83,0.13,3.41,0.23,4.19h-1.3l-10.38-12.57h-0.03l0.03,9.47c0,1.44,0.33,1.95,1.5,2l1.44,0.07v1.04H516v-1.04l1.09-0.12
	c0.97-0.1,1.25-0.54,1.27-2.03L518.49,300.05z M539.1,313.14l0.99-0.03c1.2-0.03,1.4-0.56,1.4-1.88v-10.82c0-1.32-0.2-1.85-1.4-1.88
	l-0.99-0.03v-1.04h7.47v1.04l-0.99,0.03c-1.2,0.03-1.4,0.56-1.4,1.88v10.82c0,1.32,0.2,1.85,1.4,1.88l0.99,0.03v1.04h-7.47V313.14z
	 M555.61,313.14l1.32-0.03c1.2-0.03,1.4-0.56,1.4-1.88v-12.35h-2.03c-2.23,0-2.64,0.1-3.05,1.73l-0.31,1.24h-1.29l0.56-4.59
	c0.64,0.13,1.47,0.2,2.9,0.2h9.53c1.43,0,2.26-0.07,2.9-0.2l-0.53,4.59h-1.29v-1.24c0-1.72-0.21-1.73-2.42-1.73h-2.29v12.35
	c0,1.32,0.2,1.85,1.4,1.88l1.32,0.03v1.04h-8.13V313.14z M572.66,313.14l0.99-0.03c1.2-0.03,1.4-0.56,1.4-1.88v-10.82
	c0-1.32-0.2-1.85-1.4-1.88l-0.99-0.03v-1.04h7.47v1.04l-0.99,0.03c-1.2,0.03-1.4,0.56-1.4,1.88v10.82c0,1.32,0.2,1.85,1.4,1.88
	l0.99,0.03v1.04h-7.47V313.14z M585.08,314.18v-1.04l0.48-0.07c0.97-0.13,1.7-0.97,2.57-3.04l5.31-12.67h1.19l5.54,13.58
	c0.71,1.73,1.39,2.11,2.23,2.16l0.54,0.03v1.04h-7.54v-1.04l1.44-0.12c0.94-0.08,1.04-0.64,0.68-1.57l-1.45-3.63h-5.43
	c-0.91,2.26-1.29,3.36-1.29,4.04c0,0.78,0.41,1.15,1.7,1.22l1.01,0.05v1.04H585.08z M591.15,306.56h4.4l-2.19-5.49h-0.03
	L591.15,306.56z M608.05,313.14l0.99-0.03c1.2-0.03,1.4-0.56,1.4-1.88v-10.82c0-1.32-0.2-1.85-1.4-1.88l-0.99-0.03v-1.04h7.47v1.04
	l-0.99,0.03c-1.2,0.03-1.4,0.56-1.4,1.88v10.54c0,1.53,0.4,1.81,2.61,1.81c3.43,0,3.71-0.69,4.31-2.54l0.21-0.66h1.29l-0.89,4.62
	h-12.6V313.14z M627.11,309.56h1.27l0.3,0.79c0.71,1.98,1.75,2.89,3.3,2.89c2.03,0,3.35-1.11,3.35-2.87c0-1.72-0.94-2.59-3.78-3.86
	c-2.89-1.32-4.09-2.56-4.09-4.85c0-2.62,2.33-4.64,5.66-4.64c1.35,0,2.33,0.33,3.41,0.31l0.46,4.37h-1.29l-0.23-0.91
	c-0.43-1.72-1.24-2.41-2.82-2.41c-1.65,0-2.74,0.99-2.74,2.44c0,1.68,1.22,2.51,3.96,3.76c2.79,1.24,3.83,2.56,3.83,4.83
	c0,3.04-2.57,5.18-5.97,5.18c-1.55,0-3.17-0.43-4.01-1.06L627.11,309.56z"/>
</svg>
