<?xml version="1.0" encoding="utf-8"?>
<!-- Generator: Adobe Illustrator 27.4.0, SVG Export Plug-In . SVG Version: 6.00 Build 0)  -->
<svg version="1.1" id="Layer_1" xmlns="http://www.w3.org/2000/svg" xmlns:xlink="http://www.w3.org/1999/xlink" x="0px" y="0px"
	 viewBox="0 0 1000 606.06" style="enable-background:new 0 0 1000 606.06;" xml:space="preserve">
<style type="text/css">
	.st0{fill:#1D1D1B;}
	.st1{fill:#EDEDED;}
</style>
<rect x="0.24" y="0" class="st0" width="1000" height="606.06"/>
<g>
	<path class="st1" d="M89.67,129.19l6.26-0.26c6.06-0.26,7.04-2.8,7.04-9.39V56.75H92.28c-12.06,0-14.15,1.43-16.43,9.98l-1.43,5.41
		H69.2l2.74-22.04c3.06,0.65,7.24,1.04,14.41,1.04h46.49c7.17,0,11.41-0.39,14.47-1.04l-2.74,22.04h-5.22l0.06-5.67
		c0.13-8.93-0.78-9.71-12.65-9.71h-12.45v62.79c0,6.59,0.98,9.13,7.04,9.39l6.26,0.26v4.37H89.67V129.19z"/>
	<path class="st1" d="M171.11,101.87c-3.85,9.78-6.78,17.67-6.78,21.39c0,3.2,2.41,5.02,7.04,5.41l6.32,0.52v4.37h-35.34v-4.37
		l2.02-0.13c7.24-0.46,10.04-3.33,15.45-16.37l25.82-62.2h4.76l28.1,68.46c2.93,7.11,5.87,9.78,11.54,10.11l2.09,0.13v4.37H196.8
		v-4.37l6-0.46c6.52-0.52,6.78-2.28,4.24-8.41l-7.56-18.45H171.11z M197.19,96.26L185.07,66.6h-0.13l-11.61,29.67H197.19z"/>
	<path class="st1" d="M247.34,129.19l6.26-0.26c6.06-0.26,7.04-2.8,7.04-9.39V56.75h-10.69c-12.06,0-14.15,1.43-16.43,9.98
		l-1.43,5.41h-5.22l2.74-22.04c3.06,0.65,7.24,1.04,14.41,1.04h46.49c7.17,0,11.41-0.39,14.47-1.04l-2.74,22.04h-5.21l0.06-5.67
		c0.13-8.93-0.78-9.71-12.65-9.71h-12.45v62.79c0,6.59,0.98,9.13,7.04,9.39l6.26,0.26v4.37h-37.95V129.19z"/>
	<path class="st1" d="M313.07,129.19l4.96-0.2c6.06-0.26,7.04-2.8,7.04-9.39V65.1c0-6.58-0.98-9.13-7.04-9.39l-4.96-0.2v-4.37h46.29
		c7.24,0,11.21-0.39,14.47-1.04l-0.33,21h-5.54v-5.35c0-7.56-1.7-9-11.34-9h-20.21V87.2h17.73c6.65,0,7.56-0.39,7.96-6.46l0.2-2.87
		h4.89v24.25h-4.89l-0.2-2.87c-0.39-6.06-1.3-6.46-7.96-6.46h-17.73v27.38c0,6.98,0.98,7.76,13.43,7.76
		c15.65,0,17.8-1.89,22.3-14.21l0.98-2.67h5.22l-4.37,22.49h-60.9V129.19z"/>
	<path class="st1" d="M414.26,133.56v-4.37l4.96-0.2c6.06-0.26,7.04-2.8,7.04-9.39V65.1c0-6.58-0.98-9.13-7.04-9.39l-4.96-0.2v-4.37
		h38.53c13.43,0,21.58,6.26,21.58,16.89c0,9.26-6.33,17.54-17.87,20.47v0.13c17.02,2.35,24.78,9.85,24.78,22.1
		c0,14.34-10.43,22.82-38.47,22.82H414.26z M437.61,87.26c3.32,0.07,7.11,0.2,10.95,0.2c5.15,0,14.61-3.78,14.61-17.21
		c0-10.69-6.91-14.41-25.56-13.56V87.26z M437.61,117.71c0,8.08,1.63,10.3,10.95,10.3c13.56,0,21-5.87,21-16.17
		c0-11.61-9.32-18.84-23.47-18.84c-2.02,0-5.61-0.07-8.48,0.26V117.71z"/>
	<path class="st1" d="M493.42,133.56v-4.37l4.96-0.2c6.06-0.26,7.04-2.8,7.04-9.39V65.1c0-6.58-0.98-9.13-7.04-9.39l-4.96-0.2v-4.37
		h35.01c19.43,0,27.32,6,27.32,18.52c0,10.11-5.74,17.41-17.86,22.75l8.35,10.76c14.02,18.13,20.54,24.19,27.19,25.56l2.48,0.52
		l-0.46,4.3h-13.5c-5.09,0-7.63-1.63-17.61-14.87l-16.04-21.32c-1.37-1.76-2.35-2.22-4.5-2.22h-7.04v24.45
		c0,6.58,0.98,9.13,7.04,9.39l4.96,0.2v4.37H493.42z M516.76,89.42c3.85,0.13,7.5,0.26,11.28,0.26c10.3,0,16.24-7.5,16.24-17.8
		c0-13.82-11.67-15.52-27.52-14.93V89.42z"/>
	<path class="st1" d="M583.41,129.19l4.96-0.2c6.06-0.26,7.04-2.8,7.04-9.39V65.1c0-6.58-0.98-9.13-7.04-9.39l-4.96-0.2v-4.37h35.34
		v4.37l-4.96,0.2c-6.06,0.26-7.04,2.8-7.04,9.39v54.51c0,6.58,0.98,9.13,7.04,9.39l4.96,0.2v4.37h-35.34V129.19z"/>
	<path class="st1" d="M647.5,129.19l6.26-0.26c6.06-0.26,7.04-2.8,7.04-9.39V56.75h-10.69c-12.06,0-14.15,1.43-16.43,9.98
		l-1.43,5.41h-5.22l2.74-22.04c3.06,0.65,7.24,1.04,14.41,1.04h46.49c7.17,0,11.41-0.39,14.47-1.04l-2.74,22.04h-5.22l0.06-5.67
		c0.13-8.93-0.78-9.71-12.65-9.71h-12.45v62.79c0,6.59,0.98,9.13,7.04,9.39l6.26,0.26v4.37H647.5V129.19z"/>
	<path class="st1" d="M728.81,101.87c-3.85,9.78-6.78,17.67-6.78,21.39c0,3.2,2.41,5.02,7.04,5.41l6.32,0.52v4.37h-35.34v-4.37
		l2.02-0.13c7.24-0.46,10.04-3.33,15.45-16.37l25.82-62.2h4.76l28.1,68.46c2.93,7.11,5.87,9.78,11.54,10.11l2.09,0.13v4.37H754.5
		v-4.37l6-0.46c6.52-0.52,6.78-2.28,4.24-8.41l-7.56-18.45H728.81z M754.89,96.26L742.76,66.6h-0.13l-11.61,29.67H754.89z"/>
	<path class="st1" d="M796.49,129.19l4.96-0.2c6.06-0.26,7.04-2.8,7.04-9.39V65.1c0-6.58-0.98-9.13-7.04-9.39l-4.96-0.2v-4.37h35.34
		v4.37l-4.96,0.2c-6.06,0.26-7.04,2.8-7.04,9.39v54.51c0,6.58,0.98,9.13,7.04,9.39l4.96,0.2v4.37h-35.34V129.19z"/>
	<path class="st1" d="M842.53,129.19l4.24-0.2c5.67-0.26,8.08-2.22,8.28-11.15l1.04-54.31l-1.56-2.09c-3-3.98-8.02-5.87-12.65-5.87
		h-1.3v-4.43h22.49c2.09,3.78,4.83,7.69,13.63,18.26l35.73,42.84h0.13l-0.52-46.16c-0.07-7.43-1.11-10.04-7.89-10.3l-6.85-0.26
		v-4.37h34.1v4.37l-4.24,0.2c-5.67,0.26-8.21,2.22-8.28,11.15l-0.26,38.92c-0.13,14.67,0.39,21.12,1.24,27.78h-5.48l-52.49-63.83
		h-0.13l0.13,48.9c0,7.43,1.11,10.04,7.89,10.3l6.85,0.26v4.37h-34.1V129.19z"/>
</g>
<g>
	<path class="st1" d="M47.55,236.13L49.9,236c8.35-0.46,10.69-3.39,12.65-20.21l5.22-44.53c0.91-7.56-1.56-7.89-7.3-8.35l-6.06-0.46
		v-4.37H81c1.96,6.39,5.09,13.76,8.15,20.54l14.87,32.8h0.2l23.54-53.33h25.36v4.37l-6.39,0.2c-5.67,0.2-7.43,1.11-6.78,8.02
		l5.15,53.79c0.91,9.39,2.8,11.47,9.98,11.61l3.19,0.07v4.37h-35.27v-4.37l4.76-0.39c6.06-0.52,6.98-2.15,6.06-11.74l-5.22-53.01
		h-0.13l-24.71,54.83h-4.43l-25.43-54.83h-0.13l-4.63,44.79c-1.7,16.23-0.46,20.02,7.43,20.21l4.96,0.13v4.37H47.55V236.13z"/>
	<path class="st1" d="M194.65,208.81c-3.85,9.78-6.78,17.67-6.78,21.39c0,3.2,2.41,5.02,7.04,5.41l6.32,0.52v4.37H165.9v-4.37
		l2.02-0.13c7.24-0.46,10.04-3.33,15.45-16.37l25.82-62.2h4.76l28.1,68.46c2.93,7.11,5.87,9.78,11.54,10.11l2.09,0.13v4.37h-35.34
		v-4.37l6-0.46c6.52-0.52,6.78-2.28,4.24-8.41l-7.56-18.45H194.65z M220.73,203.2l-12.13-29.67h-0.13l-11.61,29.67H220.73z"/>
	<path class="st1" d="M267.09,214.54v-42.51c0-6.58-0.98-9.13-7.04-9.39l-4.96-0.2v-4.37h35.34v4.37l-4.96,0.2
		c-6.06,0.26-7.04,2.8-7.04,9.39v38.08c0,17.6,8.15,24.39,23.08,24.39c16.17,0,24.97-7.11,24.78-24.84l-0.46-37.62
		c-0.06-7.37-1.11-9.06-7.89-9.32l-6.85-0.26v-4.37h34.43v4.37l-4.24,0.2c-5.67,0.26-8.28,2.22-8.28,11.15v38.86
		c0,18.71-12.19,29.73-32.99,29.73C278.18,242.38,267.09,232.6,267.09,214.54z"/>
	<path class="st1" d="M357.93,240.49v-4.37l4.96-0.2c6.06-0.26,7.04-2.8,7.04-9.39v-54.51c0-6.58-0.98-9.13-7.04-9.39l-4.96-0.2
		v-4.37h35.01c19.43,0,27.32,6,27.32,18.52c0,10.11-5.74,17.41-17.87,22.75l8.35,10.76c14.02,18.13,20.54,24.19,27.19,25.56
		l2.48,0.52l-0.46,4.3h-13.5c-5.09,0-7.63-1.63-17.6-14.87l-16.04-21.32c-1.37-1.76-2.35-2.22-4.5-2.22h-7.04v24.45
		c0,6.58,0.98,9.13,7.04,9.39l4.96,0.2v4.37H357.93z M381.27,196.35c3.85,0.13,7.5,0.26,11.28,0.26c10.3,0,16.23-7.5,16.23-17.8
		c0-13.82-11.67-15.52-27.51-14.93V196.35z"/>
	<path class="st1" d="M447.91,236.13l4.96-0.2c6.06-0.26,7.04-2.8,7.04-9.39v-54.51c0-6.58-0.98-9.13-7.04-9.39l-4.96-0.2v-4.37
		h35.34v4.37l-4.96,0.2c-6.06,0.26-7.04,2.8-7.04,9.39v54.51c0,6.58,0.98,9.13,7.04,9.39l4.96,0.2v4.37h-35.34V236.13z"/>
	<path class="st1" d="M512,236.13l6.26-0.26c6.06-0.26,7.04-2.8,7.04-9.39v-62.79h-10.69c-12.06,0-14.15,1.43-16.43,9.98l-1.43,5.41
		h-5.22l2.74-22.04c3.06,0.65,7.24,1.04,14.41,1.04h46.49c7.17,0,11.41-0.39,14.47-1.04l-2.74,22.04h-5.22l0.07-5.67
		c0.13-8.93-0.78-9.71-12.65-9.71h-12.45v62.79c0,6.59,0.98,9.13,7.04,9.39l6.26,0.26v4.37H512V236.13z"/>
	<path class="st1" d="M577.21,215.85h4.89l1.96,5.48c3.98,11.08,9.84,15.71,18.26,15.71c9.32,0,16.37-6.39,16.37-15.58
		c0-9.06-4.43-13.04-18.65-19.36c-14.41-6.46-20.54-13.04-20.54-23.28c0-13.56,10.89-22.56,26.93-22.56
		c7.56,0,13.17,1.76,16.82,1.56l2.28,21.26h-5.02l-1.76-6.13c-2.02-6.98-6.98-11.08-14.28-11.08c-9.26,0-14.21,5.87-14.21,13.17
		c0,8.67,6.06,12.98,20.34,19.37c13.17,5.93,18.45,12,18.45,23.47c0,14.34-12.06,24.52-27.58,24.52c-8.41,0-17.08-2.48-21.06-5.35
		L577.21,215.85z"/>
	<path class="st1" d="M641.89,236.13l4.96-0.2c6.06-0.26,7.04-2.8,7.04-9.39v-54.51c0-6.58-0.98-9.13-7.04-9.39l-4.96-0.2v-4.37
		h35.34v4.37l-4.96,0.2c-6.06,0.26-7.04,2.8-7.04,9.39v23.86h44.79v-23.86c0-6.58-0.98-9.13-7.04-9.39l-4.96-0.2v-4.37h35.34v4.37
		l-4.96,0.2c-6.06,0.26-7.04,2.8-7.04,9.39v54.51c0,6.58,0.98,9.13,7.04,9.39l4.96,0.2v4.37h-35.34v-4.37l4.96-0.2
		c6.06-0.26,7.04-2.8,7.04-9.39v-24.91h-44.79v24.91c0,6.58,0.98,9.13,7.04,9.39l4.96,0.2v4.37h-35.34V236.13z"/>
	<path class="st1" d="M758.48,214.54v-42.51c0-6.58-0.98-9.13-7.04-9.39l-4.96-0.2v-4.37h35.34v4.37l-4.96,0.2
		c-6.06,0.26-7.04,2.8-7.04,9.39v38.08c0,17.6,8.15,24.39,23.08,24.39c16.17,0,24.97-7.11,24.78-24.84l-0.46-37.62
		c-0.07-7.37-1.11-9.06-7.89-9.32l-6.85-0.26v-4.37h34.43v4.37l-4.24,0.2c-5.67,0.26-8.28,2.22-8.28,11.15v38.86
		c0,18.71-12.19,29.73-32.99,29.73C769.56,242.38,758.48,232.6,758.48,214.54z"/>
	<path class="st1" d="M849.31,236.13l4.96-0.2c6.06-0.26,7.04-2.8,7.04-9.39v-54.51c0-6.58-0.98-9.13-7.04-9.39l-4.96-0.2v-4.37
		h35.34v4.37l-4.96,0.2c-6.06,0.26-7.04,2.8-7.04,9.39v54.51c0,6.58,0.98,9.13,7.04,9.39l4.96,0.2v4.37h-35.34V236.13z"/>
	<path class="st1" d="M897.43,215.85h4.89l1.96,5.48c3.98,11.08,9.84,15.71,18.26,15.71c9.32,0,16.37-6.39,16.37-15.58
		c0-9.06-4.43-13.04-18.65-19.36c-14.41-6.46-20.54-13.04-20.54-23.28c0-13.56,10.89-22.56,26.93-22.56
		c7.56,0,13.17,1.76,16.82,1.56l2.28,21.26h-5.02l-1.76-6.13c-2.02-6.98-6.98-11.08-14.28-11.08c-9.26,0-14.21,5.87-14.21,13.17
		c0,8.67,6.06,12.98,20.34,19.37c13.17,5.93,18.45,12,18.45,23.47c0,14.34-12.06,24.52-27.58,24.52c-8.41,0-17.08-2.48-21.06-5.35
		L897.43,215.85z"/>
</g>
<path class="st1" d="M60.53,347.43v-4.37l4.96-0.2c6.06-0.26,7.04-2.8,7.04-9.39v-54.51c0-6.59-0.98-9.13-7.04-9.39l-4.96-0.2v-4.37
	h35.01c19.43,0,27.32,6,27.32,18.52c0,10.11-5.74,17.41-17.87,22.76l8.35,10.76c14.02,18.13,20.54,24.19,27.19,25.56l2.48,0.52
	l-0.46,4.3h-13.5c-5.09,0-7.63-1.63-17.6-14.87l-16.04-21.32c-1.37-1.76-2.35-2.22-4.5-2.22h-7.04v24.45c0,6.59,0.98,9.13,7.04,9.39
	l4.96,0.2v4.37H60.53z M83.87,303.29c3.85,0.13,7.5,0.26,11.28,0.26c10.3,0,16.24-7.5,16.24-17.8c0-13.82-11.67-15.52-27.51-14.93
	V303.29z M139.88,314.51l6.32-0.65c4.63-0.46,5.15-1.83,5.15-10.76v-22.62c0-9-0.65-11.02-5.61-11.02h-5.87v-4.43h34.3v4.11
	l-6.32,0.59c-4.76,0.39-5.35,1.83-5.35,10.82v22.56c0,8.87,0.72,11.02,5.67,11.02h6v4.43h-34.3V314.51z M177.5,349.32
	c-10.17,0-17.47-5.22-17.47-10.76c0-3.46,2.8-6.13,6.65-7.17c3.39,7.56,8.48,11.21,15.65,11.21c7.89,0,11.87-6.65,11.87-20.41
	v-41.73c0-9-0.78-11.02-5.74-11.02h-5.93v-4.43h34.23v4.11l-6.32,0.59c-4.56,0.39-5.09,1.83-5.09,10.82v40.23
	C205.34,338.96,194.33,349.32,177.5,349.32z M271.73,329.31l-14.87-18.13c-2.41-3-3.91-3.46-5.67-3.46h-1.04v25.75
	c0,6.59,0.98,9.13,7.04,9.39l4.96,0.2v4.37H226.8v-4.37l4.96-0.2c6.06-0.26,7.04-2.8,7.04-9.39v-54.51c0-6.59-0.98-9.13-7.04-9.39
	l-4.96-0.2v-4.37h35.34v4.37l-4.96,0.2c-6.06,0.26-7.04,2.8-7.04,9.39v22.95c1.04,0.13,1.76,0.2,2.8,0.2c2.28,0,4.3-1.3,9.06-6.06
	c14.47-14.6,19.23-20.67,19.23-23.34c0-1.5-1.43-2.48-4.37-2.8l-5.02-0.52v-4.37h34.62v4.37l-2.54,0.26
	c-7.63,0.78-10.11,2.09-16.69,8.74l-23.99,24.45l8.15,9.26c21.78,24.71,26.47,29.28,33.38,30.51l2.61,0.46l-0.46,4.37h-13.5
	C288.48,347.43,285.48,346.13,271.73,329.31z M313.92,322.79h4.89l1.96,5.48c3.98,11.08,9.85,15.71,18.26,15.71
	c9.32,0,16.37-6.39,16.37-15.58c0-9.06-4.43-13.04-18.65-19.36c-14.41-6.45-20.54-13.04-20.54-23.28
	c0-13.56,10.89-22.56,26.93-22.56c7.56,0,13.17,1.76,16.82,1.56l2.28,21.26h-5.02l-1.76-6.13c-2.02-6.98-6.98-11.08-14.28-11.08
	c-9.26,0-14.21,5.87-14.21,13.17c0,8.67,6.06,12.97,20.34,19.36c13.17,5.93,18.45,12,18.45,23.47c0,14.34-12.06,24.52-27.58,24.52
	c-8.41,0-17.08-2.48-21.06-5.35L313.92,322.79z M374.36,343.06l2.35-0.13c8.35-0.46,10.69-3.39,12.65-20.21l5.22-44.53
	c0.91-7.56-1.56-7.89-7.3-8.35l-6.06-0.46v-4.37h26.6c1.96,6.39,5.09,13.76,8.15,20.54l14.87,32.8h0.2l23.54-53.33h25.36v4.37
	l-6.39,0.2c-5.67,0.2-7.43,1.11-6.78,8.02l5.15,53.79c0.91,9.39,2.8,11.48,9.98,11.61l3.19,0.07v4.37H449.8v-4.37l4.76-0.39
	c6.06-0.52,6.98-2.15,6.06-11.74l-5.22-53.01h-0.13l-24.71,54.83h-4.43l-25.43-54.83h-0.13l-4.63,44.79
	c-1.7,16.24-0.46,20.02,7.43,20.21l4.96,0.13v4.37h-33.97V343.06z M505.95,321.48v-42.51c0-6.59-0.98-9.13-7.04-9.39l-4.96-0.2
	v-4.37h35.34v4.37l-4.96,0.2c-6.06,0.26-7.04,2.8-7.04,9.39v38.08c0,17.6,8.15,24.39,23.08,24.39c16.17,0,24.97-7.11,24.78-24.84
	l-0.46-37.62c-0.07-7.37-1.11-9.06-7.89-9.32l-6.85-0.26v-4.37h34.43v4.37l-4.24,0.2c-5.67,0.26-8.28,2.22-8.28,11.15v38.86
	c0,18.71-12.19,29.73-32.99,29.73C517.03,349.32,505.95,339.54,505.95,321.48z M594.95,322.79h4.89l1.96,5.48
	c3.98,11.08,9.85,15.71,18.26,15.71c9.32,0,16.37-6.39,16.37-15.58c0-9.06-4.43-13.04-18.65-19.36
	c-14.41-6.45-20.54-13.04-20.54-23.28c0-13.56,10.89-22.56,26.93-22.56c7.56,0,13.17,1.76,16.82,1.56l2.28,21.26h-5.02l-1.76-6.13
	c-2.02-6.98-6.98-11.08-14.28-11.08c-9.26,0-14.21,5.87-14.21,13.17c0,8.67,6.06,12.97,20.34,19.36c13.17,5.93,18.45,12,18.45,23.47
	c0,14.34-12.06,24.52-27.58,24.52c-8.41,0-17.08-2.48-21.06-5.35L594.95,322.79z M659.64,343.06l4.96-0.2
	c6.06-0.26,7.04-2.8,7.04-9.39v-54.51c0-6.59-0.98-9.13-7.04-9.39l-4.96-0.2v-4.37h46.29c7.24,0,11.21-0.39,14.47-1.04l-0.33,20.99
	h-5.54v-5.35c0-7.56-1.7-9-11.34-9h-20.21v30.45h17.73c6.65,0,7.56-0.39,7.95-6.45l0.2-2.87h4.89V316h-4.89l-0.2-2.87
	c-0.39-6.06-1.3-6.45-7.95-6.45h-17.73v27.38c0,6.98,0.98,7.76,13.43,7.76c15.65,0,17.8-1.89,22.3-14.21l0.98-2.67h5.22l-4.37,22.49
	h-60.9V343.06z M746.82,321.48v-42.51c0-6.59-0.98-9.13-7.04-9.39l-4.96-0.2v-4.37h35.34v4.37l-4.96,0.2
	c-6.06,0.26-7.04,2.8-7.04,9.39v38.08c0,17.6,8.15,24.39,23.08,24.39c16.17,0,24.97-7.11,24.78-24.84l-0.46-37.62
	c-0.07-7.37-1.11-9.06-7.89-9.32l-6.85-0.26v-4.37h34.43v4.37l-4.24,0.2c-5.67,0.26-8.28,2.22-8.28,11.15v38.86
	c0,18.71-12.19,29.73-32.99,29.73C757.9,349.32,746.82,339.54,746.82,321.48z M833.41,343.06l2.35-0.13
	c8.35-0.46,10.69-3.39,12.65-20.21l5.22-44.53c0.91-7.56-1.56-7.89-7.3-8.35l-6.06-0.46v-4.37h26.6c1.96,6.39,5.09,13.76,8.15,20.54
	l14.87,32.8h0.2l23.54-53.33h25.36v4.37l-6.39,0.2c-5.67,0.2-7.43,1.11-6.78,8.02l5.15,53.79c0.91,9.39,2.8,11.48,9.98,11.61
	l3.19,0.07v4.37h-35.27v-4.37l4.76-0.39c6.06-0.52,6.98-2.15,6.06-11.74l-5.22-53.01h-0.13l-24.71,54.83h-4.43l-25.43-54.83h-0.13
	l-4.63,44.79c-1.7,16.24-0.46,20.02,7.43,20.21l4.96,0.13v4.37h-33.97V343.06z"/>
<path class="st1" d="M196.02,454.37V450l4.96-0.2c6.06-0.26,7.04-2.8,7.04-9.39v-54.51c0-6.59-0.98-9.13-7.04-9.39l-4.96-0.2v-4.37
	h38.53c13.43,0,21.58,6.26,21.58,16.89c0,9.26-6.32,17.54-17.87,20.47v0.13c17.02,2.35,24.78,9.85,24.78,22.1
	c0,14.34-10.43,22.82-38.47,22.82H196.02z M219.37,408.08c3.33,0.07,7.11,0.2,10.95,0.2c5.15,0,14.6-3.78,14.6-17.21
	c0-10.69-6.91-14.41-25.56-13.56V408.08z M219.37,438.52c0,8.08,1.63,10.3,10.95,10.3c13.56,0,20.99-5.87,20.99-16.17
	c0-11.61-9.32-18.84-23.47-18.84c-2.02,0-5.61-0.07-8.48,0.26V438.52z M317.17,370.06c23.28,0,39.32,18,39.32,41.08
	c0,26.54-18.58,45.12-44.34,45.12c-23.02,0-38.99-18.13-38.99-41.21C273.16,388.32,291.35,370.06,317.17,370.06z M343.84,415.57
	c0-22.62-13.43-39.84-30.25-39.84c-15.58,0-27.91,12.19-27.91,34.95c0,22.49,13.43,39.84,30.25,39.84
	C331.52,450.52,343.84,438.39,343.84,415.57z M364.97,421.44l6.32-0.65c4.63-0.46,5.15-1.83,5.15-10.76v-22.62
	c0-9-0.65-11.02-5.61-11.02h-5.87v-4.43h34.3v4.11l-6.32,0.59c-4.76,0.39-5.35,1.83-5.35,10.82v22.56c0,8.87,0.72,11.02,5.67,11.02
	h6v4.43h-34.3V421.44z M402.59,456.26c-10.17,0-17.47-5.22-17.47-10.76c0-3.46,2.8-6.13,6.65-7.17c3.39,7.56,8.48,11.21,15.65,11.21
	c7.89,0,11.87-6.65,11.87-20.41v-41.73c0-9-0.78-11.02-5.74-11.02h-5.93v-4.43h34.23v4.11l-6.32,0.59
	c-4.56,0.39-5.09,1.83-5.09,10.82v40.23C430.43,445.89,419.42,456.26,402.59,456.26z M447.65,450l2.35-0.13
	c8.35-0.46,10.69-3.39,12.65-20.21l5.22-44.53c0.91-7.56-1.56-7.89-7.3-8.35l-6.06-0.46v-4.37h26.6c1.96,6.39,5.09,13.76,8.15,20.54
	l14.87,32.8h0.2l23.54-53.33h25.36v4.37l-6.39,0.2c-5.67,0.2-7.43,1.11-6.78,8.02l5.15,53.79c0.91,9.39,2.8,11.48,9.98,11.61
	l3.19,0.07v4.37h-35.27V450l4.76-0.39c6.06-0.52,6.98-2.15,6.06-11.74l-5.22-53.01h-0.13l-24.71,54.83h-4.43L474,384.86h-0.13
	l-4.63,44.79c-1.7,16.23-0.46,20.02,7.43,20.21l4.96,0.13v4.37h-33.97V450z M591.43,422.68c-3.85,9.78-6.78,17.67-6.78,21.39
	c0,3.19,2.41,5.02,7.04,5.41l6.32,0.52v4.37h-35.34V450l2.02-0.13c7.24-0.46,10.04-3.33,15.45-16.37l25.82-62.2h4.76l28.1,68.46
	c2.93,7.11,5.87,9.78,11.54,10.11l2.09,0.13v4.37h-35.34V450l6-0.46c6.52-0.52,6.78-2.28,4.24-8.41l-7.56-18.45H591.43z
	 M617.51,417.07l-12.13-29.67h-0.13l-11.61,29.67H617.51z M656.44,450l4.24-0.2c5.67-0.26,8.08-2.22,8.28-11.15l1.04-54.31
	l-1.56-2.09c-3-3.98-8.02-5.87-12.65-5.87h-1.3v-4.43h22.49c2.09,3.78,4.82,7.69,13.63,18.26l35.73,42.84h0.13l-0.52-46.16
	c-0.07-7.43-1.11-10.04-7.89-10.3l-6.85-0.26v-4.37h34.1v4.37l-4.24,0.2c-5.67,0.26-8.22,2.22-8.28,11.15l-0.26,38.92
	c-0.13,14.67,0.39,21.13,1.24,27.78h-5.48l-52.49-63.83h-0.13l0.13,48.9c0,7.43,1.11,10.04,7.89,10.3l6.85,0.26v4.37h-34.1V450z
	 M753.08,429.72h4.89l1.96,5.48c3.98,11.08,9.85,15.71,18.26,15.71c9.32,0,16.37-6.39,16.37-15.58c0-9.06-4.43-13.04-18.65-19.36
	c-14.41-6.45-20.54-13.04-20.54-23.28c0-13.56,10.89-22.56,26.93-22.56c7.56,0,13.17,1.76,16.82,1.56l2.28,21.26h-5.02l-1.76-6.13
	c-2.02-6.98-6.98-11.08-14.28-11.08c-9.26,0-14.21,5.87-14.21,13.17c0,8.67,6.06,12.97,20.34,19.36c13.17,5.93,18.45,12,18.45,23.47
	c0,14.34-12.06,24.52-27.58,24.52c-8.41,0-17.08-2.48-21.06-5.35L753.08,429.72z"/>
<g>
	<path class="st1" d="M296.96,561.31v-4.37l4.96-0.2c6.06-0.26,7.04-2.8,7.04-9.39v-54.51c0-6.58-0.98-9.13-7.04-9.39l-4.96-0.2
		v-4.37h37.42c33.32,0,47.01,12.13,47.01,39.9c0,27.12-20.67,42.71-48.05,42.71c-8.08,0-16.23-0.2-24.32-0.2H296.96z M320.3,546.24
		c0,6.32,0.13,9.65,14.67,9.65c20.41,0,33.84-13.43,33.84-37.1c0-23.6-11.67-34.49-36.58-34.49c-3.26,0-10.24,0.07-11.93,0.13
		V546.24z"/>
	<path class="st1" d="M392.68,556.94l4.96-0.2c6.06-0.26,7.04-2.8,7.04-9.39v-54.51c0-6.58-0.98-9.13-7.04-9.39l-4.96-0.2v-4.37
		h46.29c7.24,0,11.21-0.39,14.47-1.04l-0.33,21h-5.54v-5.35c0-7.56-1.7-9-11.34-9h-20.21v30.45h17.73c6.65,0,7.56-0.39,7.96-6.46
		l0.2-2.87h4.89v24.25h-4.89l-0.2-2.87c-0.39-6.06-1.3-6.46-7.96-6.46h-17.73v27.38c0,6.98,0.98,7.76,13.43,7.76
		c15.65,0,17.8-1.89,22.3-14.21l0.98-2.67h5.22l-4.37,22.49h-60.9V556.94z"/>
	<path class="st1" d="M468.13,556.94l4.96-0.2c6.06-0.26,7.04-2.8,7.04-9.39v-54.51c0-6.58-0.98-9.13-7.04-9.39l-4.96-0.2v-4.37
		h13.43c9.65,0,15.71-0.07,21.58-0.07c18.45-0.06,29.08,6.06,29.08,20.34c0,18.45-15.97,29.21-34.69,28.43v-4.37
		c15.71-0.91,23.54-9.13,23.54-21.97c0-11.87-7.5-16.76-22.95-16.76c-2.09,0-4.3,0.07-6.65,0.26v59.99c0,8.41,1.24,11.61,8.93,11.93
		l6.33,0.26v4.37h-38.6V556.94z"/>
	<path class="st1" d="M585.1,477c23.28,0,39.32,18,39.32,41.08c0,26.54-18.58,45.12-44.34,45.12c-23.02,0-38.99-18.13-38.99-41.21
		C541.09,495.26,559.28,477,585.1,477z M611.77,522.51c0-22.62-13.43-39.84-30.25-39.84c-15.58,0-27.91,12.19-27.91,34.95
		c0,22.49,13.43,39.84,30.25,39.84C599.45,557.46,611.77,545.33,611.77,522.51z"/>
	<path class="st1" d="M651.16,556.94l6.26-0.26c6.06-0.26,7.04-2.8,7.04-9.39V484.5h-10.69c-12.06,0-14.15,1.43-16.43,9.98
		l-1.43,5.41h-5.22l2.74-22.04c3.06,0.65,7.24,1.04,14.41,1.04h46.49c7.17,0,11.41-0.39,14.47-1.04l-2.74,22.04h-5.21l0.06-5.67
		c0.13-8.93-0.78-9.71-12.65-9.71H675.8v62.79c0,6.59,0.98,9.13,7.04,9.39l6.26,0.26v4.37h-37.95V556.94z"/>
</g>
</svg>
