<?xml version="1.0" encoding="utf-8"?>
<!-- Generator: Adobe Illustrator 27.4.0, SVG Export Plug-In . SVG Version: 6.00 Build 0)  -->
<svg version="1.1" id="Layer_1" xmlns="http://www.w3.org/2000/svg" xmlns:xlink="http://www.w3.org/1999/xlink" x="0px" y="0px"
	 viewBox="0 0 1000 606.06" style="enable-background:new 0 0 1000 606.06;" xml:space="preserve">
<style type="text/css">
	.st0{fill:#FDFF88;}
	.st1{fill:#1D1D1B;}
</style>
<rect y="0" class="st0" width="1000" height="606.06"/>
<path class="st1" d="M126.38,133.56l1.17-5.87l5.15-0.33c4.04-0.26,5.28-1.96,6.13-6.26l11.67-58.22c0.85-4.3,0.13-6-3.78-6.26
	l-4.89-0.33l1.17-5.87h18.91c7.82,0,15.71-0.33,23.54-0.33c15.84,0,22.04,7.76,19.76,19.17c-2.09,10.76-10.89,17.86-21.26,20.15
	l-0.07,0.52c13.17,1.96,20.41,10.17,18.06,21.71c-3.06,15.52-16.17,21.91-39.25,21.91H126.38z M180.17,109.82
	c2.15-10.76-2.48-15.39-12.71-15.39c-0.91,0-1.76,0.07-3.26,0.2l-4.56,22.95c-1.11,5.67,0.39,7.95,5.74,7.95
	C173.26,125.54,178.02,120.19,180.17,109.82z M165.89,86.09l6,0.72c4.3,0.46,10.43-4.04,12.39-13.89c1.89-9.32,0-14.28-9.78-14.28
	c-0.98,0-2.02,0-3.19,0.13L165.89,86.09z M215.06,124.23l5.74-27.97c2.28-10.89,1.7-13.04,0.33-13.04c-1.56,0-4.69,2.35-9.45,6.65
	l-1.7-5.09c5.28-7.43,13.3-13.69,21.39-13.69c6.06,0,10.69,3,11.61,7.63l-6.52,31.56c-2.22,10.95-1.7,12.97-0.2,12.97
	c1.43,0,4.17-1.63,9.39-6.65l1.7,5.15c-5.28,7.37-12.84,13.63-21.91,13.63C217.73,135.38,213.62,130.95,215.06,124.23z M227.9,51.66
	c1.11-5.48,5.28-9.58,10.95-9.58c6.13,0,9.78,4.82,8.41,11.61c-1.11,5.41-5.22,9.45-10.82,9.45
	C229.92,63.14,226.73,57.66,227.9,51.66z M253.07,101.15c3.85-19.04,17.54-30.06,33.9-30.06c18.06,0,29.28,13.43,25.1,34.23
	c-3.78,19.1-17.47,30.06-33.84,30.06C260.11,135.38,248.96,121.95,253.07,101.15z M291.93,104.41c2.48-16.43,0.52-25.17-5.41-25.17
	c-5.09,0-11.02,8.67-13.24,22.82c-2.48,16.43-0.52,25.17,5.93,25.17C283.78,127.23,289.71,118.56,291.93,104.41z M326.88,46.25
	l27.97-5.28c-1.7,6.39-2.67,10.17-3.91,16.56l-10.5,52.75c-2.15,10.95-1.7,12.97-0.2,12.97c1.3,0,4.43-1.96,9.32-6.65l1.7,5.15
	c-5.28,7.37-12.78,13.63-21.91,13.63c-7.63,0-11.87-4.43-10.5-11.15l13.43-65.4c0.52-2.48,0.52-4.3-1.24-5.35l-5.02-3.06
	L326.88,46.25z M357.01,101.15c3.85-19.04,17.54-30.06,33.9-30.06c18.06,0,29.28,13.43,25.1,34.23
	c-3.78,19.1-17.47,30.06-33.84,30.06C364.05,135.38,352.9,121.95,357.01,101.15z M395.87,104.41c2.48-16.43,0.52-25.17-5.41-25.17
	c-5.09,0-11.02,8.67-13.24,22.82c-2.48,16.43-0.52,25.17,5.93,25.17C387.72,127.23,393.65,118.56,395.87,104.41z M405.2,150.9
	c1.04-5.41,9.85-9.26,24.12-10.37l0.13-0.33c-1.96-1.5-2.93-3.46-2.54-5.74c0.59-3.46,5.15-8.02,17.93-13.17l-0.07-0.33
	c-13.37-0.65-22.82-11.28-20.28-25.36c2.67-15,14.47-24.52,29.8-24.52c5.54,0,10.3,1.56,13.95,4.24l13.5-7.3l2.74,4.82
	c-0.59,2.09-1.43,4.63-7.56,7.37l-2.93,1.37c2.67,4.63,3.65,10.37,2.54,16.43c-1.76,9.45-6.78,15.97-20.08,22.56
	c-7.37,3.65-9.06,6.13-9.39,7.63c-0.33,1.89,1.37,2.35,19.3,6.59c9.19,2.22,14.8,7.17,12.84,14.21c-0.98,3.59-2.8,6.78-5.41,9.45
	l0.13,0.39c8.74-3.06,17.08-7.76,20.73-11.74c2.35-2.41,4.76-4.63,4.17-16.3c-0.85-17.54-1.83-33.84-3.39-42.38
	c-0.59-3.39-1.43-4.96-2.8-4.96s-4.11,1.7-6.45,4.11l-1.89,1.89l-2.67-4.69c5.93-8.15,15.32-13.76,23.47-13.76
	c4.56,0,6.98,2.02,8.35,8.02c1.76,7.95,2.28,23.54,2.67,51.12h0.13c6.59-12.52,10.56-24.12,12.39-33.25
	c2.8-13.76,1.63-16.43-1.17-16.43c-0.72,0-2.22,0.26-3.59,0.85l-3,1.17l-0.85-5.15c4.69-3.26,13.76-6.26,17.93-6.26
	c9.45,0,10.11,6.13,8.54,13.95c-8.93,44.92-43.55,84.57-104.26,84.57C423.06,169.61,403.11,161.4,405.2,150.9z M459.9,154.88
	c0.91-4.11-2.09-5.61-16.04-9.13c-3.33-0.85-6.13-1.7-8.41-2.61c-6.78,2.87-10.11,4.82-10.63,7.24
	c-0.98,5.02,10.82,12.06,22.3,12.06C454.1,162.44,458.99,159.25,459.9,154.88z M456.64,100.24c2.35-12.13,1.24-21.32-3.65-21.32
	c-3.52,0-7.04,4.82-8.87,14.34c-2.41,12.06-0.52,21.26,4.37,21.26C452.01,114.52,454.81,109.69,456.64,100.24z M565.6,133.56
	l1.17-5.87l5.15-0.33c4.04-0.26,5.28-1.96,6.13-6.26l11.67-58.22c0.85-4.3,0.13-6-3.78-6.26l-4.89-0.33l1.17-5.87h14.21
	c10.76,0,18.13-0.13,29.8-0.13c16.56,0,24.25,8.48,21.71,20.99c-1.96,9.71-8.87,16.69-19.56,19.63l12.78,27.32
	c2.8,5.93,5.35,8.48,9.39,9.52l1.04,0.26l-1.76,5.54h-18.97c-6.59,0-11.02-4.5-14.34-16.63l-4.96-18.06c-0.65-2.48-1.37-2.93-3.72-3
	l-4.63-0.13l-5.09,25.36c-0.85,4.3-0.13,6,3.78,6.26l4.89,0.33l-1.17,5.87H565.6z M604.85,87.59c2.41,0.39,4.89,0.72,7.24,0.72
	c3.19,0,11.08-2.54,13.56-14.93c2.48-12.26-1.5-15.26-15-14.54L604.85,87.59z M657.29,104.22c3.91-19.76,17.34-33.12,37.36-33.12
	c4.17,0,9.45,0.85,14.15,2.28c1.17,0.33,1.76,0.52,2.41,0.52c1.17,0,1.56-0.46,2.15-2.61l1.04-3.52l6.91,1.37
	c-2.22,6.85-3.98,12.65-5.48,19.5L713.63,99c-3.72,16.95-3.72,24.25-0.98,24.25c1.63,0,3.65-1.43,9.91-6.65l1.7,5.15
	c-6.32,8.8-14.08,13.63-21.91,13.63c-8.93,0-12.91-4.69-6.59-26.86l-0.72-0.13c-8.74,18.26-17.93,26.99-26.6,26.99
	C658.27,135.38,653.58,122.6,657.29,104.22z M688.65,108.98c4.37-6.98,7.17-13.89,9.45-21.58l0.59-1.96c1.04-3.39-3-6.19-8.8-6.19
	c-6.85,0-10.82,5.67-13.43,18.58c-3.06,14.93-0.65,21.71,2.35,21.71C680.96,119.54,684.29,115.95,688.65,108.98z M733.9,84.27
	c-1.37,0-3.98,1.63-8.02,5.61l-1.7-5.09c4.17-7.04,13.37-13.69,21.39-13.69c4.24,0,7.95,1.24,10.5,5.87
	c-7.95,41.27-6.45,45.71-3.13,45.71c4.3,0,10.24-3.26,13.3-18.58c2.74-13.69,0.91-25.62-1.76-28.43c2.02-2.61,6.32-4.56,10.56-4.56
	c7.56,0,13.3,10.3,10.43,24.71c-4.3,21.65-25.62,40.1-43.49,40.1c-9.91,0-13.11-8.48-8.41-35.14C735.98,87,735.98,84.27,733.9,84.27
	z M791.02,102.07c3.65-18.65,17.28-30.97,34.1-30.97c12.26,0,18.13,7.17,16.69,14.28c-1.5,7.5-7.89,13.17-23.86,16.82l-8.08,1.89
	c-0.78,11.93,2.28,18.19,7.76,18.19c3.59,0,10.5-2.93,19.69-8.87l2.41,4.89c-12.06,11.8-22.23,17.08-30.77,17.08
	C795.26,135.38,787.04,121.82,791.02,102.07z M815.34,96.07c6.26-1.5,10.56-5.28,11.48-9.91c0.78-3.85-1.37-7.04-4.69-7.04
	c-3.72,0-8.93,3.91-11.21,16.69c-0.07,0.46-0.13,0.98-0.26,1.43L815.34,96.07z M861.57,113.61c6.26,0,10.5,5.02,9.13,11.87
	c-1.17,6.06-5.41,9.91-11.15,9.91c-6.13,0-10.5-5.09-9.13-12.06C851.66,117.19,855.83,113.61,861.57,113.61z M861.5,105.19
	l-0.07-23.41c0-11.02,0.07-17.54,1.04-22.3c1.5-7.56,5.41-11.41,12.39-11.41c7.17,0,10.63,5.35,8.67,15.19
	c-1.7,8.54-7.3,21.97-17.54,41.92H861.5z"/>
<g>
	<path class="st1" d="M108.44,240.49l1.17-5.87l5.15-0.33c4.04-0.26,5.28-1.96,6.13-6.26l5.22-26.08H93.97l-5.22,26.08
		c-0.85,4.3-0.13,6,3.78,6.26l4.89,0.33l-1.17,5.87H56.21l1.17-5.87l5.15-0.33c4.04-0.26,5.28-1.96,6.13-6.26l11.67-58.22
		c0.85-4.3,0.13-6-3.78-6.26l-4.89-0.33l1.17-5.87h40.03l-1.17,5.87l-5.15,0.33c-4.04,0.26-5.28,1.96-6.13,6.26l-4.76,23.73h32.14
		l4.76-23.73c0.85-4.3,0.13-6-3.78-6.26l-4.89-0.33l1.17-5.87h40.03l-1.17,5.87l-5.15,0.33c-4.04,0.26-5.28,1.96-6.13,6.26
		l-11.67,58.22c-0.85,4.3-0.13,6,3.78,6.26l4.89,0.33l-1.17,5.87H108.44z"/>
	<path class="st1" d="M159.76,211.15c3.91-19.76,17.34-33.12,37.36-33.12c4.17,0,9.45,0.85,14.15,2.28
		c1.17,0.33,1.76,0.52,2.41,0.52c1.17,0,1.56-0.46,2.15-2.61l1.04-3.52l6.91,1.37c-2.22,6.85-3.98,12.65-5.48,19.49l-2.22,10.37
		c-3.72,16.95-3.72,24.25-0.98,24.25c1.63,0,3.65-1.43,9.91-6.65l1.7,5.15c-6.32,8.8-14.08,13.63-21.91,13.63
		c-8.93,0-12.91-4.69-6.58-26.86l-0.72-0.13c-8.74,18.26-17.93,26.99-26.6,26.99C160.74,242.32,156.04,229.54,159.76,211.15z
		 M191.12,215.91c4.37-6.98,7.17-13.89,9.45-21.58l0.59-1.96c1.04-3.39-3-6.19-8.8-6.19c-6.85,0-10.82,5.67-13.43,18.58
		c-3.06,14.93-0.65,21.71,2.35,21.71C183.43,226.48,186.75,222.89,191.12,215.91z"/>
	<path class="st1" d="M231.49,240.43c3.19-9.26,4.43-12.97,6.46-23.15c3.91-19.89,3.85-26.08,1.04-26.08c-1.7,0-4.43,2.22-8.02,5.61
		l-1.7-5.09c5.28-7.43,13.3-13.69,21.39-13.69c5.22,0,8.35,1.83,10.11,5.08c-0.85,6.19-2.93,13.89-4.56,19.56l0.65,0.2
		c8.08-18.06,14.41-24.84,21.71-24.84c5.22,0,7.82,3.39,6.72,8.74c-0.85,4.3-4.43,9.65-8.35,12c-3.52-2.54-4.76-4.04-6.39-4.04
		c-2.09,0-6.13,3.91-12.39,15.39c-1.37,2.41-2.02,4.69-2.48,7.37c-0.78,4.76-1.63,10.24-3.26,17.08c-1.04,4.37-5.8,7.63-14.28,7.63
		c-1.83,0-3.78-0.13-5.93-0.46L231.49,240.43z"/>
	<path class="st1" d="M342.59,195.96c-5.8,26.93-5.87,34.23-3.13,34.23c1.63,0,3.65-1.43,9.91-6.65l1.7,5.15
		c-6.32,8.8-14.08,13.63-21.91,13.63c-8.93,0-12.84-4.82-6.58-26.86l-0.72-0.13c-8.74,18.26-17.93,26.99-26.6,26.99
		c-10.17,0-14.87-12.78-11.15-31.17c3.91-19.76,17.34-33.12,37.36-33.12c2.15,0,4.63,0.26,7.17,0.65l1.96-12.91
		c0.39-2.48,0.2-4.24-1.57-5.35l-4.96-3.06l0.85-4.17l28.82-5.28c-1.76,6.39-3,10.17-7.37,30.45L342.59,195.96z M315.47,215.91
		c4.37-6.98,7.17-13.89,9.45-21.58l0.59-1.96c1.04-3.39-3-6.19-8.8-6.19c-6.85,0-10.82,5.67-13.43,18.58
		c-3.06,14.93-0.65,21.71,2.35,21.71C307.77,226.48,311.1,222.89,315.47,215.91z"/>
	<path class="st1" d="M357.59,207.96c4.56-19.17,19.89-29.93,35.4-29.93c10.17,0,16.5,4.37,15.06,10.17
		c-0.85,3.46-4.37,6.72-8.74,7.56c-7.17-6.65-10.56-8.28-12.39-8.28c-3.46,0-6.72,4.89-8.93,14.41
		c-3.26,14.02-0.78,27.32,6.91,27.32c3.46,0,10.5-3.46,18.06-8.48l2.41,4.83c-9.32,10.37-20.73,16.76-30.19,16.76
		C362.15,242.32,352.57,228.69,357.59,207.96z"/>
	<path class="st1" d="M411.84,208.09c3.85-19.04,17.54-30.06,33.9-30.06c18.06,0,29.27,13.43,25.1,34.23
		c-3.78,19.1-17.47,30.06-33.84,30.06C418.88,242.32,407.73,228.89,411.84,208.09z M450.7,211.35c2.48-16.43,0.52-25.17-5.41-25.17
		c-5.08,0-11.02,8.67-13.24,22.82c-2.48,16.43-0.52,25.17,5.93,25.17C442.55,234.17,448.48,225.5,450.7,211.35z"/>
	<path class="st1" d="M478.87,240.43c3.2-9.26,4.43-12.97,6.46-23.15c3.91-19.89,3.85-26.08,1.04-26.08c-1.7,0-4.43,2.22-8.02,5.61
		l-1.7-5.09c5.28-7.43,13.3-13.69,21.39-13.69c5.22,0,8.35,1.83,10.11,5.08c-0.85,6.19-2.93,13.89-4.56,19.56l0.65,0.2
		c8.08-18.06,14.41-24.84,21.71-24.84c5.22,0,7.82,3.39,6.72,8.74c-0.85,4.3-4.43,9.65-8.35,12c-3.52-2.54-4.76-4.04-6.39-4.04
		c-2.09,0-6.13,3.91-12.39,15.39c-1.37,2.41-2.02,4.69-2.48,7.37c-0.78,4.76-1.63,10.24-3.26,17.08c-1.04,4.37-5.8,7.63-14.28,7.63
		c-1.83,0-3.78-0.13-5.93-0.46L478.87,240.43z"/>
	<path class="st1" d="M531.1,209c3.65-18.65,17.28-30.97,34.1-30.97c12.26,0,18.13,7.17,16.69,14.28
		c-1.5,7.5-7.89,13.17-23.86,16.82l-8.08,1.89c-0.78,11.93,2.28,18.19,7.76,18.19c3.59,0,10.5-2.93,19.69-8.87l2.41,4.89
		c-12.06,11.8-22.23,17.08-30.78,17.08C535.34,242.32,527.12,228.76,531.1,209z M555.42,203c6.26-1.5,10.56-5.28,11.48-9.91
		c0.78-3.85-1.37-7.04-4.69-7.04c-3.72,0-8.93,3.91-11.21,16.69c-0.06,0.46-0.13,0.98-0.26,1.43L555.42,203z"/>
	<path class="st1" d="M584.44,259.21c0.72-3.65,3.91-6.72,7.56-8.41c5.09,4.76,8.41,7.04,10.5,7.04c2.93,0,5.61-4.63,8.48-19.04
		l13.82-68.98c0.85-4.3,0.13-6-3.78-6.26l-4.89-0.33l1.17-5.87h40.03l-1.17,5.87l-5.15,0.33c-4.04,0.26-5.28,1.96-6.13,6.26
		l-5.22,26.02c-1.89,9.39-2.28,11.8-7.37,37.49c-2.15,10.89-8.35,22.17-18.78,29.01c-6.32,4.17-13.04,6.85-18.78,6.85
		C586.39,269.18,583.46,264.29,584.44,259.21z"/>
	<path class="st1" d="M717.19,179.92c-3,9.26-4.11,13.11-6,21.58c-4.76,21.45-4.76,28.69-2.02,28.69c1.63,0,3.65-1.43,9.91-6.65
		l1.7,5.15c-6.32,8.8-14.08,13.63-21.91,13.63c-8.54,0-11.93-5.87-6.52-25.1l-0.65-0.26c-9.26,18.06-16.37,25.36-27.38,25.36
		c-8.48,0-11.54-6.26-9.71-14.87l5.22-24.32c2.35-10.95,0.65-11.93-0.59-11.93c-1.43,0-2.87,0.98-8.02,5.61l-1.7-5.15
		c5.28-7.37,13.04-13.63,21.39-13.63c6.13,0,10.04,2.28,11.41,6.45l-7.69,34.75c-1.37,6.33-0.59,8.15,1.5,8.15
		c2.09,0,5.41-3.33,12.71-14.21c2.87-4.3,3.59-6.91,4.37-10.95c0.78-4.17,1.17-8.15,3.06-16.43c1.04-4.37,5.8-7.63,14.28-7.63
		c1.83,0,3.78,0.13,5.93,0.46L717.19,179.92z"/>
	<path class="st1" d="M726.78,240.43c3.19-9.26,4.43-12.97,6.46-23.15c3.91-19.89,3.85-26.08,1.04-26.08c-1.7,0-4.43,2.22-8.02,5.61
		l-1.7-5.09c5.28-7.43,13.3-13.69,21.39-13.69c5.22,0,9.06,1.83,10.82,5.08c-0.98,6.19-3.46,13.17-4.96,18.84l0.65,0.2
		c8.87-16.69,18.06-24.12,29.08-24.12c8.48,0,11.54,6.26,9.71,14.87l-5.22,24.32c-2.35,10.95-1.7,12.97-0.07,12.97
		c1.43,0,3-1.11,9.19-6.65l1.7,5.15c-5.28,7.37-12.78,13.63-21.91,13.63c-7.63,0-11.8-4.43-10.3-11.15l6.58-30.06
		c1.37-6.33,0.59-8.15-1.5-8.15c-3.39,0-9.65,6.26-15.32,14.21c-1.96,2.74-2.67,4.63-3.06,7.37c-0.78,5.48-1.7,11.74-3.65,20.02
		c-1.04,4.37-5.8,7.63-14.28,7.63c-1.83,0-3.78-0.13-5.93-0.46L726.78,240.43z"/>
	<path class="st1" d="M851.77,189.12c2.61,4.5,3.78,9.98,2.8,15.71c-1.5,8.74-7.37,15.32-18.78,21c-6.98,3.46-8.74,5.74-8.93,6.85
		c-0.39,2.09,0.91,2.87,19.23,7.17c9.19,2.15,14.87,6.52,12.84,13.82c-3.46,12.39-16.76,19.76-36.84,19.76
		c-19.17,0-39.25-7.37-37.16-17.87c1.04-5.41,9.84-8.87,24.12-9.98l0.13-0.33c-1.96-1.5-2.87-3.39-2.61-5.28
		c0.59-4.3,5.93-8.93,16.89-13.63l-0.06-0.33c-13.56-0.65-21.58-11.15-18.84-25.82c2.48-13.37,13.89-22.17,27.65-22.17
		c5.41,0,10.24,1.83,14.08,4.82l10.69-5.93c1.3-0.72,4.24-2.35,4.76-2.61c0.2,0.65,1.56,4.76,1.83,5.48
		c-0.59,2.09-1.43,4.63-7.56,7.37L851.77,189.12z M839.64,259.53c0.91-4.11-2.09-5.22-16.04-8.74c-3.33-0.85-6.13-1.7-8.41-2.61
		c-6.78,2.87-10.17,4.43-10.63,6.85c-1.04,5.02,10.95,11.21,22.43,11.21C833.97,266.25,838.73,263.9,839.64,259.53z M836.12,205.03
		c2.15-10.95,0.78-18.91-4.04-18.91c-3.52,0-7.24,5.35-8.93,14.41c-2.02,10.63,0.2,18.78,4.37,18.78
		C831.1,219.3,834.43,213.57,836.12,205.03z"/>
	<path class="st1" d="M871.92,153.19l27.97-5.28c-1.7,6.39-2.67,10.17-3.91,16.56l-10.5,52.75c-2.15,10.95-1.7,12.97-0.2,12.97
		c1.3,0,4.43-1.96,9.32-6.65l1.7,5.15c-5.28,7.37-12.78,13.63-21.91,13.63c-7.63,0-11.87-4.43-10.5-11.15l13.43-65.4
		c0.52-2.48,0.52-4.3-1.24-5.35l-5.02-3.06L871.92,153.19z"/>
	<path class="st1" d="M901.92,209c3.65-18.65,17.28-30.97,34.1-30.97c12.26,0,18.13,7.17,16.69,14.28
		c-1.5,7.5-7.89,13.17-23.86,16.82l-8.08,1.89c-0.78,11.93,2.28,18.19,7.76,18.19c3.59,0,10.5-2.93,19.69-8.87l2.41,4.89
		c-12.06,11.8-22.23,17.08-30.77,17.08C906.15,242.32,897.94,228.76,901.92,209z M926.24,203c6.26-1.5,10.56-5.28,11.48-9.91
		c0.78-3.85-1.37-7.04-4.7-7.04c-3.72,0-8.93,3.91-11.21,16.69c-0.07,0.46-0.13,0.98-0.26,1.43L926.24,203z"/>
</g>
<g>
	<path class="st1" d="M139.87,263.19c2.8,0.65,6.65,1.11,13.5,1.11h49.88c6.78,0,10.82-0.46,13.89-1.11l-7.43,24.65h-7.37l1.11-6.91
		c1.11-6.91,0.13-8.21-8.15-8.21h-10.11l-12.39,62.27c-0.85,4.3-0.13,6,3.78,6.26l4.89,0.33l-1.17,5.87h-40.03l1.17-5.87l5.15-0.33
		c4.04-0.26,5.28-1.96,6.13-6.26l12.39-62.27h-10.43c-7.17,0-8.8,1.3-11.54,7.5l-3.39,7.63h-7.37L139.87,263.19z"/>
	<path class="st1" d="M204.16,315.94c3.65-18.65,17.28-30.97,34.1-30.97c12.26,0,18.13,7.17,16.69,14.28
		c-1.5,7.5-7.89,13.17-23.86,16.82l-8.08,1.89c-0.78,11.93,2.28,18.19,7.76,18.19c3.59,0,10.5-2.93,19.69-8.87l2.41,4.89
		c-12.06,11.8-22.23,17.08-30.77,17.08C208.4,349.26,200.19,335.69,204.16,315.94z M228.49,309.94c6.26-1.5,10.56-5.28,11.48-9.91
		c0.78-3.85-1.37-7.04-4.7-7.04c-3.72,0-8.93,3.91-11.21,16.69c-0.07,0.46-0.13,0.98-0.26,1.43L228.49,309.94z"/>
	<path class="st1" d="M257.7,347.37c3.26-8.48,5.93-20.99,10.43-43.49l6.19-31.17c0.52-2.48,0.46-4.3-1.24-5.35l-5.15-3.06
		l0.85-4.17l28.23-5.28c-1.7,6.39-2.54,10.17-3.98,16.56l-1.43,6.26c-2.87,12.45-3.52,14.47-6.19,23.28l0.52,0.13
		c8.93-11.02,17.41-16.1,25.49-16.1c8.67,0,13.69,5.8,12.13,14.02c-1.5,7.76-8.08,13.95-20.73,18.71v0.33
		c2.15,2.02,4.3,5.28,9.06,16.5c0.85,2.02,1.5,2.35,2.22,2.35c1.43,0,3.65-1.17,9.06-6.39l1.63,5.15
		c-8.35,11.21-16.3,13.63-21.91,13.63c-5.54,0-7.82-2.35-10.69-12.91c-2.09-7.76-3.2-12.19-5.35-14.8l0.85-3.65
		c12.19-4.96,16.04-8.61,17.08-13.43c0.65-3.13-0.33-6-3.85-6c-3.65,0-7.89,2.41-12.52,7.3c-3,3.13-3.78,4.63-4.43,8.48
		c-1.3,7.63-3.46,20.21-5.02,27.25c-0.98,4.37-6,7.63-14.6,7.63c-1.83,0-3.78-0.13-5.93-0.46L257.7,347.37z"/>
	<path class="st1" d="M331.97,347.37c3.2-9.26,4.43-12.97,6.46-23.15c3.91-19.89,3.85-26.08,1.04-26.08c-1.7,0-4.43,2.22-8.02,5.61
		l-1.7-5.09c5.28-7.43,13.3-13.69,21.39-13.69c5.22,0,9.06,1.83,10.82,5.08c-0.98,6.19-3.46,13.17-4.96,18.84l0.65,0.2
		c8.87-16.69,18.06-24.12,29.08-24.12c8.48,0,11.54,6.26,9.71,14.87l-5.22,24.32c-2.35,10.95-1.69,12.97-0.06,12.97
		c1.43,0,3-1.11,9.19-6.65l1.7,5.15c-5.28,7.37-12.78,13.63-21.91,13.63c-7.63,0-11.8-4.43-10.3-11.15l6.59-30.06
		c1.37-6.33,0.59-8.15-1.5-8.15c-3.39,0-9.65,6.26-15.32,14.21c-1.96,2.74-2.67,4.63-3.06,7.37c-0.78,5.48-1.7,11.74-3.65,20.02
		c-1.04,4.37-5.8,7.63-14.28,7.63c-1.83,0-3.78-0.13-5.93-0.46L331.97,347.37z"/>
	<path class="st1" d="M407.86,315.03c3.85-19.04,17.54-30.06,33.9-30.06c18.06,0,29.27,13.43,25.1,34.23
		c-3.78,19.1-17.47,30.06-33.84,30.06C414.91,349.26,403.76,335.83,407.86,315.03z M446.72,318.29c2.48-16.43,0.52-25.17-5.41-25.17
		c-5.08,0-11.02,8.67-13.24,22.82c-2.48,16.43-0.52,25.17,5.93,25.17C438.57,341.11,444.51,332.43,446.72,318.29z"/>
	<path class="st1" d="M489.24,341.56l5.15-0.33c4.04-0.26,5.28-1.96,6.13-6.26l11.67-58.22c0.85-4.3,0.13-6-3.78-6.26l-4.89-0.33
		l1.17-5.87h15.78c8.48,0,17.15-0.13,26.54-0.13c18.13,0,26.28,8.02,23.21,23.15c-3.85,18.97-22.23,28.62-41.27,27.58l1.17-5.93
		c9.78-2.09,15.13-7.95,17.34-18.97c2.28-11.41-0.33-17.34-10.89-17.34c-1.04,0-2.28,0.07-3.52,0.2l-12.32,61.62
		c-1.17,5.74,1.24,6.78,8.08,6.98l4.89,0.13l-1.17,5.87h-44.47L489.24,341.56z"/>
	<path class="st1" d="M570.03,318.09c3.91-19.76,17.34-33.12,37.36-33.12c4.17,0,9.45,0.85,14.15,2.28
		c1.17,0.33,1.76,0.52,2.41,0.52c1.17,0,1.56-0.46,2.15-2.61l1.04-3.52l6.91,1.37c-2.22,6.85-3.98,12.65-5.48,19.49l-2.22,10.37
		c-3.72,16.95-3.72,24.25-0.98,24.25c1.63,0,3.65-1.43,9.91-6.65l1.7,5.15c-6.33,8.8-14.08,13.63-21.91,13.63
		c-8.93,0-12.91-4.69-6.58-26.86l-0.72-0.13c-8.74,18.26-17.93,26.99-26.6,26.99C571.01,349.26,566.31,336.48,570.03,318.09z
		 M601.39,322.85c4.37-6.98,7.17-13.89,9.45-21.58l0.59-1.96c1.04-3.39-3-6.19-8.8-6.19c-6.85,0-10.82,5.67-13.43,18.58
		c-3.06,14.93-0.65,21.71,2.35,21.71C593.7,333.41,597.02,329.83,601.39,322.85z"/>
	<path class="st1" d="M641.75,347.37c3.2-9.26,4.43-12.97,6.46-23.15c3.91-19.89,3.85-26.08,1.04-26.08c-1.7,0-4.43,2.22-8.02,5.61
		l-1.7-5.09c5.28-7.43,13.3-13.69,21.39-13.69c5.22,0,8.35,1.83,10.11,5.08c-0.85,6.19-2.93,13.89-4.56,19.56l0.65,0.2
		c8.08-18.06,14.41-24.84,21.71-24.84c5.22,0,7.82,3.39,6.72,8.74c-0.85,4.3-4.43,9.65-8.35,12c-3.52-2.54-4.76-4.04-6.39-4.04
		c-2.09,0-6.13,3.91-12.39,15.39c-1.37,2.41-2.02,4.69-2.48,7.37c-0.78,4.76-1.63,10.24-3.26,17.08c-1.04,4.37-5.8,7.63-14.28,7.63
		c-1.83,0-3.78-0.13-5.93-0.46L641.75,347.37z"/>
	<path class="st1" d="M697.37,333.87l8.87-38.73h-8.35l1.24-6.52l5.22-0.85c2.67-0.46,3.33-0.98,3.78-2.87l1.83-7.56
		c1.24-5.22,4.63-8.35,9.91-8.35c5.87,0,8.8,3.91,7.43,9.91l-1.83,7.89h14.15l-1.11,5.93c-1.24,1.76-4.56,2.41-11.21,2.41h-3.46
		l-6.06,29.54c-1.76,8.67-1.56,11.61,0.65,11.61c3.26,0,9.13-4.3,14.08-8.08l2.15,5.02c-6.39,9.19-15.52,16.04-25.95,16.04
		C699.52,349.26,694.89,344.5,697.37,333.87z"/>
	<path class="st1" d="M744.45,338.11l5.74-27.97c2.28-10.89,1.69-13.04,0.33-13.04c-1.56,0-4.69,2.35-9.45,6.65l-1.7-5.09
		c5.28-7.43,13.3-13.69,21.39-13.69c6.06,0,10.69,3,11.61,7.63l-6.52,31.56c-2.22,10.95-1.7,12.97-0.2,12.97
		c1.43,0,4.17-1.63,9.39-6.65l1.7,5.15c-5.28,7.37-12.84,13.63-21.91,13.63C747.12,349.26,743.01,344.82,744.45,338.11z
		 M757.29,265.54c1.11-5.48,5.28-9.58,10.95-9.58c6.13,0,9.78,4.82,8.41,11.61c-1.11,5.41-5.22,9.45-10.82,9.45
		C759.32,277.01,756.12,271.54,757.29,265.54z"/>
	<path class="st1" d="M782.33,315.94c3.65-18.65,17.28-30.97,34.1-30.97c12.26,0,18.13,7.17,16.69,14.28
		c-1.5,7.5-7.89,13.17-23.86,16.82l-8.08,1.89c-0.78,11.93,2.28,18.19,7.76,18.19c3.59,0,10.5-2.93,19.69-8.87l2.41,4.89
		c-12.06,11.8-22.23,17.08-30.78,17.08C786.57,349.26,778.36,335.69,782.33,315.94z M806.65,309.94c6.26-1.5,10.56-5.28,11.48-9.91
		c0.78-3.85-1.37-7.04-4.69-7.04c-3.72,0-8.93,3.91-11.21,16.69c-0.06,0.46-0.13,0.98-0.26,1.43L806.65,309.94z"/>
	<path class="st1" d="M836.58,336.54c0.65-3.46,2.93-5.41,6.32-6.98c6.06,8.02,10.95,9.65,14.61,9.65c3.98,0,6.46-2.28,7.04-5.35
		c0.59-2.93-0.59-5.54-8.61-10.43c-11.02-6.72-14.6-12.45-12.84-20.93c1.76-8.61,12.45-17.54,27.06-17.54
		c8.93,0,15.52,4.43,14.41,10.17c-0.72,3.59-3.65,6.98-7.43,7.76c-5.35-5.93-10.17-9.06-13.82-9.06c-2.28,0-4.17,1.24-4.69,3.65
		c-0.59,3,0.85,5.54,9.32,10.63c11.41,6.85,14.61,11.74,13.04,19.63c-2.61,13.04-14.54,21.52-28.23,21.52
		C842.91,349.26,835.21,343.91,836.58,336.54z"/>
</g>
<g>
	<path class="st1" d="M161.07,454.37l1.17-5.87l5.15-0.33c4.04-0.26,5.28-1.96,6.13-6.26l11.67-58.22c0.85-4.3,0.13-6-3.78-6.26
		l-4.89-0.33l1.17-5.87h10.04c9.65,0,20.6-0.26,31.23-0.26c29.47,0,39.97,15.71,34.56,42.9c-5.28,26.8-23.6,40.49-52.42,40.49
		H161.07z M194.45,437.61c-1.24,6.06,1.24,8.35,8.74,8.35c11.54,0,22.69-10.3,27.06-32.14c4.89-24.45-2.41-34.43-21.39-34.43
		c-0.85,0-1.83,0.06-2.8,0.13L194.45,437.61z"/>
	<path class="st1" d="M259.39,454.3c3.2-9.26,4.43-12.97,6.46-23.15c3.91-19.89,3.85-26.08,1.04-26.08c-1.7,0-4.43,2.22-8.02,5.61
		l-1.7-5.09c5.28-7.43,13.3-13.69,21.39-13.69c5.22,0,8.35,1.83,10.11,5.08c-0.85,6.19-2.93,13.89-4.56,19.56l0.65,0.2
		c8.08-18.06,14.41-24.84,21.71-24.84c5.22,0,7.82,3.39,6.72,8.74c-0.85,4.3-4.43,9.65-8.35,12c-3.52-2.54-4.76-4.04-6.39-4.04
		c-2.09,0-6.13,3.91-12.39,15.39c-1.37,2.41-2.02,4.69-2.48,7.37c-0.78,4.76-1.63,10.24-3.26,17.08c-1.04,4.37-5.8,7.63-14.28,7.63
		c-1.83,0-3.78-0.13-5.93-0.46L259.39,454.3z"/>
	<path class="st1" d="M311.75,422.88c3.65-18.65,17.28-30.97,34.1-30.97c12.26,0,18.13,7.17,16.69,14.28
		c-1.5,7.5-7.89,13.17-23.86,16.82l-8.08,1.89c-0.78,11.93,2.28,18.19,7.76,18.19c3.59,0,10.5-2.93,19.69-8.87l2.41,4.89
		c-12.06,11.8-22.23,17.08-30.77,17.08C315.99,456.19,307.78,442.63,311.75,422.88z M336.07,416.88c6.26-1.5,10.56-5.28,11.48-9.91
		c0.78-3.85-1.37-7.04-4.7-7.04c-3.72,0-8.93,3.91-11.21,16.69c-0.07,0.46-0.13,0.98-0.26,1.43L336.07,416.88z"/>
	<path class="st1" d="M369.13,425.03c3.91-19.76,17.34-33.12,37.36-33.12c4.17,0,9.45,0.85,14.15,2.28
		c1.17,0.33,1.76,0.52,2.41,0.52c1.17,0,1.56-0.46,2.15-2.61l1.04-3.52l6.91,1.37c-2.22,6.85-3.98,12.65-5.48,19.49l-2.22,10.37
		c-3.72,16.95-3.72,24.25-0.98,24.25c1.63,0,3.65-1.43,9.91-6.65l1.7,5.15c-6.32,8.8-14.08,13.63-21.91,13.63
		c-8.93,0-12.91-4.69-6.58-26.86l-0.72-0.13c-8.74,18.26-17.93,26.99-26.6,26.99C370.11,456.19,365.42,443.41,369.13,425.03z
		 M400.49,429.79c4.37-6.98,7.17-13.89,9.45-21.58l0.59-1.96c1.04-3.39-3-6.19-8.8-6.19c-6.85,0-10.82,5.67-13.43,18.58
		c-3.06,14.93-0.65,21.71,2.35,21.71C392.8,440.35,396.13,436.76,400.49,429.79z"/>
	<path class="st1" d="M440.86,454.3c3.19-9.26,4.43-12.97,6.46-23.15c3.91-19.89,3.85-26.08,1.04-26.08c-1.7,0-4.43,2.22-8.02,5.61
		l-1.7-5.09c5.28-7.43,13.3-13.69,21.39-13.69c5.22,0,8.35,1.83,10.11,5.08c-0.72,6.19-2.54,13.04-4.04,18.71l0.65,0.26
		c8.48-17.41,15.58-24.06,25.95-24.06c7.95,0,12.39,5.93,10.11,13.69l-3,10.17l0.65,0.26c8.87-16.63,17.67-24.12,28.1-24.12
		c8.61,0,11.54,6.26,9.71,14.87l-5.22,24.32c-2.35,10.95-1.63,12.97-0.2,12.97c1.63,0,2.74-0.78,9.39-6.65l1.69,5.15
		c-5.28,7.37-12.84,13.63-21.91,13.63c-7.95,0-11.87-4.43-10.37-11.15l6.59-30.06c1.37-6.33,0.46-8.15-1.3-8.15
		c-3,0-7.82,4.76-14.87,14.21c-1.7,2.28-2.35,4.04-2.67,6.58c-0.98,6.98-1.7,13.89-3.33,20.8c-1.04,4.37-5.8,7.63-14.28,7.63
		c-1.83,0-3.78-0.13-5.93-0.46l-0.72-1.3c3.26-9.39,5.02-18.58,6.98-28.36c3.19-15.91,2.93-19.1,0.33-19.1
		c-2.35,0-6.78,3.19-14.21,14.08c-1.7,2.41-2.54,5.15-2.8,7.5c-0.59,5.48-1.7,11.74-3.65,20.02c-1.04,4.37-5.8,7.63-14.28,7.63
		c-1.83,0-3.78-0.13-5.93-0.46L440.86,454.3z"/>
	<path class="st1" d="M546.69,443.48c0.65-3.46,2.93-5.41,6.32-6.98c6.06,8.02,10.95,9.65,14.61,9.65c3.98,0,6.46-2.28,7.04-5.35
		c0.59-2.93-0.59-5.54-8.61-10.43c-11.02-6.72-14.6-12.45-12.84-20.93c1.76-8.61,12.45-17.54,27.06-17.54
		c8.93,0,15.52,4.43,14.41,10.17c-0.72,3.59-3.65,6.98-7.43,7.76c-5.35-5.93-10.17-9.06-13.82-9.06c-2.28,0-4.17,1.24-4.69,3.65
		c-0.59,3,0.85,5.54,9.32,10.63c11.41,6.85,14.61,11.74,13.04,19.63c-2.61,13.04-14.54,21.52-28.23,21.52
		C553.01,456.19,545.32,450.85,546.69,443.48z"/>
	<path class="st1" d="M601,421.83c4.56-19.17,19.89-29.93,35.4-29.93c10.17,0,16.5,4.37,15.06,10.17c-0.85,3.46-4.37,6.72-8.74,7.56
		c-7.17-6.65-10.56-8.28-12.39-8.28c-3.46,0-6.72,4.89-8.93,14.41c-3.26,14.02-0.78,27.32,6.91,27.32c3.46,0,10.5-3.46,18.06-8.48
		l2.41,4.83c-9.32,10.37-20.73,16.76-30.19,16.76C605.57,456.19,595.98,442.57,601,421.83z"/>
	<path class="st1" d="M655.84,425.03c3.91-19.76,17.34-33.12,37.36-33.12c4.17,0,9.45,0.85,14.15,2.28
		c1.17,0.33,1.76,0.52,2.41,0.52c1.17,0,1.56-0.46,2.15-2.61l1.04-3.52l6.91,1.37c-2.22,6.85-3.98,12.65-5.48,19.49l-2.22,10.37
		c-3.72,16.95-3.72,24.25-0.98,24.25c1.63,0,3.65-1.43,9.91-6.65l1.7,5.15c-6.32,8.8-14.08,13.63-21.91,13.63
		c-8.93,0-12.91-4.69-6.58-26.86l-0.72-0.13c-8.74,18.26-17.93,26.99-26.6,26.99C656.82,456.19,652.12,443.41,655.84,425.03z
		 M687.2,429.79c4.37-6.98,7.17-13.89,9.45-21.58l0.59-1.96c1.04-3.39-3-6.19-8.8-6.19c-6.85,0-10.82,5.67-13.43,18.58
		c-3.06,14.93-0.65,21.71,2.35,21.71C679.51,440.35,682.83,436.76,687.2,429.79z"/>
	<path class="st1" d="M713.61,485.47l1.3-5.74l4.24-0.33c2.87-0.2,4.04-0.98,4.83-4.96l11.74-58.81c-3.2,1.7-6.65,3.59-10.37,5.8
		l-1.04-5.87c5.02-3,9.32-5.48,13.04-7.5l4.5-23.8c1.11-5.93,5.87-8.35,10.37-8.35c5.87,0,9.19,3.91,7.82,9.91l-3.19,13.95
		c7.95-5.41,13.11-7.82,19.17-7.82c11.15,0,16.56,9.98,13.11,27.12c-5.41,26.54-25.43,37.49-32.14,37.49
		c-7.89,0-10.3-7.76-4.04-13.43c2.74,1.63,4.96,3,7.43,3c2.22,0,6.19-6.46,8.8-19.37c3-14.87,0.98-22.3-6.65-22.3
		c-2.15,0-4.11,0.59-6.98,1.96l-12.52,66.18c-1.11,5.87-0.39,6.98,4.56,7.04l6.06,0.07l-1.17,5.74H713.61z"/>
	<path class="st1" d="M796.74,422.88c3.65-18.65,17.28-30.97,34.1-30.97c12.26,0,18.13,7.17,16.69,14.28
		c-1.5,7.5-7.89,13.17-23.86,16.82l-8.08,1.89c-0.78,11.93,2.28,18.19,7.76,18.19c3.59,0,10.5-2.93,19.69-8.87l2.41,4.89
		c-12.06,11.8-22.23,17.08-30.78,17.08C800.98,456.19,792.77,442.63,796.74,422.88z M821.06,416.88c6.26-1.5,10.56-5.28,11.48-9.91
		c0.78-3.85-1.37-7.04-4.69-7.04c-3.72,0-8.93,3.91-11.21,16.69c-0.06,0.46-0.13,0.98-0.26,1.43L821.06,416.88z"/>
</g>
<path class="st1" d="M238.53,555.31l4.69-0.52c5.22-0.59,6.78-2.41,7.82-9l5.87-37.49c0.78-5.02-0.46-7.04-4.76-7.3l-5.87-0.33v-6
	h30.38c0.46,1.11,3.13,7.82,4.3,10.76l10.37,25.69h0.13l12.97-36.45h29.28v6l-6.06,0.2c-2.87,0.07-4.04,0.91-3.39,5.48l6.06,41.53
	c0.85,5.87,2.02,7.11,7.24,7.3l3.13,0.13v6h-37.16v-6l4.3-0.39c3.46-0.33,4.11-1.5,3.52-5.93l-4.96-36.84h-0.13l-15.19,40.69h-11.15
	l-15.71-39.77h-0.2l-4.3,33.38c-0.91,6.91,0.33,8.28,5.8,8.61l4.24,0.26v6h-31.23V555.31z M385.37,492.71
	c9.65,0,14.67,2.02,19.82,2.15l2.54,21.78h-7.11l-1.04-2.93c-3.46-9.65-7.37-13.11-16.04-13.11c-12.39,0-17.73,10.82-17.73,26.54
	c0,17.93,6.91,28.3,18.26,28.3c7.89,0,12-3.72,15.78-13.3l1.43-3.65h7.11l-3.26,20.08c-5.8,2.61-14.93,4.69-24.12,4.69
	c-23.34,0-35.73-11.87-35.73-33.38C345.27,506.99,361.44,492.71,385.37,492.71z M413.41,555.31l4.69-0.52
	c5.22-0.59,6.78-2.41,7.82-9l5.87-37.49c0.78-5.02-0.46-7.04-4.76-7.3l-5.87-0.33v-6h30.38c0.46,1.11,3.13,7.82,4.3,10.76
	l10.37,25.69h0.13l12.97-36.45h29.28v6l-6.06,0.2c-2.87,0.07-4.04,0.91-3.39,5.48l6.06,41.53c0.85,5.87,2.02,7.11,7.24,7.3
	l3.13,0.13v6h-37.16v-6l4.3-0.39c3.46-0.33,4.11-1.5,3.52-5.93l-4.96-36.84h-0.13l-15.19,40.69h-11.15l-15.71-39.77h-0.2l-4.3,33.38
	c-0.91,6.91,0.33,8.28,5.8,8.61l4.24,0.26v6h-31.23V555.31z M558.82,561.31v-6l3.98-0.39c3.46-0.33,4.11-2.54,2.22-5.02
	l-10.11-13.24l-4.17,4.89c-3.52,4.17-6.06,7.95-6.06,10.24c0,1.76,1.5,3,4.63,3.26l3.33,0.26v6h-32.86v-6l2.8-0.39
	c5.87-0.85,9.45-3.98,19.17-14.54l8.74-9.52l-17.41-22.82c-4.11-5.41-7.24-6.78-11.41-7.17l-1.96-0.2v-6h41.53v6l-3.98,0.39
	c-3.46,0.33-4.11,2.54-2.22,5.02l9.19,12.06l3.13-3.72c3.52-4.17,6.06-7.95,6.06-10.24c0-1.76-1.5-3-4.63-3.26l-3.33-0.26v-6h32.86
	v6l-2.8,0.39c-5.87,0.85-9.45,3.85-18.19,13.43l-8.67,9.45l18.32,23.99c4.11,5.41,7.17,6.78,11.34,7.17l2.02,0.2v6H558.82z
	 M640.46,492.71c9.65,0,14.67,2.02,19.82,2.15l2.54,21.78h-7.11l-1.04-2.93c-3.46-9.65-7.37-13.11-16.04-13.11
	c-12.39,0-17.73,10.82-17.73,26.54c0,17.93,6.91,28.3,18.26,28.3c7.89,0,12-3.72,15.78-13.3l1.43-3.65h7.11l-3.26,20.08
	c-5.8,2.61-14.93,4.69-24.12,4.69c-23.34,0-35.73-11.87-35.73-33.38C600.36,506.99,616.53,492.71,640.46,492.71z M673.39,555.31
	l3.85-0.26c3.65-0.26,4.43-1.37,4.43-5.54v-43.03c0-4.17-0.78-5.28-4.43-5.54l-3.85-0.26v-6h35.66v6l-3.85,0.26
	c-3.65,0.26-4.43,1.37-4.43,5.54v43.03c0,4.17,0.78,5.28,4.43,5.54l3.85,0.26v6h-35.66V555.31z M720.6,555.31l3.85-0.26
	c3.65-0.26,4.43-1.37,4.43-5.54v-43.03c0-4.17-0.78-5.28-4.43-5.54l-3.85-0.26v-6h35.66v6l-3.85,0.26
	c-3.65,0.26-4.43,1.37-4.43,5.54v43.03c0,4.17,0.78,5.28,4.43,5.54l3.85,0.26v6H720.6V555.31z"/>
</svg>
