<?xml version="1.0" encoding="utf-8"?>
<!-- Generator: Adobe Illustrator 27.4.0, SVG Export Plug-In . SVG Version: 6.00 Build 0)  -->
<svg version="1.1" id="Layer_1" xmlns="http://www.w3.org/2000/svg" xmlns:xlink="http://www.w3.org/1999/xlink" x="0px" y="0px"
	 viewBox="0 0 1000 606.06" style="enable-background:new 0 0 1000 606.06;" xml:space="preserve">
<style type="text/css">
	.st0{fill:#1D1D1B;}
	.st1{fill:#87CAFB;}
	.st2{fill:#1F8AFB;}
	.st3{fill:#FFFFFF;}
</style>
<rect x="0" y="0" class="st1" width="1000" height="606.06"/>
<g>
	<path class="st2" d="M93.2,137.16c-5.12,13.6-6.62,19.29-6.62,23.01c0,4.01,2.05,6.24,7.92,6.43l10.62,0.37v8.94H53.04v-8.94
		l3.73-0.28c5.59-0.47,9.41-1.68,16.3-18.54l36.8-91.03h23.48l37.08,95.96c4.19,10.9,6.89,13.23,14.16,13.7l3.17,0.19v8.94h-66.43
		v-8.94l13.32-1.4c4.94-0.56,6.33-4.19,4.57-8.94l-7.45-19.47H93.2z M126.84,124.12l-14.25-37.27h-0.37l-14.07,37.27H126.84z"/>
	<path class="st2" d="M200.25,175.92v-8.94l7.55-0.65c5.96-0.56,7.45-2.61,7.45-8.76V75.48c0-6.15-1.49-8.2-7.45-8.76l-7.55-0.65
		v-8.94h26.27c16.21,0,25.25-0.65,39.78-0.65c25.62,0,34.01,10.71,34.01,26.65c0,13.98-10.81,26.65-25.62,30.09v0.75
		c20.96,1.77,32.98,12.11,32.98,28.32c0,23.95-17.42,33.63-52.17,33.63H200.25z M245.44,107.53c3.54,0.47,8.57,0.84,11.27,0.84
		c6.52,0,14.63-6.61,14.63-20.87c0-14.07-4.1-17.98-16.58-17.98c-2.7,0-5.78,0.19-9.32,0.47V107.53z M245.44,155.42
		c0,6.15,2.52,7.73,10.62,7.73c14.63,0,20.78-6.15,20.78-22.17c0-13.04-9.13-20.59-25.25-20.59c-1.49,0-3.63,0.09-6.15,0.28V155.42z
		"/>
	<path class="st2" d="M384.44,53.77c18.17,0,27.21,3.54,35.78,3.63l4.47,34.75h-10.71l-2.7-6.24c-5.96-13.7-14.44-19.75-27.67-19.75
		c-23.39,0-33.73,20.12-33.73,51.9c0,29.25,12.95,48.82,34.1,48.82c14.35,0,20.96-5.31,28.6-23.2l3.07-7.17h10.71l-6.15,34.47
		c-9.78,4.66-24.78,8.29-40.72,8.29c-38.67,0-63.26-21.43-63.26-59.54C316.24,79.49,343.82,53.77,384.44,53.77z"/>
	<path class="st2" d="M439.97,175.92v-8.94l7.55-0.65c5.96-0.56,7.45-2.61,7.45-8.76V75.48c0-6.15-1.49-8.2-7.45-8.76l-7.55-0.65
		v-8.94h26.27c15.09,0,30.65-0.56,45.75-0.56c37.73,0,55.62,18.45,55.62,55.9c0,39.5-25.34,63.36-62.61,63.82
		c-17.89,0.19-30.37-0.37-48.45-0.37H439.97z M485.25,153.37c0,6.99,2.14,9.88,11.27,9.88c20.4,0,38.48-11.27,38.48-46.49
		c0-34.19-14.91-47.05-39.97-47.05c-3.63,0-6.99,0.09-9.78,0.19V153.37z"/>
	<path class="st2" d="M581.21,166.98l7.55-0.65c5.96-0.56,7.45-2.61,7.45-8.76V75.48c0-6.15-1.49-8.2-7.45-8.76l-7.55-0.65v-8.94
		h74.07c10.34,0,17.14-0.65,21.52-1.58l-0.47,29.81h-10.53v-5.5c0-8.29-3.08-9.69-21.99-9.69H626.4v37.08h24.78
		c8.01,0,8.11-1.03,9.32-6.34l1.03-4.57h9.6v34.85h-9.6l-1.03-4.57c-1.21-5.31-1.3-6.34-9.32-6.34H626.4v30.75
		c0,9.22,2.14,11.83,17.52,11.83c21.34,0,25.34-2.05,28.6-14.35l2.33-8.76h10.71l-4.38,36.15h-99.97V166.98z"/>
	<path class="st2" d="M696,166.98l7.55-0.65c5.96-0.56,7.45-2.61,7.45-8.76V75.48c0-6.15-1.49-8.2-7.45-8.76L696,66.07v-8.94h72.21
		c10.34,0,17.14-0.65,21.52-1.58l-0.47,29.81h-10.53v-5.5c0-8.29-3.07-9.69-21.99-9.69h-15.56v37.08h22.92
		c8.01,0,8.11-1.03,9.32-6.34l1.02-4.57h9.6v34.85h-9.6l-1.02-4.57c-1.21-5.31-1.3-6.34-9.32-6.34h-22.92v33.26
		c0,10.06,1.49,12.21,11.55,12.86l9.04,0.56v8.94H696V166.98z"/>
	<path class="st2" d="M799.51,120.02c0-41.37,28.6-66.24,71.93-66.24c15.84,0,26.46,3.54,35.03,3.63l4.47,34.75h-10.71l-2.7-6.24
		c-5.96-13.7-14.44-19.75-28.98-19.75c-23.67,0-36.52,17.7-36.52,51.43c0,32.42,12.02,49.19,37.36,49.19
		c11.46,0,15.28-3.17,15.28-11.37v-15.56c0-9.5-2.05-10.81-13.7-10.62l-11.18,0.19v-12.48h54.88c-1.21,6.52-2.14,14.72-2.14,31.21
		v23.2c-17.98,4.84-36.43,7.92-51.99,7.92C823.08,179.27,799.51,159.62,799.51,120.02z"/>
</g>
<g>
	<path class="st2" d="M57.89,336.92l9.04-0.56c10.06-0.65,11.55-2.8,11.55-12.86v-73.42c0-4.66-1.68-6.24-5.12-6.24
		c-0.75,0-1.58,0.09-2.52,0.19l-12.3,1.68l-1.4-8.57l49.66-13.42c-0.28,10.16-0.65,20.22-0.65,30.56v69.23
		c0,10.06,1.49,12.21,11.55,12.86l9.04,0.56v8.94H57.89V336.92z"/>
	<path class="st2" d="M134.1,341.02l18.08-25.25c23.39-32.61,29.07-43.79,29.07-55.06c0-11.46-7.36-16.96-15.84-16.96
		c-7.83,0-14.63,4.75-20.96,14.81l-8.01-4.29c6.24-19.19,21.8-30.56,41.65-30.56c18.35,0,32.42,10.9,32.42,29.26
		c0,13.23-8.94,25.62-31.58,51.62L160,326.3l0.19,0.65l34.75-0.84c7.27-0.19,9.6-0.65,12.02-9.78l2.05-7.64h10.71l-4.38,37.17H134.1
		V341.02z"/>
	<path class="st2" d="M228.57,331.88c0-6.15,3.91-11.27,9.69-12.86c11.09,12.67,16.96,16.58,24.6,16.58
		c9.41,0,17.42-7.45,17.42-20.5c0-11.74-8.85-18.08-29.54-18.08l-0.93-2.89l9.78-11.09c11.27-12.76,14.91-19.38,14.91-26.74
		c0-7.55-5.5-12.67-13.51-12.67c-7.83,0-13.32,4.29-19.19,14.81l-7.92-4.19c5.78-19.85,19.38-30.56,38.76-30.56
		c18.26,0,30.47,10.44,30.47,25.81c0,10.25-6.71,19.19-24.97,30.65v0.37c19.84,2.05,32.52,11.74,32.52,28.14
		c0,23.76-28.23,40.53-53.67,40.53C238.17,349.22,228.57,342.23,228.57,331.88z"/>
	<path class="st2" d="M355,345.86v-8.94l7.55-0.65c5.96-0.56,7.55-2.61,7.55-8.76v-15.28h-44.07l-2.7-8.11l45.56-67.64
		c6.52-9.6,10.43-12.76,16.49-12.76c7.27,0,12.3,4.57,12.3,12.21v57.02h19.19l-2.61,16.49c-1.58,2.05-6.43,2.79-16.58,2.79v15.28
		c0,6.15,1.49,8.2,7.45,8.76l7.55,0.65v8.94H355z M345.49,293.31h24.97l0.28-39.04h-0.65l-24.88,38.57L345.49,293.31z"/>
	<path class="st2" d="M423.29,331.88c0-6.34,4.19-11.74,9.69-12.86c10.06,12.21,16.68,16.58,25.25,16.58
		c9.13,0,16.77-8.66,16.77-21.89c0-15.75-11.83-23.39-41.65-22.17l6.52-64.47h60.75l-1.49,14.81c-1.86,2.98-9.41,5.78-23.38,5.78
		h-21.99l-2.89,20.96c35.22,0.28,53.11,10.99,53.11,35.59c0,24.69-21.9,45-51.15,45C434.75,349.22,423.29,342.13,423.29,331.88z"/>
	<path class="st2" d="M600.03,224.65l1.12,9.22c-39.78,11.55-53.11,35.22-53.11,65.13c0,22.08,8.48,37.27,19.66,37.27
		c7.73,0,13.51-7.55,13.51-21.71c0-15.65-8.01-26.93-18.26-26.93c-1.96,0-4.47,0.56-6.24,1.03l-1.77-6.99
		c5.5-4.47,14.81-7.64,24.22-7.64c19.57,0,32.24,12.67,32.24,31.96c0,25.99-20.96,43.23-48.63,43.23
		c-28.23,0-46.12-23.29-46.12-50.87C516.64,260.61,544.5,230.42,600.03,224.65z"/>
	<path class="st2" d="M631.43,335.24l48.45-87.02v-0.37h-32.7c-10.9,0-12.76,1.12-13.79,7.55l-0.75,4.75h-10.62l3.54-34.66
		c5.78,1.12,10.99,1.58,22.27,1.58h59.91v5.22l-54.04,112.27c-1.49,3.08-4.01,4.57-7.45,4.57
		C639.16,349.12,626.77,343.53,631.43,335.24z"/>
	<path class="st2" d="M716.3,321.36c0-13.88,11.18-25.25,26.09-31.4v-0.19c-14.81-9.6-23.39-20.31-23.39-32.52
		c0-18.45,17.33-33.54,43.6-33.54c21.15,0,37.45,11.65,37.45,27.3c0,11.37-8.29,22.17-21.71,28.04v0.19
		c17.79,10.9,24.69,21.43,24.69,34.47c0,21.15-19.1,35.5-46.86,35.5C732.89,349.22,716.3,338.13,716.3,321.36z M771.83,322.01
		c0-8.76-3.63-15.47-19.84-25.9c-5.4,5.96-9.88,13.79-9.88,21.99c0,11.18,6.89,18.82,15.93,18.82
		C766.05,336.92,771.83,330.77,771.83,322.01z M776.4,250.64c0-10.16-6.62-14.63-13.51-14.63c-7.08,0-11.83,5.4-11.83,12.48
		c0,8.11,5.4,15.84,17.14,24.13C773.69,264.8,776.4,256.98,776.4,250.64z"/>
	<path class="st2" d="M828.47,348.28l-1.12-9.22c39.78-11.55,53.11-35.22,53.11-65.13c0-22.08-8.48-37.27-19.66-37.27
		c-7.73,0-13.51,7.55-13.51,21.71c0,15.65,8.01,26.93,18.26,26.93c1.96,0,4.47-0.56,6.24-1.03l1.77,6.99
		c-5.5,4.47-14.81,7.64-24.22,7.64c-19.57,0-32.24-12.67-32.24-31.96c0-25.99,20.96-43.23,48.63-43.23
		c28.23,0,46.12,23.29,46.12,50.87C911.86,312.32,884,342.51,828.47,348.28z"/>
</g>
<g>
	<path class="st2" d="M90.22,391.98c-7.27,0.37-10.16,2.52-10.16,9.88v145.63c0,7.36,2.89,9.5,10.16,9.88l13.42,0.84l-0.47,9.22
		l-39.6-1.12V383.03l39.6-1.12l0.47,9.22L90.22,391.98z"/>
</g>
<g>
	<path class="st3" d="M118.54,469.31c6.52-27.39,28.42-42.76,50.59-42.76c14.54,0,23.57,6.24,21.52,14.53
		c-1.21,4.94-6.24,9.6-12.48,10.81c-10.25-9.5-15.09-11.83-17.7-11.83c-4.94,0-9.6,6.99-12.76,20.59
		c-4.66,20.03-1.12,39.04,9.88,39.04c4.94,0,15-4.94,25.81-12.11l3.45,6.89c-13.32,14.81-29.63,23.94-43.14,23.94
		C125.06,518.41,111.37,498.94,118.54,469.31z"/>
</g>
<g>
	<path class="st3" d="M208.92,487.29c9.22,0,15.37,6.15,15.37,15.65c0,9.22-6.15,15.47-15.37,15.47c-9.41,0-15.56-6.24-15.56-15.47
		C193.36,493.44,199.51,487.29,208.92,487.29z"/>
</g>
<path class="st3" d="M264.54,506.86l9.04-0.56c10.06-0.65,11.55-2.8,11.55-12.86v-46.59c0-4.47-1.3-6.43-4.66-6.43
	c-0.84,0-1.86,0.09-2.98,0.37l-10.16,2.14l-1.4-8.57l47.52-12.95c-0.28,10.16-0.65,20.22-0.65,30.56v41.46
	c0,10.06,1.49,12.21,11.55,12.86l9.04,0.56v8.94h-68.85V506.86z M345.31,526.7c26.37-5.87,35.5-13.14,35.5-24.78
	c0-9.6-5.5-14.35-37.83-17.33l8.76-58.32l58.23-2.7l-1.49,15.56c-1.86,2.98-9.41,6.06-23.29,6.71l-20.87,1.02l-2.7,16.49
	c41.09,2.89,51.62,11.27,51.62,27.11c0,24.5-27.21,44.26-67.92,46.96V526.7z M423.39,510.96l16.4-17.61
	c19.38-20.78,24.13-29.35,24.13-38.95c0-7.73-4.84-12.95-12.48-12.95c-6.62,0-12.76,4.19-19.57,14.81l-8.01-4.29
	c7.17-19.01,22.36-30.65,41.55-30.65c17.42,0,28.7,10.16,28.7,25.44c0,11.65-7.55,22.55-31.03,40.53l-11.65,8.94v0.65l32.8-0.84
	c8.66-0.19,9.69-1.02,12.02-9.78l2.05-7.64h10.71l-4.38,37.17h-81.24V510.96z M587.46,533.6l-27.58,6.52v-30.19h-44.07l-2.7-8.11
	l45.56-67.64c6.52-9.6,10.44-12.86,16.49-12.86c7.27,0,12.3,4.66,12.3,12.3v57.02h19.19l-2.61,16.49c-1.58,2.05-6.43,2.8-16.58,2.8
	V533.6z M535.28,491.02h24.97l0.28-39.04h-0.65l-24.88,38.57L535.28,491.02z"/>
<g>
	<path class="st3" d="M655.01,514.4c-3.73,18.54-23.39,36.71-44.16,42.76l-2.05-6.99c12.76-5.78,24.04-16.49,26.18-26.83
		c1.12-5.31-0.93-10.16-12.3-15.65c-0.19-1.68,0.19-3.73,0.37-4.94c1.49-7.64,6.89-13.79,15.47-13.79
		C650.63,488.97,657.62,501.08,655.01,514.4z"/>
</g>
<path class="st3" d="M687.52,515.8v-8.57l5.5-0.37c5.22-0.37,6.34-1.96,6.34-7.92v-61.49c0-5.96-1.12-7.55-6.34-7.92l-5.5-0.37
	v-8.57h15.75c11.74,0,25.71-0.56,40.99-0.56c21.34,0,27.95,8.94,27.95,21.71c0,11.27-9.22,21.52-21.06,24.13v0.65
	c16.77,1.21,26.74,9.5,26.74,22.17c0,19.85-14.72,27.11-43.32,27.11H687.52z M726.66,460.83c4.75,0.65,6.06,0.75,8.85,0.75
	c4.94,0,11.09-5.4,11.09-16.21c0-10.9-3.26-14.35-13.32-14.35c-1.96,0-4.1,0.19-6.62,0.37V460.83z M726.66,496.7
	c0,6.89,2.7,8.57,8.11,8.57c10.99,0,15.56-4.94,15.56-15.37c0-12.39-6.8-18.17-19.57-18.17c-1.02,0-2.24,0.09-4.1,0.28V496.7z
	 M847.31,417.79c13.79,0,20.96,2.89,28.32,3.07l3.63,31.12h-10.16l-1.49-4.19c-4.94-13.79-10.53-18.73-22.92-18.73
	c-17.7,0-25.34,15.47-25.34,37.92c0,25.62,9.88,40.44,26.09,40.44c11.27,0,17.14-5.31,22.55-19.01l2.05-5.22h10.16l-4.66,28.7
	c-8.29,3.73-21.34,6.71-34.47,6.71c-33.35,0-51.06-16.96-51.06-47.7C790.01,438.19,813.12,417.79,847.31,417.79z"/>
<g>
	<path class="st2" d="M889.79,391.14l0.47-9.22l39.6,1.12V566.3l-39.6,1.12l-0.47-9.22l13.42-0.84c7.27-0.37,10.16-2.52,10.16-9.88
		V401.85c0-7.36-2.89-9.5-10.16-9.88L889.79,391.14z"/>
</g>
</svg>
