<?xml version="1.0" encoding="utf-8"?>
<!-- Generator: Adobe Illustrator 27.4.0, SVG Export Plug-In . SVG Version: 6.00 Build 0)  -->
<svg version="1.1" id="Layer_1" xmlns="http://www.w3.org/2000/svg" xmlns:xlink="http://www.w3.org/1999/xlink" x="0px" y="0px"
	 viewBox="0 0 1000 606.06" style="enable-background:new 0 0 1000 606.06;" xml:space="preserve">
<style type="text/css">
	.st0{fill:#FF3E3E;}
	.st1{fill:#EDEDED;}
</style>
<rect class="st0" width="1000" height="606.06"/>
<g>
	<path class="st1" d="M68.66,411.01v-14.57l16.53-0.65c20.23-0.87,23.49-9.35,23.49-31.32V182.6c0-21.97-3.26-30.45-23.49-31.32
		l-16.53-0.65v-14.57h44.81c27.41,0,43.51-0.87,69.83-0.87c59.39,0,82.44,21.1,82.44,62.65c0,33.72-19.79,60.04-60.47,76.35
		l8.48,10.66c61.56,77.66,96.37,106.81,129.65,113.55l-0.87,11.96c-10.66,1.09-20.01,1.96-28.5,1.96c-43.72,0-62-18.49-107.89-79.62
		l-31.98-42.42c-4.57-5.87-7.83-7.4-15.01-7.4h-12.62v81.57c0,21.97,3.26,30.45,23.49,31.32l16.53,0.65v14.57H68.66z M146.53,263.74
		c12.83,0.44,19.36,0.87,31.98,0.87c25.45,0,48.94-27.63,48.94-59.39c0-45.03-28.06-51.77-80.92-49.81V263.74z"/>
	<path class="st1" d="M454.12,391c-27.41,20.23-39.16,25.02-51.34,25.02c-31.76,0-52.86-23.49-52.86-50.47
		c0-16.31,6.96-27.63,13.92-32.41c7.61-5.44,28.06-14.58,90.49-23.71l0.43-33.72c0.44-32.63-9.57-42.42-28.71-42.42
		c-12.4,0-22.41,4.57-26.1,8.05c-2.61,2.61-2.17,4.57,0,16.75c-8.05,6.53-19.79,11.09-27.84,11.09c-8.05,0-13.27-5.87-13.27-12.4
		c0-18.92,44.38-45.25,88.32-45.25c30.24,0,43.94,14.36,43.29,45.25l-1.96,90.06c-0.87,35.89,5.87,45.25,16.1,45.25
		c5.22,0,14.36-3.26,19.14-5.87l3.92,12.62c-18.71,10.88-32.63,17.18-42.85,17.18c-13.27,0-24.58-9.14-29.58-25.02H454.12z
		 M454.34,327.48c-13.05,0.65-42.2,6.74-55.91,11.31c-8.48,2.83-12.18,10.22-12.18,19.14c0,20.01,15.66,33.5,32.19,33.5
		c8.27,0,20.45-3.04,35.46-13.49L454.34,327.48z"/>
	<path class="st1" d="M548.96,350.54h16.53l3.48,9.57c9.35,25.89,24.8,37.42,46.12,37.42c20.88,0,36.11-14.36,36.11-33.06
		c0-22.62-14.57-30.24-48.73-43.29c-37.63-14.36-48.51-28.93-48.51-53.08c0-27.84,24.36-56.56,70.7-56.56
		c19.14,0,31.76,3.7,42.2,3.7l6.74,51.99h-16.53l-2.39-9.57c-5-19.79-16.31-28.28-36.54-28.28c-20.01,0-33.28,12.4-33.28,27.41
		c0,14.79,9.57,25.23,45.68,38.29c35.67,13.05,49.81,29.15,49.81,56.99c0,37.42-26.76,63.95-72.44,63.95
		c-15.01,0-32.19-3.04-49.6-11.96L548.96,350.54z"/>
	<path class="st1" d="M703.63,510.64v-13.71l12.83-0.43c15.01-0.44,17.4-7.4,17.4-24.8V266.13c0-11.31-2.39-16.1-6.96-20.67
		l-13.27-13.7v-6.53l55.69-18.93l-1.3,35.89l0.65,0.22c18.27-15.23,41.11-30.89,67-30.89c43.29,0,75.48,35.24,75.48,91.14
		c0,60.91-53.29,110.07-110.07,110.07c-14.58,0-22.19-1.3-31.76-3.04v59.82c0,19.79,2.39,26.76,21.54,27.19l15.88,0.43v13.7
		L703.63,510.64z M769.32,352.71c0,31.11,10.66,40.9,38.94,40.9c41.33,0,68.52-34.8,68.52-83.75c0-41.55-21.32-69.17-61.56-69.17
		c-13.92,0-31.54,5.44-45.9,14.14V352.71z"/>
</g>
</svg>
