<?xml version="1.0" encoding="UTF-8" standalone="no"?>
<svg
   xmlns:dc="http://purl.org/dc/elements/1.1/"
   xmlns:cc="http://creativecommons.org/ns#"
   xmlns:rdf="http://www.w3.org/1999/02/22-rdf-syntax-ns#"
   xmlns:svg="http://www.w3.org/2000/svg"
   xmlns="http://www.w3.org/2000/svg"
   viewBox="0 0 933.33331 1600"
   height="1600"
   width="933.33331"
   xml:space="preserve"
   id="svg2"
   version="1.1"><metadata
     id="metadata8"><rdf:RDF><cc:Work
         rdf:about=""><dc:format>image/svg+xml</dc:format><dc:type
           rdf:resource="http://purl.org/dc/dcmitype/StillImage" /></cc:Work></rdf:RDF></metadata><defs
     id="defs6"><clipPath
       id="clipPath18"
       clipPathUnits="userSpaceOnUse"><path
         id="path16"
         d="M 0,0 H 700 V 1200 H 0 Z" /></clipPath><clipPath
       id="clipPath32"
       clipPathUnits="userSpaceOnUse"><path
         id="path30"
         d="M 0,0 H 700 V 1200 H 0 Z" /></clipPath><clipPath
       id="clipPath62"
       clipPathUnits="userSpaceOnUse"><path
         id="path60"
         d="M 0,0 H 700 V 1200 H 0 Z" /></clipPath></defs><g
     transform="matrix(1.3333333,0,0,-1.3333333,0,1600)"
     id="g10"><g
       id="g12"><g
         clip-path="url(#clipPath18)"
         id="g14"><g
           transform="translate(497.8497,1152.4274)"
           id="g20"><path
             id="path22"
             style="fill:#000000;fill-opacity:1;fill-rule:nonzero;stroke:none"
             d="M 0,0 V -0.66 H 5.6 V 0 L 3.7,0.5 v 5.46 h 2.1 c 1.86,0 2.5,-0.74 2.86,-2.7 L 9.1,0.9 c 0.26,-1.38 0.82,-1.86 1.84,-1.86 1.06,0 1.62,0.5 1.88,1.42 L 12.08,0.72 C 11.92,0.28 11.76,0.1 11.48,0.1 c -0.26,0 -0.42,0.18 -0.52,0.74 l -0.52,2.8 c -0.32,1.74 -1.1,2.54 -3,2.76 V 6.54 C 9.7,6.78 11,7.98 11,9.96 11,12.08 9.5,13.58 6.76,13.58 H 0 v -0.66 l 1.92,-0.5 V 0.5 Z m 3.7,6.96 v 5.62 h 2.34 c 2.1,0 3.08,-1 3.08,-2.78 C 9.12,7.84 7.96,6.96 5.96,6.96 Z M 13.54,0 v -0.66 h 5.2 V 0 L 17,0.4 V 9.52 L 13.54,9.28 V 8.54 L 15.28,8.26 V 0.4 Z m 1.379,12.58 c 0,-0.78 0.541,-1.3 1.221,-1.3 0.68,0 1.22,0.52 1.22,1.3 0,0.78 -0.54,1.3 -1.22,1.3 -0.68,0 -1.221,-0.52 -1.221,-1.3 m 9.16,-3.06 c 1.28,0 2.46,-0.32 3.26,-0.8 l -0.26,-2.38 h -0.96 l -0.36,1.92 c -0.02,0.12 -0.04,0.16 -0.14,0.2 -0.26,0.12 -0.96,0.22 -1.6,0.22 -1.38,0 -2.08,-0.46 -2.08,-1.44 0,-0.82 0.46,-1.34 2.36,-2.12 2.5,-1.02 3.3,-2.04 3.3,-3.28 0,-1.66 -1.4,-2.74 -3.84,-2.74 -1.32,0 -2.66,0.32 -3.5,0.82 l 0.24,2.56 h 0.96 l 0.36,-2.1 c 0.02,-0.12 0.06,-0.16 0.16,-0.2 0.26,-0.12 1.08,-0.24 1.84,-0.24 1.52,0 2.24,0.48 2.24,1.5 0,0.82 -0.46,1.36 -2.44,2.16 -2.48,1.02 -3.22,1.96 -3.22,3.2 0,1.66 1.36,2.72 3.68,2.72 m 9.12,-10.44 c 1.62,0 2.58,1.06 2.64,3.02 l -0.82,0.06 c -0.14,-1.42 -0.6,-1.9 -1.44,-1.9 -0.78,0 -1.2,0.52 -1.18,1.78 l 0.06,6.36 h 2.64 v 0.88 h -2.64 v 3.1 h -1.3 l -0.34,-3.1 h -1.66 V 8.4 h 1.58 l -0.06,-6.44 c -0.02,-1.94 0.86,-2.88 2.52,-2.88 m 8.88,-0.04 c 2.96,0 4.9,1.96 4.9,5.26 0,3.26 -1.88,5.26 -4.9,5.26 -3.04,0 -4.9,-2.04 -4.9,-5.26 0,-3.32 1.92,-5.26 4.9,-5.26 m -3.04,5.26 c 0,3 1.18,4.42 3.04,4.42 1.88,0 3.04,-1.46 3.04,-4.42 0,-3.02 -1.2,-4.42 -3.04,-4.42 -1.86,0 -3.04,1.42 -3.04,4.42 m 16.78,2.28 5.76,-7.24 h 2.84 V 0 l -1.44,0.5 -5.24,6.58 5.24,5.3 1.34,0.54 v 0.66 h -4.82 v -0.66 l 2.06,-0.54 z m -4.04,-7.24 h 5.6 V 0 l -1.9,0.5 v 11.92 l 1.9,0.5 v 0.66 h -5.6 v -0.66 l 1.92,-0.5 V 0.5 L 51.779,0 Z m 17.24,-0.26 c 1.52,0 3,0.78 3.7,2.12 v -2.06 l 3.48,0.2 v 0.74 l -1.76,0.28 V 9.52 L 71.159,9.28 V 8.54 l 1.56,-0.28 V 2.24 c -0.66,-1.32 -1.72,-1.98 -3.02,-1.98 -1.26,0 -1.92,0.7 -1.92,2.4 V 9.52 L 64.499,9.28 V 8.54 l 1.56,-0.28 V 2.48 c 0,-2.24 1.04,-3.4 2.96,-3.4 m 8,-3.54 0.12,-0.82 c 2.6,0.3 3.56,1.28 3.56,3.88 V 9.52 L 77.259,9.28 V 8.54 l 1.72,-0.28 V -2.2 c 0,-1.54 -0.28,-1.88 -1.96,-2.26 m 1.6,17.06 c 0,-0.8 0.48,-1.34 1.24,-1.34 0.66,0 1.2,0.54 1.2,1.34 0,0.8 -0.54,1.3 -1.2,1.3 -0.76,0 -1.24,-0.5 -1.24,-1.3 m 12.8,-13.56 c 0.88,0 1.56,0.54 1.8,1.42 l -0.74,0.26 C 92.319,0.3 92.099,0.1 91.799,0.1 c -0.281,0 -0.44,0.2 -0.44,0.72 V 6.2 c 0,2.42 -0.961,3.28 -3.341,3.28 -1.039,0 -2.779,-0.28 -3.979,-0.68 l 0.3,-2.86 h 0.919 l 0.461,2.32 c 0.02,0.14 0.08,0.2 0.179,0.22 0.301,0.06 1.021,0.12 1.62,0.12 1.341,0 2.141,-0.74 2.141,-2.36 v -0.8 l -2.94,-0.86 c -2.26,-0.66 -3.081,-1.56 -3.081,-2.96 0,-1.56 1.061,-2.56 2.601,-2.56 1.159,0 2.259,0.56 3.42,1.84 0.06,-1.24 0.68,-1.86 1.76,-1.86 m -6.021,2.82 c 0,1.2 0.541,1.78 2.021,2.08 l 2.24,0.46 V 1.86 c -1.04,-1.24 -1.94,-1.74 -2.8,-1.74 -0.88,0 -1.461,0.6 -1.461,1.74 M 94.218,0 v -0.66 h 5.2 V 0 l -1.72,0.4 v 5.92 c 0.64,1.26 1.78,1.92 3.14,1.92 1.16,0 1.86,-0.74 1.86,-2.46 V 0.4 L 100.958,0 v -0.66 h 5.22 V 0 l -1.76,0.4 v 5.54 c 0,2.36 -1.08,3.52 -2.98,3.52 -1.62,0 -3.06,-0.86 -3.74,-2.12 V 9.52 L 94.218,9.28 V 8.54 l 1.76,-0.28 V 0.4 Z m 19.24,-1.04 c 2.5,0 4.48,2.06 4.48,5.48 0,3.14 -1.66,5.1 -4.14,5.1 -1.58,0 -2.76,-0.8 -3.34,-2.06 v 2.04 l -3.48,-0.24 V 8.56 l 1.76,-0.28 V -4.1 l -1.76,-0.4 v -0.66 h 5.46 v 0.66 l -1.98,0.4 v 4.72 c 0.54,-1 1.6,-1.66 3,-1.66 m -3,3.28 V 5.9 c 0.58,1.82 1.54,2.58 2.84,2.58 1.72,0 2.82,-1.34 2.82,-4.2 0,-3 -1.24,-4.3 -2.98,-4.3 -1.36,0 -2.3,0.7 -2.68,2.26 m 17.44,-3.2 c 0.9,0 1.56,0.56 1.8,1.42 l -0.74,0.26 c -0.16,-0.42 -0.42,-0.62 -0.68,-0.62 -0.26,0 -0.44,0.2 -0.44,0.72 V 6.2 c 0,2.38 -0.9,3.28 -3.34,3.28 -1.06,0 -2.8,-0.28 -4,-0.68 l 0.3,-2.86 h 0.92 l 0.46,2.32 c 0.02,0.14 0.06,0.2 0.18,0.22 0.34,0.08 1.12,0.12 1.64,0.12 1.42,0 2.14,-0.82 2.14,-2.36 v -0.8 l -2.94,-0.86 c -2.26,-0.66 -3.08,-1.52 -3.08,-2.96 0,-1.58 1.08,-2.56 2.6,-2.56 1.14,0 2.26,0.54 3.42,1.84 0.06,-1.28 0.7,-1.86 1.76,-1.86 m -6.84,13.32 c 0,-0.68 0.44,-1.16 1.06,-1.16 0.62,0 1.08,0.48 1.08,1.16 0,0.7 -0.48,1.12 -1.08,1.12 -0.6,0 -1.06,-0.42 -1.06,-1.12 m 0.82,-10.5 c 0,1.16 0.54,1.78 2.02,2.08 l 2.24,0.46 V 1.86 c -1.04,-1.26 -1.96,-1.74 -2.8,-1.74 -0.88,0 -1.46,0.54 -1.46,1.74 m 3.12,10.5 c 0,-0.68 0.42,-1.16 1.04,-1.16 0.62,0 1.1,0.48 1.1,1.16 0,0.7 -0.5,1.12 -1.1,1.12 -0.6,0 -1.04,-0.42 -1.04,-1.12 m 13.859,-13.32 c 0.901,0 1.56,0.56 1.8,1.42 l -0.74,0.26 c -0.159,-0.42 -0.42,-0.62 -0.68,-0.62 -0.26,0 -0.44,0.2 -0.44,0.72 V 6.2 c 0,2.38 -0.899,3.28 -3.34,3.28 -1.059,0 -2.8,-0.28 -4,-0.68 l 0.301,-2.86 h 0.919 l 0.461,2.32 c 0.019,0.14 0.059,0.2 0.179,0.22 0.34,0.08 1.12,0.12 1.64,0.12 1.421,0 2.14,-0.82 2.14,-2.36 v -0.8 l -2.94,-0.86 c -2.259,-0.66 -3.08,-1.52 -3.08,-2.96 0,-1.58 1.08,-2.56 2.6,-2.56 1.14,0 2.26,0.54 3.42,1.84 0.06,-1.28 0.7,-1.86 1.76,-1.86 m -6.839,13.32 c 0,-0.68 0.439,-1.16 1.059,-1.16 0.62,0 1.08,0.48 1.08,1.16 0,0.7 -0.48,1.12 -1.08,1.12 -0.6,0 -1.059,-0.42 -1.059,-1.12 m 0.819,-10.5 c 0,1.16 0.541,1.78 2.02,2.08 l 2.24,0.46 V 1.86 c -1.04,-1.26 -1.959,-1.74 -2.8,-1.74 -0.88,0 -1.46,0.54 -1.46,1.74 m 3.12,10.5 c 0,-0.68 0.421,-1.16 1.04,-1.16 0.62,0 1.1,0.48 1.1,1.16 0,0.7 -0.5,1.12 -1.1,1.12 -0.599,0 -1.04,-0.42 -1.04,-1.12" /></g></g></g><path
       id="path24"
       style="fill:#000000;fill-opacity:1;fill-rule:nonzero;stroke:none"
       d="m 138.622,228.477 h 35.2 v 1 h -35.2 z" /><g
       id="g26"><g
         clip-path="url(#clipPath32)"
         id="g28"><g
           transform="translate(256.3153,876.6862)"
           id="g34"><path
             id="path36"
             style="fill:#000000;fill-opacity:1;fill-rule:nonzero;stroke:none"
             d="M 0,0 -0.14,-0.66 H 4.1 L 4.24,0 2.26,0.5 3.88,3.32 H 9.6 L 9.92,0.5 7.6,0 7.46,-0.66 h 5.02 L 12.62,0 11.66,0.5 10.16,13.58 H 8.64 L 1.1,0.5 Z M 4.44,4.28 8.66,11.62 9.5,4.28 Z M 16.3,8.32 14.22,-0.66 h 1.6 l 1.32,5.62 c 1,1.68 2.14,2.86 3.28,3.5 l 0.18,-2.2 h 0.72 l 0.82,3.18 C 22,9.48 21.88,9.5 21.64,9.5 20.08,9.5 18.36,7.96 17.44,6.46 l 0.68,3.04 -3.26,-0.18 -0.1,-0.9 z m 9.62,-9.26 c 1.52,0 2.8,0.7 3.7,2 l -0.42,0.4 c -0.78,-0.8 -1.64,-1.2 -2.64,-1.2 -1.7,0 -2.94,1.76 -2.24,4.86 0.58,2.5 2.04,3.72 3.94,3.72 0.28,0 0.5,-0.02 0.78,-0.08 l 0.2,-2.8 h 0.86 l 0.74,3.12 c -0.54,0.3 -1.56,0.56 -2.46,0.56 -2.94,0 -5.04,-1.62 -5.78,-4.78 -0.8,-3.44 0.8,-5.8 3.32,-5.8 m 7.9,2.32 1.7,7.08 h 2.28 l 0.16,0.82 h -2.24 l 0.76,3.2 h -1.6 l -0.76,-3.2 h -1.6 L 32.36,8.46 h 1.56 l -1.66,-6.9 c -0.44,-1.84 0.14,-2.5 1.54,-2.5 1.16,0 2.08,0.42 2.72,1.36 L 36.1,0.86 C 35.58,0.34 35.04,0.12 34.42,0.12 c -0.64,0 -0.84,0.26 -0.6,1.26 M 40.059,-1 c 0.9,0 1.84,0.5 2.4,1.36 l -0.42,0.44 c -0.42,-0.46 -1.02,-0.74 -1.44,-0.74 -0.4,0 -0.5,0.26 -0.3,1.12 l 2,8.32 -3.4,-0.18 -0.1,-0.9 1.62,-0.1 -1.72,-7.12 c -0.32,-1.36 0.08,-2.2 1.36,-2.2 m 1.02,13.46 c -0.16,-0.72 0.16,-1.2 0.86,-1.2 0.62,0 1.22,0.48 1.38,1.2 0.18,0.74 -0.2,1.16 -0.82,1.16 -0.7,0 -1.24,-0.42 -1.42,-1.16 m 6.4,-13.4 c 1.52,0 2.8,0.7 3.7,2 l -0.42,0.4 c -0.78,-0.8 -1.64,-1.2 -2.64,-1.2 -1.7,0 -2.94,1.76 -2.24,4.86 0.58,2.5 2.04,3.72 3.94,3.72 0.28,0 0.5,-0.02 0.78,-0.08 l 0.2,-2.8 h 0.86 l 0.74,3.12 c -0.54,0.3 -1.56,0.56 -2.46,0.56 -2.94,0 -5.04,-1.62 -5.78,-4.78 -0.8,-3.44 0.8,-5.8 3.32,-5.8 m 13,0.04 c 0.98,0 1.9,0.5 2.46,1.36 l -0.42,0.44 c -0.42,-0.46 -1.02,-0.74 -1.44,-0.74 -0.34,0 -0.54,0.2 -0.4,0.76 l 2.1,8.64 h -1.16 l -0.6,-0.64 c -0.74,0.5 -1.48,0.72 -2.28,0.72 -2.4,0 -4.56,-1.88 -5.34,-4.86 -0.82,-3.04 0.62,-5.72 2.24,-5.72 1.04,0 2.26,0.76 3.66,2.76 l -0.2,-0.8 c -0.32,-1.26 0.3,-1.92 1.38,-1.92 m -5.4,5.64 c 0.62,2.54 2.32,4.1 3.98,4.1 0.64,0 1.38,-0.28 1.78,-0.72 l -1.3,-5.28 c -1.32,-1.6 -2.78,-2.48 -3.4,-2.48 -0.98,0 -1.74,1.7 -1.06,4.38 m 10.98,-5.4 h 6.1 c 4.34,0 7.96,2.48 8.8,7.22 0.78,4.38 -1.3,7.02 -5.42,7.02 h -6.2 l -0.14,-0.66 1.84,-0.5 L 68.279,0.5 66.199,0 Z m 3.88,1 2.84,12.24 h 2.48 c 3.34,0 4.66,-2.18 3.84,-6.08 -0.94,-4.46 -3.18,-6.16 -6.52,-6.16 z M 84.039,-1 c 0.9,0 1.84,0.5 2.4,1.36 l -0.42,0.44 c -0.42,-0.46 -1.02,-0.74 -1.44,-0.74 -0.4,0 -0.5,0.26 -0.3,1.12 l 2,8.32 -3.4,-0.18 -0.1,-0.9 1.62,-0.1 -1.72,-7.12 c -0.32,-1.36 0.08,-2.2 1.36,-2.2 m 1.02,13.46 c -0.16,-0.72 0.16,-1.2 0.86,-1.2 0.62,0 1.22,0.48 1.38,1.2 0.18,0.74 -0.2,1.16 -0.82,1.16 -0.7,0 -1.24,-0.42 -1.42,-1.16 m 3.68,-5.04 c 0.32,1.32 1.7,2.24 3.38,2.22 1.12,0.02 2.52,-0.4 3.14,-0.84 l -0.7,-2.32 h -0.76 l -0.16,2.16 c -0.48,0.16 -1,0.22 -1.52,0.2 -1.16,0.02 -1.86,-0.44 -2.06,-1.22 -0.22,-0.9 0.3,-1.68 1.88,-2.6 2.24,-1.3 2.72,-2.36 2.4,-3.74 -0.3,-1.32 -1.64,-2.2 -3.68,-2.2 -1.26,0 -2.68,0.4 -3.24,0.82 l 0.74,2.42 h 0.76 l 0.2,-2.16 c 0.42,-0.16 1.02,-0.28 1.52,-0.28 1.46,0 2.2,0.46 2.38,1.2 0.24,0.86 -0.28,1.64 -2.02,2.66 -1.94,1.14 -2.58,2.34 -2.26,3.68 m 11.38,-8.4 c 3.14,0 6,2.66 6,6.64 0,2.36 -1.2,3.94 -2.5,3.94 -1.22,0 -2.56,-0.94 -3.78,-3.26 l 0.76,3.12 -3.14,-0.18 -0.1,-0.9 1.34,-0.1 -2.96,-12.42 -1.2,-0.12 -0.2,-0.9 h 4.52 l 0.2,0.9 -1.72,0.1 0.88,3.68 c 0.5,-0.32 1.14,-0.5 1.9,-0.5 m -1.6,1.74 1.02,4.3 c 1.36,2.1 2.72,3.24 3.56,3.24 0.78,0 1.34,-0.9 1.34,-2.9 0,-3.46 -2.04,-5.58 -4.18,-5.58 -0.78,0 -1.4,0.32 -1.74,0.94 m 10.8,13 1.52,-0.1 -3,-12.46 c -0.32,-1.36 0.12,-2.2 1.36,-2.2 0.9,0 1.84,0.5 2.4,1.36 l -0.42,0.44 c -0.42,-0.46 -1.02,-0.74 -1.44,-0.74 -0.4,0 -0.5,0.26 -0.3,1.12 l 3.28,13.66 -3.3,-0.18 z m 11.24,-14.66 c 0.98,0 1.9,0.5 2.46,1.36 l -0.42,0.44 c -0.42,-0.46 -1.02,-0.74 -1.44,-0.74 -0.34,0 -0.54,0.2 -0.4,0.76 l 2.1,8.64 h -1.16 l -0.6,-0.64 c -0.74,0.5 -1.48,0.72 -2.28,0.72 -2.4,0 -4.56,-1.88 -5.34,-4.86 -0.82,-3.04 0.62,-5.72 2.24,-5.72 1.04,0 2.26,0.76 3.66,2.76 l -0.2,-0.8 c -0.32,-1.26 0.3,-1.92 1.38,-1.92 m -5.4,5.64 c 0.62,2.54 2.32,4.1 3.98,4.1 0.64,0 1.38,-0.28 1.78,-0.72 l -1.3,-5.28 c -1.32,-1.6 -2.78,-2.48 -3.4,-2.48 -0.98,0 -1.74,1.7 -1.06,4.38 m 16.639,-5.88 2.5,10.42 h -1.6 l -1.3,-5.46 c -1.48,-2.48 -3.1,-3.78 -4.16,-3.78 -0.58,0 -0.86,0.4 -0.52,1.78 l 1.86,7.68 -3.4,-0.18 -0.1,-0.9 1.6,-0.1 -1.56,-6.46 c -0.48,-1.96 0.3,-2.86 1.56,-2.86 1.4,0 2.82,1.02 4.34,3.26 l -0.72,-3.02 c -0.72,-3 -1.88,-3.78 -4.14,-3.78 -0.34,0 -0.58,0.02 -0.88,0.08 l -0.2,1.74 h -1.12 l -0.5,-2 c 0.72,-0.36 1.46,-0.58 2.8,-0.58 2.98,0 4.8,1.1 5.54,4.16 m 5.66,1.14 -0.14,-0.66 h 10.32 l 0.94,4.7 h -0.96 l -1.2,-3.44 c -0.04,-0.14 -0.18,-0.26 -0.32,-0.26 h -4.9 l 2.8,12.08 2.26,0.5 0.14,0.66 h -5.8 l -0.14,-0.66 1.84,-0.5 -2.76,-11.92 z m 14.1,-1 c 0.9,0 1.84,0.5 2.4,1.36 l -0.42,0.44 c -0.42,-0.46 -1.02,-0.74 -1.44,-0.74 -0.4,0 -0.5,0.26 -0.3,1.12 l 2,8.32 -3.4,-0.18 -0.1,-0.9 1.62,-0.1 -1.72,-7.12 c -0.32,-1.36 0.08,-2.2 1.36,-2.2 m 1.02,13.46 c -0.16,-0.72 0.16,-1.2 0.86,-1.2 0.62,0 1.22,0.48 1.38,1.2 0.18,0.74 -0.2,1.16 -0.82,1.16 -0.7,0 -1.24,-0.42 -1.42,-1.16 m 5.52,-13.52 c 1.04,0 2.26,0.76 3.66,2.76 l -0.6,-2.5 c -0.72,-3 -1.96,-3.74 -4.12,-3.74 -0.34,0 -0.58,0.02 -0.88,0.08 v 1.74 h -1.32 l -0.52,-2 c 0.78,-0.38 1.52,-0.58 2.82,-0.58 2.96,0 4.8,1.04 5.6,4.4 l 2.5,10.46 h -1.16 l -0.6,-0.64 c -0.74,0.48 -1.5,0.72 -2.3,0.72 -2.42,0 -4.6,-1.92 -5.38,-4.88 -0.82,-3.16 0.6,-5.82 2.3,-5.82 m -0.62,5.8 c 0.6,2.44 2.3,4.1 3.96,4.1 0.68,0 1.48,-0.34 1.84,-0.78 l -1.28,-5.34 c -1.26,-1.54 -2.76,-2.48 -3.42,-2.48 -1.02,0 -1.78,1.68 -1.1,4.5 M 173.558,-1 c 0.9,0 1.84,0.5 2.4,1.36 l -0.42,0.44 c -0.42,-0.46 -1.02,-0.74 -1.44,-0.74 -0.4,0 -0.52,0.24 -0.3,1.12 l 1.38,5.58 c 0.44,1.78 -0.22,2.86 -1.72,2.86 -1.24,0 -2.8,-1.02 -4.24,-3.18 l 1.92,8.4 -3.3,-0.18 -0.1,-0.9 1.52,-0.1 -3.28,-14.32 h 1.6 l 1.28,5.54 c 1.46,2.42 3.08,3.7 4.12,3.7 0.68,0 0.92,-0.5 0.6,-1.78 l -1.38,-5.6 c -0.38,-1.54 0.18,-2.2 1.36,-2.2 m 5.86,2.38 1.7,7.08 h 2.28 l 0.16,0.82 h -2.24 l 0.76,3.2 h -1.6 l -0.76,-3.2 h -1.6 l -0.16,-0.82 h 1.56 l -1.66,-6.9 c -0.44,-1.84 0.14,-2.5 1.54,-2.5 1.16,0 2.08,0.42 2.72,1.36 l -0.42,0.44 c -0.52,-0.52 -1.06,-0.74 -1.68,-0.74 -0.64,0 -0.84,0.26 -0.6,1.26" /></g><g
           transform="translate(260.2415,482.1601)"
           id="g38"><path
             id="path40"
             style="fill:#000000;fill-opacity:1;fill-rule:nonzero;stroke:none"
             d="M 0,0 -0.14,-0.66 H 4.1 L 4.24,0 2.26,0.5 3.88,3.32 H 9.6 L 9.92,0.5 7.6,0 7.46,-0.66 h 5.02 L 12.62,0 11.66,0.5 10.16,13.58 H 8.64 L 1.1,0.5 Z M 4.44,4.28 8.66,11.62 9.5,4.28 Z M 16.3,8.32 14.22,-0.66 h 1.6 l 1.32,5.62 c 1,1.68 2.14,2.86 3.28,3.5 l 0.18,-2.2 h 0.72 l 0.82,3.18 C 22,9.48 21.88,9.5 21.64,9.5 20.08,9.5 18.36,7.96 17.44,6.46 l 0.68,3.04 -3.26,-0.18 -0.1,-0.9 z m 9.62,-9.26 c 1.52,0 2.8,0.7 3.7,2 l -0.42,0.4 c -0.78,-0.8 -1.64,-1.2 -2.64,-1.2 -1.7,0 -2.94,1.76 -2.24,4.86 0.58,2.5 2.04,3.72 3.94,3.72 0.28,0 0.5,-0.02 0.78,-0.08 l 0.2,-2.8 h 0.86 l 0.74,3.12 c -0.54,0.3 -1.56,0.56 -2.46,0.56 -2.94,0 -5.04,-1.62 -5.78,-4.78 -0.8,-3.44 0.8,-5.8 3.32,-5.8 m 7.9,2.32 1.7,7.08 h 2.28 l 0.16,0.82 h -2.24 l 0.76,3.2 h -1.6 l -0.76,-3.2 h -1.6 L 32.36,8.46 h 1.56 l -1.66,-6.9 c -0.44,-1.84 0.14,-2.5 1.54,-2.5 1.16,0 2.08,0.42 2.72,1.36 L 36.1,0.86 C 35.58,0.34 35.04,0.12 34.42,0.12 c -0.64,0 -0.84,0.26 -0.6,1.26 M 40.059,-1 c 0.9,0 1.84,0.5 2.4,1.36 l -0.42,0.44 c -0.42,-0.46 -1.02,-0.74 -1.44,-0.74 -0.4,0 -0.5,0.26 -0.3,1.12 l 2,8.32 -3.4,-0.18 -0.1,-0.9 1.62,-0.1 -1.72,-7.12 c -0.32,-1.36 0.08,-2.2 1.36,-2.2 m 1.02,13.46 c -0.16,-0.72 0.16,-1.2 0.86,-1.2 0.62,0 1.22,0.48 1.38,1.2 0.18,0.74 -0.2,1.16 -0.82,1.16 -0.7,0 -1.24,-0.42 -1.42,-1.16 m 6.4,-13.4 c 1.52,0 2.8,0.7 3.7,2 l -0.42,0.4 c -0.78,-0.8 -1.64,-1.2 -2.64,-1.2 -1.7,0 -2.94,1.76 -2.24,4.86 0.58,2.5 2.04,3.72 3.94,3.72 0.28,0 0.5,-0.02 0.78,-0.08 l 0.2,-2.8 h 0.86 l 0.74,3.12 c -0.54,0.3 -1.56,0.56 -2.46,0.56 -2.94,0 -5.04,-1.62 -5.78,-4.78 -0.8,-3.44 0.8,-5.8 3.32,-5.8 m 13,0.04 c 0.98,0 1.9,0.5 2.46,1.36 l -0.42,0.44 c -0.42,-0.46 -1.02,-0.74 -1.44,-0.74 -0.34,0 -0.54,0.2 -0.4,0.76 l 2.1,8.64 h -1.16 l -0.6,-0.64 c -0.74,0.5 -1.48,0.72 -2.28,0.72 -2.4,0 -4.56,-1.88 -5.34,-4.86 -0.82,-3.04 0.62,-5.72 2.24,-5.72 1.04,0 2.26,0.76 3.66,2.76 l -0.2,-0.8 c -0.32,-1.26 0.3,-1.92 1.38,-1.92 m -5.4,5.64 c 0.62,2.54 2.32,4.1 3.98,4.1 0.64,0 1.38,-0.28 1.78,-0.72 l -1.3,-5.28 c -1.32,-1.6 -2.78,-2.48 -3.4,-2.48 -0.98,0 -1.74,1.7 -1.06,4.38 m 10.98,-5.4 h 6.1 c 4.34,0 7.96,2.48 8.8,7.22 0.78,4.38 -1.3,7.02 -5.42,7.02 h -6.2 l -0.14,-0.66 1.84,-0.5 L 68.279,0.5 66.199,0 Z m 3.88,1 2.84,12.24 h 2.48 c 3.34,0 4.66,-2.18 3.84,-6.08 -0.94,-4.46 -3.18,-6.16 -6.52,-6.16 z M 84.039,-1 c 0.9,0 1.84,0.5 2.4,1.36 l -0.42,0.44 c -0.42,-0.46 -1.02,-0.74 -1.44,-0.74 -0.4,0 -0.5,0.26 -0.3,1.12 l 2,8.32 -3.4,-0.18 -0.1,-0.9 1.62,-0.1 -1.72,-7.12 c -0.32,-1.36 0.08,-2.2 1.36,-2.2 m 1.02,13.46 c -0.16,-0.72 0.16,-1.2 0.86,-1.2 0.62,0 1.22,0.48 1.38,1.2 0.18,0.74 -0.2,1.16 -0.82,1.16 -0.7,0 -1.24,-0.42 -1.42,-1.16 m 3.68,-5.04 c 0.32,1.32 1.7,2.24 3.38,2.22 1.12,0.02 2.52,-0.4 3.14,-0.84 l -0.7,-2.32 h -0.76 l -0.16,2.16 c -0.48,0.16 -1,0.22 -1.52,0.2 -1.16,0.02 -1.86,-0.44 -2.06,-1.22 -0.22,-0.9 0.3,-1.68 1.88,-2.6 2.24,-1.3 2.72,-2.36 2.4,-3.74 -0.3,-1.32 -1.64,-2.2 -3.68,-2.2 -1.26,0 -2.68,0.4 -3.24,0.82 l 0.74,2.42 h 0.76 l 0.2,-2.16 c 0.42,-0.16 1.02,-0.28 1.52,-0.28 1.46,0 2.2,0.46 2.38,1.2 0.24,0.86 -0.28,1.64 -2.02,2.66 -1.94,1.14 -2.58,2.34 -2.26,3.68 m 11.38,-8.4 c 3.14,0 6,2.66 6,6.64 0,2.36 -1.2,3.94 -2.5,3.94 -1.22,0 -2.56,-0.94 -3.78,-3.26 l 0.76,3.12 -3.14,-0.18 -0.1,-0.9 1.34,-0.1 -2.96,-12.42 -1.2,-0.12 -0.2,-0.9 h 4.52 l 0.2,0.9 -1.72,0.1 0.88,3.68 c 0.5,-0.32 1.14,-0.5 1.9,-0.5 m -1.6,1.74 1.02,4.3 c 1.36,2.1 2.72,3.24 3.56,3.24 0.78,0 1.34,-0.9 1.34,-2.9 0,-3.46 -2.04,-5.58 -4.18,-5.58 -0.78,0 -1.4,0.32 -1.74,0.94 m 10.8,13 1.52,-0.1 -3,-12.46 c -0.32,-1.36 0.12,-2.2 1.36,-2.2 0.9,0 1.84,0.5 2.4,1.36 l -0.42,0.44 c -0.42,-0.46 -1.02,-0.74 -1.44,-0.74 -0.4,0 -0.5,0.26 -0.3,1.12 l 3.28,13.66 -3.3,-0.18 z m 11.24,-14.66 c 0.98,0 1.9,0.5 2.46,1.36 l -0.42,0.44 c -0.42,-0.46 -1.02,-0.74 -1.44,-0.74 -0.34,0 -0.54,0.2 -0.4,0.76 l 2.1,8.64 h -1.16 l -0.6,-0.64 c -0.74,0.5 -1.48,0.72 -2.28,0.72 -2.4,0 -4.56,-1.88 -5.34,-4.86 -0.82,-3.04 0.62,-5.72 2.24,-5.72 1.04,0 2.26,0.76 3.66,2.76 l -0.2,-0.8 c -0.32,-1.26 0.3,-1.92 1.38,-1.92 m -5.4,5.64 c 0.62,2.54 2.32,4.1 3.98,4.1 0.64,0 1.38,-0.28 1.78,-0.72 l -1.3,-5.28 c -1.32,-1.6 -2.78,-2.48 -3.4,-2.48 -0.98,0 -1.74,1.7 -1.06,4.38 m 16.639,-5.88 2.5,10.42 h -1.6 l -1.3,-5.46 c -1.48,-2.48 -3.1,-3.78 -4.16,-3.78 -0.58,0 -0.86,0.4 -0.52,1.78 l 1.86,7.68 -3.4,-0.18 -0.1,-0.9 1.6,-0.1 -1.56,-6.46 c -0.48,-1.96 0.3,-2.86 1.56,-2.86 1.4,0 2.82,1.02 4.34,3.26 l -0.72,-3.02 c -0.72,-3 -1.88,-3.78 -4.14,-3.78 -0.34,0 -0.58,0.02 -0.88,0.08 l -0.2,1.74 h -1.12 l -0.5,-2 c 0.72,-0.36 1.46,-0.58 2.8,-0.58 2.98,0 4.8,1.1 5.54,4.16 m 5.66,1.14 -0.14,-0.66 h 6.56 c 2.8,0 5,1.54 5.5,3.96 0.42,2.08 -0.72,3.34 -3.16,3.5 l 0.04,0.14 c 2.12,0.2 3.7,1.42 4.06,3 0.46,1.98 -0.88,3.64 -3.86,3.64 h -5.86 l -0.14,-0.66 1.84,-0.5 -2.76,-11.92 z m 3.74,0.34 1.38,5.92 h 2.28 c 2.4,0 3.2,-1.06 2.72,-3.06 -0.48,-2 -1.76,-2.86 -4.08,-2.86 z m 1.62,6.96 1.22,5.28 h 1.74 c 2.34,0 3.18,-0.98 2.78,-2.64 -0.4,-1.66 -1.84,-2.64 -3.78,-2.64 z m 12.22,-8.22 c 2.6,0 4.78,1.84 5.6,4.82 0.9,3.32 -0.56,5.7 -3.42,5.7 -2.7,0 -4.94,-2.02 -5.68,-5.06 -0.8,-3.28 0.78,-5.46 3.5,-5.46 m -1.74,5.38 c 0.66,2.9 2.24,4.32 3.76,4.32 1.7,0 2.6,-1.76 1.82,-4.8 -0.68,-2.7 -2.16,-4.08 -3.7,-4.08 -1.58,0 -2.58,1.48 -1.88,4.56 m 10.74,9.3 1.52,-0.1 -3,-12.46 c -0.32,-1.36 0.12,-2.2 1.36,-2.2 0.9,0 1.84,0.5 2.4,1.36 l -0.42,0.44 c -0.42,-0.46 -1.02,-0.74 -1.44,-0.74 -0.4,0 -0.5,0.26 -0.3,1.12 l 3.28,13.66 -3.3,-0.18 z m 6.28,-14.7 c 1.08,0 2.46,0.88 3.82,2.66 l -0.1,-0.4 c -0.34,-1.36 0.2,-2.2 1.28,-2.2 0.96,0 1.88,0.54 2.48,1.34 l -0.42,0.44 c -0.42,-0.48 -0.98,-0.74 -1.4,-0.74 -0.38,0 -0.56,0.28 -0.4,0.92 l 3.32,13.76 -3.3,-0.18 -0.1,-0.9 1.52,-0.1 -1.12,-4.68 c -0.76,0.48 -1.6,0.7 -2.36,0.7 -2.32,0 -4.52,-1.82 -5.34,-4.92 -0.86,-3.22 0.6,-5.7 2.12,-5.7 m -0.44,5.68 c 0.62,2.54 2.34,4.14 3.92,4.14 0.66,0 1.52,-0.34 1.88,-0.78 l -1.28,-5.28 c -1.38,-1.72 -2.56,-2.46 -3.28,-2.46 -1.04,0 -1.94,1.56 -1.24,4.38" /></g><g
           transform="translate(243.6653,142.1601)"
           id="g42"><path
             id="path44"
             style="fill:#000000;fill-opacity:1;fill-rule:nonzero;stroke:none"
             d="M 0,0 -0.14,-0.66 H 4.1 L 4.24,0 2.26,0.5 3.88,3.32 H 9.6 L 9.92,0.5 7.6,0 7.46,-0.66 h 5.02 L 12.62,0 11.66,0.5 10.16,13.58 H 8.64 L 1.1,0.5 Z M 4.44,4.28 8.66,11.62 9.5,4.28 Z M 16.3,8.32 14.22,-0.66 h 1.6 l 1.32,5.62 c 1,1.68 2.14,2.86 3.28,3.5 l 0.18,-2.2 h 0.72 l 0.82,3.18 C 22,9.48 21.88,9.5 21.64,9.5 20.08,9.5 18.36,7.96 17.44,6.46 l 0.68,3.04 -3.26,-0.18 -0.1,-0.9 z m 9.62,-9.26 c 1.52,0 2.8,0.7 3.7,2 l -0.42,0.4 c -0.78,-0.8 -1.64,-1.2 -2.64,-1.2 -1.7,0 -2.94,1.76 -2.24,4.86 0.58,2.5 2.04,3.72 3.94,3.72 0.28,0 0.5,-0.02 0.78,-0.08 l 0.2,-2.8 h 0.86 l 0.74,3.12 c -0.54,0.3 -1.56,0.56 -2.46,0.56 -2.94,0 -5.04,-1.62 -5.78,-4.78 -0.8,-3.44 0.8,-5.8 3.32,-5.8 m 7.9,2.32 1.7,7.08 h 2.28 l 0.16,0.82 h -2.24 l 0.76,3.2 h -1.6 l -0.76,-3.2 h -1.6 L 32.36,8.46 h 1.56 l -1.66,-6.9 c -0.44,-1.84 0.14,-2.5 1.54,-2.5 1.16,0 2.08,0.42 2.72,1.36 L 36.1,0.86 C 35.58,0.34 35.04,0.12 34.42,0.12 c -0.64,0 -0.84,0.26 -0.6,1.26 M 40.059,-1 c 0.9,0 1.84,0.5 2.4,1.36 l -0.42,0.44 c -0.42,-0.46 -1.02,-0.74 -1.44,-0.74 -0.4,0 -0.5,0.26 -0.3,1.12 l 2,8.32 -3.4,-0.18 -0.1,-0.9 1.62,-0.1 -1.72,-7.12 c -0.32,-1.36 0.08,-2.2 1.36,-2.2 m 1.02,13.46 c -0.16,-0.72 0.16,-1.2 0.86,-1.2 0.62,0 1.22,0.48 1.38,1.2 0.18,0.74 -0.2,1.16 -0.82,1.16 -0.7,0 -1.24,-0.42 -1.42,-1.16 m 6.4,-13.4 c 1.52,0 2.8,0.7 3.7,2 l -0.42,0.4 c -0.78,-0.8 -1.64,-1.2 -2.64,-1.2 -1.7,0 -2.94,1.76 -2.24,4.86 0.58,2.5 2.04,3.72 3.94,3.72 0.28,0 0.5,-0.02 0.78,-0.08 l 0.2,-2.8 h 0.86 l 0.74,3.12 c -0.54,0.3 -1.56,0.56 -2.46,0.56 -2.94,0 -5.04,-1.62 -5.78,-4.78 -0.8,-3.44 0.8,-5.8 3.32,-5.8 m 13,0.04 c 0.98,0 1.9,0.5 2.46,1.36 l -0.42,0.44 c -0.42,-0.46 -1.02,-0.74 -1.44,-0.74 -0.34,0 -0.54,0.2 -0.4,0.76 l 2.1,8.64 h -1.16 l -0.6,-0.64 c -0.74,0.5 -1.48,0.72 -2.28,0.72 -2.4,0 -4.56,-1.88 -5.34,-4.86 -0.82,-3.04 0.62,-5.72 2.24,-5.72 1.04,0 2.26,0.76 3.66,2.76 l -0.2,-0.8 c -0.32,-1.26 0.3,-1.92 1.38,-1.92 m -5.4,5.64 c 0.62,2.54 2.32,4.1 3.98,4.1 0.64,0 1.38,-0.28 1.78,-0.72 l -1.3,-5.28 c -1.32,-1.6 -2.78,-2.48 -3.4,-2.48 -0.98,0 -1.74,1.7 -1.06,4.38 m 10.98,-5.4 h 6.1 c 4.34,0 7.96,2.48 8.8,7.22 0.78,4.38 -1.3,7.02 -5.42,7.02 h -6.2 l -0.14,-0.66 1.84,-0.5 L 68.279,0.5 66.199,0 Z m 3.88,1 2.84,12.24 h 2.48 c 3.34,0 4.66,-2.18 3.84,-6.08 -0.94,-4.46 -3.18,-6.16 -6.52,-6.16 z M 84.039,-1 c 0.9,0 1.84,0.5 2.4,1.36 l -0.42,0.44 c -0.42,-0.46 -1.02,-0.74 -1.44,-0.74 -0.4,0 -0.5,0.26 -0.3,1.12 l 2,8.32 -3.4,-0.18 -0.1,-0.9 1.62,-0.1 -1.72,-7.12 c -0.32,-1.36 0.08,-2.2 1.36,-2.2 m 1.02,13.46 c -0.16,-0.72 0.16,-1.2 0.86,-1.2 0.62,0 1.22,0.48 1.38,1.2 0.18,0.74 -0.2,1.16 -0.82,1.16 -0.7,0 -1.24,-0.42 -1.42,-1.16 m 3.68,-5.04 c 0.32,1.32 1.7,2.24 3.38,2.22 1.12,0.02 2.52,-0.4 3.14,-0.84 l -0.7,-2.32 h -0.76 l -0.16,2.16 c -0.48,0.16 -1,0.22 -1.52,0.2 -1.16,0.02 -1.86,-0.44 -2.06,-1.22 -0.22,-0.9 0.3,-1.68 1.88,-2.6 2.24,-1.3 2.72,-2.36 2.4,-3.74 -0.3,-1.32 -1.64,-2.2 -3.68,-2.2 -1.26,0 -2.68,0.4 -3.24,0.82 l 0.74,2.42 h 0.76 l 0.2,-2.16 c 0.42,-0.16 1.02,-0.28 1.52,-0.28 1.46,0 2.2,0.46 2.38,1.2 0.24,0.86 -0.28,1.64 -2.02,2.66 -1.94,1.14 -2.58,2.34 -2.26,3.68 m 11.38,-8.4 c 3.14,0 6,2.66 6,6.64 0,2.36 -1.2,3.94 -2.5,3.94 -1.22,0 -2.56,-0.94 -3.78,-3.26 l 0.76,3.12 -3.14,-0.18 -0.1,-0.9 1.34,-0.1 -2.96,-12.42 -1.2,-0.12 -0.2,-0.9 h 4.52 l 0.2,0.9 -1.72,0.1 0.88,3.68 c 0.5,-0.32 1.14,-0.5 1.9,-0.5 m -1.6,1.74 1.02,4.3 c 1.36,2.1 2.72,3.24 3.56,3.24 0.78,0 1.34,-0.9 1.34,-2.9 0,-3.46 -2.04,-5.58 -4.18,-5.58 -0.78,0 -1.4,0.32 -1.74,0.94 m 10.8,13 1.52,-0.1 -3,-12.46 c -0.32,-1.36 0.12,-2.2 1.36,-2.2 0.9,0 1.84,0.5 2.4,1.36 l -0.42,0.44 c -0.42,-0.46 -1.02,-0.74 -1.44,-0.74 -0.4,0 -0.5,0.26 -0.3,1.12 l 3.28,13.66 -3.3,-0.18 z m 11.24,-14.66 c 0.98,0 1.9,0.5 2.46,1.36 l -0.42,0.44 c -0.42,-0.46 -1.02,-0.74 -1.44,-0.74 -0.34,0 -0.54,0.2 -0.4,0.76 l 2.1,8.64 h -1.16 l -0.6,-0.64 c -0.74,0.5 -1.48,0.72 -2.28,0.72 -2.4,0 -4.56,-1.88 -5.34,-4.86 -0.82,-3.04 0.62,-5.72 2.24,-5.72 1.04,0 2.26,0.76 3.66,2.76 l -0.2,-0.8 c -0.32,-1.26 0.3,-1.92 1.38,-1.92 m -5.4,5.64 c 0.62,2.54 2.32,4.1 3.98,4.1 0.64,0 1.38,-0.28 1.78,-0.72 l -1.3,-5.28 c -1.32,-1.6 -2.78,-2.48 -3.4,-2.48 -0.98,0 -1.74,1.7 -1.06,4.38 m 16.639,-5.88 2.5,10.42 h -1.6 l -1.3,-5.46 c -1.48,-2.48 -3.1,-3.78 -4.16,-3.78 -0.58,0 -0.86,0.4 -0.52,1.78 l 1.86,7.68 -3.4,-0.18 -0.1,-0.9 1.6,-0.1 -1.56,-6.46 c -0.48,-1.96 0.3,-2.86 1.56,-2.86 1.4,0 2.82,1.02 4.34,3.26 l -0.72,-3.02 c -0.72,-3 -1.88,-3.78 -4.14,-3.78 -0.34,0 -0.58,0.02 -0.88,0.08 l -0.2,1.74 h -1.12 l -0.5,-2 c 0.72,-0.36 1.46,-0.58 2.8,-0.58 2.98,0 4.8,1.1 5.54,4.16 m 5.66,1.14 -0.14,-0.66 h 5.6 l 0.14,0.66 -1.82,0.5 1.26,5.46 h 1.94 c 1.7,0 2.34,-0.62 2.28,-2.5 l -0.08,-2.2 c -0.06,-1.54 0.62,-2.22 1.54,-2.22 0.78,0 1.5,0.44 1.96,1.42 l -0.58,0.32 c -0.34,-0.52 -0.56,-0.68 -0.8,-0.68 -0.24,0 -0.4,0.2 -0.38,0.6 l 0.08,2.74 c 0.06,1.86 -0.66,2.72 -2.28,2.96 l 0.04,0.14 c 2.26,0.24 3.88,1.54 4.32,3.42 0.48,2.08 -0.94,3.62 -3.58,3.62 h -6.36 l -0.16,-0.66 1.86,-0.5 -2.76,-11.92 z m 5.28,6.96 1.3,5.62 h 2.16 c 1.92,0 2.84,-1.1 2.48,-2.78 -0.4,-1.86 -1.78,-2.84 -3.84,-2.84 z m 13.16,-6.7 c -1.58,0 -2.6,1.18 -2.56,3.24 4.1,0.08 6.14,1.22 6.58,3.06 0.42,1.8 -0.66,3.08 -2.64,3.08 -2.42,0 -4.52,-1.6 -5.28,-4.42 -0.98,-3.62 0.6,-6.16 3.2,-6.16 1.54,0 2.96,0.78 3.68,2 l -0.42,0.4 c -0.56,-0.72 -1.52,-1.2 -2.56,-1.2 m -2.52,3.86 c 0.04,0.36 0.12,0.76 0.22,1.16 0.56,2.28 2.02,3.56 3.44,3.56 1.04,0 1.56,-0.78 1.26,-2.12 -0.38,-1.64 -2.02,-2.56 -4.92,-2.6 m 10.42,-5.18 c 1.04,0 2.26,0.76 3.66,2.76 l -0.6,-2.5 c -0.72,-3 -1.96,-3.74 -4.12,-3.74 -0.34,0 -0.58,0.02 -0.88,0.08 v 1.74 h -1.32 l -0.52,-2 c 0.78,-0.38 1.52,-0.58 2.82,-0.58 2.96,0 4.8,1.04 5.6,4.4 l 2.5,10.46 h -1.16 l -0.6,-0.64 c -0.74,0.48 -1.5,0.72 -2.3,0.72 -2.42,0 -4.6,-1.92 -5.38,-4.88 -0.82,-3.16 0.6,-5.82 2.3,-5.82 m -0.62,5.8 c 0.6,2.44 2.3,4.1 3.96,4.1 0.68,0 1.48,-0.34 1.84,-0.78 l -1.28,-5.34 c -1.26,-1.54 -2.76,-2.48 -3.42,-2.48 -1.02,0 -1.78,1.68 -1.1,4.5 m 11.28,-5.68 c 1.16,0 2.72,1.02 4.22,3.28 -0.76,-2.5 -0.4,-3.28 1.04,-3.28 0.98,0 1.8,0.38 2.46,1.36 l -0.42,0.46 c -0.56,-0.56 -1.02,-0.76 -1.5,-0.76 -0.38,0 -0.46,0.28 -0.28,1.02 l 1.96,8.14 h -1.6 l -1.3,-5.4 c -1.48,-2.48 -3.12,-3.78 -4.1,-3.78 -0.64,0 -0.82,0.36 -0.48,1.78 l 1.86,7.62 -3.4,-0.18 -0.1,-0.9 1.6,-0.1 -1.56,-6.4 c -0.44,-1.86 0.02,-2.86 1.6,-2.86 m 10.88,14.7 1.52,-0.1 -3,-12.46 c -0.32,-1.36 0.12,-2.2 1.36,-2.2 0.9,0 1.84,0.5 2.4,1.36 l -0.42,0.44 c -0.42,-0.46 -1.02,-0.74 -1.44,-0.74 -0.4,0 -0.5,0.26 -0.3,1.12 l 3.28,13.66 -3.3,-0.18 z m 11.24,-14.66 c 0.98,0 1.9,0.5 2.46,1.36 l -0.42,0.44 c -0.42,-0.46 -1.02,-0.74 -1.44,-0.74 -0.34,0 -0.54,0.2 -0.4,0.76 l 2.1,8.64 h -1.16 l -0.6,-0.64 c -0.74,0.5 -1.48,0.72 -2.28,0.72 -2.4,0 -4.56,-1.88 -5.34,-4.86 -0.82,-3.04 0.62,-5.72 2.24,-5.72 1.04,0 2.26,0.76 3.66,2.76 l -0.2,-0.8 c -0.32,-1.26 0.3,-1.92 1.38,-1.92 m -5.4,5.64 c 0.62,2.54 2.32,4.1 3.98,4.1 0.64,0 1.38,-0.28 1.78,-0.72 l -1.3,-5.28 c -1.32,-1.6 -2.78,-2.48 -3.4,-2.48 -0.98,0 -1.74,1.7 -1.06,4.38 m 11.539,3.58 -2.08,-8.98 h 1.6 l 1.32,5.62 c 1,1.68 2.14,2.86 3.28,3.5 l 0.18,-2.2 h 0.72 l 0.82,3.18 c -0.14,0.04 -0.26,0.06 -0.5,0.06 -1.56,0 -3.28,-1.54 -4.2,-3.04 l 0.68,3.04 -3.26,-0.18 -0.1,-0.9 z" /></g><g
           transform="translate(31.3037,208.0762)"
           id="g46"><path
             id="path48"
             style="fill:#000000;fill-opacity:1;fill-rule:nonzero;stroke:none"
             d="m 0,0 h 28.8 v -12.7 h 8.3 V 0 h 7.5 l 0.7,6.2 H 37.1 V 57.8 H 30.7 L 0,2.5 Z M 3.1,5.9 28.8,52.1 V 5.9 Z M 48.799,0 h 28.8 v -12.7 h 8.3 V 0 h 7.5 l 0.7,6.2 h -8.2 v 51.6 h -6.4 L 48.799,2.5 Z m 3.1,5.9 25.7,46.2 V 5.9 Z m 117.599,3.8 -17.3,-20.2 v -2.2 h 40 l 1.3,13.3 h -1 l -2.3,-6.8 h -33.2 l 17.4,17.4 c 13.4,13.4 17.6,21.7 17.6,30.3 0,10.7 -7.1,16.7 -19.5,16.7 -5.7,0 -12.6,-1.4 -18.8,-4.5 l 0.9,-17.6 h 6 l 0.9,18.5 c 0,0.4 0.2,0.7 0.8,1 1.1,0.5 4.6,1.4 7.6,1.4 7.8,0 12.9,-5 12.9,-16.6 0,-10.5 -3.6,-19.3 -13.3,-30.7 m 38.2,12.8 -1,0.4 2.2,34.9 h 33.6 l -0.7,-6.5 h -32.2 l -1.7,-27.1 c 4.5,4.1 11.2,6.4 18,6.4 10.3,0 19.5,-8.5 19.5,-21.8 0,-13.6 -10.1,-23.1 -22.8,-23.1 -6.5,0 -13.4,1.8 -17.9,4.8 l 1,17.7 h 6 l 0.6,-18.8 c 0,-0.6 0.2,-1 0.7,-1.2 1.4,-0.7 4.9,-1.4 8.1,-1.4 8.4,0 15.1,7.4 15.1,21.1 0,13.3 -6.4,19.9 -15.6,19.9 -5,0 -9.7,-1.8 -12.9,-5.3 m 66.799,-36.8 c 12.3,0 21.7,8.2 21.7,17.3 0,8.3 -4.8,15.2 -17.6,23.3 10.3,3.3 16.2,9.8 16.2,17 0,8.7 -7.5,14.9 -19.1,14.9 -12.1,0 -20,-6.9 -20,-15.9 0,-7.2 3.9,-13.4 14.2,-20.5 -10.2,-3.2 -16.5,-10.4 -16.5,-19.2 0,-10 8.3,-16.9 21.1,-16.9 m -13.3,17.5 c 0,8.1 2.6,12.9 9.3,18.1 14.2,-8.9 17.5,-13.7 17.5,-21.2 0,-8.1 -5.1,-13.4 -13,-13.4 -8.5,0 -13.8,5.8 -13.8,16.5 m 2.8,41.4 c 0,7.9 4.8,12.6 11.6,12.6 7.1,0 11.5,-5 11.5,-14.3 0,-6.7 -2.7,-11.3 -9.2,-16.1 -10.7,6.9 -13.9,11.7 -13.9,17.8 M 352.696,0 h 28.8 v -12.7 h 8.3 V 0 h 7.5 l 0.7,6.2 h -8.2 v 51.6 h -6.4 l -30.7,-55.3 z m 3.1,5.9 25.7,46.2 V 5.9 Z m 49.199,45.4 v -1 l 9.7,1.1 v -61.9 l -8.9,-1.2 v -1 h 26.2 v 1 l -8.8,1.2 v 68.6 h -1 c -2.7,-1.9 -5.3,-3.2 -7.7,-4.1 -2.5,-0.9 -5.5,-1.8 -9.5,-2.7 m 58.2,-65.6 c 13.2,0 21.9,9.1 21.9,23.4 0,13.4 -8.3,21.8 -18.3,21.8 -6.9,0 -13.1,-3.4 -16.6,-9.5 0.8,25.3 7.9,35.4 21.2,35.8 1.5,0 2.3,-0.1 2.8,-0.2 0.5,-0.2 0.7,-0.5 0.7,-1 l 0.8,-17.6 h 6.1 l 0.9,18 c -3.8,1.2 -7.4,1.8 -11.4,1.8 -17.5,0 -30.4,-13.6 -30.4,-40 0,-22 9,-32.5 22.3,-32.5 m -13.1,33.6 c 3,5.9 7.9,8.8 13.2,8.8 7.2,0 12.7,-6.3 12.7,-20 0,-14.6 -5.1,-21.4 -12.5,-21.4 -8.2,0 -13.9,8.3 -13.4,32.6 m 67.199,-33.6 c 12.3,0 21.7,8.2 21.7,17.3 0,8.3 -4.8,15.2 -17.6,23.3 10.3,3.3 16.2,9.8 16.2,17 0,8.7 -7.5,14.9 -19.1,14.9 -12.1,0 -20,-6.9 -20,-15.9 0,-7.2 3.9,-13.4 14.2,-20.5 -10.2,-3.2 -16.5,-10.4 -16.5,-19.2 0,-10 8.3,-16.9 21.1,-16.9 m -13.3,17.5 c 0,8.1 2.6,12.9 9.3,18.1 14.2,-8.9 17.5,-13.7 17.5,-21.2 0,-8.1 -5.1,-13.4 -13,-13.4 -8.5,0 -13.8,5.8 -13.8,16.5 m 2.8,41.4 c 0,7.9 4.8,12.6 11.6,12.6 7.1,0 11.5,-5 11.5,-14.3 0,-6.7 -2.7,-11.3 -9.2,-16.1 -10.7,6.9 -13.9,11.7 -13.9,17.8 m 64.6,-19.6 v -0.6 c 12.8,-0.5 20.3,-8 20.3,-18.6 0,-12.1 -8.9,-20.1 -22.9,-20.1 -6.3,0 -12.6,1.6 -19.4,5.2 l 0.9,17.5 h 6.1 l 0.8,-18.5 c 0,-0.7 0.4,-1.2 0.9,-1.4 2,-0.8 6.3,-1.8 9.1,-1.8 9.3,0 15.3,6.4 15.3,17.7 0,11.8 -7.1,17.7 -22.7,16.9 v 1 c 12.8,1.3 19.4,8.5 19.4,20.7 0,9.3 -4.8,13.9 -12.1,13.9 -3.3,0 -6.7,-0.6 -7.9,-1 -0.8,-0.3 -1,-0.6 -1,-1.6 l -0.7,-18.1 h -6 l -1,17.6 c 5.1,2.8 12.7,4.4 18.4,4.4 12,0 19.5,-5.9 19.5,-14.8 0,-8.8 -5.6,-14.9 -17,-18.4 m 31.099,26.3 h 35.9 l -33.4,-64 h 9.6 l 26.2,67.8 v 2.7 h -39.9 l -0.9,-13.6 h 1 z" /></g><g
           transform="translate(296.5013,296.9152)"
           id="g50"><path
             id="path52"
             style="fill:#000000;fill-opacity:1;fill-rule:nonzero;stroke:none"
             d="m 0,0 -10.7,-1.3 v -1 h 30.4 v 1 L 8.9,0 v 70.1 h 14.2 c 0.6,0 0.9,-0.4 1,-1 L 25.9,49 h 6.2 V 71.1 H -23.2 V 49 h 6.3 l 1.7,20.1 c 0.1,0.6 0.4,1 1.1,1 H 0 Z m 56.399,-3.9 c 9.6,0 16.8,6.5 19,17.1 l -0.9,0.2 c -2.1,-8.8 -7.7,-12.6 -14.4,-12.6 -9.7,0 -15.7,7.5 -15.7,26.3 h 31.6 c -0.1,16.4 -7.3,25.3 -19.1,25.3 -12.6,0 -21.1,-9.8 -21.1,-28.1 0,-17.7 8.5,-28.2 20.6,-28.2 m -11.9,32 c 0.6,16.6 6,23.3 12.3,23.3 6.6,0 11,-6.7 10.9,-23.3 z m 61.099,-30.4 v 1 l -8.3,1.3 v 76.7 l -16.8,-2.5 v -1 h 8.3 V 0 l -8.3,-1.3 v -1 z m 13.4,-1.6 c 3.2,0 5.8,2.7 5.8,6.6 0,4.1 -2.6,6.4 -5.8,6.4 -3.4,0 -5.8,-2.3 -5.8,-6.4 0,-3.9 2.4,-6.6 5.8,-6.6" /></g></g></g><path
       id="path54"
       style="fill:#000000;fill-opacity:1;fill-rule:nonzero;stroke:none"
       d="m 338.768,228.477 h 35.2 v 1 h -35.2 z" /><g
       id="g56"><g
         clip-path="url(#clipPath62)"
         id="g58"><g
           transform="translate(68.2183,927.8588)"
           id="g64"><path
             id="path66"
             style="fill:#000000;fill-opacity:1;fill-rule:nonzero;stroke:none"
             d="m 0,0 c 19.11,0 30.68,9.36 30.68,24.96 0,11.05 -6.5,19.37 -19.11,25.74 l -15.08,7.54 c -10.27,5.07 -15.08,11.7 -15.08,20.28 0,12.22 7.8,19.76 23.53,19.76 5.2,0 12.48,-1.43 14.82,-2.6 0.78,-0.39 0.91,-0.91 0.91,-1.43 L 21.71,67.6 h 6.11 l 1.04,25.87 c -8.32,4.29 -16.64,6.11 -25.61,6.11 -18.33,0 -28.86,-9.36 -28.86,-23.79 0,-10.27 5.72,-18.85 18.85,-25.22 L 8.19,43.29 C 18.59,38.09 23.66,31.46 23.66,22.88 23.66,10.27 13.78,1.3 -1.3,1.3 c -5.46,0 -10.79,1.04 -17.68,3.38 -0.39,0.13 -0.91,0.78 -0.91,1.3 l -1.04,28.21 h -6.11 L -28.08,7.93 C -21.84,3.12 -11.05,0 0,0 m 50.569,4.68 -11.83,-1.3 v -1.3 h 31.2 v 1.3 l -11.83,1.3 v 100.1 l -19.37,-2.6 v -1.3 h 11.83 z m 9.88,35.1 27.56,-37.7 h 16.38 v 1.3 l -8.97,1.3 -28.86,39.26 22.75,23.14 c 0.52,0.52 1.04,0.78 1.69,0.91 l 11.7,1.17 v 1.3 h -28.08 v -1.3 l 13.39,-1.3 z m 93.858,29.38 v 1.3 h -22.88 v -1.3 l 15.47,-1.43 -17.81,-59.41 -19.89,59.54 10.14,1.3 v 1.3 h -23.14 v -1.3 l 5.33,-1.3 24.31,-70.59 -1.95,-6.63 c -3.12,-10.79 -8.19,-14.82 -14.3,-14.82 -0.65,0 -1.69,0.13 -2.08,0.26 -0.52,0.13 -0.78,0.52 -0.78,1.04 l -1.17,13.13 h -5.33 l -0.91,-14.3 c 2.34,-0.91 5.07,-1.56 8.97,-1.56 8.32,0 13.39,4.03 17.03,16.12 l 23.01,77.22 z m 29.248,-64.09 -14.17,-1.3 v -1.3 h 36.27 v 1.3 l -14.17,1.3 v 42.51 h 11.44 c 14.17,0 18.46,-4.55 20.41,-16.25 l 2.99,-17.68 c 1.69,-10.27 4.94,-13.26 10.53,-13.26 4.68,0 7.93,2.99 9.23,9.88 l -1.3,0.26 c -0.91,-4.81 -2.34,-6.11 -5.2,-6.11 -2.21,0 -4.03,1.82 -4.81,6.76 l -2.86,17.68 c -1.69,10.79 -6.11,18.46 -20.8,19.11 v 0.65 c 14.95,2.86 25.09,11.05 25.09,26.26 0,14.69 -9.36,23.01 -27.82,23.01 h -39 v -1.3 l 14.17,-1.3 z m 7.93,43.81 v 47.71 h 14.69 c 13.91,0 21.97,-8.06 21.97,-22.75 0,-16.64 -10.4,-24.96 -25.09,-24.96 z m 100.617,-7.41 h -34.45 c 1.04,20.41 9.1,30.03 18.33,30.03 9.49,0 16.12,-9.62 16.12,-30.03 m -42.51,-4.94 c 0,-23.66 10.66,-36.53 25.74,-36.53 11.96,0 21.19,8.06 23.66,21.97 l -1.17,0.13 c -2.47,-12.22 -9.1,-18.2 -19.24,-18.2 -13,0 -21.06,10.14 -21.06,36.27 h 42.51 c -0.13,21.58 -10.01,32.63 -24.05,32.63 -14.95,0 -26.39,-11.83 -26.39,-36.27 M 355.279,0.39 c 4.29,0 7.41,2.34 8.84,7.67 l -1.17,0.39 c -1.04,-3.51 -2.6,-4.55 -4.55,-4.55 -2.6,0 -4.29,2.47 -4.29,10.79 V 50.7 c 0,15.47 -7.02,21.97 -20.93,21.97 -6.11,0 -13.39,-1.43 -19.5,-3.9 l 1.04,-19.5 h 5.46 l 1.04,19.63 c 0,0.52 0.13,0.78 0.78,1.04 2.21,0.78 6.76,1.43 10.27,1.43 8.84,0 14.3,-5.85 14.3,-21.32 V 41.6 c -27.3,-5.2 -37.44,-14.17 -37.44,-24.83 0,-9.49 6.37,-16.12 15.86,-16.25 7.15,-0.13 13.26,2.73 21.71,10.27 0.52,-7.41 3.25,-10.4 8.58,-10.4 m -38.35,18.72 c 0,10.4 5.72,16.38 29.64,21.32 V 12.22 c -8.32,-6.63 -11.83,-7.93 -16.9,-7.93 -8.45,0 -12.74,4.94 -12.74,14.82 m 76.96,-18.98 c 10.27,0 18.46,6.89 21.71,17.42 V 0.26 l 19.37,2.6 v 1.3 h -11.83 v 100.62 l -19.37,-2.6 v -1.3 h 11.83 V 57.46 c -3.12,9.75 -10.66,15.47 -20.15,15.47 -14.3,0 -25.35,-12.74 -25.35,-37.31 0,-23.53 10.14,-35.49 23.79,-35.49 m -15.99,35.88 c 0,21.71 9.1,34.32 20.93,34.32 7.41,0 13.65,-5.2 16.77,-17.94 v -29.9 c -2.73,-12.48 -10.14,-19.76 -18.33,-19.76 -10.53,0 -19.37,11.7 -19.37,33.28 m 68.508,56.16 c 0,-3.9 2.34,-6.5 5.85,-6.5 3.51,0 5.85,2.6 5.85,6.5 0,3.77 -2.34,6.37 -5.85,6.37 -3.51,0 -5.85,-2.6 -5.85,-6.37 m -9.1,-90.09 h 31.2 v 1.3 l -11.83,1.3 v 66.43 l -19.37,-2.6 v -1.3 h 11.83 V 4.68 l -11.83,-1.3 z m 45.239,2.6 -11.83,-1.3 v -1.3 h 31.2 v 1.3 l -11.83,1.3 v 47.06 c 4.03,12.48 10.4,17.29 19.11,17.29 9.36,0 14.82,-6.11 14.82,-20.8 V 4.68 l -11.83,-1.3 v -1.3 h 31.2 v 1.3 l -11.83,1.3 v 43.55 c 0,16.64 -7.28,24.18 -18.85,24.44 -9.62,0.26 -19.5,-6.89 -22.62,-17.16 v 15.6 l -19.37,-2.6 v -1.3 h 11.83 z m 88.919,-30.55 c 18.59,0 30.42,9.1 30.42,21.84 0,9.62 -6.89,15.6 -18.33,15.6 h -19.37 c -5.33,0 -8.06,2.6 -8.06,6.37 0,4.55 3.51,7.15 14.17,7.15 14.95,0 24.44,8.97 24.44,24.18 0,11.57 -5.59,19.37 -14.69,22.49 0.91,2.6 1.95,4.16 3.51,5.72 l 17.81,-1.04 v 7.15 c -1.95,0.13 -2.21,0.13 -4.03,0.13 -9.49,0 -15.86,-4.03 -18.59,-11.57 -2.08,0.65 -4.68,1.04 -7.41,1.04 -13.52,0 -23.14,-8.97 -23.14,-24.05 0,-12.74 6.76,-21.32 17.42,-23.14 -9.1,-0.39 -14.43,-4.68 -14.43,-10.66 0,-4.42 2.6,-7.93 7.28,-9.62 -8.58,-1.95 -13.39,-7.15 -13.39,-14.17 0,-10.27 10.01,-17.42 26.39,-17.42 m -19.5,18.07 c 0,6.11 2.6,9.88 8.06,13.13 1.04,-0.13 2.47,-0.26 3.9,-0.26 h 17.55 c 8.97,0 13.39,-3.77 13.39,-11.7 0,-10.27 -7.93,-18.07 -22.23,-18.07 -13.26,0 -20.67,6.63 -20.67,16.9 m 4.03,57.07 c 0,15.08 6.37,22.62 15.47,22.62 9.1,0 15.47,-7.28 15.47,-22.75 0,-15.21 -6.24,-22.75 -15.47,-22.75 -9.23,0 -15.47,7.54 -15.47,22.88" /></g><g
           transform="translate(147.9594,531.2684)"
           id="g68"><path
             id="path70"
             style="fill:#000000;fill-opacity:1;fill-rule:nonzero;stroke:none"
             d="m 0,0 c 23.075,0 43.875,4.55 65.975,15.6 l -3.9,67.6 H 24.05 L 20.475,8.125 C 20.475,6.825 20.15,5.2 17.55,4.55 15.275,3.9 10.725,3.575 7.15,3.575 -25.675,3.575 -49.4,31.85 -49.4,123.5 c 0,91.325 23.725,122.525 55.575,122.525 4.225,0 8.45,-0.325 10.725,-0.975 1.95,-0.325 3.575,-2.275 3.575,-3.9 l 3.575,-74.1 h 38.025 l 3.9,67.275 C 45.5,245.05 24.7,249.6 1.3,249.6 -69.875,249.6 -110.5,207.025 -110.5,123.5 -110.5,39.975 -69.55,0 0,0 m 204.42,0.65 c 21.775,0 34.125,8.45 39.325,27.625 l -3.25,0.65 c -2.6,-8.45 -6.5,-12.025 -11.375,-12.025 -4.55,0 -7.15,3.25 -7.15,14.3 v 94.9 c 0,42.575 -20.15,59.8 -62.725,59.8 -22.425,0 -44.525,-4.55 -65.65,-14.3 l 3.9,-52.325 h 33.475 l 3.25,57.85 c 0,2.275 1.625,3.25 2.925,3.575 2.275,0.65 5.525,0.975 8.125,0.975 14.3,0 23.4,-11.05 23.4,-42.9 v -35.1 C 100.095,87.425 83.195,71.5 83.195,41.925 c 0,-25.025 17.225,-40.95 43.225,-40.95 18.525,0 32.175,7.15 43.55,25.025 3.9,-16.9 15.6,-25.35 34.45,-25.35 m -70.2,53.95 c 0,23.075 7.8,39.975 34.45,45.5 V 40.95 c 0,-3.9 0.325,-7.475 0.65,-10.725 -5.525,-6.5 -11.375,-8.775 -17.225,-8.775 -9.425,0 -17.875,9.75 -17.875,33.15 M 304.19,0.325 c 28.275,0 46.8,20.8 46.15,56.225 h -3.25 c -0.65,-22.1 -6.825,-31.2 -18.2,-31.2 -9.1,0 -14.3,6.825 -14.3,23.075 V 176.8 h 34.125 v 3.9 H 314.59 v 53.95 h -33.8 l -6.175,-49.725 c -0.325,-1.95 -1.3,-2.6 -3.25,-2.925 l -31.525,-1.625 v -3.25 h 20.475 V 49.075 c 0,-31.85 16.575,-48.75 43.875,-48.75 m 136.497,0 c 52.65,0 80.925,38.025 80.925,93.925 0,58.825 -30.875,91.975 -81.25,91.975 -50.375,0 -80.925,-33.15 -80.925,-91.65 0,-57.2 29.25,-94.25 81.25,-94.25 m -24.05,93.925 c 0,74.75 8.45,88.4 24.05,88.4 14.625,0 23.725,-12.35 23.725,-88.725 0,-76.375 -9.1,-90.025 -23.725,-90.025 -15.6,0 -24.05,15.275 -24.05,90.35" /></g></g></g></g></svg>