<?xml version="1.0" encoding="UTF-8" standalone="no"?>
<svg
   xmlns:dc="http://purl.org/dc/elements/1.1/"
   xmlns:cc="http://creativecommons.org/ns#"
   xmlns:rdf="http://www.w3.org/1999/02/22-rdf-syntax-ns#"
   xmlns:svg="http://www.w3.org/2000/svg"
   xmlns="http://www.w3.org/2000/svg"
   viewBox="0 0 2640 1600"
   height="1600"
   width="2640"
   xml:space="preserve"
   id="svg2"
   version="1.1"><metadata
     id="metadata8"><rdf:RDF><cc:Work
         rdf:about=""><dc:format>image/svg+xml</dc:format><dc:type
           rdf:resource="http://purl.org/dc/dcmitype/StillImage" /></cc:Work></rdf:RDF></metadata><defs
     id="defs6"><clipPath
       id="clipPath18"
       clipPathUnits="userSpaceOnUse"><path
         id="path16"
         d="M 0,0 H 1980 V 1200 H 0 Z" /></clipPath><clipPath
       id="clipPath42"
       clipPathUnits="userSpaceOnUse"><path
         id="path40"
         d="M 0,0 H 1980 V 1200 H 0 Z" /></clipPath></defs><g
     transform="matrix(1.3333333,0,0,-1.3333333,0,1600)"
     id="g10"><g
       id="g12"><g
         clip-path="url(#clipPath18)"
         id="g14"><g
           transform="translate(396.1458,105.5754)"
           id="g20"><path
             id="path22"
             style="fill:#000000;fill-opacity:1;fill-rule:nonzero;stroke:none"
             d="m 0,0 -16.906,-2.054 v -1.58 h 48.032 v 1.58 L 14.062,0 v 110.758 h 22.436 c 0.948,0 1.422,-0.632 1.58,-1.58 L 40.922,77.42 h 9.796 v 34.918 H -36.656 V 77.42 h 9.954 l 2.686,31.758 c 0.158,0.948 0.632,1.58 1.738,1.58 l 22.278,0 z m 89.11,-6.162 c 15.168,0 26.544,10.27 30.02,27.018 l -1.422,0.316 C 114.39,7.268 105.542,1.264 94.956,1.264 79.63,1.264 70.15,13.114 70.15,42.818 h 49.928 C 119.92,68.73 108.544,82.792 89.9,82.792 c -19.908,0 -33.338,-15.484 -33.338,-44.398 0,-27.966 13.43,-44.556 32.548,-44.556 m -18.802,50.56 c 0.948,26.228 9.48,36.814 19.434,36.814 10.428,0 17.38,-10.586 17.222,-36.814 z m 96.537,-48.032 v 1.58 L 153.731,0 v 121.186 l -26.544,-3.95 v -1.58 h 13.114 V 0 l -13.114,-2.054 v -1.58 z m 21.171,-2.528 c 5.056,0 9.164,4.266 9.164,10.428 0,6.478 -4.108,10.112 -9.164,10.112 -5.372,0 -9.164,-3.634 -9.164,-10.112 0,-6.162 3.792,-10.428 9.164,-10.428 m 43.923,22.594 h 45.504 V -3.634 h 13.114 v 20.066 h 11.85 l 1.106,9.796 h -12.956 v 81.528 H 280.445 L 231.939,20.382 Z m 4.898,9.322 40.606,72.996 V 25.754 Z m 69.835,-9.322 h 45.504 V -3.634 h 13.114 v 20.066 h 11.849 l 1.107,9.796 H 365.29 v 81.528 H 355.178 L 306.672,20.382 Z m 4.898,9.322 40.606,72.996 V 25.754 Z m 182.645,6.004 -27.333,-31.916 v -3.476 h 63.2 l 2.053,21.014 h -1.579 L 526.922,6.636 h -52.457 l 27.492,27.492 c 21.173,21.172 27.809,34.286 27.809,47.874 0,16.906 -11.219,26.386 -30.81,26.386 -9.007,0 -19.908,-2.212 -29.705,-7.11 l 1.422,-27.808 h 9.481 l 1.422,29.23 c 0,0.632 0.316,1.106 1.264,1.58 1.737,0.79 7.268,2.212 12.008,2.212 12.323,0 20.381,-7.9 20.381,-26.228 0,-16.59 -5.687,-30.494 -21.014,-48.506 m 58.776,20.224 -1.58,0.632 3.476,55.142 h 53.088 l -1.106,-10.27 h -50.876 l -2.686,-42.818 c 7.11,6.478 17.696,10.112 28.44,10.112 16.274,0 30.81,-13.43 30.81,-34.444 0,-21.488 -15.958,-36.498 -36.024,-36.498 -10.27,0 -21.172,2.844 -28.282,7.584 l 1.58,27.966 h 9.48 l 0.948,-29.704 c 0,-0.948 0.316,-1.58 1.106,-1.896 2.212,-1.106 7.742,-2.212 12.798,-2.212 13.272,0 23.858,11.692 23.858,33.338 0,21.014 -10.112,31.442 -24.648,31.442 -7.9,0 -15.326,-2.844 -20.382,-8.374 m 105.07,-58.144 c 19.433,0 34.285,12.956 34.285,27.334 0,13.114 -7.584,24.016 -27.807,36.814 16.273,5.214 25.596,15.484 25.596,26.86 0,13.746 -11.851,23.542 -30.178,23.542 -19.119,0 -31.601,-10.902 -31.601,-25.122 0,-11.376 6.163,-21.172 22.436,-32.39 -16.115,-5.056 -26.07,-16.432 -26.07,-30.336 0,-15.8 13.114,-26.702 33.339,-26.702 m -21.015,27.65 c 0,12.798 4.109,20.382 14.694,28.598 22.437,-14.062 27.65,-21.646 27.65,-33.496 0,-12.798 -8.057,-21.172 -20.54,-21.172 -13.43,0 -21.804,9.164 -21.804,26.07 M 641.47,86.9 c 0,12.482 7.584,19.908 18.328,19.908 11.218,0 18.171,-7.9 18.171,-22.594 0,-10.586 -4.267,-17.854 -14.537,-25.438 C 646.526,69.678 641.47,77.262 641.47,86.9 M 781.615,16.432 h 45.504 V -3.634 h 13.114 v 20.066 h 11.85 l 1.106,9.796 h -12.956 v 81.528 H 830.121 L 781.615,20.382 Z m 4.898,9.322 40.606,72.996 V 25.754 Z m 75.364,71.732 v -1.58 l 15.326,1.738 V -0.158 l -14.062,-1.896 v -1.58 h 41.396 v 1.58 l -13.903,1.896 V 108.23 h -1.581 c -4.266,-3.002 -8.374,-5.056 -12.166,-6.478 -3.95,-1.422 -8.689,-2.844 -15.01,-4.266 M 951.146,-6.162 c 20.856,0 34.603,14.378 34.603,36.972 0,21.172 -13.114,34.444 -28.915,34.444 -10.902,0 -20.698,-5.372 -26.228,-15.01 1.264,39.974 12.482,55.932 33.497,56.564 2.369,0 3.634,-0.158 4.423,-0.316 0.79,-0.316 1.107,-0.79 1.107,-1.58 l 1.263,-27.808 h 9.638 l 1.423,28.44 c -6.005,1.896 -11.693,2.844 -18.012,2.844 -27.651,0 -48.032,-21.488 -48.032,-63.2 0,-34.76 14.22,-51.35 35.233,-51.35 m -20.698,53.088 c 4.74,9.322 12.482,13.904 20.856,13.904 11.376,0 20.066,-9.954 20.066,-31.6 0,-23.068 -8.058,-33.812 -19.75,-33.812 -12.955,0 -21.962,13.114 -21.172,51.508 M 1035.36,-6.162 c 19.434,0 34.286,12.956 34.286,27.334 0,13.114 -7.584,24.016 -27.808,36.814 16.274,5.214 25.596,15.484 25.596,26.86 0,13.746 -11.85,23.542 -30.178,23.542 -19.118,0 -31.6,-10.902 -31.6,-25.122 0,-11.376 6.162,-21.172 22.436,-32.39 -16.116,-5.056 -26.07,-16.432 -26.07,-30.336 0,-15.8 13.114,-26.702 33.338,-26.702 m -21.014,27.65 c 0,12.798 4.108,20.382 14.694,28.598 22.436,-14.062 27.65,-21.646 27.65,-33.496 0,-12.798 -8.058,-21.172 -20.54,-21.172 -13.43,0 -21.804,9.164 -21.804,26.07 m 4.424,65.412 c 0,12.482 7.584,19.908 18.328,19.908 11.218,0 18.17,-7.9 18.17,-22.594 0,-10.586 -4.266,-17.854 -14.536,-25.438 -16.906,10.902 -21.962,18.486 -21.962,28.124 m 102.067,-30.968 v -0.948 c 20.224,-0.79 32.074,-12.64 32.074,-29.388 0,-19.118 -14.062,-31.758 -36.182,-31.758 -9.954,0 -19.908,2.528 -30.652,8.216 l 1.422,27.65 h 9.638 l 1.264,-29.23 c 0,-1.106 0.632,-1.896 1.422,-2.212 3.16,-1.264 9.954,-2.844 14.378,-2.844 14.694,0 24.174,10.112 24.174,27.966 0,18.644 -11.218,27.966 -35.866,26.702 v 1.58 c 20.224,2.054 30.652,13.43 30.652,32.706 0,14.694 -7.584,21.962 -19.118,21.962 -5.214,0 -10.586,-0.948 -12.482,-1.58 -1.264,-0.474 -1.58,-0.948 -1.58,-2.528 l -1.106,-28.598 h -9.48 l -1.58,27.808 c 8.058,4.424 20.066,6.952 29.072,6.952 18.96,0 30.81,-9.322 30.81,-23.384 0,-13.904 -8.848,-23.542 -26.86,-29.072 m 46.767,41.554 h 56.722 l -52.772,-101.12 h 15.168 l 41.396,107.124 v 4.266 h -63.042 l -1.422,-21.488 h 1.58 z" /></g><g
           transform="translate(85.7193,809.5009)"
           id="g24"><path
             id="path26"
             style="fill:#000000;fill-opacity:1;fill-rule:nonzero;stroke:none"
             d="m 0,0 42.822,96.876 h -7.02 C -32.292,0 -42.12,-22.464 -42.12,-49.14 c 0,-38.61 23.868,-60.372 55.458,-60.372 31.59,0 54.756,22.464 54.756,55.458 C 68.094,-17.55 37.206,6.318 0,0 m 98.28,-49.14 c 0,-38.61 23.868,-60.372 55.458,-60.372 31.59,0 54.756,22.464 54.756,55.458 0,36.504 -30.888,60.372 -68.094,54.054 l 42.822,96.876 h -7.02 C 108.108,0 98.28,-22.464 98.28,-49.14 m 383.985,-388.908 c 49.842,0 94.77,9.828 142.506,33.696 l -8.424,146.016 h -82.134 l -7.722,-162.162 c 0,-2.808 -0.702,-6.318 -6.318,-7.722 -4.914,-1.404 -14.742,-2.106 -22.464,-2.106 -70.902,0 -122.148,61.074 -122.148,259.038 0,197.262 51.246,264.654 120.042,264.654 9.126,0 18.252,-0.702 23.166,-2.106 4.212,-0.702 7.722,-4.914 7.722,-8.424 l 7.722,-160.056 h 82.134 l 8.424,145.314 c -44.226,23.166 -89.154,32.994 -139.698,32.994 -153.738,0 -241.488,-91.962 -241.488,-272.376 0,-180.414 88.452,-266.76 238.68,-266.76 m 442.25,1.404 c 47.034,0 73.71,18.252 84.942,59.67 l -7.02,1.404 c -5.616,-18.252 -14.04,-25.974 -24.57,-25.974 -9.828,0 -15.444,7.02 -15.444,30.888 v 204.984 c 0,91.962 -43.524,129.168 -135.486,129.168 -48.438,0 -96.174,-9.828 -141.804,-30.888 l 8.424,-113.022 h 72.306 l 7.02,124.956 c 0,4.914 3.51,7.02 6.318,7.722 4.914,1.404 11.934,2.106 17.55,2.106 30.888,0 50.544,-23.868 50.544,-92.664 v -75.816 c -148.122,-35.1 -184.626,-69.498 -184.626,-133.38 0,-54.054 37.206,-88.452 93.366,-88.452 40.014,0 69.498,15.444 94.068,54.054 8.424,-36.504 33.696,-54.756 74.412,-54.756 m -151.632,116.532 c 0,49.842 16.848,86.346 74.412,98.28 v -127.764 c 0,-8.424 0.702,-16.146 1.404,-23.166 -11.934,-14.04 -24.57,-18.954 -37.206,-18.954 -20.358,0 -38.61,21.06 -38.61,71.604 m 368.546,-117.234 c 61.074,0 101.087,44.928 99.683,121.446 h -7.02 c -1.403,-47.736 -14.742,-67.392 -39.312,-67.392 -19.656,0 -30.888,14.742 -30.888,49.842 v 277.29 h 73.71 v 8.424 h -73.71 V 68.796 h -73.008 L 1077.547,-38.61 c -0.702,-4.212 -2.809,-5.616 -7.021,-6.318 l -68.093,-3.51 v -7.02 h 44.226 v -276.588 c 0,-68.796 35.802,-105.3 94.77,-105.3 m 291.322,0 c 113.724,0 174.798,82.134 174.798,202.878 0,127.062 -66.69,198.666 -175.5,198.666 -108.81,0 -174.798,-71.604 -174.798,-197.964 0,-123.552 63.18,-203.58 175.5,-203.58 m -51.948,202.878 c 0,161.46 18.252,190.944 51.948,190.944 31.59,0 51.246,-26.676 51.246,-191.646 0,-164.97 -19.656,-194.454 -51.246,-194.454 -33.696,0 -51.948,32.994 -51.948,195.156 m 289.223,218.322 -42.822,-96.876 h 7.02 c 68.094,96.876 77.923,119.34 77.923,146.016 0,38.61 -23.869,60.372 -55.458,60.372 -31.59,0 -54.757,-22.464 -54.757,-55.458 0,-36.504 30.888,-60.372 68.094,-54.054 m 72.306,54.054 c 0,-36.504 30.889,-60.372 68.094,-54.054 l -42.821,-96.876 h 7.019 c 68.095,96.876 77.923,119.34 77.923,146.016 0,38.61 -23.868,60.372 -55.458,60.372 -31.591,0 -54.757,-22.464 -54.757,-55.458" /></g><g
           transform="translate(493.1766,1010.6214)"
           id="g28"><path
             id="path30"
             style="fill:#000000;fill-opacity:1;fill-rule:nonzero;stroke:none"
             d="m 0,0 c 31.458,0 50.504,15.408 50.504,41.088 0,18.19 -10.7,31.886 -31.458,42.372 L -5.778,95.872 c -16.906,8.346 -24.824,19.26 -24.824,33.384 0,20.116 12.84,32.528 38.734,32.528 8.56,0 20.544,-2.354 24.396,-4.28 1.284,-0.642 1.498,-1.498 1.498,-2.354 l 1.712,-43.87 h 10.058 l 1.712,42.586 c -13.696,7.062 -27.392,10.058 -42.158,10.058 -30.174,0 -47.508,-15.408 -47.508,-39.162 0,-16.906 9.416,-31.03 31.03,-41.516 L 13.482,71.262 C 30.602,62.702 38.948,51.788 38.948,37.664 38.948,16.906 22.684,2.14 -2.14,2.14 c -8.988,0 -17.762,1.712 -29.104,5.564 -0.642,0.214 -1.498,1.284 -1.498,2.14 l -1.712,46.438 H -44.512 L -46.224,13.054 C -35.952,5.136 -18.19,0 0,0 M 83.244,7.704 63.77,5.564 v -2.14 h 51.36 v 2.14 l -19.474,2.14 v 164.78 l -31.886,-4.28 v -2.14 h 19.474 z m 16.264,57.78 45.368,-62.06 h 26.964 v 2.14 l -14.766,2.14 -47.508,64.628 37.45,38.092 c 0.856,0.856 1.712,1.284 2.782,1.498 l 19.26,1.926 v 2.14 h -46.224 v -2.14 l 22.042,-2.14 z m 154.506,48.364 v 2.14 H 216.35 v -2.14 l 25.466,-2.354 -29.318,-97.798 -32.742,98.012 16.692,2.14 v 2.14 h -38.092 v -2.14 l 8.774,-2.14 40.018,-116.202 -3.21,-10.914 c -5.136,-17.762 -13.482,-24.396 -23.54,-24.396 -1.07,0 -2.782,0.214 -3.424,0.428 -0.856,0.214 -1.284,0.856 -1.284,1.712 l -1.926,21.614 h -8.774 l -1.498,-23.54 c 3.852,-1.498 8.346,-2.568 14.766,-2.568 13.696,0 22.042,6.634 28.034,26.536 L 244.17,111.494 Z M 302.16,8.346 278.834,6.206 v -2.14 h 59.706 v 2.14 l -23.326,2.14 v 69.978 h 18.832 c 23.326,0 30.388,-7.49 33.598,-26.75 L 372.566,22.47 C 375.348,5.564 380.698,0.642 389.9,0.642 c 7.704,0 13.054,4.922 15.194,16.264 l -2.14,0.428 c -1.498,-7.918 -3.852,-10.058 -8.56,-10.058 -3.638,0 -6.634,2.996 -7.918,11.128 l -4.708,29.104 c -2.782,17.762 -10.058,30.388 -34.24,31.458 v 1.07 c 24.61,4.708 41.302,18.19 41.302,43.228 0,24.182 -15.408,37.878 -45.796,37.878 h -64.2 v -2.14 l 23.326,-2.14 z m 13.054,72.118 v 78.538 h 24.182 c 22.898,0 36.166,-13.268 36.166,-37.45 0,-27.392 -17.12,-41.088 -41.302,-41.088 z M 481.49,68.266 h -56.71 c 1.712,33.598 14.98,49.434 30.174,49.434 15.622,0 26.536,-15.836 26.536,-49.434 M 411.512,60.134 C 411.512,21.186 429.06,0 453.884,0 c 19.688,0 34.882,13.268 38.948,36.166 l -1.926,0.214 C 486.84,16.264 475.926,6.42 459.234,6.42 c -21.4,0 -34.668,16.692 -34.668,59.706 h 69.978 c -0.214,35.524 -16.478,53.714 -39.59,53.714 -24.61,0 -43.442,-19.474 -43.442,-59.706 M 585.489,0.642 c 7.062,0 12.198,3.852 14.552,12.626 l -1.926,0.642 c -1.712,-5.778 -4.28,-7.49 -7.49,-7.49 -4.28,0 -7.062,4.066 -7.062,17.762 V 83.46 c 0,25.466 -11.556,36.166 -34.454,36.166 -10.058,0 -22.042,-2.354 -32.1,-6.42 l 1.712,-32.1 h 8.988 l 1.712,32.314 c 0,0.856 0.214,1.284 1.284,1.712 3.638,1.284 11.128,2.354 16.906,2.354 14.552,0 23.54,-9.63 23.54,-35.096 V 68.48 c -44.94,-8.56 -61.632,-23.326 -61.632,-40.874 0,-15.622 10.486,-26.536 26.108,-26.75 11.77,-0.214 21.828,4.494 35.738,16.906 0.856,-12.198 5.35,-17.12 14.124,-17.12 m -63.13,30.816 c 0,17.12 9.416,26.964 48.792,35.096 V 20.116 C 557.455,9.202 551.677,7.062 543.331,7.062 c -13.91,0 -20.972,8.132 -20.972,24.396 M 648.404,0.214 c 16.906,0 30.389,11.342 35.738,28.676 V 0.428 l 31.886,4.28 v 2.14 h -19.473 v 165.636 l -31.886,-4.28 v -2.14 h 19.473 V 94.588 c -5.136,16.05 -17.547,25.466 -33.169,25.466 -23.541,0 -41.73,-20.972 -41.73,-61.418 0,-38.734 16.691,-58.422 39.161,-58.422 m -26.321,59.064 c 0,35.738 14.98,56.496 34.453,56.496 12.198,0 22.47,-8.56 27.606,-29.532 V 37.022 C 679.649,16.478 667.451,4.494 653.969,4.494 c -17.334,0 -31.886,19.26 -31.886,54.784 m 113.845,92.448 c 0,-6.42 3.852,-10.7 9.63,-10.7 5.778,0 9.63,4.28 9.63,10.7 0,6.206 -3.852,10.486 -9.63,10.486 -5.778,0 -9.63,-4.28 -9.63,-10.486 M 720.948,3.424 h 51.36 v 2.14 l -19.474,2.14 v 109.354 l -31.886,-4.28 v -2.14 h 19.474 V 7.704 l -19.474,-2.14 z m 74.469,4.28 -19.474,-2.14 v -2.14 h 51.36 v 2.14 l -19.474,2.14 v 77.468 c 6.634,20.544 17.12,28.462 31.458,28.462 15.408,0 24.396,-10.058 24.396,-34.24 V 7.704 l -19.474,-2.14 v -2.14 h 51.36 v 2.14 l -19.474,2.14 v 71.69 c 0,27.392 -11.984,39.804 -31.03,40.232 -15.836,0.428 -32.1,-11.342 -37.236,-28.248 v 25.68 l -31.886,-4.28 v -2.14 h 19.474 z m 145.946,-50.29 c 30.602,0 50.076,14.98 50.076,35.952 0,15.836 -11.342,25.68 -30.174,25.68 h -31.886 c -8.774,0 -13.268,4.28 -13.268,10.486 0,7.49 5.778,11.77 23.326,11.77 24.61,0 40.232,14.766 40.232,39.804 0,19.046 -9.202,31.886 -24.182,37.022 1.498,4.28 3.21,6.848 5.778,9.416 l 29.318,-1.712 v 11.77 c -3.21,0.214 -3.638,0.214 -6.634,0.214 -15.622,0 -26.108,-6.634 -30.602,-19.046 -3.424,1.07 -7.704,1.712 -12.198,1.712 -22.256,0 -38.092,-14.766 -38.092,-39.59 0,-20.972 11.128,-35.096 28.676,-38.092 -14.98,-0.642 -23.754,-7.704 -23.754,-17.548 0,-7.276 4.28,-13.054 11.984,-15.836 -14.124,-3.21 -22.042,-11.77 -22.042,-23.326 0,-16.906 16.478,-28.676 43.442,-28.676 m -32.1,29.746 c 0,10.058 4.28,16.264 13.268,21.614 1.712,-0.214 4.066,-0.428 6.42,-0.428 h 28.89 c 14.766,0 22.042,-6.206 22.042,-19.26 0,-16.906 -13.054,-29.746 -36.594,-29.746 -21.828,0 -34.026,10.914 -34.026,27.82 m 6.634,93.946 c 0,24.824 10.486,37.236 25.466,37.236 14.98,0 25.466,-11.984 25.466,-37.45 0,-25.038 -10.272,-37.45 -25.466,-37.45 -15.194,0 -25.466,12.412 -25.466,37.664 m 101.862,-3.852 c 5.778,0 10.272,5.136 10.272,12.412 0,7.918 -4.494,11.984 -10.272,11.984 -6.206,0 -10.486,-4.066 -10.486,-11.984 0,-7.276 4.28,-12.412 10.486,-12.412 m -10.486,-64.628 c 0,-7.276 4.28,-12.412 10.486,-12.412 5.992,0 10.486,5.136 10.486,12.412 0,7.918 -4.494,11.984 -10.486,11.984 -6.206,0 -10.486,-4.066 -10.486,-11.984" /></g></g></g><path
       id="path32"
       style="fill:#000000;fill-opacity:1;fill-rule:nonzero;stroke:none"
       d="m 790.773,151.112 h 55.616 v 1.58 h -55.616 z" /><path
       id="path34"
       style="fill:#000000;fill-opacity:1;fill-rule:nonzero;stroke:none"
       d="m 1106.633,151.112 h 55.616 v 1.58 h -55.616 z" /><g
       id="g36"><g
         clip-path="url(#clipPath42)"
         id="g38"><g
           transform="translate(863.1343,935.2742)"
           id="g44"><path
             id="path46"
             style="fill:#000000;fill-opacity:1;fill-rule:nonzero;stroke:none"
             d="M 0,0 -0.196,-0.924 H 5.74 L 5.936,0 3.164,0.7 5.432,4.648 H 13.44 L 13.888,0.7 10.64,0 10.444,-0.924 h 7.028 L 17.668,0 16.324,0.7 14.224,19.012 H 12.096 L 1.54,0.7 Z M 6.216,5.992 12.124,16.268 13.3,5.992 Z M 22.82,11.648 19.908,-0.924 h 2.24 l 1.848,7.868 c 1.4,2.352 2.996,4.004 4.592,4.9 l 0.252,-3.08 h 1.008 l 1.148,4.452 c -0.196,0.056 -0.364,0.084 -0.7,0.084 -2.184,0 -4.592,-2.156 -5.88,-4.256 l 0.952,4.256 -4.564,-0.252 -0.14,-1.26 z M 36.288,-1.316 c 2.128,0 3.92,0.98 5.18,2.8 l -0.588,0.56 c -1.092,-1.12 -2.296,-1.68 -3.696,-1.68 -2.38,0 -4.116,2.464 -3.136,6.804 0.812,3.5 2.856,5.208 5.516,5.208 0.392,0 0.7,-0.028 1.092,-0.112 l 0.28,-3.92 h 1.204 l 1.036,4.368 c -0.756,0.42 -2.184,0.784 -3.444,0.784 -4.116,0 -7.056,-2.268 -8.092,-6.692 -1.12,-4.816 1.12,-8.12 4.648,-8.12 m 11.06,3.248 2.38,9.912 h 3.192 l 0.224,1.148 h -3.136 l 1.064,4.48 h -2.24 l -1.064,-4.48 h -2.24 l -0.224,-1.148 h 2.184 l -2.324,-9.66 c -0.616,-2.576 0.196,-3.5 2.156,-3.5 1.624,0 2.912,0.588 3.808,1.904 L 50.54,1.204 C 49.812,0.476 49.056,0.168 48.188,0.168 c -0.896,0 -1.176,0.364 -0.84,1.764 M 56.083,-1.4 c 1.26,0 2.576,0.7 3.36,1.904 L 58.855,1.12 C 58.267,0.476 57.427,0.084 56.839,0.084 c -0.56,0 -0.7,0.364 -0.42,1.568 l 2.8,11.648 -4.76,-0.252 -0.14,-1.26 2.268,-0.14 -2.408,-9.968 c -0.448,-1.904 0.112,-3.08 1.904,-3.08 m 1.428,18.844 c -0.224,-1.008 0.224,-1.68 1.204,-1.68 0.868,0 1.708,0.672 1.932,1.68 0.252,1.036 -0.28,1.624 -1.148,1.624 -0.98,0 -1.736,-0.588 -1.988,-1.624 m 8.96,-18.76 c 2.128,0 3.92,0.98 5.18,2.8 l -0.588,0.56 c -1.092,-1.12 -2.296,-1.68 -3.696,-1.68 -2.38,0 -4.116,2.464 -3.136,6.804 0.812,3.5 2.856,5.208 5.516,5.208 0.392,0 0.7,-0.028 1.092,-0.112 l 0.28,-3.92 h 1.204 l 1.036,4.368 c -0.756,0.42 -2.184,0.784 -3.444,0.784 -4.116,0 -7.056,-2.268 -8.092,-6.692 -1.12,-4.816 1.12,-8.12 4.648,-8.12 m 18.2,0.056 c 1.372,0 2.66,0.7 3.444,1.904 L 87.527,1.26 C 86.939,0.616 86.099,0.224 85.511,0.224 c -0.476,0 -0.756,0.28 -0.56,1.064 l 2.94,12.096 h -1.624 l -0.84,-0.896 c -1.036,0.7 -2.072,1.008 -3.192,1.008 -3.36,0 -6.384,-2.632 -7.476,-6.804 -1.148,-4.256 0.868,-8.008 3.136,-8.008 1.456,0 3.164,1.064 5.124,3.864 l -0.28,-1.12 c -0.448,-1.764 0.42,-2.688 1.932,-2.688 m -7.56,7.896 c 0.868,3.556 3.248,5.74 5.572,5.74 0.896,0 1.932,-0.392 2.492,-1.008 l -1.82,-7.392 c -1.848,-2.24 -3.892,-3.472 -4.76,-3.472 -1.372,0 -2.436,2.38 -1.484,6.132 m 15.372,-7.56 h 8.54 c 6.076,0 11.144,3.472 12.32,10.108 1.092,6.132 -1.82,9.828 -7.588,9.828 h -8.68 l -0.196,-0.924 2.576,-0.7 L 95.591,0.7 92.679,0 Z m 5.432,1.4 3.976,17.136 h 3.472 c 4.676,0 6.524,-3.052 5.376,-8.512 -1.316,-6.244 -4.452,-8.624 -9.128,-8.624 z M 117.654,-1.4 c 1.26,0 2.576,0.7 3.36,1.904 l -0.588,0.616 c -0.587,-0.644 -1.428,-1.036 -2.016,-1.036 -0.56,0 -0.7,0.364 -0.42,1.568 l 2.8,11.648 -4.76,-0.252 -0.139,-1.26 2.267,-0.14 -2.408,-9.968 c -0.448,-1.904 0.112,-3.08 1.904,-3.08 m 1.428,18.844 c -0.224,-1.008 0.224,-1.68 1.204,-1.68 0.868,0 1.709,0.672 1.933,1.68 0.251,1.036 -0.281,1.624 -1.149,1.624 -0.98,0 -1.736,-0.588 -1.988,-1.624 m 5.152,-7.056 c 0.448,1.848 2.38,3.136 4.732,3.108 1.568,0.028 3.528,-0.56 4.396,-1.176 l -0.98,-3.248 h -1.064 l -0.224,3.024 c -0.672,0.224 -1.4,0.308 -2.128,0.28 -1.624,0.028 -2.604,-0.616 -2.884,-1.708 -0.308,-1.26 0.42,-2.352 2.632,-3.64 3.136,-1.82 3.808,-3.304 3.36,-5.236 -0.42,-1.848 -2.296,-3.08 -5.152,-3.08 -1.764,0 -3.752,0.56 -4.536,1.148 l 1.036,3.388 h 1.064 l 0.28,-3.024 c 0.588,-0.224 1.428,-0.392 2.128,-0.392 2.044,0 3.08,0.644 3.332,1.68 0.336,1.204 -0.392,2.296 -2.828,3.724 -2.716,1.596 -3.612,3.276 -3.164,5.152 m 15.932,-11.76 c 4.396,0 8.4,3.724 8.4,9.296 0,3.304 -1.68,5.516 -3.5,5.516 -1.708,0 -3.584,-1.316 -5.292,-4.564 l 1.064,4.368 -4.396,-0.252 -0.14,-1.26 1.876,-0.14 -4.144,-17.388 -1.68,-0.168 -0.28,-1.26 h 6.328 l 0.28,1.26 -2.408,0.14 1.232,5.152 c 0.7,-0.448 1.596,-0.7 2.66,-0.7 m -2.24,2.436 1.428,6.02 c 1.904,2.94 3.808,4.536 4.984,4.536 1.092,0 1.876,-1.26 1.876,-4.06 0,-4.844 -2.856,-7.812 -5.852,-7.812 -1.092,0 -1.96,0.448 -2.436,1.316 m 15.12,18.2 2.128,-0.14 -4.2,-17.444 c -0.448,-1.904 0.168,-3.08 1.904,-3.08 1.26,0 2.576,0.7 3.36,1.904 L 155.65,1.12 c -0.588,-0.644 -1.428,-1.036 -2.016,-1.036 -0.56,0 -0.7,0.364 -0.42,1.568 l 4.592,19.124 -4.62,-0.252 z M 168.782,-1.26 c 1.372,0 2.66,0.7 3.444,1.904 l -0.588,0.616 c -0.588,-0.644 -1.428,-1.036 -2.016,-1.036 -0.476,0 -0.756,0.28 -0.56,1.064 l 2.94,12.096 h -1.624 l -0.84,-0.896 c -1.036,0.7 -2.072,1.008 -3.192,1.008 -3.36,0 -6.384,-2.632 -7.476,-6.804 -1.148,-4.256 0.868,-8.008 3.136,-8.008 1.456,0 3.164,1.064 5.124,3.864 l -0.28,-1.12 c -0.448,-1.764 0.42,-2.688 1.932,-2.688 m -7.56,7.896 c 0.868,3.556 3.248,5.74 5.572,5.74 0.896,0 1.932,-0.392 2.492,-1.008 l -1.82,-7.392 c -1.848,-2.24 -3.892,-3.472 -4.76,-3.472 -1.372,0 -2.436,2.38 -1.484,6.132 m 23.296,-8.232 3.5,14.588 h -2.24 l -1.82,-7.644 c -2.072,-3.472 -4.34,-5.292 -5.824,-5.292 -0.812,0 -1.204,0.56 -0.728,2.492 l 2.604,10.752 -4.76,-0.252 -0.14,-1.26 2.24,-0.14 -2.184,-9.044 c -0.672,-2.744 0.42,-4.004 2.184,-4.004 1.96,0 3.948,1.428 6.076,4.564 l -1.008,-4.228 c -1.008,-4.2 -2.632,-5.292 -5.796,-5.292 -0.476,0 -0.812,0.028 -1.232,0.112 l -0.28,2.436 h -1.568 l -0.7,-2.8 c 1.008,-0.504 2.044,-0.812 3.92,-0.812 4.172,0 6.72,1.54 7.756,5.824 M 192.441,0 192.245,-0.924 h 14.448 l 1.316,6.58 h -1.344 l -1.68,-4.816 c -0.056,-0.196 -0.252,-0.364 -0.448,-0.364 h -6.86 l 3.92,16.912 3.164,0.7 0.196,0.924 h -8.12 l -0.196,-0.924 2.576,-0.7 L 195.353,0.7 Z m 19.74,-1.4 c 1.26,0 2.577,0.7 3.36,1.904 l -0.588,0.616 c -0.588,-0.644 -1.428,-1.036 -2.016,-1.036 -0.56,0 -0.7,0.364 -0.42,1.568 l 2.8,11.648 -4.76,-0.252 -0.14,-1.26 2.268,-0.14 -2.408,-9.968 c -0.448,-1.904 0.112,-3.08 1.904,-3.08 m 1.428,18.844 c -0.224,-1.008 0.224,-1.68 1.204,-1.68 0.868,0 1.708,0.672 1.932,1.68 0.252,1.036 -0.28,1.624 -1.148,1.624 -0.98,0 -1.735,-0.588 -1.988,-1.624 m 7.728,-18.928 c 1.456,0 3.164,1.064 5.124,3.864 l -0.84,-3.5 c -1.008,-4.2 -2.744,-5.236 -5.768,-5.236 -0.476,0 -0.812,0.028 -1.232,0.112 v 2.436 h -1.848 l -0.728,-2.8 c 1.092,-0.532 2.128,-0.812 3.948,-0.812 4.144,0 6.72,1.456 7.84,6.16 l 3.5,14.644 h -1.624 l -0.84,-0.896 c -1.036,0.672 -2.1,1.008 -3.22,1.008 -3.388,0 -6.44,-2.688 -7.532,-6.832 -1.148,-4.424 0.84,-8.148 3.22,-8.148 m -0.868,8.12 c 0.84,3.416 3.22,5.74 5.544,5.74 0.952,0 2.072,-0.476 2.576,-1.092 l -1.792,-7.476 c -1.764,-2.156 -3.864,-3.472 -4.788,-3.472 -1.428,0 -2.492,2.352 -1.54,6.3 M 242.981,-1.4 c 1.26,0 2.576,0.7 3.36,1.904 l -0.588,0.616 c -0.588,-0.644 -1.428,-1.036 -2.016,-1.036 -0.56,0 -0.728,0.336 -0.42,1.568 l 1.932,7.812 c 0.616,2.492 -0.308,4.004 -2.408,4.004 -1.736,0 -3.92,-1.428 -5.936,-4.452 l 2.688,11.76 -4.62,-0.252 -0.14,-1.26 2.128,-0.14 -4.592,-20.048 h 2.24 l 1.792,7.756 c 2.044,3.388 4.312,5.18 5.768,5.18 0.952,0 1.288,-0.7 0.84,-2.492 l -1.932,-7.84 c -0.532,-2.156 0.252,-3.08 1.904,-3.08 m 8.204,3.332 2.38,9.912 h 3.192 l 0.224,1.148 h -3.136 l 1.064,4.48 h -2.24 l -1.064,-4.48 h -2.24 l -0.224,-1.148 h 2.184 l -2.324,-9.66 c -0.617,-2.576 0.195,-3.5 2.156,-3.5 1.624,0 2.912,0.588 3.808,1.904 l -0.588,0.616 c -0.728,-0.728 -1.484,-1.036 -2.352,-1.036 -0.896,0 -1.176,0.364 -0.84,1.764" /></g><g
           transform="translate(866.326,296.343)"
           id="g48"><path
             id="path50"
             style="fill:#000000;fill-opacity:1;fill-rule:nonzero;stroke:none"
             d="M 0,0 -0.196,-0.924 H 5.74 L 5.936,0 3.164,0.7 5.432,4.648 H 13.44 L 13.888,0.7 10.64,0 10.444,-0.924 h 7.028 L 17.668,0 16.324,0.7 14.224,19.012 H 12.096 L 1.54,0.7 Z M 6.216,5.992 12.124,16.268 13.3,5.992 Z M 22.82,11.648 19.908,-0.924 h 2.24 l 1.848,7.868 c 1.4,2.352 2.996,4.004 4.592,4.9 l 0.252,-3.08 h 1.008 l 1.148,4.452 c -0.196,0.056 -0.364,0.084 -0.7,0.084 -2.184,0 -4.592,-2.156 -5.88,-4.256 l 0.952,4.256 -4.564,-0.252 -0.14,-1.26 z M 36.288,-1.316 c 2.128,0 3.92,0.98 5.18,2.8 l -0.588,0.56 c -1.092,-1.12 -2.296,-1.68 -3.696,-1.68 -2.38,0 -4.116,2.464 -3.136,6.804 0.812,3.5 2.856,5.208 5.516,5.208 0.392,0 0.7,-0.028 1.092,-0.112 l 0.28,-3.92 h 1.204 l 1.036,4.368 c -0.756,0.42 -2.184,0.784 -3.444,0.784 -4.116,0 -7.056,-2.268 -8.092,-6.692 -1.12,-4.816 1.12,-8.12 4.648,-8.12 m 11.06,3.248 2.38,9.912 h 3.192 l 0.224,1.148 h -3.136 l 1.064,4.48 h -2.24 l -1.064,-4.48 h -2.24 l -0.224,-1.148 h 2.184 l -2.324,-9.66 c -0.616,-2.576 0.196,-3.5 2.156,-3.5 1.624,0 2.912,0.588 3.808,1.904 L 50.54,1.204 C 49.812,0.476 49.056,0.168 48.188,0.168 c -0.896,0 -1.176,0.364 -0.84,1.764 M 56.083,-1.4 c 1.26,0 2.576,0.7 3.36,1.904 L 58.855,1.12 C 58.267,0.476 57.427,0.084 56.839,0.084 c -0.56,0 -0.7,0.364 -0.42,1.568 l 2.8,11.648 -4.76,-0.252 -0.14,-1.26 2.268,-0.14 -2.408,-9.968 c -0.448,-1.904 0.112,-3.08 1.904,-3.08 m 1.428,18.844 c -0.224,-1.008 0.224,-1.68 1.204,-1.68 0.868,0 1.708,0.672 1.932,1.68 0.252,1.036 -0.28,1.624 -1.148,1.624 -0.98,0 -1.736,-0.588 -1.988,-1.624 m 8.96,-18.76 c 2.128,0 3.92,0.98 5.18,2.8 l -0.588,0.56 c -1.092,-1.12 -2.296,-1.68 -3.696,-1.68 -2.38,0 -4.116,2.464 -3.136,6.804 0.812,3.5 2.856,5.208 5.516,5.208 0.392,0 0.7,-0.028 1.092,-0.112 l 0.28,-3.92 h 1.204 l 1.036,4.368 c -0.756,0.42 -2.184,0.784 -3.444,0.784 -4.116,0 -7.056,-2.268 -8.092,-6.692 -1.12,-4.816 1.12,-8.12 4.648,-8.12 m 18.2,0.056 c 1.372,0 2.66,0.7 3.444,1.904 L 87.527,1.26 C 86.939,0.616 86.099,0.224 85.511,0.224 c -0.476,0 -0.756,0.28 -0.56,1.064 l 2.94,12.096 h -1.624 l -0.84,-0.896 c -1.036,0.7 -2.072,1.008 -3.192,1.008 -3.36,0 -6.384,-2.632 -7.476,-6.804 -1.148,-4.256 0.868,-8.008 3.136,-8.008 1.456,0 3.164,1.064 5.124,3.864 l -0.28,-1.12 c -0.448,-1.764 0.42,-2.688 1.932,-2.688 m -7.56,7.896 c 0.868,3.556 3.248,5.74 5.572,5.74 0.896,0 1.932,-0.392 2.492,-1.008 l -1.82,-7.392 c -1.848,-2.24 -3.892,-3.472 -4.76,-3.472 -1.372,0 -2.436,2.38 -1.484,6.132 m 15.372,-7.56 h 8.54 c 6.076,0 11.144,3.472 12.32,10.108 1.092,6.132 -1.82,9.828 -7.588,9.828 h -8.68 l -0.196,-0.924 2.576,-0.7 L 95.591,0.7 92.679,0 Z m 5.432,1.4 3.976,17.136 h 3.472 c 4.676,0 6.524,-3.052 5.376,-8.512 -1.316,-6.244 -4.452,-8.624 -9.128,-8.624 z M 117.654,-1.4 c 1.26,0 2.577,0.7 3.361,1.904 l -0.588,0.616 c -0.588,-0.644 -1.428,-1.036 -2.016,-1.036 -0.56,0 -0.7,0.364 -0.421,1.568 l 2.801,11.648 -4.76,-0.252 -0.14,-1.26 2.268,-0.14 -2.409,-9.968 c -0.448,-1.904 0.112,-3.08 1.904,-3.08 m 1.429,18.844 c -0.224,-1.008 0.224,-1.68 1.203,-1.68 0.868,0 1.709,0.672 1.933,1.68 0.252,1.036 -0.28,1.624 -1.149,1.624 -0.979,0 -1.735,-0.588 -1.987,-1.624 m 5.151,-7.056 c 0.448,1.848 2.38,3.136 4.732,3.108 1.568,0.028 3.528,-0.56 4.396,-1.176 l -0.98,-3.248 h -1.064 l -0.224,3.024 c -0.672,0.224 -1.4,0.308 -2.128,0.28 -1.624,0.028 -2.604,-0.616 -2.884,-1.708 -0.308,-1.26 0.42,-2.352 2.632,-3.64 3.136,-1.82 3.808,-3.304 3.36,-5.236 -0.42,-1.848 -2.296,-3.08 -5.152,-3.08 -1.764,0 -3.752,0.56 -4.536,1.148 l 1.036,3.388 h 1.064 l 0.28,-3.024 c 0.588,-0.224 1.428,-0.392 2.128,-0.392 2.044,0 3.08,0.644 3.332,1.68 0.336,1.204 -0.392,2.296 -2.828,3.724 -2.716,1.596 -3.612,3.276 -3.164,5.152 m 15.932,-11.76 c 4.396,0 8.4,3.724 8.4,9.296 0,3.304 -1.68,5.516 -3.5,5.516 -1.708,0 -3.584,-1.316 -5.292,-4.564 l 1.064,4.368 -4.396,-0.252 -0.14,-1.26 1.876,-0.14 -4.144,-17.388 -1.68,-0.168 -0.28,-1.26 h 6.328 l 0.28,1.26 -2.408,0.14 1.232,5.152 c 0.7,-0.448 1.596,-0.7 2.66,-0.7 m -2.24,2.436 1.428,6.02 c 1.904,2.94 3.808,4.536 4.984,4.536 1.092,0 1.876,-1.26 1.876,-4.06 0,-4.844 -2.856,-7.812 -5.852,-7.812 -1.092,0 -1.96,0.448 -2.436,1.316 m 15.12,18.2 2.128,-0.14 -4.2,-17.444 c -0.448,-1.904 0.168,-3.08 1.904,-3.08 1.26,0 2.576,0.7 3.36,1.904 L 155.65,1.12 c -0.588,-0.644 -1.428,-1.036 -2.016,-1.036 -0.56,0 -0.7,0.364 -0.42,1.568 l 4.592,19.124 -4.62,-0.252 z M 168.782,-1.26 c 1.372,0 2.66,0.7 3.444,1.904 l -0.588,0.616 c -0.588,-0.644 -1.428,-1.036 -2.016,-1.036 -0.476,0 -0.756,0.28 -0.56,1.064 l 2.94,12.096 h -1.624 l -0.84,-0.896 c -1.036,0.7 -2.072,1.008 -3.192,1.008 -3.36,0 -6.384,-2.632 -7.476,-6.804 -1.148,-4.256 0.868,-8.008 3.136,-8.008 1.456,0 3.164,1.064 5.124,3.864 l -0.28,-1.12 c -0.448,-1.764 0.42,-2.688 1.932,-2.688 m -7.56,7.896 c 0.868,3.556 3.248,5.74 5.572,5.74 0.896,0 1.932,-0.392 2.492,-1.008 l -1.82,-7.392 c -1.848,-2.24 -3.892,-3.472 -4.76,-3.472 -1.372,0 -2.436,2.38 -1.484,6.132 m 23.296,-8.232 3.5,14.588 h -2.24 l -1.82,-7.644 c -2.072,-3.472 -4.34,-5.292 -5.824,-5.292 -0.812,0 -1.204,0.56 -0.728,2.492 l 2.604,10.752 -4.76,-0.252 -0.14,-1.26 2.24,-0.14 -2.184,-9.044 c -0.672,-2.744 0.42,-4.004 2.184,-4.004 1.96,0 3.948,1.428 6.076,4.564 l -1.008,-4.228 c -1.008,-4.2 -2.632,-5.292 -5.796,-5.292 -0.476,0 -0.812,0.028 -1.232,0.112 l -0.28,2.436 h -1.568 l -0.7,-2.8 c 1.008,-0.504 2.044,-0.812 3.92,-0.812 4.172,0 6.72,1.54 7.756,5.824 M 192.441,0 192.245,-0.924 h 9.184 c 3.92,0 7,2.156 7.701,5.544 0.587,2.912 -1.009,4.676 -4.425,4.9 l 0.056,0.196 c 2.968,0.28 5.18,1.988 5.684,4.2 0.644,2.772 -1.231,5.096 -5.404,5.096 h -8.204 l -0.196,-0.924 2.576,-0.7 L 195.353,0.7 Z m 5.236,0.476 1.932,8.288 h 3.192 c 3.36,0 4.48,-1.484 3.808,-4.284 -0.672,-2.8 -2.464,-4.004 -5.712,-4.004 z m 2.268,9.744 1.708,7.392 h 2.436 c 3.276,0 4.452,-1.372 3.892,-3.696 -0.56,-2.324 -2.576,-3.696 -5.292,-3.696 z m 17.108,-11.508 c 3.64,0 6.692,2.576 7.84,6.748 1.26,4.648 -0.784,7.98 -4.788,7.98 -3.78,0 -6.916,-2.828 -7.952,-7.084 -1.12,-4.592 1.092,-7.644 4.9,-7.644 m -2.436,7.532 c 0.924,4.06 3.136,6.048 5.264,6.048 2.38,0 3.64,-2.464 2.548,-6.72 -0.952,-3.78 -3.024,-5.712 -5.18,-5.712 -2.212,0 -3.612,2.072 -2.632,6.384 m 15.036,13.02 2.128,-0.14 -4.2,-17.444 c -0.448,-1.904 0.168,-3.08 1.904,-3.08 1.26,0 2.576,0.7 3.36,1.904 l -0.588,0.616 c -0.588,-0.644 -1.428,-1.036 -2.016,-1.036 -0.56,0 -0.7,0.364 -0.42,1.568 l 4.592,19.124 -4.62,-0.252 z m 8.792,-20.58 c 1.512,0 3.444,1.232 5.348,3.724 l -0.14,-0.56 c -0.476,-1.904 0.28,-3.08 1.792,-3.08 1.344,0 2.632,0.756 3.472,1.876 l -0.588,0.616 c -0.588,-0.672 -1.372,-1.036 -1.96,-1.036 -0.532,0 -0.784,0.392 -0.56,1.288 l 4.648,19.264 -4.62,-0.252 -0.14,-1.26 2.128,-0.14 -1.568,-6.552 c -1.064,0.672 -2.24,0.98 -3.304,0.98 -3.248,0 -6.328,-2.548 -7.476,-6.888 -1.204,-4.508 0.84,-7.98 2.968,-7.98 m -0.616,7.952 c 0.868,3.556 3.276,5.796 5.488,5.796 0.924,0 2.128,-0.476 2.632,-1.092 l -1.792,-7.392 c -1.932,-2.408 -3.584,-3.444 -4.592,-3.444 -1.456,0 -2.716,2.184 -1.736,6.132" /></g><g
           transform="translate(845.4243,22.7742)"
           id="g52"><path
             id="path54"
             style="fill:#000000;fill-opacity:1;fill-rule:nonzero;stroke:none"
             d="M 0,0 -0.196,-0.924 H 5.74 L 5.936,0 3.164,0.7 5.432,4.648 H 13.44 L 13.888,0.7 10.64,0 10.444,-0.924 h 7.028 L 17.668,0 16.324,0.7 14.224,19.012 H 12.096 L 1.54,0.7 Z M 6.216,5.992 12.124,16.268 13.3,5.992 Z M 22.82,11.648 19.908,-0.924 h 2.24 l 1.848,7.868 c 1.4,2.352 2.996,4.004 4.592,4.9 l 0.252,-3.08 h 1.008 l 1.148,4.452 c -0.196,0.056 -0.364,0.084 -0.7,0.084 -2.184,0 -4.592,-2.156 -5.88,-4.256 l 0.952,4.256 -4.564,-0.252 -0.14,-1.26 z M 36.288,-1.316 c 2.128,0 3.92,0.98 5.18,2.8 l -0.588,0.56 c -1.092,-1.12 -2.296,-1.68 -3.696,-1.68 -2.38,0 -4.116,2.464 -3.136,6.804 0.812,3.5 2.856,5.208 5.516,5.208 0.392,0 0.7,-0.028 1.092,-0.112 l 0.28,-3.92 h 1.204 l 1.036,4.368 c -0.756,0.42 -2.184,0.784 -3.444,0.784 -4.116,0 -7.056,-2.268 -8.092,-6.692 -1.12,-4.816 1.12,-8.12 4.648,-8.12 m 11.06,3.248 2.38,9.912 h 3.192 l 0.224,1.148 h -3.136 l 1.064,4.48 h -2.24 l -1.064,-4.48 h -2.24 l -0.224,-1.148 h 2.184 l -2.324,-9.66 c -0.616,-2.576 0.196,-3.5 2.156,-3.5 1.624,0 2.912,0.588 3.808,1.904 L 50.54,1.204 C 49.812,0.476 49.056,0.168 48.188,0.168 c -0.896,0 -1.176,0.364 -0.84,1.764 M 56.083,-1.4 c 1.26,0 2.576,0.7 3.36,1.904 L 58.855,1.12 C 58.267,0.476 57.427,0.084 56.839,0.084 c -0.56,0 -0.7,0.364 -0.42,1.568 l 2.8,11.648 -4.76,-0.252 -0.14,-1.26 2.268,-0.14 -2.408,-9.968 c -0.448,-1.904 0.112,-3.08 1.904,-3.08 m 1.428,18.844 c -0.224,-1.008 0.224,-1.68 1.204,-1.68 0.868,0 1.708,0.672 1.932,1.68 0.252,1.036 -0.28,1.624 -1.148,1.624 -0.98,0 -1.736,-0.588 -1.988,-1.624 m 8.96,-18.76 c 2.128,0 3.92,0.98 5.18,2.8 l -0.588,0.56 c -1.092,-1.12 -2.296,-1.68 -3.696,-1.68 -2.38,0 -4.116,2.464 -3.136,6.804 0.812,3.5 2.856,5.208 5.516,5.208 0.392,0 0.7,-0.028 1.092,-0.112 l 0.28,-3.92 h 1.204 l 1.036,4.368 c -0.756,0.42 -2.184,0.784 -3.444,0.784 -4.116,0 -7.056,-2.268 -8.092,-6.692 -1.12,-4.816 1.12,-8.12 4.648,-8.12 m 18.2,0.056 c 1.372,0 2.66,0.7 3.444,1.904 L 87.527,1.26 C 86.939,0.616 86.099,0.224 85.511,0.224 c -0.476,0 -0.756,0.28 -0.56,1.064 l 2.94,12.096 h -1.624 l -0.84,-0.896 c -1.036,0.7 -2.072,1.008 -3.192,1.008 -3.36,0 -6.384,-2.632 -7.476,-6.804 -1.148,-4.256 0.868,-8.008 3.136,-8.008 1.456,0 3.164,1.064 5.124,3.864 l -0.28,-1.12 c -0.448,-1.764 0.42,-2.688 1.932,-2.688 m -7.56,7.896 c 0.868,3.556 3.248,5.74 5.572,5.74 0.896,0 1.932,-0.392 2.492,-1.008 l -1.82,-7.392 c -1.848,-2.24 -3.892,-3.472 -4.76,-3.472 -1.372,0 -2.436,2.38 -1.484,6.132 m 15.372,-7.56 h 8.54 c 6.076,0 11.144,3.472 12.32,10.108 1.092,6.132 -1.82,9.828 -7.588,9.828 h -8.68 l -0.196,-0.924 2.576,-0.7 L 95.591,0.7 92.679,0 Z m 5.432,1.4 3.976,17.136 h 3.472 c 4.676,0 6.524,-3.052 5.376,-8.512 -1.316,-6.244 -4.452,-8.624 -9.128,-8.624 z M 117.654,-1.4 c 1.26,0 2.577,0.7 3.361,1.904 l -0.588,0.616 c -0.588,-0.644 -1.428,-1.036 -2.016,-1.036 -0.56,0 -0.7,0.364 -0.421,1.568 l 2.801,11.648 -4.76,-0.252 -0.14,-1.26 2.268,-0.14 -2.409,-9.968 c -0.448,-1.904 0.112,-3.08 1.904,-3.08 m 1.429,18.844 c -0.224,-1.008 0.224,-1.68 1.203,-1.68 0.868,0 1.709,0.672 1.933,1.68 0.252,1.036 -0.28,1.624 -1.149,1.624 -0.979,0 -1.735,-0.588 -1.987,-1.624 m 5.151,-7.056 c 0.448,1.848 2.38,3.136 4.732,3.108 1.568,0.028 3.528,-0.56 4.396,-1.176 l -0.98,-3.248 h -1.064 l -0.224,3.024 c -0.672,0.224 -1.4,0.308 -2.128,0.28 -1.624,0.028 -2.604,-0.616 -2.884,-1.708 -0.308,-1.26 0.42,-2.352 2.632,-3.64 3.136,-1.82 3.808,-3.304 3.36,-5.236 -0.42,-1.848 -2.296,-3.08 -5.152,-3.08 -1.764,0 -3.752,0.56 -4.536,1.148 l 1.036,3.388 h 1.064 l 0.28,-3.024 c 0.588,-0.224 1.428,-0.392 2.128,-0.392 2.044,0 3.08,0.644 3.332,1.68 0.336,1.204 -0.392,2.296 -2.828,3.724 -2.716,1.596 -3.612,3.276 -3.164,5.152 m 15.932,-11.76 c 4.396,0 8.4,3.724 8.4,9.296 0,3.304 -1.68,5.516 -3.5,5.516 -1.708,0 -3.584,-1.316 -5.292,-4.564 l 1.064,4.368 -4.396,-0.252 -0.14,-1.26 1.876,-0.14 -4.144,-17.388 -1.68,-0.168 -0.28,-1.26 h 6.328 l 0.28,1.26 -2.408,0.14 1.232,5.152 c 0.7,-0.448 1.596,-0.7 2.66,-0.7 m -2.24,2.436 1.428,6.02 c 1.904,2.94 3.808,4.536 4.984,4.536 1.092,0 1.876,-1.26 1.876,-4.06 0,-4.844 -2.856,-7.812 -5.852,-7.812 -1.092,0 -1.96,0.448 -2.436,1.316 m 15.12,18.2 2.128,-0.14 -4.2,-17.444 c -0.448,-1.904 0.168,-3.08 1.904,-3.08 1.26,0 2.576,0.7 3.36,1.904 L 155.65,1.12 c -0.588,-0.644 -1.428,-1.036 -2.016,-1.036 -0.56,0 -0.7,0.364 -0.42,1.568 l 4.592,19.124 -4.62,-0.252 z M 168.782,-1.26 c 1.372,0 2.66,0.7 3.444,1.904 l -0.588,0.616 c -0.588,-0.644 -1.428,-1.036 -2.016,-1.036 -0.476,0 -0.756,0.28 -0.56,1.064 l 2.94,12.096 h -1.624 l -0.84,-0.896 c -1.036,0.7 -2.072,1.008 -3.192,1.008 -3.36,0 -6.384,-2.632 -7.476,-6.804 -1.148,-4.256 0.868,-8.008 3.136,-8.008 1.456,0 3.164,1.064 5.124,3.864 l -0.28,-1.12 c -0.448,-1.764 0.42,-2.688 1.932,-2.688 m -7.56,7.896 c 0.868,3.556 3.248,5.74 5.572,5.74 0.896,0 1.932,-0.392 2.492,-1.008 l -1.82,-7.392 c -1.848,-2.24 -3.892,-3.472 -4.76,-3.472 -1.372,0 -2.436,2.38 -1.484,6.132 m 23.296,-8.232 3.5,14.588 h -2.24 l -1.82,-7.644 c -2.072,-3.472 -4.34,-5.292 -5.824,-5.292 -0.812,0 -1.204,0.56 -0.728,2.492 l 2.604,10.752 -4.76,-0.252 -0.14,-1.26 2.24,-0.14 -2.184,-9.044 c -0.672,-2.744 0.42,-4.004 2.184,-4.004 1.96,0 3.948,1.428 6.076,4.564 l -1.008,-4.228 c -1.008,-4.2 -2.632,-5.292 -5.796,-5.292 -0.476,0 -0.812,0.028 -1.232,0.112 l -0.28,2.436 h -1.568 l -0.7,-2.8 c 1.008,-0.504 2.044,-0.812 3.92,-0.812 4.172,0 6.72,1.54 7.756,5.824 M 192.441,0 192.245,-0.924 h 7.84 l 0.196,0.924 -2.548,0.7 1.764,7.644 h 2.716 c 2.38,0 3.276,-0.868 3.192,-3.5 l -0.112,-3.08 c -0.084,-2.156 0.868,-3.108 2.156,-3.108 1.092,0 2.1,0.616 2.744,1.988 l -0.812,0.448 c -0.476,-0.728 -0.784,-0.952 -1.12,-0.952 -0.336,0 -0.56,0.28 -0.532,0.84 l 0.112,3.836 c 0.084,2.604 -0.924,3.808 -3.192,4.144 l 0.056,0.196 c 3.164,0.336 5.432,2.156 6.048,4.788 0.672,2.912 -1.316,5.068 -5.012,5.068 h -8.904 l -0.224,-0.924 2.604,-0.7 L 195.353,0.7 Z m 7.392,9.744 1.82,7.868 h 3.024 c 2.688,0 3.976,-1.54 3.472,-3.892 -0.56,-2.604 -2.492,-3.976 -5.376,-3.976 z m 18.424,-9.38 c -2.212,0 -3.64,1.652 -3.584,4.536 5.74,0.112 8.596,1.708 9.212,4.284 0.588,2.52 -0.924,4.312 -3.696,4.312 -3.388,0 -6.328,-2.24 -7.392,-6.188 -1.372,-5.068 0.84,-8.624 4.48,-8.624 2.156,0 4.144,1.092 5.152,2.8 l -0.588,0.56 c -0.784,-1.008 -2.128,-1.68 -3.584,-1.68 m -3.528,5.404 c 0.056,0.504 0.168,1.064 0.308,1.624 0.784,3.192 2.828,4.984 4.816,4.984 1.456,0 2.184,-1.092 1.764,-2.968 -0.532,-2.296 -2.828,-3.584 -6.888,-3.64 m 14.588,-7.252 c 1.456,0 3.164,1.064 5.124,3.864 l -0.84,-3.5 c -1.008,-4.2 -2.744,-5.236 -5.768,-5.236 -0.476,0 -0.812,0.028 -1.232,0.112 v 2.436 h -1.848 l -0.728,-2.8 c 1.092,-0.532 2.128,-0.812 3.948,-0.812 4.144,0 6.72,1.456 7.84,6.16 l 3.5,14.644 h -1.624 l -0.84,-0.896 c -1.036,0.672 -2.1,1.008 -3.22,1.008 -3.388,0 -6.44,-2.688 -7.532,-6.832 -1.148,-4.424 0.84,-8.148 3.22,-8.148 m -0.868,8.12 c 0.84,3.416 3.22,5.74 5.544,5.74 0.952,0 2.072,-0.476 2.576,-1.092 l -1.792,-7.476 c -1.764,-2.156 -3.864,-3.472 -4.788,-3.472 -1.428,0 -2.492,2.352 -1.54,6.3 m 15.792,-7.952 c 1.624,0 3.808,1.428 5.908,4.592 -1.064,-3.5 -0.56,-4.592 1.456,-4.592 1.372,0 2.52,0.532 3.444,1.904 l -0.588,0.644 c -0.784,-0.784 -1.428,-1.064 -2.1,-1.064 -0.532,0 -0.644,0.392 -0.392,1.428 l 2.744,11.396 h -2.24 l -1.82,-7.56 c -2.072,-3.472 -4.368,-5.292 -5.74,-5.292 -0.896,0 -1.148,0.504 -0.672,2.492 l 2.604,10.668 -4.76,-0.252 -0.14,-1.26 2.24,-0.14 -2.184,-8.96 c -0.616,-2.604 0.028,-4.004 2.24,-4.004 m 15.232,20.58 2.128,-0.14 -4.2,-17.444 c -0.448,-1.904 0.168,-3.08 1.904,-3.08 1.26,0 2.576,0.7 3.36,1.904 l -0.588,0.616 c -0.588,-0.644 -1.428,-1.036 -2.016,-1.036 -0.56,0 -0.7,0.364 -0.42,1.568 l 4.592,19.124 -4.62,-0.252 z M 275.209,-1.26 c 1.372,0 2.66,0.7 3.444,1.904 l -0.588,0.616 c -0.588,-0.644 -1.428,-1.036 -2.016,-1.036 -0.476,0 -0.756,0.28 -0.56,1.064 l 2.94,12.096 h -1.624 l -0.84,-0.896 c -1.036,0.7 -2.072,1.008 -3.192,1.008 -3.36,0 -6.384,-2.632 -7.476,-6.804 -1.148,-4.256 0.868,-8.008 3.136,-8.008 1.456,0 3.164,1.064 5.124,3.864 l -0.28,-1.12 c -0.448,-1.764 0.42,-2.688 1.932,-2.688 m -7.56,7.896 c 0.868,3.556 3.248,5.74 5.572,5.74 0.896,0 1.932,-0.392 2.492,-1.008 l -1.82,-7.392 c -1.848,-2.24 -3.892,-3.472 -4.76,-3.472 -1.372,0 -2.436,2.38 -1.484,6.132 m 16.155,5.012 -2.912,-12.572 h 2.24 l 1.848,7.868 c 1.4,2.352 2.996,4.004 4.593,4.9 l 0.251,-3.08 h 1.009 l 1.147,4.452 c -0.196,0.056 -0.364,0.084 -0.699,0.084 -2.185,0 -4.593,-2.156 -5.881,-4.256 l 0.952,4.256 -4.564,-0.252 -0.14,-1.26 z" /></g><g
           transform="translate(1735.7952,1155.2241)"
           id="g56"><path
             id="path58"
             style="fill:#000000;fill-opacity:1;fill-rule:nonzero;stroke:none"
             d="M 0,0 V -0.924 H 7.84 V 0 L 5.18,0.7 v 7.644 h 2.94 c 2.604,0 3.5,-1.036 4.004,-3.78 L 12.74,1.26 c 0.364,-1.932 1.148,-2.604 2.576,-2.604 1.484,0 2.268,0.7 2.632,1.988 L 16.912,1.008 C 16.688,0.392 16.464,0.14 16.072,0.14 c -0.364,0 -0.588,0.252 -0.728,1.036 l -0.728,3.92 c -0.448,2.436 -1.54,3.556 -4.2,3.864 v 0.196 c 3.164,0.336 4.984,2.016 4.984,4.788 0,2.968 -2.1,5.068 -5.936,5.068 H 0 v -0.924 l 2.688,-0.7 V 0.7 Z m 5.18,9.744 v 7.868 h 3.276 c 2.94,0 4.312,-1.4 4.312,-3.892 0,-2.744 -1.624,-3.976 -4.424,-3.976 z M 18.955,0 v -0.924 h 7.28 V 0 l -2.436,0.56 v 12.768 l -4.844,-0.336 v -1.036 l 2.436,-0.392 V 0.56 Z m 1.932,17.612 c 0,-1.092 0.756,-1.82 1.708,-1.82 0.952,0 1.708,0.728 1.708,1.82 0,1.092 -0.756,1.82 -1.708,1.82 -0.952,0 -1.708,-0.728 -1.708,-1.82 m 12.824,-4.284 c 1.792,0 3.444,-0.448 4.564,-1.12 L 37.911,8.876 h -1.344 l -0.504,2.688 c -0.028,0.168 -0.056,0.224 -0.196,0.28 -0.364,0.168 -1.344,0.308 -2.24,0.308 -1.932,0 -2.912,-0.644 -2.912,-2.016 0,-1.148 0.644,-1.876 3.304,-2.968 3.5,-1.428 4.62,-2.856 4.62,-4.592 0,-2.324 -1.96,-3.836 -5.376,-3.836 -1.848,0 -3.724,0.448 -4.9,1.148 l 0.336,3.584 h 1.344 l 0.504,-2.94 c 0.028,-0.168 0.084,-0.224 0.224,-0.28 0.364,-0.168 1.512,-0.336 2.576,-0.336 2.128,0 3.136,0.672 3.136,2.1 0,1.148 -0.644,1.904 -3.416,3.024 -3.472,1.428 -4.508,2.744 -4.508,4.48 0,2.324 1.904,3.808 5.152,3.808 M 46.478,-1.288 c 2.268,0 3.612,1.484 3.696,4.228 l -1.148,0.084 c -0.196,-1.988 -0.84,-2.66 -2.016,-2.66 -1.092,0 -1.68,0.728 -1.652,2.492 l 0.084,8.904 h 3.696 v 1.232 h -3.696 v 4.34 h -1.82 l -0.476,-4.34 H 40.822 V 11.76 h 2.212 L 42.95,2.744 c -0.028,-2.716 1.204,-4.032 3.528,-4.032 M 58.91,-1.344 c 4.144,0 6.86,2.744 6.86,7.364 0,4.564 -2.632,7.364 -6.86,7.364 -4.256,0 -6.86,-2.856 -6.86,-7.364 0,-4.648 2.688,-7.364 6.86,-7.364 M 54.654,6.02 c 0,4.2 1.652,6.188 4.256,6.188 2.632,0 4.256,-2.044 4.256,-6.188 0,-4.228 -1.68,-6.188 -4.256,-6.188 -2.604,0 -4.256,1.988 -4.256,6.188 M 78.146,9.212 86.21,-0.924 h 3.976 V 0 l -2.016,0.7 -7.336,9.212 7.336,7.42 1.876,0.756 v 0.924 h -6.748 v -0.924 l 2.884,-0.756 z M 72.49,-0.924 h 7.84 V 0 l -2.66,0.7 v 16.688 l 2.66,0.7 v 0.924 h -7.84 v -0.924 l 2.688,-0.7 V 0.7 L 72.49,0 Z m 24.136,-0.364 c 2.128,0 4.2,1.092 5.18,2.968 v -2.884 l 4.872,0.28 v 1.036 l -2.464,0.392 v 12.824 l -4.592,-0.336 v -1.036 l 2.184,-0.392 V 3.136 c -0.924,-1.848 -2.408,-2.772 -4.228,-2.772 -1.764,0 -2.688,0.98 -2.688,3.36 v 9.604 l -4.592,-0.336 v -1.036 l 2.184,-0.392 V 3.472 c 0,-3.136 1.456,-4.76 4.144,-4.76 m 11.2,-4.956 0.168,-1.148 c 3.64,0.42 4.984,1.792 4.984,5.432 v 15.288 l -4.816,-0.336 v -1.036 l 2.408,-0.392 V -3.08 c 0,-2.156 -0.392,-2.632 -2.744,-3.164 m 2.24,23.884 c 0,-1.12 0.672,-1.876 1.736,-1.876 0.924,0 1.68,0.756 1.68,1.876 0,1.12 -0.756,1.82 -1.68,1.82 -1.064,0 -1.736,-0.7 -1.736,-1.82 m 17.92,-18.984 c 1.232,0 2.184,0.756 2.52,1.988 L 129.47,1.008 C 129.246,0.42 128.938,0.14 128.518,0.14 c -0.392,0 -0.616,0.28 -0.616,1.008 V 8.68 c 0,3.388 -1.344,4.592 -4.676,4.592 -1.456,0 -3.892,-0.392 -5.572,-0.952 l 0.42,-4.004 h 1.288 l 0.644,3.248 c 0.028,0.196 0.112,0.28 0.252,0.308 0.42,0.084 1.428,0.168 2.268,0.168 1.876,0 2.996,-1.036 2.996,-3.304 v -1.12 l -4.116,-1.204 c -3.164,-0.924 -4.312,-2.184 -4.312,-4.144 0,-2.184 1.484,-3.584 3.64,-3.584 1.624,0 3.164,0.784 4.788,2.576 0.084,-1.736 0.952,-2.604 2.464,-2.604 m -8.428,3.948 c 0,1.68 0.756,2.492 2.828,2.912 l 3.136,0.644 V 2.604 c -1.456,-1.736 -2.716,-2.436 -3.92,-2.436 -1.232,0 -2.044,0.84 -2.044,2.436 M 131.906,0 v -0.924 h 7.28 V 0 l -2.408,0.56 v 8.288 c 0.896,1.764 2.492,2.688 4.396,2.688 1.623,0 2.604,-1.036 2.604,-3.444 V 0.56 L 141.342,0 v -0.924 h 7.308 V 0 l -2.464,0.56 v 7.756 c 0,3.304 -1.512,4.928 -4.172,4.928 -2.269,0 -4.285,-1.204 -5.236,-2.968 v 3.052 l -4.872,-0.336 v -1.036 l 2.464,-0.392 V 0.56 Z m 26.936,-1.456 c 3.5,0 6.272,2.884 6.272,7.672 0,4.396 -2.324,7.14 -5.796,7.14 -2.213,0 -3.865,-1.12 -4.677,-2.884 v 2.856 l -4.871,-0.336 v -1.008 l 2.464,-0.392 V -5.74 L 149.77,-6.3 v -0.924 h 7.644 V -6.3 l -2.773,0.56 v 6.608 c 0.756,-1.4 2.24,-2.324 4.201,-2.324 m -4.201,4.592 V 8.26 c 0.812,2.548 2.156,3.612 3.977,3.612 2.408,0 3.948,-1.876 3.948,-5.88 0,-4.2 -1.737,-6.02 -4.172,-6.02 -1.904,0 -3.22,0.98 -3.753,3.164 m 24.416,-4.48 c 1.26,0 2.184,0.784 2.52,1.988 l -1.036,0.364 C 180.317,0.42 179.953,0.14 179.589,0.14 c -0.364,0 -0.616,0.28 -0.616,1.008 V 8.68 c 0,3.332 -1.26,4.592 -4.676,4.592 -1.484,0 -3.92,-0.392 -5.6,-0.952 l 0.42,-4.004 h 1.288 l 0.644,3.248 c 0.028,0.196 0.084,0.28 0.252,0.308 0.476,0.112 1.568,0.168 2.296,0.168 1.988,0 2.996,-1.148 2.996,-3.304 v -1.12 l -4.116,-1.204 c -3.164,-0.924 -4.312,-2.128 -4.312,-4.144 0,-2.212 1.512,-3.584 3.64,-3.584 1.596,0 3.164,0.756 4.788,2.576 0.084,-1.792 0.98,-2.604 2.464,-2.604 m -9.576,18.648 c 0,-0.952 0.616,-1.624 1.484,-1.624 0.868,0 1.512,0.672 1.512,1.624 0,0.98 -0.672,1.568 -1.512,1.568 -0.84,0 -1.484,-0.588 -1.484,-1.568 m 1.148,-14.7 c 0,1.624 0.756,2.492 2.828,2.912 l 3.136,0.644 V 2.604 c -1.456,-1.764 -2.744,-2.436 -3.92,-2.436 -1.232,0 -2.044,0.756 -2.044,2.436 m 4.368,14.7 c 0,-0.952 0.588,-1.624 1.456,-1.624 0.868,0 1.54,0.672 1.54,1.624 0,0.98 -0.7,1.568 -1.54,1.568 -0.84,0 -1.456,-0.588 -1.456,-1.568 M 194.4,-1.344 c 1.26,0 2.184,0.784 2.52,1.988 l -1.035,0.364 C 195.66,0.42 195.296,0.14 194.932,0.14 c -0.364,0 -0.616,0.28 -0.616,1.008 V 8.68 c 0,3.332 -1.26,4.592 -4.676,4.592 -1.484,0 -3.92,-0.392 -5.599,-0.952 l 0.419,-4.004 h 1.288 l 0.644,3.248 c 0.028,0.196 0.084,0.28 0.252,0.308 0.476,0.112 1.568,0.168 2.296,0.168 1.988,0 2.997,-1.148 2.997,-3.304 V 7.616 L 187.82,6.412 c -3.164,-0.924 -4.312,-2.128 -4.312,-4.144 0,-2.212 1.513,-3.584 3.64,-3.584 1.596,0 3.164,0.756 4.789,2.576 0.084,-1.792 0.98,-2.604 2.463,-2.604 m -9.576,18.648 c 0,-0.952 0.616,-1.624 1.484,-1.624 0.869,0 1.512,0.672 1.512,1.624 0,0.98 -0.672,1.568 -1.512,1.568 -0.839,0 -1.484,-0.588 -1.484,-1.568 m 1.148,-14.7 c 0,1.624 0.757,2.492 2.828,2.912 l 3.137,0.644 V 2.604 c -1.457,-1.764 -2.745,-2.436 -3.921,-2.436 -1.232,0 -2.044,0.756 -2.044,2.436 m 4.368,14.7 c 0,-0.952 0.588,-1.624 1.456,-1.624 0.868,0 1.54,0.672 1.54,1.624 0,0.98 -0.7,1.568 -1.54,1.568 -0.84,0 -1.456,-0.588 -1.456,-1.568" /></g></g></g></g></svg>