<?xml version="1.0" encoding="UTF-8"?><svg id="Layer_1" xmlns="http://www.w3.org/2000/svg" viewBox="0 0 1200 1117.22"><defs><style>.cls-1{fill:#f9c2d0;}.cls-2{fill:#fff;}.cls-3{fill:none;stroke:#000;stroke-miterlimit:10;stroke-width:2px;}</style></defs><rect class="cls-1" y="-.04" width="1200" height="1117.26"/><path class="cls-2" d="m1052.88,981.59H142.48c0-13.54-10.98-24.51-24.51-24.51V160.1c13.54,0,24.51-10.98,24.51-24.51h910.39c0,13.54,10.98,24.51,24.51,24.51v796.98c-13.54,0-24.51,10.98-24.51,24.51Z"/><path class="cls-3" d="m1043.01,968.15H152.35c0-11.24-9.11-20.35-20.35-20.35V169.37c11.24,0,20.35-9.11,20.35-20.35h890.67c0,11.24,9.11,20.35,20.35,20.35v778.44c-11.24,0-20.35,9.11-20.35,20.35Z"/><path d="m210.45,336.14c-5.35,26.76-8.92,49.51-10.93,68.46-4.01.22-7.81-.22-11.37-1.78,5.13-17.62,6.69-25.42,14.72-66.9l.22-1.78c5.58-28.1,9.81-50.18,12.71-74.71l.45.22c10.04.22,30.55,0,43.93-1.12l-10.93,44.38c-3.34.22-5.58-.22-8.03-1.78l10.26-32.34c-10.26-1.78-20.52-2.23-26.54-2.23-3.35,16.95-8.92,43.04-12.27,58.2,9.37-.22,17.84-.89,25.65-3.12.22,3.57-.67,8.25-2.45,11.6-6.02-2.01-12.27-2.23-24.53-1.78-.45,1.56-.67,2.9-.89,3.79v.89Z"/><path d="m283.15,348.85l17.84-50.18c-1.34-.89-3.34-1.34-5.13-1.34-2.45,0-4.01,1.12-6.02,4.01-2.45,3.79-8.03,12.71-26.98,54.41-3.79,20.96-6.24,34.79-7.58,42.59l19.4-4.68c1.11,2.9,1.34,6.69-.22,9.14h-30.55c5.8-23.19,10.48-42.15,12.27-53.3.67-4.01,7.14-34.34,9.14-60.21,4.91,0,7.58.67,10.04,1.78l-10.26,47.72,1.11.22c11.15-27.43,15.61-36.35,19.18-41.26,4.68-6.24,8.47-8.25,13.16-8.25s6.24.67,8.92,2.45l-16.06,60.88c-3.34.22-6.24-1.34-8.25-4.01Z"/><path d="m331.53,399.25c-3.12,3.12-7.14,5.35-13.83,5.35-5.35,0-9.14-2.68-11.15-7.36-4.46-10.04,0-31.89,3.34-50.18,4.01-21.63,9.81-42.15,19.85-52.18,3.12-3.12,7.14-5.35,13.83-5.35,5.35,0,9.14,2.68,11.15,7.36,4.46,10.04-.22,31.89-3.57,50.62-3.79,21.41-9.59,41.7-19.62,51.74Zm-16.95-8.47c1.56,4.68,4.01,6.02,7.36,6.02,3.12,0,5.8-1.34,8.47-4.91,3.57-4.68,6.91-17.17,11.15-40.14,4.68-24.08,7.14-42.82,5.13-48.39-1.56-4.46-4.01-6.02-7.36-6.02-3.12,0-5.8,1.34-8.47,4.91-3.57,4.68-6.91,17.17-11.37,40.59-4.46,23.64-6.91,42.37-4.91,47.95Z"/><path d="m360.75,402.82c5.8-23.19,10.48-42.15,12.27-53.3.67-4.01,7.14-34.34,9.14-60.21,4.91,0,7.58.67,10.04,1.78l-10.04,47.72.89.22c11.15-27.43,15.39-34.57,18.96-40.59,4.01-6.91,7.36-8.92,13.16-8.92,3.79,0,5.35,1.56,6.69,3.57,1.78,2.68,1.56,9.59-.89,16.73-.67,2.23-4.01,12.71-7.14,24.53l.89.22c9.81-22.75,13.38-30.33,17.17-36.35,4.24-6.47,8.03-8.7,13.83-8.7,3.79,0,6.47,1.78,7.58,4.24,1.56,3.57,1.34,10.26-1.11,17.39-.89,2.9-7.36,20.29-10.93,36.57-5.58,26.09-6.91,34.34-8.92,56.87-4.24,0-8.03-.67-10.7-1.78,3.57-19.18,8.25-38.8,11.82-54.41,4.01-17.17,8.7-30.33,10.26-36.13,1.78-6.91,2.23-11.15,1.56-12.71s-1.56-2.23-2.9-2.23c-2.23,0-4.46,2.23-6.91,5.58-2.01,2.9-5.58,7.58-26.09,51.51-4.46,20.96-5.8,29.66-7.58,50.18-4.24,0-8.03-.67-10.7-1.78,3.57-19.18,9.59-39.03,13.16-54.64,4.01-17.17,7.36-30.11,8.92-35.9,1.78-6.91,2.23-11.15,1.56-12.71s-1.56-2.23-2.9-2.23c-2.23,0-4.46,2.23-6.91,5.58-2.01,2.68-6.47,11.37-25.42,53.74l-.22.67c-2.9,17.39-6.47,37.02-8.25,47.28-3.79,0-7.14-.22-10.26-1.78Z"/><path d="m533.79,306.48l9.81-34.34c-3.79-3.35-8.03-5.13-13.6-5.13s-8.7,2.01-11.37,6.02c-6.02,8.92-9.81,27.65-15.83,57.98-6.47,33.67-7.81,46.61-6.91,54.86.45,5.8,3.79,9.81,6.91,9.81,5.13,0,8.47-1.78,14.27-9.37,3.57-4.68,5.8-10.04,8.03-21.85,1.78-8.47,2.9-15.16,3.79-25.87l-14.94,2.68c-.89-2.9-.89-6.02.45-9.37l24.75,1.78c-5.58,20.29-8.92,46.61-10.26,70.92-3.57,0-8.25-.45-10.26-1.78l2.9-15.83-.67-.22c-8.7,16.73-14.94,18.06-20.74,18.06-6.47,0-12.71-2.23-14.05-12.49-1.56-10.93,1.11-29.44,6.24-56.42,6.47-32.78,13.16-55.31,22.52-67.35,6.47-8.47,12.27-10.48,19.85-10.48s12.93,1.78,16.28,6.91l-8.03,43.04c-3.57.45-6.69,0-9.14-1.56Z"/><path d="m587.31,323.87l9.81-.22c.89,2.23.67,6.47-.89,8.25l-30.77-3.12c-1.11,4.24-2.01,8.7-3.12,13.83-4.24,21.41-5.58,41.93-2.9,48.39,1.78,4.46,5.58,5.35,9.14,5.35,3.12,0,6.47-.22,8.47-.67l3.57-41.26c2.68-1.12,6.69-.67,8.92.67l-8.03,46.83c-4.68,2.23-10.26,2.68-15.39,2.68-6.47,0-11.37-2.68-13.83-7.58-5.13-9.81-3.57-31.67-.22-50.18,4.01-21.63,10.26-40.36,19.18-50.4,3.57-4.01,8.7-6.91,15.83-6.91,4.24,0,7.36,2.23,8.92,5.8,1.56,3.57,1.78,9.37,0,14.94-2.01,6.47-4.91,10.48-8.92,13.16l.22.45Zm-20.96.45l14.94-.45c2.45-3.35,4.68-8.03,6.02-11.82,1.34-4.24,1.56-8.7.45-11.82-.67-2.01-2.68-3.57-4.91-3.57-2.9,0-5.58,1.78-7.81,4.68-2.9,3.79-5.8,11.37-8.7,22.97Z"/><path d="m601.8,402.82c5.8-23.19,10.48-42.15,12.27-53.3.67-4.01,7.14-34.34,9.14-60.21,4.91,0,7.58.67,10.04,1.78l-10.04,47.72.89.22c11.15-27.43,15.39-34.57,18.96-40.59,4.01-6.91,7.36-8.92,13.16-8.92,3.79,0,5.35,1.56,6.69,3.57,1.78,2.68,1.56,9.59-.89,16.73-.67,2.23-4.01,12.71-7.14,24.53l.89.22c9.81-22.75,13.38-30.33,17.17-36.35,4.24-6.47,8.03-8.7,13.83-8.7,3.79,0,6.47,1.78,7.58,4.24,1.56,3.57,1.34,10.26-1.11,17.39-.89,2.9-7.36,20.29-10.93,36.57-5.58,26.09-6.91,34.34-8.92,56.87-4.24,0-8.03-.67-10.7-1.78,3.57-19.18,8.25-38.8,11.82-54.41,4.01-17.17,8.7-30.33,10.26-36.13,1.78-6.91,2.23-11.15,1.56-12.71s-1.56-2.23-2.9-2.23c-2.23,0-4.46,2.23-6.91,5.58-2.01,2.9-5.58,7.58-26.09,51.51-4.46,20.96-5.8,29.66-7.58,50.18-4.24,0-8.03-.67-10.7-1.78,3.57-19.18,9.59-39.03,13.16-54.64,4.01-17.17,7.36-30.11,8.92-35.9,1.78-6.91,2.23-11.15,1.56-12.71s-1.56-2.23-2.9-2.23c-2.23,0-4.46,2.23-6.91,5.58-2.01,2.68-6.47,11.37-25.42,53.74l-.22.67c-2.9,17.39-6.47,37.02-8.25,47.28-3.79,0-7.14-.22-10.26-1.78Z"/><path d="m711.52,404.6c-6.91,0-12.49-1.12-17.17-5.13l9.81-46.16c2.68-.22,6.02.89,8.03,2.23l-11.15,37.02c4.01,3.12,6.91,4.01,10.04,4.01,4.01,0,6.91-.67,9.59-3.35,2.9-3.12,4.91-6.69,5.8-9.37,2.9-9.14,1.12-21.19-7.36-36.8-7.81-14.27-11.37-28.99-7.36-41.48,1.78-5.35,6.91-11.15,10.26-13.38,3.57-2.45,7.36-2.68,13.16-2.68,4.91,0,12.27,2.01,14.72,4.46l-8.92,37.47c-2.45.45-5.58-.67-7.58-2.45l10.04-27.88c-4.68-2.9-8.7-4.01-12.93-4.01-3.79,0-6.69,1.78-9.14,3.79-2.01,1.78-3.57,5.58-4.01,8.25-1.56,8.92,2.45,19.4,8.47,30.77,11.37,21.85,11.37,31.89,6.91,45.27-1.56,4.91-6.69,12.71-9.14,14.94-3.57,3.35-6.47,4.46-12.04,4.46Z"/><path d="m762.14,391.67c2.01,4.01,5.8,4.68,9.37,4.68,1.56,0,4.46-.22,6.91-.89l6.02-49.51c2.68-1.34,6.24-.89,8.47,0l-9.81,55.53c-5.13,2.45-6.69,3.12-13.6,3.12s-12.04-1.56-15.16-7.14c-5.58-10.04.89-32.11,4.46-47.72,3.34-14.72,10.26-56.2,12.27-82.07,4.91,0,7.58.67,10.04,1.78-1.56,8.25-2.68,15.39-3.79,21.63h19.18c.45,2.45-.67,8.03-2.45,10.04l-17.84-4.68c-5.13,29.88-6.69,37.02-7.81,43.26-3.12,15.39-9.14,46.16-6.24,51.96Z"/><path d="m828.59,399.25c-3.12,3.12-7.14,5.35-13.83,5.35-5.35,0-9.14-2.68-11.15-7.36-4.46-10.04,0-31.89,3.35-50.18,4.01-21.63,9.81-42.15,19.85-52.18,3.12-3.12,7.14-5.35,13.83-5.35,5.35,0,9.14,2.68,11.15,7.36,4.46,10.04-.22,31.89-3.57,50.62-3.79,21.41-9.59,41.7-19.62,51.74Zm-16.95-8.47c1.56,4.68,4.01,6.02,7.36,6.02,3.12,0,5.8-1.34,8.47-4.91,3.57-4.68,6.91-17.17,11.15-40.14,4.68-24.08,7.14-42.82,5.13-48.39-1.56-4.46-4.01-6.02-7.36-6.02-3.12,0-5.8,1.34-8.47,4.91-3.57,4.68-6.91,17.17-11.37,40.59-4.46,23.64-6.91,42.37-4.91,47.95Z"/><path d="m854.9,402.82c5.8-23.19,10.04-42.59,12.27-53.3,4.01-19.18,6.91-34.57,9.14-59.99,4.91,0,7.58.67,10.04,1.78l-10.04,47.5.89.22c11.15-27.43,15.39-34.79,18.73-40.81,3.57-6.47,8.03-8.7,14.05-8.7,3.79,0,6.69,1.78,7.81,4.68,1.56,3.79,1.34,9.59-1.56,18.73-1.11,3.79-6.47,18.51-10.04,34.79-5.58,26.09-6.91,34.34-8.92,56.87-4.24,0-8.03-.67-10.7-1.78,3.57-19.18,8.25-38.8,11.82-54.41,4.01-17.17,7.81-30.33,9.37-36.13,1.78-6.91,2.01-11.15,1.34-12.71-.67-1.56-1.56-2.23-2.9-2.23-2.45,0-4.68,2.23-7.14,5.58-2.01,2.68-6.47,11.37-25.42,53.74l-.22.67c-2.9,17.39-6.47,37.02-8.25,47.28-3.79,0-8.03-.67-10.26-1.78Z"/><path d="m959.94,323.87l9.81-.22c.89,2.23.67,6.47-.89,8.25l-30.78-3.12c-1.11,4.24-2.01,8.7-3.12,13.83-4.24,21.41-5.58,41.93-2.9,48.39,1.78,4.46,5.58,5.35,9.14,5.35,3.12,0,6.47-.22,8.47-.67l3.57-41.26c2.68-1.12,6.69-.67,8.92.67l-8.03,46.83c-4.68,2.23-10.26,2.68-15.39,2.68-6.47,0-11.37-2.68-13.83-7.58-5.13-9.81-3.57-31.67-.22-50.18,4.01-21.63,10.26-40.36,19.18-50.4,3.57-4.01,8.7-6.91,15.83-6.91,4.24,0,7.36,2.23,8.92,5.8,1.56,3.57,1.78,9.37,0,14.94-2.01,6.47-4.91,10.48-8.92,13.16l.22.45Zm-20.96.45l14.94-.45c2.45-3.35,4.68-8.03,6.02-11.82,1.34-4.24,1.56-8.7.45-11.82-.67-2.01-2.68-3.57-4.91-3.57-2.9,0-5.58,1.78-7.81,4.68-2.9,3.79-5.8,11.37-8.7,22.97Z"/><path d="m991.15,404.6c-6.91,0-12.49-1.12-17.17-5.13l9.81-46.16c2.68-.22,6.02.89,8.03,2.23l-11.15,37.02c4.01,3.12,6.91,4.01,10.04,4.01,4.01,0,6.91-.67,9.59-3.35,2.9-3.12,4.91-6.69,5.8-9.37,2.9-9.14,1.12-21.19-7.36-36.8-7.81-14.27-11.37-28.99-7.36-41.48,1.78-5.35,6.91-11.15,10.26-13.38,3.57-2.45,7.36-2.68,13.16-2.68,4.91,0,12.27,2.01,14.72,4.46l-8.92,37.47c-2.45.45-5.58-.67-7.58-2.45l10.04-27.88c-4.68-2.9-8.7-4.01-12.93-4.01-3.79,0-6.69,1.78-9.14,3.79-2.01,1.78-3.57,5.58-4.01,8.25-1.56,8.92,2.45,19.4,8.47,30.77,11.37,21.85,11.37,31.89,6.91,45.27-1.56,4.91-6.69,12.71-9.14,14.94-3.57,3.35-6.47,4.46-12.04,4.46Z"/><path d="m303.55,621.67c2.01,4.01,5.8,4.68,9.37,4.68,1.56,0,4.46-.22,6.91-.89l6.02-49.51c2.68-1.34,6.24-.89,8.47,0l-9.81,55.53c-5.13,2.45-6.69,3.12-13.6,3.12s-12.04-1.56-15.16-7.14c-5.58-10.04.89-32.11,4.46-47.72,3.34-14.72,10.26-56.2,12.27-82.07,4.91,0,7.58.67,10.04,1.78-1.56,8.25-2.68,15.39-3.79,21.63h19.18c.45,2.45-.67,8.03-2.45,10.04l-17.84-4.68c-5.13,29.88-6.69,37.02-7.81,43.26-3.12,15.39-9.14,46.16-6.24,51.96Z"/><path d="m370.01,629.25c-3.12,3.12-7.14,5.35-13.83,5.35-5.35,0-9.14-2.68-11.15-7.36-4.46-10.04,0-31.89,3.34-50.18,4.01-21.63,9.81-42.15,19.85-52.18,3.12-3.12,7.14-5.35,13.83-5.35,5.35,0,9.14,2.68,11.15,7.36,4.46,10.04-.22,31.89-3.57,50.62-3.79,21.41-9.59,41.7-19.62,51.74Zm-16.95-8.47c1.56,4.68,4.01,6.02,7.36,6.02,3.12,0,5.8-1.34,8.47-4.91,3.57-4.68,6.91-17.17,11.15-40.14,4.68-24.08,7.14-42.82,5.13-48.39-1.56-4.46-4.01-6.02-7.36-6.02-3.12,0-5.8,1.34-8.47,4.91-3.57,4.68-6.91,17.17-11.37,40.59-4.46,23.64-6.91,42.37-4.91,47.95Z"/><path d="m437.8,634.6c-5.35,0-8.47-.45-12.27-2.45l15.83-72.92c3.12-.89,7.36-.22,10.26,2.01l-18.29,62.89c3.79,1.56,6.47,1.78,9.37,1.78,4.01,0,9.37-.45,12.93-4.01,3.57-3.57,6.69-11.15,9.81-26.54,4.46-21.41,9.59-48.84,13.16-68.91,2.45-13.38,2.9-17.17,4.46-31-10.04,0-24.08,1.78-33.01,3.79-1.11-3.79-.67-8.25,1.56-12.71,11.82,2.23,30.33,2.23,42.15,2.45-4.01,20.52-5.35,28.77-8.47,43.04-5.13,31.67-10.48,54.19-13.38,70.25-1.78,9.59-6.47,20.07-12.71,25.2-6.91,5.8-12.49,7.14-21.41,7.14Z"/><path d="m526.33,553.87l9.81-.22c.89,2.23.67,6.47-.89,8.25l-30.77-3.12c-1.12,4.24-2.01,8.7-3.12,13.83-4.24,21.41-5.58,41.93-2.9,48.39,1.78,4.46,5.58,5.35,9.14,5.35,3.12,0,6.47-.22,8.47-.67l3.57-41.26c2.68-1.12,6.69-.67,8.92.67l-8.03,46.83c-4.68,2.23-10.26,2.68-15.39,2.68-6.47,0-11.37-2.68-13.83-7.58-5.13-9.81-3.57-31.67-.22-50.18,4.01-21.63,10.26-40.36,19.18-50.4,3.57-4.01,8.7-6.91,15.83-6.91,4.24,0,7.36,2.23,8.92,5.8,1.56,3.57,1.78,9.37,0,14.94-2.01,6.47-4.91,10.48-8.92,13.16l.22.45Zm-20.96.45l14.94-.45c2.45-3.35,4.68-8.03,6.02-11.82,1.34-4.24,1.56-8.7.45-11.82-.67-2.01-2.68-3.57-4.91-3.57-2.9,0-5.58,1.78-7.81,4.68-2.9,3.79-5.8,11.37-8.7,22.97Z"/><path d="m567.13,521.31c-2.01,19.4-3.12,35.01-4.68,54.86-1.34,15.16-2.23,30.55-5.35,42.15l.89.45c14.05-28.32,18.51-40.81,26.98-70.25.22-8.47,0-16.95-.22-27.65,4.46-.67,8.03-.45,10.93.45-.45,18.29-2.68,34.57-4.68,54.86-1.56,15.16-1.56,29.21-5.35,41.93l1.11.45c21.19-39.7,24.08-64.45,27.43-97.9,4.01-.22,7.81-.45,10.93.89-4.91,37.69-13.38,62.89-43.93,113.51-2.9,0-5.35-1.56-7.36-4.24,5.8-16.06,6.69-34.12,9.14-53.75,0-.67.22-1.56.22-2.23l-.67-.22c-8.25,23.19-16.95,46.39-29.88,60.44-2.9,0-5.35-1.56-7.36-4.24,5.8-16.06,8.03-34.12,9.14-53.75,1.34-23.19,1.78-36.57,2.01-56.2,3.57-.89,7.81-.45,10.7.45Z"/><path d="m664.14,553.87l9.81-.22c.89,2.23.67,6.47-.89,8.25l-30.77-3.12c-1.11,4.24-2.01,8.7-3.12,13.83-4.24,21.41-5.58,41.93-2.9,48.39,1.78,4.46,5.58,5.35,9.14,5.35,3.12,0,6.47-.22,8.47-.67l3.57-41.26c2.68-1.12,6.69-.67,8.92.67l-8.03,46.83c-4.68,2.23-10.26,2.68-15.39,2.68-6.47,0-11.37-2.68-13.83-7.58-5.13-9.81-3.57-31.67-.22-50.18,4.01-21.63,10.26-40.36,19.18-50.4,3.57-4.01,8.7-6.91,15.83-6.91,4.24,0,7.36,2.23,8.92,5.8,1.56,3.57,1.78,9.37,0,14.94-2.01,6.47-4.91,10.48-8.92,13.16l.22.45Zm-20.96.45l14.94-.45c2.45-3.35,4.68-8.03,6.02-11.82,1.34-4.24,1.56-8.7.45-11.82-.67-2.01-2.68-3.57-4.91-3.57-2.9,0-5.58,1.78-7.81,4.68-2.9,3.79-5.8,11.37-8.7,22.97Z"/><path d="m678.63,632.59c10.26-49.73,22.97-101.69,28.77-150.75-5.58,1.12-10.7,2.45-15.83,4.01-1.56-3.12-1.34-6.69.22-10.26l26.76.89c-7.36,28.32-23.19,114.85-29.21,158.11-4.01,0-7.58-.45-10.7-2.01Z"/><path d="m711.85,632.59c10.26-49.73,22.97-101.69,28.77-150.75-5.58,1.12-10.7,2.45-15.83,4.01-1.56-3.12-1.34-6.69.22-10.26l26.76.89c-7.36,28.32-23.19,114.85-29.21,158.11-4.01,0-7.58-.45-10.7-2.01Z"/><path d="m786.56,553.87l9.81-.22c.89,2.23.67,6.47-.89,8.25l-30.77-3.12c-1.11,4.24-2.01,8.7-3.12,13.83-4.24,21.41-5.58,41.93-2.9,48.39,1.78,4.46,5.58,5.35,9.14,5.35,3.12,0,6.47-.22,8.47-.67l3.57-41.26c2.68-1.12,6.69-.67,8.92.67l-8.03,46.83c-4.68,2.23-10.26,2.68-15.39,2.68-6.47,0-11.37-2.68-13.83-7.58-5.13-9.81-3.57-31.67-.22-50.18,4.01-21.63,10.26-40.36,19.18-50.4,3.57-4.01,8.7-6.91,15.83-6.91,4.24,0,7.36,2.23,8.92,5.8,1.56,3.57,1.78,9.37,0,14.94-2.01,6.47-4.91,10.48-8.92,13.16l.22.45Zm-20.96.45l14.94-.45c2.45-3.35,4.68-8.03,6.02-11.82,1.34-4.24,1.56-8.7.45-11.82-.67-2.01-2.68-3.57-4.91-3.57-2.9,0-5.58,1.78-7.81,4.68-2.9,3.79-5.8,11.37-8.7,22.97Z"/><path d="m838.29,578.85l17.84-50.18c-1.34-.89-3.35-1.34-5.13-1.34-2.45,0-4.01,1.12-6.02,4.01-2.45,3.79-8.03,12.71-26.98,54.41-3.79,20.96-6.24,34.79-7.58,42.59l19.4-4.68c1.11,2.9,1.34,6.69-.22,9.14h-30.55c5.8-23.19,10.48-42.15,12.27-53.3.67-4.01,7.14-34.34,9.14-60.21,4.91,0,7.58.67,10.04,1.78l-10.26,47.72,1.11.22c11.15-27.43,15.61-36.35,19.18-41.26,4.68-6.24,8.47-8.25,13.16-8.25s6.24.67,8.92,2.45l-16.06,60.88c-3.35.22-6.24-1.34-8.25-4.01Z"/><path d="m880.88,574.83c-4.01,17.17-6.47,25.65-8.03,31.44-1.78,6.91-2.01,11.15-1.34,12.71.67,1.56,1.56,2.23,2.9,2.23,2.45,0,4.68-2.23,7.14-5.58,2.01-2.68,6.47-11.37,26.09-55.08,2.23-12.49,4.24-26.09,6.02-41.03,3.79,0,8.92.45,10.93,1.78-4.01,15.39-7.81,28.77-11.82,54.64-5.13,31.67-7.58,53.74-10.48,69.8-1.78,9.59-6.69,18.29-12.93,23.42-6.91,5.8-14.05,8.92-22.97,8.92-6.47,0-11.15-2.01-15.39-5.13l5.8-30.33c3.12-.45,5.8.22,8.47,2.01l-6.91,20.07c5.13,3.35,10.04,4.68,12.93,4.68,7.58,0,10.93-1.56,14.5-5.13s6.24-9.81,8.7-25.2c3.12-18.51,6.69-40.81,9.81-59.32l-.89-.22c-11.15,27.43-15.39,34.57-18.96,40.59-4.01,6.91-7.36,8.92-13.16,8.92-4.46,0-7.36-1.78-8.47-4.68-1.56-3.79-1.34-9.59,1.56-18.73,1.12-3.79,5.13-13.83,8.7-30.11,5.57-26.09,7.14-33.45,9.14-55.97,4.24,0,8.03.67,10.7,1.78-3.57,19.18-8.47,37.91-12.04,53.52Z"/><path d="m245.14,827.61h16.2c9.36,0,15.03.72,18.45,3.24,2.88,2.07,4.14,5.22,4.14,9.18,0,4.59-1.26,9.45-5.22,12.96-1.26,1.08-2.88,1.98-4.77,2.61l1.17,1.98c5.22,9,9.18,12.15,12.06,14.76-2.61,2.43-6.12,3.6-11.34,3.78-2.43-4.5-4.95-9.09-6.57-12.33l-3.96-6.75c-1.35.09-2.7.09-4.14.09-1.8,0-3.42-.09-4.95-.36v.72c0,5.31.72,12.69,1.98,17.55-3.78,1.08-8.91,1.08-13.05,0,1.26-5.04,1.89-11.61,1.89-16.92v-13.59c0-5.4-.72-11.88-1.89-16.92Zm11.07,21.51c2.52.99,5.04,1.26,7.92,1.26,3.15,0,5.85-.99,7.47-2.25,2.07-1.8,2.07-3.6,2.07-6.21,0-2.97-1.17-5.13-3.15-6.57-1.35-1.08-4.14-2.16-8.28-2.16-1.89,0-3.78.18-5.49.54-.36,3.69-.54,7.56-.54,10.89v4.5Z"/><path d="m335.68,869.91c-5.4,4.95-11.43,6.21-18.72,6.21-5.76,0-11.07-1.89-14.22-4.14-4.59-3.6-6.66-9.18-6.66-17.64,0-9.81,3.69-16.65,8.55-21.24,5.22-4.95,10.98-6.3,18.09-6.3,5.49,0,11.07,1.8,14.22,4.05,4.59,3.6,6.57,9.18,6.57,17.46,0,10.17-3.24,16.92-7.83,21.6Zm-25.47-4.14c2.07,1.53,6.57,2.79,9.81,2.79,3.42,0,6.75-.99,9.18-3.06,2.52-2.16,4.14-6.3,4.14-11.79,0-7.92-1.08-13.77-3.87-16.56-2.16-1.62-5.94-2.79-9.72-2.79-3.51,0-7.02.9-9.36,3.06-2.52,2.16-4.14,6.12-4.14,11.52,0,7.29,1.08,14.04,3.96,16.83Z"/><path d="m355.84,827.61c3.87-1.08,9.09-1.08,13.05,0-1.26,4.86-1.98,11.61-1.98,17.01v13.5c0,3.24.27,7.11.81,10.62,7.65-.36,15.48-2.52,21.96-5.31,1.53,2.97,2.07,8.46,2.07,11.61h-35.91c1.26-5.04,1.89-11.61,1.89-16.92v-13.59c0-5.4-.72-11.88-1.89-16.92Z"/><path d="m430.63,863.97c-6.39-.18-12.78-.18-19.26.18-.81,3.96-1.26,7.56-1.53,10.89-4.14.45-8.91.45-13.41,0,6.66-12.96,12.78-28.62,18.09-41.85-4.5.27-9.72.81-14.94,1.26-.99-2.16-.9-5.22,0-7.56,7.56.63,15.21,1.17,20.79,1.17h4.86c5.58,0,11.52-.54,19.08-1.17,1.17,2.34,1.17,5.22,0,7.56-5.13-.45-9.54-.99-13.5-1.26,1.35,5.85,2.16,9.54,3.78,14.13l1.98,5.49c3.78,10.35,5.67,15.84,9.27,22.59-3.78.45-8.28.09-11.79-.45-.81-3.33-2.16-7.2-3.42-10.98Zm-17.64-6.75c5.4.18,10.17.27,15.48.09l-7.11-24.03h-.45c-3.51,9.09-6.12,17.01-7.92,23.94Z"/><path d="m455.65,858.12v-13.59c0-5.4-.72-11.88-1.8-16.74v-.18h.54c2.88-.45,7.92-.45,9.72.09,2.7,5.13,7.29,11.43,25.56,31.32-.36-12.69-1.35-21.6-4.05-31.14,3.87-.54,8.1-.81,11.88-.18-1.26,5.04-2.07,11.61-2.25,16.92l-.27,13.5c-.18,5.4.72,11.88,1.8,16.92-1.62.45-5.22.45-7.65,0-3.42-5.31-12.42-16.2-28.08-34.65.36,13.23,1.89,24.57,4.86,34.65-3.87.54-8.37.63-12.06,0,1.17-5.04,1.8-11.61,1.8-16.92Z"/><path d="m508.84,827.61h15.66c10.17,0,17.19.72,21.42,4.41,5.04,2.61,7.02,9.09,7.02,16.38,0,8.28-3.24,15.48-9.99,20.79-4.5,4.05-10.8,5.85-19.26,5.85h-14.85c1.26-5.04,1.89-11.61,1.89-16.92v-13.59c0-5.4-.72-11.88-1.89-16.92Zm11.61,39.42c2.97.72,5.04.99,8.28.99s6.48-1.62,8.46-2.97c2.79-2.16,5.58-6.57,5.58-12.33,0-6.93-1.08-12.24-5.13-15.66-2.25-1.98-6.21-2.79-10.98-2.79-2.16,0-4.23.36-6.12.81-.45,3.24-.63,6.57-.63,9.54v13.5c0,2.79.18,5.85.54,8.91Z"/><path d="m582.64,827.61h15.84c8.19,0,13.41.9,16.56,2.88,2.43,1.53,4.14,4.05,4.05,7.29-.09,3.15-1.17,6.21-3.51,8.01-1.53,1.17-3.78,1.89-6.21,2.34l.18.27c2.7-.27,5.58.36,8.19,1.8,2.97,1.8,4.86,5.67,4.86,9.81,0,4.5-1.35,9.54-5.4,12.24-3.96,2.61-9.63,2.79-19.17,2.79h-15.39c1.26-5.04,1.89-11.61,1.89-16.92v-13.59c0-5.4-.72-11.88-1.89-16.92Zm11.16,19.71c1.98.54,3.87.72,5.58.72,3.6,0,6.39-.72,7.92-1.89,1.44-1.17,1.98-2.61,1.98-5.4,0-2.52-1.26-4.14-2.88-5.4-1.62-1.26-3.87-1.35-6.57-1.44-1.89-.09-3.69,0-5.4.36-.45,3.42-.63,7.11-.63,10.35v2.7Zm.54,19.98c2.88.54,5.58.81,8.73.81,2.88,0,5.49-.45,7.11-1.44,1.98-1.17,2.52-3.51,2.61-5.85,0-2.79-1.17-4.95-3.33-6.03-2.25-1.17-4.68-1.44-9.99-1.44-1.8,0-3.69.18-5.67.63v4.14c0,2.79.18,6.03.54,9.18Z"/><path d="m663.81,863.97c-6.39-.18-12.78-.18-19.26.18-.81,3.96-1.26,7.56-1.53,10.89-4.14.45-8.91.45-13.41,0,6.66-12.96,12.78-28.62,18.09-41.85-4.5.27-9.72.81-14.94,1.26-.99-2.16-.9-5.22,0-7.56,7.56.63,15.21,1.17,20.79,1.17h4.86c5.58,0,11.52-.54,19.08-1.17,1.17,2.34,1.17,5.22,0,7.56-5.13-.45-9.54-.99-13.5-1.26,1.35,5.85,2.16,9.54,3.78,14.13l1.98,5.49c3.78,10.35,5.67,15.84,9.27,22.59-3.78.45-8.28.09-11.79-.45-.81-3.33-2.16-7.2-3.42-10.98Zm-17.64-6.75c5.4.18,10.17.27,15.48.09l-7.11-24.03h-.45c-3.51,9.09-6.12,17.01-7.92,23.94Z"/><path d="m687.76,827.61h16.2c9.36,0,15.03.72,18.45,3.24,2.88,2.07,4.14,5.22,4.14,9.18,0,4.59-1.26,9.45-5.22,12.96-1.26,1.08-2.88,1.98-4.77,2.61l1.17,1.98c5.22,9,9.18,12.15,12.06,14.76-2.61,2.43-6.12,3.6-11.34,3.78-2.43-4.5-4.95-9.09-6.57-12.33l-3.96-6.75c-1.35.09-2.7.09-4.14.09-1.8,0-3.42-.09-4.95-.36v.72c0,5.31.72,12.69,1.98,17.55-3.78,1.08-8.91,1.08-13.05,0,1.26-5.04,1.89-11.61,1.89-16.92v-13.59c0-5.4-.72-11.88-1.89-16.92Zm11.07,21.51c2.52.99,5.04,1.26,7.92,1.26,3.15,0,5.85-.99,7.47-2.25,2.07-1.8,2.07-3.6,2.07-6.21,0-2.97-1.17-5.13-3.15-6.57-1.35-1.08-4.14-2.16-8.28-2.16-1.89,0-3.78.18-5.49.54-.36,3.69-.54,7.56-.54,10.89v4.5Z"/><path d="m735.27,827.61h46.08c0,2.7-.36,8.82-2.25,11.88-5.49-2.88-10.8-5.22-15.48-5.76-.54,3.6-.81,7.56-.81,10.89v13.5c0,5.31.72,12.06,1.98,16.92-3.78.54-9,.54-13.14,0,1.26-5.04,1.89-11.61,1.89-16.92v-13.59c0-3.33-.27-7.11-.72-10.71-4.68.54-9.72,2.88-15.3,5.67-1.98-3.06-2.34-7.47-2.25-11.88Z"/><path d="m789.72,827.61c4.05-1.08,9.27-1.08,13.05,0-1.26,4.86-1.98,11.61-1.98,17.01v2.52c7.47.36,15.03.36,22.41-.09v-2.16c0-5.4-.72-11.88-1.89-16.92,4.05-.99,9.27-.99,13.14,0-1.26,4.86-1.98,11.61-1.98,17.01v13.5c0,5.31.72,12.06,1.98,16.92-3.87.72-9,.72-13.14,0,1.26-5.04,1.89-11.61,1.89-16.92v-3.96c-7.56-.45-14.94-.45-22.41,0v3.6c0,5.31.72,12.06,1.98,16.92-3.78.99-8.91.99-13.05,0,1.26-5.04,1.89-11.61,1.89-16.92v-13.59c0-5.4-.72-11.88-1.89-16.92Z"/><path d="m846.6,827.61h37.08c0,2.7-.27,8.1-2.16,11.07-6.57-2.61-15.03-4.68-22.95-4.95-.54,3.6-.81,7.56-.81,10.89v3.78c4.14-.09,9-.72,17.82-2.61.81,3.33.81,7.2-.18,10.71-8.64-1.98-13.5-2.52-17.64-2.7v4.32c0,3.33.27,7.2.81,10.8,7.92-.36,16.38-2.34,23.13-4.95,1.53,2.97,2.07,7.56,1.98,11.07h-37.08c1.26-5.04,1.89-11.61,1.89-16.92v-13.59c0-5.4-.72-11.88-1.89-16.92Z"/><path d="m892.14,872.97c-.18-3.33.9-9.54,2.88-12.24,6.66,6.21,12.6,7.74,17.28,7.74,2.7,0,4.5-.81,6.12-1.8,1.35-.9,1.89-1.89,1.89-3.6,0-2.97-3.15-6.39-11.25-7.92-4.86-1.17-9.18-3.78-11.7-6.03-2.16-1.98-3.24-4.59-3.24-8.37,0-6.66,7.38-14.22,19.44-14.22,6.03,0,10.62.99,14.04,2.7.72,3.33-.45,9-2.7,11.88-6.03-4.59-11.7-7.38-15.75-7.38-2.88.09-4.5.72-5.85,1.8-.9.63-1.62,1.62-1.62,2.88,0,3.33,3.24,4.95,11.7,7.02,6.48,1.35,10.35,4.23,12.69,7.02,1.89,2.16,2.79,4.77,2.79,8.37,0,6.57-6.39,15.21-19.89,15.21-7.29,0-12.24-1.17-16.83-3.06Z"/><line class="cls-3" x1="227.84" y1="731.46" x2="941.61" y2="731.46"/></svg>