<?xml version="1.0" encoding="UTF-8"?><svg id="Layer_1" xmlns="http://www.w3.org/2000/svg" viewBox="0 0 1980 763.08"><defs><style>.cls-1{fill:#f9c2d0;}.cls-2{fill:#fff;}.cls-3{fill:#231f20;}</style></defs><rect class="cls-1" x="-.84" y="0" width="1980.84" height="762.31"/><path class="cls-3" d="m1587.05,367.29c0-17.56-13.72-31.84-31.29-31.84s-31.84,14.27-31.84,31.84,14.27,31.29,31.84,31.29,31.29-14.27,31.29-31.29m-1143.99,68.52l-270.18,37.46c-5.49-13.72-8.23-29.09-9.33-45.01l186.07-56.54v-7.14l-170.16-102.64c5.49-15.92,14.27-28.54,26.35-38.97l259.08,115.27c197.56-62.36,510.85-81.22,662.18-81.22,241.98,0,475.25,29.94,622.71,89.18,2.2,9.33,2.2,17.57-1.1,25.8-157.66,125.01-352.5,175.15-670.31,175.15-284.33,0-516.43-53.67-635.32-111.34"/><path class="cls-2" d="m663.24,477c-1.11-19.23.94-48.8-.73-80.84-2.79-.28-8.66-1.14-12.01-.86-6.13,32.32-7.97,50.17-9.64,74.69-5.29.28-12.54-.56-15.6-2.23,7.53-23.13,7.69-25.65,17.45-75.8l.28-1.39c2.23-12.54,8.69-49.99,13.15-78.41,4.74,0,10.31.84,13.93,2.51-6.69,26.19-15.1,59.18-17.89,72.55,3.34.28,9.5,1.14,12.84,1.14,15.6-30.65,18.03-44.88,33.91-79.7,4.74-.28,9.48,1.67,11.15,4.46-15.05,25.36-22.21,46.27-37.25,73.85,1.67,31.48,1.56,63,4.07,85.85-3.9,2.51-8.91,3.9-13.65,4.18"/><path class="cls-2" d="m759.74,416.19c4.73-35.38,10.31-76.29,13.1-106.38-1.67,0-4,.68-5.57,1.06-9.47,30.65-23.96,70.77-36.22,105.6,9.75.56,18.95.56,28.7-.28m-25.12-111.31c25.83-.89,40.81-2.65,49.92-4.89-2.79,26.47-7.52,67.44-11.42,98.37-2.78,23.13-6.69,69.93-6.96,95.01-4.18,1.95-9.48,2.78-14.21,2.51,1.12-13.93,3.34-45.68,6.69-70.76-11.14-.84-20.9-.84-30.37-.28-9.2,26.19-16.72,48.76-19.5,61.02-3.9.28-10.31.56-13.09-.84,6.69-17,15.6-40.12,24.8-64.64l1.67-4.74c14.21-38.73,28.7-79.69,35.39-104.49-9.95,1.65-17.16,4.06-24.29,5.72-1.11-3.34-.56-8.36,1.39-11.98"/><path class="cls-2" d="m849.47,369.11l14.95-59c-5.01-3.34-14.49-4.74-19.5-4.74s-9.19,2.51-12.54,7.52c-7.53,11.15-13.83,44.23-21.36,82.12-8.08,42.08-11.09,75.18-9.7,85.49,1.11,11.42,5.85,12.54,11.15,12.54,5.57,0,12.82-1.95,18.11-4.74l9.14-79.36c4.18-.84,8.36,0,11.7,2.23l-16.66,86.33c-6.41,5.01-18.67,6.96-28.42,6.96-8.08,0-15.88-2.79-17.56-15.6-1.95-13.66,2.45-53.72,8.86-87.44,8.08-40.96,18.29-79.06,30-94.11,8.08-10.59,15.33-13.1,23.13-13.1,7.24,0,18.95,1.95,23.13,5.57l-14.11,72.37c-4.74.28-7.52-.56-10.31-3.06"/><path class="cls-2" d="m907.1,513.22c-1.11-19.23-4.13-85.87-5.8-117.92-2.79-.28-5.85-.28-9.19,0-6.13,32.32-16.54,90.15-18.21,114.67-5.29.28-12.54-.56-15.6-2.23,7.52-23.13,16.26-65.63,26.01-115.78l.28-1.39c2.23-12.54,14.51-72.6,18.97-101.02,4.74,0,10.31.84,13.93,2.51-6.69,26.19-20.92,81.79-23.71,95.17,3.34.28,6.69.28,10.03.28,15.6-30.65,31.21-63.1,47.09-97.93,4.74-.28,9.48,1.67,11.15,4.46-15.05,25.36-35.38,64.5-50.43,92.08,1.67,31.48,6.64,100.08,9.15,122.93-3.9,2.51-8.91,3.9-13.65,4.18"/><path class="cls-2" d="m958.25,522.36c-7.8,0-18.11-2.51-23.68-9.48l22.87-100.46c4.74-.84,8.62.15,11.58,2.1l-24.69,88.33c6.41,5.57,11.43,7.52,19.51,7.52,5.85,0,10.86-1.39,14.21-4.18,2.79-2.23,5.29-6.13,6.96-13.1,6.41-26.19,5.9-66.84-7.07-104.49-8.04-23.33-8.17-50.2-4.8-66.24,2.79-13.29,8.56-22.66,12.46-27.4,5.85-7.24,13.56-9.73,23.03-9.73,8.92,0,15.61,2.79,21.73,9.75l-20.66,76.9c-4.18.56-8.08-.56-11.15-3.34l22.89-64.65c-5.01-5.01-12.26-7.52-19.78-7.52s-13.1,4.46-15.33,11.15c-5.01,15.05-3.62,50.06,2.75,74.68,12.12,46.86,13.76,82.48,7.91,105.32-2.23,9.19-8.64,20.9-14.77,26.47-5.57,5.29-14.49,8.36-23.96,8.36"/><path class="cls-2" d="m1082.42,369.11l20.72-73.02c-5.01-3.34-14.49-4.74-19.5-4.74s-9.2,2.51-12.54,7.52c-7.52,11.15-19.6,58.25-27.13,96.15-8.08,42.08-15.99,95.91-14.59,106.21,1.11,11.43,5.85,12.54,11.15,12.54,5.57,0,12.82-1.95,18.11-4.74l14.04-100.09c4.18-.84,8.36,0,11.7,2.23l-21.56,107.05c-9.18,5.96-15.95,6.95-25.7,6.95-8.08,0-17.81-4-19.49-16.81-1.95-13.66,6.57-73.23,12.97-106.94,8.08-40.96,24.06-93.08,35.76-108.13,8.08-10.59,15.33-13.1,23.13-13.1,7.24,0,18.95,1.95,23.13,5.57l-19.88,86.39c-4.74.28-7.52-.56-10.31-3.06"/><path class="cls-2" d="m1088.12,519.85c6.41-31.21,20.49-98.92,26.62-130.68,5.86-29.26,13.45-77.74,17.08-106.16,5.01.28,10.03.84,12.26,2.23-4.73,21.73-13.47,73.17-18.76,101.31,11.14.56,22.57.56,34.27,0,5.01-26.75,12.36-77.62,15.7-103.54,5.01,0,8.92.56,12.26,2.23-5.02,23.13-14.01,71.61-19.58,101.42-6.69,36.5-19.37,109.51-23,135.7-5.01,0-9.47-.56-13.37-2.51,6.41-31.21,20.19-93.74,26.32-125.51-11.42-.28-22.85,0-34.27.56-6.41,35.39-18.52,102.1-22.14,127.46-5.01,0-9.48-.56-13.38-2.51"/><path class="cls-2" d="m1186.86,509.87c8.08,0,20.62-.56,35.94-2.79l8.42-78.91c3.9-1.67,8.36-1.67,11.7-.56l-13.99,91.73c-16.44-.84-44.02-1.12-57.68-.84,6.41-22.01,16.29-71.2,23.16-122.48,0,0,12-79.03,15.62-109.68l.56.28c12.54.28,38.17,0,54.89-1.39l-13.1,73.28c-3.9,1.11-7.24,1.11-10.59-.56l12.82-59.9c-12.82-2.23-25.64-2.79-33.16-2.79-4.18,21.18-11.14,73.28-15.33,92.23,11.43-.28,21.18-1.12,30.93-3.9.28,4.46-.84,11.42-3.06,15.32-7.52-2.51-14.49-3.62-29.54-3.06-.56,1.95-15.66,95.07-17.61,114.02"/><path class="cls-2" d="m1249.61,511.96c6.41-31.21,20.34-91.03,26.47-122.79,5.86-29.26,14.13-72.32,17.75-100.74,5.01,0,8.91.56,12.26,2.23-5.01,23.13-14.69,66.19-20.26,96.01-6.69,36.5-19.23,101.62-22.85,127.81-5.01,0-9.47-.56-13.38-2.51"/><path class="cls-2" d="m1303.25,509.81c-5.02.28-9.75-.28-14.21-2.23,6.41-22.01,21.6-88.6,25.78-108.38,6.69-32.32,15.16-77.47,18.78-108.12l.56.28c12.82.28,48.16,3.34,68.44,6,1.39,5.01,1.67,9.75,1.39,14.77l-42.92,53.08c13.21,30.62,15.27,79.65,9.7,101.94-2.23,9.19-8.61,24.15-14.74,29.72-5.57,5.29-10.31,8.36-19.78,8.36s-13.66-1.67-18.95-6.41l22.03-86.52c4.46,0,7.8,1.11,10.59,4.46l-22.87,72.03c5.02,3.34,7.25,4.46,11.15,4.46,5.85,0,10.31-1.39,13.65-4.18,2.79-2.23,6.41-10.03,8.08-17,6.41-26.19.85-80.39-11.12-102.12l40.96-60.05c-16.81-5.15-35.28-9.9-44.75-9.9-5.57,27.3-16.28,77.47-21.29,102.82-6.41,31.49-17.98,83.31-20.48,106.99"/><path class="cls-2" d="m1417.63,401.71c-5.85,29.81-13.79,67.59-15.74,86.53,16-3.64,22.27-5.86,38.87-12.17l4.73-47.89c3.9-1.67,8.36-1.67,11.7-.56l-9.75,58.24c-16.03,7.04-47.5,10.74-61.16,11.02,6.41-22.01,11-43.62,21.59-95.44l1.67-8.08c6.13-29.26,11.65-62.41,15.27-93.07l.56.28c12.54.28,36.66,3.86,54.39,4.18l-13.09,53.78c-3.9,1.11-7.24,1.11-10.59-.56l13.74-41.77c-10.21-5.09-26.06-6.99-33.58-6.99-4.18,21.18-11.65,59.35-15.83,78.3,11.43-.28,21.18-1.12,30.93-3.9.28,4.46-.84,11.42-3.06,15.32-7.53-2.51-14.49-3.62-29.54-3.06-.56,1.95-.83,3.62-1.11,4.74v1.11Z"/><path class="cls-2" d="m204.11,439.91c-.3-1.28-.74-2.74-1.17-3.94-2.52.58-3.62.86-5.42,1.54-.45-.73-.64-1.52-.56-2.42,2.08-.25,2.23-.25,4.2-.71,1.36-.31,2.76-.66,4.58-1.21.08,1.91.4,4.3.83,6.2l.71,3.06c.66,2.84,1.02,4.96.27,6.46-.67,1.27-1.72,2.14-2.97,2.43-1.38.32-2.58.44-3.4.26-.69-.96-1.21-1.88-1.4-2.93,1.44.39,2.18.54,3.44.25,1.04-.24,1.53-.69,1.95-1.59.46-1.07-.06-3.05-.69-5.79l-.37-1.6Z"/><path class="cls-2" d="m215.54,448.86c-1.93.44-3.4-.54-3.78-2.17-.34-1.48.06-2.87.88-3.71,1.22-1.24,3.47-2.18,5.31-2.66l-.02-.07c-.37-1.6-.48-2.41-1.07-2.72-.51-.27-.96-.35-1.93-.13-1.53.35-2.74,1.54-3.85,2.71-.44-.65-.45-2.18-.25-2.78.8-.91,2.47-1.69,4.02-2.05,1.6-.37,2.53-.4,3.51,0,.92.36,1.36,1.17,1.63,2.33.29,1.23.4,2.27.67,3.46l.22.96c.32,1.41.94,3.19,1.72,4.85-1.01.47-1.97.69-3.04.7.03-.89-.05-1.57-.23-2.44h-.31c-.26,1.22-.74,2.09-1.32,2.61-.61.53-1.35.91-2.19,1.1Zm.61-2.43c.79-.18,1.39-.61,1.75-1.18.34-.55.62-1.6.48-2.89-1.49.06-2.25.16-2.7.26-1.41.32-1.79,1.38-1.54,2.44.14.59.37,1.06.79,1.27.33.18.78.21,1.22.11Z"/><path class="cls-2" d="m229.32,445.37c-1.07.45-2.25.73-3.55.82-.03-1.84-.36-4.15-.86-6.3l-1.68-7.26c-.28-1.21-1-3.43-1.75-5.11.88-.67,2.06-1.31,3.27-1.48.14,2.31.43,3.98.81,5.66l1.32,5.73c.44-.1.89-.21,1.3-.33,1.09-1.81,1.55-3.22,2.25-4.99,1.61-.68,2.99-1,4.1-.95l-4.34,5.4.02.2c1.21,1.2,1.13,1.06,1.93,1.84l1.64,1.6c1.18,1.16,2.1,1.99,3.72,3.27-1.22.44-2.48.73-3.83.88-.6-1.37-1.23-1.95-2.22-2.84l-1.28-1.16c-.5-.46-1.07-.9-1.86-1.42-.35.06-.7.14-1.04.21l.03.15c.5,2.15,1.26,4.44,2,6.06Z"/><path class="cls-2" d="m247.89,439.57c-1.02,1.54-2.34,2.46-3.87,2.82-2.64.61-5.23-1.05-6.1-4.78-.57-2.47.04-4.32,1.01-5.87,1.02-1.64,2.56-2.54,3.97-2.87,2.64-.61,5.16,1.07,6.03,4.82.57,2.47-.02,4.32-1.03,5.88Zm-3.39.42c.96-.22,1.66-.69,2.07-1.41.41-.72.35-1.74.09-2.98-.69-2.99-2.05-4.83-4.35-4.3-.94.22-1.62.53-2.06,1.33-.41.72-.35,1.85-.07,3.08.66,2.99,2.05,4.81,4.32,4.28Z"/><path class="cls-2" d="m258.39,438.97c-1.95.45-3.9.35-5.12-.01.07-1.73-.28-3.7-.78-5.85l-1.57-6.81c-.29-1.23-1-3.43-1.75-5.11.88-.67,2.06-1.31,3.3-1.49.12,2.31.4,3.99.8,5.72l.79,3.43.16.02c.28-1.03.72-1.62,1.3-2.12.65-.54,1.39-.95,2.48-1.2,2.25-.52,4.48,1.28,5.31,4.86.57,2.47-.03,4.17-1.06,5.76-.95,1.49-2.29,2.45-3.85,2.81Zm-3.28-5.53c.23.99.5,2.17.95,3.34.7.12,1.63.07,2.81-.21.96-.22,1.63-.69,2.02-1.38.43-.75.42-1.66.14-2.89-.69-2.99-1.96-4.67-3.91-4.22-.81.19-1.39.63-1.77,1.22-.4.61-.76,1.89-.38,3.54l.14.59Z"/><path class="cls-2" d="m271.41,424.45c-.43-1.88-1.16-4.12-1.94-5.79l10.66-2.46c.26,1.11.32,2.19.09,3.33-2.22-.5-4.64-.38-7.02.09.12,1.43.38,2.98.67,4.26l.45,1.95c1.25-.34,2.49-.83,5.02-2.12.51,1.08.73,2.04.71,3.32-2.79-.06-4.13.02-5.4.26l.3,1.31c.44,1.9,1.2,4.19,1.99,5.81-1.18.53-2.41.82-3.65.84-.06-1.83-.36-4.15-.8-6.05l-1.09-4.74Z"/><path class="cls-2" d="m289.01,431.98c-1.93.44-3.4-.54-3.78-2.17-.34-1.48.06-2.87.88-3.71,1.22-1.24,3.47-2.18,5.31-2.66l-.02-.07c-.37-1.6-.48-2.41-1.07-2.72-.51-.27-.96-.35-1.93-.13-1.53.35-2.74,1.54-3.85,2.71-.44-.65-.45-2.18-.25-2.78.8-.91,2.47-1.69,4.02-2.05,1.6-.37,2.53-.4,3.51,0,.92.36,1.36,1.17,1.63,2.33.28,1.23.4,2.27.67,3.46l.22.96c.32,1.41.94,3.19,1.72,4.85-1.01.47-1.97.69-3.04.7.03-.89-.05-1.57-.23-2.44h-.31c-.26,1.23-.74,2.09-1.32,2.61-.61.53-1.35.91-2.19,1.1Zm.61-2.43c.79-.18,1.39-.61,1.75-1.18.34-.55.62-1.6.48-2.89-1.49.06-2.25.16-2.7.26-1.41.33-1.79,1.38-1.54,2.44.14.59.37,1.06.79,1.27.33.18.78.21,1.22.11Z"/><path class="cls-2" d="m301.01,423.51c.35,1.53.97,3.31,1.75,4.98-1.11.47-2.3.74-3.55.82-.03-1.84-.25-3.69-.61-5.24l-.52-2.27c-.32-1.41-.94-3.16-1.71-4.83,1.01-.47,1.97-.69,3.04-.7,0,.88.05,1.55.21,2.39h.31c.31-1.26.76-1.99,1.34-2.51.6-.55,1.5-.92,2.54-1.16,1.78-.41,3.59.37,4.11,2.59.31,1.36.42,2.5.69,3.66l.11.49c.35,1.53.97,3.31,1.75,4.98-1.11.46-2.3.74-3.55.82-.03-1.84-.25-3.69-.61-5.24l-.38-1.63c-.37-1.6-.7-2.49-1.27-2.9-.38-.28-.99-.45-1.8-.26-.79.18-1.36.63-1.75,1.21-.4.61-.75,1.94-.37,3.59l.28,1.21Z"/><path class="cls-2" d="m313.18,428.89c-.32-1.25.18-2.49,1.47-3.09l-.04-.3c-.79-.16-1.33-.58-1.53-1.47-.23-1.01-.07-2.09,1.15-2.58l-.02-.33c-1.23-.37-2.21-1.36-2.58-2.94-.39-1.68.19-2.9,1.09-3.97.94-1.21,2.32-1.89,3.55-2.17.54-.13,1.08-.17,1.56-.13l.54-3.3c.97-.07,2.07.54,2.39,1.35l-2.02,2.16c1.18.4,2.09,1.39,2.45,2.94.39,1.68-.14,2.87-1.1,4-.8.94-1.88,1.63-3.05,1.98-1.47.6-2,1.14-1.89,1.61.19.84,1.09.66,3.56.09l1.21-.28c1.75-.4,2.65-.58,3.5-.26.57.21.99.89,1.15,1.61.22.94-.17,2.2-.98,3.5-1.08,1.73-2.85,3.18-5.27,3.74-3.18.74-4.67-.4-5.1-2.15Zm3.91-9.64c.72-.17,1.24-.49,1.57-.96.33-.49.41-1.03.25-1.83-.43-1.85-1.45-2.89-3.22-2.48-.72.17-1.2.43-1.55.93-.35.5-.45,1.09-.27,1.86.43,1.85,1.45,2.89,3.22,2.48Zm1.91,9.05c2.07-.48,2.93-1.25,3.36-1.79.4-.53.57-1.04.45-1.53-.08-.35-.29-.48-.51-.53-.39-.09-.87-.03-3.63.6-.54.13-1.06.25-1.54.33-.65.33-1.11.7-1.31.87-.41.36-.61.87-.5,1.34.25,1.09,1.38,1.24,3.67.71Z"/><path class="cls-2" d="m328.1,417.31c.35,1.53.97,3.31,1.77,4.97-1.14.47-2.32.74-3.58.83-.03-1.84-.25-3.68-.61-5.24l-.52-2.27c-.32-1.41-.94-3.16-1.71-4.83,1.01-.47,2-.69,3.08-.71-.04.95.06,1.62.2,2.43h.29c.29-1.22.78-2.02,1.34-2.53.6-.55,1.43-.9,2.27-1.1,1.51-.35,2.76.04,3.32,1.89h.29c.25-1.06.64-1.93,1.23-2.43.65-.54,1.43-.9,2.32-1.11,1.63-.38,3.2.46,3.67,2.51.36,1.58.45,2.52.75,3.83l.11.49c.35,1.53.97,3.31,1.77,4.97-1.14.47-2.32.74-3.58.83-.03-1.84-.25-3.68-.61-5.21l-.62-2.67c-.19-.84-.45-1.48-.86-1.8-.5-.38-.94-.46-1.83-.25-.57.13-.92.39-1.31.98-.43.62-.74,1.96-.36,3.62l.27,1.18c.35,1.53.97,3.31,1.77,4.97-1.11.47-2.32.74-3.58.83-.03-1.84-.25-3.69-.61-5.24l-.61-2.64c-.19-.84-.45-1.48-.86-1.8-.5-.38-.96-.45-1.83-.25-.57.13-.92.4-1.31.98-.43.62-.74,1.96-.37,3.59l.28,1.21Z"/><path class="cls-2" d="m353.21,410.76l-5.18.86c.81,2.83,2.35,3.85,4.69,3.31,1.28-.3,2.45-1.09,3.37-2.42.43.6.57,2.03.32,2.84-.83.92-2.17,1.65-4.17,2.11-3.21.74-5.66-.88-6.52-4.6-.57-2.47-.05-4.28.97-5.81,1-1.51,2.12-2.41,3.72-2.78,2.37-.55,4.11.79,4.66,3.16.15.64.26,1.45.22,1.85-.5.56-1.16,1.07-2.07,1.49Zm-5.47-.4c1.86-.51,3.93-1.11,5.1-1.54-.04-.28-.11-.57-.21-1.02-.28-1.21-1.7-1.4-2.71-1.17-.84.19-1.6.71-1.95,1.33-.35.63-.39,1.44-.23,2.39Z"/><path class="cls-2" d="m356.25,396.64c.97-.41,2.06-.66,3.16-.73.41,1,.66,2.08.75,3.26-.95.4-2.01.65-3.16.73-.41-1-.67-2.11-.75-3.26Zm1.27,6.31c1.21-.49,2.4-.74,3.55-.82.04,1.86.26,3.71.61,5.24l.49,2.12c.35,1.53.97,3.31,1.75,4.98-1.06.45-2.25.73-3.55.82-.03-1.84-.25-3.68-.61-5.24l-.49-2.12c-.36-1.56-.97-3.31-1.75-4.98Z"/><path class="cls-2" d="m373.16,406.18l-5.18.86c.81,2.83,2.35,3.85,4.69,3.31,1.28-.3,2.45-1.09,3.37-2.42.43.6.57,2.03.32,2.84-.83.92-2.17,1.64-4.17,2.11-3.21.74-5.66-.88-6.52-4.6-.57-2.47-.05-4.28.97-5.81,1-1.51,2.12-2.41,3.72-2.78,2.37-.55,4.11.79,4.66,3.16.15.64.26,1.45.22,1.85-.5.56-1.16,1.07-2.07,1.49Zm-5.47-.4c1.86-.51,3.93-1.12,5.1-1.54-.04-.28-.11-.57-.21-1.02-.28-1.21-1.7-1.4-2.71-1.17-.84.19-1.6.71-1.95,1.33-.35.63-.39,1.44-.23,2.39Z"/><path class="cls-2" d="m382.08,404.92c.35,1.53.97,3.31,1.75,4.98-1.09.46-2.3.74-3.55.82-.03-1.84-.25-3.69-.61-5.24l-.52-2.27c-.32-1.41-.94-3.16-1.71-4.83,1.01-.47,1.97-.69,3.04-.7.02,1.09.06,1.62.21,2.39h.31c.26-1.23.71-2,1.33-2.56.69-.63,1.33-.88,2.54-1.03.15,1.21.12,2.1-.02,3.07-.54-.11-.95-.04-1.32.04-.74.17-1.01.47-1.42,1.06-.43.62-.56,1.97-.32,3.01l.29,1.26Z"/><path class="cls-2" d="m237.09,274.06c.46-.99,1.33-1.99,2.23-2.55,1.06,1.96,2.38,3.52,3.75,4.24.76.4,1.38.47,2.09.33.58-.12,1.05-.59,1.48-1.4.65-1.23-.12-2.64-1.7-4.33-1.26-1.35-2.1-2.37-2.43-3.43-.28-.89-.19-1.87.46-3.11,1.03-1.95,4.33-3.27,7.69-1.5,1.61.85,2.64,1.62,3.37,2.58-.42,1.18-1.29,1.96-2.37,2.53-.98-2.21-2.17-3.26-3.25-3.83-.85-.45-1.41-.48-2.02-.29-.41.13-.84.45-1.11.96-.71,1.34-.05,2.32,1.97,4.47,1.63,1.75,2.2,2.56,2.41,3.68.16.89.05,1.75-.51,2.82-1.06,2.02-4.26,4-7.86,2.1-2.04-1.07-3.24-2.05-4.2-3.27Z"/><path class="cls-2" d="m252.93,283.38c-1.79-.94-2.2-2.56-1.38-4.11.72-1.37,1.54-2.48,2.23-3.8l.39-.74c.45-.85.81-1.64,1.08-2.49l-1.54-.72c.11-.48.43-1.26.96-1.76.67.41,1.01.64,1.7,1.01.98-.89,1.68-1.83,2.51-2.8.62.3,1.08.66,1.25.94-.39.63-1.16,1.93-1.81,2.88,1.21.64,2.6,1.31,3.76,1.72-.21.83-.63,1.41-1.4,1.9-.91-.82-1.91-1.49-2.89-2.12-.42.75-.89,1.53-1.37,2.43l-.59,1.12c-1.04,1.97-1.84,3.44-1.68,4.07.11.43.37.65.62.78.87.46,1.88.68,2.57.67-.03.82-.68,1.5-1.33,1.93-.53.09-1.89-.28-3.07-.9Z"/><path class="cls-2" d="m267.89,284.19l-4.48-2.74c-1.24,2.67-.74,4.45,1.39,5.57,1.17.61,2.57.78,4.13.37-.07.74-.89,1.91-1.61,2.36-1.23.15-2.72-.17-4.53-1.13-2.91-1.54-3.71-4.36-1.93-7.75,1.18-2.24,2.76-3.27,4.53-3.77,1.74-.48,3.18-.44,4.64.33,2.15,1.13,2.59,3.28,1.46,5.44-.31.58-.75,1.26-1.04,1.54-.74.1-1.58.06-2.54-.22Zm-3.88-3.88c1.74.83,3.7,1.72,4.87,2.17.15-.23.29-.5.51-.91.58-1.1-.37-2.17-1.29-2.66-.76-.4-1.68-.51-2.35-.27-.67.25-1.24.83-1.74,1.66Z"/><path class="cls-2" d="m276.27,281.05c1.24.42,2.3,1.01,3.23,1.7-1.19,1.44-2.23,2.98-2.96,4.37l-1.02,1.93c-.73,1.39-1.43,3.14-1.93,4.91-1.1-.35-2.18-.92-3.23-1.7,1.17-1.41,2.22-2.96,2.96-4.37l1.02-1.93c.74-1.41,1.43-3.14,1.93-4.91Zm3.16-5.61c1,.33,1.99.85,2.87,1.51-.34,1.02-.86,2.01-1.56,2.96-.98-.32-1.94-.82-2.87-1.51.34-1.02.87-2.03,1.56-2.96Z"/><path class="cls-2" d="m281.73,292.32c-.73,1.39-1.43,3.14-1.93,4.91-1.15-.38-2.22-.94-3.23-1.7,1.17-1.41,2.22-2.95,2.96-4.37l1.09-2.06c.67-1.28,1.36-3.01,1.86-4.77,1.07.31,1.94.77,2.76,1.45-.58.67-.98,1.2-1.4,1.95l.23.21c1.06-.76,1.88-1.01,2.66-1.03.82-.03,1.74.29,2.68.78,1.61.85,2.48,2.62,1.42,4.64-.65,1.23-1.32,2.17-1.87,3.22l-.24.45c-.73,1.39-1.43,3.14-1.93,4.91-1.15-.38-2.22-.94-3.23-1.7,1.17-1.41,2.22-2.96,2.96-4.37l.78-1.48c.77-1.46,1.09-2.34.94-3.03-.1-.46-.45-.98-1.19-1.37-.72-.38-1.44-.42-2.11-.23-.71.2-1.83.98-2.63,2.48l-.58,1.1Z"/><path class="cls-2" d="m293.08,307.89c3.12-5.11,7.59-13.64,10.09-19.14.81-.18,1.86.38,2.15,1.13-3.12,5.17-7.61,13.68-10.09,19.14-.78.07-1.81-.47-2.15-1.13Z"/><path class="cls-2" d="m307.89,312.29c-1.79-.94-2.2-2.56-1.38-4.11.72-1.37,1.54-2.48,2.23-3.8l.39-.74c.45-.85.81-1.64,1.08-2.49l-1.54-.72c.11-.48.44-1.26.96-1.76.67.41,1.01.65,1.7,1.01.98-.89,1.68-1.83,2.51-2.8.62.3,1.08.66,1.25.94-.39.63-1.16,1.94-1.81,2.88,1.21.64,2.6,1.31,3.76,1.72-.21.83-.63,1.41-1.4,1.9-.91-.82-1.91-1.49-2.89-2.12-.42.75-.89,1.53-1.37,2.43l-.59,1.12c-1.04,1.97-1.84,3.44-1.68,4.07.12.43.37.65.62.78.87.46,1.88.67,2.57.67-.03.82-.68,1.5-1.33,1.93-.53.09-1.89-.28-3.07-.9Z"/><path class="cls-2" d="m318.56,311.71c-.73,1.39-1.43,3.14-1.91,4.92-1.17-.39-2.25-.95-3.25-1.71,1.17-1.41,2.22-2.95,2.96-4.37l1.09-2.06c.67-1.28,1.36-3.01,1.86-4.78,1.07.31,1.97.78,2.8,1.48-.65.69-1.01,1.27-1.44,1.96l.21.2c1.02-.75,1.91-1.02,2.67-1.05.82-.03,1.67.25,2.43.65,1.37.72,2.07,1.83,1.28,3.6l.21.2c.89-.65,1.76-1.05,2.53-1.05.85.02,1.67.25,2.48.68,1.48.78,2.12,2.44,1.14,4.3-.76,1.43-1.3,2.2-1.93,3.39l-.24.45c-.73,1.39-1.43,3.14-1.91,4.92-1.17-.39-2.25-.96-3.25-1.71,1.17-1.41,2.22-2.96,2.95-4.34l1.28-2.42c.4-.76.63-1.41.53-1.93-.13-.61-.41-.96-1.22-1.39-.52-.27-.96-.3-1.63-.11-.73.19-1.85,1-2.64,2.5l-.57,1.08c-.73,1.39-1.43,3.14-1.91,4.92-1.15-.38-2.25-.95-3.25-1.71,1.18-1.41,2.22-2.96,2.96-4.37l1.26-2.4c.4-.76.63-1.41.53-1.93-.13-.61-.43-.97-1.22-1.39-.52-.27-.96-.3-1.63-.11-.73.19-1.85,1-2.63,2.48l-.58,1.1Z"/><path class="cls-2" d="m340.7,329.36l-7.9-4.25c-.1-.4-.06-.86.13-1.33,5.03-1.01,6.82-1.7,7.6-2.03.73-.3,1.55-.87,2.03-1.79.27-.52.48-1.18.26-1.75-.18-.52-.6-.86-1.32-1.24-1.05-.56-2.86-.71-4.41-.55.12-.71.89-1.91,1.46-2.23,1.28-.15,2.98.37,4.28,1.06,1.37.72,2.14,1.33,2.61,2.21.42.82.24,1.99-.39,3.18-.89,1.68-2.77,2.49-4.46,3.09-1.3.46-3.03.75-4.47.94,1.98,1.02,4.09,1.7,5.92,1.97-.18.99-.62,1.94-1.36,2.75Z"/><path class="cls-2" d="m352.13,335.39l-7.9-4.25c-.1-.4-.06-.86.13-1.33,5.03-1.01,6.82-1.7,7.6-2.03.73-.3,1.55-.87,2.03-1.79.27-.52.48-1.18.26-1.75-.18-.52-.6-.86-1.32-1.24-1.05-.56-2.86-.71-4.41-.55.12-.71.89-1.91,1.46-2.24,1.28-.15,2.98.37,4.28,1.06,1.37.72,2.14,1.33,2.61,2.21.42.83.24,1.99-.39,3.18-.89,1.68-2.77,2.49-4.46,3.09-1.3.46-3.03.75-4.47.94,1.98,1.02,4.09,1.7,5.92,1.97-.18.99-.62,1.94-1.36,2.75Z"/></svg>