<?xml version="1.0" encoding="UTF-8"?><svg xmlns="http://www.w3.org/2000/svg" xmlns:xlink="http://www.w3.org/1999/xlink" viewBox="0 0 1980 1200"><defs><style>.cls-1{fill:none;}.cls-2{clip-path:url(#clippath);}.cls-3{fill:#f9c2d0;}.cls-4{fill:#231f20;}.cls-5{mix-blend-mode:multiply;}.cls-6{isolation:isolate;}</style><clipPath id="clippath"><rect class="cls-1" x="-7.31" y="-13.44" width="1994.63" height="1213.44"/></clipPath></defs><g class="cls-6"><g id="Layer_1"><g class="cls-5"><g class="cls-2"><rect class="cls-3" x="-.42" y="-4.97" width="1980.84" height="1203.76"/></g></g><path class="cls-4" d="m316.35,1062.38c-45.74,0-92.87-16.63-120.59-42.97l73.46-331.27c18.02,0,40.2,5.54,52.67,13.86l-67.92,281.37c23.56,18.02,44.35,24.95,74.85,24.95,54.06,0,98.41-23.56,117.81-103.95,27.72-119.2-13.86-212.07-70.69-324.34-55.44-109.5-59.6-210.68-41.58-299.39,18.02-90.09,79.01-138.61,153.85-138.61,49.9,0,88.71,19.41,115.04,45.74l-69.3,302.16c-20.79,2.77-40.2-2.77-56.83-13.86l67.92-257.81c-20.79-15.25-44.35-20.79-73.46-20.79-40.2,0-72.08,29.11-87.32,87.32-12.47,52.67-18.02,149.69,37.42,263.35,56.83,116.43,103.95,239.79,77.62,358.99-20.79,98.41-80.39,155.24-182.96,155.24Zm-19.41-352.06l-8.32-2.77-66.53,296.62c27.72,24.95,60.99,34.65,105.34,34.65,92.87,0,134.45-66.53,149.69-130.29,30.49-120.59-9.7-217.61-72.08-340.97-63.76-126.13-58.21-200.98-41.58-284.14,15.25-73.46,67.92-109.5,119.2-109.5,41.58,0,73.46,16.63,90.09,33.26l-67.92,259.19,8.32,2.77,69.3-264.74c-19.41-22.18-58.21-38.81-97.02-38.81-59.6,0-115.04,38.81-130.29,116.43-15.25,83.16-22.18,160.78,41.58,288.3,59.6,120.59,102.57,219,73.46,336.81-15.25,62.37-54.06,123.36-142.76,123.36-42.97,0-74.85-13.86-97.02-29.11l66.53-291.07Z"/><path class="cls-4" d="m615.71,976.45c12.47,24.95,38.81,31.88,56.83,31.88,12.47,0,24.95-2.77,37.42-6.93l48.51-303.55c16.63-5.54,38.81-2.77,51.28,5.54l-59.6,339.58c-31.88,15.25-41.58,19.4-88.71,19.4-37.42,0-70.69-9.7-90.09-44.35-34.65-62.37,5.55-202.36,26.34-299.39,19.41-92.87,65.14-346.51,84.55-505.91,24.95-4.16,41.58,0,58.21,11.09-12.47,49.9-19.41,94.25-26.34,133.06l117.81,1.39c2.77,16.63-1.39,44.35-11.09,58.21l-115.04-12.47c-30.49,173.26-40.2,217.61-47.13,255.03-19.41,95.64-60.99,281.37-42.97,317.41Zm72.08-600.16c13.86-79,24.95-141.38,24.95-142.76v-4.16l-6.93-1.39-1.39,5.54s-12.47,77.62-29.11,170.49c-15.25,91.48-34.65,196.82-45.74,250.88-12.47,65.14-30.49,135.83-40.2,198.21-11.09,62.37-13.86,116.43,1.39,146.92,15.25,29.11,38.81,38.81,69.3,38.81,27.72,0,51.28-4.16,74.85-12.47l2.77-1.39,47.13-310.48-6.93-1.39-48.51,306.32c-18.02,8.32-47.13,11.09-66.53,11.09-30.49,0-49.9-9.7-63.76-33.27-15.25-29.11-12.47-81.78-1.39-142.76,9.7-62.37,26.34-133.06,40.2-196.82,11.09-54.06,29.11-160.78,45.74-252.26l2.77-20.79,127.52,6.93,1.39-8.32-127.52-6.93Z"/><path class="cls-4" d="m1118.85,562.02h48.51c5.54,12.47,2.77,38.81-4.16,49.9l-199.59-4.16c-5.54,20.79-11.09,44.35-15.25,69.3-26.33,133.06-31.88,259.19-15.25,299.39,11.09,27.72,36.04,31.88,58.21,31.88,15.25,0,29.11-1.39,41.58-6.93l31.88-256.42c19.4-2.77,44.35,0,56.83,6.93l-49.9,293.84c-29.11,13.86-63.76,16.63-95.64,16.63-40.2,0-72.08-12.47-88.71-42.97-34.65-65.14-22.18-200.98,1.39-316.02,51.28-252.26,105.34-356.22,210.68-356.22,29.11,0,52.67,13.86,62.37,36.04,9.7,22.18,11.09,58.21,0,92.87-12.47,40.2-26.33,66.53-42.97,83.16v2.77Zm-36.04,20.79c26.34-36.04,41.58-60.99,54.06-94.25,11.09-29.11,18.02-66.53,2.77-95.64-11.09-20.79-27.72-27.72-45.74-27.72-19.41,0-36.04,6.93-49.9,15.25-56.83,37.42-83.16,109.5-130.29,314.63-16.63,73.46-22.18,139.99-22.18,194.05-1.39,52.67,2.77,84.55,11.09,102.57,13.86,33.27,42.97,48.51,79.01,48.51,30.49,0,54.06-4.16,74.85-12.47l37.42-259.19-6.93-1.39-38.81,255.03c-13.86,4.16-36.04,9.7-66.53,9.7s-59.6-13.86-70.69-42.97c-6.93-18.02-12.47-48.51-12.47-99.8,1.39-52.67,8.32-119.2,23.56-191.28,8.32-41.58,16.63-76.23,24.95-106.73h203.75v-8.32h-67.92Zm-34.65-195.43c12.47-8.32,26.34-13.86,42.97-13.86,18.02,0,31.88,6.93,41.58,24.95,12.47,24.95,5.54,56.83-4.16,87.32-11.09,36.04-24.95,56.83-56.83,97.02h-123.36c37.42-123.36,51.28-163.55,99.8-195.43Zm-72.07,176.03l92.87-1.39c18.02-23.56,30.49-51.28,38.81-74.85,8.32-26.33,11.09-55.44,4.16-74.85-4.16-12.47-15.25-18.02-29.11-18.02-18.02,0-36.04,12.47-49.9,30.49-18.02,23.56-37.42,67.92-56.83,138.61Z"/><path class="cls-4" d="m1156.27,1051.3c30.49-144.15,58.21-270.28,77.62-395.03,15.25-90.09,30.49-192.66,47.13-309.09,20.79,0,51.28,4.16,62.37,11.09-23.56,95.64-40.2,181.57-60.99,304.93-20.79,126.13-45.74,257.81-63.76,399.18-23.56,0-44.35-2.77-62.37-11.09Zm156.62-684.71l-6.93-1.39-1.39,2.77c-8.32,51.28-20.79,119.2-30.49,177.42-9.7,59.6-18.02,110.88-20.79,128.9-5.54,29.11-16.63,91.48-30.49,159.4-12.47,67.92-26.34,142.76-36.04,200.98v2.77l6.93,1.39,1.39-4.16c9.7-56.83,23.56-131.68,36.04-199.59,12.47-67.92,24.95-128.9,30.49-160.78,2.77-16.63,11.09-67.92,20.79-127.52,9.7-58.21,20.79-126.13,30.49-176.03v-4.16Zm1.39-217.61c23.56-6.93,47.13-5.54,70.69,5.54,4.16,20.79,2.77,40.2-9.7,62.37-23.56,5.54-47.13,5.54-66.53-4.16-9.7-20.79-6.93-41.58,5.54-63.76Zm12.47,52.67l18.02-13.86,12.47,15.25,8.32-5.54-13.86-13.86,16.63-9.7-5.54-8.32-16.63,12.47-13.86-16.63-8.32,5.54,15.25,15.25-18.02,12.47,5.54,6.93Z"/><path class="cls-4" d="m1296.25,1051.3c36.04-144.15,62.37-266.12,72.08-332.65,19.41-131.67,47.13-274.44,58.21-371.46,23.56,0,48.51,4.16,63.76,11.09-22.18,76.23-42.97,176.03-59.6,261.96l5.54,1.39c41.58-115.04,73.46-180.19,105.34-227.31,22.18-31.88,52.67-47.13,87.32-47.13,27.72,0,47.13,12.47,54.06,30.49,11.09,26.33,12.47,58.21-4.16,110.88-13.86,44.35-41.58,119.2-63.76,220.38-34.65,162.17-47.13,238.4-56.83,352.06-26.34,0-49.9-4.16-66.53-11.09,24.95-117.81,52.67-239.79,74.85-336.81,24.95-106.73,48.51-188.5,58.21-224.54,11.09-42.97,12.47-65.14,8.32-76.23-4.16-9.7-12.47-12.47-20.79-12.47-15.25,0-26.34,9.7-41.58,30.49-12.47,16.63-40.2,70.69-158.01,334.04l-1.39,4.16c-18.02,108.11-40.2,230.09-48.51,295.23-26.33-1.39-52.67-5.54-66.53-12.47Zm38.81-9.7c11.09-54.06,23.56-106.73,34.65-159.4,6.93-37.42,18.02-90.09,20.79-110.88,30.49-72.08,56.83-128.9,90.09-198.21,31.88-70.69,63.76-134.45,76.23-153.85,11.09-15.25,20.79-26.34,31.88-33.27,11.09-6.93,22.18-9.7,34.65-9.7,22.18,0,33.26,13.86,36.04,34.65,5.54,36.04-15.25,91.48-38.81,167.71-41.58,133.06-76.23,325.72-97.02,456.01l8.32,1.39c20.79-131.67,60.99-335.42,95.64-454.63,23.56-80.39,47.13-137.22,38.81-174.64-4.16-20.79-16.63-38.81-42.97-38.81-13.86,0-26.34,4.16-38.81,11.09-12.47,8.32-23.56,19.41-33.27,34.65-15.25,20.79-45.74,84.55-77.62,155.24-24.95,52.67-55.44,121.97-81.78,182.96,4.16-16.63,5.54-22.18,6.93-29.11,12.47-59.6,20.79-124.75,30.49-184.35,11.09-60.99,20.79-121.97,27.72-163.55l-8.32-1.39c-5.55,42.97-16.63,102.57-27.72,163.55-9.7,60.99-20.79,126.13-30.49,185.73-8.32,51.28-18.02,103.95-29.11,156.62-11.09,52.67-23.56,108.11-34.65,159.4l8.32,2.77Z"/></g></g></svg>