<?xml version="1.0" encoding="UTF-8"?><svg xmlns="http://www.w3.org/2000/svg" viewBox="0 0 700 1200"><defs><style>.cls-1{fill:#f9c2d0;}.cls-2,.cls-3{fill:#231f20;}.cls-4{mix-blend-mode:multiply;}.cls-3{stroke:#000;stroke-miterlimit:10;}.cls-5{isolation:isolate;}</style></defs><g class="cls-5"><g id="Layer_1"><g class="cls-4"><rect class="cls-1" width="700" height="1200.14"/></g><path class="cls-2" d="m78.29,743.08c-19.58,0-39.76-7.12-51.63-18.4l31.45-141.83c7.71,0,17.21,2.37,22.55,5.93l-29.08,120.47c10.09,7.71,18.99,10.68,32.05,10.68,23.14,0,42.13-10.09,50.44-44.51,11.87-51.04-5.93-90.8-30.27-138.87-23.74-46.88-25.52-90.2-17.8-128.19,7.71-38.57,33.83-59.35,65.87-59.35,21.36,0,37.98,8.31,49.26,19.58l-29.67,129.37c-8.9,1.19-17.21-1.19-24.33-5.93l29.08-110.38c-8.9-6.53-18.99-8.9-31.45-8.9-17.21,0-30.86,12.46-37.39,37.39-5.34,22.55-7.71,64.09,16.02,112.76,24.33,49.85,44.51,102.67,33.23,153.7-8.9,42.13-34.42,66.47-78.34,66.47Zm-8.31-150.74l-3.56-1.19-28.49,127c11.87,10.68,26.11,14.84,45.1,14.84,39.76,0,57.56-28.49,64.09-55.78,13.06-51.63-4.15-93.17-30.86-145.99-27.3-54-24.92-86.05-17.8-121.66,6.53-31.45,29.08-46.88,51.04-46.88,17.8,0,31.45,7.12,38.57,14.24l-29.08,110.98,3.56,1.19,29.67-113.35c-8.31-9.5-24.92-16.62-41.54-16.62-25.52,0-49.26,16.62-55.78,49.85-6.53,35.61-9.5,68.84,17.8,123.44,25.52,51.63,43.92,93.77,31.45,144.21-6.53,26.71-23.14,52.82-61.13,52.82-18.4,0-32.05-5.93-41.54-12.46l28.49-124.62Z"/><path class="cls-2" d="m206.47,706.29c5.34,10.68,16.62,13.65,24.33,13.65,5.34,0,10.68-1.19,16.02-2.97l20.77-129.97c7.12-2.37,16.62-1.19,21.96,2.37l-25.52,145.4c-13.65,6.53-17.8,8.31-37.98,8.31-16.02,0-30.27-4.15-38.57-18.99-14.84-26.71,2.37-86.64,11.28-128.19,8.31-39.76,27.89-148.36,36.2-216.61,10.68-1.78,17.8,0,24.92,4.75-5.34,21.36-8.31,40.35-11.28,56.97l50.44.59c1.19,7.12-.59,18.99-4.75,24.93l-49.26-5.34c-13.06,74.18-17.21,93.17-20.18,109.2-8.31,40.95-26.11,120.47-18.4,135.9Zm30.86-256.96c5.93-33.83,10.68-60.53,10.68-61.13v-1.78l-2.97-.59-.59,2.37s-5.34,33.23-12.46,72.99c-6.53,39.17-14.84,84.27-19.58,107.41-5.34,27.89-13.06,58.16-17.21,84.86-4.75,26.71-5.93,49.85.59,62.91,6.53,12.46,16.62,16.62,29.67,16.62,11.87,0,21.96-1.78,32.05-5.34l1.19-.59,20.18-132.93-2.97-.59-20.77,131.15c-7.71,3.56-20.18,4.75-28.49,4.75-13.06,0-21.36-4.15-27.3-14.24-6.53-12.46-5.34-35.01-.59-61.13,4.15-26.71,11.28-56.97,17.21-84.27,4.75-23.14,12.46-68.84,19.58-108.01l1.19-8.9,54.6,2.97.59-3.56-54.6-2.97Z"/><path class="cls-2" d="m421.89,528.85h20.77c2.37,5.34,1.19,16.62-1.78,21.36l-85.46-1.78c-2.37,8.9-4.75,18.99-6.53,29.67-11.28,56.97-13.65,110.98-6.53,128.19,4.75,11.87,15.43,13.65,24.92,13.65,6.53,0,12.46-.59,17.8-2.97l13.65-109.79c8.31-1.19,18.99,0,24.33,2.97l-21.36,125.81c-12.46,5.93-27.3,7.12-40.95,7.12-17.21,0-30.86-5.34-37.98-18.4-14.84-27.89-9.5-86.05.59-135.31,21.96-108.01,45.1-152.52,90.2-152.52,12.46,0,22.55,5.93,26.71,15.43,4.15,9.5,4.75,24.92,0,39.76-5.34,17.21-11.28,28.49-18.4,35.61v1.19Zm-15.43,8.9c11.28-15.43,17.8-26.11,23.14-40.35,4.75-12.46,7.71-28.49,1.19-40.95-4.75-8.9-11.87-11.87-19.58-11.87-8.31,0-15.43,2.97-21.36,6.53-24.33,16.02-35.61,46.88-55.78,134.71-7.12,31.45-9.5,59.94-9.5,83.08-.59,22.55,1.19,36.2,4.75,43.92,5.93,14.24,18.4,20.77,33.83,20.77,13.06,0,23.14-1.78,32.05-5.34l16.02-110.98-2.97-.59-16.62,109.2c-5.93,1.78-15.43,4.15-28.49,4.15s-25.52-5.93-30.27-18.4c-2.97-7.71-5.34-20.77-5.34-42.73.59-22.55,3.56-51.04,10.09-81.9,3.56-17.8,7.12-32.64,10.68-45.7h87.24v-3.56h-29.08Zm-14.84-83.68c5.34-3.56,11.28-5.93,18.4-5.93,7.71,0,13.65,2.97,17.8,10.68,5.34,10.68,2.37,24.33-1.78,37.39-4.75,15.43-10.68,24.33-24.33,41.54h-52.82c16.02-52.82,21.96-70.03,42.73-83.68Zm-30.86,75.37l39.76-.59c7.71-10.09,13.06-21.96,16.62-32.05,3.56-11.28,4.75-23.74,1.78-32.05-1.78-5.34-6.53-7.71-12.46-7.71-7.71,0-15.43,5.34-21.36,13.06-7.71,10.09-16.02,29.08-24.33,59.35Z"/><path class="cls-2" d="m437.91,738.33c13.06-61.72,24.92-115.72,33.23-169.13,6.53-38.57,13.06-82.49,20.18-132.34,8.9,0,21.96,1.78,26.71,4.75-10.09,40.95-17.21,77.74-26.11,130.56-8.9,54-19.58,110.38-27.3,170.91-10.09,0-18.99-1.19-26.71-4.75Zm67.06-293.16l-2.97-.59-.59,1.19c-3.56,21.96-8.9,51.04-13.06,75.96-4.15,25.52-7.71,47.48-8.9,55.19-2.37,12.46-7.12,39.17-13.06,68.25-5.34,29.08-11.28,61.13-15.43,86.05v1.19l2.97.59.59-1.78c4.15-24.33,10.09-56.38,15.43-85.46,5.34-29.08,10.68-55.19,13.06-68.84,1.19-7.12,4.75-29.08,8.9-54.6,4.15-24.93,8.9-54,13.06-75.37v-1.78Zm.59-93.17c10.09-2.97,20.18-2.37,30.27,2.37,1.78,8.9,1.19,17.21-4.15,26.71-10.09,2.37-20.18,2.37-28.49-1.78-4.15-8.9-2.97-17.8,2.37-27.3Zm5.34,22.55l7.71-5.93,5.34,6.53,3.56-2.37-5.93-5.93,7.12-4.15-2.37-3.56-7.12,5.34-5.93-7.12-3.56,2.37,6.53,6.53-7.71,5.34,2.37,2.97Z"/><path class="cls-2" d="m497.84,738.33c15.43-61.72,26.71-113.94,30.86-142.43,8.31-56.38,20.18-117.5,24.92-159.04,10.09,0,20.77,1.78,27.3,4.75-9.5,32.64-18.4,75.37-25.52,112.16l2.37.59c17.8-49.26,31.45-77.15,45.1-97.33,9.5-13.65,22.55-20.18,37.39-20.18,11.87,0,20.18,5.34,23.14,13.06,4.75,11.28,5.34,24.92-1.78,47.48-5.93,18.99-17.8,51.04-27.3,94.36-14.84,69.43-20.18,102.07-24.33,150.74-11.28,0-21.36-1.78-28.49-4.75,10.68-50.44,22.55-102.67,32.05-144.21,10.68-45.7,20.77-80.71,24.92-96.14,4.75-18.4,5.34-27.89,3.56-32.64-1.78-4.15-5.34-5.34-8.9-5.34-6.53,0-11.28,4.15-17.8,13.06-5.34,7.12-17.21,30.27-67.65,143.02l-.59,1.78c-7.71,46.29-17.21,98.51-20.77,126.41-11.28-.59-22.55-2.37-28.49-5.34Zm16.62-4.15c4.75-23.14,10.09-45.7,14.84-68.25,2.97-16.02,7.71-38.57,8.9-47.48,13.06-30.86,24.33-55.19,38.57-84.86,13.65-30.27,27.3-57.56,32.64-65.87,4.75-6.53,8.9-11.28,13.65-14.24,4.75-2.97,9.5-4.15,14.84-4.15,9.5,0,14.24,5.93,15.43,14.84,2.37,15.43-6.53,39.17-16.62,71.81-17.8,56.97-32.64,139.46-41.54,195.25l3.56.59c8.9-56.38,26.11-143.62,40.95-194.65,10.09-34.42,20.18-58.75,16.62-74.77-1.78-8.9-7.12-16.62-18.4-16.62-5.93,0-11.28,1.78-16.62,4.75-5.34,3.56-10.09,8.31-14.24,14.84-6.53,8.9-19.58,36.2-33.23,66.47-10.68,22.55-23.74,52.22-35.01,78.34,1.78-7.12,2.37-9.5,2.97-12.46,5.34-25.52,8.9-53.41,13.06-78.93,4.75-26.11,8.9-52.22,11.87-70.03l-3.56-.59c-2.37,18.4-7.12,43.92-11.87,70.03-4.15,26.11-8.9,54-13.06,79.52-3.56,21.96-7.71,44.51-12.46,67.06-4.75,22.55-10.09,46.29-14.84,68.25l3.56,1.19Z"/><path d="m58.55,217.96c0-4.68-.34-10.03-.85-14.37-8.42-.08-12.92.08-19.21,1.1-.85-2.55-.85-5.1,0-7.91,5.95.68,7.4.85,14.11.85,4.68,0,9.18-.08,15.56-.51-1.19,6.29-1.87,14.37-1.87,20.91v10.54c0,10.46-.42,17-4,21.34-3.15,3.66-7.06,5.61-11.14,5.61-4.85,0-8.76-.43-11.39-1.53-1.36-3.31-2.3-6.46-2.12-9.78,4.42,2.38,6.97,3.23,11.14,3.23,3.49,0,5.53-1.1,7.57-3.66,2.38-3.23,2.21-10.88,2.21-20.23v-5.61Z"/><path d="m87.62,255.7c-6.72,0-10.63-4.51-10.63-9.95,0-4.93,2.21-9.18,5.53-11.22,5.19-3.4,12.92-4.76,19.55-4.76v-.51c0-5.53.25-8.33-1.53-9.86-1.44-1.36-3.06-2.04-6.46-2.04-5.36,0-10.12,2.98-14.71,6.04-.77-2.38.17-6.97,1.19-8.76,3.66-2.38,9.44-3.66,14.71-3.66,5.61,0,8.67.77,11.39,2.72,2.64,1.87,3.49,4.76,3.49,8.59,0,4.34-.43,7.82-.43,11.65v3.66c0,4.76.68,10.88,1.79,17.09-3.31.68-6.29.68-9.61,0,.68-2.89.94-5.36,1.02-8.25l-.77-.25c-1.79,3.66-3.74,5.87-5.95,7.23-2.3,1.36-5.1,2.29-8.59,2.29Zm3.57-6.89c2.72,0,5.1-1.02,6.8-2.55,1.7-1.62,3.57-4.93,4-9.95-4.59-.85-7.06-1.1-9.1-1.1-5.44,0-7.57,3.57-7.57,7.14,0,2.3.51,4.08,1.7,5.1,1.11.94,2.55,1.36,4.17,1.36Z"/><path d="m133.52,254.68c-3.57.68-7.23.68-11.22,0,1.19-5.95,1.87-13.6,1.87-21.17v-22.36c0-7.14-.68-14.96-1.79-20.91,3.15-1.45,7.06-2.55,10.88-2.3-1.19,7.57-1.53,14.54-1.53,22.19v16.66c1.45.08,2.81.08,4.25,0,5.36-5.19,8.08-9.52,11.73-14.62,5.53-.94,9.78-.94,13.35,0l-18.62,14.28-.08.77c2.72,4.42,2.98,4.51,5.19,7.74l3.57,5.53c3.74,5.53,6.21,8.93,10.46,14.2-4.08.51-8.08.51-12.33,0-1.02-5.1-2.81-7.65-5.78-11.73l-2.81-4c-1.62-2.21-3.15-4.17-5.44-6.63-1.19-.08-2.38-.08-3.49-.08v.94c0,7.91.68,15.56,1.79,21.51Z"/><path d="m195.66,249.58c-4.42,4.17-9.1,6.21-14.62,6.21-9.18,0-15.9-7.4-15.9-19.72,0-8.84,3.15-14.37,7.48-18.7,4.42-4.51,9.61-6.38,14.88-6.38,9.18,0,15.64,7.48,15.64,19.81,0,8.93-3.06,14.37-7.48,18.79Zm-11.39-.68c3.66,0,6.21-1.11,8.08-3.23,1.96-2.21,2.64-5.87,2.72-10.54,0-9.61-2.72-17.17-11.05-17.17-3.49,0-6.04.68-8.08,2.98-1.96,2.21-2.64,6.12-2.64,10.8-.08,9.69,2.64,17.17,10.97,17.17Z"/><path d="m228.89,255.53c-6.55,0-12.41-1.79-16.15-4,1.44-5.36,1.79-12.24,1.79-19.13v-24.14c0-4.25-.6-12.07-1.7-18.02,3.06-1.45,6.97-2.47,10.88-2.21-1.28,7.48-1.53,13.18-1.53,19.38l-.08,12.07.51.17c1.7-3.4,3.57-5.02,5.87-6.29,2.38-1.27,5.19-2.04,8.76-2.04,7.99,0,13.69,7.74,13.69,19.3,0,9.18-2.89,14.2-7.48,18.62-4,4-9.1,6.29-14.54,6.29Zm-6.8-20.74c0,4,.08,8.25.68,12.33,2.29.94,5.36,1.44,9.27,1.44,3.66,0,6.21-1.1,8.08-3.15,2.04-2.21,2.72-5.44,2.72-10.29,0-9.69-2.55-16.66-9.95-16.66-2.89,0-5.27,1.1-6.89,2.72-1.7,1.62-3.91,5.36-3.91,11.65v1.96Z"/><path d="m280.57,217.96c0-6.46-.6-14.37-1.87-20.4h35.7c0,3.74-.59,6.97-2.12,10.29-6.72-3.31-14.88-4.68-22.95-4.85-.77,4.85-1.11,10.29-1.11,14.96v6.89c4.42-.17,9.35-.85,18.53-2.81.85,3.49.85,6.55-.17,10.37-9.01-2.04-13.94-2.72-18.36-2.89v4.68c0,6.55.68,14.62,2.04,20.49-3.91.77-7.82.77-11.56,0,1.19-6.04,1.87-13.86,1.87-20.4v-16.32Z"/><path d="m328.42,255.7c-6.72,0-10.63-4.51-10.63-9.95,0-4.93,2.21-9.18,5.53-11.22,5.19-3.4,12.92-4.76,19.55-4.76v-.51c0-5.53.25-8.33-1.53-9.86-1.44-1.36-3.06-2.04-6.46-2.04-5.36,0-10.12,2.98-14.71,6.04-.77-2.38.17-6.97,1.19-8.76,3.66-2.38,9.44-3.66,14.71-3.66,5.61,0,8.67.77,11.39,2.72,2.64,1.87,3.49,4.76,3.49,8.59,0,4.34-.43,7.82-.43,11.65v3.66c0,4.76.68,10.88,1.79,17.09-3.31.68-6.29.68-9.61,0,.68-2.89.94-5.36,1.02-8.25l-.77-.25c-1.79,3.66-3.74,5.87-5.95,7.23-2.3,1.36-5.1,2.29-8.59,2.29Zm3.57-6.89c2.72,0,5.1-1.02,6.8-2.55,1.7-1.62,3.57-4.93,4-9.95-4.59-.85-7.06-1.1-9.1-1.1-5.44,0-7.57,3.57-7.57,7.14,0,2.3.51,4.08,1.7,5.1,1.11.94,2.55,1.36,4.17,1.36Z"/><path d="m372.37,236.49c0,5.95.6,12.16,1.79,18.19-4,.51-7.06.51-11.22,0,1.19-6.04,1.87-12.33,1.87-18.19v-6.55c0-5.87-.6-11.82-1.87-17.77,3.49-.68,6.46-.68,9.78,0-.68,2.89-1.02,5.19-1.11,8.16l.85.17c1.87-3.91,3.91-6.04,6.21-7.31,2.38-1.36,5.53-1.87,9.1-1.87,6.21,0,11.48,4,11.48,11.48,0,4.59-.51,8.08-.51,12.07v1.7c0,4.76.51,11.9,1.79,18.11-4,.51-7.14.51-11.22,0,1.1-5.95,1.79-12.24,1.79-18.19v-4.76c0-6.12-.34-9.35-1.96-11.22-1.11-1.27-2.98-2.21-5.95-2.21-2.81,0-5.27,1.1-6.97,2.72-1.7,1.7-3.83,5.53-3.83,11.82v3.66Z"/><path d="m407.64,263.86c-.09-4.34,2.46-7.99,7.31-9.18v-.77c-2.55-1.1-4.08-2.89-4.08-5.95,0-3.4,1.53-6.8,5.95-7.65l.17-.85c-4-2.12-6.46-6.12-6.46-11.56,0-6.04,2.55-9.52,6.29-12.41,3.83-3.15,8.5-4.42,12.92-4.42,1.96,0,3.74.34,5.44.94l4.42-9.78c2.98.43,5.78,3.15,6.21,5.78l-8.16,5.19c3.48,2.21,5.61,6.04,5.61,11.22,0,5.95-2.64,9.35-6.38,12.41-3.23,2.64-7.57,4.08-11.73,4.25-4.85.77-7.14,2.3-7.14,4,0,2.89,2.64,3.23,10.63,3.23h4.85c5.87,0,9.1.17,11.65,2.04,1.7,1.19,2.38,3.74,2.38,6.04,0,3.32-2.04,6.97-5.44,10.46-4.5,4.59-10.71,7.82-19.38,7.82-10.88,0-14.96-4.59-15.05-10.8Zm19.38,3.15c6.8,0,10.37-1.96,12.07-3.49,1.7-1.53,2.47-3.06,2.47-4.76,0-1.28-.68-2.04-1.36-2.47-1.19-.68-2.89-.94-12.07-.94-1.62,0-3.23,0-4.68-.08-2.98.59-4.93,1.44-5.87,1.96-1.61.94-2.55,2.47-2.55,4.17,0,4.34,4,5.61,11.99,5.61Zm0-31.37c2.72,0,4.68-.85,6.21-2.21,1.44-1.45,2.21-3.23,2.29-6.29,0-6.04-2.46-10.46-8.84-10.46-2.64,0-4.59.6-6.12,2.04-1.53,1.36-2.38,3.23-2.38,6.38,0,6.04,2.47,10.54,8.84,10.54Z"/><path d="m463.06,236.15c0,5.7.6,12.67,1.87,18.53-3.74.68-7.48.68-11.31,0,1.19-6.04,1.87-12.5,1.87-17.85v-7.4c0-5.27-.6-11.31-1.87-17.26,3.4-.68,6.63-.68,9.86,0-.77,2.89-.94,4.93-1.11,7.82l.85.25c1.79-3.83,4-5.87,6.21-7.14,2.3-1.27,5.1-1.79,7.99-1.79,5.36,0,9.18,2.47,9.52,8.67l.76.25c1.7-3.4,3.57-5.78,5.87-6.97,2.47-1.27,5.19-1.96,8.33-1.96,5.87,0,10.12,3.91,10.12,10.97,0,5.27-.42,8.33-.42,12.84v1.7c0,4.68.59,11.82,1.96,17.85-3.74.68-7.48.68-11.31,0,1.19-6.04,1.87-12.5,1.87-18.45v-7.65c0-3.83-.34-6.21-1.53-7.65-1.36-1.7-2.89-2.38-5.95-2.38-2.04,0-3.57.68-5.19,2.21-1.87,1.7-4.08,5.61-4.08,11.48v4c0,5.87.6,12.41,1.96,18.45-3.74.68-7.57.68-11.39,0,1.19-6.04,1.87-12.24,1.87-18.53v-7.65c0-3.91-.43-6.21-1.53-7.65-1.36-1.62-2.98-2.3-5.95-2.3-2.12,0-3.57.6-5.36,2.3-1.96,1.7-3.91,5.7-3.91,11.65v3.66Z"/><path d="m549,234.19l-18.19-1.02c.34,9.69,4.08,15.22,12.67,15.22,4.51,0,8.67-1.53,13.01-5.1.77,2.21.25,6.55-1.1,8.84-3.32,2.3-8.42,3.49-14.79,3.49-11.31,0-17.51-7.31-17.51-19.55,0-8.84,2.81-14.28,7.23-18.53,4.33-4.17,8.5-6.29,14.2-6.29,7.74,0,12.5,5.19,12.5,13.43,0,2.38-.25,5.1-.59,6.38-1.96,1.36-4.25,2.47-7.4,3.15Zm-18.19-5.1c6.97-.17,14.37-.51,18.45-1.19.08-1.02.17-2.04.17-3.57,0-4.34-4.25-6.29-8.08-6.29-3.15,0-6.12,1.19-7.82,3.15-1.62,1.79-2.46,4.51-2.72,7.91Z"/><path d="m567.69,212.18c3.91-.6,7.74-.51,11.22,0-1.19,6.04-1.87,11.99-1.87,18.11v6.21c0,5.78.68,12.24,1.87,18.19-3.57.68-7.23.68-11.22,0,1.19-5.95,1.87-12.33,1.87-18.19v-6.21c0-6.21-.59-12.16-1.87-18.11Zm.51-21.17c3.23-.51,6.63-.51,10.03,0,.6,3.31.6,6.8,0,10.37-3.15.51-6.55.51-10.03,0-.51-3.31-.51-6.89,0-10.37Z"/><path d="m614.62,234.19l-18.19-1.02c.34,9.69,4.08,15.22,12.67,15.22,4.51,0,8.67-1.53,13.01-5.1.77,2.21.25,6.55-1.1,8.84-3.32,2.3-8.42,3.49-14.79,3.49-11.31,0-17.51-7.31-17.51-19.55,0-8.84,2.81-14.28,7.23-18.53,4.34-4.17,8.5-6.29,14.2-6.29,7.74,0,12.5,5.19,12.5,13.43,0,2.38-.25,5.1-.59,6.38-1.96,1.36-4.25,2.47-7.4,3.15Zm-18.19-5.1c6.97-.17,14.37-.51,18.45-1.19.08-1.02.17-2.04.17-3.57,0-4.34-4.25-6.29-8.08-6.29-3.15,0-6.12,1.19-7.82,3.15-1.61,1.79-2.46,4.51-2.72,7.91Z"/><path d="m642.49,236.49c0,6.04.6,12.16,1.79,18.19-3.57.68-7.4.68-11.22,0,1.19-6.04,1.87-12.33,1.87-18.19v-6.63c0-5.78-.59-11.73-1.87-17.68,3.4-.68,6.55-.77,9.78,0-.77,3.32-1.02,5.27-1.1,8.08l.94.25c1.7-3.91,3.74-6.12,6.12-7.48,2.81-1.53,5.53-1.87,9.44-1.36-.34,3.74-1.02,6.38-2.04,9.18-1.87-.77-3.23-.94-4.51-.94-2.64,0-4.08.77-5.78,2.46-1.87,1.79-3.4,5.95-3.4,10.37v3.74Z"/><path d="m61.9,101.42l-25.49-.07c-.79-.86-1.3-2.09-1.44-3.53,11.31-9.22,14.83-13.32,16.42-15.19,2.66-3.1,4.1-5.33,4.1-8.86,0-1.73-.36-3.17-1.58-4.39-1.22-1.3-3.02-1.94-5.83-1.94-4.46,0-8.5,2.23-12.39,5.11-.36-1.8-.14-4.82.72-6.34,3.02-2.09,7.99-3.02,12.17-3.02,4.75,0,7.2.58,9.5,2.45,1.94,1.51,2.81,4.32,2.81,7.27,0,4.82-2.74,8.57-7.13,13.18-3.1,3.24-8.57,7.49-12.82,11.09,8.79.07,15.34-1.01,20.67-2.59.72,2.09.94,4.68.29,6.84Z"/><path d="m95.02,97.75c-2.16,2.66-5.33,4.32-10.8,4.32-9.07,0-12.6-6.77-12.6-17.07,0-7.42,1.37-12.82,4.9-17.35,2.09-2.66,5.33-4.68,10.66-4.68,8.42,0,12.6,7.34,12.6,17.35,0,7.27-1.22,12.96-4.75,17.43Zm-9.29-.86c3.67,0,6.41-1.37,7.78-3.38,1.58-2.38,2.88-4.68,2.88-11.31,0-8.28-4.54-13.68-10.66-13.68-3.6,0-6.41,1.44-7.71,3.38-1.51,2.45-2.95,4.61-2.95,11.45,0,8.35,4.46,13.54,10.66,13.54Z"/><path d="m135.63,101.42l-25.49-.07c-.79-.86-1.3-2.09-1.44-3.53,11.31-9.22,14.83-13.32,16.42-15.19,2.66-3.1,4.1-5.33,4.1-8.86,0-1.73-.36-3.17-1.58-4.39-1.22-1.3-3.02-1.94-5.83-1.94-4.46,0-8.5,2.23-12.39,5.11-.36-1.8-.14-4.82.72-6.34,3.02-2.09,7.99-3.02,12.17-3.02,4.75,0,7.2.58,9.5,2.45,1.94,1.51,2.81,4.32,2.81,7.27,0,4.82-2.74,8.57-7.13,13.18-3.1,3.24-8.57,7.49-12.82,11.09,8.79.07,15.34-1.01,20.67-2.59.72,2.09.94,4.68.29,6.84Z"/><path d="m152.4,68.08c-2.23.72-3.82,1.73-5.83,3.1-1.58-1.15-2.09-2.88-1.94-5.18,5.26-.86,9.07-1.8,13.9-3.1-.5,5.11-.79,10.8-.79,18.22v3.82c0,6.12.43,11.31,1.51,16.42-2.59.58-5.11.5-7.85.07.94-5.11,1.44-10.66,1.44-16.71v-3.74c0-6.62-.14-8.57-.43-12.89Z"/><path d="m230.6,90.47l-44.36,8.93c-.72-1.8-1.08-3.82-1.22-5.9l24.41-7.42v-.94l-22.32-13.47c.72-2.09,1.87-3.74,3.46-5.11l33.99,15.12c30.89-2.16,93.54-5.33,140.84-5.33,59.12,0,112.62,2.66,126.23,5.62.29,1.22.29,2.3-.14,3.38-14.47,6.91-41.4,11.95-83.1,11.95-59.91,0-123.92.58-177.78-6.84Zm234.96-4.32c0-2.3-1.8-4.18-4.1-4.18s-4.18,1.87-4.18,4.18,1.87,4.1,4.18,4.1,4.1-1.87,4.1-4.1Z"/><path d="m546.02,101.42l-25.49-.07c-.79-.86-1.3-2.09-1.44-3.53,11.31-9.22,14.83-13.32,16.42-15.19,2.66-3.1,4.1-5.33,4.1-8.86,0-1.73-.36-3.17-1.58-4.39-1.22-1.3-3.02-1.94-5.83-1.94-4.46,0-8.5,2.23-12.38,5.11-.36-1.8-.14-4.82.72-6.34,3.02-2.09,7.99-3.02,12.17-3.02,4.75,0,7.2.58,9.5,2.45,1.94,1.51,2.81,4.32,2.81,7.27,0,4.82-2.74,8.57-7.13,13.18-3.1,3.24-8.57,7.49-12.82,11.09,8.78.07,15.34-1.01,20.67-2.59.72,2.09.94,4.68.29,6.84Z"/><path d="m579.14,97.75c-2.16,2.66-5.33,4.32-10.8,4.32-9.07,0-12.6-6.77-12.6-17.07,0-7.42,1.37-12.82,4.9-17.35,2.09-2.66,5.33-4.68,10.66-4.68,8.42,0,12.6,7.34,12.6,17.35,0,7.27-1.22,12.96-4.75,17.43Zm-9.29-.86c3.67,0,6.41-1.37,7.78-3.38,1.58-2.38,2.88-4.68,2.88-11.31,0-8.28-4.54-13.68-10.66-13.68-3.6,0-6.41,1.44-7.7,3.38-1.51,2.45-2.95,4.61-2.95,11.45,0,8.35,4.46,13.54,10.66,13.54Z"/><path d="m619.75,101.42l-25.49-.07c-.79-.86-1.3-2.09-1.44-3.53,11.31-9.22,14.83-13.32,16.42-15.19,2.66-3.1,4.1-5.33,4.1-8.86,0-1.73-.36-3.17-1.58-4.39-1.22-1.3-3.02-1.94-5.83-1.94-4.46,0-8.5,2.23-12.39,5.11-.36-1.8-.14-4.82.72-6.34,3.02-2.09,7.99-3.02,12.17-3.02,4.75,0,7.2.58,9.5,2.45,1.94,1.51,2.81,4.32,2.81,7.27,0,4.82-2.74,8.57-7.13,13.18-3.1,3.24-8.57,7.49-12.82,11.09,8.78.07,15.34-1.01,20.67-2.59.72,2.09.94,4.68.29,6.84Z"/><path d="m655.75,101.42l-25.49-.07c-.79-.86-1.3-2.09-1.44-3.53,11.31-9.22,14.83-13.32,16.42-15.19,2.66-3.1,4.1-5.33,4.1-8.86,0-1.73-.36-3.17-1.58-4.39-1.22-1.3-3.02-1.94-5.83-1.94-4.46,0-8.5,2.23-12.39,5.11-.36-1.8-.14-4.82.72-6.34,3.02-2.09,7.99-3.02,12.17-3.02,4.75,0,7.2.58,9.5,2.45,1.94,1.51,2.81,4.32,2.81,7.27,0,4.82-2.74,8.57-7.13,13.18-3.1,3.24-8.57,7.49-12.82,11.09,8.78.07,15.34-1.01,20.67-2.59.72,2.09.94,4.68.29,6.84Z"/><path d="m37.71,1128.35c.37-3.25,1.95-6.6,4.09-8.74,3.81,2.98,7.63,5.12,12.83,5.12,1.58,0,3.25-.65,4.37-1.4.93-.65,1.58-1.95,1.77-3.63.28-1.86-1.21-5.95-7.16-9.21-7.16-3.91-9.49-8.28-8.83-13.86.56-4.65,3.16-8.37,6.51-10.6,3.07-2.14,6.14-3.44,10.88-3.44,4.09,0,6.7.93,10.04,2.51-.46,3.91-1.86,6.42-4.19,8.56-4.37-3.07-6.88-4.09-9.58-4.09-2.23,0-3.44.19-4.74,1.21-1.12.84-1.86,2.42-1.95,4-.19,2.79.09,5.12,6.05,8.18,4.65,2.51,7.07,4.37,8.93,7.25,1.21,2.05,2.14,5.3,1.49,8.18-.56,3.81-3.25,7.25-6.6,9.86-3.16,2.32-7.25,3.53-12.09,3.53-5.3,0-8.74-.84-11.81-3.44Z"/><path d="m88.95,1131.89c-4.74,0-7.25-1.12-9.02-4.74-1.67-3.44-1.67-8.09-.46-13.95.93-4.56,2.6-11.35,3.25-14.79.47-2.7.74-5.67.84-8.46l-4.37.28c-.28-1.95.28-4.93,1.4-6.23h4.84c2.14-2.42,3.72-6.05,5.12-10.6,1.58-.37,4.56,0,5.58,1.02-.74,2.88-1.67,6.05-2.6,9.58h9.86c.37,2.79,0,4.65-1.67,6.88l-9.58-1.3c-1.21,4.84-2.42,10.32-3.35,16.46-1.49,8.56-1.86,13.3-.74,15.81.74,1.58,1.95,2.88,3.81,2.88,2.23,0,4.09-.28,7.53-1.77-.37,2.79-1.21,5.3-2.79,7.53-2.14,1.02-4.65,1.4-7.63,1.4Z"/><path d="m130.15,1127.33c-4.28,3.53-8.18,4.56-13.02,4.56s-8.74-2.6-10.42-6.32c-2.05-4.19-2.42-9.11-1.3-16.46,1.49-9.11,7.25-17.67,12.46-21.95,4.28-3.53,8.18-4.56,13.02-4.56s8.74,2.6,10.42,6.32c2.05,4.19,2.33,9.21,1.3,16.28-1.49,9.39-7.25,17.86-12.46,22.13Zm-16-6.88c.93,2.79,3.25,4.46,5.86,4.46,2.98,0,5.21-1.12,7.25-2.88,2.42-2.05,4.37-7.25,5.58-13.11,1.21-5.77,2.14-11.25,1.02-14.88-.93-2.79-3.25-4.46-5.86-4.46-2.98,0-5.12,1.12-7.25,2.88-2.32,2.05-4.37,7.35-5.58,13.21-1.12,5.77-2.14,11.16-1.02,14.79Z"/><path d="m157.31,1130.49c-2.23.93-8.18.84-10.51,0,2.23-7.25,3.81-16.65,5.21-24.83,1.02-6.14,1.4-14.23,1.58-21.67,1.95-.65,7.53-.47,10.23,0-1.21,4.56-2.42,9.49-3.25,13.86l.65.28c5.39-11.44,10.23-15.53,17.67-15.53,6.79,0,9.58,5.58,8.56,12.28-.93,5.95-3.16,11.81-3.81,16.37-.93,6.04-1.86,13.11-2.14,19.25-2.51.93-7.72.93-10.69,0,2.42-8.09,3.81-13.67,5.21-21.11,1.58-8.46,3.16-14.42,2.6-17.02-.37-1.77-1.77-2.42-3.35-2.42-3.63,0-7.35,3.63-10.97,9.86-3.26,5.49-4.93,10.6-5.95,15.25-1.12,5.49-.93,9.11-1.02,15.44Z"/><path d="m195.44,1126.49c-2.42-3.91-3.35-10.32-1.58-18.51,1.86-8.56,5.95-16.18,12.28-20.93,4.37-3.16,7.07-4.28,12-4.37,4.46-.09,7.16,1.67,8.65,3.53,1.95,2.33,2.51,6.23,1.77,9.86-1.4,7.07-8.46,12.37-18.04,12.37-3.35,0-5.77-.09-8-.56-1.3,6.14-1.49,10.32-.37,13.02,1.12,2.7,3.07,3.53,5.86,3.53,3.91,0,8.18-1.58,13.3-5.86.93,1.95,1.49,4.65,1.02,6.7-4.19,4.46-9.86,6.6-15.72,6.6-5.3,0-8.74-1.49-11.16-5.39Zm8.28-23.53c1.77.28,3.35.28,5.95.28,3.63,0,5.49-.65,7.16-1.77,1.86-1.3,2.79-2.7,3.25-5.12.46-2.33-.09-4.28-1.21-5.49-1.02-1.02-1.77-1.4-3.35-1.4-2.05,0-4.74.65-6.88,2.79-1.67,1.77-3.35,5.02-4.93,10.7Z"/><path d="m250.95,1126.86c-1.86-3.72-2.51-10.88-.65-19.16,1.95-8.83,7.35-17.02,12.74-20.93,4.74-3.44,8.28-4.09,12.46-4.09,3.91,0,6.88.56,9.3,1.67-.28,2.79-1.95,5.77-4.19,8.18-2.79-1.86-4.93-2.98-7.63-2.98s-4.74.56-7.07,2.79c-2.05,2.05-4.09,6.7-5.95,15.16-1.3,6.32-1.86,12.65-.93,14.79.93,2.05,1.95,2.6,3.81,2.6,3.81,0,9.3-2.23,12.28-6.42.46,2.51.56,5.11.19,7.9-3.07,3.35-8,5.49-12.83,5.49s-9.49-.74-11.53-5.02Z"/><path d="m312.33,1116.73l-.93-.28c-5.3,11.07-10.7,15.44-18.04,15.44-2.6,0-5.02-.65-6.79-3.44-2.23-3.53-2.7-10.04,0-20.46,2.7-10.6,7.25-15.9,12.83-20.65,4.09-3.53,9.11-4.74,14.32-4.74,4.84,0,9.3.65,12.56,1.49-2.79,8.93-4,16.55-5.39,24.83-.93,5.95-1.86,14.97-1.58,21.58-2.88.74-8.37.74-10.88,0,1.12-2.98,3.07-9.49,3.91-13.76Zm3.26-26.78c-1.3-.47-2.79-.65-4.74-.65-3.53,0-6.23.93-8.74,3.07-2.6,2.23-5.3,6.79-7.25,16.28-.93,4.74-1.58,11.62-.74,13.67.65,1.49,1.49,2.14,3.26,2.14,3.72,0,7.44-3.35,11.16-9.67,3.35-5.58,5.02-10.79,6.14-16.37.65-2.79.84-5.77.93-8.46Z"/><path d="m340.05,1130.49c-3.63.84-8,.84-10.51,0,2.23-7.25,4.56-19.07,5.21-24.65.84-6.42,1.4-14.42,1.58-21.86,2.7-.74,7.53-.65,10.23,0-1.3,4.93-2.6,9.86-3.35,13.86l.84.28c1.67-3.63,5.11-8.93,7.53-11.25,2.88-2.79,6.88-4.28,10.51-4.28,0,3.81-2.33,9.02-4.19,11.81-5.02-.37-8.93,2.98-11.25,6.88-3.16,5.39-4.37,8-5.58,13.76-1.12,5.58-1.02,9.11-1.02,15.44Z"/><path d="m367.85,1119.61c2.32-13.39,2.05-26.51.56-35.62,2.88-.74,7.91-.65,9.86-.19.28,4.37.46,9.02,0,16-.56,8.93-3.16,17.39-2.14,22.51.37,1.77,1.21,2.42,2.51,2.42,1.95,0,5.02-1.49,7.63-4.28,2.23-2.32,4.28-6.42,5.3-10.79,1.67-6.98,3.16-17.11,2.05-25.67,3.53-.65,7.35-.74,10.04,0,.37,7.25-2.6,16.46-5.58,24.74-2.51,7.07-5.49,12.56-9.21,16-6.51,6.23-10.23,7.16-15.53,7.16-4.93,0-6.6-5.67-5.49-12.28Z"/><path d="m408.86,1126.49c-2.42-3.91-3.35-10.32-1.58-18.51,1.86-8.56,5.95-16.18,12.28-20.93,4.37-3.16,7.07-4.28,12-4.37,4.46-.09,7.16,1.67,8.65,3.53,1.95,2.33,2.51,6.23,1.77,9.86-1.4,7.07-8.46,12.37-18.04,12.37-3.35,0-5.77-.09-8-.56-1.3,6.14-1.49,10.32-.37,13.02,1.12,2.7,3.07,3.53,5.86,3.53,3.91,0,8.18-1.58,13.3-5.86.93,1.95,1.49,4.65,1.02,6.7-4.19,4.46-9.86,6.6-15.72,6.6-5.3,0-8.74-1.49-11.16-5.39Zm8.28-23.53c1.77.28,3.35.28,5.95.28,3.63,0,5.49-.65,7.16-1.77,1.86-1.3,2.79-2.7,3.26-5.12.46-2.33-.09-4.28-1.21-5.49-1.02-1.02-1.77-1.4-3.35-1.4-2.05,0-4.74.65-6.88,2.79-1.67,1.77-3.35,5.02-4.93,10.7Z"/><path d="m473.13,1116.45l-.65-.28c-5.67,11.35-10.97,15.81-18.23,15.81-2.7,0-5.12-.47-6.98-3.35-2.14-3.53-2.88-10.32-.09-20.83,2.7-10.32,7.44-16,12.93-20.65,3.91-3.35,9.11-4.56,14.69-4.56,1.21,0,2.33,0,3.26.09,1.12-8.28,2.05-15.62,2.05-23.16,3.53-1.21,7.72-1.02,10.97-.19-1.67,6.79-4.46,20.46-6.98,34.69l-2.6,14.88c-1.02,6.05-1.77,14.69-1.67,21.67-3.25.93-8.18.84-10.6-.09,1.02-2.88,3.07-9.77,3.91-14.04Zm3.72-26.51c-1.77-.47-3.63-.65-5.77-.65-3.16,0-6.04.84-8.37,2.98-2.51,2.23-5.12,6.88-7.07,16.37-1.02,4.84-1.67,11.81-.84,13.58.84,1.77,1.86,2.33,3.63,2.33,3.53,0,7.16-3.53,10.97-9.95,3.07-5.39,4.84-10.7,6.04-16,.56-2.6,1.02-5.77,1.4-8.65Z"/><path d="m520,1131.89c-4.74,0-7.25-1.12-9.02-4.74-1.67-3.44-1.67-8.09-.47-13.95.93-4.56,2.6-11.35,3.26-14.79.46-2.7.74-5.67.84-8.46l-4.37.28c-.28-1.95.28-4.93,1.4-6.23h4.84c2.14-2.42,3.72-6.05,5.12-10.6,1.58-.37,4.56,0,5.58,1.02-.74,2.88-1.67,6.05-2.6,9.58h9.86c.37,2.79,0,4.65-1.67,6.88l-9.58-1.3c-1.21,4.84-2.42,10.32-3.35,16.46-1.49,8.56-1.86,13.3-.74,15.81.74,1.58,1.95,2.88,3.81,2.88,2.23,0,4.09-.28,7.53-1.77-.37,2.79-1.21,5.3-2.79,7.53-2.14,1.02-4.65,1.4-7.63,1.4Z"/><path d="m528.74,1139.79c6.6,1.67,11.62,1.77,17.02-1.86,5.95-3.91,9.86-7.81,15.44-21.11l-.46-.46c-5.77,10.14-10.97,12.56-15.25,12.56-7.25,0-9.02-5.58-8.09-11.81.84-5.86,2.79-10.69,3.91-16.46,1.12-6.23,1.4-11.81,1.02-16.65,3.44-.93,7.35-.84,10.42,0-1.86,8.09-2.79,12.09-4.74,21.02-1.77,8.18-2.7,12.56-2.14,14.51.46,1.67,1.4,2.42,3.25,2.42,2.51,0,5.58-2.23,9.95-8.46,2.23-3.25,4.56-9.49,5.58-14.14,1.12-5.58,1.12-9.49.93-15.35,2.33-.84,7.63-1.12,10.23,0-1.58,11.16-5.95,28.37-13.11,41.76-3.63,6.7-8.18,14.14-15.62,18.88-4.93,3.16-11.16,6.14-20.09,5.39-.47-3.63.19-7.35,1.77-10.23Z"/><path d="m573.56,1151.42c1.58-7.44,4.09-16.65,6.51-30.88l2.6-14.88c1.12-6.05,1.77-14.69,1.67-21.67,3.25-.93,8.28-.84,10.7.09-1.12,2.88-3.16,9.77-3.91,14.04l.56.28c5.67-11.35,10.97-15.81,18.23-15.81,2.7,0,5.21.46,6.98,3.35,2.14,3.53,2.7,10.32-.09,20.83-2.7,10.32-7.35,15.72-12.83,20.46-4.28,3.63-8.93,4.74-14.6,4.74-1.21,0-2.23,0-3.25-.09-1.02,7.72-1.58,11.81-1.58,19.34-3.53,1.21-7.72,1.02-10.97.19Zm13.76-26.69c1.58.37,3.16.56,5.12.56,3.91,0,6.6-1.02,8.93-3.16,2.51-2.23,5.3-6.7,7.25-16.18.93-4.84,1.58-11.81.74-13.58-.74-1.77-1.86-2.33-3.63-2.33-3.53,0-7.16,3.53-10.88,9.95-3.16,5.39-4.93,10.7-6.05,16-.56,2.7-1.12,5.77-1.49,8.74Z"/><path d="m625.36,1126.49c-2.42-3.91-3.35-10.32-1.58-18.51,1.86-8.56,5.95-16.18,12.28-20.93,4.37-3.16,7.07-4.28,12-4.37,4.46-.09,7.16,1.67,8.65,3.53,1.95,2.33,2.51,6.23,1.77,9.86-1.4,7.07-8.46,12.37-18.04,12.37-3.35,0-5.77-.09-8-.56-1.3,6.14-1.49,10.32-.37,13.02,1.12,2.7,3.07,3.53,5.86,3.53,3.91,0,8.18-1.58,13.3-5.86.93,1.95,1.49,4.65,1.02,6.7-4.19,4.46-9.86,6.6-15.72,6.6-5.3,0-8.74-1.49-11.16-5.39Zm8.28-23.53c1.77.28,3.35.28,5.95.28,3.63,0,5.49-.65,7.16-1.77,1.86-1.3,2.79-2.7,3.26-5.12.46-2.33-.09-4.28-1.21-5.49-1.02-1.02-1.77-1.4-3.35-1.4-2.05,0-4.74.65-6.88,2.79-1.67,1.77-3.35,5.02-4.93,10.7Z"/><path d="m69.64,985.41c-4.6,2.07-9.43,2.53-13.8,0,2.53-19.09,2.76-26.22,2.76-67.62,0-11.04-.92-51.06-1.15-72.91-5.29.23-12.19.69-16.1,1.61l4.83,46.46c-3.22,1.38-6.21,1.38-9.43.46l-2.53-56.58c22.31,1.38,33.58,1.38,56.58,0l-2.76,56.58c-3.22.92-6.21.92-9.43-.46l5.06-46.46c-4.14-.92-11.04-1.38-16.1-1.61-.69,23.23-1.15,62.56-1.15,71.76,0,27.6.46,49.45,3.22,68.77Z"/><path d="m136.8,928.6c0,29.44,1.15,38.87,3.91,56.81-4.6,1.61-10.81,1.61-14.95,0,1.84-17.02,2.53-26.45,2.53-55.66v-4.83c-4.14-16.33-7.82-30.13-11.5-44.16-3.91-15.41-8.74-30.59-12.88-41.4,3.45-1.38,7.36-2.53,11.5-2.3,3.45,17.25,10.58,46.46,18.17,72.68h.92c8.74-37.72,11.04-53.36,11.73-72.22,3.68-1.15,8.74-.23,11.5,1.61-6.21,20.47-10.58,35.19-20.93,83.95v5.52Z"/><path d="m174.06,985.41c1.84-18.17,1.84-30.82,1.84-69v-1.84c0-28.98,0-51.75-2.07-77.05h16.33c12.65,0,21.39,3.68,26.45,11.04,3.91,5.52,5.75,14.95,5.75,24.15,0,19.09-2.53,30.82-9.2,40.71-5.29,7.82-12.88,12.19-20.47,12.19-3.22,0-5.75-.23-8.51-.46.23,30.59.92,42.32,3.22,60.26-4.37,1.15-8.97,1.15-13.34,0Zm11.27-140.3c-.23,22.54-1.15,60.03-1.15,69.69,4.14,1.84,7.82,2.3,11.27,2.3,4.37,0,9.89-3.45,12.65-8.74,2.99-5.52,3.45-14.95,3.45-28.98,0-12.65-.69-21.16-5.06-27.37-3.68-5.29-10.35-7.36-15.18-7.36-2.07,0-4.14.23-5.98.46Z"/><path d="m254.32,916.64c0,24.61.46,46,2.07,61.64,5.75-.23,14.03-.46,26.68-2.3l-4.14-37.49c3.22-1.38,6.21-1.38,9.43-.46l2.07,48.07c-14.49-.69-34.27-.92-46.23-.69,1.84-18.17,1.84-26.22,1.84-69v-1.84c0-28.98,0-51.75-2.07-76.82v-.23l.46.23c11.04.23,29.21,0,43.47-1.15l-2.3,44.39c-3.22.92-6.21.92-9.43-.46l4.37-33.58c-11.04-1.61-19.09-2.07-25.07-2.07-.23,17.48-.69,44.39-.92,60.03,9.2-.23,14.03-.92,21.85-3.22,1.15,3.68,1.15,8.74,0,12.19-7.13-2.07-9.66-2.53-22.08-2.07v4.83Z"/><path d="m360.12,985.41c-2.99.92-8.74,1.38-12.42,0,2.07-19.09,2.3-35.42,2.3-77.97,0-10.35-.23-48.3-.92-69.46,4.6-1.61,10.35-1.84,14.72,0,8.05,48.3,10.81,67.16,16.33,98.44h.92c5.52-26.68,8.74-47.61,16.56-98.44,4.6-1.38,8.74-1.38,11.73,0-.46,23.23-1.38,58.65-1.38,68.54v2.3c0,41.86,1.15,57.27,3.68,76.59-4.14,1.38-8.97,1.84-13.8,0,2.76-19.09,1.84-50.83,1.84-77.05v-1.15c0-7.82.23-28.52.92-47.84h-1.15c-6.9,43.24-12.88,77.28-17.02,107.64-1.61.69-3.91.69-5.98,0-7.36-45.31-13.34-78.43-19.55-107.41h-1.15c.69,27.14.92,37.03,1.38,47.84,0,.23.46,58.42,2.99,77.97Z"/><path d="m443.61,916.64c0,24.61.46,46,2.07,61.64,5.75-.23,14.03-.46,26.68-2.3l-4.14-37.49c3.22-1.38,6.21-1.38,9.43-.46l2.07,48.07c-14.49-.69-34.27-.92-46.23-.69,1.84-18.17,1.84-26.22,1.84-69v-1.84c0-28.98,0-51.75-2.07-76.82v-.23l.46.23c11.04.23,29.21,0,43.47-1.15l-2.3,44.39c-3.22.92-6.21.92-9.43-.46l4.37-33.58c-11.04-1.61-19.09-2.07-25.07-2.07-.23,17.48-.69,44.39-.92,60.03,9.2-.23,14.03-.92,21.85-3.22,1.15,3.68,1.15,8.74,0,12.19-7.13-2.07-9.66-2.53-22.08-2.07v4.83Z"/><path d="m521.12,985.41h-20.01c1.84-18.17,1.84-26.22,1.84-69v-1.84c0-28.98,0-51.75-2.07-77.05h14.26c18.4,0,25.3,5.52,28.75,13.57,4.83,11.5,7.59,28.06,7.59,55.2,0,34.73-5.06,56.35-13.11,69-5.75,8.74-9.89,10.12-17.25,10.12Zm-9.2-69c0,23.46,0,44.16,1.15,59.57,3.68,1.15,6.67,1.61,10.12,1.61,4.37,0,7.82-2.07,10.12-6.44,4.6-8.74,8.28-26.22,8.28-58.65,0-34.5-2.99-48.53-6.9-57.27-3.22-7.13-11.5-10.58-20.24-10.58h-2.07c-.23,23.23-.46,62.56-.46,70.84v.92Z"/><path d="m586.9,907.44c0,32.66.23,59.57,3.22,77.97-4.14,1.15-8.97,1.38-13.34,0,2.07-17.71,2.07-42.78,2.07-76.82v-1.15c0-10.35-.69-48.3-1.61-69.69,3.91-1.38,7.36-1.38,11.5,0-1.38,23-1.84,60.26-1.84,68.77v.92Z"/><path d="m609.2,836.83c16.33,1.84,35.65,1.61,52.21,0,1.15,3.45,1.15,7.82,0,10.58-5.29-.69-10.58-.92-15.87-1.38,1.38,20.01,2.99,45.31,5.98,68.54,2.53,19.09,5.06,49.68,10.35,70.15-4.6,1.84-8.51,2.53-13.57,2.53-.23-12.88-1.38-31.28-2.99-51.75-8.74-.23-15.18-.46-22.08,0-2.07,21.62-3.68,40.48-4.14,51.06-2.99.23-9.2,0-11.73-1.15,6.9-36.34,15.18-105.34,17.94-139.61-5.98.23-11.27.92-16.1,1.61-1.15-2.99-1.15-7.36,0-10.58Zm35.42,92c-2.3-27.6-5.06-58.19-7.59-83.03h-5.29c-2.3,24.38-5.29,55.2-7.82,82.57,7.36.46,13.57.69,20.7.46Z"/><line class="cls-3" x1="20.78" y1="307.71" x2="679.22" y2="307.71"/><line class="cls-3" x1="20.78" y1="156.06" x2="679.22" y2="156.06"/><line class="cls-3" x1="20.78" y1="795.05" x2="679.22" y2="795.05"/><line class="cls-3" x1="20.78" y1="1023.19" x2="679.22" y2="1023.19"/></g></g></svg>