<?xml version="1.0" encoding="UTF-8"?><svg id="Layer_1" xmlns="http://www.w3.org/2000/svg" viewBox="0 0 660 993.55"><defs><style>.cls-1{fill:#e86c85;}.cls-2{fill:#253e21;}</style></defs><path class="cls-1" d="m131.05,65.37c-3.15,9-5.63,15.54-9.46,29,7.88.37,12.39.45,18.77.07-.98-3.35-2.18-7.43-3.61-12.34l-4.81-16.73h-.9Zm10.29,32.42c-8.33-.45-12.39-.37-20.72.07-1.2,4.09-2.48,8.85-3.91,14.43-2.85.45-3.38.37-5.93-.07,10.29-26.99,13.52-36.73,16.89-46.77-4.43.07-9.31.44-13.97,1.41-.6-1.49-.52-3.12-.3-4.61h36.12c.3,1.41.53,3.12-.3,4.61-3.98-.6-8.33-1.11-12.47-1.34,1.35,5.95,3.3,12.2,4.88,17.4l1.5,4.54c3.38,10.56,4.06,13.75,9.16,24.83-1.05.15-4.88.3-6.61,0-.9-3.49-2.1-7.21-4.35-14.5"/><path class="cls-1" d="m164.47,84.18c2.33.3,4.73.37,6.83.3,4.51-.08,7.36-2.23,9.61-4.76,1.28-1.41,1.58-3.12,1.58-6.62,0-2.16-1.2-4.61-3-6.17-1.2-.97-5.26-2.08-8.03-2.08-2.25,0-4.51.15-6.23.6-.6,4.01-.75,8.18-.75,14.72v4.02Zm.3,23.27c3.68.82,7.36,1.19,10.21,1.19,3.53,0,7.36-.97,9.24-3.05,1.95-2.08,2.63-5.28,2.63-8.25s-1.28-5.5-3-6.77c-2.78-1.93-9.39-2.9-12.69-2.9-2.48,0-4.43.15-6.68.37v6.32c0,4.09-.07,8.85.3,13.09m-5.63-45.21h11.79c4.51,0,10.06.23,12.46,2.23,2.33,1.86,3.45,4.76,3.45,7.73,0,5.06-.9,7.06-2.85,9.15-1.95,2.01-4.96,3.05-6.98,3.49v.45c2.85-.37,7.21.52,9.76,2.01,2.78,1.63,4.65,4.01,4.65,8.4,0,4.76-1.58,7.81-4.73,11.08-3.3,3.49-7.21,5.43-18.17,5.43h-9.39c1.13-5.28,1.2-12.2,1.2-17.85v-14.28c0-6.17-.15-12.57-1.2-17.85"/><path class="cls-1" d="m230.55,68.72c-4.5-2.53-7.73-3.05-11.94-3.05s-7.06,1.79-9.76,4.98c-2.7,3.27-3.9,8.77-3.9,17.18,0,6.77,1.65,13.68,4.2,16.88,2.85,3.57,7.28,4.09,11.49,4.09,4.58,0,7.96-1.56,12.09-4.31.15,1.64.08,3.87-.37,5.65-3.83,1.79-8.11,2.68-13.59,2.68-4.65,0-10.14-1.04-13.37-4.61-3.38-3.79-5.41-9.89-5.33-16.21,0-12.27,2.7-18.59,7.06-23.65,4.28-4.83,9.08-6.91,15.77-6.91,3.15,0,7.36.97,9.69,2.45-.15,2.08-.6,3.27-2.03,4.83"/><path class="cls-1" d="m248.66,107.83c3.08.67,5.41.82,7.96.82,3.3,0,7.81-1.41,10.06-3.35,2.85-2.3,7.96-6.99,7.96-18.59,0-5.58-1.73-13.53-5.71-17.03-3.6-3.2-7.81-4.46-13.59-4.46-2.7,0-4.73.3-6.61.67-.6,4.54-.75,9.82-.75,14.28v14.2c0,4.17.15,9.07.68,13.46m-5.93-45.58h10.74c9.99,0,15.84,1.41,19.52,4.68,3.76,3.42,6.31,9,6.31,16.21,0,11.53-3.45,18.66-10.51,24.09-3.38,2.53-8.19,4.98-16,4.98h-10.06c1.13-5.28,1.2-12.2,1.2-17.85v-14.28c0-5.72-.15-12.57-1.2-17.85"/><path class="cls-1" d="m290.19,62.24h28.91c0,2.82-.37,4.39-1.43,6.47-5.41-2.9-13.82-3.72-21.25-3.87-.75,4.76-.9,10.48-.9,15.32v5.5c4.36-.15,10.96-.59,18.92-1.41.53,1.79.45,3.57-.15,5.5-7.81-.89-14.42-1.34-18.77-1.49v6.1c0,4.76.15,10.48.9,15.24,7.43-.15,15.77-.89,21.18-3.87,1.13,2.08,1.5,3.64,1.58,6.47h-28.98c1.05-5.21,1.28-12.2,1.28-17.85v-14.28c0-5.72-.23-12.57-1.28-17.85"/><path class="cls-1" d="m330.82,80.09c0-5.72-.23-12.57-1.28-17.85h27.78c0,2.83-.37,4.39-1.43,6.47-5.33-2.9-12.99-3.65-20.2-3.87-.75,4.76-.9,10.48-.9,15.32v6.62c4.21-.15,10.29-.59,18.25-1.41.52,1.79.45,3.57-.15,5.5-7.81-.89-13.89-1.34-18.1-1.49v4.98c0,5.65.23,12.71,1.43,17.85-2.18.52-4.35.52-6.68,0,1.05-5.21,1.28-12.2,1.28-17.85v-14.28Z"/><path class="cls-1" d="m397.58,69.16c-4.66-3.05-8.71-3.94-12.77-3.94-5.33,0-9.16,1.71-11.71,4.76-2.7,3.2-3.83,7.14-3.83,18.07,0,9.52,1.43,13.53,3.75,16.28,2.25,2.6,5.48,4.17,9.24,4.17,4.05,0,8.26-.74,10.36-2.98,2.86-3.05,3.08-6.99,3.08-15.54v-1.34c-2.78.07-7.06.82-10.14,1.41-.68-1.41-.23-3.87.52-5.21,5.48.3,10.66.3,13.97.3-.23,2.31-.08,5.58-.08,8.55v2.3c0,4.91.15,10.86,1.35,16.21-3.23.59-3.08.74-5.93.22.38-2.38.6-4.31.98-7.96l-.38-.07c-2.63,6.32-9.01,8.4-15.24,8.4-3.98,0-8.03-1.78-10.44-4.46-3.08-3.42-5.86-7.44-5.86-16.58,0-11.97,1.8-18.51,6.98-23.94,4.43-4.61,8.86-6.62,16-6.62,5.03,0,8.41.67,12.92,2.23-.83,2.75-1.88,4.31-2.78,5.72"/><path class="cls-1" d="m412.45,62.24c2.33-.52,4.88-.44,6.69,0-1.2,5.13-1.43,12.2-1.43,17.92v4.76c8.56.6,16.89.6,25.15.07v-4.91c0-5.72-.15-12.57-1.2-17.85,2.33-.52,4.88-.44,6.68,0-1.2,5.13-1.43,12.2-1.43,17.92v14.2c0,5.65.23,12.72,1.43,17.85-2.18.37-4.51.44-6.68,0,1.13-5.28,1.2-12.2,1.2-17.85v-5.5c-8.56-.67-16.74-.67-25.15.07v5.43c0,5.65.22,12.72,1.43,17.85-2.18.37-4.51.44-6.69,0,1.13-5.28,1.2-12.2,1.2-17.85v-14.28c0-5.72-.15-12.57-1.2-17.85"/><path class="cls-1" d="m460.74,62.24c2.33-.52,4.58-.52,6.68,0-1.2,5.13-1.43,12.2-1.43,17.92v14.2c0,5.65.23,12.72,1.43,17.85-2.1.37-4.43.44-6.68,0,1.13-5.28,1.2-12.2,1.2-17.85v-14.28c0-5.72-.15-12.57-1.2-17.85"/><path class="cls-1" d="m498.74,80.09c0-4.98-.23-10.78-.83-14.94-6.61-.08-12.77.3-18.02,1.93-.6-1.71-.68-3.49-.22-5.35,1.65.3,6.46.52,11.79.52,4.13,0,6.98,0,12.62-.37-1.05,5.5-1.28,12.57-1.28,18.29v9.22c0,11.45-.3,14.95-3.45,18.74-2.78,3.2-5.71,4.68-8.56,4.68-4.43,0-7.58-.22-10.21-.97-.75-1.49-.98-3.49-.9-5.2,3.75,1.78,7.06,2.16,9.99,2.16s5.11-1.19,6.61-3.12c2.48-3.12,2.48-12.49,2.48-20.22v-5.35Z"/><path class="cls-1" d="m515.57,62.24c2.33-.52,4.8-.52,6.68,0-1.13,5.35-1.35,12.2-1.35,17.92v5.43c9.09-8.4,12.01-11.6,21.03-23.5,2.33-.22,3.83-.44,6.76.23l-22.45,22.9,8.41,9.89c5.63,6.62,8.34,9.29,13.22,13.53-.53,2.01-1.65,3.42-3.91,4.16-3.98-4.16-8.11-9.14-11.11-12.79l-3.83-4.68c-2.78-3.34-5.86-6.69-8.11-8.85v7.88c0,5.65.15,12.72,1.35,17.85-2.25.44-4.8.44-6.68,0,1.13-5.28,1.13-12.2,1.13-17.85v-14.28c0-5.72-.15-12.19-1.13-17.85"/><path class="cls-1" d="m149.9,145.91c2.18-.74,4.51-.74,6.68,0-1.2,5.13-1.43,12.2-1.43,17.92v14.2c0,4.76.15,10.48.9,15.24,7.36-.15,15.62-.97,20.95-3.87,1.13,2.08,1.5,3.64,1.58,6.47h-28.68c1.05-5.21,1.28-12.2,1.28-17.85v-14.28c0-5.72-.23-12.57-1.28-17.85"/><path class="cls-1" d="m189.1,161.52v-2.38c0-4.61-.08-7.96-1.13-13.24,1.73-.37,3.98-.37,5.48,0h.15c0,.08-.08.15-.08.15,2.48,6.1,5.71,11.08,12.24,22.09l6.23,10.48h.38c5.71-10.33,12.02-21.79,15.84-32.72,1.95-.44,5.03-.44,7.06,0-1.2,5.13-1.43,12.2-1.43,17.92v14.2c0,5.65.22,12.72,1.43,17.85-2.1.37-4.73.37-6.68,0,1.13-5.28,1.2-12.2,1.2-17.85v-14.28c0-1.49.08-3.27.08-10.78h-.38l-15.99,31.75c-.68.15-2.25.22-3.15-.07l-8.71-14.42c-4.05-6.77-7.06-11.3-9.31-15.32,0,10.04-.75,19.55,1.28,40.97-2.03.44-4.81.52-6.61,0,2.25-21.27,2.1-29.44,2.1-34.35"/><path class="cls-1" d="m249.64,163.98v-4.61c0-5.72-.38-8.18-1.43-13.46,1.8-.37,3.16-.3,5.26.15,5.71,11.75,15.09,23.42,26.96,41.04-.07-9.89-.3-21.26-1.8-41.56,2.33-.37,4.65.07,6.53.37-2.25,23.35-1.88,30.26-1.88,34.87v2.38c0,4.61,0,7.06.83,12.72-1.2.3-2.33.3-3.9,0-7.74-12.57-17.5-25.36-27.56-40.08,0,11.75-.15,19.18,1.73,40.3-1.95.45-4.66.3-6.69-.22,2.03-21.79,1.95-27.88,1.95-31.9"/><path class="cls-1" d="m306.79,189.18c2.18,2.16,6.08,3.42,9.84,3.42,5.25,0,8.56-2.01,11.19-5.13,2.63-3.35,3.76-9,3.76-17.55,0-6.02-.75-13.24-4.96-17.47-2.1-2.08-6.08-3.49-9.91-3.49-5.18,0-8.63,2.08-11.26,5.28-2.7,3.27-3.6,9-3.6,17.18,0,6.32.68,13.53,4.96,17.77m22.75.45c-3.91,4.61-8.26,6.84-15.54,6.84-4.66,0-9.09-1.71-11.71-4.54-3.38-3.72-5.26-9.59-5.26-16.28,0-12.27,2.18-18.07,6.83-23.57,3.98-4.68,8.26-6.92,15.47-6.92,4.81,0,9.24,1.71,11.79,4.54,3.45,3.72,5.26,9.37,5.26,15.99,0,12.86-2.1,18.37-6.83,23.94"/><path class="cls-1" d="m353.8,170.6c3.3,1.04,6.53,1.34,8.93,1.34,3.46,0,6.61-.67,8.19-2.45,2.7-3.05,2.48-8.4,2.48-10.41,0-3.42-1.13-5.65-2.93-7.29-2.85-2.6-5.26-3.05-9.76-3.05-2.1,0-4.13.08-6.38.52-.22,4.61-.37,10.04-.45,14.57l-.07,6.77Zm-5.33-24.69h15.32c6.23,0,9.09,1.41,11.04,3.42,2.4,2.46,3.15,4.91,3.15,9s-1.65,9.22-4.95,12.49c-2.18,2.08-6.23,4.98-11.94,4.98-2.55,0-5.25-.15-7.36-.67v3.35c-.08,5.65.23,12.27,1.43,17.4-2.48.52-4.65.52-6.68,0,1.13-5.28,1.2-12.2,1.2-17.85v-14.28c0-6.17-.08-12.57-1.2-17.85"/><path class="cls-1" d="m397.13,189.18c2.18,2.16,6.08,3.42,9.84,3.42,5.26,0,8.56-2.01,11.19-5.13,2.63-3.35,3.76-9,3.76-17.55,0-6.02-.75-13.24-4.96-17.47-2.1-2.08-6.08-3.49-9.91-3.49-5.18,0-8.63,2.08-11.26,5.28-2.7,3.27-3.6,9-3.6,17.18,0,6.32.68,13.53,4.96,17.77m22.75.45c-1.88,2.23-3.91,3.94-6.31,5.06,2.63,3.72,5.41,6.62,12.16,12.05-1.88,2.08-4.06,3.05-6.46,3.27-4.81-8.03-6.83-11.3-8.49-14.28-1.88.52-4.06.74-6.46.74-4.66,0-9.08-1.71-11.71-4.54-3.38-3.72-5.26-9.59-5.26-16.28,0-12.27,2.18-18.07,6.83-23.57,3.98-4.68,8.26-6.92,15.47-6.92,4.81,0,9.24,1.71,11.79,4.54,3.45,3.72,5.25,9.37,5.25,15.99,0,12.86-2.1,18.37-6.83,23.94"/><path class="cls-1" d="m444.07,169.63c3.3,1.04,6.53,1.34,8.94,1.34,3.45,0,6.46-.67,8.11-2.38,2.18-2.23,2.55-5.87,2.55-9.52,0-3.42-1.13-5.65-2.93-7.29-2.85-2.6-5.25-3.05-9.76-3.05-2.1,0-4.13.08-6.38.52-.23,4.68-.38,10.04-.45,14.57l-.08,5.8Zm-5.33-23.72h15.32c6.23,0,9.09,1.41,11.04,3.42,2.4,2.46,3.15,4.91,3.15,9,0,5.8-1.88,9.07-5.18,12.34-.98.97-2.4,1.93-4.13,2.68l2.4,4.61c4.58,8.85,7.66,12.49,10.06,15.24-.83,1.86-3.3,3.2-4.96,3.42-2.4-3.34-5.78-10.04-7.66-13.61l-4.36-8.4c-.98.15-1.95.23-3.08.23-2.55,0-5.26-.15-7.28-.67l-.07,4.31c-.08,5.65.22,12.27,1.43,17.4-2.48.52-4.66.52-6.68,0,1.13-5.28,1.2-12.2,1.2-17.85v-14.28c0-6.17-.07-12.57-1.2-17.85"/><path class="cls-1" d="m479.45,191.86c.22-2.23.52-3.35,1.43-5.13,4.95,4.46,9.16,5.58,13.44,5.58,4.51,0,7.06-1.34,8.64-2.9,1.58-1.56,2.1-4.02,2.1-6.32,0-4.46-2.03-7.36-11.26-11.08-5.93-2.38-7.36-3.79-9.46-5.72-1.88-1.71-2.78-4.02-2.78-7.14,0-7.36,4.28-14.35,16.22-14.35,4.21,0,6.83.74,9.76,2.46.08,2.16-.23,3.34-1.13,4.98-4.58-2.68-7.58-3.27-12.46-3.27-3.3,0-5.78,1.34-6.91,2.53-1.13,1.26-1.88,3.57-1.88,6.02,0,4.76,2.48,6.92,10.74,10.19,6.46,2.53,8.34,4.02,10.51,6.54,1.95,2.23,2.7,4.68,2.7,7.58,0,7.81-6.46,14.65-16.07,14.65-5.48,0-10.14-1.26-13.59-4.61"/><path class="cls-1" d="m168.07,273.82c2.55,1.79,4.66,2.38,7.51,2.38,6.98,0,9.61-2.08,11.19-4.09,1.43-1.78,1.95-4.76,1.95-8.25,0-4.24-2.4-6.62-4.88-8.55-3.15-2.45-8.56-2.53-13.74-1.19-.53-.67-.75-1.86-.68-2.6,5.26-2.9,8.41-5.13,11.94-7.88,3.68-2.97,5.26-5.95,6.31-9.07-10.36-1.93-18.55-2.01-27.93-1.71-.45,4.83-.68,9.96-.68,14.65v14.2c0,5.72.23,12.71,1.43,17.85-1.88.45-4.43.37-6.46,0,1.13-5.28,1.2-12.27,1.2-17.85v-14.28c0-6.99-.15-12.57-1.2-17.85l37.85-.45c.98,1.64.98,3.87.98,5.58-1.88,3.57-3.91,5.95-6.61,8.48-2.03,1.93-4.81,4.02-8.11,5.65l.15.52c3.45.07,7.36,1.04,9.91,2.75,2.85,1.93,5.03,4.61,5.03,10.41,0,8.48-3.83,17.62-17.8,17.62-3.68,0-5.41,0-8.34-.82-.15-1.86-.07-3.64.98-5.5"/><path class="cls-1" d="m216.44,232.18c-4.65.15-9.01.97-14.12,3.87-1.28-2.31-1.73-3.87-1.5-6.47h37.09c.08,2.68-.3,4.24-1.5,6.47-5.11-2.9-9.84-3.65-14.27-3.79-.83,4.68-.9,10.34-.9,15.24v14.2c0,5.65.22,12.72,1.43,17.85-1.88.52-5.03.52-6.68,0,1.13-5.28,1.2-12.2,1.2-17.85v-14.28c0-4.76-.08-10.48-.75-15.24"/><path class="cls-1" d="m274.79,247.42c0-7.06-.3-12.49-1.28-17.85,2.1-.44,4.73-.52,6.61,0-1.05,5.28-1.28,10.71-1.28,17.92v6.77c0,13.16.3,20.08,1.28,25.28-2.18.52-4.36.44-6.31,0,.67-2.83,1.2-6.54,1.43-10.63l-.23-.07c-2.33,5.28-4.2,7.29-6.38,8.77-2.55,1.71-6.16,2.53-11.04,2.53-8.56,0-12.54-7.29-12.54-13.75,0-4.61.15-6.91.15-10.41v-8.55c0-7.06-.23-12.57-1.28-17.85,2.33-.52,4.88-.44,6.68,0-1.2,5.13-1.35,10.71-1.35,17.92v9.82c0,7.88.15,11.08,1.58,13.9,1.35,2.75,3.98,4.83,8.19,4.83,5.41,0,9.61-1.49,12.16-4.76,2.11-2.68,3.61-7.73,3.61-16.36v-7.51Z"/><path class="cls-1" d="m301.6,253.52l6.46,17.92h.75c2.63-7.66,7.43-17.18,13.82-41.79,1.95-.37,3.68-.52,5.71,0l-19.15,49.89c-.83.22-1.58.22-2.55,0l-10.59-29c-2.4-6.62-5.1-13.61-8.48-20.89,2.4-.6,4.66-.52,6.76-.23,1.43,5.58,2.7,11.3,7.28,24.09"/><path class="cls-1" d="m343.66,253.59l4.51,18.22h.6c3.45-11.23,8.86-26.77,10.51-36.66-.52-1.71-1.13-3.64-1.73-5.65,2.33-.67,4.88-.74,7.43,0l-.82,3.12c.98,4.24,1.88,9.59,4.73,20.75l4.66,18.22h.68c5.63-18.81,7.43-26.62,9.31-42.01,2.1-.59,4.28-.67,6.61-.07l-15.17,50.04c-.68.3-2.03.3-3,0l-8.56-29.52c-.45-1.49-1.13-4.09-2.18-7.88l-11.94,37.4c-.75.3-2.63.3-3.53,0l-7.88-29c-1.88-6.77-3.68-13.61-6.83-20.97,2.1-.67,4.96-.44,6.76,0,.9,5.5,2.85,11.82,5.86,24.02"/><path class="cls-1" d="m411.4,250.32h.23c1.73-3.12,4.58-7.44,10.51-20.75,2.25-.44,5.03-.44,7.13,0-9.91,14.35-12.61,18.44-16.07,23.13,6.23,10.56,11.41,18.59,17.35,26.84-2.7.52-5.03.52-7.88,0-2.63-6.62-8.04-15.54-12.46-22.98h-.23c-2.55,4.02-5.03,7.51-11.49,23.05-2.4.37-4.73.37-6.91,0,11.72-17.47,13.59-21.04,16.82-26.1-4.28-7.21-10.36-17.47-15.09-23.94,2.4-.44,5.93-.52,7.96,0,1.13,4.83,4.21,11.23,10.14,20.75"/><path class="cls-1" d="m445.87,244.45l6.61,12.34h.52c2.18-4.39,3.98-7.66,10.89-27.22,2.7-.3,4.28-.3,6.76,0l-16.59,31.16v.97c0,5.65.22,12.71,1.43,17.85-2.03.44-4.73.44-6.68,0,1.13-5.28,1.28-12.2,1.28-17.85v-.67l-9.99-18.37c-2.55-4.68-4.06-7.66-8.26-13.09,2.18-.3,4.43-.44,7.21,0,1.28,4.39,3.6,8.92,6.83,14.87"/><path class="cls-1" d="m505.28,279.54h-28.91c-.98-.52-2.25-1.86-2.55-3.12,13.59-19.7,21.85-33.31,27.93-44.09-7.51-.3-12.99.6-24.4,3.2-1.05-1.86-1.28-3.72-1.05-5.95h27.86c1.2,1.04,2.18,2.08,3,3.05-12.17,18.66-18.17,28.48-27.63,43.72,6.38,0,13.74-.07,24.86-2.75,1.05,2.01,1.05,3.87.9,5.95"/><path class="cls-2" d="m109.87,359.86c2.33,0,5.03-.97,6.61-2.3,2.1-1.78,4.28-4.31,4.43-11.75-2.55-.52-4.8-.67-8.26-.67-6.91,0-9.09,4.91-9.09,7.66s.67,4.83,1.8,5.72c1.5,1.19,2.63,1.34,4.51,1.34m-2.18,3.94c-6.16,0-9.01-4.68-9.01-8.7,0-3.79,1.43-7.29,4.06-9,5.48-3.49,9.53-4.61,18.17-4.46v-1.41c0-4.76,0-7.51-1.73-9.22-1.28-1.34-3.38-2.23-6.53-2.23-5.41,0-9.09,2.38-13.29,5.65-.3-1.93-.15-4.24.68-6.02,4.2-1.86,8.33-2.97,12.84-2.97,5.26,0,7.88,1.11,9.76,2.6,2.03,1.64,2.78,3.87,2.78,6.47,0,4.16-.3,7.21-.3,9.82v4.39c0,3.72.52,8.4,1.05,14.35-1.73.6-3.3.6-5.71.15.68-2.6.9-5.06.98-7.73l-.23-.07c-1.28,2.83-2.18,3.64-3.68,5.06-1.88,1.71-4.58,3.35-9.84,3.35"/><path class="cls-2" d="m141.86,345.21c0,6.47.3,9.59.9,13.24,2.63,1.11,5.11,1.34,7.96,1.34,4.58,0,6.83-1.41,8.63-3.35,2.1-2.38,2.63-5.95,2.63-12.42s-1.05-14.5-10.06-14.5c-2.93,0-5.33,1.27-6.68,2.75-1.2,1.26-3.38,4.02-3.38,11.6v1.34Zm7.06,18.59c-5.33,0-8.78-1.41-12.39-3.49,1.28-4.09,1.43-10.56,1.43-14.87v-23.27c0-3.72-.38-10.93-.98-15.76,1.65-1.12,3.38-1.56,6.01-1.64-.75,6.25-.75,11.23-.83,17.25l-.37,11.67.45.15c1.5-3.94,3.23-5.58,5.1-6.76,1.8-1.19,4.28-1.64,6.83-1.64,7.96,0,12.24,7.36,12.24,14.72,0,10.48-1.5,14.42-5.4,18.44-2.78,2.9-6.98,5.21-12.09,5.21"/><path class="cls-2" d="m198.64,332.12c-4.43-2.08-6.61-2.38-10.14-2.38-2.63,0-4.73.97-6.61,3.12-2.03,2.38-2.78,6.1-2.78,11.75,0,10.49,3.68,15.24,10.14,15.24,4.35,0,5.93-.6,10.29-3.35.68,1.71.23,3.87-.37,5.35-2.48,1.41-5.11,2.01-10.29,2.01-9.99,0-14.19-7.44-14.19-16.14,0-9.15,1.73-13.09,5.41-16.88,3.53-3.64,6.53-5.35,12.09-5.35,1.88,0,5.03.52,8.41,2.16.07,1.78-.9,3.12-1.95,4.46"/><path class="cls-2" d="m222.52,359.71c3,0,5.33-1.19,6.76-2.68,1.58-1.64,3.38-6.39,3.38-13.16v-12.57c-2.1-1.04-4.81-1.86-8.64-1.86-4.43,0-6.98,1.71-8.71,3.64-2.11,2.38-2.78,6.62-2.78,12.12,0,6.32.98,14.5,9.99,14.5m14.27-37.7l-.3,21.79c-.07,8.4.08,13.61,1.2,19.48-1.28.45-4.06.45-5.86-.07.68-2.6.98-6.02.98-7.81l-.38-.15c-1.5,4.01-3.3,5.72-5.33,6.92-1.95,1.19-3.83,1.64-7.88,1.64-6.83,0-11.11-7.29-11.11-14.72,0-9.96,1.58-14.05,5.48-18.07,2.85-2.9,6.98-5.58,12.16-5.58,2.55,0,4.96.59,6.91,1.41v-4.68c0-3.57-.45-10.93-.98-15.76,1.65-1.12,3.3-1.56,5.86-1.71-.68,6.32-.68,11.38-.75,17.33"/><path class="cls-2" d="m251.58,341.05c7.74,0,14.79-.3,18.4-1.19.15-1.19.23-2.31.23-3.57,0-4.46-2.78-6.99-7.21-6.99-3.83,0-6.98,1.41-8.79,3.64-1.43,1.79-2.25,4.54-2.63,8.11m18.02,2.82l-18.17-.3v1.41c0,6.39,1.43,14.87,10.36,14.87,4.28,0,7.06-.82,12.16-3.64.15,1.71-.07,3.87-.83,5.43-2.78,1.56-7.66,2.16-11.71,2.16-10.66,0-14.27-6.99-14.27-15.54,0-9.22,1.65-13.68,5.41-17.4,3.6-3.57,6.53-5.43,12.32-5.43,5.25,0,9.61,2.9,9.61,10.48,0,2.45-.08,4.83-.38,6.1-1.13.89-2.48,1.41-4.5,1.86"/><path class="cls-2" d="m291.54,363.21c-2.03.45-4.35.45-6.31,0,.83-5.13,1.35-10.93,1.35-20.89v-7.21c0-2.45-.07-4.39-.07-6.02-1.43.07-2.93.3-4.21.44-.23-.67-.53-2.6-.15-3.57,1.43.07,2.78.07,4.2.15-.15-1.94-.23-3.27-.23-4.54,0-5.28.98-9.96,3.91-12.86,2.63-2.6,5.41-3.27,8.64-3.27,1.43,0,2.63.15,4.5.52,0,2.16-.52,3.57-1.8,4.68-1.95-1.04-3.76-1.56-5.71-1.56-1.43,0-2.85.45-4.28,2.16-1.35,1.56-1.13,6.25-1.13,14.8,3.45-.07,6.54-.22,8.79-.45.6,1.49.75,3.05.15,4.31-3.68-.82-5.48-1.04-8.94-1.04v12.64c0,11.38.6,16.21,1.28,21.71"/><path class="cls-2" d="m318.65,348.04c3.3,0,5.26-1.19,6.68-2.68,1.43-1.63,2.55-3.57,2.55-7.29,0-4.09-1.95-9.07-8.41-9.07-3,0-5.33.74-6.91,2.31-1.35,1.41-2.18,2.9-2.18,7.59,0,3.94,1.95,9.14,8.26,9.14m2.33,28.7c4.73,0,8.64-1.86,9.76-3.57,1.2-1.79,1.28-3.12,1.28-4.61s-.6-2.68-1.35-3.27c-.98-.82-3-1.49-9.61-1.49-6.08.07-9.39,1.26-10.51,2.08-1.58,1.12-2.25,2.45-2.25,4.24,0,5.8,5.4,6.62,12.69,6.62m-16.89-5.28c0-3.72,2.4-6.84,6.68-8.25v-.3c-2.48-.74-4.2-2.23-4.2-4.91,0-2.97,2.33-5.72,6.08-7.06l.08-.22c-3.98-1.49-6.46-5.21-6.46-9.74,0-6.32,1.5-9.07,4.51-11.67,2.85-2.45,5.86-3.87,10.44-3.87,1.95,0,3.75.37,5.18,1.11l5.11-6.32c1.65.37,2.93,2.46,3.08,3.87l-6.91,3.2c2.7,1.86,4.28,5.06,4.28,8.77,0,6.02-2.1,8.55-4.66,11.53-2.1,2.45-6.68,3.87-10.21,3.87-3.3,0-6.23,2.23-6.23,4.16,0,2.53.82,4.01,5.93,4.01h6.53c4.81,0,8.19.45,10.51,2.6,1.28,1.19,1.5,3.64,1.5,4.98,0,3.2-1.28,5.65-3.38,8.03-2.7,3.05-5.63,5.5-14.57,5.5s-13.29-3.12-13.29-9.29"/><path class="cls-2" d="m348.01,345.29c0,7.58.45,12.49,1.05,17.92-1.73.45-4.43.37-6.16,0,.75-5.13,1.28-11.08,1.28-18.07v-1.27c0-25.58-.52-32.64-1.28-37.47,1.88-1.12,3.45-1.64,6.16-1.71-.67,6.25-.67,11.08-.9,21.93l-.15,6.99.3.07c1.5-3.72,3.23-5.58,5.26-6.77,1.73-.97,4.05-1.49,7.74-1.49,5.86,0,9.76,3.72,9.76,9.66,0,2.9-.23,8.48-.23,10.56v2.16c0,2.16.08,9.52.98,15.39-2.25.37-3.98.45-6.23,0,.6-4.91,1.2-10.71,1.2-17.92v-1.34c0-8.92-.23-10.63-1.73-12.42-1.35-1.64-3.15-2.15-6.46-2.15-2.85,0-5.93,1.41-7.13,2.9-1.2,1.41-3.45,3.87-3.45,11.67v1.34Z"/><path class="cls-2" d="m382.86,326.03c1.95-.3,4.28-.3,6.23,0-.98,4.91-1.28,9.15-1.28,17.85v1.41c0,6.91.53,12.86,1.28,17.92-2.4.45-4.06.45-6.23,0,.75-5.06,1.28-11,1.28-18v-1.34c0-8.7-.3-12.94-1.28-17.85m0-16.88c1.95-.37,3.91-.37,5.86,0,.38,1.86.38,3.87,0,5.95-1.88.3-3.83.3-5.86,0-.3-1.93-.3-4.01,0-5.95"/><path class="cls-2" d="m401.19,308.48c1.95-.37,3.91-.37,5.86,0,.38,1.86.38,3.87,0,5.95-1.88.3-3.75.3-5.86,0-.3-1.93-.3-4.02,0-5.95m5.18,53.39c0,3.27-.98,10.41-2.93,13.31-1.8,2.75-4.8,4.46-8.34,4.46-1.5,0-3.08-.07-4.73-.67.38-1.64,1.28-3.35,2.4-4.16,2.48,1.04,3.3,1.11,4.51,1.11,1.43,0,2.63-.37,3.91-2.16,1.43-2.01.82-12.12.82-16.58v-13.24c0-8.77-.22-13.01-1.2-17.92,1.95-.3,4.28-.3,6.23,0-.97,4.98-1.28,9.15-1.28,17.85v8.7c0,3.72.6,6.91.6,9.29"/><path class="cls-2" d="m424.54,363.21c-2.25.45-4.06.45-6.23,0,.75-4.91,1.28-10.86,1.28-18.22v-9.82c0-17.03-.6-24.09-1.35-28.92,1.88-1.12,3.68-1.49,6.16-1.64-.53,6.32-.97,16.95-.97,30.41v3.79c.9.08,1.72.08,2.85-.07,6.23-4.54,9.46-8.77,12.69-12.72,3.76-.67,5.86-.67,9.01,0l-17.8,12.34-.15.74c1.35,2.23,3.08,4.46,5.48,7.66l1.13,1.49c6.16,8.1,8.48,10.93,11.79,14.94-2.48.6-4.8.52-7.43,0-1.35-4.91-3.76-8.03-7.81-13.01l-.6-.74c-2.7-3.35-3.68-5.06-6.46-7.96-.98-.07-1.88-.07-2.7-.07v2.53c0,8.77.45,13.68,1.13,19.26"/><path class="cls-2" d="m460.52,363.21c-2.03.37-4.66.52-6.16,0,.75-5.13,1.28-11,1.28-18.14v-10.04c0-16.88-.53-23.79-1.28-28.7,1.8-1.11,3.53-1.56,6.08-1.71-.52,6.39-.97,17.18-.97,30.48v8.77c0,8.7.45,13.9,1.05,19.33"/><path class="cls-2" d="m476.06,343.65c0,6.62.3,14.87,1.28,19.56-2.18.52-4.13.52-6.38,0,.68-5.28,1.28-11.9,1.28-16.58v-4.98c0-6.1-.3-10.71-1.2-15.54,2.18-.52,4.35-.52,6.01,0-.68,2.38-.75,3.49-.98,5.95h.23c1.65-3.2,3.68-4.68,5.63-5.5,1.8-.74,3.46-1.11,5.93-1.11,5.41,0,8.86,2.97,8.86,7.36l.23.07c1.65-3.35,3.08-4.46,4.96-5.65,1.88-1.19,3.98-1.79,6.91-1.79,6.38,0,9.16,3.35,9.16,9.52,0,4.01-.3,6.39-.3,10.19v1.48c0,2.16.23,11.15,1.35,16.58-2.03.52-4.2.52-6.38,0,.82-5.28,1.28-11.9,1.28-19.7v-1.11c0-6.47-.38-9.15-1.5-10.71-1.13-1.49-3.08-2.45-5.78-2.45-2.33,0-4.13.67-5.48,1.93-1.58,1.41-4.13,4.09-4.13,9.67v3.27c0,7.14.07,13.83,1.28,19.11-2.1.6-4.21.6-6.46,0,.68-5.13,1.28-10.63,1.28-19.78v-1.34c0-6.91-.68-9.07-1.73-10.63-.98-1.41-3.3-2.31-5.63-2.31-2.78,0-4.36.6-6.23,2.16-1.8,1.49-3.45,4.68-3.45,10.93v1.41Z"/><path class="cls-2" d="m534.49,345.29c0,7.58.45,12.49,1.13,17.92h-6.23c.75-5.13,1.28-11.08,1.28-18.07v-1.27c0-8.7-.3-12.94-1.2-17.85,2.25-.3,3.91-.3,6.01,0-.67,2.38-.82,5.06-.98,7.66h.23c1.5-3.72,3.23-5.65,5.33-6.77,2.03-1.04,4.58-1.49,7.43-1.49,5.93,0,10.06,3.72,10.06,9.59,0,3.57-.37,5.65-.37,9.15v1.49c0,2.16.08,11.67.98,17.55h-6.23c.67-4.98,1.2-10.71,1.2-17.92v-1.41c0-7.21-.15-10.56-1.73-12.34-1.5-1.64-3.23-2.15-6.31-2.15s-5.86,1.48-7.21,2.9c-1.2,1.26-3.38,3.94-3.38,11.6v1.41Z"/><path class="cls-2" d="m111.82,443.23c4.51,0,6.53-1.26,8.41-3.42,1.95-2.3,2.7-6.47,2.7-12.12,0-6.17-1.05-14.5-9.99-14.5-3.83,0-6.53,1.26-8.41,3.42-1.95,2.31-2.7,6.47-2.7,12.12,0,6.17,1.05,14.57,9.99,14.5m10.06-1.26c-3.53,3.64-6.31,5.43-12.24,5.43-8.48,0-12.24-6.77-12.24-15.47,0-9.15,1.58-13.53,5.48-17.47,3.38-3.42,6.23-5.35,12.16-5.35,8.56,0,12.31,6.77,12.31,15.47,0,9.15-1.65,13.39-5.48,17.4"/><path class="cls-2" d="m141.71,441.59c2.1,1.04,4.96,1.64,8.78,1.64,4.43,0,6.84-1.49,8.56-3.42,2.1-2.38,2.78-8.92,2.78-12.12,0-6.32-.98-14.5-9.99-14.5-3,0-5.41,1.26-6.76,2.68-1.28,1.26-3.38,5.5-3.38,11.67v14.05Zm-4.13,9.29l.3-23.2c.08-6.99-.45-11.82-1.2-18,1.88-.37,4.05-.37,5.86,0-.6,2.6-.9,5.88-.98,7.73l.3.07c1.43-3.79,3.38-5.95,5.48-7.06,2.03-1.04,3.68-1.34,6.68-1.34,7.96,0,12.24,7.29,12.24,14.72s-1.58,14.05-5.48,18.07c-2.86,2.9-6.99,5.58-11.94,5.58-2.78,0-5.11-.37-7.13-.89v4.17c0,3.57.45,8.25,1.05,13.61-1.88.52-3.83.52-5.93.15.68-6.32.68-7.66.75-13.61"/><path class="cls-2" d="m199.08,427.61c0-6.39-.3-9.52-.9-13.09-2.48-1.19-4.88-1.41-7.96-1.41-4.58,0-6.68,1.64-8.49,3.57-2.1,2.38-2.78,6.54-2.78,12.12,0,6.25,1.05,14.57,10.06,14.57,2.93,0,5.33-1.34,6.68-2.83,1.2-1.26,3.38-4.01,3.38-11.6v-1.34Zm-1.05,36.88c.67-6.25.9-13.68,1.05-19.93l.15-5.43-.52-.15c-1.5,4.01-3.23,5.58-5.18,6.77-1.8,1.12-4.35,1.71-6.76,1.71-8.11,0-12.24-7.44-12.24-14.8,0-9.89,1.65-14.13,5.56-18.14,2.78-2.9,6.83-5.43,11.94-5.43,5.56,0,8.86,1.41,12.39,3.49-1.28,4.01-1.43,10.48-1.43,14.8v23.27c0,3.64.3,8.33.97,13.68-1.88.6-3.83.52-5.93.15"/><path class="cls-2" d="m219.89,428.95c0,7.81.45,12.49,1.13,17.92-1.95.52-4.28.52-6.23,0,.75-5.13,1.28-11,1.28-18v-1.41c0-8.48-.3-12.94-1.2-17.77,2.03-.44,4.28-.52,6.01,0-.75,2.68-.9,5.21-.97,7.44l.38.07c1.43-3.57,3.08-5.65,5.03-6.69,2.63-1.41,6.83-1.71,9.54-.97.08,1.93-.15,3.34-.75,4.98-2.03-.82-3.15-.97-4.5-.97-2.48,0-4.96.67-6.31,2.38-1.58,1.93-3.38,4.83-3.38,11.82v1.19Z"/><path class="cls-2" d="m238.44,444.05c.08-1.93.83-3.2,1.73-4.68,4.58,3.57,8.04,4.46,11.34,4.46,4.13,0,6.16-1.04,7.43-2.16.98-.82,1.73-2.68,1.73-4.39,0-3.27-2.93-5.06-9.39-7.14-4.88-1.56-7.36-2.75-9.09-4.16-1.28-1.04-2.4-2.83-2.4-5.8,0-5.58,4.5-11.08,14.27-11.08,3.45,0,6.83.59,9.61,1.86-.22,1.78-.82,3.35-1.8,4.68-4.96-2.6-8.19-3.05-11.04-3.05-3.16,0-5.11,1.11-6.01,2.08-.75.74-1.43,2.08-1.43,3.94,0,3.27,2.85,4.68,10.14,6.77,5.03,1.41,7.66,2.97,9.24,4.98,1.5,1.79,1.88,3.94,1.88,6.1,0,4.16-3.98,11-14.42,11-5.56,0-8.86-1.34-11.79-3.42"/><path class="cls-2" d="m281.77,446.87c-1.5.45-4.58.6-6.61,0,1.28-5.58,1.58-10.26,1.58-19.48v-14.05c-1.65.15-2.7.37-4.2.67-.68-.67-.75-3.35-.38-4.46,1.35.15,2.4.15,4.43.15-.07-1.41-.15-2.75-.15-4.54,0-5.13,1.35-9.59,4.43-12.49,2.78-2.6,6.16-3.57,9.39-3.57,4.43,0,7.73,1.04,10.14,4.46,1.88,2.68,2.1,9.59,1.2,13.38,1.65.22,3.3.67,4.73,1.41-.15,1.86-.68,4.02-1.58,5.43-4.28-2.75-7.51-2.97-9.99-2.97-2.78,0-4.13.82-4.96,1.86-.67.74-1.2,2.15-1.2,4.16,0,3.49,2.4,5.21,8.71,7.43,4.65,1.56,7.13,3.2,8.56,5.35,1.28,1.93,1.65,3.79,1.65,6.1,0,4.39-3.9,11.75-12.99,11.75-4.88,0-7.06-.67-9.09-2.08.15-1.71.68-3.5,1.5-4.54,3.38,2.08,6.16,2.68,9.01,2.68,3.6,0,5.03-1.11,6.16-2.23.9-.89,1.5-2.83,1.5-4.61,0-3.57-1.65-5.28-8.19-7.58-4.21-1.56-6.38-2.9-7.88-4.39-1.35-1.34-2.1-3.27-2.1-6.39,0-5.72,3.9-11.6,12.39-11.6h1.28c-.07-5.65-.98-8.85-2.1-10.56-2.03-2.6-5.48-3.35-8.26-3.35-3.53,0-5.71.89-6.91,2.82-1.13,1.86-1.2,5.65-1.2,9.82l-.15,19.93c-.08,11.15.52,15.98,1.28,21.49"/><path class="cls-2" d="m327.51,447.47c-5.03,0-8.56-3.49-8.56-10.56,0-3.49.22-5.87.22-9.44v-2.3c0-2.38-.07-6.99-.67-12.27l-4.96.45c-.23-.97-.3-2.68.08-3.64,2.48.15,4.21.3,5.78.22,1.13-2.97,1.88-6.39,2.48-8.92,1.05-.07,2.11,0,2.78.37-.38,1.93-.52,5.43-.75,8.62,3.68,0,7.81-.07,11.87-.52.3,1.26.3,2.9-.3,4.39-3.08-.52-7.73-.74-11.87-.89l-.07.74c-.08,3.05-.3,6.17-.3,7.96v5.5c0,8.77-.23,12.64,1.13,14.57,1.13,1.49,2.33,2.01,3.83,2.01,2.25,0,5.63-.89,8.48-2.68.15,1.71-.45,3.27-1.05,4.91-2.48,1.19-5.11,1.49-8.11,1.49"/><path class="cls-2" d="m366.86,425.83c0-5.72-.23-11-1.13-16.14,2.18-.44,4.13-.44,6.23,0-.75,5.13-1.28,11.08-1.28,17.4v1.04c0,9.59.3,13.83,1.2,18.74-2.25.3-3.91.3-6.01,0,.67-2.38.82-5.06.98-7.66h-.23c-1.5,3.72-3.23,5.65-5.33,6.77-2.03,1.04-4.21,1.49-6.53,1.49-7.06,0-10.44-3.79-10.44-10.41,0-3.57.23-4.83.23-8.33v-1.49c0-2.15-.07-11.67-.98-17.55,2.1-.44,4.06-.44,6.23,0-1.05,5.95-1.2,11.97-1.2,17.92v1.41c0,7.21.23,9.89,1.65,11.75,1.43,1.86,3.3,2.75,6.38,2.75s5.03-1.11,6.83-2.9c1.88-1.86,3.38-5.13,3.38-13.01v-1.79Z"/><path class="cls-2" d="m389.17,422.85l7.06,19.11h.3c2.4-5.95,4.95-11.82,9.08-32.27,2.26-.37,4.51-.3,6.16,0l-14.34,37.18c-1.65.3-2.63.3-4.28,0-1.5-5.13-3.68-10.86-5.86-16.88l-1.2-3.27c-2.85-7.81-4.05-10.49-7.28-17.03,3.23-.37,3.91-.22,6.46,0,1.13,4.83,2.85,10.41,3.91,13.16"/><path class="cls-2" d="m420.56,409.69c1.13,5.28,2.25,8.92,3.45,13.46l4.65,17.47h.38c1.95-5.65,4.28-12.64,8.26-30.86.9-.22,2.4-.22,3.68-.07,1.8,7.96,2.78,11.75,4.05,15.99l4.66,15.62h.37c2.7-8.48,3.68-11.01,7.73-31.6,2.33-.44,3.98-.44,6.01,0l-12.69,37.25c-1.5.22-2.4.22-4.58-.22-1.05-4.16-3.23-12.05-4.51-16.51l-3.68-12.86-8.03,29.44c-1.5.45-3.38.37-4.43,0-1.05-4.61-3.3-13.09-4.58-17.1l-1.05-3.27c-1.8-5.73-2.93-10.11-6.08-16.73,2.4-.22,4.05-.37,6.38,0"/><path class="cls-2" d="m480.72,424.12h.22c3.3-5.8,5.86-9.74,7.36-14.42,2.48-.59,4.8-.44,6.76,0-3.15,4.31-7.88,9.89-12.77,16.51,6.31,10.04,9.53,14.95,14.26,20.67-2.55.52-4.73.52-7.36,0-2.33-4.98-5.41-10.11-10.06-17.18h-.15c-4.28,7.66-6.54,11.75-7.81,17.18-2.25.37-4.43.37-6.46,0,5.63-8.18,10.51-15.91,12.84-19.85-3.98-5.88-7.44-10.78-11.87-17.33,2.25-.44,5.18-.37,7.51,0,1.5,5.13,2.18,6.39,7.51,14.42"/><path class="cls-2" d="m511.58,465.01c-2.93-.15-5.11-.22-7.28-1.41,4.73-6.39,7.73-12.12,10.74-19.93-.6-.07-1.35-.07-2.25-.15-1.73-5.28-3.53-9.44-5.26-13.75l-1.43-3.57c-2.85-7.06-3.91-9.96-7.13-16.51,2.25-.44,4.88-.44,6.83,0,1.05,4.83,2.85,10.41,3.91,13.16l3.83,9.82c.53,1.26,1.05,3.05,2.48,6.69l.52.07c2.48-7.88,7.96-22.53,9.16-29.74,2.25-.37,4.43-.37,6.53-.07l-14.57,33.68h.15l-6.23,21.71Z"/><path class="cls-2" d="m562.2,411.85c-2.55,3.79-6.76,10.19-8.49,13.09l-4.51,7.43c-2.55,4.17-4.88,8.03-6.53,11.23,6.91-.07,11.64-.6,18.32-2.23.68,1.79.75,3.35.3,5.5h-23.95c-.52-.45-.75-1.26-.82-2.01,3.08-5.06,5.56-8.55,8.63-13.61l5.41-8.85c2.55-4.16,3.6-5.87,5.18-9.59-6.76.07-11.57.37-18.25,1.49-.52-1.34-.6-2.53-.23-4.61h24.03c.52.67.83,1.56.9,2.16"/><path class="cls-1" d="m129.47,485.03c2.55-4.46,7.43-7.66,12.84-8.33.6.67,1.05,2.01.83,3.27-5.93,1.49-8.04,3.87-9.99,7.14-2.1,3.49-3.68,14.42-3.68,22.98s1.5,20,3.53,23.42c2.03,3.42,3.91,5.65,10.06,7.21.3,1.34-.08,2.45-.9,3.42-5.1-.82-9.98-4.01-12.69-8.48-4.43-7.36-4.66-16.66-4.66-25.65,0-8.25.38-17.47,4.66-24.98"/><path class="cls-2" d="m503.55,505.33c0-3.57-.15-7.73-.6-10.86-6.08-.07-11.41.15-16.22,1.11-.6-1.49-.6-3.05-.23-4.68,2.03.37,5.86.45,10.74.45,3.68,0,6.46,0,11.56-.3-.98,4.31-1.28,9.89-1.28,14.35v7.21c0,8.18-.23,11.75-3.08,14.72-2.48,2.53-5.18,3.72-7.88,3.72-3.98,0-6.83-.22-9.16-.89-.75-1.64-.98-3.49-.9-5.2,3.38,1.49,6.16,1.93,8.86,1.93s4.66-.89,6.01-2.53c2.18-2.31,2.18-8.77,2.18-14.95v-4.09Zm-34.54-13.98c2.18-.45,4.43-.45,6.46,0-1.05,4.02-1.35,9.59-1.35,14.05v11.15c0,4.39.3,9.96,1.35,13.98-2.03.37-4.28.37-6.46,0,.98-4.16,1.13-9.59,1.13-13.98v-11.23c0-4.46-.23-9.81-1.13-13.98m-44.01,0c2.18-.45,4.66-.37,6.46,0-1.05,4.02-1.35,9.59-1.35,14.05v3.42c7.58.45,15.02.45,22.3,0v-3.49c0-4.46-.23-9.81-1.13-13.98,2.25-.45,4.66-.37,6.46,0-1.05,4.02-1.35,9.59-1.35,14.05v11.15c0,4.39.3,9.96,1.35,13.98-2.1.37-4.28.37-6.46,0,.98-4.16,1.13-9.59,1.13-13.98v-4.16c-7.59-.45-14.87-.45-22.3.07v4.09c0,4.39.3,9.96,1.35,13.98-2.1.37-4.28.37-6.46,0,.98-4.16,1.13-9.59,1.13-13.98v-11.23c0-4.46-.23-9.81-1.13-13.98m-13.9,6.54c-4.36-2.68-8.03-3.57-11.79-3.57-4.51,0-7.73,1.19-9.99,3.27-2.4,2.38-3.53,5.58-3.53,13.31,0,6.99,1.28,10.86,3.45,13.24,2.03,1.93,4.81,3.05,8.19,3.05,3.6,0,7.21-.97,9.09-2.68,2.55-2.45,2.78-5.73,2.78-10.93v-.74c-2.48.07-6.16.52-8.86,1.04-.68-1.26-.38-3.42.38-4.76,4.96.22,9.84.3,12.77.3-.15,1.86-.15,4.39-.15,6.69v1.71c0,3.87.23,8.55,1.35,12.72-2.93.45-3.23.52-5.78.15.3-1.86.53-3.49.9-6.47l-.3-.07c-2.25,4.98-7.81,7.06-13.52,7.06-3.6,0-7.36-1.34-9.61-3.49-2.85-2.9-5.41-6.77-5.41-13.9,0-8.85,1.95-14.13,6.38-17.92,4.05-3.72,8.19-5.35,14.49-5.35,4.58,0,7.73.6,11.79,1.93-.68,2.38-1.65,4.02-2.63,5.43m-62.48,7.44c0-4.46-.3-9.81-1.2-13.98h25.46c0,2.38-.3,4.02-1.28,5.95-4.96-2.23-11.79-2.97-18.32-3.2-.6,3.64-.75,7.81-.75,11.3v4.98c3.75-.15,9.01-.59,16.22-1.49.45,1.86.45,3.57-.15,5.58-7.06-1.04-12.31-1.49-16.07-1.56v3.64c0,4.39.3,9.96,1.35,13.98-2.18.45-4.28.45-6.46,0,.9-4.09,1.2-9.59,1.2-13.98v-11.23Zm-37.4-13.98h26.51c0,2.23-.38,4.02-1.35,5.95-5.03-2.31-12.54-3.05-19.22-3.2-.6,3.64-.75,7.81-.75,11.3v3.94c3.91-.15,9.69-.6,16.82-1.49.53,1.79.53,3.57-.15,5.58-6.98-1.04-12.76-1.49-16.67-1.56v4.69c0,3.42.15,7.58.75,11.23,6.68-.15,14.19-.89,19.15-3.2,1.05,1.93,1.43,3.64,1.5,5.95h-26.58c.9-4.09,1.2-9.59,1.2-13.98v-11.23c0-4.46-.3-9.81-1.2-13.98m-37.48,35.02c2.78.6,4.81.82,7.21.82,2.93,0,6.83-1.04,8.86-2.45,2.48-1.78,6.83-5.58,6.83-13.68,0-4.46-1.43-10.56-4.96-13.38-3.15-2.31-6.91-3.42-12.01-3.42-2.33,0-4.21.3-5.86.74-.53,3.35-.68,7.21-.68,10.41v11.15c0,2.97.15,6.54.6,9.81m-5.71-35.02h10.06c8.86,0,14.19,1.11,17.5,3.49,3.53,2.83,5.71,7.81,5.71,13.38,0,7.96-3.08,14.05-9.39,18.37-3.08,2.3-7.51,3.94-14.42,3.94h-9.46c.98-4.16,1.13-9.59,1.13-13.98v-11.23c0-4.46-.23-9.81-1.13-13.98m-12.47,6.17c-3.08-2.08-6.23-2.97-9.76-2.97-3.83,0-6.16,1.26-8.48,3.42-2.48,2.45-3.53,6.54-3.53,12.86,0,5.35,1.43,10.93,3.75,13.46,2.48,2.53,6.31,2.97,9.91,2.97,4.2,0,7.43-1.41,10.81-3.57.68,2.08.15,3.72-.6,5.58-2.93,1.34-6.83,1.93-11.79,1.93-4.13,0-9.09-.97-12.02-3.57-3.08-3.05-4.96-8.03-4.88-13.68,0-9.07,2.55-14.13,6.38-17.77,3.91-3.87,8.33-5.5,14.27-5.5,3.08,0,6.46.59,9.09,2.01-.45,2.01-1.5,3.72-3.15,4.83m-58.8,28.85c3.23.6,6.38.82,9.01.82,3.15,0,6.23-.89,8.03-2.23,1.8-1.34,2.4-4.02,2.4-6.1,0-2.23-1.13-4.24-2.7-5.2-2.48-1.49-8.04-2.08-11.19-2.08-2.1,0-3.83.15-5.86.37v4.61c0,3.05,0,6.62.3,9.81m-.3-18.07c2.03.3,4.13.37,5.93.37,3.98-.07,6.61-1.49,8.56-3.35,1.2-1.11,1.43-2.45,1.43-4.76,0-2.01-1.13-3.87-2.7-5.06-1.05-.74-4.51-1.49-6.98-1.49-2.03,0-4.05.15-5.63.52-.45,3.05-.6,6.39-.6,10.86v2.9Zm-5.18-16.95h10.89c4.36,0,9.24.37,11.41,1.93,2.1,1.49,3.3,3.64,3.3,6.54,0,3.12-1.05,4.98-2.78,6.54-1.73,1.49-4.36,2.16-6.16,2.68v.3c2.55-.22,6.31.3,8.56,1.49,2.55,1.34,4.28,3.79,4.28,7.21,0,3.72-.75,6.92-3.6,9.29-3,2.6-8.03,3.2-18.32,3.2h-7.58c.98-4.16,1.13-9.59,1.13-13.98v-11.23c0-4.68-.23-9.81-1.13-13.98m-26.36,3.2c-2.78,7.66-4.96,13.76-7.81,22.01,6.53.22,10.51.22,16.15,0-.83-2.31-1.73-5.06-2.85-8.25l-4.73-13.76h-.75Zm9.39,25.28c-7.06-.37-11.19-.37-18.32,0-1.05,3.2-2.25,6.69-3.6,10.71-2.7.37-3.53.37-6.01,0,8.71-17.1,12.31-26.92,15.54-35.91-4.05.07-8.71.37-12.92.97-.6-1.34-.53-3.27-.23-4.76,4.58.45,11.86.74,16.6.74h1.28c6.08,0,10.66-.3,15.32-.74.3,1.41.45,3.27-.3,4.76-3.75-.52-7.58-.82-11.11-.97,1.13,4.69,2.1,8.77,3.53,12.79l1.88,5.2c2.7,7.51,3.98,10.56,8.41,17.99-1.2.22-4.81.3-6.53,0-.83-2.75-1.8-5.73-3.53-10.78"/><path class="cls-1" d="m530.14,534.55c-2.55,4.46-7.43,7.66-12.84,8.33-.6-.67-1.05-2.01-.83-3.27,5.93-1.49,8.03-3.87,9.99-7.14,2.1-3.49,3.68-14.42,3.68-22.98s-1.5-20-3.53-23.42c-2.03-3.42-3.91-5.65-10.06-7.21-.3-1.34.07-2.45.9-3.42,5.11.82,9.99,4.01,12.69,8.48,4.43,7.36,4.66,16.66,4.66,25.65,0,8.25-.38,17.47-4.66,24.98"/><path class="cls-1" d="m143.21,585.27c0-3.05-2.55-11.45-2.55-16.28,0-6.62,2.7-11,8.56-11,3.3,0,4.58.37,6.31,1.04.53,1.49.45,2.45,0,3.64-2.18-.74-3.68-.89-6.38-.89-2.85,0-4.28,1.56-4.28,4.24,0,8.1,3.45,10.71,3.45,16.88,0,5.35-3.98,9.07-7.81,10.26v.89c3.83,1.19,7.81,4.91,7.81,10.26,0,6.17-3.38,9.59-3.38,14.2,0,4.16,1.73,6.92,4.35,6.92,2.48,0,4.06-.07,6.23-1.49.75,1.34.38,2.45-.07,4.16-1.95.97-3.68,1.12-6.68,1.12-5.71,0-8.11-4.39-8.11-9.96,0-5.87,2.55-14.28,2.55-17.33s-1.8-5.35-5.56-6.17c-.52-1.41-.52-2.83,0-4.24,3.38-.59,5.56-2.9,5.56-6.25"/><path class="cls-2" d="m469.46,593.31c2.93.89,5.71,1.04,7.88,1.04,3.15,0,5.78-.59,7.28-1.86,1.95-1.71,2.18-4.24,2.18-6.77,0-2.68-.98-4.54-2.63-5.8-2.33-1.64-4.58-2.16-8.56-2.16-1.95,0-3.68.07-5.71.45-.15,3.49-.3,7.44-.37,10.86l-.08,4.24Zm-5.18-18.29h13.67c5.86,0,8.71.97,10.51,2.75,2.25,1.86,2.93,3.94,2.93,7.36,0,4.09-1.65,6.92-4.66,9.52-1.05.89-2.48,1.71-4.43,2.31l1.95,3.12c4.35,6.99,6.98,9.67,9.09,11.82-.83,1.71-2.33,2.68-4.06,3.05-2.18-2.97-5.11-7.58-6.76-10.34l-3.98-6.92c-.9.07-1.88.15-2.85.15-2.18,0-4.43-.07-6.23-.37l-.08,2.97c-.07,4.46.3,9.74,1.35,13.76-2.33.37-4.43.37-6.46,0,.98-4.16,1.13-9.59,1.13-13.98v-11.23c0-4.68-.15-9.81-1.13-13.98m-38.08,33.24c1.88,1.93,5.56,2.9,8.78,2.9,4.51,0,7.51-1.26,9.84-3.57,2.33-2.38,3.46-6.47,3.46-13.09,0-5.58-.68-10.48-4.36-13.61-1.8-1.86-5.41-2.9-8.86-2.9-4.43,0-7.58,1.26-9.84,3.64-2.48,2.45-3.3,6.47-3.3,12.71,0,5.43.6,10.86,4.28,13.9m20.65,1.26c-1.73,1.71-3.53,2.97-5.71,3.87,2.33,3.12,4.88,6.39,12.39,10.63-2.7.97-5.03,1.56-7.81,1.26-3.83-4.68-5.86-8.48-7.36-11-1.73.37-3.6.52-5.71.52-4.2,0-8.26-1.34-10.74-3.64-3.08-3.05-4.73-7.58-4.73-13.53,0-9,2.03-13.83,6.23-17.77,3.68-3.64,7.58-5.43,14.04-5.43,4.28,0,8.33,1.34,10.74,3.57,3.15,3.05,4.73,7.66,4.73,13.31,0,9.37-1.95,14.28-6.08,18.22m-60.38-15.61c2.93.82,5.71,1.04,7.88,1.04,3.15,0,5.93-.59,7.36-1.93,2.33-2.16,2.1-5.58,2.1-7.29,0-2.68-.98-4.54-2.63-5.8-2.33-1.64-4.58-2.16-8.56-2.16-1.88,0-3.68.07-5.71.37-.15,3.57-.3,7.51-.38,10.93l-.08,4.83Zm-5.18-18.89h13.67c5.86,0,8.71.97,10.51,2.75,2.25,1.86,2.93,3.94,2.93,7.36s-1.43,7.14-4.51,9.67c-2.03,1.78-5.78,3.64-11.19,3.64-2.18,0-4.43-.07-6.31-.37v2.38c-.08,4.46.3,9.74,1.35,13.76-2.33.37-4.43.37-6.46,0,.98-4.16,1.13-9.59,1.13-13.98v-11.23c0-4.68-.15-9.81-1.13-13.98m-37.7,33.24c1.88,1.93,5.56,2.9,8.79,2.9,4.51,0,7.51-1.26,9.84-3.57,2.33-2.38,3.45-6.47,3.45-13.09,0-5.58-.68-10.48-4.36-13.61-1.8-1.86-5.41-2.9-8.86-2.9-4.43,0-7.58,1.26-9.84,3.64-2.48,2.45-3.3,6.47-3.3,12.71,0,5.43.6,10.86,4.28,13.9m20.65,1.26c-3.68,3.64-7.73,5.28-14.19,5.28-4.2,0-8.26-1.34-10.74-3.64-3.08-3.05-4.73-7.58-4.73-13.53,0-9,2.03-13.83,6.23-17.77,3.68-3.64,7.58-5.43,14.04-5.43,4.28,0,8.34,1.34,10.74,3.57,3.15,3.05,4.73,7.66,4.73,13.31,0,9.37-1.95,14.28-6.08,18.22m-72.32-16.51v-6.17c0-4.54-.45-7.66-1.35-11.82,1.73-.3,2.85-.3,4.73.15,5.26,7.51,15.77,21.12,24.4,30.41-.15-9.67-.45-18.29-1.88-30.64,2.18-.37,4.43-.22,6.31.07-1.88,13.38-1.73,18.81-1.73,22.68v5.13c0,3.94,0,7.06.83,11.38-1.13.3-.98.3-2.48,0-7.36-8.33-15.69-20-26.06-31.75.08,11.23.08,18.44,1.95,31.9-1.95.37-4.58.3-6.53-.15,1.8-12.57,1.8-17.55,1.8-21.19m-53.77-1.19v-5.13c0-3.94-.07-7.51-1.05-11.67,1.73-.3,4.05-.37,5.63,0,2.1,4.83,5.03,9.07,11.04,17.7l5.63,8.1c5.18-7.96,10.51-17.99,13.89-25.8,2.03-.45,4.73-.45,6.76,0-1.13,4.02-1.35,9.59-1.35,14.05v11.15c0,4.39.23,9.96,1.35,13.98-2.03.37-4.58.37-6.53,0,1.05-4.16,1.13-9.59,1.13-13.98v-11.23c0-1.11.08-2.45.08-8.4h-.15l-14.27,25.21c-.68.15-2.18.22-3.08-.07l-7.66-11.67c-3.6-5.28-6.31-8.7-8.33-11.9.07,10.26-.38,18.29,1.58,32.05-1.95.37-4.66.45-6.53,0,1.88-12.27,1.88-18.37,1.88-22.38m-34.02-16.8c2.1-.59,4.36-.59,6.53,0-1.13,4.02-1.35,9.59-1.35,14.05v11.15c0,3.42.15,7.58.75,11.23,6.61-.15,13.89-.89,18.85-3.2.98,1.93,1.43,3.64,1.5,5.95h-26.28c.98-4.09,1.2-9.59,1.2-13.98v-11.23c0-4.46-.23-9.81-1.2-13.98m-37.02,0c2.18-.45,4.58-.45,6.46,0-.98,4.16-1.28,9.59-1.28,14.05v4.54c6.61-4.76,10.59-9.44,18.55-18.66,2.48-.45,3.98-.45,6.68.22l-20.27,17.62,7.66,7.66c5.33,5.73,7.88,7.96,12.01,10.63-.68,1.93-1.95,3.2-4.05,3.79-3.45-3.35-7.21-7.14-9.91-10.04l-3.45-3.72c-2.48-2.6-5.18-5.06-7.21-6.69v5.8c0,4.39.23,9.96,1.28,13.98-2.18.37-4.58.37-6.46,0,.98-4.16,1.05-9.59,1.05-13.98v-11.23c0-4.46-.23-9.67-1.05-13.98"/><path class="cls-1" d="m519.93,595.76c-3.76.82-5.56,3.05-5.56,6.17s2.55,11.45,2.55,17.33-2.4,9.96-8.11,9.96c-3,0-4.73-.15-6.68-1.12-.45-1.71-.83-2.83-.08-4.16,2.18,1.41,3.76,1.49,6.23,1.49,2.63,0,4.35-2.75,4.35-6.92,0-4.61-3.38-8.03-3.38-14.2,0-5.5,4.2-9.29,7.81-10.26v-.89c-3.83-1.19-7.81-4.91-7.81-10.26,0-6.17,3.45-8.78,3.45-16.88,0-2.68-1.43-4.24-4.28-4.24-2.7,0-4.2.15-6.38.89-.45-1.19-.52-2.15,0-3.64,1.73-.67,3-1.04,6.31-1.04,5.86,0,8.56,4.39,8.56,11,0,4.83-2.55,13.24-2.55,16.28,0,3.35,2.18,5.65,5.56,6.25.53,1.41.53,2.83,0,4.24"/><path class="cls-1" d="m162.51,710.13c-2.85-.59-5.48-.74-8.63-.74-2.85,0-4.28,0-7.66.44,1.13-5.28,1.73-12.19,1.73-17.84v-24.17c0-12.94-.68-20.6-1.73-25.88,3.38.45,4.8.45,7.66.45s4.88-.15,8.63-.74c.83,2.23.68,3.94-.75,5.95-3.68-1.49-6.53-2.01-10.14-2.75-.22,4.98-.37,11-.37,23.13v23.72c0,4.54.15,10.71.37,15.17,3.53-.67,6.38-1.34,9.99-2.53,1.58,2.01,1.8,3.57.9,5.8"/><path class="cls-2" d="m487.7,697.86h-26.58c-.9-.45-1.95-1.41-2.25-2.38,12.24-15.84,19.75-25.8,24.93-33.91-6.68-.22-12.16.59-21.85,2.83-1.05-1.79-1.2-3.79-1.05-5.73h25.76c1.13.82,1.95,1.71,2.7,2.6-12.02,16.28-17.35,23.2-24.78,33.54,5.86-.07,12.69-.45,22.23-2.6.98,1.86.98,3.64.9,5.65m-56.47-27.29l5.93,9.07.23.59c2.48-6.32,4.28-10.11,9.76-21.64,2.55-.22,4.2-.22,6.53,0l-15.09,24.61v.67c0,4.39.23,9.96,1.35,13.98-1.95.37-4.58.37-6.53,0,1.05-4.16,1.2-9.59,1.2-13.98v-.37l-8.94-14.43c-2.33-3.57-3.83-6.39-7.51-10.41,2.25-.3,4.43-.37,6.98-.07,1.2,3.49,3.15,7.06,6.08,11.97m-33.2,4.09h.23c3.38-4.54,5.26-7.88,8.86-15.99,2.18-.45,4.73-.37,6.83,0-7.81,8.48-11.11,13.46-14.49,18.22,5.86,9.15,10.29,14.43,15.62,20.97-2.48.37-4.13.37-6.98,0-2.33-4.83-7.51-12.27-11.41-17.77h-.23c-2.55,4.16-5.26,9.07-9.84,17.85-2.25.3-4.58.3-6.61,0,9.84-12.19,12.32-16.21,15.17-20.45-4.13-6.77-9.46-13.68-13.74-18.81,2.4-.52,5.26-.59,7.21,0,1.5,4.24,4.73,9.15,9.39,15.99m-62.03,2.83l4.05,13.61.38.22c3.08-8.77,7.73-19.85,9.39-27.36-.53-1.49-1.05-3.2-1.73-5.06,2.33-.82,4.96-.74,7.28,0l-.83,3.27c.9,3.27,1.73,7.44,4.36,15.24l4.36,14.2.38-.3c4.88-13.38,6.68-21.12,8.11-32.64,2.03-.45,4.05-.52,6.31,0l-13.67,39.26c-.75.3-2.03.22-2.93-.07l-7.96-23.12c-.38-1.12-.9-2.68-1.73-5.13l-10.74,28.33c-.75.22-2.48.22-3.38-.07l-7.21-22.98c-1.73-5.2-3.3-10.48-6.16-16.13,2.1-.67,4.73-.45,6.53-.07.83,4.61,2.48,9.22,5.18,18.81m-37.78-.15l6.38,14.65.45-.15c3.6-8.92,6.01-15.91,10.59-33.09,1.88-.37,3.6-.45,5.63,0l-16.07,39.19c-.75.22-1.65.15-2.63-.07l-10.74-22.9c-2.33-5.06-4.66-10.56-7.73-16.21,2.33-.6,4.58-.45,6.53-.15,1.28,4.61,3.3,8.92,7.58,18.74m-25.91-4.68c0-5.5-.3-9.74-1.2-13.98,2.03-.37,4.58-.45,6.46,0-.98,4.09-1.2,8.4-1.2,14.05v6.47c0,9.15.3,14.57,1.2,18.66-2.1.45-4.13.37-6.01,0,.6-2.23,1.05-4.83,1.28-7.73l-.38-.07c-1.95,3.49-3.68,5.2-5.56,6.32-2.33,1.34-5.63,2.08-9.91,2.08-7.73,0-11.49-5.28-11.49-10.93,0-3.57.15-5.58.15-8.33v-6.54c0-5.5-.3-9.81-1.2-13.98,2.25-.45,4.73-.37,6.46,0-1.05,4.02-1.2,8.4-1.2,14.05v7.96c0,5.35.15,8.03,1.35,9.96,1.2,2.08,3.6,3.79,7.43,3.79,4.73,0,8.41-1.12,10.59-3.42,1.95-1.93,3.23-5.43,3.23-11.53v-6.84Zm-53.77-11.23c-4.2.22-8.11,1.04-12.76,3.2-1.13-2.01-1.58-3.87-1.43-5.95h33.94c.08,2.16-.3,4.02-1.43,5.95-4.58-2.16-8.79-2.97-12.84-3.2-.68,3.57-.83,7.73-.83,11.3v11.15c0,4.39.3,9.96,1.35,13.98-1.88.37-4.81.37-6.46,0,.98-4.16,1.05-9.59,1.05-13.98v-11.23c0-3.49,0-7.58-.6-11.23m-48.96,33.91c.23-2.01.53-3.64,1.43-5.28,5.41,3.27,8.48,4.39,13.44,4.39,3.68,0,4.43-.74,5.86-1.86,1.5-1.19,2.4-2.97,2.4-4.76,0-3.35-1.88-5.73-10.06-8.18-5.18-1.64-6.76-2.97-8.64-4.54-1.73-1.41-2.48-3.35-2.48-6.02,0-5.58,4.13-11.23,14.72-11.23,3.91,0,6.38.52,9.01,1.86.15,2.08-.23,3.49-1.2,5.21-4.2-2.53-7.06-3.2-11.34-3.2-2.93,0-5.03.97-6.01,1.93-1.05.89-1.73,2.38-1.73,4.09,0,3.64,2.33,5.2,9.76,7.58,5.78,1.93,7.58,3.2,9.54,5.13,1.65,1.71,2.4,3.64,2.4,6.1,0,4.68-3.15,11.82-15.09,11.82-6.16,0-8.63-1.12-12.01-3.05"/><path class="cls-1" d="m508.21,706.86c.22-4.46.37-10.63.37-15.17v-23.72c0-12.12-.15-18.14-.37-23.13-3.6.74-6.53,1.27-10.14,2.75-1.43-2.01-1.58-3.72-.75-5.95,3.75.6,5.78.74,8.63.74s4.28,0,7.66-.45c-1.05,5.28-1.73,12.94-1.73,25.88v24.17c0,5.65.6,12.57,1.73,17.84-3.38-.44-4.8-.44-7.66-.44-3.15,0-5.78.15-8.63.74-.9-2.23-.68-3.79.9-5.8,3.6,1.19,6.46,1.86,9.99,2.53"/><path class="cls-1" d="m527.14,774.17c1.73,2.38,4.36,3.94,8.03,3.94,5.33,0,8.26-1.41,10.44-4.54,2.18-3.35,2.85-9.89,2.85-17.99,0-6.02-.6-13.38-4.2-17.62-1.73-2.08-4.2-3.42-7.58-3.42-4.58,0-8.19,1.79-10.36,4.91-2.25,3.35-2.93,9.44-2.93,17.62,0,5.72.6,12.79,3.75,17.1m20.5,1.64c-3.98,4.91-8.11,6.25-14.79,6.25-3.98,0-7.13-1.64-9.31-4.39-3-3.79-4.43-9.67-4.43-16.36,0-12.27,1.28-18.74,5.63-24.02,3.75-4.61,7.58-6.62,14.19-6.62,4.13,0,7.28,1.71,9.46,4.54,3,3.72,4.36,9.52,4.36,16.14,0,12.27-.83,19.11-5.11,24.46m-53.1-42.23c-3.98,0-6.91,1.41-9.24,3.64-2.4,2.31-3.15,7.51-3.15,11.75,0,6.62,3.53,11.52,10.36,11.52,4.06,0,7.81-1.49,10.36-4.46,2.48-2.9,4.13-5.58,4.13-9.59,0-7.29-4.36-12.86-12.47-12.86m-10.06,1.26c4.13-3.57,8.79-5.06,12.77-5.06,11.11,0,14.19,9.07,14.19,18.66,0,12.49-1.88,21.34-8.11,27.74-4.51,4.68-8.86,5.95-13.67,5.95-4.51,0-7.21-.74-10.29-2.01.15-1.56,1.05-3.27,2.4-4.61,3.38,1.93,7.28,2.45,10.74,2.45,2.93,0,6.53-.82,9.24-3.87,2.78-3.12,4.88-9.59,5.56-19.63l-.68-.15c-4.35,7.51-8.56,10.11-16.44,10.11-6.83,0-12.16-5.5-12.16-13.68,0-7.58,2.55-12.42,6.46-15.91m-30.34,18.96c3.76-1.34,9.09-4.61,9.09-10.78,0-5.43-3-8.62-8.79-8.62-4.28,0-7.73,1.12-9.31,2.75-1.35,1.34-2.18,2.83-2.18,6.25.07,3.05,1.65,7.06,11.19,10.41m-1.65,24.54c6.01,0,9.16-1.41,10.66-2.75,1.5-1.34,3-3.05,3-6.77,0-5.28-4.51-8.4-15.62-12.27-6.53,3.12-9.69,7.21-9.69,11.97,0,6.84,4.06,9.82,11.64,9.82m-15.92-7.66c0-7.44,4.96-12.12,10.59-14.95v-.37c-2.03-.82-4.06-1.86-5.41-3.49-1.58-1.78-2.63-3.72-2.63-6.84,0-7.06,6.91-14.57,17.12-14.57,6.76,0,11.26,4.76,11.26,10.78,0,7.81-6.46,12.42-10.51,13.16l-.07.37c4.81,1.64,7.21,2.6,9.69,4.76,2.18,1.93,3.15,4.02,3.15,7.44,0,9-7.43,15.32-20.5,15.32-6.61,0-12.69-4.39-12.69-11.6m-7.29-35.99c-2.55,3.49-6.46,11.45-7.81,14.13l-3.9,7.51c-4.51,8.7-7.96,17.62-10.96,25.21-2.18.59-4.66.52-7.21,0,6.23-9.22,8.94-14.72,14.49-25.21l10.81-20.45-.6-.59c-8.26,0-15.17.15-27.03,2.45-.68-2.3-.75-3.72-.3-6.17h30.26c1.13.67,1.88,1.71,2.25,3.12m-57.75,43.65c3.45,0,6.08-1.49,8.41-3.72,2.4-2.31,3.45-7.44,3.45-11.67,0-5.65-4.35-11.52-10.36-11.52-4.05,0-8.11,1.34-10.44,4.09-1.73,2.01-4.06,5.8-4.06,9.96,0,7.29,4.36,12.86,12.99,12.86m9.24-1.34c-4.13,3.57-8.48,5.13-11.79,5.13-11.79,0-14.87-9.07-14.87-18.66,0-12.49,2.25-20.97,8.49-27.36,4.51-4.68,8.48-6.32,13.29-6.32,4.51,0,7.21.74,10.29,2.01-.15,1.56-1.05,3.27-2.4,4.61-3.38-1.93-7.28-2.45-10.74-2.45-2.93,0-6.23,1.19-8.94,4.24-2.78,3.12-5.18,9.22-5.86,19.26l.68.15c4.36-7.51,8.56-10.11,16.44-10.11,6.83,0,12.16,6.02,12.16,13.68s-2.85,12.34-6.76,15.84m-53.55,1.49c4.73,0,7.13-1.34,8.64-2.75,2.25-2.08,3.08-6.17,3.08-9.67s-.6-6.1-2.33-7.88c-2.18-2.31-4.43-3.2-8.18-3.2-3.23,0-6.01.22-10.36,1.41-1.43-.22-2.25-.89-3-2.01.45-8.4.83-14.28,1.13-22.9h26.96c.3,2.83.23,5.13-.53,6.84-6.16-2.83-14.42-3.2-22.53-3.05-1.28,4.39-1.95,10.34-2.4,16.51l.23.15c3.75-.97,7.36-1.49,11.11-1.49,4.58,0,7.73,1.12,10.51,3.72,2.18,2.01,3.53,5.73,3.53,9,0,9.59-5.78,18.96-17.57,18.96-4.73,0-9.46-.74-13.07-2.38-.15-2.23.15-4.46,1.28-6.02,3.68,3.12,9.31,4.61,13.52,4.76m-53.32-15.47l.07.37c8.03,0,14.64-.07,20.2-.3v-26.03h-.15c-8.48,11.45-15.24,19.63-20.12,25.95m19.3,18.51c.68-5.43.98-8.77.98-14.72h-22.83c-.3-.97-.53-2.23-.6-3.42l25.23-32.79c1.43-.07,2.4,0,3.38.52-.75,5.87-1.05,11-1.13,15.62l-.15,16.21c2.4-.07,4.66-.15,6.76-.3.15,1.71.15,3.12-.6,4.24l-6.23-.07c0,5.87.23,9.29.83,14.72-1.35.37-4.43.45-5.63,0m-50.24-3.35c6.91,0,9.69-2.08,11.19-4.09.68-.97,2.03-3.42,2.03-6.77,0-3.79-1.88-5.43-4.51-7.44-2.48-1.86-5.33-2.53-12.39-1.56l.23-.15-.3.15c-.53-.45-.75-1.12-.68-2.08,6.16-3.2,10.06-6.02,11.71-7.73,1.58-1.64,3.3-3.87,3.3-6.77s-.68-4.16-1.8-5.13c-1.05-.89-2.48-1.64-6.08-1.64-2.4,0-9.91,1.04-14.87,4.76.3-2.08.6-4.16,1.43-6.1,3.08-1.49,9.84-2.83,14.49-2.9,3.83-.07,6.46.89,8.71,2.6,2.1,1.64,3.08,4.39,3.08,6.32,0,5.28-4.88,10.56-8.79,12.94-1.8,1.19-3,1.34-3.98,1.71v.22c3.75-.22,7.36.59,10.44,2.83,2.1,1.49,4.51,3.72,4.51,9.52,0,6.1-3.83,15.24-17.87,15.24-5.63,0-9.24-.3-13.29-1.71.98-2.6,1.35-3.35,3.08-4.98,4.13,1.86,5.56,2.75,10.36,2.75m-48.06-.52c12.47,0,19.75-.82,25-2.97.9,2.23,1.35,4.61.75,7.06l-30.64-.22c-.6-.45-1.2-1.12-1.2-2.45,14.57-12.79,19.75-19.33,23.5-25.43,2.1-3.12,3.68-6.99,3.68-10.04,0-2.38-.83-4.54-2.25-5.95-1.8-1.78-3.83-2.68-8.18-2.68-5.33,0-11.19,1.19-16.14,4.76.3-2.31,1.13-4.98,1.58-6.1,3.3-1.41,9.61-2.83,14.57-2.83,5.48,0,8.78.74,11.11,2.83,2.48,2.23,3.75,4.76,3.83,9.15-.15,5.8-4.21,11.97-8.04,16.73-3.6,4.54-7.88,9.29-17.8,17.77l.23.37Zm-45.36-.67c3.38.67,7.06,1.78,14.94,1.78.68-4.76.83-8.55.83-15.09v-16.8c0-5.06,0-6.99-.37-12.12l-.45-.37c-4.43,1.41-8.86,3.79-13.89,7.36-1.35-1.26-2.25-2.68-2.33-5.06,6.76-1.49,14.19-4.09,18.85-5.8,1.35.74,2.03,1.26,3.15,2.16-1.28,3.72-1.13,8.55-1.13,13.31v17.4c0,6.39,0,9.74.75,14.87,2.85-.22,6.08-.74,9.46-1.41.53,1.78.3,3.57-.15,4.76-4.96-.37-8.04-.37-12.62-.37h-3.38c-5.18,0-9.54-.07-13.89.3-.53-1.41-.53-3.42.23-4.91m-35.45-2.83c1.73,2.38,4.36,3.94,8.03,3.94,5.33,0,8.26-1.41,10.44-4.54,2.18-3.35,2.85-9.89,2.85-17.99,0-6.02-.6-13.38-4.21-17.62-1.73-2.08-4.2-3.42-7.58-3.42-4.58,0-8.19,1.79-10.36,4.91-2.25,3.35-2.93,9.44-2.93,17.62,0,5.72.6,12.79,3.75,17.1m20.5,1.64c-3.98,4.91-8.11,6.25-14.79,6.25-3.98,0-7.13-1.64-9.31-4.39-3-3.79-4.43-9.67-4.43-16.36,0-12.27,1.28-18.74,5.63-24.02,3.75-4.61,7.58-6.62,14.19-6.62,4.13,0,7.28,1.71,9.46,4.54,3,3.72,4.35,9.52,4.35,16.14,0,12.27-.83,19.11-5.11,24.46"/><path class="cls-2" d="m515.5,851.29c1.05,1.64,2.85,2.6,4.81,2.6,2.4,0,4.21-.82,5.41-2.53,1.2-1.78,1.95-5.5,1.95-10.86,0-4.61-.53-9.15-2.25-11.6-1.05-1.56-2.63-2.45-4.88-2.45-2.1,0-4.28.89-5.41,2.68-1.35,2.08-1.95,5.43-1.95,10.78,0,4.46.68,9,2.33,11.38m12.61,1.49c-2.55,3.2-5.63,4.16-9.39,4.16-2.18,0-4.73-.97-6.23-2.83-2.03-2.53-3.23-6.47-3.23-11.6,0-7.21,1.28-11.67,3.9-14.87,2.4-2.9,5.18-4.16,8.79-4.16,2.78,0,5.18.97,6.61,2.83,2.03,2.53,3.08,6.69,3.08,11.52,0,7.36-1.2,12.05-3.53,14.95m-26.21-42.01h10.14c12.16,0,20.5,2.16,24.48,4.91,6.01,4.16,10.44,10.48,10.44,23.12,0,11.52-3.75,18.51-10.96,24.17-6.31,4.91-14.87,6.39-27.86,6.39h-6.23v-3.05h6.98c11.04,0,20.12-2.6,24.7-6.39,4.96-4.09,8.64-10.78,8.64-20.82,0-9.22-3.6-15.91-6.98-19.03-3.9-3.64-13.22-6.25-24.18-6.25h-9.16v-3.05Zm-13.75,15.69c-2.25,0-3.75.74-5.11,2.01-1.28,1.26-1.88,3.72-1.88,6.32,0,4.68,1.95,7.36,6.53,7.36,2.1,0,4.06-.82,5.48-2.45,1.35-1.56,2.18-3.2,2.18-5.58,0-4.16-2.48-7.66-7.21-7.66m-6.53.07c2.63-2.31,5.48-3.35,8.41-3.35,6.23,0,9.31,5.28,9.31,12.05,0,9.22-1.35,13.68-4.81,17.4-2.78,3.05-5.78,4.39-9.31,4.39-2.63,0-4.96-.74-6.98-1.71-.23-1.41.45-3.2,1.58-4.24,2.33,1.64,4.88,2.23,7.13,2.23,2.1,0,4.28-.67,5.63-2.31,1.73-2.16,2.48-5.87,2.78-10.78l-.45-.15c-2.33,3.87-5.11,5.35-9.01,5.35-4.35,0-8.63-3.35-8.63-9.22,0-4.68,1.8-7.36,4.35-9.67m24.71,42.83h-36.34v-3.05h36.34v3.05Zm-36.34-58.59h36.34v3.05h-36.34v-3.05Zm-12.47,27.21c2.18-1.04,4.73-2.75,4.73-5.95,0-3.57-2.25-5.35-5.11-5.35-2.63,0-4.51.59-5.48,1.49-.83.82-1.35,1.78-1.35,3.64.07,2.01,1.35,4.39,7.21,6.17m-1.28,15.69c3.08,0,5.18-.82,6.01-1.56.9-.89,1.73-2.01,1.73-4.16,0-3.2-3.53-5.13-9.39-7.06-3.6,1.56-5.56,4.02-5.56,6.77,0,4.31,2.48,6.02,7.21,6.02m-10.89-4.09c0-4.39,2.63-7.58,6.46-9.37v-.37c-1.28-.59-2.48-1.26-3.23-2.31-1.05-1.34-1.65-2.45-1.65-4.61,0-4.68,4.51-9.59,11.41-9.59,4.43,0,7.73,2.68,7.73,7.44,0,4.39-3.68,7.06-6.08,7.73l-.08.3c2.7.89,4.13,1.71,5.48,2.97,1.35,1.41,1.88,2.9,1.88,5.06,0,5.13-4.58,10.19-12.84,10.19-4.2,0-9.09-2.08-9.09-7.44m29.13,19.78h-36.34v-3.05h36.34v3.05Zm-36.34-58.59h36.34v3.05h-36.34v-3.05Zm-2.41,15.61c-1.58,2.6-3.6,7.21-4.43,8.85l-2.4,4.98c-2.78,5.72-5.18,11.9-6.91,16.36-2.4.52-4.28.45-6.16,0,4.05-6.1,6.61-10.19,10.14-17.03l6.01-11.82-.38-.37c-4.58,0-10.81.07-17.2,1.71-.53-1.86-.53-3.27-.23-5.06h20.2c.6.52,1.13,1.41,1.35,2.38m6.91,42.98h-36.34v-3.05h36.34v3.05Zm-36.34-58.59h36.34v3.05h-36.34v-3.05Zm-13.22,42.98c2.1,0,3.68-.82,4.96-2.08,1.28-1.41,1.95-4.02,1.95-6.77,0-3.87-2.7-6.84-6.61-6.84-2.1,0-4.13.82-5.41,2.31-1.05,1.19-2.25,3.27-2.25,5.43,0,4.68,2.33,7.96,7.36,7.96m6.31-.15c-2.63,2.38-5.41,3.42-8.11,3.42-6.46,0-9.46-5.35-9.61-13.46,0-7.44,1.8-12.27,5.33-15.91,2.78-3.05,5.63-4.54,9.16-4.54,2.85,0,4.88.59,6.61,1.49.15,1.56-.3,2.9-1.28,4.16-2.4-1.56-4.96-2.08-7.21-2.08-2.1,0-4.2.89-5.63,2.53-1.8,2.01-3.23,5.8-3.23,11.15l.45.15c2.48-4.31,5.26-5.8,9.39-5.8,4.88,0,8.56,3.57,8.56,8.85,0,4.76-1.8,7.73-4.43,10.04m11.41,15.76h-36.34v-3.05h36.34v3.05Zm-36.34-58.59h36.34v3.05h-36.34v-3.05Zm-14.8,42.98c2.4,0,3.98-.74,4.88-1.64,1.28-1.26,1.8-3.64,1.8-5.73s-.38-3.72-1.5-4.76c-1.35-1.26-2.7-1.86-4.88-1.86s-3.98.22-6.61,1.04c-1.05-.45-1.65-1.41-1.95-2.53.3-5.43.45-8.85.68-14.43h17.95c.23,1.93.08,3.94-.37,5.43-3.98-1.78-9.16-2.08-14.34-1.93-.68,2.6-1.05,5.95-1.35,9.29l.15.15c1.95-.52,4.2-.89,6.53-.89,3.08,0,5.33.74,7.06,2.38,1.73,1.56,2.48,3.64,2.48,6.32,0,6.17-4.05,12.42-11.64,12.42-3.3,0-6.38-.67-8.71-1.78-.07-1.79.38-3.87,1.73-5.06,2.33,2.45,5.48,3.57,8.11,3.57m19.3,15.62h-36.34v-3.05h36.34v3.05Zm-36.34-58.59h36.34v3.05h-36.34v-3.05Zm-21.63,34.43l.07.3c4.43-.07,8.26-.07,11.49-.3l.08-15.84h-.15c-5.11,7.14-8.71,11.9-11.49,15.84m10.89,11.3c.38-3.2.6-5.28.68-8.33h-13.82c-.6-.74-1.13-1.71-1.35-2.6l17.12-22.38c.9,0,1.8.22,2.48.59-.45,3.87-.68,7.14-.68,10.19l-.15,11c1.58-.07,2.93-.22,4.2-.37.15,1.26.15,2.53-.23,3.57h-3.98c0,3.05.3,5.13.6,8.33-1.13.37-3.75.45-4.88,0m15.69,12.86h-10.14c-12.16,0-20.5-2.16-24.48-4.91-6.01-4.16-10.44-10.48-10.44-23.12,0-11.52,3.75-18.51,10.96-24.17,6.31-4.91,14.87-6.39,27.86-6.39h6.23v3.05h-6.98c-11.04,0-20.12,2.6-24.7,6.39-4.96,4.09-8.64,10.78-8.64,20.82,0,9.22,3.6,15.91,6.98,19.03,3.91,3.64,13.22,6.25,24.18,6.25h9.16v3.05Zm-99.73-15.76c3,0,4.36-.97,5.26-2.08.6-.67,1.28-2.23,1.28-4.24s-.9-3.49-2.33-4.54c-1.73-1.26-3.53-1.64-7.73-1.12-.53-.59-.6-1.64-.38-2.68,3.6-1.78,5.93-3.35,6.98-4.39.98-.97,2.03-2.31,2.03-3.87,0-1.41-.37-2.16-1.05-2.68-.75-.52-2.25-.97-4.2-.97s-6.16.82-8.94,2.9c-.08-1.19,0-3.27.68-4.61,1.95-1.19,6.16-2.01,9.16-2.08,2.48-.07,4.88.6,6.38,1.64,1.5,1.04,2.18,2.75,2.18,4.39,0,3.12-2.78,5.95-5.26,7.66-.98.74-1.88.97-2.7,1.34v.15c2.4,0,4.43.82,6.31,2.08,1.58,1.04,2.93,2.97,2.93,6.02,0,4.68-3.53,10.41-11.71,10.41-3.68,0-6.38-.59-8.86-1.56.3-1.93.75-3.57,2.33-4.76,2.48,2.01,4.36,2.97,7.66,2.97m-17.35-42.83h10.14c12.16,0,20.5,2.16,24.48,4.91,6.01,4.16,10.44,10.48,10.44,23.12,0,11.52-3.75,18.51-10.96,24.17-6.31,4.91-14.87,6.39-27.86,6.39h-6.23v-3.05h6.98c11.04,0,20.12-2.6,24.7-6.39,4.96-4.09,8.64-10.78,8.64-20.82,0-9.22-3.6-15.91-6.98-19.03-3.9-3.64-13.22-6.25-24.18-6.25h-9.16v-3.05Zm-17.88,42.31c7.81,0,12.09-.67,15.54-2.08.6,2.01.83,3.64.23,5.73l-19.9-.22c-.45-.52-.83-1.26-.9-2.38,9.16-8.4,12.16-11.97,14.34-15.47,1.2-1.86,2.4-4.39,2.4-6.17,0-1.41-.38-2.53-1.43-3.49-1.05-.97-2.63-1.49-5.11-1.49-3.15,0-6.46.67-9.31,2.83-.15-1.64.23-3.79.75-4.91,2.03-.89,5.78-1.79,9.01-1.79,3.9,0,6.01.74,7.66,2.16,1.65,1.41,2.25,3.2,2.25,6.32s-2.25,6.99-4.81,10.04c-2.33,2.97-5.93,6.62-10.81,10.71l.08.22Zm22.75,16.28h-10.14c-12.16,0-20.5-2.16-24.48-4.91-6.01-4.16-10.44-10.48-10.44-23.12,0-11.52,3.75-18.51,10.96-24.17,6.31-4.91,14.87-6.39,27.86-6.39h6.23v3.05h-6.98c-11.04,0-20.12,2.6-24.71,6.39-4.96,4.09-8.64,10.78-8.64,20.82,0,9.22,3.6,15.91,6.98,19.03,3.9,3.64,13.22,6.25,24.18,6.25h9.16v3.05Zm-107.99-16.51c3.15.45,4.88,1.04,9.31,1.04.45-2.68.6-4.91.6-8.18v-11.3c0-3.2-.08-4.68-.3-7.44l-.23-.15c-2.7.82-5.48,2.31-8.33,4.39-1.2-.97-1.8-2.38-1.8-4.16,4.51-.82,9.39-2.6,12.54-3.5.9.37,1.58.67,2.33,1.26-.6,2.68-.6,5.8-.6,9.37v11.6c0,3.12.15,5.2.53,7.96,1.8-.15,3.68-.45,5.93-.82.53,1.41.37,2.68-.08,3.87-3.68-.15-5.48-.15-8.49-.15h-2.4c-3.15,0-5.56-.15-9.09.15-.53-1.26-.53-2.68.08-3.94m27.26-33.09c-5.18-3.64-10.29-5.06-17.35-5.06-5.71,0-11.79,2.08-16.52,6.02-4.81,4.02-7.96,10.63-7.96,20.22.08,7.06,2.4,14.5,7.06,17.77,5.18,3.64,10.29,5.06,17.34,5.06,5.71,0,12.09-1.04,16.6-5.21,4.73-4.31,7.88-11.45,7.88-21.04-.08-7.06-2.4-14.5-7.06-17.77m2.18,41.64c-6.16,4.98-14.87,6.32-22.6,6.32-8.94,0-13.97-2.23-17.95-5.5-5.48-4.54-8.79-11-8.79-19.56,0-11.38,4.66-19.48,10.96-24.61,6.16-4.98,14.12-7.29,21.85-7.29,8.94,0,13.97,2.23,17.95,5.5,5.48,4.54,8.79,11,8.79,19.56,0,11.38-3.91,20.45-10.21,25.58"/><path class="cls-1" d="m178.51,925.96c4.81.74,28.98.89,53.09.82v-.97c-5.86-1.93-13.89-7.44-17.87-10.56.3-1.79,1.13-2.75,2.7-3.79,6.46,5.72,16.22,12.64,22.3,15.69.53,1.12.45,1.93,0,2.83-6.08,3.05-15.84,9.96-22.3,15.69-1.58-.89-2.55-2.01-2.85-3.79,3.98-3.12,12.16-8.62,18.02-10.56v-.82c-23.95.07-48.13.07-53.09.82-.68-2.53-.68-2.83,0-5.35"/><path class="cls-2" d="m284.85,929.53c-2.78-.52-5.33-.45-7.51-.45-4.73,0-6.38,2.83-6.38,6.1,0,2.01.3,2.75,1.2,3.72.52.52,1.43.89,2.93.89,3.83,0,5.48-.89,6.91-2.53,1.05-1.26,2.85-3.94,2.85-7.51v-.22Zm6.38,11.23c1.88,0,3.83-.37,4.96-1.12,2.93-1.93,5.86-3.79,5.86-13.61,0-7.88-2.55-13.61-6.91-17.18-4.28-3.57-10.81-4.98-14.79-4.98-6.46,0-13.37,2.38-17.42,5.73-3.45,2.9-8.48,9.59-8.48,19.63,0,7.96,2.1,15.02,5.78,19.03,3.6,3.87,9.91,7.06,19,7.06s14.79-2.53,19-5.65c.53,2.38.15,3.64-.83,5.58-3.83,2.31-8.94,3.27-19.37,3.27-9.09,0-15.99-2.08-20.95-7.36-5.03-5.35-7.28-11.38-7.28-21.34,0-10.71,5.78-17.7,11.64-22.31,6.61-5.21,14.04-7.21,22-7.21,6.23,0,11.04,2.08,15.47,6.02,4.36,3.94,7.44,11.15,7.44,18.07,0,7.66-2.63,15.24-10.51,18.37-3,1.19-8.41.67-10.89-1.49.22-1.26.45-2.45.68-5.06l-.68-.15c-1.58,3.27-2.78,4.68-4.43,5.58-2.55,1.26-5.03,1.41-6.91,1.41-4.58,0-6.38-3.2-6.38-6.1,0-4.31,1.58-6.25,3.6-7.66,3.15-2.16,9.61-2.83,14.04-2.53,0-3.57-.08-5.65-1.8-7.36-.98-.97-2.55-1.34-5.33-1.34-3.15,0-5.86.6-9.39,3.79-.08-1.86.3-3.64.83-4.68,2.33-1.49,6.16-2.31,9.31-2.31s5.78.6,7.58,1.86c1.73,1.26,2.7,3.87,2.7,5.88,0,2.6-.37,4.68-.37,7.21v2.08c0,7.44.15,8.85,2.85,8.85"/><path class="cls-2" d="m333.52,945.36c5.03,0,8.41-2.01,11.71-5.28-2.93-2.75-7.28-6.92-12.39-12.12-2.25-2.3-4.06-4.16-5.56-5.87-3.68,3.12-6.38,6.17-6.38,11.3,0,9.07,5.48,11.97,12.61,11.97m-16.97-9.37c0-7.51,3.75-12.49,9.76-14.94-3.9-4.54-4.95-6.99-4.95-10.19s1.5-6.54,3.3-8.33c3.75-3.87,7.51-5.21,13.66-5.21,3.3,0,6.53,1.04,9.01,2.6-.45,1.79-1.35,3.42-3.15,4.61-2.93-2.31-6.16-3.27-9.61-3.27s-5.86.67-7.81,2.75c-1.28,1.41-2.1,2.9-2.1,5.65,0,2.97,1.43,4.61,6.38,9.74,7.36,7.73,12.47,12.86,16.67,16.73,3.46-5.95,4.06-13.09,3.15-22.6,2.48-.37,5.11,0,6.83.97-1.28,8.48-3.6,16.43-8.48,23.05,3.98,3.72,7.06,6.25,10.66,9.22-2.25,1.86-3.3,2.6-6.16,2.83-.98-2.08-3.61-4.76-5.11-6.32-.3-.3-.9-.89-1.8-1.71-4.05,5.87-8.56,7.88-16.82,7.88s-13.44-6.39-13.44-13.46"/><path class="cls-2" d="m406.89,905.43c-3.3-2.3-6.61-3.12-10.44-3.12-4.36,0-7.06,1.79-9.76,4.98-1.65,2.01-2.78,4.91-3.38,8.77,5.18.15,14.27,0,19-.45.6,1.11.68,2.75,0,3.72-4.73-.37-13.89-.67-19.3-.6-.15,1.71-.23,3.64-.23,5.72,0,1.19.08,2.38.15,3.57,5.11.15,14.49,0,19.37-.45.68,1.12.68,2.9,0,3.94-4.66-.37-13.59-.6-19-.6.68,4.39,1.95,8.25,3.68,10.41,2.85,3.57,7.28,4.09,11.49,4.09,4.58,0,7.96-1.56,11.71-4.24.68,2.08.15,3.94-.52,5.8-3.3,1.56-7.58,2.46-13.07,2.46-4.66,0-10.14-1.04-13.37-4.61-2.93-3.35-4.88-8.4-5.25-13.83-2.33.07-4.43.3-6.76.52-.68-.97-.75-2.75,0-3.94,2.4.3,4.43.45,6.68.52,0-3.57.3-6.62.75-9.29-2.78.07-5.03.22-7.66.52-.68-.97-.75-2.53,0-3.72,2.86.37,5.33.52,8.26.52,1.2-4.76,3.15-8.18,5.71-11.15,4.28-4.83,9.09-6.92,15.77-6.92,3.15,0,6.98.97,9.69,2.68-.53,2.01-1.73,3.57-3.53,4.68"/><path class="cls-1" d="m442.35,941.87c-.3,1.79-1.28,2.9-2.85,3.79-6.46-5.72-16.22-12.64-22.3-15.69-.45-.89-.52-1.71,0-2.82,6.08-3.05,15.84-9.96,22.3-15.69,1.58,1.04,2.4,2.01,2.7,3.79-3.98,3.12-12.01,8.63-17.87,10.56v.97c24.1.07,48.28-.07,53.09-.82.68,2.53.68,2.83,0,5.35-5.03-.74-29.88-.74-53.09-.82v.82c5.86,1.93,14.04,7.44,18.02,10.56"/></svg>