<?xml version="1.0" encoding="UTF-8"?><svg id="Big_Sticker" xmlns="http://www.w3.org/2000/svg" xmlns:xlink="http://www.w3.org/1999/xlink" viewBox="0 0 2672.51 2672.51"><defs><style>.cls-1{fill:url(#linear-gradient);}.cls-2{fill:#fff;}.cls-3{fill:#f1f2f2;}</style><linearGradient id="linear-gradient" x1="-77.1" y1="3140.98" x2="1999.5" y2="487.24" gradientUnits="userSpaceOnUse"><stop offset=".11" stop-color="#fff"/><stop offset=".91" stop-color="#231f20"/></linearGradient></defs><ellipse class="cls-1" cx="1336.27" cy="1334.79" rx="1228.82" ry="1224.58"/><path class="cls-3" d="m1347.72,538.65c4.93-1.16,8.75-2.21,11.46-3.17s4.73-2.18,6.07-3.67c1.34-1.49,2.25-3.65,2.71-6.49.46-2.84.92-6.79,1.39-11.84l6.42-69.82c.46-5.05.73-9.02.79-11.9.06-2.88-.43-5.17-1.48-6.88-1.05-1.71-2.82-3.28-5.3-4.71-2.48-1.43-6.05-3.17-10.69-5.21l.73-7.98,38.7,3.56-.6-.05c-.39,4.26-.72,7.85-.99,10.77-.27,2.93-.57,6.22-.91,9.88-.34,3.66-.8,8.75-1.4,15.26l-6.23,67.83c-.57,6.25-1.03,11.21-1.37,14.86-.34,3.66-.64,6.98-.92,9.97-.27,2.99-.61,6.68-1.02,11.07l.6.05-38.7-3.56.73-7.98Zm69.16-126.43c15.56,1.43,28.85,5.3,39.87,11.61,11.02,6.31,19.22,14.84,24.61,25.6,5.38,10.75,7.4,23.51,6.04,38.28-1.32,14.36-5.46,26.63-12.43,36.78-6.97,10.16-16.44,17.64-28.42,22.44-11.98,4.8-26.14,6.45-42.5,4.95l-22.74-2.09,1.1-11.97,22.94,2.11c9.97.92,19.31-.37,28.02-3.86,8.7-3.49,15.96-9.46,21.76-17.92,5.81-8.45,9.35-19.66,10.63-33.63,1.19-12.9-.34-23.67-4.57-32.31-4.24-8.64-10.34-15.23-18.3-19.79-7.97-4.55-16.93-7.29-26.91-8.21l-26.13-2.4,1.1-11.97,25.93,2.38Z"/><path class="cls-3" d="m1513.82,563.3c-6.31-6.49-10.67-14.19-13.1-23.11-2.43-8.92-2.37-18.22.17-27.91,2.61-9.95,7.23-18.37,13.87-25.26,6.64-6.89,14.38-11.69,23.25-14.41,8.86-2.72,17.94-2.86,27.24-.42,10.2,2.68,18.45,7.32,24.72,13.94,6.27,6.61,10.49,14.35,12.66,23.2,2.17,8.85,2.01,18-.46,27.43-2.41,9.18-6.6,17.29-12.59,24.35-5.99,7.06-13.44,12.15-22.33,15.27-8.9,3.12-18.96,3.21-30.2.26-9.18-2.41-16.92-6.85-23.22-13.34Zm45.41.2c5.22-2.29,9.82-6.12,13.78-11.5,3.96-5.38,6.83-11.98,8.61-19.8,2.01-8.72,2.3-16.41.87-23.07-1.43-6.66-4.05-12.07-7.86-16.25-3.81-4.17-8.42-6.97-13.85-8.39-6.59-1.73-12.53-1.32-17.82,1.23-5.3,2.55-9.79,6.55-13.5,11.99-3.71,5.45-6.41,11.68-8.11,18.69-1.87,7.66-2.23,14.84-1.1,21.56,1.14,6.72,3.58,12.43,7.31,17.14,3.74,4.71,8.83,7.91,15.29,9.6,5.68,1.49,11.14,1.09,16.37-1.2Z"/><path class="cls-3" d="m1715.21,527.59l-3.52,6.75c-3.09-1.01-5.41-1.62-6.96-1.83-1.55-.21-2.8.46-3.75,2-.95,1.54-1.8,4.45-2.53,8.74l-11.94,62.25.18.09c4.26-4.41,8.17-8.43,11.73-12.07,3.56-3.64,7.48-7.62,11.77-11.93,4.29-4.31,8.56-8.67,12.82-13.08,4.26-4.41,8.17-8.43,11.73-12.07,3.56-3.64,6.45-6.58,8.67-8.81,2.22-2.23,3.36-3.4,3.42-3.52l12.08,6.31c-.24.18-1.63,1.45-4.14,3.82-2.52,2.38-6.03,5.7-10.53,9.98l-64.03,63.75-14.21-7.42,16.2-90.31c.29-2.86.18-5.18-.32-6.95-.51-1.77-1.44-3.31-2.79-4.62-1.35-1.31-3.15-2.7-5.39-4.17l3.52-6.75,38,19.85Zm57,29.77l-3.52,6.75c-4.22-1.45-7.03-1.83-8.45-1.13-1.42.69-2.58,3.36-3.5,8l-11.81,65.03-.18-.09,40.81-42.65c3.48-4.06,5.68-7.05,6.61-8.98.93-1.92.76-3.63-.49-5.12-1.26-1.48-3.42-3.63-6.47-6.43l3.52-6.75,34.27,17.9-3.52,6.75c-3.27-.95-5.82-1.49-7.63-1.61-1.82-.12-3.43.21-4.81.99-1.39.78-3.15,2.2-5.27,4.25l-63.32,64.12-13.67-7.14,15.94-90.67c.48-3.51-.07-6.44-1.64-8.77-1.57-2.33-3.77-4.53-6.6-6.61l3.52-6.75,36.23,18.92Z"/><path class="cls-3" d="m1829.73,637.88l39.97,30.18c3.54-4.69,5.84-9.18,6.92-13.48,1.07-4.3.99-8.25-.22-11.84-1.22-3.6-3.53-6.68-6.94-9.26-4.05-3.06-8.58-4.76-13.59-5.11-5.01-.35-10.22.95-15.62,3.9-5.41,2.95-10.72,7.89-15.95,14.81-5.07,6.71-8.28,13.46-9.62,20.22-1.34,6.77-.92,13.07,1.28,18.92,2.2,5.84,6.02,10.82,11.45,14.92,4.16,3.14,9.02,5.35,14.58,6.62,5.56,1.27,11.39,1.87,17.48,1.78l-2.11,9.45c-3.53,1.35-7.84,2.07-12.93,2.16-5.09.09-10.44-.69-16.06-2.34-5.62-1.65-11.04-4.44-16.26-8.39-7.57-5.71-12.96-12.42-16.18-20.13-3.22-7.7-4.12-15.83-2.69-24.37,1.43-8.54,5.32-17.02,11.68-25.45,6.68-8.85,14.3-15.35,22.88-19.5,8.57-4.15,17.29-5.94,26.14-5.36,8.85.58,16.96,3.64,24.31,9.19,6.71,5.07,11.42,10.97,14.13,17.7,2.7,6.73,3.01,14.07.93,22.04-2.08,7.97-6.83,16.52-14.23,25.66l-56.28-42.49,6.92-9.83Z"/><path class="cls-3" d="m1910.28,783.55c4.41,2.5,7.93,4.31,10.57,5.44,2.64,1.13,4.95,1.61,6.95,1.43s4.13-1.15,6.39-2.93c2.27-1.77,5.29-4.36,9.06-7.76l51.35-46.26c3.37-3.04,5.95-5.36,7.74-6.97,1.79-1.61,3.35-3.02,4.69-4.22s3.03-2.73,5.06-4.56c2.03-1.83,4.93-4.45,8.71-7.84l.6-.54,12.74,14.14-.6.54c-3.18,2.86-5.71,5.14-7.59,6.84-1.89,1.7-3.62,3.26-5.21,4.69-1.59,1.43-3.38,3.04-5.36,4.83-1.99,1.79-4.66,4.2-8.04,7.24l-51.35,46.26c-3.77,3.4-6.64,6.15-8.59,8.28-1.96,2.12-3.17,4.11-3.65,5.98-.48,1.87-.27,4.19.63,6.98.89,2.79,2.36,6.51,4.38,11.15l-5.95,5.36-38.48-42.72,5.95-5.36Zm95.34-73.76c-5.01-5.56-9.67-9.58-13.98-12.08-4.32-2.49-8.79-3.27-13.43-2.33-4.64.94-10.15,3.75-16.54,8.43l-6.03-6.7,31.56-25.73.27.3c2.32,2.58,4.71,5.23,7.17,7.96,2.46,2.73,5.97,6.62,10.53,11.68l28.96,32.15-8.93,8.05-19.58-21.73Zm15.77-.45l27.35,30.37c5.01,5.56,8.96,9.95,11.87,13.17,2.9,3.22,5.61,6.23,8.11,9.01l.27.3-31.56,25.73-6.03-6.7c5.59-5.57,9.31-10.37,11.18-14.38,1.86-4.02,1.94-8.13.22-12.33-1.72-4.2-5.08-9.08-10.09-14.64l-20.25-22.48,8.93-8.05Z"/><path class="cls-3" d="m1972.44,855.84c3.06,2.75,5.55,4.8,7.47,6.15,1.92,1.35,3.77,1.97,5.57,1.86,1.79-.11,4.04-.98,6.73-2.61,2.69-1.63,6.33-4.05,10.93-7.26l21.03-14.67c5.69-3.97,10.07-7.15,13.14-9.53,3.06-2.38,5.08-4.56,6.06-6.55.97-1.98,1.16-4.23.55-6.74-.61-2.51-1.68-5.91-3.22-10.21l6.24-4.36,23.85,26.84-8.87,6.19-48.47,33.81c-4.6,3.21-8.13,5.79-10.59,7.75-2.46,1.96-4.05,3.76-4.78,5.41-.73,1.64-.77,3.63-.12,5.95.64,2.32,1.72,5.39,3.25,9.21l-6.57,4.58-28.77-41.24,6.57-4.58Zm84.35-16.34c5.03-.25,9.82.36,14.35,1.84,4.53,1.48,8.63,3.51,12.3,6.08,3.67,2.57,6.57,5.39,8.71,8.46.15.22.34.49.57.82.23.33.42.6.57.82l-17.75,12.38c-2.14-3.07-4.22-6.05-6.25-8.96-2.03-2.9-3.97-5.34-5.82-7.3-2.84-2.9-6.33-4.99-10.47-6.25-4.14-1.26-8.62-.22-13.44,3.14l16.76-11.69.46.66Z"/><path class="cls-3" d="m2063.59,981.99c-6.94-.29-13.74-2.18-20.41-5.7-6.67-3.51-11.59-8.29-14.75-14.32-3.91-7.45-5.33-13.98-4.28-19.59,1.05-5.61,4.14-10.65,9.25-15.14,5.11-4.49,11.75-8.88,19.91-13.16l15.61-8.19c6.15-3.22,10.89-5.83,14.23-7.8,3.34-1.98,5.61-3.89,6.83-5.73,1.22-1.85,1.68-4.05,1.4-6.61-.29-2.56-.92-6.08-1.91-10.54l6.74-3.54,20.29,29.63-.71.37c-2.37,1.24-4.17,2.19-5.41,2.84-1.24.65-2.57,1.35-3.99,2.09-1.42.74-3.49,1.83-6.21,3.26-2.72,1.43-6.74,3.54-12.06,6.33l-22,11.54c-4.85,2.54-9.29,5.14-13.33,7.79-4.04,2.65-6.74,5.84-8.1,9.57-1.36,3.73-.52,8.49,2.52,14.29,1.98,3.78,5.1,7.43,9.35,10.93,4.25,3.5,9.85,5.99,16.81,7.47l-9.4,4.93-.37-.71Zm82.64-22.31c-2.25,1.18-4.41,2.31-6.48,3.4-2.07,1.09-4.94,2.59-8.61,4.51-3.67,1.92-9.05,4.75-16.14,8.47l-23.24,12.19c-6.39,3.35-11.28,6.03-14.67,8.04-3.4,2.01-5.68,3.84-6.84,5.51-1.16,1.66-1.51,3.58-1.05,5.76.46,2.17,1.35,5.1,2.68,8.77l-6.74,3.54-18.83-28.13,5.85-3.07,47.19-24.75c6.15-3.22,10.89-5.83,14.23-7.8,3.34-1.98,5.63-3.86,6.88-5.64,1.25-1.79,1.74-3.93,1.49-6.44-.26-2.5-.82-5.87-1.67-10.09l6.74-3.54,19.92,28.92-.71.37Z"/><path class="cls-3" d="m2071.52,1027.76c2.31,3.41,4.24,5.99,5.77,7.76,1.54,1.77,3.19,2.81,4.96,3.14,1.77.32,4.15.01,7.16-.93,3-.94,7.12-2.41,12.36-4.43l66.94-25.74c6.98-2.68,12.37-4.86,16.16-6.53,3.79-1.67,6.41-3.32,7.86-4.95,1.45-1.63,2.06-3.66,1.85-6.08-.22-2.42-.76-5.68-1.62-9.79l7.11-2.73,16.43,31.03-9.72,3.74-98.55,37.88c-5.24,2.01-9.28,3.68-12.14,4.99-2.86,1.31-4.84,2.68-5.93,4.11-1.1,1.42-1.62,3.34-1.55,5.75.07,2.41.38,5.65.95,9.72l-7.48,2.87-18.04-46.94,7.48-2.88Z"/><path class="cls-3" d="m2072.13,1130.13c-8.15-1.43-15.21-4.05-21.18-7.88-5.97-3.83-10.01-9.54-12.1-17.14-.71-2.58-1.49-5.55-2.35-8.91-.86-3.37-1.52-6.65-1.98-9.84l19.07-3.18c.2,2.72.48,5.51.86,8.39.38,2.87.95,5.69,1.71,8.47.76,2.77,1.88,5.33,3.37,7.7,2.03,3.32,4.8,5.85,8.32,7.58,3.53,1.73,7.73,2.92,12.63,3.59,4.89.66,10.46,1.13,16.7,1.42,6.24.29,13.14.57,20.7.84l-20.23,11.81c-8.86-.47-17.36-1.42-25.51-2.84Zm121.86-43.44l-7.34,2.02c-1.55-3.59-3.08-6.01-4.6-7.25-1.52-1.24-3.13-1.67-4.82-1.27-1.69.4-3.49,1.27-5.4,2.63-1.91,1.36-4.03,2.84-6.36,4.45l-46.51,34.84.27.97,54.87,3.79c2.11.11,4.21.19,6.3.24,2.09.05,4-.06,5.73-.33,1.72-.27,3.23-.82,4.53-1.66,1.29-.84,2.22-2.14,2.77-3.88.56-1.75.64-4.09.25-7.03l7.34-2.02,10.48,38.05-7.34,2.02c-1.36-2.4-2.86-4.34-4.51-5.82-1.66-1.49-3.44-2.69-5.36-3.61-1.92-.93-3.95-1.65-6.1-2.16-2.15-.52-4.37-.91-6.66-1.18-2.29-.27-4.57-.51-6.85-.71l-77.03-5.79-6.18-12.64,67.11-51.32c2.33-1.61,4.5-3.28,6.51-5.02,2.02-1.73,3.77-3.53,5.27-5.4,1.49-1.87,2.64-3.88,3.43-6.04.79-2.16,1.09-4.59.89-7.31l7.34-2.02,11.97,43.46Z"/><path class="cls-3" d="m2123.4,1214.36c2.26,4.36,4.29,7.67,6.1,9.92s3.72,3.83,5.74,4.73c2.02.89,4.54,1.31,7.55,1.25s6.91-.3,11.7-.72l68.45-6c4.79-.42,8.67-.89,11.64-1.42,2.97-.53,5.44-1.42,7.41-2.66,1.97-1.25,3.65-3.14,5.03-5.67,1.39-2.53,2.89-6.09,4.5-10.65l5.79-.51,3.18,36.32c-4.26.37-7.85.69-10.78.95-2.93.26-6.22.54-9.88.87-3.66.32-8.75.77-15.27,1.34l-67.85,5.95c-6.25.55-11.21.98-14.87,1.3-3.66.32-6.98.61-9.98.87s-6.69.59-11.08.97l-3.18-36.32,5.79-.51Zm138.31,38.35c.85,9.71.44,18.39-1.24,26.05-1.68,7.65-4.83,13.76-9.45,18.32-4.63,4.56-10.87,7.19-18.72,7.88-7.98.7-15.07-1.03-21.27-5.17-6.2-4.15-11.13-11.16-14.81-21.02l-.8.07c-.36,6.6-1.73,12.75-4.11,18.46-2.38,5.71-5.86,10.37-10.44,13.99-4.58,3.62-10.46,5.74-17.64,6.37-6.92.61-13.3-.64-19.13-3.75-5.84-3.11-10.65-8.25-14.42-15.43-3.78-7.18-6.18-16.55-7.19-28.13l-1.99-22.75,12.77-1.12,2.03,23.15c.78,8.91,3.3,15.9,7.57,20.96s10.72,7.21,19.37,6.45c6.65-.58,11.88-2.82,15.7-6.71,3.81-3.89,6.44-8.78,7.86-14.67,1.43-5.89,1.83-12.36,1.21-19.41l12.84,1.89c.96,9.43,3.76,16.49,8.39,21.19,4.63,4.69,10.81,6.69,18.53,6.02,8.65-.76,14.69-4.04,18.14-9.84,3.44-5.8,4.77-13.22,3.98-22.27l-1.15-13.17,12.77-1.12,1.21,13.77Z"/><path class="cls-3" d="m2191.56,1355.16l-2.69,50.01c5.6.3,10.48-.24,14.63-1.62,4.15-1.38,7.45-3.61,9.89-6.69,2.44-3.08,3.78-6.89,4.03-11.42.27-5.07-.85-9.78-3.35-14.12-2.51-4.35-6.46-7.94-11.86-10.77-5.4-2.83-12.37-4.48-20.9-4.94-9.07-.49-16.79.67-23.16,3.47-6.37,2.8-11.3,6.71-14.78,11.74-3.48,5.03-5.4,10.88-5.76,17.55-.3,5.6.67,11.14,2.92,16.61,2.24,5.47,5.71,10.61,10.41,15.41l-13.95,2.06c-2.69-2.29-5.22-5.43-7.62-9.44-2.39-4.01-4.32-8.63-5.77-13.85-1.45-5.23-2.02-10.98-1.68-17.24.5-9.2,3.04-17.39,7.64-24.57,4.6-7.18,10.88-12.69,18.85-16.54,7.96-3.85,17.28-5.49,27.95-4.92,11.07.6,20.69,3.25,28.86,7.97,8.17,4.72,14.46,10.88,18.87,18.47,4.41,7.59,6.36,16.06,5.86,25.39-.49,9.07-2.87,16.6-7.14,22.59-4.27,5.99-10.38,10.24-18.34,12.76-7.96,2.51-17.73,3.19-29.3,2.03l3.78-70.22,12.62.28Z"/><path class="cls-3" d="m2125.03,1437.48c.68,4.17,1.48,7.44,2.39,9.82.9,2.38,2.2,4.21,3.89,5.49,1.69,1.28,4.07,2.24,7.15,2.87,3.08.62,6.99,1.32,11.74,2.08l70.82,11.32c6.73,1.08,12.11,1.87,16.16,2.38,4.04.51,7.27.42,9.68-.28,2.41-.7,4.39-2.11,5.95-4.22,1.56-2.12,3.17-5.07,4.86-8.86l5.54.88-.92,34.95-10.29-1.64-104.65-16.72c-4.75-.76-8.69-1.29-11.82-1.58-3.13-.3-5.69-.13-7.69.5-2,.63-3.8,1.96-5.41,4.01-1.61,2.04-3.39,4.94-5.34,8.68l-5.74-.92,7.93-49.65,5.74.92Z"/><path class="cls-3" d="m2114.66,1499.3c.35,4.21.88,7.56,1.59,10.07.7,2.5,1.86,4.4,3.47,5.68,1.61,1.28,3.91,2.42,6.9,3.42,2.99,1,6.82,2.06,11.49,3.19l25.31,6.12c6.1,1.47,11.06,2.54,14.89,3.19,3.83.65,6.93.75,9.31.29,2.38-.46,4.5-1.7,6.36-3.72,1.86-2.02,4.08-4.92,6.64-8.7l5.45,1.32-3.8,35.36-10.13-2.45-58.22-14.07c-4.67-1.13-8.55-2-11.63-2.6-3.08-.61-5.65-.64-7.7-.11-2.06.53-3.96,1.72-5.71,3.57-1.75,1.84-3.76,4.62-6.03,8.33l-5.65-1.36,11.81-48.88,5.65,1.36Zm110.2,42.91c1.83-1.9,3.97-3.2,6.41-3.91,2.44-.72,4.89-.78,7.36-.18,3.89.94,6.88,3.1,8.94,6.49,2.07,3.39,2.63,7.03,1.69,10.92-.94,3.9-3.1,6.84-6.47,8.85-3.37,2-7,2.53-10.9,1.59-3.77-.91-6.72-3.03-8.87-6.37-2.15-3.34-2.75-6.95-1.81-10.85.6-2.47,1.81-4.65,3.64-6.54Z"/><path class="cls-3" d="m2150.95,1597.94l-16.89,47.15c5.28,1.89,10.11,2.77,14.48,2.63,4.37-.14,8.17-1.33,11.39-3.58,3.22-2.25,5.59-5.52,7.12-9.79,1.71-4.78,1.98-9.61.83-14.49-1.16-4.88-3.92-9.46-8.28-13.71-4.36-4.26-10.57-7.83-18.62-10.71-8.55-3.06-16.28-4.16-23.18-3.3-6.9.86-12.75,3.2-17.52,7.03-4.77,3.82-8.29,8.88-10.54,15.16-1.89,5.28-2.54,10.86-1.95,16.75.59,5.88,2.44,11.8,5.56,17.74l-13.96-2.02c-1.92-2.96-3.45-6.7-4.6-11.22-1.15-4.53-1.67-9.5-1.57-14.93.1-5.43,1.21-11.1,3.32-17,3.11-8.68,7.89-15.79,14.35-21.35,6.46-5.56,14.06-9.05,22.79-10.46,8.73-1.41,18.13-.32,28.19,3.29,10.44,3.74,18.9,9.03,25.38,15.9,6.48,6.86,10.75,14.56,12.8,23.1,2.05,8.53,1.5,17.2-1.65,26.01-3.06,8.55-7.5,15.08-13.3,19.6-5.8,4.52-12.88,6.84-21.22,6.98-8.35.13-17.9-2.01-28.66-6.43l23.71-66.2,12.02,3.88Z"/><path class="cls-3" d="m2137.51,1731.17l-4.99-2.56c.82-3.94.31-6.9-1.51-8.89-1.83-1.99-5.13-3.31-9.9-3.96l-64.51-8.15-.18.36,40.28,43.9c4.14,4.23,8.06,6.73,11.79,7.52,3.72.79,7.16-.57,10.3-4.05l4.99,2.56-16.67,32.43-4.99-2.56c.71-4.89-.23-9.35-2.81-13.38-2.58-4.03-5.88-8.28-9.89-12.74l-54.33-61.26,6.41-12.47,85.99,10.18c4.24.23,7.72.32,10.43.3,2.72-.03,5.11-.6,7.19-1.71,2.07-1.11,4.26-2.88,6.55-5.3l4.99,2.56-19.14,37.24Z"/><path class="cls-3" d="m2056.18,1798.24l-28.48,41.2c4.61,3.19,9.05,5.28,13.31,6.28,4.26,1,8.24.82,11.93-.52,3.69-1.35,6.83-3.89,9.41-7.62,2.89-4.18,4.4-8.77,4.54-13.79.14-5.02-1.35-10.15-4.46-15.39-3.12-5.24-8.19-10.29-15.22-15.15-7.47-5.17-14.65-8.22-21.55-9.17-6.89-.95-13.14-.19-18.74,2.27-5.6,2.46-10.3,6.44-14.09,11.93-3.19,4.61-5.26,9.84-6.21,15.68-.95,5.83-.68,12.03.8,18.57l-12.97-5.55c-1.09-3.35-1.61-7.36-1.55-12.03.06-4.67.84-9.61,2.33-14.83,1.5-5.22,4.03-10.41,7.6-15.57,5.24-7.58,11.7-13.22,19.37-16.93,7.68-3.71,15.91-5.11,24.72-4.22,8.8.89,17.6,4.37,26.39,10.45,9.12,6.3,15.92,13.6,20.41,21.91,4.49,8.3,6.63,16.84,6.4,25.62-.22,8.77-2.99,17.01-8.31,24.7-5.16,7.47-11.14,12.64-17.91,15.51-6.77,2.87-14.21,3.29-22.31,1.26-8.1-2.03-16.77-6.56-26.03-13.61l39.99-57.84,10.61,6.85Z"/><path class="cls-3" d="m1939.27,1994.72l-.69-.73c.18-3.49-.59-6.58-2.32-9.27-1.73-2.69-4.22-4.97-7.48-6.85l-60.52-33.67-.43.41,30.8,60.85c1.73,2.78,3.3,4.92,4.73,6.42,1.43,1.5,3.05,2.58,4.88,3.24,1.83.66,4.25.93,7.28.82l.69.73-22.5,21.4-.69-.73c.35-2.54.36-5,.04-7.37-.32-2.37-.96-4.89-1.94-7.56-.97-2.67-2.27-5.54-3.9-8.6l-38.75-77.34,15.53-14.78,80.91,45.52c1.95,1.28,4.36,2.3,7.22,3.09,2.86.78,6.18,1.21,9.96,1.31l.69.73-23.51,22.37Zm46.3-44.05l-.69-.73c.36-2.92.18-5.29-.53-7.1-.71-1.81-1.85-3.4-3.42-4.76-1.57-1.36-3.38-2.73-5.42-4.1l-59.2-35.48-.73.69c2.51,5.35,4.82,10.3,6.93,14.84,2.11,4.54,4.46,9.49,7.07,14.84,2.61,5.35,5.16,10.75,7.67,16.2,2.51,5.44,4.84,10.46,6.99,15.05,2.15,4.59,3.9,8.32,5.25,11.18,1.35,2.87,2.06,4.35,2.16,4.45l-9.87,9.39-.58.55c-.37-.39-.96-1.44-1.76-3.16s-1.84-4.11-3.08-7.16l-40.13-84.32,15.82-15.05,72.06,42.6c1.86,1.18,4.22,2.44,7.06,3.79,2.85,1.34,5.94,2.46,9.27,3.35,3.33.88,6.47,1.04,9.41.45l.69.73-24.96,23.75Z"/><path class="cls-3" d="m1840.03,2025.79l-41.05,27.99c2.78,4.08,5.95,7.42,9.49,10.01,3.55,2.59,7.35,3.96,11.41,4.11,4.06.14,8.3-1.29,12.71-4.3,3.97-2.71,6.98-6.25,9-10.62,2.03-4.38,2.54-9.49,1.54-15.35-1-5.86-3.88-12.27-8.62-19.22-5.79-8.5-11.83-14.45-18.11-17.84-6.28-3.4-12.36-4.79-18.24-4.17-5.88.62-11.36,2.65-16.44,6.12-5.3,3.61-9.49,8.25-12.58,13.91-3.09,5.66-4.11,12.82-3.06,21.48l-14.89-21.13c1.41-2.9,3.18-6.01,5.29-9.31,2.11-3.3,4.72-6.53,7.82-9.69,3.1-3.16,6.91-6.29,11.43-9.37,7.39-5.04,15.48-8.05,24.27-9.03,8.79-.98,17.38.48,25.77,4.37,8.39,3.89,15.79,10.53,22.18,19.91,5.94,8.72,9.59,17.62,10.94,26.73,1.35,9.1.39,17.64-2.9,25.62-3.29,7.98-9.01,14.75-17.18,20.32-8.5,5.79-16.52,8.55-24.06,8.28-7.54-.28-14.67-3.09-21.4-8.45-6.72-5.36-13.08-12.78-19.07-22.28l57.61-39.27,8.12,11.2Z"/><path class="cls-3" d="m1607.06,2110.35c-2.35-2.49-4.45-4.61-6.28-6.38-1.83-1.77-3.53-3.4-5.11-4.91-1.58-1.51-3.13-2.78-4.65-3.8-1.52-1.03-3.12-1.98-4.8-2.87-1.68-.89-3.39-1.69-5.14-2.4l-.54-1.29,38.95-16.43.36,1.37c-1.05,2.32-1.73,4.5-2.04,6.51-.31,2.01-.23,4.01.24,5.99.47,1.98,1.34,4.11,2.59,6.41,1.26,2.29,2.92,4.78,4.99,7.46,2.07,2.68,4.55,5.72,7.44,9.15l57.46,68.17-1.85.78-6.15-96.55c-.37-6.37-.9-11.33-1.6-14.87-.7-3.55-1.92-6.36-3.67-8.45-1.75-2.09-4.4-3.91-7.95-5.45l-.54-1.29,36-15.18.55,1.29c-.92,2.27-1.74,4.72-2.45,7.34-.71,2.62-1.26,5.42-1.67,8.42-.4,3-.62,6.09-.65,9.3-.03,3.2-.03,6.46,0,9.79.03,3.32.09,6.66.21,10.02.11,3.36.14,6.86.08,10.51l1.64,58.01c0,5.51.07,10.22.21,14.15.14,3.93.23,7.84.27,11.73.05,3.89.11,8.51.18,13.84l-18.27,7.71-77.81-88.07Zm88.9-5.75l-66.08,27.87-6.46-15.32,66.08-27.87,6.46,15.32Z"/><path class="cls-3" d="m1577.94,2088.7c-3.54,2.75-6.07,5.58-7.57,8.47-1.5,2.9-2.39,5.76-2.66,8.6-.27,2.84-.11,5.74.48,8.69.59,2.95,1.3,5.98,2.14,9.07l6.58,24.37c1.39,5.16,2.71,9.65,3.94,13.46,1.24,3.82,2.76,7.04,4.58,9.66,1.82,2.62,4.09,4.77,6.83,6.46,2.74,1.68,6.41,2.87,11.02,3.56l.37,1.35-33.36,14.81-5.62-20.06-13.1-48.55c-.84-3.09-1.71-6.08-2.62-8.94-.91-2.87-2.2-5.46-3.86-7.78-1.66-2.32-3.87-4.35-6.63-6.1-2.75-1.75-6.36-2.92-10.81-3.52l-.37-1.35,50.29-13.57.36,1.35Zm-14.63,86.53c-.89,5.91-2.66,11.16-5.3,15.75-2.63,4.58-5.7,8.35-9.19,11.3-3.49,2.95-7.17,4.94-11.04,5.99-.26.07-.58.16-.97.26-.39.1-.71.19-.97.26l-7.15-26.5c2.34.47,5.31.57,8.9.3,3.59-.28,7.15-1.31,10.68-3.09,4.11-2.22,7.01-5.28,8.72-9.2,1.71-3.92,2.52-8.08,2.44-12.49l4.64,17.21-.77.21Z"/><path class="cls-3" d="m1488.21,2176.14l-47.01,6.68c.73,5.02,2.09,9.41,4.05,13.18,1.97,3.76,4.64,6.54,8.01,8.34,3.37,1.8,7.56,2.33,12.59,1.6,4.63-.68,8.74-2.53,12.35-5.55,3.61-3.03,6.18-7.35,7.72-12.97,1.54-5.63,1.71-12.53.51-20.73-1.45-9.91-4.13-17.65-8.06-23.22-3.92-5.57-8.59-9.34-14.01-11.31-5.42-1.98-11.1-2.53-17.05-1.65-6.47.95-12.31,3.29-17.5,7.02-5.19,3.73-9.29,9.59-12.31,17.59l-4.59-25.85c2.68-2.01,5.65-4.07,8.92-6.16,3.27-2.1,7.11-3.98,11.53-5.64,4.41-1.66,9.33-2.88,14.75-3.68,9.12-1.33,17.85-.45,26.2,2.64,8.35,3.1,15.41,8.2,21.17,15.33,5.77,7.12,9.47,16.29,11.12,27.53,1.53,10.44.91,20.04-1.86,28.82-2.77,8.77-7.4,16.07-13.91,21.88-6.5,5.81-14.78,9.45-24.82,10.92-10.04,1.47-18.43.44-25.16-3.1-6.73-3.54-11.97-9.18-15.74-16.93-3.77-7.75-6.23-17.48-7.41-29.18l67.99-9.95,2.52,14.41Z"/><path class="cls-3" d="m1207.45,2147.23c-.52-1.53-1.08-3.46-1.66-5.79-.58-2.34-1.25-4.85-2-7.54-.75-2.69-1.54-5.35-2.36-7.97-.82-2.63-1.6-5.02-2.34-7.17-.73-2.15-1.45-3.8-2.15-4.93l33.11,3.15.4.04c-.89.85-1.41,2.51-1.58,4.98-.16,2.47-.11,5.39.17,8.77.28,3.38.72,6.91,1.31,10.59.59,3.68,1.13,7.15,1.62,10.42s.97,5.99,1.43,8.19l16.85,85.12-3.79-.36,38.66-86.88c2.72-6.05,4.97-11.3,6.73-15.76,1.77-4.46,2.89-8.21,3.38-11.25.49-3.04.37-5.6-.38-7.68l32.31,3.07c-1.18,1.1-2.55,2.84-4.12,5.24-1.57,2.4-3.24,5.19-5.02,8.38-1.78,3.18-3.61,6.53-5.48,10.04-1.87,3.51-3.61,6.9-5.19,10.17-1.58,3.27-3,6.19-4.25,8.75-1.25,2.56-2.2,4.49-2.86,5.77l-26.69,54.21c-2.3,4.48-4.24,8.32-5.83,11.52-1.58,3.2-3.2,6.47-4.86,9.8-1.66,3.33-3.63,7.17-5.93,11.51l-22.94-2.18-26.55-112.2Zm80.66,34.24l-70.4-6.7,1.78-18.75,70.4,6.7-1.78,18.75Z"/><path class="cls-3" d="m1189.42,2109.89c-2.56,1.08-4.64,2.65-6.25,4.69-1.6,2.04-2.98,4.3-4.14,6.79-1.15,2.48-2.09,5.08-2.82,7.79-.72,2.71-1.34,5.24-1.85,7.59l-15.86,73.02c-1.08,4.96-1.97,9.41-2.7,13.36-.72,3.94-1.13,7.58-1.24,10.9-.11,3.32.08,6.58.55,9.75.47,3.18,1.49,6.51,3.06,9.99l-30-3.44,2.21-10.18,23.42-107.87c.51-2.35,1-4.91,1.46-7.68.47-2.77.69-5.52.67-8.26-.02-2.74-.34-5.37-.95-7.89-.61-2.53-1.79-4.8-3.54-6.82l37.98,8.25Z"/><path class="cls-3" d="m1112.24,2096.53c5.88,7.04,9.53,15.17,10.95,24.38,1.42,9.21.56,18.5-2.58,27.87-3.27,9.75-8.36,17.8-15.28,24.14-6.91,6.35-14.9,10.53-23.97,12.57-9.06,2.03-18.22,1.5-27.46-1.6-10-3.35-17.91-8.54-23.73-15.56-5.81-7.02-9.45-15.07-10.92-24.16-1.46-9.08-.58-18.44,2.64-28.06,3.27-9.75,8.27-17.83,14.99-24.24,6.73-6.41,14.53-10.66,23.4-12.76,8.87-2.1,18.25-1.49,28.13,1.82,10.01,3.35,17.95,8.55,23.83,15.59Zm-45.49.49c-5.01,1.49-9.55,4.44-13.64,8.85-4.08,4.41-7.23,10.11-9.44,17.12-2.5,7.47-3.42,14.21-2.76,20.2.67,6,2.62,11.09,5.87,15.28,3.25,4.18,7.53,7.17,12.85,8.95s10.51,2.04,15.58.79c5.07-1.26,9.72-4.1,13.95-8.53,4.23-4.43,7.64-10.51,10.23-18.23,2.42-7.22,3.13-13.85,2.12-19.89-1-6.04-3.2-11.15-6.59-15.31-3.39-4.17-7.68-7.12-12.88-8.86-5.19-1.74-10.29-1.86-15.3-.37Z"/><path class="cls-3" d="m958.72,2126.34c-6.01,3.22-12.46,4.82-19.36,4.81-6.9-.02-13.02-1.39-18.37-4.14-7.49-3.84-12.68-8.42-15.58-13.74-2.9-5.32-4.02-10.96-3.36-16.93.66-5.97,2.61-12.1,5.84-18.4l16.56-32.26c1.59-3.09,3.05-6.09,4.4-9,1.35-2.91,2.41-5.78,3.18-8.61.78-2.83,1.16-5.48,1.16-7.96,0-2.48-.59-4.92-1.76-7.32l34.58,17.75c-2.75.39-5.14,1.3-7.15,2.75-2.01,1.44-3.95,3.3-5.79,5.58-1.85,2.28-3.56,4.82-5.14,7.61-1.58,2.79-3.17,5.73-4.75,8.82l-13.27,25.84c-2.13,4.16-3.44,8.18-3.94,12.05-.49,3.88.07,7.47,1.68,10.77,1.61,3.3,4.55,6.05,8.83,8.25,4.52,2.32,9.51,3.34,14.97,3.07,5.47-.27,10.94-1.78,16.4-4.53l-7.52,16.41-1.6-.82Zm67.89-64.69c-2.63.45-4.99,1.38-7.06,2.79-2.08,1.41-4.01,3.27-5.79,5.58-1.78,2.31-3.47,4.86-5.05,7.65-1.58,2.79-3.17,5.73-4.75,8.82l-12.08,23.53c-2.13,4.16-4.06,8.05-5.77,11.68-1.71,3.63-3.1,7.08-4.19,10.35-1.08,3.27-1.73,6.51-1.94,9.7-.21,3.19.05,6.41.79,9.64l-.18.36-27.57-10.78,6.97-15.34,25.07-48.83c1.59-3.09,3.05-6.09,4.4-9,1.35-2.91,2.44-5.77,3.27-8.57.84-2.8,1.22-5.45,1.16-7.96-.06-2.51-.68-4.96-1.85-7.37l34.58,17.75Z"/><path class="cls-3" d="m864.2,2044.98l-38.14-26.91c-2.79,3.92-4.68,7.9-5.68,11.94-.99,4.05-.83,7.85.48,11.41,1.32,3.56,3.93,6.74,7.85,9.52,3.48,2.48,7.46,3.92,11.93,4.31,4.48.4,9.17-.85,14.1-3.74,4.93-2.89,9.75-7.65,14.48-14.29,5.73-8.05,9.01-15.31,9.84-21.77.83-6.46-.06-12.18-2.67-17.15-2.61-4.97-6.25-9.12-10.93-12.45-4.9-3.49-10.35-5.89-16.37-7.23-6.02-1.33-12.47-.85-19.36,1.46l13.94-21.31c3.43.48,6.98,1.2,10.64,2.16,3.66.96,7.49,2.43,11.51,4.38,4.02,1.96,8.15,4.45,12.39,7.47,7.51,5.34,13.34,12,17.51,19.97,4.17,7.97,5.91,16.63,5.23,25.98-.68,9.36-4.38,18.77-11.12,28.23-6.12,8.59-13.21,15.1-21.28,19.53-8.07,4.42-16.47,6.43-25.2,6.04-8.73-.4-17.18-3.5-25.34-9.31-8.38-5.96-13.88-12.63-16.51-19.99-2.63-7.36-2.57-15.27.17-23.73,2.74-8.46,7.86-17.48,15.34-27.07l55.81,39.74-8.62,12.8Z"/><path class="cls-3" d="m804.35,1915.54c-3.29.71-6.12,1.56-8.46,2.54-2.35.98-4.59,2.24-6.74,3.79-2.15,1.54-4.43,3.47-6.85,5.77-2.42,2.3-5.26,5.13-8.51,8.49l-47.43,48.89c-2.98,3.07-5.58,5.85-7.81,8.34-2.23,2.49-4.15,4.9-5.77,7.24-1.62,2.34-2.93,4.74-3.93,7.21-1,2.47-1.71,5.27-2.14,8.39l-29.04-28.18c3.01-.61,5.77-1.43,8.25-2.46,2.49-1.03,4.88-2.39,7.16-4.08,2.29-1.69,4.65-3.68,7.06-5.99,2.42-2.3,5.12-4.99,8.1-8.06l47.43-48.89c3.25-3.54,6-6.56,8.22-9.05,2.23-2.49,4.06-4.81,5.49-6.95,1.43-2.15,2.6-4.41,3.51-6.78.91-2.38,1.72-5.17,2.42-8.4l29.04,28.18Z"/><path class="cls-3" d="m672.83,1905.91c-6.73.84-13.24,0-19.53-2.54-6.29-2.53-11.42-6.23-15.4-11.09-5.32-6.52-8.27-12.82-8.84-18.9-.57-6.08.67-11.75,3.71-17,3.05-5.25,7.31-10.11,12.79-14.58l28.09-22.94c2.69-2.2,5.23-4.36,7.63-6.49,2.4-2.13,4.52-4.34,6.36-6.62,1.85-2.28,3.26-4.56,4.25-6.83.99-2.27,1.43-4.74,1.32-7.41l26.61,32.59c-2.68-.74-5.23-.86-7.65-.35-2.42.52-4.94,1.45-7.54,2.8-2.6,1.35-5.19,2.99-7.76,4.91-2.57,1.93-5.19,3.98-7.89,6.18l-21.57,17.61c-3.72,3.04-6.53,6.2-8.43,9.47-1.89,3.27-2.73,6.58-2.5,9.93.23,3.35,1.7,6.67,4.4,9.98,3.04,3.72,6.94,6.44,11.71,8.16,4.76,1.72,9.97,2.33,15.62,1.86l-14.23,12.66-1.14-1.4Zm89.82-29.38c-2.59-.64-5.12-.73-7.59-.27-2.47.46-4.98,1.39-7.54,2.8-2.56,1.4-5.13,3.07-7.69,4.99-2.57,1.93-5.19,3.98-7.89,6.18l-20.48,16.73c-3.62,2.96-6.94,5.76-9.96,8.39-3.02,2.64-5.68,5.24-7.98,7.81-2.3,2.57-4.18,5.27-5.66,8.11-1.47,2.84-2.51,5.89-3.13,9.15l-.31.25-22.48-22.77,12.33-12.14,42.21-34.47c2.69-2.2,5.23-4.36,7.63-6.49,2.4-2.13,4.54-4.31,6.43-6.54,1.89-2.23,3.3-4.51,4.25-6.83.95-2.33,1.36-4.82,1.25-7.49l26.61,32.59Z"/><path class="cls-3" d="m526.62,1786.28l-19.2-35.85c-3.15-5.89-5.84-10.85-8.08-14.88-2.23-4.03-4.31-7.27-6.23-9.73l25.32-11.28c.77,2.01,1.64,4.12,2.6,6.34.96,2.21,2.26,4.85,3.9,7.91,1.64,3.06,3.63,6.77,5.96,11.13l18.35,34.26-22.61,12.1Zm124.1-65.31c-2.95,1.28-5.55,2.44-7.79,3.49-2.24,1.05-4.44,2.11-6.59,3.19-2.15,1.08-4.61,2.35-7.38,3.84-2.76,1.48-6.27,3.36-10.51,5.63l-60.05,32.15c-4,2.14-6.98,3.74-8.92,4.78-1.94,1.04-3.59,1.92-4.95,2.65-1.35.72-3.15,1.69-5.39,2.88-2.24,1.2-5.59,2.99-10.07,5.39l-2.47,1.32-13.71-25.61,2.47-1.32c3.77-2.02,6.68-3.58,8.74-4.68,2.06-1.1,3.92-2.1,5.56-2.98,1.65-.88,3.56-1.91,5.74-3.07,2.18-1.17,5.27-2.82,9.27-4.96l60.05-32.15c4.24-2.27,7.74-4.15,10.51-5.63,2.77-1.48,5.2-2.82,7.28-4.01,2.09-1.19,4.19-2.43,6.31-3.72,2.12-1.28,4.52-2.8,7.22-4.55l14.66,27.38Zm-92.89,69.28c1.64,3.06,3.07,5.74,4.3,8.04,1.23,2.3,2.45,4.37,3.67,6.22s2.48,3.71,3.79,5.59l-25.32,11.28c-.92-3.14-2.06-5.98-3.42-8.51-1.35-2.53-3.23-6.03-5.63-10.51l-22.32-41.68,22.61-12.1,22.32,41.68Z"/><path class="cls-3" d="m613.18,1647.99c-1.05.24-2.44.63-4.16,1.17-1.72.55-3.89,1.22-6.51,2.02-2.62.8-5.58,1.76-8.87,2.87-3.29,1.11-6.95,2.39-10.97,3.83l-69.57,24.99c-4.02,1.44-7.95,2.85-11.78,4.23-3.83,1.38-7.5,2.73-11,4.06-3.49,1.33-6.82,2.63-9.99,3.91-3.16,1.28-6.04,2.45-8.63,3.53l-9.96-27.72,56.75-20.38,54.49-19.57c4.02-1.44,7.66-2.78,10.9-4.02,3.25-1.24,6.14-2.38,8.67-3.43,2.53-1.05,4.63-1.91,6.31-2.59,1.68-.67,2.99-1.25,3.95-1.74l10.36,28.85Zm-94.95,1.75c-6.5-1.5-11.98-4.32-16.45-8.46-4.47-4.14-7.74-9.1-9.82-14.89-2.93-8.17-3.68-15.28-2.24-21.34,1.44-6.05,4.42-11.1,8.93-15.13,4.51-4.03,9.97-7.2,16.38-9.5l35.26-12.66c4.02-1.45,7.66-2.78,10.9-4.02,3.25-1.24,6.14-2.38,8.67-3.43,2.53-1.05,4.63-1.91,6.31-2.58,1.67-.67,2.99-1.25,3.95-1.74l10.36,28.85c-1.05.24-2.44.63-4.15,1.17-1.72.55-3.89,1.22-6.51,2.02-2.62.8-5.58,1.76-8.87,2.87-3.29,1.11-6.95,2.39-10.97,3.83l-24.13,8.67c-4.27,1.53-7.82,3.41-10.64,5.63-2.82,2.22-4.7,4.88-5.65,7.99-.94,3.1-.71,6.61.69,10.5,1.31,3.65,3.64,6.89,7,9.72,3.36,2.84,7.63,4.75,12.81,5.72l-21.49,7.72-.34-.94Z"/><path class="cls-3" d="m459.58,1555.31c-1.07,3-2.72,5.59-4.94,7.77-2.23,2.18-4.9,3.64-8.02,4.38-4.68,1.11-9.1.39-13.29-2.19-4.18-2.57-6.85-6.26-7.99-11.07-1.12-4.68-.37-9.04,2.23-13.1,2.61-4.05,6.31-6.65,11.12-7.8,4.68-1.12,9.13-.46,13.34,1.97,4.22,2.43,6.88,5.98,8,10.66.78,3.25.63,6.37-.44,9.37Zm116.12-20.9c-1.07.12-2.49.36-4.26.71-1.77.35-4,.78-6.7,1.29-2.69.51-5.74,1.13-9.13,1.87-3.39.74-7.17,1.61-11.33,2.6l-36.44,8.69c-1.04.25-3.11.78-6.21,1.58-3.1.81-6.52,1.73-10.26,2.76-3.74,1.03-7.19,1.95-10.36,2.78-3.17.83-5.38,1.46-6.65,1.9l-6.88-28.84,10.13-2.42,60.02-14.31c4.16-.99,7.92-1.92,11.28-2.79,3.36-.87,6.36-1.69,8.99-2.45,2.63-.76,4.82-1.39,6.56-1.87,1.74-.48,3.11-.91,4.12-1.29l7.11,29.82Z"/><path class="cls-3" d="m480.25,1423.71c-1.64,3.61-2.9,7.36-3.76,11.26-.86,3.9-1.4,7.69-1.62,11.36-.22,3.67-.14,6.83.24,9.48.49,3.44,1.63,6.24,3.42,8.42,1.8,2.17,3.95,3.08,6.46,2.72,1.85-.26,3.41-1.19,4.66-2.79,1.26-1.6,2.41-3.92,3.46-6.97,1.05-3.05,2.31-6.97,3.79-11.77,1.82-5.25,3.85-10.13,6.11-14.63,2.26-4.5,5.17-8.22,8.73-11.16,3.56-2.94,8.12-4.8,13.67-5.59,5.42-.77,10.64-.16,15.64,1.82,5.01,1.99,9.31,5.69,12.92,11.11,3.61,5.42,6.08,12.83,7.42,22.22.7,4.89.99,9.81.89,14.75-.11,4.94-.57,9.53-1.38,13.75-.81,4.23-1.96,7.74-3.46,10.51l-26.66,1.78c3.99-6.1,6.61-12.34,7.85-18.72,1.25-6.38,1.52-12.09.8-17.11-.53-3.7-1.63-6.75-3.33-9.14-1.69-2.39-3.99-3.38-6.9-2.96-2.38.34-4.19,1.37-5.43,3.1-1.24,1.73-2.25,4.06-3.05,7.01-.79,2.95-1.79,6.39-2.98,10.34-1.68,6.18-3.65,11.52-5.91,16.02-2.26,4.5-5.15,8.12-8.67,10.85-3.52,2.73-7.93,4.47-13.22,5.22-6.35.9-12.15.15-17.42-2.27-5.27-2.42-9.64-6.35-13.11-11.79-3.47-5.44-5.78-12.13-6.91-20.06-1.06-7.4-1.26-14.09-.63-20.05.64-5.96,1.87-11.02,3.7-15.2l24.68-1.49Z"/><path class="cls-3" d="m548.81,1354.04c-3.19-.43-5.98-.77-8.37-1.03-2.39-.25-4.86-.48-7.39-.68-2.53-.19-5.43-.38-8.7-.54-3.27-.17-7.37-.37-12.31-.62l-67.23-3.41c-4.53-.23-8.44-.36-11.72-.39-3.27-.03-6.25-.02-8.93.05-2.68.06-5.22.14-7.63.21-2.41.08-5.02.18-7.84.3l1.74-34.21c4.27.22,7.87.4,10.8.55,2.94.15,6.24.32,9.9.5,3.67.19,8.77.45,15.31.78l68.03,3.46c6.27.32,11.24.57,14.91.76,3.67.19,7,.36,10,.51,3,.15,6.7.34,11.1.56l-1.69,33.21Zm-137.71-53.33c.86-16.94,4.26-31.18,10.19-42.71,5.94-11.53,14.16-20.07,24.67-25.63,10.51-5.55,23.04-7.96,37.58-7.22,13.74.7,25.86,4.32,36.36,10.87,10.5,6.55,18.56,15.66,24.19,27.31,5.63,11.65,8.03,25.48,7.22,41.49l-1.05,20.61-25.41-1.29.79-15.61c.54-10.67-.97-19.64-4.55-26.91-3.57-7.27-8.68-12.84-15.3-16.72-6.62-3.88-14.34-6.04-23.14-6.49-8.27-.42-15.79.87-22.56,3.87-6.77,3-12.27,7.94-16.5,14.81-4.23,6.87-6.62,15.85-7.18,26.92l-.96,18.81-25.41-1.29,1.06-20.81Z"/><path class="cls-3" d="m499.03,1185.15l7.1-36.38c-4.32-.87-8.15-.95-11.49-.26-3.34.69-6.05,2.13-8.12,4.3-2.07,2.17-3.45,4.96-4.13,8.37-.66,3.27-.31,6.61,1.05,10.02,1.36,3.41,4.15,6.49,8.36,9.24,4.22,2.76,10.12,4.89,17.72,6.42,7.86,1.58,14.29,1.58,19.31,0,5.02-1.58,8.9-4.27,11.64-8.09,2.74-3.81,4.62-8.27,5.65-13.37,1.05-5.24,1.33-10.83.82-16.8-.51-5.96-2.03-11.78-4.57-17.47l26.13,3.2c1.23,3.38,2.15,7.11,2.76,11.18.61,4.08.87,8.55.78,13.44-.1,4.88-.72,10.21-1.88,15.97-1.92,9.56-5.69,18-11.31,25.31-5.62,7.32-12.86,12.68-21.72,16.07-8.86,3.4-19.24,3.9-31.16,1.51-10.34-2.08-19.14-6.09-26.39-12.04-7.25-5.95-12.5-13.24-15.74-21.86-3.24-8.62-3.84-18.04-1.79-28.25,1.94-9.69,5.63-17.5,11.04-23.43,5.41-5.93,12.87-9.5,22.38-10.73,9.51-1.22,21.52.37,36.02,4.78l-12.54,62.46-19.92-3.59Z"/><path class="cls-3" d="m531.64,1036.3c-3.1,2.65-5.96,5.62-8.57,8.91-2.61,3.3-4.85,6.64-6.73,10.04-1.87,3.4-3.22,6.36-4.04,8.9-.95,2.92-1.16,5.63-.63,8.11.53,2.49,1.87,4.08,4.03,4.78,1.52.49,3.11.27,4.75-.67,1.64-.94,3.61-2.58,5.91-4.93,2.3-2.34,5.19-5.41,8.66-9.2,3.85-4.09,7.77-7.62,11.76-10.62,3.99-2.99,8.22-4.99,12.68-6,4.47-1.01,9.37-.65,14.71,1.08,5.21,1.69,9.69,4.54,13.44,8.57,3.75,4.02,6.08,9.31,6.98,15.84.9,6.54-.17,14.51-3.22,23.91-1.6,4.95-3.57,9.72-5.9,14.3-2.33,4.58-4.84,8.68-7.56,12.29-2.71,3.62-5.35,6.34-7.91,8.18l-26.64-10.73c6.3-3.85,11.52-8.48,15.66-13.88,4.14-5.4,6.98-10.51,8.55-15.34,1.03-3.17,1.38-6.11,1.07-8.82-.32-2.7-1.75-4.46-4.29-5.28-2.03-.66-3.88-.48-5.54.52-1.66,1.01-3.44,2.61-5.34,4.8-1.9,2.19-4.21,4.88-6.93,8.07-4.31,5.06-8.55,9.16-12.72,12.3-4.18,3.14-8.43,5.13-12.78,5.97-4.34.84-9.06.44-14.14-1.21-6.1-1.98-11.04-5.26-14.81-9.85-3.78-4.59-6.05-10.14-6.83-16.64-.77-6.5.14-13.75,2.73-21.75,2.51-7.75,5.46-14.27,8.86-19.56,3.4-5.29,6.82-9.34,10.26-12.16l24.54,10.06Z"/><path class="cls-3" d="m500.47,996.13c-2.75,1.89-5.74,3.07-8.97,3.52-3.23.46-6.45.02-9.65-1.32-4.68-1.96-8.01-5.34-9.98-10.15-1.97-4.8-1.95-9.61.06-14.42,1.96-4.68,5.32-7.95,10.07-9.79,4.76-1.84,9.53-1.77,14.34.24,4.68,1.96,8.07,5.3,10.15,10,2.08,4.71,2.15,9.4.19,14.09-1.39,3.33-3.46,5.94-6.21,7.83Zm104.69,51.62c-.93-.53-2.22-1.18-3.86-1.94-1.64-.76-3.69-1.73-6.17-2.91-2.47-1.18-5.3-2.47-8.48-3.87-3.18-1.4-6.74-2.93-10.68-4.58l-34.56-14.46c-.98-.41-2.97-1.21-5.95-2.38-2.98-1.17-6.29-2.45-9.91-3.82-3.62-1.37-6.96-2.66-10-3.86-3.04-1.2-5.21-2-6.49-2.39l12.45-29.75,9.61,4.02,56.92,23.82c3.94,1.65,7.53,3.12,10.76,4.39,3.23,1.28,6.13,2.39,8.71,3.32,2.58.94,4.71,1.72,6.4,2.35,1.69.64,3.05,1.1,4.09,1.39l-12.84,30.68Z"/><path class="cls-3" d="m599,969.83c-6.15,4.96-12.6,7.93-19.36,8.93-6.75,1-13.3-.22-19.66-3.63-6.23-3.35-10.93-8.15-14.09-14.4-3.16-6.25-4.55-13.33-4.17-21.23.38-7.9,2.88-16.15,7.5-24.74,3.48-6.47,7.47-11.79,11.99-15.96,4.52-4.17,9.32-7.19,14.43-9.07,5.1-1.88,10.21-2.62,15.3-2.24,5.1.39,10,1.85,14.7,4.38,6.35,3.41,10.98,8.06,13.88,13.95,2.9,5.88,4.02,12.55,3.35,20-.67,7.45-3.28,15.41-7.83,23.88-4.55,8.47-9.91,15.18-16.06,20.14Zm-34.94-74.62c.38-2.68.76-5.92,1.14-9.74.38-3.81.81-7.64,1.28-11.48s.91-7.13,1.32-9.87c.41-2.74.74-4.34.99-4.81l21.88,11.76c-1.2,2.24-2.4,4.47-3.6,6.71-1.2,2.24-2.44,4.53-3.7,6.88-1.27,2.35-2.51,4.68-3.75,6.97-1.23,2.29-2.45,4.56-3.65,6.79-1.2,2.24-2.4,4.47-3.6,6.71l-9.35-5.03c.32-.59.66-2.22,1.04-4.9Zm34.73,33.34c-1.15-4.49-4.08-7.99-8.79-10.52-5.41-2.91-10.25-3.5-14.51-1.77-4.26,1.73-7.34,4.35-9.24,7.88-1.33,2.47-1.99,5.18-1.99,8.14,0,2.96.72,5.85,2.16,8.67,1.44,2.82,3.92,5.18,7.45,7.08,4.94,2.66,9.57,3.14,13.9,1.44,4.32-1.69,7.5-4.42,9.52-8.19,2.15-4,2.65-8.24,1.5-12.73Zm5.96,27.2c-.17,3.7.08,6.56.73,8.58.66,2.02,1.87,3.51,3.63,4.46,2.71,1.46,5.33,1.08,7.88-1.11,2.54-2.19,5.27-6,8.18-11.41l6.15-11.02c6.51-11.82,13.84-20.04,22.02-24.67,8.17-4.63,16.97-4.41,26.38.65,7.41,3.98,12.61,9.47,15.6,16.46,2.99,6.99,3.76,15.14,2.32,24.45-1.44,9.31-5.14,19.49-11.08,30.55-5.12,9.53-10.27,17-15.45,22.4-5.18,5.4-10.33,8.78-15.45,10.12-5.12,1.34-9.97.78-14.56-1.69-2.71-1.46-4.92-3.48-6.63-6.07-1.72-2.59-2.89-5.57-3.5-8.93-.62-3.36-.59-6.95.09-10.75.68-3.8,2.06-7.65,4.15-11.53l5.87-4.58c-.2,2.62.25,5.03,1.35,7.21s2.89,3.94,5.36,5.27c3.06,1.64,6.03,1.96,8.94.94,2.9-1.02,5.64-2.88,8.23-5.58,2.59-2.7,4.8-5.76,6.64-9.17,1.71-3.18,3.02-6.53,3.93-10.06.91-3.53,1.01-6.81.29-9.85-.72-3.04-2.43-5.29-5.13-6.74-3.77-2.02-7.49-1.71-11.19.92-3.69,2.64-7.12,6.9-10.28,12.78l-7.78,14.47c-3.16,5.88-6.63,10.58-10.41,14.08-3.78,3.5-7.7,5.64-11.75,6.42-4.06.78-8.03.12-11.91-1.97-5.76-3.1-9.47-8.12-11.12-15.07-1.65-6.95-.91-15.58,2.2-25.88l6.29-3.67Z"/><path class="cls-3" d="m672.08,913.38c-.78-.73-1.89-1.66-3.3-2.78-1.42-1.11-3.19-2.53-5.33-4.25-2.13-1.72-4.58-3.63-7.35-5.73-2.77-2.1-5.88-4.41-9.33-6.92l-22.5-16.4c-3.45-2.52-6.79-4.91-10.02-7.18-3.22-2.26-6.36-4.42-9.41-6.48-3.05-2.05-5.93-3.99-8.65-5.81-2.72-1.82-5.31-3.54-7.76-5.16l-.65-.47,17.23-23.64,14.68,6.73,45.5,33.16c3.46,2.52,6.6,4.77,9.45,6.76,2.85,1.99,5.41,3.74,7.71,5.24,2.29,1.51,4.18,2.76,5.68,3.77,1.5,1.01,2.72,1.77,3.66,2.29l-19.59,26.88Zm-51.93-78.75c-3.61-5.93-4.99-12.03-4.16-18.28.84-6.25,3.14-11.96,6.92-17.15,5.11-7.01,10.6-11.65,16.46-13.91,5.86-2.26,11.77-2.66,17.74-1.2,5.96,1.46,11.7,4.19,17.2,8.2l30.28,22.07c3.46,2.52,6.6,4.77,9.45,6.76,2.85,1.99,5.41,3.74,7.71,5.24,2.29,1.51,4.18,2.76,5.68,3.77,1.5,1.01,2.72,1.77,3.66,2.29l-19.59,26.88c-.78-.73-1.89-1.66-3.3-2.78-1.42-1.12-3.19-2.53-5.33-4.25-2.13-1.72-4.58-3.63-7.35-5.73-2.77-2.1-5.88-4.41-9.33-6.93l-19.91-14.51c-3.78-2.75-7.32-4.63-10.64-5.64-3.31-1.01-6.38-1.05-9.2-.14-2.82.92-5.37,2.95-7.65,6.08-2.12,2.91-3.34,6.41-3.66,10.47-.32,4.07.58,8.27,2.7,12.63l-18.13-13.22.47-.65Z"/><path class="cls-3" d="m738.01,678.04c-3.78.38-7.75,1.36-11.9,2.96-4.16,1.6-8.08,3.53-11.76,5.8-3.68,2.26-6.76,4.62-9.21,7.07-2.27,2.26-4.02,4.48-5.25,6.65-1.23,2.17-1.8,4.25-1.71,6.23.09,1.99.99,3.83,2.69,5.53,2.26,2.27,5.59,3.33,9.98,3.2,4.39-.14,9.28-.96,14.66-2.46,5.38-1.5,10.63-3.11,15.73-4.8,6.05-1.88,11.55-3.13,16.51-3.74,4.96-.61,9.47-.58,13.53.08,4.06.67,7.74,1.85,11.05,3.55,3.3,1.71,6.32,3.93,9.06,6.67,6.42,6.43,10.28,13.52,11.6,21.26,1.31,7.75.34,15.61-2.93,23.58-3.27,7.98-8.44,15.5-15.53,22.58-4.92,4.91-10.07,9.15-15.45,12.74-5.39,3.58-10.47,6.48-15.24,8.7-4.77,2.22-8.76,3.61-11.97,4.17l-22.78-25.66c4.91-.18,9.94-1.15,15.09-2.89,5.15-1.74,9.92-3.86,14.31-6.36,4.39-2.5,7.91-5.07,10.56-7.71,4.73-4.72,7.56-8.87,8.51-12.46.95-3.59.15-6.66-2.4-9.21-1.89-1.89-4.25-2.84-7.08-2.84-2.83,0-6.21.68-10.13,2.05-3.92,1.37-8.53,2.99-13.82,4.87-8.13,3.02-15.59,4.99-22.39,5.93-6.8.94-13.08.56-18.84-1.15-5.76-1.7-11.09-5.01-16-9.93-6.6-6.62-10.52-13.94-11.74-21.97-1.22-8.03-.22-16.1,3-24.22,3.22-8.12,8.18-15.53,14.9-22.23,6.14-6.13,12.43-11.04,18.85-14.72,6.42-3.67,11.62-6.17,15.59-7.49l20.52,26.23Z"/><path class="cls-3" d="m856.51,775.67c-.53-.94-1.31-2.15-2.32-3.64-1.02-1.49-2.29-3.37-3.82-5.65-1.53-2.28-3.3-4.83-5.31-7.66-2.02-2.83-4.3-5.96-6.84-9.39l-46.42-62.59c-3.58-4.83-6.81-9.12-9.69-12.89-2.88-3.76-5.45-7.06-7.7-9.88-2.26-2.82-4.17-5.22-5.73-7.22-1.57-2-2.92-3.65-4.06-4.97l27.36-20.29,11.28,11.84,63.13,85.12c2.54,3.43,4.88,6.52,7,9.27,2.12,2.75,4.05,5.18,5.79,7.3,1.74,2.12,3.17,3.88,4.3,5.29,1.13,1.41,2.06,2.5,2.81,3.28l-29.77,22.08Zm-74.86-102.61l-9.31-12.55,30.9-17.18.64-.48c-2.07-6.61-1.93-12.74.44-18.41,2.37-5.66,6.34-10.56,11.92-14.7,6.76-5.01,13.93-7.79,21.5-8.34,7.58-.54,15.07,1.21,22.49,5.27,7.42,4.06,14.35,10.43,20.79,19.12,5.81,7.83,9.65,15.59,11.52,23.26,1.87,7.68,2,15.19.38,22.54-1.62,7.35-4.82,14.35-9.63,20.98-4.8,6.64-11.01,12.78-18.63,18.43-4.29,3.18-9.21,5.79-14.77,7.83-5.55,2.04-11.07,3.47-16.53,4.28-5.47.81-10.22.97-14.25.46l-10.38-14,28.16-20.89.84,1.13c2.54.28,5.07-.06,7.6-1.02,2.53-.96,4.81-2.2,6.85-3.71,3.75-2.78,6.41-6.04,7.97-9.77,1.56-3.73,1.91-7.73,1.07-12.01-.84-4.28-2.9-8.62-6.16-13.02-3.58-4.83-7.28-8.07-11.09-9.74-3.81-1.66-7.46-2.2-10.93-1.62-3.48.58-6.5,1.83-9.08,3.74-3.44,2.55-5.71,5.65-6.82,9.3-1.11,3.66-1.05,7.1.19,10.34l-35.68,10.75Z"/><path class="cls-3" d="m894.47,562.32c5.66-5.11,11.25-9.16,16.78-12.15,7.16-3.87,14.53-6.26,22.09-7.16,7.56-.9,14.78.32,21.68,3.65,6.89,3.33,12.81,9.58,17.77,18.75l10.2,18.86,2.76,5.11c.95,1.76,2.04,3.84,3.25,6.22,1.21,2.38,2.58,4.98,4.11,7.8,1.53,2.82,3.15,5.82,4.86,8.99,1.72,3.17,3.55,6.43,5.51,9.77l-23.08,12.48c-2.36-1-4.35-1.86-5.95-2.59-1.61-.72-3.59-1.59-5.95-2.59l-.88.48c-.46,2.52-1.35,5.29-2.69,8.29-1.34,3-3.26,5.98-5.76,8.93-2.5,2.95-5.93,5.6-10.28,7.95-5.29,2.86-10.54,4.1-15.75,3.73-5.21-.37-9.94-1.95-14.18-4.74-4.24-2.79-7.57-6.42-9.99-10.88-3.94-7.28-5.15-13.95-3.65-20.01,1.51-6.05,5.43-12.28,11.77-18.67,6.34-6.39,14.87-13.85,25.59-22.38-1.14-2.11-2.77-3.78-4.87-5-2.1-1.22-4.69-1.72-7.76-1.5-3.07.22-6.66,1.44-10.77,3.66-2.23,1.21-4.47,2.68-6.72,4.43-2.24,1.75-4.38,3.62-6.41,5.63-2.03,2.01-3.86,4.1-5.49,6.27-1.63,2.18-3.11,4.3-4.41,6.37l-15.77-24.95c3.67-4.72,8.34-9.64,14-14.75Zm47,44.16c-2.42,2.83-3.91,5.68-4.47,8.57-.57,2.89-.15,5.62,1.25,8.21,1.65,3.06,3.7,4.87,6.14,5.45,2.44.58,4.89.2,7.36-1.13,3.41-1.84,5.26-5.01,5.57-9.5.3-4.49-1.32-10.03-4.88-16.61l-1.62-3c-3.8,2.51-6.91,5.18-9.33,8.01Z"/><path class="cls-3" d="m993.37,538.5c1.9-9.6,6.08-18.1,12.54-25.51,6.46-7.41,14.43-12.93,23.9-16.56,7.11-2.72,13.3-4.2,18.57-4.44,5.28-.23,9.77.01,13.48.74l8.16,26.91c-3.12-.66-6.12-1.05-9.02-1.16-2.9-.1-5.77.06-8.6.51s-5.69,1.21-8.55,2.31c-3.49,1.34-6.81,3.61-9.94,6.81-3.14,3.21-5.3,7.18-6.48,11.92-1.19,4.75-.61,10.18,1.73,16.28,2.1,5.49,5.02,9.55,8.75,12.2,3.73,2.65,7.79,4.09,12.18,4.35,4.39.25,8.64-.41,12.75-1.99,5.11-1.96,9.34-4.55,12.69-7.76,3.34-3.21,6.54-7.19,9.59-11.93l12.41,26.78c-3.41,4.17-7.61,8.24-12.59,12.22-4.98,3.98-11.34,7.46-19.07,10.42-8.98,3.44-18,4.64-27.05,3.6-9.05-1.04-17.31-4.49-24.78-10.35-7.47-5.86-13.3-14.28-17.51-25.26-4.01-10.48-5.07-20.51-3.17-30.11Z"/><path class="cls-3" d="m1123.47,511.15l32.14-7.71c-1.03-4.29-2.43-7.69-4.2-10.22-1.77-2.53-3.9-4.22-6.37-5.06-2.47-.85-5.2-.92-8.19-.2-3.12.75-5.78,2.39-7.99,4.91-2.21,2.52-3.61,6.15-4.18,10.89-.58,4.74.02,10.81,1.8,18.22,1.75,7.27,4.24,12.68,7.5,16.23,3.25,3.55,7.03,5.66,11.31,6.35,4.29.69,8.83.46,13.64-.7,5.19-1.25,10.43-3.33,15.71-6.24,5.28-2.91,10.14-6.83,14.59-11.74l8.63,27.39c-2.55,2.54-5.6,4.99-9.16,7.35-3.55,2.37-7.7,4.56-12.43,6.59-4.74,2.03-10.09,3.76-16.06,5.19-9.61,2.31-18.98,2.46-28.11.46-9.13-2-17.11-6.33-23.93-13.01-6.82-6.67-11.65-15.92-14.49-27.74-2.46-10.26-2.49-19.97-.09-29.13,2.4-9.16,6.93-17.05,13.59-23.66,6.65-6.61,15.17-11.16,25.57-13.66,9.74-2.34,18.45-2.37,26.14-.09,7.69,2.28,14.11,7.57,19.26,15.88,5.15,8.31,8.84,20.51,11.05,36.6l-60.19,14.45-5.53-21.34Z"/><path class="cls-3" d="m1192.21,425.32c2.81-2.59,6.2-5.01,10.19-7.26,3.99-2.25,8.38-4.17,13.17-5.77,4.79-1.6,9.98-2.7,15.56-3.31,9.96-1.09,18.29-.45,25,1.9,6.71,2.36,11.86,5.86,15.46,10.5,3.6,4.65,5.72,9.89,6.35,15.73.45,4.12.11,8.12-1.01,12-1.12,3.89-2.87,7.84-5.25,11.86-2.38,4.02-5.13,8.42-8.23,13.19-2.19,3.33-4.05,6.59-5.58,9.78-1.53,3.19-2.56,6.97-3.1,11.32-.53,4.36-.42,9.99.33,16.89l-27.48,3c-1.09-6.33-1.69-12.11-1.79-17.34-.1-5.23.32-9.98,1.27-14.25.94-4.27,2.44-8.13,4.48-11.57,3.18-5.32,6.2-9.68,9.05-13.08,2.85-3.4,4.08-6.89,3.69-10.48-.36-3.32-2.02-5.86-4.96-7.62-2.95-1.76-7.21-2.34-12.78-1.73-3.58.39-7.12,1.28-10.59,2.67-3.48,1.39-6.76,3.33-9.85,5.81-3.09,2.49-5.93,5.42-8.51,8.79l-5.41-31.05Zm54.84,133.06c4.78-.52,8.64-2.66,11.59-6.41,2.95-3.75,4.18-7.88,3.68-12.39-.52-4.78-2.63-8.68-6.32-11.7-3.69-3.02-7.92-4.27-12.7-3.75-4.52.49-8.31,2.62-11.39,6.38-3.08,3.76-4.36,8.03-3.84,12.81.49,4.52,2.65,8.28,6.47,11.28,3.82,3.01,7.99,4.27,12.5,3.77Z"/><path class="cls-2" d="m1379.97,710.36c-1.21-1.13-2.64-2.13-4.29-2.98-1.65-.85-3.34-1.54-5.09-2.07-1.75-.53-3.34-.82-4.78-.88-1.8-.08-3.38.09-4.75.52-1.37.42-2.45,1.13-3.25,2.11-.79.99-1.22,2.23-1.29,3.73-.07,1.68.52,3.24,1.78,4.67,1.26,1.44,2.9,2.81,4.91,4.13,2.02,1.32,4.08,2.62,6.18,3.92,2.58,1.55,4.76,3.09,6.56,4.61,1.8,1.52,3.23,3.05,4.31,4.6,1.07,1.55,1.85,3.13,2.32,4.74.47,1.61.67,3.35.59,5.21-.15,3.6-1.19,6.74-3.11,9.42-1.92,2.68-4.57,4.73-7.97,6.14-3.4,1.42-7.34,2.03-11.84,1.83-2.88-.12-5.58-.51-8.11-1.16-2.53-.65-4.82-1.42-6.88-2.32-2.06-.9-3.74-1.83-5.02-2.79l1.45-12.82c1.55,1.57,3.33,2.94,5.32,4.1,1.99,1.17,4.04,2.1,6.14,2.79,2.1.69,4.14,1.08,6.12,1.17,3.24.14,5.69-.37,7.37-1.53,1.67-1.16,2.55-2.73,2.64-4.71.07-1.62-.37-3-1.31-4.16-.94-1.15-2.28-2.25-4-3.28-1.73-1.03-3.71-2.2-5.93-3.5-3.23-1.76-6-3.62-8.32-5.59-2.32-1.96-4.07-4.14-5.26-6.54-1.19-2.39-1.72-5.15-1.58-8.27.16-3.66,1.26-6.85,3.3-9.59,2.04-2.74,4.77-4.84,8.2-6.31,3.43-1.47,7.3-2.12,11.62-1.93,3.36.14,6.5.72,9.43,1.71,2.93,1,5.22,1.95,6.86,2.86l-2.33,12.16Z"/><path class="cls-2" d="m1405.62,714.86c3.05-.46,5.98-.5,8.78-.15,3.51.45,6.63,1.47,9.36,3.06,2.73,1.59,4.78,3.87,6.16,6.83,1.37,2.96,1.77,6.76,1.17,11.41l-1.41,10.98-.29,2.23c-.14,1.13-.28,2.28-.4,3.44-.12,1.16-.22,2.39-.29,3.68-.08,1.29-.14,2.61-.19,3.97-.05,1.35-.05,2.76,0,4.22l-10.58-.99c-.42-.96-.77-1.78-1.05-2.45-.28-.67-.6-1.48-.96-2.44l-.45-.06c-.88.74-1.96,1.47-3.23,2.22s-2.75,1.31-4.44,1.7c-1.68.39-3.6.45-5.74.17-2.74-.35-5-1.25-6.78-2.68-1.78-1.44-3.08-3.22-3.9-5.36-.82-2.13-1.08-4.33-.79-6.59.46-3.57,1.79-6.28,3.99-8.11,2.2-1.84,5.3-3.09,9.29-3.76,3.99-.67,8.93-1.08,14.82-1.23.21-1.61.09-3.1-.33-4.49-.43-1.39-1.26-2.55-2.5-3.5-1.24-.94-2.99-1.56-5.25-1.85-1.01-.13-2.11-.16-3.3-.11-1.19.06-2.39.21-3.6.45-1.21.24-2.37.57-3.49,1.01-1.12.43-2.19.91-3.23,1.45l.51-11.1c2.35-.85,5.05-1.5,8.1-1.96Zm4.98,27.73c-2.07.31-3.72.95-4.96,1.91-1.24.96-1.97,2.3-2.2,4.03-.23,1.79.12,3.18,1.05,4.17.93,1,2.17,1.59,3.72,1.79,1.79.23,3.51-.32,5.16-1.65,1.65-1.33,2.88-3.28,3.7-5.83l.61-4.73c-2.65-.1-5.01,0-7.08.32Z"/><path class="cls-2" d="m1437.63,765.61c.17-.45.36-1.02.56-1.72.2-.69.48-1.63.83-2.81.35-1.18.76-2.67,1.24-4.47.47-1.8,1.03-4.01,1.67-6.63l2.55-10.41c.64-2.62,1.18-4.89,1.62-6.79.43-1.9.8-3.57,1.09-5.02.29-1.44.55-2.77.79-3.98.23-1.21.47-2.43.72-3.67l11.72,2.88-.6,6.99.35.09c1.95-2.42,4.37-3.95,7.24-4.57,2.87-.62,5.71-.59,8.51.09,2.33.57,4.29,1.42,5.86,2.55,1.58,1.13,2.82,2.44,3.72,3.93.9,1.49,1.5,3.01,1.8,4.57,1.2-1.13,2.67-2.11,4.39-2.96,1.72-.84,3.57-1.41,5.56-1.69,1.98-.29,4-.18,6.04.32,5.71,1.4,9.47,4.12,11.26,8.14,1.79,4.02,1.95,9.04.48,15.04l-2.88,11.72c-.64,2.62-1.17,4.81-1.56,6.57-.4,1.76-.71,3.2-.92,4.32-.21,1.12-.4,2.07-.56,2.83-.16.77-.29,1.48-.38,2.13l-13.03-3.2c.17-.45.36-1.02.56-1.72.2-.69.48-1.63.83-2.81.35-1.18.76-2.67,1.24-4.47.47-1.8,1.03-4.01,1.67-6.63l2.34-9.53c.49-1.98.66-3.78.53-5.38-.13-1.61-.67-2.99-1.62-4.15-.95-1.16-2.39-1.98-4.31-2.45-1.92-.47-3.81-.41-5.65.19-1.85.6-3.43,1.57-4.75,2.91-.14.83-.33,1.79-.57,2.87-.24,1.09-.52,2.3-.85,3.64l-1.91,7.78c-.64,2.62-1.17,4.84-1.59,6.66-.41,1.81-.74,3.33-.97,4.54-.24,1.21-.42,2.17-.57,2.87s-.24,1.3-.3,1.78l-13.12-3.22c.17-.45.36-1.02.56-1.72.2-.69.48-1.63.83-2.81.35-1.18.76-2.67,1.24-4.47.47-1.8,1.03-4.01,1.67-6.63l2.32-9.44c.53-2.16.72-4.06.56-5.7-.15-1.64-.67-2.99-1.56-4.04-.89-1.05-2.2-1.79-3.95-2.22-1.69-.41-3.51-.35-5.47.19-1.96.54-3.73,1.67-5.32,3.38l-3.37,13.73c-.64,2.62-1.17,4.84-1.59,6.66-.41,1.81-.74,3.33-.97,4.54-.24,1.21-.42,2.17-.57,2.87-.14.71-.24,1.3-.3,1.78l-13.12-3.22Z"/><path class="cls-2" d="m1547.27,748.22c.08-2.43.17-4.53.27-6.3.1-1.77.19-3.55.26-5.33.07-1.78.15-3.89.23-6.32l13.35,5.41c-.16,2.46-.31,4.6-.46,6.42-.15,1.82-.29,3.64-.42,5.46-.12,1.83-.26,3.97-.42,6.44l-2.06,38.21-4.76-1.93,25.49-30.09c.64-.78,1.43-1.7,2.39-2.77.95-1.07,1.91-2.2,2.88-3.4.97-1.19,1.89-2.32,2.78-3.39.88-1.07,1.84-2.23,2.87-3.5l11.85,4.8c-1.6,1.88-3.22,3.76-4.86,5.66-1.64,1.89-3.74,4.33-6.31,7.3l-32.93,37.66-12.02-4.86,1.86-49.46Z"/><path class="cls-2" d="m1612.04,775.62c3.03.62,5.79,1.57,8.3,2.86,3.15,1.62,5.73,3.65,7.75,6.08,2.02,2.43,3.17,5.27,3.45,8.52.28,3.25-.65,6.96-2.8,11.12l-5.08,9.84-1.03,2c-.52,1.01-1.04,2.05-1.55,3.1-.51,1.05-1.02,2.18-1.53,3.36-.51,1.19-1.02,2.41-1.54,3.67-.51,1.25-.99,2.58-1.44,3.97l-9.61-4.55c-.07-1.05-.12-1.93-.15-2.66s-.05-1.6-.07-2.62l-.4-.21c-1.08.39-2.34.72-3.8.98-1.45.26-3.04.29-4.75.08s-3.53-.81-5.45-1.8c-2.45-1.27-4.27-2.88-5.45-4.84-1.18-1.96-1.79-4.08-1.83-6.37-.04-2.28.47-4.44,1.51-6.46,1.65-3.2,3.82-5.29,6.52-6.26,2.7-.97,6.03-1.09,10.01-.36,3.98.74,8.76,2.04,14.35,3.91.74-1.44,1.15-2.88,1.22-4.33.07-1.45-.31-2.83-1.16-4.14-.84-1.31-2.28-2.49-4.3-3.54-.91-.47-1.93-.88-3.06-1.23-1.14-.35-2.31-.62-3.53-.81-1.22-.19-2.43-.27-3.62-.25-1.2.03-2.37.11-3.53.26l4.28-10.25c2.5,0,5.26.32,8.28.93Zm-4.8,27.76c-2.05-.41-3.82-.38-5.32.09-1.5.48-2.64,1.49-3.44,3.04-.83,1.6-.97,3.03-.44,4.28.53,1.26,1.49,2.24,2.88,2.96,1.6.83,3.4.9,5.41.21,2.01-.69,3.83-2.09,5.47-4.22l2.19-4.24c-2.46-1-4.71-1.7-6.76-2.12Z"/><path class="cls-2" d="m1624.7,835.08c.31-.37.69-.9,1.15-1.56.46-.67,1.04-1.51,1.75-2.51.71-1.01,1.49-2.16,2.35-3.47.86-1.3,1.8-2.76,2.83-4.39l6.69-10.57c1.03-1.62,2-3.19,2.92-4.7.92-1.51,1.8-2.98,2.63-4.41.83-1.43,1.61-2.78,2.35-4.05.74-1.27,1.43-2.49,2.09-3.63l.19-.3,10.19,6.45-2.8,6.44-13.63,21.53c-1.03,1.62-1.95,3.1-2.75,4.44-.81,1.34-1.52,2.54-2.13,3.61-.61,1.07-1.12,1.96-1.52,2.66-.41.7-.72,1.27-.92,1.71l-11.41-7.22Zm32.66-26.53c2.62-1.68,5.37-2.37,8.24-2.08,2.87.29,5.47,1.17,7.81,2.65,3.3,2.09,5.52,4.4,6.68,6.95,1.16,2.55,1.51,5.16,1.05,7.86-.46,2.69-1.51,5.33-3.15,7.92l-9,14.23c-1.03,1.62-1.95,3.1-2.75,4.44-.81,1.34-1.52,2.54-2.12,3.61-.61,1.07-1.12,1.96-1.52,2.66-.41.7-.72,1.27-.92,1.71l-11.41-7.22c.31-.37.69-.9,1.15-1.56.46-.67,1.04-1.51,1.75-2.51.71-1.01,1.49-2.16,2.35-3.46.86-1.3,1.8-2.76,2.83-4.39l6.21-9.81c1.09-1.72,1.83-3.37,2.22-4.94.39-1.57.33-3.04-.18-4.43s-1.6-2.61-3.27-3.67c-1.47-.93-3.22-1.45-5.25-1.56-2.03-.11-4.07.39-6.12,1.51l5.1-8.06.3.19Z"/><path class="cls-2" d="m1709.36,836.01c.78-2.3,1.49-4.28,2.1-5.95.62-1.66,1.22-3.34,1.81-5.02.59-1.68,1.28-3.67,2.07-5.97l11.18,9.08c-.87,2.31-1.64,4.31-2.32,6-.68,1.69-1.34,3.39-2,5.1-.66,1.71-1.42,3.72-2.29,6.03l-13.17,35.93-3.98-3.23,33.18-21.3c.84-.56,1.87-1.21,3.09-1.95,1.22-.75,2.47-1.55,3.75-2.41,1.28-.86,2.49-1.67,3.65-2.43,1.16-.76,2.41-1.59,3.77-2.5l9.93,8.06c-2.08,1.33-4.18,2.65-6.31,3.98-2.12,1.33-4.85,3.04-8.17,5.14l-42.51,26.37-10.07-8.17,16.27-46.75Z"/><path class="cls-2" d="m1763.25,881.14c2.71,1.47,5.08,3.19,7.1,5.16,2.53,2.47,4.41,5.16,5.64,8.08,1.23,2.91,1.5,5.97.82,9.16-.68,3.19-2.66,6.46-5.92,9.82l-7.73,7.93-1.57,1.61c-.8.82-1.59,1.65-2.39,2.51-.8.86-1.61,1.78-2.45,2.77-.84.99-1.68,2.01-2.54,3.06-.86,1.05-1.7,2.18-2.54,3.37l-7.86-7.16c.24-1.02.45-1.88.64-2.59s.42-1.54.7-2.52l-.32-.31c-1.15.06-2.45,0-3.92-.17-1.47-.17-2.99-.61-4.57-1.31-1.58-.7-3.14-1.81-4.69-3.31-1.98-1.93-3.25-4-3.8-6.22-.56-2.22-.52-4.43.11-6.62.63-2.19,1.74-4.11,3.33-5.74,2.51-2.58,5.2-3.94,8.07-4.08,2.86-.14,6.09.72,9.68,2.58,3.59,1.86,7.78,4.51,12.58,7.93,1.13-1.16,1.94-2.42,2.43-3.79.49-1.36.53-2.8.1-4.3-.42-1.5-1.45-3.05-3.08-4.64-.73-.71-1.59-1.4-2.57-2.07-.99-.67-2.03-1.27-3.14-1.81-1.11-.54-2.24-.97-3.39-1.29-1.15-.32-2.3-.59-3.45-.78l7.09-8.56c2.38.73,4.94,1.84,7.65,3.31Zm-12.7,25.15c-1.84-1-3.54-1.48-5.11-1.46-1.57.02-2.96.65-4.18,1.9-1.26,1.29-1.81,2.61-1.67,3.97.14,1.36.77,2.58,1.89,3.67,1.29,1.26,2.99,1.85,5.12,1.78,2.12-.07,4.27-.88,6.46-2.44l3.33-3.42c-2.06-1.67-4.01-3-5.84-4Z"/><path class="cls-2" d="m1786.29,930.22l12.25,13.81c1.59-1.38,2.72-2.82,3.4-4.33.68-1.51.91-3,.69-4.48-.22-1.48-.9-2.88-2.04-4.19-1.06-1.22-2.45-2.09-4.16-2.59-1.71-.5-3.7-.41-5.96.29-2.26.69-4.73,2.2-7.4,4.53-2.9,2.52-4.79,4.98-5.68,7.39-.89,2.4-1.01,4.69-.35,6.87.66,2.17,1.77,4.16,3.35,5.98,1.58,1.81,3.48,3.43,5.72,4.87,2.24,1.43,4.68,2.43,7.32,3l-7.63,7.83c-1.54-.49-3.1-1.16-4.68-2.02-1.58-.85-3.18-1.94-4.81-3.27-1.63-1.33-3.27-2.94-4.93-4.84-2.84-3.26-4.79-6.87-5.85-10.84-1.06-3.97-.98-7.98.26-12.04s3.9-7.87,7.97-11.41c3.62-3.15,7.47-5.22,11.54-6.22,4.07-.99,8.05-.9,11.95.29,3.89,1.19,7.34,3.5,10.33,6.94,2.91,3.35,4.65,6.81,5.21,10.38.56,3.57-.22,7.17-2.35,10.81-2.13,3.64-5.77,7.34-10.92,11.11l-19.38-22.28,6.13-5.57Z"/><path class="cls-2" d="m1789.01,978.45c.42-.24.96-.59,1.63-1.06.67-.46,1.51-1.04,2.53-1.73,1.02-.69,2.16-1.49,3.43-2.41,1.26-.91,2.67-1.95,4.2-3.1l10-7.52c1.53-1.15,3.12-2.37,4.76-3.63,1.64-1.27,3.19-2.49,4.67-3.68,1.47-1.18,2.77-2.21,3.88-3.08,1.11-.87,1.88-1.51,2.33-1.92l7.47,9.93-4.93,4.38-20.65,15.53c-1.54,1.15-2.92,2.21-4.15,3.17-1.23.96-2.32,1.84-3.26,2.62-.95.79-1.74,1.44-2.37,1.95-.63.51-1.12.93-1.47,1.27l-8.06-10.72Zm40.25-13.58c2.46-.12,4.62.11,6.49.7,1.87.59,3.49,1.42,4.86,2.49,1.37,1.07,2.56,2.28,3.57,3.62.07.1.16.22.27.36.11.14.2.26.27.36l-10.07,7.57c-.66-1.08-1.53-2.23-2.6-3.45-1.07-1.22-2.15-2.21-3.24-2.97-1.68-1.14-3.47-1.75-5.37-1.82-1.9-.08-3.75.34-5.54,1.24l11.16-8.38.22.29Z"/><path class="cls-2" d="m1839.35,998.68l10.16,15.41c1.77-1.14,3.09-2.41,3.98-3.8.89-1.39,1.33-2.84,1.33-4.34,0-1.5-.48-2.98-1.42-4.44-.88-1.36-2.13-2.41-3.75-3.15-1.62-.74-3.6-.93-5.94-.56-2.34.36-4.99,1.51-7.97,3.43-3.23,2.08-5.45,4.25-6.68,6.51-1.22,2.25-1.67,4.5-1.32,6.75.34,2.24,1.16,4.37,2.46,6.39,1.3,2.02,2.96,3.89,4.97,5.63,2.01,1.74,4.29,3.07,6.82,4.01l-8.66,6.66c-1.46-.7-2.9-1.59-4.34-2.66-1.44-1.07-2.87-2.38-4.3-3.92-1.43-1.54-2.82-3.38-4.19-5.49-2.34-3.63-3.76-7.49-4.25-11.56-.49-4.08.17-8.04,1.97-11.88s4.98-7.23,9.52-10.16c4.03-2.6,8.13-4.11,12.3-4.51,4.17-.4,8.09.26,11.78,1.99,3.69,1.73,6.77,4.51,9.24,8.34,2.41,3.73,3.64,7.4,3.68,11.02.05,3.61-1.24,7.07-3.86,10.37-2.62,3.3-6.75,6.45-12.39,9.44l-16.01-24.81,6.86-4.64Z"/><path class="cls-2" d="m1835.29,1046.44c.45-.17,1.04-.43,1.78-.78.73-.35,1.65-.79,2.77-1.31,1.12-.52,2.37-1.13,3.77-1.83,1.39-.7,2.94-1.5,4.64-2.4l11.07-5.84c1.7-.9,3.32-1.77,4.88-2.62,1.55-.85,3.04-1.69,4.48-2.51,1.43-.82,2.78-1.6,4.06-2.34,1.27-.74,2.48-1.44,3.62-2.11l.32-.17,5.63,10.67-5.63,4.19-22.54,11.88c-1.7.9-3.23,1.72-4.6,2.48-1.37.75-2.58,1.44-3.64,2.07-1.06.63-1.94,1.14-2.65,1.55-.7.4-1.25.74-1.65,1.02l-6.3-11.95Zm41.54-6.73c3.11-.15,5.84.62,8.18,2.3,2.34,1.68,4.16,3.74,5.45,6.19,1.82,3.45,2.6,6.57,2.34,9.35-.26,2.78-1.26,5.23-3,7.33-1.74,2.1-3.96,3.87-6.67,5.3l-14.89,7.85c-1.7.9-3.23,1.72-4.6,2.47-1.37.75-2.58,1.44-3.64,2.07-1.06.63-1.94,1.14-2.65,1.55-.7.4-1.25.74-1.65,1.02l-6.3-11.95c.45-.17,1.04-.43,1.78-.78.73-.35,1.65-.79,2.77-1.31,1.11-.52,2.37-1.13,3.77-1.83,1.39-.7,2.94-1.5,4.64-2.4l10.27-5.42c1.8-.95,3.27-2.01,4.38-3.17,1.12-1.17,1.8-2.48,2.05-3.93.25-1.45-.09-3.06-1.01-4.81-.81-1.54-2.07-2.86-3.77-3.97-1.7-1.1-3.72-1.69-6.06-1.74l8.44-4.45.17.32Z"/><path class="cls-2" d="m1909.32,1093.52c2.19,1.69,3.89,3.98,5.08,6.86,1.42,3.44,1.82,6.88,1.2,10.32-.62,3.44-2.22,6.58-4.77,9.43-2.56,2.84-5.97,5.15-10.24,6.91-5.32,2.2-10.24,2.92-14.75,2.15s-8.47-2.7-11.9-5.8c-3.42-3.1-6.17-7.14-8.23-12.14-.96-2.33-1.74-4.53-2.33-6.59-.59-2.06-1.03-4.02-1.31-5.89-.28-1.86-.46-3.66-.52-5.39l42.35-17.51c1.77-.73,3.52-1.47,5.22-2.21,1.71-.74,3.34-1.46,4.9-2.17,1.56-.71,3.02-1.38,4.38-2.01,1.36-.63,2.59-1.2,3.68-1.71l4.99,12.06-25.54,10.56.14.33c2.92.16,5.48,1.08,7.67,2.77Zm-10.92,2.57c-1.62-1.08-3.52-1.76-5.71-2.02l-17.72,7.33c-.22,1.19-.26,2.41-.1,3.65.15,1.24.53,2.57,1.12,4.02,1.01,2.44,2.41,4.34,4.21,5.71,1.8,1.37,3.88,2.15,6.23,2.34,2.35.2,4.86-.26,7.52-1.36,2.77-1.15,4.88-2.57,6.32-4.27,1.44-1.7,2.28-3.48,2.52-5.33.24-1.85-.02-3.7-.77-5.53-.8-1.94-2.01-3.45-3.63-4.54Z"/><path class="cls-2" d="m1910.31,1144.28l5.69,17.56c2-.63,3.62-1.5,4.84-2.6,1.22-1.11,2.04-2.38,2.43-3.83.4-1.45.33-3-.19-4.66-.48-1.55-1.41-2.89-2.77-4.04-1.37-1.15-3.22-1.85-5.57-2.12-2.35-.27-5.21.12-8.59,1.18-3.67,1.15-6.39,2.65-8.17,4.49-1.78,1.85-2.81,3.9-3.07,6.15-.27,2.25-.04,4.53.67,6.82.72,2.29,1.82,4.54,3.29,6.75,1.48,2.21,3.31,4.1,5.51,5.68l-10.13,4.12c-1.22-1.07-2.37-2.31-3.48-3.72-1.1-1.42-2.14-3.06-3.1-4.93-.96-1.87-1.82-4.01-2.57-6.41-1.29-4.12-1.63-8.22-1.02-12.28.61-4.06,2.3-7.7,5.07-10.93,2.76-3.22,6.72-5.64,11.88-7.26,4.58-1.44,8.93-1.79,13.06-1.07,4.12.72,7.73,2.4,10.83,5.05,3.09,2.65,5.32,6.15,6.69,10.5,1.33,4.24,1.53,8.11.62,11.6-.92,3.5-3.08,6.48-6.48,8.97-3.41,2.48-8.22,4.42-14.46,5.8l-8.83-28.18,7.85-2.65Z"/><path class="cls-2" d="m1893.46,1189.54c.48-.05,1.12-.16,1.92-.31.8-.16,1.8-.35,3.01-.57,1.21-.22,2.58-.5,4.11-.83,1.52-.33,3.22-.71,5.09-1.15l12.18-2.87c1.87-.44,3.81-.91,5.82-1.42,2.01-.51,3.93-1,5.75-1.5,1.83-.49,3.42-.92,4.79-1.27,1.36-.35,2.33-.63,2.9-.82l2.85,12.09-6.27,2.03-25.15,5.93c-1.87.44-3.56.85-5.07,1.24-1.51.39-2.86.75-4.04,1.09-1.18.34-2.17.62-2.95.83-.78.21-1.4.41-1.85.58l-3.08-13.06Zm42.32,3.71c2.3.88,4.19,1.96,5.67,3.24,1.47,1.29,2.62,2.7,3.45,4.23.82,1.53,1.43,3.12,1.81,4.75.03.12.06.26.1.44.04.18.08.32.1.44l-12.27,2.89c-.17-1.25-.5-2.66-.99-4.21-.49-1.55-1.08-2.89-1.78-4.02-1.08-1.72-2.48-2.99-4.19-3.82-1.71-.83-3.57-1.19-5.58-1.09l13.58-3.2.08.35Z"/><path class="cls-2" d="m1920.93,1236c-.91-1.5-1.78-2.53-2.63-3.09-.85-.57-1.72-.78-2.61-.64-1.36.22-2.2,1.01-2.49,2.4-.3,1.38-.28,3.35.07,5.91l.84,5.88c.82,6.01.38,10.91-1.33,14.7-1.71,3.79-4.85,6.05-9.41,6.77-3.62.57-6.91.03-9.87-1.63-2.97-1.66-5.48-4.32-7.55-7.97-2.06-3.65-3.53-8.24-4.4-13.75-.71-4.51-.84-8.39-.38-11.65.46-3.26,1.42-5.82,2.89-7.66,1.47-1.84,3.39-2.95,5.76-3.32,1.48-.23,2.96-.1,4.44.39,1.48.5,2.82,1.29,4.02,2.37,1.2,1.09,2.23,2.37,3.07,3.85.84,1.48,1.41,3.16,1.71,5.06l-.77,3.77c-.85-1.57-1.92-2.72-3.19-3.46-1.27-.74-2.62-1-4.04-.78-1.66.26-2.91.99-3.76,2.19-.84,1.2-1.38,2.69-1.62,4.49-.23,1.8-.2,3.65.1,5.54.27,1.72.78,3.39,1.52,5,.74,1.61,1.72,2.92,2.94,3.91,1.22.99,2.6,1.37,4.14,1.12,2.08-.33,3.46-1.56,4.15-3.71.69-2.15.78-4.88.26-8.2l-1.11-7.03c-.41-2.61-.39-5,.05-7.16.45-2.17,1.26-3.94,2.44-5.31,1.18-1.37,2.75-2.21,4.71-2.52,2.67-.42,5.16.28,7.49,2.1,2.32,1.82,4.24,4.86,5.77,9.12l-1.21,3.29Zm-1.4-6.57c.87-3.33,2.39-6.03,4.56-8.1,2.16-2.07,4.79-3.35,7.87-3.84,3.14-.5,6.11-.08,8.9,1.24,2.79,1.32,5.15,3.41,7.09,6.26,1.94,2.85,3.23,6.33,3.88,10.42.51,3.2.51,6.12.01,8.75-.5,2.63-1.41,4.92-2.75,6.86-1.33,1.94-2.96,3.5-4.87,4.69-1.91,1.18-4.02,1.96-6.33,2.32-3.14.5-6.01.11-8.61-1.15-2.6-1.26-4.77-3.27-6.51-6.04-1.74-2.76-2.93-6.16-3.57-10.19-.65-4.15-.55-7.89.33-11.22Zm10.68,14.86c1.7,1.37,3.86,1.85,6.47,1.44,2.79-.44,4.76-1.59,5.93-3.44,1.17-1.86,1.59-3.79,1.27-5.81-.22-1.36-.76-2.61-1.64-3.75-.88-1.14-2.01-2.02-3.38-2.66-1.38-.63-2.95-.81-4.73-.53-2.67.42-4.58,1.57-5.74,3.46-1.16,1.88-1.58,3.86-1.25,5.94.35,2.19,1.37,3.98,3.08,5.35Zm21.77,1.67c.51,1.13,1.12,2.4,1.83,3.81.71,1.41,1.42,2.81,2.12,4.22.71,1.41,1.32,2.68,1.83,3.81.51,1.13.81,1.97.9,2.5l-9.78,1.54c-.18-1.13-.36-2.27-.54-3.42-.18-1.16-.36-2.3-.54-3.42-.18-1.13-.36-2.27-.54-3.42-.18-1.16-.36-2.3-.54-3.42-.18-1.13-.36-2.25-.53-3.38l4.91-1.23c.08.47.37,1.28.88,2.41Z"/><path class="cls-2" d="m1908.94,1274.34c.48.03,1.13.03,1.94,0,.81-.02,1.83-.05,3.06-.07,1.23-.02,2.63-.07,4.19-.14,1.56-.07,3.3-.17,5.21-.3l33.15-2.17c1.92-.13,3.79-.25,5.62-.37,1.83-.12,3.58-.25,5.25-.39,1.67-.14,3.27-.29,4.8-.45,1.52-.16,2.91-.31,4.17-.45l.84,12.85-27.04,1.77-25.96,1.7c-1.92.13-3.65.25-5.21.39-1.56.13-2.95.27-4.17.41-1.23.14-2.24.25-3.05.33-.81.08-1.45.17-1.92.26l-.88-13.39Zm41.21,10.66c2.62,1.45,4.64,3.36,6.06,5.74,1.42,2.37,2.22,4.94,2.4,7.69.25,3.89-.31,7.06-1.68,9.49-1.37,2.44-3.29,4.24-5.73,5.43-2.45,1.18-5.2,1.87-8.26,2.07l-16.8,1.1c-1.92.13-3.65.25-5.21.39-1.56.13-2.95.27-4.17.41-1.22.14-2.24.25-3.05.33-.81.08-1.45.17-1.92.26l-.88-13.39c.48.03,1.13.03,1.94,0,.81-.02,1.83-.05,3.06-.06,1.23-.02,2.63-.07,4.19-.14,1.56-.07,3.3-.17,5.21-.3l11.59-.76c2.03-.13,3.8-.52,5.29-1.16,1.49-.64,2.65-1.57,3.47-2.8.82-1.23,1.17-2.83,1.04-4.8-.11-1.74-.72-3.46-1.83-5.16-1.1-1.7-2.71-3.06-4.82-4.06l10.06-.75.03.45Z"/><path class="cls-2" d="m1937.46,1402.1l-5.93-.38,3.59-55.34,5.93.39-3.59,55.34Z"/><path class="cls-2" d="m1907.91,1476.44c-1.33.22-2.55.42-3.67.63-1.11.2-2.14.4-3.07.61-.93.21-1.81.44-2.63.7-.82.26-1.63.55-2.43.88-.8.32-1.61.68-2.42,1.06l3.44-16.76c.68.87,1.42,1.58,2.23,2.11.81.53,1.71.93,2.7,1.2.99.26,2.1.45,3.33.55,1.23.1,2.64.11,4.22.04,1.58-.07,3.33-.19,5.26-.34l39.1-4.19-.14.71-36.59-22.32c-2.45-1.48-4.46-2.6-6.02-3.35-1.56-.75-3-1.14-4.31-1.16-1.31-.03-2.8.28-4.46.92l3.24-15.79c.71,1,1.55,1.99,2.52,2.95.96.96,2.03,1.92,3.18,2.86,1.15.94,2.34,1.86,3.57,2.76,1.23.9,2.46,1.76,3.69,2.6,1.24.84,2.45,1.65,3.63,2.45,1.18.79,2.32,1.55,3.4,2.26l22.01,14.54c1.94,1.32,3.62,2.44,5.05,3.38,1.43.94,2.88,1.88,4.34,2.82s3.16,2.07,5.09,3.39l-1.56,7.58-52.71,6.9Zm21.11-34.27l-6.51,31.66-6.88-1.41,6.51-31.66,6.88,1.41Z"/><path class="cls-2" d="m1892.53,1482.08c.35,2.04.97,3.7,1.85,4.98.88,1.28,1.89,2.32,3.04,3.12,1.14.8,2.35,1.43,3.63,1.88,1.27.46,2.49.85,3.64,1.18l30.81,8.84c2.19.63,4.17,1.15,5.92,1.56,1.76.41,3.37.59,4.85.55,1.48-.04,2.92-.4,4.33-1.05,1.41-.66,2.83-1.75,4.26-3.27l-1.63,15.46-4.5-1.29-46.21-13.26c-1.15-.33-2.39-.64-3.72-.93-1.32-.29-2.68-.39-4.07-.33-1.39.07-2.8.41-4.23,1.03-1.43.62-2.83,1.7-4.21,3.24l6.23-21.72Z"/><path class="cls-2" d="m1914.75,1564.3c-1.07-.39-2.13-.78-3.17-1.16s-2.47-.9-4.27-1.56c-1.81-.66-4.4-1.61-7.78-2.84l-16.58-6.05c-1.3-.47-2.48-.79-3.53-.95-1.06-.16-2.05-.17-2.96-.03-.92.14-1.83.45-2.73.92-.91.47-1.85,1.1-2.84,1.88l2.21-12.61,7.14,1.45,18.52,6.76c1.97.72,3.76,1.33,5.37,1.82,1.61.49,3.12.79,4.52.88,1.4.1,2.81-.08,4.22-.52s2.84-1.26,4.3-2.46l-2.4,14.46Zm-34.47-21.11c-1.33-2.15-2.35-4.71-3.09-7.69-.73-2.98-.51-6.08.66-9.3,1.21-3.33,2.88-5.67,5.01-7.04,2.13-1.36,4.55-2,7.26-1.9,2.71.09,5.56.69,8.55,1.78l9.3,3.4c2.14.78,4.08,1.44,5.8,1.97,1.72.53,3.32.83,4.8.89,1.48.06,2.94-.19,4.39-.74,1.45-.56,2.94-1.55,4.48-2.96l-2.71,15.3-.34-.12c-1.13-.41-2.07-.76-2.83-1.03s-1.59-.58-2.49-.91c-.9-.33-2.09-.76-3.55-1.3-1.47-.54-3.47-1.27-6.01-2.19l-10.83-3.95c-2.26-.82-4.32-1.37-6.21-1.64-1.88-.27-3.52-.04-4.9.7-1.39.74-2.49,2.24-3.32,4.49-1.01,2.76-1.21,5.42-.61,7.97.6,2.55,1.67,4.88,3.21,6.97l-6.65-2.52.06-.17Z"/><path class="cls-2" d="m1861.8,1596.34l31.69,15.12c2.06.98,3.92,1.82,5.58,2.51s3.23,1.14,4.7,1.34c1.47.2,2.95.09,4.44-.32s3.08-1.26,4.75-2.52l-4.15,14.98-4.23-2.02-38.03-18.15c-2.38-1.14-4.48-2.07-6.29-2.8-1.81-.73-3.46-1.22-4.94-1.46-1.48-.24-2.86-.24-4.15.02-1.28.25-2.55.78-3.8,1.58l2.62-12.81,11.8,4.54Zm20.56,9.81l2.76,1.32c1.38-.54,2.78-1.47,4.18-2.8,1.4-1.33,2.59-3.02,3.57-5.08,1.11-2.33,1.59-4.88,1.45-7.64-.15-2.76-1.09-5.41-2.84-7.94-1.75-2.53-4.47-4.68-8.15-6.43-2.92-1.4-5.76-2.08-8.49-2.06-2.74.02-5.17.69-7.29,2.01-2.12,1.31-3.74,3.14-4.85,5.47-.98,2.06-1.47,4.3-1.47,6.73,0,2.43.9,4.97,2.7,7.62l-.57-.27-3.37,7.07-6.09-2.91-1.85-8.46,5.55,1.95.15-.33c-1.79-2.52-2.73-5.26-2.81-8.22-.08-2.97.55-5.86,1.89-8.67,1.6-3.36,3.86-6,6.78-7.94,2.92-1.93,6.27-2.98,10.07-3.12,3.8-.15,7.86.81,12.19,2.88,3.79,1.81,6.84,4.06,9.14,6.76,2.31,2.7,3.93,5.6,4.87,8.71.94,3.11,1.27,6.26.98,9.45-.29,3.19-1.1,6.16-2.41,8.92-1.29,2.71-2.74,4.86-4.33,6.46-1.6,1.6-3.2,2.86-4.8,3.79-1.61.93-3.07,1.81-4.4,2.64l-5.93-2.83,3.37-7.07Z"/><path class="cls-2" d="m1842.5,1608.35c-.15,2.06.04,3.82.59,5.28.54,1.46,1.28,2.71,2.19,3.76.92,1.05,1.94,1.95,3.06,2.71,1.12.75,2.21,1.43,3.25,2.03l9.82,5.67c1.98,1.14,3.76,2.12,5.37,2.94,1.6.82,3.13,1.39,4.58,1.71,1.45.31,2.93.32,4.46.03,1.52-.3,3.17-1.01,4.93-2.14l-5.32,14.6-8.97-5.18-18.79-10.85c-1.04-.6-2.17-1.2-3.38-1.8s-2.51-1.03-3.87-1.3c-1.37-.27-2.82-.28-4.36-.02-1.54.26-3.16.97-4.87,2.13l11.3-19.57Zm23.32,31.45c1.69,2.36,2.86,4.7,3.53,7.03.67,2.32.91,4.51.73,6.56-.18,2.05-.7,3.82-1.57,5.33-.06.1-.13.23-.23.39-.09.16-.16.28-.22.39l-10.45-6.03c.92-.51,1.93-1.3,3.03-2.36,1.1-1.06,1.95-2.53,2.54-4.41.57-1.96.53-3.8-.13-5.53-.66-1.73-1.55-3.38-2.67-4.92l5.61,3.24-.18.31Z"/><path class="cls-2" d="m1856.38,1674.81c-.57,2.66-1.62,5.13-3.17,7.42-1.88,2.78-4,4.79-6.36,6.03-2.36,1.23-5.02,1.59-8,1.06-2.98-.53-6.31-2.03-9.98-4.52l-10.37-7.01-2.91-1.97c-1-.67-1.94-1.24-2.82-1.69-.89-.46-1.8-.77-2.74-.93-.94-.16-1.94-.13-3,.09-1.06.22-2.25.68-3.59,1.37l4.35-12.06c.43.22.95.5,1.55.83.6.34,1.28.68,2.02,1.04s1.42.71,2.05,1.06c.63.35,1.14.62,1.52.81l.25-.37c-.64-1.09-1.13-2.48-1.46-4.19-.33-1.71-.36-3.54-.09-5.49.27-1.95,1.01-3.83,2.22-5.62,1.48-2.19,3.22-3.8,5.23-4.84s4.08-1.48,6.23-1.33c2.15.15,4.21.89,6.2,2.24,2.98,2.02,4.82,4.38,5.52,7.1.7,2.72.41,5.98-.86,9.8-1.27,3.81-3.38,8.31-6.3,13.51,2.29,1.55,4.43,2.67,6.42,3.36,1.99.69,3.85.82,5.55.39,1.71-.44,3.2-1.6,4.48-3.49.77-1.14,1.31-2.36,1.6-3.65.29-1.29.35-2.64.19-4.06-.17-1.42-.54-2.87-1.13-4.35-.59-1.49-1.4-2.97-2.42-4.46l10.44,7.06c.15,1.91-.05,4.2-.62,6.86Zm-24.69-9.3c1.11-2.51,1.6-4.68,1.47-6.51-.14-1.83-1.13-3.37-2.97-4.61-1.94-1.31-3.81-1.76-5.61-1.35-1.8.41-3.32,1.54-4.57,3.38-1.14,1.69-1.68,3.66-1.61,5.92.07,2.25.84,4.75,2.32,7.49l6.41,4.34c1.92-3.27,3.43-6.15,4.55-8.66Z"/><path class="cls-2" d="m1771.97,1754.16l-4.47-3.92,36.55-41.71,4.47,3.92-36.55,41.71Z"/><path class="cls-2" d="m1739.81,1749.76c-1.09,2-1.88,3.6-2.37,4.79s-.68,2.24-.59,3.13c.1.9.55,1.84,1.36,2.85.81,1.01,2,2.34,3.55,4.01l21.18,22.72c1.39,1.49,2.46,2.63,3.19,3.42s1.38,1.48,1.93,2.07c.55.59,1.25,1.34,2.09,2.24.84.9,2.04,2.18,3.59,3.85l.25.26-6.26,5.83-.25-.26c-1.31-1.41-2.35-2.53-3.13-3.36-.78-.83-1.49-1.6-2.15-2.31-.66-.7-1.39-1.49-2.21-2.37-.82-.88-1.92-2.06-3.32-3.56l-21.18-22.72c-1.56-1.67-2.82-2.93-3.78-3.8-.97-.86-1.87-1.39-2.72-1.59-.84-.2-1.89-.09-3.13.34-1.25.42-2.9,1.11-4.98,2.05l-2.46-2.63,18.9-17.62,2.46,2.63Zm34.2,49.36l-13.43,12.52c-2.46,2.29-4.4,4.1-5.83,5.43-1.43,1.33-2.75,2.57-3.98,3.71l-.13.12-11.8-13.98,2.96-2.76c2.55,2.47,4.73,4.1,6.55,4.91,1.82.81,3.67.81,5.54,0,1.88-.81,4.04-2.35,6.5-4.65l9.94-9.27,3.68,3.95Zm-.32-7.08c2.46-2.29,4.23-4.42,5.32-6.37,1.09-1.96,1.4-3.97.94-6.05-.46-2.08-1.76-4.53-3.91-7.37l2.96-2.76,11.8,13.98-.13.12c-1.14,1.06-2.32,2.16-3.52,3.28-1.21,1.13-2.93,2.73-5.17,4.82l-14.22,13.26-3.68-3.95,9.62-8.96Z"/><path class="cls-2" d="m1661.58,1809.37l2.11,2.92c-1.33,1.85-2.31,3.34-2.94,4.46-.63,1.12-.95,2.14-.97,3.04s.32,1.9,1,3c.68,1.1,1.7,2.57,3.04,4.42l18.23,25.15c1.69,2.33,3.02,4.17,3.99,5.5.97,1.34,1.85,2.55,2.64,3.64.79,1.09,1.75,2.42,2.88,3.97l-13.92,10.09-2.11-2.92c1.33-1.85,2.32-3.35,2.97-4.49.66-1.14.97-2.15.93-3.01-.03-.87-.38-1.86-1.04-2.97-.66-1.12-1.66-2.6-3-4.44l-18.5-25.51c-1.34-1.85-2.44-3.26-3.29-4.23-.85-.98-1.69-1.61-2.5-1.91-.81-.3-1.86-.32-3.15-.05-1.29.27-3.02.74-5.19,1.43l-2.11-2.92,20.92-15.17Zm58.5,35.43l-2.11-2.92c1.3-1.68,2.03-3.14,2.18-4.36.15-1.22-.76-2.38-2.74-3.47l-36.33-19.59-4.71-8.49,3.35-2.43,50.04,26.99,6.42,2.57-16.11,11.68Zm-37.57-38.48l7.96,46.72c.55,2.19,1.34,3.46,2.36,3.79,1.02.33,2.46.2,4.32-.41l2.38,3.28-7.94,5.76-3.79,2.75-11.42-62.22,6.14.33Zm25.36-26.06c-1.33,1.85-2.31,3.34-2.94,4.46s-.95,2.14-.97,3.04c-.02.9.32,1.9,1,3,.68,1.1,1.7,2.57,3.04,4.42l18.5,25.51c1.34,1.85,2.42,3.26,3.25,4.26.83.99,1.68,1.62,2.54,1.89.86.27,1.92.27,3.19.02,1.26-.25,2.98-.72,5.15-1.4l2.11,2.92-10.28,7.45-1.38,1c-1.44-1.99-2.94-4.06-4.49-6.2-1.55-2.14-3.12-4.3-4.7-6.49l-18.55-25.58c-1.34-1.85-2.42-3.27-3.25-4.26-.83-.99-1.68-1.62-2.54-1.89-.86-.27-1.92-.27-3.19-.02-1.26.25-2.98.72-5.15,1.4l-2.11-2.91,18.66-13.53,2.11,2.92Z"/><path class="cls-2" d="m1594.79,1867.28l-3.59,1.87-5.96-15.37c.85-.44,1.93-1,3.24-1.68,1.31-.68,2.68-1.39,4.11-2.14,1.44-.75,2.82-1.47,4.15-2.16l20.69-10.75,2.49,4.79c1.8,3.46,2.74,6.8,2.81,10,.08,3.21-.35,6.29-1.29,9.24-.93,2.95-2.07,5.81-3.41,8.57-1.34,2.76-2.55,5.47-3.64,8.13-1.09,2.66-1.76,5.26-2.03,7.8-.27,2.54.26,5.09,1.59,7.65,1.3,2.5,3.19,4.24,5.66,5.23,2.47.98,5.33.63,8.58-1.06,3.14-1.63,5.07-3.72,5.78-6.25.71-2.53.21-5.52-1.51-8.96l3.99-2.07,7.15,11.81c-.87,1.06-1.91,2.18-3.13,3.35-1.22,1.17-2.62,2.34-4.21,3.51-1.59,1.16-3.4,2.27-5.42,3.33-2.08,1.08-4.29,1.91-6.63,2.48-2.34.57-4.66.76-6.96.57-2.3-.19-4.43-.91-6.4-2.16-1.97-1.25-3.61-3.15-4.94-5.7-1.61-3.09-2.34-6.11-2.21-9.05.13-2.94.75-5.82,1.86-8.63,1.11-2.81,2.43-5.58,3.96-8.3,1.53-2.72,2.89-5.41,4.08-8.06,1.19-2.65,1.95-5.27,2.25-7.87.31-2.6-.2-5.17-1.53-7.73l-.17-.32-9.83,5.11c-2.66,1.38-4.71,2.52-6.15,3.4-1.44.88-2.44,1.76-3,2.62-.56.87-.84,1.97-.81,3.32.02,1.34.16,3.17.41,5.47Z"/><path class="cls-2" d="m1568.05,1863.84c3.32.79,6.34,2.36,9.04,4.71,2.71,2.35,5.08,5.15,7.12,8.39s3.73,6.48,5.07,9.69c1.34,3.21,2.35,6.72,3.04,10.54.68,3.81.86,7.58.52,11.29-.33,3.72-1.38,7.05-3.14,10-1.76,2.95-4.44,5.17-8.04,6.68-3.1,1.29-6.05,1.79-8.84,1.5-2.79-.3-5.37-1.19-7.75-2.67-2.37-1.48-4.55-3.34-6.52-5.57-1.97-2.23-3.74-4.67-5.29-7.3-1.55-2.64-2.87-5.23-3.93-7.77-1.34-3.21-2.44-6.69-3.28-10.43-.85-3.74-1.15-7.42-.9-11.04.25-3.61,1.3-6.89,3.17-9.81,1.87-2.93,4.82-5.23,8.87-6.92,3.93-1.64,7.56-2.07,10.88-1.28Zm-14.58,12.97c-.79,2.93-.77,6.4.06,10.42.83,4.01,2.17,8.23,4.02,12.66,1.87,4.49,3.95,8.45,6.23,11.89,2.28,3.44,4.74,5.94,7.38,7.5,2.64,1.56,5.4,1.75,8.28.54,2.94-1.23,4.79-3.33,5.56-6.32.77-2.99.76-6.51-.03-10.57-.79-4.06-2.12-8.34-3.99-12.82-1.85-4.43-3.94-8.34-6.26-11.73-2.33-3.39-4.79-5.84-7.41-7.35-2.61-1.51-5.33-1.67-8.16-.49-2.99,1.25-4.88,3.34-5.67,6.27Z"/><path class="cls-2" d="m1502.93,1902.9l-3.86,1.24-3.32-16.15c.92-.29,2.07-.67,3.47-1.12,1.4-.45,2.87-.93,4.41-1.42,1.54-.5,3.03-.98,4.46-1.44l22.19-7.16,1.66,5.14c1.2,3.71,1.57,7.16,1.11,10.33-.46,3.17-1.39,6.14-2.81,8.9-1.41,2.76-3.01,5.38-4.79,7.88-1.78,2.5-3.43,4.97-4.94,7.41-1.51,2.44-2.62,4.9-3.3,7.36-.69,2.46-.59,5.06.29,7.8.86,2.68,2.44,4.72,4.71,6.1,2.27,1.38,5.15,1.51,8.64.38,3.37-1.09,5.62-2.82,6.74-5.2,1.12-2.38,1.13-5.41,0-9.08l4.28-1.38,5.08,12.83c-1.03.9-2.25,1.83-3.64,2.78-1.4.95-2.97,1.87-4.74,2.76-1.76.88-3.73,1.68-5.9,2.38-2.23.72-4.54,1.16-6.95,1.34-2.4.18-4.72-.02-6.95-.6-2.23-.57-4.22-1.64-5.95-3.19-1.73-1.56-3.04-3.7-3.92-6.45-1.07-3.31-1.29-6.41-.68-9.29.62-2.88,1.71-5.61,3.27-8.2,1.56-2.58,3.32-5.09,5.28-7.52,1.96-2.43,3.75-4.85,5.37-7.26,1.62-2.41,2.8-4.87,3.53-7.38.74-2.51.66-5.13-.22-7.87l-.11-.34-10.54,3.4c-2.86.92-5.07,1.7-6.63,2.33-1.56.63-2.69,1.33-3.39,2.09-.7.76-1.15,1.81-1.35,3.13-.2,1.33-.37,3.15-.51,5.46Z"/><path class="cls-2" d="m1457.45,1914.34l-3.94.93-2.02-16.36c.94-.22,2.12-.5,3.55-.84,1.43-.34,2.93-.69,4.51-1.07,1.58-.37,3.1-.73,4.56-1.08l22.69-5.37,1.24,5.26c.9,3.8.99,7.26.28,10.39-.71,3.13-1.88,6.01-3.51,8.65-1.63,2.64-3.43,5.13-5.4,7.48-1.97,2.35-3.81,4.68-5.52,6.99-1.7,2.31-3,4.67-3.88,7.07-.88,2.4-.99,5-.33,7.8.65,2.74,2.05,4.9,4.21,6.45,2.16,1.56,5.02,1.91,8.58,1.07,3.45-.81,5.82-2.36,7.14-4.65,1.31-2.28,1.55-5.3.73-9.05l4.38-1.04,4.05,13.2c-1.1.82-2.39,1.64-3.85,2.48-1.47.84-3.11,1.63-4.94,2.37-1.83.74-3.85,1.37-6.07,1.9-2.28.54-4.62.8-7.03.78-2.41-.02-4.7-.4-6.89-1.15-2.18-.75-4.07-1.97-5.67-3.65-1.6-1.69-2.73-3.93-3.4-6.74-.8-3.39-.78-6.49.06-9.31.84-2.82,2.15-5.46,3.91-7.91,1.76-2.45,3.72-4.81,5.87-7.08,2.15-2.27,4.12-4.54,5.93-6.81,1.81-2.28,3.18-4.64,4.11-7.08.93-2.44,1.07-5.06.41-7.87l-.08-.35-10.78,2.55c-2.92.69-5.18,1.29-6.79,1.79-1.61.5-2.79,1.11-3.55,1.81-.76.7-1.29,1.71-1.6,3.01-.31,1.31-.62,3.11-.94,5.4Z"/><path class="cls-2" d="m1372.45,1938.89l-.63-5.91,55.14-5.92.63,5.91-55.14,5.92Z"/><path class="cls-2" d="m1305.2,1958.6c1.24,1.11,2.69,2.06,4.36,2.88,1.66.81,3.38,1.46,5.14,1.95,1.76.49,3.36.74,4.8.77,1.8.04,3.38-.17,4.74-.63,1.36-.45,2.42-1.18,3.2-2.19.77-1.01,1.17-2.26,1.2-3.76.03-1.68-.6-3.22-1.89-4.63-1.29-1.41-2.96-2.75-5.01-4.02-2.05-1.27-4.14-2.53-6.27-3.77-2.61-1.49-4.83-2.98-6.66-4.46-1.83-1.48-3.3-2.98-4.41-4.5-1.11-1.52-1.92-3.09-2.43-4.69-.51-1.6-.74-3.33-.71-5.19.07-3.6,1.04-6.76,2.89-9.49,1.86-2.72,4.46-4.83,7.83-6.33,3.36-1.49,7.29-2.19,11.79-2.11,2.88.06,5.59.38,8.13.97,2.54.59,4.85,1.31,6.94,2.16,2.08.85,3.78,1.74,5.08,2.67l-1.16,12.85c-1.59-1.53-3.39-2.86-5.41-3.98-2.02-1.12-4.09-2-6.21-2.65-2.12-.64-4.17-.98-6.15-1.02-3.24-.07-5.68.5-7.33,1.7-1.65,1.2-2.49,2.79-2.53,4.77-.03,1.62.44,2.99,1.4,4.13.97,1.13,2.33,2.19,4.08,3.19,1.75.99,3.76,2.12,6.01,3.36,3.27,1.69,6.08,3.48,8.45,5.39,2.36,1.91,4.17,4.05,5.41,6.41s1.83,5.11,1.77,8.23c-.07,3.66-1.1,6.88-3.08,9.66-1.98,2.78-4.66,4.95-8.05,6.5-3.39,1.55-7.25,2.29-11.57,2.2-3.36-.07-6.52-.57-9.47-1.5-2.95-.93-5.26-1.83-6.92-2.71l2.05-12.21Z"/><path class="cls-2" d="m1279.46,1954.69c-3.04.53-5.97.64-8.77.35-3.52-.37-6.67-1.32-9.43-2.84-2.77-1.53-4.87-3.75-6.32-6.68-1.44-2.93-1.92-6.72-1.44-11.37l1.15-11.01.23-2.24c.12-1.14.22-2.29.31-3.45.09-1.17.16-2.4.2-3.69.04-1.29.08-2.62.1-3.97.02-1.36-.01-2.76-.1-4.22l10.6.75c.44.95.81,1.76,1.1,2.42s.63,1.47,1.01,2.41l.45.05c.86-.76,1.92-1.52,3.18-2.29,1.26-.77,2.72-1.38,4.4-1.8,1.67-.43,3.59-.53,5.73-.31,2.75.29,5.03,1.13,6.84,2.52,1.82,1.4,3.16,3.15,4.02,5.26.87,2.11,1.18,4.3.94,6.57-.37,3.58-1.64,6.32-3.8,8.2-2.16,1.89-5.22,3.21-9.19,3.97-3.97.76-8.9,1.29-14.78,1.58-.17,1.61-.02,3.1.44,4.48.46,1.37,1.32,2.52,2.58,3.44,1.26.92,3.03,1.49,5.3,1.73,1.02.11,2.12.11,3.3.03,1.19-.09,2.38-.27,3.59-.53,1.2-.27,2.36-.63,3.46-1.09,1.1-.46,2.17-.97,3.19-1.52l-.25,11.11c-2.33.9-5.01,1.62-8.05,2.15Zm-5.63-27.61c2.06-.36,3.7-1.03,4.92-2.02,1.22-.99,1.92-2.35,2.1-4.08.19-1.79-.2-3.17-1.15-4.15-.95-.97-2.21-1.54-3.76-1.7-1.79-.19-3.5.4-5.12,1.77-1.62,1.37-2.81,3.34-3.56,5.92l-.5,4.75c2.65.04,5.01-.13,7.07-.48Z"/><path class="cls-2" d="m1246.26,1904.7c-.16.46-.33,1.03-.52,1.73-.18.7-.44,1.64-.76,2.83-.32,1.19-.7,2.69-1.13,4.5-.43,1.81-.94,4.03-1.52,6.67l-2.31,10.46c-.58,2.64-1.07,4.91-1.46,6.82-.39,1.91-.71,3.59-.97,5.04-.26,1.45-.49,2.78-.7,3.99-.21,1.21-.42,2.44-.63,3.69l-11.78-2.6.44-7-.35-.08c-1.9,2.47-4.27,4.05-7.13,4.74-2.86.69-5.69.73-8.5.11-2.34-.52-4.32-1.32-5.92-2.41-1.6-1.09-2.87-2.37-3.81-3.84-.94-1.47-1.57-2.97-1.91-4.52-1.18,1.15-2.61,2.17-4.32,3.06-1.7.88-3.54,1.49-5.52,1.83-1.98.33-3.99.27-6.04-.18-5.74-1.27-9.56-3.89-11.45-7.87-1.89-3.98-2.17-8.99-.83-15.03l2.6-11.78c.58-2.64,1.05-4.84,1.41-6.6.36-1.77.63-3.21.82-4.34.19-1.13.35-2.07.49-2.84.14-.77.25-1.48.33-2.14l13.1,2.89c-.16.46-.33,1.03-.52,1.73-.18.7-.44,1.64-.76,2.83-.32,1.19-.7,2.69-1.13,4.5-.43,1.81-.94,4.04-1.52,6.67l-2.11,9.58c-.44,1.99-.57,3.79-.41,5.4.17,1.61.74,2.98,1.72,4.11.98,1.14,2.43,1.92,4.37,2.35,1.93.43,3.82.32,5.65-.32,1.83-.64,3.39-1.65,4.68-3.03.12-.83.29-1.8.5-2.89.21-1.09.46-2.31.76-3.66l1.73-7.82c.58-2.64,1.06-4.87,1.43-6.69.37-1.82.66-3.34.87-4.56.21-1.21.37-2.18.5-2.89.13-.71.21-1.31.26-1.79l13.19,2.91c-.16.46-.33,1.03-.52,1.73-.18.7-.44,1.64-.76,2.83-.32,1.19-.7,2.69-1.13,4.5-.43,1.81-.94,4.04-1.52,6.67l-2.09,9.49c-.48,2.17-.62,4.07-.43,5.71.19,1.64.74,2.98,1.65,4.01.91,1.03,2.24,1.74,4,2.13,1.7.38,3.52.27,5.46-.32,1.94-.59,3.69-1.75,5.24-3.5l3.04-13.8c.58-2.64,1.06-4.87,1.43-6.69.37-1.82.66-3.34.87-4.56.21-1.21.37-2.18.5-2.89.13-.71.21-1.31.26-1.79l13.19,2.91Z"/><path class="cls-2" d="m1137.09,1924.68c-.02,2.43-.06,4.53-.12,6.31-.06,1.77-.11,3.55-.14,5.34-.03,1.78-.06,3.89-.08,6.32l-13.48-5.09c.1-2.47.2-4.61.31-6.43.11-1.82.21-3.64.29-5.47.08-1.83.17-3.98.27-6.44l1.16-38.25,4.8,1.81-24.77,30.68c-.62.79-1.39,1.74-2.32,2.83-.93,1.09-1.86,2.25-2.8,3.47-.94,1.22-1.84,2.37-2.7,3.45-.86,1.09-1.79,2.28-2.79,3.57l-11.96-4.52c1.56-1.91,3.13-3.84,4.73-5.77,1.6-1.93,3.64-4.42,6.13-7.45l32.03-38.43,12.13,4.58-.69,49.49Z"/><path class="cls-2" d="m1071.67,1898.81c-3.04-.54-5.83-1.43-8.36-2.67-3.18-1.55-5.82-3.52-7.9-5.89-2.08-2.38-3.3-5.19-3.66-8.44-.36-3.24.49-6.97,2.54-11.18l4.84-9.96.98-2.02c.5-1.03.99-2.07,1.48-3.14.49-1.07.97-2.2,1.45-3.4.48-1.2.97-2.43,1.45-3.7.48-1.27.93-2.6,1.35-4l9.71,4.32c.09,1.05.16,1.93.21,2.66.05.72.09,1.6.13,2.62l.4.2c1.07-.41,2.33-.77,3.77-1.07,1.45-.3,3.03-.36,4.75-.19,1.72.17,3.55.73,5.49,1.67,2.48,1.21,4.34,2.78,5.57,4.71,1.23,1.93,1.89,4.04,1.98,6.32.09,2.28-.36,4.45-1.36,6.5-1.58,3.24-3.7,5.37-6.37,6.41-2.67,1.04-6.01,1.23-10,.59-3.99-.64-8.8-1.83-14.43-3.57-.71,1.46-1.08,2.91-1.12,4.36-.04,1.45.38,2.82,1.25,4.11.87,1.29,2.34,2.44,4.39,3.44.92.45,1.95.83,3.09,1.15,1.14.32,2.33.57,3.55.73,1.22.16,2.43.22,3.63.16,1.19-.05,2.37-.17,3.52-.34l-4.04,10.35c-2.49.05-5.26-.19-8.3-.74Zm4.15-27.87c2.06.37,3.83.29,5.31-.22,1.49-.51,2.61-1.55,3.37-3.12.79-1.62.9-3.05.34-4.29-.56-1.24-1.55-2.2-2.95-2.89-1.62-.79-3.42-.82-5.42-.08-1.99.73-3.78,2.18-5.37,4.35l-2.09,4.29c2.48.94,4.75,1.59,6.81,1.96Z"/><path class="cls-2" d="m1025.6,1866.95c-2.58,1.74-5.31,2.5-8.19,2.27-2.88-.22-5.5-1.04-7.87-2.47-3.34-2.01-5.63-4.27-6.84-6.79-1.22-2.52-1.63-5.13-1.23-7.83.4-2.7,1.38-5.37,2.96-7.99l8.67-14.43c.99-1.65,1.87-3.15,2.65-4.5.78-1.35,1.46-2.57,2.04-3.66.58-1.09,1.07-1.98,1.46-2.69.39-.71.69-1.29.88-1.73l11.58,6.95c-.3.38-.67.91-1.11,1.59-.44.68-1.01,1.53-1.69,2.55-.68,1.02-1.44,2.2-2.27,3.52-.83,1.32-1.74,2.81-2.73,4.45l-5.98,9.96c-1.05,1.75-1.75,3.41-2.1,4.99-.35,1.58-.26,3.05.28,4.42.54,1.37,1.66,2.57,3.36,3.59,1.49.9,3.25,1.38,5.28,1.44,2.03.06,4.06-.49,6.08-1.65l-4.91,8.18-.31-.19Zm32.03-27.29c-.3.38-.67.91-1.11,1.59-.44.68-1.01,1.53-1.69,2.55-.68,1.02-1.44,2.2-2.27,3.52-.83,1.32-1.74,2.81-2.73,4.45l-6.44,10.73c-.99,1.65-1.93,3.24-2.81,4.77-.88,1.53-1.73,3.02-2.53,4.47-.8,1.45-1.55,2.81-2.26,4.11-.71,1.29-1.37,2.52-2,3.68l-.19.31-10.34-6.21,2.64-6.5,13.12-21.84c.99-1.65,1.87-3.15,2.65-4.5.78-1.35,1.46-2.57,2.04-3.66.58-1.09,1.07-1.98,1.46-2.69s.68-1.29.88-1.73l11.58,6.95Z"/><path class="cls-2" d="m972.96,1840.72c-.73,2.32-1.38,4.32-1.96,5.99-.58,1.68-1.14,3.37-1.7,5.06-.55,1.7-1.2,3.7-1.93,6.02l-11.39-8.82c.82-2.33,1.54-4.35,2.18-6.05.64-1.71,1.27-3.42,1.88-5.15.62-1.73,1.33-3.75,2.15-6.08l12.32-36.23,4.06,3.14-32.68,22.07c-.82.58-1.84,1.25-3.05,2.02-1.21.77-2.44,1.6-3.69,2.49-1.26.89-2.45,1.72-3.59,2.51-1.14.79-2.38,1.65-3.71,2.59l-10.11-7.82c2.05-1.37,4.12-2.75,6.21-4.13,2.09-1.38,4.78-3.16,8.05-5.33l41.89-27.35,10.25,7.93-15.17,47.11Z"/><path class="cls-2" d="m918.03,1796.85c-2.75-1.41-5.15-3.07-7.22-4.99-2.59-2.41-4.53-5.06-5.83-7.94-1.29-2.88-1.64-5.93-1.03-9.14.61-3.21,2.5-6.52,5.69-9.95l7.54-8.11,1.53-1.65c.78-.84,1.55-1.69,2.33-2.57.78-.88,1.57-1.82,2.38-2.83.81-1.01,1.64-2.04,2.47-3.11.83-1.07,1.65-2.21,2.46-3.43l8.02,6.97c-.22,1.03-.41,1.89-.58,2.6s-.38,1.55-.64,2.54l.33.31c1.14-.08,2.45-.06,3.92.08,1.47.14,3,.54,4.6,1.2,1.59.66,3.18,1.73,4.77,3.2,2.02,1.88,3.34,3.93,3.95,6.13.61,2.21.63,4.41.05,6.62-.58,2.21-1.64,4.15-3.2,5.82-2.45,2.64-5.11,4.06-7.97,4.27-2.86.21-6.1-.58-9.74-2.36-3.63-1.78-7.88-4.32-12.76-7.63-1.1,1.19-1.88,2.47-2.35,3.84-.46,1.38-.46,2.81,0,4.3.46,1.49,1.52,3.01,3.19,4.57.75.7,1.62,1.36,2.62,2.01,1,.64,2.06,1.22,3.18,1.73,1.12.51,2.26.92,3.42,1.21,1.16.3,2.31.53,3.46.7l-6.88,8.72c-2.4-.68-4.98-1.72-7.73-3.13Zm12.11-25.44c1.86.95,3.58,1.4,5.14,1.34,1.57-.06,2.95-.72,4.13-2,1.23-1.32,1.75-2.65,1.58-4.01-.18-1.35-.83-2.56-1.98-3.62-1.32-1.23-3.04-1.78-5.16-1.66-2.12.12-4.25.98-6.4,2.59l-3.25,3.49c2.1,1.62,4.08,2.91,5.94,3.86Z"/><path class="cls-2" d="m893.85,1748.32l-12.57-13.52c-1.55,1.42-2.65,2.88-3.29,4.4-.64,1.52-.84,3.02-.59,4.5.25,1.48.96,2.86,2.13,4.15,1.09,1.2,2.5,2.03,4.22,2.49,1.72.46,3.7.32,5.95-.43,2.24-.75,4.67-2.31,7.29-4.7,2.84-2.59,4.68-5.09,5.51-7.52.83-2.42.9-4.72.19-6.87-.71-2.16-1.87-4.12-3.49-5.9-1.62-1.77-3.56-3.35-5.84-4.73-2.27-1.38-4.74-2.32-7.39-2.83l7.44-8c1.55.45,3.13,1.09,4.72,1.91,1.6.82,3.23,1.87,4.89,3.16s3.34,2.86,5.04,4.73c2.91,3.19,4.94,6.76,6.1,10.7,1.16,3.94,1.16,7.96.02,12.05-1.15,4.09-3.71,7.95-7.71,11.59-3.55,3.23-7.34,5.4-11.39,6.48-4.04,1.09-8.03,1.08-11.95-.01-3.92-1.09-7.42-3.33-10.49-6.7-2.99-3.28-4.81-6.7-5.45-10.26-.64-3.56.06-7.18,2.1-10.86,2.04-3.69,5.59-7.47,10.66-11.36l19.89,21.82-6,5.71Z"/><path class="cls-2" d="m850.08,1714.68c-2.46.18-4.63,0-6.51-.54-1.88-.54-3.52-1.33-4.91-2.37-1.39-1.04-2.61-2.22-3.65-3.54-.07-.09-.17-.21-.28-.35s-.2-.26-.28-.35l9.9-7.81c.69,1.06,1.58,2.19,2.68,3.39,1.1,1.2,2.2,2.16,3.31,2.89,1.71,1.1,3.51,1.66,5.41,1.7,1.9.03,3.74-.42,5.51-1.37l-10.96,8.64-.22-.28Zm39.92-14.52c-.41.25-.95.62-1.6,1.09-.65.48-1.48,1.08-2.49,1.79-1,.72-2.13,1.54-3.37,2.49-1.24.94-2.62,2.01-4.13,3.2l-9.83,7.75c-1.51,1.19-3.06,2.44-4.67,3.74-1.61,1.31-3.13,2.57-4.58,3.79-1.45,1.22-2.71,2.28-3.8,3.17-1.09.9-1.85,1.55-2.28,1.97l-7.69-9.76,4.83-4.49,20.29-16c1.51-1.19,2.87-2.28,4.07-3.27,1.21-.99,2.28-1.89,3.2-2.7.93-.81,1.7-1.48,2.32-2,.62-.53,1.1-.96,1.44-1.3l8.31,10.53Z"/><path class="cls-2" d="m839.21,1681.11l-10.52-15.17c-1.74,1.18-3.03,2.48-3.89,3.89-.85,1.41-1.26,2.87-1.22,4.37s.55,2.97,1.52,4.41c.91,1.34,2.19,2.36,3.82,3.06,1.64.7,3.62.84,5.95.42,2.33-.42,4.96-1.62,7.88-3.61,3.18-2.16,5.35-4.38,6.52-6.66,1.17-2.28,1.56-4.54,1.17-6.78-.39-2.24-1.26-4.35-2.61-6.33-1.35-1.99-3.05-3.82-5.1-5.51-2.05-1.69-4.36-2.97-6.91-3.85l8.51-6.86c1.47.67,2.94,1.52,4.4,2.56,1.47,1.04,2.93,2.31,4.39,3.82s2.9,3.31,4.32,5.39c2.43,3.58,3.93,7.4,4.52,11.46.58,4.07.02,8.04-1.7,11.93-1.71,3.89-4.81,7.35-9.28,10.38-3.97,2.7-8.04,4.3-12.2,4.8-4.16.5-8.1-.07-11.83-1.71-3.73-1.64-6.87-4.35-9.43-8.12-2.5-3.67-3.81-7.32-3.94-10.93-.13-3.61,1.08-7.1,3.62-10.46,2.54-3.36,6.6-6.6,12.17-9.73l16.59,24.43-6.75,4.8Z"/><path class="cls-2" d="m800.78,1640.98c-3.11.22-5.85-.48-8.24-2.11-2.38-1.63-4.25-3.64-5.59-6.06-1.9-3.41-2.75-6.51-2.55-9.3.2-2.79,1.14-5.26,2.83-7.4,1.69-2.14,3.87-3.96,6.55-5.45l14.7-8.2c1.68-.94,3.19-1.8,4.54-2.58,1.35-.79,2.55-1.5,3.59-2.16,1.05-.65,1.92-1.19,2.61-1.61.69-.42,1.24-.77,1.63-1.06l6.58,11.8c-.45.18-1.03.46-1.76.82-.72.37-1.63.83-2.74,1.37-1.1.55-2.34,1.19-3.72,1.92-1.38.73-2.9,1.57-4.58,2.5l-10.14,5.66c-1.78.99-3.22,2.09-4.31,3.28-1.09,1.19-1.74,2.52-1.96,3.98-.22,1.46.16,3.06,1.12,4.79.85,1.52,2.14,2.81,3.86,3.88,1.73,1.06,3.76,1.6,6.1,1.6l-8.33,4.65-.18-.31Zm41.37-7.71c-.45.18-1.03.46-1.76.82-.72.37-1.63.83-2.74,1.37-1.1.55-2.34,1.19-3.72,1.92-1.38.73-2.9,1.57-4.58,2.5l-10.93,6.09c-1.68.94-3.28,1.85-4.81,2.74-1.53.89-3,1.76-4.42,2.62-1.41.86-2.74,1.67-4,2.44-1.25.77-2.44,1.5-3.57,2.2l-.31.18-5.87-10.54,5.53-4.32,22.25-12.41c1.68-.94,3.19-1.8,4.54-2.58,1.35-.79,2.55-1.5,3.59-2.16,1.05-.65,1.92-1.19,2.61-1.61.69-.42,1.24-.77,1.62-1.06l6.58,11.8Z"/><path class="cls-2" d="m767.03,1587.93c-2.23-1.64-3.98-3.89-5.24-6.74-1.5-3.4-1.98-6.83-1.44-10.29.54-3.45,2.06-6.63,4.55-9.54,2.49-2.9,5.85-5.29,10.08-7.15,5.27-2.33,10.17-3.16,14.69-2.5,4.52.66,8.53,2.5,12.03,5.52,3.5,3.02,6.33,7,8.52,11.94,1.02,2.31,1.85,4.48,2.49,6.53.64,2.05,1.12,4,1.45,5.85.33,1.86.54,3.65.65,5.37l-41.93,18.5c-1.76.78-3.48,1.55-5.17,2.33-1.69.78-3.31,1.54-4.85,2.29-1.54.75-2.98,1.45-4.33,2.11-1.35.66-2.56,1.26-3.63,1.8l-5.27-11.94,25.29-11.16-.15-.33c-2.92-.09-5.5-.95-7.74-2.59Zm10.86-2.82c1.64,1.05,3.56,1.68,5.75,1.89l17.54-7.74c.19-1.2.2-2.41.01-3.65-.18-1.23-.59-2.56-1.22-3.99-1.07-2.42-2.51-4.29-4.35-5.61-1.83-1.32-3.92-2.06-6.28-2.2-2.36-.14-4.85.37-7.49,1.53-2.74,1.21-4.82,2.68-6.22,4.42-1.4,1.73-2.2,3.53-2.4,5.39-.2,1.86.1,3.69.9,5.51.85,1.92,2.09,3.41,3.74,4.45Z"/><path class="cls-2" d="m764.85,1537.24l-6.1-17.42c-1.99.68-3.58,1.58-4.78,2.72-1.2,1.14-1.98,2.43-2.34,3.89-.36,1.45-.26,3.01.3,4.65.52,1.53,1.48,2.86,2.87,3.97,1.39,1.11,3.27,1.78,5.62,1.99,2.35.22,5.21-.25,8.56-1.39,3.64-1.24,6.32-2.8,8.06-4.69,1.74-1.89,2.71-3.96,2.93-6.22.22-2.26-.06-4.53-.83-6.8-.77-2.27-1.92-4.5-3.45-6.67-1.53-2.17-3.41-4.02-5.64-5.55l10.03-4.36c1.24,1.04,2.43,2.25,3.57,3.64,1.14,1.39,2.21,3.01,3.22,4.85,1.01,1.85,1.92,3.96,2.73,6.35,1.39,4.09,1.82,8.18,1.31,12.25-.52,4.07-2.12,7.76-4.81,11.05-2.69,3.29-6.59,5.8-11.7,7.54-4.55,1.54-8.89,2-13.03,1.38-4.14-.62-7.79-2.22-10.95-4.79-3.16-2.57-5.47-6.02-6.93-10.34-1.43-4.21-1.72-8.07-.89-11.58.84-3.52,2.92-6.55,6.27-9.12,3.35-2.56,8.12-4.61,14.31-6.14l9.49,27.96-7.79,2.83Z"/><path class="cls-2" d="m738.23,1488.87c-2.32-.82-4.24-1.86-5.74-3.11-1.5-1.25-2.69-2.63-3.55-4.15-.86-1.51-1.5-3.08-1.93-4.71-.03-.12-.07-.26-.11-.44-.05-.17-.08-.32-.11-.44l12.2-3.18c.2,1.25.57,2.64,1.09,4.18.53,1.54,1.15,2.86,1.87,3.98,1.12,1.69,2.55,2.93,4.27,3.72,1.73.79,3.59,1.11,5.6.96l-13.5,3.52-.09-.35Zm42.39,2.71c-.48.06-1.12.18-1.91.36-.79.18-1.79.39-3,.64-1.2.25-2.57.56-4.09.93-1.52.37-3.2.79-5.06,1.27l-12.11,3.16c-1.86.48-3.79,1-5.78,1.55s-3.9,1.1-5.72,1.63-3.4,1-4.76,1.38c-1.36.39-2.32.68-2.88.89l-3.14-12.02,6.22-2.18,25-6.52c1.86-.49,3.54-.94,5.04-1.36,1.5-.42,2.84-.82,4.02-1.19,1.18-.37,2.15-.67,2.93-.9.78-.23,1.39-.44,1.84-.62l3.39,12.98Z"/><path class="cls-2" d="m720.78,1436.56c-.54-1.12-1.18-2.38-1.92-3.77-.74-1.39-1.48-2.78-2.22-4.17-.74-1.39-1.38-2.65-1.92-3.77-.54-1.12-.86-1.95-.95-2.48l9.74-1.77c.2,1.12.41,2.26.62,3.41.21,1.15.42,2.29.62,3.41.2,1.12.41,2.26.62,3.41.21,1.15.42,2.29.62,3.41.2,1.12.41,2.24.61,3.37l-4.88,1.34c-.09-.47-.4-1.27-.94-2.39Zm32.84,15.76c-.79,3.35-2.25,6.08-4.36,8.21-2.11,2.12-4.71,3.46-7.78,4.02-3.13.57-6.1.23-8.93-1.03-2.82-1.26-5.23-3.29-7.24-6.1-2-2.81-3.38-6.25-4.12-10.32-.58-3.19-.65-6.1-.22-8.75.43-2.64,1.3-4.95,2.58-6.92,1.29-1.97,2.87-3.57,4.75-4.8,1.88-1.23,3.97-2.05,6.28-2.47,3.13-.57,6.01-.25,8.64.94,2.63,1.2,4.85,3.16,6.65,5.88,1.81,2.72,3.08,6.09,3.81,10.11.75,4.13.73,7.87-.06,11.22Zm-11.03-14.6c-1.74-1.33-3.9-1.76-6.5-1.29-2.77.5-4.72,1.7-5.85,3.58-1.12,1.88-1.5,3.83-1.13,5.83.25,1.36.82,2.6,1.73,3.71.91,1.12,2.05,1.98,3.44,2.58,1.39.6,2.97.74,4.74.42,2.66-.48,4.54-1.68,5.66-3.59,1.12-1.91,1.49-3.9,1.11-5.97-.4-2.18-1.46-3.94-3.2-5.27Zm9.47,8.07c.94,1.48,1.84,2.49,2.7,3.03.86.55,1.74.74,2.62.58,1.36-.25,2.17-1.07,2.44-2.46.27-1.39.2-3.36-.21-5.91l-.97-5.86c-.97-5.99-.64-10.89.98-14.73,1.62-3.83,4.7-6.16,9.25-6.99,3.6-.65,6.9-.19,9.91,1.4,3,1.59,5.58,4.19,7.73,7.79,2.15,3.61,3.73,8.15,4.73,13.64.82,4.49,1.03,8.37.65,11.64-.38,3.27-1.29,5.85-2.71,7.72-1.43,1.88-3.32,3.03-5.68,3.46-1.48.27-2.96.17-4.44-.29-1.49-.46-2.85-1.22-4.08-2.28-1.23-1.06-2.28-2.31-3.16-3.77-.88-1.46-1.48-3.13-1.83-5.02l.68-3.78c.89,1.55,1.98,2.67,3.27,3.39,1.29.71,2.64.94,4.06.68,1.65-.3,2.89-1.06,3.7-2.28.82-1.22,1.32-2.73,1.51-4.53.19-1.8.11-3.65-.23-5.54-.31-1.71-.86-3.37-1.64-4.96-.78-1.6-1.79-2.88-3.03-3.84-1.24-.96-2.63-1.31-4.17-1.03-2.07.38-3.42,1.64-4.07,3.8-.64,2.16-.66,4.9-.06,8.2l1.27,7c.47,2.6.51,4.99.11,7.16-.4,2.18-1.17,3.96-2.32,5.36-1.15,1.4-2.7,2.28-4.65,2.63-2.66.48-5.17-.16-7.53-1.92-2.36-1.77-4.36-4.76-5.98-8.98l1.13-3.32Z"/><path class="cls-2" d="m763.15,1407.2c-.48-.02-1.13,0-1.94.04-.81.04-1.83.09-3.06.14-1.23.05-2.62.13-4.18.24-1.56.11-3.29.25-5.2.42l-33.09,2.94c-1.91.17-3.78.34-5.6.5-1.82.16-3.57.33-5.24.51-1.67.18-3.27.37-4.79.56-1.52.2-2.9.38-4.15.55l-1.14-12.82,26.99-2.4,25.92-2.3c1.91-.17,3.65-.34,5.2-.51,1.55-.17,2.94-.34,4.16-.5,1.22-.17,2.23-.3,3.04-.41.8-.1,1.44-.2,1.92-.31l1.19,13.36Zm-41.45-9.69c-2.65-1.39-4.72-3.26-6.19-5.6-1.47-2.34-2.33-4.88-2.58-7.63-.34-3.89.14-7.06,1.46-9.53,1.32-2.47,3.19-4.32,5.61-5.56,2.42-1.24,5.16-1.99,8.21-2.27l16.77-1.49c1.91-.17,3.65-.34,5.2-.51,1.55-.17,2.94-.34,4.16-.5,1.22-.17,2.23-.3,3.04-.41.8-.1,1.44-.2,1.92-.31l1.19,13.36c-.48-.02-1.13,0-1.94.04-.81.04-1.83.09-3.06.14-1.23.05-2.62.13-4.18.24-1.56.11-3.29.25-5.2.42l-11.57,1.03c-2.03.18-3.79.61-5.26,1.28-1.48.67-2.61,1.63-3.41,2.88-.79,1.25-1.1,2.85-.93,4.83.15,1.73.8,3.44,1.95,5.11,1.14,1.68,2.78,2.99,4.92,3.95l-10.04.98-.04-.45Z"/><path class="cls-2" d="m731.68,1280.12l5.94.25-2.31,55.41-5.94-.25,2.31-55.41Z"/><path class="cls-2" d="m759.47,1205.11c1.33-.25,2.54-.48,3.65-.71,1.11-.23,2.13-.45,3.05-.68.93-.23,1.8-.48,2.61-.76.81-.28,1.62-.59,2.41-.94.79-.34,1.59-.72,2.4-1.12l-3.05,16.83c-.7-.86-1.46-1.54-2.28-2.06-.82-.51-1.73-.89-2.72-1.13-.99-.24-2.11-.4-3.35-.47-1.24-.07-2.64-.05-4.22.06-1.58.11-3.33.27-5.25.47l-38.99,5.11.13-.71,37.11,21.45c2.49,1.43,4.52,2.5,6.1,3.21,1.58.71,3.02,1.07,4.34,1.06,1.31,0,2.79-.35,4.44-1.03l-2.87,15.86c-.74-.99-1.6-1.95-2.59-2.89-.99-.94-2.07-1.87-3.25-2.78-1.18-.91-2.39-1.8-3.63-2.67-1.25-.87-2.5-1.7-3.75-2.51-1.26-.81-2.49-1.59-3.69-2.36-1.2-.77-2.35-1.49-3.45-2.18l-22.35-14.02c-1.97-1.27-3.67-2.36-5.13-3.26-1.45-.9-2.92-1.81-4.4-2.72-1.48-.91-3.21-2-5.17-3.27l1.38-7.62,52.53-8.15Zm-20.29,34.75l5.76-31.8,6.91,1.25-5.76,31.8-6.91-1.25Z"/><path class="cls-2" d="m774.72,1199.08c-.4-2.03-1.06-3.67-1.97-4.93-.91-1.26-1.95-2.28-3.11-3.05-1.16-.77-2.39-1.37-3.67-1.8-1.28-.43-2.51-.79-3.67-1.1l-31.01-8.11c-2.21-.58-4.19-1.05-5.96-1.42-1.77-.37-3.39-.51-4.86-.44-1.48.08-2.91.46-4.3,1.15-1.39.69-2.79,1.82-4.19,3.37l1.26-15.49,4.53,1.18,46.51,12.16c1.16.3,2.41.58,3.74.84,1.33.25,2.69.33,4.08.23,1.39-.1,2.79-.48,4.21-1.13,1.41-.65,2.79-1.77,4.13-3.34l-5.72,21.86Z"/><path class="cls-2" d="m785.53,1137.7c1.38,2.11,2.47,4.65,3.27,7.62.8,2.97.66,6.07-.44,9.31-1.14,3.36-2.75,5.74-4.84,7.15-2.1,1.41-4.5,2.11-7.21,2.07-2.71-.03-5.58-.56-8.59-1.58l-9.38-3.17c-2.16-.73-4.11-1.34-5.84-1.83s-3.34-.75-4.82-.78c-1.48-.03-2.94.26-4.37.85-1.44.59-2.91,1.62-4.41,3.07l2.35-15.36.34.12c1.14.39,2.09.71,2.86.97.77.26,1.61.54,2.52.85.91.31,2.1.71,3.58,1.21,1.48.5,3.5,1.18,6.05,2.05l10.92,3.69c2.27.77,4.36,1.27,6.24,1.5,1.89.23,3.52-.05,4.89-.82,1.37-.77,2.44-2.29,3.21-4.57.94-2.79,1.08-5.45.42-7.98-.66-2.54-1.79-4.83-3.37-6.89l6.71,2.37-.06.17Zm-34.95-20.29c1.08.37,2.15.73,3.2,1.08,1.05.36,2.49.84,4.31,1.46,1.82.62,4.43,1.5,7.85,2.66l16.72,5.66c1.31.44,2.49.73,3.55.87,1.06.14,2.05.12,2.96-.04s1.82-.49,2.71-.98c.89-.49,1.83-1.14,2.8-1.95l-1.91,12.66-7.17-1.29-18.68-6.32c-1.99-.67-3.79-1.24-5.42-1.69-1.62-.45-3.13-.71-4.54-.77-1.4-.06-2.81.14-4.2.62-1.4.48-2.81,1.33-4.24,2.56l2.06-14.51Z"/><path class="cls-2" d="m802.74,1084.15l-32.04-14.37c-2.08-.93-3.96-1.73-5.64-2.38s-3.25-1.07-4.73-1.23c-1.47-.17-2.95-.02-4.44.43-1.49.45-3.05,1.33-4.68,2.63l3.8-15.07,4.27,1.92,38.44,17.25c2.41,1.08,4.53,1.97,6.36,2.66,1.83.69,3.49,1.14,4.97,1.34,1.49.21,2.87.17,4.15-.11,1.28-.28,2.53-.84,3.76-1.67l-2.32,12.87-11.91-4.26Zm-20.78-9.32l-2.79-1.25c-1.37.57-2.74,1.53-4.11,2.89-1.37,1.36-2.52,3.08-3.45,5.16-1.06,2.36-1.48,4.91-1.27,7.67.21,2.76,1.22,5.38,3.03,7.87,1.81,2.49,4.58,4.57,8.3,6.24,2.96,1.33,5.8,1.95,8.54,1.86,2.74-.09,5.15-.81,7.24-2.18,2.09-1.36,3.67-3.22,4.72-5.58.93-2.08,1.37-4.33,1.31-6.76-.06-2.43-1.02-4.95-2.88-7.56l.57.26,3.21-7.15,6.16,2.76,2.05,8.42-5.6-1.82-.15.33c1.85,2.48,2.85,5.19,3,8.16.15,2.96-.41,5.87-1.69,8.72-1.52,3.4-3.72,6.09-6.59,8.09-2.87,2-6.2,3.12-9.99,3.36-3.79.24-7.88-.62-12.26-2.59-3.83-1.72-6.93-3.9-9.3-6.54s-4.06-5.5-5.08-8.59c-1.02-3.09-1.42-6.23-1.2-9.42.22-3.19.95-6.19,2.2-8.98,1.23-2.74,2.62-4.92,4.18-6.56,1.56-1.64,3.13-2.94,4.71-3.91,1.59-.97,3.03-1.88,4.34-2.74l6,2.69-3.21,7.15Z"/><path class="cls-2" d="m821.75,1071.7c.1-2.06-.13-3.82-.71-5.26-.58-1.44-1.34-2.68-2.28-3.71-.94-1.03-1.99-1.91-3.13-2.63-1.14-.73-2.24-1.38-3.29-1.95l-9.95-5.44c-2-1.09-3.81-2.03-5.44-2.82-1.62-.78-3.16-1.32-4.61-1.6-1.45-.28-2.94-.25-4.46.08-1.52.33-3.14,1.09-4.88,2.26l4.97-14.73,9.09,4.97,19.04,10.41c1.05.58,2.19,1.15,3.42,1.72,1.23.57,2.53.97,3.9,1.21,1.37.24,2.83.21,4.35-.08,1.53-.29,3.13-1.04,4.82-2.24l-10.84,19.83Zm-24.05-30.9c-1.74-2.32-2.97-4.63-3.69-6.94-.72-2.31-1.02-4.49-.89-6.54.13-2.05.61-3.84,1.45-5.37.06-.1.13-.24.22-.39s.16-.29.22-.39l10.59,5.79c-.91.53-1.9,1.34-2.97,2.43-1.07,1.09-1.89,2.58-2.44,4.46-.53,1.97-.44,3.81.26,5.53s1.63,3.34,2.78,4.86l-5.69-3.11.17-.32Z"/><path class="cls-2" d="m806.32,1005.57c.5-2.67,1.5-5.17,2.99-7.49,1.82-2.83,3.89-4.89,6.21-6.17,2.33-1.29,4.98-1.7,7.97-1.25,2.99.46,6.35,1.89,10.09,4.29l10.53,6.76,2.95,1.9c1.01.65,1.96,1.19,2.86,1.62.9.43,1.82.72,2.76.86.94.14,1.94.09,2.99-.16,1.05-.25,2.24-.74,3.56-1.46l-4.06,12.16c-.44-.21-.96-.47-1.58-.8-.61-.32-1.29-.65-2.04-.99-.75-.34-1.44-.67-2.08-1.01-.64-.34-1.15-.6-1.54-.77l-.24.38c.67,1.07,1.19,2.46,1.56,4.16.37,1.7.44,3.53.22,5.49-.23,1.96-.92,3.85-2.09,5.67-1.43,2.22-3.13,3.87-5.11,4.96-1.98,1.08-4.04,1.58-6.19,1.48-2.15-.1-4.23-.79-6.25-2.09-3.03-1.95-4.93-4.27-5.69-6.97-.76-2.7-.55-5.97.63-9.81,1.18-3.84,3.18-8.39,5.99-13.65-2.32-1.49-4.49-2.56-6.5-3.21-2.01-.65-3.86-.73-5.56-.26-1.7.48-3.16,1.68-4.4,3.6-.75,1.16-1.25,2.39-1.51,3.68-.26,1.3-.29,2.65-.09,4.06.2,1.41.61,2.85,1.24,4.32.62,1.47,1.47,2.94,2.52,4.4l-10.6-6.81c-.2-1.91-.05-4.2.46-6.88Zm24.9,8.72c-1.06,2.53-1.49,4.71-1.31,6.54.18,1.83,1.21,3.34,3.07,4.54,1.97,1.27,3.85,1.67,5.64,1.22,1.79-.46,3.28-1.62,4.49-3.49,1.1-1.72,1.59-3.7,1.47-5.96-.12-2.25-.95-4.73-2.5-7.44l-6.51-4.19c-1.84,3.31-3.29,6.23-4.35,8.76Z"/><path class="cls-2" d="m888.88,924.25l4.56,3.81-35.57,42.55-4.56-3.81,35.57-42.55Z"/><path class="cls-2" d="m900.23,872.86c-2.48,2.27-4.26,4.39-5.37,6.34-1.1,1.95-1.43,3.96-.99,6.04.44,2.08,1.73,4.54,3.86,7.4l-2.98,2.74-11.7-14.07.13-.12c1.15-1.06,2.33-2.14,3.55-3.26,1.21-1.12,2.95-2.71,5.2-4.78l14.32-13.16,3.65,3.98-9.68,8.89Zm-.27-7.08l13.52-12.43c2.47-2.27,4.43-4.07,5.87-5.39,1.44-1.32,2.77-2.55,4.01-3.69l.13-.12,11.7,14.07-2.98,2.74c-2.53-2.49-4.7-4.14-6.51-4.96-1.81-.82-3.66-.83-5.54-.04-1.88.79-4.06,2.32-6.53,4.6l-10.01,9.2-3.65-3.98Zm33.84,49.6c1.1-1.99,1.9-3.58,2.4-4.77.5-1.19.7-2.23.61-3.13-.09-.9-.54-1.85-1.34-2.86-.81-1.01-1.98-2.36-3.53-4.04l-21.01-22.87c-1.38-1.5-2.44-2.65-3.17-3.45s-1.37-1.49-1.92-2.09c-.55-.6-1.24-1.35-2.07-2.25-.83-.91-2.02-2.2-3.56-3.88l-.24-.27,6.3-5.79.24.27c1.3,1.42,2.34,2.54,3.11,3.38.77.84,1.48,1.61,2.13,2.32.65.71,1.38,1.5,2.19,2.39.81.89,1.91,2.08,3.29,3.58l21.01,22.87c1.54,1.68,2.8,2.95,3.76,3.82.96.87,1.86,1.41,2.7,1.61.84.21,1.89.1,3.14-.31,1.25-.41,2.91-1.09,4.99-2.02l2.44,2.65-19.03,17.48-2.44-2.65Z"/><path class="cls-2" d="m965.94,885.13c1.34-1.84,2.33-3.32,2.97-4.44.64-1.12.97-2.13.99-3.03.02-.9-.31-1.9-.98-3-.68-1.1-1.68-2.58-3-4.44l-18.31-25.64c-1.32-1.86-2.4-3.28-3.22-4.28-.82-1-1.66-1.63-2.52-1.9-.86-.27-1.92-.29-3.19-.05-1.27.24-2.99.7-5.17,1.36l-2.09-2.93,10.33-7.38,1.39-.99c1.43,2,2.91,4.08,4.45,6.23,1.54,2.15,3.09,4.32,4.66,6.52l18.36,25.72c1.33,1.86,2.4,3.28,3.22,4.28.82,1,1.66,1.63,2.52,1.91.86.27,1.92.29,3.19.05,1.27-.24,2.99-.7,5.16-1.37l2.09,2.93-18.76,13.39-2.09-2.93Zm-11.74-64.63l2.09,2.93c-1.31,1.67-2.05,3.12-2.21,4.34-.16,1.22.74,2.38,2.71,3.49l36.19,19.85,4.65,8.52-3.37,2.41-49.84-27.36-6.4-2.62,16.19-11.56Zm37.29,38.75l-7.62-46.77c-.54-2.2-1.31-3.47-2.33-3.81-1.02-.34-2.46-.22-4.32.38l-2.35-3.3,7.99-5.7,3.81-2.72,10.97,62.31-6.13-.38Zm20.94-2.9l-2.09-2.93c1.34-1.84,2.33-3.32,2.97-4.44.64-1.12.97-2.13.99-3.03.02-.9-.31-1.9-.98-3-.68-1.1-1.68-2.58-3-4.44l-18.05-25.28c-1.67-2.34-2.99-4.19-3.95-5.53-.96-1.34-1.83-2.56-2.62-3.66s-1.73-2.43-2.85-3.99l13.99-9.99,2.09,2.93c-1.34,1.84-2.34,3.33-3,4.47-.66,1.14-.98,2.14-.95,3,.03.87.37,1.86,1.02,2.98.65,1.12,1.64,2.61,2.97,4.46l18.31,25.64c1.33,1.86,2.41,3.28,3.26,4.25.85.98,1.68,1.62,2.49,1.93.81.31,1.86.33,3.15.07,1.29-.26,3.02-.72,5.2-1.39l2.09,2.93-21.03,15.02Z"/><path class="cls-2" d="m1079.68,798.92l3.61-1.84,5.84,15.41c-.86.44-1.94.99-3.25,1.66-1.31.67-2.69,1.37-4.13,2.11-1.44.74-2.83,1.45-4.17,2.13l-20.77,10.6-2.46-4.81c-1.77-3.47-2.69-6.82-2.74-10.02-.05-3.21.4-6.28,1.35-9.23.96-2.95,2.11-5.79,3.47-8.54,1.36-2.75,2.59-5.45,3.7-8.1,1.11-2.65,1.8-5.25,2.09-7.79.29-2.54-.22-5.09-1.53-7.66-1.28-2.51-3.16-4.27-5.62-5.27-2.47-1-5.33-.67-8.59,1-3.16,1.61-5.1,3.68-5.83,6.21-.73,2.53-.25,5.52,1.44,8.97l-4.01,2.05-7.06-11.86c.88-1.05,1.93-2.16,3.15-3.33,1.23-1.16,2.64-2.32,4.24-3.48,1.6-1.15,3.42-2.25,5.45-3.29,2.08-1.06,4.3-1.87,6.64-2.43,2.34-.56,4.66-.73,6.96-.52,2.3.21,4.42.94,6.38,2.2,1.96,1.26,3.59,3.17,4.9,5.74,1.58,3.1,2.3,6.12,2.15,9.06-.15,2.94-.79,5.81-1.92,8.61-1.13,2.8-2.47,5.56-4.02,8.27-1.55,2.71-2.93,5.39-4.14,8.03-1.21,2.64-1.98,5.26-2.31,7.85-.33,2.59.16,5.17,1.47,7.74l.16.32,9.86-5.03c2.67-1.36,4.73-2.48,6.17-3.35,1.44-.87,2.45-1.74,3.02-2.6.57-.86.85-1.97.84-3.31-.01-1.34-.13-3.17-.37-5.47Z"/><path class="cls-2" d="m1106.36,802.56c-3.32-.82-6.32-2.41-9.01-4.78-2.69-2.37-5.04-5.19-7.05-8.45-2.01-3.26-3.68-6.5-5-9.72-1.32-3.22-2.31-6.74-2.96-10.56-.65-3.82-.8-7.58-.44-11.3.36-3.71,1.43-7.04,3.22-9.97,1.78-2.93,4.48-5.14,8.09-6.62,3.11-1.27,6.06-1.75,8.85-1.43,2.79.32,5.36,1.23,7.73,2.72,2.36,1.5,4.52,3.37,6.48,5.62,1.96,2.25,3.7,4.7,5.24,7.34,1.54,2.65,2.83,5.25,3.87,7.8,1.32,3.22,2.39,6.71,3.21,10.46.82,3.75,1.09,7.43.82,11.04-.27,3.61-1.35,6.88-3.24,9.79-1.89,2.91-4.86,5.2-8.92,6.86-3.95,1.61-7.58,2.01-10.89,1.2Zm14.68-12.86c.81-2.93.82-6.4.02-10.42-.8-4.02-2.11-8.25-3.93-12.69-1.84-4.5-3.89-8.48-6.15-11.93-2.26-3.45-4.7-5.97-7.32-7.56-2.63-1.58-5.38-1.79-8.27-.6-2.94,1.2-4.81,3.3-5.6,6.28-.79,2.98-.81,6.51-.05,10.57.76,4.07,2.05,8.35,3.9,12.85,1.82,4.45,3.88,8.37,6.18,11.77,2.3,3.4,4.75,5.87,7.36,7.4,2.6,1.53,5.32,1.71,8.15.55,3-1.23,4.91-3.3,5.72-6.23Z"/><path class="cls-2" d="m1171.77,763.98l3.87-1.21,3.2,16.17c-.92.29-2.08.65-3.48,1.09-1.4.44-2.88.9-4.42,1.39-1.55.49-3.04.95-4.47,1.4l-22.24,6.99-1.62-5.15c-1.17-3.72-1.51-7.17-1.03-10.34.48-3.17,1.44-6.13,2.87-8.88,1.43-2.75,3.05-5.36,4.85-7.85,1.8-2.48,3.46-4.94,5-7.37,1.53-2.43,2.65-4.88,3.36-7.33.71-2.45.63-5.06-.24-7.81-.85-2.69-2.4-4.73-4.66-6.13-2.26-1.4-5.14-1.55-8.63-.45-3.38,1.06-5.64,2.78-6.78,5.15-1.14,2.37-1.17,5.4-.07,9.08l-4.29,1.35-4.99-12.87c1.04-.89,2.26-1.81,3.66-2.76,1.4-.94,2.99-1.85,4.76-2.72,1.77-.87,3.74-1.65,5.92-2.33,2.23-.7,4.55-1.13,6.96-1.29,2.4-.16,4.72.06,6.95.65,2.23.59,4.2,1.67,5.92,3.23,1.72,1.57,3.01,3.73,3.88,6.47,1.04,3.32,1.25,6.42.61,9.29-.64,2.88-1.75,5.6-3.33,8.17-1.58,2.57-3.36,5.07-5.34,7.48s-3.78,4.82-5.42,7.22c-1.64,2.4-2.83,4.85-3.59,7.36-.76,2.5-.7,5.13.16,7.88l.11.34,10.56-3.32c2.86-.9,5.08-1.66,6.65-2.28,1.57-.62,2.7-1.31,3.41-2.06.71-.76,1.17-1.8,1.38-3.12.21-1.32.39-3.14.55-5.46Z"/><path class="cls-2" d="m1217.36,752.88l3.95-.9,1.9,16.37c-.94.21-2.12.49-3.55.81-1.43.33-2.94.67-4.52,1.03s-3.1.71-4.56,1.04l-22.73,5.2-1.2-5.27c-.87-3.8-.94-7.27-.21-10.39.73-3.12,1.92-6,3.57-8.62,1.65-2.62,3.46-5.1,5.46-7.44,1.99-2.33,3.85-4.65,5.57-6.95,1.72-2.3,3.03-4.65,3.93-7.04.9-2.39,1.03-4.99.39-7.8-.63-2.75-2.02-4.91-4.16-6.48-2.15-1.57-5-1.95-8.57-1.13-3.45.79-5.84,2.32-7.17,4.59-1.33,2.27-1.59,5.29-.79,9.05l-4.39,1-3.95-13.23c1.11-.81,2.4-1.62,3.87-2.46,1.47-.83,3.13-1.61,4.96-2.34,1.83-.73,3.86-1.35,6.09-1.85,2.28-.52,4.63-.77,7.04-.73,2.41.03,4.7.43,6.88,1.2,2.17.77,4.06,2,5.65,3.7,1.59,1.7,2.7,3.95,3.35,6.76.78,3.39.73,6.5-.13,9.31-.87,2.82-2.19,5.44-3.97,7.88-1.78,2.44-3.75,4.78-5.92,7.03-2.16,2.25-4.16,4.51-5.98,6.77-1.82,2.26-3.21,4.61-4.16,7.05-.95,2.43-1.11,5.06-.46,7.86l.08.35,10.8-2.47c2.92-.67,5.19-1.25,6.81-1.74,1.61-.49,2.8-1.09,3.56-1.78.76-.7,1.3-1.7,1.62-3,.32-1.3.64-3.1.98-5.4Z"/><path class="cls-2" d="m1302.54,728.95l.59,5.91-55.18,5.52-.59-5.91,55.18-5.52Z"/></svg>