<?xml version="1.0" encoding="UTF-8"?><svg xmlns="http://www.w3.org/2000/svg" viewBox="0 0 2672.51 2672.51"><defs><style>.cls-1{fill:#fff;}</style></defs><g id="Background_Big_Sticker"><circle class="cls-1" cx="1336.25" cy="1336.26" r="1328.45"/></g><g id="Big_Sticker"><path d="m2065.69,1803.93l-4.84-2.04,50.06-118.48,4.84,2.04-18.57,62.83,110.99,13.84,54.76-129.61-86.67-71.39-36.2,66.78-4.84-2.04,42.91-101.56,4.84,2.04-4.47,29.46,300.86,245.67-9.81,23.21-385.04-46.42-18.83,25.67Zm148.14-41.71l243.22,28.67-189.89-154.89-53.33,126.22Z"/><path d="m2050.23,1818.34l199.72,151.95,27.97-36.77,4.18,3.18-36.38,68.63-51.39-39.1c21.1,31.23,26,67.27,8.38,94.77-5.3,7.84-8.58,11.28-15.34,16.7l-68.07-57.06,12.71-16.71,64.06,44.12c3.34,2.54,4.81,2.34,7.04-.58,10.17-13.37,5.63-55.09-20.48-90.13l-150.83-114.76-42.31,44.33-4.18-3.18,83.29-109.47,4.18,3.18-22.54,40.9Z"/><path d="m2051.72,2025.56c61.06,72.81,60.53,138.35,2.61,186.93-19.71,16.53-42.26,27.22-70.41,33.7l-46.04-61.43,16.49-13.83,55.17,59.25c1.01,1.21,2.09,1.67,4.77.79,7.66-2.31,23.76-11.7,35.02-21.15,41.83-35.09,39.58-90.07-18.79-159.66-55.67-66.37-112.8-86.29-157.05-49.18-27.35,22.94-33.7,57.04-7.88,102.54l-3.96,2.63c-28.92-48.37-21.62-97.67,13.78-127.36,45.05-37.79,112.5-29.26,176.26,46.76Z"/><path d="m1791.55,2114.93l100.88,191.33,40.87-21.55,1.96,3.71-38.01,23.6c-.68.96-2.54,1.93-1.54,4.97l32.78,82.43-16.72,8.82-43.83-83.13-68.27,36-2.45-4.64,68.27-36-101.62-192.73c-16.16-30.65-36.24-36.09-58.07-24.58-26.47,13.96-32.96,39.93-14.35,75.22l-4.42,1.74c-22.28-42.26-11.55-78.19,24.67-97.29,32.04-16.9,59.02-7.38,79.83,32.1Z"/><path d="m1622.34,2145.58l79.05,238.17,45.34-15.05,1.65,4.98-70.27,36.6-84.67-255.12-47.99,8.74-1.65-4.98,120.08-39.86,1.65,4.98-43.19,21.53Zm106.95,362.23c-13.45,4.46-25.73-2.52-30.53-16.97-4.96-14.95.7-27.89,14.15-32.36,13.45-4.47,25.73,2.52,30.69,17.47,4.8,14.45-.87,27.39-14.32,31.86Z"/><path d="m1550.09,2304.81c10.6,94.43-26.09,148.74-101.22,157.18-25.56,2.87-50.27-.7-77.29-10.87l-4.38-76.64,21.39-2.4,13.2,79.88c.18,1.57.81,2.55,3.54,3.3,7.66,2.31,26.27,3.39,40.88,1.75,54.26-6.09,82.79-53.15,72.65-143.4-9.67-86.08-46.25-134.28-103.64-127.83-35.48,3.98-59.62,28.88-63.27,81.07h-4.75c2.66-56.29,36.01-93.32,81.92-98.48,58.43-6.56,109.91,37.85,120.98,136.45Z"/><path d="m1195.09,2371.51c-33.99,125.68-119.16,177.16-212.41,151.94-30.91-8.36-57.75-23.78-82.15-46.15l32.98-105.84,23.31,6.31-25.96,112.08c.23,1.15-.59,4.19,2.18,6.03,13.83,9.18,31.25,17.16,48.49,21.82,72.98,19.74,144.86-22.82,180.22-153.58,35.91-132.78-7.02-205.3-73.41-223.26-16.72-4.52-37.45-6.32-59.27-4.06-2.81.33-4.37,2.08-4.92,4.11l-33.53,107.86-23.31-6.31,24.32-106c43.08-8.47,72.74-7.52,101.12.15,96.8,26.18,134.01,117.82,102.35,234.89Z"/><path d="m731.45,2411.8c-12.34-6.98-15.4-20.77-7.9-34.02,7.75-13.71,21.15-18.2,33.48-11.22,12.34,6.98,15.4,20.77,7.64,34.48-7.49,13.25-20.89,17.74-33.23,10.76Zm196.76-322.38l-123.52,218.45,41.59,23.52-2.58,4.57-74.29-27.54,132.31-233.98-38.69-29.72,2.58-4.57,110.14,62.28-2.59,4.57-44.95-17.57Z"/><path d="m824.97,2024.62l-160.38,193.02,35.53,29.52-3.35,4.04-67.01-39.29,41.27-49.67c-32.1,19.74-68.33,23.09-95.04,4.3-7.6-5.64-10.9-9.06-16.02-16.04l59.93-65.56,16.15,13.42-46.83,62.11c-2.68,3.23-2.55,4.71.28,7.06,12.92,10.74,54.8,7.99,90.92-16.6l121.12-145.77-42.48-44.17,3.36-4.04,105.8,87.91-3.36,4.04-39.9-24.28Z"/><path d="m617.89,2017.25c-75.34,57.91-140.8,54.59-186.87-5.34-15.68-20.39-25.4-43.38-30.67-71.78l63.33-43.38,13.12,17.07-61.54,52.6c-1.25.96-1.76,2.02-.99,4.74,1.98,7.75,10.68,24.24,19.64,35.89,33.27,43.29,88.3,43.37,160.31-11.98,68.68-52.79,91.01-109.03,55.81-154.81-21.76-28.3-55.56-36.09-102.11-12.23l-2.46-4.07c49.56-26.84,98.5-17.45,126.66,19.18,35.84,46.62,24.45,113.64-54.22,174.12Z"/><path d="m553.55,1658.13l56.76,113.08-4.69,2.36-27.53-39.64-345.8,173.58,21.67,43.17-4.69,2.36-44.71-65.67,359.88-180.65-15.57-46.23,4.69-2.36Z"/><path d="m409.95,1681.57c-92.99,24.15-152.73-5.36-168.82-67.36-15.31-58.95,21.06-106.9,104.26-129.04l43.8,168.71c98.07-25.46,132.2-67.41,118.22-121.28-10.42-40.14-40.64-58.33-90.4-55.72l-.68-4.7c57.9-4.73,98.02,24.45,110.02,70.69,15.57,59.96-23.92,114.69-116.4,138.71Zm-162.22-69.08c9.63,37.1,55.42,58.84,134.73,42.58l-35.62-137.2c-78.26,20.32-109.13,56-99.1,94.62Z"/><path d="m559,969.16l-39.16,149.3-5.59-1.46,4.91-39.42-99.86,2.03-26.77,102.07,82.88,46.16,28.99-73.27,5.58,1.47-30.1,114.77-5.59-1.46-.48-35.41-333.65-186.83,13.72-52.31,389.49-7.49,10.03-19.62,5.59,1.46Zm-146.18,110.38l-194.75,3.74,168.78,95.28,25.97-99.03Z"/><path d="m344.05,835.9l-18.31,30.65-4.51-2.69,43.62-117.04,49.13,29.35c-21.85-32.01-22.38-72.08-5.95-99.57,4.58-7.66,9.79-14.33,14.37-18.94l86.73,58.54-27.19,45.52-69.58-36.06c-5.23-2.51-7.66-1.52-8.91,2.63-2.24,7.84,8.45,41.13,24.96,56.5l176.22,105.28,29.82-39.67,4.96,2.96-88.31,147.83-4.96-2.96,13.8-33.34-215.88-128.97Z"/><path d="m557.46,722.82c-70.87-69.45-73.1-143.68-17.25-200.67,22.78-23.25,48.99-37.99,75.68-41.97l57.45,64.39-37.48,38.25-73.79-64.97c-2.25-2.2-4.49-2.92-7.44-1.41-1.48.76-2.58,1.88-5.15,4.51-20.95,21.37-9.76,63.21,50.99,122.74,62.99,61.73,102.78,67.64,134.38,35.4,20.58-21,21.84-42.54,5.22-71.33l4.8-2.65c37.3,54.2,37.38,99.12-.46,137.74-48.14,49.12-118.32,47.23-186.94-20.02Z"/><path d="m793.02,598.1l-113.53-176.05-27.8,17.92-2.84-4.41,41.38-29.81c2.36-2.15,3.12-3.88,1.85-6.82l-35.15-72.91,45.89-29.59,47.23,73.24,46.33-29.88,3.41,5.29-46.33,29.88,113.24,175.61c13.66,21.18,26.41,25.45,38.76,17.48,15.88-10.24,16.43-26.84-2.61-58.29l4.41-2.85c34.46,51.5,27.6,90.27-13.43,116.74-39.71,25.61-72.65,18.11-100.82-25.57Z"/><path d="m856.27,176.03c25.7-10.67,53.51-1.19,63.98,24.03,10.07,24.24-1.28,51.69-28.43,62.97-26.18,10.87-53.51,1.19-64.18-24.51-10.47-25.21,1.48-51.21,28.63-62.48Zm81.01,401.81l30.96-18.54-96.44-232.25-32.97,13.69-2.01-4.85,105.29-68.16,107.11,257.95,34.98-8.84,2.21,5.33-146.91,61-2.22-5.33Z"/><path d="m1052.51,384.42c-18.03-97.57,22.84-159.58,101.31-174.08,32.01-5.91,61.93-2.9,86.05,9.19l9.96,85.72-52.66,9.73-23-95.59c-.57-3.1-1.99-4.97-5.27-5.43-1.64-.23-3.19.06-6.81.72-29.43,5.44-44.34,46.1-28.89,129.73,16.02,86.73,45.17,114.45,89.57,106.25,28.91-5.34,42.34-22.24,45.3-55.35l5.45.6c-.66,65.79-26.43,102.58-79.6,112.41-67.63,12.5-123.96-29.42-141.41-123.9Z"/><path d="m1400.45,289.73c25.75-132.98,102.12-187.71,216.03-165.66,37.11,7.18,68.7,20.79,97.88,44.08l-26.74,104.98-60.31-11.68,17.18-119.13c.2-1.03,1.31-4.02-2.61-5.85-2.89-1.63-13.62-4.24-18.77-5.24-51.54-9.98-97.52,31.39-125.76,177.25-28.34,146.38-.23,197.28,52.86,207.56,5.67,1.1,12.99,1.98,16.79,1.65,4.32-.23,5.34-2.71,5.74-4.77l28.72-117.97,60.31,11.67-14.57,108.41c-38.54,11.25-72.83,11.57-109.42,4.48-111.33-21.56-163.07-96.81-137.33-229.79Z"/><path d="m1650.44,536.48l34.24,11.38,113.18-224.57-31.88-16.07,2.36-4.69,120.33,35.37-125.7,249.42,29.52,20.75-2.6,5.16-142.06-71.59,2.6-5.16Zm251.79-323.45c24.85,12.52,35.8,39.79,23.51,64.17-11.81,23.44-40.02,32.74-66.27,19.51-25.32-12.76-35.8-39.79-23.27-64.64,12.29-24.38,39.78-32.27,66.04-19.04Z"/><path d="m1974.57,421.37l-27.7-22.52,3.31-4.07,109.55,60-36.11,44.4c34.82-17.02,74.54-11.78,99.39,8.42,6.92,5.63,12.78,11.75,16.67,16.94l-70.4,77.41-41.14-33.46,45.69-63.67c3.24-4.81,2.6-7.36-1.32-9.19-7.43-3.34-41.92,2.45-59.5,16.58l-129.52,159.25,34.97,35.21-3.64,4.48-133.59-108.65,3.64-4.48,31.01,18.45,158.67-195.1Z"/><path d="m2055.75,648.75c78.84-60.24,152.63-51.88,201.08,11.53,19.76,25.86,30.62,53.91,30.76,80.89l-71.92,47.69-32.51-42.55,74.82-63.78c2.5-1.91,3.53-4.02,2.46-7.16-.54-1.57-1.5-2.82-3.73-5.74-18.17-23.78-61.17-18.67-128.76,32.97-70.08,53.55-81.6,92.08-54.19,127.96,17.85,23.36,39,27.69,69.86,15.33l1.94,5.13c-58.96,29.2-103.43,22.87-136.27-20.09-41.76-54.65-29.88-123.85,46.46-182.18Z"/><path d="m2068.08,896.48l5.21-2.49,20.15,29.94,340.02-162.74-15.41-32.2,4.74-2.27,72.68,101.99-364.17,174.3,10.68,34.47-5.21,2.49-68.68-143.49Z"/><path d="m2275.64,999.59c93.08-21.6,157.93,14.01,174.67,86.12,15.31,65.97-20.4,114.14-108.36,134.56l-32.4-139.62c-79.27,18.4-103.43,53.65-92.51,100.7,6.77,29.15,21.18,42.51,58.18,46.32l-.35,5.47c-63.71,1.85-104.98-27.38-117.8-82.61-16.85-72.62,29.08-130.17,118.57-150.94Zm54.13,142.66c94.46-20.3,116-36.62,111.49-56.06-4.51-19.43-30.73-27.9-126.09-6.85l14.6,62.9Z"/><path d="m1363.73,667.05l8.58-1.65,1.08-20.97-15.95-31.51-4.36-2.42.17-2.85,22.08,1.32-.17,2.85-8.84,1.64,13.4,26.42,16-24.5-9.35-2.89.17-2.85,18.72,1.12-.17,2.85-4.45,2.07-19.63,30.16-1.02,20.02,8.32,2.66-.17,2.85-24.58-1.47.17-2.85Z"/><path d="m1399.6,650.64c1.71-13.72,10.45-21.59,23.73-19.94,13.2,1.65,20.01,11.29,18.29,25.01-1.8,14.4-11.24,21.67-23.93,20.08-12.69-1.59-19.92-10.59-18.1-25.16Zm18.55,21.56c8.06,1.01,13.89-4.53,15.48-17.31,1.6-12.77-2.69-19.58-10.75-20.58-8.06-1.01-13.72,4.56-15.27,16.99-1.65,13.2,2.56,19.91,10.54,20.91Z"/><path d="m1453.15,665.84l5.03-24.45-6.36-2.54.64-3.13,14.09,1.84-5.97,29.02c-1.48,7.19.7,10.73,6.04,11.83,5.5,1.13,10.56-.74,14.5-5.75l5.24-25.47-6.36-2.54.64-3.13,14.09,1.84-7.97,38.76,7.2,2.72-.64,3.13-14.9-2.18,1.79-8.72c-4.13,5.06-11.07,7.07-17.5,5.75-8.12-1.67-11.51-7.48-9.57-16.96Z"/><path d="m1537.61,693.87c-6.44,3.9-11.74,4.72-16.45,3.27-6.28-1.92-9.5-7.34-7.5-13.86,1.82-5.95,6.3-8.46,16.47-8.33l13.23.17,1.01-3.3c1.95-6.36.01-10.66-5.85-12.46-2.15-.66-5.42-1.48-6.93-1.58-.52-.07-.76.13-1.02.68l-4.83,9-3.8-1.16,2.38-12.19c5.46-.13,13,.91,17.38,2.25,10.08,3.09,12.66,7.94,9.65,17.77l-6.81,22.22c-.66,2.15-.17,3.2.91,3.53s2.4-.17,3.59-1.7l2.73,2.01c-2.08,3.25-5.51,4.73-9.23,3.59-4.38-1.34-6.29-4.55-4.92-9.91Zm-12.55-.32c3.47,1.06,7.88.24,13.77-3.64l3.21-10.49-9.83-.94c-6.49-.63-9.51,1.25-10.97,6.04-1.52,4.96.19,7.92,3.83,9.03Z"/><path d="m1554.47,703.43l7.72,1.07,11.99-31.77-6.69-3.82,1.13-2.99,14.43,4.34-3.33,8.81c6.02-4.93,14.79-5.41,19.38-1.92l-6.12,13.76-3.72-1.4,1.99-8.95c.13-.6-.05-.85-.7-1.09-3.07-1.16-8.63.35-12.43,3.8l-9,23.85,7.07,4.52-1.01,2.67-21.75-8.21,1.01-2.67Z"/><path d="m1598.39,700.97c5.83-12.92,16.8-17.91,27.75-12.97,9.84,4.44,13.32,14.17,6.73,28.15l-27.33-12.33c-4.61,10.43-1.93,17.71,5.79,21.19,4.65,2.1,9.49,2.29,13.87.57l1.54,2.88c-5.08,3.49-12.96,3.72-19.97.56-10.24-4.62-14.14-15.29-8.38-28.05Zm28.88,8.67c4.58-10.16,2.81-15.89-2.86-18.45-5.91-2.67-12.03-.22-17.22,9.39l20.08,9.06Z"/><path d="m1641.45,740.67l7.46,2.26,28.18-49.47-6.01-4.81,1.58-2.78,13.58,6.54-16.04,28.15c5.36-3.31,12.57-3.38,18.65.08,7.13,4.06,8.59,10.76,3.58,19.54l-11.85,20.79,5.75,5.27-1.41,2.48-19.52-11.12,1.41-2.48,7.31,2.18,11.5-20.19c3.63-6.38,2.71-10.69-1.65-13.17-5.33-3.04-11.15-2.77-15.97.45l-12.66,22.22,5.68,5.22-1.41,2.48-19.59-11.16,1.41-2.48Z"/><path d="m1700.65,754.29c7.91-11.75,19.57-14.84,29.54-8.13,8.96,6.03,10.76,16.2,1.91,28.88l-24.87-16.74c-6.3,9.51-4.87,17.14,2.16,21.86,4.23,2.85,8.97,3.85,13.57,2.89l1.04,3.1c-5.59,2.59-13.4,1.5-19.78-2.8-9.32-6.27-11.38-17.45-3.56-29.06Zm27.02,13.4c6.22-9.25,5.44-15.19.28-18.67-5.38-3.62-11.83-2.23-18.55,6.36l18.28,12.3Z"/><path d="m1727.52,794.4l7.08,3.26,20.7-26.92-5.29-5.59,1.95-2.53,12.55,8.34-5.74,7.47c7.19-2.97,15.72-.88,19.1,3.79l-9.85,11.39-3.15-2.42,4.5-7.98c.3-.53.2-.83-.35-1.25-2.6-2-8.36-2.17-13,.04l-15.53,20.21,5.45,6.37-1.74,2.26-18.43-14.17,1.74-2.26Z"/><path d="m1770.26,804.79c9.32-10.67,21.27-12.28,30.32-4.38,8.14,7.1,8.65,17.42-1.71,28.9l-22.58-19.72c-7.44,8.65-6.97,16.39-.59,21.96,3.84,3.35,8.42,4.94,13.11,4.56l.64,3.2c-5.87,1.87-13.48-.19-19.28-5.25-8.46-7.39-9.11-18.73.1-29.27Zm25.13,16.67c7.33-8.4,7.29-14.39,2.6-18.48-4.88-4.26-11.46-3.69-19.2,4l16.6,14.49Z"/><path d="m1825.17,880.83l6.69,4.69,15.47-13.94,10.93-32.88-1.56-4.62,2.59-2.29,16.33,18.43-2.59,2.29-6.69-4.69-8.82,26.39,26.67-5.73-4.33-8.28,2.59-2.29,12.37,13.97-2.59,2.29-4.55-1.74-33.43,7.21-15.4,13.76,3.79,7.15-2.59,2.29-17.47-19.73,2.59-2.29Z"/><path d="m1862.91,896.15c11.34-8.78,22.95-7.61,31.36,3.25,8.41,10.86,6.86,22.55-4.48,31.33-11.55,8.94-23.36,7.37-31.66-3.35-8.25-10.66-6.91-22.19,4.77-31.23Zm-1.5,28.69c4.23,5.46,11.22,5.74,21.74-2.41,10.52-8.15,12-14.98,7.77-20.44-4.23-5.47-11.11-5.6-21.43,2.38-10.73,8.3-12.26,15.07-8.08,20.46Z"/><path d="m1889.82,945.32l20.89-13.67-2.63-5.92,3.18-2.08,9.74,13.14-24.29,15.9c-5.78,3.79-6.58,7.3-3.83,11.49,2.65,4.05,6.73,6.02,12.75,5.28l20.89-13.68-2.63-5.92,3.18-2.08,9.74,13.14-32.82,21.48,3.01,6.5-3.18,2.08-10.04-13.77,7.73-5.06c-6.72.78-13.01-2.53-16.75-8.24-4.59-7.01-2.96-13.35,5.07-18.6Z"/><path d="m1929.92,1025.39c-7.22-1.67-11.23-4.64-13.64-9.22-3.26-6.19-1.68-12.29,4.36-15.47,5.2-2.74,10.29-1.41,17.24,5.67l9.63,9.77,3.36-1.77c5.66-2.98,7.08-6.95,4.35-12.15-.96-1.83-2.6-4.39-3.51-5.38-.36-.49-.67-.53-1.24-.32l-9.45,2.82-2.33-4.43,10.6-6.94c4.22,4.12,8.55,9.76,10.88,14.19,5.51,10.48,3.74,16.39-5.44,21.21l-20.11,10.58c-1.83.97-2.24,1.86-1.72,2.86.48.92,1.61,1.4,3.42,1.13l.5,3.55c-4.16.82-7.62-.58-9.88-4.86-2.49-4.74-1.49-8.39,2.98-11.23Zm-6.59-8.44c1.57,2.98,4.74,5.12,10.64,6.31l9.25-4.87-5.78-6.72c-3.6-4.25-6.71-4.96-10.69-2.87-4.13,2.17-5.04,5.09-3.43,8.15Z"/><path d="m1936.25,1044.67l4.26,5.95,30.54-13.6-2.05-6.94,3.47-1.55,7.83,15.24-8.68,3.87c8.47.77,14.44,6.53,15.34,12.37l-14.83,5.56-1.97-4.42,7.65-4.92c.6-.36.65-.67.4-1.22-1.4-2.5-6.16-4.92-11.49-5.19l-22.18,9.88,1.86,7.78-3.16,1.41-10.16-22.81,3.16-1.41Z"/><path d="m1969.36,1075.42c13.37-4.95,24.37-.36,28.78,11.55,4.08,11.02-.68,20.33-15.4,25.6l-10.16-27.47c-10.2,4.05-13.16,10.49-10.43,18.14,1.8,4.86,4.79,8.45,8.87,10.54l-1.27,3.05c-6.5-1.65-11.67-6.64-14.55-14.42-4.32-11.67.46-21.91,14.15-26.98Zm13.65,26.18c10.29-3.81,12.99-8.21,11.1-13.32-1.98-5.35-7.38-7.5-17.67-4.43l6.57,17.75Z"/><path d="m1971.7,1134.68l3.25,6.56,54.38-14.38-.83-7.2,3.68-.97,5.29,16.3-31.41,8.31c6.24,1.3,11.59,6.32,13.29,12.75,2.23,8.44-1.5,14.25-11.44,16.88l-22.97,6.08.41,7.31-3.34.88-6.12-23.14,3.34-.88,3.17,6.22,21.8-5.77c6.43-1.7,8.75-5.09,7.6-9.43-1.35-5.09-5.5-8.64-10.59-9.62l-23.72,6.28.35,7.06-3.34.88-6.14-23.22,3.34-.88Z"/><path d="m2003.66,1187.44c14.02-2.59,24.08,3.82,26.38,16.31,2.13,11.56-4.14,19.92-19.55,22.59l-5.31-28.8c-10.74,2.25-14.76,8.08-13.37,16.09.94,5.1,3.27,9.15,6.94,11.9l-1.77,2.79c-6.13-2.74-10.36-8.54-11.87-16.7-2.26-12.23,4.2-21.51,18.56-24.16Zm8.97,28.13c10.79-1.99,14.2-5.87,13.22-11.23-1.04-5.61-5.99-8.65-16.65-7.38l3.43,18.61Z"/><path d="m1994.01,1235.37l2.32,6.94,33.2-4.02.08-7.23,3.77-.46,3,16.87-9.44,1.14c7.88,3.22,11.89,10.49,11.03,16.33l-15.81.95-.58-4.8,8.76-2.45c.68-.17.82-.45.74-1.05-.6-2.8-4.44-6.51-9.45-8.34l-24.1,2.92-.51,7.98-3.43.42-3-24.79,3.43-.41Z"/><path d="m2016.58,1274.46c14.24-.79,23.4,6.83,24.1,19.51.65,11.73-6.63,19.23-22.26,19.93l-1.63-29.25c-10.94.87-15.67,6.15-15.3,14.27.29,5.18,2.08,9.49,5.38,12.68l-2.11,2.54c-5.73-3.49-9.2-9.79-9.66-18.07-.69-12.42,6.89-20.81,21.47-21.62Zm5.34,29.04c10.96-.61,14.83-4.03,14.53-9.46-.32-5.69-4.85-9.34-15.58-9.43l1.05,18.89Z"/><path d="m2000.71,1368.65l1.09,7.28,20.51,1.49,30.58-14.55,1.98-4.35,4.13.32-2.12,27.65-4.13-.32-1.1-7.1-23.2,10.96,20.71,13.55,2.89-8.36,4.14.32-1.43,18.61-4.13-.32-1.9-4.56-26.64-17.56-21.36-1.64-2.19,7.02-4.13-.32,2.18-28.43,4.13.32Z"/><path d="m2015.4,1408.32c14.7,2.15,21.43,11.69,19.37,25.79-2.07,14.19-11.26,21.49-25.96,19.35-14.7-2.15-21.77-11.74-19.7-25.93,2.07-14.19,11.5-21.37,26.29-19.21Zm-21.42,19.92c-.76,5.21,2.89,9.5,16.65,11.51,13.59,1.98,18.48-.97,19.25-6.27.79-5.39-3.06-9.53-16.57-11.5-13.68-2-18.56.96-19.33,6.26Z"/><path d="m1998.03,1462.32l24.33,5.6,2.2-5.7,4.46,1.03-3.42,18.72-27.62-6.36c-6.15-1.42-8.65.22-9.62,4.44-.89,3.87.05,7.1,4.44,10.77l23.07,5.31,2.2-5.7,4.46,1.03-3.42,18.72-37.89-8.72-2.19,6.05-4.46-1.03,3.5-19.05,9.35,2.15c-5.36-4.43-7.56-11.05-5.95-18.04,1.9-8.25,7.31-11.35,16.57-9.22Z"/><path d="m1968.06,1547.25c-3.76-6.18-4.33-10.74-2.63-15.82,2.39-7.13,7.91-10.29,14.46-8.09,5.16,1.73,7.86,6.46,7.66,16.05l-.29,14.21,4.01,1.34c5.82,1.95,8.96.45,10.72-4.79.6-1.8,1.21-4.42,1.21-5.52.03-.63-.16-.88-.71-1.15l-8.08-4.71,1.98-5.9,12.56,3.02c-.06,6.45-1,12.78-2.78,18.11-4.22,12.62-10.51,15.88-20.34,12.59l-20.97-7.02c-1.8-.6-2.54-.3-2.84.6-.3.9.11,1.86,1.5,2.87l-2.38,3.03c-3.98-2.79-5.24-6.4-3.37-11.97,1.95-5.82,5.31-7.97,10.31-6.84Zm2.63-8.14c-.91,2.7-.44,5.68,2.23,9.67l9.26,3.1.58-7.46c.31-4.45-1.08-6.83-4.77-8.06-3.93-1.32-6.34-.12-7.3,2.75Z"/><path d="m1959,1566.81l-1.33,6.65,30.21,12.42,3.17-5.89,4.24,1.74-6.66,18.47-8.87-3.65c5.87,7.08,5.68,15.04,1.82,19.9l-15.11-7.33,2.27-5.51,8.79,2.03c.87.17,1.09.07,1.17-.36.51-2.59-1.26-7.15-4.85-11.15l-21.1-8.67-4.02,6.38-3.84-1.58,10.28-25.01,3.84,1.58Z"/><path d="m1959.02,1613.51c12.8,6.28,16.6,17.57,10.62,29.75-5.63,11.48-15.96,14.3-30.16,7.15l12.44-25.36c-9.46-4.25-15.39-2.16-18.97,4.74-2.4,4.69-3.06,9.18-2.06,13.42l-3.43.92c-3.26-6.7-3.15-13,.88-21.22,6.09-12.41,16.88-16.17,30.68-9.39Zm-9.57,27.16c9.62,4.72,13.87,4.3,15.84.26,2.05-4.19-.1-8.62-9.22-13.76l-6.62,13.5Z"/><path d="m1917.3,1656.99l-2.39,6.34,47.15,29.05,4.15-5.26,3.9,2.4-9.62,17.11-27.81-17.13c3.79,5.38,3.98,12.81.68,18.18-4.94,8.02-11.65,9.36-20.55,3.88l-20.01-12.33-4.59,4.98-3.53-2.17,13.46-21.85,3.53,2.18-2.07,5.83,18.46,11.37c4.86,2.99,8.62,2.47,10.57-.69,2.22-3.6,1.63-8.74-.73-12.32l-19.79-12.19-4.32,4.54-3.53-2.18,13.5-21.92,3.53,2.17Z"/><path d="m1900.48,1717.51c11.52,8.4,13.3,20.18,5.31,31.14-7.53,10.33-18.2,11.33-30.94,1.82l16.64-22.83c-8.58-5.83-14.79-4.79-19.51,1.39-3.17,4.21-4.6,8.51-4.35,12.87l-3.54.31c-2.05-7.16-.85-13.35,4.54-20.75,8.14-11.17,19.42-13,31.85-3.94Zm-14.12,25.09c8.66,6.31,12.91,6.63,15.56,3,2.75-3.77,1.39-8.5-6.7-15.15l-8.86,12.15Z"/><path d="m1858.67,1744.15l-3.27,5.94,25.07,20.94,4.8-4.66,3.51,2.93-11.91,15.61-7.36-6.15c3.46,8.52.89,16.05-4.26,19.52l-12.2-11.54,3.82-4.58,7.77,4.58c.77.42,1.02.4,1.23.01,1.26-2.32.95-7.2-1.27-12.09l-17.51-14.62-5.76,4.87-3.18-2.66,17.34-20.76,3.18,2.66Z"/><path d="m1844.64,1788.66c10.32,9.84,10.54,21.75,1.18,31.57-8.82,9.26-19.53,8.84-30.92-2.26l19.5-20.45c-7.74-6.9-14.03-6.69-19.52-1.18-3.7,3.75-5.68,7.83-6,12.18l-3.55-.16c-1.09-7.37.9-13.34,7.22-19.97,9.54-10,20.96-10.34,32.09.27Zm-17.29,23.03c7.75,7.39,11.93,8.27,15.03,5.02,3.22-3.38,2.49-8.25-4.66-15.9l-10.37,10.88Z"/><path d="m1766.08,1838.37l-6.17,7.77,8.96,18.09,28.33,17.98,4.72-1.04,1.32,2.6-17.2,13.91-1.32-2.6,6.1-7.71-22.73-14.51v32.56s7.9-3.28,7.9-3.28l1.32,2.6-14.58,11.79-1.32-2.6,2.36-4.91v-38.89s-9.57-19.38-9.57-19.38l-8.01,3.7-1.32-2.6,19.88-16.08,1.32,2.6Z"/><path d="m1746.92,1878.93c4.91,12.3,2.35,25.13-7.37,32.02-9.94,7.04-21.09,2.67-26.29-11.54-4.48-12.29-1.68-24.33,7.69-30.98,9.8-6.95,20.68-2.8,25.97,10.49Zm-24.42-7.25c-5.57,3.95-7.09,12.55-2.84,23.62,4.83,12.78,12.49,16.57,18.41,12.37,5.43-3.85,7.33-12.82,2.46-24.62-5.13-12.46-12.31-15.42-18.02-11.37Z"/><path d="m1699.83,1897.96l8.58,27.14,6.13-3.21,1.65,3.55-12.16,8.28-10.2-32.32c-1.92-6.01-3.4-6.93-5.76-5.5-3.62,2.2-6.77,10.67-6.68,23.15l7.29,22.86-5.91,3.58-11-34.46c-.99-3.14-1.92-3.99-3.32-3.14-1.77,1.08-3.03,2.85-3.84,6.17l-2.58-.76c.24-5.1,2.42-8.34,6.04-10.53,5.32-3.23,8.4-1.15,11.19,9.79.48-11.71,3.96-18.97,8.24-21.57,5.84-3.54,9.78-.88,12.32,6.98Z"/><path d="m1624.18,1935.51l.74,3.48c1.65-10.42,4.96-15.68,8.99-17.64,6.29-3.07,16.96,4.62,19.52,17.98,2.61,13.05-2.22,24.44-11.55,28.98-3.11,1.51-6.4,2.06-10.22,1.52l-1.12,3.62-4.51,2.2-8.19-37.53c-.52-2.44-1.67-2.84-2.99-2.19-1.63.79-3.43,3.02-4.19,5.6l-2.46-.91c.55-4.4,3.18-8.08,6.98-9.94,4.2-2.04,7.85-.65,8.99,4.85Zm10.25-8.16c-2.41,1.17-6.41,7.35-8.51,16.06l4.94,22.97c2.39.95,5.79.64,8.28-.57,6.45-3.14,10.1-12.42,7.7-23.45-2.43-11.7-8.6-16.86-12.4-15.01Z"/><path d="m1606.95,1977.8l6.32-2.13,1.08,3.76-12.73,6.07-2.37-13.5c-1.68,9.56-6.33,16.89-10.66,18.85-1.09.54-2.22.73-3.03.59l-2.05-13.63,2.8-1.15,4.3,8.42c3.49-4.24,6.3-10.81,7.54-19.16l-4.01-24.78,6.39-2.62,6.42,39.3Z"/><path d="m1543.9,1969.75l-2.28-1.04c1.16-6.16,6-11.21,12.21-13.36,10.86-3.75,20.73,4.72,21.75,20.64.87,12.59-5.45,22.08-15.33,25.49-8.74,3.02-14.24-.47-15.12-8.85-.94-8.54,5.76-15.61,22.55-21.77-2.74-8.47-8.57-11.85-15.02-9.62-4.17,1.44-7.49,4.78-8.76,8.51Zm8.07,21.25c.54,6.58,2.99,8.66,7.89,6.96,5.88-2.03,10.28-9.13,9.27-19.47-.16-1.77-.39-3.52-.74-5.05-11.54,4.17-17,10.08-16.42,17.56Z"/><path d="m1494.31,1982.58l.12,24.91c0,5.7,1.54,7.54,4.39,6.83,4.36-1.1,9.8-8.17,13.36-19.84l-.47-24.56,6.7-1.69,1.34,63.45,6.47-1.18.53,3.88-13.64,4.23-.8-37.21c-3.76,10.57-9.22,16.48-14.42,17.79-6.28,1.58-10.19-2.25-10.22-10.17l-.09-24.83c0-3.92-.76-4.8-2.44-4.38-1.76.44-3.98,2.25-5.25,4.62l-2.22-1.4c1.44-4.19,4.85-7.28,8.62-8.23,4.94-1.24,7.99.93,8.02,7.79Z"/><path d="m1444.16,1993.98l-2.09-1.38c2.09-5.91,7.64-10.17,14.1-11.34,11.31-2.05,19.77,7.83,18.35,23.72-1.06,12.57-8.75,20.99-19.03,22.86-9.1,1.65-14-2.64-13.6-11.06.37-8.58,8.07-14.55,25.61-18.08-1.42-8.79-6.66-13.02-13.38-11.8-4.33.79-8.13,3.58-9.96,7.08Zm4.74,22.23c-.47,6.58,1.63,9.01,6.74,8.09,6.12-1.11,11.56-7.45,12.13-17.83.12-1.78.15-3.54.04-5.1-12.04,2.36-18.33,7.37-18.91,14.85Z"/><path d="m1426.99,2026.38l6.66-.39.05,3.91-13.88,2.5,1.27-13.65c-4.14,8.78-10.56,14.62-15.25,15.38-1.19.23-2.34.11-3.08-.23l1.62-13.69,3-.37,1.93,9.25c4.48-3.17,8.93-8.76,12.33-16.5l2.66-24.96,6.86-.85-4.16,39.6Z"/><path d="m1368.28,2002.05l-1.93-1.6c2.74-5.64,8.73-9.25,15.28-9.69,11.46-.78,18.77,9.99,15.58,25.62-2.45,12.38-11.04,19.88-21.47,20.59-9.22.62-13.62-4.19-12.27-12.51,1.33-8.49,9.65-13.55,27.47-15.1-.43-8.89-5.17-13.68-11.98-13.22-4.4.3-8.48,2.65-10.68,5.92Zm2.22,22.62c-1.21,6.49.62,9.14,5.79,8.79,6.21-.42,12.32-6.11,14.05-16.36.31-1.75.54-3.5.61-5.06-12.23,1-19.04,5.27-20.45,12.64Z"/><path d="m1308.77,1996.1l-8.58,1.68-1.02,20.97,16.04,31.46,4.36,2.41-.16,2.85-22.08-1.25.16-2.85,8.83-1.66-13.47-26.38-15.93,24.54,9.36,2.87-.16,2.85-18.72-1.06.16-2.85,4.45-2.08,19.54-30.21.96-20.02-8.33-2.64.16-2.85,24.58,1.4-.16,2.85Z"/><path d="m1272.96,2012.62c-1.67,13.72-10.38,21.62-23.68,20-13.21-1.61-20.04-11.24-18.37-24.96,1.76-14.41,11.18-21.7,23.87-20.15,12.69,1.55,19.95,10.53,18.18,25.11Zm-18.62-21.51c-8.06-.98-13.88,4.58-15.43,17.35-1.56,12.78,2.75,19.57,10.81,20.55,8.06.98,13.7-4.6,15.22-17.03,1.61-13.21-2.62-19.9-10.6-20.88Z"/><path d="m1219.34,1997.57l-4.96,24.47,6.36,2.53-.64,3.13-14.09-1.8,5.89-29.04c1.46-7.2-.73-10.73-6.07-11.81-5.5-1.12-10.56.77-14.48,5.79l-5.17,25.49,6.36,2.52-.64,3.13-14.09-1.8,7.86-38.78-7.21-2.7.63-3.13,14.91,2.14-1.77,8.72c4.11-5.07,11.05-7.1,17.48-5.8,8.13,1.65,11.54,7.45,9.61,16.94Z"/><path d="m1134.82,1969.79c6.42-3.92,11.73-4.75,16.45-3.32,6.28,1.9,9.52,7.31,7.54,13.84-1.8,5.95-6.27,8.48-16.44,8.38l-13.23-.13-1,3.31c-1.93,6.37.02,10.66,5.89,12.44,2.15.65,5.43,1.46,6.93,1.56.52.07.76-.13,1.02-.68l4.81-9.01,3.8,1.15-2.34,12.2c-5.46.15-13.01-.87-17.39-2.2-10.09-3.06-12.68-7.91-9.7-17.75l6.74-22.24c.65-2.15.16-3.2-.92-3.53-1.07-.33-2.4.18-3.59,1.71l-2.73-2c2.07-3.25,5.5-4.74,9.22-3.62,4.38,1.33,6.3,4.53,4.95,9.9Zm12.55.28c-3.47-1.05-7.88-.22-13.76,3.68l-3.18,10.5,9.84.91c6.5.61,9.5-1.27,10.96-6.07,1.5-4.96-.22-7.92-3.86-9.02Z"/><path d="m1117.92,1960.28l-7.73-1.05-11.9,31.8,6.7,3.8-1.12,2.99-14.44-4.3,3.3-8.82c-6,4.95-14.77,5.45-19.37,1.98l6.08-13.78,3.72,1.39-1.97,8.95c-.13.6.05.85.7,1.09,3.07,1.15,8.62-.37,12.41-3.84l8.93-23.87-7.08-4.5,1-2.67,21.77,8.14-1,2.67Z"/><path d="m1074,1962.86c-5.79,12.93-16.75,17.96-27.71,13.05-9.86-4.41-13.36-14.13-6.81-28.13l27.36,12.25c4.58-10.44,1.88-17.71-5.85-21.17-4.65-2.08-9.49-2.26-13.87-.53l-1.55-2.87c5.07-3.5,12.95-3.76,19.97-.62,10.25,4.59,14.19,15.25,8.46,28.03Zm-28.91-8.59c-4.56,10.17-2.77,15.9,2.91,18.44,5.91,2.65,12.04.18,17.19-9.43l-20.11-9Z"/><path d="m1030.82,1923.28l-7.47-2.24-28.04,49.55,6.02,4.8-1.58,2.78-13.59-6.5,15.96-28.2c-5.35,3.32-12.56,3.42-18.65-.03-7.14-4.04-8.62-10.73-3.64-19.53l11.79-20.83-5.77-5.25,1.4-2.48,19.55,11.06-1.4,2.48-7.32-2.16-11.45,20.22c-3.62,6.39-2.68,10.7,1.68,13.16,5.34,3.02,11.16,2.74,15.97-.5l12.6-22.26-5.69-5.21,1.4-2.48,19.62,11.11-1.4,2.48Z"/><path d="m971.6,1909.85c-7.88,11.78-19.53,14.9-29.51,8.22-8.98-6-10.81-16.17-2-28.88l24.92,16.67c6.27-9.53,4.82-17.15-2.22-21.86-4.24-2.83-8.98-3.82-13.58-2.85l-1.05-3.09c5.59-2.6,13.4-1.54,19.79,2.74,9.34,6.24,11.43,17.41,3.65,29.05Zm-27.06-13.32c-6.2,9.26-5.39,15.21-.22,18.67,5.39,3.6,11.83,2.2,18.53-6.42l-18.31-12.25Z"/><path d="m944.6,1869.8l-7.09-3.24-20.62,26.98,5.31,5.58-1.94,2.54-12.57-8.3,5.72-7.48c-7.18,2.99-15.72.93-19.11-3.73l9.81-11.42,3.16,2.41-4.48,8c-.3.53-.2.83.35,1.25,2.61,1.99,8.36,2.15,13-.07l15.48-20.25-5.47-6.36,1.73-2.27,18.47,14.11-1.73,2.26Z"/><path d="m901.83,1859.53c-9.29,10.7-21.24,12.34-30.31,4.47-8.16-7.08-8.7-17.39,1.63-28.9l22.64,19.65c7.41-8.67,6.92-16.41.53-21.96-3.85-3.34-8.43-4.92-13.12-4.52l-.65-3.2c5.87-1.88,13.48.15,19.29,5.19,8.48,7.36,9.16,18.71-.01,29.28Zm-25.18-16.59c-7.31,8.42-7.25,14.42-2.55,18.49,4.89,4.25,11.47,3.66,19.19-4.05l-16.64-14.44Z"/><path d="m846.69,1783.64l-6.71-4.67-15.43,13.98-10.84,32.91,1.57,4.62-2.58,2.3-16.38-18.39,2.58-2.3,6.71,4.67,8.75-26.42-26.65,5.8,4.36,8.27-2.58,2.3-12.41-13.94,2.58-2.3,4.55,1.73,33.41-7.31,15.36-13.8-3.81-7.14,2.58-2.3,17.53,19.68-2.58,2.3Z"/><path d="m808.91,1768.44c-11.32,8.81-22.93,7.68-31.38-3.16-8.44-10.84-6.93-22.53,4.39-31.35,11.52-8.97,23.34-7.44,31.67,3.26,8.28,10.63,6.97,22.17-4.69,31.25Zm1.41-28.7c-4.25-5.46-11.23-5.71-21.73,2.47s-11.96,15.01-7.72,20.47,11.13,5.57,21.42-2.45c10.7-8.34,12.22-15.1,8.03-20.49Z"/><path d="m781.87,1719.35l-20.85,13.73,2.65,5.91-3.17,2.09-9.78-13.12,24.24-15.97c5.77-3.8,6.56-7.32,3.8-11.5-2.66-4.04-6.75-6-12.77-5.25l-20.85,13.73,2.65,5.91-3.17,2.09-9.78-13.11,32.76-21.58-3.03-6.49,3.17-2.09,10.08,13.74-7.72,5.09c6.71-.8,13.02,2.49,16.78,8.19,4.61,7,2.99,13.34-5.02,18.61Z"/><path d="m741.54,1639.41c7.23,1.65,11.24,4.61,13.67,9.19,3.28,6.18,1.72,12.29-4.31,15.48-5.19,2.75-10.29,1.44-17.25-5.62l-9.66-9.75-3.36,1.78c-5.65,2.99-7.06,6.97-4.31,12.16.97,1.83,2.62,4.38,3.53,5.37.36.49.67.53,1.24.32l9.44-2.85,2.35,4.43-10.58,6.97c-4.23-4.11-8.58-9.73-10.92-14.16-5.54-10.46-3.79-16.38,5.38-21.23l20.08-10.64c1.83-.97,2.24-1.87,1.71-2.86-.49-.92-1.62-1.39-3.43-1.12l-.51-3.54c4.15-.83,7.63.56,9.89,4.83,2.51,4.73,1.51,8.39-2.94,11.24Zm6.61,8.43c-1.58-2.98-4.76-5.11-10.66-6.28l-9.24,4.89,5.8,6.71c3.62,4.24,6.72,4.94,10.69,2.84,4.12-2.18,5.02-5.1,3.4-8.16Z"/><path d="m735.16,1620.13l-4.28-5.94-30.51,13.69,2.07,6.93-3.47,1.56-7.87-15.22,8.67-3.89c-8.48-.74-14.46-6.48-15.38-12.32l14.81-5.61,1.98,4.41-7.63,4.94c-.6.36-.65.67-.4,1.22,1.4,2.49,6.18,4.9,11.5,5.16l22.15-9.94-1.88-7.77,3.15-1.42,10.22,22.78-3.15,1.41Z"/><path d="m701.96,1589.5c-13.36,4.99-24.37.43-28.81-11.47-4.11-11.01.62-20.34,15.33-25.64l10.24,27.44c10.19-4.08,13.13-10.53,10.37-18.17-1.81-4.86-4.81-8.44-8.9-10.51l1.26-3.05c6.51,1.63,11.69,6.61,14.59,14.38,4.35,11.66-.4,21.91-14.08,27.02Zm-13.72-26.14c-10.28,3.84-12.97,8.25-11.06,13.35,2,5.34,7.4,7.47,17.68,4.38l-6.62-17.73Z"/><path d="m699.44,1530.24l-3.27-6.55-54.33,14.55.85,7.2-3.67.98-5.34-16.28,31.38-8.4c-6.25-1.28-11.61-6.28-13.33-12.71-2.26-8.43,1.46-14.25,11.39-16.91l22.95-6.15-.44-7.31,3.34-.89,6.19,23.12-3.34.89-3.18-6.21-21.78,5.83c-6.43,1.72-8.74,5.11-7.58,9.45,1.36,5.09,5.53,8.63,10.62,9.59l23.7-6.35-.37-7.06,3.34-.89,6.21,23.2-3.34.89Z"/><path d="m667.33,1477.56c-14.01,2.62-24.09-3.75-26.43-16.23-2.17-11.55,4.09-19.93,19.49-22.64l5.4,28.79c10.74-2.28,14.74-8.13,13.33-16.12-.96-5.09-3.3-9.14-6.97-11.88l1.76-2.79c6.14,2.72,10.39,8.51,11.92,16.67,2.29,12.23-4.14,21.52-18.49,24.21Zm-9.05-28.11c-10.79,2.02-14.19,5.91-13.19,11.26,1.05,5.61,6.01,8.63,16.67,7.34l-3.49-18.6Z"/><path d="m676.81,1429.63l-2.33-6.94-33.19,4.04-.08,7.23-3.77.46-3.01-16.87,9.43-1.15c-7.88-3.22-11.89-10.47-11.04-16.32l15.81-.97.59,4.8-8.75,2.46c-.68.17-.82.45-.74,1.05.6,2.8,4.45,6.51,9.46,8.33l24.1-2.94.51-7.98,3.43-.42,3.02,24.78-3.43.42Z"/><path d="m654.17,1390.59c-14.23.83-23.42-6.77-24.16-19.45-.69-11.73,6.58-19.25,22.2-19.99l1.71,29.24c10.94-.9,15.65-6.19,15.26-14.31-.3-5.17-2.11-9.48-5.41-12.67l2.1-2.55c5.74,3.47,9.22,9.76,9.71,18.04.73,12.42-6.83,20.82-21.41,21.67Zm-5.42-29.02c-10.95.64-14.82,4.07-14.5,9.5.33,5.69,4.87,9.32,15.61,9.39l-1.1-18.89Z"/><path d="m669.76,1296.35l-1.11-7.27-20.51-1.43-30.54,14.64-1.97,4.36-4.14-.31,2.04-27.66,4.14.31,1.12,7.1,23.17-11.02-20.75-13.49-2.87,8.37-4.14-.31,1.38-18.61,4.14.31,1.92,4.56,26.69,17.48,21.37,1.58,2.17-7.03,4.14.3-2.1,28.44-4.14-.31Z"/><path d="m654.96,1256.74c-14.71-2.1-21.46-11.62-19.45-25.73,2.03-14.2,11.2-21.53,25.91-19.42s21.81,11.67,19.78,25.87c-2.03,14.2-11.44,21.4-26.23,19.29Zm21.36-19.98c.75-5.22-2.92-9.49-16.69-11.46-13.6-1.95-18.47,1.02-19.23,6.32-.77,5.39,3.09,9.52,16.6,11.45,13.68,1.96,18.56-1.01,19.32-6.31Z"/><path d="m672.17,1202.69l-24.35-5.53-2.18,5.71-4.46-1.01,3.37-18.73,27.63,6.28c6.15,1.4,8.65-.25,9.61-4.46.88-3.88-.07-7.1-4.47-10.76l-23.08-5.24-2.18,5.71-4.47-1.01,3.37-18.73,37.91,8.61,2.17-6.06,4.46,1.01-3.44,19.06-9.35-2.12c5.38,4.41,7.6,11.03,6.01,18.02-1.88,8.26-7.28,11.37-16.54,9.27Z"/><path d="m701.91,1117.63c3.78,6.17,4.36,10.73,2.67,15.82-2.37,7.14-7.88,10.31-14.44,8.14-5.17-1.71-7.88-6.44-7.7-16.03l.25-14.21-4.02-1.33c-5.82-1.93-8.96-.43-10.7,4.82-.6,1.8-1.2,4.43-1.19,5.52-.03.63.17.87.71,1.15l8.09,4.69-1.96,5.91-12.57-2.99c.05-6.45.97-12.79,2.73-18.12,4.19-12.63,10.47-15.92,20.31-12.65l20.99,6.97c1.8.6,2.54.3,2.84-.61.3-.9-.11-1.86-1.51-2.87l2.37-3.04c3.99,2.78,5.25,6.39,3.4,11.96-1.93,5.82-5.29,7.99-10.29,6.87Zm-2.61,8.15c.9-2.71.43-5.68-2.25-9.67l-9.27-3.07-.56,7.46c-.29,4.45,1.1,6.83,4.79,8.05,3.94,1.31,6.34.1,7.29-2.77Z"/><path d="m710.9,1098.07l1.31-6.65-30.24-12.33-3.15,5.9-4.24-1.73,6.6-18.49,8.88,3.62c-5.89-7.07-5.73-15.02-1.88-19.89l15.13,7.29-2.25,5.52-8.8-2c-.87-.17-1.09-.07-1.17.36-.5,2.6,1.28,7.15,4.88,11.13l21.12,8.61,4-6.39,3.84,1.57-10.21,25.04-3.84-1.57Z"/><path d="m710.75,1051.36c-12.82-6.24-16.65-17.52-10.71-29.72,5.6-11.5,15.93-14.35,30.15-7.23l-12.37,25.4c9.47,4.23,15.4,2.12,18.96-4.8,2.39-4.7,3.03-9.19,2.02-13.43l3.43-.93c3.28,6.69,3.19,12.99-.82,21.23-6.05,12.43-16.83,16.21-30.66,9.48Zm9.49-27.19c-9.63-4.69-13.88-4.26-15.85-.22-2.04,4.19.13,8.62,9.26,13.74l6.58-13.52Z"/><path d="m752.33,1007.78l2.37-6.35-47.24-28.91-4.14,5.27-3.91-2.39,9.58-17.13,27.86,17.05c-3.81-5.37-4.02-12.79-.73-18.17,4.92-8.03,11.63-9.4,20.54-3.94l20.04,12.27,4.58-5,3.54,2.17-13.4,21.89-3.54-2.16,2.05-5.83-18.5-11.32c-4.86-2.98-8.63-2.45-10.57.72-2.21,3.61-1.6,8.74.77,12.32l19.82,12.13,4.31-4.56,3.54,2.17-13.44,21.96-3.54-2.16Z"/><path d="m768.98,947.21c-11.54-8.36-13.36-20.14-5.4-31.12,7.5-10.35,18.17-11.38,30.94-1.91l-16.58,22.88c8.6,5.8,14.8,4.75,19.51-1.44,3.16-4.22,4.58-8.53,4.32-12.88l3.54-.32c2.07,7.16.89,13.34-4.48,20.76-8.11,11.19-19.38,13.06-31.84,4.03Zm14.05-25.14c-8.68-6.29-12.93-6.6-15.57-2.96-2.74,3.78-1.36,8.51,6.75,15.13l8.82-12.17Z"/><path d="m810.71,920.45l3.25-5.95-25.12-20.87-4.78,4.68-3.52-2.93,11.87-15.64,7.38,6.13c-3.49-8.51-.93-16.05,4.21-19.53l12.23,11.51-3.81,4.59-7.78-4.56c-.77-.42-1.02-.4-1.23,0-1.26,2.33-.93,7.2,1.3,12.09l17.55,14.57,5.74-4.89,3.19,2.65-17.28,20.8-3.19-2.65Z"/><path d="m824.6,875.9c-10.35-9.81-10.61-21.72-1.28-31.56,8.8-9.28,19.5-8.9,30.92,2.16l-19.43,20.51c7.76,6.88,14.05,6.65,19.53,1.12,3.69-3.77,5.66-7.85,5.97-12.2l3.55.15c1.12,7.36-.86,13.35-7.16,19.99-9.51,10.04-20.93,10.4-32.09-.17Zm17.23-23.08c-7.78-7.37-11.96-8.23-15.05-4.97-3.21,3.39-2.47,8.26,4.71,15.89l10.34-10.91Z"/><path d="m903.04,825.95l6.14-7.78-9.01-18.06-28.37-17.9-4.71,1.05-1.33-2.59,17.16-13.96,1.33,2.59-6.08,7.73,22.77,14.44-.09-32.56-7.89,3.3-1.33-2.59,14.54-11.83,1.33,2.59-2.35,4.92.11,38.89,9.62,19.35,8-3.72,1.33,2.59-19.84,16.14-1.33-2.59Z"/><path d="m922.08,785.33c-4.95-12.29-2.43-25.12,7.28-32.05,9.92-7.08,21.08-2.73,26.33,11.46,4.51,12.27,1.76,24.33-7.6,31-9.78,6.98-20.67,2.86-26.01-10.42Zm24.44,7.18c5.56-3.96,7.06-12.57,2.77-23.63-4.87-12.77-12.54-16.53-18.44-12.31-5.42,3.87-7.29,12.84-2.38,24.63,5.17,12.45,12.36,15.38,18.05,11.32Z"/><path d="m969.14,766.16l-8.65-27.11-6.13,3.23-1.66-3.54,12.13-8.31,10.29,32.29c1.94,6,3.42,6.92,5.78,5.48,3.61-2.21,6.74-10.69,6.61-23.17l-7.36-22.84,5.9-3.6,11.09,34.43c1,3.13,1.93,3.99,3.33,3.13,1.77-1.08,3.02-2.85,3.82-6.18l2.58.75c-.23,5.1-2.4,8.35-6.01,10.55-5.31,3.24-8.39,1.17-11.22-9.76-.45,11.71-3.9,18.98-8.18,21.59-5.83,3.56-9.77.9-12.34-6.95Z"/><path d="m1044.64,728.41l-.75-3.48c-1.62,10.42-4.91,15.69-8.94,17.67-6.28,3.08-16.97-4.57-19.58-17.92-2.65-13.04,2.15-24.44,11.46-29.01,3.1-1.52,6.39-2.08,10.21-1.55l1.11-3.62,4.5-2.21,8.3,37.5c.52,2.44,1.68,2.83,3,2.19,1.63-.8,3.42-3.03,4.18-5.61l2.47.91c-.53,4.4-3.15,8.09-6.95,9.96-4.19,2.06-7.85.68-9.01-4.82Zm-10.22,8.19c2.4-1.18,6.39-7.37,8.46-16.09l-5.01-22.95c-2.39-.94-5.79-.62-8.27.6-6.44,3.16-10.06,12.45-7.63,23.48,2.46,11.69,8.65,16.83,12.45,14.97Z"/><path d="m1061.73,686.07l-6.31,2.14-1.09-3.76,12.72-6.1,2.41,13.5c1.65-9.57,6.28-16.91,10.61-18.88,1.08-.54,2.22-.73,3.03-.6l2.09,13.63-2.79,1.16-4.32-8.4c-3.48,4.25-6.27,10.83-7.49,19.18l4.08,24.78-6.39,2.64-6.53-39.28Z"/><path d="m1124.81,693.93l2.28,1.03c-1.14,6.16-5.96,11.23-12.16,13.39-10.85,3.78-20.75-4.66-21.82-20.57-.91-12.58,5.38-22.1,15.25-25.54,8.73-3.05,14.24.43,15.15,8.81.97,8.54-5.71,15.63-22.48,21.84,2.77,8.46,8.61,11.82,15.05,9.57,4.16-1.45,7.47-4.8,8.73-8.54Zm-8.14-21.23c-.56-6.58-3.02-8.65-7.91-6.94-5.87,2.05-10.26,9.16-9.21,19.5.16,1.77.4,3.52.75,5.04,11.53-4.2,16.96-10.13,16.37-17.6Z"/><path d="m1174.38,680.95l-.19-24.92c-.02-5.7-1.56-7.54-4.41-6.81-4.35,1.11-9.77,8.19-13.31,19.88l.54,24.56-6.7,1.7-1.52-63.45-6.47,1.2-.54-3.87,13.62-4.27.91,37.21c3.73-10.58,9.17-16.51,14.36-17.83,6.28-1.6,10.19,2.22,10.25,10.14l.17,24.83c.02,3.92.77,4.79,2.45,4.37,1.76-.45,3.97-2.26,5.24-4.63l2.23,1.4c-1.43,4.2-4.83,7.29-8.6,8.25-4.94,1.26-7.99-.91-8.04-7.76Z"/><path d="m1224.48,669.42l2.1,1.37c-2.07,5.92-7.61,10.19-14.07,11.38-11.3,2.08-19.79-7.77-18.42-23.66,1.02-12.58,8.69-21.02,18.97-22.91,9.09-1.68,14.01,2.6,13.63,11.02-.35,8.58-8.03,14.57-25.56,18.15,1.44,8.78,6.7,13,13.41,11.76,4.33-.8,8.12-3.6,9.94-7.1Zm-4.8-22.22c.46-6.58-1.66-9.01-6.76-8.07-6.12,1.13-11.54,7.49-12.08,17.87-.11,1.78-.14,3.54-.03,5.1,12.03-2.39,18.31-7.42,18.87-14.9Z"/><path d="m1241.58,636.96l-6.65.41-.06-3.91,13.88-2.54-1.24,13.65c4.11-8.79,10.51-14.65,15.21-15.42,1.19-.24,2.34-.12,3.08.22l-1.58,13.7-3,.38-1.95-9.25c-4.48,3.18-8.9,8.79-12.28,16.53l-2.59,24.97-6.86.87,4.05-39.61Z"/><path d="m1300.37,661.12l1.93,1.6c-2.72,5.65-8.7,9.27-15.25,9.73-11.46.81-18.8-9.94-15.66-25.58,2.42-12.38,10.98-19.91,21.41-20.65,9.22-.65,13.63,4.15,12.31,12.47-1.31,8.49-9.61,13.58-27.43,15.18.45,8.89,5.21,13.67,12.01,13.19,4.4-.31,8.47-2.68,10.67-5.95Zm-2.28-22.62c1.19-6.49-.64-9.13-5.81-8.77-6.21.44-12.3,6.15-14,16.4-.31,1.75-.53,3.5-.6,5.07,12.23-1.03,19.03-5.32,20.41-12.7Z"/></g></svg>