<?xml version="1.0" encoding="UTF-8"?><svg id="Layer_1" xmlns="http://www.w3.org/2000/svg" xmlns:xlink="http://www.w3.org/1999/xlink" viewBox="0 0 2307.82 2307.82"><defs><style>.cls-1{fill:none;}.cls-2{fill:#9632fa;}.cls-3{fill:url(#radial-gradient);}</style><radialGradient id="radial-gradient" cx="1153.85" cy="1149.55" fx="1153.85" fy="1149.55" r="1051.92" gradientUnits="userSpaceOnUse"><stop offset=".46" stop-color="#000"/><stop offset=".66" stop-color="#010001"/><stop offset=".74" stop-color="#050108"/><stop offset=".79" stop-color="#0c0414"/><stop offset=".83" stop-color="#160725"/><stop offset=".87" stop-color="#230b3b"/><stop offset=".9" stop-color="#331156"/><stop offset=".93" stop-color="#471777"/><stop offset=".95" stop-color="#5e1f9c"/><stop offset=".98" stop-color="#7727c7"/><stop offset="1" stop-color="#9230f4"/><stop offset="1" stop-color="#9632fa"/></radialGradient></defs><circle class="cls-3" cx="1153.85" cy="1149.55" r="1051.92"/><circle class="cls-1" cx="1153.85" cy="1149.55" r="485.59"/><path class="cls-2" d="m1183.23,592.58l-25.1-1.19.11-2.37c.27-5.68,1.25-6.35,7.09-6.07l1.55-32.67-6.87-.32.11-2.37c.3-6.31,1.49-6.34,6.22-6.11l16.81.8c14.76.7,20.88,6.6,20.53,14.18-.24,5.13-3.06,7.92-7.24,9.31,5.03,2.37,8.47,6.65,8.2,12.17-.47,10.02-7.84,15.29-21.42,14.65Zm1.05-8.73c5.84.28,8.65-2.2,8.81-5.59.18-3.79-2.55-6.29-7.76-6.54l-8.05-.38-.57,12.15,7.58.36Zm-6.62-20.48l4.34.21c6.16.29,9.38-1.06,9.6-5.56.21-4.42-2.69-6.69-9.32-7.01l-4.03-.19-.59,12.55Z"/><path class="cls-2" d="m1228.5,575.07l4.62.61.19-1.49c.67-5.09-.17-7.83-4.16-8.35-1.8-.24-3.15-.25-4.39.06l-.31,2.35c-.38,2.9-1.69,4.4-5.3,3.93l-5.01-.66,1.43-10.89c4.03-1.54,10.1-2.9,18.25-1.83,7.6,1,11.72,5.44,10.59,14.06l-2.25,17.15,5.4.71-.37,2.82c-.62,4.7-2.61,5.31-5.51,4.93l-10.03-1.32-.59-5.81c-1.84,2.47-5.78,5.78-12.12,4.94-5.25-.69-9.08-5.49-8.27-11.68.92-7.05,7.25-10.92,17.82-9.53Zm3.22,11.26l.58-4.39-4.86-.64c-3.13-.41-5.81.59-6.18,3.41-.29,2.19.95,3.71,2.98,3.98,2.43.32,4.99-.38,7.48-2.36Z"/><path class="cls-2" d="m1256.16,571.13l.6-2.78c1-4.63,2.57-5.19,6.43-4.36l10.2,2.19-.65,5.27c2.34-1.84,8.38-4.42,15.1-2.98,7.42,1.59,9.4,7.76,7.94,14.56l-3.63,16.92,5.41,1.16-.6,2.78c-1,4.63-2.34,5.24-5.43,4.57l-17.07-3.67.61-2.86c.75-3.48,2.55-5.11,6.41-4.28l3.05-14.21c.83-3.86.17-6.43-3.15-7.14-3.94-.85-7.87-.24-10.02,1.48l-3.64,16.92,5.41,1.16-.6,2.78c-1,4.63-2.34,5.24-5.43,4.57l-17.07-3.67.61-2.86c.75-3.48,2.55-5.11,6.41-4.28l4.33-20.16-5.25-1.13Z"/><path class="cls-2" d="m1332.73,581.82c1.51-2.02,3.61-3.78,5.76-4.62,3.26-1.25,7.61.47,8.06,4.48l.31,2.82c-3.26.42-6.18,1.36-8.73,2.99,1.35,2.63,1.75,5.72.65,9.35-2.68,8.93-11.48,11.57-20.71,8.79-1.67-.5-3.13-1.11-4.53-1.94-.84.33-1.4.82-1.61,1.5-.41,1.36,1.1,2.39,4.77,3.91l5.29,2.17c8.22,3.38,12.06,8.74,10.33,14.49-2.39,7.94-10.76,11.12-21.66,7.85-12.56-3.77-15.89-9.72-14.16-15.47,1.07-3.56,3.6-5.68,7.07-6.79-1.97-1.67-3.22-3.85-2.53-6.12,1-3.33,3.94-5.17,7.47-5.92-2.22-3.06-3.03-6.93-1.65-11.55,2.68-8.93,10.94-11.15,20.55-8.26,1.89.57,3.72,1.36,5.32,2.34Zm-19.37,44.17c4.54,1.36,7.84.54,8.61-2.03.66-2.19-.55-4.21-4.88-6l-7.79-3.17c-1.37.99-2.33,2.27-2.9,4.16-.89,2.95,1.59,5.43,6.96,7.04Zm3.67-35.85c-1.45,4.84.11,7.87,3.97,9.03,3.63,1.09,6.37-.89,7.44-4.45,1.5-4.99-.11-7.87-4.04-9.05-3.56-1.07-6.27.84-7.37,4.47Z"/><path class="cls-2" d="m1372.23,618.39l-20.71-7.78c-.91,4.89,1.18,8.54,6.28,10.46,4.44,1.67,9.35,2.08,12.55,1.42l-.86,2.29c-1.97,5.25-10,6.62-18.43,3.45-8.5-3.2-13.4-11.28-9.09-22.74,5.03-13.39,15.9-16.47,24.99-13.05,11.46,4.31,10.56,16.8,5.27,25.95Zm-18.64-13.51l11.76,4.42c1.17-2.43,1.69-8.31-2.45-9.87-3.33-1.25-6.64.37-9.31,5.45Z"/><path class="cls-2" d="m1382.37,608.28l1.18-2.59c1.96-4.31,3.69-4.49,7.21-2.88l9.21,4.18-1.47,5.15c3.12-1.53,8.13-2.99,13.59-.51,2.59,1.18,4.83,2.54,6.07,3.63l-4.8,10.57c-1.21,2.66-2.69,3.81-6.14,2.24l-4.67-2.12,3.24-7.12c-3.24-1.47-7.03-1.72-9.96-.8l-7.16,15.75,8.27,3.76-1.18,2.59c-1.96,4.31-3.4,4.62-6.28,3.31l-19.13-8.69,1.21-2.66c1.47-3.24,3.65-4.41,7.18-2.81l8.53-18.77-4.89-2.22Z"/><path class="cls-2" d="m1433.57,645.42c-2.77-1.53-3.44-4.06-1.88-6.9,1.49-2.7,4.03-3.55,6.8-2.02,2.84,1.56,3.54,4.21,2.05,6.91-1.56,2.84-4.14,3.58-6.98,2.02Z"/><path class="cls-2" d="m1467.31,687.28l-15.58-10.53.57-.85c2.21-3.27,3.35-3.55,8.33-.19l21.6-31.94-5.63-3.8.62-.92c2.04-3.01,3.57-3.31,7.56-.61l12.76,8.63c8.64,5.84,11.07,12.54,6.51,19.28-2.7,3.99-6.76,5.63-11.58,4.85,3.74,4.91,4.54,10.22,1.22,15.13-4.87,7.2-13.95,9.35-26.39.95Zm5.11-3.6c5.76,3.89,11.5,4.15,14.86-.82,3.5-5.17.7-9.64-6.24-14.33l-4.52-3.05-9.74,14.4,5.63,3.81Zm7.2-22.79l4.52,3.05c6.22,4.2,10.43,3.62,13.48-.9,3.05-4.52.58-8.48-5.24-12.41l-3.99-2.7-8.76,12.96Z"/><path class="cls-2" d="m1529.33,709.61c-7.13,8.97-18.6,10.95-27.01,4.26-7.36-5.85-8.51-16.46-1.18-25.67,7.13-8.97,18.11-10.84,26.76-3.95,6.99,5.56,8.76,16.15,1.43,25.36Zm-22.31-17.64c-4.92,6.18-5.66,13.46.09,18.04,4.58,3.64,11.27,2.2,16.34-4.17,4.92-6.18,5.35-13.21-.4-17.78-4.51-3.59-10.96-2.46-16.03,3.91Z"/><path class="cls-2" d="m1541.59,703.39l.74-.82c2.33-2.58,3.45-2.64,7.61,1.13l4.51,4.08-2.64,4.11c3.27-.67,8.68.29,12.14,3.41,1.52,1.38,2.71,2.77,3.56,4.07l-6.57,7.27c-1.96,2.17-4.26,2.12-6.66-.05l-1-.9,5.83-6.45c-2.94-2.76-7.1-4.39-10.54-3.77l-15.1,16.71,6.16,5.56-.74.82c-2.33,2.58-3.74,2.37-7.31-.86l-11.55-10.44.74-.82c2.38-2.64,3.45-2.64,7.61,1.13l17.96-19.87-4.75-4.29Z"/><path class="cls-2" d="m1554.55,758.95c-9.33,9.33-14.98,10.61-19,7.7-2.4-1.62-2.74-3.18-1.51-5.2l.78-1.23.78.45c2.79,1.68,6.2,1.18,12.96-5.58l23.41-23.4-4.47-4.47.78-.78c2.46-2.46,3.52-2.51,7.49,1.45l5.47,5.48-4.25,3.13-22.46,22.45Zm28.05-32.62c-2.01-2.01-2.01-4.81.11-6.93,2.07-2.07,4.92-2.12,6.93-.11,2.07,2.07,2.07,4.97,0,7.04-2.12,2.12-4.97,2.07-7.04,0Z"/><path class="cls-2" d="m1587.11,762.98l3.07,3.4,1.11-1.01c4.8-4.35,5.83-8.04,3.02-11.15-1.86-2.05-3.41-3.41-5.36-4.63l-2.17,1.96c-2.17,1.96-4.02,2.15-6.46-.55l-1.06-1.17,7.73-7c2.31.79,8.51,4.34,12.64,8.91,5.35,5.92,4.05,11.78-1.63,16.92l-15.12,13.68,4.24,4.69-.82.74c-2.58,2.33-3.64,2.34-7.46-1.88l-3.23-3.57,2.43-4.97c-3.05.52-8.58-.65-12.19-4.64-3.82-4.22-3.47-9.96.69-13.73,5.57-5.04,13.18-4.15,20.55,3.99Zm-5.83,11.46l5.45-4.93-3.02-3.34c-5.04-5.57-9.37-5.05-11.71-2.93-2.34,2.12-1.97,4.77.1,7.05,2.23,2.46,5.85,3.76,9.19,4.15Z"/><path class="cls-2" d="m1611.53,774.32l.88-.67c2.75-2.12,3.86-1.98,7.29,2.46l3.23,4.19-2.79,4.15c3.21.42,8.72,2.26,13.3,8.2,3.91,5.07,2.9,10.23-3.92,15.49l-16.14,12.44,3.62,4.69-.88.68c-2.75,2.12-4.1,1.67-7.04-2.15l-8.06-10.45.88-.68c2.82-2.17,3.81-2.04,7.29,2.46l13.95-10.76c5.38-4.15,6.01-6.83,3.31-10.33-2.46-3.19-6.68-5.82-10.19-6.61l-17.83,13.75,3.67,4.76-.88.68c-2.75,2.12-4.1,1.67-7.04-2.15l-8.1-10.51.88-.67c2.82-2.17,3.86-1.98,7.29,2.46l21.21-16.35-3.91-5.07Z"/><path class="cls-2" d="m1644.06,866.98l-1.02.61c-3.66,2.2-4.57,1.45-7.01-2.61l-9.36-15.58.88-.53c3.39-2.03,4.54-1.8,7.63,3.34l33.05-19.85-3.5-5.83.95-.57c3.12-1.87,4.63-1.49,7.11,2.64l7.48,12.46c6.14,10.23,4.78,18.7-3.21,23.5-7.86,4.72-17.04,2.77-24.73-10.03l-1.75-2.91-11.58,6.96,5.04,8.4Zm28.01-28.25l-16.66,10.01,2.89,4.81c3.74,6.23,8.74,8.57,14.23,5.28,5.83-3.5,6.34-8.78,1.74-16.44l-2.2-3.66Z"/><path class="cls-2" d="m1675.22,891.58l2.07,4.09,1.34-.68c5.78-2.92,7.75-6.22,5.86-9.95-1.25-2.47-2.39-4.19-3.95-5.88l-2.61,1.32c-2.61,1.32-4.45,1.01-6.09-2.23l-.71-1.41,9.31-4.7c2.02,1.37,7.06,6.43,9.84,11.93,3.6,7.12.8,12.43-6.04,15.89l-18.19,9.19,2.85,5.64-.99.5c-3.1,1.57-4.13,1.29-6.69-3.79l-2.17-4.3,3.66-4.15c-3.08-.3-8.1-2.9-10.53-7.69-2.57-5.08-.72-10.53,4.29-13.06,6.7-3.39,13.81-.52,18.77,9.28Zm-8.65,9.51l6.56-3.31-2.03-4.02c-3.39-6.7-7.7-7.35-10.52-5.93-2.82,1.43-3.16,4.08-1.77,6.83,1.5,2.96,4.65,5.17,7.77,6.43Z"/><path class="cls-2" d="m1695.03,907.72l-1.72-4.07,1.02-.43c3.2-1.35,4.24-.93,6.42,4.23l4.06,9.61-1.02.43c-3.64,1.54-4.39.57-6.05-3.36l-18.92,17.95.25.58,25.9-1.43-2.25-5.31,1.02-.43c3.2-1.35,4.24-.93,6.42,4.23l4.06,9.61-1.02.43c-3.13,1.32-4.12.8-5.59-2.27l-34.6.73c-1.17-2.16-1.85-3.76-2.74-6.48l24.59-24.21.17.19Z"/><path class="cls-2" d="m1732.29,948.43l-43.55,15.72,2.01,5.57-1.04.38c-3.27,1.18-4.42.33-6.05-4.2l-4.48-12.41.67-.24c3.72-1.34,4.63-.91,6.53,4.36l43.4-15.67-2.15-5.95,1.04-.38c3.27-1.18,4.25-.78,6.16,4.5l2.63,7.28-5.17,1.03Z"/><path class="cls-2" d="m1712.87,999.11l-6.99-22.9c-7.63,3.15-9.99,8.42-8.26,14.09,1.5,4.91,4.37,8.91,7.02,10.82l-1.89.58c-3.02.92-8.86-1.43-11.79-11.02-2.81-9.22,1.9-17.85,12.56-21.1,13.53-4.13,22.19.99,25.17,10.74,2.45,8.01-2.26,15.06-15.82,18.79Zm-2.38-24.3l5,16.4c6.38-2.36,8.98-6.29,7.62-10.75-1.43-4.69-5.87-7.05-12.63-5.65Z"/><path class="cls-2" d="m1704.65,1042.62c-.74-3.23,1.58-6.52,6.97-12.38l6.62-7.19-1.4-6.08-11.55,2.65,1.33,5.78-1.08.25c-3.39.78-4.42-.2-5.5-4.9l-2.97-12.94.69-.16c3.85-.88,4.72-.27,5.98,5.19l44.97-10.33-1.43-6.24,1.08-.25c3.39-.78,4.34-.19,5.59,5.28l1.73,7.55-5.26.4-28.18,6.47,1.52,6.62,10.41,3.69-1.03-4.47,1.08-.25c3.47-.8,4.41-.2,5.67,5.27l2.74,11.94-1.08.25c-3.47.8-4.5-.18-5.58-4.88l-.16-.69-13.28-4.89-6.93,7.59c-4.41,4.82-4.88,7.36-4.4,9.44l.28,1.23c-3.33.68-6.05-.56-6.82-3.95Z"/><path class="cls-2" d="m1728.29,1072.12c-.44-3.13,1.18-5.19,4.39-5.65,3.05-.43,5.26,1.1,5.7,4.22.45,3.21-1.24,5.36-4.29,5.79-3.21.45-5.35-1.16-5.8-4.37Z"/><path class="cls-2" d="m1766.43,1144.67l-10.18.53c-2.92.15-4.5-1.35-4.69-4.98l-.07-1.34,9.07-.47-.67-12.86-38.82,2.01.4,7.65-1.18.06c-4.26.22-4.71-.86-4.96-5.68l-.87-16.81,1.03-.05c3.95-.2,4.86.62,5.17,6.62l.04.79,38.82-2.01-.67-12.86-4.73.25c-2.92.15-4.5-1.27-4.69-4.98l-.07-1.26,14.68-.76,2.39,46.16Z"/><path class="cls-2" d="m1697.35,1158.11c.12-4.19,2.55-6.17,7.74-5.23-.98,1.24-1.43,2.96-1.48,4.78-.06,2.13,1.78,4.16,4.98,5.6l7.26,3.21,32.37-12.51.12-4.11,1.11.03c3.47.1,4.24.91,4.08,6.52l-.3,10.42-1.11-.03c-3.63-.1-4.16-1.15-4.12-5.1l-23.01,8.83,22.48,9.97.15-5.29,1.11.03c3.47.1,4.24.91,4.08,6.52l-.3,10.42-1.11-.03c-3.47-.1-4.08-1.06-4.14-4.62l-39.95-18.29c-6.63-3.03-10.08-6.93-9.96-11.11Z"/><path class="cls-2" d="m1714.38,1206.58l-14.06-1.51-.89,8.25-1.1-.12c-3.46-.37-4.11-1.63-3.6-6.43l1.66-15.47,1.1.12c3.53.38,4.16,1.24,3.56,6.82l45.09,4.84.68-6.36,1.1.12c3.46.37,4.16,1.24,3.56,6.82l-.57,5.26-4.88,1.06c1.58,1.6,4.81,6.95,4.06,14.02-.87,8.09-7.22,12.49-19.08,11.22-13.82-1.49-20.28-10.92-19.23-20.74.33-3.06.93-5.7,2.6-7.9Zm26.79,2.88l-20.58-2.21c-1.48,1.91-2.47,4.5-2.92,8.67-.61,5.66,3.43,10.94,13.33,12,8.17.88,12.42-1.69,12.99-7.03.43-4.01-.84-8.43-2.82-11.43Z"/><path class="cls-2" d="m1721.66,1271.97l4.23-23.56c-8.23-.67-12.73,2.93-13.77,8.77-.91,5.06-.18,9.92,1.31,12.84l-1.94-.35c-3.11-.56-7.24-5.31-5.46-15.19,1.7-9.49,9.84-15.01,20.8-13.04,13.92,2.5,19.3,11.01,17.5,21.04-1.48,8.24-8.88,12.37-22.66,9.5Zm8.97-22.71l-3.03,16.88c6.76.81,10.87-1.5,11.69-6.09.86-4.82-2.01-8.95-8.66-10.79Z"/><path class="cls-2" d="m1714.62,1315.38l-1.26,4.4,1.44.41c6.23,1.78,9.91.7,11.06-3.32.76-2.66,1.1-4.7,1.1-7l-2.81-.81c-2.81-.8-3.95-2.28-2.95-5.78l.44-1.52,10.02,2.87c.55,2.38.81,9.52-.89,15.44-2.2,7.67-7.86,9.66-15.23,7.55l-19.59-5.61-1.74,6.08-1.06-.3c-3.34-.96-3.91-1.86-2.34-7.33l1.33-4.63,5.5-.56c-2.05-2.31-3.98-7.63-2.5-12.8,1.57-5.47,6.63-8.21,12.02-6.67,7.21,2.07,10.49,9,7.46,19.56Zm-12.81,1.1l7.06,2.02,1.24-4.33c2.07-7.21-.65-10.62-3.69-11.49s-5.09.84-5.94,3.8c-.91,3.19-.1,6.96,1.33,10Z"/><path class="cls-2" d="m1717.9,1342.08l1.04.39c3.26,1.22,3.72,2.24,1.75,7.49l-1.86,4.96-4.99-.18c1.34,2.95,2.68,8.6.05,15.63-2.25,5.99-7.16,7.86-15.23,4.84l-19.09-7.15-2.08,5.55-1.04-.39c-3.25-1.22-3.58-2.61-1.89-7.12l4.63-12.35,1.03.39c3.33,1.25,3.75,2.16,1.75,7.49l16.5,6.18c6.36,2.38,8.97,1.51,10.52-2.64,1.41-3.77,1.42-8.75.25-12.14l-21.08-7.9-2.11,5.62-1.04-.39c-3.25-1.22-3.58-2.61-1.89-7.12l4.66-12.43,1.04.39c3.33,1.25,3.72,2.24,1.75,7.49l25.08,9.4,2.25-5.99Z"/><path class="cls-2" d="m1706.3,1420.89l2.69-5.72,1,.47c3.15,1.48,3.56,2.46,1.14,7.61l-3.26,6.94-4.38-2.93-41.9-19.69-2.52,5.36-1-.47c-3.15-1.48-3.56-2.46-1.14-7.61l1.85-3.93,5.55.25c-1.07-1.99-3.28-6.95-.36-13.17,3.73-7.94,11.46-11.02,23.55-5.35,11.51,5.41,14.84,15.61,10.77,24.26-2.15,4.58-4.79,6.48-6.22,7.29l14.23,6.68Zm-37.54-17.64l17.95,8.43c2.23-1.4,4.37-3.53,6.45-7.97,2.39-5.08-1.01-10.86-8.02-14.15-8.87-4.17-14.37-2.12-16.82,3.1-1.98,4.22-.94,7.76.44,10.59Z"/><path class="cls-2" d="m1649.42,1512.57c-3.71-2.42-3.26-3.82-.33-8.32l-33.64-18.42-3.66,5.63-1.06-.69c-3.64-2.37-3.37-3.51-.74-7.55l8.06-12.38.93.6c3.38,2.2,3.59,3.47.31,8.5l30.81,16.68-20.66-28.64,2.76-4.24c1.21-1.85,2.62-2.72,5.13-2.22l30.5,5.72-26.89-20.53-3.75,5.76-1.06-.69c-3.64-2.37-3.37-3.51-.74-7.55l8.02-12.31.93.6c3.38,2.2,3.59,3.47.31,8.5l30.53,23.19,3.79-5.83.99.65c3.71,2.41,3.48,3.49.89,7.46l-2.46,3.77c-2.2,3.38-4.42,5.04-9.53,4.07l-31.57-5.95,18.92,25.52c3.05,4.15,2.7,6.28.5,9.66l-6.3,9.66-.99-.65Z"/><path class="cls-2" d="m1598.3,1526.2l14.89-18.74c-6.92-4.49-12.6-3.45-16.28,1.19-3.19,4.02-4.86,8.65-4.93,11.92l-1.55-1.23c-2.47-1.97-3.85-8.11,2.39-15.96,6-7.55,15.78-8.55,24.5-1.62,11.07,8.8,11.77,18.84,5.43,26.82-5.21,6.56-13.69,6.68-24.45-2.37Zm18.66-15.74l-10.66,13.42c5.56,3.92,10.28,3.83,13.18.18,3.05-3.83,2.48-8.83-2.51-13.6Z"/><path class="cls-2" d="m1601,1573.82l4.27-4.66.81.75c2.56,2.35,2.66,3.41-1.18,7.6l-5.18,5.65-3.31-4.11-34.11-31.31-4.01,4.37-.81-.75c-2.56-2.35-2.66-3.41,1.18-7.6l2.94-3.2,5.23,1.9c-.43-2.22-1.05-7.61,3.6-12.68,5.93-6.46,14.23-7.1,24.07,1.93,9.37,8.6,9.49,19.33,3.03,26.37-3.42,3.72-6.51,4.75-8.11,5.1l11.58,10.63Zm-30.56-28.05l14.61,13.41c2.54-.67,5.22-2.07,8.54-5.68,3.79-4.13,2.28-10.67-3.42-15.9-7.22-6.62-13.07-6.32-16.97-2.07-3.15,3.43-3.22,7.13-2.75,10.24Z"/><path class="cls-2" d="m1572.85,1575.04l.77.8c2.41,2.5,2.5,3.51-1.53,7.4l-5.57,5.37-3.11-4.25-18.69-19.4-4.27,4.11-.77-.8c-2.41-2.5-2.11-3.89,1.36-7.24l9.5-9.16.77.8c2.47,2.56,2.45,3.57-1.59,7.46l18.58,19.28,4.55-4.39Zm1.18,14.55c2.05-1.97,4.84-1.92,6.92.24,2.03,2.1,2.03,4.95-.02,6.93-2.1,2.03-5.01,1.97-7.04-.13-2.08-2.16-1.97-5.01.13-7.04Z"/><path class="cls-2" d="m1534.13,1596.24l-3.47,2.99.98,1.14c4.23,4.91,7.9,6.02,11.07,3.28,2.09-1.81,3.49-3.33,4.76-5.25l-1.91-2.21c-1.91-2.21-2.05-4.07.7-6.45l1.2-1.03,6.81,7.9c-.84,2.29-4.54,8.4-9.21,12.43-6.04,5.21-11.87,3.77-16.88-2.03l-13.31-15.44-4.79,4.13-.72-.84c-2.27-2.63-2.25-3.7,2.06-7.41l3.65-3.15,4.91,2.55c-.45-3.06.86-8.56,4.93-12.07,4.31-3.71,10.04-3.23,13.7,1.01,4.9,5.68,3.83,13.28-4.48,20.45Zm-11.31-6.1l4.8,5.56,3.41-2.94c5.68-4.9,5.28-9.24,3.21-11.64-2.06-2.39-4.72-2.09-7.05-.07-2.51,2.17-3.9,5.76-4.37,9.09Z"/><path class="cls-2" d="m1470.21,1618.32l18.48-13,1.64,2.33c1.14,1.62,1.7,4.21.14,8.31l-2.44,6.55c-3.2,8.63-3.22,14.24-.9,17.54,2,2.84,5.13,2.77,8.24.58,2.78-1.96,4.21-3.63,5.34-5.59l-2.68-3.81c-1.59-2.26-1.76-3.6.7-5.32l2.07-1.45,6.68,9.5c-1.25,3.3-4.1,7.91-9.98,12.04-6.66,4.68-12.22,3.77-15.63-1.08-3.82-5.43-3.63-12.71.8-23.17l2.69-6.34-.45-.65-15.84,12.5-1.18-1.68c-1.86-2.65-1.67-4.43,2.34-7.25Z"/><path class="cls-2" d="m1438.38,1661.12c-6.22-10.27-3.61-21.37,6.4-27.42,9.39-5.69,19.53-2.68,25.5,7.19,6.22,10.27,3.67,20.86-6.6,27.08-8.99,5.44-19.32,3.02-25.3-6.85Zm26.53-15.51c-4.54-7.5-11.61-10.33-17.63-6.69-6.29,3.8-7.64,10.72-3.55,17.48,4.83,7.97,11.64,10.22,17.65,6.58,6.22-3.76,8.02-9.94,3.52-17.37Z"/><path class="cls-2" d="m1403.26,1657.51l20.1-10.33,1.3,2.53c.9,1.76,1.11,4.41-1,8.24l-3.32,6.15c-4.36,8.11-5.15,13.66-3.31,17.25,1.59,3.09,4.7,3.45,8.08,1.71,3.02-1.55,4.67-3.02,6.06-4.8l-2.13-4.15c-1.26-2.46-1.24-3.8,1.43-5.18l2.25-1.16,5.31,10.33c-1.7,3.09-5.15,7.27-11.54,10.55-7.24,3.72-12.63,2.05-15.34-3.22-3.03-5.9-1.84-13.09,3.99-22.84l3.54-5.9-.36-.7-17.41,10.19-.94-1.83c-1.48-2.88-1.04-4.62,3.32-6.86Z"/><path class="cls-2" d="m1404.75,1689.96l.49,1.08c.81,1.8.35,3.48-2.66,6.22l-6.47,5.85-13.5-30.05-5.4,2.43-.45-1.01c-1.42-3.17-.67-4.38,3.73-6.35l12.03-5.41.45,1.01c1.46,3.24,1.1,4.18-4.02,6.48l10.04,22.34,5.77-2.59Z"/><path class="cls-2" d="m1368.63,1658.4l5.55,68.73c.27,4.14-.24,5.19-3.11,6.32l-3.75,1.48.32-5.65-5.07-62.98c-.22-3.57.98-5.91,4.22-7.18l1.84-.73Z"/><path class="cls-2" d="m1325.68,1688.99l21.41-7.21.91,2.7c.63,1.87.44,4.52-2.22,8l-4.21,5.58c-5.52,7.36-7.13,12.74-5.84,16.56,1.11,3.29,4.13,4.11,7.73,2.9,3.22-1.08,5.06-2.29,6.71-3.84l-1.49-4.42c-.88-2.62-.66-3.95,2.18-4.9l2.4-.81,3.71,11.01c-2.14,2.8-6.18,6.41-12.99,8.71-7.71,2.6-12.79.14-14.68-5.48-2.12-6.29.13-13.22,7.35-21.98l4.38-5.31-.25-.75-18.74,7.48-.66-1.95c-1.03-3.07-.34-4.72,4.3-6.28Z"/><path class="cls-2" d="m1282.96,1720.95c-3.03-11.62,2.63-21.51,13.94-24.46,10.62-2.77,19.48,2.99,22.39,14.15,3.03,11.62-2.42,21.04-14.04,24.08-10.17,2.66-19.38-2.61-22.29-13.77Zm29.85-7.31c-2.22-8.48-8.19-13.21-14.99-11.43-7.11,1.86-10.38,8.1-8.38,15.74,2.36,9.02,8.24,13.11,15.04,11.34,7.03-1.84,10.52-7.24,8.32-15.65Z"/><path class="cls-2" d="m1250.31,1707.48l22.21-4.17.53,2.8c.36,1.94-.19,4.54-3.31,7.62l-4.94,4.95c-6.49,6.53-8.83,11.63-8.09,15.59.64,3.42,3.52,4.64,7.25,3.94,3.34-.63,5.33-1.56,7.18-2.88l-.86-4.58c-.51-2.72-.11-4,2.84-4.55l2.48-.47,2.14,11.41c-2.51,2.48-7.01,5.5-14.07,6.82-8,1.5-12.69-1.64-13.78-7.46-1.23-6.52,1.97-13.07,10.33-20.75l5.08-4.65-.15-.78-19.6,4.81-.38-2.02c-.6-3.18.32-4.72,5.13-5.63Z"/><path class="cls-2" d="m1215.83,1712.35l22.42-2.78.35,2.82c.24,1.96-.47,4.52-3.78,7.39l-5.24,4.63c-6.88,6.11-9.53,11.06-9.04,15.05.43,3.45,3.23,4.85,6.99,4.39,3.37-.42,5.42-1.23,7.34-2.42l-.57-4.63c-.34-2.74.14-4,3.12-4.37l2.51-.31,1.43,11.53c-2.66,2.32-7.33,5.05-14.47,5.94-8.07,1-12.56-2.42-13.29-8.3-.82-6.59,2.77-12.92,11.6-20.07l5.35-4.33-.1-.78-19.86,3.58-.25-2.04c-.4-3.22.61-4.69,5.47-5.3Z"/><path class="cls-2" d="m1180.87,1733.22c3.16-.14,5.06,1.67,5.21,4.9.14,3.08-1.58,5.13-4.74,5.28-3.24.15-5.22-1.74-5.36-4.82-.15-3.24,1.66-5.22,4.9-5.36Z"/><path class="cls-2" d="m1123.94,1714.88l25.1,1.22-.11,2.37c-.28,5.68-1.26,6.35-7.1,6.06l-1.58,32.67,6.87.33-.11,2.37c-.31,6.31-1.49,6.33-6.23,6.11l-16.81-.81c-14.76-.72-20.88-6.63-20.51-14.2.25-5.13,3.07-7.92,7.25-9.3-5.03-2.38-8.46-6.66-8.19-12.18.49-10.02,7.86-15.28,21.43-14.62Zm-1.06,8.73c-5.84-.28-8.65,2.19-8.81,5.59-.18,3.79,2.54,6.29,7.75,6.54l8.05.39.59-12.15-7.58-.37Zm6.6,20.49l-4.34-.21c-6.16-.3-9.38,1.05-9.6,5.55-.21,4.42,2.68,6.7,9.31,7.02l4.03.19.61-12.55Z"/><path class="cls-2" d="m1078.66,1732.35l-4.62-.61-.2,1.49c-.67,5.09.16,7.83,4.15,8.36,1.8.24,3.15.26,4.39-.06l.31-2.35c.38-2.9,1.7-4.4,5.3-3.92l5.01.66-1.44,10.89c-4.03,1.54-10.11,2.89-18.25,1.81-7.6-1.01-11.71-5.46-10.57-14.07l2.27-17.15-5.4-.72.37-2.82c.62-4.7,2.62-5.31,5.51-4.93l10.03,1.33.59,5.82c1.84-2.47,5.78-5.77,12.13-4.93,5.25.69,9.07,5.5,8.26,11.69-.93,7.05-7.26,10.91-17.84,9.52Zm-3.21-11.26l-.58,4.39,4.86.64c3.13.41,5.82-.59,6.19-3.41.29-2.19-.94-3.71-2.98-3.98-2.43-.32-4.99.38-7.48,2.36Z"/><path class="cls-2" d="m1050.98,1736.26l-.6,2.78c-1,4.63-2.57,5.18-6.44,4.35l-10.19-2.2.65-5.27c-2.34,1.84-8.39,4.41-15.11,2.96-7.41-1.6-9.4-7.77-7.93-14.56l3.65-16.91-5.41-1.17.6-2.78c1-4.63,2.34-5.23,5.43-4.57l17.07,3.69-.62,2.86c-.75,3.48-2.56,5.11-6.42,4.27l-3.07,14.21c-.83,3.86-.18,6.43,3.14,7.15,3.94.85,7.87.25,10.02-1.47l3.65-16.91-5.41-1.17.6-2.78c1-4.63,2.34-5.23,5.43-4.57l17.07,3.69-.62,2.86c-.75,3.48-2.56,5.11-6.42,4.27l-4.35,20.16,5.25,1.13Z"/><path class="cls-2" d="m974.43,1725.47c-1.52,2.02-3.61,3.78-5.77,4.62-3.26,1.24-7.61-.48-8.05-4.49l-.31-2.82c3.26-.42,6.18-1.35,8.74-2.98-1.35-2.64-1.74-5.72-.64-9.35,2.69-8.93,11.49-11.55,20.72-8.77,1.66.5,3.13,1.11,4.53,1.94.84-.32,1.4-.81,1.61-1.5.41-1.36-1.09-2.39-4.76-3.91l-5.29-2.17c-8.22-3.39-12.05-8.75-10.31-14.5,2.4-7.94,10.78-11.11,21.67-7.82,12.56,3.79,15.88,9.74,14.14,15.49-1.07,3.56-3.61,5.68-7.08,6.78,1.97,1.67,3.21,3.86,2.53,6.13-1,3.33-3.95,5.16-7.48,5.91,2.21,3.06,3.02,6.94,1.63,11.55-2.69,8.93-10.95,11.14-20.56,8.24-1.89-.57-3.71-1.37-5.32-2.35Zm15.71-8.3c1.46-4.84-.1-7.87-3.96-9.03-3.63-1.1-6.37.88-7.45,4.44-1.51,4.99.1,7.87,4.03,9.06,3.56,1.07,6.27-.83,7.37-4.46Zm3.72-35.85c-4.54-1.37-7.84-.55-8.61,2.02-.66,2.19.55,4.21,4.87,6.01l7.79,3.17c1.37-.99,2.33-2.27,2.9-4.16.89-2.95-1.58-5.43-6.95-7.05Z"/><path class="cls-2" d="m934.98,1688.86l20.7,7.81c.92-4.89-1.17-8.55-6.27-10.47-4.44-1.67-9.34-2.09-12.54-1.44l.86-2.29c1.98-5.25,10.01-6.61,18.44-3.43,8.5,3.21,13.39,11.3,9.06,22.76-5.05,13.38-15.92,16.46-25.01,13.02-11.46-4.32-10.54-16.81-5.24-25.96Zm18.62,13.53l-11.75-4.43c-1.17,2.43-1.7,8.31,2.44,9.87,3.33,1.26,6.64-.37,9.31-5.44Z"/><path class="cls-2" d="m924.8,1698.96l-1.18,2.59c-1.97,4.31-3.69,4.48-7.22,2.88l-9.2-4.19,1.48-5.14c-3.13,1.53-8.13,2.98-13.59.49-2.59-1.18-4.83-2.55-6.07-3.63l4.82-10.57c1.21-2.66,2.69-3.81,6.14-2.24l4.67,2.13-3.24,7.12c3.23,1.47,7.03,1.73,9.96.81l7.18-15.74-8.27-3.77,1.18-2.59c1.97-4.31,3.41-4.61,6.28-3.3l19.12,8.72-1.21,2.66c-1.47,3.23-3.66,4.41-7.18,2.8l-8.55,18.76,4.89,2.23Z"/><path class="cls-2" d="m873.64,1661.75c2.77,1.53,3.44,4.07,1.87,6.9-1.49,2.7-4.04,3.55-6.8,2.02-2.83-1.57-3.54-4.21-2.05-6.91,1.57-2.83,4.14-3.58,6.98-2.01Z"/><path class="cls-2" d="m839.99,1619.86l15.56,10.55-.58.85c-2.22,3.27-3.36,3.55-8.33.18l-21.63,31.91,5.62,3.81-.62.92c-2.04,3.01-3.58,3.3-7.56.6l-12.75-8.64c-8.63-5.85-11.06-12.55-6.49-19.29,2.7-3.99,6.77-5.62,11.58-4.84-3.73-4.91-4.52-10.22-1.2-15.13,4.88-7.19,13.96-9.34,26.39-.91Zm-12.34,26.37l-4.51-3.06c-6.21-4.21-10.42-3.63-13.48.88-3.06,4.51-.59,8.47,5.23,12.42l3.99,2.7,8.78-12.95Zm7.23-22.78c-5.75-3.9-11.49-4.16-14.86.81-3.5,5.17-.71,9.64,6.22,14.33l4.51,3.06,9.75-14.39-5.62-3.81Z"/><path class="cls-2" d="m777.96,1597.45c7.14-8.96,18.61-10.93,27.01-4.23,7.35,5.86,8.49,16.47,1.15,25.67-7.14,8.96-18.12,10.81-26.77,3.92-6.98-5.56-8.74-16.16-1.4-25.37Zm22.29,17.67c4.92-6.18,5.68-13.46-.07-18.04-4.57-3.64-11.27-2.21-16.34,4.15-4.92,6.18-5.37,13.2.38,17.78,4.51,3.6,10.96,2.47,16.03-3.89Z"/><path class="cls-2" d="m765.72,1603.68l-.74.82c-2.33,2.58-3.45,2.63-7.61-1.13l-4.51-4.08,2.65-4.1c-3.27.67-8.68-.3-12.14-3.43-1.52-1.38-2.71-2.77-3.56-4.07l6.58-7.26c1.96-2.17,4.26-2.11,6.66.06l1,.9-5.83,6.44c2.93,2.76,7.1,4.4,10.54,3.79l15.12-16.69-6.15-5.57.74-.82c2.33-2.58,3.74-2.37,7.31.87l11.54,10.45-.74.82c-2.39,2.64-3.45,2.63-7.61-1.13l-17.98,19.85,4.74,4.3Z"/><path class="cls-2" d="m724.69,1580.65c2.01,2.01,2.01,4.81-.12,6.93-2.07,2.06-4.92,2.12-6.93.1-2.06-2.07-2.06-4.98,0-7.04,2.13-2.12,4.97-2.06,7.04,0Zm28.09-32.59c9.34-9.32,14.99-10.59,19-7.68,2.4,1.62,2.73,3.19,1.5,5.2l-.78,1.23-.78-.45c-2.79-1.68-6.2-1.18-12.97,5.57l-23.44,23.38,4.46,4.47-.78.78c-2.46,2.46-3.52,2.51-7.48-1.46l-5.47-5.48,4.25-3.12,22.49-22.43Z"/><path class="cls-2" d="m720.25,1544.01l-3.07-3.4-1.11,1.01c-4.81,4.34-5.84,8.04-3.03,11.14,1.85,2.05,3.41,3.42,5.36,4.64l2.17-1.96c2.17-1.96,4.03-2.14,6.46.55l1.06,1.17-7.74,6.99c-2.31-.79-8.5-4.35-12.63-8.92-5.35-5.92-4.04-11.79,1.65-16.92l15.13-13.66-4.23-4.69.82-.74c2.58-2.33,3.64-2.33,7.45,1.89l3.23,3.58-2.44,4.97c3.05-.52,8.58.66,12.18,4.65,3.81,4.22,3.46,9.97-.7,13.72-5.57,5.03-13.19,4.14-20.55-4.01Zm5.84-11.45l-5.45,4.92,3.02,3.34c5.03,5.57,9.36,5.06,11.71,2.95,2.35-2.12,1.98-4.77-.09-7.05-2.22-2.46-5.85-3.77-9.18-4.16Z"/><path class="cls-2" d="m695.84,1532.65l-.88.67c-2.76,2.12-3.86,1.98-7.28-2.47l-3.23-4.2,2.79-4.14c-3.21-.42-8.72-2.26-13.3-8.21-3.9-5.07-2.89-10.24,3.94-15.49l16.16-12.43-3.61-4.7.88-.67c2.76-2.12,4.11-1.66,7.04,2.16l8.05,10.46-.88.67c-2.82,2.17-3.82,2.04-7.28-2.47l-13.97,10.74c-5.39,4.14-6.02,6.82-3.32,10.33,2.46,3.19,6.68,5.83,10.18,6.62l17.85-13.73-3.66-4.76.88-.67c2.76-2.12,4.1-1.66,7.04,2.16l8.09,10.52-.88.67c-2.82,2.17-3.86,1.97-7.28-2.47l-21.23,16.33,3.9,5.07Z"/><path class="cls-2" d="m663.42,1439.95l1.02-.61c3.66-2.19,4.57-1.45,7,2.62l9.34,15.59-.88.53c-3.39,2.03-4.54,1.8-7.63-3.35l-33.07,19.82,3.49,5.83-.95.57c-3.12,1.87-4.63,1.49-7.11-2.65l-7.47-12.47c-6.13-10.23-4.76-18.7,3.24-23.49,7.86-4.71,17.05-2.75,24.72,10.06l1.75,2.91,11.59-6.94-5.03-8.4Zm-28.04,28.22l16.67-9.99-2.88-4.81c-3.74-6.24-8.73-8.58-14.22-5.29-5.83,3.49-6.35,8.78-1.76,16.43l2.19,3.66Z"/><path class="cls-2" d="m632.3,1415.32l-2.06-4.09-1.34.67c-5.79,2.91-7.75,6.21-5.87,9.95,1.24,2.47,2.38,4.2,3.94,5.89l2.61-1.32c2.61-1.32,4.45-1,6.08,2.24l.71,1.41-9.31,4.69c-2.02-1.37-7.05-6.44-9.82-11.95-3.59-7.13-.78-12.43,6.06-15.88l18.2-9.17-2.84-5.64.99-.5c3.1-1.56,4.13-1.28,6.69,3.79l2.17,4.3-3.66,4.15c3.07.31,8.1,2.91,10.52,7.7,2.56,5.08.7,10.53-4.31,13.05-6.7,3.38-13.81.5-18.75-9.3Zm8.66-9.5l-6.56,3.31,2.03,4.02c3.38,6.7,7.69,7.36,10.51,5.94,2.82-1.42,3.17-4.07,1.78-6.82-1.49-2.96-4.64-5.18-7.76-6.44Z"/><path class="cls-2" d="m612.51,1399.16l1.72,4.08-1.02.43c-3.2,1.35-4.24.93-6.42-4.24l-4.05-9.61,1.02-.43c3.64-1.53,4.39-.57,6.05,3.37l18.94-17.93-.25-.58-25.9,1.4,2.24,5.32-1.02.43c-3.2,1.35-4.24.93-6.42-4.24l-4.05-9.61,1.02-.43c3.13-1.32,4.12-.8,5.59,2.27l34.6-.7c1.17,2.16,1.85,3.77,2.73,6.48l-24.61,24.18-.17-.19Z"/><path class="cls-2" d="m575.29,1358.4l43.57-15.67-2.01-5.58,1.04-.37c3.27-1.18,4.42-.33,6.05,4.21l4.47,12.42-.67.24c-3.72,1.34-4.63.91-6.53-4.37l-43.42,15.62,2.14,5.95-1.04.37c-3.27,1.18-4.25.77-6.15-4.5l-2.62-7.29,5.17-1.02Z"/><path class="cls-2" d="m594.77,1307.74l6.96,22.9c7.63-3.15,10-8.41,8.27-14.08-1.49-4.91-4.36-8.91-7.01-10.83l1.89-.57c3.02-.92,8.86,1.44,11.78,11.04,2.8,9.22-1.93,17.84-12.58,21.08-13.53,4.11-22.19-1.02-25.16-10.77-2.44-8.01,2.28-15.06,15.85-18.77Zm2.35,24.31l-4.99-16.4c-6.39,2.35-8.99,6.28-7.63,10.74,1.42,4.69,5.86,7.05,12.62,5.66Z"/><path class="cls-2" d="m603.04,1264.24c.74,3.23-1.59,6.52-6.98,12.37l-6.62,7.19,1.39,6.08,11.55-2.64-1.32-5.78,1.08-.25c3.39-.77,4.42.21,5.5,4.9l2.96,12.94-.69.16c-3.85.88-4.72.27-5.97-5.2l-44.98,10.28,1.43,6.24-1.08.25c-3.39.77-4.33.18-5.58-5.29l-1.72-7.55,5.26-.39,28.19-6.44-1.51-6.62-10.41-3.7,1.02,4.47-1.08.25c-3.47.79-4.41.2-5.66-5.27l-2.73-11.94,1.08-.25c3.47-.79,4.5.19,5.57,4.89l.16.69,13.28,4.91,6.94-7.58c4.41-4.82,4.88-7.36,4.41-9.44l-.28-1.23c3.33-.68,6.05.56,6.82,3.95Z"/><path class="cls-2" d="m579.43,1234.71c.44,3.13-1.19,5.19-4.4,5.64-3.05.43-5.26-1.1-5.7-4.23-.45-3.21,1.25-5.36,4.3-5.79,3.21-.45,5.35,1.17,5.8,4.38Z"/><path class="cls-2" d="m541.38,1162.13l10.18-.52c2.92-.15,4.5,1.35,4.68,4.98l.07,1.34-9.07.46.65,12.86,38.82-1.97-.39-7.65,1.18-.06c4.26-.22,4.71.87,4.96,5.68l.85,16.81-1.03.05c-3.95.2-4.86-.62-5.16-6.62l-.04-.79-38.82,1.97.65,12.86,4.73-.24c2.92-.15,4.49,1.27,4.68,4.98l.06,1.26-14.68.74-2.34-46.16Z"/><path class="cls-2" d="m610.47,1148.79c-.12,4.19-2.55,6.17-7.74,5.23.99-1.24,1.43-2.96,1.48-4.78.06-2.13-1.77-4.16-4.97-5.6l-7.26-3.22-32.38,12.48-.12,4.11-1.11-.03c-3.47-.1-4.24-.91-4.08-6.52l.31-10.42,1.11.03c3.63.11,4.15,1.15,4.12,5.1l23.02-8.81-22.47-9.99-.16,5.29-1.11-.03c-3.47-.1-4.24-.91-4.08-6.52l.31-10.42,1.11.03c3.48.1,4.08,1.07,4.13,4.63l39.93,18.33c6.63,3.04,10.07,6.94,9.95,11.12Z"/><path class="cls-2" d="m593.5,1100.26l14.06,1.53.9-8.25,1.1.12c3.46.38,4.11,1.64,3.59,6.43l-1.68,15.47-1.1-.12c-3.53-.38-4.16-1.25-3.55-6.82l-45.09-4.89-.69,6.36-1.1-.12c-3.46-.38-4.16-1.25-3.55-6.82l.57-5.26,4.88-1.06c-1.57-1.6-4.81-6.96-4.04-14.03.88-8.09,7.24-12.49,19.1-11.2,13.83,1.5,20.27,10.94,19.2,20.76-.33,3.06-.94,5.7-2.61,7.9Zm-26.79-2.91l20.58,2.23c1.48-1.91,2.48-4.5,2.93-8.66.61-5.66-3.42-10.94-13.32-12.02-8.17-.89-12.42,1.67-13,7.01-.43,4.01.83,8.44,2.81,11.43Z"/><path class="cls-2" d="m586.29,1034.9l-4.25,23.56c8.23.68,12.73-2.92,13.78-8.75.91-5.05.19-9.92-1.29-12.84l1.94.35c3.11.56,7.23,5.32,5.44,15.19-1.71,9.49-9.85,15-20.82,13.02-13.92-2.51-19.28-11.03-17.47-21.06,1.49-8.24,8.9-12.36,22.66-9.47Zm-9,22.7l3.05-16.87c-6.76-.82-10.87,1.49-11.69,6.08-.87,4.82,2,8.95,8.65,10.79Z"/><path class="cls-2" d="m593.38,991.47l1.27-4.4-1.44-.41c-6.22-1.79-9.91-.71-11.06,3.31-.76,2.66-1.11,4.7-1.11,7l2.81.81c2.81.81,3.95,2.29,2.94,5.78l-.44,1.52-10.02-2.88c-.55-2.38-.8-9.52.91-15.44,2.21-7.67,7.87-9.65,15.24-7.53l19.59,5.64,1.75-6.07,1.06.31c3.34.96,3.9,1.86,2.33,7.33l-1.33,4.63-5.5.55c2.05,2.32,3.97,7.64,2.48,12.8-1.57,5.47-6.63,8.2-12.02,6.65-7.21-2.08-10.48-9.02-7.44-19.57Zm12.81-1.08l-7.06-2.03-1.24,4.33c-2.08,7.21.64,10.62,3.68,11.5,3.04.87,5.09-.84,5.94-3.8.92-3.19.11-6.96-1.32-10Z"/><path class="cls-2" d="m590.14,964.75l-1.04-.39c-3.25-1.22-3.71-2.24-1.74-7.49l1.86-4.95,4.99.19c-1.34-2.95-2.67-8.6-.03-15.63,2.25-5.99,7.17-7.85,15.23-4.82l19.08,7.18,2.09-5.55,1.03.39c3.25,1.22,3.58,2.61,1.88,7.12l-4.65,12.35-1.04-.39c-3.33-1.25-3.74-2.17-1.74-7.49l-16.49-6.2c-6.36-2.39-8.97-1.52-10.52,2.63-1.42,3.77-1.43,8.75-.26,12.14l21.07,7.93,2.11-5.62,1.04.39c3.25,1.22,3.58,2.61,1.88,7.12l-4.67,12.42-1.03-.39c-3.33-1.25-3.71-2.24-1.74-7.49l-25.07-9.43-2.25,5.99Z"/><path class="cls-2" d="m601.84,885.96l-2.69,5.72-1-.47c-3.14-1.48-3.56-2.46-1.13-7.61l3.27-6.93,4.38,2.94,41.88,19.74,2.53-5.36,1,.47c3.14,1.48,3.56,2.46,1.13,7.61l-1.85,3.93-5.55-.26c1.07,1.99,3.27,6.96.34,13.17-3.74,7.93-11.48,11.01-23.56,5.32-11.51-5.42-14.82-15.63-10.74-24.28,2.16-4.57,4.8-6.47,6.23-7.28l-14.22-6.7Zm37.52,17.68l-17.94-8.45c-2.23,1.39-4.37,3.53-6.46,7.96-2.39,5.07.99,10.86,8,14.16,8.86,4.18,14.36,2.14,16.82-3.08,1.99-4.22.95-7.76-.42-10.59Z"/><path class="cls-2" d="m658.79,794.38c3.7,2.42,3.26,3.83.32,8.32l33.62,18.46,3.67-5.62,1.06.69c3.64,2.38,3.36,3.52.73,7.55l-8.08,12.37-.93-.6c-3.37-2.2-3.58-3.47-.3-8.5l-30.8-16.71,20.63,28.66-2.76,4.23c-1.21,1.85-2.63,2.72-5.13,2.22l-30.49-5.76,26.87,20.56,3.76-5.76,1.06.69c3.64,2.38,3.36,3.52.73,7.55l-8.03,12.3-.93-.6c-3.37-2.2-3.58-3.47-.3-8.5l-30.51-23.22-3.8,5.82-.99-.65c-3.7-2.42-3.47-3.49-.88-7.46l2.46-3.77c2.2-3.37,4.42-5.04,9.54-4.06l31.57,5.99-18.89-25.55c-3.04-4.16-2.69-6.29-.49-9.66l6.31-9.66.99.65Z"/><path class="cls-2" d="m709.94,780.8l-14.91,18.73c6.92,4.5,12.59,3.46,16.28-1.17,3.2-4.02,4.87-8.65,4.95-11.92l1.54,1.23c2.47,1.97,3.84,8.11-2.41,15.96-6,7.54-15.79,8.54-24.5,1.6-11.06-8.81-11.75-18.85-5.4-26.83,5.22-6.55,13.69-6.67,24.45,2.4Zm-18.68,15.72l10.68-13.41c-5.56-3.92-10.27-3.84-13.18-.19-3.05,3.83-2.48,8.83,2.5,13.6Z"/><path class="cls-2" d="m707.31,733.16l-4.28,4.65-.81-.75c-2.56-2.35-2.66-3.41,1.19-7.6l5.19-5.64,3.3,4.11,34.07,31.35,4.01-4.36.81.75c2.56,2.35,2.66,3.41-1.19,7.6l-2.94,3.2-5.22-1.91c.43,2.22,1.04,7.62-3.61,12.68-5.94,6.45-14.24,7.08-24.07-1.96-9.36-8.61-9.47-19.34-3-26.38,3.42-3.72,6.51-4.74,8.12-5.09l-11.57-10.65Zm30.53,28.09l-14.59-13.43c-2.54.67-5.23,2.06-8.54,5.67-3.8,4.13-2.3,10.66,3.4,15.91,7.21,6.63,13.07,6.33,16.97,2.09,3.16-3.43,3.23-7.12,2.76-10.24Z"/><path class="cls-2" d="m734.29,717.41c-2.05,1.97-4.84,1.92-6.92-.25-2.03-2.11-2.03-4.96.02-6.93,2.11-2.03,5.01-1.97,7.04.14,2.08,2.16,1.97,5.01-.14,7.04Zm1.17,14.55l-.77-.8c-2.41-2.51-2.5-3.51,1.54-7.4l5.58-5.37,3.1,4.25,18.67,19.42,4.27-4.11.77.8c2.41,2.51,2.1,3.9-1.37,7.24l-9.51,9.14-.77-.8c-2.46-2.56-2.44-3.57,1.6-7.46l-18.56-19.31-4.56,4.38Z"/><path class="cls-2" d="m774.18,710.83l3.47-2.99-.98-1.14c-4.23-4.91-7.9-6.03-11.07-3.3-2.1,1.8-3.5,3.32-4.76,5.25l1.91,2.22c1.91,2.22,2.05,4.07-.71,6.45l-1.2,1.03-6.8-7.91c.84-2.29,4.55-8.4,9.22-12.42,6.05-5.2,11.88-3.76,16.88,2.05l13.29,15.45,4.79-4.12.72.84c2.27,2.64,2.24,3.7-2.07,7.41l-3.65,3.14-4.91-2.55c.44,3.06-.87,8.56-4.94,12.07-4.31,3.71-10.05,3.22-13.7-1.03-4.9-5.69-3.82-13.28,4.5-20.45Zm11.31,6.12l-4.79-5.57-3.41,2.94c-5.69,4.9-5.29,9.24-3.23,11.63,2.06,2.4,4.72,2.09,7.05.08,2.51-2.16,3.91-5.76,4.38-9.08Z"/><path class="cls-2" d="m838.15,688.81l-18.5,12.97-1.63-2.33c-1.13-1.62-1.7-4.21-.13-8.3l2.45-6.55c3.22-8.62,3.23-14.23.92-17.53-2-2.85-5.13-2.77-8.23-.59-2.78,1.95-4.21,3.63-5.35,5.58l2.68,3.82c1.59,2.26,1.75,3.6-.71,5.32l-2.07,1.45-6.67-9.51c1.26-3.29,4.11-7.9,9.99-12.03,6.66-4.67,12.23-3.75,15.63,1.1,3.81,5.43,3.61,12.71-.83,23.16l-2.7,6.33.45.65,15.86-12.47,1.18,1.68c1.86,2.65,1.66,4.43-2.35,7.24Z"/><path class="cls-2" d="m870.03,646.05c6.21,10.28,3.58,21.37-6.42,27.41-9.4,5.68-19.53,2.66-25.49-7.22-6.21-10.28-3.65-20.87,6.63-27.07,8.99-5.43,19.33-3,25.29,6.88Zm-26.55,15.48c4.53,7.51,11.6,10.35,17.62,6.71,6.29-3.8,7.65-10.71,3.57-17.47-4.82-7.98-11.63-10.24-17.65-6.6-6.22,3.76-8.03,9.93-3.54,17.37Z"/><path class="cls-2" d="m905.17,649.68l-20.11,10.31-1.3-2.53c-.9-1.76-1.1-4.41,1.01-8.24l3.33-6.15c4.37-8.1,5.17-13.66,3.33-17.24-1.59-3.09-4.7-3.45-8.07-1.72-3.02,1.55-4.67,3.01-6.07,4.8l2.13,4.15c1.26,2.46,1.24,3.8-1.43,5.17l-2.25,1.15-5.3-10.34c1.7-3.09,5.16-7.26,11.56-10.54,7.24-3.71,12.63-2.03,15.33,3.24,3.03,5.91,1.83,13.09-4.01,22.83l-3.55,5.9.36.7,17.43-10.17.94,1.83c1.48,2.88,1.03,4.62-3.33,6.85Z"/><path class="cls-2" d="m903.67,617.25l-.48-1.08c-.81-1.8-.35-3.48,2.67-6.22l6.47-5.84,13.47,30.07,5.41-2.42.45,1.01c1.42,3.17.66,4.38-3.74,6.35l-12.04,5.39-.45-1.01c-1.45-3.25-1.1-4.18,4.03-6.48l-10.01-22.35-5.77,2.58Z"/><path class="cls-2" d="m939.79,648.85l-5.47-68.74c-.27-4.14.25-5.19,3.12-6.32l3.75-1.47-.33,5.65,4.99,62.98c.21,3.57-.99,5.91-4.22,7.18l-1.84.72Z"/><path class="cls-2" d="m982.76,618.32l-21.42,7.19-.9-2.7c-.63-1.87-.43-4.52,2.23-8l4.21-5.58c5.53-7.36,7.15-12.73,5.87-16.55-1.11-3.3-4.13-4.11-7.73-2.91-3.22,1.08-5.07,2.28-6.71,3.84l1.48,4.42c.88,2.62.66,3.95-2.19,4.9l-2.4.8-3.69-11.01c2.14-2.8,6.18-6.41,13-8.69,7.72-2.59,12.79-.12,14.68,5.49,2.11,6.29-.15,13.22-7.38,21.97l-4.39,5.3.25.75,18.75-7.46.65,1.95c1.03,3.07.33,4.72-4.31,6.28Z"/><path class="cls-2" d="m1025.51,586.4c3.02,11.62-2.65,21.5-13.97,24.45-10.63,2.76-19.48-3.02-22.38-14.18-3.02-11.62,2.45-21.04,14.07-24.06,10.17-2.64,19.38,2.64,22.28,13.8Zm-29.86,7.27c2.21,8.49,8.17,13.22,14.98,11.45,7.11-1.85,10.39-8.09,8.4-15.73-2.34-9.02-8.23-13.13-15.03-11.36-7.03,1.83-10.53,7.23-8.34,15.64Z"/><path class="cls-2" d="m1058.13,599.91l-22.21,4.15-.52-2.8c-.36-1.94.2-4.54,3.32-7.61l4.95-4.94c6.5-6.52,8.84-11.62,8.1-15.58-.64-3.42-3.52-4.65-7.25-3.95-3.34.62-5.33,1.56-7.18,2.87l.86,4.58c.51,2.72.1,4-2.85,4.55l-2.49.46-2.13-11.42c2.51-2.48,7.01-5.49,14.08-6.81,8-1.49,12.69,1.65,13.77,7.48,1.22,6.52-1.98,13.07-10.36,20.74l-5.08,4.65.14.78,19.6-4.78.38,2.02c.59,3.18-.32,4.72-5.14,5.62Z"/><path class="cls-2" d="m1092.62,595.09l-22.43,2.76-.35-2.82c-.24-1.96.48-4.52,3.79-7.39l5.24-4.62c6.89-6.1,9.55-11.05,9.06-15.04-.42-3.45-3.22-4.86-6.99-4.39-3.37.41-5.42,1.22-7.34,2.42l.57,4.63c.34,2.75-.14,4-3.12,4.36l-2.51.31-1.42-11.53c2.66-2.32,7.34-5.04,14.48-5.92,8.08-.99,12.56,2.44,13.28,8.32.81,6.59-2.79,12.92-11.62,20.06l-5.36,4.32.1.78,19.86-3.56.25,2.04c.4,3.22-.62,4.69-5.48,5.29Z"/><path class="cls-2" d="m1127.59,574.25c-3.16.14-5.06-1.67-5.2-4.91-.14-3.08,1.59-5.13,4.75-5.27,3.24-.14,5.22,1.74,5.36,4.82.14,3.24-1.67,5.22-4.9,5.36Z"/><path class="cls-2" d="m1231.89,369.33c-53.69,68.99-33.6,103.34,1.24,108.11,20.52,2.81,45.3-.6,63.99-9.23l1.17,2.11c-22.14,12.53-45.7,14.16-68.61,11.03-37.23-5.1-58.84-42.58-2.24-115.06l61.88-79.05c45.44-58.45,34.27-104.71-5.34-110.13-24.82-3.4-44.48,1.69-63.92,8.75l-1.11-2.58c22.42-11.03,43.73-13.95,71.41-10.16,38.18,5.23,51.69,55.7,3.41,117.16l-61.88,79.05Zm-3.47-152.18c6.22,14.95,7.36,24.35,4.29,46.78-2.81,20.52-8.61,41.61-16.46,63.39l-2.39-.33c6-22.52,10.78-43.26,13.53-63.3,2.81-20.52,1.04-32.44-1.08-45.37l2.11-1.17Zm59.65,228.43c-6.22-14.95-7.36-24.35-4.29-46.78,2.81-20.52,8.61-41.61,16.46-63.39l2.39.33c-6,22.52-10.78,43.26-13.53,63.3-2.81,20.52-1.04,32.44,1.08,45.37l-2.1,1.17Z"/><path class="cls-2" d="m1426.95,361.54l-43.96,38.15c-53.07,46.08-40.72,95.88,6.7,113.48,32.97,12.24,56.26,13.17,75.74,4.99l.68,2.31c-20.77,10.28-46.54,10.48-79.05-1.59-53.29-19.78-65.37-73.08-7.75-123.12l43.96-38.15c61.56-53.72,62.93-80.96,33.29-92.47-18.8-7.49-30.7-7.28-43.1-5.72l-.23-2.14c12.12-2.18,28.13-2.41,45.74,4.13,35.68,13.24,33.13,43.64-32.02,100.13Zm-28.28-42.87c-6.54,17.61-18.01,41.62-29.5,61.5l-2.54-1.46c9.8-19.49,20.04-42.92,26.74-60.99,8.88-23.94,6.98-35.43,3.34-45.01l2.03-1.3c6.12,8.44,8.15,25.12-.06,47.25Zm41.6,163.43c-20.32-7.54-27.66-25.17-18.27-50.46,7.37-19.87,14.88-34.56,27.89-54.39l2.09,1.29c-11.04,20.05-17.19,35.24-24.06,53.76-9.05,24.39-1.61,38.97,14.64,45,21.23,7.88,37.3,10.25,50.89,9.64l.23,2.14c-14.71,2.25-32.19.9-53.42-6.98Zm56.19-89.11c-16.71-6.2-28.71-20.93-32.94-35.86l1.86-.85c5.85,11.93,17.57,26.05,32.47,31.58,20.32,7.54,31.67-21.65,38.53-44.28l2.26.84c-7.77,36.17-21.85,56.12-42.18,48.58Zm-13.09-68.57l.84-2.26c14.34,4.29,30.41,6.66,46.03,4.75l.23,2.14c-13.91,5.63-34.27,3.73-47.1-4.63Z"/><path class="cls-2" d="m1598.15,517.42c-36,38.23-39.18,81.91-11.36,108.58,13.21,12.67,29.31,16.76,44.63,16.1l.06,2.72c-17.68,1.73-35.49-2.67-48.7-15.34-31.64-30.34-28.13-74.37,10.87-115.73,50.35-52.5,110.69-34.68,137.81-8.67,13.56,13,18.87,22.77,21.8,32.25l-2.71.74c-4.62-9.1-10.93-17.83-23.1-29.5-25.73-24.68-81.94-40.54-129.29,8.83Zm43.9,95.51c-14.95-14.34-17-30.99,11.34-60.54,18.01-18.77,29.13-24.8,42.33-28.82l1.07,2.36c-11.49,4.33-20.57,10.31-38.91,29.43-26.34,27.47-23.64,42.74-10.78,55.08,5.91,5.67,11.78,9.29,17.25,10.54l-.62,2.74c-7.17-.87-14.74-4.12-21.69-10.79Zm107.22-21.32l109.72-48.29c51.99-22.89,76.96-51.01,45.32-81.35-17.04-16.34-38.36-26.12-59.51-27.04l.29-2.39c23.52.53,47.22,9.92,63.22,25.26,37.2,35.68,8.18,65.25-46.51,89.56l-109.37,48.62c-94.19,41.83-115.24,77.7-84.3,107.38,20.51,19.67,44.42,22.58,65.16,20.45l-.32,1.03c-24.41,5.96-50.07.7-69.54-17.97-35.11-33.68-7.35-74.46,85.84-115.25Zm21.08-83.91c-3.34-13.22-9.02-24-22.93-37.34-20.17-19.34-57.09-25.38-84.38-10.85l-1.07-2.36c27.24-17.26,64.8-13.28,89.48,10.4,13.56,13,18.93,25.5,20.59,39.77l-1.7.38Zm-7.79,198.12c-7.87-1.54-15.1-5.14-20.31-10.14-9.39-9-7.92-20.28,9.09-38.01,17.01-17.73,38.1-35.55,72.25-64.2l1.39,1.33c-31.07,29.61-52.48,48.45-68.82,65.49-17.01,17.73-15.79,26.91-10.58,31.91,6.95,6.67,12.82,10.29,18.31,12.22l-1.33,1.39Zm53.22-258.01c7.87,1.54,15.1,5.14,20.31,10.14,9.39,9,7.92,20.28-9.09,38.01-17.01,17.73-38.1,35.55-72.25,64.2l-1.39-1.33c31.07-29.61,52.48-48.45,68.82-65.49,17.01-17.73,15.79-26.91,10.58-31.91-6.95-6.67-12.82-10.29-18.31-12.22l1.33-1.39Z"/><path class="cls-2" d="m1806.01,747.05c-64.93-1.7-89.47,23-73.2,50.32,16.02,26.9,35.75,33.66,60.52,38.53l-.67,2.64c-25.93-3.06-47.39-9.9-65.38-40.12-19.72-33.11,11.02-58.71,78.34-56.75l56.92,1.43c64.27,1.53,84.84-21.37,69.31-47.44-13.8-23.18-32.1-36.95-53.8-47.02l1.58-2.06c23.11,8.67,42.97,23.19,58.5,49.27,16.52,27.73-4.81,55.01-74.53,52.8l-57.58-1.59Zm13.28,83.49c-5.78-2.17-10.97-5.24-14.67-11.45-7.15-12-.01-20.74,14.06-29.12,9.93-5.92,26.73-12.55,42.6-16.96l1.23,2.07c-14.72,5.41-27.47,11.31-38.23,17.72-12.83,7.64-20.46,15.55-15.04,24.65,2.71,4.55,6.67,8.37,10.79,11.52l-.75,1.57Zm45.55-158.89c5.92,9.93,2.58,20.33-13.57,29.95-12,7.15-27.06,13.87-44.01,18.36l-1.23-2.07c12.33-5.66,26.73-12.55,40.39-20.69,13.66-8.13,17.82-16.22,13.13-24.08-3.94-6.62-9.3-11.84-14.32-15.58l1.58-2.06c6.76,3.82,13.6,8.72,18.04,16.17Zm159.29,1.02c-17.9,15.14-34.45,25-49.56,22.23-16.43-3.11-25.84-31.15-32.48-47.94l2.07-1.23c6.73,15.06,16.73,39.38,32.08,42.57,14.28,3.27,30.34-4.61,47.56-17.11l.33,1.49Zm5.49-10.56c-5.99-13.82-19.87-38.07-31.5-43.48-11.63-5.41-32.15,3.45-48.13,15.21l-1.48-2.48c18.47-13.24,37.42-22.85,50.46-18.84,13.95,4.59,28.07,32.07,32.31,48.6l-1.66.99Z"/><path class="cls-2" d="m1860.92,837.49c-50.57,14.13-75.86,49.89-65.83,87.1,4.76,17.67,16.43,29.5,29.89,36.84l-1.36,2.36c-16.03-7.65-29.01-20.62-33.77-38.29-11.41-42.33,14.34-78.21,69.1-93.47,70.23-18.94,112.69,27.49,122.47,63.77,4.89,18.14,4.39,29.25,2,38.88l-2.7-.77c.75-10.18-.15-20.91-4.54-37.19-9.28-34.42-49.21-77.04-115.26-59.23Zm91.06,141.59l118.89,15.34c56.34,7.26,92.24-3.92,80.83-46.24-6.14-22.79-19.35-42.18-36.98-53.89l1.48-1.9c19.86,12.61,35.31,32.89,41.08,54.28,13.42,49.77-26.71,60.09-86.09,52.65l-118.77-14.88c-102.25-12.84-138.81,6.99-127.65,48.39,7.4,27.44,26.37,42.29,45.23,51.17l-.8.72c-23.98-7.51-43.23-25.26-50.26-51.31-12.67-46.98,32.18-67.55,133.04-54.33Zm-102.81-37.14c-5.39-20,1.45-35.32,40.99-45.98,25.12-6.77,37.75-6.19,51.13-2.81l-.3,2.58c-12.08-2.23-22.94-1.8-48.52,5.1-36.75,9.91-42.32,24.38-37.68,41.59,2.13,7.91,5.28,14.04,9.33,17.94l-1.95,2.02c-5.69-4.45-10.49-11.14-13-20.44Zm55.19,141.78c-5.94-5.38-10.27-12.2-12.16-19.17-3.39-12.56,3.7-21.45,27.42-27.85,23.72-6.4,50.99-10.75,95.03-17.64l.5,1.86c-41.9,9.3-69.97,14.37-92.76,20.52-23.72,6.4-27.42,14.88-25.54,21.85,2.51,9.3,5.66,15.44,9.36,19.93l-1.86.5Zm109.02-165.6c3.97-13.04,4.68-25.21-.34-43.82-7.27-26.98-35.76-51.23-66.64-52.88l.3-2.58c32.24-.71,62.34,22.11,71.24,55.13,4.89,18.14,3.03,31.61-2.92,44.69l-1.65-.55Zm69.84-27.81c5.94,5.38,10.27,12.2,12.15,19.17,3.39,12.56-3.7,21.45-27.42,27.85-23.72,6.4-50.99,10.75-95.03,17.64l-.5-1.86c41.9-9.3,69.97-14.37,92.76-20.52,23.72-6.4,27.42-14.88,25.54-21.85-2.51-9.3-5.66-15.44-9.36-19.93l1.86-.5Z"/><path class="cls-2" d="m1909.39,1292.56c-51.08-40.13-85.51-34.95-88.77-3.33-3.21,31.15,8.58,48.34,25.55,67.04l-2.11,1.72c-18.98-17.94-32.11-36.24-28.51-71.22,3.95-38.34,43.88-40.52,96.73,1.24l44.81,35.12c50.65,39.6,81.06,31.11,85.75-14.42,3.4-33.07-4.39-56.15-20.34-75.22l1.11-1.34c18.93,18.41,28.01,43.08,24.16,80.46-4.88,47.44-38.52,58.99-93.14,15.59l-45.24-35.65Zm15.39-149.51c-51.08-40.13-85.51-34.95-88.77-3.33-3.21,31.15,8.58,48.34,25.55,67.04l-2.11,1.72c-18.98-17.94-32.11-36.24-28.5-71.22,3.95-38.34,43.88-40.52,96.73,1.24l44.81,35.12c50.65,39.6,80.82,33.5,83.92,3.31,2.76-26.84-3.69-48.81-15.09-69.84l2.5-.71c13.36,20.75,20.63,44.26,17.52,74.45-3.31,32.11-36.69,41.26-91.31-2.14l-45.24-35.65Zm-54.24,221.06c-3.34-5.19-5.67-10.75-4.93-17.94,1.43-13.9,12.37-16.65,28.66-14.97,11.5,1.18,28.94,5.88,44.31,11.83l-.25,2.4c-15.04-4.45-28.79-7.32-41.25-8.61-14.86-1.53-25.69.26-26.78,10.8-.54,5.27.35,10.69,1.78,15.68l-1.54.81Zm15.05-146.16c-3.34-5.19-5.67-10.75-4.93-17.94,1.43-13.9,12.37-16.65,28.66-14.97,11.5,1.18,28.94,5.88,44.3,11.83l-.25,2.4c-15.04-4.45-28.79-7.32-41.25-8.61-14.86-1.53-25.69.26-26.78,10.8-.54,5.27.35,10.69,1.78,15.68l-1.54.81Zm117.27,41.62c-1.38,13.42-10.71,24.08-30.84,22.01-15.81-1.63-31-4.64-49.39-9.44l.3-2.88c16.15,3.12,33.3,5.85,49.11,7.48,16.77,1.73,24.52-7.65,25.85-20.58,1.13-11.02-1.99-22.97-6.43-31.66l2.02-.76c5.44,8.31,10.82,21.94,9.39,35.83Zm14.13-141.89c-1.18,11.5-10.07,17.85-28.76,15.93-13.9-1.43-29.99-5.03-46.27-11.54l.25-2.4c13.27,2.82,28.94,5.88,44.75,7.51,15.81,1.63,23.97-2.37,24.91-11.48.79-7.67-.39-15.05-2.19-21.05l2.5-.71c3.14,7.1,5.71,15.12,4.82,23.74Z"/><path class="cls-2" d="m2049.2,1516.01c-61.01-14.1-89.55-28.63-96.94-42.1-7.96-14.71,7.85-39.7,22.56-53.3l2.26.83c-13.32,12.57-25.87,35.68-18.65,49.6,6.48,13.14,33.17,28.54,91.71,43.78l-.95,1.19Zm-41.6-32.13l-2.43-.37c-.27-32.93,9.11-57.19,28.32-52.22,22.09,5.51,41.34,14.6,46.46,27.24,5.25,13.71-7.15,42.01-17.3,55.74l-1.81-.66c6.94-13.36,16.98-39.44,13.83-51.88-3.15-12.43-22.23-21.97-42.18-27.73-13-3.73-21.89,19.18-24.9,49.88Z"/><path class="cls-2" d="m1874.2,1569.67l-28.91-50.52c-34.92-60.99-86.17-58.53-112.62-15.42-18.39,29.97-23.83,52.64-19.57,73.34l-2.4.22c-6.05-22.37-1.26-47.68,16.88-77.25,29.73-48.45,84.36-49.97,122.28,16.26l28.91,50.52c40.77,70.8,67.22,77.43,84.26,50.58,10.99-16.99,13.09-28.7,13.96-41.17l2.15.19c-.21,12.31-3.09,28.06-12.92,44.07-19.91,32.44-49.23,24.05-92.03-50.82Zm-120.85-10.3c11.34-18.48,30.05-22.25,53.04-8.15,18.06,11.09,31.02,21.3,47.95,37.91l-1.67,1.8c-17.53-14.72-31.24-23.69-48.08-34.03-22.17-13.61-37.91-9.14-46.98,5.64-11.84,19.3-17.28,34.61-19.32,48.06l-2.15-.19c.64-14.87,5.36-31.75,17.2-51.05Zm76.52,72.4c9.32-15.19,26.1-24.11,41.56-25.36l.48,1.99c-12.84,3.42-28.96,12.19-37.27,25.74-11.34,18.48,15.1,35.26,35.97,46.38l-1.26,2.05c-33.98-14.63-50.82-32.32-39.48-50.79Zm91.86-81.54c-16.01-9.83-37.33-25.74-54.62-40.87l1.92-2.21c17.22,13.39,38.22,27.98,54.64,38.06,21.76,13.35,33.41,13.72,43.5,12l.89,2.24c-9.46,4.37-26.22,3.13-46.34-9.22Zm-22.05,81.99l2.05,1.26c-6.99,13.23-12.43,28.54-13.58,44.23l-2.15-.19c-2.83-14.73,2.99-34.34,13.67-45.3Z"/><path class="cls-2" d="m1697.98,1756.53l36.61,114.15c17.36,54.09,42.72,81.85,76.2,53.54,18.02-15.24,29.97-35.44,33.08-56.37l2.35.54c-2.98,23.34-14.78,45.94-31.7,60.25-39.36,33.29-65.74,1.34-84.23-55.58l-36.97-113.84c-31.8-98.03-65.29-122.7-98.02-95.02-21.7,18.35-27.08,41.83-27.12,62.68l-.99-.42c-3.39-24.89,4.51-49.87,25.11-67.29,37.15-31.42,74.82.44,105.69,97.37Zm-114.96,1.33c2.35-7.67,6.68-14.48,12.2-19.15,9.93-8.4,20.99-5.77,36.86,12.99s31.39,41.59,56.33,78.54l-1.47,1.24c-26.21-33.98-42.73-57.24-57.97-75.26-15.87-18.76-25.12-18.51-30.63-13.84-7.36,6.22-11.57,11.68-14.06,16.94l-1.24-1.47Zm251.07,79.78c-2.35,7.67-6.68,14.48-12.2,19.15-9.93,8.4-20.99,5.77-36.86-12.99-15.87-18.76-31.39-41.59-56.33-78.54l1.47-1.24c26.21,33.98,42.73,57.24,57.97,75.26,15.87,18.76,25.12,18.51,30.63,13.84,7.36-6.22,11.57-11.68,14.06-16.94l1.24,1.47Z"/><path class="cls-2" d="m1585.33,1797.85c-26.97-52.22-71.6-71.46-122.54-45.16-31.67,16.36-49.43,42.87-51.39,73.71l-1.51.24c.42-33.83,19.22-62.52,52.18-79.54,52.65-27.19,99.67-6.47,127.3,47.03,31.61,61.21,1.68,112.45-33.85,130.79-31.67,16.36-48.62,5.59-57.24-11.1-6.41-12.41-7.39-21.66-6.3-37.41l2.37.4c.83,14.21,2.45,22.59,8.42,34.15,7.96,15.41,21.64,24.06,50.75,9.03,32.96-17.02,61.86-63.93,31.8-122.15Zm-168.72,64.9c5.1-21.61,22.51-41.45,43.91-52.5,28.68-14.81,59.14-8.31,78.37,28.93,12.16,23.54,16.04,40.51,14.5,54.32l-2.38-.4c-1.45-12.26-4.89-28.38-16.39-50.63-18.57-35.95-45.99-40.77-72.1-27.28-22.26,11.49-38.4,29.59-43.75,48.62l-2.17-1.05Zm103.81-2.65c-14.91-3.68-29.12-2.85-42.39,4-27.39,14.15-37.52,47.03-20.95,79.13,15.03,29.11,47.7,39.88,95.64,15.13,30.82-15.91,49.23-41.15,55.74-70.53l1.95.62c-4.56,30.01-23.6,57.19-56.13,73.99-51.36,26.52-86,14.05-101.69-16.34-17.9-34.67-7.36-68.85,23.89-84.99,14.98-7.74,29.4-9.22,44.99-3.17l-1.05,2.17Z"/><path class="cls-2" d="m1172.3,1892.13c4.05-4.65,8.75-8.44,15.86-9.73,13.75-2.49,19.43,7.25,22.34,23.37,2.06,11.38,2.39,29.43.95,45.85l-2.37.43c.1-15.68-.97-29.69-3.2-42.01-2.66-14.7-7.39-24.61-17.82-22.72-5.21.94-10.17,3.31-14.48,6.54l-1.29-1.72Zm59.19,70.06c-24,56.73,13.63,86.14,61.51,77.48,49.3-8.92,86.5-27.9,102.59-55.29l2.15,1.08c-16.31,28.9-51.66,49.98-103.8,59.42-54.51,9.87-93.01-24.29-67.62-84.2l25.77-60.47c22.71-53.07,8.29-81.3-24.89-75.29-24.65,4.46-39.23,21.3-51.39,40.63l-1.77-1.64c11.91-20.76,24.72-39.23,52.21-44.21,39.82-7.21,54.4,27.36,31,82.02l-25.77,60.47Zm92.96,26.74c-21.33,3.86-40.03-2.06-44.75-28.13-2.4-13.27-3.9-29.65-4.75-45.16l3.79-.69c1.8,15.34,3.68,31.16,6.08,44.43,4.38,24.18,22.17,27.81,40.18,24.55,29.86-5.41,52.67-17.37,69.52-29.72l1.38,2.2c-17.16,13.39-41.6,27.11-71.46,32.52Zm-3.83-110.44c-3.09-17.07-11.7-21.38-18.81-20.09-5.21.94-10.17,3.31-14.57,6.06l-1.29-1.72c4.53-4.74,10.18-8.7,15.39-9.64,11.38-2.06,21.2,3.51,24.88,23.89,4.29,23.7-3.52,42.74-24.04,53.8l-.43-2.37c16-11.71,22.9-27.64,18.87-49.92Zm63.79-31.62c-6.43-35.55-31.12-44.79-47.71-41.79-20.38,3.69-30.04,9.84-37.76,18.58l-1.77-1.64c8.32-10.81,19.15-18.64,40.48-22.5,19.91-3.6,45.8,6.89,52.83,45.76,6.01,33.18-8.54,63.72-39.23,78.09l-1.29-1.72c27.2-14.71,40.11-43.49,34.44-74.77Z"/><path class="cls-2" d="m1024.68,1857.89c40.53,5.83,48.54,38.12,36.92,91.93l-2.38-.34c6.45-51.64,1.43-81.07-35.29-86.35-31.47-4.52-95.94,24.17-108.41,110.96-4.73,32.9,9.43,52.94,32.31,56.23,17.64,2.54,28.95,1.73,41.08-1.4l.68,2.04c-11.79,4.15-25.76,6.52-42.45,4.12-27.18-3.91-41.94-26.47-37.01-60.8,13.16-91.55,80.7-121.27,114.55-116.4Zm-44.71,104.54c4.04-28.13,10.53-49.59,21.73-73.29l2.25,1.3c-7.78,20.3-14.62,44.14-18.59,71.79-3.77,26.23,6.37,43.74,19.72,49.07l-1.3,2.25c-14.58-3.55-28.12-21.07-23.8-51.12Zm123-29.53l-19.92,30.23c-39.91,60.94-15.47,83.92,10.28,87.62,24.8,3.56,43.67-2.48,56.9-13.24l1.16,2.11c-14.38,12.05-34.97,19.8-58.81,16.37-31.95-4.59-55.84-31.39-14.64-94.57l19.99-30.71c38.06-58.29,19.5-101.83-29.14-108.82-29.56-4.25-52.32,1.73-73.04,13.84l-1.56-2.66c21.95-13.88,46.28-20.6,78.22-16.01,48.64,6.99,72.92,51.36,30.56,115.84Zm64.45,76.42c-7.36,3.81-14.86,5.17-22.49,4.07-14.31-2.06-22.39-27.07-15.47-78.63l2.38.34c-2.77,53.14,4.3,71.67,13.84,73.04,8.58,1.23,14.44,1.1,21.05-.87l.68,2.04Z"/><path class="cls-2" d="m809.14,1870.98c-6.06-14.12-15.29-24.95-28.76-31.4-27.81-13.32-60.14-1.56-75.75,31.02-14.15,29.54-3.04,62.11,45.62,85.41,31.28,14.98,62.52,14.45,89.88,1.92l.68,1.93c-26.69,14.46-59.85,15.67-92.87-.14-52.14-24.97-63.08-60.12-48.3-90.97,16.85-35.19,50.48-47.4,82.19-32.21,15.21,7.28,25.08,17.89,29.67,33.97l-2.36.47Zm-64.73-81.21c20.32-8.96,46.64-7.04,68.36,3.36,29.11,13.94,42.3,42.16,24.2,79.96-11.44,23.9-22.64,37.23-34.58,44.33l-1.11-2.14c8.9-8.55,19.68-21.02,30.5-43.61,17.48-36.5,4.77-61.28-21.73-73.97-22.59-10.82-46.76-12.78-65.17-5.57l-.47-2.36Zm153.53,95.43c25.39-53.01,13.81-100.21-37.89-124.98-32.15-15.4-64.01-13.56-89.79,3.47l-1.1-1.06c27.24-20.07,61.46-22.38,94.91-6.35,53.44,25.59,65.28,75.6,39.27,129.91-29.76,62.13-88.68,69.17-124.74,51.9-32.15-15.4-33.78-35.41-25.67-52.35,6.03-12.6,12.82-18.96,26.03-27.59l1.11,2.14c-10.83,9.23-16.54,15.58-22.16,27.31-7.49,15.64-6.14,31.78,23.41,45.93,33.46,16.02,88.31,10.78,116.61-48.31Z"/><path class="cls-2" d="m493.03,1743.18l-1.75,1.65c-10.95-10.2-24.32-19.44-39.16-24.64l.74-2.02c14.96,1.11,32.37,11.83,40.17,25.01Zm18.63-67.28c12.24,12.96,16.48,31.48,13.65,46.74l-2.04-.06c.04-13.29-4.22-31.13-15.13-42.69-14.88-15.76-37.98,5.38-54.15,22.64l-1.65-1.75c22.98-28.99,44.45-40.64,59.33-24.88Zm48.4,58.98l56.31-14.74c67.98-17.81,78.97-67.93,44.24-104.71-24.14-25.57-44.61-36.72-65.7-38.01l.41-2.37c23.17-.02,46.36,11.21,70.18,36.43,39.03,41.33,26.25,94.47-47.57,113.82l-56.31,14.74c-78.98,20.9-92.27,44.72-70.79,68.17,13.54,15.04,24.3,20.12,36.11,24.21l-.74,2.02c-11.83-3.41-26.28-10.3-39.18-23.96-26.13-27.67-10.38-53.8,73.05-75.6Zm41.44-113.99c14.88,15.76,13.65,34.81-5.96,53.33-15.41,14.55-28.64,24.4-49.1,36.42l-1.3-2.08c18.78-13.09,31.02-23.99,45.38-37.55,18.91-17.86,18.7-34.22,6.8-46.83-15.54-16.46-28.91-25.71-41.36-31.18l.74-2.02c14.18,4.5,29.26,13.45,44.8,29.91Zm-35.06,164.95c13.66-12.9,34.58-29.34,53.69-42.08l1.63,2.43c-17.42,13.13-36.97,29.61-50.98,42.84-18.56,17.53-21.95,28.68-22.93,38.87l-2.39.27c-1.75-10.27,3.82-26.13,20.98-42.34Z"/><path class="cls-2" d="m462.24,1591.45l-119.68,6.99c-56.71,3.32-89.92,20.97-70.85,60.44,10.27,21.26,26.85,37.86,46.34,46.09l-1.11,2.14c-21.86-8.7-40.8-25.77-50.44-45.72-22.42-46.41,15.09-64,74.83-67.71l119.47-7.42c102.86-6.36,135.11-32.63,116.46-71.24-12.36-25.59-33.76-36.66-53.94-41.89l.66-.85c24.95,2.93,47.17,16.8,58.91,41.09,21.17,43.81-19.08,72.35-120.64,78.08Zm-21.99-157.37c64.54,7.34,91.13-15.13,77.3-43.76-13.62-28.2-32.68-36.64-56.93-43.65l.9-2.57c25.57,5.3,46.35,13.99,61.65,45.66,16.76,34.7-16.08,57.52-82.98,49.72l-56.58-6.37c-63.89-7.12-85.33,16.08-65.42,57.28,14.46,29.93,33.21,45.48,56.8,53.35l-.24,1.72c-25.78-5.74-46.46-21.96-62.8-55.8-20.75-42.94,1.82-70.43,71.09-62.16l57.22,6.6Zm-90.49,268.96c-6.84-4.19-12.36-10.08-15.5-16.59-5.66-11.71-.35-21.77,21.77-32.45,22.12-10.69,48.11-20.03,90.11-34.97l.84,1.73c-39.44,16.92-66.08,27.11-87.34,37.38-22.12,10.69-24.18,19.71-21.04,26.21,4.19,8.68,8.43,14.12,12.9,17.84l-1.73.84Zm28.25-191.81c-5.87-12.15-3.52-26.12,14.7-34.92,14.31-6.92,28.82-12.32,47-17.89l1.26,2.6c-15.38,5.82-31.41,12.5-45.73,19.42-15.18,7.33-16.86,19.38-11.2,31.09,4.82,9.98,13.75,18.5,22.09,23.57l-1.32,1.71c-8.99-4.22-20.72-12.99-26.8-25.57Zm57.75-158.44c5.57,2.66,10.47,6.18,13.62,12.68,6.08,12.58-1.79,20.66-16.54,27.78-10.41,5.03-27.72,10.18-43.92,13.19l-1.05-2.17c15.14-4.1,28.35-8.88,39.62-14.33,13.45-6.5,21.73-13.71,17.12-23.25-2.31-4.77-5.91-8.91-9.74-12.41l.88-1.5Zm53.86,126.99c6.84,4.19,12.36,10.08,15.5,16.59,5.66,11.71.35,21.77-21.77,32.45-22.12,10.69-48.11,20.03-90.11,34.97l-.84-1.73c39.44-16.92,66.08-27.11,87.34-37.38,22.12-10.69,24.18-19.71,21.04-26.21-4.19-8.68-8.43-14.12-12.9-17.84l1.73-.84Z"/><path class="cls-2" d="m361.5,1256.04c8.5-12.79,12.52-26.45,10.55-41.25-4.07-30.56-31.6-51.2-67.41-46.43-32.47,4.32-53.65,31.44-46.53,84.92,4.57,34.38,22.11,60.24,47.57,76.29l-1.24,1.62c-26.7-14.43-45.86-41.52-50.69-77.82-7.62-57.3,15.82-85.69,49.72-90.2,38.68-5.15,67.29,16.32,71.93,51.18,2.22,16.71-1.25,30.78-12.21,43.42l-1.69-1.72Zm36.68,82.11c58.26-7.75,91.44-43.27,83.88-100.09-4.7-35.34-23.67-61-52.03-73.27l.29-1.5c31.7,11.82,52.35,39.2,57.25,75.97,7.81,58.74-27.57,96-87.26,103.94-68.29,9.08-106.41-36.39-111.68-76.02-4.7-35.34,11.16-47.65,29.78-50.13,13.85-1.84,22.89.36,37.34,6.7l-1.18,2.1c-13.66-4.02-22.09-5.32-34.98-3.61-17.19,2.29-29.96,12.25-25.64,44.72,4.89,36.77,39.29,79.82,104.23,71.18Zm-4.12-180.72c18.62,12.1,31.41,35.19,34.59,59.06,4.26,31.99-12.15,58.48-53.69,64-26.26,3.49-43.55,1.42-56.03-4.7l1.18-2.1c12.03,2.77,28.36,4.97,53.19,1.67,40.11-5.34,53.9-29.53,50.03-58.66-3.3-24.83-14.88-46.13-30.99-57.6l1.72-1.69Z"/><path class="cls-2" d="m329.45,882.82c-23.05,14.56-46.46,36.48-56.7,77.12-7.18,28.49,1.99,55.15,48,71.72l-.59,2.34c-49.86-15.05-60.43-44.05-52.55-75.35,10.25-40.64,35.65-64.54,60.21-77.23l1.63,1.41Zm-30.89-37.1c59.68,9.58,78.62,62.55,92.08,113.63,12.87,49.45,31.11,101.24,86.01,110.11l.81,2.69c-58.17-5.72-78.75-60.09-91.73-111.06-12.17-48.28-29.95-99.95-87.76-113.04l.59-2.34Zm25.38,163.39c1.1-24.07,12.14-56.06,24.09-69.94l1.63,1.41c-7.62,14.47-18.67,46.46-23.27,68.65l-2.45-.12Zm121.85-112.86c7.77,28.29,4.32,61.7-5.19,83.65l-2.22-1.06c5.18-20.55,8.52-53.49,5.18-81.66l2.22-.93Zm3.82,134.6c27.14-17,46.82-45.82,55.07-78.52,10.6-42.04,1.87-60.63-49.74-76.63l.59-2.34c56.05,14.13,65.24,36.82,54.29,80.26-8.71,34.57-29.1,64.2-59.05,80.5l-1.16-3.27Z"/><path class="cls-2" d="m559.52,761.39c-23.4,38.77-57.47,48.59-102.83,21.2-24.75-14.94-33.4-22.98-38.5-32.24l2.07-1.56c5.93,6.96,14.01,14.08,36.69,27.78,44.54,26.89,77.2,18.47,98.86-17.41,18.17-30.11,26.08-80.48-33.72-116.58-53.61-32.37-104.71-17.63-135.09,32.68-12.2,20.21-18.62,41.09-19.83,61.74l-3.22-.26c.64-21.56,7.14-43.52,20.34-65.38,32.61-54.03,84.7-67.6,140.38-33.99,62.69,37.84,54.78,91.03,34.86,124.02Zm-123.07,79.89c56.5,34.11,106.3,11.28,132.44-32.03,8.22-13.61,14.37-28.46,17.3-43.58l3.8,1.17c-3.18,15.52-9.42,31.45-18.38,46.3-27.64,45.78-78.34,69.19-137.73,33.34-63.1-38.09-53.53-93.09-32.62-127.73,21.16-35.06,56.62-40.66,96.21-16.76,24.33,14.69,33.15,23.39,38,33.07l-2.07,1.56c-6.51-7.87-14.99-15.24-36.85-28.44-39.18-23.65-73.15-17.71-91.58,12.81-20.17,33.41-29.14,83.7,31.48,120.29Z"/><path class="cls-2" d="m610.75,602.33c6.92,64.58,34.66,85.63,59.58,65.88,24.54-19.45,28.62-39.89,30.17-65.09l2.71.31c.41,26.11-3.53,48.28-31.1,70.13-30.2,23.94-59.65-3.13-66.64-70.13l-6.13-56.61c-7-63.91-32.43-81.25-56.21-62.4-21.14,16.76-32.37,36.72-39.47,59.56l-2.25-1.29c5.53-24.05,17.29-45.66,41.08-64.51,25.3-20.05,55.16-2.53,62.21,66.87l6.06,57.28Zm-82.54-48.31c9.06-7.18,19.81-5.25,31.48,9.47,8.68,10.95,17.34,24.98,24.04,41.19l-1.89,1.5c-7.24-11.47-15.99-24.83-25.86-37.29-9.87-12.46-18.44-15.51-25.61-9.82-6.04,4.79-10.51,10.79-13.54,16.26l-2.25-1.29c2.89-7.21,6.84-14.64,13.64-20.02Zm200.33-45.04c6.92,64.58,34.66,85.63,59.58,65.88,24.54-19.45,28.62-39.89,30.17-65.09l2.71.31c.41,26.11-3.53,48.28-31.1,70.13-30.21,23.94-59.65-3.13-66.64-70.13l-6.13-56.61c-7-63.91-34.32-79.76-70.18-51.33-26.05,20.64-37.14,42.34-39.66,67.08l-1.73.14c-.03-26.41,11.29-50.13,40.74-73.47,37.38-29.62,69.13-13.6,76.18,55.8l6.06,57.28Zm-88.88-43.9c10.57-8.38,24.72-9.14,37.29,6.72,9.87,12.46,18.32,25.44,27.72,41.96l-2.27,1.8c-9.04-13.73-19.06-27.93-28.93-40.38-10.47-13.21-22.59-12.22-32.78-4.14-8.68,6.88-15.05,17.46-18.18,26.7l-1.95-.91c2.15-9.7,8.16-23.06,19.11-31.74Zm52.07,113.02c-1.38,6.01-3.74,11.57-9.4,16.06-10.95,8.68-20.55,2.76-30.73-10.07-7.18-9.06-15.99-24.83-22.46-39.98l1.89-1.5c7.31,13.88,14.85,25.72,22.63,35.54,9.28,11.7,18.12,18.22,26.43,11.63,4.15-3.29,7.41-7.72,9.99-12.22l1.65.53Zm115.16-91.26c-1.38,6.01-3.74,11.57-9.4,16.06-10.95,8.68-20.55,2.76-30.72-10.07-7.18-9.06-15.99-24.83-22.46-39.98l1.89-1.5c7.31,13.88,14.85,25.72,22.63,35.54,9.28,11.7,18.12,18.22,26.43,11.63,4.15-3.29,7.41-7.72,9.99-12.22l1.65.53Z"/><path class="cls-2" d="m886.26,396.07c14.28,5.67,28.47,6.77,42.54,1.77,29.06-10.31,43.54-41.52,31.46-75.57-10.95-30.87-41.87-45.97-92.72-27.93-32.69,11.6-54.35,34.11-64.78,62.34l-1.85-.88c8.58-29.11,31.12-53.47,65.63-65.71,54.48-19.33,87.11-2.28,98.55,29.95,13.05,36.77-2.02,69.21-35.16,80.97-15.89,5.64-30.37,5.16-45.01-2.94l1.33-2.01Zm-72.73,52.9c19.65,55.39,61.28,80.49,115.3,61.32,33.6-11.92,54.77-35.79,60.89-66.08l1.52-.03c-4.99,33.46-27.5,59.34-62.46,71.75-55.84,19.82-99.63-7.07-119.77-63.82-23.04-64.92,13.55-111.64,51.23-125.01,33.6-11.92,48.93,1.04,55.21,18.75,4.67,13.17,4.39,22.47,1.19,37.92l-2.3-.72c1.1-14.19.63-22.71-3.72-34.97-5.8-16.34-18.19-26.77-49.06-15.82-34.96,12.4-69.95,54.98-48.04,116.72Zm175.95-41.48c-7.98,20.72-27.91,38.02-50.61,46.07-30.42,10.79-59.72.23-73.74-39.26-8.86-24.97-10.41-42.31-7.01-55.78l2.3.72c-.22,12.35,1.01,28.78,9.39,52.39,13.53,38.14,40.05,46.62,67.75,36.79,23.61-8.38,42.05-24.12,49.93-42.25l2.01,1.33Z"/><path class="cls-2" d="m1097.63,352.26c-43.75,7.45-56.31,7.92-67.35.46-13.71-9.58-23.41-149.08-22.57-167.12l2.39-.27c-.05,16.49,11.72,152.85,24.42,162.06,10.03,7.09,20.83,8.28,62.41,3.02l.7,1.86Zm-4.3-41.69c.21-15.06-15.13-152.94-23.52-162.65-6.73-7.96-20.09-10.3-61.25-5.58l-.81-2.82c43.02-5.42,56.69-4.57,65.34,3.17,10.83,9.91,25.07,150.83,22.15,167.65l-1.91.22Zm5.3,96.86c-15.06-.21-42.87,2.5-52.57,10.88s-10.05,30.73-5.88,50.13l-2.87.33c-4.5-22.27-5.48-43.5,3.53-53.74,9.91-10.83,40.76-12.44,57.58-9.52l.22,1.91Zm7.37,9.34c6.47,22.53,8.66,41.68-.07,54.32-9.58,13.71-39.01,10.78-57.05,9.94l-.27-2.39c16.49.05,42.77.91,51.99-11.78,8.84-11.68,8.24-29.56,3.91-50.39l1.49.31Z"/></svg>