<?xml version="1.0" encoding="UTF-8"?><svg id="Big_Sticker" xmlns="http://www.w3.org/2000/svg" viewBox="0 0 2672.51 2672.51"><defs><style>.cls-1{fill:#fff;}</style></defs><path d="m2555.23,1440.79l-3.27-8.17c-26.29,22.13-55.49,22.02-61.37-8.26.04-.57.08-1.14.12-1.71,11.53-49.72,68.47-112.16,68.47-112.16l-4.12-7.78c-23.9,24.95-53.14,27.84-62.05-2.15,0-.15,0-.3-.01-.45,5.74-50.74,56.21-119.6,56.21-119.6l-4.93-7.29c-21.07,27.32-49.78,33.34-61.87,4.6-.04-.25-.07-.5-.11-.75.39-51.06,43.12-124.73,43.12-124.73l-5.68-6.73c-14.47,23.59-35.29,34.08-50.75,23.22,6.59-47.38,32.75-101.06,32.75-101.06l-6.15-6.3c-15.93,30.73-43.23,41.73-60.23,15.29-8.96-50.28,20.16-130.88,20.16-130.88l-6.79-5.61c-12.56,32.25-38.53,46.11-58.25,21.63-14.27-49.04,6.08-132.29,6.08-132.29l-7.34-4.85c-9.04,33.41-33.39,49.96-55.61,27.72-19.42-47.23-8.07-132.18-8.07-132.18l-7.82-4.04c-4.34,27.33-19.56,44.99-38,40.88-12.05-46.29-8.41-105.91-8.41-105.91l-8.09-3.47c-2.96,34.48-23.97,55.1-49.79,37.17-27.52-43.02-31.46-128.63-31.46-128.63l-8.41-2.58c.74,34.6-17.95,57.34-45.54,42.27-31.95-39.84-45.01-124.54-45.01-124.54l-8.64-1.67c4.43,34.33-11.73,58.93-40.77,46.89-36.02-36.21-58.04-119.03-58.04-119.03l-8.77-.74c6.45,26.92-.86,49.05-19.46,52.31-28.84-38.16-48.3-94.62-48.3-94.62l-8.8-.11c10.47,32.99-1.06,60.08-31.78,53.4-41.89-29.22-78.29-106.8-78.29-106.8l-8.76.83c13.93,31.68,5.36,59.85-25.9,56.48-44.77-24.58-89.24-97.84-89.24-97.84l-8.62,1.76c17.23,30.02,11.71,58.94-19.72,58.93-47.13-19.67-99.17-87.76-99.17-87.76l-8.39,2.67c16.26,22.4,17.98,45.65,2.04,55.78-41.25-24.22-80.84-68.94-80.84-68.94l-8.17,3.27c22.29,26.47,22.01,55.91-8.92,61.49-49.88-10.97-113.2-68.71-113.2-68.71l-7.78,4.12c24.99,23.94,27.85,53.24-2.31,62.1-50.77-5.58-119.89-56.24-119.89-56.24l-7.29,4.93c27.4,21.14,33.38,49.97,4.33,61.99-51.07-.13-125.21-43.13-125.21-43.13l-6.73,5.68c23.59,14.47,34.08,35.29,23.22,50.75-47.38-6.59-101.06-32.75-101.06-32.75l-6.3,6.15c30.73,15.93,41.73,43.23,15.29,60.23-50.28,8.96-130.88-20.16-130.88-20.16l-5.61,6.79c32.25,12.56,46.11,38.53,21.63,58.25-49.04,14.27-132.29-6.08-132.29-6.08l-4.85,7.34c33.41,9.04,49.96,33.39,27.72,55.61-47.23,19.42-132.18,8.07-132.18,8.07l-4.04,7.82c27.33,4.34,44.99,19.56,40.88,38-46.29,12.05-105.91,8.41-105.91,8.41l-3.47,8.09c34.48,2.96,55.1,23.97,37.17,49.79-43.02,27.52-128.63,31.46-128.63,31.46l-2.58,8.41c34.6-.74,57.34,17.95,42.27,45.54-39.84,31.95-124.54,45.01-124.54,45.01l-1.67,8.64c34.33-4.43,58.93,11.73,46.89,40.77-36.21,36.02-119.03,58.04-119.03,58.04l-.74,8.77c26.92-6.45,49.05.86,52.31,19.46-38.16,28.84-94.62,48.3-94.62,48.3l-.11,8.8c32.99-10.47,60.08,1.06,53.4,31.78-29.22,41.89-106.8,78.29-106.8,78.29l.83,8.76c31.68-13.93,59.85-5.36,56.48,25.9-24.58,44.77-97.84,89.24-97.84,89.24l1.76,8.62c30.02-17.23,58.94-11.71,58.93,19.72-19.67,47.13-87.76,99.17-87.76,99.17l2.67,8.39c22.4-16.26,45.65-17.98,55.78-2.04-24.22,41.25-68.94,80.84-68.94,80.84l3.27,8.17c26.47-22.29,55.91-22.01,61.49,8.92-10.97,49.88-68.71,113.2-68.71,113.2l4.12,7.78c23.94-24.99,53.24-27.85,62.1,2.31-5.58,50.77-56.24,119.89-56.24,119.89l4.93,7.29c21.14-27.4,49.97-33.38,61.99-4.33-.13,51.07-43.13,125.21-43.13,125.21l5.68,6.73c14.47-23.59,35.29-34.08,50.75-23.22-6.59,47.38-32.75,101.06-32.75,101.06l6.15,6.3c15.93-30.73,43.23-41.73,60.23-15.29,8.96,50.28-20.16,130.88-20.16,130.88l6.79,5.61c12.56-32.25,38.53-46.11,58.25-21.63,14.27,49.04-6.08,132.29-6.08,132.29l7.34,4.85c9.04-33.41,33.39-49.96,55.61-27.72,19.42,47.23,8.07,132.18,8.07,132.18l7.82,4.04c4.34-27.33,19.56-44.99,38-40.88,12.05,46.29,8.41,105.91,8.41,105.91l8.09,3.47c2.96-34.48,23.97-55.1,49.79-37.17,27.52,43.02,31.46,128.63,31.46,128.63l8.41,2.58c-.74-34.6,17.95-57.34,45.54-42.27,31.95,39.84,45.01,124.54,45.01,124.54l8.64,1.67c-4.43-34.33,11.73-58.93,40.77-46.89,36.02,36.21,58.04,119.03,58.04,119.03l8.77.74c-6.45-26.92.86-49.05,19.46-52.31,28.84,38.16,48.3,94.62,48.3,94.62l8.8.11c-10.47-32.99,1.06-60.08,31.78-53.4,41.89,29.22,78.29,106.8,78.29,106.8l8.76-.83c-13.93-31.68-5.36-59.85,25.9-56.48,44.77,24.58,89.24,97.84,89.24,97.84l8.62-1.76c-17.23-30.02-11.71-58.94,19.72-58.93,47.13,19.67,99.17,87.76,99.17,87.76l8.39-2.67c-16.26-22.4-17.98-45.65-2.04-55.78,41.25,24.22,80.84,68.94,80.84,68.94l8.17-3.27c-22.29-26.47-22.01-55.91,8.92-61.49,49.88,10.96,113.2,68.71,113.2,68.71l7.78-4.12c-24.99-23.94-27.85-53.24,2.31-62.1,50.77,5.58,119.89,56.24,119.89,56.24l7.29-4.93c-27.4-21.14-33.38-49.97-4.33-61.99,51.07.13,125.21,43.13,125.21,43.13l6.73-5.68c-23.59-14.47-34.08-35.29-23.22-50.75,47.38,6.59,101.06,32.76,101.06,32.76l6.3-6.15c-30.73-15.93-41.73-43.23-15.29-60.23,50.28-8.96,130.88,20.16,130.88,20.16l5.61-6.79c-32.25-12.56-46.11-38.53-21.63-58.25,49.04-14.27,132.29,6.08,132.29,6.08l4.85-7.35c-33.41-9.04-49.96-33.39-27.72-55.61,47.23-19.42,132.18-8.07,132.18-8.07l4.04-7.82c-27.33-4.34-44.99-19.56-40.88-38,46.29-12.05,105.91-8.41,105.91-8.41l3.47-8.09c-34.48-2.96-55.1-23.97-37.17-49.79,43.02-27.52,128.63-31.46,128.63-31.46l2.58-8.41c-34.6.74-57.34-17.95-42.27-45.54,39.84-31.95,124.54-45.01,124.54-45.01l1.67-8.64c-34.29,4.42-58.88-11.7-46.93-40.69.05-.06.1-.13.15-.19,36.26-35.96,118.92-57.93,118.92-57.93l.74-8.77c-26.92,6.45-49.05-.86-52.31-19.46,38.16-28.84,94.62-48.3,94.62-48.3l.11-8.8c-32.5,10.31-59.28-.72-53.68-30.42.55-1.09,1.11-2.19,1.66-3.28,30.2-41.07,105.42-76.37,105.42-76.37l-.83-8.76c-31.07,13.66-58.75,5.68-56.64-24.1.55-1.45,1.09-2.91,1.63-4.37,25.9-43.88,96.37-86.67,96.37-86.67l-1.76-8.62c-29.46,16.9-57.85,11.91-58.9-17.98.38-1.45.75-2.91,1.12-4.37,21.03-46.42,86.61-96.54,86.61-96.54l-2.67-8.39c-22.4,16.26-45.65,17.98-55.78,2.04,24.22-41.25,68.94-80.84,68.94-80.84Z"/><path class="cls-1" d="m1187.73,710.62l-8.83-41.61c-1.23-5.79-3.67-7.46-7.8-6.79l-5.55.86-1.19-5.59,35.32-7.49c13.27-2.82,22,.96,24.01,10.44,1.54,7.28-1.88,14.26-10.09,19.76,10.78-.31,18.9,4.54,20.84,13.72,2.69,12.67-5.77,23.43-18.74,26.18l-37.52,7.96-.44-1.58c7.74-3.83,11.59-8.3,9.98-15.88Zm18.06-29.38c6.01-4.09,8.51-9.52,7.18-15.81-1.57-7.38-7.42-10.42-18.66-8.34l-7.13,1.3,5.38,25.34,13.23-2.49Zm4.04,34.28l2.2-.46c10.18-2.16,12.61-7.89,10.92-15.87-2.1-9.88-9.76-13.57-21.93-10.99l-7.18,1.52,4.06,19.16c1.31,6.19,3.86,8.36,11.94,6.64Z"/><path class="cls-1" d="m1244.83,691.04c-2.01-17.84,7.88-32.91,22.07-34.52,11.65-1.32,20.09,7.07,20.89,22.28l-33.95,3.83c.13,1.11.16,2.34.3,3.56,1.54,13.68,8.36,19.48,18.59,18.33,8.31-.94,14.75-7.52,15.36-15.8h1.02c.88,13.23-6.55,23.82-18.71,25.19-13.88,1.57-23.89-7.98-25.57-22.88Zm31.99-16.65c-.86-7.6-4.71-12.61-11.3-11.86-5.88.66-10.18,6.18-11.31,14.42l22.6-2.55Z"/><path class="cls-1" d="m1338.93,689.74l-.37-17.44c-.19-8.67-3.81-11.35-10.14-11.21-4.69.1-10.53,3.59-14,8.26l.54,25.09c.13,5.92,2.22,8.22,6.4,8.13l1.94-.04.12,5.51-26.31.56-.13-1.32c5.77-2.06,8.84-6.21,8.68-14.06l-.56-26.11c-.08-3.57-1.94-4.86-5-4.59l-2.65.26-.23-1.22,16.84-9.24.22,10.3c5.39-5.73,13.35-10.18,19.67-10.32,8.16-.17,13.57,4.61,13.79,15.11l.57,26.62c.14,6.63,2.01,8.02,6.19,7.93l.92-.02.12,5.41-23.35.5-.13-1.32c5.24-2.87,7.14-4.95,6.88-16.78Z"/><path class="cls-1" d="m1403.67,692.79l1.35-17.39c.67-8.64-2.68-11.67-8.98-12.15-4.68-.36-10.84,2.54-14.75,6.84l-1.94,25.02c-.46,5.9,1.4,8.39,5.57,8.72l1.93.15-.42,5.49-26.24-2.03v-1.33c5.95-1.48,9.42-5.31,10.02-13.14l2.02-26.04c.28-3.56-1.45-5.02-4.52-5.06h-2.66s-.11-1.24-.11-1.24l17.67-7.53-.79,10.27c5.92-5.17,14.29-8.82,20.59-8.33,8.14.63,13.05,5.92,12.24,16.4l-2.05,26.54c-.51,6.61,1.21,8.18,5.38,8.5l.92.07-.42,5.39-23.29-1.8v-1.33c5.5-2.34,7.59-4.22,8.5-16.02Z"/><path class="cls-1" d="m1476.82,722.62l-32.47-7.15.25-1.62c3.66-.97,8.76-4.23,20.24-15.07l40.33-38.01-21.65-4.14c-12.42-2.42-19.7,1.72-24.58,12.03l-1.17-.36c1.65-8.93,3.5-15.42,6.68-22.76,6.49,1.85,18.17,4.73,32.42,7.87l25.2,5.55-.15,1.64c-3.34,1.88-9.17,6.54-13.25,10.35l-45.71,42.99,17.49,3.12c16.39,2.88,25.01-.23,32.61-12.45l1.15.46c-2.53,9.57-5.79,17.73-9.66,24.4-6.49-1.85-15.29-4.1-27.74-6.84Z"/><path class="cls-1" d="m1522.7,709.07c6.04-18.2,21.86-25.74,35.9-21.08,13.36,4.43,18.5,17.1,13.53,32.1-5.75,17.33-20.61,26.15-36,21.05-13.26-4.4-18.73-16.1-13.43-32.07Zm17,27.13c7.71,2.67,17.12-2.7,22.07-17.61,5.11-15.39.03-23.42-6.62-25.73-7.81-2.7-17.03,2.73-21.97,17.64-5.11,15.39-.03,23.42,6.52,25.7Z"/><path class="cls-1" d="m1583.49,739.89l10.18-24.05c1.39-3.29.22-5.22-2.68-6.23l-2.52-.85.29-1.21,19.15-1.53-4.09,9.67c5.33-3.17,12.77-4.79,18.85-2.66-.83,5.63-3.11,10.76-6.16,15.34l-1.03-.44c.71-3.25-.58-6.23-4.24-7.78-3.19-1.35-6.55-1-9.52.51l-10.02,23.67c-2.31,5.45-1.58,8.97,2.27,10.6l6.48,2.74-2.11,4.98-28.93-12.24.42-1.26c6.11.48,10.61-2.04,13.67-9.28Z"/><path class="cls-1" d="m1651.85,769.31l8.09-15.45c4.02-7.68,2.14-11.78-3.47-14.71-4.16-2.18-10.96-1.94-16.25.47l-11.64,22.23c-2.74,5.24-2.03,8.27,1.68,10.21l1.72.9-2.56,4.88-23.31-12.21.53-1.22c6.05.98,10.74-1.17,14.39-8.12l12.11-23.13c1.66-3.16.64-5.19-2.16-6.43l-2.44-1.05.39-1.18,19.21.04-4.78,9.13c7.48-2.42,16.61-2.47,22.21.46,7.23,3.79,9.66,10.58,4.78,19.89l-12.35,23.58c-3.08,5.87-2.11,7.99,1.59,9.93l.81.43-2.51,4.79-20.69-10.84.52-1.22c5.98.02,8.64-.89,14.13-11.37Z"/><path class="cls-1" d="m1735.92,748.93l5.06,3.44-56.88,83.81-5.06-3.44,56.88-83.81Z"/><path class="cls-1" d="m1745.26,825.99c15.71-18.37,49.07-26.62,66.98-11.3,6.2,5.3,9.46,9.03,10.66,11.4-2.7,3.47-5.65,7.38-9.61,11.24-3.18.9-6.54,1.52-10.19,2.02l-.5-.83c9.09-7.8,9.64-15.51,3.75-20.55-11.32-9.68-38.34-2.73-52.7,14.38-7.68,9.14-7.88,16.75-1.29,22.38,5.89,5.04,13.99,6.87,26.53,3.5l.49,1.63c-14.22,5.96-25.77,5.34-34.14-1.82-10.08-8.62-9.45-20.97.03-32.05Z"/><path class="cls-1" d="m1784.22,870.28c13.67-13.45,40.11-17.84,51.33-6.42,5.86,5.96,6.02,12.82-2.34,21.04-13.67,13.45-40.11,17.84-51.33,6.42-5.86-5.96-5.95-12.89,2.34-21.04Zm4.75,18.36c6.79,6.91,24.86,2.59,35.99-8.35,6.25-6.15,6.79-10.4,3.29-13.96-6.58-6.69-24.65-2.37-35.77,8.57-6.25,6.15-6.79,10.4-3.5,13.75Z"/><path class="cls-1" d="m1806.29,913.17c1.59-1.9,5.04-5.4,7.22-7.41,3.78-1.23,7.55-2.32,11.6-3.24l.73.85c-9.78,6.93-10.96,13.85-6.64,18.88,3.19,3.71,7.18,3.51,9.97,1.12,1.86-1.6,2.83-3.91,3.71-6.95l2.89-10.41c.98-3.4,2.99-7.01,5.62-9.27,7.51-6.45,21.38-2.5,27.17,4.23,2.72,3.17,3.77,4.7,4.93,7.46-2.93,2.38-7.01,5.62-10.93,7.78-2.47.1-5.13-.03-7.58-.21l-.64-1.06c7.52-5.65,9.81-9.24,6.23-13.42-2.53-2.94-7.29-5.04-11-1.85-2.32,1.99-3.81,5.43-4.52,8.05l-2.78,9.92c-.98,3.4-2.96,7.52-5.51,9.71-6.42,5.52-18.21,3.54-23.92-3.12-3.85-4.49-5.68-8.03-6.54-11.06Z"/><path class="cls-1" d="m1863.7,959.21l18.02-6.16c5.83-2.01,8.32-2.9,9.57-3.79,1.08-.77,1.31-1.68.72-2.51-1.59-2.25-11.98-5.26-26.81-8l-19.7,6.6c-2.72.93-2.8,1.87-1.39,3.86l2.6,3.66-.5.35-7.36-1.91-11.27-15.89,1.02-.85c4.95,3.62,12.8,4.3,20.32,1.84l21.25-7.07c4.18-1.34,5.18-3.8,3.45-7.83l-.94-2.21.92-.65,19.96,10.85-21.48,5.86.41.58c12.81,1.67,27.98,6.29,31.34,11.03,1.77,2.5,1.55,4.65-1.2,6.6-2.83,2.01-7.36,3.72-14.49,4.78l.29.42-.31.09c12.84,1.52,28.1,5.58,31.4,10.24,1.77,2.5,1.55,4.65-1.19,6.6-2.33,1.65-5.38,2.82-13.96,5.53l-20.58,6.6c-7.82,2.55-8.6,4.98-5.35,9.55l1.71,2.41-1.05.99-17.55-12.93,36.06-12.45c5.83-2.01,8.32-2.9,9.57-3.79,1.08-.77,1.31-1.68.72-2.51-1.59-2.25-11.98-5.26-26.81-7.99l-19.82,6.43c-2.78.85-2.8,1.87-1.39,3.86l4.19,5.91-.5.35-7.36-1.91-12.57-17.72,1.02-.85c4.68,3.43,11.99,4.38,19.05,1.99Z"/><path class="cls-1" d="m1965.72,1002.54l2.88,5.4-89.43,47.58-2.88-5.4,89.43-47.58Z"/><path class="cls-1" d="m1941.31,1099.44l46.78-18.17-3.81-9.24c-3.49-8.71-9.22-11.63-20.73-10.55l-.25-1.21c7.36-3.3,14.28-5.22,21.53-5.41.3,2.18,2.54,9.08,6.98,20.49l7.87,20.25c3.88,9.98,6.92,16.68,8.19,18.27-3.69,3.18-11.38,5.63-21.41,6.57l-.35-1.18c9.9-4.94,12.27-9.25,7.94-21.8l-2.32-6.54-47.54,18.47c-5.51,2.14-6.39,4.67-5.45,8.79l1.74,7.86-5.33,2.07-14.67-37.75,1.48-.69c5.76,8.92,11.16,12.95,19.34,9.78Z"/><path class="cls-1" d="m1920.41,1145.39c3.99-1.99,10.07-3.73,14.68-4.31l.32.76c-3.33,2.44-5.04,6.85-4.09,10.19,1.52,5.3,7.21,8.12,18.62,9.1l30.49-23.58c5.74-4.4,8.81-9.63,8.7-12.25l1.23-.14,6.51,22.75-1.12.53c-2.55-5.21-7.01-5.95-12.95-1.49l-21.25,15.84,22.78,1.76c10.3.77,13.97-3.47,13.27-9.63l1.23-.14,5.81,20.3-1.15.43c-1.4-2.68-4.99-4.09-13.96-5.02l-45.25-4.98c-14.01-1.51-21.5-6.9-23.52-13.96-.59-2.06-.69-4.26-.38-6.15Z"/><path class="cls-1" d="m1947.71,1197.34l47.75-9.33c3.5-.68,4.47-2.64,3.67-5.71l-.71-2.56,1.16-.43,11.98,15.02-9.81,1.92c6.81,3.45,11.56,9.69,12.85,16.3,2.05,10.51-6.39,19.96-19.41,22.5-17.72,3.46-35.65-3.74-39.51-23.46-.35-1.8-.62-4.24-.59-6.22l-6.01,1.17c-5.81,1.13-7.72,3.59-6.92,7.69l1.19,6.11-5.31,1.04-5.87-30.03,1.08-.32c3.06,5.54,7.83,7.62,14.44,6.33Zm15.13,16.79c1.8,9.21,11.26,15.05,26.37,12.1,12.71-2.48,17.41-9.33,15.94-16.83-1.13-5.81-4.94-9.84-9.81-11.91l-31.04,6.06c-1.93,2.87-2.29,6.37-1.47,10.58Z"/><path class="cls-1" d="m1988.27,1248.38c17.86-1.85,32.84,8.18,34.32,22.38,1.21,11.67-7.25,20.03-22.46,20.69l-3.53-33.99c-1.12.12-2.34.14-3.56.27-13.7,1.42-19.56,8.18-18.5,18.43.86,8.32,7.38,14.82,15.66,15.5v1.03c-13.25.76-23.77-6.76-25.04-18.94-1.44-13.9,8.19-23.82,23.11-25.37Zm16.36,32.14c7.61-.79,12.65-4.59,11.96-11.19-.61-5.88-6.09-10.24-14.31-11.44l2.35,22.62Z"/><path class="cls-1" d="m1979.76,1353.75c-6.47-3.68-11.26-9.98-11.16-16.61.11-6.94,4.68-11.76,11.72-11.64,7.34.12,13.39,4.5,17.37,17.52l3.39,10.97,6.94.11c8.77.14,12.19-3.17,12.27-8.17.09-5.81-5.82-12.54-20.24-16.65l-.08-1.02c6.65-1.22,14.71-.99,19.9-.19,3.59,5.36,6.29,14.89,6.19,20.81-.15,9.18-5.95,14.7-16.15,14.53l-28.96-.47c-4.39-.07-6.04,1.13-6.08,3.47-.04,2.65,2.99,4.54,6.14,4.89v.92c-6.77,1.12-12.92-3.27-12.82-9.08.09-5.71,3.41-8.92,11.58-9.4Zm-2.85-13c-.07,4.39,2.9,9.74,7.14,12.97l12.14.2-3.32-9.03c-2.83-7.7-5.86-10.09-9.63-10.15-3.47-.06-6.25,1.84-6.32,6.02Z"/><path class="cls-1" d="m1983.73,1418.96l17.35,1.82c8.62.9,11.73-2.36,12.39-8.65.49-4.67-2.24-10.9-6.43-14.93l-24.95-2.62c-5.88-.62-8.43,1.17-8.87,5.33l-.2,1.93-5.48-.57,2.74-26.17,1.33.04c1.32,5.98,5.05,9.55,12.86,10.37l25.97,2.72c3.55.37,5.06-1.32,5.18-4.38l.07-2.66,1.24-.08,7.05,17.87-10.25-1.07c5,6.06,8.42,14.52,7.77,20.81-.85,8.12-6.27,12.88-16.72,11.78l-26.48-2.78c-6.59-.69-8.21.99-8.64,5.14l-.1.91-5.38-.56,2.44-23.23,1.33.04c2.19,5.56,4.01,7.7,15.78,8.94Z"/><path class="cls-1" d="m2024.16,1485.92l1.36-6.59,1.22.15,5.95,22.68-66.93-13.78c-3.5-.72-5.56.73-5.98,3.77l-.54,4.16-1.16.07-6.43-20.38,10.89,2.24c-4.95-5.81-7-13.52-5.65-20.12,2.16-10.49,13.59-15.95,26.58-13.27,17.68,3.64,31.45,17.2,27.4,36.88-.39,1.9-1.08,4.25-1.88,6.07l9.59,1.97c3.5.72,4.96-.85,5.58-3.85Zm-59.77-21.26c-1.21,5.89.74,11.09,4.64,14.91l30.67,6.31c2.89-1.9,4.67-4.97,5.55-9.27,1.89-9.19-4.58-18.23-19.66-21.33-12.69-2.61-19.65,1.89-21.2,9.38Z"/><path class="cls-1" d="m1999.11,1563.64l-46.34-21.25c-5.4-2.45-8.25-1.04-9.96,2.78l-2.33,5.11-5.32-2.09,11.66-29.72,1.56.5c-1.43,9.52.77,13.67,8.72,17.44l35.42,16.96c7.47,3.59,9.87,2.78,12.41-2.58l1.92-4.07,5.32,2.08-9.95,25.35-55.92,2.06,39.61,39.53-9.72,24.78-1.56-.5c1.43-9.52-.81-13.58-9.2-16.21l-39.69-12.5c-5.66-1.78-8.06-.97-9.96,2.78l-1.59,3.21-5.32-2.09,12.4-31.62,1.56.5c-1.43,9.52.4,14.62,8.72,17.44l46,15.41-45.71-48.28.6-1.52,66.69-3.53Z"/><path class="cls-1" d="m1923.63,1634.18c15.72,8.66,22.31,25.45,15.42,37.96-5.66,10.27-17.38,12.31-30.25,4.18l16.49-29.92c-.98-.54-2-1.22-3.08-1.81-12.06-6.65-20.73-4.44-25.7,4.58-4.04,7.33-2.39,16.38,4.02,21.66l-.58.84c-11.32-6.94-15.67-19.12-9.76-29.83,6.74-12.24,20.32-14.89,33.45-7.65Zm-4.9,35.73c6.7,3.69,13.01,3.44,16.21-2.36,2.85-5.18.84-11.88-5.23-17.56l-10.98,19.92Z"/><path class="cls-1" d="m1916.84,1734.29l3.77-5.58,1.07.6-3.14,23.24-56.64-38.25c-2.96-2-5.42-1.45-6.97,1.2l-2.09,3.64-1.1-.38,1.82-21.29,9.21,6.22c-2.36-7.26-1.32-15.17,2.44-20.75,5.99-8.88,18.64-9.57,29.63-2.14,14.96,10.1,22.52,27.89,11.28,44.54-1.08,1.61-2.62,3.52-4.05,4.9l8.12,5.48c2.96,2,4.92,1.1,6.63-1.43Zm-47.16-42.43c-3.37,4.99-3.54,10.53-1.39,15.55l25.95,17.52c3.4-.66,6.21-2.82,8.67-6.46,5.25-7.78,2.71-18.6-10.05-27.22-10.74-7.25-18.89-5.74-23.17.6Z"/><path class="cls-1" d="m1850.59,1733.48l18.92,14.88c2.81,2.21,4.98,1.58,6.71-.95l1.48-2.21,1.09.6-1.15,20.76-33.91-26.67c-4.65-3.66-7.75-3.5-10.34-.22l-.57.72-4.33-3.4,15.64-19.88,1.11.74c-2.07,5.77-.82,10.77,5.35,15.63Zm47.71,42.45c-2.52,3.21-6.96,3.74-10.17,1.21-3.21-2.52-3.74-6.96-1.21-10.17,2.52-3.21,6.96-3.74,10.17-1.22,3.21,2.52,3.74,6.96,1.22,10.17Z"/><path class="cls-1" d="m1811.27,1770.88c-2.47-7.02-1.94-14.92,2.49-19.85,4.64-5.16,11.25-5.79,16.48-1.09,5.46,4.91,7.14,12.19,1.59,24.62l-4.65,10.5,5.16,4.64c6.52,5.87,11.28,5.62,14.62,1.9,3.89-4.32,3.85-13.28-4.33-25.85l.61-.83c5.82,3.45,11.74,8.91,15.13,12.92-.82,6.4-5.04,15.36-9,19.76-6.14,6.83-14.14,7.18-21.72.35l-21.54-19.37c-3.26-2.93-5.29-3.12-6.86-1.37-1.77,1.97-.73,5.38,1.42,7.73l-.61.68c-5.82-3.59-7.58-10.94-3.7-15.26,3.82-4.25,8.43-4.49,14.91.51Zm6.39-11.68c-2.93,3.26-4.21,9.25-3.14,14.47l9.02,8.12,3.42-8.99c2.92-7.67,2.21-11.46-.59-13.98-2.58-2.32-5.92-2.72-8.72.39Z"/><path class="cls-1" d="m1775.36,1796.51l-1.69,21.43c-1.45,18.91-.06,26.38,3.97,30.98,3.63,4.14,8.76,4.26,13.43.16,5.67-4.98,8.01-13.14,6.63-21.83l1.25-.28c5.67,12.8,4.11,23.4-4.79,31.2-7.82,6.86-16.62,7.66-22.34,1.14-6.19-7.05-5.8-15.27-3.91-38.63l.68-8.19-14.49,12.71c-5.44,4.78-6.67,8.02-5.76,10.75l-.54.47c-3.49-3.05-6.57-6.72-8.94-10.34,1.94-.88,4.31-2.97,9.76-7.75l25.76-22.6.96.79Z"/><path class="cls-1" d="m1748.29,1856.51c9.39,12.97,10.97,30.46-3.4,40.87-14.38,10.41-30.66,3.56-40.05-9.41-9.45-13.05-12.24-29.42,3.48-40.93,15.84-11.34,30.52-3.59,39.97,9.47Zm-34.59-2.03c-9.44,6.96-11.36,18.05-3.17,29.37,7.78,10.74,18.15,13.93,28.83,6.07,10.8-7.69,11-18.54,3.23-29.28-8.19-11.32-19.33-12.95-28.89-6.16Z"/><path class="cls-1" d="m1682.22,1869.68l-5.65,20.74c-4.95,18.31-4.97,25.91-1.86,31.18,2.8,4.74,7.81,5.81,13.17,2.65,6.5-3.83,10.32-11.42,10.58-20.21l1.28-.04c3.19,13.63-.32,23.75-10.51,29.77-8.96,5.29-17.75,4.43-22.16-3.04-4.77-8.08-2.85-16.08,3.35-38.69l2.19-7.92-16.61,9.79c-6.24,3.68-8.04,6.64-7.66,9.49l-.62.36c-2.86-3.64-5.21-7.82-6.86-11.82,2.07-.51,4.79-2.12,11.03-5.79l29.52-17.41.8.95Z"/><path class="cls-1" d="m1635.68,1896.93l-7.4,20.18c-6.49,17.82-7.17,25.39-4.52,30.9,2.38,4.97,7.29,6.46,12.9,3.77,6.81-3.27,11.26-10.49,12.27-19.24l1.28.07c2.01,13.86-2.35,23.64-13.01,28.76-9.38,4.5-18.07,2.9-21.82-4.92-4.06-8.46-1.47-16.27,6.64-38.26l2.86-7.71-17.38,8.34c-6.53,3.13-8.58,5.93-8.45,8.8l-.64.31c-2.54-3.87-4.52-8.24-5.82-12.37,2.1-.33,4.96-1.7,11.48-4.83l30.9-14.83.71,1.02Z"/><path class="cls-1" d="m1580,2006.06l-5.77,2.04-33.79-95.49,5.77-2.04,33.79,95.49Z"/><path class="cls-1" d="m1500.53,1963.64l9.32,41.5c1.3,5.77,3.76,7.42,7.88,6.7l5.54-.93,1.25,5.57-35.23,7.91c-13.24,2.97-22.01-.7-24.13-10.16-1.63-7.26,1.71-14.29,9.86-19.88-10.77.43-18.95-4.32-21.01-13.47-2.84-12.64,5.49-23.5,18.43-26.41l37.42-8.41.46,1.57c-7.69,3.92-11.49,8.43-9.79,16Zm-22.16-4.64l-2.19.49c-10.15,2.28-12.52,8.04-10.73,16,2.21,9.85,9.92,13.45,22.06,10.73l7.17-1.61-4.29-19.11c-1.39-6.17-3.96-8.31-12.02-6.5Zm4.45,34.23c-5.96,4.16-8.4,9.62-6.99,15.89,1.65,7.36,7.55,10.33,18.76,8.12l7.11-1.39-5.68-25.28-13.2,2.65Z"/><path class="cls-1" d="m1443.67,1983.89c2.23,17.81-7.49,33.01-21.66,34.78-11.64,1.46-20.18-6.83-21.15-22.03l33.91-4.24c-.14-1.11-.19-2.34-.34-3.56-1.71-13.66-8.59-19.38-18.81-18.1-8.3,1.04-14.66,7.69-15.17,15.98l-1.03.03c-1.04-13.23,6.26-23.91,18.41-25.43,13.87-1.73,23.99,7.69,25.85,22.57Zm-31.79,17.03c.95,7.59,4.86,12.55,11.44,11.73,5.87-.73,10.11-6.3,11.13-14.55l-22.57,2.82Z"/><path class="cls-1" d="m1349.56,1986.29l.57,17.43c.29,8.67,3.94,11.3,10.26,11.09,4.69-.15,10.49-3.71,13.91-8.42l-.83-25.08c-.19-5.91-2.31-8.19-6.49-8.05l-1.94.06-.18-5.5,26.3-.87.15,1.32c-5.75,2.13-8.77,6.31-8.51,14.16l.86,26.1c.12,3.57,2,4.83,5.05,4.53l2.64-.29.24,1.22-16.73,9.43-.34-10.3c-5.32,5.79-13.23,10.33-19.55,10.54-8.16.27-13.62-4.45-13.96-14.95l-.88-26.61c-.22-6.63-2.1-7.99-6.28-7.86l-.92.03-.18-5.4,23.35-.77.15,1.32c-5.21,2.93-7.08,5.03-6.69,16.86Z"/><path class="cls-1" d="m1284.82,1984.01l-1.14,17.4c-.57,8.65,2.82,11.63,9.13,12.05,4.68.31,10.8-2.67,14.67-7.01l1.64-25.04c.39-5.9-1.5-8.38-5.67-8.65l-1.93-.13.36-5.5,26.26,1.72.02,1.33c-5.93,1.55-9.35,5.42-9.86,13.25l-1.71,26.05c-.23,3.56,1.51,5.01,4.58,5l2.66-.03.12,1.23-17.58,7.74.67-10.28c-5.86,5.24-14.18,8.99-20.49,8.57-8.14-.53-13.11-5.77-12.43-16.25l1.74-26.56c.43-6.62-1.31-8.16-5.48-8.43l-.92-.06.35-5.39,23.31,1.53.02,1.33c-5.47,2.4-7.54,4.31-8.31,16.12Z"/><path class="cls-1" d="m1211.32,1955.05l32.56,6.76-.23,1.62c-3.65,1.01-8.71,4.34-20.06,15.31l-39.88,38.49,21.7,3.88c12.45,2.27,19.68-1.95,24.44-12.32l1.18.35c-1.55,8.95-3.32,15.46-6.41,22.84-6.51-1.77-18.23-4.52-32.51-7.49l-25.27-5.25.13-1.64c3.31-1.92,9.09-6.65,13.12-10.5l45.2-43.53-17.52-2.91c-16.42-2.68-25.01.53-32.46,12.84l-1.16-.45c2.41-9.6,5.57-17.8,9.37-24.52,6.51,1.77,15.33,3.92,27.82,6.51Z"/><path class="cls-1" d="m1165.61,1969.14c-5.82,18.27-21.56,26-35.65,21.51-13.41-4.27-18.71-16.88-13.91-31.94,5.54-17.4,20.29-26.4,35.74-21.48,13.31,4.24,18.92,15.88,13.81,31.91Zm-17.33-26.93c-7.74-2.57-17.09,2.91-21.86,17.87-4.92,15.45.25,23.42,6.92,25.65,7.84,2.6,16.99-2.94,21.76-17.9,4.92-15.45-.25-23.42-6.83-25.62Z"/><path class="cls-1" d="m1104.42,1939.04l-9.89,24.17c-1.35,3.3-.15,5.23,2.75,6.2l2.53.82-.27,1.21-19.13,1.76,3.98-9.72c-5.29,3.24-12.71,4.94-18.81,2.88.76-5.64,2.98-10.79,5.97-15.41l1.04.42c-.67,3.25.65,6.22,4.33,7.72,3.21,1.31,6.57.92,9.51-.63l9.73-23.79c2.24-5.48,1.47-8.99-2.4-10.57l-6.51-2.67,2.05-5,29.08,11.89-.41,1.27c-6.12-.41-10.59,2.17-13.56,9.44Z"/><path class="cls-1" d="m1035.73,1910.44l-7.91,15.55c-3.93,7.73-2,11.8,3.64,14.67,4.18,2.13,10.98,1.81,16.24-.67l11.37-22.36c2.68-5.27,1.93-8.29-1.8-10.18l-1.73-.88,2.5-4.91,23.46,11.93-.51,1.23c-6.06-.91-10.73,1.3-14.29,8.3l-11.84,23.27c-1.62,3.18-.58,5.2,2.24,6.4l2.46,1.02-.37,1.18-19.2.19,4.67-9.18c-7.45,2.5-16.58,2.67-22.21-.2-7.27-3.7-9.78-10.47-5.02-19.83l12.07-23.73c3.01-5.91,2.02-8.01-1.71-9.91l-.82-.42,2.45-4.82,20.82,10.59-.51,1.23c-5.98.05-8.63.99-13.99,11.54Z"/><path class="cls-1" d="m951.91,1931.81l-5.1-3.38,55.9-84.47,5.1,3.38-55.9,84.47Z"/><path class="cls-1" d="m941.65,1854.86c-15.5,18.56-48.76,27.19-66.84,12.09-6.26-5.23-9.56-8.92-10.79-11.27,2.66-3.5,5.56-7.45,9.48-11.35,3.17-.94,6.52-1.6,10.16-2.14l.51.82c-8.99,7.91-9.46,15.62-3.51,20.59,11.43,9.55,38.37,2.27,52.53-15,7.57-9.23,7.68-16.84,1.03-22.4-5.95-4.97-14.07-6.7-26.57-3.19l-.51-1.62c14.15-6.12,25.71-5.64,34.16,1.42,10.18,8.5,9.7,20.85.35,32.05Z"/><path class="cls-1" d="m902.2,1811.05c-13.51,13.61-39.9,18.31-51.26,7.03-5.93-5.89-6.17-12.75,2.09-21.07,13.51-13.61,39.9-18.31,51.26-7.03,5.93,5.89,6.1,12.82-2.09,21.07Zm-4.97-18.3c-6.87-6.83-24.89-2.3-35.89,8.78-6.18,6.22-6.67,10.48-3.13,14,6.66,6.61,24.68,2.08,35.67-8.99,6.18-6.22,6.67-10.48,3.34-13.79Z"/><path class="cls-1" d="m879.6,1768.4c-1.57,1.92-4.98,5.46-7.13,7.49-3.77,1.28-7.53,2.41-11.56,3.38l-.74-.84c9.7-7.04,10.8-13.98,6.42-18.96-3.23-3.68-7.22-3.43-9.98-1-1.84,1.62-2.78,3.94-3.63,6.99l-2.77,10.45c-.94,3.41-2.91,7.04-5.51,9.33-7.43,6.54-21.35,2.75-27.21-3.91-2.76-3.14-3.82-4.65-5.02-7.4,2.9-2.42,6.94-5.7,10.84-7.91,2.47-.13,5.13-.03,7.58.12l.66,1.05c-7.45,5.74-9.71,9.35-6.07,13.49,2.56,2.91,7.34,4.95,11.02,1.72,2.3-2.02,3.75-5.47,4.42-8.1l2.66-9.95c.94-3.41,2.87-7.55,5.4-9.77,6.36-5.59,18.16-3.75,23.96,2.83,3.91,4.44,5.78,7.96,6.67,10.98Z"/><path class="cls-1" d="m821.68,1723.08l-17.94,6.37c-5.8,2.08-8.29,3-9.52,3.9-1.07.78-1.29,1.7-.69,2.52,1.62,2.23,12.04,5.11,26.9,7.67l19.62-6.84c2.71-.96,2.78-1.9,1.34-3.88l-2.64-3.63.5-.36,7.38,1.82,11.46,15.75-1.01.86c-4.99-3.56-12.85-4.14-20.34-1.6l-21.16,7.32c-4.16,1.39-5.14,3.86-3.36,7.87l.97,2.2-.91.66-20.08-10.61,21.41-6.12-.42-.58c-12.83-1.51-28.05-5.96-31.47-10.66-1.8-2.47-1.61-4.63,1.12-6.61,2.8-2.04,7.32-3.81,14.43-4.95l-.3-.41.31-.1c-12.85-1.37-28.16-5.24-31.52-9.86-1.8-2.47-1.61-4.63,1.12-6.62,2.31-1.68,5.35-2.88,13.89-5.69l20.5-6.84c7.79-2.64,8.54-5.08,5.24-9.62l-1.74-2.39,1.03-1,17.71,12.72-35.91,12.89c-5.8,2.08-8.29,3-9.52,3.9-1.07.78-1.29,1.7-.69,2.52,1.62,2.23,12.04,5.11,26.9,7.67l19.74-6.67c2.77-.88,2.78-1.9,1.34-3.88l-4.26-5.86.49-.36,7.38,1.82,12.78,17.57-1.01.86c-4.73-3.37-12.04-4.23-19.07-1.77Z"/><path class="cls-1" d="m719.14,1680.91l-2.94-5.37,88.85-48.62,2.94,5.37-88.85,48.62Z"/><path class="cls-1" d="m742.4,1583.78l-46.55,18.74,3.92,9.2c3.6,8.67,9.36,11.51,20.86,10.3l.27,1.21c-7.32,3.39-14.21,5.39-21.47,5.67-.33-2.18-2.65-9.05-7.22-20.4l-8.11-20.15c-4-9.94-7.12-16.6-8.41-18.17,3.65-3.23,11.31-5.76,21.33-6.83l.36,1.17c-9.84,5.06-12.16,9.4-7.68,21.89l2.4,6.51,47.31-19.04c5.49-2.21,6.33-4.75,5.34-8.86l-1.84-7.84,5.3-2.13,15.12,37.56-1.48.7c-5.87-8.85-11.32-12.82-19.45-9.54Z"/><path class="cls-1" d="m762.75,1537.55c-3.97,2.04-10.03,3.85-14.63,4.48l-.33-.75c3.3-2.48,4.96-6.91,3.96-10.24-1.58-5.28-7.3-8.04-18.73-8.88l-30.21,23.94c-5.69,4.47-8.69,9.73-8.55,12.35l-1.23.16-6.78-22.67,1.11-.55c2.61,5.18,7.08,5.87,12.96,1.34l21.06-16.09-22.8-1.48c-10.31-.64-13.92,3.63-13.15,9.79l-1.23.16-6.05-20.23,1.14-.45c1.43,2.66,5.04,4.03,14.02,4.86l45.3,4.44c14.03,1.34,21.58,6.64,23.68,13.68.61,2.05.74,4.25.45,6.15Z"/><path class="cls-1" d="m734.82,1485.93l-47.64,9.9c-3.5.73-4.44,2.69-3.6,5.75l.74,2.55-1.16.45-12.15-14.87,9.79-2.03c-6.85-3.37-11.67-9.56-13.04-16.15-2.18-10.49,6.15-20.03,19.13-22.73,17.68-3.67,35.69,3.31,39.78,22.99.37,1.8.67,4.24.67,6.22l5.99-1.25c5.79-1.2,7.67-3.68,6.82-7.77l-1.27-6.09,5.29-1.1,6.23,29.96-1.08.33c-3.12-5.5-7.92-7.52-14.51-6.15Zm-15.33-16.61c-1.91-9.19-11.43-14.92-26.51-11.78-12.68,2.64-17.29,9.53-15.74,17.02,1.2,5.79,5.05,9.79,9.95,11.79l30.96-6.43c1.9-2.89,2.21-6.4,1.34-10.59Z"/><path class="cls-1" d="m693.67,1435.4c-17.83,2.06-32.94-7.79-34.58-21.98-1.35-11.65,7.02-20.11,22.22-20.95l3.93,33.94c1.11-.13,2.34-.17,3.56-.31,13.68-1.58,19.46-8.41,18.28-18.64-.96-8.31-7.56-14.73-15.84-15.31l-.02-1.03c13.24-.92,23.85,6.48,25.26,18.64,1.61,13.88-7.91,23.91-22.81,25.64Zm-16.73-31.95c-7.6.88-12.59,4.74-11.83,11.33.68,5.88,6.21,10.17,14.45,11.27l-2.61-22.59Z"/><path class="cls-1" d="m701.02,1329.92c6.47,3.67,11.26,9.98,11.16,16.6-.11,6.94-4.68,11.76-11.72,11.64-7.34-.12-13.39-4.5-17.37-17.52l-3.39-10.97-6.94-.11c-8.77-.14-12.19,3.17-12.27,8.17-.09,5.81,5.82,12.54,20.24,16.65l.09,1.02c-6.65,1.22-14.71.99-19.9.19-3.59-5.36-6.29-14.89-6.19-20.81.15-9.18,5.95-14.7,16.15-14.53l28.96.47c4.39.07,6.04-1.13,6.08-3.47.04-2.65-2.99-4.54-6.14-4.89l.02-.92c6.75-1.12,12.9,3.27,12.81,9.08-.09,5.71-3.41,8.92-11.58,9.4Zm2.85,13c.07-4.39-2.9-9.74-7.14-12.97l-12.14-.2,3.32,9.03c2.83,7.7,5.86,10.09,9.63,10.15,3.47.06,6.25-1.84,6.32-6.02Z"/><path class="cls-1" d="m696.21,1264.78l-17.37-1.62c-8.63-.8-11.71,2.5-12.29,8.79-.43,4.67,2.37,10.88,6.61,14.85l24.98,2.32c5.89.55,8.42-1.27,8.8-5.43l.18-1.93,5.48.51-2.44,26.2-1.33-.02c-1.39-5.97-5.16-9.5-12.98-10.22l-26-2.42c-3.55-.33-5.04,1.37-5.12,4.44l-.04,2.66-1.24.09-7.26-17.78,10.26.95c-5.08-6-8.6-14.42-8.01-20.72.76-8.12,6.12-12.95,16.58-11.98l26.51,2.46c6.6.61,8.19-1.08,8.58-5.25l.08-.91,5.38.5-2.16,23.26-1.33-.02c-2.25-5.54-4.1-7.66-15.88-8.75Z"/><path class="cls-1" d="m654.98,1198.28l-1.28,6.61-1.22-.13-6.22-22.61,67.1,12.98c3.5.68,5.56-.79,5.94-3.84l.49-4.16,1.16-.09,6.67,20.3-10.92-2.11c5.02,5.75,7.17,13.44,5.89,20.05-2.03,10.52-13.4,16.11-26.42,13.59-17.73-3.43-31.65-16.83-27.83-36.55.37-1.9,1.03-4.27,1.8-6.09l-9.61-1.86c-3.5-.68-4.96.91-5.54,3.92Zm60.02,20.55c1.14-5.91-.87-11.08-4.81-14.85l-30.74-5.95c-2.87,1.94-4.61,5.03-5.44,9.34-1.78,9.21,4.79,18.17,19.92,21.1,12.72,2.46,19.63-2.12,21.08-9.63Z"/><path class="cls-1" d="m679.09,1120.3l46.59,20.69c5.42,2.38,8.26.95,9.93-2.89l2.27-5.14,5.34,2.02-11.3,29.86-1.56-.48c1.32-9.54-.94-13.66-8.92-17.34l-35.62-16.54c-7.51-3.5-9.9-2.66-12.38,2.73l-1.88,4.09-5.34-2.02,9.64-25.47,55.9-2.72-40.08-39.06,9.43-24.9,1.56.48c-1.32,9.54.97,13.57,9.39,16.1l39.84,12.03c5.68,1.71,8.07.87,9.93-2.89l1.55-3.23,5.34,2.02-12.03,31.77-1.56-.48c1.32-9.54-.58-14.62-8.92-17.34l-46.18-14.87,46.28,47.73-.58,1.53-66.65,4.33Z"/><path class="cls-1" d="m753.74,1048.85c-15.82-8.48-22.61-25.19-15.86-37.78,5.54-10.34,17.24-12.52,30.2-4.53l-16.14,30.12c.99.53,2.02,1.2,3.1,1.78,12.14,6.5,20.78,4.19,25.65-4.89,3.95-7.37,2.2-16.41-4.27-21.61l.57-.85c11.4,6.8,15.89,18.93,10.11,29.72-6.6,12.32-20.14,15.13-33.36,8.05Zm4.48-35.79c-6.74-3.61-13.05-3.29-16.18,2.55-2.79,5.21-.7,11.89,5.44,17.49l10.74-20.05Z"/><path class="cls-1" d="m759.35,948.66l-3.7,5.62-1.08-.59,2.87-23.27,57.08,37.58c2.98,1.96,5.44,1.38,6.95-1.29l2.04-3.66,1.11.36-1.58,21.31-9.29-6.11c2.45,7.23,1.5,15.16-2.2,20.78-5.89,8.95-18.53,9.78-29.6,2.49-15.08-9.93-22.85-27.62-11.8-44.4,1.07-1.62,2.58-3.55,3.99-4.95l-8.18-5.38c-2.98-1.96-4.93-1.05-6.61,1.51Zm47.65,41.88c3.31-5.03,3.42-10.57,1.21-15.57l-26.15-17.22c-3.39.7-6.18,2.89-8.59,6.56-5.16,7.84-2.5,18.63,10.37,27.1,10.82,7.12,18.96,5.52,23.16-.87Z"/><path class="cls-1" d="m777.39,906.78c2.48-3.24,6.92-3.82,10.15-1.34,3.24,2.48,3.82,6.92,1.34,10.15-2.48,3.24-6.92,3.82-10.15,1.34-3.24-2.48-3.82-6.92-1.34-10.15Zm48.21,41.89l-19.1-14.66c-2.83-2.17-5-1.52-6.7,1.03l-1.45,2.23-1.1-.58.9-20.78,34.23,26.27c4.69,3.6,7.8,3.41,10.34.09l.56-.73,4.37,3.35-15.4,20.07-1.11-.73c2-5.79.69-10.79-5.54-15.57Z"/><path class="cls-1" d="m864.47,910.84c2.55,6.99,2.12,14.9-2.26,19.88-4.58,5.21-11.18,5.93-16.47,1.28-5.52-4.85-7.29-12.11-1.88-24.6l4.52-10.55-5.21-4.58c-6.59-5.79-11.34-5.48-14.64-1.73-3.84,4.37-3.69,13.32,4.63,25.79l-.6.83c-5.86-3.38-11.84-8.78-15.28-12.75.74-6.41,4.86-15.42,8.76-19.86,6.06-6.9,14.05-7.34,21.72-.61l21.76,19.12c3.29,2.89,5.33,3.05,6.88,1.29,1.75-1.99.66-5.39-1.51-7.71l.61-.69c5.87,3.52,7.71,10.85,3.88,15.22-3.77,4.29-8.38,4.59-14.91-.34Zm-6.25,11.75c2.89-3.3,4.1-9.3,2.96-14.5l-9.12-8.01-3.32,9.03c-2.83,7.7-2.08,11.48.76,13.97,2.61,2.29,5.95,2.65,8.71-.49Z"/><path class="cls-1" d="m900.07,884.78l1.44-21.45c1.23-18.93-.25-26.38-4.34-30.93-3.68-4.1-8.81-4.16-13.43,0-5.62,5.04-7.86,13.23-6.38,21.9l-1.24.29c-5.82-12.74-4.38-23.35,4.42-31.25,7.74-6.95,16.53-7.85,22.32-1.4,6.27,6.98,5.97,15.2,4.36,38.59l-.58,8.2,14.34-12.88c5.39-4.84,6.57-8.1,5.64-10.82l.53-.48c3.52,3.01,6.65,6.64,9.06,10.24-1.93.91-4.28,3.02-9.67,7.86l-25.5,22.9-.97-.77Z"/><path class="cls-1" d="m926.45,824.45c-9.54-12.86-11.33-30.33,2.92-40.91,14.25-10.58,30.62-3.93,40.17,8.93,9.6,12.94,12.58,29.28-3,40.97-15.71,11.53-30.48,3.95-40.08-8.99Zm34.61,1.62c9.36-7.07,11.15-18.18,2.82-29.4-7.9-10.65-18.31-13.72-28.9-5.74-10.71,7.82-10.78,18.67-2.88,29.32,8.33,11.22,19.48,12.73,28.96,5.82Z"/><path class="cls-1" d="m992.36,810.51l5.4-20.8c4.73-18.37,4.66-25.96,1.49-31.2-2.85-4.71-7.88-5.72-13.2-2.5-6.46,3.91-10.18,11.54-10.34,20.34l-1.28.06c-3.35-13.59.04-23.76,10.16-29.89,8.9-5.39,17.7-4.64,22.19,2.77,4.86,8.03,3.04,16.04-2.89,38.72l-2.1,7.95,16.49-9.99c6.19-3.75,7.96-6.73,7.55-9.58l.61-.37c2.9,3.61,5.3,7.76,7,11.74-2.06.53-4.77,2.17-10.96,5.92l-29.31,17.76-.81-.94Z"/><path class="cls-1" d="m1038.57,782.71l7.16-20.27c6.28-17.9,6.86-25.47,4.15-30.96-2.44-4.94-7.36-6.37-12.94-3.62-6.77,3.35-11.13,10.62-12.04,19.38l-1.28-.05c-2.17-13.83,2.07-23.67,12.67-28.91,9.33-4.61,18.03-3.11,21.87,4.66,4.16,8.41,1.66,16.25-6.19,38.33l-2.77,7.74,17.28-8.55c6.49-3.21,8.51-6.03,8.34-8.9l.64-.32c2.58,3.84,4.62,8.19,5.97,12.3-2.1.36-4.93,1.76-11.43,4.97l-30.72,15.19-.73-1.01Z"/><path class="cls-1" d="m1092.93,672.93l5.74-2.11,34.93,95.08-5.74,2.11-34.93-95.08Z"/><path class="cls-1" d="m1195.75,394.84l5.4-4.41c-4.34,29.93,2.29,38.16,19.94,10.97l4.69,3.6c-.09,15.2,1.91,25.38,8.07,36.03l-5.06,4.64c-8.71,7.3-17.79,15.82-26.74,23.45l-5.82,5.35c-.64-33.47-10.58-35.32-23.25-11.59l-4.6-4.78c.94-15.34.36-25.76-4.76-37.17l5.11-4.36c8.99-7.34,18.31-14.45,27.02-21.75Z"/><path class="cls-1" d="m1290.17,469.33l-3.2-4.79c55.03-40.51,58.14-55.05,40.71-63.22l1.76-5.67c17.24,1.24,22.57-11.73,13.09-54.08l6.15-1.68c2.29,5.61,5.45,10.97,8.15,14.3,21.11-42.68-1.97-47.7-32.5-17.38l-3.55-3.66c21.77-18.12,24.55-31.81,15.15-34.06l1.93-3.64c17.41,3.27,44.84,2.77,76.7-9.89l2.38,3.88c-15.59,10.68,17.74,23.48,58.66,3.25l2.88,5.35c-13.8,9.62-5.35,18.45,22.26,19.98-5.9,38.9,3.35,43.74,22.69,7.02l5.37,2.03c-24.99,50.25-17.72,64.79-7.53,73.43l-1.76,5.67c-17.61.18-47.61,52.46-26.59,58.24l-2.88,5.03c-28.41-7.92-86.77,30.39-36.69,21.91l2,5.59c-21.33,4.88-40.98,10.71-59.03,18.94l-2.62-4.76c11.79-9.73-11.92-13.93-58.05,6.59l-3.18-5.08c40.65-20.54-10.96-25.99-55.05-11.12l-2.3-5.32c65.56-37.91,56.53-57.16,15.04-26.86Zm90.77-14.01l3.98-4.11c11.28,15.05,15.85,21.07,29.66,21.83,40.26,2.23,89.7-72.92,16.4-30.53l-2.89-5.06c58.72-34.25,52.98-45.24,23.42-53.22l1.76-5.67c17.97,3.59,25.56-3.2,26.71-13.52,4.23-39.86-60.31-67.37-21.09-15.01l-4.81,3.48c-33.03-39.04-51.02-37.15-62.53-16.73-13.77,24.62-3.88,33.53,15.31,15.27l4.09,4.26c-46.46,47.33-49.53,55.81-26.57,63.14l-2.04,5.66c-12.27-2.41-22.37,2.8-26.17,19.32-10.61,45.85,59.38,58.09,24.78,10.89Z"/><path class="cls-1" d="m1580.99,489.61l3.06,4.11c-22.26,12.76-22.63,20.71-15.41,22.68,13.06,3.55,37.12-11.41,58.48-35.16l3.79,2.52c-12.78,23.99-8.87,38.18-.31,39.61l-.6,5.51c-26.62.23-47.36-.32-70.86,11.5l-2.93-3.48c-10.85-12.79-27.84-22.78-44.41-28.77l-1.6-4.01c31.98-16.68,30.61-42.42-5.44-25.05l-2.02-3.53c39-21.64,45.14-38.78,28.5-52.24l2.17-3.59c28.28,14.54,35.42-17.24,35.2-48.34l4.14-.96c7.77,30.76,18.6,30.41,63.36,7.35l2.53,2.78c12.37,13.8,30.14,29.67,46.4,41.24l-1.06,3.89c-34.26-5.72-39.87,9.47-12.08,17.01-16.98,17.47-46.64,30.01-68.35,39.64l-3.06-4.11c10.93-8.37,11.73-13.53,7.56-14.66-12.51-3.39-53.4,15.35-57.18,29.24-2.26,8.34,6.73,12.57,30.1-3.17Zm20.76-63.3l2.66,3.41c-23.75,17.13-28.06,26.4-22.77,27.84,15.29,4.15,86.18-43.75,50.6-53.41-23.9-6.49-76.7,34.09-61.96,38.09,3.61.98,11.29-2.01,31.48-15.93Z"/><path class="cls-1" d="m1657.29,553.99l.34-4.11c74.88-18.81,67.79-31.43,47.76-30.54l-.91-4.82c68.95-8.93,85.3-20.85,72.92-35.81l4.45-3.77c19.03,16.08,90.57-15.54,45.79-20.06l.3-5.79c23.54-1.23,54.39-4.27,80.62-10.26l1.91,5.39c-32.01,8.01-16.1,21.99,11.45,15.43l1.91,5.39c-36.26,10.24-52.38,67.31-37.01,79.33l-2.84,5.01c-20.59-13.32-33.1,4.08-27.54,78.4l-5.86.99c-2.89-68.5-22.83-12.28-7.47,19.6l-4.2,3.91c-13.65-10.38-21.56-14.53-45.72-18.62l1.44-5.47c17.28-2.46,6.67-11.78-35.14-16.27l.34-4.11c85.66-10.38,69.46-55.98,18.01-46.4l-1.77-5.64c13.42-2.66,11.68-11.26.65-17.51-13.28-7.53-28.61-7.93-44.98-.66-13.73,6.12-17.16,15.1-8.64,19.93,11.02,6.25,20.56,6.36,37.55,2.08l1.77,5.64c-33.62,9.09-26.43,22.1-20.34,26.54l-3.34,4.73c-18.27-13.33-34.98-21.81-49.8-21.93l.06-3.61c17.41-5.03,7.06-14.21-31.75-17Zm157.98-34.61l1.48,3.82c-21.86,11.12-7.38,25.28,14.88,14.06,29.67-14.97,24.41-35.49-9.17-17.11l-1.37-3.42c25.92-12.45,40.88-27.15,53.23-48.95-67.99,27.68-100.94,51.38-91.67,56.63,5.76,3.27,12.59,3.49,32.63-5.01Z"/><path class="cls-1" d="m1985.09,527.72l.47-4.93c17.63-1.87,35.65-1.11,52.54.96-11.86,8.4-.14,29.61,39.13,33.56l-.65,5.15c-60.4-2.44-90.04,22.94-58.79,26.03l-.63,5.56c-45.83,1.42-68.13,20.97-64.65,23.99,4.79,4.15,42.09-2.38,81.3-13.74l.16,5.09c.33,13.25,14.83,27.73,27.08,33.39l.32,4.47c-48.61,11.21-52.57,21.5-4.3,19.9l.32,4.47c-64.52,8.47-69.23,22.68-61.68,39.91l-3.51,2.29c-18.14-22.6-38.75,3.37-48.14,26.49l-4.37-1.12c8.61-31.03,1.39-40.73-64.81-38.67l-.4-5.69c-1.33-18.69-13.66-37-43.96-52.61l2.15-4.24c43.13,12.25,79.07-16.44,34.61-15.73l.71-4.34c49.4-2.9,46.94-14.57,43.11-22.46l3.51-2.29c11.53,15.72,38.14-.47,36.85-35.9l6.12-.03c.21,23.06,2.84,22.66,29.93,4.61,26.31-17.59,23.54-30.66-2.43-34.13Zm-86.24,153.94c17.41,15.1,55.51,11.16,69.66-5.16,1.32-1.52,1.42-2.96.99-3.34-2.39-2.08-22.33-1.07-45.59,2.02l-.91-4.22c77.61-13.89,104.87-32.57,97.47-38.98-18.06-15.66-100.54,7.35-135.02,27.77-1,5.99,5.35,14.93,13.4,21.91Z"/><path class="cls-1" d="m2003.97,736.16l-.75-4.58c77.97-23.21,86.48-41.98,55.23-46.66l1.64-3.92c9.3-.87,40.15,3.77,53.98,6.65-13.5,5.76-16.3,16.93,19.02,25.73l-.77,5.45c-42.77-6.09-68.18,13.78-37.29,19.87l-1.22,5.81c-21.88-2.28-36.72,4.57-53.71,18.36-9.62,7.8-15.28,20.93-11.47,25.63,6.35,7.83,33.71,2.69,65.06-17.18l1.91,3.27c-10.55,8.93-12.36,14.48-9.64,17.83,4.54,5.59,17.79,4.11,31.44-6.96,15.43-12.52,14.59-24.07-5.07-37.79l.87-4.41c17.28,1.19,40.57,5.66,56.04,12.39-14.93,7.66-14.64,16.7,14.43,24.64l-.65,4.23c-50.79,5.97-70.27,18.07-71.83,33.06l-3.86,1.65c-36.3-13.2-70.43-11.84-61.72,4.83l-3.17,2.95c-78.78-41.78-117.33-9.76-41.27,22.73l-.81,5.85c-18.36-.68-29.47,5.74-20.19,20.83l-4.97,2.55c-14.04-20.5-30.62-38.2-48.03-44.11l1.15-3.16c21.05,6.29,15.42-14.36-30.72-39.24l1.72-4.73c35.53,18.65,43.08,5.1,28.68-2.13l3.26-3.76c53.2,18.03,79.21,6.2,70.5-4.53-2.72-3.35-7.43-7.33-15.5-10.42l.38-3.65c48.03-14.86,55.41-32.72,17.36-27.06Z"/><path class="cls-1" d="m2046.37,854.16l4.02-1.68c9.58,20.42,17.06,14.39,18.68-4.56l39.72-4.5.79,4.21c-23.78,17.54-32.92,45.88-25.08,59.31,7.55,12.94,15.8,12.79,23.9,8.4,19.34-10.28,46.66-74.9,1.22-27.05l-4.46-3.07c18.64-25.21,28.96-33.23,26.7-50.25l3.88-1.93c8.48,13.39,27.92,2.72,27.88-13.93l4.02-1.68c19.01,12.58,38.81,25.37,61.94,35.88,1.78,15.63,7.01,32.59,16.56,50.69l-4.95,1.22c-14.33-27.99-19.4-12.69-15.61,4.1-8.91,1.87-30.16,6.59-43.1,10.14l-1.97-4.52c26.68-16.56,30.95-46.39,24.28-57.84-4.93-8.46-11.84-9.43-21.29-3.92-25.12,14.66-38.7,62.25-5.7,29.67l4.31,2.82c-29.6,37.27-35.43,49.01-36.22,56.8l-5.53.23c-2.38-22.95-29.85-18.59-33.6,5.27l-4.39-.1c-8.93-12.46-24.94-28.46-44.88-41.5,1.97-11.48-3.65-36.55-11.11-52.2Z"/><path class="cls-1" d="m2108.22,956.37l4.22-1.1c6.62,21.56,14.87,16.64,19.13-1.89l39.96,1.12.19,4.28c-26,14.03-39.03,40.8-33.16,55.2,5.66,13.87,13.84,14.88,22.49,11.67,20.59-7.47,56.72-67.61,5.01-26.61l-3.98-3.66c21.99-22.34,33.34-28.84,33.49-46.01l4.11-1.37c6.52,14.45,27.27,6.61,29.56-9.88l4.22-1.1c17.06,15.13,34.86,30.57,56.29,44.22-.43,15.73,2.36,33.25,9.29,52.51l-5.08.52c-10.26-29.72-17.43-15.29-16.03,1.87-9.09.6-30.79,2.29-44.1,3.99l-1.32-4.75c28.74-12.66,37.16-41.59,32.15-53.86-3.7-9.07-10.4-11-20.53-6.87-26.93,10.99-47.06,56.21-9.81,28.57l3.87,3.4c-34.54,32.75-41.96,43.55-43.83,51.16l-5.51-.55c.86-23.06-26.95-22.6-34.01.5l-4.34-.72c-7.1-13.59-20.7-31.68-38.61-47.39,3.56-11.09,1.52-36.7-3.67-53.24Z"/><path class="cls-1" d="m2325.89,1093.22c-14.53-.25-20.97,13.02,5.66,31.49l-2.39,3.79c-49.74-25.34-72.13-23.81-70.67-17.35.7,3.09,8.88,9.21,28.11,21.09l-1.98,4.29c-61.43-33.92-101.62-30.12-99.39-20.29,5.67,25,85.09,60.15,111.22,54.23,14.04-3.18,15.26-17.34,1.51-27.21l1.76-3.94c14.11,6.25,25.67,14.26,39.15,24.2-12.32,10.77-10.49,31.91,1.35,52.85l-4.24,2.14c-29.75-25.74-61.4-25.95-73.19-7.62l-4.19-.23c-1.08-11.27-9.12-14.17-20.84-15.06-10.53-.86-20.3,1.65-8.03,15.4l-2.86,3.01c-22.91-19.02-35.54-13.5-32.49-.02l-4.56.74c-2.89-11.45-9.4-29.76-21.44-54.2l3.08-3.35c31.8,21.73,57.57,15.59,56.55,11.1-1.4-6.18-30.17-19.74-73.62-35.58l3.73-4.39c8.83-10.56,8.89-32.43-2.78-44.85l2.73-3.57c45.53,19.8,54.82,13.86,15.38-12.93l2.45-3.51c51,28.3,69.71,26.13,72.45,3.07l4.19.23c1.92,26.73,56.12,18.29,29.73-1.72l3.7-3.2c15.03,9,28.67,20.96,39.9,31.41Z"/><path class="cls-1" d="m2344.78,1334.03l-.08,4.9c-1.96,14.08,3.28,46.14,7.15,56.57l-4.06,1.66c-24.88-46.78-51.56-35.4-11.31,4.42l-3.22,3.12c-36-36.01-49.85-34.51-49.93-29.61-.12,7.2,18.91,23.93,59.98,49.36l-.08,4.9c-1.96,14.08,3.28,46.14,7.15,56.57l-4.06,1.66c-24.88-46.78-55.29-36.33-11.35,7.31l-3.22,3.12c-19.57-18.75-61.57-39.88-46.42-14.87l-3.79,2.53c-26.56-32.12-33.49-30.5-38.96-13.31l-4.3-1.22c2.35-20.7-17.17-24.47-42.56-4.15l-4.57-2.38c.13-7.77-2.48-24.81-8.91-36.72l3.78-1.96c13.58,15.49,18.78-3.73,3.94-29.89l3.78-2.24c16.59,24.75,58.56,47.61,58.71,38.69.07-4.03-3.32-8.41-18.31-25.64l2.93-3.12c28.31,30.42,50.87,42.59,64.98,42.82,9.79.16,14.73-2.64,14.85-10.13.43-26.78-95.77-98.04-96.34-62.91-.14,8.35,3.77,16.19,8,21.73l-2.93,3.12c-16.5-12.65-27.67-16.58-29.24-8.83l-4-2.08c2.31-18.11-.29-35.15-8.7-49.97l3.78-1.96c13.57,15.49,18.78-3.73,3.94-29.89l3.78-2.24c16.59,24.75,58.56,47.61,58.71,38.68.07-4.03-3.32-8.41-18.31-25.64l2.93-3.12c28.31,30.42,50.87,42.59,64.98,42.82,9.79.16,14.73-2.64,14.85-10.13.43-26.78-95.77-98.05-96.34-62.91-.14,8.35,3.77,16.19,8,21.73l-2.93,3.12c-16.5-12.65-27.67-16.58-29.24-8.83l-4-2.08c2.31-18.11-.36-31.11-8.5-44.21l3.5-2.54c15.59,15.52,16.35-13.85,3.5-37.96l3.78-1.96c18.65,40.05,63.62,55.47,25.19,9.91l3.49-2.25c40.12,48.47,54.3,43.8,63.27,24.07l4,1.79c-3.68,31.34,56.42,37.5,25.31,2.43l3.78-1.96c14.23,10.89,27.78,27.81,37.09,39.78-14.04-4.26-23.42,5.38-2,34.82l-3.23,3.69c-39.78-33.48-68.15-42.87-68.28-34.81-.11,6.62,41.47,35.81,60.03,46.2Z"/><path class="cls-1" d="m2295.76,1676.12l-2.35,4.38c-16.31-2.02-21.39,22.68-13.13,59.35l-4.73.57c-17.15-69.6-47.17-60.36-10.07,8.51l-4.27,1.93c-23.6-44.43-53.68-70.99-41.56-26.68l-4.09,1.38c-19.45-53.38-26.2-54.99-41.04-34.7l-3.74-2.44c18.9-31.69-10.81-34.47-44.87-13.83l-3.57-2.99c12.04-16.36,14.62-30.67,5.15-51.66l4-1.11c20.38,37.62,27.92,12.81,15.73-25.75l4.37-1.29c14.58,43.29,53.73,81,56.6,72.25,1.26-3.83-1.6-11.74-17.49-41.82l4-2.02c20.3,38.8,37.5,56.58,50.08,60.71,8.76,2.88,13.58,1.12,15.64-5.17,8.63-26.27-62.49-126.32-73.45-92.94-2.79,8.48-1.28,19.59,3.86,29.76l-3.81,2.38c-14.94-21.88-22.34-27.04-29.77-17.36l-3.2-3.17c10.94-18.54,11.99-29.11,3.59-52.48l4.09-1.38c14.52,29.63,26.45,8.08,16.07-31.4l4.19-.75c12.08,53.68,46.59,73.2,20.26,9.38l4.37-1.29c29.09,70.18,41.29,69.95,59.85,45.73l3.29,2.9c-21.05,38.25,46.21,70.65,20.01,14.76l3.91-1.75c10.28,17.62,18.17,32.34,27.64,50.61-17.25-7.48-29.88-2.24-8.09,44.03l-3.81,2.38c-36.22-55.85-66.48-82.77-69-75.11-2.07,6.29,30.28,50.87,55.34,76.08Z"/><path class="cls-1" d="m2117.22,1856.12l-2.97-2.96c9.48-13.52,7.65-22.1-.69-32-7.84-9.62-15.9-14.09-18.62,10.42l-4.14.34c-.08-37.26-7.55-43.38-24.21-21.67l-3.89-2.49c11.07-17.57,17.61-34.7,17.06-63.98l4.53-.45c12.94,40.78,40.23,65.8,42.47,61.77,3.07-5.54-14.07-47.66-38.84-86.11l4.17-.98c21.41,11.88,37.99-4.94,31.93-34.98l4.31-1.23c25.46,61.56,37.24,60.52,21.57-.88l4.17-.98c21.77,69.39,34.22,70.7,57.65,50.43l2.97,2.96c-26.42,29.8-3.22,44.98,33.51,51.2l-.19,4.5c-40.82-4.2-45.06,4.64-22.81,77.92l-2.91,1.68c-18.47-17.17-29.79,3.23-29.88,38.42l-4.36-.45c-2.32-51.02-19.19-54.45-20.45,1.83l-4.22-.7c.06-52.34-21.13-69.36-46.13-51.62Zm60.79-1.51c6.07-.25,12.89-6.02,18.06-15.34,11.18-20.15-1.15-63.22-20.04-73.7-2.01-1.12-3.69-1.06-4.11-.31-1.68,3.02,2.81,18.68,15.3,57.9l-4.2,1.62c-29.08-82.34-54.27-105.21-60.13-94.63-11.71,20.51,28.02,94.93,55.11,124.45Z"/><path class="cls-1" d="m2149.28,1965.2c-13.7-12.81-27.89-11.47-21.91,36.45l-4.46.42c-13.22-68.09-30.78-97.93-35.36-92.38-2.2,2.66-1.64,15.09,1.31,41.81l-4.83.87c-10.09-69.62-34.17-96.99-42.24-87.22-16.33,19.76,4.77,112.67,25.41,129.74,11.1,9.17,20.96-5.47,18.79-32.67l4.64-.65c4.83,27.16,6.14,40.94,10.52,56.89-18.76-5.79-33.49,7.07-39.42,45.88l-4.65-1.6c1.97-52.55-17.28-78.55-50.99-71.67l-2.15-3.27c16.48-9.54,15.19-18.83,8.51-28.83-6.23-9.64-14.22-13.99-21.58,7.57l-3.99-1.05c10.79-39.28.78-45.69-30.84-29.6l-3-3.6c25.87-14.12,34.18-27.79,41.28-60.79l4.94.35c2.52,48.04,27.42,79.83,30.36,76.28,4.04-4.88-6.77-60.52-20.77-104.61l5.68-.54c14.78,17.83,33.01,3,35.7-26.91l4.5-.02c8.79,58.08,23.35,67.13,20.58,1.32l4.28-.2c7.07,72.36,18.8,81.68,44.25,65.35l2.37,3.46c-31.61,24.69,17.05,76.12,14.63,24.79l4.35.61c1.71,22.34,1.59,38.31,4.09,53.82Z"/><path class="cls-1" d="m1989.23,2157.28l-4.83-1.12c21.74-61.09,12.96-77.55-27.5-17.21l-4.19,1.78-24.31-42.31,5.49-2.92c20.68,25.15,27.01,21.87,38,2.56,18.42-23.96,9.75-68.56-41.34-27.66l-2.4-4.03c33.2-25.49,34.44-38.88,19.5-71.02-9.36-20.17-25.42-30.96-16.09,35.73l-4.52.54c-12.68-85.25-33.06-52.65-9.83,23.67l-4.38,1.57c-14.29-36.18-23.68-45.95-32.8-37.12l-2.83-3.64c11.41-16.23,20.22-33.23,25.58-57.18,21.46,6.02,42.58,4.27,51.32-14.98l4.45.68c0,39.58,8.56,56.23,20.03,12.67l4.23.87c-13.28,56.31-5.24,71.5,29.11,53.83l1.81,3.79c-32.06,20.25-15.62,64.53,4.88,46.41,6.26-5.53,4.55-17.47-2.38-34.02l4.22-2.19,19.06,38.11c-31.9,14.35-30.03,26.91,5.21,31.13l-.71,4.85c-32.99-4.29-31.64,6.82-9.95,22.24-4.53,17.06-12.53,37.58-21.95,61.28l-4.16-2.09c12.78-64.7.67-76.67-18.7-24.21Z"/><path class="cls-1" d="m1894.07,2018.68l4.11,1.33c-13.86,62.71-10.81,83.48,19.57,72.58l1.39,3.96c-15,6.72-17.92,22.55-15.43,34.54,3.07,15.82,16.42,24.72,22.68-9.33l3.48,1.42c-.05,9.91-7.79,39.37-9.44,55-7.36-14.9-18.33-18.43-29.68,30.86l-4.89-.42c6.94-64.52-.58-117.05-19.06-53.89l-3.88-1.49c15.17-64.34,4.32-69.72-21.79-57.25l-1.39-3.96c32.23-19.26,10.51-47.99-22-41.59l-1.32-4.36c13.89-6.29,22.06-14.19,29.06-35.72l4.11,1.33c-8.79,31.96,10.96,26.47,27.99-13.79l3.81,1.89c-18.92,50.06-3.47,94.87,12.67,18.91Zm62.68,195.89c-11.22,7.58-14.4,14.06-14.67,30.13l-2.93,3.84c-7.98-31.74-14.03-33.81-18.76,3.39l-4.58-.99c-1.68-20.33-6.47-26.11-24.6-28.81l1.39-4.51c12.35-6.97,15.03-14.16,18.06-31.82l2.83-4.47c8.8,35.4,15.85,32.89,20.15.56l4.68,1.63c1.55,18.66,5.31,24.47,19.99,26.78l-1.56,4.28Z"/><path class="cls-1" d="m1737.43,2170.56l-4.49.77c-5.88-45.19-13.91-46.78-32.68-31.19l-3.32-3.77c29.84-25.43,45.83-38.88,48.41-71.93l4.78.38c18.39,22.17,42.21,21.52,58.83-1.74l3.92,1.83c-18.03,56.67,1.37,64.25,19.97,9.25l3.9,1.18c-17.09,53.55-11.77,69,15.1,66.71l.89,4.1c-38.36,10.71-18.92,38.53,5.83,62.2l-2.35,3.54c-31.42-22.72-44.41-7.93-54.39,41.82l-4.64-.13c-16.71-17.19-35.08-15.53-66.84-3.45l-2.04-3.81c39-24.78,28.88-37,7.04-25.32,6.43-24.01,12.95-44.81,22.23-72.63l4.52.52c-4.52,32.46-2.88,50.2,2.42,60.1,5.98,11.17,14.84,14.93,23.73,10.17,25.65-13.72,28.87-79.77,15.66-72.71-3.81,2.04-10.5,16.39-19.66,53.62l-4.27-.66c22.17-84.36,2.14-133.41-15.7-60.51l-4.66-.77c10.42-80.68-24.2-36.7-22.17,32.43Z"/><path class="cls-1" d="m1711.34,2132.3l3.66,2.3c-28.92,57.34-31.09,78.23,1.04,75.16l.37,4.18c-16.19,2.81-22.93,17.42-23.49,29.66-.93,16.09,9.81,28.01,24.28-3.44l3.02,2.24c-2.49,9.59-17.27,36.23-22.73,50.96-3.45-16.26-13.21-22.39-36.38,22.58l-4.63-1.62c22.65-60.81,28.34-113.57-5.16-56.93l-3.39-2.4c30.59-58.6,21.4-66.49-6.98-60.86l-.37-4.18c35.99-10.71,22.03-43.91-11.05-45.73l-.2-4.55c15.02-2.67,24.89-8.3,36.99-27.43l3.66,2.3c-16.41,28.8,4.08,28.35,30.53-6.46l3.22,2.78c-30.7,43.84-26.79,91.07,7.6,21.45Zm12.36,205.3c-12.74,4.57-17.42,10.07-21.66,25.57l-3.79,2.99c.1-32.73-5.25-36.23-19.02-1.35l-4.2-2.09c3.4-20.11.18-26.9-16.73-33.99l2.47-4.03c13.69-3.71,18.06-10.01,25.36-26.37l3.85-3.63c-.21,36.47,7.23,35.78,19.39,5.52l4.13,2.73c-3.1,18.46-.9,25.02,12.76,30.89l-2.57,3.76Z"/><path class="cls-1" d="m1635.02,2146.25l.87,4.54c-34.76,4.75-31.92,12.35-5.73,21.69l-4.75,45.22-4.26-.39c-7.69-35.79-32.8-52.54-51.5-48.93-14.65,3.16-18.43,12.76-15.64,23.64,5.39,24.48,76.35,80.91,20.95-.62l4.17-3.45c27.33,36.99,31.93,46.81,58.75,47.07l.79,4.26c-36.43,5.18-23.48,32.49,4.42,36.92l.44,4.05c-24.53,9.86-43.49,27.51-57.87,51.42-12.84-9.49-26.88-9.75-63.66-3.59l.18-5.1c44.31-6.91,36.64-15.94,11.28-17.46,1.76-9.37,2.55-28.31-1.01-50.29l4.89-.66c10.58,38.91,38.6,51.94,52.27,48.43,9.49-2.43,13.78-8.89,10.56-20.25-8.51-32.01-70.44-72.91-20.71-5.39l-3.89,3.38c-34.58-45.54-43.43-53.38-63.44-59.54l1.29-5.39c31.9,8.47,41.47-14.5,2.96-41.79l1.65-3.99c23.51,7.05,41.31-7.03,55.68-32.12,9.22,11.61,29.63,13.51,61.31,8.35Z"/><path class="cls-1" d="m1298.87,2265.08l1.03-4.07c23.68,1.57,30.17-2.67,35.51-16.09,5.64-13.14,5.68-21.21-23.09-10.51l-2.41-3.38c40.89-19.14,41.77-28.1,6.21-31.89l.14-4.62c29.45,1.96,42.91-.77,69.8-25.52l2.71,3.66c-29.1,36.93-45.8,83.26-41.2,83.12,6.33-.2,39.87-42.74,59.14-89.73l3.25,2.49c-6.32,37.37,18.58,41.2,48.97,8.84l3.27,3.07c-51.25,65.57-42.8,77.98,12.2,21.52l2.98,3.08c-54.92,58.77-51.74,68.47-9.61,79.83l-1.03,4.07c-49.59-10.26-54.1,11.49-36.48,58.77l-3.97,2.14c-18.98-44.93-26.43-43.55-81.34,25.02l-3.23-1.92c21.7-43.32-11.34-40.27-51.88-9.61l-1.85-3.98c51.79-39.37,48.72-54.54-9.91-22.17l-1.28-3.99c59.15-34.41,61.98-54.38,22.07-68.12Zm114.6-2.43c-4.32.13-13.79,10.52-53.64,53.83l-3.84-3.05c64.9-71.47,71.88-106.27,56.91-105.8-23.6.74-66.32,72.09-77.8,110.49,3.33,5.08,11.78,7.99,22.43,7.65,23.03-.72,58.77-37.28,58.09-58.87-.08-2.59-1-4.29-2.15-4.25Z"/><path class="cls-1" d="m1307.54,2182.26l2.66,3.61c-62.97,54.26-59.23,69.97,7.33,24.7l2.37,3.56c-66.23,48.82-60.86,59.53-29.7,75.03l-1.74,3.81c-41.21-16.43-49.76,3.54-40.97,53.22l-4.29,1.39c-10.98-46.81-18.14-47.6-90.09,4.43l-2.79-2.75c32.12-37.08,5.38-45.21-11.25-14.23-16.7,29.51-3.52,36.75,63.6,7l1.35,4.57c-48.58,22.65-62.7,31.29-79.39,45.37,8.55-23.76-1.11-33.08-51.81-.27l-2.81-4.5c32.37-23.36,46.49-41.61,55.64-59.74,8.24-15.94,5.35-21.91-28.47-19.75l.28-3.74c47.5-5.92,86.5-42.25,29.77-63.95l1.74-3.81c29.47,7.37,36.53,1.16,42.96-8.65,8.12-11.3,8.93-20.5-19.68-14.34l-1.76-3.76c45.1-11.23,44.05-21.59.24-34.33l1.26-4.47c39.09,11.16,51.31,11.26,84.3-8.51l2,4.09c-35.66,31.6-60.08,73.63-55.81,74.28,6.27.95,47.94-33.82,74.08-77.63l2.55,2.42c-12.88,35.04,12.11,43.19,48.41,16.94Zm-62.3,76.79c-3.99-.6-15.36,5.25-61.58,43.11l-3.31-3.12c80.79-66.13,87.64-92.18,73.97-94.25-24.49-3.71-77.83,58.13-96.05,93.82,1.81,7.26,12.36,12.65,21.47,14.03,22.78,3.45,64.46-27.53,67.69-48.89.39-2.56-.78-4.49-2.2-4.7Z"/><path class="cls-1" d="m978.51,2187.69l4.88-3.79c28.53,24.96,68.75-26.06,57.7-31.7-5.13-2.64-14.33-.49-61.9,26.31l-3.17-5.55c50.39-23.95,53.61-31.03,35.88-49.82l3.86-3.63c28.14,21.62,42.78,27,92.56,10.68l.86,5.77c-68.15,24.75-66.69,36.16,29.55,17.83l.22,5.79c-137.25,27.88-138.25,55.88-30.21,19.19l1.24,5.62c-90.67,25.6-94.67,32.32-64.26,55.92l-3.69,4.65c-35.46-24.31-44.7-13-45.63,47.61l-6.2-.28c-.56-14.8-1.6-28.55-2.32-37.42-50.54,50.76-37.87,61.88,38.78,30.24l1.89,5.6c-49.51,19.92-54.73,25.14-27.86,40.49l-3.57,4.39c-34.36-19.07-44.35-20.75-83.17-7.68l-1.62-5.48c39.53-14.64,41.97-31.88-30.19-21.29l-.34-5.53c82.22-17.42,110.94-52.14,15.07-24.16l-2.39-5.19c94.61-23.81,97.04-27.77,56.42-55.37-26.52-19.62-35.93-16.3,16.11,30.71l-3.74,3.36c-63.71-62.42-70.74-60.87-72.7-.09l-4.77.05c-.82-14.92-1.17-27.41-2.58-37.54-49.25,50.71-37.06,66.36,39.21,27.9l2.77,5.05c-51.82,23.61-56.25,29.2-29.16,43.38l-4.1,4.15c-33.15-17.56-45.35-19.94-82.91-7.56l-1.36-5.36c39.53-14.64,37.75-34.42-30.05-20.9l-.58-5c74.93-15.98,116.01-57.75,13.33-18.94l-2.39-5.19c115-43.66,124.71-52.54,86.91-84.23l3.98-3.89c28.48,20.19,71.25-28.09,60.87-33.11-4.2-1.9-26.52,7.58-58.95,26.07l-3.03-5.17c46.77-24.32,44.93-32.12,28.4-50.05l5.26-3.94c22.64,22.6,42.59,28.81,91.18,11.63l1.12,5.89c-66.84,25.34-62.68,36.4,29.55,17.83l.22,5.79c-133,27.59-132.68,49.87-28.61,24.02l1.24,5.62c-94.06,21.21-100.61,28.68-64.31,54.63,31.05,23.57,38.56,17.49-8.94-28.4l5.26-3.94c63.96,72.34,82.04,56.19,40.35,24Z"/><path class="cls-1" d="m702.38,2139.89l-.97-3.98c40.87-13.56,25.09-42.4-23.06-45.5v-4.32c84.52-7.36,75.59-29.96-1.15-21.43v-4.32c79.92-7.95,87.13-15.13,64.16-48.3l3.35-2.53c31.2,37.56,52.67,13.36,62.68-31.03l4.43.82c-6.83,40.65,10.03,49.38,74.69,33.91l1.2,4.15c-27.05,18.2-21.76,48.51,26.05,47.75l.39,4.26c-71.91,12.17-84.99,39.1-5.07,28.27v4.32c-67.02,9.01-76.65,16.54-55.47,48.73l-3.58,2.35c-28.49-37.33-48.17-20.78-64.4,27.57l-4.2-.64c11.15-43.52.68-49.25-79.06-40.09Zm148.54-100.48c-35.19-26.51-92.06,7.81-80.79,16.3,4.14,3.12,18.49,1.31,70.46-9.29l1.37,3.92c-73.3,16.89-77.06,20.92-65.54,47.26l-4.27,1.83c-12.39-22.32-18.43-25.79-26.34-19.12-13.44,11.15-14.75,28.19-2.79,37.2,33.81,25.47,89.86-1.54,80.43-8.64-2.99-2.25-12.67-2.33-68.33,8.38l-.85-4.61c68.74-11.31,77.51-17.69,67.61-47.14l4.04-2.01c8.59,21.62,13.66,22.55,24.62,14.22,11.48-9.02,13.25-28.6.37-38.3Z"/><path class="cls-1" d="m786.29,1948.11l-.71,4.26c-51.9-1.83-25.53,20.38,16.85,28.51l-1.32,4.04c-70.67-18.15-106.83,3.61-15.17,12.89l-.51,4.47c-86.4-7.52-92.69.07-72.99,37.41l-3.71,1.95c-15.34-23.58-37.3-25.32-48.81-20.7-22.36,6.61-14.4,23.29,22.82,26l-.91,4.05c-26.68-.42-42.55-1.2-58.96,3.71,15.86-16.33,16.74-27.52-46.1-32.04l1.52-4.24c56.15-5.41,132.95-22.97,125.19-31.09-5.96-6.25-78.54,4.89-130.08,22.22l-1.52-4.52c52.29-23.22,42.62-36.69-8-23.82l-1.11-4.92c51.99-19.36,79.86-26.45,131.88-29.51l.51,4.29c-57.82,7.41-74.06,22.1-68.69,27.73,10.74,11.25,132.62-9.12,109.76-33.08-9.35-9.79-31.37-17.44-66.94-12.16l-.3-4.49c37.62-6.05,49.21-13.52,45.15-40.3l4.27.3c8.64,31.17,30.32,53.88,67.88,59.03Z"/><path class="cls-1" d="m708.73,1865.09l-1.29,4.12c-51.17-8.9-28.08,16.71,12.8,30.54l-1.86,3.83c-67.53-27.64-106.32-11.02-16.79,10.69l-1.12,4.36c-84.56-19.25-91.83-12.59-77.41,27.08l-3.94,1.42c-11.97-25.46-33.49-30.18-45.53-27.17-23.05,3.49-17.44,21.11,19.05,28.87l-1.45,3.89c-26.37-4.06-41.98-7-58.91-4.38,17.95-14.01,20.34-24.97-41.29-38.04l2.09-3.99c56.36,2.31,134.84-4.59,128.26-13.7-5.06-7.01-78.47-5.89-131.89,4.24l-.89-4.68c54.97-15.86,47.23-30.52-4.67-24.69l-.43-5.02c54.15-12.07,82.72-15.29,134.67-11.21l-.08,4.32c-58.29-.56-76.38,11.78-71.83,18.08,9.1,12.61,132.62,9.08,113.25-17.78-7.92-10.98-28.69-21.56-64.65-21.19l.31-4.49c38.1-.85,50.59-6.67,50.23-33.75l4.19.88c4.3,32.05,22.67,57.51,59.18,67.75Z"/><path class="cls-1" d="m414.11,1764.97l.91-3.99c42.62,6.17,41.42-26.68-.24-51l1.94-3.86c78.87,31.26,80.99,7.05,8.56-19.68l1.94-3.86c75.01,28.67,84.68,25.48,78.99-14.46l4.12-.76c11.07,47.56,41.12,35.53,69.94.32l3.6,2.71c-24.31,33.29-13.14,48.65,51.6,63.77l-.78,4.25c-32.34,4.16-41.18,33.63,1.91,54.36l-1.56,3.99c-69.75-21.32-93.5-3.09-17.19,23.01l-1.94,3.86c-63.95-21.94-75.94-19.53-71.41,18.74l-4.25.5c-8.76-46.13-33.76-40.15-69.93-4.19l-3.47-2.46c29.46-33.92,22.66-43.73-52.74-71.24Zm177.81-23.33c-19.6-39.47-85.81-34.24-79.54-21.6,2.31,4.64,15.94,9.45,67.17,23.24l-.53,4.12c-73.11-17.72-78.27-15.8-79.76,12.92l-4.64-.27c-1.09-25.5-4.94-31.31-14.99-28.89-17.01,3.95-25.81,18.6-19.15,32.02,18.83,37.92,81.03,38.86,75.78,28.29-1.67-3.35-10.28-7.76-64.85-23.11l1.3-4.5c66.53,20.66,77.23,18.89,81.56-11.88h4.51c-2,23.19,2.12,26.29,15.65,23.75,14.3-2.92,24.65-19.64,17.48-34.08Z"/><path class="cls-1" d="m575.08,1631.18l-2.55,3.49c-45.54-24.96-31.97,6.73,2.24,33.04l-2.99,3.02c-54.97-47.98-97.05-44.79-19.34,4.69l-2.47,3.76c-73.8-45.55-82.83-41.59-82.01.61l-4.19.07c-3.1-27.96-21.94-39.38-34.3-40.43-22.94-4.15-23.33,14.34,8.7,33.48l-2.63,3.21c-23.64-12.36-37.47-20.19-54.33-23.18,21.51-7.46,27.32-17.06-26.78-49.34l3.27-3.1c52.58,20.4,129.08,39.24,125.8,28.49-2.52-8.26-72.35-30.94-126.18-38.62l.67-4.72c57.14,2.76,54.56-13.62,3.56-24.87l1.22-4.89c55.14,6.07,83.22,12.27,131.06,32.91l-1.47,4.06c-54.98-19.37-76.08-13.54-73.82-6.1,4.53,14.88,122.57,51.46,112.91,19.78-3.95-12.95-20.19-29.68-54.33-40.95l1.75-4.15c36.33,11.51,50.03,10.04,58.44-15.71l3.68,2.19c-6.29,31.72,2.86,61.75,34.1,83.24Z"/><path class="cls-1" d="m473.04,1475.15l2.56-4.44c20.53,15.39,40.9,19.45,39.84,12.04-1.72-11.97-24.98-32.21-81.94-64.2l1.38-4.56c53.98,27.47,60.25,22.5,59.21-17.21l4.56-.65c5.07,51.64,10.17,75.06,50.66,85.55l-1.1,4.52c-40.61,6.98-37.09,29.46-20.18,54.1l-3.05,3.06c-61.11-38.67-69.25-24.41-14.98,19.31l-2.44,3.26c-58.59-45.43-71.87-46.73-79.59-9.25l-4.15-.57c4.91-44.93-11.38-42.88-58.7-23.88l-2.53-3.42c40.52-21.81,19.45-42.94-28.09-64.06l.61-3.87c34.13-5.47,38.07-22.62,34.02-69.17l4.03-.29c12.33,65.73,25.56,60.64,23.06,18.81,14.3,10.46,30.31,26.79,70.24,53.65l-2.56,4.44c-17.07-11.52-44.61-25.03-44-20.75,1.96,13.68,63.28,59.89,77.53,57.85,8.55-1.23,3.13-12.67-24.41-30.25Zm-100.2-12.99c3.51,24.52,73.67,63.35,71.5,48.24-.61-4.28-5.91-8.75-56.84-41.32l2.65-3.87c52.23,35.58,85.8,46.48,85.02,41.06-1.88-13.11-107.56-80.6-102.33-44.11Z"/><path class="cls-1" d="m340.98,1285.45l1.57-4.78c31.2,10.21,31.69-8.83-2.1-66.09l4.22-1.95c47.36,77.51,61.59,53.3,14.51,2.7l3.43-2.88c45.13,46.39,59.56,46.77,59.98,41.89.5-5.74-20.41-28.07-73.55-62.14l1.57-4.78c31.18,10.5,31.52-6.82,2.06-64l4.76-1.61c43.48,78.91,66.87,55.78,3.87-14.7l4.03-3.12c47.29,54.96,77.88,68.88,48.48,14.3l3.95-2.26c36.6,61.55,43.41,63.01,56.68,33.22l4.21,1.52c-18.5,50.15,21.42,36.54,51.31-1.64l4.39,2.69c-15.56,29.59-15.14,41.47,7.07,65.36l-3.69,2.57c-44.17-47.46-40.95-14.52-12.81,27.8l-3.93,1.97c-2.33-3.09-4.38-6.16-6.74-8.96-8.89,22.65-7.49,33.17,11.8,60.86l-3.9,1.69c-26.28-33.78-40.35-14.76-5.97,35.62l-3.93,1.97-5.64-8.29c-9.23,23.2-7.94,31.69,10.09,57.24l-3.67,2.28c-26.07-32.89-36.91-14.46-9.47,32.71l-3.9,1.69c-32.59-57.74-66.91-65.33-22.05.99l-3.95,2.26c-43.46-69.08-57.94-65.42-73.04-31.17l-3.87-2.07c17.31-53.14-69.51-75.38-21.19-15.71l-3.64,2c-17.3-20.57-27.24-32.7-41.73-42.34,22.69,1.67,34.53-4.82-9.5-54.01l3.48-3.46c58.19,55.9,102.09,83.11,102.78,75.07.57-6.6-43.65-46.84-85.95-72.46Zm121.05,37.63l2.59-3.25c23.78,22.58,30.2,25.16,37.85,10.21l3.89,1.78c-29.25-39.53-71.55-58.5-72.17-51.33-.4,4.59,4.61,10.23,28.33,36.84l-2.85,2.93c-29.77-33.5-51.45-46.94-64.07-48.03-8.61-.74-12.32,2.12-12.84,8.14-2.43,28.12,90.85,112.78,93.88,77.77.89-10.33-3.62-21.7-14.6-35.08Zm9.05-91.43l2.36-3.84c22.65,22.19,29.03,25.34,37.33,9.58l2.2,1.35c-37.21-47.73-80.39-69.96-81.03-62.5-.32,3.73,3.04,8.36,40.51,49.75l-3.22,3.77c-28.02-33.64-51.27-48.94-65.91-50.21-8.32-.72-12.06,2.43-12.56,8.17-2.3,26.68,90.9,112.2,93.88,77.77.89-10.33-3.38-21.1-13.55-33.83Z"/><path class="cls-1" d="m518.64,1005.65l-1.39,5.42c-49.39-15.11-46.48,3.04-14.72,20.03,27.37,15.46,35.83,6.8,29.19-39.54l4.89-1.44c9.01,27.91,14.69,31.36,30.99,18.54l4.14,3.97c-20,21.6-25.22,34.11-19.73,82.77l-5.8.03c-8.77-61.53-22.2-41.5-19.69,33.32l-6.06-.75c-2.17-54.73-12.18-76.71-22.77-81.3-10.97-4.46-14.77,8.44-.41,53.45l-5.4,1.83c-41.93-134.15-63.4-126.46-41.6-58.16l-5.27,2.86c-33.89-91.94-69.16-116.77-43.43-34.97l-5.66,1.7c-11.9-42.19-21.46-47.56-31.8-27.29l-4.52-3.84c12.66-21.05,18.52-35.5,12.6-64.45l5.8-.03c6.56,28.31,17.89,27.48,25.35-33.73l5.92-.28c-1.68,29.37,13.83,40.25,33.82,47.25,36.77,13.36,54.9,7.88.69-18.29l2.55-5.16c61.3,28.71,90.2,39.79,118.05,47.14-20.57-20.13-39.44-35.25-72.99-49.91l2.03-6.06c44.02,22.73,46.7,17.96,11.47-28.38-49.35-64.57-53.7-57.72-24.3,10.8l-5.53,2.08c-18.35-44.1-25.24-58.75-46.41-38.69l-3.88-4.49c21.41-22.5,29.18-42.76,24.51-80.73l5.8-.03c6.3,56.13,25.76,29.12,25.58-41.33l5.8.62c12.67,70.52,42.01,93.06,16.83,20.53l5.4-2.47c26.34,74.72,43.74,106.45,73.37,77.73l4.01,4.23c-16.51,24.29,27.34,66.21,33.46,53.82,2.17-4.39-3.71-23.68-18.77-50.41l5.27-2.86c18.31,33.79,27.48,41.22,41.35,31.38l3.88,4.49c-15.24,19.77-23.78,40.93-15.27,72.45l-5.79.67c-15.66-46.94-25.25-31.44-17.26,30.34l-5.92.28c-16.29-103.48-38.85-106.6-20.25-35.07l-5.15.67c-20.53-70.88-35.05-93.48-32.65-45.07l-5.79.67c-3.39-37.98-14.53-54.42-56.8-88.49,15.45,57.76,61.63,132.65,57.59,92.74l5.92-.93c4.41,36.56,22.71,69.71,54.14,99.71l-3.07,4.91c-63.38-32.31-90.78-24.98-44.7-2.51l-2.29,5.29c-82.45-35.32-113.9-39.3-146.88-41.48,20.55,15.62,52.05,33.13,111.53,56.44Z"/><path class="cls-1" d="m566.63,702.53c13.34,13.18,27.56,12.22,22.89-35.83l4.47-.3c11.35,68.43,28.09,98.73,32.83,93.31,2.27-2.6,2.05-15.04-.17-41.83l4.85-.74c8.18,69.87,31.5,97.89,39.84,88.35,16.86-19.3-1.69-112.76-21.86-130.38-10.84-9.47-21.1,4.89-19.67,32.15l-4.66.52c-4.08-27.28-5.02-41.1-8.96-57.16,18.59,6.3,33.67-6.15,40.66-44.79l4.61,1.73c-3.4,52.48,15.12,78.99,49.01,73.03l2.06,3.33c-16.74,9.09-15.7,18.41-9.3,28.59,5.97,9.8,13.83,14.38,21.78-6.98l3.96,1.16c-11.86,38.97-2.02,45.65,30.02,30.43l2.9,3.68c-26.24,13.4-34.93,26.85-42.92,59.64l-4.93-.48c-1.2-48.09-25.23-80.55-28.26-77.08-4.17,4.77,5.11,60.68,17.91,105.13l-5.69.38c-14.29-18.22-32.92-3.9-36.42,25.93l-4.5-.11c-7.2-58.3-21.51-67.74-20.54-1.88l-4.28.08c-5.09-72.52-16.56-82.16-42.45-66.54l-2.28-3.52c32.28-23.81-14.96-76.55-13.94-25.19l-4.34-.73c-1.1-22.38-.54-38.34-2.62-53.91Z"/><path class="cls-1" d="m746.7,543.38l4.39-2.34c12.44,10.74,30.39-6.98,43.88-42.06l4.25,2.16c-24.39,67.4,5.7,76.39,13.1-1.49l4.63.77c-5.05,50.06,5.21,88.85,19.73,45.27l4.17,1.12c-13.47,55.19-8.76,60.27,14.86,51.65l1.76,4.11c-33.31,15.85-10.16,34.67,29.63,36.42l1.3,4.47c-19.1,6.91-29.19,17.38-32.98,40.1l-3.94-1.3c3.94-42.6-16.11-26.16-27.39,12.68l-4.35-1.35c11.92-44.09.32-97.2-6.94-91.52-3.17,2.49-5.19,10.65-8.69,44.49l-4.45-.54c4.67-43.54.24-67.87-7.93-78.3-5.68-7.25-10.66-8.48-15.88-4.39-21.76,17.05-18.2,139.75,9.46,118.08,7.03-5.51,11.94-15.58,13.32-26.9l4.5.14c.27,26.5,3.56,34.9,15.11,30.97l.9,4.42c-19.39,9.34-26.13,17.55-32.14,41.64l-4.17-1.12c4.38-32.7-17.5-21.41-30.81,17.18l-3.9-1.7c19.78-51.35,1.92-86.75-11.64-19.06l-4.35-1.35c14.79-74.52,4.52-81.1-24.37-71.27l-1.13-4.24c38.75-20.12.82-84.42-8.44-23.39l-4.22-.72c1.24-20.36,2.85-36.99,5.13-57.43,10.18,15.8,23.61,18.46,31.18-32.11l4.5.14c-.9,66.56,9.31,105.75,15.66,100.78,5.21-4.08,3.08-59.12-3.76-94Z"/><path class="cls-1" d="m892.78,636.23l-4.27-1.36c13.56-65.36,3.14-74.24-18.61-14.05l-4.01-1.49c20.58-70.6,9.41-77.8-17.22-74.74l-.83-4.11c35.55-9.61,24.79-34.85-2.48-60.64l2.66-3.64c31.77,25.73,40.08,21.11,66.3-51.75l3.37,1.5c8.41,31.96,24.56,26.21,18.84-7.46-4.37-28.54-20.36-30-47.46,14.8l-3.9-2.53c14.94-29.44,21.55-46.14,29.91-66.34,5.02,19.13,21.26,19.81,41.52-25.67l4.92,2c-8.92,26.65-9.22,53.06-6.25,73.25,2.54,16.84,8.01,21.15,29.83,5.66l1.97,3.19c-29.67,26.02-29.82,73.43,9.67,68.91l.83,4.11c-19.09,7.59-20.65,16.5-19.21,28.08.81,12.23,5.42,20.54,20.51,2.05l3.63,2.01c-21.23,31.07-14.03,39.99,14.05,29.7l1.6,4.36c-23.83,9.72-36.72,18.65-55.05,45.29l-4.02-2.14c11.69-41.37,2.98-77.07-.86-75.08-5.63,2.91-16.77,46.59-15,93.33l-3.37-1.5c-10.85-21.63-35.23-14.86-47.08,14.28Zm51.14-175.86c-5.59-3.92-16.51-1.84-24.7,2.39-20.47,10.58-33.81,53.77-23.9,72.96,1.06,2.05,2.74,2.8,3.77,2.27,3.07-1.59,8.67-16.47,18.97-56.15l4.52.58c-21.24,88.77-12.36,117.25-2.13,111.96,22.01-11.37,29.67-94.42,23.48-134.01Z"/><path class="cls-1" d="m999.76,342.84c12.85-4.25,17.67-9.63,22.3-25.02l3.86-2.9c-.92,32.72,4.34,36.35,18.98,1.82l4.14,2.2c-3.9,20.02-.85,26.89,15.87,34.4l-2.57,3.97c-13.78,3.36-18.31,9.55-26.02,25.73l-3.94,3.54c1.13-36.46-6.33-35.95-19.24-6.01l-4.06-2.84c3.57-18.38,1.53-24.99-11.98-31.2l2.66-3.7Zm7.2,205.55l-3.6-2.39c30.35-56.6,33.05-77.42.84-75.17l-.26-4.19c16.26-2.4,23.36-16.84,24.22-29.06,1.33-16.06-9.1-28.25-24.36,2.83l-2.96-2.31c2.73-9.53,18.17-35.78,24-50.38,3.04,16.34,12.64,22.71,36.93-21.66l4.59,1.73c-24.18,60.22-31.19,112.82,3.73,57.04l3.33,2.49c-32.05,57.82-23.06,65.93,5.44,61.02l.26,4.18c-36.25,9.8-23.13,43.35,9.9,46l.09,4.55c-15.08,2.29-25.09,7.67-37.66,26.5l-3.6-2.39c17.13-28.38-3.37-28.45-30.68,5.69l-3.15-2.86c31.79-43.05,29.07-90.37-7.06-21.64Z"/></svg>