<?xml version="1.0" encoding="UTF-8"?><svg id="Big_Sticker" xmlns="http://www.w3.org/2000/svg" viewBox="0 0 2672.51 2672.51"><defs><style>.cls-1{fill:#f04a31;}.cls-2{fill:#f1f0e6;}</style></defs><path class="cls-1" d="m2507.87,1402.21v13.2c-3.52,2.62-7.79,4.66-10.42,7.99-6.32,8.02-12.86,16.15-17.33,25.21-2.32,4.69-9.06,11.03-.96,17.44,1.95,1.54,4,5.98,3.16,7.4-2.08,3.5-5.34,7.12-8.98,8.67-4.82,2.06-10.46,2.19-15.8,3.16q3.91,13.16-8.83,20.7c4.13,12.65,8.73,25.05,12.07,37.79,1.51,5.77,2.13,12.77.24,18.2-2.61,7.52-7.96,14.09-12.86,22.26,3.49,1.88,7.92,4.27,12.65,6.83,1.66,9.67-4.84,14.72-13.18,18.78-5.82,2.83-11.22,6.55-10,14.2,1.15,7.21,3.01,14.32,4.56,21.46-4.56,4.85-12.04,9.57-14.13,16.04-1.68,5.2-4.41,5.26-7.23,5.72-7.29,1.19-14.88.84-22,2.54-2.59.62-6.05,5.39-5.91,8.1.32,6.02,3.61,11.9,3.86,17.91.17,4.27-1.37,10.81-4.38,12.62-10.55,6.34-12.27,12.85-4.66,23.22,2.11,2.87,4.87,7.49,3.91,9.99-3.27,8.51-3.3,18.87-7.12,25.69-9.65,17.24-1.72,34.91-6.39,51.59-2.31-.62-5.58-1.49-9.43-2.51.44,2.97.7,4.74.87,5.91-5.97,1.44-11.86,2.36-17.27,4.47-1.73.68-3.35,4.69-3.08,6.94,1.35,11.19-6.73,17.32-12.7,24.35-6.17,7.26-13.45,13.56-19.73,20.74-.96,1.09.63,4.71,1.47,7,.92,2.49,4,6,3.28,7-7.33,10.2-13.97,21.58-23.52,29.23-5.11,4.09-7.77,6.63-6.48,12.29,1.29,5.61-1.38,6.72-5.89,6.72-2.62,0-5.24,0-8.09,0q2.59,8.05-.19,20.78c-.06.3.06.63.02.94-2.33,16.84-4.66,33.68-7.13,51.48-2.45,3.09-14.6-5.13-11.63,6.89-2.1.89-6.2,2.16-6.11,2.67,1.25,6.97-5.08,10.04-6.96,14.74-4.72,11.77-15.36,20.95-14.24,35.61.71,9.37-3.18,10.93-12.25,8.49-8.49-2.28-22.32,8.02-21.74,17.39.33,5.33-1.38,6.41-5.55,7.54-3.65.99-9.5,2.21-10.13,4.49-2.59,9.45-7.78,5.61-14.79,2.6-1.66,4.88-5.9,11.19-4.27,13.68,4.83,7.4.39,11.64-3.69,15.23-5.64,4.96-12.49,8.55-18.82,12.72-5.08.32-11.92.37-14.89,3.78-10.16,11.68-25.27,12.05-37.6,18.51-2.51,1.31-5.37,1.96-8.07,2.91,2.5,4.38-4.39,11.08,4.34,14.36,5.51,2.07,6.29,7.39,2.49,12.51-2.24,3.01-4.1,6.43-6.79,8.96-8.96,8.44-16.42,19.08-26.5,20.85-5.5,5.35-8.99,8.75-13.32,12.97.24,1.39.76,4.36,1.74,10-8.19-.65-15.5-1.24-23.33-1.86-1.88,1.74-4.76,3.76-6.79,6.43-4.17,5.49-8.23,9.3-15.17,3.7-.57-.46-4.7,1.81-5.25,3.45-.66,1.99.73,4.66,1.24,7.04-.74-.44-1.48-.88-2.22-1.32-5.8,6.99-14.28,13.21-16.56,21.21-1.88,6.58-4.95,9.57-9.38,13.19-2.28,1.87-4.51,4.72-5.17,7.5-3.96,16.65-4.72,17.53-20.57,19.02-.57.05-1.09.56-1.63.85.38.28.76.57,1.14.85-6.02,8.13-12.05,16.26-18.81,25.38-2.83-2.55-5.89-5.32-8.95-8.09-.26.73-.51,1.47-.77,2.2-4.52-1.02-9.19-1.6-13.52-3.15-6.73-2.4-13.13-5.73-19.87-8.07-1.87-.65-5.05.13-6.63,1.45-4.61,3.86-9.16,7.97-12.9,12.64-4.74,5.91-9.64,3.92-13.49.26-5.18-4.93-9.53-4.03-13.71.29-4.07,4.21-7.5,9.05-11.96,14.54-3.61-.98-9.97-.94-13.68-4.06-9.82-8.26-19-6.03-28.84-1.06-6.54,3.31-13.32,6.29-8.99,15.37-7.83,5.07-14.75,5.66-22.04.1-2.77-2.11-8.5-4.79-9.76-3.67-5.98,5.29-12.07,1.58-15.81-.84-8.01-5.18-12.07-1.15-16.27,4.21-3.07,3.93-5.44,8.4-8.38,12.44-4.79,6.59-10.56,12.61-14.45,19.67-2.79,5.07-3.19,11.45-4.66,17.28-5.06-1.42-9.09-3.95-11.83-2.95-3.05,1.12-4.93,5.45-7.39,8.46-1-2.06-1.97-4.09-4.22-8.73-3.47,7.42-5.93,12.68-8.85,18.92-.29-.12-2.41-1.17-4.64-1.84-6.63-1.99-13.28-3.94-19.98-5.69-7.36-1.91-14.9-4.09-18.54,5.99-.2.56-2.65,1.04-3.44.56-8.39-5.16-12.51,1.51-18.76,5.13-6.2,3.59-14.82,3.25-22.43,4.09-5.47.6-11.16,1.1-16.53.24-16.21-2.59-16.16-2.86-18.22-18.41-.06-.43-.78-.77-2.06-1.96-5.77,2.87-11.88,5.91-18.38,9.14-3.63,1.2-7.91,2.22-11.84,4-5.17,2.34-11.32,8.67-14.85,7.36-13.31-4.94-18.88,4.7-26.44,11.16h-1.89c-7.78-1.71-15.56-4.76-23.33-4.71-6.67.04-12.75,1.93-19.81-.94-8.15-3.31-17.4-3.93-26.2-5.61-4.28-.82-8.6-1.38-15.17-2.42-9.32,2.96-21.53,8.47-34.28,10.31-8.43,1.21-17.68-2.57-26.45-4.61-16.47-3.84-16.74-4.47-13.29-20.41.1-.45-.53-1.05-.55-1.07-5.01-.93-12-.24-13.8-2.97-3.46-5.25-6.24-7.4-12.52-6.16-7.65,1.51-15.58,1.59-23.19,3.19-1.53.32-2.79,4.61-3.1,7.2-.26,2.11,1.09,4.42,2.15,8.16-4.6-1.79-7.59-2.95-9.13-3.56-3.7,6.85-6.78,13.01-10.42,18.81-.62,1-4.27,1.32-5.49.47-3.14-2.17-5.71-5.18-7.63-7.02-4.99.34-10.24,2.26-14,.67-11.4-4.84-22.08-11.37-33.38-16.47-2.66-1.2-8.72-.56-9.73,1.21-5,8.81-13.02,7.01-20.07,6.06-5.62-.76-9.61-1.04-14.12,3.4-2.7,2.66-7.94,2.75-12.04,3.99-.95-3.71-1.97-7.39-2.82-11.12-.47-2.07-.67-4.2-1.07-6.82-8.2,1.66-16.8-6.01-24.06,2.81-.61.74-3.79.2-5.19-.68-6.87-4.34-10.39-2.9-10.83,5.46-.14,2.77-1.25,5.48-1.44,8.25-.69,9.92-9.06,15.11-15.05,8.01-6-7.12-17.11-13.37-13.38-26.26.33-1.15-2.28-3.14-3.63-4.87-7.18,8.6-12.92,7.93-19.31-.93-1.38-1.91-5.57-3.83-7.34-3.08-9.18,3.86-15.79.83-22.58-5.47-2.71-2.52-7.74-2.84-11.82-3.5-3.22-.52-6.71.54-9.88-.12-5.69-1.17-11.22-3.1-16.82-4.72.12-.39.73-2.31,1.91-6.08-4.49,1.98-7.69,2.68-9.94,4.54-4.7,3.89-8.76,3.07-13.37-.04-10.5-7.1-21.06-14.11-31.85-20.76-1.84-1.14-6.44-1.29-7.15-.2-4.16,6.36-11.68,8.74-14.35,2.93-3.87-8.4-12.6-1.8-15.69-7.99-.19-.38.66-1.49.48-1.65-5.15-4.62-10.6-13.23-15.54-12.95-14.6.83-21.75-7.55-27.57-16.04-9,.51-17.04,2.55-24.03.67-3.19-.86-4.32-9.42-6.38-14.49-12.6,5.37-21.91,1.62-29.11-11.74-2.84,1.99-6.48,6.24-8.37,5.57-7.78-2.77-15.14-6.83-22.4-10.87-2.72-1.51-4.75-4.25-7.1-6.43-1.55-6.24-4.18-12.2-7.91-17.35-2.79-3.85-8.05-6.08-10.34-10.1-3.6-6.31-2.97-6.34-8.86-6.99-3.59-.4-7.11-1.91-10.54-3.22-5.2-1.99-10.29-4.26-16.1-6.68-4.33-5.98-8.79-11.92-18.82-13.88-8.87-1.74-16.78-8.42-25.1-12.91,1.06-2.75,2.07-5.39,2.27-5.9-6.8-6.99-12.51-12.47-17.72-18.38-2.35-2.67-3-7.51-5.72-9-2.88-1.58-7.3-.35-9.72-.35v-11.7h-7.99c-.38-7.27-1.27-7.58-8.14-5.63-2.11.6-5.5-1.26-7.55-2.93-3.92-3.17-7.4-6.91-10.86-10.61-2.26-2.42-4.04-5.29-6.25-7.76-6.09-6.83-11.69-14.3-18.67-20.06-4.57-3.77-14.36-3.55-16.32-7.71-4.48-9.51-10.72-14.99-19.69-20.04-13.41-7.55-23.17-19.32-29.97-33.56-1.59-3.34-6.83-4.92-10.38-7.34-2.91-1.98-7.22-3.4-8.36-6.13-1.77-4.24-1.38-9.39-1.91-14.15-4.98-3.01-8.57-7.36-12.34-11.55-7.34-8.17-14.4-16.64-22.31-24.23-4.44-4.26-9.94-7.99-15.65-10.18-8.92-3.43-13.37-11.42-9.61-19.52-2.05-3.69-3.19-8.29-6.12-10.51-7.36-5.58-13.35-10.56-17.92-20-6.39-13.2-18.1-23.22-21.41-39.3-2.71-13.17-14.41-22.19-26.54-27.95-8.19-3.89-11.29-8.93-7.56-16.44,3.95-7.95,1.13-10.7-5.95-13.74-4.74-2.04-11.74-6.94-7.14-12.51,6.12-7.43,2.31-9.34-3.32-12.16-3.61-1.81-7.5-3.27-10.63-5.7-2.14-1.66-4.65-4.84-4.48-7.15.64-8.81,2.31-17.54,3.7-27.02-9.31-.59-12.55-4.63-11.1-12.77.42-2.34-1.7-5.13-2.66-7.71-3.91-10.54-7.83-21.09-10.94-29.46-3.54-4.9-8.02-8.27-7.82-11.33.7-10.44-4.11-17.44-11.59-23.28-3.96-3.08-4.99-4.94-.97-9.46,4.6-5.17,7.43-11.93,10.73-17.5-3.79-10.39-7.53-20.96-11.52-31.43-1.66-4.34-5.7-8.65-5.35-12.68.52-6,.89-9.78-6.45-9.97-.98-.03-2.88-1.76-2.76-2.04,3.28-7.84-4.67-9.53-7.17-14.15-1.73-3.22-1.46-8.71.09-12.23,2.45-5.57,5.62-10.26,1.24-16.34-.86-1.19-.17-5.03,1.07-5.94,9.89-7.29,5.16-14.4-.16-21.14,5.5-7.09,5.72-13.82,3.34-21.94-1.73-5.91-6.32-13.11,1.66-19.42,2.2-1.74,1.11-7.65,1.75-13.68-3.73,2.68-5.5,3.95-8.39,6.03,0-6.55,1.9-12.94-.4-16.9-4.73-8.14-2.04-13.58,5.47-20.58h-10.62c-9.78-11.27-11.9-23.84-13.52-37.45-2.34-19.58-.92-32.02,10.06-36.93-9.97-9.59-15.4-20.4-6.3-32.06,2.49-2.15,4.98-4.31,7.47-6.46-2.73-2.33-5.19-5.15-8.27-6.86-3.62-2-7.86-2.86-11.63-4.63-.92-.43-1.83-2.94-1.39-3.72.75-1.31,2.83-3.03,3.93-2.78,6.31,1.45,6.28-.79,4.06-5.59-2.96-6.4-5.43-13.02-7.31-17.6,7.57-3.17,14.57-6.11,21.56-9.04-.27-.98-.55-1.95-.82-2.93-2.4-1.24-4.8-2.47-7.14-3.68.15-2.75.3-5.26.44-7.77-.92.66-1.85,1.31-2.77,1.97-2.13-2.01-6.08-4.05-6.05-6.03.1-7.4,1.55-14.78,2.39-22.18,1.4-12.28,2.73-24.58,4.16-37.54-5.43-2.37-7.33-6.57-3.86-13.04,1.19-2.22.49-5.39,1.08-8.03.87-3.95,2.33-7.77,3.13-11.73,1.49-7.33,3.07-14.68,3.67-22.1.13-1.55-3.78-3.43-7.42-6.51,4.16-4.14,8.1-8.06,10.44-10.39,3.92-13.67,7.5-26.19,11.11-38.78-1.4-.49-3.59-1.26-6.43-2.26,3.67-3.88,6.73-7.12,9.83-10.39-2.66-7.43-5.26-14.68-8.23-22.97,3.24-2.32,6.88-4.93,10.01-7.17-2.22-4.27-4.36-8.37-6.86-13.17,3.43-.31,5.79-.52,8.14-.74-.75-.51-1.5-1.02-2.24-1.53,2.09-4.71,4.19-9.42,6.52-14.66-3.16-5.11-1.39-17.33,4.62-19.75,2-.8,6.05,3.5,10.19,6.12,1.2-.96,4.02-3.23,8.57-6.88-4.26-2.23-7.25-3.82-10.26-5.38-1.84-.96-4.52-1.42-5.4-2.93-2.8-4.84,2.96-20.18,6.97-22.08,3.19-8.19-.18-18.2,10.72-22.29,1.04-.39.49-5.03.76-8.82,2.41-1.61,6.45-4.32,10.69-7.15-.17-1.21-.07-2.55-.57-3.62-2.76-5.91-9.23-12.6,3.83-14.53.96-.14,2.28-3.73,1.97-5.46-.63-3.57-2.09-7.02-3.5-10.41-2.91-6.99-.67-10.55,5.22-10.84,2.64-6.27,4.96-11.77,7.28-17.26,1.53-3.64,4.14-7.22,4.35-10.94.34-6.05-.25-12.34-1.61-18.26-1.63-7.07-3.32-14.58-7.07-20.6-6.18-9.93-5.88-14.96,3.62-21.94,2.84-2.09,5.67-4.91,7.14-8.03,4.71-10,7.8-21.01,21.44-22.82,1.92-.26,4.85-4.09,4.78-6.17-.29-8.14,3.85-11.97,11.92-13.09,0-7.28-.19-13.91.14-20.51.08-1.53,1.72-3.2,3.02-4.4,8.06-7.46,15.81-14.74,19.49-25.89,4.56-13.81,10.76-27.09,16.77-41.88,11.38,7.53,12.49-5.35,18.72-8.92,9.03-5.17,8.48-12.66,5.43-19.06,11.11-13.03,21.39-25.09,31.7-37.18-.03-.03-1.11-.93-.24-.2,3.54-4.57,6.91-8.92,11.11-14.33.92.11,4.11.51,7.32.9-2.31,4.36-4.13,7.78-5.95,11.2.64.42,1.28.83,1.92,1.25,5.7-4.39,11.39-8.78,16.95-13.06,1.93-9.06-5.4-4.23-9.47-4.99,9.26-8.08,23.29-12.01,17.48-27.27,4.14-1.9,7.82-2.42,9.48-4.54,10.18-12.91,23.03-22.78,37.39-29.93,8.84-4.4,14.82-10.43,20.25-18,1.34-1.87,4.3-3.71,6.47-3.67,12.97.25,26.99-9.81,29.1-20.27,8.68-1.56,16.79-3.05,24.92-4.47,7.31-1.28,7.01-3.94,1.74-8.08-5.71-4.5-5.79-9.1.47-13.33,1.68-1.14,3.34-2.3,5-3.46l-3.01-.47c-.62-6.42-.28-13.13-2.13-19.16-1.67-5.42.26-6.15,4.25-8.91,7.96-5.49,15.73-11.99,21.53-19.63,4.89-6.44,9.68-11.85,17.18-14.98,10.63-4.43,21.09-9.11,31.16,3.7,6.24-8.74,12.6-15.93,16.7-24.24,1.59-3.22,2.21-5.15,5.52-7.5,7.15-5.09,15.97-11.17,18.29-18.65,1.81-5.83,3.63-9.53,7.7-12.95,11.45,6.97,24.65,1.09,26.14-11.85.86-7.45,3.86-9.88,11.17-10.78,6.55-.8,13.86-3.06,18.71-7.18,2.99-2.54,4.37-7.53,8.75-4.41,2.77,1.98,3.99,6.58,5.17,10.24,1.08,3.36,1.18,7.04,1.71,10.57,2.28-2.65,4.62-5.24,6.79-7.97.53-.67.53-1.77.75-2.68,3.57-14.9,4.98-15.56,19.89-11.41,3.26.91,9.67,1.04,10.1-.13,3.47-9.44,11.35-9.45,19.07-9.78v-5.04c4.18-1.47,8.69-1.65,9.79-3.67,9.01-16.6,29.32-16.7,42.04-8.97,5.48-3.55,10.92-7.08,15.13-9.81,7.12,3.19,13.01,6.93,19.4,8.21,3.08.62,8.92-2.6,10.21-5.53,1.65-3.74-.42-8.97-.16-13.52.15-2.64,1.37-7.13,2.73-7.38,2.76-.51,6.09,1,8.9,2.29,1.25.57,1.82,2.62,2.96,4.39,1.54-1.38,3.1-2.08,3.26-3.02,1.51-9.04,9.98-9.74,16.04-12.41,2.4-1.05,9.85,2.55,10.09,4.62,1.07,8.93,6.21,6.69,10.52,5.02,2.07-4.13,4.19-8.1,7.5-10.11,7.58-4.6,15.95-7.89,23.62-12.35,11.93-6.94,16.18-5.8,20.03,5.41,5.35-.28,10.39-.61,15.43-.78,2.86-.09,5.96.82,8.56.01,6.41-1.98,12.67-6.86,18.85-6.63,11.07.42,21.87,4.16,31.37-5.4,2.15-2.17,7.04-2.47,10.56-2.22,6.35.44,11.03-.42,13.67-7.22.7-1.8,6.82-3.51,6.98-3.22,5.03,8.56,13.22,3.56,19.8,5.1,7.36,1.72,12.25-.71,16.64-6.31,5.29-6.75,8.85-5.93,13.74,1.57,1.62,2.48,5.14,4.71,8.07,5.13,8.18,1.18,17.91-5.47,21.74-12.99.92-1.8,4.1-2.52,6.33-3.56,6.2-2.92,15.89,3.32,19.2-6.8,2.47-7.54,5.32-6.95,10.37-2.18,3.37,3.18,7.69,7.06,11.85,7.4,17.94,1.5,35.98,1.81,53.63,2.54-.92,2.59-1.74,4.9-2.56,7.21,2.27.66,4.51,1.5,6.82,1.91,1.51.26,3.12-.19,4.69-.18,9.89.01,19.93-1.01,29.64.35,13.48,1.9,14.7.83,14.95-13.29.07-4.05,5.2-8.28,8.72-11.7.48-.47,5.26,3.08,7.73,5.15,3.73,3.14,6.87,7.1,10.96,9.56.9.54,4.55-3.93,7.21-5.68,1.49-.98,3.51-1.43,5.33-1.58,13.95-1.13,27.91-2.36,41.88-3.06,5.53-.28,8.35,2.25,7.55,8.83-.66,5.49,3.03,10.16,8.48,5.91,6.5-5.07,12.08-2.75,18.46-1.33,4.81,1.07,9.87,1.05,14.83,1.43,17.21,1.3,36.35-8.99,50.96,8.5.54.64,2.98.06,4.36-.44,9.18-3.29,18.25-6.89,27.49-9.98,2.28-.76,5.84-.98,7.5.28,6.41,4.87,12.29,10.44,17.93,15.37,6.55-4.54,10.34-11.56,16.25-4.78,3.92,4.49,6.67,9.52,14.13,6.99,1.03-.35,3.78,3.47,5.28,5.67,1.67,2.46,2.83,5.28,4.2,7.94.59-.96,1.18-1.93,1.77-2.89,3.88,1.28,8.21,1.86,11.54,3.99,6.77,4.33,15.15,3.49,21.88-1.22,3.2-2.24,9.3-3.41,12.62-1.88,12.52,5.75,24.44,12.81,37.11,19.66-6.85,9.23,2.94,12.55,5.68,19.62,3.77-2.76,6.57-5.23,9.77-6.98,1.9-1.04,4.81-1.89,6.6-1.17,4.97,1.99,9.71,4.64,14.31,7.41,3.92,2.36,10.01,4.72,10.72,8.02,1.38,6.42,6.68,6.78,9.42,6.24,11.8-2.3,22.85-1.76,33.5,4.1.73.4,2.22.52,2.72.07,6.87-6.17,12.16-.33,17.66,2.41,9.62,4.82,19.05,10.02,30.6,16.14,4.09-1.57,11.62-5.52,12.45,7,.1,1.48,4.45,3.9,6.68,3.76,4.89-.32,10.66-.7,14.33-3.42,7.25-5.36,10.28-.52,13.48,4.07,2.46,3.53,3.72,7.88,6.09,11.5,1.25,1.91,3.59,3.23,5.65,4.45,2.18,1.29,6.66,2.35,6.58,3.15-.3,2.98-1.29,6.75-3.43,8.5-4.95,4.05-3.67,6.85.3,9.13,4.36-.71,9.3-1.93,12.01-.01,6.75,4.76,12.46,10.98,18.64,16.54,1.6,1.44,3.34,2.78,5.18,3.88,4.09,2.46,8.24,4.81,12.43,7.08,7.29,3.96,14.68,7.75,21.94,11.78,3.16,1.76,6.24,3.73,9.05,5.99,2.06,1.66,3.32,4.37,5.45,5.86,7.73,5.42,15.6,10.65,23.59,15.68,3.64,2.29,8.65,3.06,11.39,6.03,10.02,10.89,20.59,20.68,33.8,27.89,8.61,4.7,15.87,7.29,24.37.47,4.8-3.85,10.25-5.33,14.48,1.21,2.26,3.5,4.08,7.29,6.39,10.75,1.66,2.49,3.68,6.51,5.77,6.66,12.78.9,11.76,10.08,12.01,18.63,9.17.22,9.74,1.27,6.85,9.34,3.59,3.47,6.48,6.42,9.55,9.18,2.03,1.83,4.12,3.74,6.51,5,17.68,9.37,27.45,24.65,33.51,43.14,2.28,6.97,5.25,14.11,9.58,19.92,6.24,8.37,14.12,15.5,21.07,23.36,3.34,3.79,6.28,7.96,9.17,12.12,6.66,9.6,16.9,10.19,26.98,10.41,8.48.19,9.52,4.66,9.15,11.71-.27,5,.96,10.1,1.77,15.12.38,2.38.89,4.95,2.13,6.93,2.56,4.08,5.08,8.61,8.8,11.35,1.77,1.3,6.24-1.07,10.46-1.99.7,3.54,3.06,8.34,2.21,12.47-2.18,10.49,2.7,18.76,6.14,27.76,1.85,4.85,1.9,10.39,2.76,15.61-1.28.93-2.56,1.87-3.84,2.8,12.33,7.08,24.66,14.16,37.74,21.67-1.06,5.63-3.04,12.43-3.46,19.33-.51,8.34.38,16.14,4.53,24.42,4.99,9.94,15.1,8.89,21.51,14.6,2.44,2.17,6,6.66,5.24,8.26-4.3,8.97-2.87,16.89.1,26.05,3.76,11.59,4.83,24.05,7.18,36.76,15.97-8.12,10.67,8.31,15.9,12.94,7.21,2.67,14.57,5.27,21.8,8.22.9.37,1.09,2.56,1.53,3.92,2.02,6.24,2.13,15.53,6.38,18.18,12.82,7.98,8.72,26.25,20.52,30.16-3.89,7.69-7.43,13.56-9.84,19.86-1.34,3.51-.78,7.74-1.19,13.11.1.07,2.15,1.49,4.13,3.01,2.37,1.83,4.68,3.75,7.02,5.63-2.88,3.53-5.71,7.1-8.67,10.56-4.27,4.99-8.88,9.73-12.69,15.05-.51.71,3.05,6.18,4.32,6.02,6.19-.74,7.82,2.64,8.47,7.51,1.29,9.7,6.39,15.74,15.64,19.62,3.73,1.56,8.46,7.49,8.08,10.91-1.52,13.65,2.19,26.16,5.87,38.77,1.33,4.56,3.22,8.06-3.58,10.04-2.1.61-4.92,6.38-4.06,8.17,3,6.27,6.53,12.89,11.61,17.42,7.52,6.71,9,13.48,3.37,21.52-5.5,7.85-9.99,16.4-15.06,24.87,4.53,3.39,8.89,5.64,11.73,9.13,1.86,2.29,2.87,6.85,1.89,9.55-1.85,5.14-5.37,9.68-8.23,14.44-2.64,4.4-.61,15.24,3.41,18.01,8.84,6.08,9.34,11.71,2.09,18.59,2.93,9.82,7.35,19.23,8.24,28.97,1.09,11.92,5.13,20.73,14.36,28.43,9.33,7.78,10.19,17.84,3.28,24.85,2.14,2.36,4.59,4.61,6.43,7.26,1.04,1.51,1.88,3.87,1.49,5.54-2.87,12.18-6.08,24.29-9.3,36.9,5.5.7,10.09,1.28,14.67,1.87ZM269.49,855.91c-2.48-1.52-4.88-2.4-6.44-4.07-3.47-3.7-7.12-3.72-8.52.78-.7,2.26,1.9,6.46,4.17,8.52,3.43,3.12,7.86,5.14,12.73,8.16.83-6.49,1.56-12.25,2.3-18-.76-.17-1.51-.33-2.27-.5-.6,1.55-1.19,3.11-1.96,5.11Zm-87.61,611.81c3.89.91,7.03,2.43,7.73,1.68,3.67-3.95,8.02-8.09,9.48-12.96.83-2.77-3.39-7.07-4.88-9.83-3.83,4.75-6.5,8.07-9.48,11.77,1.79.52,3.58,1.05,6.2,1.81-2.7,2.24-4.73,3.94-9.05,7.53Zm43.04-374.9c5.05,2.79,9,4.98,12.95,7.16.71-.46,1.42-.91,2.13-1.37-2.59-6.27-5.17-12.55-8.57-20.78-2.94,6.77-4.71,10.82-6.52,14.98Zm46.9-180.97c.3,1.45.59,2.91.89,4.36,3.61.36,7.23.73,10.84,1.09-1.04-3.22-2.08-6.45-3.12-9.67-2.87,1.4-5.74,2.81-8.61,4.21Z"/><path class="cls-2" d="m1063.76,667.13l-6.28-6.2-3.83-10.52,28.55-10.4c17.1-6.23,30.45-3.94,36.87,13.68,3.35,9.21,4.19,16.8-3.29,23.7,10.77.1,16.2,6.02,20.42,17.59,6.18,16.97,3.62,28.33-18.61,36.43l-30.39,11.07-3.93-10.79.82-8.79-20.32-55.78Zm21.86-10.35l7.91,21.71,4.08-1.49c4.21-1.53,4.1-5.52,1.18-13.54-3.55-9.73-6.19-9.22-9.08-8.16l-4.08,1.49Zm25.77,58.86c4.6-1.68,5.2-4.13,1.56-14.13-3.93-10.79-6.06-10.9-10.14-9.42l-3.81,1.39,8.58,23.55,3.81-1.39Z"/><path class="cls-2" d="m1135.9,673.13c-9.56-37.87-4.83-51.19,17.97-56.95s33.56,3.66,43.11,41.53c10,39.64,4.63,50.96-18.18,56.71s-32.91-1.66-42.91-41.3Zm36.99-9.62c-6.85-27.15-9.33-29.55-14.09-28.35s-5.8,4.5,1.05,31.64c6.89,27.28,9.4,29.82,14.15,28.63s5.76-4.63-1.12-31.91Z"/><path class="cls-2" d="m1204.49,656.22c-5.63-38.65.43-51.42,23.7-54.81s33,7.07,38.64,45.73c5.9,40.45-.61,51.16-23.88,54.55s-32.56-5.02-38.46-45.47Zm37.78-5.79c-4.04-27.71-6.26-30.35-11.11-29.65s-6.23,3.88-2.19,31.59c4.06,27.85,6.3,30.63,11.15,29.92s6.21-4.02,2.15-31.86Z"/><path class="cls-2" d="m1279.25,615.58l-3.97-7.89-.26-11.2,32.75-.77,9.14,37.6c1.23,4.87,1.91,9.9,2.59,14.92.44-5.05.88-10.1,1.75-15.03l6.67-37.97,34.29-.8.26,11.2-3.59,8.07,3.07,59.31,3.97,7.89.27,11.48-31.21.73-.27-11.48,4.57-8.09-.32-13.58c-.14-6.16.04-21.99.2-39.08l-13.98,66.85-12.04.28-17.22-65.28c1.09,16.64,2.15,32.02,2.3,38.18l.32,13.58,3.97,7.89.27,11.48-27.15.64-.27-11.48,3.59-8.07.29-59.39Z"/><path class="cls-2" d="m1385.43,670.13c8.52.62,11.64,5.9,10.91,15.96-.97,13.27-5.07,21.39-20.17,24.5l-1.26-9.64c5.57-1.28,8.87-2.3,10.3-4.58-.71.09-1.55.03-2.38-.03-8.1-.59-11.22-5.87-10.63-13.97.59-8.1,5.01-12.83,13.24-12.23Z"/><path class="cls-2" d="m1437.39,621l-2.32-8.52,1.96-11.03,33.22,5.91c19.43,3.46,27.41,12.98,23.14,36.96-4.68,26.33-15.67,33.76-34.56,30.4l-6.34-1.13-1.79,10.06,3.7,8.76-2.01,11.3-32.53-5.79,2.01-11.3,5.12-7.19,10.4-58.44Zm23.73,4.08l-5.37,30.19,3.45.61c5.38.96,7.32-1.97,9.67-15.2,2.26-12.68-.03-14.22-4.03-14.94l-3.72-.66Z"/><path class="cls-2" d="m1499.09,657.61l-1.59-6.06,2.92-11.1,15.68-2.39,5.72,4.69-2.31,8.8.68.18c3.79-7.26,10.43-8.84,15.44-7.52,1.76.46,3.79,1.57,5.1,2.64l-10.56,25.31c-2.97-1.36-5.5-2.75-10.5-4.64l-8.11,30.87,3.06,8.19-2.85,10.83-29.25-7.69,2.88-10.97,4.27-5.25,9.43-35.88Z"/><path class="cls-2" d="m1572.4,655.91c19.72,6.81,21.96,20.47,13.19,45.88-10.42,30.17-23.69,33.44-39.7,27.91-18.4-6.35-24.79-16.56-14.56-46.2,8.22-23.82,18.71-35.31,41.07-27.59Zm-6.9,16.13c-4.37-1.51-6.07.42-12.38,18.69-6.08,17.6-6.15,20.83-1.52,22.43,4.23,1.46,5.94-.91,12.24-18.73,6.62-18.75,5.76-20.97,1.66-22.39Z"/><path class="cls-2" d="m1601.92,683.42l5.04-10.31,16.73,1.16,7.83,7.25-4.18,8.55c9.4-5.53,16.73-5.22,23.02-2.15,6.92,3.38,9.41,8.8,6.67,16.97,9.47-5.66,16.98-5.41,23.27-2.34,7.92,3.87,10.05,10.36,5.13,20.43l-19.18,39.24-.19,6.76-4.98,10.19-25.16-12.29,4.98-10.19,4.97-4.43,15.67-32.07c1.97-4.02.82-6.14-2.07-7.56-1.89-.92-3.52-1.09-5.52-1.14l-17.64,36.1-.44,6.64-4.98,10.19-24.9-12.17,4.98-10.19,4.97-4.43,15.67-32.07c1.97-4.02.82-6.14-2.07-7.56-1.89-.92-3.52-1.09-5.52-1.14l-17.64,36.1-.44,6.64-4.98,10.19-25.16-12.29,4.98-10.19,5.22-4.3,16.29-33.33-.37-6.26Z"/><path class="cls-2" d="m1693.69,737.46l.86-6.96,6.27-9.62,16.11,2.98,6.88,8.16-4.28,6.57c6.53-3.1,13.75-3.4,19.73.49,9.74,6.35,10.11,16.28-5.71,40.56-17.2,26.39-29.98,30.1-45.11,20.24-2.58-1.68-4.42-3.22-6.23-5.06l-2.91,4.46-.93,7.58-5.81,8.91-23.34-15.21,6.19-9.5,5.71-3.63,32.57-49.97Zm21.45,8.63l-22.93,35.19c.63.58,1.37,1.23,2.31,1.84,4.34,2.83,8.02,2.05,19.18-15.07,9.79-15.01,9.17-17.92,5.3-20.44-1.06-.69-2.5-1.29-3.86-1.51Z"/><path class="cls-2" d="m1766.42,753.1l.84-5.97,7.18-8.96,16.07,4.8,6.05,8.79-22.85,28.52c10.85-3.69,18.32-1.82,23.46,2.29,7.43,5.95,8.41,13.02,1.4,21.76l-27.31,34.09-1.67,6.56-7.09,8.85-22.07-17.68,7.09-8.85,6.04-3.06,22.32-27.86c2.8-3.5,2.15-5.81-.37-7.83-1.86-1.49-3.82-2.17-6.27-2.69l-24.86,31.03-1.67,6.56-7.09,8.85-22.07-17.68,7.09-8.85,6.04-3.06,39.74-49.6Z"/><path class="cls-2" d="m1793.15,885.61c-3.92-3.8-6.68-9.4-1.63-15.42-9.67,2.33-14.86-.56-18.48-4.07-6.84-6.63-6.37-14.95.84-22.39,8.48-8.75,21.8-11.23,44.12-2.27l5.07-5.23c3.02-3.12,2.79-5.49-.13-8.31-1-.97-2.21-1.95-3.61-2.72l-11.27,7.4-10.05-9.74,17.25-17.79c7.37,2.86,15.07,7.39,21.6,13.72,12.77,12.38,14.49,21.26,2.6,33.52l-22.31,23.02c-3.41,3.52-3.79,4.91-1.67,6.96l-10.91,11.26c-3.58-1.33-7.29-3.95-11.41-7.94Zm.62-23.97c.7.68,1.51,1.46,3.3,2.23l12.47-12.87c-8.54-1.45-12.67.2-15.5,3.11-2.63,2.71-2.59,5.29-.28,7.53Z"/><path class="cls-2" d="m1848.77,862.2l2.15-5.89,8.73-7.45,14.88,7.73,4.29,9.77-7.24,6.18c10.83-1.33,17.52,1.98,21.61,6.77,6.18,7.24,5.82,14.36-2.7,21.63l-33.22,28.36-2.87,6.13-8.62,7.36-18.36-21.51,8.62-7.36,6.5-1.87,27.15-23.18c3.41-2.91,3.2-5.31,1.11-7.76-1.36-1.6-3.06-2.72-5.08-3.58l-30.45,26-2.87,6.13-8.62,7.36-18.36-21.5,8.62-7.36,6.5-1.87,28.21-24.09Z"/><path class="cls-2" d="m1900.83,951.9c.2-11.07,1.15-23.8,16.18-33.81,12.12-8.07,28.39-7.12,39.17,9.08,4.73,7.11,8.14,14.76,10.35,21.87l-25.64,17.06-8.61-12.94,10.3-10.55c-.74-1.36-1.16-2.25-1.94-3.42-2.17-3.26-5.63-5.17-9.94-2.3-5.94,3.96-5.48,11.72-6.15,20.57-.82,10.64-1.34,22.25-14.86,31.24-16.78,11.17-30.29,6.03-40.68-9.58-5.43-8.16-8.45-14.72-11.13-21.52l26.11-17.37,9.46,14.22-10.57,9.89c.5,1.01,1.2,2.06,2.13,3.46,2.4,3.61,6.44,5.13,10.64,2.34,5.13-3.41,4.9-10.32,5.18-18.24Z"/><path class="cls-2" d="m1940.04,974.55l10.09-5.47,12.94,10.67,2.16,10.45-45.18,24.47c-3.45,1.87-4.24,4.52-2.44,7.85.73,1.35,1.32,2.15,2.44,3.62l31.64-17.13,3.95-5.64,10.09-5.47,12.94,10.67,2.16,10.45-45.8,24.8c-4.31,2.33-5.02,3.67-3.68,6.13l-13.79,7.47c-2.83-2.29-5.24-4.97-7.37-8.91-3.07-5.66-4.7-11.62,2.24-17.61-10.29-.48-15.04-6.02-17.84-11.19-4.4-8.12-2.83-15.51,10.35-22.64l31.15-16.87,3.95-5.64Z"/><path class="cls-2" d="m1993.16,1030.84l3.84-4.96,10.58-4.45,11.83,11.88,1.12,10.61-54.46,22.89,18.2,2.83,5.37-5.29,10.2-4.29,11.45,27.23-10.71,4.5-10.58-6.03-13.09-2.24-18.35,19.56c-2.71,2.96-3.64,5.78-3.18,8.32l-12.78,5.37c-3.25-3.04-4.72-5.46-6.41-9.46-3.85-9.16.86-14.94,8.07-21.62l14.71-13.78-.76-1.81-14.58,6.13-4.65,4.84-10.45,4.39-10.9-25.94,10.45-4.39,6.76.19,58.33-24.52Z"/><path class="cls-2" d="m1947.01,1139.21c-2.74-8.53-3.81-15.54-4.05-21.78l23.33-7.49,4.24,13.2-9,5.39c.29,1.38.55,2.62.89,3.69,1.28,4,3.79,5.84,7.12,4.77,4.67-1.5,4.78-8.01,7.22-15.99,2.44-7.99,5.71-16.1,18.24-20.12,11.33-3.64,22.48,1.31,27.4,16.64,2.31,7.2,3.16,14.87,2.37,21.59l-23.46,7.53-4.2-13.06,10.38-6.13c-.12-1.29-.37-2.53-.76-3.73-1.03-3.2-3.45-4.33-6.12-3.48-4,1.28-5.29,6.41-7.19,13.78-2.4,9.01-6.18,18.75-17.65,22.43-15.86,5.09-23.89-2.04-28.77-17.23Z"/><path class="cls-2" d="m2014.95,1149.59l11.19-2.54,9.59,13.76-.74,10.65-50.1,11.38c-3.82.87-5.3,3.21-4.46,6.9.34,1.5.69,2.43,1.37,4.14l35.09-7.97,5.33-4.37,11.19-2.54,9.58,13.76-.74,10.65-50.79,11.53c-4.78,1.08-5.82,2.18-5.2,4.91l-15.29,3.47c-2.11-2.97-3.7-6.19-4.7-10.56-1.43-6.28-1.39-12.46,6.91-16.36-9.78-3.23-12.86-9.86-14.16-15.59-2.05-9.01,1.46-15.69,16.07-19.01l34.54-7.84,5.32-4.37Z"/><path class="cls-2" d="m2031.17,1219.01l11.42-1.13,7.8,14.84-2.06,10.47-9.47.94c9.65,5.09,13.24,11.49,13.93,18.46.76,7.66-2.55,12.63-10.93,14.59,9.79,5.08,13.53,11.6,14.22,18.57.87,8.78-3.54,14-14.68,15.1l-43.47,4.3-5.85,3.39-11.28,1.12-2.76-27.86,11.29-1.12,6.38,1.9,35.52-3.52c4.46-.44,5.66-2.53,5.34-5.73-.21-2.09-.92-3.57-1.93-5.3l-39.98,3.96-5.88,3.11-11.28,1.12-2.73-27.58,11.28-1.12,6.38,1.9,35.52-3.52c4.46-.44,5.66-2.53,5.34-5.73-.21-2.09-.92-3.57-1.93-5.29l-39.98,3.96-5.88,3.11-11.28,1.12-2.76-27.86,11.28-1.12,6.41,2.18,36.92-3.66,5.13-3.6Z"/><path class="cls-2" d="m2016,1322.27c31.08.55,40.4,11.64,40.09,29.42-.31,17.64-10.93,24.31-32.21,23.93-5.46-.1-12.73-.65-16.23-.99l.52-29.26h-.7c-8.82-.17-10.86,4.56-11,12.39-.09,5.18.26,8.83,1.13,15l-17.5-.31c-1.71-6.05-2.6-11.39-2.44-20.49.31-17.36,7.26-30.26,38.33-29.71Zm23.16,28.28c.08-4.76-3.4-5.66-15.71-6.3l-.21,11.62c9.24.16,15.83-.56,15.92-5.32Z"/><path class="cls-2" d="m2058.69,1388.15l5.76-2.47,11.41,1.24,4.58,16.13-4.17,9.83-58.73-6.39,14.54,11.3,7.26-2.03,11,1.2-3.19,29.37-11.55-1.26-6.33-10.41-10.36-8.31-25.54,8.21c-3.8,1.28-5.99,3.29-6.82,5.74l-13.78-1.5c-1.37-4.23-1.49-7.06-1.02-11.38,1.07-9.88,7.99-12.65,17.54-14.99l19.55-4.92.21-1.95-15.73-1.71-6.41,1.98-11.27-1.23,3.04-27.97,11.27,1.23,5.82,3.45,62.91,6.84Z"/><path class="cls-2" d="m2072.91,1502.43l-128.44-27.31,3.61-16.98,128.44,27.31-3.61,16.98Z"/><path class="cls-2" d="m1963.91,1522.99l6.16,6.86,58.58,19.05,1.77-5.46-12.85-7.56,4.24-13.05,29.52,11.07-20.61,63.37-30.39-8.41,4.24-13.05,14.84,1.44,1.77-5.46-58.58-19.05-9.02,1.93-10.92-3.55,10.3-31.69,10.92,3.55Z"/><path class="cls-2" d="m1915.51,1602.8c-11.75-9.45-13.45-17.07-8.83-27.58,1.46-3.33,2.85-5.78,4.66-8.51l16.41,7.21c-4.06,7.85-4.41,12.13,2.06,17.58l3.38-7.69,54.75,8,8.74-.75,10.64,4.68-11.83,26.92-10.64-4.68-5.45-5-7.73-1.56c-7.73-1.56-19.91-4.47-27.85-6.58l30,20.83,7.54.25,10.64,4.68-10.53,23.97-10.64-4.68-5.36-6.94-49.95-40.15Z"/><path class="cls-2" d="m1957.55,1653.05l7,.39,10.01,5.61-1.9,16.27-7.68,7.41-6.84-3.83c3.52,6.31,4.31,13.49.82,19.72-5.68,10.14-15.57,11.17-40.85-3-27.48-15.41-32.02-27.91-23.19-43.66,1.51-2.69,2.91-4.62,4.63-6.55l-4.64-2.6-7.63-.42-9.28-5.2,13.62-24.3,9.89,5.55,4,5.46,52.02,29.17Zm-7.18,21.97l-36.63-20.54c-.53.66-1.13,1.45-1.68,2.43-2.53,4.52-1.51,8.14,16.31,18.13,15.63,8.76,18.49,7.96,20.75,3.93.62-1.1,1.12-2.58,1.25-3.95Z"/><path class="cls-2" d="m1911.86,1698.25c25.64,17.57,27.32,31.96,17.26,46.63-9.97,14.55-22.51,14.27-40.06,2.24-4.5-3.09-10.27-7.55-13-9.76l16.54-24.13-.58-.4c-7.28-4.99-11.58-2.17-16.01,4.3-2.93,4.27-4.64,7.51-7.31,13.15l-14.43-9.89c1.9-5.99,4.1-10.94,9.25-18.44,9.81-14.32,22.72-21.26,48.35-3.69Zm3.77,36.36c2.69-3.93.28-6.6-9.65-13.91l-6.57,9.58c7.62,5.22,13.52,8.25,16.21,4.33Z"/><path class="cls-2" d="m1895.73,1794.06l8.44,2.6,8.26,7.56-22.12,24.17-33.46-19.43c-4.37-2.48-8.47-5.47-12.56-8.46,3.34,3.82,6.68,7.63,9.63,11.66l22.78,31.1-23.16,25.3-8.26-7.56-3.33-8.18-44.92-38.83-8.44-2.6-8.47-7.75,21.08-23.03,8.47,7.75,2.67,8.9,10.02,9.17c4.54,4.16,15.84,15.25,28.06,27.2l-38.56-56.36,8.13-8.88,59.02,32.76c-12.76-10.73-24.59-20.61-29.14-24.77l-10.02-9.17-8.44-2.6-8.47-7.75,18.33-20.04,8.47,7.75,3.33,8.18,42.65,41.31Z"/><path class="cls-2" d="m1802.15,1831.42c20.42,23.43,18.44,37.79,5.03,49.46-13.3,11.59-25.37,8.18-39.35-7.87-3.59-4.12-8.05-9.88-10.14-12.71l22.06-19.22-.46-.53c-5.79-6.65-10.67-5-16.58.15-3.91,3.4-6.37,6.11-10.38,10.9l-11.5-13.2c3.34-5.33,6.71-9.56,13.57-15.54,13.09-11.4,27.32-14.89,47.74,8.54Zm-5.46,36.14c3.59-3.13,1.92-6.32-5.85-15.88l-8.76,7.63c6.07,6.97,11.03,11.38,14.62,8.25Z"/><path class="cls-2" d="m1751.6,1919.3l4.68,6.46,6.49,2.04,6.74,9.3-8.89,14.22-10.08,3.5-45.68-63.04c-3.2-4.42-4.54-4.84-6.81-3.19l-9.2-12.7c2.04-3.38,4.01-5.67,8.55-8.96,5.67-4.11,11.27-4.02,17.34,1.26-1-8.78,1.48-14.9,7.15-19.01,9.86-7.15,18.75-4.42,36.25,19.72,18.24,25.17,17.97,38.16,7.65,45.63-4.08,2.96-9.23,4.44-14.19,4.75Zm-7.01-11.35c.99-.54,1.87-1.01,2.77-1.66,4.08-2.96,3.69-8.03-6.66-22.32s-12.95-16.2-17.94-12.59c-.57.41-1.62,1.35-2.81,2.56.25.34.57.79.9,1.25l23.74,32.76Z"/><path class="cls-2" d="m1711.92,1923.41l5.86,3.62,6.04,9.76-9.9,13.53-10.31,2.76-30.13-48.69-5.62-3.77-5.97-9.64,24.05-14.88,5.97,9.64.86,6.71,19.15,30.95Zm17.13,48.17c-6.79,4.2-12.26,2.81-16.31-3.74-3.98-6.43-2.85-12.06,3.93-16.26,6.55-4.05,12.26-2.81,16.31,3.74s2.62,12.21-3.93,16.26Z"/><path class="cls-2" d="m1621.98,1911.04c4.83-2.54,11.01-3.43,15.16,3.25.79-9.91,5.15-13.95,9.61-16.3,8.42-4.44,16.19-1.41,21.02,7.76,5.67,10.78,3.89,24.21-11.56,42.64l3.39,6.44c2.02,3.84,4.35,4.35,7.94,2.46,1.24-.65,2.54-1.49,3.7-2.58l-3.53-13.01,12.39-6.52,11.55,21.93c-5.01,6.12-11.71,12.02-19.76,16.26-15.73,8.29-24.71,7.16-32.67-7.95l-14.94-28.37c-2.28-4.33-3.49-5.12-6.09-3.75l-7.31-13.87c2.38-2.99,6.02-5.7,11.1-8.38Zm22.59,8.04c-.87.46-1.86.98-3.14,2.45l8.35,15.86c4.03-7.66,3.75-12.1,1.86-15.69-1.76-3.34-4.22-4.11-7.07-2.61Z"/><path class="cls-2" d="m1591.72,2002.84c2.74,7.05,5.9,8.22,11.51,6.04l.78-.3-2.65-16.09,14.74-5.73,10.91,28.05c-5.92,4.1-12.06,8-20.93,11.44-17.09,6.65-28.62,2.12-34.1-11.98-4.87-12.53-3.54-32.27,12.69-62.01l-31.58,12.28-7.61-19.57,47.23-18.37,7.61,19.57c-9.1,26.82-13.12,45.06-8.61,56.67Z"/><path class="cls-2" d="m1537.98,2049.13c-21.02,5.94-31.13-1.54-41.79-39.26-11.46-40.56-6.12-50.5,14.77-56.4,20.88-5.9,30.64-.22,41.94,39.8,10.62,37.59,5.96,49.96-14.92,55.86Zm-5.18-18.32c5.12-1.45,5.67-4.66-1.87-31.33-7.57-26.81-9.14-29.28-14.94-27.64-6.06,1.71-5.74,4.39,2,31.3,7.71,26.77,9.68,29.13,14.8,27.68Z"/><path class="cls-2" d="m1462.22,2038.85c1.36,7.44,4.24,9.19,10.16,8.1.28-.05.55-.1.83-.15l.43-16.3,15.56-2.85,5.42,29.61c-6.58,2.91-13.35,5.57-22.72,7.29-18.04,3.3-28.5-3.33-31.22-18.2-2.42-13.22,2.62-32.36,24.17-58.5l-33.33,6.1-3.78-20.66,49.85-9.12,3.78,20.66c-14,24.62-21.39,41.77-19.15,54.03Z"/><path class="cls-2" d="m1402.66,2046.89c.73,7.52,3.46,9.51,9.45,8.93.28-.03.56-.05.84-.08l1.8-16.21,15.75-1.53,2.91,29.96c-6.81,2.35-13.78,4.43-23.25,5.35-18.25,1.77-28.12-5.71-29.58-20.76-1.3-13.38,5.33-32.02,29-56.26l-33.72,3.27-2.03-20.9,50.44-4.89,2.03,20.9c-16.02,23.36-24.83,39.82-23.63,52.22Z"/><path class="cls-2" d="m1331.9,2091.36l-2.13-131.3,17.36-.28,2.13,131.3-17.36.28Z"/><path class="cls-2" d="m1266.2,2040.21l4.99-48.18-6.82-.71c-3.48-.36-5.84.66-6.31,5.26l-5.26,50.83-4.68,7.12-18.66-1.93,6-57.93c1.23-11.84,6.33-21.72,19-20.41l44.84,4.64-1.15,11.14-4.65,6.84-2.38,22.98c.71-.07,1.41,0,2.1.08,6.13.63,8.76,5.13,7.76,14.74l-.98,9.47c-.98,9.47-5.43,15.76-18.94,14.37-8.49-.88-16.38-3.53-14.86-18.29Zm19.46-11.22l-.94,9.05c-.98,9.47-1.05,10.17,1.59,10.44,2.51.26,2.72-.42,3.48-7.8l.46-4.46c.65-6.27.14-6.74-1.95-6.96l-2.65-.27Z"/><path class="cls-2" d="m1256.55,1943.86l18.52,2.97-.71,4.42-3.51,2.41c.71-.03,1.56-.03,2.53.12,4.7.75,6.56,3.32,5.4,10.51-1.06,6.64-4.75,9.3-12.36,8.08-7.05-1.13-8.91-4.55-8.05-9.94l1.38-8.57-2.07-.33c-1.8-.29-2.48.45-2.75,2.11l-1.6,9.95-4.61,3.09-8.85-1.42,2.24-13.96c1.31-8.16,4.47-11.05,14.42-9.45Zm11.4,19.98c-.35,2.21-.05,2.97,1.33,3.19,1.66.27,2.3-1.05,2.81-4.23.53-3.32.36-4.91-1.71-5.24l-1.38-.22-1.04,6.5Z"/><path class="cls-2" d="m1226.63,1994.88c-2.38,10.8-7.65,13.22-13.8,11.86l-.82-.18-.78,3.55c1.02-.06,1.87-.02,2.82.19,6.02,1.33,8.12,6.09,6.04,15.52l-2.05,9.3c-2.05,9.3-7.19,15.04-20.45,12.12-8.34-1.84-15.88-5.37-12.68-19.86l7.24-32.81c-3.09-3.55-6.8-8.81-8.76-12.26l-11.25,50.99-5.46,6.54-18.32-4.04,17.35-78.6,20.78,4.59c2.26,5.37,5.77,10.88,10.26,17.17,3.05-12.52,9.67-13.92,19.78-11.69,11.48,2.53,14.69,6.83,11.92,19.4l-1.81,8.2Zm-21.12,23.58l-1.96,8.89c-2.05,9.3-2.2,9.98.4,10.55,2.46.54,2.75-.11,4.35-7.36l.97-4.37c1.36-6.15.9-6.68-1.15-7.13l-2.6-.57Zm4.82-23.16c.29.64,1.26,1.42,2.36,1.67,1.78.39,2.75-.11,3.41-3.12l1.81-8.2c1.42-6.42,1.13-7.06-1.06-7.54-2.19-.48-2.75.11-4.23,6.81l-2.29,10.39Z"/><path class="cls-2" d="m1137.32,1974.02c-8.15-2.54-9.99-8.39-7-18.02,3.96-12.7,9.8-19.67,25.21-19.27l-.96,9.67c-5.71-.02-9.16.22-11.07,2.12.71.07,1.51.32,2.31.57,7.75,2.42,9.59,8.27,7.18,16.02-2.42,7.75-7.79,11.36-15.68,8.9Z"/><path class="cls-2" d="m1057.11,1955.98l21.89-30.25,21.1,9.39-16.97,38.11c1.27.26,2.29.71,3.57,1.28,6.4,2.85,8.01,8.16,4.08,16.99l-3.87,8.7c-3.87,8.7-10.06,13.3-22.46,7.78-7.8-3.47-14.48-8.44-8.45-21.99l3.98-8.95c4.95-11.13,10.86-21.98,15.43-30.52-3.07,4.15-6.09,8.17-9.1,12.19l-15.6,20.94-7.03-3.13,5.12-25.61c1.03-5.06,2.05-10.12,3.08-15.18-3.36,8.92-7.29,20.51-12.47,32.15l-7.46,16.75-6.66,5.31-14.84-6.6,32.73-73.54,21.49,9.56-7.57,36.63Zm20.88,25.38l-3.7,8.31c-3.87,8.7-4.16,9.34-1.73,10.42,2.3,1.02,2.71.44,5.73-6.34l1.82-4.09c2.56-5.76,2.22-6.37.3-7.22l-2.43-1.08Z"/><path class="cls-2" d="m1020.15,1895.02c9.87,5.58,12.19,10.59,6.26,21.07l-3.03,5.36c-4.75,8.41-9.13,11.88-15.9,9.34l-1.65,2.92c-2.89,5.12-1.29,9.4,8.49,19.11-6.22,10.15-17.78,22.91-32.04,14.85-7.68-4.34-13.2-9.07-17.44-13.24l7.51-13.28c4.65,3.43,9.43,6.94,15.27,10.25,2.19,1.24,3.32,1.24,4.48-.52-10.03-9.85-12.28-17.24-6.63-27.23l13.23-23.4c5.93-10.48,13.29-9.85,21.46-5.24Zm-14.14,25.29l2.32,1.31c2.07,1.17,2.59.82,6.45-6l1.24-2.19c3.72-6.58,3.89-7.45,1.7-8.69-1.95-1.1-2.61-.51-7.29,7.78l-4.41,7.8Z"/><path class="cls-2" d="m973.05,1980.46c.79.32,1.5.76,2.22,1.2,4.77,2.94,6.8,7.65,3.49,13.01-3.23,5.24-8.61,7.03-16.12,2.4-6.91-4.26-9.15-9.43-5.48-15.39,1.84-2.98,4.53-4.94,7.1-5.65-4.49-1.78-9.18-3.52-16.76-5.89l6.39-10.37c11.1,5.2,23.08,11.92,33.42,18.63l-3.75,6.08c-3.39-1.43-6.47-2.84-10.52-4.02Zm-3.29,2.41l-3.75,6.08c-.88,1.43-.8,2.63.27,3.29,1.79,1.1,3,.21,4.76-2.66,1.76-2.86,2.17-4.58-.1-5.98l-1.19-.73Z"/><path class="cls-2" d="m973.16,1919.24c-7.28,10.63-15.13,7.97-21.71,3.46-6.7-4.59-9.16-9.67-3.07-18.56l7.2-10.51c3.96-5.78,8.23-6.07,11.7-3.7.12.08.35.24.46.32,2.89-4.47,2.5-7.11-2.12-10.28-4.5-3.08-7.61-3.51-11.56,2.26l-14.63,21.37c-6.01,8.78-5.04,15.04,4.2,21.37,5.43,3.72,12.29,7.57,18,10.63l-7.75,11.32c-9.36-2.68-19.13-6.99-26.41-11.98-18.48-12.66-20.05-24.25-7.31-42.84l16.45-24.03c10.12-14.79,20.37-13.88,36.42-2.89,17.9,12.26,22.77,21.02,12.48,36.04l-12.34,18.02Zm-13-6.53l8.54-12.48-1.85-1.27c-1.39-.95-2.83-.58-5.68,3.58l-5.06,7.39c-1.11,1.62-1.55,3.01.06,4.12,1.73,1.19,2.87.27,3.98-1.35Z"/><path class="cls-2" d="m928.76,1865.08c-7.21,8.39-13,8.03-17.77,3.92-.21-.18-.42-.37-.64-.55l-2.37,2.76c.93.43,1.65.87,2.4,1.51,4.67,4.02,4.27,9.21-2.03,16.53l-6.21,7.22c-6.21,7.22-13.45,9.85-23.75,1-6.48-5.57-11.45-12.24-1.77-23.5l21.91-25.48c-1.04-4.59-1.82-10.98-1.92-14.95l-34.05,39.6-7.9,3.18-14.22-12.23,52.48-61.04,16.14,13.88c-.56,5.8-.06,12.31.91,19.99,8.61-9.58,15.11-7.69,22.96-.94,8.92,7.67,9.71,12.97,1.32,22.73l-5.48,6.37Zm-29.77,10.78l-5.93,6.9c-6.21,7.22-6.66,7.75-4.65,9.48,1.91,1.64,2.47,1.2,7.31-4.42l2.92-3.4c4.11-4.78,3.96-5.46,2.36-6.83l-2.02-1.73Zm15.21-18.12c-.05.7.44,1.85,1.29,2.58,1.38,1.19,2.47,1.2,4.48-1.13l5.48-6.37c4.29-4.99,4.34-5.69,2.64-7.15-1.7-1.46-2.47-1.2-6.95,4l-6.94,8.07Z"/><path class="cls-2" d="m832.76,1792.61l32.15-19,15.6,17.04-30.77,28.18c1.06.74,1.81,1.57,2.76,2.6,4.73,5.16,4.09,10.68-3.03,17.21l-7.02,6.43c-7.02,6.43-14.53,8.18-23.7-1.83-5.77-6.3-9.91-13.51,1.03-23.54l7.23-6.62c8.98-8.23,18.73-15.83,26.33-21.83-4.47,2.58-8.84,5.06-13.21,7.54l-22.67,12.98-5.2-5.68,14.91-21.44c2.96-4.23,5.92-8.46,8.88-12.69-6.64,6.84-14.87,15.9-24.26,24.5l-13.52,12.39-8.22,2.22-10.97-11.98,59.36-54.37,15.89,17.34-21.56,30.56Zm9.02,31.61l-6.71,6.15c-7.02,6.43-7.54,6.9-5.74,8.86,1.7,1.86,2.31,1.49,7.78-3.52l3.3-3.03c4.65-4.25,4.58-4.95,3.16-6.5l-1.8-1.96Z"/><path class="cls-2" d="m823.17,1721.97c6.83,9.05,6.96,14.57-2.65,21.82l-4.92,3.71c-7.71,5.82-13.11,7.26-18.31,2.24l-2.68,2.02c-4.69,3.54-4.93,8.11.17,20.92-9.75,6.83-25.44,13.94-35.31.86-5.31-7.04-8.5-13.58-10.73-19.09l12.18-9.19c2.9,5,5.88,10.12,9.93,15.48,1.52,2.01,2.56,2.46,4.32,1.3-5.27-13.03-4.4-20.71,4.76-27.62l21.46-16.19c9.61-7.25,16.12-3.74,21.77,3.74Zm-23.05,17.57l1.6,2.12c1.43,1.9,2.05,1.79,8.31-2.94l2.01-1.52c6.03-4.55,6.54-5.28,5.02-7.29-1.35-1.79-2.19-1.51-9.79,4.23l-7.15,5.4Z"/><path class="cls-2" d="m798.39,1686.67c6.21,9.49,5.97,15-4.11,21.59l-5.15,3.37c-8.08,5.29-13.57,6.37-18.41,1.01l-2.81,1.84c-4.92,3.22-5.46,7.76-1.23,20.88-10.19,6.17-26.31,12.2-35.28-1.5-4.83-7.38-7.57-14.12-9.42-19.77l12.77-8.36c2.56,5.19,5.19,10.49,8.87,16.11,1.38,2.11,2.38,2.62,4.22,1.59-4.39-13.36-3.01-20.96,6.6-27.24l22.49-14.72c10.07-6.59,16.33-2.66,21.47,5.19Zm-24.17,15.99l1.46,2.23c1.3,1.99,1.92,1.92,8.48-2.37l2.11-1.38c6.33-4.14,6.88-4.83,5.5-6.94-1.23-1.87-2.08-1.65-10.05,3.56l-7.5,4.91Z"/><path class="cls-2" d="m711.54,1670.37c1.7,3.38,3.58,5.88,6.34,8.56l4.86-8.4,16.63-8.37c-.13-.25-.19-.38-.25-.5-2.14-4.25-1.21-8.95,6.79-12.98l11.38-5.73c8.51-4.28,13.58-1.97,18.43,7.66,4.66,9.26,5.17,15.27-5.84,20.8l-33.15,16.67-4.68,8.15-8.51,4.28c-9.27-2.86-22.26-13.1-29.24-26.98-6.48-12.88-7.39-25.28,8-33.02l33.9-17.05c-3.63-.68-7.52-2.49-11.16-4.73l-38.52,19.38-8.52-.1-8.43-16.76,38.4-19.31c-1.83-4.88.04-9.27,8.3-13.42l11.88-5.98c7.25-3.65,12.96-.72,17.49,8.29,5.73,11.38,2.54,15.33-7.84,20.56,5.2,2.24,11.15,3.17,18.04,2.21l9.63,19.14-49.28,24.79c-7.38,3.71-6.8,8.59-4.67,12.85Zm12.22-73.85c-4.63,2.33-5.88,3.58-4.93,5.46.5,1,1.26,1.56,2.2,1.87l8.76-4.4c6.63-3.33,7.32-4.15,6.31-6.15-.94-1.88-1.82-2.06-7.32.71l-5,2.52Zm42.02,55.81c-1.01-2-1.7-2.12-8.2,1.15l-3.25,1.64c-6.75,3.4-6.75,4.02-5.62,6.27l1.01,2,8.63-4.34c8.13-4.09,8.63-4.34,7.44-6.72Z"/><path class="cls-2" d="m697.98,1541.17l28.72.98,4.94,16.06-51.51,15.86c-17.93,5.52-30.18-2.87-37.1-25.35-1.94-6.29-2.26-13.51-1.04-18.14l-10.55-5.25,12.08-15,6.99,7.96c2.57-4.01,6.8-6.93,14.7-9.36l39.61-12.19,8.34,1.39,4.98,16.19-29.84,9.18c8.14-1.63,11.08,1.72,12.72,7.07,1.4,4.55.61,8.16-3.04,10.6Zm-38.57,3.67c2.8,9.1,7.66,11.56,16.62,8.8l4.68-1.44c5.35-1.65,14.85-2.67,20.98-3.23-2.79-.02-5.85.04-7.44.09l-10.5.16c-9.48.13-13.94-2.45-15.79-8.47-1.52-4.95-.97-9.81,5.21-12.59l-4.55,1.4c-9.5,2.92-11.93,6.45-9.21,15.29Zm33.89-12.19c-.49-1.61-1.68-2.12-4.76-1.17l-11.11,3.42c-2.01.62-2.74,1.58-2.2,3.31.29.94.94,1.62,2.21,1.96l12.58-3.87c2.94-.91,3.89-1.64,3.27-3.64Z"/><path class="cls-2" d="m742.78,1488.32l3.67,14.96-7.48,1.84c.27.51.44,1.19.54,1.6,1.04,4.21.99,8.12-6.49,9.96-7.48,1.84-10.93-1.06-13.17-10.17-1.87-7.61-.73-12.36,7.02-14.27l15.91-3.91Zm-8.28,16.16l-5.44,1.34c-2.31.57-3.16,1.21-2.83,2.57.4,1.63,1.59,1.77,4.58,1.04,3.67-.9,4.52-1.54,4.05-3.45l-.37-1.5Z"/><path class="cls-2" d="m699.23,1488.59l-7.89-2.48-14.99,2.87c-3.11-2.83-6.3-5.35-9.6-7.71.51,1.19.72,2.29.93,3.39,1.45,7.56-1.94,12.2-11.43,14.02l-9.35,1.79c-10.18,1.95-16.66-.66-18.82-11.94-2.13-11.14.55-16.5,13.34-18.94l5.23-1c8.94-1.71,16.21-.96,21.8.68l21.73-4.16-.87-4.54c-.6-3.16-2.21-4.85-6.75-3.98l-50.47,9.65-8.16-2.43-3.39-17.74,57.21-10.94c11.69-2.24,22.63-.2,25.02,12.32l7.47,39.05-11,2.1Zm-41.96-6.23l-8.94,1.71c-9.35,1.79-10.04,1.92-9.54,4.53.47,2.47,1.19,2.48,8.48,1.09l4.4-.84c6.19-1.18,6.52-1.68,6.1-3.88l-.5-2.61Z"/><path class="cls-2" d="m659.82,1426.11c-14.23,1.23-20.25-6.68-21.03-15.75-.58-6.7,1.31-14.17,6.77-19.27l-1.12.1c-9.62.83-13.19,5.07-12.18,16.79.53,6.14,1.57,11.67,3.09,19.55l-13.25,1.15c-3.79-8.1-6.96-17.1-7.95-28.54-.53-6.14.5-12.13,2.43-15.81l-8.61-6.98,14.97-12.11,5.13,8.97c3.09-3.22,7.86-5.04,16.36-5.77l41.29-3.57,7.86,3.12,1.63,18.83-41.84,3.62c-.44,1.44-.94,5.42-.71,8.07.41,4.74,2.57,6.95,7.17,6.55-.27-4.75,1.62-8.85,9.43-9.53l14.23-1.23c11.72-1.01,13.82,3.86,14.63,13.21.9,10.46-2.03,15.49-14.45,16.57l-23.85,2.06Zm28.49-19.89c-.19-2.23-.91-2.45-6.21-1.99l-8.93.77c-3.77.33-4.22,1.63-4.06,3.44l.19,2.23,11.16-.96c7.39-.64,8.07-.98,7.85-3.49Z"/><path class="cls-2" d="m724.39,1364.26l.55,15.39-7.69.28c.16.55.19,1.25.2,1.67.16,4.34-.69,8.15-8.38,8.43s-10.48-3.27-10.82-12.64c-.28-7.83,1.8-12.25,9.78-12.54l16.37-.59Zm-11.4,14.14l-5.6.2c-2.38.08-3.34.54-3.29,1.94.06,1.68,1.19,2.06,4.27,1.95,3.78-.14,4.74-.59,4.67-2.55l-.06-1.54Z"/><path class="cls-2" d="m620.56,1353.5l-7.62-3.8-.3-18.76,43.96-.71c0-.28,0-.42,0-.56-.08-4.76,2.8-8.59,11.76-8.73l12.74-.21c9.52-.15,13.09,4.27,13.28,15.75.17,10.64-1.98,15.85-14.72,16.06l-59.07.96Zm64.07-20.64c-.04-2.24-.6-2.65-7.88-2.53l-3.64.06c-7.56.12-7.83.69-7.79,3.21l.04,2.24,9.66-.16c9.1-.15,9.66-.16,9.62-2.82Z"/><path class="cls-2" d="m668.97,1316.33c-11.02-.91-14.13-5.8-13.62-12.07.02-.28.05-.56.07-.84l-3.63-.3c.2,1,.27,1.85.19,2.83-.5,6.14-4.94,8.86-14.57,8.07l-9.49-.78c-9.49-.78-15.88-5.1-14.76-18.63.7-8.51,3.18-16.46,17.97-15.24l33.49,2.75c3.1-3.54,7.81-7.93,10.96-10.34l-52.04-4.27-7.21-4.53,1.54-18.7,80.23,6.59-1.74,21.21c-5.02,2.96-10,7.19-15.63,12.48,12.81,1.33,15.1,7.7,14.25,18.03-.96,11.72-4.78,15.48-17.62,14.43l-8.37-.69Zm-26.21-17.74l-9.07-.75c-9.49-.78-10.19-.84-10.4,1.81-.21,2.51.48,2.71,7.88,3.32l4.46.37c6.28.52,6.74,0,6.92-2.1l.22-2.65Zm23.6,1.66c-.59.37-1.24,1.44-1.33,2.56-.15,1.81.48,2.71,3.55,2.96l8.37.69c6.56.54,7.15.17,7.33-2.07.18-2.23-.48-2.71-7.32-3.27l-10.6-.87Z"/><path class="cls-2" d="m675.58,1239.41c-10.85-2.15-13.33-7.63-12.03-14.23.14-.69.27-1.37.54-2.03-.08-11.15-7.33-15.58-18.18-17.73l-8.93-1.77-.92,4.67,10.16,2.01c9.89,1.96,13.14,6.45,11.67,13.87-1.6,8.1-6.49,10.42-15.28,8.68l-9.34-1.85c-10.16-2.01-13.11-6.59-11.53-14.56,1.01-5.08,4.05-7.48,7.64-8.33l-4.57-7.18.05-.27c1.28-6.45,5.36-11.21,11.07-11.94l-.41-.08-6.65-5.31,3.64-18.4,78.96,15.63-3.86,19.5c-6.01,2.95-10.7,6.45-15.93,10.55,11.54,3,13.09,8.87,11.21,18.35-2.39,12.08-6.45,14.56-19.09,12.06l-8.24-1.63Zm-44.25-23.03l-.46,2.33c-.41,2.06-.19,2.39,6.54,3.72l5.08,1.01c7.14,1.41,7.47,1.19,7.88-.87.44-2.2.19-2.39-6.95-3.8l-12.08-2.39Zm55.01-17.65l-32.82-6.5c6.07,2.49,11.35,6.81,15.68,14.52l5.49,1.09c3.62-3.14,8.11-7.1,11.65-9.11Zm-11.54,24.4c-.63.3-1.4,1.29-1.62,2.39-.35,1.79.17,2.75,3.19,3.34l8.24,1.63c6.45,1.28,7.09.97,7.52-1.22s-.17-2.75-6.9-4.08l-10.44-2.07Z"/><path class="cls-2" d="m618.36,1101.8l125.31,39.3-5.2,16.57-125.31-39.3,5.2-16.57Z"/><path class="cls-2" d="m673.42,1080.1c-18.54-7.56-27.96-18.2-30.45-31.01l-10.68,22.86-11.67-4.76,17.86-43.82,13.35,5.44c1.47,14.2,7.06,20.87,30.79,30.54l27.87,11.36c.11-.26.16-.39.21-.52,1.8-4.41,5.95-6.8,14.24-3.42l11.8,4.81c8.82,3.59,10.37,9.06,6.03,19.69-4.02,9.85-8.05,13.8-19.84,9l-49.52-20.19Zm61.85,4.04c.85-2.07.49-2.67-6.26-5.42l-3.37-1.37c-7-2.85-7.47-2.44-8.42-.11l-.85,2.07,8.94,3.65c8.43,3.43,8.95,3.65,9.95,1.18Z"/><path class="cls-2" d="m720.02,1009.22c-4.98-2.56-7.5-1.02-9.42,2.71-1.22,2.37-1.94,4.99-1.9,7.37l53.28,27.4-10.37,20.17-36.98-19.02c-.2.69-.52,1.31-.84,1.93-2.82,5.48-7.96,6.3-16.55,1.88l-8.47-4.35c-8.47-4.35-12.71-10.79-6.5-22.86,3.39-6.6,8.15-12.18,19.81-7.6-4.8-7.51-5.87-18.29-2.02-25.76,4.48-8.71,11.9-11.51,24.1-5.24l47.93,24.65,4.99,6.82-8.64,16.81-48.43-24.91Zm-11.93,30.23l-8.09-4.16c-8.47-4.35-9.09-4.67-10.3-2.31-1.15,2.24-.59,2.69,6,6.08l3.98,2.05c5.6,2.88,6.23,2.58,7.19.71l1.22-2.37Z"/><path class="cls-2" d="m745.37,947.21l40.3,26.87,3.81-5.71c1.94-2.91,2.14-5.47-1.71-8.04l-65.81-43.88-4.11-7.46,10.41-15.61,71.75,47.84c9.9,6.6,16.27,15.73,9.2,26.33l-25.01,37.5-9.32-6.21-3.88-7.3-19.22-12.82c-.27.66-.66,1.24-1.05,1.82-3.42,5.12-8.62,5.36-16.66,0l-7.92-5.28c-7.92-5.28-11.41-12.15-3.88-23.45,4.74-7.1,10.76-12.85,23.1-4.62Zm.85,22.44l-7.57-5.05c-7.92-5.28-8.5-5.67-9.98-3.46-1.4,2.1-.89,2.6,5.28,6.72l3.73,2.49c5.24,3.5,5.9,3.26,7.07,1.52l1.48-2.21Z"/><path class="cls-2" d="m706.64,919.9c2.27-3.02,5.69-7.11,8.94-10.27l7.5,5.63c-2.49,3.56-4.48,6.44-6.47,9.32,2.58-.87,5.26-.25,7.73,1.6,5.6,4.2,5.43,9.33.72,15.6-5.29,7.05-10.73,8.23-17.45,3.19-7.84-5.88-9.46-13.75-.97-25.06Zm4.81,12.01l-1.26,1.68,4.14,3.11c3.81,2.86,4.9,2.8,5.99,1.35,1.18-1.57.84-2.52-3.08-5.46-3.02-2.27-4.62-2.24-5.8-.67Z"/><path class="cls-2" d="m803.91,933.36c-8.45-7.14-8.14-12.93-4.07-17.74l.54-.64-2.78-2.35c-.42.93-.85,1.66-1.49,2.41-3.98,4.71-9.17,4.35-16.55-1.89l-7.27-6.14c-7.27-6.14-9.97-13.37-1.2-23.74,5.51-6.52,12.14-11.55,23.48-1.97l25.66,21.68c4.58-1.08,10.96-1.92,14.93-2.05l-39.89-33.7-3.24-7.87,12.11-14.33,61.49,51.95-13.73,16.25c-5.8-.51-12.31.04-19.98,1.08,9.66,8.53,7.82,15.04,1.13,22.95-7.59,8.98-12.88,9.82-22.72,1.51l-6.42-5.42Zm-11.04-29.67l-6.95-5.87c-7.27-6.14-7.81-6.6-9.52-4.56-1.63,1.92-1.18,2.48,4.49,7.27l3.42,2.89c4.81,4.07,5.49,3.91,6.85,2.31l1.72-2.03Zm18.25,15.05c-.7-.04-1.85.45-2.57,1.31-1.17,1.39-1.18,2.48,1.17,4.47l6.42,5.42c5.03,4.25,5.72,4.29,7.17,2.58,1.45-1.71,1.18-2.48-4.06-6.91l-8.13-6.87Z"/><path class="cls-2" d="m763.86,878.97l-2.85-2.69c-7.73-7.31-8.83-15.11-1.33-23.04,5.58-5.9,14.5-9.21,22.52-9.14l-7.83-7.41,12.12-12.81,15.56,14.72-12.12,12.81c-6.72.38-11.9,3-15.07,6.36-2.41,2.54-1.74,5.3.2,7.12l1.12,1.06-12.32,13.02Z"/><path class="cls-2" d="m822.18,837.81l-2.55-8.13,13.31-13.22,30.99,31.18c.2-.2.3-.3.4-.4,3.38-3.35,8.13-3.93,14.45,2.42l8.98,9.04c6.71,6.75,6,12.39-2.14,20.48-7.55,7.5-12.8,9.56-21.78.53l-41.64-41.91Zm59.29,31.87c1.59-1.58,1.49-2.27-3.64-7.44l-2.57-2.58c-5.33-5.36-5.92-5.17-7.71-3.39l-1.59,1.58,6.81,6.85c6.41,6.45,6.81,6.85,8.7,4.98Z"/><path class="cls-2" d="m913.37,807.56c4.12,7.14,4.58,17.32,3.61,26.87l-1.83,15.74-15.71,13.08-33.59-40.35c-12.18-14.63-8.7-31.01,7.55-44.54,16.14-13.44,31.27-13.65,43.99,1.63l28.76,34.54,1.93,8.23-13.02,10.84-21.68-26.04Zm-8.69-10.44l-3.23-3.87c-6.45-7.75-11.94-6.46-18.28-1.17-6.24,5.2-7.41,11.45-1.94,18.01l2.6,3.12c-3.08-6.54-.55-11.38,4.51-15.59,5.16-4.3,10.45-5.61,16.35-.5Zm2.32,20.29l-9.94-11.94c-1.25-1.51-2.26-2.49-4.09-.97-1.61,1.34-1.24,2.67.2,4.39l7.88,9.47c1.43,1.72,2.51,1.92,4.34.4l1.61-1.34Zm-.11,8.84c-4.46,3.17-8.44,3.21-13.52-1.13,4.01,5.04,8.42,11.21,11.9,16.69l.45-3.84c.31-3.35.77-7.38,1.17-11.72Z"/><path class="cls-2" d="m852.82,785.78l-2.33-3.15c-6.34-8.55-6.07-16.42,2.71-22.92,6.52-4.83,15.89-6.54,23.77-5.07l-6.42-8.66,14.17-10.5,12.75,17.21-14.17,10.5c-6.69-.79-12.24.88-15.95,3.63-2.81,2.08-2.63,4.91-1.05,7.05l.92,1.24-14.4,10.67Z"/><path class="cls-2" d="m950.87,788.02c-6.03,1.78-12,.34-18.46-9.49l-8.91-13.58c-8.76-13.34-5.6-20.27,4.69-27.03,10.06-6.61,15.06-4.87,21.59,5.08l6.07,9.25c4.76,7.26,4.41,13.35-2.03,17.58-1.05.69-2.07,1.19-3.04,1.49,2.46,3.24,5.5,2.25,10.88-1.28l3.04-2,7.15,10.88-3.86,2.54c-2.57,1.69-2.86,4.06-1.25,6.51l1.31,1.99,9.25-6.07c2.93-1.92,4.11-4.2,1.57-8.07l-28.2-42.95-.87-8.47,15.68-10.3,31.97,48.69c6.53,9.95,8.94,20.76-2.65,28.37l-36.4,23.9-6.76-10.3c-4.99-7.61-4.88-12.54-.78-16.74Zm-11.77-32.47l5.76,8.78,2.22-1.46c1.76-1.15,1.84-2.04-.7-5.91l-4.38-6.67c-3.84-5.85-4.54-5.9-6.3-4.74-2.22,1.46-1.84,2.04,3.39,10Z"/><path class="cls-2" d="m999.76,660.2l59.94,116.83-15.45,7.92-59.94-116.83,15.45-7.92Z"/><path class="cls-2" d="m1016.81,520.07l-25.73-129.22-15.92-3.83-.97-5.42,56.21-19.28c25.53-8.76,42.98-3.68,49.63,15.72,6.38,18.61-1.86,37.8-15.12,50.09,15.73-2.52,30.42,4.83,36.59,22.84,11.2,32.66-10.61,58.72-36.34,67.55l-60.17,20.64-.97-5.42,12.79-13.68Zm-8.5-141.54l12.39,63.22,22.76-7.81c17.67-7.83,26.11-25.77,18.99-46.55-5.7-16.63-16.32-19.84-31.77-16.53l-22.37,7.67Zm41.22,136.96l20.65-6.86c17.22-13.65,18.99-30.41,13.09-47.63-6.72-19.6-19.52-22.73-37.42-19.46l-23.55,8.08,12.53,64.28,14.7,1.59Z"/><path class="cls-2" d="m1175.25,493.48c-35.37,6.66-54.03-16.66-60.3-49.97-8.06-42.77,7.37-107.86,53.64-116.57,37.22-7.01,54.44,16.58,60.71,49.89,8.33,44.21-5.93,107.58-54.05,116.65Zm-10.08-8.32l25.41-4.15c22.04-25.44,24.05-69.05,19.09-95.37-4.84-25.71-13.09-43.53-31.61-50.26l-25,4.07c-21.05,28.45-22.97,71.4-17.62,99.78,3.49,18.51,12.04,39.04,29.73,45.93Z"/><path class="cls-2" d="m1301.07,479.11c-35.97,1.4-51-24.4-52.32-58.28-1.69-43.49,23.12-105.61,70.17-107.44,37.85-1.47,51.42,24.39,52.74,58.26,1.75,44.96-21.65,105.55-70.58,107.46Zm-8.75-9.71l25.74-.37c25.53-21.94,33.92-64.77,32.88-91.54-1.02-26.14-6.57-44.98-23.89-54.36l-25.33.36c-24.99,25.06-33.2,67.26-32.07,96.12.73,18.82,6.18,40.39,22.67,49.8Z"/><path class="cls-2" d="m1410.12,477.61l-39.68-4.81,1.49-5.3,16.22-6.89,33.37-127.49-11.61-10.26,1.49-5.3,38.64,4.68,6.16,100.45,57.19-92.77,39.47,4.78-1.49,5.3-16.22,6.89-33.37,127.49,11.61,10.26-1.49,5.3-44.25-5.36,1.49-5.3,15.6-6.96,33.75-128.91-65.64,105.03-10.18-1.23-8.32-113.99-33.75,128.91,10.99,10.19-1.49,5.3Z"/><path class="cls-2" d="m1512.49,530.2l-3.14-6.76c8.4-5.55,17.98-14.25,24.04-23.57l-4.28-1.01c-4.89-1.15-7.39-6.04-5.63-10.79l4.66-11.59c1.76-4.74,7.41-7.71,12.3-6.56l8.96,2.11c4.89,1.15,7.39,6.04,5.63,10.79l-3.83,9.85c-5.16,12.76-19.32,27.27-38.73,37.53Z"/><path class="cls-2" d="m1628.51,510.13l64.54-114.87-9.59-13.27,2.79-4.75,51.54,20.47c26.64,10.58,36.56,29.83,27.99,51.42-10.66,26.84-41.32,41.68-74.38,28.55l-18.87-7.49-26.31,46.97,11.15,13.88-2.79,4.75-47.46-18.85,2.79-4.75,18.61-2.07Zm84.9-112.86l-36.56,65.41,29.17,11.59c16.99,2.02,32.65-12.48,39.45-29.59,6.8-17.11.7-30.12-11.83-39.37l-20.23-8.03Z"/><path class="cls-2" d="m1798.08,501.68c10.94-6.88,28.11-12.36,36.96-7.69,2.78,1.47,4.31,3.93,2.55,7.26l-10.4,12.96-19.43-10.27c-9.34,3.35-18.75,9.5-23.18,15.2l-44.42,56.29-16.1-8.51,62.16-79.57-5.18-2.74-23.22,17.08-4.95-4.51c21.53-21.04,38.32-26.38,49.05-20.71,8.88,4.69,4.83,14.15-1.15,21.88l-2.7,3.31Z"/><path class="cls-2" d="m1897.76,535.74c19.61,13.22,22.59,32.38,6.8,55.81-17.43,25.85-56.35,55.14-91.57,31.4-23.43-15.79-19.02-38.05-7.91-54.54,21.4-31.75,61.79-53.49,92.68-32.67Zm-6,4.79c-18.22-12.28-50.37,10.71-69.55,39.17-11.93,17.7-14.66,29.99-2.34,38.29,19.78,13.33,51.55-13.96,66.4-36,13.45-19.96,17.47-33.4,5.49-41.47Z"/><path class="cls-2" d="m2028.33,691.84c3.62-2.62,6.51-5.08,8.38-7.06,4.74-5.02,4.79-8.43,1.44-11.59-1.37-1.29-3.33-2.57-5.89-3.82l-50.8,9.33-48.52,36.5-12.94-12.2,65.16-49.58c14.05-10.63,17.44-16.05,8.59-25.27l-53.52,12.52-48.55,35.62-13.25-12.49,81.14-60.11-4.26-4.02-26.94,10.26-3.57-5.67c26.37-14.54,43.96-15.2,52.79-6.88,7.31,6.89.88,14.93-6.94,20.78l-18.25,13.56c27.55-9.69,47.88-12.95,56.71-4.62,9.29,8.76,13.33,20.63-3.9,33.72l-11.15,8.47c27.42-8.94,49-10.17,60.11.31,8.53,8.04,10.31,18.35-12.17,34.26l-58.44,41.53,3.81,3.59,29.27-11.52,3.28,5.68c-36.26,20.45-44.12,15.06-49.29,10.18-7.16-6.75-7.14-16.22,6.94-25.96l50.77-35.53Z"/><path class="cls-2" d="m2125.33,739.5l-13.8,7.1c6.61,5.22,12.85,10.99,17.55,17.15,11.67,15.31,11.81,33.1-9.65,49.46-35.78,27.28-82.49,27.1-100.12,3.97-4.82-6.32-7.5-11.91-9.39-17.84l-33.89,17.68,2.76,16.05-5.66,4.31-28.8-37.78,5.66-4.31,14.58,7.04,120.71-62.56c-6.95-4.97-13.8-9.48-20.41-13.65l4.39-5.98c4.58,2.56,14.63,7.79,25.65,14.66l16.05-8.29,14.38,12.99Zm-92.67,79.33c16.02,4.1,47.46-.92,72.08-19.7,9.98-7.61,17.04-15.62,19.63-26.02-7.18-7.69-15.02-14.87-22.98-21.16l-75.78,39.36c-1.79,6.63-2.21,11.95-1.33,16.54l8.37,10.98Z"/><path class="cls-2" d="m2171.99,896.47c4.23-1.46,7.71-2.96,10.07-4.31,5.99-3.43,7.03-6.67,4.74-10.67-.94-1.63-2.44-3.42-4.52-5.37l-56.54-8.64-53.38,20.9-9.15-15.98,148.4-57.92-10.91-19.07,4.1-2.1c10.91,7.26,16.57,16.32,19.38,21.22,5.72,9.99-.67,14.85-11.49,19.11l-74.11,28.91c32.29-.88,56.07,5.29,64.59,20.18,5.82,10.17,4.53,20.55-21.6,29.24l-67.99,22.75,2.6,4.54,31.35-2.51,1.48,6.38c-40.64,9.03-46.59,1.58-50.12-4.59-4.88-8.54-2.11-17.6,14.18-22.82l58.91-19.24Z"/><path class="cls-2" d="m2167.33,1019.84c-19.79-1.45-35.7-5.6-41.13-18.98-6.06-14.93-4.09-30.64,22.09-41.27,34.12-13.86,87-8.23,99.68,22.99,1.73,4.27-2.88,12.92-7.47,21.1l11.37-2.59,6.85,16.87-99.32,21.82,1.97,4.85,31.41,1.7.62,6.53c-41.48,3.52-46.46-4.85-49.14-11.44-3.7-9.11,5.04-17.63,19.94-20.97l3.14-.6Zm-29.65-15.74c16.97,6.21,31.87,8.96,46.38,11.88l48.13-10.51c2.88-6.82,4.98-14.44,5.84-26.77-14.91-12.24-53.69-12.07-80.44-1.21-16.29,6.61-20.15,11.57-23.38,18.08l3.46,8.53Z"/><path class="cls-2" d="m2238.2,1097.47c30.33,7.17,50.78,17.95,54.76,33.56,2.89,11.36-1.63,20.72-28.63,22.41l-64.9,3.79c-6.8.44-6.95.69-6.23,3.53.72,2.84,5.34,3.17,31.96,8.49l-.53,5.53c-42.14-2.66-45.79-12.74-47.65-20.04-2.12-8.31,2.32-14.63,14.91-15.24l67.33-3.55c5.07-.43,8.22-.8,10.86-1.47,6.69-1.7,8.5-4.76,7.21-9.83-.77-3.04-2.67-6.23-53.51-26.1l-58.1,4.22-4.49-17.64,99.34-7.6c2.13-.11,2.28-1.23,1.92-2.65-.46-1.82-1.69-4.1-30.34-8.9l.02-6.7c30.05,1.85,45.27,10.71,48.27,22.47,1.86,7.3-3.25,10.98-9.94,12.68-2.23.57-4.51.93-7.05,1.15l-25.22,1.89Z"/><path class="cls-2" d="m2191.94,1274.68c-.87-12.94.33-29.38,4.41-40.56l42.71,1.96.39,5.85-37,14.23-1.22,19.38c1,14.82,12.58,31.24,34.51,29.77,17.12-1.15,24.78-15.09,33.75-28.27,10.13-14.73,19.85-29.23,43.23-30.8,19.63-1.32,43.28,10.52,45.58,44.76,1.04,15.45-3.24,29.79-9.68,40.08l-35.83-2.63-.39-5.85,34.22-11.95,2.33-21.55c-4.1-17.34-16.3-24.07-31.33-23.06-17.75,1.19-25.33,13.24-34.48,26.85-9.74,14.29-18.92,30.63-40.21,32.06-33.2,2.23-49.23-24.17-50.98-50.27Z"/><path class="cls-2" d="m2206.08,1374.72l45.61,37.18,55.49,12.76-.95,18.18-99.17-22.81-.29,5.43,27.72,14.87-2.21,6.17c-39.06-14.41-40.03-23.89-39.65-31,.52-9.82,7.51-15.32,24.28-11.51l19.05,4.35c-27.26-15.68-41.28-31.92-40.63-44.25.67-12.75,9.16-22.78,28.18-17.8l73.17,19.14.31-5.85-25.25-13.9,2.01-6.39c28.15,10.7,40.04,23.69,39.4,35.81-.53,10.03-10.82,10.54-20.32,7.94l-62.01-16.25c-17.16-4.46-24.11-3.78-24.72,7.92Z"/><path class="cls-2" d="m2197.79,1512.17l32.87-.55c10.13,17.82,13.7,20.39,18.72,26.63,11.1,6.72,23.95,12.06,33.7,13.43-.98-25.92-40.3-57.41-53.44-63.44l-42.83-14.68,3.33-18.11,150.74,51.55,3.97-21.61,4.49,1.04c3.64,12.59,2.12,23.16,1.1,28.71-2.08,11.32-10.09,10.91-21.11,7.18l-74.27-25.36c15.14,10.23,38.99,36.74,35.02,58.35-1.97,10.7-7.72,15.39-17.6,13.57-13.79-2.54-26.92-15.59-40.82-40.7l-27.69,1.29c-5.13.12-10.5.41-15.33,1.22l-1.17,6.38,25.38,19.35-2.99,5.83c-36.67-19.29-36.5-29.48-35.32-35.86,1.82-9.88,9.18-14.06,23.26-14.23Z"/><path class="cls-2" d="m2250.92,1604.2c-11.83-3.53-21.7,4.66-32.7,12.95-10.93,8.09-23.03,17.15-38.27,12.6-22.46-6.71-27.02-29.47-22.05-46.11,4.31-14.44,12.61-26.15,22.69-32.1,9.63,5.06,23.27,13.5,31.11,18.68l-3.32,6-35.34-5.97-5.94,13.3c-3.89,15.22,2,25.49,13.23,28.85,10.83,3.23,20.12-4.48,30.09-11.54,12.18-8.59,24.05-18.37,41.09-13.28,11.63,3.47,24.98,17.29,17.07,43.75-2.93,9.83-6.91,18.03-13.35,27.9-8.78-3.5-25.81-12.29-33.92-17.33l2.34-5.63,32.71,2.34,3.88-9.33c3.69-13.09-.71-22.49-9.33-25.06Z"/><path class="cls-2" d="m2140.7,1669.89l30.09,50.58,47.74,31.03-7.13,16.75-85.33-55.46-2.13,5.01,20.93,23.48-4.19,5.04c-31.74-26.94-29.4-36.18-26.61-42.72,3.85-9.05,12.31-11.81,26.76-2.48l16.4,10.62c-20.22-24.08-27.82-44.15-22.98-55.51,5-11.74,16.42-18.25,32.57-7.05l62.17,43.09,2.3-5.39-18.95-21.72,4.08-5.31c22.77,19.71,29.48,35.99,24.72,47.15-3.94,9.24-13.78,6.18-21.82.49l-52.67-36.54c-14.58-10.08-21.35-11.82-25.94-1.04Z"/><path class="cls-2" d="m2098.17,1896.48c3.25,3.08,6.19,5.46,8.49,6.93,5.81,3.73,9.17,3.14,11.65-.73,1.02-1.59,1.91-3.75,2.67-6.49l-18.58-48.19-44.86-40.92,9.59-14.98,60.79,54.85c13.04,11.84,19.01,14.17,26.42,3.76l-22.22-50.27-44-41.11,9.82-15.33,74.1,68.6,3.16-4.93-15.08-24.57,4.91-4.56c19.17,23.22,23.09,40.39,16.54,50.61-5.42,8.46-14.5,3.63-21.71-2.97l-16.71-15.43c14.62,25.28,21.6,44.65,15.05,54.87-6.89,10.75-17.8,16.93-33.86,2.42l-10.39-9.39c13.87,25.29,19.07,46.27,10.83,59.13-6.32,9.87-16.12,13.53-35.92-5.61l-51.64-49.74-2.82,4.41,16.74,26.63-4.97,4.27c-26.82-31.84-22.97-40.56-19.13-46.55,5.31-8.28,14.62-10.02,26.8,2.01l44.33,43.31Z"/><path class="cls-2" d="m1980.81,1915.61l-8.49,9.54c1.97,16.04,4.45,28.05,9.22,43.78l-6.29,3.92c-15.62-31.55-14.36-48.08-.59-63.55,17.39-19.54,39.65-16.54,58.95,1.75,28.08,26.67,38.4,68.91,17.26,92.67-13.91,15.63-31.24,13.38-39.87,5.14-11.64-11.48-9.95-20.62-.64-38.95l17.95-35.29c-2.87-3.39-6.01-6.47-9.15-9.55-13.67-13.29-28.23-13.92-38.35-9.48Zm52.62,25.54l-20.88,43.61c10.59,11.39,20.6,17.77,28.82,16.4l10.02-11.26c1.45-13.28-5.56-31.84-17.96-48.76Z"/><path class="cls-2" d="m1905.6,2006.15l26.19,19.87c-3.04,20.27-1.82,24.5-1.73,32.51,4.58,12.15,11.39,24.28,18.21,31.38,15.24-20.99,3.77-70.04-2.84-82.9l-24.62-38,13.8-12.19,86.71,133.64,16.47-14.54,2.89,3.59c-4.91,12.15-12.63,19.52-16.87,23.26-8.63,7.62-14.67,2.35-21.04-7.39l-42.75-65.82c5.59,17.4,7.97,52.98-8.5,67.52-8.16,7.2-15.58,7.33-22.23-.2-9.28-10.51-11.54-28.89-6.96-57.21l-22.57-16.08c-4.11-3.07-8.51-6.16-12.81-8.51l-4.86,4.29,8.01,30.89-5.95,2.74c-16.92-37.82-10.5-45.72-5.63-50.02,7.53-6.65,15.9-5.38,27.08,3.17Z"/><path class="cls-2" d="m1870.91,2215.65l-82.04-176.28,10.36-6.72,82.03,176.28-10.35,6.72Z"/><path class="cls-2" d="m1704.51,2130.73l39.54,131.9,24.38-11.09.47-38.38,5.33-2.43,12.32,41.75-97.33,44.27-12.13-41.84,5.33-2.43,20.1,29.02,24-10.92-39.52-132.37-17.56-1.21-1.49-5.3,46.48-21.14,1.49,5.3-11.41,14.84Z"/><path class="cls-2" d="m1636.69,2109.62c1.83,5.79,2.56,14.33-1.98,24.99l-4.56-.53c-3.78-11.97-12.03-22.09-20.11-26.12l-9.78,3.09c-7.11,14.32-12.28,31.97-16.05,49.19,3.21-2.33,6.69-4.53,10.68-5.79,16.96-5.36,28.35,7.06,34.46,31.25l15.33,60.99,5.38-1.04,3.76-29.06,6.28.43c.37,31.71-7.38,44.69-16.96,47.71-7.58,2.4-12.83-.33-16.64-15.15l-15.73-60.87c-3.31-12.56-9.26-21.65-15.25-23.93l-12.77,4.04c-1.23,6.53-2.25,13-2.95,19.15-2.98,25.3-2.41,44.44-1.93,55.69l18.04,23.05-4.26,14.29c-8.78,2.77-18.31-1.68-22.59-15.24-3.47-10.97-3.47-40.82.79-80.13,5.78-48.35,17.2-80.27,38.15-86.89,11.77-3.72,24.46-2.46,28.68,10.9Z"/><path class="cls-2" d="m1515.78,2309.26l-.13-15.52c-7.64,3.56-15.6,6.53-23.21,7.96-18.92,3.54-34.87-4.34-39.83-30.88-8.26-44.23,12.91-85.86,41.5-91.21,7.82-1.46,14.01-1.34,20.16-.36l-.54-38.22-15.58-4.75-1.31-6.99,46.7-8.73,1.31,6.99-12.85,9.85,1.56,135.96c7.56-3.97,14.67-8.06,21.37-12.08l3.36,6.61c-4.35,2.94-13.54,9.56-24.63,16.31l.18,18.06-18.07,7Zm-29.16-118.45c-10.87,12.46-20.53,42.79-14.84,73.24,2.31,12.34,6.29,22.24,14.4,29.24,10.09-2.95,20.03-6.72,29.24-11l-1.05-85.38c-5.11-4.58-9.68-7.35-14.17-8.63l-13.58,2.54Z"/><path class="cls-2" d="m1386.41,2201.48l-12.74.79c-9.9,12.78-16.59,23.05-24.28,37.57l-7.23-1.65c11.13-33.4,23.66-44.25,44.34-45.53,26.11-1.63,39.79,16.18,40.61,42.75,1.16,38.71-21.26,75.96-53.01,77.94-20.88,1.3-31.6-12.5-31.92-24.43-.18-16.34,7.46-21.64,26.97-28.1l37.59-12.41c.35-4.42.29-8.82.22-13.22-.35-19.06-10.24-29.76-20.55-33.73Zm19.37,55.19l-45.53,16.26c-.5,15.55,2.11,27.12,8.91,31.94l15.04-.94c10.38-8.4,18.47-26.52,21.58-47.26Z"/><path class="cls-2" d="m1246.08,2193.36l39.58,5.56-1.59,5.27-16.35,6.58-35.79,126.84,11.42,10.48-1.59,5.27-38.54-5.42-4.25-100.55-58.95,91.67-39.37-5.53,1.59-5.27,16.35-6.58,35.79-126.84-11.42-10.48,1.59-5.27,44.14,6.21-1.59,5.27-15.73,6.66-36.2,128.26,67.63-103.76,10.15,1.43,6.15,114.13,36.2-128.26-10.8-10.39,1.59-5.27Z"/><path class="cls-2" d="m1086.79,2166.47l-12.25-3.6c-13.66,8.63-23.47,16-35.65,27.03l-6.23-4.02c21.86-27.59,37.34-33.51,57.22-27.66,25.09,7.38,31.88,28.79,23.58,54.05-12.13,36.78-45.92,64.14-76.43,55.16-20.07-5.91-25.43-22.53-21.67-33.86,5.41-15.42,14.4-17.79,34.94-17.2l39.57,1.17c1.84-4.04,3.28-8.19,4.73-12.35,6.18-18.03.53-31.47-7.8-38.72Zm-.63,58.49l-48.35-.27c-5.78,14.44-7.28,26.22-2.53,33.07l14.45,4.25c12.62-4.36,26.42-18.62,36.42-37.05Z"/><path class="cls-2" d="m962.2,2143.75c15.23-13,29.29-21.72,43.69-15.46,14.78,6.42,23.36,21.33,12.09,47.24-14.68,33.78-54.24,64.95-85.14,51.52-4.03-1.75-7.31-10.48-9.93-19.15l-29.21,47.77,20.53,8.93-2.22,4.05c-12.56.02-23.04-3.17-28.41-5.5-10.75-4.67-8.54-12.38-2.41-22.27l72.21-117.83-4.22-1.83-23.63,20.76-5.01-4.23c27.17-31.54,36.39-29.13,42.92-26.29,9.02,3.92,10.21,13.79.81,29.1l-2.08,3.2Zm33.22-9.75c-16.58,7.17-29.15,15.62-41.47,23.5l-26.38,42.84c2.99,6.78,7.57,13.56,15.08,22.53,19.22-1.69,44.65-27.14,56.16-53.62,7.01-16.12,7.3-24.67,5.05-31.57l-8.44-3.67Z"/><path class="cls-2" d="m827.44,2197.52l5.11,2.87c4.38,2.46,5.43,7.85,2.06,11.72l-6.25,7.29c-3.96,4.49-9.25,5.36-14,2.7l-5.11-2.87c-4.38-2.46-5.43-7.85-2.06-11.72l6.25-7.29c3.68-4.41,9.62-5.16,14-2.7Zm85.1-113.49c8.58,4.82,10.59,13.63-.45,26.87l-50.79,60.52,5.11,2.87,23.65-16.47,4.84,4.64c-22.07,20.49-38.98,25.39-49.56,19.44-8.76-4.92-4.65-14.37,1.71-21.84l54.86-65.19-4.56-2.56-25.61,18.25-4.55-4.72c30.24-28.62,39.16-25.28,45.37-21.8Z"/><path class="cls-2" d="m808.8,2051.99c17.43-9.47,33.07-14.58,44.87-6.25,13.17,9.29,19.99,23.57,3.71,46.66-21.23,30.1-68.76,53.93-96.29,34.51-3.76-2.65-4.55-12.43-5.12-21.79l-8.17,8.32-14.88-10.49,71.79-72.02-4.28-3.01-27.35,15.54-4.04-5.16c33-25.38,41.71-21.02,47.53-16.92,8.04,5.67,5.29,17.56-5.45,28.42l-2.32,2.2Zm33.46-2.78c-17.64,3.95-31.66,9.68-45.45,15.06l-34.82,34.85c1.26,7.29,3.62,14.84,9.54,25.68,19.16,2.24,51.7-18.85,68.35-42.45,10.13-14.36,10.7-20.62,9.9-27.84l-7.52-5.31Z"/><path class="cls-2" d="m694.8,1912.48l58.81,59.28-13.21,9.86c-77.25,2.95-108.64,7.26-129.74,28.19-6.83,6.78-8.65,16.83-2.47,26.33,4.27,4.31,7.08,6.54,10.47,9.07l39.42-14.05,5.45,5.5-34.87,25.17c-10.18-6.7-17.42-10.72-26.85-20.23-15.62-15.75-19.56-31.6-5.29-45.75,19.76-19.6,61.66-26.09,135.78-22.69l-50.55-50.96,13.06-9.71Z"/><path class="cls-2" d="m657.91,1861.45c16.27,21.01,8.26,44.16-16.22,63.12-33.75,26.14-98.07,51.08-129.08,11.05-11.79-15.22-6.63-35.89,19.35-56.01,15.05-11.66,93.28-60.34,125.96-18.16Zm-125.15,83.44c33.67,3.83,79.61-21.96,98.3-36.44,15.55-12.04,24.11-24.23,25.15-32.45l-15.89-20.51c-21.18-2.39-70.11,18.84-99.89,41.9-11.58,8.97-21.02,18.66-22.28,28.64l14.61,18.86Z"/><path class="cls-2" d="m573.6,1738.94l42.66,71.78-15.21,6.36c-75.66-15.89-107.15-19.32-132.7-4.14-8.27,4.92-12.48,14.23-8.79,24.94,3.1,5.22,5.28,8.06,7.96,11.34l41.65-4.06,3.96,6.66-39.94,15.95c-8.25-8.97-14.29-14.63-21.14-26.14-11.33-19.07-11.3-35.4,5.97-45.66,23.92-14.22,66.15-10.35,137.23,10.94l-36.67-61.7,15.03-6.25Z"/><path class="cls-2" d="m536.05,1658.07l35,75.8-15.78,4.75c-73.6-23.64-104.57-30.32-131.55-17.86-8.74,4.03-13.88,12.86-11.32,23.9,2.54,5.51,4.41,8.56,6.74,12.1l41.84.27,3.25,7.03-41.37,11.72c-7.28-9.78-12.7-16.03-18.31-28.19-9.3-20.14-7.57-36.38,10.66-44.8,25.27-11.67,66.86-3.44,135.35,25.1l-30.08-65.17,15.59-4.66Z"/><path class="cls-2" d="m343.26,1607.07l192.11-29.91,3.59,11.81-192.11,29.91-3.59-11.81Z"/><path class="cls-2" d="m474.22,1477.9l-5.7-39.14-109.54,15.95-2.71-18.64,88.84-12.93c20.09-2.92,33.17-1.66,36.34,20.08l8.59,59.02-6.63.96-6.53-7.08-54.46,7.93c.8,1.15,1.43,2.54,1.61,3.78.78,5.38-4.23,13.09-23.9,15.96-11.8,1.72-33.58,1.72-36.06-15.26-1.36-9.32,4.13-15.19,22.56-17.88l87.59-12.75Zm-91.07,28.06c-7.87,1.15-8.96,2.36-8.51,5.47.54,3.73,2.59,4.7,10.25,3.58,22.78-3.32,31.41-6.48,30.9-10-.54-3.73-3.44-3.3-32.64.95Z"/><path class="cls-2" d="m523.75,1460.17c5.03,2.78,5.87,5.65,6.01,7.53.25,3.34-2.77,7.97-10.7,8.55-9.81.72-28.63-4.19-29.49-15.88-.57-7.72,5.09-10.66,14.9-11.38l25.46-1.87-1.23-16.7-41.32,3.03-.96-13.15,37.98-2.79c6.26-.46,11.68,1.87,12.35,11.05l2.24,30.47-15.23,1.12Zm-25.84,8.19c8.15-.39,16.47-1.42,24.5-3.48l-.55-4.58-24.42,1.79.46,6.26Z"/><path class="cls-2" d="m477.58,1382.92c.17,10.25-5.61,15.16-18.8,15.37-12.97.21-32.08-3.46-45.2-12.66-3.03,6.75-9.87,10.62-22.85,10.83-14.44.23-40.43-2.48-40.7-19.22-.16-9.62,6.03-15.58,24.87-15.26l41.03.59c9.64-12.29,19.5-23.75,32.7-35.69l-96.66,1.56-.3-18.83,122.82-1.99.29,18.2c-21.16,11.85-36.86,24.04-50.26,36.6l15.48-.25c25.11-.41,37.42,10.07,37.59,20.74Zm-68.96-6.84l-48.33.78.15,9.21c17.78-.29,33.87-2.01,48.26-5.18l-.08-4.81Zm9.87,2.14l.08,4.81c16.57,2.24,32.92,3.65,49.45,3.8l-.15-9.42-49.38.8Z"/><path class="cls-2" d="m512.72,1288.09l-6.18,4.16c-6.79-7.43-16.89-15.53-27.04-20.06l-.33,4.38c-.37,5.01-4.81,8.25-9.77,7.25l-12.17-2.79c-4.96-1-8.78-6.11-8.41-11.12l.68-9.18c.37-5.01,4.81-8.25,9.77-7.25l10.33,2.24c13.41,3.1,29.95,14.82,43.12,32.38Z"/><path class="cls-2" d="m433.59,1148.77l44.22,15.88.43-1.83-81.01-43.35,2.99-12.84,91.4-1.29.47-2.04-46.37-7.57-60.74-14.14,3.46-14.88,119.64,27.85-5.08,21.81-85.06.83-.71,3.06,75.57,39.94-4.46,19.16-61.14-14.23,2.33,5.7c-1.64,5.2-8.71,10.65-28.07,6.14-14.06-3.27-38.62-12.21-34.83-28.52,2.18-9.38,9.48-13.05,27.83-8.78l39.13,9.11Zm-9.84,12.75l-47.08-10.96-2.09,8.97c17.32,4.03,33.35,6.26,48.08,6.68l1.09-4.69Z"/><path class="cls-2" d="m526.02,1049.27c-3.01,8.48-9.95,11.12-23.75,6.22-12.82-4.55-31.97-13.79-37.99-27.48l5.12-4.4-18.34-6.51-23.07,32.45c-16.23-9.32-29.77-21.23-26.34-30.89,4.13-11.64,17.02-27.93,28.82-39.29l7.68,6.5-26.01,33.85c2,2.49,6.76,6.62,14.08,11l29.54-28.15,25.83,9.17c44.17,15.68,47.56,28.65,44.41,37.53Zm-8.02-3.07l1.89-5.32-47.33-16.8-2.52,7.1,47.96,15.03Z"/><path class="cls-2" d="m349.38,958.11c3-6.91,10.3-10.58,18.17-7.16,9.79,4.25,17.61,11.99,19.72,30.24,3.41-16.77,6.13-34.07,7.59-50.55l5.63.17c2.82,24.5-2.28,55.14-7.03,66.08l-2.25,5.18-10.17-4.42c.74-5.38,1.24-17.03-2.59-25.54.56,3.44.51,7.75-.32,9.67-2.5,5.76-8.07,8.59-15.55,5.34-10.17-4.42-18.35-17.1-13.18-29Zm24.42,18.37l2.33-5.37c-5.28-4.12-15.45-8.54-21.88-9.51l-3.09,7.1c6.88,4.13,15.27,6.86,22.63,7.78Z"/><path class="cls-2" d="m442.96,916.53c11.05-23.94,28.53-21.86,62.73-6.07,26.98,12.45,63.65,38.37,50.49,66.87-13.42,29.07-27.76,31.67-55.31,18.95-25.46-11.75-43.53-36-36.96-50.25,1.67-3.61,5.38-7.66,15.83-2.83,12.92,5.96,30.53,27.23,26.67,35.59-.53,1.14-1.15,2-2.06,2.97l4.84,2c20.49,8.54,35.84-.74,39.61-8.91,3.51-7.6.03-11.05-6.17-17.6-7.64-7.91-27.5-23.3-48.97-33.21-33.82-15.61-39.09-16.66-46.2-1.28-4.82,10.45-4.05,29.24,1.02,44.72l-6.77,2.18c-6.93-14.95-5.86-37.74,1.25-53.13Zm23.77,38.86c.85,3.16,29.51,24.45,30.91,21.41,1.93-4.18-26.6-27.26-29.62-25.2-1.01.69-1.61,2.48-1.29,3.79Z"/><path class="cls-2" d="m586.24,915.15c-5.38,8.73-12.89,9.75-24.12,2.84-11.05-6.81-25.17-20.18-31.28-35-6.19,4.05-14.04,3.64-25.09-3.17-12.29-7.57-32.74-23.85-23.96-38.11,5.05-8.2,13.47-9.89,29.17.52l34.26,22.58c14.74-5.18,29.22-9.53,46.77-12.48l-82.31-50.71,9.88-16.03,104.58,64.43-9.55,15.5c-24.21-1.4-44.01.42-62.06,3.79l13.18,8.12c21.38,13.17,26.12,28.62,20.52,37.71Zm-54.44-42.88l-41.16-25.35-4.83,7.84c15.14,9.33,29.63,16.53,43.46,21.61l2.52-4.1Zm7.17,7.12l-2.52,4.1c12.76,10.81,25.78,20.79,39.63,29.82l4.94-8.02-42.05-25.9Z"/><path class="cls-2" d="m611.8,766.29l32.47,33.96,1.2-1.45-53.11-74.97,8.41-10.15,82.34,39.68,1.33-1.61-38.1-27.49-48.02-39.78,9.75-11.76,94.59,78.36-14.28,17.24-76.47-37.26-2,2.42,49.77,69.49-12.55,15.15-48.34-40.05-.46,6.14c-3.79,3.92-12.55,5.64-27.86-7.05-11.12-9.21-29.1-28.18-18.42-41.07,6.14-7.41,14.31-7.44,28.82,4.58l30.94,25.63Zm-14.5,7.01l-37.23-30.84-5.87,7.09c13.7,11.35,27.04,20.5,40.03,27.45l3.07-3.71Z"/><path class="cls-2" d="m738.94,718.48c-6.47,6.25-13.86,5.53-24.03-5.01-9.45-9.78-22.47-26.59-21.77-41.52l6.54-1.66-13.52-14-35.1,18.77c-10.38-15.57-17.19-32.27-9.82-39.39,8.88-8.58,27.68-17.42,43.31-22.33l3.98,9.25-38.36,18.72c.69,3.12,3.1,8.93,7.71,16.12l38.98-12.05,19.04,19.72c32.56,33.72,29.81,46.84,23.04,53.38Zm-5.81-6.32l4.06-3.92-34.89-36.13-5.42,5.23,36.24,34.82Z"/><path class="cls-2" d="m788.17,674.38c-6.93,5.74-14.24,4.45-23.58-6.83-8.67-10.48-20.38-28.23-18.53-43.06l6.65-1.16-12.41-14.99-36.44,16.04c-9.16-16.32-14.68-33.49-6.78-40.02,9.51-7.87,28.93-15.26,44.89-18.96l3.26,9.52-39.68,15.73c.45,3.16,2.41,9.14,6.46,16.66l39.79-9.03,17.48,21.12c29.89,36.11,26.15,48.98,18.9,54.99Zm-5.31-6.74l4.35-3.6-32.03-38.69-5.8,4.8,33.48,37.49Z"/><path class="cls-2" d="m880.83,582.05c2.75-16.23,6.76-30.03,11.3-44.16l-37.67-60.85,14.94-9.25,33.05,53.38,3.22-5.93c10.14-6.28,16-.8,23.16,10.77,13,20.99,14.41,42.76,6.76,47.5-11.39,7.05-19.44,3.18-33.1-18.88l-6.83-11.03c-3.54,18.93-4.06,41.15-4.47,55.19l-14.59,9.03-43.18-69.74c-8.26-13.34-12.17-18.06-18.76-22.35l-20.43,4.77c-9.78,14.42-12.72,19.2-17.64,37.5l18.83-3.78,6.35,9.85-1.29,5.47,5.84,9.43,4.31-7.35c5.33-1.33,10.14-1.11,16.19,10.65,8.56,16.61,20.9,44.9,8.27,52.72-9.61,5.95-18.55,5.82-28.02-9.48-2.97-4.8-6.08-11.01-9.52-18.96l-9.84-23.44,7.12-16.72-23.21,6.25-6.83-11.03c3.68-16.31,12.46-40.69,30.79-52.04,24.91-15.42,39.09-2.05,50.55,16.45l34.7,56.04Zm-68.36-1.49l-8.01,4.96c7.1,15.05,14.91,29.65,23.79,43.6l5.87-3.63c-6.57-15.38-13.67-30.42-21.66-44.92Zm91.09-56.4l26.44,42.7,4.8-2.97c-7.21-15.23-15.49-29.79-24.84-43.69l-6.41,3.97Z"/></svg>