<?xml version="1.0" encoding="UTF-8"?><svg id="Big_Sticker" xmlns="http://www.w3.org/2000/svg" viewBox="0 0 2672.51 2672.51"><defs><style>.cls-1{fill:#f04a31;}.cls-2{fill:#fff;}</style></defs><path class="cls-1" d="m2507.85,1402.21v13.2c-3.52,2.62-7.79,4.66-10.42,7.99-6.32,8.02-12.86,16.15-17.33,25.21-2.32,4.69-9.06,11.03-.96,17.44,1.95,1.54,4,5.98,3.16,7.4-2.08,3.5-5.34,7.12-8.98,8.67-4.82,2.06-10.46,2.19-15.8,3.16q3.91,13.16-8.83,20.7c4.13,12.65,8.73,25.05,12.07,37.79,1.51,5.77,2.13,12.77.24,18.2-2.61,7.52-7.96,14.09-12.86,22.26,3.49,1.88,7.92,4.27,12.65,6.83,1.66,9.67-4.84,14.72-13.18,18.78-5.82,2.83-11.22,6.55-10,14.2,1.15,7.21,3.01,14.32,4.56,21.46-4.56,4.85-12.04,9.57-14.13,16.04-1.68,5.2-4.41,5.26-7.23,5.72-7.29,1.19-14.88.84-22,2.54-2.59.62-6.05,5.39-5.91,8.1.32,6.02,3.61,11.9,3.86,17.91.17,4.27-1.37,10.81-4.38,12.62-10.55,6.34-12.27,12.85-4.66,23.22,2.11,2.87,4.87,7.49,3.91,9.99-3.27,8.51-3.3,18.87-7.12,25.69-9.65,17.24-1.72,34.91-6.39,51.59-2.31-.62-5.58-1.49-9.43-2.51.44,2.97.7,4.74.87,5.91-5.97,1.44-11.86,2.36-17.27,4.47-1.73.68-3.35,4.69-3.08,6.94,1.35,11.19-6.73,17.32-12.7,24.35-6.17,7.26-13.45,13.56-19.73,20.74-.96,1.09.63,4.71,1.47,7,.92,2.49,4,6,3.28,7-7.33,10.2-13.97,21.58-23.52,29.23-5.11,4.09-7.77,6.63-6.48,12.29,1.29,5.61-1.38,6.72-5.89,6.72-2.62,0-5.24,0-8.09,0q2.59,8.05-.19,20.78c-.06.3.06.63.02.94-2.33,16.84-4.66,33.68-7.13,51.48-2.45,3.09-14.6-5.13-11.63,6.89-2.1.89-6.2,2.16-6.11,2.67,1.25,6.97-5.08,10.04-6.96,14.74-4.72,11.77-15.36,20.95-14.24,35.61.71,9.37-3.18,10.93-12.25,8.49-8.49-2.28-22.32,8.02-21.74,17.39.33,5.33-1.38,6.41-5.55,7.54-3.65.99-9.5,2.21-10.13,4.49-2.59,9.45-7.78,5.61-14.79,2.6-1.66,4.88-5.9,11.19-4.27,13.68,4.83,7.4.39,11.64-3.69,15.23-5.64,4.96-12.49,8.55-18.82,12.72-5.08.32-11.92.37-14.89,3.78-10.16,11.68-25.27,12.05-37.6,18.51-2.51,1.31-5.37,1.96-8.07,2.91,2.5,4.38-4.39,11.08,4.34,14.36,5.51,2.07,6.29,7.39,2.49,12.51-2.24,3.01-4.1,6.43-6.79,8.96-8.96,8.44-16.42,19.08-26.5,20.85-5.5,5.35-8.99,8.75-13.32,12.97.24,1.39.76,4.36,1.74,10-8.19-.65-15.5-1.24-23.33-1.86-1.88,1.74-4.76,3.76-6.79,6.43-4.17,5.49-8.23,9.3-15.17,3.7-.57-.46-4.7,1.81-5.25,3.45-.66,1.99.73,4.66,1.24,7.04-.74-.44-1.48-.88-2.22-1.32-5.8,6.99-14.28,13.21-16.56,21.21-1.88,6.58-4.95,9.57-9.38,13.19-2.28,1.87-4.51,4.72-5.17,7.5-3.96,16.65-4.72,17.53-20.57,19.02-.57.05-1.09.56-1.63.85.38.28.76.57,1.14.85-6.02,8.13-12.05,16.26-18.81,25.38-2.83-2.55-5.89-5.32-8.95-8.09-.26.73-.51,1.47-.77,2.2-4.52-1.02-9.19-1.6-13.52-3.15-6.73-2.4-13.13-5.73-19.87-8.07-1.87-.65-5.05.13-6.63,1.45-4.61,3.86-9.16,7.97-12.9,12.64-4.74,5.91-9.64,3.92-13.49.26-5.18-4.93-9.53-4.03-13.71.29-4.07,4.21-7.5,9.05-11.96,14.54-3.61-.98-9.97-.94-13.68-4.06-9.82-8.26-19-6.03-28.84-1.06-6.54,3.31-13.32,6.29-8.99,15.37-7.83,5.07-14.75,5.66-22.04.1-2.77-2.11-8.5-4.79-9.76-3.67-5.98,5.29-12.07,1.58-15.81-.84-8.01-5.18-12.07-1.15-16.27,4.21-3.07,3.93-5.44,8.4-8.38,12.44-4.79,6.59-10.56,12.61-14.45,19.67-2.79,5.07-3.19,11.45-4.66,17.28-5.06-1.42-9.09-3.95-11.83-2.95-3.05,1.12-4.93,5.45-7.39,8.46-1-2.06-1.97-4.09-4.22-8.73-3.47,7.42-5.93,12.68-8.85,18.92-.29-.12-2.41-1.17-4.64-1.84-6.63-1.99-13.28-3.94-19.98-5.69-7.36-1.91-14.9-4.09-18.54,5.99-.2.56-2.65,1.04-3.44.56-8.39-5.16-12.51,1.51-18.76,5.13-6.2,3.59-14.82,3.25-22.43,4.09-5.47.6-11.16,1.1-16.53.24-16.21-2.59-16.16-2.86-18.22-18.41-.06-.43-.78-.77-2.06-1.96-5.77,2.87-11.88,5.91-18.38,9.14-3.63,1.2-7.91,2.22-11.84,4-5.17,2.34-11.32,8.67-14.85,7.36-13.31-4.94-18.88,4.7-26.44,11.16h-1.89c-7.78-1.71-15.56-4.76-23.33-4.71-6.67.04-12.75,1.93-19.81-.94-8.15-3.31-17.4-3.93-26.2-5.61-4.28-.82-8.6-1.38-15.17-2.42-9.32,2.96-21.53,8.47-34.28,10.31-8.43,1.21-17.68-2.57-26.45-4.61-16.47-3.84-16.74-4.47-13.29-20.41.1-.45-.53-1.05-.55-1.07-5.01-.93-12-.24-13.8-2.97-3.46-5.25-6.24-7.4-12.52-6.16-7.65,1.51-15.58,1.59-23.19,3.19-1.53.32-2.79,4.61-3.1,7.2-.26,2.11,1.09,4.42,2.15,8.16-4.6-1.79-7.59-2.95-9.13-3.56-3.7,6.85-6.78,13.01-10.42,18.81-.62,1-4.27,1.32-5.49.47-3.14-2.17-5.71-5.18-7.63-7.02-4.99.34-10.24,2.26-14,.67-11.4-4.84-22.08-11.37-33.38-16.47-2.66-1.2-8.72-.56-9.73,1.21-5,8.81-13.02,7.01-20.07,6.06-5.62-.76-9.61-1.04-14.12,3.4-2.7,2.66-7.94,2.75-12.04,3.99-.95-3.71-1.97-7.39-2.82-11.12-.47-2.07-.67-4.2-1.07-6.82-8.2,1.66-16.8-6.01-24.06,2.81-.61.74-3.79.2-5.19-.68-6.87-4.34-10.39-2.9-10.83,5.46-.14,2.77-1.25,5.48-1.44,8.25-.69,9.92-9.06,15.11-15.05,8.01-6-7.12-17.11-13.37-13.38-26.26.33-1.15-2.28-3.14-3.63-4.87-7.18,8.6-12.92,7.93-19.31-.93-1.38-1.91-5.57-3.83-7.34-3.08-9.18,3.86-15.79.83-22.58-5.47-2.71-2.52-7.74-2.84-11.82-3.5-3.22-.52-6.71.54-9.88-.12-5.69-1.17-11.22-3.1-16.82-4.72.12-.39.73-2.31,1.91-6.08-4.49,1.98-7.69,2.68-9.94,4.54-4.7,3.89-8.76,3.07-13.37-.04-10.5-7.1-21.06-14.11-31.85-20.76-1.84-1.14-6.44-1.29-7.15-.2-4.16,6.36-11.68,8.74-14.35,2.93-3.87-8.4-12.6-1.8-15.69-7.99-.19-.38.66-1.49.48-1.65-5.15-4.62-10.6-13.23-15.54-12.95-14.6.83-21.75-7.55-27.57-16.04-9,.51-17.04,2.55-24.03.67-3.19-.86-4.32-9.42-6.38-14.49-12.6,5.37-21.91,1.62-29.11-11.74-2.84,1.99-6.48,6.24-8.37,5.57-7.78-2.77-15.14-6.83-22.4-10.87-2.72-1.51-4.75-4.25-7.1-6.43-1.55-6.24-4.18-12.2-7.91-17.35-2.79-3.85-8.05-6.08-10.34-10.1-3.6-6.31-2.97-6.34-8.86-6.99-3.59-.4-7.11-1.91-10.54-3.22-5.2-1.99-10.29-4.26-16.1-6.68-4.33-5.98-8.79-11.92-18.82-13.88-8.87-1.74-16.78-8.42-25.1-12.91,1.06-2.75,2.07-5.39,2.27-5.9-6.8-6.99-12.51-12.47-17.72-18.38-2.35-2.67-3-7.51-5.72-9-2.88-1.58-7.3-.35-9.72-.35v-11.7h-7.99c-.38-7.27-1.27-7.58-8.14-5.63-2.11.6-5.5-1.26-7.55-2.93-3.92-3.17-7.4-6.91-10.86-10.61-2.26-2.42-4.04-5.29-6.25-7.76-6.09-6.83-11.69-14.3-18.67-20.06-4.57-3.77-14.36-3.55-16.32-7.71-4.48-9.51-10.72-14.99-19.69-20.04-13.41-7.55-23.17-19.32-29.97-33.56-1.59-3.34-6.83-4.92-10.38-7.34-2.91-1.98-7.22-3.4-8.36-6.13-1.77-4.24-1.38-9.39-1.91-14.15-4.98-3.01-8.57-7.36-12.34-11.55-7.34-8.17-14.4-16.64-22.31-24.23-4.44-4.26-9.94-7.99-15.65-10.18-8.92-3.43-13.37-11.42-9.61-19.52-2.05-3.69-3.19-8.29-6.12-10.51-7.36-5.58-13.35-10.56-17.92-20-6.39-13.2-18.1-23.22-21.41-39.3-2.71-13.17-14.41-22.19-26.54-27.95-8.19-3.89-11.29-8.93-7.56-16.44,3.95-7.95,1.13-10.7-5.95-13.74-4.74-2.04-11.74-6.94-7.14-12.51,6.12-7.43,2.31-9.34-3.32-12.16-3.61-1.81-7.5-3.27-10.63-5.7-2.14-1.66-4.65-4.84-4.48-7.15.64-8.81,2.31-17.54,3.7-27.02-9.31-.59-12.55-4.63-11.1-12.77.42-2.34-1.7-5.13-2.66-7.71-3.91-10.54-7.83-21.09-10.94-29.46-3.54-4.9-8.02-8.27-7.82-11.33.7-10.44-4.11-17.44-11.59-23.28-3.96-3.08-4.99-4.94-.97-9.46,4.6-5.17,7.43-11.93,10.73-17.5-3.79-10.39-7.53-20.96-11.52-31.43-1.66-4.34-5.7-8.65-5.35-12.68.52-6,.89-9.78-6.45-9.97-.98-.03-2.88-1.76-2.76-2.04,3.28-7.84-4.67-9.53-7.17-14.15-1.73-3.22-1.46-8.71.09-12.23,2.45-5.57,5.62-10.26,1.24-16.34-.86-1.19-.17-5.03,1.07-5.94,9.89-7.29,5.16-14.4-.16-21.14,5.5-7.09,5.72-13.82,3.34-21.94-1.73-5.91-6.32-13.11,1.66-19.42,2.2-1.74,1.11-7.65,1.75-13.68-3.73,2.68-5.5,3.95-8.39,6.03,0-6.55,1.9-12.94-.4-16.9-4.73-8.14-2.04-13.58,5.47-20.58h-10.62c-9.78-11.27-11.9-23.84-13.52-37.45-2.34-19.58-.92-32.02,10.06-36.93-9.97-9.59-15.4-20.4-6.3-32.06,2.49-2.15,4.98-4.31,7.47-6.46-2.73-2.33-5.19-5.15-8.27-6.86-3.62-2-7.86-2.86-11.63-4.63-.92-.43-1.83-2.94-1.39-3.72.75-1.31,2.83-3.03,3.93-2.78,6.31,1.45,6.28-.79,4.06-5.59-2.96-6.4-5.43-13.02-7.31-17.6,7.57-3.17,14.57-6.11,21.56-9.04-.27-.98-.55-1.95-.82-2.93-2.4-1.24-4.8-2.47-7.14-3.68.15-2.75.3-5.26.44-7.77-.92.66-1.85,1.31-2.77,1.97-2.13-2.01-6.08-4.05-6.05-6.03.1-7.4,1.55-14.78,2.39-22.18,1.4-12.28,2.73-24.58,4.16-37.54-5.43-2.37-7.33-6.57-3.86-13.04,1.19-2.22.49-5.39,1.08-8.03.87-3.95,2.33-7.77,3.13-11.73,1.49-7.33,3.07-14.68,3.67-22.1.13-1.55-3.78-3.43-7.42-6.51,4.16-4.14,8.1-8.06,10.44-10.39,3.92-13.67,7.5-26.19,11.11-38.78-1.4-.49-3.59-1.26-6.43-2.26,3.67-3.88,6.73-7.12,9.83-10.39-2.66-7.43-5.26-14.68-8.23-22.97,3.24-2.32,6.88-4.93,10.01-7.17-2.22-4.27-4.36-8.37-6.86-13.17,3.43-.31,5.79-.52,8.14-.74-.75-.51-1.5-1.02-2.24-1.53,2.09-4.71,4.19-9.42,6.52-14.66-3.16-5.11-1.39-17.33,4.62-19.75,2-.8,6.05,3.5,10.19,6.12,1.2-.96,4.02-3.23,8.57-6.88-4.26-2.23-7.25-3.82-10.26-5.38-1.84-.96-4.52-1.42-5.4-2.93-2.8-4.84,2.96-20.18,6.97-22.08,3.19-8.19-.18-18.2,10.72-22.29,1.04-.39.49-5.03.76-8.82,2.41-1.61,6.45-4.32,10.69-7.15-.17-1.21-.07-2.55-.57-3.62-2.76-5.91-9.23-12.6,3.83-14.53.96-.14,2.28-3.73,1.97-5.46-.63-3.57-2.09-7.02-3.5-10.41-2.91-6.99-.67-10.55,5.22-10.84,2.64-6.27,4.96-11.77,7.28-17.26,1.53-3.64,4.14-7.22,4.35-10.94.34-6.05-.25-12.34-1.61-18.26-1.63-7.07-3.32-14.58-7.07-20.6-6.18-9.93-5.88-14.96,3.62-21.94,2.84-2.09,5.67-4.91,7.14-8.03,4.71-10,7.8-21.01,21.44-22.82,1.92-.26,4.85-4.09,4.78-6.17-.29-8.14,3.85-11.97,11.92-13.09,0-7.28-.19-13.91.14-20.51.08-1.53,1.72-3.2,3.02-4.4,8.06-7.46,15.81-14.74,19.49-25.89,4.56-13.81,10.76-27.09,16.77-41.88,11.38,7.53,12.49-5.35,18.72-8.92,9.03-5.17,8.48-12.66,5.43-19.06,11.11-13.03,21.39-25.09,31.7-37.18-.03-.03-1.11-.93-.24-.2,3.54-4.57,6.91-8.92,11.11-14.33.92.11,4.11.51,7.32.9-2.31,4.36-4.13,7.78-5.95,11.2.64.42,1.28.83,1.92,1.25,5.7-4.39,11.39-8.78,16.95-13.06,1.93-9.06-5.4-4.23-9.47-4.99,9.26-8.08,23.29-12.01,17.48-27.27,4.14-1.9,7.82-2.42,9.48-4.54,10.18-12.91,23.03-22.78,37.39-29.93,8.84-4.4,14.82-10.43,20.25-18,1.34-1.87,4.3-3.71,6.47-3.67,12.97.25,26.99-9.81,29.1-20.27,8.68-1.56,16.79-3.05,24.92-4.47,7.31-1.28,7.01-3.94,1.74-8.08-5.71-4.5-5.79-9.1.47-13.33,1.68-1.14,3.34-2.3,5-3.46l-3.01-.47c-.62-6.42-.28-13.13-2.13-19.16-1.67-5.42.26-6.15,4.25-8.91,7.96-5.49,15.73-11.99,21.53-19.63,4.89-6.44,9.68-11.85,17.18-14.98,10.63-4.43,21.09-9.11,31.16,3.7,6.24-8.74,12.6-15.93,16.7-24.24,1.59-3.22,2.21-5.15,5.52-7.5,7.15-5.09,15.97-11.17,18.29-18.65,1.81-5.83,3.63-9.53,7.7-12.95,11.45,6.97,24.65,1.09,26.14-11.85.86-7.45,3.86-9.88,11.17-10.78,6.55-.8,13.86-3.06,18.71-7.18,2.99-2.54,4.37-7.53,8.75-4.41,2.77,1.98,3.99,6.58,5.17,10.24,1.08,3.36,1.18,7.04,1.71,10.57,2.28-2.65,4.62-5.24,6.79-7.97.53-.67.53-1.77.75-2.68,3.57-14.9,4.98-15.56,19.89-11.41,3.26.91,9.67,1.04,10.1-.13,3.47-9.44,11.35-9.45,19.07-9.78v-5.04c4.18-1.47,8.69-1.65,9.79-3.67,9.01-16.6,29.32-16.7,42.04-8.97,5.48-3.55,10.92-7.08,15.13-9.81,7.12,3.19,13.01,6.93,19.4,8.21,3.08.62,8.92-2.6,10.21-5.53,1.65-3.74-.42-8.97-.16-13.52.15-2.64,1.37-7.13,2.73-7.38,2.76-.51,6.09,1,8.9,2.29,1.25.57,1.82,2.62,2.96,4.39,1.54-1.38,3.1-2.08,3.26-3.02,1.51-9.04,9.98-9.74,16.04-12.41,2.4-1.05,9.85,2.55,10.09,4.62,1.07,8.93,6.21,6.69,10.52,5.02,2.07-4.13,4.19-8.1,7.5-10.11,7.58-4.6,15.95-7.89,23.62-12.35,11.93-6.94,16.18-5.8,20.03,5.41,5.35-.28,10.39-.61,15.43-.78,2.86-.09,5.96.82,8.56.01,6.41-1.98,12.67-6.86,18.85-6.63,11.07.42,21.87,4.16,31.37-5.4,2.15-2.17,7.04-2.47,10.56-2.22,6.35.44,11.03-.42,13.67-7.22.7-1.8,6.82-3.51,6.98-3.22,5.03,8.56,13.22,3.56,19.8,5.1,7.36,1.72,12.25-.71,16.64-6.31,5.29-6.75,8.85-5.93,13.74,1.57,1.62,2.48,5.14,4.71,8.07,5.13,8.18,1.18,17.91-5.47,21.74-12.99.92-1.8,4.1-2.52,6.33-3.56,6.2-2.92,15.89,3.32,19.2-6.8,2.47-7.54,5.32-6.95,10.37-2.18,3.37,3.18,7.69,7.06,11.85,7.4,17.94,1.5,35.98,1.81,53.63,2.54-.92,2.59-1.74,4.9-2.56,7.21,2.27.66,4.51,1.5,6.82,1.91,1.51.26,3.12-.19,4.69-.18,9.89.01,19.93-1.01,29.64.35,13.48,1.9,14.7.83,14.95-13.29.07-4.05,5.2-8.28,8.72-11.7.48-.47,5.26,3.08,7.73,5.15,3.73,3.14,6.87,7.1,10.96,9.56.9.54,4.55-3.93,7.21-5.68,1.49-.98,3.51-1.43,5.33-1.58,13.95-1.13,27.91-2.36,41.88-3.06,5.53-.28,8.35,2.25,7.55,8.83-.66,5.49,3.03,10.16,8.48,5.91,6.5-5.07,12.08-2.75,18.46-1.33,4.81,1.07,9.87,1.05,14.83,1.43,17.21,1.3,36.35-8.99,50.96,8.5.54.64,2.98.06,4.36-.44,9.18-3.29,18.25-6.89,27.49-9.98,2.28-.76,5.84-.98,7.5.28,6.41,4.87,12.29,10.44,17.93,15.37,6.55-4.54,10.34-11.56,16.25-4.78,3.92,4.49,6.67,9.52,14.13,6.99,1.03-.35,3.78,3.47,5.28,5.67,1.67,2.46,2.83,5.28,4.2,7.94.59-.96,1.18-1.93,1.77-2.89,3.88,1.28,8.21,1.86,11.54,3.99,6.77,4.33,15.15,3.49,21.88-1.22,3.2-2.24,9.3-3.41,12.62-1.88,12.52,5.75,24.44,12.81,37.11,19.66-6.85,9.23,2.94,12.55,5.68,19.62,3.77-2.76,6.57-5.23,9.77-6.98,1.9-1.04,4.81-1.89,6.6-1.17,4.97,1.99,9.71,4.64,14.31,7.41,3.92,2.36,10.01,4.72,10.72,8.02,1.38,6.42,6.68,6.78,9.42,6.24,11.8-2.3,22.85-1.76,33.5,4.1.73.4,2.22.52,2.72.07,6.87-6.17,12.16-.33,17.66,2.41,9.62,4.82,19.05,10.02,30.6,16.14,4.09-1.57,11.62-5.52,12.45,7,.1,1.48,4.45,3.9,6.68,3.76,4.89-.32,10.66-.7,14.33-3.42,7.25-5.36,10.28-.52,13.48,4.07,2.46,3.53,3.72,7.88,6.09,11.5,1.25,1.91,3.59,3.23,5.65,4.45,2.18,1.29,6.66,2.35,6.58,3.15-.3,2.98-1.29,6.75-3.43,8.5-4.95,4.05-3.67,6.85.3,9.13,4.36-.71,9.3-1.93,12.01-.01,6.75,4.76,12.46,10.98,18.64,16.54,1.6,1.44,3.34,2.78,5.18,3.88,4.09,2.46,8.24,4.81,12.43,7.08,7.29,3.96,14.68,7.75,21.94,11.78,3.16,1.76,6.24,3.73,9.05,5.99,2.06,1.66,3.32,4.37,5.45,5.86,7.73,5.42,15.6,10.65,23.59,15.68,3.64,2.29,8.65,3.06,11.39,6.03,10.02,10.89,20.59,20.68,33.8,27.89,8.61,4.7,15.87,7.29,24.37.47,4.8-3.85,10.25-5.33,14.48,1.21,2.26,3.5,4.08,7.29,6.39,10.75,1.66,2.49,3.68,6.51,5.77,6.66,12.78.9,11.76,10.08,12.01,18.63,9.17.22,9.74,1.27,6.85,9.34,3.59,3.47,6.48,6.42,9.55,9.18,2.03,1.83,4.12,3.74,6.51,5,17.68,9.37,27.45,24.65,33.51,43.14,2.28,6.97,5.25,14.11,9.58,19.92,6.24,8.37,14.12,15.5,21.07,23.36,3.34,3.79,6.28,7.96,9.17,12.12,6.66,9.6,16.9,10.19,26.98,10.41,8.48.19,9.52,4.66,9.15,11.71-.27,5,.96,10.1,1.77,15.12.38,2.38.89,4.95,2.13,6.93,2.56,4.08,5.08,8.61,8.8,11.35,1.77,1.3,6.24-1.07,10.46-1.99.7,3.54,3.06,8.34,2.21,12.47-2.18,10.49,2.7,18.76,6.14,27.76,1.85,4.85,1.9,10.39,2.76,15.61-1.28.93-2.56,1.87-3.84,2.8,12.33,7.08,24.66,14.16,37.74,21.67-1.06,5.63-3.04,12.43-3.46,19.33-.51,8.34.38,16.14,4.53,24.42,4.99,9.94,15.1,8.89,21.51,14.6,2.44,2.17,6,6.66,5.24,8.26-4.3,8.97-2.87,16.89.1,26.05,3.76,11.59,4.83,24.05,7.18,36.76,15.97-8.12,10.67,8.31,15.9,12.94,7.21,2.67,14.57,5.27,21.8,8.22.9.37,1.09,2.56,1.53,3.92,2.02,6.24,2.13,15.53,6.38,18.18,12.82,7.98,8.72,26.25,20.52,30.16-3.89,7.69-7.43,13.56-9.84,19.86-1.34,3.51-.78,7.74-1.19,13.11.1.07,2.15,1.49,4.13,3.01,2.37,1.83,4.68,3.75,7.02,5.63-2.88,3.53-5.71,7.1-8.67,10.56-4.27,4.99-8.88,9.73-12.69,15.05-.51.71,3.05,6.18,4.32,6.02,6.19-.74,7.82,2.64,8.47,7.51,1.29,9.7,6.39,15.74,15.64,19.62,3.73,1.56,8.46,7.49,8.08,10.91-1.52,13.65,2.19,26.16,5.87,38.77,1.33,4.56,3.22,8.06-3.58,10.04-2.1.61-4.92,6.38-4.06,8.17,3,6.27,6.53,12.89,11.61,17.42,7.52,6.71,9,13.48,3.37,21.52-5.5,7.85-9.99,16.4-15.06,24.87,4.53,3.39,8.89,5.64,11.73,9.13,1.86,2.29,2.87,6.85,1.89,9.55-1.85,5.14-5.37,9.68-8.23,14.44-2.64,4.4-.61,15.24,3.41,18.01,8.84,6.08,9.34,11.71,2.09,18.59,2.93,9.82,7.35,19.23,8.24,28.97,1.09,11.92,5.13,20.73,14.36,28.43,9.33,7.78,10.19,17.84,3.28,24.85,2.14,2.36,4.59,4.61,6.43,7.26,1.04,1.51,1.88,3.87,1.49,5.54-2.87,12.18-6.08,24.29-9.3,36.9,5.5.7,10.09,1.28,14.67,1.87ZM269.47,855.91c-2.48-1.52-4.88-2.4-6.44-4.07-3.47-3.7-7.12-3.72-8.52.78-.7,2.26,1.9,6.46,4.17,8.52,3.43,3.12,7.86,5.14,12.73,8.16.83-6.49,1.56-12.25,2.3-18-.76-.17-1.51-.33-2.27-.5-.6,1.55-1.19,3.11-1.96,5.11Zm-87.61,611.81c3.89.91,7.03,2.43,7.73,1.68,3.67-3.95,8.02-8.09,9.48-12.96.83-2.77-3.39-7.07-4.88-9.83-3.83,4.75-6.5,8.07-9.48,11.77,1.79.52,3.58,1.05,6.2,1.81-2.7,2.24-4.73,3.94-9.05,7.53Zm43.04-374.9c5.05,2.79,9,4.98,12.95,7.16.71-.46,1.42-.91,2.13-1.37-2.59-6.27-5.17-12.55-8.57-20.78-2.94,6.77-4.71,10.82-6.52,14.98Zm46.9-180.97c.3,1.45.59,2.91.89,4.36,3.61.36,7.23.73,10.84,1.09-1.04-3.22-2.08-6.45-3.12-9.67-2.87,1.4-5.74,2.81-8.61,4.21Z"/><path class="cls-2" d="m1120.14,545.44l8.75-2.83c2.5,1.77,4.76,4.16,7.53,5.19,6.67,2.47,13.47,5.05,20.43,6.08,3.61.53,9.26,3.64,11.77-3.11.6-1.62,3.11-3.94,4.23-3.68,2.77.62,5.86,2.01,7.68,4.09,2.4,2.75,3.7,6.46,5.49,9.79q7.88-5.42,15.62,1.41c7.5-5.45,14.73-11.17,22.46-16.12,3.5-2.24,8.01-4.15,12.01-4.07,5.54.12,11.05,2.25,17.52,3.75.5-2.72,1.13-6.17,1.81-9.85,6.06-3.18,10.8.05,15.28,4.71,3.13,3.25,6.75,6.03,11.56,3.58,4.54-2.31,8.84-5.07,13.25-7.63,4.19,1.98,8.93,5.93,13.66,5.92,3.81,0,4.44,1.8,5.35,3.56,2.35,4.57,3.75,9.68,6.41,14.04.97,1.59,4.87,2.85,6.64,2.18,3.92-1.5,7.11-4.95,11.05-6.4,2.8-1.03,7.46-1.41,9.31.19,6.47,5.63,11.15,5.37,16.39-1.9,1.45-2.01,3.92-4.84,5.78-4.74,6.35.34,13.21-1.86,18.56-.8,13.5,2.7,23.51-6.36,35.57-6.84.09,1.66.21,4.02.36,6.79,1.87-.93,2.99-1.48,3.73-1.85,2.24,3.64,4.11,7.35,6.67,10.49.82,1,3.83,1.21,5.26.55,7.13-3.29,12.93.74,18.87,3.19,6.13,2.53,11.88,6,17.98,8.63.93.4,2.99-1.43,4.33-2.48,1.46-1.14,3.12-3.94,3.94-3.68,8.33,2.67,17.3,4.63,24.42,9.32,3.81,2.51,6.06,3.73,9.54,1.66,3.44-2.06,4.75-.53,5.72,2.46.56,1.74,1.13,3.48,1.74,5.36q4.78-3.44,13.81-4.33c.21-.02.41-.18.62-.21,11.66-2.07,23.32-4.14,35.66-6.33,2.57.96-.26,10.78,7.07,6.23,1.04,1.2,2.76,3.65,3.08,3.48,4.35-2.32,7.75,1.21,11.27,1.45,8.81.6,17.18,5.69,26.67,1.8,6.06-2.48,7.93-.24,8.26,6.3.31,6.11,10.11,13.07,16.2,10.68,3.47-1.36,4.55-.46,6.19,2.06,1.44,2.21,3.5,5.82,5.15,5.75,6.82-.31,5.39,3.95,4.9,9.24,3.59.06,8.69,1.51,9.99-.1,3.87-4.79,7.63-2.76,10.89-.82,4.5,2.68,8.35,6.44,12.47,9.74,1.3,3.3,2.8,7.82,5.7,9.06,9.92,4.23,13.41,14.16,20.34,20.95,1.41,1.38,2.45,3.14,3.66,4.73,2.37-2.6,8.29.54,8.59-5.96.19-4.09,3.55-5.76,7.76-4.34,2.48.84,5.14,1.34,7.4,2.58,7.52,4.13,16.17,6.79,19.51,13.09,4.73,2.5,7.73,4.08,11.46,6.05.87-.46,2.73-1.44,6.25-3.3,1.33,5.57,2.51,10.54,3.77,15.86,1.56.87,3.51,2.35,5.72,3.12,4.53,1.58,7.93,3.46,5.71,9.26-.18.48,2.21,2.73,3.42,2.74,1.46.01,2.93-1.49,4.4-2.33-.13.58-.26,1.17-.4,1.75,5.88,2.34,11.82,6.63,17.61,6.43,4.76-.17,7.41,1.22,10.76,3.38,1.73,1.11,4.1,1.98,6.09,1.82,11.89-.95,12.63-.63,17.02,9.56.16.36.6.6.92.9.11-.31.21-.62.32-.94,6.68,2.25,13.36,4.5,20.86,7.02-1.09,2.42-2.26,5.05-3.44,7.67.54.01,1.08.03,1.62.04.3,3.21.91,6.44.82,9.64-.15,4.98-.98,9.93-1.08,14.91-.03,1.38,1.17,3.32,2.39,4.08,3.55,2.23,7.25,4.36,11.15,5.84,4.94,1.88,4.67,5.55,3.07,8.89-2.16,4.49-.62,7.18,3.13,9.02,3.67,1.8,7.61,3.03,12.2,4.81.13,2.61,1.52,6.81.25,9.94-3.37,8.29.08,13.89,5.49,19.34,3.6,3.63,7.03,7.48,12.12,2.66,5.04,4.1,6.92,8.56,4.8,14.59-.81,2.29-1.35,6.66-.34,7.26,4.79,2.83,3.64,7.66,2.84,10.66-1.71,6.42,1.83,8.25,6.28,9.88,3.26,1.19,6.73,1.8,10.04,2.88,5.4,1.76,10.62,4.3,16.14,5.36,3.96.76,8.28-.35,12.45-.62.14,3.66-.67,6.88.59,8.47,1.4,1.78,4.67,2.1,7.19,3.08-1.15,1.1-2.29,2.19-4.88,4.67,5.66.71,9.68,1.21,14.44,1.81-.02.22-.26,1.85-.22,3.47.11,4.82.24,9.65.52,14.46.31,5.29.49,10.76,7.95,11,.42.01,1.26,1.53,1.11,2.16-1.62,6.67,3.68,7.97,7.43,11.33,3.71,3.34,5.34,9.12,7.52,13.99,1.57,3.5,3.12,7.16,3.71,10.91,1.76,11.3,1.57,11.32-8.3,16.03-.27.13-.35.68-.86,1.78,3.14,3.21,6.47,6.61,10,10.22,1.57,2.15,3.17,4.77,5.2,6.99,2.66,2.92,8.18,5.64,8.06,8.27-.42,9.88,7.17,11.51,13.07,15.13l.4,1.25c.54,5.52.18,11.34,1.88,16.47,1.46,4.41,4.02,8.03,3.63,13.34-.45,6.11,1.13,12.38,1.9,18.57.38,3.01.93,6,1.65,10.58,3.96,5.54,10.24,12.46,14.19,20.51,2.61,5.33,2.09,12.27,2.62,18.52.99,11.74.63,12.06-10.68,13.19-.32.03-.58.58-.59.59.46,3.52,2.42,8.01.99,9.78-2.74,3.42-3.56,5.73-1.4,9.62,2.64,4.75,4.4,9.98,7.1,14.69.54.94,3.65.86,5.44.51,1.46-.28,2.7-1.67,4.95-3.18-.2,3.44-.33,5.66-.4,6.82,5.34.98,10.08,1.7,14.71,2.87.79.2,1.79,2.55,1.49,3.54-.77,2.55-2.21,4.9-3.02,6.56,1.3,3.24,3.7,6.3,3.45,9.14-.76,8.6-2.79,17.08-3.75,25.67-.23,2.02,1.5,5.9,2.89,6.19,6.92,1.43,7.44,7.12,8.33,12,.7,3.89,1.37,6.6,5.28,8.63,2.34,1.22,3.53,4.68,5.23,7.13-2.25,1.42-4.48,2.89-6.77,4.26-1.27.76-2.64,1.35-4.29,2.17,2.86,5.08-.37,12.43,7.03,15.35.62.24.94,2.47.66,3.59-1.4,5.49.31,7.51,5.94,6.01,1.87-.5,3.9-.35,5.78-.81,6.73-1.67,11.96,2.76,8.54,8.26-3.43,5.5-5.19,14.21-14.54,14.51-.83.03-1.59,2.19-2.45,3.45,7.24,2.91,8.03,6.86,3.53,13-.97,1.32-1.34,4.51-.47,5.53,4.53,5.26,3.94,10.29,1.22,16.15-1.09,2.34-.22,5.74.21,8.58.34,2.24,1.8,4.33,2.04,6.57.44,4.02.35,8.1.48,12.16-.28,0-1.69.01-4.44.04,2.28,2.55,3.43,4.52,5.14,5.61,3.59,2.28,3.92,5.15,2.84,8.87-2.45,8.48-4.83,16.99-6.92,25.57-.36,1.47.53,4.54,1.41,4.78,5.11,1.39,8.3,5.86,5.03,8.89-4.74,4.37,1.51,8.74-1.93,12.11-.21.21-1.13-.12-1.2.04-1.96,4.41-6.49,9.87-5.25,13.08,3.68,9.5-.34,16.04-4.71,21.72,2.27,5.85,5.35,10.75,5.6,15.79.12,2.3-5.32,4.89-8.24,7.34,6.27,7.2,5.78,14.18-1.53,21.82,1.93,1.45,5.53,2.96,5.49,4.35-.17,5.75-1.28,11.5-2.39,17.18-.42,2.13-1.8,4.06-2.74,6.08-3.8,2.37-7.19,5.39-9.81,8.97-1.96,2.68-2.3,6.64-4.47,9.02-3.41,3.74-3.57,3.33-2.73,7.37.51,2.47.26,5.12.13,7.68-.21,3.87-.61,7.74-.97,12.11-3.03,4.16-6.01,8.38-5.16,15.46.75,6.26-1.98,12.93-3.17,19.41-2.05-.11-4.02-.22-4.4-.24-3.17,6.01-5.58,10.97-8.38,15.69-1.27,2.13-4.33,3.6-4.74,5.72-.43,2.25,1.33,4.91,1.85,6.52-2.49.81-5.12,1.66-7.76,2.51l1.71,5.3c-4.73,1.81-4.75,2.47-1.98,6.61.85,1.27.34,3.92-.32,5.64-1.26,3.28-2.99,6.39-4.7,9.48-1.12,2.02-2.64,3.81-3.8,5.81-3.22,5.5-6.97,10.82-9.29,16.69-1.52,3.84.73,10.28-1.61,12.47-5.34,5.01-7.64,10.32-9.06,17.35-2.13,10.51-7.83,19.51-15.81,27.07-1.87,1.77-1.8,5.58-2.64,8.45-.69,2.35-.7,5.52-2.27,6.86-2.43,2.09-5.93,2.93-8.97,4.3-.92,3.94-3.04,7.26-5.01,10.66-3.84,6.62-7.94,13.12-11.27,19.99-1.87,3.85-3.16,8.31-3.39,12.56-.36,6.65-4.7,11.32-10.88,10.56-2.01,2.15-4.81,3.89-5.65,6.31-2.12,6.08-4.13,11.11-9.41,16.18-7.38,7.07-11.51,16.98-21.46,22.63-8.15,4.62-11.62,14.31-12.83,23.59-.82,6.26-3.5,9.4-9.28,8.54-6.12-.91-7.34,1.55-7.83,6.89-.33,3.58-2.08,9.27-6.76,7.42-6.24-2.46-6.69.47-7.35,4.81-.42,2.78-.56,5.67-1.5,8.27-.64,1.78-2.21,4.12-3.78,4.5-5.98,1.46-12.13,2.23-18.7,3.35,1.61,6.3-.37,9.32-6.08,10.1-1.64.23-3.04,2.23-4.54,3.42-6.15,4.86-12.3,9.72-17.18,13.58-2.49,3.4-3.76,7.09-5.84,7.61-7.07,1.78-10.68,6.47-12.94,12.68-1.19,3.28-2.2,4.37-6.06,2.67-4.42-1.94-9.5-2.36-13.91-3.36-6.08,4.75-12.28,9.49-18.36,14.39-2.52,2.03-4.51,5.64-7.26,6.27-4.09.94-6.67,1.51-5.23,6.41.19.66-.55,2.29-.76,2.27-5.9-.49-5.31,5.14-7.84,7.79-1.76,1.84-5.46,2.84-8.12,2.57-4.22-.43-8.01-1.52-11.1,2.69-.6.82-3.3,1.19-4.17.57-6.95-4.99-10.65-.33-13.98,4.64-5.88-2.12-10.39-.82-15.26,2.5-3.54,2.41-7.33,7-13.23,3.07-1.63-1.09-5.31.9-9.45,1.78,2.57,1.89,3.8,2.8,5.8,4.27-4.34,1.41-8.99,1.52-11.12,3.89-4.38,4.88-8.56,4.27-14.82.8,1.18,3.65,1.87,5.76,2.28,7.04-5.37,8.9-13.25,13-21.92,17-12.48,5.75-21.03,7.48-26.64,1.26-4.22,8.67-10.22,14.59-19.9,11.06-1.96-1.19-3.93-2.38-5.89-3.57-.96,2.31-2.3,4.55-2.77,6.96-.55,2.83-.21,5.82-.57,8.71-.09.7-1.56,1.85-2.16,1.72-1.03-.22-2.62-1.22-2.68-2.01-.39-4.49-1.87-3.99-4.58-1.49-3.61,3.33-7.47,6.4-10.1,8.63-3.73-4.34-7.17-8.35-10.62-12.35-.59.39-1.18.78-1.77,1.17-.3,1.86-.61,3.71-.9,5.52-1.85.49-3.55.93-5.25,1.38.63.47,1.27.94,1.9,1.41-.88,1.84-1.38,4.9-2.7,5.31-4.93,1.53-10.13,2.15-15.22,3.17-8.44,1.71-16.88,3.47-25.78,5.3-.4,4.11-2.79,6.27-7.82,5.36-1.73-.31-3.68.83-5.56,1.01-2.8.27-5.65.12-8.45.44-5.18.59-10.39,1.12-15.44,2.31-1.06.25-1.47,3.24-2.72,6.32-3.64-1.87-7.08-3.64-9.13-4.69-9.9.34-18.97.65-28.1.96-.03,1.04-.07,2.65-.12,4.75-3.36-1.6-6.16-2.93-9-4.28-4.35,3.36-8.6,6.64-13.46,10.39-2.23-1.65-4.75-3.5-6.9-5.09-2.35,2.39-4.61,4.69-7.26,7.38-.94-2.21-1.59-3.72-2.24-5.24-.18.61-.35,1.21-.53,1.82-3.57-.38-7.14-.75-11.12-1.17-2.71,3.19-11.19,4.64-14.08,1.18-.96-1.15,1.02-4.76,1.87-8.07-.89-.59-3-1.97-6.4-4.2-.57,3.3-.97,5.63-1.37,7.96-.24,1.43.03,3.3-.78,4.21-2.61,2.89-14.01,2.37-16.13.12-6.12-.36-12.02,4.03-17.08-2.32-.48-.61-3.44.75-6.01,1.39-1.59-1.25-4.25-3.35-7.03-5.55-.76.38-1.68.6-2.28,1.16-3.32,3.1-6.37,8.83-10.46.58-.3-.61-2.96-.71-4.04-.13-2.23,1.18-4.21,2.89-6.15,4.55-4.01,3.43-6.85,2.71-8.3-1.14-4.72-.41-8.87-.77-13.01-1.12-2.74-.24-5.68-1.19-8.18-.53-4.09,1.07-8.13,2.82-11.76,4.99-4.34,2.6-8.95,5.33-12.14,9.11-5.26,6.23-8.65,7.11-15.32,2.31-2-1.44-4.47-2.7-6.86-3.01-7.64-.97-15.6-.66-19.73-9.32-.58-1.22-3.75-2.34-5.12-1.84-5.33,1.94-8.76.02-11.24-5.1-4.83,1.56-9.18,3.11-13.63,4.31-1.03.28-2.49-.46-3.57-1.06-6.67-3.74-13.17-7.32-21.35-7.36-10.14-.06-20.26-1.31-31.36-2.12,2.55-9.16-6.23-7.13-9.93-10.49-5.37-4.88-10.21-2.9-13.8.49-11.02-4.57-21.22-8.79-31.45-13.03-.01.03-.38.94-.08.2-3.79-1.37-7.4-2.67-11.89-4.29-.12-.64-.55-2.83-.97-5.05,3.38.6,6.04,1.07,8.7,1.54.14-.51.28-1.03.41-1.54-4.13-2.83-8.27-5.67-12.3-8.43-6.42.66-1.64,4.49-1.28,7.35-7.34-4.4-12.96-12.86-21.83-5.73-2.15-2.34-3.29-4.66-5.04-5.31-10.75-3.98-20.04-10.38-27.87-18.36-4.81-4.91-10.09-7.58-16.28-9.56-1.53-.49-3.38-2.05-3.82-3.5-2.62-8.65-12.3-15.79-19.68-14.94-2.9-5.42-5.63-10.48-8.31-15.56-2.42-4.57-4.12-3.8-5.73.58-1.75,4.75-4.79,5.79-8.94,2.55-1.11-.87-2.24-1.72-3.37-2.57l.34,2.1c-4.12,1.79-8.64,3-12.25,5.53-3.24,2.27-4.13,1.15-6.82-.91-5.35-4.1-11.33-7.85-17.63-10.06-5.32-1.86-9.94-3.87-13.62-8.18-5.22-6.09-10.57-12.02-4.23-21.45-7.14-2.26-13.27-4.93-19.65-5.87-2.48-.36-3.89-.36-6.16-2.05-4.91-3.65-10.83-8.19-16.29-8.12-4.26.05-7.1-.36-10.24-2.33,2.16-9.08-4.57-16.57-13.47-14.78-5.12,1.03-7.38-.44-9.54-5.09-1.94-4.17-5.01-8.53-8.78-10.86-2.33-1.43-5.93-1.28-4.8-4.85.72-2.26,3.5-4.06,5.68-5.62,1.99-1.44,4.41-2.29,6.64-3.4-2.24-.94-4.47-1.94-6.74-2.79-.56-.21-1.29.03-1.94.08-10.65.84-11.38.04-11.83-10.73-.1-2.35-1.38-6.63-2.25-6.67-7.01-.28-8.7-5.5-10.58-10.54-1.72.56-3.15,1.02-3.34,1.08-1.87-2.46-2.96-5.41-4.53-5.7-12.94-2.41-17.37-15.85-14.97-25.94-3.53-2.87-7.04-5.72-9.75-7.92.58-5.4,1.8-10.11,1.28-14.62-.25-2.17-3.64-5.35-5.86-5.58-2.83-.29-5.86,2.2-8.93,3.01-1.78.47-5.02.62-5.48-.23-.93-1.72-.64-4.25-.39-6.39.11-.95,1.35-1.77,2.28-2.9-1.24-.73-2.04-1.61-2.7-1.51-6.32.94-8.6-4.52-11.67-7.97-1.21-1.36-.42-7.08.9-7.68,5.69-2.62,3.1-5.55,1.07-8.05-3.18-.48-6.27-1.04-8.31-2.8-4.68-4.04-8.65-8.88-13.26-13.01-7.16-6.42-7.32-9.48-.71-14.44-1.33-3.49-2.64-6.75-3.83-10.06-.68-1.88-.74-4.12-1.83-5.68-2.69-3.82-7.27-6.93-8.44-11.07-2.1-7.43-1.93-15.39-10.31-19.63-1.9-.96-3.15-4.13-3.74-6.53-1.07-4.3-2.64-7.22-7.72-7.51-1.35-.08-3.79-3.77-3.64-3.94,4.6-5.17-.48-9.53-.87-14.22-.44-5.25-3.1-7.97-7.76-9.68-5.61-2.06-5.83-4.6-1.91-9.45,1.29-1.6,2.02-4.42,1.67-6.45-.98-5.67-7.47-10.7-13.27-11.62-1.39-.22-2.55-2.18-3.72-3.43-3.27-3.48-1.21-11.24-8.63-11.27-5.53-.02-5.75-2.04-3.67-6.41,1.39-2.92,3.03-6.61,2.36-9.45-2.86-12.21-6.52-24.24-9.83-36.1,1.91.05,3.62.1,5.33.15-.05-1.65.03-3.31-.2-4.93-.15-1.05-.79-2.03-1.13-3.07-2.12-6.56-4.95-13-6.13-19.72-1.64-9.34-2.6-9.92-12.02-7.06-2.7.82-6.61-1.67-9.63-3.27-.41-.22.91-4.15,1.76-6.23,1.28-3.14,3.23-6.08,3.99-9.32.17-.71-3.58-2.18-5.31-3.56-.97-.78-1.7-2.02-2.19-3.2-3.75-9.01-7.55-17.99-11.02-27.11-1.37-3.61-.3-6.02,4.23-6.9,3.78-.74,6.09-4.19,2.09-6.89-4.76-3.22-4.41-7.42-4.84-11.95-.33-3.42-1.42-6.77-2.24-10.14-2.83-11.69-13.76-22.17-5.31-35.6.31-.49-.6-1.99-1.23-2.8-4.15-5.38-8.49-10.62-12.52-16.08-.99-1.35-1.9-3.66-1.43-5.03,1.85-5.29,4.29-10.39,6.34-15.18-4.42-3.37-9.88-4.37-6.66-9.74,2.14-3.56,4.88-6.46,1.6-10.86-.45-.61,1.49-3.25,2.63-4.72,1.27-1.64,2.89-3.01,4.36-4.49-.76-.18-1.53-.37-2.29-.55.02-2.85-.53-5.84.17-8.51,1.42-5.42-.94-10.79-5.51-14.24-2.17-1.64-4.25-5.43-3.95-7.96,1.12-9.53,3.24-18.95,5.07-28.82,7.59,2.56,7.69-4.64,11.79-7.97-2.64-1.91-4.88-3.23-6.73-4.98-1.1-1.04-2.29-2.78-2.2-4.13.25-3.72.99-7.43,1.84-11.08.72-3.1.98-7.65,3.02-8.83,3.96-2.29,3.06-5.88,2.12-7.58-4.06-7.33-6.08-14.77-4.47-23.09.11-.57-.13-1.58-.54-1.82-5.57-3.23-2.83-7.99-2.19-12.22,1.13-7.41,2.55-14.78,4.13-23.75-1.92-2.37-6.15-6.52,1.97-9.76.96-.38,1.63-3.78,1.05-5.24-1.26-3.17-2.75-6.92-5.34-8.77-5.11-3.66-2.55-6.71-.19-9.81,1.82-2.39,4.43-4.16,6.32-6.5,1-1.24,1.37-3.07,1.73-4.7.39-1.72.13-4.92.68-5.04,2.04-.44,4.75-.6,6.37.45,3.74,2.41,5.33.96,5.99-2.16-1.41-2.74-3.27-5.75-2.59-7.96,1.71-5.49,4.6-10.61,6.96-15.91.61-1.37,1.12-2.81,1.46-4.27.75-3.24,1.42-6.5,2.03-9.76,1.06-5.69,1.98-11.4,3.1-17.07.49-2.47,1.13-4.94,2.03-7.29.66-1.72,2.18-3.14,2.72-4.87,1.93-6.29,3.71-12.63,5.33-19,.74-2.91.17-6.39,1.56-8.84,5.07-8.98,9.29-18.09,11.23-28.39,1.27-6.72,1.43-12.09-4.92-16.26-3.58-2.35-5.74-5.65-2.31-9.86,1.83-2.25,3.96-4.27,5.75-6.55,1.29-1.64,3.53-3.84,3.18-5.25-2.15-8.67,4.15-9.96,9.77-11.96-1.82-6.12-1.25-6.73,4.72-6.54,1.53-3.12,2.86-5.67,4.03-8.3.78-1.74,1.59-3.54,1.92-5.39,2.41-13.73,10.45-23.49,21.41-31.47,4.13-3.01,8.22-6.51,11.15-10.63,4.21-5.93,7.24-12.69,10.96-18.98,1.79-3.03,3.93-5.87,6.07-8.68,4.94-6.48,3.13-13.39,1.11-20.12-1.7-5.66,1.05-7.31,5.8-8.58,3.37-.89,6.49-2.81,9.64-4.42,1.49-.76,3.09-1.65,4.14-2.9,2.15-2.57,4.62-5.22,5.63-8.27.48-1.45-2.05-3.91-3.57-6.51,2.19-1.23,4.87-3.82,7.8-4.14,7.42-.81,11.86-5.82,17.09-10.03,2.82-2.27,6.48-3.49,9.76-5.18.89.65,1.79,1.29,2.68,1.94,2.05-9.69,4.09-19.38,6.26-29.67,3.96-.51,8.89-.65,13.56-1.85,5.64-1.45,10.62-3.71,15.21-8.24,5.52-5.44,2.65-11.92,5.06-17.39.92-2.08,3.13-5.41,4.35-5.24,6.87.93,11.81-1.72,17.24-5.66,6.87-4.98,14.9-8.37,22.83-12.65-8.81-8.84,3.22-8.85,5.17-13.32.22-5.35.37-10.79.77-16.22.05-.67,1.46-1.27,2.27-1.86,3.7-2.68,9.84-4.75,10.68-8.13,2.54-10.21,15.53-11.42,15.59-20.07,5.93.93,10.58,2.02,15.27,2.26,2.61.13,5.3-1.14,8.95-2.03.03-.08.53-1.75,1.11-3.38.7-1.97,1.48-3.91,2.22-5.86,2.96,1.15,5.93,2.26,8.86,3.48,4.23,1.76,8.36,3.8,12.7,5.18.58.19,3.44-3.35,3.07-4.16-1.82-3.95.07-5.75,3.16-7.23,6.15-2.94,9.06-7.62,9.65-14.58.24-2.81,3.15-7.22,5.5-7.7,9.38-1.92,16.87-7.07,24.44-12.22,2.74-1.86,4.65-3.87,7.42.22.86,1.26,5.28,1.89,6.29.94,3.51-3.34,7.14-7.1,9.06-11.44,2.83-6.42,7.01-8.86,13.54-6.86,6.38,1.96,13.02,3.1,19.72,4.65,1.27-3.73,1.83-7.1,3.53-9.74,1.12-1.73,3.93-3.37,5.92-3.31,3.8.12,7.57,1.48,11.34,2.36,3.48.81,10.24-2.87,11.21-6.13,2.13-7.17,5.76-8.7,11.88-5.38,5.88-4.05,11.17-9,17.44-11.68,7.67-3.28,12.64-7.85,15.76-15.62,3.16-7.85,9.64-10.58,15.77-7.51,1.11-1.93,2.07-4.03,3.43-5.82.77-1.02,2.16-2.08,3.35-2.18,8.69-.71,17.4-1.19,26.46-1.76-.72-3.8-1.32-6.96-1.91-10.13Zm118.37,1601.1c-.48,1.97-.55,3.75-1.32,5.14-1.71,3.09-.94,5.52,2.35,5.48,1.65-.02,3.87-2.65,4.75-4.59,1.33-2.94,1.72-6.32,2.68-10.19-4.48.84-8.45,1.59-12.43,2.34.05.54.11,1.07.16,1.61,1.16.06,2.32.12,3.81.2Zm424.38-73.26c-.23-2.77.1-5.18-.55-5.49-3.41-1.58-7.09-3.58-10.63-3.5-2.02.04-3.96,3.76-5.47,5.34,3.97,1.52,6.75,2.58,9.84,3.76-.04-1.3-.07-2.6-.13-4.5,2.07,1.31,3.63,2.29,6.93,4.38Zm-257.76,51.95c.77-3.95,1.37-7.04,1.97-10.12-.45-.37-.91-.75-1.36-1.12-3.6,3.06-7.21,6.12-11.94,10.14,5.12.5,8.18.8,11.33,1.11Zm-130.04,7.76c.9-.51,1.8-1.02,2.7-1.53-.53-2.47-1.07-4.95-1.6-7.42-1.91,1.38-3.83,2.76-5.74,4.14,1.55,1.6,3.09,3.2,4.64,4.8Z"/><path d="m1088.36,722.85l-6.57-6.59-3.95-11.12,30.17-10.71c18.08-6.42,32.12-3.89,38.74,14.74,3.45,9.73,4.26,17.74-3.67,24.94,11.34.2,17.02,6.48,21.36,18.72,6.37,17.94,3.56,29.89-19.93,38.23l-32.12,11.4-4.05-11.4.94-9.26-20.92-58.95Zm23.12-10.71l8.14,22.94,4.31-1.53c4.45-1.58,4.37-5.78,1.36-14.26-3.65-10.29-6.44-9.77-9.5-8.68l-4.31,1.53Zm26.63,62.25c4.87-1.73,5.52-4.31,1.77-14.87-4.05-11.4-6.29-11.54-10.6-10.02l-4.03,1.43,8.83,24.89,4.03-1.43Z"/><path d="m1164.82,729.73c-9.06-40.15-3.73-54.06,20.45-59.52s35.25,4.75,44.31,44.9c9.48,42.02,3.52,53.81-20.66,59.26s-34.62-2.62-44.1-44.65Zm39.23-9.15c-6.49-28.78-9.05-31.38-14.08-30.25-5.04,1.14-6.23,4.58.27,33.37,6.53,28.93,9.11,31.67,14.15,30.54,5.04-1.14,6.19-4.73-.33-33.65Z"/><path d="m1238.03,713.74c-4.22-40.95,2.73-54.12,27.38-56.66,24.66-2.54,34.44,8.91,38.66,49.86,4.42,42.85-2.91,53.84-27.56,56.38-24.66,2.54-34.06-6.72-38.48-49.58Zm40.04-4.42c-3.02-29.35-5.25-32.24-10.39-31.71-5.14.53-6.73,3.81-3.7,33.16,3.04,29.5,5.28,32.53,10.42,32,5.14-.53,6.71-3.95,3.67-33.45Z"/><path d="m1319.67,674.32l-3.66-8.55.45-11.79,34.5,1.3,7.19,40.13c.98,5.2,1.37,10.53,1.76,15.86.79-5.29,1.58-10.57,2.81-15.69l9.46-39.51,36.12,1.36-.45,11.79-4.3,8.25-.59,62.58,3.66,8.55-.46,12.09-32.88-1.24.46-12.09,5.33-8.21.54-14.3c.25-6.49,1.46-23.12,2.73-41.09l-19.01,69.41-12.68-.48-13.9-69.77c.07,17.57.2,33.82-.05,40.3l-.54,14.3,3.66,8.55-.46,12.09-28.6-1.08.46-12.09,4.3-8.25,4.13-62.44Z"/><path d="m1427.81,739.12c8.9,1.35,11.74,7.16,10.15,17.66-2.11,13.86-7.09,22.05-23.21,24.08l-.53-10.23c5.95-.88,9.51-1.69,11.2-3.97-.75.04-1.63-.1-2.5-.23-8.46-1.29-11.31-7.09-10.02-15.55,1.29-8.46,6.32-13.07,14.92-11.76Z"/><path d="m1487.44,692.21l-1.58-9.17,3.17-11.37,34.25,9.56c20.04,5.59,27.44,16.39,20.54,41.12-7.58,27.14-19.86,33.82-39.33,28.39l-6.54-1.83-2.9,10.37,3,9.57-3.25,11.65-33.54-9.36,3.25-11.65,6.1-7.03,16.82-60.25Zm24.48,6.68l-8.69,31.12,3.55.99c5.54,1.55,7.88-1.32,11.68-14.97,3.65-13.07,1.41-14.92-2.71-16.08l-3.84-1.07Z"/><path d="m1548.84,737.18l-.97-6.54,4.34-11.29,16.7-.7,5.45,5.57-3.44,8.95.69.26c4.81-7.16,11.95-8.06,17.04-6.1,1.79.69,3.78,2.09,5.03,3.36l-13.98,25.29c-2.96-1.77-5.45-3.51-10.47-6.08l-12.06,31.4,2.26,8.93-4.23,11.02-29.75-11.43,4.29-11.16,5.08-5,14.02-36.5Z"/><path d="m1626.29,744.46c19.75,9.65,20.35,24.23,7.92,49.68-14.77,30.23-29.07,31.94-45.11,24.11-18.43-9-23.81-20.5-9.31-50.19,11.66-23.86,24.09-34.53,46.5-23.59Zm-9.29,15.99c-4.38-2.14-6.4-.34-15.34,17.96-8.61,17.63-9.11,21-4.47,23.27,4.24,2.07,6.33-.19,15.21-18.02,9.33-18.76,8.71-21.2,4.6-23.2Z"/><path d="m1654.43,777.37l6.79-10.01,17.28,3.7,7.09,8.73-5.63,8.3c10.63-4.37,18.23-2.96,24.34,1.18,6.71,4.56,8.51,10.59,4.43,18.7,10.72-4.5,18.52-3.12,24.63,1.02,7.69,5.22,8.94,12.31,2.32,22.08l-25.85,38.09-1.2,7.03-6.71,9.89-24.42-16.57,6.71-9.89,5.84-3.88,21.12-31.13c2.65-3.91,1.77-6.29-1.04-8.19-1.83-1.24-3.51-1.67-5.59-2.01l-23.78,35.04-1.45,6.86-6.71,9.89-24.17-16.4,6.71-9.89,5.84-3.88,21.12-31.13c2.65-3.91,1.77-6.29-1.04-8.19-1.83-1.24-3.5-1.67-5.59-2.01l-23.77,35.04-1.45,6.86-6.71,9.89-24.42-16.57,6.71-9.89,6.09-3.71,21.95-32.35.54-6.58Z"/><path d="m1742.4,848.04l2.07-7.09,8.15-8.94,16.25,5.82,5.78,9.65-5.56,6.11c7.32-2.12,14.88-1.22,20.44,3.85,9.05,8.25,7.76,18.65-12.8,41.22-22.35,24.54-36.27,26.23-50.34,13.42-2.4-2.19-4.06-4.09-5.62-6.32l-3.78,4.14-2.25,7.73-7.55,8.29-21.71-19.77,8.05-8.83,6.55-2.81,42.32-46.46Zm20.85,12.6l-29.8,32.72c.55.71,1.22,1.51,2.09,2.3,4.04,3.68,8,3.49,22.5-12.43,12.72-13.96,12.57-17.09,8.97-20.37-.98-.89-2.38-1.77-3.76-2.23Z"/><path d="m1816.02,877.4l1.97-6.04,9.11-7.96,15.77,7.96,4.64,10.25-29,25.34c11.94-1.81,19.35,1.51,23.91,6.73,6.6,7.55,6.3,15.06-2.58,22.83l-34.66,30.29-2.95,6.49-9,7.86-19.61-22.44,9-7.86,6.83-2.05,28.33-24.75c3.56-3.11,3.31-5.63,1.07-8.19-1.65-1.89-3.56-2.96-6.01-3.96l-31.55,27.57-2.95,6.49-9,7.86-19.61-22.44,9-7.86,6.83-2.05,50.44-44.07Z"/><path d="m1818.3,1019.94c-3.29-4.72-5.01-11.07,1.43-16.28-10.47.46-15.26-3.58-18.29-7.94-5.73-8.23-3.57-16.75,5.39-22.99,10.54-7.33,24.82-7.21,46.09,6.56l6.3-4.38c3.75-2.61,3.99-5.11,1.55-8.63-.84-1.21-1.89-2.46-3.18-3.54l-13.15,5.38-8.43-12.11,21.43-14.92c7.05,4.44,14.09,10.69,19.57,18.56,10.71,15.38,10.69,24.92-4.08,35.2l-27.73,19.3c-4.24,2.95-4.91,4.31-3.14,6.86l-13.56,9.44c-3.44-2.1-6.74-5.55-10.2-10.52Zm5.48-24.67c.59.85,1.26,1.82,2.96,2.97l15.5-10.79c-8.54-3.23-13.14-2.36-16.66.09-3.27,2.28-3.75,4.95-1.81,7.73Z"/><path d="m1880.78,1007.49l3.51-5.6,10.63-5.77,13.65,11.22,2.29,11.01-8.82,4.79c11.45,1,17.63,5.87,20.8,11.7,4.79,8.82,2.86,16.08-7.51,21.71l-40.45,21.97-4.3,5.69-10.5,5.7-14.22-26.19,10.5-5.7,7.11-.51,33.06-17.96c4.15-2.25,4.46-4.77,2.84-7.75-1.06-1.94-2.56-3.48-4.45-4.8l-37.08,20.14-4.3,5.69-10.5,5.7-14.22-26.19,10.5-5.7,7.11-.51,34.35-18.66Z"/><path d="m1914.3,1112c2.87-11.31,6.9-24.15,24.73-30.8,14.38-5.36,30.84-.48,38.01,18.73,3.14,8.43,4.8,17.1,5.36,24.93l-30.41,11.34-5.72-15.34,13.1-8.35c-.43-1.57-.65-2.59-1.17-3.97-1.44-3.87-4.53-6.66-9.64-4.75-7.05,2.63-8.45,10.71-11.26,19.63-3.4,10.72-6.72,22.5-22.76,28.49-19.91,7.42-32.53-1.09-39.44-19.62-3.61-9.68-5.13-17.14-6.24-24.75l30.96-11.55,6.29,16.86-13.22,7.61c.27,1.16.74,2.4,1.36,4.06,1.6,4.28,5.38,6.81,10.35,4.96,6.08-2.27,7.51-9.42,9.7-17.48Z"/><path d="m1949.25,1145.28l11.72-3,10.49,14.22-.48,11.24-52.46,13.41c-4,1.02-5.49,3.54-4.51,7.39.4,1.57.8,2.54,1.56,4.32l36.74-9.39,5.49-4.75,11.72-3,10.49,14.22-.48,11.24-53.18,13.59c-5,1.28-6.07,2.46-5.34,5.32l-16.01,4.09c-2.31-3.06-4.08-6.42-5.25-10.99-1.68-6.58-1.82-13.09,6.82-17.43-10.39-3.13-13.83-10.02-15.36-16.02-2.41-9.43,1.09-16.57,16.39-20.48l36.17-9.24,5.49-4.75Z"/><path d="m1989.15,1217.44l5.26-3.99,11.99-1.64,8.79,15.33-1.76,11.11-61.69,8.42,17.75,7.85,6.91-3.92,11.55-1.58,4.21,30.84-12.13,1.66-9.12-9.03-12.71-5.86-24.03,14.89c-3.56,2.27-5.29,4.89-5.51,7.6l-14.47,1.97c-2.48-3.98-3.32-6.84-3.93-11.38-1.42-10.38,4.96-14.97,14.12-19.79l18.74-10-.28-2.05-16.52,2.25-6.05,3.65-11.84,1.62-4.01-29.38,11.84-1.62,6.83,2.05,66.07-9.01Z"/><path d="m1912.16,1314.78c-.33-9.44.59-16.85,2.13-23.25l25.8-.91.51,14.6-10.67,2.89c-.1,1.48-.2,2.81-.15,3.99.16,4.42,2.17,7.01,5.85,6.88,5.16-.18,7.14-6.75,11.9-14.15s10.41-14.69,24.27-15.18c12.53-.44,22.42,7.77,23.02,24.73.28,7.96-1.06,15.98-3.78,22.57l-25.95.92-.51-14.45,12.29-3.24c.25-1.34.35-2.67.3-4-.12-3.54-2.26-5.38-5.21-5.28-4.42.16-7.21,4.98-11.24,11.91-5.02,8.44-11.64,17.24-24.33,17.69-17.55.62-23.64-8.91-24.23-25.72Z"/><path d="m1978.08,1345.28l12.07.78,5.57,16.77-3.93,10.54-54.03-3.48c-4.12-.27-6.32,1.66-6.57,5.64-.1,1.62-.02,2.66.15,4.59l37.84,2.44,6.69-2.82,12.07.78,5.57,16.77-3.93,10.54-54.77-3.53c-5.15-.33-6.54.47-6.73,3.41l-16.49-1.06c-1.25-3.63-1.89-7.37-1.59-12.08.44-6.77,2.32-13.01,11.87-14.46-8.92-6.19-10.05-13.81-9.65-19.99.63-9.72,6.17-15.42,21.92-14.41l37.25,2.4,6.69-2.82Z"/><path d="m1973.71,1421.13l11.83,2.51,3.09,17.4-5.41,9.86-9.81-2.08c8.06,8.2,9.62,15.77,8.09,22.99-1.69,7.94-6.59,11.87-15.64,11.16,8.21,8.23,9.88,15.97,8.35,23.19-1.93,9.09-8.03,12.93-19.57,10.47l-45.03-9.56-6.96,1.54-11.69-2.48,6.13-28.86,11.69,2.48,5.8,3.95,36.8,7.82c4.62.98,6.49-.73,7.2-4.05.46-2.17.22-3.88-.25-5.94l-41.42-8.8-6.9,1.25-11.69-2.48,6.07-28.57,11.69,2.48,5.8,3.95,36.8,7.82c4.62.98,6.49-.73,7.2-4.05.46-2.17.22-3.88-.25-5.94l-41.42-8.8-6.9,1.25-11.69-2.48,6.13-28.86,11.69,2.48,5.74,4.24,38.24,8.12,6.3-1.98Z"/><path d="m1925.08,1520.24c30.79,11.16,36.3,25.4,29.92,43.01-6.33,17.48-19.2,20.5-40.28,12.86-5.41-1.96-12.47-4.99-15.84-6.53l10.51-28.99-.69-.25c-8.74-3.17-12.39.84-15.21,8.61-1.86,5.13-2.75,8.89-3.99,15.34l-17.34-6.28c.36-6.62,1.3-12.24,4.57-21.26,6.23-17.2,17.57-27.68,48.36-16.52Zm13.44,36.1c1.71-4.72-1.46-6.8-13.51-11.65l-4.17,11.51c9.15,3.32,15.97,4.85,17.68.13Z"/><path d="m1944.66,1601.38l6.59-.39,10.87,5.32-1.23,17.63-7.65,8.25-55.92-27.36,10.37,16.41,7.92.59,10.47,5.12-13.68,27.96-11-5.38-2.55-12.58-7.29-11.95-28.25-1.01c-4.22-.1-7.12,1.12-8.81,3.24l-13.12-6.42c.16-4.69,1.06-7.53,3.07-11.64,4.6-9.41,12.45-9.67,22.75-8.58l21.13,2.13.91-1.85-14.97-7.33-7.06-.33-10.73-5.25,13.03-26.64,10.73,5.25,4.53,5.5,59.9,29.3Z"/><path d="m1916.35,1720.68l-116.29-75.01,9.92-15.37,116.29,75.01-9.92,15.37Z"/><path d="m1801.16,1699.76l3.35,9.12,49.9,41.52,3.87-4.65-9.62-12.42,9.25-11.12,24.58,22.37-44.92,53.99-26.46-20.1,9.25-11.12,13.97,7.21,3.87-4.65-49.9-41.52-9.58-1.64-9.3-7.74,22.46-26.99,9.3,7.74Z"/><path d="m1722.47,1758.17c-7.61-13.95-6.17-22.06,2.59-30.41,2.77-2.65,5.11-4.47,7.97-6.39l13.04,13.66c-7.13,5.99-9.21,10.01-5.11,17.93l6.4-6.11,50.02,29.96,8.8,2.81,8.45,8.86-22.41,21.39-8.46-8.86-3.28-7.07-6.88-4.65c-6.88-4.65-17.56-12.41-24.42-17.68l20.74,32.41,7.23,3.3,8.46,8.86-19.96,19.05-8.46-8.86-2.4-8.93-32.33-59.29Z"/><path d="m1742.56,1824.34l6.6,3.32,7.33,9.63-8.66,14.93-10.54,3.94-5-6.58c.76,7.58-1.49,14.85-7.48,19.41-9.75,7.41-19.74,4.26-38.23-20.04-20.1-26.42-19.25-40.42-4.1-51.94,2.58-1.97,4.76-3.25,7.23-4.39l-3.39-4.46-7.2-3.61-6.79-8.92,23.37-17.78,7.24,9.51,1.58,6.95,38.05,50.03Zm-16.17,18.23l-26.8-35.23c-.79.42-1.71.93-2.64,1.64-4.34,3.31-4.88,7.23,8.16,24.38,11.43,15.03,14.53,15.45,18.41,12.5,1.06-.8,2.17-2.02,2.87-3.29Z"/><path d="m1679.22,1848.92c17,28,12.37,42.54-3.65,52.27-15.89,9.65-27.81,3.94-39.45-15.23-2.99-4.92-6.59-11.71-8.25-15.01l26.36-16-.38-.63c-4.82-7.95-10.18-7.11-17.25-2.82-4.67,2.83-7.72,5.2-12.73,9.45l-9.57-15.76c4.43-4.93,8.68-8.72,16.88-13.7,15.64-9.5,31.04-10.56,48.04,17.44Zm-12.16,36.55c4.29-2.6,3.13-6.21-3.23-17.54l-10.47,6.36c5.05,8.32,9.41,13.79,13.7,11.19Z"/><path d="m1620.7,1934.36l6.82,6.33,4.39,10.96-32.05,12.83-22.88-33.75c-3.01-4.35-5.54-9.07-8.06-13.78,1.43,5.15,2.85,10.3,3.81,15.48l7.41,39.94-33.56,13.43-4.39-10.96.57-9.29-24.89-57.41-6.82-6.33-4.5-11.23,30.54-12.23,4.5,11.23-1.53,9.67,5.32,13.29c2.41,6.03,8.06,21.72,14.2,38.65l-10.84-71.14,11.78-4.71,41.05,58.09c-7.21-16.02-13.92-30.82-16.34-36.84l-5.32-13.29-6.82-6.33-4.5-11.23,26.57-10.64,4.5,11.23-.57,9.29,21.6,58.73Z"/><path d="m1514.4,1926.88c8.02,31.76-.68,44.3-18.85,48.89-18.02,4.55-27.74-4.41-33.24-26.15-1.41-5.58-2.86-13.13-3.48-16.77l29.9-7.55-.18-.71c-2.28-9.01-7.65-9.79-15.66-7.76-5.29,1.34-8.9,2.71-14.95,5.3l-4.52-17.88c5.68-3.41,10.86-5.79,20.16-8.14,17.74-4.48,32.78-.97,40.8,30.78Zm-22.36,31.37c4.86-1.23,4.82-5.02,2.07-17.72l-11.87,3c2.38,9.44,4.94,15.95,9.8,14.72Z"/><path d="m1424.05,1984.92l1.19,8.33,5.05,5.09,1.71,11.98-15.27,8.89-11.12-1.69-11.6-81.21c-.81-5.7-1.86-6.74-4.78-6.32l-2.34-16.36c3.57-2.15,6.53-3.32,12.37-4.15,7.3-1.04,12.48,1.79,15.54,9.7,3.38-8.68,8.7-13.17,16-14.21,12.71-1.81,19.65,5.09,24.1,36.2,4.63,32.42-2.01,44.4-15.3,46.3-5.26.75-10.79-.4-15.57-2.55Zm-.96-14.02c1.19-.02,2.23-.02,3.4-.19,5.26-.75,7.39-5.67,4.76-24.08-2.63-18.4-4.11-21.47-10.54-20.55-.73.1-2.17.46-3.88,1,.06.44.15,1.02.23,1.61l6.03,42.21Z"/><path d="m1384.7,1969.1l3.61,6.29.69,12.08-15.97,7.56-10.94-2.62-3.45-60.24-3.32-6.31-.68-11.93,29.75-1.7.68,11.93-2.58,6.65,2.19,38.3Zm-8.33,53.23c-8.4.48-12.76-3.55-13.23-11.66-.46-7.95,3.42-12.61,11.81-13.09,8.1-.46,12.76,3.55,13.23,11.66.46,8.1-3.71,12.62-11.81,13.09Z"/><path d="m1307.88,1912.06c5.75.13,11.9,2.48,12.3,10.75,5.8-8.72,11.89-10.21,17.2-10.09,10.03.22,15.63,6.99,15.39,17.9-.29,12.83-8.81,24.3-32.47,33.36l-.17,7.67c-.1,4.57,1.78,6.24,6.06,6.33,1.48.03,3.1-.08,4.73-.48l3.41-13.79,14.75.33-.58,26.11c-7.74,3.07-16.94,5.08-26.52,4.87-18.73-.42-26.43-6.05-26.02-24.04l.75-33.78c.12-5.16-.59-6.51-3.69-6.58l.37-16.52c3.72-1.54,8.46-2.17,14.51-2.04Zm16.69,18.97c-1.03-.02-2.21-.05-4.15.64l-.42,18.88c7.64-4.99,9.65-9.23,9.75-13.5.09-3.98-1.79-5.94-5.18-6.02Z"/><path d="m1232.19,1980.27c-1.22,7.87,1.04,10.61,7.31,11.58.29.04.58.09.87.14l6.08-16.08,16.48,2.55-4.86,31.35c-7.56.62-15.22.92-25.14-.61-19.1-2.96-27.22-13.18-24.78-28.92,2.17-14,13.81-31.3,44.31-49.87l-35.28-5.47,3.39-21.87,52.78,8.18-3.39,21.87c-22.46,19.66-35.75,34.17-37.77,47.15Z"/><path d="m1157.64,1993.3c-22.21-6.03-27.3-18.26-16.48-58.13,11.63-42.86,21.84-48.96,43.92-42.97,22.07,5.99,27.8,16.41,16.33,58.7-10.78,39.73-21.69,48.39-43.76,42.4Zm5.25-19.37c5.41,1.47,7.65-1.14,15.3-29.33,7.69-28.34,7.61-31.42,1.48-33.08-6.41-1.74-7.57.85-15.15,29.37-7.55,28.38-7.04,31.57-1.63,33.04Z"/><path d="m1094.19,1942.12c-2.92,7.41-1.31,10.58,4.59,12.91.27.11.55.22.82.32l9.46-14.35,15.51,6.11-11.62,29.52c-7.51-1.05-15.05-2.44-24.39-6.11-17.98-7.08-23.67-18.83-17.83-33.66,5.19-13.18,20.34-27.51,54.17-38.93l-33.22-13.08,8.11-20.59,49.7,19.56-8.11,20.59c-26.22,14.25-42.38,25.49-47.19,37.71Z"/><path d="m1036.01,1915.46c-3.63,7.09-2.35,10.4,3.3,13.29.26.13.53.27.79.4l10.82-13.35,14.84,7.6-14.47,28.23c-7.37-1.79-14.74-3.91-23.67-8.48-17.2-8.82-21.69-21.07-14.43-35.25,6.46-12.6,22.95-25.37,57.74-33.4l-31.77-16.29,10.09-19.69,47.53,24.36-10.09,19.69c-27.5,11.6-44.68,21.19-50.67,32.88Z"/><path d="m945.69,1912.23l76.24-115.49,15.27,10.08-76.24,115.49-15.27-10.08Z"/><path d="m918.95,1828.93l33.23-38.75-5.49-4.71c-2.8-2.4-5.46-2.93-8.63.77l-35.06,40.87-8.32,3.36-15.01-12.87,39.96-46.58c8.16-9.52,18.52-15.02,28.71-6.28l36.06,30.93-7.68,8.96-8.13,3.13-15.85,18.48c.66.37,1.22.85,1.78,1.33,4.93,4.23,4.51,9.7-2.12,17.43l-6.53,7.62c-6.53,7.61-14.17,10.4-25.03,1.08-6.83-5.86-12.08-12.89-1.9-24.76Zm23.59,1.96l-6.24,7.28c-6.53,7.61-7.01,8.17-4.88,10,2.02,1.73,2.61,1.26,7.7-4.67l3.07-3.58c4.32-5.04,4.16-5.76,2.48-7.2l-2.13-1.83Z"/><path d="m968.79,1740.02l14.14,13.82-3.3,3.38-4.49-.05c.63.41,1.37.92,2.11,1.64,3.59,3.51,3.63,6.84-1.74,12.33-4.95,5.06-9.75,5.12-15.55-.55-5.38-5.26-4.91-9.33-.88-13.45l6.39-6.54-1.58-1.55c-1.37-1.34-2.41-1.12-3.65.15l-7.42,7.6-5.84-.14-6.75-6.6,10.42-10.66c6.08-6.22,10.56-6.8,18.16.63Zm-2.33,24.13c-1.65,1.69-1.85,2.52-.79,3.56,1.27,1.24,2.61.49,4.99-1.93,2.47-2.53,3.29-4,1.71-5.55l-1.06-1.03-4.85,4.96Z"/><path d="m911.91,1765.87c-8.69,7.77-14.68,6.6-19.11,1.65l-.59-.66-2.86,2.56c.91.57,1.61,1.13,2.3,1.9,4.33,4.84,3.19,10.21-4.39,17l-7.48,6.69c-7.48,6.69-15.41,8.44-24.95-2.22-6-6.71-10.28-14.36,1.38-24.79l26.39-23.61c-.46-4.94-.39-11.72.05-15.88l-41.01,36.69-8.69,2.23-13.18-14.73,63.22-56.56,14.95,16.71c-1.38,5.98-1.76,12.86-1.79,21.01,10.31-8.83,16.84-5.96,24.12,2.18,8.26,9.24,8.37,14.88-1.75,23.93l-6.6,5.9Zm-32.58,7.17l-7.15,6.39c-7.48,6.69-8.03,7.18-6.16,9.27,1.77,1.98,2.42,1.6,8.25-3.62l3.52-3.15c4.95-4.43,4.88-5.16,3.41-6.81l-1.87-2.09Zm18.39-16.84c-.15.72.2,2,.99,2.88,1.28,1.43,2.42,1.6,4.84-.57l6.6-5.9c5.17-4.62,5.31-5.35,3.74-7.11-1.57-1.76-2.42-1.6-7.81,3.22l-8.36,7.48Z"/><path d="m848.62,1692.78c-5.32-7.26-3.21-13.37,5.36-19.65,11.31-8.28,20.63-10.53,33.44-.53l-6.87,7.59c-4.83-3.6-7.9-5.55-10.71-5.14.55.51,1.08,1.22,1.6,1.94,5.06,6.9,2.95,13.02-3.96,18.07-6.9,5.06-13.72,4.74-18.86-2.28Z"/><path d="m792.53,1626.61l37.72-11.23,11.61,21.4-38.65,20.97c.89,1.03,1.46,2.06,2.16,3.36,3.52,6.48,1.46,11.97-7.49,16.82l-8.82,4.78c-8.82,4.78-16.94,4.66-23.77-7.92-4.29-7.91-6.69-16.35,7.06-23.81l9.08-4.92c11.28-6.12,23.19-11.41,32.49-15.61-5.23,1.5-10.33,2.92-15.44,4.35l-26.49,7.49-3.87-7.13,20.72-18.12c4.11-3.57,8.21-7.14,12.32-10.71-8.54,5.3-19.26,12.46-31.06,18.87l-16.99,9.22-8.97.17-8.16-15.04,74.57-40.46,11.82,21.79-29.84,25.76Zm1.16,34.62l-8.43,4.57c-8.82,4.79-9.47,5.14-8.13,7.6,1.27,2.33,1.99,2.11,8.86-1.62l4.15-2.25c5.84-3.17,5.94-3.9,4.89-5.84l-1.34-2.46Z"/><path d="m801.42,1552.09c4.49,11.07,3.12,16.72-8.64,21.49l-6.02,2.44c-9.43,3.83-15.32,3.83-19.24-2.7l-3.28,1.33c-5.74,2.33-7.23,6.91-5.52,21.34-11.79,4.3-29.69,7.26-36.18-8.73-3.49-8.61-4.95-16.14-5.72-22.36l14.9-6.04c1.59,5.88,3.23,11.9,5.89,18.46,1,2.46,1.93,3.2,4.04,2.5-1.82-14.7,1.16-22.28,12.37-26.82l26.25-10.64c11.76-4.77,17.43.58,21.14,9.74Zm-28.25,11.61l1.05,2.6c.94,2.32,1.6,2.38,9.26-.73l2.46-1c7.38-2.99,8.09-3.6,7.09-6.06-.89-2.19-1.82-2.13-11.11,1.64l-8.75,3.55Z"/><path d="m706.29,1591.32c.44.79.73,1.62,1.03,2.45,1.97,5.56.53,10.77-5.73,12.99-6.12,2.17-11.71.08-14.82-8.68-2.86-8.07-1.29-13.79,5.66-16.25,3.48-1.23,6.98-1.07,9.57.05-2.51-4.43-5.21-8.95-9.87-15.91l12.1-4.29c5.68,11.6,11.07,25.03,15.13,37.37l-7.09,2.52c-1.84-3.42-3.44-6.61-5.98-10.25Zm-4.3-.2l-7.09,2.51c-1.67.59-2.4,1.63-1.95,2.88.74,2.09,2.33,2.15,5.67.96,3.34-1.18,4.81-2.33,3.87-4.97l-.49-1.39Z"/><path d="m746.66,1540.99c-13.03,3.81-17.65-3.6-20.01-11.67-2.4-8.21-1.02-14,9.89-17.19l12.89-3.77c7.08-2.07,10.77.54,12.01,4.79.04.14.12.42.17.57,5.34-1.71,6.78-4.13,5.13-9.8-1.61-5.52-3.86-7.94-10.94-5.87l-26.2,7.66c-10.76,3.15-14.15,8.9-10.84,20.23,1.95,6.66,4.97,14.38,7.58,20.69l-13.88,4.06c-5.85-8.44-10.94-18.48-13.54-27.4-6.62-22.66-.16-33.16,22.64-39.82l29.46-8.61c18.13-5.3,25.87,2.27,31.63,21.96,6.42,21.95,4.53,32.34-13.88,37.72l-22.09,6.46Zm-6.25-14.01l15.29-4.47-.66-2.27c-.5-1.7-1.92-2.36-7.02-.87l-9.06,2.65c-1.98.58-3.27,1.42-2.7,3.4.62,2.12,2.16,2.13,4.14,1.56Z"/><path d="m746.61,1467.12c-11.52,1.8-15.91-2.44-16.94-9-.05-.29-.09-.58-.14-.88l-3.79.59c.45.97.73,1.83.89,2.85,1,6.41-2.87,10.3-12.93,11.88l-9.91,1.55c-9.91,1.55-17.52-1.29-19.74-15.43-1.39-8.89-.82-17.64,14.63-20.06l34.98-5.47c2.3-4.39,6.04-10.05,8.67-13.3l-54.37,8.51-8.51-2.85-3.06-19.53,83.82-13.12,3.47,22.16c-4.41,4.27-8.47,9.84-12.92,16.66,13.46-1.81,17.38,4.15,19.06,14.94,1.92,12.25-1.07,17.04-14.48,19.14l-8.75,1.37Zm-31.25-11.69l-9.48,1.48c-9.91,1.55-10.64,1.67-10.21,4.43.41,2.62,1.16,2.66,8.89,1.45l4.66-.73c6.56-1.03,6.91-1.68,6.56-3.87l-.43-2.77Zm24.59-4.15c-.51.53-.92,1.79-.73,2.95.3,1.89,1.16,2.66,4.37,2.15l8.75-1.37c6.85-1.07,7.37-1.6,7-3.93-.36-2.33-1.16-2.66-8.3-1.54l-11.08,1.73Z"/><path d="m720.01,1343.15l38.64,7.47.41,24.34-43.96.73c.32,1.32.34,2.5.36,3.98.12,7.38-4.24,11.29-14.42,11.46l-10.03.17c-10.03.17-17.18-3.7-17.42-18.01-.15-9,1.63-17.59,17.26-17.85l10.33-.17c12.83-.21,25.83.6,36.02,1.17-5.33-1.09-10.51-2.19-15.7-3.28l-26.95-5.6-.14-8.11,26.75-6.5c5.29-1.27,10.58-2.54,15.87-3.81-10.02.76-22.84,2.15-36.26,2.37l-19.33.32-8.03-4-.29-17.11,84.83-1.41.41,24.78-38.36,9.05Zm-14.97,31.24l-9.59.16c-10.03.17-10.77.18-10.72,2.98.04,2.66.78,2.79,8.6,2.66l4.72-.08c6.64-.11,7.07-.71,7.03-2.92l-.05-2.8Z"/><path d="m762.28,1281.05c-1.11,11.9-4.93,16.28-17.57,15.1l-6.46-.61c-10.14-.95-15.36-3.66-15.84-11.26l-3.53-.33c-6.17-.58-9.6,2.81-14.73,16.4-12.44-1.61-29.7-7.23-28.09-24.42.87-9.25,3.04-16.61,5.22-22.48l16.01,1.5c-1.3,5.95-2.61,12.05-3.27,19.11-.25,2.64.24,3.73,2.43,4.08,5.15-13.89,11.29-19.24,23.33-18.12l28.2,2.64c12.63,1.18,15.2,8.54,14.28,18.38Zm-30.42-2.7l-.26,2.79c-.23,2.5.33,2.85,8.55,3.62l2.64.25c7.93.74,8.84.53,9.09-2.11.22-2.35-.63-2.73-10.62-3.66l-9.4-.88Z"/><path d="m768.3,1236.32c-2.04,11.78-6.19,15.85-18.69,13.68l-6.4-1.11c-10.03-1.74-15.03-4.85-14.91-12.47l-3.49-.6c-6.11-1.06-9.79,2.05-15.96,15.2-12.28-2.58-29.04-9.53-26.1-26.54,1.59-9.16,4.33-16.32,6.96-22l15.85,2.75c-1.76,5.83-3.55,11.81-4.76,18.79-.45,2.62-.05,3.73,2.11,4.26,6.22-13.45,12.76-18.3,24.68-16.24l27.91,4.84c12.5,2.17,14.49,9.7,12.8,19.44Zm-30.12-5.07l-.48,2.76c-.43,2.47.1,2.86,8.24,4.27l2.62.45c7.85,1.36,8.77,1.22,9.23-1.4.4-2.33-.42-2.77-10.3-4.48l-9.3-1.61Z"/><path d="m713.76,1160.56c-1.19,3.8-1.6,7.07-1.49,11.13l9.84-2.78,18.72,5.89c.09-.28.13-.42.18-.56,1.5-4.79,5.65-7.66,14.66-4.82l12.81,4.03c9.57,3.01,11.72,8.48,8.31,19.32-3.27,10.42-7.3,15.34-19.68,11.44l-37.3-11.73-9.52,2.73-9.57-3.01c-4.91-8.97-7.22-26.24-2.3-41.86,4.56-14.5,12.97-24.53,30.28-19.09l38.14,11.99c-2.25-3.18-3.86-7.4-4.96-11.77l-43.35-13.63-6.36-6.33,5.93-18.86,43.21,13.58c2.2-5.03,6.83-6.98,16.12-4.06l13.37,4.2c8.16,2.57,10.33,8.97,7.14,19.1-4.03,12.81-9.33,13.46-21.02,9.79,2.29,5.51,6.11,10.58,12.01,14.91l-6.77,21.53-55.45-17.43c-8.3-2.61-11.45,1.5-12.96,6.29Zm54.25,26.18c.71-2.25.28-2.85-7.04-5.15l-3.66-1.15c-7.6-2.39-8.06-1.92-8.86.62l-.71,2.25,9.71,3.05c9.15,2.88,9.71,3.05,10.55.38Zm9.2-73.04c-5.21-1.64-7.07-1.61-7.74.51-.35,1.13-.2,2.1.29,3.03l9.85,3.1c7.46,2.35,8.58,2.23,9.29-.02.66-2.11.14-2.9-6.06-4.84l-5.63-1.77Z"/><path d="m799.7,1053.36l20.39,22.39-8.48,15.54-49.86-27.22c-17.35-9.47-20.03-24.89-8.16-46.64,3.32-6.09,8.54-11.64,12.92-14.13l-3.8-11.82,20.21-1.91-.86,11.13c4.92-1.01,10.23.04,17.87,4.21l38.33,20.93,5.08,7.31-8.55,15.67-28.88-15.76c7.22,4.95,6.85,9.62,4.02,14.8-2.4,4.4-5.71,6.46-10.23,5.51Zm-31.14-26.41c-4.81,8.81-3.09,14.28,5.59,19.02l4.53,2.47c5.18,2.83,12.94,9.25,17.87,13.45-2.04-2.12-4.33-4.38-5.54-5.55l-7.84-7.81c-7.07-7.06-8.4-12.32-5.22-18.15,2.62-4.79,6.69-7.95,13.33-5.33l-4.4-2.4c-9.19-5.02-13.65-4.26-18.31,4.29Zm34.13,16.61c.85-1.55.37-2.83-2.61-4.45l-10.75-5.87c-1.94-1.06-3.2-.91-4.12.78-.49.91-.53,1.9.15,3.11l12.17,6.65c2.85,1.56,4.1,1.73,5.16-.21Z"/><path d="m872.37,1048.83l-8.71,13.69-6.85-4.35c-.19.58-.59,1.2-.83,1.57-2.45,3.86-5.46,6.67-12.31,2.31-6.85-4.35-7.15-9.1-1.85-17.44,4.43-6.97,8.88-9.56,15.98-5.05l14.56,9.26Zm-18.34,5.47l-4.98-3.17c-2.12-1.35-3.23-1.53-4.02-.28-.95,1.49-.19,2.5,2.55,4.24,3.36,2.14,4.47,2.32,5.58.58l.87-1.37Z"/><path d="m840.3,1015.86l-3.79-7.84-13.03-9.43c-.08-4.43-.44-8.7-1.02-12.94-.54,1.25-1.23,2.21-1.92,3.16-4.76,6.57-10.77,7.33-19.01,1.36l-8.13-5.88c-8.84-6.4-11.53-13.26-4.44-23.06,7.01-9.68,13.06-11.5,24.17-3.45l4.54,3.29c7.77,5.62,12.45,11.74,15.23,17.21l18.88,13.67,2.85-3.94c1.99-2.75,2.12-5.2-1.82-8.06l-43.86-31.75-4.03-8.02,11.16-15.42,49.72,35.98c10.16,7.35,16.5,17.22,8.62,28.1l-24.57,33.94-9.56-6.92Zm-25.53-36.69l-7.77-5.62c-8.13-5.88-8.73-6.31-10.37-4.04-1.56,2.15-1.05,2.7,5.29,7.29l3.82,2.77c5.38,3.89,6,3.79,7.38,1.88l1.64-2.27Z"/><path d="m860.01,940.32c-11.05-10.21-9.16-20.52-2.66-27.56,4.81-5.2,11.96-9.03,19.82-8.41l-.87-.8c-7.48-6.91-13.31-6.68-21.72,2.43-4.41,4.77-7.98,9.5-13.03,16.28l-10.29-9.51c3.62-8.7,8.39-17.56,16.6-26.45,4.41-4.77,9.8-8.22,14.04-9.33l-.67-11.67,20.06,3.07-3.35,10.36c4.7.13,9.5,2.55,16.11,8.65l32.08,29.63,3.15,8.33-13.52,14.63-32.51-30.03c-1.43.68-4.89,3.12-6.79,5.18-3.4,3.68-3.59,6.93-.01,10.23,3.51-3.58,8.05-5.02,14.12.59l11.05,10.21c9.1,8.41,6.8,13.51.09,20.77-7.51,8.13-13.51,9.41-23.16.5l-18.53-17.12Zm35.71,8.09c1.6-1.73,1.26-2.45-2.86-6.26l-6.94-6.41c-2.93-2.7-4.26-2.13-5.56-.72l-1.6,1.73,8.67,8.01c5.74,5.31,6.49,5.59,8.29,3.64Z"/><path d="m953.74,947.15l-11.69,11.25-5.63-5.85c-.32.52-.85,1.03-1.17,1.33-3.3,3.17-6.88,5.19-12.51-.66-5.63-5.85-4.81-10.53,2.32-17.38,5.95-5.73,10.89-7.2,16.72-1.14l11.97,12.44Zm-19.11.99l-4.09-4.25c-1.74-1.81-2.77-2.24-3.84-1.22-1.28,1.23-.78,2.38,1.47,4.72,2.76,2.87,3.8,3.31,5.29,1.88l1.17-1.12Z"/><path d="m889.91,857.17l-2.23-8.69,14.75-13.17,30.86,34.55c.22-.2.33-.29.44-.39,3.74-3.34,8.78-3.68,15.07,3.36l8.94,10.01c6.68,7.48,5.62,13.38-3.41,21.44-8.36,7.47-14.01,9.34-22.95-.67l-41.47-46.44Zm60.61,36.86c1.76-1.57,1.7-2.31-3.41-8.03l-2.56-2.86c-5.31-5.94-5.94-5.77-7.92-4l-1.76,1.57,6.78,7.59c6.39,7.15,6.78,7.59,8.87,5.73Z"/><path d="m952.51,869.99c-6.84-9.43-5.07-15.28.31-19.18.24-.17.48-.35.72-.52l-2.25-3.1c-.66.85-1.29,1.48-2.13,2.09-5.25,3.81-10.48,2.13-16.46-6.11l-5.89-8.12c-5.89-8.12-6.82-16.19,4.76-24.59,7.29-5.28,15.34-8.75,24.52,3.91l20.79,28.66c4.96.05,11.7.81,15.79,1.67l-32.31-44.55-1.33-8.87,16-11.61,49.8,68.67-18.15,13.16c-5.81-1.98-12.61-3.07-20.71-3.93,7.73,11.16,4.21,17.36-4.63,23.77-10.03,7.28-15.66,6.8-23.63-4.19l-5.2-7.17Zm-3.81-33.14l-5.63-7.76c-5.89-8.12-6.32-8.72-8.59-7.07-2.15,1.56-1.84,2.24,2.75,8.57l2.77,3.82c3.9,5.37,4.64,5.39,6.43,4.09l2.27-1.65Zm14.88,20.01c-.7-.22-2.01,0-2.96.69-1.55,1.13-1.84,2.24.07,4.87l5.2,7.17c4.07,5.61,4.78,5.83,6.69,4.45,1.91-1.39,1.84-2.24-2.41-8.09l-6.58-9.08Z"/><path d="m1018.62,822.53c-5.54-10.25-2.75-15.95,3.48-19.32.65-.35,1.3-.7,2.02-.92,9-7.55,7.73-16.42,2.19-26.67l-4.56-8.44-4.41,2.38,5.19,9.61c5.05,9.35,3.58,15-3.43,18.79-7.66,4.14-12.82,1.73-17.31-6.58l-4.77-8.83c-5.19-9.61-3.45-15.07,4.08-19.14,4.8-2.59,8.79-1.73,11.9.61l2.77-8.54.26-.14c6.1-3.3,12.71-3.17,17.13.98l-.21-.39-.15-8.97,17.39-9.4,40.32,74.64-18.43,9.96c-6.43-2.9-12.42-4.36-19.26-5.86,5.31,11.38,1.58,16.58-7.38,21.42-11.42,6.17-16.16,4.54-22.61-7.4l-4.21-7.79Zm-11-51.4l-2.21,1.19c-1.95,1.05-2.07,1.45,1.37,7.81l2.59,4.8c3.65,6.75,4.05,6.87,5.99,5.82,2.08-1.12,2.07-1.45-1.58-8.2l-6.17-11.42Zm23.7,39.85c-.67-.31-1.99-.27-3.03.29-1.69.91-2.12,1.98-.57,4.84l4.21,7.79c3.3,6.1,3.97,6.41,6.04,5.29,2.08-1.12,2.12-1.98-1.32-8.34l-5.33-9.87Zm27.57-7.01l-16.76-31.02c2.06,6.6,2.09,13.8-1.27,22.48l2.8,5.19c4.98.83,11.21,1.82,15.22,3.35Z"/><path class="cls-2" d="m997.82,485.88l-22.4-104.08-12.91-2.9-.85-4.37,45.18-16.28c20.52-7.39,34.68-3.51,40.3,12.08,5.39,14.95-1.03,30.56-11.59,40.66,12.68-2.23,24.63,3.53,29.85,18,9.46,26.25-7.84,47.58-28.52,55.03l-48.36,17.42-.85-4.37,10.16-11.21Zm-8.63-114.25l10.8,50.92,18.29-6.59c14.18-6.55,20.78-21.15,14.76-37.85-4.81-13.36-13.43-15.83-25.88-12.96l-17.98,6.48Zm35.01,110.14l16.6-5.8c13.74-11.24,14.97-24.8,9.98-38.64-5.67-15.75-16.05-18.12-30.48-15.26l-18.93,6.82,10.93,51.78,11.9,1.1Z"/><path class="cls-2" d="m1126.08,460.61c-28.29,6.73-44.24-11.37-50.59-38.02-8.14-34.21,1.81-87.33,38.82-96.14,29.77-7.08,44.57,11.29,50.91,37.94,8.41,35.37-.66,87.06-39.15,96.22Zm-8.46-6.33l20.35-4.32c16.81-21.38,16.76-56.65,11.75-77.71-4.89-20.56-12.24-34.63-27.44-39.35l-20.02,4.24c-15.9,23.77-15.8,58.51-10.4,81.21,3.52,14.8,11.21,31.05,25.76,35.93Z"/><path class="cls-2" d="m1227.89,442.41c-28.88,3.43-42.64-16.39-45.87-43.59-4.15-34.92,11.86-86.55,49.64-91.03,30.39-3.61,42.98,16.35,46.21,43.55,4.29,36.1-10.68,86.41-49.97,91.07Zm-7.67-7.26l20.71-1.95c19.16-19.3,23.17-54.35,20.62-75.84-2.49-20.99-8.17-35.81-22.73-42.25l-20.38,1.91c-18.53,21.78-22.43,56.3-19.68,79.47,1.79,15.11,7.56,32.14,21.45,38.66Z"/><path class="cls-2" d="m1316.69,432.86l-32.29-.52.75-4.38,12.46-6.9,16.08-105.26-10.2-7.27.75-4.38,31.45.51,13.41,80.21,38.16-79.37,32.12.52-.75,4.38-12.46,6.9-16.08,105.26,10.2,7.27-.75,4.38-36.01-.58.75-4.38,11.95-6.91,16.27-106.45-43.91,89.93-8.28-.13-16.28-90.91-16.27,106.45,9.69,7.26-.75,4.38Z"/><path class="cls-2" d="m1405.24,465.28l-3.28-5.05c6.09-5.39,12.77-13.44,16.57-21.58l-3.54-.32c-4.04-.37-6.6-4-5.72-7.99l2.42-9.8c.87-4,5.05-7.01,9.09-6.64l7.41.67c4.04.37,6.6,4,5.72,7.99l-1.95,8.31c-2.68,10.79-12.37,24-26.74,34.41Z"/><path class="cls-2" d="m1496.53,435.35l35.31-100.44-9.49-9.22,1.55-4.17,43.88,9.09c22.68,4.7,33.27,18.63,29.46,37.01-4.73,22.85-27.06,38.94-55.21,33.11l-16.06-3.33-14.38,41.05,10.81,9.49-1.55,4.17-40.4-8.37,1.55-4.17,14.52-4.24Zm51.8-101.68l-19.96,57.17,24.84,5.15c13.8-.77,24.24-14.49,27.26-29.06s-3.65-24.07-14.92-29.68l-17.22-3.57Z"/><path class="cls-2" d="m1629.51,405.1c9.91-9.57,19.81-16.15,26.45-14.17,3.08.92,6.79,3.26,8.11,5.94l-5.91,10.94-17.01-5.07c-7.11,1.94-16.32,11.55-18.93,16.77l-26.32,51.62-14.1-4.2,38.82-77-2.27-.68c-7.67,6.19-14.6,13.47-20.09,20.66l-4.64-2.79c13.74-20.08,26.2-26.95,35.6-24.15,7.62,2.27,5.74,10.35,2.38,17.47l-2.1,4.67Z"/><path class="cls-2" d="m1715.37,413.74c16.21,6.37,22.89,20.8,14.3,42.68-8.66,22.03-34.24,53.4-65.4,41.16-19.52-7.67-23.17-24.73-15.07-45.34,10.08-25.65,38.32-49.44,66.17-38.5Zm-12.17,2.3c-18.65,5.39-34.01,29.69-39.7,44.17-4.39,11.17-4.67,22.51-.13,29.92l11.8,4.64c16.11-4.93,31.66-24.62,39.01-43.35,4.27-10.86,5.36-22.42,1.45-30.5l-12.43-4.88Z"/><path class="cls-2" d="m1808.15,470.86c-1.33-.73-3.13-1.33-5.15-1.86-11.8,5.67-24.31,12.3-37.39,19.59l-29.8,36.69-12.89-7.08,54.21-67.07-2.08-1.14c-8.8,4.43-17.11,10.08-24,15.95l-3.94-3.71c17.67-16.72,31.3-20.81,39.9-16.09,7.11,3.91,3.72,11.5-1.21,17.66l-10.89,13.5c23.41-16.27,35.37-18.38,44.86-13.17,8.89,4.88,12.54,12.29,1.72,26.02l-7,8.89c19.63-12.56,36.26-17.9,47.08-11.95,8.3,4.56,11.79,12.26-2.57,29.26l-39.18,46.39,4.45,2.44c7.55-5.31,14.81-11.16,22.01-17.24l3.71,3.78c-24.21,23.36-30.86,21.06-37.08,17.64-6.67-3.66-8.58-11.08.45-21.55l32.5-38.1c8.1-9.83,8.49-14.05,3.9-16.57-1.33-.73-3.13-1.33-5.38-1.8-12.08,5.13-24.4,10.71-37.45,17.25l-30.94,38.76-12.6-6.92,40.91-52c7.23-8.95,9.64-14.38,3.86-17.56Z"/><path class="cls-2" d="m1929.08,524.47l-8.43,8.08c7.2,2.76,14.28,6.26,20.14,10.56,12.69,9.29,16.87,23.04,2.08,43.23-17.98,24.56-50.5,41.2-74.1,23.92-4.77-3.5-9.77-8.41-14.4-14.11l-22.45,21.5,5.82,11.8-3.4,4.64-30.97-22.68,3.4-4.64,12.91,2.12,79.08-76.23c-5.7-1.66-11.26-3.22-16.83-4.78l1.83-5.36c3.9.97,11.59,2.2,20.58,4.8l12.31-11.94,12.42,9.09Zm7.41,23.66c-7.15-3.98-14.42-7.21-21.62-9.97l-49.65,47.48c.24,6.25,2.2,11.88,6.67,18.09l8.32,6.09c14.8-1.32,34.69-12.74,47.58-30.34,8.39-11.46,11.29-20.86,8.7-31.35Z"/><path class="cls-2" d="m1972.25,617.74c24.47-8.86,44.63-10.21,54.78-1.01,7.01,6.36,7.23,15.69-9.29,27.87l-48.87,36.03,3.13,2.84c8.7-3.3,17.62-6.85,26.03-11.09l2.74,4.53c-28.97,17.1-34.9,13.32-40.16,8.55-5.64-5.11-7.16-11.74,5.44-20.86l40.45-29.52c1.5-1.15,5.18-4.2,6.66-5.83,3.75-4.13,3.73-6.89.98-9.39-1.5-1.36-3.86-3.04-6.32-4.36-15.08,2.53-29.43,5.27-43.51,8.72l-36.25,29.67-11.02-9.99,97.14-79.46-10.62-13.96,2.75-2.53c7.69,3.09,21.28,11.53,28.21,18.73l-62.26,51.05Z"/><path class="cls-2" d="m2036.17,732.56c-15.53,3.68-28.82,3.53-35.35-3.78-8.9-9.96-10.5-24.18,6.52-39.39,22.19-19.83,62.43-28.59,80.8-8.04,2.93,3.28,6.71,10.56,7.19,16.93l8.92,1.1,4.06,4.54-74,46.86,2.82,3.15c8.99-2.37,18.24-4.96,27.05-8.3l2.25,4.8c-30.6,13.97-36.1,9.59-40.83,4.29-5.07-5.67-5.19-12.15,7.6-20.17l2.99-1.99Zm-25.18-5.84c8.11,2.73,23.13,1.78,37.09-1.63l36-22.65c.74-6.78-.04-14.25-4.55-21.33-12.22-8.35-42.84,3.82-60.24,19.37-9.08,8.11-13.78,15.03-12.69,21.32l4.39,4.92Z"/><path class="cls-2" d="m2113.16,771.03c25.13-3.23,44.52-.27,52.4,10.73,5.51,7.7,3.75,16.86-14.97,25.28l-55.38,24.89,2.46,3.44c9.2-1.39,18.67-2.97,27.79-5.34l1.72,5.01c-31.93,10.6-36.93,5.65-41.06-.13-4.43-6.19-4.52-12.99,9.73-19.24l45.77-20.3c1.71-.81,5.95-3.02,7.74-4.29,4.54-3.25,5.1-5.94,2.94-8.97-1.18-1.65-3.13-3.79-5.25-5.6-15.14-.81-29.64-1.02-43.99-.73l-42.76,20.44-8.57-11.96,77.67-37.32-1.38-1.92c-9.85.19-19.79,1.7-28.54,4.01l-1.95-5.05c23.16-7.44,37.22-5.24,42.93,2.74,4.73,6.6-1.62,11.97-8.73,15.4l-18.56,8.93Z"/><path class="cls-2" d="m2134.8,920.07c-4.83-9.31-9.25-21.87-9.84-31.47l32.26-12.35,2.18,4.2-22.81,22.49,5.36,14.74c5.53,10.66,19.41,19.07,35.17,10.9,12.31-6.38,13.48-19.18,15.87-31.84,2.74-14.18,5.26-28.06,22.07-36.78,14.11-7.32,35.45-6.19,48.22,18.42,5.76,11.11,7.22,23.11,5.78,32.81l-27.39,9.63-2.18-4.2,21.49-19.9-5.24-16.71c-8.64-11.52-19.85-12.56-30.65-6.96-12.76,6.62-14.48,17.98-16.86,31.03-2.6,13.73-4.11,28.8-19.42,36.74-23.87,12.38-44.27-1.99-54-20.76Z"/><path class="cls-2" d="m2183.21,1025.58c-2.84-7.06.42-13.47,14.01-16.38l13.91-3.03c-24.62-2.32-39.64-9.77-43.29-18.87-4.41-10.98-.81-19.72,14.6-22.63l64.51-12.24-.88-2.2c-9.61-2.15-19.63-3.05-28.67-2.88l-.7-5.37c24.27-1.73,37.4,3.75,41.06,12.85,2.96,7.37-4.25,11.18-12.2,12.73l-50.79,9.65c-13.72,2.59-18.96,5.43-15.43,14.21,12.47,5.19,29.12,8.53,45.61,11.93l45.48-9.7,5.48,13.65-83.09,17.7,1.51,3.77c9.26.83,18.84,1.54,28.26,1.4l.48,5.27c-33.53,2.72-37.21-3.28-39.86-9.87Z"/><path class="cls-2" d="m2256.1,1064.71c14.61,2.53,44.2,15.73,48.74,31.67,2.4,8.46-.72,14.79-8.52,17.01-14.15,4.02-28.38-2.13-43.04-17.82-18.1,4.97-27.17,11.42-33.49,17.61l1.39,4.88c9.01,2.01,18.72,4,28.1,4.84l-.08,5.3c-33.79-.76-37.08-8.62-39.07-15.61-3.38-11.87,4.41-19.71,36.57-30.26,16.59,16.91,33.84,20.09,41.16,18.01,6.99-1.99,7.05-6.75,5.4-11.91-7.31-7.77-39.3-20.12-51.75-21.85l-41.35,5.43-4.07-14.31,124.47-16.06-1.63-17.47,3.67-.69c4.89,6.7,11.96,21.04,14.04,30.82l-80.54,10.42Z"/><path class="cls-2" d="m2294.86,1150.71c-8.47,1.63-13.66,8.65-17.84,17.38-4.71,9.52-9.83,20.49-22.49,22.75-18.66,3.24-31.32-11.54-34.1-25.12-2.34-11.26-1.79-22.73.78-29.08l30.13,1.78.26,4.94-24.95,5.49c-.86,4.47-.86,8.09.36,13.53,2.56,12.42,11.75,17.2,21.04,15.41,9.3-1.79,12.68-10.19,17.08-18.61,4.91-9.38,8.65-17.68,23.27-20.49,9.63-1.85,25.45,2.51,29.81,23.37,1.76,8.27,2.33,16.6.61,25.54l-26.85-.86-.5-4.38,21.54-7.07c.16-3.65-.31-7.86-1.01-11.51-1.92-9.96-8.85-14.66-17.15-13.06Z"/><path class="cls-2" d="m2235.89,1271.93c-.76-7.57,4.15-12.82,18.01-11.84l14.2.95c-23-9.07-35.36-20.41-36.34-30.17-1.18-11.78,4.7-19.17,20.32-17.68l65.37,6.18-.24-2.36c-8.63-4.74-18.01-8.39-26.74-10.74l.82-5.35c23.79,5.09,34.89,14,35.87,23.76.79,7.91-7.2,9.56-15.26,8.84l-51.47-4.85c-13.9-1.32-19.72-.06-18.77,9.36,10.54,8.46,25.6,16.29,40.49,24.14l46.39,3.33,1.47,14.64-84.73-6.1.41,4.04c8.67,3.38,17.67,6.72,26.76,9.21l-1.01,5.2c-32.96-6.71-34.83-13.49-35.54-20.56Z"/><path class="cls-2" d="m2321.4,1363.71c.05-1.52-.24-3.39-.68-5.43-10.42-7.92-22.02-16.04-34.46-24.36l-46.23-9.83.43-14.7,84.39,17.72.07-2.37c-7.95-5.82-16.77-10.65-25.12-14.11l1.51-5.2c22.93,8.12,32.78,18.39,32.49,28.2-.24,8.11-8.54,8.54-16.28,6.96l-16.98-3.55c25.14,13.43,32.47,23.12,32.15,33.94-.3,10.14-5.23,16.76-22.39,13.38l-11.1-2.19c20.12,11.76,32.44,24.13,32.07,36.47-.28,9.46-5.55,16.07-27.22,11.04l-59.13-13.76-.15,5.07c8.16,4.3,16.67,8.11,25.36,11.75l-1.67,5.03c-31.82-10.92-32.79-17.89-32.58-24.99.23-7.6,5.96-12.68,19.39-9.41l48.71,11.59c12.44,2.74,16.37,1.16,16.53-4.08.04-1.52-.24-3.39-.85-5.61-10.07-8.42-20.65-16.85-32.4-25.49l-48.59-9.9.42-14.37,64.92,12.75c11.26,2.36,17.19,2.03,17.39-4.56Z"/><path class="cls-2" d="m2256.9,1512.11l-2.53,5.43c-24.89-14.04-31.16-24.57-28.62-41.29,3.07-20.23,18.64-28.13,38.7-25.08,24.91,3.78,59.06,25.55,54.52,55.48-2.06,13.54-11.39,23.24-28.11,20.7-3.51-.53-7.28-1.62-11.47-3.28l-5.98-54.1c-4.08-1.3-8.21-2.27-12.39-2.91-14.21-2.16-23.99,3.71-28.31,10.75l-1.8,11.87c6.84,7.88,14.77,14.21,26.01,22.42Zm22.69-40.17l4.4,38.64c2.96.79,5.8,1.22,8.48,1.63,9.03,1.37,15.97.71,19.95-2.96l1.83-12.04c-4.87-9.63-18.79-19.27-34.65-25.27Z"/><path class="cls-2" d="m2268.58,1561.11c11.4,9.48,30.45,35.69,26.42,51.77-2.14,8.53-8,12.46-15.88,10.49-14.27-3.58-23.53-16.01-28.4-36.92-18.17-4.73-29.24-3.66-37.81-1.45l-1.23,4.92c6.8,6.24,14.22,12.8,21.93,18.22l-2.71,4.55c-28.9-17.53-27.83-25.97-26.07-33.03,3-11.97,13.66-14.88,46.8-7.97,5.93,22.93,19.3,34.29,26.68,36.14,7.05,1.77,9.47-2.33,10.63-7.62-2.46-10.38-24.01-37.04-33.93-44.76l-38.54-15.93,3.62-14.43,115.87,48.2,7.31-15.95,3.53,1.23c.9,8.24-.13,24.2-3.22,33.71l-74.99-31.16Z"/><path class="cls-2" d="m2298.67,1727.23l-137.63-75.78,3.54-9.33,137.63,75.78-3.54,9.33Z"/><path class="cls-2" d="m2150.76,1752.52l90.89,64.19,9.98-19.21-18.83-24.65,2.18-4.2,28.65,20.41-39.84,76.67-28.57-20.56,2.18-4.2,27.25,8.44,9.82-18.91-91.11-64.5-11.77,7.98-3.59-2.63,19.03-36.61,3.59,2.63.14,15.13Z"/><path class="cls-2" d="m2125.96,1828.68l47.59,32.28,1.1-1.7c-3.54-9.15-8.72-17.95-14.15-25.1l4.26-4.09c15.39,18.85,18.47,32.74,13.13,40.97-4.23,6.53-7.96,4.51-17.71-2.21l-41.81-28.13c-7.43-5.02-15.87-9.09-22.54-5.95l-2.67,4.11c2.59,4.7,5.28,9.27,7.91,13.59,14.18,23.51,28.23,36.65,33.74,42.44l17.88.71,2.94,9.77c-4.33,6.67-12.18,8.22-21.83,1.96-7.8-5.06-23.14-23.67-40.14-51.22-20.73-33.6-31.63-57.19-22.52-71.24,2.85-4.4,6.46-8.71,11.21-11.07l7.21,6.29-13.34,20.57c2.56,9.72,7.24,20.22,12.58,30.33.28-.43.5-1.08.87-1.65,8.28-12.77,21.58-10.59,36.29-.65Z"/><path class="cls-2" d="m2122.59,1962.39l-7.72-8.76c-3.06,7.08-6.85,14-11.39,19.69-9.81,12.29-23.72,15.9-43.28.29-23.79-18.99-39.06-52.16-20.81-75.03,3.69-4.63,8.81-9.41,14.69-13.8l-20.54-23.32-12.04,5.32-4.49-3.59,23.94-30,4.49,3.59-2.65,12.81,72.87,82.18c1.9-5.63,3.68-11.12,5.47-16.62l5.28,2.05c-1.13,3.86-2.68,11.49-5.65,20.37l11.42,12.79-9.6,12.03Zm-23.95,6.42c4.27-6.98,7.8-14.11,10.86-21.19l-45.37-51.58c-6.26-.02-11.96,1.7-18.35,5.91l-6.43,8.06c.7,14.84,11.29,35.19,28.34,48.8,11.1,8.86,20.37,12.15,30.96,10Z"/><path class="cls-2" d="m1985.11,2012.42l-5.21,2.96c-12.14-25.87-11.14-38.09.62-50.24,14.23-14.7,31.49-12.11,46.07,2,18.1,17.53,33.3,55.07,12.25,76.81-9.53,9.84-22.76,12.33-34.91.57-2.55-2.47-4.99-5.54-7.45-9.33l26.49-47.55c-2.57-3.43-5.37-6.61-8.41-9.55-10.33-10-21.7-10.89-29.3-7.66l-8.35,8.63c1.01,10.39,3.79,20.15,8.19,33.35Zm41.78-19.57l-18.82,34.03c1.95,2.36,4.02,4.36,5.96,6.24,6.56,6.35,12.6,9.84,17.97,9.16l8.47-8.75c1.62-10.67-4.14-26.6-13.57-40.68Z"/><path class="cls-2" d="m1898.74,2043.17l25.81-19.42,2.1,3.92-5.59,13.1,51.96,92.95,12.51-.53,2.1,3.92-25.13,18.91-59.84-55.07,18.63,86.07-25.67,19.32-2.1-3.92,5.59-13.1-51.96-92.95-12.51.53-2.1-3.92,28.78-21.66,2.1,3.92-5.19,12.79,52.53,94-20.58-97.94,6.62-4.98,68.68,61.75-52.53-94-12.11.22-2.1-3.92Z"/><path class="cls-2" d="m1781.84,2160.87l-5.81,1.47c-4.84-28.16-.64-39.68,13.92-48.27,17.62-10.4,33.58-3.33,43.89,14.15,12.81,21.7,17.51,61.92-8.56,77.31-11.79,6.96-25.21,5.85-33.81-8.71-1.8-3.06-3.34-6.67-4.71-10.97l38.15-38.82c-1.57-3.98-3.42-7.8-5.57-11.44-7.31-12.38-18.04-16.25-26.22-15.15l-10.34,6.1c-1.78,10.28-1.68,20.43-.94,34.33Zm45.47-7.79l-27.17,27.82c1.26,2.79,2.72,5.27,4.09,7.6,4.64,7.86,9.54,12.83,14.89,13.59l10.48-6.19c4.39-9.86,3.06-26.75-2.3-42.82Z"/><path class="cls-2" d="m1744.89,2246.01c-3.83,1.78-11.07,3.47-17.18,2.76l10.15,33.88,16.77-4.44,1.26,3.52c-5.84,5.88-18.89,15.12-28.22,18.71l-37.44-124.3-3.07,1.43c-.34,9.29-.54,18.9.1,28.29l-5.24.76c-4.49-33.34,1.29-37.33,7.74-40.33,6.9-3.21,13.17-.15,17.1,13.12l2.62,8.85c.85-19.04,5.23-34.88,15.81-39.79,12.27-5.7,26.49-3.18,36.11,17.52,12.54,26.99,8.94,68.19-16.51,80.02Zm-20.58-87.21c-5.91,8.15-10.66,26.02-11.04,42.05l10.57,35.18c6.73,2.84,14.86,4.28,23.78,1.82,12.15-9.56,9.54-42.47-.3-63.63-5.13-11.04-10.47-17.32-17.03-18.19l-5.98,2.78Z"/><path class="cls-2" d="m1644.47,2183.68c7.14-2.63,13.67.92,15.96,14.49l11.33,67.54,2.22-.82c2.44-9.54,3.63-19.53,3.72-28.57l5.39-.54c1.01,24.31-4.85,37.27-14.05,40.66-7.62,2.8-11.11-4.74-12.53-12.51l-11.58-70.68-3.97,1.46c-1.11,9.24-2.1,18.79-2.24,28.21l-5.29.32c-1.73-33.59,4.37-37.1,11.04-39.55Zm24.78,111.95l4.44-1.63c3.81-1.4,7.67.78,8.28,4.88l1.2,7.67c.68,4.79-1.56,8.5-5.68,10.02l-4.44,1.63c-3.81,1.4-7.67-.78-8.28-4.88l-1.2-7.67c-.78-4.58,1.88-8.62,5.68-10.02Z"/><path class="cls-2" d="m1568.56,2231.1c3.58-15.56,9.59-27.41,19.04-30.03,12.87-3.57,26.33,1.29,32.44,23.29,7.96,28.68-2,68.65-28.56,76.02-4.24,1.18-12.44,1.35-18.37-1.04l-4.93,7.51-5.87,1.63-9.26-87.1-4.07,1.13c-1.86,9.11-3.62,18.55-4.53,27.93l-5.29-.11c1.02-33.63,7.38-36.62,14.23-38.52,7.33-2.04,13.19.73,14.72,15.74l.46,3.56Zm16.39-19.99c-6.04,6.06-11.83,19.96-14.96,33.99l4.37,42.31c5.76,3.67,12.8,6.28,21.14,5.36,12.9-7.27,15.54-40.11,9.3-62.6-3.26-11.73-7.38-19.01-13.5-20.82l-6.35,1.76Z"/><path class="cls-2" d="m1421.75,2235.93l66.88-8.86-.11,13.32c-35.87,51.14-48.43,73.44-45.28,97.25,1.02,7.71,6.6,13.79,15.73,14.46,4.86-.64,7.67-1.36,10.95-2.3l10.23-32.23,6.2-.82-.86,34.74c-9.29,3.28-15.41,5.96-26.14,7.39-17.77,2.35-29.89-2.86-32.02-18.96-2.95-22.29,13.35-52.42,51.77-98.45l-57.49,7.62.13-13.15Z"/><path class="cls-2" d="m1370.04,2235.93c21.46-.78,32.88,15.38,33.79,40.39,1.26,34.47-12.68,88.45-53.57,89.94-15.55.57-26.68-12.56-27.65-39.09-.56-15.38,4.34-89.67,47.43-91.24Zm-4.2,121.47c18.38-20.3,23.1-62.6,22.4-81.7-.58-15.88-4.55-27.24-9.45-31.8l-20.95.76c-11.55,12.77-20.67,54.9-19.56,85.31.43,11.83,2.35,22.59,8.3,28.12l19.26-.7Z"/><path class="cls-2" d="m1248.93,2235.75l67.35,3.89-2.62,13.06c-44.85,43.48-61.4,63.02-62.78,86.99-.45,7.76,3.89,14.79,12.73,17.16,4.9.28,7.78.11,11.19-.2l16.11-29.72,6.25.36-7.38,33.96c-9.74,1.47-16.26,2.96-27.06,2.33-17.89-1.03-28.81-8.44-27.88-24.64,1.3-22.45,22.98-48.98,69.38-86.94l-57.9-3.34,2.61-12.89Z"/><path class="cls-2" d="m1176.86,2225.91l66.82,9.27-3.65,12.81c-48.19,39.75-66.24,57.89-69.54,81.68-1.07,7.7,2.69,15.05,11.31,18.13,4.86.67,7.75.73,11.17.7l18.44-28.34,6.2.86-10.08,33.25c-9.83.69-16.44,1.64-27.16.16-17.75-2.46-28.04-10.72-25.81-26.8,3.09-22.27,26.83-46.98,76.12-81.11l-57.45-7.97,3.63-12.64Z"/><path class="cls-2" d="m1060.67,2337.82l59.02-145.6,9.68,2.42-59.02,145.6-9.68-2.42Z"/><path class="cls-2" d="m1024.41,2194.5l-29.89-11.31-31.67,83.66-14.23-5.39,25.68-67.84c5.81-15.34,11.83-24.09,28.43-17.8l45.07,17.06-1.92,5.06-7.57,1.84-14.55,38.43,4.02-1.55c3.99,1.87,7.59,8.12,1.91,23.14-4.13,10.91-13.93,29.62-26.58,24.83-7.27-2.75-9.43-9-4.04-23.23l25.32-66.89Zm-4.67,45.78l-13.83,36.53,6.96,2.63c5.09-13.44,8.59-26.04,10.51-37.79l-3.64-1.38Z"/><path class="cls-2" d="m1030.59,2151.8c3.9-2.53,6.27-2.03,7.66-1.41,2.47,1.1,4.62,5.01,2.01,10.88-3.23,7.26-13.9,18.8-22.55,14.96-5.72-2.54-5.65-7.69-2.43-14.95l8.37-18.85-12.36-5.49-13.59,30.6-9.74-4.32,12.49-28.13c2.06-4.64,5.78-7.61,12.58-4.59l22.56,10.02-5.01,11.28Zm-4.01,21.53c2.83-5.96,5.27-12.28,6.86-18.79l-3.47-1.36-8.03,18.08,4.64,2.06Z"/><path class="cls-2" d="m957.46,2155c7.41,3.71,8.76,9.69,3.99,19.21-4.7,9.37-14.46,21.69-25.96,27.65,3.7,4.69,3.92,11.04-.77,20.42-5.23,10.43-16.89,28.04-28.98,21.98-6.95-3.48-8.91-10.14-1.64-23.52l15.76-29.17c-5.21-11.5-9.73-22.85-13.35-36.76l-35,69.84-13.61-6.82,44.47-88.74,13.15,6.59c.59,19.59,3.45,35.39,7.44,49.69l5.61-11.19c9.09-18.14,21.19-23.04,28.9-19.18Zm-30.67,46.86l-17.5,34.92,6.65,3.33c6.44-12.85,11.21-25.02,14.33-36.51l-3.48-1.74Zm5.22-6.27l3.48,1.74c7.8-11.03,14.92-22.22,21.21-34.01l-6.8-3.41-17.88,35.68Z"/><path class="cls-2" d="m901.58,2094.29l.79,5.97c-7.82,2.25-17.3,6.65-24.23,12.38l3.06,1.81c3.49,2.07,4.24,6.44,1.74,9.68l-6.39,7.81c-2.5,3.23-7.57,4.16-11.07,2.09l-6.4-3.79c-3.49-2.07-4.24-6.44-1.74-9.67l5.33-6.67c7.05-8.6,21.48-16.36,38.92-19.6Z"/><path class="cls-2" d="m772.08,2103l26.44-27.24-1.21-.93-58.93,45.15-8.45-6.48,29.55-67.69-1.34-1.03-21.04,31.59-30.67,39.98-9.79-7.51,60.41-78.75,14.35,11.01-27.77,62.87,2.01,1.54,54.61-42.29,12.61,9.67-30.88,40.25,4.97.19c3.28,2.94,4.93,9.96-4.85,22.71-7.1,9.26-21.88,24.35-32.61,16.12-6.17-4.73-6.44-11.33,2.83-23.41l19.76-25.76Zm6.1,11.5l-23.77,30.99,5.9,4.53c8.75-11.4,15.73-22.45,20.96-33.15l-3.09-2.37Z"/><path class="cls-2" d="m728.4,2001.98c5.37,4.91,5.15,10.9-2.83,19.63-7.42,8.11-20.32,19.46-32.4,19.64l-1.67-5.19-10.61,11.6,16.9,27.37c-12.04,9.15-25.16,15.48-31.27,9.89-7.36-6.73-15.44-21.45-20.18-33.81l7.26-3.67,17.02,30c2.48-.71,7.05-2.95,12.61-7.03l-11.67-30.84,14.95-16.34c25.56-27.95,36.28-26.39,41.9-21.26Zm-4.8,5l-3.37-3.08-27.39,29.95,4.49,4.11,26.27-30.97Z"/><path class="cls-2" d="m605.43,2100.17c-4.15-4.22-4.81-10.92.13-15.78,6.15-6.05,14.19-9.45,28.38-5.62-10.35-6.66-21.66-12.38-32.26-17.84l1.83-4.17c17.9,4.93,38.13,15.86,44.3,22.13l3.2,3.25-6.39,6.29c-3.81-2.18-12.39-6.08-19.8-5.66,2.75.38,5.96,1.96,7.03,3.05,3.68,3.74,3.99,8.64-.71,13.27-6.39,6.28-18.25,8.7-25.72,1.1Zm21.15-12.74l-3.32-3.38c-4.69,2.71-11.07,9-13.74,13.52l4.39,4.46c5.17-3.9,9.76-9.37,12.67-14.6Z"/><path class="cls-2" d="m606.36,2026.33c-14.67-15.45-10.34-30.52,11.73-51.49,16.79-15.96,46.57-34.45,62.64-17.53l20.5,21.58c-6.98,11.06-13.31,20.11-28.07,31.33-19.15,14.46-35.13,12.61-41.18,6.24-2.68-2.82-5.06-7.78,4.01-16.4,11.16-10.6,28.88-16,42.06-17.1l2.13,5.44,8.27-10.19-18.52-19.49c-13.9,5.74-31.39,16.06-45.24,29.22-14.96,14.21-16.4,23.98-15.45,33.57,8.72,5.01,21.19,8.56,33.1,10.3l2.18,3.76-5.31,11.11c-11.74-3.77-23.41-10.41-32.85-20.34Zm70.26-34.56l-1.4-1.47c-12.44,4.82-26.72,11.39-39.42,21.35l2.1,2.21c11.65-1.73,28.56-12.9,38.72-22.09Z"/><path class="cls-2" d="m644.84,1915.4c5.13,6.51,3.82,12.49-4.55,19.09-8.23,6.49-22.31,13.49-35.25,14,1.36,5.82-1.14,11.66-9.37,18.15-9.16,7.22-27.2,18.21-35.57,7.58-4.81-6.11-3.76-12.97,8.5-21.99l26.66-19.72c.17-12.62.89-24.82,3.53-38.95l-61.35,48.35-9.42-11.95,77.95-61.43,9.11,11.55c-7.79,17.98-11.92,33.5-14.37,48.14l9.83-7.74c15.94-12.56,28.98-11.86,34.31-5.08Zm-47.67,29.39l-30.68,24.18,4.6,5.84c11.29-8.9,20.78-17.88,28.48-26.97l-2.41-3.05Zm7.39-3.46l2.41,3.05c11.75-6.67,22.94-13.78,33.64-21.78l-4.71-5.98-31.34,24.7Z"/><path class="cls-2" d="m538.45,1855.68l34.31-16.26-.81-1.29-71.01,21.66-5.65-9.03,51.38-53.06-.9-1.43-30.77,22.23-42.73,26.71-6.54-10.47,84.17-52.61,9.59,15.34-48.03,49.17,1.34,2.15,65.96-20.49,8.43,13.48-43.02,26.89,4.59,1.92c2.04,3.91,1.13,11.06-12.49,19.57-9.89,6.18-29.02,15.15-36.19,3.68-4.12-6.6-2.06-12.87,10.84-20.94l27.53-17.21Zm1.69,12.91l-33.12,20.71,3.94,6.31c12.19-7.62,22.6-15.52,31.24-23.72l-2.06-3.3Z"/><path class="cls-2" d="m532.94,1745.78c3.3,6.48,1,12.02-9.54,17.39-9.79,4.99-25.85,11.1-37.22,7.03l.26-5.45-14.01,7.14,6.23,31.56c-14.48,4.35-28.99,5.68-32.76-1.7-4.53-8.89-6.94-25.5-7.04-38.74l8.08-.9,5.42,34.06c2.57.21,7.64-.29,14.27-2.16l-.11-32.97,19.73-10.06c33.74-17.21,43.23-11.99,46.69-5.21Zm-6.25,3l-2.07-4.07-36.15,18.44,2.77,5.42,35.46-19.79Z"/><path class="cls-2" d="m509.87,1697.07c2.91,6.66.28,12.05-10.57,16.79-10.07,4.4-26.47,9.53-37.58,4.78l.58-5.42-14.41,6.29,4.32,31.88c-14.72,3.47-29.28,3.93-32.6-3.67-3.99-9.14-5.39-25.88-4.7-39.09l8.12-.41,3.36,34.33c2.56.36,7.64.17,14.38-1.3l1.86-32.92,20.3-8.86c34.71-15.16,43.88-9.38,46.92-2.4Zm-6.42,2.62l-1.83-4.18-37.19,16.24,2.44,5.58,36.58-17.63Z"/><path class="cls-2" d="m427.64,1668.79l.24,19.42-10,3.14c-12.03-6.15-29.36-17.91-34.57-34.53-7.08-22.59,6.22-31.01,23-36.28l50.82-15.94c-12.15-5.4-22.15-11.31-32.31-17.69l-55.18,17.3-4.25-13.55,48.4-15.18-4-3.71c-2.88-9.2,2.58-12.68,13.07-15.97,19.04-5.97,36.36-2.72,38.54,4.22,3.24,10.33-1.41,15.86-21.41,22.13l-10,3.14c14.11,6.56,31.4,11.42,42.31,14.55l4.15,13.23-63.25,19.83c-12.1,3.79-16.58,5.91-21.25,10.21l-.36,16.95c9.33,10.54,12.48,13.81,25.82,21.32l.81-15.5,8.98-3,4.03,2.1,9.04-2.83-4.89-4.85c.03-4.44,1.16-8.16,11.58-10.54,14.71-3.37,39.33-7.37,42.93,4.08,2.63,8.39.64,15.04-13.24,19.39-4.36,1.37-9.79,3.25-36.87,7.31l-12.14-8.77Zm-11.27-93.58l38.72-12.14-1.37-4.36c-13.36,2.6-26.42,6.16-39.18,10.69l1.82,5.81Zm26.39,82.46l2.28,7.26c13.2-2.54,26.2-5.74,38.9-9.89l-1.67-5.32c-13.35,2.06-26.56,4.61-39.5,7.96Z"/><path class="cls-2" d="m330.75,1419.33l8.89-1.13c.92,5.85,2.74,16.19,4.65,24.47l1.51-.19c1.7-9.42,6.25-16.48,18.33-18.02l71.79-9.14,1.88,14.76-64.58,8.22c-16.44,2.09-22.6,5.95-25.57,8.03l3.91,30.7c3.54,5,16.46,7.45,27.7,6.02l36.73-4.68c-18.65-3.25-44.57-10.01-45.81-19.74-.58-4.53.8-9.82,11.36-11.16,22.14-2.82,39.23,5.57,40.11,12.45.6,4.7-.4,7.55-3.9,10.89l13,5.67,12.75-1.62,1.67,13.08-49.48,6.3c-33.04,4.21-52.64-7.79-56.82-37.94-.75-7.23-5.17-24.57-8.12-36.98Zm82.9,40.58c-13.45-2.55-23.48-3.66-38.79-3.41l.68,5.37,38.72,2.91-.62-4.87Z"/><path class="cls-2" d="m373.17,1371.52l13.35,4.82,37.69-1.19-.69-21.8-89.4,2.83-.48-15.21,72.5-2.29c16.39-.52,26.78,1.69,27.34,19.44l1.18,37.35-5.41.17-4.6-6.28-29.07.92-12.44-8.23,3.27,7.17c-.2,4.41-4.59,10.13-20.64,10.63-11.66.37-32.7-1.5-33.13-15.03-.25-7.77,4.69-12.16,19.9-12.64l20.62-.65Zm6.8,11.63l-39.04,1.23.24,7.44c14.37-.45,27.34-2.05,38.93-4.78l-.12-3.89Z"/><path class="cls-2" d="m479.05,1351.89l-12.34-.2c3.85,2.6,4.32,4.97,4.29,6.5-.04,2.71-2.81,6.21-9.23,6.11-7.95-.13-22.74-5.44-22.59-14.91.1-6.26,4.87-8.21,12.81-8.08l27.22.44-.16,10.14Zm-33.73,4.53c6.59.28,13.36.05,19.97-1.03l-.11-3.72-19.78-.32-.08,5.07Z"/><path class="cls-2" d="m436.3,1255.59l-.84,15.19-69.72-3.85c-2.19-.12-4.05-.22-5.57-.31,5.79,8.62,12.33,15.92,19.8,21.75l3.85-5.38c8.39,1.31,19.12,3.43,24.8,4.76,21.7,5.6,27.63,11.69,27.14,20.63-.61,10.97-7,13.33-17.47,12.75-12.32-.68-48.66-8.11-62.19-54.41-4.94.57-9.68,3.53-17.68,13.59,4.06,9.2,13.27,23.42,21.99,31.02l-1.25,4.16-11.72,3.76c-7.01-8.01-12.98-28.66-13.67-46.81-.27-7.3-1.31-19.21-1.62-31.93l8.95.49c-.33,5.91-.57,16.39.15,24.9l1.52.08c3.37-8.96,9.13-15.07,21.29-14.4l72.26,3.99Zm-6.95,55.33l.39-4.04c-10.93-4.5-33.25-11.15-45.95-14.22l-.22,4.05c12.04,5.91,32.85,12.31,45.78,14.21Z"/><path class="cls-2" d="m481.97,1264.5l-12.27-1.39c3.58,2.96,3.82,5.37,3.64,6.88-.3,2.69-3.39,5.91-9.78,5.19-7.9-.9-22.11-7.61-21.04-17.02.7-6.22,5.64-7.7,13.53-6.8l27.05,3.07-1.14,10.08Zm-34.01,1.25c6.53.91,13.29,1.34,19.98.9l.25-3.72-19.66-2.23-.57,5.04Z"/><path class="cls-2" d="m442.46,1217.98c-1.06,8.22-8.02,11.92-28.31,9.29l-73.28-9.48,1.76-13.58,49.81,6.44-1.7-3.97c2.01-8.95,7.24-9.81,18.3-8.37,17.44,2.26,34.8,9.11,33.43,19.67Zm-47.21-5.43l40.25,5.21.59-4.53-40.05-6.72-.78,6.04Z"/><path class="cls-2" d="m448.62,1175.57c-1.72,8.11-7.15,10.93-17.57,8.72-10.26-2.17-24.64-8.5-33.33-18.11-3.6,4.77-9.69,6.59-19.95,4.42-11.41-2.42-31.4-9.24-28.6-22.47,1.61-7.61,7.55-11.19,22.34-7.54l32.21,7.85c9.81-7.95,19.64-15.2,32.18-22.23l-76.42-16.17,3.15-14.89,97.1,20.55-3.04,14.39c-18.8,5.53-33.37,12.3-46.18,19.78l12.24,2.59c19.85,4.2,27.66,14.67,25.87,23.1Zm-53.09-17.8l-38.21-8.09-1.54,7.28c14.06,2.98,27.04,4.51,38.95,4.61l.81-3.8Zm7.39,3.46l-.81,3.8c12.65,4.75,25.27,8.8,38.27,11.9l1.58-7.44-39.04-8.26Z"/><path class="cls-2" d="m470.26,1083.48c-2.56,7.88-8.26,10.12-18.39,6.83-10.29-3.34-24.8-11.78-32.05-22.85l1.57-4.82-13.79-19.41-18.35-7.56,1.63,10.31c1.5.31,6,1.77,7.77,2.34,12.87,4.18,17.65,14.62,15.57,21.05-1.62,4.99-6.08,9.41-17.98,5.54-12.71-4.12-26.48-15.35-21.78-29.83l10.79-.94-7.24-10c2.45-7.56,8.2-11.03,17.85-7.89,9.81,3.18,18.91,11.29,25.37,23.17l7.24,2.35c10.59-6.87,20.96-13.11,34.18-18.77l-74.14-24.06,4.7-14.47,94.41,30.64-4.54,13.99c-19.38,3.31-34.47,8.72-48.01,14.82l11.9,3.86c19.3,6.26,25.97,17.49,23.3,25.7Zm-60.26-19.74c-8.32-3.94-18.99-8.3-29.22-10.2l-3.03,2.75c9.89,6.23,23.82,10.4,31.1,10.98l1.15-3.54Zm16.31.67l-1.2,3.7c12.08,6.05,24.21,11.41,36.81,15.86l2.35-7.24-37.96-12.32Z"/><path class="cls-2" d="m403.59,878.91l131.95,85.27-4.19,9.05-131.95-85.27,4.19-9.05Z"/><path class="cls-2" d="m515.85,852.93v-4.32c5.34-7.45,10.48-6.19,20.11-.55,15.17,8.9,28.46,21.99,23.07,31.18-4.19,7.15-12.04,7.83-29.69-2.52l-72.19-42.35c-7.05-12.37-9.19-25.78-9.29-36.62-2.07,7.21-4.92,18.09-6.62,22.98l-13.86,17.94-8.51-7.54,18.43-12.71c2.2-9.1,4.55-20.46,6-29.61l7.35,1.17c1.93,13.09,5.08,23.76,13.14,32.41l52.07,30.54Zm1.86,2.85l35,20.53,2.31-3.94-34.23-21.85-3.08,5.25Z"/><path class="cls-2" d="m539.57,815.6c-2.81,3.4-9.76,5.32-22.88-3.95-9.53-6.73-25.19-20.9-17.38-31.95,4.49-6.35,11.07-6.88,23.5,1.91l22.51,15.91c-14.04-20.27-27.24-42.02-18.26-54.73,6.34-8.98,14.55-10.63,30.29.49l61.45,43.42-8.78,12.43-60.35-42.64c-5.8-4.1-10.63-6.06-14.58-5.74l-4.39,6.21,24.97,47.87,33.56,23.71-8.59,12.15-41.57-29.37.49,4.28Zm-1.5-8.72l-31.9-22.54-4.29,6.08c11.74,8.29,23.05,14.84,33.95,19.64l2.24-3.18Z"/><path class="cls-2" d="m600.46,732.91c-3.15,3.09-10.26,4.28-22.35-6.3-8.78-7.68-22.89-23.4-13.98-33.58,5.12-5.85,11.72-5.69,23.18,4.33l53.83,47.1,21.04-24.05-94.43-82.62,10.02-11.45,81.7,71.48c12.34,10.8,18.44,19.5,6.75,32.86l-31.73,36.27-4.07-3.56.92-7.73-30.92-27.06.05,4.31Zm-.59-8.83l-29.4-25.72-4.9,5.6c10.82,9.46,21.4,17.15,31.73,23.05l2.56-2.93Z"/><path class="cls-2" d="m568.33,669.63c-4.23,4.38-10.32,5.08-15.42.14-4.62-4.47-9.9-12.63-6.79-26.31,2.35-9.73,3.35-14.17,4.98-23.4l5.87.74c.51,8.96-2.21,17.62-4.72,24.59l.12-.12c4.23-4.38,10.81-4.37,15.67.33,6.08,5.88,7.58,16.49.29,24.03Zm-13.16-21.42l-3.41,3.53c1.41,5.36,9.8,13.47,13.76,14.47l3.06-3.16c.04-4.43-8.26-14.33-13.41-14.84Z"/><path class="cls-2" d="m701.55,695.49c-6.06,5.65-12.13,4.84-19.4-2.95-7.15-7.67-15.29-21.11-16.88-33.97-5.69,1.83-11.72-.17-18.87-7.84-7.96-8.53-20.4-25.6-10.51-34.82,5.69-5.3,12.61-4.82,22.62,6.65l21.86,24.93c12.59-.88,24.81-1.17,39.11.29l-53.27-57.14,11.13-10.38,67.69,72.6-10.76,10.03c-18.56-6.27-34.38-9.1-49.17-10.33l8.53,9.15c13.84,14.84,14.22,27.89,7.91,33.78Zm-33.24-45.07l-26.64-28.57-5.44,5.07c9.8,10.51,19.55,19.23,29.23,26.15l2.84-2.65Zm4.06,7.08l-2.84,2.65c7.63,11.15,15.63,21.72,24.49,31.72l5.57-5.19-27.21-29.19Z"/><path class="cls-2" d="m670.09,570.89c-10.2-1.4-29.12.74-37.15,3.26l-7.14,5.96c-.24,2.62,1.67,5.43,5.4,9.37l20.54-10.75,2.58,3.35c-6.53,4.57-19.34,14.82-28.08,21.24-13.17-13.67-13.46-23.78-5.55-30.39,9.48-7.91,27.12-10.52,40.15-11.27l-9.21-11.03,7.53-6.28,17.55,21.03-6.62,5.53Z"/><path class="cls-2" d="m777.13,629.06c-6.49,5.15-14.06,2.96-26.78-13.06l-45.96-57.86,10.72-8.52,31.23,39.32,1.55-4.03c7.68-5.02,12.02-1.99,18.96,6.75,10.94,13.77,18.61,30.78,10.27,37.4Zm-30.08-36.78l25.24,31.78,3.58-2.84-24.05-32.72-4.77,3.79Z"/><path class="cls-2" d="m820.88,509.31l39.49,58.62-12.62,8.5-36.38-53.99c-9.26-13.74-15.47-17.51-18.67-19.23l-24.54,16.53c-2.88,5.41-.52,18.9,6.51,27.83l30.02,38.5c.83-2.4,1.67-4.79,2.64-7.28l-3.99-1.39c-17.93-22.99-19.48-41.31-8.82-48.5,4.35-2.93,8.62-1.73,12.68,4.3,5.57,8.27,11.92,30.71,7.49,45.92l-7.15,24.19-8.83,5.95-3.91-4.3c1.82-2.45,3.49-4.8,4.75-7.48l-26.93-30.59c-22.26-25.17-16.9-50.8,8.34-67.81,13.18-8.88,27.72-7.87,39.91,10.22Zm-23.38,24.31l-5.89,3.97,16.27,37.77,2.66-1.79-13.05-39.94Z"/><path class="cls-2" d="m792.91,479.19c-9.87-2.92-28.9-3.65-37.22-2.36l-7.95,4.82c-.63,2.55.84,5.62,3.93,10.07l21.92-7.55,2.05,3.7c-7.15,3.54-21.35,11.75-30.96,16.78-10.97-15.5-9.74-25.54-.91-30.88,10.56-6.4,28.39-6.33,41.39-5.11l-7.45-12.29,8.39-5.08,14.19,23.43-7.38,4.47Z"/><path class="cls-2" d="m875.96,536.38c-3.36-6.26-3.53-9.43-.73-14.58-9.35,1.18-15.39-6.13-24.19-22.52-13.6-25.33-9.94-37.46-3.09-41.14,7-3.76,13.8-1.46,19.32,8.82,6.96,12.96,13.02,31.39,5.97,38.64l-3.78.11c2.64,4.92,7.37,6.22,18.8,1.42l7.7-3.17,2.24,4.17-16.17,10.99,10.32,19.22,29.35-15.76-42.32-78.81,13.41-7.2,34.32,63.91c7.76,14.45,10.41,24.74-5.24,33.14l-42.46,22.8-2.56-4.77,3.58-6.91-4.48-8.34Zm-21.63-72.45l-6.56,3.52,18.48,34.41,3.43-1.84c-3.58-11.32-8.7-23.35-15.35-36.09Z"/></svg>