<?xml version="1.0" encoding="UTF-8"?><svg xmlns="http://www.w3.org/2000/svg" xmlns:xlink="http://www.w3.org/1999/xlink" viewBox="0 0 2672.51 2672.51"><defs><style>.cls-1{fill:none;}.cls-2{clip-path:url(#clippath);}.cls-3{fill:#fff;}.cls-4{fill:#231f20;}.cls-5{clip-path:url(#clippath-1);}.cls-6{clip-path:url(#clippath-4);}.cls-7{clip-path:url(#clippath-3);}.cls-8{clip-path:url(#clippath-2);}.cls-9{clip-path:url(#clippath-5);}</style><clipPath id="clippath"><rect class="cls-1" x="153.57" y="180.29" width="2353.49" height="2322.35"/></clipPath><clipPath id="clippath-1"><rect class="cls-1" x="153.57" y="180.29" width="2353.49" height="2322.35"/></clipPath><clipPath id="clippath-2"><rect class="cls-1" x="153.57" y="180.29" width="2353.49" height="2322.35"/></clipPath><clipPath id="clippath-3"><rect class="cls-1" x="153.57" y="180.29" width="2353.49" height="2322.35"/></clipPath><clipPath id="clippath-4"><rect class="cls-1" x="153.57" y="180.29" width="2353.49" height="2322.35"/></clipPath><clipPath id="clippath-5"><rect class="cls-1" x="153.57" y="180.29" width="2353.49" height="2322.35"/></clipPath></defs><g id="Background_Big_Sticker"><circle class="cls-3" cx="1336.25" cy="1336.26" r="1328.45"/></g><g id="Image"><g class="cls-2"><path class="cls-4" d="m1543.97,245.77c-11.45-7.1-15.93-16.52-14.42-24.52,2.14-11.37,15.86-20.12,39.58-15.65,60.63,11.42,134.25,116.71,126.13,159.8-2.62,13.89-15.23,20.67-26.74,18.51-9.26-1.75-11.99-8.08-11.09-12.85.08-.42.3-.82.38-1.24,8.65-.41,19.32-5.37,21.73-18.14,7.93-42.11-64.81-116.56-108.32-124.76-16.56-3.12-23.7,2.37-25.16,10.09-.42,2.24-.45,4.71.11,7.14l-2.19,1.62Zm-2.15,12.97c41.97,7.91,97.69,40.79,123.72,69.23l-3.56,5c-11.66-8.3-22.94-12.46-33.61-14.47-20.49-3.86-39.93,1.35-58.89,6.35-18.69,5.05-37.03,9.88-56.12,6.29-24-4.53-38.42-23.66-34.48-44.58,4.36-23.16,28.55-34.3,62.94-27.82m-73.83-21.61l.37-1.96c-24.21,1.98-48.32,17.35-55.7,44.15,22.34-3.64,50.17-14.82,55.33-42.19m.7-12.22l-.28-.05c-2.28-16.42-15.4-29.35-36.59-33.35-33.27-6.27-60.03,12.38-63.6,31.33-2.12,11.23,2.7,25.8,17.68,28.77-2.77,7.03-15.68,9.98-25.09,8.21-10.67-2.01-20.3-14.14-17.21-30.56,5.84-31.02,48.4-55.56,91.91-47.36,29.19,5.5,46.48,23.29,49.08,43.4,2.28.28,4.55.57,7.08,1.04,15.57,2.94,30.91,9.46,44.82,20.51-3.14,2.75-8,3.87-13.19,2.89-2.24-.43-4.55-1.29-6.92-2.61-1.43-.85-18.19-9.1-29.4-11.35l-2.53-.48c-.07,1.15-.31,2.41-.49,3.39-6.19,32.85-46.43,51.28-73.35,51.44l.28.05c-2.63,28.57,14.76,47.4,34.41,51.1,7.3,1.38,16.68.96,24.18-1.84.86,1.62.96,3.38.62,5.21-1.8,9.54-18.05,21.74-39.52,17.7-25.27-4.76-46.3-35.03-39.11-73.21,7.24-38.46,40.06-62.22,77.21-64.23"/><path class="cls-4" d="m1864.33,410.27c30.72-38.49,36.65-75.92,11-89.12-20.96-10.78-52.16,2.72-80.55,38.23-30.73,38.48-36.79,76.16-11.13,89.37,20.96,10.78,52.29-2.97,80.68-38.47m20.7-104.85c51.18,26.34,62.17,81.15,22.7,130.39-22.63,28.35-56.53,43.36-91.38,40.84l-.45.57c30.19,50.88,51.07,74.63,78.12,88.55,14.99,7.71,29.83,11.34,49.43,12.27l-1.54,11.42c-36.36,6.34-64.43,3.79-87.42-8.05-36.07-18.56-51.09-39.63-83.52-118.32-48.62-26.95-58.35-80.78-19.64-129.14,31.83-40,86.21-52.98,133.71-28.54"/><path class="cls-4" d="m2069.9,499.03c-17.56,12.09-24.62,17.29-39.21,29.5-36.89,30.92-46.55,43.49-41.78,47.14,2.83,2.17,8.26,2.38,26.09,1.67l-3.93,11.21c-22.73,6.86-42.65,4.89-56.24-5.55-14.84-11.4-12.9-26.12,22.16-52.32l-.78-1.33c-40.18,19.03-62.27,22.24-81.42,7.54-14.73-11.31-11.7-26.27,2.95-38.79l41.51-35.3c18.69-15.9,17.05-19.86,14.9-21.52-2.49-1.91-6.29-2.12-21.41-.96l3.93-11.21c19-5.76,40.84-6.28,55.34,4.85,10.65,8.18,14.4,17.36,11.21,26.44l-59.73,50.12c-10.82,9.17-11.9,13.38-8.27,16.16,3.63,2.79,13.84,1.45,41.06-7.73,10.72-3.65,15.45-7.22,22.2-13.2,6.93-6.2,12.92-12.59,27.25-24.46,7.64-6.2,20.26-5.51,34.99,5.8,3.17,2.44,6.39,5.27,9.7,8.71l-.5,3.22Z"/><path class="cls-4" d="m2082.83,626.13c17.66-3.64,32.85-9.66,48.49-17.7l3.98-2.03c6.95-3.48,5.27-14.13-3.52-23.31-10.36-10.84-25.37-8.55-49.76,6.86-28.28,17.76-35.37,31.84-30.83,36.59,3.26,3.4,13.97,3.25,31.63-.4m-39.94-56.87c37.21-23.71,78.71-22.68,109.01,9.02,6.32,6.6,12.97,16.26,17.81,25.86,1.26,2.35,1.84,3.58,2.82,4.61,1.78,1.86,3.09,1.79,7.39-.54l7.15-3.68,8.29,13.01c-14.2,6.86-26.05,12.85-39.16,20.84l-19.77,12.18c-32.48,19.78-44.04,30.84-39.89,35.17,2.47,2.58,7.8,3.61,25.53,5.63l-5.59,10.48c-23.51,3.31-42.9-1.68-54.74-14.06-13.52-14.15-12.11-27.55,32.57-51.1l-.88-1.33c-42.13,13.8-69.89,12.47-83.02-1.26-15.4-16.1-2.27-42.89,32.48-64.84"/><path class="cls-4" d="m2097.61,722.83c20.65-5.85,28.88-8.27,49.7-17.37,40.65-17.85,51.71-25.72,48.2-30.77-2.12-3.05-9.54-5.2-20.12-7.4l7.03-9.41c19.97.19,41.27,6.78,51.38,21.31,6.53,9.38,8.06,18.58,4.4,25.83-12.36,5.99-28.01,10.27-40.08,14.68l.47,1.42c41.11-4.95,65.98,2.28,79.77,22.1,10.61,15.24,3.19,28.58-14.57,36.07l-50.26,21.06c-22.63,9.49-25.45,13.19-23.41,16.12,1.8,2.58,5.75,4,23.47,8.21l-7.14,9.49c-19.86-.27-40.5-5.92-51.93-22.33-9.54-13.72-6.8-26.77,7.15-32.48l62.29-25.78c13.08-5.46,15.38-9.15,12.78-12.9-4.25-6.1-23.33-9.52-44.74-9.76-7.37-.09-11.67.99-17.09,3.71-10.83,5.44-23.22,11.64-40.56,18.49-9.16,3.59-20.98-.89-31.59-16.13-2.28-3.28-4.49-6.96-6.6-11.24l1.45-2.92Z"/><path class="cls-4" d="m2212.21,844.55l84.22-22-8.45-16.21,13.92-4.2,6.93,9.28c3.6,4.73,5.27,5.47,9.4,4.44l16.54-4.11c11.39-2.88,20.9.54,26.25,10.8,5.94,11.4,1.32,21.06-11.72,24.47l-17.17,4.44,14.33,27.48-12.65,3.86c-4.67-.62-9.31-6.42-16.05-19.34l-3.5-6.71-63.52,18.14c-18.63,5.36-24.13,8.71-21.88,13.02,3.3,6.34,17.6,13.38,29.96,19.17l-7.57,9.26c-24.33-3.1-46.87-13.9-57.43-34.16-9.31-17.86-4.76-31.67,18.4-37.62"/><path class="cls-4" d="m2405.28,903.65c12.02-2.31,23.82,2.72,28.54,14.21,5.11,12.42-1.63,23.84-16.51,26.71-11.89,2.26-23.5-2.7-28.17-14.06-5.43-13.22,3.01-24.25,16.14-26.87m-157.74,34.41l61.46-11.67c23.96-4.44,27.83-7.43,26.69-10.2-1.3-3.17-8.66-7.56-21.35-13.62l8.89-7.67c19.46,4.51,38.83,15.55,45.56,31.93,5.05,12.29,2.82,24.17-5.8,29.87l-69.38,13.08c-24.04,4.63-27.7,7.37-26.45,10.4,1.19,2.91,6.78,7.1,21.29,13.49l-9.02,7.72c-19.33-4.56-38.32-14.68-45.86-33.04-6.41-15.59-.85-27.6,13.96-30.29"/><path class="cls-4" d="m2285.98,1012.15l86.8-6.43-5.39-17.47,14.45-1.61,5.14,10.37c2.68,5.3,4.19,6.33,8.45,6.07l17.02-1.06c11.72-.78,20.46,4.3,23.86,15.36,3.79,12.29-2.51,20.95-15.95,21.96l-17.69,1.27,9.13,29.62-13.13,1.51c-4.49-1.46-7.99-8-12.29-21.92l-2.22-7.23-65.74,6.36c-19.29,1.91-25.31,4.21-23.88,8.86,2.1,6.83,14.9,16.33,26.01,24.26l-9.12,7.75c-23.37-7.44-43.59-22.13-50.32-43.97-5.94-19.25,1.04-32.01,24.89-33.68"/><path class="cls-4" d="m2348.38,1164.06c16.72,6.74,32.7,10.12,50.17,12.09l4.44.52c7.71.94,12.21-8.86,9.98-21.36-2.63-14.77-16.4-21.17-45.24-21.82-33.38-.87-47.07,6.94-45.92,13.41.83,4.63,9.84,10.43,26.57,17.17m-1.8-69.46c44.11.84,78.1,24.67,85.8,67.83,1.61,9,1.8,20.71.52,31.39-.25,2.65-.45,4-.2,5.4.45,2.53,1.59,3.2,6.45,3.64l7.99.89-.29,15.43c-15.62-2.15-28.81-3.72-44.15-4.32l-23.21-.8c-37.99-1.49-53.74,1.31-52.68,7.22.62,3.51,4.49,7.32,18.15,18.81l-10.46,5.64c-21.41-10.25-34.8-25.13-37.81-42.01-3.44-19.26,5.16-29.64,55.4-24.53v-1.59c-42.73-11.82-65.1-28.29-68.44-46.99-3.91-21.93,21.84-36.97,62.92-36.03"/><path class="cls-4" d="m2335.34,1254.08l85.79,14.75-1.01-18.26,14.41,1.93,2.48,11.31c1.32,5.8,2.54,7.16,6.73,7.92l16.76,3.09c11.56,2.08,18.81,9.12,19.44,20.68.71,12.83-7.5,19.72-20.78,17.45l-17.47-3.05,1.7,30.95-13.11-1.71c-4-2.5-5.83-9.69-6.63-24.24l-.41-7.56-65.33-9.72c-19.18-2.81-25.58-2.03-25.31,2.82.39,7.13,10.51,19.45,19.37,29.84l-10.72,5.31c-20.87-12.87-36.94-32.02-38.2-54.83-1.1-20.11,8.75-30.81,32.3-26.67"/><path class="cls-4" d="m2486.87,1387.4c11.91,2.83,20.59,12.27,20.17,24.69-.46,13.42-11.29,21.06-26.04,17.56-11.77-2.83-20.31-12.13-19.9-24.4.48-14.27,12.71-20.86,25.76-17.84m-157.93-33.51l60.81,14.64c23.67,5.81,28.42,4.69,28.52,1.68.12-3.42-4.79-10.45-13.85-21.19l11.26-3.33c15.88,12.12,28.99,30.14,28.39,47.84-.45,13.27-7.36,23.19-17.56,24.84l-68.61-16.62c-23.81-5.67-28.28-4.67-28.39-1.4-.11,3.14,3.26,9.26,13.86,21.05l-11.4,3.33c-15.74-12.11-28.88-29.13-28.21-48.97.57-16.84,10.58-25.51,25.18-21.87"/><path class="cls-4" d="m2410.05,1460.43c.43-2.97-2.27-9.14-9.61-19.16l11.56-2.06c13.94,11.28,25.44,33.32,22.89,50.7-1.35,9.19-5.21,16.84-16.05,20.89-86.93-30.34-97.02-28.5-98.07-21.29-1.37,9.33,3.81,23.23,36.05,34.73,28.8,10.28,55.25,10.12,62.17,5.21,5.01,5.21,7.89,15.15,6.54,24.34-2.4,16.39-26.55,25.56-56.87,14.77-45.55-16.2-78.77-68.27-73.1-106.99,3.15-21.48,22.54-25.71,78.84-7.07,29.05,9.59,34.99,10.46,35.65,5.94"/><path class="cls-4" d="m2348.35,1634.45c-.52,14.09,4.92,25.4,14.15,30.05,7.66,3.91,15.66,1.26,17.62-5.76,2.19-7.85-3-21.15-28.62-33.49-.92-.41-1.98-.85-2.87-1.4l-.29,10.6Zm1.66-54.85c37.19,18.68,55.18,54.69,45.28,90.18-7.22,25.86-25.81,34.02-39.96,26.81-14.94-7.58-23.14-24.4-21.45-60.26l.77-18.17c-24.72-8.68-39.72-5.9-42.95,5.66-2.11,7.57.01,23.88,7.12,46.77l-11.74,2.21c-17.81-32.4-22.96-56.97-17.93-74.99,8.06-28.89,41.52-38.25,80.86-18.22"/><path class="cls-4" d="m2262.72,1834.83l56.59,17.79.26-.51-37.72-55.47-19.13,38.19Zm7.19-55.82c-13.46-19.68-19.46-26.84-24.06-30.42-4.98-3.77-9.33-3.39-15.85,7.72l-5.37,9.13-10.35-8.05,34.02-67.94,10.35,8.05-2.11,5.17c-3.07,7.73-3.4,14.43,12.94,39.55l88.25,135.41-13.37,26.69-143.83-41.36c-16.92-4.8-21.78-4.04-26.83,4.78l-2.3,3.96-10.35-8.05,42.66-85.19,10.34,8.06-5.37,13.6c-4.54,11.62-2.95,16.73,6.82,19.87l29.25,9.22,25.14-50.19Z"/><path class="cls-4" d="m2207.65,1915.3c28.48,32.44,28.31,73.45,8.65,101.19-12.88,18.18-28.7,23.95-37.26,14.04-5.1-5.89-6.47-16.31-2.45-25.19,20.97-4.4,28.18-8.39,30.49-11.65,4.38-6.18-.24-18.2-14.44-34.22-20.93-23.58-47.84-35.99-57.59-22.24-4.37,6.18-7.12,23.14-7.73,43.01l-11.68-1.8c-6.72-29.8-3.69-58.28,8.29-75.18,16.51-23.31,53.01-23.18,83.71,12.06"/><path class="cls-4" d="m2081.53,1966.33c10.41,18.76,14.66,26.22,28.28,44.4,26.68,35.49,36.87,44.45,40.98,39.88,2.48-2.77,2.88-10.47,2.6-21.28l10.77,4.68c4.39,19.49,2.85,41.73-8.99,54.9-7.64,8.5-15.19,10.93-23.08,9.03-8.86-10.45-18.34-25.11-25.2-36.08l-1.27.78c17.6,39.62,19.39,59.85,8.7,71.75-7.64,8.5-16.98,7.79-24.07-1.84-5.77-7.68-9.24-21.35-7.34-31.16,9.3-2.02,13.56-1.84,15.94-4.5,3.05-3.4,2.59-15.71-6.94-42.71-1.93-5.76-4.69-10.17-8.38-14.83-6.61-8.24-14.3-17.64-23.07-30.32-5.59-8.09-3.93-20.62,8.47-34.44,2.67-2.98,5.75-5.97,9.43-9l3.17.74Z"/><path class="cls-4" d="m1986.2,2149.77c19.55,30.71,35.34,42.33,45.15,33.8,8.4-7.32,5.73-30.18-10.97-56.75-19.54-30.71-35.34-42.33-46-33.04-7.54,6.57-4.87,29.43,11.82,55.99m68.89-50.52c21.03,36.99,14.27,74.89-12.77,98.43-29.84,25.98-67.69,19.92-90.72-20.44-21.24-37-14.37-74.8,12.67-98.34,29.94-26.07,67.69-19.92,90.82,20.35"/><path class="cls-4" d="m1861.36,2237.07c9.47,24,18.7,33.5,27.09,28.05,6.35-4.12,9.05-18.83,7-36.41-1.51-12.81-5.76-28.79-13.22-48.13-3-7.76-11.55-7.82-18.62-3.23-12.57,8.17-13.44,31.22-2.24,59.72m106.98,50.06c2,5.18,4.3,8.45,8.78,8.26l13-.44,3.42,8.68-45.55,43.4c-4.52-13.76-7.27-21.68-12.47-35.17l-3.26-8.44c-11.42-29.37-16.45-42.62-22.49-61.87l-1.63.38c3.59,28.33,1.73,51.17-17.55,63.7-19.76,12.84-42.38,2.15-57.89-36.65-19.94-50.08,1.75-94.83,30.49-113.5,12.69-8.25,30.99-14.18,45.96-17.09l59.19,148.75Z"/><path class="cls-4" d="m1743.41,2286.74c-2.35,17.88-1.63,34.2.83,51.61l.61,4.43c1.01,7.71,11.62,9.61,23.18,4.32,13.64-6.23,16.39-21.16,9.83-49.26-7.5-32.54-18.48-43.85-24.46-41.12-4.29,1.96-7.64,12.13-10,30.01m66.82-19.09c10.2,42.92-4.38,81.79-44.26,100.02-8.31,3.8-19.61,6.92-30.27,8.35-2.63.42-3.98.56-5.28,1.16-2.34,1.06-2.7,2.33-1.91,7.15l1.13,7.96-15.01,3.57c-1.82-15.66-3.6-28.82-6.85-43.83l-5.03-22.67c-8.04-37.16-14.69-51.71-20.15-49.22-3.25,1.49-5.97,6.18-13.69,22.28l-8.07-8.72c4.58-23.3,15.64-39.98,31.23-47.11,17.8-8.13,30-2.4,37.59,47.52l1.54-.4c.78-44.33,11.14-70.11,28.41-78.01,20.26-9.27,41.25,11.92,50.6,51.93"/><path class="cls-4" d="m1652.99,2296.57l7.05,86.75,17.43-5.51,1.72,14.44-10.33,5.21c-5.29,2.72-6.31,4.24-6.01,8.49l1.18,17c.85,11.72-4.16,20.49-15.19,23.98-12.25,3.88-20.97-2.36-22.06-15.79l-1.4-17.68-29.56,9.35-1.6-13.13c1.42-4.49,7.94-8.05,21.83-12.44l7.22-2.28-6.83-65.7c-2.05-19.28-4.4-25.28-9.03-23.81-6.81,2.15-16.23,15.01-24.08,26.18l-7.81-9.07c7.28-23.42,21.82-43.75,43.61-50.63,19.2-6.08,32.02.81,33.86,24.65"/><path class="cls-4" d="m1561.24,2476.46c.19,12.24-6.82,22.98-18.96,25.64-13.11,2.87-23.19-5.75-23.43-20.9-.17-12.1,6.74-22.67,18.74-25.3,13.96-3.05,23.35,7.17,23.65,20.56m-6.48-161.32l.81,62.55c.22,24.37,2.48,28.7,5.41,28.06,3.35-.73,8.95-7.22,17.12-18.66l6.01,10.09c-7.82,18.38-22.06,35.53-39.36,39.31-12.97,2.84-24.29-1.42-28.41-10.9l-.82-70.59c-.38-24.48-2.44-28.56-5.65-27.86-3.07.67-8.17,5.44-16.98,18.63l-6.04-10.23c7.85-18.24,21.11-35.17,40.51-39.42,16.47-3.6,27.33,3.97,27.41,19.01"/><path class="cls-4" d="m1481.15,2381.62c-5.18,42.85-35.86,70.07-69.64,73.92-22.14,2.52-36.99-5.42-35.31-18.41.99-7.73,7.84-15.7,17.14-18.63,17.26,12.7,25.04,15.4,29.01,14.95,7.52-.85,13.41-12.3,15.87-33.58,3.62-31.32-5.07-59.65-21.82-57.75-7.52.85-21.99,10.12-37.21,22.93l-6.45-9.9c17.72-24.88,40.97-41.62,61.55-43.96,28.38-3.24,52.63,24.05,46.84,70.42"/><path class="cls-4" d="m1367.85,2344.65c-1.31,7.59-6.23,11.96-13.6,15.5-13.57-17.35-24.33-20.75-32.34-20.62-8.71.14-14.06,5.23-15.23,11.96-1.18,6.45,1.48,12.12,19.22,22.54,24.37,14.32,32.43,26.76,28.87,45.39-3.55,18.91-26.65,38.86-58.65,39.37-19.57.32-34.15-9.16-31.92-21.77,1.45-7.88,7.75-15.42,16.01-17.26,11.92,12.8,22.6,19.49,30.59,19.36,5-.08,9.1-2.86,10.16-8.16,1.18-6.59-2.05-12.11-20.8-22.95-25.23-14.59-32.41-25.19-29.26-42.52,5.25-28.65,31.09-47.64,61.07-48.13,21.56-.35,38.61,11.09,35.87,27.27"/><path class="cls-4" d="m1119.96,2454.19c-3.53-1.25-6.83-2.16-10.03-2.89-25.2-5.8-44.56,1.91-47.95,16.66-2.24,9.75,4.9,17.54,15.62,20.01,19.49,4.48,37.12-12.27,41.45-31.07l.64-2.78.28.06Zm45.44,1.22c21.71,4.99,41.04-8.29,45.72-28.62,3.94-17.12-4.78-28.94-17.44-31.86-7.8-1.79-14.26-1.08-20.03-.21.15-1.29.23-2.3.49-3.4,3.01-13.09,16.66-18.3,29.19-15.42,17.26,3.97,34.86,22.38,28.43,50.36-7.11,30.9-37.98,49.15-69.31,41.94-13.78-3.17-24.07-10.67-29.91-20.36l-.17.11.13.03c-.35,1.53-.53,2.95-.85,4.35-7.72,33.55-34.36,53.79-62.2,47.39-19.35-4.46-27.13-18.41-23.86-32.61,5.03-21.85,34.82-33.46,63.77-26.8,3.9.89,7.59,2.04,11.19,3.6-.24-19.99-6.27-35.15-13.76-46.55-1.67-2.3-1.77-5.69-1.06-8.75.93-4.04,3.28-7.89,5.95-9.33,7.61,10.25,15.88,24.61,21.5,42.91,4.56,14.53,14.13,29.05,32.22,33.21m-164.44-182.2c29.93-13.48,75.97-14.91,110.64-6.93,49.27,11.34,71.75,43.62,63.99,77.31-5.92,25.75-29.45,40.71-52.14,35.49-8.35-1.93-14.85-10.6-16.5-18.74l1.33-1.31c.61-.73.91-1.4,1.39-1.58,3.91,5.3,7.06,8.8,13.04,10.18,11.97,2.75,26.17-4.83,30.33-22.92,6.69-29.09-14.88-56.33-56.78-65.97-23.52-5.41-59.17-9.07-93.68.13l-1.63-5.65Zm9.26,79.52c1.71-34.2-5.07-50.56-15.38-52.93-10.72-2.47-19.18,10.1-24.02,31.11-1.82,7.94-3.03,17.03-3.72,26.99-2.91-.08-5.76-.45-8.12-.99-16.57-3.81-25.92-18.57-21.82-36.38,6.76-29.37,55.89-40.35,90.13-32.47,42.87,9.86,78.29,65.5,70.03,101.41-5.16,22.42-27.66,38.05-51.19,32.63-28.4-6.53-38.35-25.68-35.92-69.38"/><path class="cls-4" d="m947.92,2246.95l-8.05,10.35-10.41-4.41c-8.17-3.45-12.26-1.34-18.14,6.26l-79.93,102.63c-5.88,7.6-6.13,11.63,1.28,15.97l9.26,5.43-8.05,10.35-96.44-48.24c-13.54-6.77-22.93-10.35-29.57-12.07l29.26-36.47,13.67,6.84-5.37,7.22c-7.73,10.35-6.39,15.33,18.27,27.66l22.49,11.24,37.44-48.02-32.06-16.04c-10.47-5.24-11.63-3.9-18.27,1.72l-5.81,4.92-12.52-6.27,32.14-41.25,12.52,6.26-3,6.32c-3.51,7.34-4.35,8.68,6.13,13.92l32.07,16.04,33.22-42.8c7.54-9.64,5.88-14.62-12.9-24.02-27.85-13.93-36.21-12.21-52.32.82l-11.49,9.26-15.33-7.66,41.78-41.07,130.17,65.11Z"/><path class="cls-4" d="m708.69,2170.68c-16.69,6.83-30.51,15.54-44.41,26.32l-3.54,2.73c-6.18,4.7-2.58,14.85,7.75,22.27,12.18,8.75,26.51,3.74,47.65-15.89,24.54-22.65,28.91-37.8,23.58-41.63-3.83-2.75-14.33-.62-31.02,6.21m49.71,48.55c-32.21,30.15-73.19,36.77-108.81,11.18-7.43-5.34-15.74-13.59-22.26-22.15-1.68-2.08-2.47-3.17-3.63-4.01-2.09-1.5-3.37-1.19-7.16,1.89l-6.36,4.93-10.54-11.27c12.69-9.35,23.24-17.42,34.66-27.69l17.19-15.61c28.28-25.41,37.61-38.4,32.74-41.9-2.9-2.08-8.33-2.11-26.13-.84l3.56-11.33c22.5-7.58,42.48-6.24,56.4,3.76,15.89,11.42,16.96,24.86-22.62,56.21l1.11,1.15c38.88-21.32,66.4-25.11,81.83-14.03,18.09,13,10.11,41.74-20,69.7"/><path class="cls-4" d="m666.43,2099.69c-6.21,4.56-12.79,4.28-20.55,1.72,2.27-21.91-3.12-31.83-8.98-37.28-6.37-5.95-13.74-5.99-19.27-1.96-5.32,3.83-7.34,9.75-1.8,29.57,7.61,27.22,4.78,41.77-10.71,52.72-15.68,11.16-46.16,9.48-69.55-12.35-14.31-13.35-18.23-30.3-7.87-37.82,6.5-4.67,16.27-5.72,23.5-1.32-.31,17.49,2.75,29.71,8.59,35.17,3.65,3.41,8.54,4.25,12.97,1.17,5.43-3.93,6.93-10.15.95-30.96-8.04-28.02-5.85-40.63,8.45-50.93,23.66-16.99,55.45-12.73,77.38,7.73,15.77,14.71,20.1,34.78,6.9,44.53"/><path class="cls-4" d="m578.06,2021.72l-76.58,41.36,12.06,13.74-12.53,7.38-8.93-7.37c-4.61-3.74-6.41-4.06-10.19-2.08l-15.09,7.92c-10.38,5.5-20.43,4.43-28.06-4.27-8.47-9.66-6.27-20.15,5.58-26.55l15.63-8.4-20.45-23.3,11.37-6.75c4.69-.51,10.56,4.02,20.18,14.98l4.99,5.69,57.39-32.69c16.82-9.63,21.38-14.19,18.17-17.84-4.71-5.37-20.27-8.81-33.66-11.51l5.16-10.8c24.37-2.76,48.83,2.38,63.91,19.56,13.28,15.13,12.13,29.63-8.94,40.91"/><path class="cls-4" d="m445.1,1938.63c-10.58-9.32-22.79-12.25-32.23-8.05-7.88,3.45-10.88,11.34-6.69,17.29,4.69,6.66,18.28,11.06,44.04-.98.9-.46,1.91-1,2.89-1.35l-8.02-6.92Zm41.43,35.98c-38,16.99-77.26,8.13-98.49-21.99-15.47-21.95-10.02-41.51,4.51-47.91,15.32-6.78,33.54-2.49,60.23,21.51l13.59,12.09c22.36-13.66,29.7-27.04,22.79-36.85-4.53-6.42-18.5-15.1-40.72-24.07l5.71-10.49c36.35,6.71,58.65,18.27,69.42,33.56,17.28,24.52,3.36,56.34-37.04,74.15"/><path class="cls-4" d="m475.83,1835.78c-21.17,3.51-29.62,4.99-51.32,11.71-42.4,13.21-54.26,19.8-51.33,25.19,1.77,3.26,8.9,6.23,19.17,9.6l-8.03,8.57c-19.83-2.42-40.25-11.34-48.68-26.91-5.44-10.05-5.19-17.98-.75-24.77,12.81-4.83,29.81-8.84,42.44-11.62l-.3-1.46c-43.23,3.26-62.89-1.84-70.5-15.91-5.44-10.05-1.63-18.61,9.82-22.05,9.17-2.86,23.21-1.52,31.81,3.56-1.22,9.44-2.82,13.39-1.12,16.53,2.18,4.02,13.93,7.72,42.57,7.81,6.08.12,11.15-1.01,16.78-2.91,9.98-3.46,21.42-7.54,36.31-11.54,9.51-2.55,20.75,3.22,29.59,19.55,1.9,3.52,3.69,7.42,5.31,11.91l-1.77,2.74Z"/><path class="cls-4" d="m422.07,1734.04c-21.45.48-30.03.76-52.46,4.35-43.83,7.09-56.5,11.93-54.37,17.69,1.29,3.49,7.93,7.43,17.62,12.21l-9.16,7.35c-19.29-5.2-38.25-16.91-44.39-33.52-3.97-10.72-3.14-20.01,2.21-26.1,13.47-2.7,29.68-2.92,42.48-4.16l-.1-1.49c-41.03-5.52-63.29-18.75-71.68-41.39-6.45-17.41,4.08-28.47,23.15-31.26l53.93-7.78c24.29-3.51,27.94-6.39,26.71-9.73-1.09-2.95-4.56-5.32-20.66-13.83l9.29-7.4c19.16,5.25,37.72,15.89,44.66,34.64,5.8,15.67-.13,27.62-15.06,29.64l-66.76,9.34c-14.04,2-17.19,4.99-15.61,9.28,2.58,6.97,20.2,15.06,40.86,20.66,7.11,1.94,11.54,1.97,17.46.69,11.85-2.56,25.4-5.44,43.9-7.73,9.77-1.18,20.08,6.12,26.53,23.53,1.39,3.75,2.61,7.87,3.58,12.53l-2.14,2.47Z"/><path class="cls-4" d="m363.18,1559.85l-13.1-.55-2.45-11.04c-1.93-8.66-6.02-10.77-15.63-11.14l-129.97-5.5c-9.6-.37-13.03,1.76-12.27,10.31l.96,10.7-13.1-.55-16.71-106.54c-2.35-14.96-4.88-24.68-7.33-31.09l46.68,2.66,2.37,15.1-9-.18c-12.91-.29-16.19,3.7-11.92,30.93l3.9,24.83,60.85,2.6-5.55-35.41c-1.82-11.57-3.58-11.73-12.01-13.88l-7.38-1.88-2.17-13.83,52.25,2.22,2.17,13.83-6.89,1.22c-8.02,1.4-9.59,1.5-7.78,13.08l5.56,35.42,54.13,2.21c12.23.54,15.32-3.7,12.07-24.44-4.83-30.77-11.09-36.58-31.04-42.12l-14.22-3.99-2.65-16.93,57.69,10.18,22.56,143.79Z"/><path class="cls-4" d="m208.85,1247.62c20.17,6.9,28.56,9.46,47.06,13.9,46.82,11.19,62.67,11.44,62.77,5.44.06-3.57-3.02-8.05-14.22-21.94l11.34-3.53c19.06,14.17,29.35,31.33,29.07,48.47-.31,18.7-13.28,25.93-55.22,13.39l-.59,1.42c39.23,20.92,54.97,36.75,54.58,60.88-.31,18.57-14.12,25.05-32.91,20.75l-53.08-12.29c-23.91-5.53-26.11-1.85-26.16.86-.05,3.14,2.04,6.32,12,17.77l-11.34,3.53c-15.95-11.83-29.39-29.05-29.09-47.33.22-13.43,5.36-21.91,14.54-24.76l75.85,18.09c13.8,3.22,17.83,1.57,17.9-3,.08-4.57-7.09-11.97-30.68-28.36-9.33-6.43-15.01-8.1-23.84-9.95-9.12-1.86-17.81-2.86-35.88-7.3-9.53-2.44-16.51-12.98-16.21-31.54.06-4,.42-8.27,1.21-12.98l2.88-1.52Z"/><path class="cls-4" d="m344.24,1236.46c-19.13-9.72-26.82-13.53-48.28-20.97-41.97-14.48-55.43-16.2-56.27-10.12-.51,3.68,3.47,10.29,9.75,19.09l-11.55,2.14c-14.54-13.69-25.7-32.98-23.27-50.52,1.57-11.32,6.48-17.56,14.08-20.4,13.19,3.7,29.26,10.55,41.07,15.8l.62-1.36c-36.76-22.98-49.57-38.75-47.37-54.59,1.57-11.32,9.72-15.96,20.98-11.94,9.08,3.14,19.6,12.53,23.52,21.72-6.58,6.87-10.21,9.11-10.7,12.65-.62,4.53,6.64,14.48,29.66,31.51,4.83,3.7,9.58,5.8,15.24,7.59,10.09,3.13,21.72,6.62,36.08,12.21,9.17,3.58,14.81,14.89,12.25,33.29-.55,3.96-1.42,8.17-2.77,12.73l-3.05,1.17Z"/><path class="cls-4" d="m320.64,1031.5c-33.36-14.56-52.96-15.37-56.33-2.82-2.88,10.76,12.11,28.23,40.78,40.94,33.37,14.56,52.97,15.38,56.62,1.72,2.58-9.66-12.4-27.13-41.08-39.84m-28.93,80.38c-38.1-18.93-53.66-54.15-44.38-88.78,10.24-38.22,45.02-54.34,86.66-33.71,38.28,18.83,53.7,54.02,44.42,88.65-10.28,38.35-45.02,54.33-86.7,33.85"/><path class="cls-4" d="m449,1052.13l-10.42-7.59,3.01-8.81c2.09-5.94,1.53-8.98-5.8-14l-108.23-74.47c.65,7.89,1.47,16.49,2.72,25.88l-12.71-2.98c-1.7-12.7-2.96-23.5-3.82-32.73l-44.01-29.63c-10.98-7.36-11.72-19.02-7.84-28.08,5.07-11.81,15.82-15.12,26.71-7.18l25.32,18.49c-4.02-20.69-4.42-33.14.83-45.35,9.64-22.44,34.39-24.7,65.93-2.93,48.73,33.84,53.47,83.6,47.66,97.11-6.82,15.88-24.52,14.03-30.52-3.47,5.65-4.1,10.32-7.38,12.46-12.37,1.91-4.46-7.64-18.05-31.37-34.46-27.33-18.89-44.04-21.25-50.63-5.9-1.86,4.33-2.37,8.78-2.1,15.73l122.38,82.42c10.85,7.31,13.7,6.82,18.12-3.1l5.37-12.14,10.53,7.32-33.6,78.22Z"/><path class="cls-4" d="m415.24,778.42c4.24-13.45,1.99-25.79-5.67-32.73-6.35-5.81-14.77-5.37-18.52.88-4.19,6.98-2.72,21.19,18.7,39.88.78.64,1.69,1.35,2.4,2.1l3.09-10.14Zm-16.15,52.44c-30.91-27.88-38.7-67.37-19.73-98.97,13.82-23.03,33.91-25.96,45.64-15.26,12.39,11.27,15.84,29.67,4.69,63.79l-5.56,17.32c21.53,14.92,36.74,16.22,42.91,5.93,4.05-6.73,6.32-23.03,5.55-46.98l11.9.98c8.57,35.96,7.03,61.02-2.61,77.07-15.43,25.72-50.17,25.86-82.8-3.88"/><path class="cls-4" d="m520.92,678.76c-5.95-17.02-13.93-31.28-23.96-45.71l-2.54-3.68c-4.37-6.43-14.7-3.35-22.64,6.57-9.37,11.7-5.12,26.27,13.39,48.41,21.34,25.69,36.23,30.84,40.34,25.71,2.95-3.68,1.36-14.27-4.58-31.3m-51.08,47.11c-28.43-33.74-32.9-75-5.49-109.23,5.71-7.13,14.4-15.01,23.28-21.07,2.16-1.56,3.3-2.3,4.19-3.41,1.61-2.01,1.36-3.3-1.52-7.25l-4.59-6.6,11.8-9.95c8.68,13.16,16.19,24.12,25.84,36.06l14.69,17.98c23.9,29.56,36.38,39.56,40.14,34.88,2.23-2.79,2.54-8.21,2.19-26.06l11.13,4.16c6.39,22.87,4.02,42.74-6.69,56.11-12.23,15.28-25.7,15.65-54.95-25.51l-1.2,1.05c19.25,39.93,21.61,67.62,9.73,82.45-13.92,17.39-42.2,7.92-68.56-23.61"/><path class="cls-4" d="m614.46,651.68c-8.53-19.69-12.02-27.53-23.8-46.95-23.08-37.93-32.35-47.84-36.88-43.7-2.74,2.51-3.89,10.14-4.67,20.92l-10.26-5.71c-2.46-19.82,1.24-41.8,14.31-53.76,8.43-7.71,17.35-10.45,25.02-7.78,7.57,11.46,13.89,26.39,19.85,37.78l1.35-.65c-10.35-40.09-6.49-65.7,11.32-81.99,13.69-12.53,27.9-6.95,37.68,9.66l27.53,47.02c12.41,21.18,16.45,23.48,19.09,21.07,2.31-2.12,3.21-6.23,5.02-24.35l10.36,5.82c2.36,19.71-.5,40.92-15.26,54.42-12.33,11.28-25.63,10.29-33.14-2.79l-33.81-58.31c-7.14-12.25-11.11-14.04-14.47-10.95-5.48,5.01-6.34,24.39-3.74,45.63.89,7.32,2.52,11.44,5.94,16.44,6.83,10.01,14.62,21.47,23.7,37.75,4.77,8.61,1.9,20.91-11.8,33.45-2.95,2.7-6.31,5.38-10.26,8.03l-3.09-1.05Z"/><path class="cls-4" d="m687.73,355.21c6.01-1.91,13.76-5.37,26.65-13.04l93.88-55.9c12.76-7.6,19.86-12.99,24.9-17.65l13.63,54.72-13.87,8.26-5.66-14.26c-5.66-14.25-8.96-15.61-24.55-6.32l-19.02,11.33,46.47,131.08c3.23,9.05,6.48,11.44,14.13,7.55l9.58-4.87,4.37,12.36-75.36,44.87-4.37-12.36,9.33-6.39c7.32-5.02,7.75-9.6,4.52-18.65l-46.47-131.09-19.64,11.69c-13.5,8.04-15.1,12.32-13.32,27.05l2.17,18.16-13.87,8.26-13.51-54.8Z"/><path class="cls-4" d="m850.77,273.5c-2.77-11.92,1.8-23.91,13.1-29.07,12.21-5.58,23.88.71,27.32,15.47,2.72,11.79-1.79,23.59-12.95,28.69-12.99,5.94-24.35-2.07-27.47-15.09m40.48,156.29l-14.04-60.95c-5.36-23.77-8.49-27.53-11.22-26.29-3.12,1.43-7.22,8.95-12.78,21.86l-8.01-8.59c3.75-19.62,14.04-39.39,30.14-46.76,12.08-5.52,24.04-3.76,30.07,4.63l15.74,68.81c5.56,23.84,8.43,27.39,11.42,26.03,2.86-1.31,6.83-7.04,12.65-21.8l8.06,8.71c-3.81,19.49-13.18,38.85-31.25,47.1-15.33,7.01-27.55,1.91-30.81-12.78"/><path class="cls-4" d="m967.64,413.86c1.36-21.41,1.82-29.98.18-52.64-3.29-44.28-7.03-57.32-12.95-55.69-3.58.99-8.08,7.26-13.68,16.51l-6.53-9.75c6.83-18.77,20.13-36.65,37.21-41.35,11.02-3.03,18.69-.99,24.3,4.86,2.08,13.5,2.21,29.02,2.33,41.88l1.53.17c7.78-41.7,18.93-59.88,40.83-65.9,16.8-4.62,29.61,5.33,29.3,23.05l-.42,23.23,1.53.17c9.07-40.27,23.3-61.22,45.33-67.28,18.18-5,28.01,6.51,29.16,25.75l3.12,54.4c1.41,24.5,4.09,28.36,7.13,27.52,3.44-.95,5.33-3.25,15.96-19.5l6.57,9.89c-6.87,18.63-19.21,36.25-38.35,41.52-16.8,4.62-27.64-2.47-28.38-17.52l-3.56-67.32c-.78-14.15-3.77-17.48-7.49-16.45-6.34,1.74-13.76,14.6-23.14,38.66-2.26,5.8-2.61,9.9-1.82,15.46,1.99,15.31,4.49,30.32,5.07,45.86.33,9.84-7.82,19.49-25.73,24.41-3.86,1.06-8.06,1.93-12.8,2.49l-2.28-2.33c1.43-21.73-.19-42.17-1.75-63.96-2.5-35.46-4.9-42.06-10.41-40.54-4.96,1.36-12.47,10.68-21.84,38.01-2.17,6.08-2.37,12.36-1.56,17.46,1.94,11.91,3.24,25.78,3.92,44.4.34,9.83-7.82,19.48-25.72,24.41-3.86,1.06-8.06,1.92-12.8,2.49l-2.27-2.34Z"/><path class="cls-4" d="m1234.98,274.45c13.35-4.53,21.98-13.66,23.03-23.94.92-8.55-4.41-15.08-11.67-14.41-8.11.75-18.69,10.34-21.09,38.68-.05,1.01-.09,2.15-.28,3.18l10-3.51Zm-51.84,18c4.19-41.41,31.43-71.05,68.13-74.45,26.74-2.48,40.99,11.98,39.3,27.77-1.75,16.66-14.55,30.33-48.66,41.52l-17.25,5.76c.7,26.19,8.65,39.22,20.6,38.11,7.82-.72,22.31-8.52,41.16-23.32l6.25,10.18c-23.93,28.18-45.05,41.76-63.68,43.49-29.87,2.77-50.53-25.16-45.85-69.06"/><path class="cls-4" d="m1376.69,613.57l-.19,3.83-4.35-.05c-5.32-.04-6.29,2.15-6.59,7.92l-1.04,20.86c-.67,13.25-.8,18.23-1.48,31.77-1,19.95-12.61,30.94-20.5,30.54-3.77-.19-6.28-2.72-6.1-6.21.07-1.43.51-3.41,1.47-4.16,1.93,1.47,4.81,2.24,6.99,2.35,3.77.19,7.01-1.48,7.54-12l3.19-63.66c.29-5.78-.46-8.05-5.76-8.54l-4.34-.39.2-3.83,30.97,1.55Z"/><path class="cls-4" d="m1407.67,667.42c-3.43-.23-11.23.47-14.96,1.24-2.3.48-3.49,2.3-3.77,4.63-.61,5.23,3.07,9.23,7.39,9.74,2.16.25,5.43-.17,9.68-2.44l1.66-13.17Zm-2,16.59c-7.78,4.44-11,5.34-14.18,4.97-8.29-.98-13.09-7.76-12.27-14.8.5-4.27,2.66-7.01,4.63-8.04,2.15-1.19,7.78-2.95,24.37-3.43l1.15-8.8c1.11-8.51-1.2-11.37-6.2-11.96-3.24-.38-6,.51-7.07,1.31-.76.6-.71,1.13-.51,4.37-2.3,1.46-5.51,2.29-7.61,2.05-2.1-.24-3.29-1.94-3.09-3.64.58-4.95,12.98-10.47,24.46-9.12,7.9.92,11.04,5.09,9.93,13.15l-3.27,23.47c-1.32,9.35.15,12,2.82,12.32,1.36.16,3.85-.41,5.18-.95l.64,3.42c-5.22,2.27-9.05,3.49-11.72,3.17-3.47-.4-6.15-3.14-6.96-7.44l-.29-.03Z"/><path class="cls-4" d="m1465.28,646.06c7.64,1.48,12.39,4.96,11.76,8.16-.4,2.08-2.69,3.97-4.97,4.34-4.32-3.58-7.78-6.75-12.84-7.73-8.43-1.63-16.09,5.45-18.32,16.96-2.65,13.71,5.34,22.13,14.27,23.86,3.82.74,11.14.24,15.33-.35l.13,2.94c-8.89,3.17-15.52,4.63-21.54,3.47-10.78-2.09-21.45-12.9-18.34-29.02,2.97-15.33,18.5-25.73,34.51-22.63"/><path class="cls-4" d="m1520.94,688.78c3.49-12.45-.67-24.37-9.87-26.94-8.76-2.45-17.48,4.49-20.84,16.51-3.48,12.45.7,24.26,9.85,26.81,8.76,2.45,17.53-4.48,20.86-16.38m-41.11-10.19c4.41-15.76,18.85-24.91,34.39-20.56,14.27,3.99,20.96,16.61,17.09,30.45-4.41,15.76-18.85,24.91-34.34,20.57-14.33-4-21.01-16.63-17.14-30.46"/><path class="cls-4" d="m1548.65,707.95c-2.9,7.65-1.24,11.04,5.77,13.69,10.17,3.85,20.09-2.18,24.65-14.22,3.87-10.22,1.2-19-8.75-22.77-3.37-1.27-8.27-1.59-12.55-.77l-9.12,24.08Zm-15.22,10.63c1.45-2.38,3.26-5.37,8.04-18l16.01-42.27c1.05-2.79,1.24-4.25.29-5.76l-3.23-5.39.62-1.66,17.68,1.13c-2.95,5.86-4.67,9.73-6.65,14.98l-4.62,12.2c-1.43,3.8-2.08,5.02-3.01,6.82l.14.11,1.97-.67c5.81-1.96,12.2-2.66,17.44-.67,10.6,4.01,15.29,15.7,10.08,29.45-5.61,14.82-21.54,22.8-40.21,15.73-3.91-1.48-8.03-3.53-11.93-5l-2.62-.99Z"/><path class="cls-4" d="m1624.16,758.05l14.03-59.78c1.63-6.9,1.54-10.91-3.17-13.6l-1.24-.71,1.87-3.28,25.29,14.44-1.87,3.28-4.34-2.08c-4.55-2.19-5.83-1.09-7.48,6.08l-9.89,42.25.1.06,42.47-38.74,3.63,2.07-10.9,57.42.1.06,19.27-18.51c7.47-7.2,12.61-12.64,14.2-15.42,1.59-2.79,1.12-4.83-2.4-7.1l-6.01-3.9,1.89-3.33,26.94,15.37-1.9,3.33-1.02-.52c-4.62-2.3-7.66-2.4-13.73,3.16l-46.06,42.16-3.63-2.07,10.75-56.58-.1-.06-43.15,38.09-3.63-2.07Z"/><path class="cls-4" d="m1736.3,744.65c2.08-2.94,5.71-3.59,8.7-1.47,3.03,2.16,3.58,5.72,1.46,8.7-2.29,3.21-5.77,3.76-8.8,1.6-2.98-2.12-3.55-5.76-1.36-8.84m-43.82,49.99l2.86,1.9c3.47,2.33,5.09,1.24,7.75-2.49l16.19-22.75c1.76-2.47,1.96-3.74,1.66-5.49l-.82-4.86.99-1.4,15.56,4.97c-4.35,4.84-6.95,8.19-10.27,12.85l-15.73,22.09c-2.65,3.73-3.16,5.62.18,8.13l2.73,2.08-2.09,2.94-21.11-15.03,2.09-2.94Z"/><path class="cls-4" d="m1725.97,803.53l3.4,2.72-.85,2.54c-2.33,6.85-1.05,11.76,3.33,15.26,4.29,3.43,9.78,2.98,12.85-.87,3.72-4.65,1.97-8.61-2.91-16.89-5.37-9.13-5.22-13.9-1.26-18.87,4.57-5.72,14.29-7.62,23.81-.02,3.93,3.14,5.92,5.97,8.06,7.69l-7.15,11.79-3.4-2.72,1.08-2.36c2.22-4.89,1.29-8.49-2.86-11.81-4.12-3.28-8.88-2.91-11.34.17-2.43,3.04-2.17,6.76,3.1,15.36,5.19,8.54,5.45,14.17.88,19.89-6.14,7.69-16,8.75-25.39,1.26-3.09-2.47-6.11-5.92-8.22-10.6l6.86-12.53Z"/><path class="cls-4" d="m1797.05,837.38c3.46-6.46,2.87-12.75-.71-16.04-3.92-3.6-10.79-3.23-17.05.87l17.76,15.17Zm4.23-18.03c6.69,6.16,6.97,14.81,3.51,22.04-1,2.19-1.51,3.59-1.06,4.7l-1.81,1.29c-9.25-7.34-17.5-14.78-25.93-22.84-.82.72-1.91,1.9-2.75,2.82-7.87,8.55-10.09,20.34-.99,28.71,2.86,2.63,9.28,5.97,13.12,7.71l-1.35,2.56c-9.19-1.92-15.52-4.09-20.06-8.27-8.59-7.9-11.46-22.19-.92-33.65,11.16-12.13,28.57-13.99,38.25-5.08"/></g><rect class="cls-4" x="1792.43" y="890.28" width="95.65" height="5.95" transform="translate(-138.87 1410.47) rotate(-40.54)"/><g class="cls-5"><path class="cls-4" d="m1921.13,926.43c.9,2.42,2.42,5.39,5.71,10.42l21.49,32.9c3.28,5.03,5.55,7.86,7.46,9.75l-19.33,5.87-2.41-3.68,6.27-2.53c5.69-2.28,6.04-3.19.93-11.34l-6.25-9.99-52.65,21.07c-6.23,2.49-7.15,3.71-4.58,8.05l2.11,3.54-3.47,1.38-15.73-24.1,3.47-1.38,2.4,3.35c3.01,4.19,4.97,4.27,11.03,1.82l52.66-21.07-5.39-7.82c-5.51-8.02-7.71-9.18-13.52-8.05l-7.11,1.36-2.41-3.68,19.34-5.87Z"/><path class="cls-4" d="m1861.59,1007.69c2.63-.79,4.23.69,5.31,1.6-.2,1.42.78,4.65,2.21,7.27,2.11,3.86,5.3,7.08,13.13,8.99,3.54.87,6.97.95,11.95-1.51,13.53-6.74,30.64-19.23,37.1-28.04.85-1.19.93-1.75.71-2.15-.5-.91-2.55-1.8-7.23-2.96l1.8-2.55c5.37.4,11.62,3.37,13.18,6.23.63,1.15.48,2.67-.65,4.65-4.42,8.03-23.88,23.49-40.53,30.84,13.36.59,26.84-1.37,38.91-7.32,5.11-2.47,8.12-4.83,10.12-7.62,2.08.1,4.2,1.49,5.25,3.39,2.38,4.37-1.78,8.8-11.02,11.7-35.75,11.19-74.67.71-82.39-13.39-2.33-4.26-1.12-8.13,2.12-9.12"/><path class="cls-4" d="m1953.5,1044.34l1.05,1.61c10.32,5.87,15.8,10.61,17.74,14.89,3.26,7.19-2.03,14.92-16.91,18.41-19.32,4.49-36.63-3.75-39.77-10.68-2.08-4.58,2.96-7.31,6.91-6.09-.09,3.12.22,5.06.93,6.62,1.87,4.12,10.55,6.65,23.86,3.57,14.96-3.45,18.77-8.63,16.5-13.64-1.28-2.81-3.72-5.29-10.23-9.94l-1.24-.94c-3.59-2.65-7.84-5.24-15.22-9.18l3.07-2.52c4.42,2.14,8.87,5.02,13.32,7.91m-69.06,7.31l1.52,2.95c1.64,3.21,3.33,3.89,8.35,2.75l56.43-13.14,1.36-.05,21.1-5.16c3-.73,5.5.08,6.52,2.32,1.22,2.71-.17,4.48-3.32,5.15l-16.47,3.44-1.1.62-61.67,14.33c-4.44,1.01-5.52,2.38-3.45,7.09l1.68,3.83-3.41.79-10.94-24.13,3.41-.79Z"/><path class="cls-4" d="m1961.37,1095.49l4.72,6.11c4.97,6.45,9.53,9.33,13.25,8.67,3.38-.59,5.11-3.81,4.05-6.64-1.8-4.83-10.09-9.85-21.87-8.2l-.16.06Zm-7.67-6.97c16.71-2.51,31.42,5.49,35.62,16.74,2.26,6.06-.83,11.67-7.26,12.6-6.5.91-12.51-4.06-19.46-13.68l-5.69-7.89c-12,2.52-18.65,7.45-16.75,12.54,1.12,3,7.98,9.42,12.04,12.3l-1.84,2.45c-7.87-3.59-16.63-10.52-18.61-15.82-3.28-8.79,6.8-16.95,21.94-19.25"/><path class="cls-4" d="m2003.16,1199.7c-.81-3.63-2.88-5.57-5.94-5.59-3.87-.01-6.19,2.73-5.97,6.08-2.5-.44-5.09-2.62-5.76-5.58-.97-4.35,1.68-7.47,6.52-7.61,8.26-.26,16.13,10.06,18.07,18.78,1.48,6.64-2.3,22.02-1.32,26.43.87,3.91,3.53,4.26,10.62-2.83,4.65,6.64,2.61,13.01-3.4,13.12-5.43.1-12.62-5.04-14.2-12.19-1.22-5.47,2.79-24.3,1.38-30.61m-18.33-50.95c12.78-.27,28.87,9.86,31.03,19.58.95,4.25-.59,12.62.11,15.74.36,1.62,5.83,4.04,10.2,3.95,3.9-.11,7.66-2.18,7.48-7.71,2.47.04,5.33,2.33,6.09,5.8,1.33,5.92-2.96,9.57-8.97,9.44-7.89-.18-21.58-8.2-50.17-38.65l.8-3.23c9.5,8.96,20.74,19.94,31.74,28.8l-3.4-1.59c-1.97-3.32-.92-10.99-1.71-15.56-.82-4.74-9.14-9.45-18.54-9.3-15.94.27-29.57,14.33-25.58,32.25,5.07,22.73,25.68,29.21,40.44,32.84l1.48,3.48c-17.22-2.02-44.28-10.35-50.16-36.77-4.81-21.55,8.67-38.68,29.15-39.09"/><path class="cls-4" d="m1978.02,1323.99l.56,4.62c.48,4.1,2.42,6.53,11.02,6.76l45.87,1.19v-.11s-49.24-27.95-49.24-27.95l-.17-3.6,47.3-13.6v-.11s-42.16-12.3-42.16-12.3c-12.71-3.7-14.75-2.01-14.85,4.41l-.05,3.78-3.69-.57-1.38-29.49,3.7.57.26,2.05c.9,6.95,3.55,9.81,15.28,13.27l43.84,12.97c5.57,1.63,6.5-.59,6.5-5.63v-4.93l3.69.57,1.02,21.94c-5.41.71-9.15,1.52-20.01,4.54l-26,7.22v.17s47.81,26.64,47.81,26.64l.98,21.08-3.69-.57-.61-5.87c-.51-4.73-1.89-6.04-6.24-6.13l-48.38-.9c-9.51-.18-9.97,1.04-9.98,6.94v2.4s-3.7-.57-3.7-.57l-1.36-29.38,3.69.57Z"/><path class="cls-4" d="m2003.93,1371.2l1.89,7.49c1.98,7.9,5,12.36,8.68,13.24,3.34.81,6.21-1.44,6.37-4.47.28-5.14-5.31-13.06-16.77-16.26h-.17Zm-4.25-9.45c16.33,4.37,26.62,17.59,25.97,29.59-.35,6.45-5.43,10.36-11.7,8.65-6.32-1.77-9.84-8.72-12.37-20.32l-2.07-9.51c-12.01-2.48-20.08-.62-20.37,4.81-.17,3.2,3.55,11.82,6.13,16.08l-2.66,1.52c-5.79-6.44-11.04-16.29-10.74-21.94.5-9.37,13.01-12.83,27.81-8.88"/><path class="cls-4" d="m1991.31,1428.77c7.22,5.4,11.9,7.66,16.4,9.44l1.7.67c2.69,1.09,5.44-2.49,6.13-7.99.98-7.84-6.16-14.78-17.79-18.65-11.46-3.8-20.53-4.07-21.04-.04-.4,3.24,6,10.15,14.59,16.58m8.93,15.3c-17.81-6.49-28.23-8.03-28.52-5.7-.15,1.19,1.79,4.15,4.01,6.67l-2.93,1.25c-3.8-3.76-7.54-9.31-6.83-15.04.51-4.09,7.59-4.41,25.03,1.8l.08-.22c-17.34-11.62-22.87-19.52-22.08-25.88.98-7.84,12.22-9.2,26.06-4.58,16.77,5.61,27.38,18.99,25.7,32.44-.34,2.79-1.33,6.47-2.19,8.32l13.15,4.58c3.47,1.24,4.59,1.09,5.63.18l4.52-3.93,1.29.34,2.21,17.8c-10.86-5.34-24.02-10.32-40.34-16.28l-4.79-1.75Z"/><path class="cls-4" d="m2030.74,1478.39c2.79,1.23,4.25,3.95,3.68,6.93-.67,3.54-3.84,5.21-7.5,3.93-3.16-1.13-4.84-3.95-4.22-7.21.67-3.49,4.17-5.38,8.04-3.65m-69.68-19.14c.69-3.65,3.51-4.98,7.24-3.46l31.61,12.94c6.16,2.51,7.79,2.53,8.03,1.24.24-1.24-.33-3.15-4.05-8.7l2.96-1.18c4.51,4.76,7.62,11.7,6.69,16.59-.4,2.08-1.63,4.58-3.82,4.8l-35.16-14.49c-6.2-2.58-7.71-2-7.93-.87-.27,1.4,1.14,4.41,4.05,8.69l-2.93,1.31c-4.76-4.99-7.55-12.04-6.71-16.77l.02-.11Z"/><path class="cls-4" d="m1974.17,1512.88c6.48,6.27,10.83,9.1,15.08,11.44l1.6.89c2.53,1.42,5.72-1.78,7.1-7.15,1.96-7.65-4.24-15.45-15.28-20.77-10.88-5.22-19.85-6.64-20.87-2.7-.82,3.16,4.66,10.83,12.37,18.3m7.08-25.71c15.92,7.7,24.75,22.32,21.37,35.45-.55,2.16-1.59,5.02-2.74,7.45-.52,1.1-.94,2.06-1.09,2.61-.27,1.05.03,1.72,1.87,3.08l2.08,1.54-2.1,3.6c-4.41-3.09-13.69-8.78-20.14-11.98l-4.04-1.98c-16.36-8.05-22.54-8.63-22.94-7.02-.3,1.16,1.24,4.34,3.13,7.12l-3.06.87c-3.29-4.21-6.31-10.19-4.86-15.78,1.03-3.99,6.83-3.56,24.6,4.97l.11-.21c-15.73-13.73-20.21-22.27-18.61-28.48,1.96-7.64,13.29-7.57,26.43-1.24"/><path class="cls-4" d="m1940.85,1549.19l10.68,21.6c5.67,11.39,9.45,17.01,15.05,19.18,4.65,1.79,9.49.22,11.7-5.55,1.94-5.02.11-9.83-5.33-16.22l2.02-2.53c8.72,6,12.41,15.52,8.91,24.6-3.21,8.33-10.7,13.29-19.25,10-5.6-2.17-9.62-6.23-16.76-24.44l-5.25-13.25-.22-.08-7.36,20.52c-2.15,6.04-1.25,7.37,1.24,9.5l3.34,2.63-1.67,4.33-15.05-9.18,16.12-41.8,1.82.7Z"/><path class="cls-4" d="m1925.3,1647.67c12.58,6.17,25.55,5.21,29.58-3.01,3.83-7.81-2.33-17.46-14.45-23.4-12.58-6.18-25.47-5.11-29.45,3.01-3.83,7.8,2.31,17.51,14.32,23.4m16.46-36.66c15.92,7.81,23.49,23.7,16.71,37.51-6.25,12.73-20.45,16.22-34.42,9.37-15.92-7.82-23.49-23.7-16.73-37.46,6.28-12.79,20.48-16.27,34.45-9.42"/><path class="cls-4" d="m1894.94,1652.11l6.8,23.11c3.62,12.19,6.38,18.39,11.52,21.48,4.27,2.57,9.3,1.86,12.48-3.44,2.77-4.61,1.8-9.66-2.45-16.89l2.42-2.15c7.56,7.41,9.55,17.42,4.54,25.76-4.6,7.64-12.83,11.24-20.67,6.52-5.15-3.09-8.4-7.78-12.3-26.95l-2.89-13.95-.2-.12-10.79,18.95c-3.16,5.58-2.5,7.04-.41,9.56l2.84,3.17-2.39,3.97-13.23-11.63,23.08-38.39,1.67,1Z"/><path class="cls-4" d="m1866.83,1698.22l4.87,23.59c2.6,12.45,4.83,18.85,9.71,22.36,4.04,2.91,9.11,2.61,12.72-2.4,3.14-4.37,2.59-9.49-1.06-17.05l2.59-1.94c6.92,8.01,8.08,18.15,2.4,26.05-5.21,7.24-13.72,10.14-21.15,4.79-4.88-3.51-7.73-8.45-10.03-27.88l-1.73-14.15-.18-.13-12.32,18c-3.61,5.3-3.07,6.81-1.2,9.5l2.56,3.39-2.7,3.76-12.23-12.68,26.17-36.36,1.58,1.13Z"/></g><rect class="cls-4" x="1818.92" y="1750.74" width="5.95" height="95.65" transform="translate(-735.76 1910.61) rotate(-47.14)"/><g class="cls-8"><path class="cls-4" d="m1782.64,1845.72c14.72,18.12,12.68,40.64-8.1,57.53-6.89,5.59-13.35,8.35-16.96,11.42l-13.69-12.39,3.56-2.89,2.47,1.68c8.55,5.81,16.44,2.64,23.19-2.85,15.19-12.34,14.61-28.75,1.76-44.56-11.91-14.66-28.07-19.21-44.06-6.22-9.9,8.05-10.22,11.1-6.5,15.68l7.36,9.06c3.5,4.31,4.54,4.49,9.39.48l10.46-8.72,3.28,4.04-24.86,20.21c-2.08-3.84-3.65-7.21-10.43-15.56l-8.56-10.52c3.78-5.88,9.54-12.4,17.49-18.86,19.76-16.05,40.03-14.98,54.21,2.47"/><path class="cls-4" d="m1693.91,1903.02l-12.9,8.19,16.63,12.01.1-.06-3.83-20.13Zm3.61-33.6l1.93,3.04-1.28,1.08c-2.6,2.2-3.16,6.01-1.89,13.67l7.99,46.97-3.48,2.21-41.46-29.46c-5.29-3.76-7.98-3.61-10.53-2.19l-1.66.91-1.93-3.04,22.08-14.01,1.93,3.05-3.99,3c-2.6,1.99-1.85,3.82.93,5.85l11,7.93,15.89-10.09c-1.54-8.31-2.49-12.25-3.74-14.23-1.44-2.27-3.35-2.61-7.25-.41l-3.03,1.73-1.93-3.05,20.43-12.97Z"/><path class="cls-4" d="m1634.12,1945.02c-2.25,1-4.55,2.03-6.73,3.18-2.96,1.61-6.73,7.02-2.93,14.59,3.64,7.27,8.57,6.78,19.01.91l-9.36-18.67Zm-9.77-19.49c-2.33-4.65-4-5.42-9.27-2.78-8.9,4.46-10.46,9.66-7.22,16.1,3.72,7.41,11.19,8.66,19.58,4.46,1.69-.84,3.1-1.61,4.58-2.49l-7.66-15.29Zm10.86-17.67l1.61,3.22-3.02,1.64c-3.68,1.98-3.47,3.91-1.43,8.01l16.82,33.56c2.05,4.09,3.48,5.42,7.27,3.65l3.12-1.43,1.61,3.22-23.89,11.97c-10.9,5.46-16.81,3.75-20.35-3.3-2.97-5.94-1.42-13.31,4.79-18.53l-.08-.15c-10.95,3.83-18.3,1.68-22.19-6.09-4.46-8.9-.4-17.66,14.69-25.22l21.03-10.54Z"/><path class="cls-4" d="m1579.7,1938.75l-3.16,1.35c-3.85,1.62-3.83,3.58-2.17,7.84l13.57,34.99c1.65,4.27,2.95,5.72,6.89,4.32l3.24-1.13,1.31,3.36-24.17,9.37-1.3-3.36,3.16-1.35c3.85-1.62,3.83-3.57,2.17-7.84l-13.22-34.08c-1.92-4.96-3.55-5.37-10.7-2.6-11.1,4.3-11.14,6.9-10.74,13.62l.13,2.4-4.16,1.61-2.91-16.05,40.76-15.8,1.3,3.36Z"/><path class="cls-4" d="m1524.73,1959.34l-3.27,1.06c-3.98,1.26-4.14,3.21-2.88,7.61l10.34,36.09c1.26,4.4,2.42,5.97,6.47,4.93l3.33-.84.99,3.47-31.46,9.01c-4.79,1.37-7.59,2.41-9.66,3.48l-3.77-13.8,4.29-1.22,1.12,3.9c1.13,3.96,2.05,4.23,8.21,2.47l12.98-3.72-5.53-19.3-12.43,3.56c-3.58,1.03-3.63,1.87-3,4.91l.43,2.14-3.91,1.12-4.7-16.4,3.91-1.12.76,2.04c1.07,2.91,1.57,3.6,5.14,2.58l12.43-3.56-4.86-16.94c-1.31-4.56-2.24-5.13-10.22-2.84-10.28,2.95-11.67,4.12-11.85,12.67l-.04,2.15-4.18,1.2-1.75-16.05,42.08-12.06.99,3.47Z"/><path class="cls-4" d="m1456.94,1977.08l-4.48.95c-4.08.88-4.42,2.81-3.58,7.31l7.85,42.13,6.92-1.29c7.59-1.42,8.94-2.01,9.31-7.84l.28-4.42,4.39-.82,1,16c-2.28-.04-5.13.26-10.03,1.17l-32.51,6.05c-4.9.91-7.67,1.66-9.78,2.52l-1.11-15.97,4.39-.82.78,4.22c1.09,5.85,1.84,5.77,9.37,4.36l7.82-1.45-7.84-42.13c-.84-4.49-1.85-6.17-5.98-5.52l-4.52.73-.66-3.54,27.73-5.16.66,3.54Z"/></g><rect class="cls-4" x="1370.4" y="1966.76" width="5.95" height="95.65" transform="translate(-144.26 106.32) rotate(-4.21)"/><g class="cls-7"><path class="cls-4" d="m1278.16,2058.27l.14-3.83h4.35c5.32-.04,6.27-2.24,6.48-8.01l.77-20.87c.49-13.26.56-18.24,1.06-31.79.75-19.95,12.21-31.09,20.1-30.8,3.77.14,6.31,2.64,6.18,6.13-.06,1.43-.47,3.42-1.42,4.18-1.95-1.45-4.85-2.18-7.02-2.26-3.77-.14-6.99,1.57-7.38,12.09l-2.37,63.69c-.22,5.78.56,8.04,5.87,8.47l4.34.33-.14,3.83-30.99-1.15Z"/><path class="cls-4" d="m1246.51,2004.83c3.44.18,11.23-.62,14.94-1.44,2.3-.51,3.46-2.35,3.7-4.68.55-5.23-3.19-9.19-7.51-9.64-2.16-.22-5.43.24-9.65,2.57l-1.49,13.19Zm1.79-16.61c7.72-4.55,10.93-5.48,14.11-5.15,8.31.87,13.19,7.59,12.46,14.64-.44,4.27-2.57,7.04-4.52,8.1-2.14,1.22-7.74,3.05-24.32,3.75l-1.03,8.8c-1,8.53,1.35,11.36,6.36,11.88,3.25.34,5.99-.59,7.05-1.4.75-.61.69-1.13.45-4.39,2.28-1.49,5.48-2.37,7.59-2.14,2.1.22,3.31,1.89,3.14,3.6-.52,4.95-12.84,10.63-24.34,9.44-7.91-.82-11.11-4.95-10.09-13.01l2.96-23.51c1.2-9.37-.31-11.99-2.98-12.27-1.37-.14-3.84.47-5.17,1.02l-.68-3.41c5.19-2.33,9-3.61,11.68-3.33,3.47.36,6.18,3.05,7.06,7.34l.29.03Z"/><path class="cls-4" d="m1189.17,2026.96c-7.66-1.38-12.45-4.79-11.87-8.01.37-2.08,2.63-4,4.92-4.41,4.37,3.52,7.87,6.65,12.94,7.56,8.45,1.52,16.02-5.67,18.1-17.21,2.47-13.74-5.63-22.06-14.58-23.67-3.83-.69-11.14-.08-15.33.55l-.17-2.93c8.85-3.3,15.47-4.84,21.49-3.76,10.81,1.95,21.62,12.61,18.72,28.77-2.77,15.38-18.16,25.98-34.21,23.09"/><path class="cls-4" d="m1132.95,1984.97c-3.32,12.5.99,24.36,10.23,26.81,8.79,2.34,17.41-4.72,20.62-16.77,3.32-12.5-1.02-24.25-10.19-26.69-8.79-2.33-17.47,4.71-20.65,16.65m41.24,9.66c-4.2,15.81-18.52,25.15-34.11,21.01-14.32-3.81-21.17-16.34-17.48-30.22,4.2-15.81,18.52-25.15,34.06-21.02,14.38,3.82,21.22,16.35,17.54,30.23"/><path class="cls-4" d="m1105.01,1966.18c2.79-7.69,1.1-11.05-5.95-13.61-10.22-3.71-20.06,2.45-24.46,14.54-3.74,10.27-.95,19.02,9.05,22.65,3.39,1.23,8.29,1.49,12.57.61l8.8-24.19Zm15.08-10.83c-1.42,2.4-3.19,5.42-7.8,18.11l-15.45,42.47c-1.01,2.8-1.18,4.26-.21,5.77l3.3,5.34-.61,1.66-17.69-.89c2.88-5.89,4.53-9.79,6.45-15.06l4.46-12.26c1.39-3.81,2.02-5.04,2.92-6.85l-.14-.11-1.96.69c-5.8,2.03-12.16,2.82-17.44.91-10.65-3.87-15.49-15.5-10.46-29.31,5.41-14.89,21.24-23.08,40-16.26,3.93,1.43,8.07,3.42,12,4.85l2.63.96Z"/><path class="cls-4" d="m1028.83,1917.07l-13.25,59.96c-1.55,6.92-1.41,10.93,3.35,13.56l1.25.69-1.83,3.31-25.48-14.11,1.83-3.3,4.37,2.03c4.57,2.14,5.85,1.01,7.4-6.17l9.34-42.38-.1-.05-41.96,39.28-3.65-2.02,10.16-57.56-.1-.06-19.02,18.77c-7.37,7.29-12.44,12.8-13.99,15.59-1.56,2.81-1.05,4.85,2.49,7.07l6.06,3.82-1.86,3.35-27.13-15.03,1.86-3.35,1.03.5c4.64,2.24,7.69,2.3,13.69-3.34l45.51-42.75,3.65,2.02-10.02,56.71.1.06,42.66-38.64,3.65,2.02Z"/><path class="cls-4" d="m960.06,1881.4l-2.89-1.86c-3.49-2.28-5.1-1.17-7.71,2.59l-15.9,22.95c-1.73,2.49-1.91,3.75-1.59,5.51l.88,4.86-.98,1.41-15.63-4.77c4.29-4.89,6.84-8.28,10.1-12.98l15.44-22.29c2.61-3.77,3.09-5.66-.28-8.13l-2.76-2.05,2.05-2.96,21.31,14.76-2.05,2.96Zm-43.16,50.56c-2.05,2.96-5.67,3.66-8.68,1.57-3.06-2.12-3.66-5.67-1.57-8.68,2.24-3.25,5.72-3.83,8.77-1.71,3.01,2.08,3.63,5.71,1.48,8.82"/><path class="cls-4" d="m926.41,1872.93l-3.43-2.67.82-2.55c2.24-6.88.89-11.77-3.53-15.21-4.34-3.37-9.82-2.85-12.84,1.03-3.65,4.7-1.86,8.63,3.13,16.86,5.5,9.06,5.39,13.84,1.5,18.85-4.49,5.78-14.19,7.81-23.81.33-3.97-3.09-5.99-5.9-8.16-7.58l6.99-11.88,3.43,2.67-1.05,2.37c-2.16,4.92-1.18,8.5,3.02,11.78,4.15,3.23,8.91,2.8,11.34-.32,2.38-3.07,2.08-6.78-3.3-15.33-5.3-8.47-5.64-14.1-1.14-19.87,6.04-7.77,15.88-8.96,25.37-1.58,3.11,2.42,6.19,5.83,8.36,10.49l-6.7,12.62Z"/><path class="cls-4" d="m854.91,1840.02c-3.37,6.5-2.7,12.79.92,16.03,3.97,3.55,10.83,3.09,17.04-1.1l-17.96-14.94Zm-3.99,18.09c-6.78-6.07-7.17-14.72-3.8-21.99.98-2.2,1.46-3.61.99-4.71l1.79-1.31c9.35,7.22,17.7,14.54,26.23,22.5.81-.73,1.88-1.93,2.72-2.86,7.75-8.65,9.82-20.47.61-28.71-2.9-2.6-9.36-5.85-13.22-7.54l1.31-2.59c9.21,1.8,15.57,3.89,20.17,8.01,8.7,7.78,11.74,22.05,1.36,33.64-10.99,12.27-28.38,14.36-38.18,5.58"/></g><rect class="cls-4" x="763.14" y="1781.75" width="95.66" height="5.95" transform="translate(-976.03 978.78) rotate(-41.29)"/><g class="cls-6"><path class="cls-4" d="m730.03,1753.11c-.93-2.41-2.5-5.35-5.85-10.33l-21.95-32.6c-3.35-4.99-5.65-7.78-7.59-9.65l19.25-6.13,2.46,3.65-6.24,2.62c-5.65,2.35-6,3.28-.77,11.35l6.39,9.9,52.36-21.8c6.2-2.58,7.09-3.81,4.47-8.12l-2.15-3.51,3.45-1.43,16.07,23.88-3.46,1.43-2.44-3.32c-3.06-4.14-5.03-4.2-11.05-1.66l-52.36,21.8,5.5,7.75c5.62,7.94,7.83,9.07,13.63,7.85l7.09-1.46,2.46,3.65-19.25,6.13Z"/><path class="cls-4" d="m788.42,1671.04c-2.62.82-4.23-.63-5.33-1.52.18-1.42-.85-4.65-2.31-7.24-2.17-3.84-5.4-7-13.25-8.81-3.55-.82-6.99-.85-11.93,1.68-13.44,6.93-30.37,19.65-36.71,28.55-.84,1.19-.91,1.76-.68,2.16.5.89,2.58,1.77,7.27,2.86l-1.77,2.58c-5.37-.32-11.67-3.2-13.27-6.04-.64-1.14-.52-2.66.59-4.67,4.3-8.08,23.54-23.81,40.09-31.39-13.37-.4-26.81,1.74-38.8,7.85-5.07,2.54-8.05,4.94-10.01,7.76-2.08-.08-4.22-1.43-5.29-3.32-2.45-4.34,1.65-8.82,10.85-11.85,35.59-11.69,74.65-1.75,82.55,12.25,2.39,4.23,1.23,8.11-2,9.14"/><path class="cls-4" d="m696.01,1635.66l-1.06-1.59c-10.4-5.72-15.95-10.39-17.95-14.63-3.36-7.15,1.82-14.96,16.65-18.64,19.26-4.76,36.67,3.23,39.91,10.12,2.14,4.56-2.86,7.35-6.83,6.18.05-3.12-.29-5.05-1.01-6.6-1.93-4.09-10.65-6.5-23.91-3.24-14.91,3.66-18.63,8.89-16.3,13.87,1.32,2.79,3.79,5.23,10.36,9.79l1.26.92c3.62,2.59,7.91,5.13,15.35,8.97l-3.03,2.56c-4.45-2.08-8.94-4.9-13.43-7.72m68.94-8.28l-1.57-2.93c-1.69-3.19-3.39-3.84-8.38-2.63l-56.22,13.93-1.36.06-21.01,5.46c-2.99.77-5.5,0-6.55-2.23-1.26-2.69.11-4.48,3.25-5.2l16.42-3.67,1.09-.64,61.45-15.19c4.42-1.07,5.48-2.45,3.34-7.13l-1.72-3.81,3.4-.84,11.27,23.96-3.4.84Z"/><path class="cls-4" d="m687.42,1584.65l-4.81-6.04c-5.06-6.38-9.66-9.19-13.38-8.49-3.37.64-5.06,3.88-3.96,6.7,1.87,4.8,10.23,9.71,21.99,7.89l.16-.06Zm7.77,6.86c-16.67,2.75-31.49-5.04-35.85-16.24-2.35-6.02.67-11.69,7.08-12.71,6.49-.99,12.57,3.88,19.65,13.4l5.8,7.81c11.97-2.7,18.55-7.71,16.58-12.78-1.16-2.99-8.11-9.31-12.21-12.13l1.8-2.49c7.92,3.49,16.78,10.29,18.83,15.57,3.4,8.74-6.56,17.05-21.67,19.55"/><path class="cls-4" d="m644.16,1481.02c.86,3.61,2.96,5.53,6.02,5.51,3.87-.04,6.15-2.81,5.88-6.16,2.51.41,5.13,2.54,5.83,5.5,1.03,4.34-1.57,7.49-6.4,7.7-8.26.37-16.28-9.84-18.34-18.52-1.57-6.62,2-22.06.95-26.46-.93-3.9-3.59-4.21-10.58,2.98-4.74-6.58-2.79-12.98,3.22-13.17,5.43-.17,12.69,4.86,14.38,11.99,1.29,5.45-2.45,24.34-.96,30.63m19.05,50.7c-12.78.45-29.01-9.45-31.31-19.14-1.01-4.23.41-12.62-.33-15.74-.38-1.61-5.88-3.95-10.25-3.8-3.9.17-7.63,2.29-7.38,7.82-2.47,0-5.36-2.26-6.18-5.71-1.4-5.9,2.83-9.61,8.84-9.57,7.9.06,21.7,7.91,50.71,37.94l-.76,3.24c-9.63-8.82-21.02-19.65-32.14-28.35l3.42,1.54c2.01,3.28,1.08,10.98,1.93,15.54.89,4.73,9.28,9.33,18.67,9.03,15.94-.49,29.38-14.75,25.12-32.62-5.38-22.65-26.09-28.85-40.9-32.27l-1.52-3.46c17.24,1.78,44.42,9.73,50.68,36.06,5.11,21.48-8.13,38.81-28.61,39.49"/><path class="cls-4" d="m667.57,1356.4l-.62-4.6c-.53-4.1-2.51-6.5-11.11-6.61l-45.9-.56v.11s49.63,27.27,49.63,27.27l.22,3.6-47.12,14.25v.11s42.33,11.72,42.33,11.72c12.76,3.53,14.78,1.8,14.8-4.62v-3.79l3.7.52,1.78,29.47-3.7-.52-.29-2.05c-.99-6.93-3.68-9.75-15.47-13.05l-44.02-12.37c-5.6-1.55-6.5.68-6.42,5.72l.06,4.93-3.7-.52-1.32-21.93c5.39-.78,9.13-1.64,19.94-4.81l25.91-7.59v-.17s-48.18-25.99-48.18-25.99l-1.28-21.08,3.7.52.69,5.86c.57,4.72,1.97,6.02,6.32,6.04l48.4.24c9.52.06,9.96-1.17,9.89-7.08l-.03-2.4,3.7.52,1.77,29.36-3.7-.52Z"/><path class="cls-4" d="m641.01,1309.59l-1.99-7.47c-2.09-7.87-5.18-12.29-8.87-13.12-3.35-.77-6.18,1.52-6.31,4.55-.2,5.14,5.49,12.99,17,16.03h.17Zm4.38,9.39c-16.38-4.14-26.85-17.22-26.37-29.22.26-6.46,5.29-10.44,11.58-8.82,6.34,1.68,9.96,8.59,12.65,20.15l2.2,9.47c12.04,2.31,20.08.34,20.3-5.09.13-3.2-3.71-11.77-6.35-16l2.64-1.56c5.87,6.36,11.27,16.14,11.04,21.8-.38,9.37-12.83,13-27.68,9.26"/><path class="cls-4" d="m652.82,1251.85c-7.3-5.3-12-7.49-16.54-9.2l-1.71-.65c-2.7-1.05-5.41,2.57-6.02,8.08-.87,7.85,6.38,14.69,18.05,18.4,11.51,3.63,20.59,3.78,21.04-.26.36-3.24-6.14-10.06-14.82-16.37m-9.14-15.17c17.9,6.24,28.34,7.62,28.6,5.29.13-1.19-1.85-4.12-4.11-6.61l2.91-1.29c3.85,3.7,7.68,9.19,7.04,14.94-.45,4.09-7.52,4.52-25.05-1.45l-.08.22c17.51,11.37,23.15,19.19,22.44,25.56-.87,7.85-12.09,9.37-25.99,4.95-16.85-5.37-27.64-18.6-26.15-32.07.31-2.79,1.24-6.48,2.07-8.35l-13.21-4.4c-3.49-1.19-4.61-1.03-5.63-.11l-4.48,4-1.29-.31-2.47-17.77c10.94,5.18,24.17,9.98,40.57,15.71l4.82,1.68Z"/><path class="cls-4" d="m682.63,1220.96c-.64,3.66-3.44,5.03-7.18,3.56l-31.79-12.5c-6.2-2.42-7.82-2.42-8.05-1.12-.22,1.24.38,3.14,4.18,8.63l-2.95,1.22c-4.58-4.69-7.78-11.59-6.92-16.49.37-2.08,1.56-4.61,3.75-4.86l35.36,13.99c6.24,2.49,7.75,1.88,7.94.76.24-1.41-1.2-4.39-4.18-8.63l2.91-1.35c4.83,4.92,7.72,11.93,6.94,16.67q0,.06-.02.11m-69.94-18.15c-2.81-1.19-4.31-3.9-3.79-6.88.62-3.55,3.77-5.27,7.45-4.04,3.18,1.08,4.9,3.88,4.32,7.15-.61,3.49-4.09,5.44-7.98,3.77"/><path class="cls-4" d="m668.78,1167.49c-6.57-6.18-10.96-8.95-15.24-11.22l-1.61-.86c-2.55-1.38-5.69,1.86-7,7.25-1.86,7.68,4.46,15.38,15.57,20.55,10.96,5.07,19.95,6.36,20.9,2.42.77-3.17-4.81-10.76-12.62-18.13m-6.72,25.81c-16.03-7.47-25.05-21.96-21.87-35.14.53-2.17,1.52-5.05,2.64-7.48.5-1.12.91-2.07,1.05-2.63.26-1.05-.05-1.71-1.91-3.05l-2.11-1.51,2.06-3.63c4.44,3.02,13.82,8.59,20.3,11.69l4.07,1.93c16.47,7.81,22.66,8.31,23.05,6.69.28-1.17-1.31-4.32-3.23-7.08l3.05-.91c3.35,4.16,6.45,10.09,5.08,15.71-.97,4-6.77,3.66-24.66-4.62l-.11.21c15.92,13.51,20.52,21.98,19.01,28.2-1.86,7.68-13.18,7.76-26.41,1.61"/><path class="cls-4" d="m701.58,1130.72l-10.98-21.45c-5.83-11.3-9.68-16.88-15.32-18.96-4.67-1.72-9.49-.09-11.63,5.71-1.86,5.05.03,9.84,5.57,16.15l-1.98,2.56c-8.81-5.88-12.63-15.35-9.26-24.47,3.09-8.37,10.51-13.44,19.1-10.26,5.64,2.08,9.71,6.09,17.1,24.19l5.44,13.18.21.08,7.08-20.62c2.06-6.08,1.14-7.39-1.38-9.48l-3.37-2.59,1.61-4.35,15.17,8.96-15.53,42.03-1.82-.68Z"/><path class="cls-4" d="m715.73,1032.01c-12.67-6-25.62-4.85-29.54,3.43-3.72,7.86,2.58,17.42,14.78,23.2,12.67,6,25.55,4.74,29.41-3.42,3.72-7.86-2.55-17.48-14.66-23.21m-15.94,36.89c-16.03-7.59-23.82-23.37-17.24-37.28,6.07-12.83,20.22-16.51,34.29-9.86,16.03,7.59,23.82,23.37,17.26,37.23-6.09,12.88-20.24,16.56-34.31,9.91"/><path class="cls-4" d="m746.02,1027.16l-7.12-23.01c-3.79-12.14-6.63-18.29-11.82-21.31-4.3-2.51-9.33-1.72-12.43,3.61-2.71,4.65-1.67,9.69,2.69,16.86l-2.39,2.18c-7.66-7.31-9.8-17.29-4.9-25.69,4.49-7.71,12.67-11.42,20.59-6.82,5.19,3.02,8.51,7.67,12.67,26.78l3.09,13.92.2.11,10.53-19.1c3.07-5.62,2.4-7.08.27-9.57l-2.88-3.13,2.33-4,13.39,11.44-22.54,38.72-1.68-.98Z"/><path class="cls-4" d="m773.49,980.63l-5.2-23.52c-2.78-12.41-5.1-18.78-10.03-22.22-4.08-2.85-9.15-2.49-12.69,2.58-3.08,4.41-2.46,9.52,1.29,17.03l-2.57,1.98c-7.03-7.92-8.33-18.04-2.77-26.02,5.11-7.31,13.57-10.33,21.08-5.09,4.92,3.44,7.85,8.35,10.43,27.73l1.93,14.12.19.13,12.06-18.17c3.53-5.35,2.97-6.85,1.06-9.51l-2.61-3.36,2.66-3.8,12.41,12.51-25.65,36.73-1.59-1.12Z"/></g><rect class="cls-4" x="814.04" y="831.85" width="5.95" height="95.66" transform="translate(-383.42 897.28) rotate(-47.96)"/><g class="cls-9"><path class="cls-4" d="m855.61,831.98c-14.98-17.91-13.24-40.46,7.31-57.64,6.8-5.69,13.23-8.53,16.81-11.66l13.85,12.21-3.51,2.93-2.49-1.64c-8.63-5.69-16.48-2.4-23.15,3.17-15.01,12.55-14.2,28.95-1.14,44.58,12.11,14.49,28.34,18.83,44.14,5.62,9.79-8.19,10.07-11.25,6.29-15.77l-7.48-8.95c-3.56-4.26-4.6-4.44-9.39-.36l-10.34,8.87-3.34-4,24.58-20.55c2.14,3.81,3.75,7.16,10.65,15.41l8.7,10.4c-3.7,5.93-9.37,12.53-17.23,19.1-19.54,16.33-39.82,15.53-54.24-1.72"/><path class="cls-4" d="m943.52,773.46l12.78-8.37-16.8-11.77-.1.06,4.11,20.08Zm-3.14,33.64l-1.98-3.02,1.26-1.1c2.58-2.23,3.09-6.05,1.7-13.69l-8.65-46.85,3.45-2.26,41.87,28.87c5.35,3.68,8.03,3.49,10.56,2.04l1.64-.94,1.97,3.02-21.87,14.32-1.98-3.02,3.95-3.06c2.58-2.03,1.8-3.84-1.01-5.83l-11.11-7.77-15.75,10.31c1.66,8.28,2.66,12.21,3.95,14.17,1.47,2.25,3.39,2.57,7.25.31l3.01-1.77,1.98,3.02-20.25,13.25Z"/><path class="cls-4" d="m1012.78,749.96c2.4,4.62,4.07,5.37,9.31,2.65,8.84-4.58,10.32-9.8,7-16.2-3.82-7.36-11.31-8.51-19.64-4.19-1.68.87-3.07,1.66-4.54,2.55l7.87,15.19Zm-10.03-19.35c2.24-1.03,4.53-2.09,6.68-3.27,2.95-1.66,6.62-7.11,2.73-14.63-3.74-7.21-8.68-6.65-19.03-.64l9.62,18.54Zm-.57,37.17l-1.66-3.2,2.99-1.68c3.66-2.02,3.42-3.97,1.31-8.03l-17.28-33.32c-2.1-4.06-3.56-5.37-7.32-3.55l-3.1,1.48-1.66-3.2,23.72-12.3c10.82-5.61,16.75-3.98,20.39,3.03,3.06,5.89,1.61,13.28-4.53,18.6l.08.15c10.9-3.97,18.27-1.93,22.27,5.79,4.58,8.84.65,17.65-14.34,25.42l-20.87,10.83Z"/><path class="cls-4" d="m1057.21,736.13l3.14-1.39c3.83-1.68,3.78-3.63,2.07-7.87l-14.06-34.8c-1.71-4.24-3.03-5.68-6.95-4.22l-3.23,1.18-1.35-3.34,24.03-9.72,1.35,3.35-3.14,1.39c-3.83,1.67-3.78,3.63-2.07,7.87l13.7,33.9c2,4.93,3.63,5.32,10.74,2.45,11.03-4.46,11.03-7.06,10.54-13.77l-.17-2.4,4.14-1.67,3.14,16.01-40.52,16.38-1.35-3.34Z"/><path class="cls-4" d="m1111.91,714.75l3.25-1.1c3.97-1.31,4.09-3.26,2.77-7.65l-10.84-35.93c-1.33-4.38-2.51-5.94-6.54-4.84l-3.32.89-1.04-3.45,31.33-9.46c4.77-1.43,7.55-2.51,9.61-3.61l3.97,13.75-4.27,1.29-1.17-3.89c-1.19-3.95-2.1-4.21-8.24-2.35l-12.93,3.9,5.8,19.22,12.38-3.74c3.56-1.07,3.6-1.93,2.93-4.95l-.47-2.13,3.89-1.17,4.93,16.32-3.89,1.17-.79-2.03c-1.11-2.89-1.62-3.57-5.18-2.5l-12.38,3.74,5.09,16.87c1.37,4.55,2.31,5.1,10.26,2.7,10.24-3.09,11.62-4.28,11.66-12.85v-2.15s4.17-1.26,4.17-1.26l1.97,16.01-41.9,12.65-1.04-3.45Z"/><path class="cls-4" d="m1179.43,696.07l4.46-1.01c4.07-.93,4.39-2.86,3.49-7.35l-8.43-42.01-6.9,1.38c-7.57,1.52-8.91,2.14-9.19,7.98l-.22,4.42-4.37.88-1.22-15.98c2.28,0,5.13-.33,10.01-1.31l32.42-6.51c4.88-.98,7.64-1.77,9.74-2.66l1.33,15.95-4.37.88-.84-4.21c-1.17-5.83-1.91-5.74-9.43-4.23l-7.8,1.57,8.43,42.01c.9,4.49,1.93,6.15,6.05,5.44l4.51-.79.71,3.53-27.66,5.55-.71-3.53Z"/></g><rect class="cls-4" x="1259.46" y="609.57" width="5.95" height="95.65" transform="translate(-52.65 112.91) rotate(-5.02)"/></g></svg>