<?xml version="1.0" encoding="utf-8"?>
<!-- Generator: Adobe Illustrator 27.5.0, SVG Export Plug-In . SVG Version: 6.00 Build 0)  -->
<svg version="1.1" id="Layer_1" xmlns="http://www.w3.org/2000/svg" xmlns:xlink="http://www.w3.org/1999/xlink" x="0px" y="0px"
	 viewBox="0 0 2672.5 2672.5" style="enable-background:new 0 0 2672.5 2672.5;" xml:space="preserve">
<style type="text/css">
	.st0{fill:url(#SVGID_1_);}
	.st1{fill:#D91B58;}
	.st2{fill:#D81B57;}
</style>
<g id="NotExported_x5F_Background">
</g>
<g id="Background_Big_Sticker">
	
		<radialGradient id="SVGID_1_" cx="1336.2" cy="1335.7" r="1247.1943" gradientTransform="matrix(1 0 0 -1 0 2672)" gradientUnits="userSpaceOnUse">
		<stop  offset="0.2775" style="stop-color:#FFFFFF"/>
		<stop  offset="0.8447" style="stop-color:#C7EAFB"/>
	</radialGradient>
	<circle class="st0" cx="1336.2" cy="1336.3" r="1247.2"/>
</g>
<g id="Big_Sticker">
	<path class="st1" d="M2000,758.7c32.8-27.9,114.4-46.7,175.9-39.8c23.9,2.5,42,11.9,50.2,23.6c8.5,12,6.5,29.5-11.9,42
		c30.2-6,49.7-10,73.1-16.8c-16.5-7.3-34.1-12.4-47.7-14.1c42-28.7,88.6-28.4,107.9-1.3c11.5,16.1,5.9,29.3-7.8,39.1
		c-34.6,24.6-172,54.1-240.6,55.4c20.4,11.3,46,14.7,71.1,10.9c-53.5,34.9-113.5,39.8-134.4,10.3c-7.5-10.6-4.1-21.8,5.5-30.7
		c10.3-9.4,26-18.5,46.2-25.1c-47.9,8.7-85.4,8.1-99.8-12.1C1979,788,1983,773.4,2000,758.7z M2186.3,787.3
		c-5.3-9.7-16.1-20.6-24.6-22.3c-13.5-2.3-56.8,4.2-103.4,22.9C2110.9,790.8,2163.9,789.2,2186.3,787.3z"/>
	<path class="st1" d="M2229.7,879.6c-13.8-7.3-27.1-10.7-49.9-14.6c58.3-25.3,107.9-22.1,120.3,3.7c9.1,19,1.1,38.2-31.8,54.1
		c-26.5,12.8-69,24.3-117,30.2c62.2,2.3,106.6-9.3,155.9-26.1c18.4,11.2,36.5,32.3,45.8,51.6c-119.7,22.6-206.4,20.1-294.1-26.4
		c8.3,24,21.8,41.3,41.5,54.2c-45.5,14-74.1,2.1-90.5-32c-10.8-22.3-16-50.6-16.7-67.5c32.2-1,59.1,5.5,89.2,18.6
		C2137.5,917.9,2189.7,901.2,2229.7,879.6z"/>
	<path class="st1" d="M2180.8,1099.7c37.7-10.2,96.6,6,145.6,24.5c-17.9-21.2-29-28.3-45.5-39.4c-35-5.4-84.1-3.3-119.9,1.1
		c-16.4-13.9-29.4-40.8-33.4-65.4c69.8-2.8,146.2,15.7,183.6,33.3c-18.3-17.7-26.3-26.4-60.9-40.1c68.8-11.3,112.8,7.8,121.9,41.4
		c6.3,23.1-15,32.9-56.2,27c47.4,14.2,71.5,32.4,76.9,52.3c5,18.2-4.3,30.8-23.3,36.3c-37.9,11.2-102.6-10.5-145.1-30.8
		c21.5,22.9,44.3,33.2,64.3,37.8c-62.1,13.8-120.7-5.2-131.3-44.1C2153,1117.7,2162.6,1104.7,2180.8,1099.7z"/>
	<path class="st1" d="M2210.9,1191.2c44.6-6.9,123.4,16.4,175.9,67c17.7,16.4,24.2,44.6,25.8,66.8c1,14.3-0.3,30.8-3,45.7
		c-66.6-11.3-115.5-29.2-160.9-58.4c11.5,20.3,31.7,36.5,55.1,46.2c-63.9,2.1-117.6-24.9-120.3-60.9c-1.8-25.2,30.2-30.8,74.3-16.7
		c-42.2-18.9-77.8-34-79.9-61.7C2176.9,1204.7,2188.8,1194.9,2210.9,1191.2z M2354.2,1310.8c0.3-14.4-3.2-27.1-9.6-33
		c-10.3-8.9-50.6-24.6-100.2-33.2C2288,1274.2,2343.1,1302.7,2354.2,1310.8z"/>
	<path class="st1" d="M2202.4,1518.7c36.9,6.2,84,42.7,119,80.3c-4.1-21.1-10-37.1-28.7-59.4c-41.9-24.6-70.3-32.8-106.2-42.7
		c-7.4-19.2-7.1-46-2.2-68.2c48.2,15.4,101.8,43.7,150,98.3c-5.4-29-18.9-49.7-33.1-63.6c-29.2-19-55.3-33.2-100.7-49.9
		c-8.1-17.6-7.1-51.1-1.6-71.1c48.3,17.1,111.4,64.5,153.6,115.1c-4.8-19.5-14.8-43.5-39.7-67.7c67.2,18.6,97.6,60.4,92.5,90.7
		c-4,24-26.5,23.2-55.1,5.6c26.9,22.4,45.9,48.7,41.8,73.1c-4.6,27.3-33.3,22.9-57,9.1c28.9,25.3,46.8,51.4,42.9,73.8
		c-2.9,17-14.8,24.8-30.8,23.4c-42.1-3.3-89.4-56.4-123.6-91.3c10.6,30.3,25.9,48.7,42.1,61.2c-62.1-13.5-107.3-56.1-101.1-92.6
		C2167.8,1524,2182,1515.2,2202.4,1518.7z"/>
	<path class="st1" d="M2185.1,1615.1c32.1,16.1,77,74.8,96.6,112.7c0.1-22.4-5.8-45.5-23.6-71.7c61.8,32.5,82.9,81.7,69.7,115.8
		c-6.9,18-18.9,24.2-37.6,17c-38.4-14.8-79.8-73.2-102.7-117.7c-0.2,26.1,13.6,55.8,30.4,74c-66.1-34.2-92.5-81.3-79.1-115.8
		C2145.8,1610.7,2162.1,1603.5,2185.1,1615.1z M2385.4,1779.1c0.9,8.1-0.5,23.3-4,32.7c-6.5,16.9-14.6,20.5-25.1,16
		c-10.4-4.5-21.1-14.1-29-21.6c10.1-14.6,18.6-38.8,19.5-57.4C2356.3,1755.2,2373.1,1767.6,2385.4,1779.1z"/>
	<path class="st1" d="M2160,1722.4c28.3,15.9,65.6,60,70.4,123.5c6.2-18.7,7.5-39.2,3.5-56.9c46.1,42.3,40.8,89.5,23.6,120.3
		c-17.7,31.5-37.6,31.8-56.8,23c-28.2-12.5-47.7-52.4-36.5-97.2c12.2,16.1,24.5,31.1,43.1,50.2c2.3-2.5,5-5.4,7.2-8.5
		c-15.3-33.7-37.6-66.9-74.2-96.2c-11.1,30.9-8.8,62.1-0.9,92.6c-57.1-45.1-66.6-102.1-47.6-135.8
		C2107.1,1710.1,2132.5,1707,2160,1722.4z"/>
	<path class="st1" d="M2073.9,1872.6c24.7,20.9,53,71.4,45.7,134.6c9.6-17.2,14.8-37,14.3-55.1c37.3,50.3,23.1,95.6,0.3,122.5
		c-23.4,27.6-43,24.1-60.2,11.8c-25.3-17.6-36.9-60.5-17.4-102.3c8.9,18,18.1,35.2,32.8,57.6c2.8-2.1,5.9-4.3,8.6-6.9
		c-8.6-36-24.2-72.9-54.6-108.5c-16.7,28.3-20.5,59.2-18.4,90.7c-47.5-55.1-46-112.8-21-142.3
		C2024.4,1850.4,2049.8,1852.2,2073.9,1872.6z"/>
	<path class="st1" d="M2008.8,2112.8c8.4-21.7,12.5-35.7,10-69.6c39.8,57.3,40,106.5,17.7,125.6c-14.4,12.3-31.7,6.3-48.5-32.6
		c11.9,51.3,3.3,71.4-6.9,80.3c-11.8,10.1-26.2,3.1-38.7-17.2c-22.6-36.5-29.7-89.8-8.8-137.2c7.2,26.5,15.8,48,29.4,72.9
		c7-34.4,2.6-62.7-49.2-142.9c7.8-20,22-38.3,43.2-54.9C1985.1,1985.2,2004.7,2060.4,2008.8,2112.8z"/>
	<path class="st1" d="M1878.1,2055.7c26.8,36.3,42.4,117,21.9,186.9c-6.5,23.2-28.4,42.2-47.3,53.8c-12.2,7.5-27.4,13.9-42,18.4
		c-20.7-64.2-27.4-115.9-22.5-169.7c-12.6,19.6-17.7,45-15.5,70.2c-31.4-55.8-32.3-115.9-1.6-134.8c21.5-13.2,41.3,12.6,49.1,58.1
		c-2.7-46.2-5.8-84.8,17.8-99.3C1850.5,2031.6,1864.7,2037.7,1878.1,2055.7z M1838.4,2238.1c12.9-6.4,22.6-15.4,24.9-23.8
		c3.2-13.3-1.6-56.2-16.8-104.2C1840.2,2162.4,1840.5,2224.5,1838.4,2238.1z"/>
	<path class="st1" d="M1737.7,2145.3c5.9,15.3,6.8,31.2,2.8,49c-7.6,35-31.9,65.2-66.5,124.7l-1.8,3.4
		c49.4-17.9,59.2-36.6,68.9-85.9c26.4,63.2,15.7,106.2-13.9,117.3c-20.9,7.7-43.4,5.6-69.2,3c-2.3,10.3-2.9,19.2-2.7,27.7
		c-24-14.1-33.2-42.5-30.1-68.1c4-33.6,46.7-92.1,71.2-139.1c-49.8,17.1-59.6,40.4-68.8,86.3c-27.4-64.7-18.2-107,13.9-119.5
		c17.7-6.9,39.9-5.2,68.3-1.8c2.8-10.1,3.3-19.3,3.1-26.9C1722.8,2122.2,1733.2,2133.6,1737.7,2145.3z"/>
	<path class="st1" d="M1583,2330.8c10.3-11.7,16.8-23.8,25.9-45.2c11,62.5-3.7,110-31.6,116c-20.6,4.4-37.4-7.8-45.2-43.6
		c-6.2-28.7-7.6-72.8-2.1-120.8c-16.7,60-15.8,105.8-11,157.6c-15.2,15.3-39.9,28-60.9,32.6c5.9-121.7,28.6-205.3,94.2-279.8
		c-25.3,2.4-45.3,11.5-62.3,27.7c-3-47.5,15.2-72.6,52.2-80.6c24.2-5.3,53-3.8,69.6-0.5c-6.5,31.5-19.2,56.2-38.9,82.4
		C1567.3,2232.3,1571.3,2286.8,1583,2330.8z"/>
	<path class="st1" d="M1348.3,2485.7c-7,4-21.6,8.6-31.6,9c-18,0.6-24.6-5.5-24.5-16.9c0.1-11.4,4.7-25,8.5-35.2
		c17.4,3.7,43,2.1,60.5-4.4C1358.9,2449.6,1354.1,2469.9,1348.3,2485.7z M1421.3,2237.4c-2.3,35.8-39,100-66.1,132.9
		c20.7-8.6,39.6-23.1,56.9-49.8c-5.8,69.6-42.9,108.2-79.4,109.3c-19.3,0.6-29.7-7.9-30.3-28.1c-1.3-41.2,36.3-102.1,68.3-140.5
		c-24,10-46,34.3-56.2,56.8c5.6-74.2,38.9-116.9,75.8-118C1410,2199.5,1423,2211.7,1421.3,2237.4z"/>
	<path class="st1" d="M1312.6,2256.4c-7.3,29.3-32.6,73.8-59.6,106.4c10.4,1.4,20.8,2.3,31,2.4c-8.9,23.3-20.2,44.6-31,52
		c-6.7,4-12.7,4.7-21,3.6c-14.8,14.6-29.9,35.2-42.4,53c-10.2-17.4-12.2-41.7-6.2-60.9c-10.8-1.4-21-1.1-35.6,1.8
		c9.5-43.5,22.1-61.3,55.2-59.1c15.2-37,38.3-72.5,61.1-95.3c-26.4,6.9-50.5,25.7-69.8,47.1c14.4-82.2,56.6-110,90.5-106.9
		C1307.8,2202.8,1321.5,2220.1,1312.6,2256.4z"/>
	<path class="st1" d="M1202.3,2231.8c-7.6,44.5-54.9,111.7-119.6,145.3c-21.2,11.5-50,8.7-71.6,3.2c-13.8-3.6-29.1-10.1-42.3-17.5
		c31.9-59.5,64.5-100.1,106.7-133.9c-22.9,4.5-44.7,18.4-61.4,37.6c18.4-61.2,61.1-103.6,96.1-94.5c24.4,6.3,19.5,38.5-7.9,75.7
		c31.4-34,57.1-62.9,83.9-56C1200.4,2195.3,1205.9,2209.7,1202.3,2231.8z M1043.3,2329.6c13.5,4.8,26.8,5.6,34.4,1.5
		c11.7-6.9,39.4-40.2,63.5-84.3C1099,2278.5,1054.4,2321.6,1043.3,2329.6z"/>
	<path class="st1" d="M862,2361.2c20.8-1.6,36.1-6.4,54.4-16.9c-25.5,50.8-63.2,75.8-96.8,61.3c-15.9-6.8-21.3-19.7-14.2-36.2
		c14.6-34,106.4-118.5,178.9-173.3c-30.8,1.4-51.5,13.5-68.1,27.4c27.5-57.7,76.1-93,112.1-77.6c16.6,7.1,21,21.4,12.9,40.3
		C1023.8,2226.3,930.3,2309.6,862,2361.2z"/>
	<path class="st1" d="M760.1,2330.7c-8.1-0.2-23-3.8-31.7-8.6c-15.8-8.8-18.2-17.5-12.3-27.1c5.9-9.7,16.9-19,25.5-25.7
		c13,12.1,35.8,23.9,54,27.4C787.8,2305.2,773.3,2320.1,760.1,2330.7z M950.8,2155.7c-20.4,29.5-85,65.6-125.2,79.7
		c22.3,3.3,45.9,0.7,74.4-13.2c-40.9,56.6-92.6,70.5-124.4,52.6c-16.9-9.5-21.3-22.1-11.5-39.7c20.2-36,83.8-68.6,131.1-85.1
		c-25.8-3.8-57.1,5.5-77.6,19.6c43.2-60.7,93.6-80.1,125.8-62C960.7,2117.3,965.5,2134.5,950.8,2155.7z"/>
	<path class="st1" d="M853.1,2118.6c-19.5,25.8-68.3,56.9-131.8,53.1c17.7,8.6,37.7,12.8,55.9,11.1c-48.2,40-94.2,28.4-122.3,7.1
		c-28.8-21.8-26.5-41.6-15.2-59.4c16.1-26.3,58.3-40.3,101.2-23.1c-17.6,10-34.1,20.1-55.6,36c2.2,2.7,4.7,5.6,7.4,8.3
		c35.4-10.6,71.4-28.3,105.2-60.6c-29.1-15.1-60.3-17.1-91.5-13.3c52.4-50.5,110-52.2,140.9-28.9
		C872.4,2067.9,872,2093.4,853.1,2118.6z"/>
	<path class="st1" d="M749.6,2031c-13.8,13.5-29.9,19.2-57.6,25.2c18.7-25.9,17.2-45-11.6-74.5c-6.4,35.6-7.6,88.4-43.8,113.3
		c-28.2,19.2-64.7,19.7-92.7-8.8c-22.9-23.5-18.5-48.9-0.4-66.6c12-11.7,29.1-20.2,48.4-23.8c-14.8,23.9-17.2,47.3,12.5,78.3
		c6.3-54.4,8.3-98.6,45.7-122.2c27.2-17.2,66.8-15.9,96.7,14.8C771.5,1992,765.8,2015.2,749.6,2031z"/>
	<path class="st1" d="M678.6,1904.2c8.7,13.4-4.7,29.7-23.9,37.1c-25.3,10-44.2,3.9-53.8-8.4c-11.8-15.3-4.6-36.8,26.9-51.1
		c52.8-23.8,96.5-9.9,114.5,11.4C722,1893.6,700,1896.1,678.6,1904.2z"/>
	<path class="st1" d="M590.9,1853.6c-16.9,9.4-34,10.7-62.2,9.2c24.9-20.1,28.4-38.9,8.3-74.9c-15.5,32.7-30.5,83.4-72,97.9
		c-32.2,11.3-67.6,2.1-87.1-32.8c-16-28.6-5-52.1,17.1-64.4c14.6-8.2,33.3-11.8,53-10.3c-20.6,19.2-29,41.2-8.5,78.9
		c20.3-50.8,33.8-92.9,76.1-106c30.8-9.5,68.6,2.2,89.5,39.6C622.3,1821.7,610.8,1842.5,590.9,1853.6z"/>
	<path class="st1" d="M648.9,1744.1c-25.8,3.8-48.5-1.1-61.4-12.2c-85.1-1.2-164.4-6.2-205-12.9c17.3,13.5,30.6,19.9,59.8,29.3
		c-67.8,16.3-112.3,2.6-122-24.8c-8.1-23,13.3-38.1,58.1-36.1c-51.1-8.3-78-20.2-85.3-41.2c-5.9-16.6,1.7-30.5,24.1-40.2
		c43.8-18.6,121-14.6,179.4,10.7c24.8,10.9,36.1,22.9,40.5,35.2c4.2,11.9-1.3,24.1-19.2,31.3c25.4,1.3,42.6,3.3,59.3,8.9
		c-6.1-17.5-16.7-29.8-31.5-42.4c52.7-15,74.5,0.5,89.3,42.1C641.2,1709.3,646.3,1731.6,648.9,1744.1z M464.3,1655
		c-13.5-6.9-56.5-10-105.5-6c38,18.2,75.2,28.7,122.1,32.8C477.5,1669.9,471.8,1658.5,464.3,1655z"/>
	<path class="st1" d="M213,1537.8c-5.1-6.3-11.8-20-13.7-29.9c-3.3-17.7,1.8-25.2,13-26.8c11.3-1.7,25.3,0.8,36.1,3.1
		c-0.9,17.7,4.5,42.7,13.5,59.1C250.3,1542.8,229.5,1541.2,213,1537.8z M469.5,1572.1c-35.8,3.2-104.8-23.3-141.4-45.2
		c11.7,19.2,28.8,35.7,57.8,48.7c-69.7,4.8-113.4-25.9-120.1-61.9c-3.6-19,3.3-30.5,23.1-34.3c40.5-7.5,106.4,20.4,149.3,46.2
		c-13.5-22.3-40.8-40.3-64.8-46.9c74.2-5.6,121.4,20.7,128.2,57C505.3,1555.2,495.2,1570,469.5,1572.1z"/>
	<path class="st1" d="M219.1,1393.9c9.4,14.7,16.1,25.8,38.7,41.8c-56.8-1.1-95.6-24.4-97-59.2c-0.7-17.2,10.6-29.5,28.3-30.1
		c29-1.1,58.7,16.1,162.5,56.2c-30.1-26.9-56.2-39.8-84.8-48c-9.1-17.3-15.5-41.4-14-66.3c43.9,16.3,78.2,41,106.1,77
		c20.6-0.4,36.5-1.9,55.8-5.2c-13.9-11.6-35-24.2-55.6-34c83.7-10.9,122.1,21.6,123.2,50.2c0.7,17.2-12,26.6-37.6,29.3
		c-26,2.7-54.2,3-76,2.2c39.5,9.8,64.5,14.6,102.5,17.7c10.3,16,16.3,41.4,15.1,62.1C431.2,1480.4,279.1,1431,219.1,1393.9z"/>
	<path class="st1" d="M325.2,1262.8c7.7,13.6,17.1,23.7,34.2,39.2c-62.7-10.1-102.8-39.5-99.3-67.9c2.5-20.8,19.6-32.8,56-28.4
		c29.2,3.6,71.3,16.6,114.8,37.6c-51.2-35.4-94.8-49.6-145.3-62c-9.5-19.3-13.4-46.9-10.8-68.2c113,45.3,184.6,94.2,233.5,180.5
		c5.9-24.7,3.9-46.5-5.7-68c45.9,12.8,63.6,38.1,59.1,75.7c-3,24.6-13.8,51.3-22.3,65.9c-27.7-16.4-46.8-36.5-65.2-63.7
		C423.4,1280.2,370.5,1266.2,325.2,1262.8z"/>
	<path class="st1" d="M459.7,1145.2c-18.4-6-30.9-17.7-48.9-39.5c31.6,4.7,47.8-5.4,60.7-44.6c-34.6,10.8-82.1,34.1-120.7,13.3
		c-30.1-16.1-47.3-48.4-34.8-86.3c10.2-31.2,34.9-39,58.9-31.1c16,5.3,31.3,16.5,43.5,32c-28.1-2.2-49.9,6.6-63.7,47.1
		c51.1-19.4,91.4-38,129.6-15.8c27.8,16.2,44.9,51.9,31.5,92.7C504.4,1146.6,481.3,1152.4,459.7,1145.2z"/>
	<path class="st1" d="M344.4,836.3c0.1,20.5,3.8,36.1,12.2,54.5c-48.6-29.4-70.5-69-54.5-99.5c8.3-15.6,24.1-20.6,39.7-12.3
		c23.5,12.4,56,56.1,85,97.5c-21.9-42.4-26.5-69.6-17.3-87c8.6-16.3,24.7-18.9,42.9-9.2C486.2,798,518.8,857,536,900.3
		c0.1-30.8-9.6-54-21-71c54.7,32.2,84.9,86.1,66,121.8c-7.8,14.8-23.7,17.9-40.5,9.1c-34.6-18.2-68.3-66.9-89.6-117.5
		c-1.5,28.2,1.8,40.8,5.8,60.1c21.8,28.1,60,62.1,90.3,82.8c1.2,20.2-6.9,46.3-17.5,62.1C488.4,1017.2,393.6,914.9,344.4,836.3z"/>
	<path class="st1" d="M580.6,872.1c-37.6-25.1-79.6-95.7-84-168.4c-1.9-24,12.4-49.3,26.2-66.7c8.9-11.2,21.1-22.4,33.2-31.5
		c41.3,53.3,65.2,99.7,78.9,152c5.2-22.7,1.4-48.4-9.3-71.4c48.4,41.8,69.8,97.9,47.2,126.3c-15.7,19.7-43.1,2.2-65.9-38
		c18.3,42.5,34.3,77.7,17,99.5C614.7,885.4,599.3,884.4,580.6,872.1z M556,687.1c-9.9,10.4-16.1,22.2-15.4,30.8
		c1.5,13.6,20.6,52.4,51.2,92.3C579.9,758.9,558.7,700.6,556,687.1z"/>
	<path class="st1" d="M644.3,599.2c-8.1,21.9-11.8,36-8.7,69.8c-40.8-56.5-41.9-105.7-20-125.2c14.1-12.6,31.6-6.9,49.1,31.6
		c-12.9-51.1-4.6-71.4,5.4-80.4c11.6-10.3,26.1-3.6,39,16.5c23.3,36.1,31.3,89.3,11.3,137c-7.7-26.4-16.6-47.7-30.7-72.3
		c-6.4,34.5-1.5,62.7,51.7,142c-7.4,20.1-21.2,38.7-42.2,55.7C670.4,726.3,649.4,651.6,644.3,599.2z"/>
	<path class="st1" d="M798.7,768.8c-9.4-24.4-9.6-47.6-1.6-62.5c-17.7-83.3-30.2-161.8-32.8-202.9c-9.4,19.8-12.7,34.3-15.4,64.8
		c-30.9-62.5-27.3-108.9-2.7-124.4c20.7-13,40.1,4.6,48.1,48.7c-3.2-51.6,2.5-80.6,21.3-92.4c14.9-9.4,30.1-5.1,44.5,14.7
		c27.8,38.7,40.9,114.8,29.1,177.4c-5.2,26.6-14.4,40.3-25.4,47.2c-10.7,6.8-23.8,4-34.8-11.9c4.3,25.1,6.2,42.2,4.3,59.8
		c15.7-9.9,25.3-22.9,34.5-40c26.3,48.1,16.1,72.9-21.3,96.3C830.8,753.6,810.2,763.6,798.7,768.8z M844.8,569.1
		c3.7-14.7-2.8-57.4-17.4-104.2c-9.4,41.1-11.5,79.7-5,126.3C833.2,585.3,843,577.1,844.8,569.1z"/>
	<path class="st1" d="M946.7,529.2c-9.9-25.1-9.9-85.8,31.5-142.2c-17.2,9.3-32.7,23.4-41.9,40.1c-5.4-57.1,21.9-89.6,63-104.4
		c32-11.5,55.2-4.2,66,20.9c16.3,37.9-0.3,94.8-69.2,134.3c0.6,6.5,1.4,13.8,2.9,20.4c31.2-16.5,54.5-38.4,72.6-76.5
		c13.7,63-12.3,122.3-60.9,139.8C980.6,572.4,957.7,558.7,946.7,529.2z M1029.2,373.6c-6-0.6-12.5,0-19.2,1.5
		c-7.3,23.2-12.9,46.2-14.2,69.9C1014.8,419.4,1023.9,398.7,1029.2,373.6z"/>
	<path class="st1" d="M1170.9,481.5c-6.3-38.6,15.9-95.5,39.3-142.3c-23,15.7-31.1,25.9-43.9,41.2c-8.9,34.3-11.9,83.3-11.2,119.3
		c-15.5,14.8-43.6,25.1-68.4,26.6c4.3-69.7,30.5-143.8,52-179.3c-19.4,16.4-28.9,23.5-46.1,56.5c-4.1-69.6,19.2-111.3,53.7-117
		c23.7-3.8,31.1,18.3,21.1,58.8c19-45.7,39.6-67.8,59.9-71.2c18.7-3.1,30.1,7.4,33.8,26.9c7.2,38.9-20.9,100.9-45.4,141.2
		c25-19,37.6-40.7,44.2-60.1c7.3,63.1-17.5,119.5-57.3,126.1C1186,510.9,1174,500.1,1170.9,481.5z"/>
	<path class="st1" d="M1264.2,461.6c-2.4-43,31.8-119.3,74.5-164.2c16.5-17.6,34.8-26.3,49.2-25.8c14.7,0.5,27.4,12.6,26.3,34.8
		c13.4-27.8,22-45.6,30.7-68.4c-15.9,8.7-30.4,19.7-40,29.5c2.4-50.8,30.9-87.8,64-86.8c19.7,0.6,26.9,13.1,26.4,29.9
		c-1.3,42.4-60.7,169.7-101.1,225.2c21.3-9.5,39.5-27.8,51.5-50.1c-4.5,63.7-36.7,114.5-72.9,113.4c-13.1-0.4-19.9-9.9-21.1-22.9
		c-1.2-13.9,0.9-31.9,7.9-51.9c-22,43.5-45.2,73-69.9,72.3C1274.9,496.1,1265.6,484,1264.2,461.6z M1399.4,330.4
		c-10.9-1.6-26.1,0.5-32.6,6.2c-10,9.4-30.9,47.8-44.1,96.2C1356.7,392.6,1387.5,349.4,1399.4,330.4z"/>
	<path class="st1" d="M1439.3,464.2c9.9-34.5,59.4-89.4,93-115.6c-22.2,3.9-43.7,14.1-66.2,36.3c20.6-66.7,65.1-96.4,101-89.8
		c19,3.6,27.3,14.1,23.6,33.9c-7.6,40.5-57.4,91.9-96.9,122.5c25.6-4.6,52.3-23.6,67.1-43.5c-21.4,71.3-63,105.8-99.3,99.1
		C1442.2,503.7,1432.1,489,1439.3,464.2z M1563.8,237.4c7.7-2.4,22.9-3.8,32.9-2c17.7,3.3,22.8,10.7,20.3,21.8
		c-2.5,11.1-10,23.4-16,32.5c-16.1-7.3-41.5-11.2-60-8.6C1545.7,270.3,1554.8,251.5,1563.8,237.4z"/>
	<path class="st1" d="M1612,511.4c13.1-36.8,60.1-75.9,103.2-105.5c-27.7,2.6-39.8,7.7-58.4,14.8c-24.3,25.7-50.7,67.1-67.5,99.1
		c-20.7,5.5-50.2,0.8-72.8-9.9c37.6-59,96.3-111.2,132.2-131.8c-25,5-36.7,6.6-67.7,27.1c30-62.9,70.7-88.2,103.6-76.4
		c22.5,8.1,18.4,31.1-10,61.6c38.7-30.8,67.4-40.2,86.8-33.3c17.8,6.4,22.8,21.1,16.6,39.8c-12.5,37.5-67.1,78.2-108.1,101.6
		c31.1-4.5,52.6-17.4,67.8-31.2c-24.1,58.8-73.1,96.2-111.2,82.6C1611,544.5,1605.7,529.2,1612,511.4z"/>
	<path class="st1" d="M1640.8,601c7.7-14,24.6-19.7,42.4-17.6c-7.1-8.5-10.6-19.3-3.8-31c16.3-28,59-22.5,92.2-7
		c-19.5-20.7-17.2-48-5.4-68.3c13.1-22.5,39.9-49.2,75.5-54.3c23.9-3.6,42.1,4.6,67,20.2c18.3,11.2,34.2,21.4,58.8,28.4
		c-21.9,32.5-39.3,39.8-59.3,32.5c-3.3,18-12,33.9-27.2,48.4c-25.2,24.8-61.8,25.7-89.1,14.2c-14.7-4.7-30-4.4-39.7-0.3
		c10.7,3.3,22.8,8.4,30.4,12.9c23.2,13.5,32.4,34.5,18.9,57.7c-22.4,38.5-76.7,50.6-129.4,19.9C1640.4,638.3,1632,616.8,1640.8,601z
		 M1766.2,641.1c-10.2-16.7-46.2-31.8-67.3-44.7c-2.5-1.5-4.9-3.3-7.2-5.2C1690.8,619.5,1739.5,641.1,1766.2,641.1z M1875.9,485.1
		c-6.3-4.1-13.2-8.2-20.6-11.5c-20.5,10.9-42.1,32.9-56.3,52.3C1815.6,533.2,1843,517,1875.9,485.1z"/>
	<path class="st1" d="M1835.2,603.4c12.2-14.9,27.6-22.5,54.5-31.5c-15.7,27.9-12,46.6,19.8,72.7c2.3-36.1-2.3-88.8,30.9-117.5
		c25.8-22.3,62.2-26.9,93-1.6c25.3,20.7,23.8,46.6,7.9,66.1c-10.6,13.1-26.7,23.3-45.4,29.1c12.1-25.4,11.8-49-21.1-76.4
		c-0.2,54.6,2.8,98.9-31.8,126.6c-25.2,20.2-64.6,23.2-97.7-3.9C1817.8,644.6,1820.8,621,1835.2,603.4z"/>
	<path class="st1" d="M1921.9,725.6c-10.2-12.3,1.3-30,19.6-39.5c23.9-12.7,43.6-8.8,54.4,2.3c13.4,13.9,8.6,36.1-21,53.8
		c-49.8,29.6-94.8,20.6-115,1.5C1880,741,1901.5,735.9,1921.9,725.6z"/>
	<g>
		<path class="st2" d="M982.6,844.1c5.4-3.7,7.5-10.4,4.9-17.8c-2.8-8.1-9.3-11.2-15.3-7c-5,3.4-7,9.9-4.5,17.8
			C970.6,845.6,976.8,847.9,982.6,844.1 M921.6,947.6c4.4-3.6,10.6-12.6,11.9-19.2c-10.7-16.8-16.6-30.1-21.2-45.4
			c2-16.2,1.9-29.7,14.9-42.4c-4.2,37.3,4.6,66.4,14,76c4.9,4.8,9.9,5.7,15.1,1.2c11.4-9.8,11.3-30.8-2.3-52.4
			c-0.3,11.2-1.7,23.2-10.9,36.8c2.5-24.7,2.8-62.2-12.5-77c-4.7-4.6-11-5.7-15.9-1.5c-6.2,5.4-9.6,19.4-8.1,40.9
			c-4.5-17.8-12.8-22.8-19-17.5c-11.9,10.3-6.8,34.4,2.5,51c1.7-14.6,1.9-24.6,7.3-32C897.3,886.7,904.7,921.4,921.6,947.6
			 M875.5,971.6c-14.8-15-23.2-35.2-25.9-59.8c2.2-2.3,4.2-4.3,6.7-6.1c8.9,12.3,23.6,35.1,26.3,49.6
			C882.8,960.6,880.5,965.5,875.5,971.6 M889.1,986.3c6.9-8.1,8.5-19.2,6.8-34.7c-2-18.1-12.7-44.3-26.7-56.3
			c-13.7-11.8-25.3-7.1-32.3,1c-11.5,13.2-13,32.6-2.3,49.9c1.9-10.2,5.3-20.6,11-29.2c-6.7,23.9,0.8,52.9,15,67
			C870.2,993.6,881.5,995.1,889.1,986.3 M782.8,949.9c3.4-7.2,6.4-11.6,11-15.5c-2.5-3.4-5.1-6.8-8.2-9.1c-3.5-2.7-7-2.1-10.2,2.4
			c-1.9,2.7-3.7,6.4-4.4,9.2C773.8,941,778.1,945.4,782.8,949.9 M810.9,948.2c-6.6-4.6-13.5-4.6-17.5,0.9
			c-7.6,10.8-0.8,32.3,14.3,49.5c-4-14.3-4.6-25.2,0.9-36.9c1.5,18.1,13.6,56.4,29.7,69.6c7.1,5.7,13.4,5.7,17.7-0.5
			c6.5-9.1,6.3-31.1-15.6-55.6c3.9,16,4.1,28.6-0.8,43.9C838.3,997.7,826.6,959.2,810.9,948.2 M832.6,1069.2
			c7.8-13.1,1.8-34.6-21.2-51.7c6.4,16,8.9,29.5,2.4,43.9c-4.8-18.2-18.5-39.9-33.4-54.8c0.6-0.9,1.3-1.8,1.8-2.5
			c7.9-11.1,6.7-16.4-6.9-29.3c-2.4,6.9-5.4,12.3-8.4,17.3c-6.3-4.8-13.6-8.6-20.2-10.8c4.1,8.1,8.4,17.2,10.4,24.6
			c-0.8,1.4-2.8,5.4-2.7,8.8c0.3,5.9,3.1,11.3,10,19.1c1.9-4.6,5.7-11.1,9.5-17.2c5.8,20.7,22.8,48.3,35.2,56.8
			C819.4,1080.4,827.1,1078.3,832.6,1069.2 M805.8,1124.6c8.2-18.6-4.7-42.8-22.1-53.5c5.2,11.3,11.3,28,4.1,45
			c-20.2-8.2-34.5-30-42.4-49.1c1.1-2.5,2.5-4.9,4.1-7.1c9.6,6.9,15.6,12.7,23.1,22c1.2-17.7-4.8-32.1-19.2-38
			c-11-4.6-19.5,1.6-24.7,13.3c-6.3,14.2-4.1,31.9,12.3,47.2c-1.5-12-0.8-22,1.6-30.3c0.9,20.6,13.1,49.4,36,59.7
			C790.3,1138.8,800.8,1135.9,805.8,1124.6 M745.8,1170.9c-11.3-8.4-20.8-20.8-28.4-34.6c1.1-3.5,2.5-6.7,4-9.5
			C732.2,1135.3,740.8,1148.6,745.8,1170.9 M716.8,1173.5c-2.5-11-2.6-21.4-1.1-30.1c3.8,27.2,23.3,49.5,40.6,55.4
			c13.1,4.5,23.2,0.1,27.2-12.1c6.3-19.2-5.3-40.6-24.7-52.3c7.2,14.8,10,32.7,5.6,46.3c-4.8-1.3-9.3-3.4-13.5-6.2
			c7.4-33.9-8.8-60.2-27.8-64.5c-9.9-2.3-19,2.6-23.1,15.3C693.2,1146.6,703.1,1163.6,716.8,1173.5 M764.8,1272.6
			c1.4-7.3-0.2-16.8-2.8-24.2c-14.2-4.6-27.8-10.5-40.3-17.9c-10.9-10.4-16.9-19.8-21.6-30.3c13.5,5.9,23.5,11.5,33.6,18.7
			c-5.4-17.4-23.8-36.1-40-39.2c-7-1.3-11.5,0.8-12.5,6c-1.5,7.9,6.2,19.2,22.2,33.2c-18.5-12.1-26.5-10.6-27.9-2.9
			c-2.2,11.2,10.7,26.8,36,35.8c-8.7-9.9-15.5-18.4-16.1-28.9C710,1240.3,733.4,1261.2,764.8,1272.6 M658.1,1274.6
			c-0.8-8-0.3-13.2,1.7-19c-3.8-1.6-7.8-3.3-11.6-3.8c-4.3-0.6-7.1,1.8-7.6,7.2c-0.3,3.3,0.1,7.3,0.8,10.1
			C645.9,1271.5,651.9,1273.1,658.1,1274.6 M681.5,1259c-8-0.7-14,2.8-14.6,9.6c-1.1,13.1,15.5,28.4,37.3,35.6
			c-10.6-10.3-16.6-19.4-17.7-32.4c10.4,14.8,40.2,41.9,60.7,45.2c9,1.3,14.5-1.9,15.1-9.3c0.9-11.1-10.2-30-41.4-40.2
			c11.5,11.8,18,22.7,21.4,38.4C730.2,1288,700.7,1260.7,681.5,1259 M740.3,1375.5c-21-2-50.8-12.2-55.9-19.8
			c-3-4.5-2.5-11.8-0.3-22C707.4,1346.8,727.9,1362.4,740.3,1375.5 M761.4,1383.8c-0.1-7.3-8.3-16.7-36.1-31.5
			c15.8,4.9,21.1,5.5,26,4.8c5.8-0.7,9.7-4.1,9.6-9.5c-0.2-12.2-14.4-23.8-46-27.6c9.8,6.9,18.5,13.8,26.9,27.2
			c-20.3-13.8-86.5-46.1-106.6-46.2c-8.3-0.1-13.9,3.8-14.1,11.7c-0.3,10,14.6,21.8,38.1,22.7c-12.4-8.6-17.7-13.1-19.4-21.9
			c7.7,5.5,19.3,8.4,35.1,15.3c-6.9,1.7-11.6,6.8-11.5,14.3c0.1,6,3.1,13.3,10,20c19.8,18.8,57.6,33.8,77.6,31.1
			C758.2,1393.1,761.5,1388.9,761.4,1383.8 M754.2,1476.2c-21,1.7-52.1-3.2-58.4-9.9c-3.8-3.9-4.5-11.3-4-21.6
			C716.8,1453.6,739.7,1465.5,754.2,1476.2 M776.4,1480.7c-1.3-7.1-11-15-40.9-24.9c16.4,2.2,21.8,1.9,26.5,0.3
			c5.6-1.6,8.8-5.7,7.8-11c-2.3-12-18.2-20.9-50.1-19.2c10.8,5.1,20.6,10.4,31.2,22.3c-22.3-10.1-93.1-30.5-112.9-27.1
			c-8.1,1.3-13,6.2-11.9,14c1.5,10,18,19,41.5,15.9c-13.6-6.4-19.7-9.9-22.9-18.2c8.6,4.1,20.5,4.9,37.2,9c-6.5,2.9-10.3,8.6-8.9,16
			c1.1,5.9,5.4,12.6,13.2,17.9c22.7,15.1,62.6,23.4,81.7,17.2C774.9,1490.6,777.4,1485.8,776.4,1480.7 M753,1542.9
			c-14.1-0.3-29.1-4.8-43.4-11.5c-1.1-3.5-1.8-6.9-2.3-10C721.2,1522,736,1527.8,753,1542.9 M731.1,1562
			c-8.5-7.5-14.6-15.9-18.5-23.8c19,19.9,47.8,26.7,65.3,21.3c13.3-4,19-13.5,15-25.6c-6.1-19.3-27.9-29.9-50.5-28.1
			c14.6,7.9,27.3,20.7,31.5,34.3c-4.7,1.7-9.5,2.6-14.6,2.9c-13.8-31.9-42.2-43.8-60.2-36.1c-9.3,3.9-13.8,13.2-9.8,25.9
			C696.1,1553.9,714.2,1562,731.1,1562 M813.8,1585c-5.9-14-26.9-21.7-54.4-13.2c16.7,4.2,29.1,10,37,23.8
			c-17.7-6.8-43.2-8.4-64-5.1c-0.5-1-0.7-2.1-1-2.9c-4.3-12.9-9.4-15-27.8-11.5c4.1,6,6.8,11.6,9,17c-7.6,2.3-14.9,6-20.6,10
			c8.9,1.4,18.9,3.3,26,6c0.7,1.5,2.7,5.4,5.5,7.4c5,3.3,10.9,4.1,21.3,3c-2.6-4.2-5.5-11.2-8.4-17.7c20.3,7.4,52.5,9.8,66.7,4.8
			C815.1,1602.2,817.9,1594.8,813.8,1585 M842.9,1639.2c-10.1-17.6-37.3-21.6-56.2-13.8c12.2,2.4,29.2,7.4,38.7,23.3
			c-18.5,11.5-44.6,10.1-64.8,5.3c-1.4-2.3-2.4-5-3.3-7.6c11.2-3.7,19.4-5.1,31.4-5.6c-13.5-11.4-28.7-15.1-42.1-7
			c-10.2,6.1-10.2,16.6-3.8,27.7c7.8,13.4,23.4,22.3,45.3,17.9c-10.6-5.9-18.2-12.3-23.5-19.2c17.2,11.5,47.6,18.5,69.4,6.2
			C845.2,1660,849.1,1650,842.9,1639.2 M845.6,1715.2c-13.4,4.3-29.1,5.1-44.8,3.4c-2.2-2.9-3.9-5.9-5.4-8.7
			C808.6,1705.8,824.5,1706.6,845.6,1715.2 M831.1,1740.5c-10.5-4.2-19.1-10.1-25.3-16.4c24.4,12.5,53.9,9.5,68.6-1.3
			c11.3-8.2,13.4-19,5.8-29.2c-12.1-16.2-36.1-19.1-56.9-10c16.3,2.6,32.6,10.6,41.1,22c-3.8,3.1-8.2,5.6-12.9,7.6
			c-23.5-25.6-54.3-27.4-68.7-14.4c-7.5,6.8-8.7,17-0.8,27.7C795.4,1744.3,815.1,1746,831.1,1740.5 M916.1,1765.6
			c-26.7,5.9-50.9,9.4-71.5,6.6c17.9-13.3,46.7-25.3,53.9-22.2C906,1753.3,911.6,1759.2,916.1,1765.6 M824,1781.1
			c4.9,5.2,16.2,7.2,52.8-0.3c-25.4,8.4-35.2,18.7-28.4,25.8c8,8.4,25.3,8.4,46.8-8.8c-12.5,1.8-19.7,2.3-30.7-2
			c23.7-1.6,83.1-23.9,115.2-44.2c-2.6-3.6-7.8-10.2-13.2-15.7c-9-8.9-19.9-13.1-35.4-0.6c9,1.8,14.8,6,22.8,14.9
			c-8.5,1.3-16.8,4.4-29.7,12.1c4.5-5.8,4.2-13.3,0.4-17.3c-19-19.8-77.8-0.8-96,16.6C821.3,1768.6,818.8,1775.8,824,1781.1
			 M966.4,1782.5c-10.4-8.5-30.3-0.6-49.3,21c10.8-4.1,23.8-8.8,33.8-9.1c-3.2,3-9.5,9.8-16.1,17.3c-20.1,1.4-37.9,4.3-58,16
			c1.1,4.7,4.9,12.8,10.8,17.4c9.5-9,19.8-15.5,40.9-26.2c-5.4,6.2-10.6,12.6-14.6,17.7c-8.5,11-12.8,19.8-4.7,26.5
			c8.2,6.8,28.8,0.9,48.8-23.1c-10.5,4.1-24.1,9.5-36.3,9.7c4.9-4.5,12.3-12.1,19.7-20c19.9-0.9,37.6-2.5,56.5-12
			c-1-5.1-4.2-12.5-10.6-18.2c-8.5,6.9-19.1,13.7-39.1,22.8c3.8-4.2,7.3-8.4,10-11.9C967.8,1798,974,1788.7,966.4,1782.5
			 M1012.4,1865.3c-11,8.8-25.3,15.1-40.7,19.1c-3.1-2-5.8-4.1-8.2-6.3C974.5,1869.7,989.6,1864.7,1012.4,1865.3 M1007.8,1894
			c-11.3-0.3-21.4-2.7-29.5-6.4c27.3,3,53.7-10.3,63.7-25.6c7.6-11.6,5.8-22.5-5-29.4c-17.1-10.9-40.6-5-56.8,11
			c16.2-3.4,34.2-1.7,46.2,5.9c-2.4,4.2-5.6,8.2-9.3,11.6c-31.1-15.6-60.5-6.4-69.3,11c-4.6,9-2.1,19.1,9.2,26.2
			C975.9,1910.3,994.8,1904.8,1007.8,1894 M1128.9,1878.7c-5.1-2.6-15.8-4.6-22.4-3.1c-11.1,16.6-20.8,27.4-33,37.7
			c-15.6,4.8-27.9,10.2-44.9,3.5c35.8-11.2,59-31,63.7-43.5c2.3-6.4,1.3-11.3-5-14.3c-13.5-6.4-32.8,2.2-47,23.3
			c10.3-4.2,21.9-7.9,38.1-4.9c-23.7,7.6-57.9,22.5-65.3,42.5c-2.3,6.2-0.8,12.4,5,15.1c7.4,3.5,21.6,0.9,40.7-9.1
			c-14.5,11.4-15.8,20.8-8.3,24.4c14.3,6.7,34.2-7.7,45.6-22.9c-14,4.3-23.3,8.2-32.2,6.2
			C1082.9,1925.5,1111.7,1904.8,1128.9,1878.7 M1121.4,2003.6c24.6,12.1,40.7,9.7,49.8-16.4c-10.1,6.4-18.2,6.8-24.8,5.5
			c23.7-17.2,46.6-44.9,56.6-64.2c7.4-14.6,5.7-26.2-4.3-29.1c-9.5-2.8-20.6-1.6-44,16.4c6.3-7.7,11-15.6,16.3-23.9
			c-27.8-14.4-42-0.7-49,22.9c7.5-6.7,14.5-10.7,24.2-10.3c-27.2,36.3-47.2,63-68.4,86.2c7.6,3.4,15.4,4.8,22.2,3.8
			c12.3-15,23.3-30,41.8-58.9c20.1-14.4,30.4-19.3,45.8-19.9c-1.2,4.2-3.3,8.5-5.6,12.6c-12.7,22-33.5,45.9-41.4,54.3
			C1133.4,1990.1,1127.7,1996.4,1121.4,2003.6 M1231.4,1947c-6.5-1-12.6,2.3-15.9,9.6c-3.5,7.8-0.9,14.5,6.3,15.7
			c5.9,0.9,11.8-2.3,15.5-9.9C1241.2,1954.2,1238.3,1948.2,1231.4,1947 M1353.4,1883.9c-7.3-2.6-20-5.8-31.5-6.6
			c-15.7-1-24.9,8.4-28,25.3c7.7-5.4,14.9-6.9,34.4-4.4c-43.7,24.5-72.4,70.2-84.1,108.6c7.2,1,17.4-1.7,24.7-7.6
			c5.6-23.1,14.1-40.7,21.3-56c7.8-6.9,13.3-11.5,19.5-15.8c-15,32.4-21.1,62.2-25.4,82c11.5,2,22.1,1.2,30.3-6.7
			c7.4-7.4,12.5-21,13.1-37.6c-6.2,10.4-11.9,17.7-21.1,24.5c4.7-25,10-51.2,17.8-71.6C1338.3,1909.4,1347.2,1898.8,1353.4,1883.9
			 M1372.7,1911.1c-15.1,0.9-29.5,18.1-30.6,46.8c9.6-14.4,19.2-24.1,34.7-26.9c-12.3,14.4-22.3,37.8-26.2,58.6
			c-1.1,0.1-2.2,0-3.1,0c-13.6-0.3-17.4,3.8-20.2,22.3c7-1.9,13.2-2.4,19.1-2.8c-0.5,7.9,0.7,16.1,2.5,22.7
			c4.2-8,9.4-16.7,14.4-22.5c1.6-0.1,6-0.8,8.8-2.7c4.7-3.6,7.5-8.9,10-19.2c-4.9,1-12.4,1.5-19.4,2c13.8-16.6,26.8-46.2,26.8-61.2
			C1389.3,1915.6,1383.3,1910.5,1372.7,1911.1 M1418.2,2013.3c-7.6,2.5-12.9,3.3-18.9,2.6c-0.8,4.1-1.4,8.4-1.1,12.1
			c0.4,4.4,3.3,6.6,8.7,5.8c3.3-0.5,7.1-1.7,9.8-3C1417.9,2025.9,1418.1,2019.8,1418.2,2013.3 M1397.8,1994
			c1.1,8,5.8,13.1,12.6,12.1c13.1-1.8,24.2-21.4,26.4-44.2c-7.7,12.7-15.3,20.6-27.6,24.4c12.2-13.5,31.9-48.4,30.5-69.1
			c-0.7-9.1-5-13.7-12.4-12.7c-11.1,1.5-27,16.6-29.9,49.3c9-13.8,18.1-22.6,32.7-29.4C1415.3,1940.1,1395.2,1975,1397.8,1994
			 M1482.9,1904.3c-1.9-8-6.6-11-14.1-9.2c-13,3.1-24,23.6-20,53.2c4.8-14.5,10.3-24.4,20.6-31.8c-2.4,7.7-4.9,18.2-9.2,40.2
			c-3.8,19-11.5,59.3-9,71.5c1.8,8.4,7.1,12.8,14.8,10.9c9.1-2.2,17.4-16.3,14.5-42c-4.6,10-9.5,17.8-18.9,24.2
			c4.6-9.2,7.9-23.8,12.1-45.5C1478.1,1953.2,1486.7,1920.2,1482.9,1904.3 M1540.9,1894.4c4.1,17.7,2.7,51.6-3.3,59
			c-3.4,4.2-11,8.6-20.3,10.7c1.9-10.3,5-27.2,9.8-40.8C1530.5,1913,1535.3,1903.7,1540.9,1894.4 M1542.7,1871.5
			c-8.8,3-15.6,18.7-21.7,43.8c3.3-14.1-0.1-36.3-13.1-31.8c-13.8,4.8-18.3,26-12.5,52.5c3.1-10.7,8.1-22.7,16.6-31.6
			c-7.3,21.9-10.6,55.9-7.6,80.9c3.8,0,11.9-0.7,19.2-3.1c8.2-2.8,17.3-9.4,23-19.2c14.6-24.5,16.8-65.3,8.4-84.1
			C1552.1,1872.8,1548,1869.7,1542.7,1871.5 M1590.3,1959.1c5.2-2.4,14.2-10.8,17-17c-5.6-19.3-9.1-32.5-10.8-48.1
			c5.7-15.3,8.8-28.4,24.6-37.7c-12.1,32.8-10.6,65.3-3.7,76.7c3.6,5.7,8.2,7.9,14.6,4.7c10.9-5.6,15.5-26.7,8.5-48.5
			c-2.7,10.7-6.2,19.8-16.7,29.8c7.3-21.2,14.7-60.5,4.3-76.8c-3.5-5.6-9.3-8.2-15-5.3c-7.3,3.8-13.9,16.6-16.7,36.3
			c-1.1-16.9-7.9-23.7-15.2-19.9c-12.4,6.4-13.7,31.3-7.1,50.9c2.9-14.6,6.3-23.8,13-30.3C1581.8,1893.9,1580,1929.6,1590.3,1959.1
			 M1677.9,1819c10.6,19.3,14.9,46.6,13.2,56.1c-1.1,5.5-11,12.5-18.5,15.4C1672.1,1871.5,1671.8,1841.6,1677.9,1819 M1635.4,1778.9
			c-11.6,7.9-17.1,18.8-7,37.6c1.6-7.7,5.9-13.1,14.5-19.4c-3.4,6.1-2.3,18.5-0.1,29.2c5.4,25.9,14.4,61.8,23.8,89.8
			c18.6-5.1,32.7-17.3,36.3-37.4c4.6-24.2-0.7-55.8-12.2-74.5c-5.4-9.1-11.7-11.3-16.4-8.1c-7.2,4.9-9.8,20.7-9,59.7
			c-4.6-22.3-6.5-45.4-12.2-63.1c1.9-6.1,1.4-14.2-0.9-22.5C1647.6,1771.7,1642.6,1774,1635.4,1778.9 M1780.7,1692.8
			c-5.4,5.4-10.8,13.2-11.5,20.1c10.9,16.1,18.1,28.4,24.9,43.1c1.5,13.5,2,31.4-7.2,42.6c-1.9-27.2-14.5-57.7-30.8-79.5
			c-5.8,6.1-9,16.9-8.5,24.1c9.8,12.6,16.1,23.9,24,40.6c0.1,12.7,0.9,27.7-10.9,42.4c0.6-33.8-10.4-65.4-21.1-74.1
			c-5.9-4.9-10.7-4.6-14.7-0.4c-11.4,11.9-6.9,35.9,7.1,53c-1-12.1-1.1-23.8,7-38.7c-1,21.8,3.3,60.9,18.7,75.6
			c5.3,5.1,11.5,6.3,17,0.5c5.2-5.4,6.8-21.4,3.4-39.6c2.9,6.3,6.1,10.8,9.8,13.9c3.6,2.9,8.1,3.4,11.7-0.4
			c6.4-6.8,6.5-21.1,1.8-42.2c8.4,19.2,17.8,21.5,23.9,15.2c7.7-8.1,3.4-29.3-11.1-49.4c2.3,12.8,2.3,25.2-2.9,34.6
			C1809.1,1750.1,1799.9,1720.3,1780.7,1692.8 M1855,1754.8c3.3-4.6,7.2-16.3,6.7-23.1c-14.3-14.2-23.8-24-32.8-36.9
			c-2.4-16.1-6-29.1,3.3-44.9c5.3,34.6,22.3,62.2,33.9,68.9c5.9,3.3,11,3,14.9-2.9c6.9-10.1,0.7-30.8-16.1-46.7
			c2.7,10.6,4.1,20.4-0.2,34.2c-3.8-22.2-16.3-60-33.4-69.3c-5.8-3.2-12.1-2.6-15.7,2.7c-4.6,6.9-4.1,21.2,3,39.9
			c-9.1-14.3-18.4-16.9-22.9-10c-7.7,11.5,3.2,34,18.5,48c-4.5-14.3-6-23.8-3.3-32.8C1816.2,1702,1831.8,1734,1855,1754.8
			 M1921.1,1665.4c-2.4,7.6-4.9,12.3-9,16.8c2.9,3,5.9,6,9.2,8c3.8,2.3,7.2,1.2,9.9-3.7c1.5-2.9,2.8-6.8,3.3-9.7
			C1931.2,1673.1,1926.4,1669.2,1921.1,1665.4 M1893.5,1670.5c7.1,3.8,14,2.9,17.2-3c6.2-11.6-3.1-32.1-20.3-47.3
			c5.7,13.6,7.7,24.4,3.6,36.7c-3.8-17.7-20.5-54.3-38-65.3c-7.8-4.8-14.1-3.9-17.6,2.6c-5.3,9.9-2.4,31.6,22.3,53.2
			c-5.9-15.4-7.7-28-4.6-43.8C1860.2,1624.7,1876.6,1661.5,1893.5,1670.5 M1884.4,1473.7c-2.7,7.1-4.5,16.4-2.3,23
			c16.5,10.3,28.2,18.5,40.3,29.2c6.9,11.7,14.6,27.9,10.8,41.9c-12.8-24.1-36.8-46.8-60.6-60.1c-2.8,7.9-1.3,19.2,2,25.5
			c14,7.5,24.4,15.3,38.5,27.2c5.3,11.5,12.1,24.9,7.4,43.2c-13.2-31.1-36.1-55.5-49.5-59.1c-7.4-2.1-11.6,0.1-13.6,5.6
			c-5.5,15.5,8.4,35.6,28.1,45.4c-5.9-10.6-10.7-21.2-9.3-38.2c8,20.3,27.9,54.3,47.9,61.4c6.9,2.4,13,1.1,15.7-6.5
			c2.5-7-2.6-22.3-13.1-37.6c5.2,4.5,10,7.4,14.6,8.6c4.4,1.2,8.8-0.2,10.5-5.2c3.1-8.8-2.7-21.9-15.6-39.2
			c15.6,14.1,25.1,12.4,28,4.1c3.8-10.5-8.8-28.2-30.2-40.6c7.2,10.7,12.4,22.1,11.5,32.8C1933.8,1514.4,1913.1,1491,1884.4,1473.7
			 M1928.9,1439.9c12.2,6.9,23.4,18,32.7,30.8c-0.7,3.6-1.7,6.9-2.8,9.9C1946.8,1473.5,1936.7,1461.3,1928.9,1439.9 M1957.3,1433.6
			c3.9,10.6,5.3,20.9,4.9,29.8c-7.2-26.5-29.3-46.2-47.2-49.8c-13.6-2.8-23.1,2.8-25.4,15.4c-3.8,19.9,10.3,39.5,31.1,48.7
			c-9.1-13.8-14.2-31.2-11.5-45.2c4.9,0.8,9.7,2.3,14.3,4.4c-3.1,34.6,16.3,58.6,35.8,60.5c10,0.9,18.5-5.1,20.9-18.1
			C1984.2,1457.3,1972.1,1441.6,1957.3,1433.6 M1896.6,1341.3c-0.5,7.5,2.3,16.6,5.8,23.7c14.6,2.7,28.9,6.9,42.2,12.7
			c12.1,9,19.2,17.6,25.2,27.4c-14.2-4.2-24.8-8.5-35.8-14.4c7.6,16.6,28.2,32.9,44.6,33.9c7.1,0.5,11.3-2.3,11.6-7.5
			c0.5-8.1-8.5-18.3-26.1-30.2c19.9,9.7,27.6,7.2,28.1-0.7c0.8-11.3-14-25.3-40.2-30.9c9.9,8.6,17.7,16.3,19.5,26.7
			C1955.1,1366.3,1929.2,1348.6,1896.6,1341.3 M1954.4,1297.9c23.5,5.9,36,9.3,45.2,13.7c-0.2,5.4-0.9,11.1-2.4,17.4
			C1974,1329.3,1960.4,1320.1,1954.4,1297.9 M1891.2,1249.8c3.2,12.8,0.8,24.9,1.6,37.5c0.8,13.5,7.6,22.6,24.4,21.9
			c-3.5-5.3-6.2-13.9-6.4-28.5c6.5,7.3,17.4,10.6,35.2,15.2c-2.9,5.8-3.5,11.9-2,19c3.8,17,25.2,33.8,46.2,33.4
			c18.3-0.2,30-11,28.3-39.9c-1.8-28.4-18.4-42.4-40-36.3c11.1,7.5,17.4,16.7,19.8,27.5c-6.1-7.1-17.3-12.5-36.6-17.7l-22.7-6.1
			c-9.3-2.5-19-5.1-26.7-8.3C1910.1,1257.4,1901.6,1252.1,1891.2,1249.8 M1926,1228.3c1.2,6.5,6.6,11.1,14.5,11.6
			c8.4,0.7,13.9-4.1,12.6-11.3c-1.1-5.9-6.2-10.3-14.6-11.2C1929.4,1216.8,1924.7,1221.5,1926,1228.3 M1868.2,1171.5
			c5.5,19.2,22.4,26.2,39.8,21.1c18.4-5.4,24-23.6,42.1-28.1c5.3,15.4,0.4,22.2-13.2,27.2c7.6,3.3,14.3,4.4,21.4,2.3
			c9.9-2.8,15.7-10.8,12.4-22.1c-5-17-23.7-22.6-35.7-19.2c-19.2,5.5-25.3,23.3-43.8,29.3c-5.7-16.6-3.2-23.5,11.2-30.3
			c-7.9-3.5-15.4-4.5-22.4-2.4C1869.7,1152.7,1865,1160.6,1868.2,1171.5 M1884.9,1101.6c14.1-1,29.5,2,44.3,7.3
			c1.4,3.4,2.4,6.7,3.2,9.8C1918.5,1119.4,1903.3,1115,1884.9,1101.6 M1904.9,1080.5c9.2,6.6,16.1,14.4,20.7,22
			c-20.7-17.9-50.1-22-67-14.9c-12.9,5.3-17.6,15.2-12.5,27c8,18.7,30.6,27,53,23.1c-15.3-6.4-29.1-17.9-34.7-31.1
			c4.5-2.1,9.2-3.6,14.3-4.3c16.7,30.4,46.3,39.5,63.4,30.2c8.9-4.8,12.5-14.5,7.2-26.8C1940.5,1085.2,1921.7,1078.9,1904.9,1080.5
			 M1813.9,1052.9c7.3,12.7,61.3,25.4,115,2.7c-5.5-6.8-12.6-10.5-21.1-13.6c-17.8,7.5-38.6,14.3-53.5,16.2
			c-10.5-2.8-15.6-6.9-20.1-12.2c12.1-5.3,47.4-14,81.4-12.1c-8.4-31.7-43-26.7-60.9-19.3c9.9,1.3,21,3.3,32.7,12
			c-26.9-5.2-51.7-1.9-64,5.3C1813.6,1037.5,1809.2,1044.9,1813.9,1052.9 M1763.3,980.8c4.5,6,12.5,11.2,19.7,14.2
			c13-7.4,26.5-13.4,40.5-17.7c15-0.9,26,0.8,36.9,4.5c-13.5,6-24.3,9.6-36.5,12.2c16.5,7.7,42.7,6.9,56-3c5.7-4.3,7.1-9,4-13.2
			c-4.8-6.5-18.4-8.4-39.4-6.1c21.4-5.5,25.6-12.4,20.9-18.7c-6.8-9.1-27-10.1-50.6,2.4c13.1,0.2,24,0.9,32.2,7.7
			C1824.1,962,1792.9,965.3,1763.3,980.8 M1840.9,919.2c-3.8-4.2-14.4-10.5-21-11.5c-16.9,10.8-28.6,17.9-43.1,23.9
			c-16.2-1.1-29.8-0.5-43.2-13c34.8,2.3,65.6-8.3,74.6-18.1c4.5-5.1,5.3-10,0.4-15.2c-8.4-8.8-29.9-7.3-49,5.5
			c11-0.4,20.8,0.4,33.3,7.6c-22.4-1-62.2,2.9-74.9,17.7c-4.4,5-5.2,11.3-0.8,15.9c5.7,5.9,19.8,8.6,39.5,5.7
			c-16,5.8-20.5,14.3-14.8,20.2c9.6,10,33.9,4.3,50.9-7.6c-14.9,1.3-24.6,0.8-32.8-3.8C1780.8,945.6,1815.6,937.3,1840.9,919.2
			 M1674.9,896.5c15.7,12.9,42.5,7,57.6-6.9c-12.3,2-29.9,3.3-44.4-8.2c13.2-17.3,38.2-25.2,58.8-27.7c2.2,1.8,4,3.8,5.7,5.9
			c-9.1,7.4-16.4,11.6-27.4,16.3c16.7,5.9,32.2,4,41.8-8.3c7.4-9.3,3.8-19.2-6.2-27.3c-12-9.9-29.7-12.6-48.8-0.8
			c12,1.8,21.4,5.1,28.7,9.7c-20.1-4.7-51.1-0.6-67.1,18.6C1665.5,877.9,1665.4,888.6,1674.9,896.5 M1607.3,851.7
			c17.1,10.2,34.3,3.9,43.7-11.5c9.9-16.4,1.6-33.6,11.8-49.2c14.4,7.8,15.3,16.1,8.8,29c7.8-2.7,13.4-6.4,17.3-12.9
			c5.3-8.7,4.1-18.6-5.9-24.6c-15.2-9.1-32.8-0.5-39.2,10.1c-10.2,17.1-2.6,34.3-12.2,51.3c-15.5-8.3-18.3-15-12.4-29.9
			c-8.1,2.8-14.4,7.1-18.1,13.4C1595.6,836.8,1597.7,845.9,1607.3,851.7 M1641.8,756.6c-5.1-2.4-17.3-4.2-23.8-2.5
			c-11.5,16.5-19.5,27.5-30.7,38.6c-15.5,5.2-27.6,11-44.8,4.6c33.1-11.2,57.5-32.8,62.1-45.3c2.3-6.4,1-11.4-5.5-14.3
			c-11.2-5-30.5,4.7-43.2,23.9c10-4.6,19.3-7.6,33.7-5.7c-21.1,7.6-56.2,26.5-62.4,45c-2.2,6.2-0.5,12.4,5.4,14.9
			c7.5,3.3,21.6,0.4,38.8-9.9c-12.5,11.5-13.5,21-5.9,24.3c12.7,5.6,33-9,44.1-26.5c-13.2,6.9-22.4,10-31.7,8.9
			C1596.4,804.1,1625.3,783.2,1641.8,756.6 M1481.6,778.9c7.6-19.7,22.6-35.6,43.9-48.2c2.9,1,5.7,2.1,8.3,3.7
			c-7.6,13.1-22.3,35.9-34.4,44.3C1494.7,781.1,1489.1,781,1481.6,778.9 M1473.8,797.4c10.1,3,21,0,34.5-8.1
			c15.8-9.2,35.2-29.8,40.5-47.4c5.2-17.4-3.8-26-14.2-29c-16.8-5-35,1.6-46.5,18.4c10.1-2.5,20.9-3.7,31.1-2
			c-24.6,3.8-47.9,22.3-55,41.2C1459.4,783.1,1462.6,794,1473.8,797.4 M1390.4,780.2c7.3,1.4,16.8-0.2,24.1-2.8
			c4.6-14.2,10.5-27.8,17.9-40.3c10.4-10.8,19.8-16.9,30.3-21.6c-5.9,13.5-11.5,23.5-18.7,33.6c17.4-5.4,36.1-23.8,39.2-40
			c1.3-7-0.8-11.5-6-12.5c-7.9-1.5-19.2,6.2-33.2,22.2c12.1-18.5,10.6-26.5,2.9-27.9c-11.2-2.2-26.8,10.7-35.8,36
			c9.9-8.7,18.4-15.5,28.9-16.1C1422.7,725.4,1401.8,748.9,1390.4,780.2 M1350.2,738c5.4-13.1,14.9-25.4,26.5-36.2
			c3.7,0.2,7.1,0.8,10.1,1.6C1381.2,715.9,1370.4,727.5,1350.2,738 M1340.3,710.6c10-5.3,20.1-7.9,28.9-8.6
			c-25.3,10.5-42.2,34.9-43.5,53.1c-1,13.9,5.7,22.5,18.5,23.3c20.3,1.3,37.9-15.2,44.4-37c-12.6,10.8-29.2,17.9-43.4,17.1
			c0.1-5,0.9-9.9,2.5-14.6c34.7-1.3,56.1-23.6,55.5-43c-0.3-10.1-7.3-17.7-20.7-18.5C1360.5,680.9,1346.4,694.9,1340.3,710.6
			 M1280.4,741.5c-2.3-12.1,3.8-33.2,11.5-42.1c3.7,0.5,9.4,1,14.7,1.3c-2.8,22-7.6,33.4-10.7,36.4
			C1292,740.8,1286.8,741.6,1280.4,741.5 M1265.3,787.5c12-0.6,24.7-6.3,37.5-3.9c-4.6,8.9-15.5,15.8-26.1,16.4
			C1268.4,800.5,1264.5,796.2,1265.3,787.5 M1271.6,817.4c26.9-1.7,43.9-20.3,41.5-39.1c-1.8-14.2-21-16.8-44.2-6.9
			c5.6-9.7,16.3-14,25.3-17.4h-0.2c14.1-5.6,23.6-16.3,26.6-29.3c2.3-10,0.8-18-3.8-23.9c11-0.8,16.6-6.7,16.8-24.3
			c-7.1,3.4-18.6,4.6-29.6,4.4c-9.6-0.2-15.6,2.4-23,9.5c-9.3,9-19.6,26.7-17.9,41.6c1.1,9.1,5.6,16.9,16.2,20.1
			c-13.7,3.6-28.6,13.3-28,24.8c0.4,5.8,4,9.5,9.5,10.4c-8.3,5.8-11.6,12.7-11.2,18.1C1250.2,812.1,1256.7,818.3,1271.6,817.4
			 M1176.7,797c5.6-0.8,15.5-5.5,20-10.6c-0.8-19.9,0.8-34.4,4.6-49.9c9.9-13,16.5-24.7,34.4-29.1c-22.4,30-29.6,59.7-26.2,72.6
			c1.8,6.6,5.5,10,12.4,8.6c14.7-2.8,25.3-20.9,24.4-46.4c-5.8,9.5-13.1,19.2-28,26.3c14.6-20,33.7-52.3,28-72.8
			c-1.8-6.4-6.7-10.5-12.9-9.3c-8.1,1.5-18,11.9-27.6,31.3c5.1-17.7,0.5-26.1-7.6-24.6c-15.5,2.9-23.2,26.3-23.5,45.3
			c8.8-11.7,14.1-20.3,22.4-23.9C1186.5,732.1,1175.3,765.8,1176.7,797 M1117.5,796.2c-4.1-17.7-2.7-51.6,3.3-59
			c3.4-4.2,11-8.6,20.3-10.7c-1.9,10.3-5,27.2-9.8,40.8C1128,777.5,1123.1,786.9,1117.5,796.2 M1115.8,819
			c8.8-3,15.6-18.7,21.7-43.8c-3.3,14.1,0.1,36.3,13.1,31.8c13.8-4.8,18.3-26,12.5-52.4c-3.1,10.7-8.1,22.7-16.6,31.6
			c7.4-21.9,10.6-55.9,7.6-80.9c-3.8,0-11.9,0.7-19.2,3.1c-8.2,2.8-17.3,9.4-23,19.2c-14.6,24.5-16.8,65.3-8.4,84.1
			C1106.3,817.8,1110.4,820.9,1115.8,819 M1039.3,833.9c3.4-7.9,2.7-16.2,0.8-27.6l-5-30.1c-2.3-14.2-3.9-26.1-3.2-34.9
			c5.2-2.3,10.4-3.8,16.1-5c18,20.3,23.9,66.5,15.2,87.6C1053.5,828.7,1046.1,831.5,1039.3,833.9 M1004.9,775.8
			c1.7-13.6,6.4-22.4,16.7-29.1c-5.1,8.2-5.7,17.9-3.5,32.4l4.7,29.5c2.1,13.1,4.2,22.9,4,31.1c-7.6,4.9-10.7,12.7-8.3,25.5
			c12.5-9.3,25.8-12.5,39.1-19.2c29.6-15.2,30.7-48.3,24.6-77.2c-9.6-46.3-29.9-58.9-63.3-41.6
			C992.1,740.9,992.7,761.1,1004.9,775.8"/>
	</g>
</g>
<g id="Small_Sticker">
</g>
</svg>
