<?xml version="1.0" encoding="UTF-8"?><svg xmlns="http://www.w3.org/2000/svg" viewBox="0 0 2672.51 2672.51"><defs><style>.cls-1{fill:#fff;}.cls-2{fill:#231f20;}</style></defs><g id="Background_Big_Sticker"><circle class="cls-1" cx="1336.25" cy="1336.26" r="1328.45"/></g><g id="Big_Sticker"><path class="cls-2" d="m1994.52,760.64c32.67-27.82,113.97-46.48,175.32-39.68,23.91,2.55,41.85,11.91,50.1,23.52,8.49,11.96,6.44,29.34-11.91,41.85,30.17-6,49.47-9.94,72.87-16.79-16.49-7.31-33.96-12.37-47.5-14.07,41.83-28.67,88.34-28.29,107.5-1.3,11.4,16.06,5.86,29.24-7.81,38.94-34.51,24.5-171.42,53.86-239.85,55.17,20.33,11.26,45.89,14.7,70.89,10.82-53.39,34.82-113.12,39.71-133.98,10.33-7.52-10.59-4.13-21.74,5.5-30.62,10.3-9.37,25.97-18.43,46-24.95-47.76,8.73-85.21,8.08-99.52-12.08-8.49-11.96-4.5-26.61,12.39-41.17Zm185.69,28.5c-5.28-9.61-16.06-20.46-24.49-22.18-13.44-2.28-56.61,4.22-103.04,22.79,52.4,2.88,105.25,1.33,127.52-.61Z"/><path class="cls-2" d="m2223.51,881.19c-13.76-7.32-27.02-10.71-49.82-14.6,58.09-25.19,107.52-22.02,119.89,3.65,9.09,18.88,1.12,38.06-31.72,53.88-26.43,12.73-68.76,24.28-116.64,30.13,62,2.23,106.21-9.3,155.37-26,18.39,11.14,36.44,32.21,45.72,51.46-119.34,22.6-205.69,20.01-293.09-26.26,8.27,23.92,21.69,41.18,41.37,54.02-45.37,13.95-73.87,2.09-90.23-31.88-10.73-22.27-15.93-50.46-16.62-67.34,32.06-1.03,58.95,5.56,88.93,18.56,55.02-7.43,106.99-24.09,146.85-45.62Z"/><path class="cls-2" d="m2174.8,1100.56c37.61-10.2,96.27,6.02,145.12,24.47-17.9-21.19-28.92-28.19-45.4-39.35-34.87-5.31-83.82-3.32-119.51,1.15-16.33-13.81-29.27-40.69-33.31-65.21,69.57-2.8,145.76,15.61,183.11,33.27-18.24-17.63-26.24-26.31-60.76-39.96,68.59-11.22,112.37,7.74,121.47,41.3,6.25,23.05-15.01,32.72-56.08,26.93,47.24,14.11,71.28,32.33,76.66,52.15,4.93,18.2-4.27,30.68-23.17,36.24-37.79,11.12-102.26-10.48-144.64-30.68,21.39,22.85,44.16,33.18,64.07,37.76-61.83,13.73-120.35-5.14-130.87-43.96-4.39-16.18,5.11-29.17,23.31-34.11Z"/><path class="cls-2" d="m2204.72,1191.81c44.45-6.97,123,16.39,175.34,66.83,17.56,16.38,24.19,44.47,25.78,66.62,1.02,14.21-.32,30.69-3.03,45.59-66.33-11.21-115.09-29.14-160.44-58.23,11.53,20.18,31.59,36.38,54.97,46.05-63.7,2.04-117.29-24.78-119.87-60.72-1.8-25.08,30.14-30.73,74-16.65-42.1-18.83-77.62-33.92-79.6-61.51-1.05-14.63,10.86-24.3,32.86-27.98Zm142.96,119.14c.24-14.3-3.2-27.08-9.5-32.92-10.3-8.92-50.49-24.53-99.83-33.17,43.29,29.66,98.26,58.07,109.33,66.1Z"/><path class="cls-2" d="m2196.27,1518.23c36.77,6.22,83.73,42.63,118.63,79.98-4.08-21.09-9.9-36.94-28.65-59.24-41.75-24.48-70.11-32.68-105.84-42.54-7.39-19.1-7.12-45.82-2.11-67.92,47.98,15.34,101.43,43.5,149.59,97.96-5.3-28.94-18.83-49.5-33.05-63.38-29.09-18.94-55.17-33.12-100.38-49.69-8.09-17.52-7.11-50.92-1.62-70.82,48.11,17.06,111.09,64.25,153.13,114.71-4.78-19.5-14.78-43.29-39.59-67.46,66.98,18.55,97.33,60.23,92.23,90.38-4.05,23.96-26.44,23.15-54.91,5.59,26.81,22.38,45.76,48.53,41.64,72.91-4.61,27.27-33.19,22.86-56.78,9.1,28.87,25.28,46.58,51.22,42.81,73.53-2.86,16.94-14.8,24.69-30.71,23.28-41.94-3.27-89.07-56.28-123.16-90.94,10.61,30.26,25.79,48.55,41.94,61.06-61.89-13.44-106.98-55.91-100.83-92.26,3.21-19,17.42-27.65,37.67-24.23Z"/><path class="cls-2" d="m2179.11,1614.35c32.01,15.98,76.72,74.6,96.29,112.27.13-22.41-5.81-45.38-23.54-71.55,61.61,32.37,82.63,81.38,69.48,115.38-6.95,17.98-18.79,24.18-37.55,16.92-38.3-14.81-79.58-73.01-102.41-117.34-.17,25.99,13.55,55.56,30.33,73.73-65.9-34.03-92.2-81.04-78.89-115.43,7.1-18.37,23.36-25.55,46.29-13.99Zm199.58,163.46c.95,8-.44,23.19-4.06,32.57-6.5,16.8-14.63,20.4-25.03,15.92-10.4-4.47-21.09-14-28.96-21.54,10.11-14.51,18.54-38.65,19.42-57.18,9.64,6.43,26.44,18.76,38.63,30.22Z"/><path class="cls-2" d="m2153.97,1721.26c28.12,15.81,65.39,59.83,70.2,123.09,6.16-18.65,7.52-39.03,3.5-56.67,45.98,42.19,40.7,89.21,23.46,119.89-17.66,31.41-37.56,31.76-56.64,22.96-28.1-12.43-47.56-52.21-36.39-96.88,12.17,15.97,24.39,31.01,42.97,50.11,2.37-2.51,4.95-5.39,7.17-8.47-15.26-33.57-37.48-66.73-73.96-95.89-11.06,30.79-8.81,61.86-.91,92.26-56.92-44.97-66.36-101.71-47.47-135.31,15.4-27.39,40.69-30.48,68.08-15.09Z"/><path class="cls-2" d="m2068.22,1871c24.61,20.86,52.85,71.14,45.58,134.17,9.58-17.14,14.79-36.9,14.18-54.98,37.14,50.14,23.04,95.31.29,122.16-23.29,27.49-42.9,24.06-59.97,11.79-25.23-17.54-36.79-60.28-17.35-102.02,8.92,17.99,18.06,35.07,32.69,57.35,2.81-2.02,5.88-4.35,8.64-6.96-8.61-35.85-24.14-72.62-54.43-108.17-16.7,28.14-20.39,59.06-18.39,90.41-47.35-54.95-45.86-112.45-20.94-141.86,20.31-23.98,45.73-22.21,69.71-1.9Z"/><path class="cls-2" d="m2003.35,2110.5c8.46-21.65,12.48-35.61,9.96-69.37,39.69,57.05,39.88,106.09,17.64,125.22-14.29,12.3-31.66,6.24-48.37-32.45,11.91,51.11,3.27,71.25-6.89,80-11.75,10.11-26.08,3.09-38.53-17.15-22.52-36.45-29.53-89.57-8.76-136.73,7.23,26.39,15.72,47.83,29.31,72.61,7.02-34.24,2.61-62.49-49.04-142.43,7.73-19.92,21.88-38.17,43.03-54.71,27.91,47.85,47.54,122.71,51.64,175.01Z"/><path class="cls-2" d="m1873.06,2053.47c26.72,36.2,42.31,116.65,21.77,186.38-6.42,23.14-28.26,42.01-47.17,53.65-12.13,7.47-27.36,13.9-41.83,18.38-20.71-64.01-27.34-115.53-22.5-169.19-12.57,19.55-17.67,44.83-15.43,70.03-31.25-55.55-32.23-115.47-1.55-134.36,21.41-13.18,41.18,12.53,48.96,57.93-2.76-46.03-5.79-84.51,17.76-99.01,12.49-7.69,26.57-1.6,40,16.21Zm-39.59,181.84c12.79-6.4,22.53-15.35,24.81-23.64,3.15-13.26-1.58-56.11-16.72-103.86-6.3,52.1-6.09,113.97-8.09,127.5Z"/><path class="cls-2" d="m1733.06,2142.89c5.93,15.23,6.72,31.11,2.82,48.81-7.56,34.87-31.8,64.99-66.27,124.28l-1.82,3.41c49.26-17.83,59.08-36.5,68.71-85.66,26.34,63.03,15.6,105.89-13.83,116.9-20.85,7.67-43.24,5.59-68.97,3.02-2.27,10.33-2.9,19.12-2.74,27.6-23.91-14.07-33.15-42.4-30.03-67.89,4.04-33.5,46.52-91.86,70.99-138.71-49.57,17.05-59.43,40.23-68.56,86.05-27.34-64.44-18.16-106.69,13.85-119.16,17.57-6.84,39.81-5.16,68.1-1.79,2.82-10.09,3.29-19.27,3.05-26.82,9.9,6.94,20.14,18.24,24.7,29.95Z"/><path class="cls-2" d="m1578.84,2327.71c10.33-11.67,16.71-23.77,25.82-45.04,10.94,62.37-3.67,109.69-31.51,115.73-20.48,4.44-37.27-7.79-44.99-43.41-6.21-28.67-7.57-72.53-2.09-120.45-16.63,59.77-15.73,105.45-10.96,157.15-15.12,15.28-39.82,27.92-60.71,32.45,5.86-121.32,28.53-204.69,93.91-278.88-25.19,2.46-45.1,11.49-62.18,27.62-2.98-47.37,15.2-72.32,52.05-80.31,24.16-5.24,52.79-3.72,69.36-.45-6.48,31.42-19.16,56.03-38.79,82.15-5.61,55.24-1.53,109.66,10.1,153.44Z"/><path class="cls-2" d="m1344.9,2482.15c-7,3.99-21.53,8.64-31.58,8.95-18.01.56-24.49-5.52-24.42-16.84.07-11.32,4.67-24.88,8.55-35.06,17.3,3.65,42.82,2.02,60.23-4.39-2.16,11.39-6.98,31.66-12.78,47.35Zm72.77-247.5c-2.24,35.7-38.81,99.72-65.88,132.43,20.69-8.61,39.52-23.03,56.72-49.56-5.8,69.35-42.75,107.81-79.18,108.95-19.26.6-29.59-7.88-30.22-27.98-1.28-41.04,36.23-101.74,68.15-140.04-24,9.97-45.89,34.13-56.08,56.66,5.66-73.96,38.71-116.49,75.56-117.64,19.68-.61,32.64,11.56,30.92,37.18Z"/><path class="cls-2" d="m1309.32,2253.58c-7.32,29.2-32.45,73.59-59.42,106.03,10.39,1.38,20.82,2.34,30.91,2.43-8.87,23.17-20.08,44.44-30.87,51.86-6.68,4.01-12.64,4.73-20.94,3.54-14.81,14.62-29.75,35.13-42.33,52.91-10.18-17.35-12.16-41.52-6.18-60.74-10.81-1.42-20.94-1.09-35.51,1.78,9.46-43.31,22.04-61.09,55.08-58.88,15.18-36.89,38.21-72.22,60.93-94.95-26.3,6.83-50.33,25.66-69.55,47.03,14.29-82,56.39-109.68,90.19-106.56,22.95,2.12,36.51,19.35,27.7,55.57Z"/><path class="cls-2" d="m1199.35,2229.09c-7.58,44.35-54.78,111.34-119.28,144.85-21.13,11.41-49.87,8.74-71.37,3.17-13.79-3.57-28.98-10.1-42.23-17.42,31.79-59.29,64.34-99.78,106.38-133.47-22.8,4.49-44.56,18.33-61.18,37.4,18.39-61.03,60.91-103.26,95.8-94.23,24.34,6.3,19.5,38.37-7.84,75.44,31.27-33.89,56.92-62.74,83.69-55.82,14.2,3.67,19.57,18.05,16.03,40.07Zm-158.53,97.47c13.48,4.79,26.68,5.61,34.24,1.5,11.74-6.92,39.35-40.02,63.29-84.03-41.93,31.57-86.39,74.59-97.53,82.53Z"/><path class="cls-2" d="m860.07,2358.08c20.74-1.57,36.04-6.39,54.21-16.83-25.42,50.64-63.03,75.52-96.52,61.12-15.78-6.79-21.21-19.61-14.1-36.16,14.56-33.87,105.99-118.16,178.3-172.81-30.7,1.39-51.4,13.47-67.87,27.37,27.47-57.51,75.92-92.78,111.72-77.38,16.55,7.12,20.94,21.32,12.83,40.18-17.21,40.03-110.4,123.1-178.57,174.52Z"/><path class="cls-2" d="m758.55,2327.61c-8.06-.2-22.9-3.71-31.67-8.63-15.71-8.81-18.12-17.37-12.22-27.03,5.9-9.66,16.84-18.9,25.42-25.62,12.93,12.06,35.64,23.83,53.85,27.32-7.73,8.64-22.32,23.51-35.38,33.96Zm190.07-174.43c-20.35,29.42-84.71,65.38-124.78,79.42,22.17,3.3,45.74.67,74.16-13.17-40.76,56.4-92.26,70.28-124.06,52.44-16.81-9.43-21.28-22.02-11.44-39.56,20.09-35.81,83.55-68.44,130.66-84.77-25.71-3.85-56.92,5.55-77.28,19.59,43.02-60.42,93.28-79.8,125.44-61.76,17.18,9.63,21.99,26.75,7.29,47.81Z"/><path class="cls-2" d="m851.2,2116.2c-19.45,25.74-68.08,56.75-131.42,53.01,17.65,8.61,37.67,12.7,55.69,11.09-47.99,39.89-93.87,28.33-121.95,7.12-28.75-21.72-26.42-41.49-15.13-59.22,16.1-26.17,58.13-40.11,100.89-23.03-17.46,9.91-34.01,19.99-55.43,35.84,2.17,2.69,4.67,5.63,7.43,8.24,35.32-10.6,71.16-28.16,104.96-60.39-29.03-15.1-60.11-17.05-91.3-13.31,52.22-50.35,109.71-52.08,140.47-28.84,25.07,18.94,24.73,44.42,5.79,69.49Z"/><path class="cls-2" d="m748.08,2028.93c-13.79,13.47-29.85,19.21-57.48,25.11,18.67-25.86,17.11-44.84-11.59-74.21-6.34,35.48-7.54,88.21-43.68,112.98-28.07,19.23-64.52,19.7-92.34-8.77-22.84-23.38-18.4-48.8-.42-66.38,11.99-11.71,28.97-20.11,48.27-23.74-14.79,23.83-17.14,47.21,12.43,78.07,6.26-54.15,8.25-98.28,45.56-121.84,27.16-17.17,66.55-15.82,96.42,14.74,24.6,25.17,19,48.22,2.82,64.03Z"/><path class="cls-2" d="m677.35,1902.54c8.74,13.36-4.68,29.57-23.84,36.97-25.16,9.92-44.11,3.92-53.59-8.35-11.79-15.25-4.56-36.72,26.82-50.93,52.62-23.74,96.24-9.8,114.15,11.31-20.36.38-42.2,2.97-63.53,10.99Z"/><path class="cls-2" d="m589.94,1852.06c-16.83,9.38-33.84,10.71-62.05,9.17,24.8-20.06,28.27-38.79,8.27-74.65-15.42,32.58-30.4,83.15-71.77,97.58-32.13,11.2-67.43,2.09-86.81-32.67-15.91-28.54-4.96-51.92,17-64.16,14.64-8.16,33.23-11.81,52.81-10.25-20.52,19.12-28.92,41.06-8.47,78.6,20.23-50.62,33.72-92.68,75.91-105.64,30.71-9.45,68.37,2.18,89.18,39.51,17.14,30.74,5.69,51.51-14.07,62.53Z"/><path class="cls-2" d="m647.74,1742.84c-25.78,3.76-48.39-1.16-61.17-12.2-84.83-1.19-163.9-6.19-204.43-12.78,17.19,13.49,30.56,19.88,59.6,29.19-67.57,16.27-111.93,2.59-121.55-24.68-8.08-22.92,13.26-38,57.95-35.98-50.9-8.27-77.74-20.13-85.12-41.07-5.85-16.6,1.73-30.38,24.09-40.04,43.68-18.51,120.61-14.53,178.82,10.71,24.7,10.84,36.04,22.84,40.36,35.09,4.18,11.85-1.31,24.01-19.21,31.21,25.33,1.29,42.46,3.25,59.12,8.92-6.13-17.39-16.68-29.66-31.34-42.26,52.48-14.95,74.35.44,88.98,41.94,6.13,17.39,11.28,39.56,13.88,51.97Zm-184.14-88.8c-13.5-6.79-56.36-9.9-105.19-6.01,37.95,18.17,74.97,28.66,121.68,32.63-3.25-11.74-9.01-23.04-16.49-26.62Z"/><path class="cls-2" d="m213.18,1537.23c-5.01-6.31-11.81-19.97-13.65-29.85-3.29-17.71,1.74-25.04,12.94-26.7,11.2-1.66,25.3.84,35.95,3.12-.98,17.66,4.52,42.63,13.5,58.86-11.58-.4-32.35-2.08-48.74-5.43Zm255.69,34.29c-35.63,3.21-104.46-23.2-140.9-44.98,11.66,19.14,28.77,35.56,57.61,48.53-69.43,4.81-113.06-25.86-119.72-61.7-3.52-18.95,3.29-30.44,23.06-34.12,40.37-7.5,106.06,20.34,148.78,46.07-13.5-22.21-40.71-40.16-64.53-46.82,73.96-5.65,121.02,20.54,127.76,56.8,3.6,19.36-6.46,34.02-32.05,36.22Z"/><path class="cls-2" d="m219.29,1393.75c9.39,14.72,16.12,25.78,38.56,41.65-56.65-1.1-95.32-24.29-96.71-59.04-.68-17.17,10.57-29.36,28.16-30.06,28.89-1.15,58.51,16.12,162,56.02-30.01-26.9-56.1-39.7-84.51-47.79-9.07-17.25-15.49-41.32-13.96-66.12,43.84,16.28,77.95,40.92,105.8,76.71,20.53-.4,36.41-1.87,55.57-5.15-13.88-11.61-34.93-24.19-55.44-33.85,83.43-10.88,121.63,21.57,122.76,50.04.68,17.17-11.94,26.48-37.42,29.17-25.89,2.71-53.98,2.99-75.81,2.18,39.39,9.75,64.32,14.63,102.19,17.73,10.28,15.94,16.32,41.28,15.05,61.88-54.79-7.04-206.46-56.35-266.23-93.38Z"/><path class="cls-2" d="m325,1263.14c7.65,13.58,16.99,23.57,34.11,39.14-62.51-10.07-102.45-39.36-99.04-67.65,2.51-20.8,19.55-32.67,55.74-28.31,29.12,3.51,71.01,16.58,114.5,37.44-51.03-35.27-94.49-49.37-144.91-61.78-9.49-19.29-13.35-46.77-10.8-67.98,112.72,45.24,184.08,93.93,232.79,179.99,5.92-24.61,3.9-46.38-5.75-67.8,45.74,12.69,63.36,38.02,58.85,75.46-2.96,24.54-13.75,51.1-22.27,65.69-27.56-16.41-46.67-36.43-64.93-63.53-50.36-23.37-103.12-37.33-148.3-40.66Z"/><path class="cls-2" d="m459.1,1145.94c-18.31-6.03-30.8-17.65-48.76-39.45,31.55,4.66,47.68-5.47,60.53-44.46-34.41,10.72-81.77,33.94-120.39,13.27-30-16.06-47.2-48.2-34.75-86,10.23-31.04,34.85-38.81,58.72-30.94,15.92,5.24,31.19,16.45,43.31,31.91-27.96-2.16-49.8,6.53-63.57,46.99,50.94-19.39,91.03-37.95,129.13-15.69,27.75,16.2,44.7,51.78,31.32,92.38-11.01,33.43-34.05,39.07-55.54,31.99Z"/><path class="cls-2" d="m344.09,837.9c.12,20.43,3.73,36.07,12.14,54.24-48.48-29.34-70.31-68.79-54.29-99.19,8.21-15.57,24.05-20.48,39.62-12.27,23.35,12.31,55.78,55.92,84.69,97.22-21.77-42.26-26.44-69.35-17.26-86.77,8.6-16.31,24.58-18.78,42.74-9.2,33.73,17.78,66.21,76.58,83.28,119.68.1-30.74-9.53-53.81-20.97-70.73,54.6,32.1,84.56,85.78,65.81,121.36-7.81,14.83-23.62,17.86-40.3,9.07-34.47-18.17-68.11-66.68-89.33-117.18-1.54,28.08,1.75,40.71,5.84,59.91,21.7,28.02,59.78,61.82,90.07,82.52,1.26,20.08-6.8,46.15-17.44,61.85-40.96-30.12-135.49-132.04-184.6-210.5Z"/><path class="cls-2" d="m579.59,873.71c-37.43-24.97-79.41-95.35-83.77-167.91-1.83-23.95,12.31-49.11,26.14-66.48,8.87-11.15,21.02-22.36,33.1-31.49,41.22,53.17,64.96,99.37,78.63,151.49,5.18-22.65,1.39-48.17-9.27-71.11,48.26,41.63,69.53,97.66,47.09,125.85-15.66,19.67-42.99,2.2-65.73-37.86,18.23,42.36,34.15,77.53,16.93,99.16-9.13,11.47-24.45,10.53-43.13-1.66Zm-24.53-184.47c-9.86,10.36-15.98,22.09-15.3,30.66,1.54,13.54,20.54,52.23,51,92.01-11.77-51.14-32.98-109.27-35.7-122.67Z"/><path class="cls-2" d="m643.13,601.6c-8.07,21.8-11.83,35.83-8.71,69.54-40.71-56.33-41.78-105.35-19.9-124.88,14.07-12.55,31.55-6.81,48.95,31.57-12.83-50.88-4.55-71.18,5.45-80.11,11.57-10.32,26.02-3.56,38.83,16.45,23.17,36.04,31.14,89.02,11.22,136.55-7.7-26.26-16.58-47.54-30.62-72.07-6.41,34.36-1.48,62.53,51.59,141.52-7.37,20.06-21.19,38.56-42.03,55.48-28.76-47.34-49.75-121.83-54.79-174.05Z"/><path class="cls-2" d="m797.02,770.76c-9.35-24.31-9.55-47.45-1.6-62.35-17.55-83.01-30.12-161.23-32.63-202.22-9.36,19.75-12.65,34.19-15.32,64.58-30.78-62.32-27.22-108.61-2.75-124,20.57-12.94,39.99,4.55,47.88,48.59-3.17-51.47,2.48-80.26,21.28-92.09,14.9-9.37,30.01-5.01,44.37,14.67,27.69,38.52,40.78,114.43,29.01,176.78-5.12,26.49-14.32,40.19-25.32,47.11-10.64,6.69-23.71,4.02-34.68-11.85,4.33,24.99,6.2,42.13,4.34,59.64,15.61-9.81,25.25-22.81,34.31-39.89,26.16,47.89,15.97,72.62-21.27,96.04-15.61,9.81-36.1,19.73-47.63,25.01Zm45.99-199.2c3.65-14.67-2.78-57.15-17.35-103.93-9.35,41.02-11.41,79.45-4.98,125.88,10.73-5.76,20.48-13.87,22.32-21.96Z"/><path class="cls-2" d="m944.55,531.82c-9.86-24.95-9.81-85.52,31.42-141.75-17.15,9.28-32.59,23.29-41.75,39.94-5.3-56.87,21.77-89.31,62.78-104.04,31.94-11.48,55.04-4.2,65.83,20.86,16.25,37.79-.32,94.5-68.98,133.88.55,6.48,1.38,13.75,2.86,20.34,31.03-16.49,54.38-38.24,72.31-76.3,13.66,62.77-12.27,121.95-60.77,139.38-29.97,10.77-52.68-2.88-63.71-32.31Zm82.27-155.13c-5.98-.52-12.46.02-19.05,1.5-7.28,23.1-12.84,46.02-14.15,69.65,18.89-25.49,27.95-46.11,33.2-71.15Z"/><path class="cls-2" d="m1168.05,484.23c-6.29-38.46,15.85-95.15,39.2-141.85-22.92,15.64-31.01,25.88-43.79,41.13-8.85,34.14-11.89,83.04-11.1,119-15.4,14.83-43.47,24.94-68.27,26.46,4.34-69.49,30.46-143.39,51.85-178.74-19.4,16.34-28.86,23.4-45.97,56.35-4.13-69.38,19.2-110.98,53.52-116.6,23.57-3.86,31.01,18.28,21.04,58.54,18.87-45.54,39.46-67.6,59.72-70.91,18.61-3.04,30.08,7.39,33.67,26.76,7.19,38.73-20.89,100.65-45.33,140.73,24.92-18.94,37.52-40.53,44.12-59.87,7.32,62.91-17.44,119.19-57.13,125.68-16.54,2.71-28.49-8.08-31.54-26.68Z"/><path class="cls-2" d="m1261.04,464.51c-2.46-42.83,31.73-118.92,74.19-163.73,16.47-17.52,34.76-26.18,49-25.75,14.66.45,27.28,12.57,26.18,34.76,13.42-27.68,21.93-45.44,30.6-68.23-15.78,8.74-30.36,19.61-39.89,29.38,2.39-50.65,30.77-87.51,63.85-86.5,19.68.6,26.85,12.98,26.34,29.73-1.3,42.3-60.52,169.18-100.78,224.54,21.25-9.41,39.42-27.72,51.42-49.99-4.46,63.58-36.61,114.16-72.63,113.05-12.98-.4-19.82-9.83-21.1-22.86-1.25-13.87.97-31.83,7.87-51.74-21.87,43.35-44.99,72.82-69.7,72.06-14.66-.45-23.93-12.47-25.35-34.73Zm134.8-130.85c-10.85-1.59-26,.46-32.47,6.13-9.93,9.34-30.81,47.68-44.02,95.91,33.92-40.04,64.59-83.12,76.49-102.04Z"/><path class="cls-2" d="m1435.59,467.06c9.84-34.39,59.28-89.09,92.73-115.23-22.06,3.97-43.54,14.02-66.03,36.25,20.53-66.49,64.87-96.14,100.7-89.44,18.95,3.54,27.21,14.04,23.52,33.81-7.55,40.36-57.2,91.61-96.59,122.18,25.58-4.59,52.14-23.5,66.93-43.33-21.38,71.02-62.78,105.48-99.02,98.71-19.36-3.62-29.4-18.29-22.23-42.95Zm124.13-226.15c7.7-2.4,22.88-3.82,32.76-1.97,17.71,3.31,22.73,10.64,20.24,21.69s-9.9,23.3-15.86,32.41c-16.12-7.28-41.39-11.15-59.77-8.62,4.55-10.66,13.6-29.43,22.63-43.51Z"/><path class="cls-2" d="m1607.83,514.07c13.09-36.7,59.88-75.62,102.9-105.21-27.62,2.61-39.65,7.66-58.22,14.83-24.25,25.6-50.56,66.94-67.25,98.8-20.66,5.54-50.11.82-72.55-9.85,37.4-58.73,96-110.79,131.81-131.39-24.88,4.92-36.58,6.53-67.49,27.09,29.93-62.73,70.47-87.86,103.23-76.18,22.5,8.02,18.31,30.99-9.89,61.42,38.54-30.74,67.23-40.09,86.57-33.19,17.76,6.33,22.76,21.01,16.54,39.7-12.44,37.38-66.96,78-107.73,101.27,30.97-4.53,52.44-17.33,67.57-31.07-24.01,58.61-72.89,95.9-110.78,82.39-15.79-5.63-21.04-20.85-14.71-38.61Z"/><path class="cls-2" d="m1636.43,603.34c7.67-13.96,24.56-19.62,42.26-17.54-7.14-8.54-10.58-19.28-3.82-30.86,16.27-27.86,58.73-22.48,91.9-6.99-19.51-20.61-17.17-47.87-5.34-68.13,13.1-22.43,39.8-49.06,75.24-54.08,23.89-3.52,41.95,4.6,66.86,20.11,18.24,11.14,34.1,21.37,58.62,28.4-21.82,32.38-39.19,39.71-59.19,32.4-3.23,18-11.96,33.78-27.16,48.19-25.07,24.66-61.57,25.67-88.8,14.14-14.72-4.71-29.95-4.38-39.6-.32,10.68,3.32,22.74,8.42,30.34,12.86,23.16,13.52,32.32,34.4,18.8,57.55-22.39,38.36-76.51,50.43-128.97,19.8-31.48-18.38-39.86-39.77-31.13-55.54Zm125.09,40.04c-10.19-16.62-46.01-31.72-67.15-44.54-2.53-1.48-4.85-3.32-7.18-5.16-.89,28.11,47.67,49.66,74.33,49.7Zm109.24-155.53c-6.3-4.16-13.18-8.18-20.47-11.47-20.42,10.88-41.94,32.77-56.15,52.13,16.62,7.27,43.95-8.79,76.62-40.66Z"/><path class="cls-2" d="m1830.27,605.83c12.2-14.92,27.52-22.42,54.32-31.37-15.67,27.78-12,46.47,19.79,72.45,2.34-35.97-2.35-88.5,30.8-117.14,25.75-22.24,61.92-26.77,92.75-1.58,25.31,20.68,23.73,46.45,7.82,65.92-10.61,12.98-26.55,23.22-45.33,28.97,12.04-25.33,11.77-48.83-21.06-76.2-.18,54.51,2.77,98.58-31.68,126.17-25.08,20.09-64.37,23.15-97.47-3.9-27.25-22.27-24.26-45.8-9.94-63.32Z"/><path class="cls-2" d="m1916.65,727.55c-10.18-12.31,1.35-29.91,19.57-39.4,23.9-12.67,43.4-8.81,54.19,2.32,13.42,13.84,8.63,35.99-20.98,53.61-49.64,29.46-94.54,20.47-114.7,1.49,20.19-2.65,41.6-7.65,61.91-18.01Z"/><path class="cls-2" d="m1907.89,914.72c7.98,9.68,16.09,23.25,18.98,28.26-15.27,4.65-47.26,21.74-61.72,28.44-9.41,4.35-14.47,5.19-18.68,4.42,5.01,5.3,10.61,6.9,17.5,7.71-16.57,10.41-25.99,7.54-32.97-1.57-4.22-5.51-6.43-9.15-9.4-12.77,5.41-2.62,11.71-3.83,17.58-2.62,4.06-1.4,11.04-4.46,15.49-6.35,2.05-.81,4.12-1.82,6.19-2.84-4.29-5.85-8.69-11.6-13.31-17.38l-12.18,2.48c-6.54,1.39-10.44,1.52-14.89.18,4.31,4.88,7.86,6.54,14.46,7.95-12.97,7.65-20.84,9.3-28.73-1.01-4.22-5.52-8-11.19-10.96-14.81,5.11-2.01,11.14-3.58,18.22-1.78,16.79-3.16,50.82-10.39,65.98-10.21,9.79.11,16.15,1.71,20.64,4.35-9.17-10.48-17.79-15.29-30.96-15.09,13.08-14.96,26.12-12.59,38.75,2.66Zm-35.2,37.23c12.29-5.8,24.68-11.48,35.8-14.1-.8-1.29-1.81-2.61-2.82-3.93l-.18-.24c-5.69-.97-14.03-1.43-26.03.53-4.85.86-11.13,1.86-18.09,3.2,3.88,4.82,7.56,9.62,11.32,14.53Z"/><path class="cls-2" d="m1913.19,990.89c-5.24-5.48-13.42-7.08-25-10.51,14.83-5.22,35.16-5.99,41.85,5.14,3.5,5.82-1.72,11.78-16.87,12.97,17.69,1.87,28.62,6.57,32.12,12.4,2.72,4.53.94,9.48-3.48,12.67-14.23,10.32-44.66,4.84-64.4-.74,9.75,9.47,19.38,12.31,28.4,14.11-19.49,8.02-36.58,5.09-42.97-5.52-2.96-4.92-1.43-8.83,3.12-12.1,9.06-6.33,34.02-9.36,63.75-.64-8.56-12.47-19.54-14.33-32.44-18.2-13.15,1.57-24.78,4.51-40,10.84-5.23-1.96-11.69-8.3-13.97-12.39,23.74-10.05,53.05-11.11,69.88-8.02Z"/><path class="cls-2" d="m1947.51,1053.63c-4.63-6-12.61-8.45-23.76-13.07,15.3-3.64,35.59-2.29,41.09,9.48,2.87,6.16-2.95,11.54-18.13,11.13,17.4,3.71,27.78,9.53,30.65,15.69,2.24,4.79-.05,9.52-4.79,12.23-15.23,8.78-44.93.14-63.98-7.46,8.7,10.44,17.99,14.27,26.77,17-20.22,5.94-36.92,1.24-42.16-9.98-2.43-5.2-.5-8.93,4.37-11.7,9.67-5.35,34.81-5.75,63.47,6.03-7.21-13.3-17.94-16.29-30.36-21.49-13.25.18-25.11,1.89-40.91,6.6-5-2.5-10.76-9.48-12.6-13.78,24.66-7.51,53.92-5.51,70.34-.67Z"/><path class="cls-2" d="m1913.45,1109.92c15.47-6.99,49.16-5.29,69.47,6.66,8.04,4.71,13.54,12.23,15.87,18.94,2.09,5.99,2.65,12.67,2.65,15.87-20.69,2.57-48.75.03-66.84-5.98,7.4,7.02,17.29,11.09,26.16,13.59-21.81,4.88-39.38,1.24-43.35-10.16-3.72-10.69,14.62-13.57,26.26-10.91-20.74-4.93-33.71-10.48-36.24-17.76-1.54-4.42.95-7.84,6.02-10.25Zm36.65,23.05c11.27,3.91,25.25,6.39,33.77,7.9-1.73-7.71-5.34-13.97-8.87-16.74-6.04-4.93-34.08-6.04-48.7-2.55,7.65,4.53,15.44,8.53,23.79,11.38Z"/><path class="cls-2" d="m1948.69,1189.97c21.5,3.56,61.45,3.13,74.24,12.43-1.98-7.61-4.14-12.26-7.04-15.22,14.54.33,19.81,5.13,21.61,14.16,1.89,9.48,2.07,14.21,3.7,21.59-8.59.18-14.86-1.96-17.88-10.9-19.19-1.25-67.72-2.18-74.53-13.14,2.16,9.27,4.17,13.95,6.95,17.86-14.51,1.36-19.48-3.5-21.67-14.46-1.45-7.26-1.3-13.44-3.78-22.03,9.54-.06,15.4,3.08,18.42,9.72Zm80.98,46.96c-.89-4.44-2.04-7.14-3.7-10.04,11.7,1.51,16.94,4.62,18.86,12.71,1.75,7.97,2.1,14.36,1.98,19.93-17.08-6.9-33.22-17.54-52.38-32.5-23.25,9.26-39.6,14.53-43.51,27.32-4.68-2.61-7.85-6.9-8.82-11.79-1.57-7.85,3.2-12.5,12.06-16.73,9.57-4.53,22.75-8.7,37.97-12.66,11.67,9.06,25.17,17.3,37.54,23.76Z"/><path class="cls-2" d="m2049.34,1289c-5.39-9.37-11.92-14.55-18.58-17.89,21.9-.9,31.96,9.87,32.51,16.04.58,6.47-3.01,10.43-9.32,10.99-11.28,1.01-29.79-9.31-52.81-19.22,21.85,15.48,29.44,24.04,30.04,30.66.51,5.71-3.24,9.54-10.46,10.18-15.79,1.41-39.98-14.76-55.34-28.85,3.88,11.17,10.11,18.04,18.71,24.4-20.85-.86-34.95-11.12-36.07-23.6-.53-5.87,3.62-8.66,9.33-9.17,12.18-1.09,36.72,8.84,56.41,27.24-1.53-11.99-9.92-21.09-21.38-32.19-12.54-2.97-26.88-3.96-40.81-3.77-3.25-4.11-5.29-8.32-6.7-17.29,42.28,3.19,87.75,20.03,104.48,32.48Z"/><path class="cls-2" d="m1970.22,1319.9c16.59,1.48,36.59,15.85,45.05,34.56-.92-8.47-4.26-16.83-8.52-24.3,15.92,5.39,25.23,18.38,24.99,32.87-.14,8.91-4.97,18.04-19.92,17.8-15.25-.25-35.92-11.15-46.77-21.6-9.37-8.91-14.23-16.84-14.08-25.6.16-9.66,8.09-14.67,19.25-13.73Zm1.33,29.92c9.39,7.7,30.73,14.39,42.91,17.46.64-2.41.83-4.82,1.03-7.38-14.72-14.13-30.75-22.55-48.09-24.19.05,6.5,1.18,10.89,4.15,14.11Z"/><path class="cls-2" d="m2012.18,1409.28c-1.37-8.61-7.62-15.07-15.62-22.44,21.52,5.22,33.37,17.02,32.55,26.35-.57,6.47-6.95,8.33-23.19-.06,14.26,10.19,21.54,18.86,20.96,25.48-.38,4.36-3.9,6.48-9.77,5.96-13.54-1.19-30.21-15.08-36.12-28.93,8.96,5.03,17.57,8.82,29.21,12.56-4.73-8.3-10.47-15.47-20.25-23.15-10.93-5.05-22.57-8.8-34.62-11.37-2.82-5.86-4.88-13.46-4.34-19.63,26.69,6.74,47.79,21.92,61.18,35.22Z"/><path class="cls-2" d="m1956.25,1425.33c16.92,1.44,45.51,19.33,57.43,39.67,4.72,8.03,5.86,17.28,4.63,24.27-1.1,6.25-3.85,12.35-5.42,15.15-19.32-7.84-42.59-23.73-55.46-37.79,3.04,9.73,9.7,18.11,16.22,24.62-21.42-6.37-35-18.1-32.91-30,1.96-11.15,19.38-4.72,28.25,3.27-15.71-14.41-24.33-25.58-23-33.17.81-4.61,4.65-6.39,10.25-6.02Zm20.77,37.99c7.94,8.91,18.94,17.89,25.64,23.36,2.25-7.58,2.14-14.8.41-18.94-2.87-7.25-26.82-21.88-41.28-25.95,4.48,7.68,9.33,14.98,15.23,21.53Z"/><path class="cls-2" d="m1951.27,1485.65c5.84,1.54,10.73,5.49,14.83,11.25-13.1-1.27-17.83,2.48-20.8,16.69,15.74,3.68,27.59-6.31,43.5-2.11,9.93,2.62,20.83,14.56,17.1,28.72-2.47,9.34-10.02,12.51-18.19,10.35-5.99-1.58-10.19-5.19-14.18-10.77,11.77,2.17,18.1-.53,20.95-13.68-14.74-4.51-26.41,5.99-41.74,1.95-14.46-3.81-23.42-16.02-19.22-31.93,2.39-9.05,9.14-12.74,17.75-10.46Z"/><path class="cls-2" d="m2009.07,1595.28c-.99-10.76-4.76-18.19-9.42-24.01,20.28,8.32,24.93,22.3,22.86,28.14-2.17,6.12-7.08,8.22-13.06,6.1-10.67-3.79-23.19-20.89-39.98-39.5,13.41,23.18,16.73,34.13,14.51,40.4-1.92,5.41-6.92,7.32-13.75,4.89-14.94-5.3-30.18-30.09-38.26-49.3-1.13,11.77,1.66,20.62,6.83,29.98-18.59-9.48-27.13-24.69-22.94-36.5,1.97-5.55,6.9-6.36,12.31-4.44,11.53,4.09,29.69,23.35,39.91,48.29,3.61-11.54-.22-23.31-6-38.18-10.16-7.93-22.78-14.81-35.52-20.45-1.24-5.09-1.34-9.77,1.12-18.51,37.1,20.53,71.4,54.81,81.41,73.1Z"/><path class="cls-2" d="m1982.08,1695.75l-110.37-108.43,3.14-6.53,110.37,108.43-3.14,6.53Z"/><path class="cls-2" d="m1943.77,1733.16c-4.92,7.79-16.45,22.11-21.05,29.39-3.63,5.75-5.42,9.44-6.9,15.46-10.86-8.82-11.17-15.97-6.01-24.15,1.93-3.06,4.53-6.61,7.41-10.32-12.81-14.51-45.55-45.53-46.05-58.88-4.51,7.15-5.86,11.83-6.54,16.59-11.45-9.01-11.71-15.96-5.75-25.41,3.95-6.26,9.93-13.19,14.05-21.13,6.95,6.53,9.2,12.59,5.2,22.03,12.83,17.02,41.91,42.52,45.7,58.3,2.51-3.41,4.98-7.04,7.47-11,4.19-6.64,5.48-12.08,4.53-18.21,13.12,8.64,13.98,17.75,7.93,27.32Z"/><path class="cls-2" d="m1838.46,1712.91c10.33,14.81,25.83,30.55,40.78,45.3-.37-9.43-2.72-16.77-7.02-25.79,11.07,8.14,18.05,17.89,19.69,26.4,1.64,9.26-2.75,16.94-9.39,23.83-11.48-12.07-29.1-30.02-44.34-55.28.16,6.22.72,12.18,1.83,20.65,7.16,11.99,15.32,25.89,28.52,40.43.69,7.77-2.13,15.89-6.17,20.4-20.91-25.81-38.92-66.54-35.56-107.78-10.69,12.16-12.97,17.84-12.82,25.57-10.23-9.97-12.37-20.57-4.45-30.86,5.8-7.54,13.8-14.72,19.02-18.52,7.26,11.12,10.42,22.12,9.92,35.64Z"/><path class="cls-2" d="m1809.33,1844.63c-15.21-14.24-33.67-61.92-18.19-78.45,3.1-3.31,9.27-3.94,14.3-.47-6.96-10.24-9.85-16.87-11.37-23.87-6.93,6.96-10.18,11.98-11.21,19.49-11.09-12.24-8.08-21.42-1.18-29.23,4.22-4.73,9.52-9.29,12.33-11.62,18.26,25.57,39.39,73.48,41.86,92.94,3.11-9.29,2.27-15.25.23-25.43,15.31,17.01,15.99,31.31,9.49,38.25-5.57,5.95-14.58-1.65-22.64-22.22,7.93,29.76,6.75,39.2,2.72,43.5-4.23,4.52-10.27,2.8-16.33-2.88Zm-12.79-57.05c-2.25,6.16,8.98,29.29,20.77,43.43,1.36-17.14-2.61-36.98-8.78-58.68-5.11,3.91-9.75,8.87-11.99,15.25Z"/><path class="cls-2" d="m1787.02,1882.82c-8.23,7.33-16.77,7.06-22.86,1.36-11.78-10.94-12.45-36.44,6.94-57.57-1.92-3.75-4.3-7.09-7.12-10.04-8.79,7.84-14.19,21.75-15.19,35.38-9-16.45-8.39-36.42,4.12-47.57,7.89-7.03,16.92-5.98,24.44,2.69,9.93,11.37,14.55,35.38,5.96,56.38,4.71-5.61,8.99-13.07,11.74-22,5.69,12.73,5.71,29.1-8.04,41.36Zm-14.62-9.82c2.22-1.37,4.56-3.05,6.81-5.06.32-13.03-1.4-25.86-5.92-36.6-5.63,17.97-5.1,31.04-.89,41.66Z"/><path class="cls-2" d="m1726.67,1877.82c-3.79-6.72-8.57-12.44-13.67-15.62-1.09,11.12,1.86,37.43,8.26,79.66,2.84-2.01,5.46-4.06,7.34-6.17,5.71-6.2,7.13-14.3,6.67-20.3,10.85,10.97,11.58,20.74,3.57,29.5-6.86,7.48-18.83,12.87-28.79,17.49-7.6-17.92-14.36-33.68-26.65-62.77,1.96,25.33,4,56.35,4.73,74.75-4.13,6.97-8.37,10.43-15.38,14.05-.69-6.92-1.98-13.1-6.34-26.82l-13.35-42.42c-2.6-8.21-3.99-12.88-3.56-16.39-5.73,4.77-8.61,10.05-10.19,17.35-6.81-11.96-8.19-20.77-2.3-27.8,3.97-4.71,11.54-9.42,20.66-14.22,2.43,5.44,3.69,10.74,2.5,17.25,1.22,4.96,7.83,27.47,15.44,53.47,1.08,3.62,1.99,6.98,2.9,10.35-1.68-27.12-3.77-57.94-6.01-84.53.99-4.59,3.22-7.83,8.38-11.52,8.86,20.7,22.13,51.31,31.5,74.19-6.23-28.33-10.35-49.2-12.48-66.7-1.9-15.48,1.75-21.25,7.08-24.69,10.02-6.47,25.19,9.81,19.66,31.88Z"/><path class="cls-2" d="m1619.79,1989.5c-9.95,4.74-18.07,2.09-22.33-5.08-8.25-13.8-1.78-38.47,22.75-53.34-.8-4.13-2.15-8.01-4.04-11.63-10.63,5.07-19.7,16.92-24.47,29.73-4.05-18.31,2.12-37.31,17.25-44.53,9.54-4.55,17.92-1.01,22.72,9.41,6.36,13.7,4.08,38.04-10.03,55.81,6.09-4.07,12.28-10.04,17.42-17.84,1.9,13.81-2.65,29.53-19.28,37.46Zm-11.3-13.52c2.51-.7,5.23-1.66,7.96-2.96,3.95-12.42,5.88-25.22,4.54-36.79-10.43,15.68-13.57,28.38-12.5,39.75Z"/><path class="cls-2" d="m1580.52,1928.69c7.68,14.71,6.42,48.33-2.71,68.93-3.31,7.18-8.13,11.53-12.81,13.26-5.81,2.14-10.99-.13-14.25-5.04-1.03,14.22,0,23.98-2.19,31.55,6.33-3.79,8.35-9.2,11.65-21.2,5.76,18.64.73,33.37-7.16,35.96-6.2,1.97-10.79-1.33-13-7.75-5.47-15.69,1.34-76.15,6.49-95.76-8.13,10.25-11.19,18.94-13.8,28.44-5.79-25.71-.75-39.96,8.74-43.47,4.11-1.52,7.9.46,10,4.84,1.98,3.62,2.93,7.93,3.46,21.58,3.86-25.73,8.92-34.68,14.59-36.78,3.97-1.46,8.17-.12,11.02,5.43Zm-28.62,68.52c8.47-1.04,14.29-2.7,17-6.28,4.54-6.02,4.28-32-.04-48.92-6.69,13.26-13.21,33.53-16.96,55.2Z"/><path class="cls-2" d="m1516.52,1959.59c-11.14,7.22-17.61,15.47-23.4,27.77-1.35-27.07,10.03-41.26,18.9-43.75,5.96-1.68,10.01,1.57,11.62,8.96,3.46,16.75-8.71,47.63-17.13,60.04,9.68-4.61,15-11.91,19.83-23.15.78,18.92-6.11,36.23-16.58,39.18-5.38,1.51-9.84-2.09-11.64-8.49-4.3-15.26,8.2-46.08,18.4-60.55Zm1.26,88.59c-1.98,1.34-5.01,2.82-7.62,3.56-4.36,1.23-6.97-.23-7.81-3.76-.71-3.09-.6-6.58-.48-10.06,4.98-.15,9.19-1.33,15.12-4.26.71,5.29,1.18,10.33.79,14.52Z"/><path class="cls-2" d="m1485.51,1961.26c4.72,16.31-1.74,49.42-16.45,67.83-5.81,7.29-14.03,11.66-21,13.02-6.22,1.21-12.92.83-16.08.37.39-20.85,6.89-48.27,15.41-65.32-8,6.33-13.43,15.55-17.17,23.97-1.73-22.28,4.36-39.16,16.21-41.48,11.12-2.17,11.36,16.4,7.07,27.54,7.82-19.83,15.16-31.88,22.72-33.36,4.59-.9,7.63,2.05,9.29,7.42Zm-28.02,33.01c-5.47,10.61-9.91,24.09-12.62,32.31,7.88-.62,14.59-3.31,17.83-6.4,5.74-5.27,10.81-32.88,9.43-47.84-5.57,6.93-10.64,14.08-14.64,21.94Z"/><path class="cls-2" d="m1411.71,1968.13c-1.73,11.78-4.52,19.4-13.21,31.22-7.04,9.59-29.15,28.43-34.15,45.29,19.72.56,25.99-4.89,31.85-20.29,7.94,20.02-3.93,36.01-21.71,37.28-15.36,1.1-23.71-7.69-24.1-19.47-.68-17.97,18.04-37.78,47.96-57.63-29.16.87-34.93,2.65-40.72,16.99-2.77-13.28-.75-20.99,2.16-24.83,4-5.43,8.61-6.67,17.19-7.29,11.45-.82,23.22.76,34.73-1.27Z"/><path class="cls-2" d="m1345,2011.12c-5.69,28.89-16.86,51.93-41.02,51.46-13.13-.25-22.16-10.09-17.98-31.01,4.01-20.16,14.47-37.48,28.38-46.12-8.77.74-15.46,2.72-20.18,5.05,4.75-11.54,15.19-20.4,32.56-20.06,20.98.41,23.43,14.5,18.24,40.68Zm-21.55-26.09c-11.35,17-21.65,41.87-24.46,62.2,9.63,1.85,15.55.15,18.96-4.17,6.5-8.18,15.21-37.01,16.22-57.68-3.92-.23-7.39-.44-10.72-.36Z"/><path class="cls-2" d="m1297.04,1972.56c-3.84,11.27-7.95,18.26-18.64,28.31-8.65,8.15-33.82,22.68-41.79,38.35,19.29,4.12,26.45-.1,35-14.19,4.19,21.13-10.39,34.7-28.1,32.73-15.31-1.7-21.93-11.86-20.18-23.51,2.58-17.79,24.58-33.88,57.59-47.99-28.83-4.42-34.83-3.72-43.12,9.34-.32-13.56,3.07-20.78,6.62-24.03,4.92-4.62,9.67-5,18.23-4.05,11.41,1.27,22.69,4.95,34.38,5.04Z"/><path class="cls-2" d="m1241.49,1967.19c-4.83,10.88-9.56,17.47-21.1,26.53-9.35,7.35-35.71,19.56-45.05,34.46,18.85,5.83,26.35,2.27,36.13-11,2.28,21.42-13.45,33.63-30.92,30.09-15.09-3.06-20.78-13.77-17.99-25.22,4.17-17.49,27.51-31.55,61.66-42.64-28.32-6.98-34.36-6.82-43.78,5.44.9-13.53,4.92-20.42,8.74-23.34,5.31-4.16,10.08-4.12,18.52-2.4,11.25,2.28,22.16,6.96,33.79,8.09Z"/><path class="cls-2" d="m1080.16,2044.42l91.57-124.71,6.91,2.18-91.57,124.71-6.91-2.18Z"/><path class="cls-2" d="m1017.6,2001.53c4.78-7.14,10.25-11.33,19.31-8.67,11.01-13.8,35.46-45.45,50.69-53.11-5.55-2.77-11.13-6.21-17.49-9-6.77-2.97-13.35-1.9-21.64,2.7,7.38-18.69,16.27-22.04,27.4-17.33,5.73,2.35,15.53,8.96,23.68,12.54,6.5,2.85,11.72,4.49,18.09,6.13-6.89,8.19-12.6,10.3-18.88,9.19-15.91,17.09-38.87,48.73-53.63,53.8,7.37,2.74,12.42,3.64,16.27,3.51-8.61,11.72-15.56,13.29-24,9.58-8.85-3.88-12.83-6.46-19.8-9.35Z"/><path class="cls-2" d="m1047.44,1924.73c-9.11,13.94-31.2,24.83-51.69,23.49,7.91,3.17,16.86,4.16,25.45,3.92-12.25,11.51-28.09,13.61-40.77,6.58-7.79-4.32-13.58-12.88-6.33-25.95,7.39-13.34,26.74-26.44,41.06-31.11,12.27-4.08,21.56-4.63,29.22-.38,8.45,4.68,9.14,14.04,3.06,23.45Zm-27.03-12.91c-11.22,4.66-27.16,20.34-35.59,29.65,1.82,1.7,3.86,3,6.03,4.38,19.4-6.34,34.36-16.52,43.97-31.05-5.75-3.02-10.17-4.08-14.41-2.98Z"/><path class="cls-2" d="m997.79,1887.02c5.28-.81,10.77-2.21,14.17-3.2-13,21.47-39.24,26.37-79.84,21.79,16.42,17.25,25.22,16.07,43.85,8.41-10.75,16.24-27.8,25.34-38.78,17.58-5.55-3.92-8.37-11.64-11.26-20.32-4.65.69-9.14,2.22-14.05,4.38,11.18-26.88,43.9-29.24,78.68-23.3-19.09-19.23-28.99-16.42-44.18-10.09,13.4-17.74,26.16-24.8,38.06-16.79,8.39,5.65,11.58,14.17,13.35,21.55Z"/><path class="cls-2" d="m958.99,1859.88c-9.53,14.06-39.12,30.25-62.69,30.7-9.32.19-17.94-3.34-23.44-7.83-4.91-4.01-8.89-9.4-10.56-12.13,16.29-13.02,41.53-25.55,60.09-29.9-9.98-2.1-20.54-.39-29.41,2.11,16.03-15.57,32.9-21.68,42.26-14.04,8.77,7.16-5.36,19.22-16.67,23.04,20.26-6.66,34.21-8.72,40.18-3.84,3.63,2.96,3.3,7.18.24,11.89Zm-43.3-.45c-11.65,2.57-24.87,7.77-32.92,10.95,5.51,5.67,11.87,9.1,16.32,9.62,7.73,1.04,32.2-12.7,42.83-23.32-8.89.15-17.63.82-26.23,2.76Z"/><path class="cls-2" d="m784.4,1846.71l139.29-67.35,5.09,5.16-139.29,67.35-5.09-5.16Z"/><path class="cls-2" d="m754.74,1788.37c-8.03-9.63-16.22-23.15-19.14-28.15,15.24-4.74,47.13-22,61.55-28.78,9.38-4.41,14.44-5.27,18.65-4.52-5.04-5.27-10.65-6.84-17.55-7.61,16.51-10.5,25.94-7.69,32.97,1.38,4.25,5.49,6.49,9.11,9.47,12.72-5.39,2.65-11.69,3.9-17.56,2.72-4.05,1.42-11.01,4.52-15.45,6.43-2.04.82-4.11,1.85-6.18,2.88,4.32,5.82,8.76,11.55,13.41,17.31l12.16-2.55c6.53-1.43,10.43-1.58,14.89-.26-4.33-4.86-7.89-6.49-14.5-7.87,12.93-7.72,20.78-9.42,28.74.85,4.25,5.49,8.06,11.14,11.04,14.75-5.1,2.04-11.12,3.65-18.21,1.89-16.77,3.25-50.75,10.67-65.92,10.58-9.79-.06-16.15-1.62-20.66-4.24,9.22,10.43,17.88,15.18,31.04,14.92-12.99,15.03-26.05,12.73-38.76-2.44Zm34.99-37.43c-12.26,5.87-24.61,11.62-35.72,14.3.81,1.29,1.82,2.6,2.84,3.91l.19.24c5.69.94,14.03,1.35,26.02-.68,4.85-.89,11.11-1.93,18.07-3.3-3.91-4.8-7.61-9.58-11.4-14.47Z"/><path class="cls-2" d="m748.99,1712.24c5.27,5.45,13.46,7,25.06,10.37-14.8,5.31-35.13,6.2-41.88-4.89-3.54-5.8,1.65-11.79,16.8-13.06-17.7-1.77-28.66-6.41-32.2-12.21-2.75-4.51-1-9.47,3.41-12.69,14.17-10.4,44.64-5.09,64.41.37-9.8-9.41-19.45-12.2-28.48-13.95,19.45-8.13,36.56-5.3,43,5.28,2.99,4.9,1.48,8.82-3.05,12.12-9.02,6.38-33.96,9.55-63.75,1,8.63,12.42,19.62,14.21,32.55,18.01,13.14-1.64,24.75-4.65,39.94-11.07,5.24,1.93,11.74,8.23,14.04,12.31-23.68,10.18-52.99,11.42-69.84,8.42Z"/><path class="cls-2" d="m714.33,1649.7c4.67,5.98,12.66,8.37,23.84,12.93-15.28,3.73-35.58,2.49-41.14-9.25-2.91-6.14,2.88-11.56,18.07-11.23-17.42-3.61-27.83-9.37-30.74-15.51-2.26-4.78,0-9.52,4.72-12.26,15.18-8.86,44.93-.4,64.02,7.1-8.76-10.38-18.07-14.16-26.86-16.85,20.19-6.06,36.91-1.45,42.21,9.74,2.46,5.19.55,8.93-4.3,11.73-9.64,5.4-34.78,5.95-63.51-5.67,7.28,13.26,18.03,16.19,30.48,21.31,13.24-.26,25.1-2.03,40.87-6.83,5.01,2.47,10.81,9.42,12.68,13.71-24.61,7.65-53.89,5.81-70.34,1.08Z"/><path class="cls-2" d="m748.06,1593.22c-15.43,7.08-49.13,5.58-69.51-6.26-8.07-4.67-13.61-12.16-15.98-18.84-2.12-5.98-2.73-12.65-2.74-15.85,20.67-2.69,48.75-.32,66.87,5.59-7.44-6.97-17.36-10.99-26.24-13.44,21.78-5,39.37-1.47,43.41,9.91,3.79,10.67-14.54,13.65-26.2,11.06,20.77,4.81,33.77,10.29,36.35,17.54,1.56,4.41-.9,7.85-5.96,10.29Zm-36.78-22.84c-11.3-3.84-25.29-6.25-33.82-7.71,1.77,7.7,5.43,13.94,8.96,16.69,6.06,4.9,34.12,5.84,48.71,2.26-7.68-4.48-15.49-8.44-23.86-11.24Z"/><path class="cls-2" d="m631.11,1466.89c.91,4.44,2.08,7.13,3.76,10.02-11.71-1.45-16.96-4.53-18.93-12.6-1.79-7.96-2.18-14.35-2.09-19.92,17.12,6.81,33.32,17.35,52.56,32.2,23.2-9.4,39.51-14.76,43.35-27.57,4.69,2.58,7.89,6.86,8.89,11.74,1.61,7.84-3.13,12.51-11.96,16.8-9.54,4.58-22.7,8.83-37.89,12.88-11.72-9-25.27-17.16-37.68-23.54Zm81.25,46.49c-21.52-3.44-61.46-2.77-74.31-12,2.03,7.6,4.21,12.24,7.13,15.18-14.54-.25-19.84-5.01-21.7-14.04-1.95-9.47-2.15-14.2-3.82-21.57,8.59-.22,14.88,1.87,17.95,10.8,19.2,1.14,67.74,1.79,74.61,12.71-2.21-9.26-4.25-13.93-7.06-17.82,14.5-1.44,19.5,3.39,21.76,14.33,1.49,7.25,1.38,13.44,3.91,22.01-9.54.11-15.42-3-18.47-9.61Z"/><path class="cls-2" d="m611.14,1414.9c5.44,9.34,12,14.48,18.68,17.79-21.9,1.03-32.02-9.69-32.61-15.85-.62-6.46,2.95-10.44,9.26-11.05,11.27-1.07,29.84,9.14,52.92,18.92-21.94-15.35-29.58-23.88-30.21-30.49-.54-5.71,3.18-9.56,10.4-10.24,15.78-1.5,40.06,14.53,55.5,28.53-3.94-11.15-10.21-17.99-18.85-24.29,20.85.74,35.02,10.92,36.21,23.4.56,5.86-3.57,8.68-9.28,9.23-12.18,1.16-36.77-8.63-56.56-26.92,1.6,11.98,10.04,21.04,21.56,32.07,12.56,2.9,26.91,3.81,40.84,3.54,3.27,4.09,5.34,8.29,6.8,17.25-42.3-2.95-87.86-19.53-104.67-31.89Z"/><path class="cls-2" d="m690.91,1383.57c-16.63-.94-37.09-14.65-46.14-33.08,1.19,8.44,4.8,16.69,9.3,24.01-16.09-4.88-25.81-17.55-26.04-32.05-.14-8.91,4.39-18.19,19.34-18.44,15.25-.25,36.26,9.99,47.44,20.07,9.65,8.6,14.76,16.37,14.9,25.13.16,9.66-7.61,14.92-18.8,14.35Zm-2.29-29.87c-9.63-7.4-31.18-13.39-43.45-16.06-.56,2.43-.68,4.84-.79,7.41,15.17,13.65,31.46,21.54,48.84,22.62-.26-6.49-1.53-10.85-4.61-13.97Z"/><path class="cls-2" d="m647.62,1294.42c1.42,8.6,7.71,15.02,15.74,22.35-21.55-5.1-33.47-16.83-32.7-26.16.53-6.47,6.9-8.37,23.19-.07-14.32-10.11-21.65-18.74-21.1-25.36.36-4.36,3.87-6.5,9.73-6.02,13.54,1.11,30.29,14.91,36.28,28.73-8.99-4.98-17.62-8.72-29.29-12.4,4.78,8.27,10.56,15.41,20.38,23.03,10.95,4.99,22.62,8.67,34.69,11.17,2.85,5.84,4.96,13.44,4.45,19.61-26.73-6.58-47.92-21.65-61.38-34.88Z"/><path class="cls-2" d="m703.45,1278.08c-16.93-1.34-45.62-19.07-57.66-39.34-4.77-8.01-5.96-17.25-4.77-24.24,1.06-6.25,3.78-12.38,5.33-15.18,19.37,7.73,42.73,23.48,55.67,37.47-3.1-9.72-9.8-18.05-16.36-24.52,21.46,6.24,35.1,17.9,33.08,29.81-1.89,11.17-19.35,4.83-28.27-3.11,15.8,14.32,24.48,25.44,23.19,33.03-.78,4.62-4.61,6.42-10.22,6.08Zm-20.99-37.87c-7.99-8.86-19.04-17.78-25.78-23.21-2.21,7.59-2.05,14.81-.3,18.94,2.91,7.23,26.95,21.73,41.43,25.71-4.52-7.66-9.42-14.92-15.35-21.44Z"/><path class="cls-2" d="m708.09,1217.7c-5.85-1.51-10.76-5.43-14.9-11.17,13.1,1.19,17.82-2.58,20.71-16.81-15.76-3.59-27.55,6.46-43.49,2.36-9.94-2.56-20.92-14.44-17.26-28.62,2.41-9.36,9.94-12.56,18.13-10.45,6,1.54,10.22,5.13,14.24,10.69-11.78-2.1-18.1.64-20.87,13.8,14.76,4.43,26.38-6.14,41.73-2.19,14.48,3.73,23.51,15.88,19.4,31.82-2.34,9.07-9.07,12.79-17.69,10.57Z"/><path class="cls-2" d="m649.65,1108.43c1.05,10.76,4.87,18.16,9.56,23.96-20.33-8.2-25.06-22.16-23.02-28.01,2.14-6.13,7.04-8.26,13.02-6.18,10.69,3.73,23.31,20.75,40.21,39.27-13.54-23.1-16.93-34.04-14.74-40.31,1.89-5.42,6.88-7.36,13.72-4.97,14.97,5.21,30.35,29.92,38.55,49.08,1.07-11.78-1.78-20.61-7-29.94,18.64,9.37,27.27,24.53,23.15,36.36-1.94,5.56-6.87,6.4-12.29,4.52-11.55-4.02-29.82-23.18-40.18-48.05-3.55,11.56.36,23.31,6.22,38.14,10.21,7.87,22.87,14.68,35.64,20.25,1.27,5.08,1.4,9.76-1.01,18.51-37.21-20.32-71.71-54.4-81.83-72.63Z"/><path class="cls-2" d="m676.07,1007.8l110.99,107.78-3.11,6.55-110.99-107.78,3.11-6.55Z"/><path class="cls-2" d="m714.17,970.15c4.87-7.82,16.33-22.21,20.88-29.51,3.59-5.77,5.36-9.47,6.81-15.5,10.91,8.76,11.26,15.91,6.15,24.11-1.92,3.08-4.49,6.63-7.35,10.37,12.89,14.44,45.81,45.26,46.39,58.61,4.47-7.18,5.79-11.87,6.44-16.62,11.5,8.95,11.8,15.89,5.89,25.38-3.91,6.28-9.86,13.25-13.93,21.21-6.99-6.49-9.27-12.54-5.33-22-12.92-16.95-42.15-42.28-46.03-58.04-2.49,3.43-4.94,7.07-7.41,11.04-4.15,6.66-5.41,12.11-4.42,18.24-13.17-8.56-14.08-17.67-8.09-27.28Z"/><path class="cls-2" d="m819.59,989.81c-10.41-14.75-26.01-30.41-41.04-45.06.42,9.43,2.82,16.75,7.16,25.75-11.12-8.08-18.15-17.79-19.84-26.29-1.69-9.25,2.65-16.95,9.25-23.89,11.55,12.01,29.27,29.85,44.65,55.03-.2-6.22-.79-12.18-1.94-20.64-7.23-11.95-15.47-25.81-28.75-40.27-.73-7.77,2.04-15.9,6.06-20.43,21.06,25.69,39.29,66.31,36.17,107.58,10.62-12.22,12.87-17.91,12.68-25.64,10.29,9.92,12.48,20.5,4.62,30.84-5.76,7.57-13.72,14.79-18.91,18.63-7.32-11.07-10.54-22.06-10.12-35.58Z"/><path class="cls-2" d="m847.97,857.92c15.29,14.15,34.02,61.72,18.64,78.35-3.08,3.32-9.25,3.99-14.3.55,7.02,10.2,9.95,16.82,11.5,23.81,6.89-7,10.11-12.04,11.1-19.56,11.16,12.18,8.2,21.37,1.35,29.22-4.2,4.76-9.47,9.34-12.26,11.69-18.4-25.46-39.81-73.25-42.38-92.71-3.06,9.31-2.19,15.26-.08,25.43-15.4-16.93-16.17-31.21-9.71-38.2,5.54-5.98,14.59,1.57,22.76,22.09-8.1-29.71-6.97-39.16-2.97-43.48,4.2-4.54,10.25-2.85,16.35,2.79Zm13.11,56.98c2.22-6.18-9.15-29.24-21.02-43.31-1.26,17.15,2.82,36.97,9.11,58.63,5.08-3.94,9.7-8.92,11.91-15.31Z"/><path class="cls-2" d="m870.06,819.61c8.19-7.38,16.73-7.15,22.85-1.49,11.84,10.88,12.66,36.36-6.61,57.6,1.95,3.74,4.34,7.07,7.18,9.99,8.75-7.89,14.06-21.83,14.98-35.47,9.1,16.4,8.6,36.37-3.85,47.59-7.85,7.08-16.89,6.08-24.46-2.55-10-11.31-14.75-35.29-6.28-56.35-4.67,5.64-8.91,13.12-11.62,22.07-5.76-12.7-5.88-29.06,7.81-41.4Zm14.68,9.74c-2.21,1.38-4.54,3.08-6.79,5.1-.25,13.03,1.55,25.85,6.13,36.56,5.53-18,4.92-31.07.66-41.66Z"/><path class="cls-2" d="m930.43,824.28c3.83,6.7,8.64,12.39,13.76,15.54,1.03-11.13-2.08-37.42-8.72-79.62-2.83,2.03-5.44,4.1-7.3,6.21-5.67,6.23-7.04,14.34-6.56,20.34-10.91-10.91-11.7-20.67-3.74-29.48,6.81-7.52,18.76-12.98,28.69-17.66,7.71,17.87,14.55,33.6,27.01,62.62-2.11-25.32-4.33-56.33-5.16-74.72,4.09-7,8.31-10.48,15.29-14.14.73,6.92,2.06,13.09,6.49,26.78l13.59,42.34c2.65,8.19,4.07,12.85,3.66,16.37,5.7-4.8,8.55-10.1,10.09-17.41,6.88,11.92,8.31,20.73,2.46,27.79-3.94,4.74-11.48,9.48-20.57,14.34-2.46-5.43-3.75-10.71-2.6-17.24-1.25-4.95-7.99-27.42-15.75-53.38-1.1-3.61-2.03-6.97-2.96-10.33,1.84,27.12,4.11,57.92,6.5,84.5-.96,4.6-3.17,7.84-8.32,11.57-8.98-20.65-22.43-51.18-31.93-74.01,6.39,28.29,10.64,49.14,12.86,66.63,1.99,15.47-1.62,21.26-6.93,24.73-9.99,6.52-25.25-9.66-19.85-31.77Z"/><path class="cls-2" d="m1036.67,711.99c9.92-4.8,18.06-2.2,22.36,4.95,8.33,13.75,2,38.45-22.44,53.47.82,4.13,2.19,8,4.1,11.6,10.6-5.13,19.6-17.03,24.3-29.87,4.15,18.29-1.9,37.32-16.99,44.62-9.51,4.6-17.91,1.12-22.77-9.28-6.44-13.66-4.3-38.01,9.71-55.86-6.06,4.11-12.22,10.11-17.32,17.94-1.98-13.8,2.48-29.55,19.06-37.57Zm11.37,13.45c-2.51.71-5.22,1.69-7.94,3-3.88,12.44-5.73,25.25-4.33,36.82,10.33-15.74,13.4-28.46,12.27-39.82Z"/><path class="cls-2" d="m1076.29,772.56c-7.77-14.66-6.7-48.29,2.31-68.94,3.26-7.2,8.07-11.58,12.73-13.34,5.8-2.18,10.99.06,14.28,4.95.94-14.23-.14-23.98,2.01-31.57-6.31,3.82-8.3,9.25-11.52,21.27-5.86-18.6-.93-33.37,6.95-36.01,6.18-2,10.8,1.26,13.05,7.68,5.56,15.65-.89,76.15-5.93,95.79,8.07-10.29,11.08-19.01,13.64-28.52,5.94,25.67.99,39.96-8.48,43.52-4.1,1.54-7.9-.42-10.02-4.78-2-3.6-2.98-7.92-3.59-21.56-3.71,25.75-8.72,34.73-14.37,36.86-3.96,1.49-8.17.17-11.05-5.36Zm28.22-68.68c-8.46,1.08-14.28,2.79-16.96,6.38-4.5,6.05-4.09,32.03.32,48.92,6.62-13.3,13.02-33.61,16.64-55.29Z"/><path class="cls-2" d="m1140.11,741.29c11.1-7.28,17.52-15.57,23.24-27.9,1.5,27.07-9.79,41.32-18.65,43.86-5.95,1.71-10.02-1.52-11.67-8.9-3.56-16.73,8.43-47.68,16.79-60.14-9.66,4.66-14.93,12-19.7,23.27-.89-18.91,5.9-36.27,16.35-39.27,5.37-1.55,9.86,2.03,11.69,8.42,4.39,15.24-7.94,46.12-18.05,60.66Zm-1.77-88.58c1.97-1.35,4.99-2.85,7.61-3.6,4.35-1.25,6.97.19,7.83,3.72.73,3.09.64,6.57.54,10.06-4.98.18-9.19,1.39-15.09,4.34-.74-5.29-1.24-10.33-.88-14.52Z"/><path class="cls-2" d="m1171.13,739.44c-4.82-16.28,1.45-49.42,16.06-67.92,5.77-7.32,13.96-11.74,20.92-13.14,6.22-1.25,12.91-.9,16.08-.46-.27,20.85-6.61,48.3-15.03,65.4,7.96-6.38,13.34-15.62,17.03-24.06,1.86,22.27-4.13,39.18-15.97,41.56-11.1,2.23-11.45-16.33-7.23-27.5-7.71,19.88-14.98,31.97-22.52,33.49-4.59.92-7.64-2-9.34-7.36Zm27.83-33.17c5.41-10.64,9.77-24.15,12.43-32.38-7.88.66-14.57,3.39-17.79,6.51-5.71,5.31-10.62,32.94-9.15,47.89,5.53-6.97,10.56-14.14,14.51-22.02Z"/><path class="cls-2" d="m1244.88,732.15c1.66-11.79,4.41-19.42,13.03-31.3,6.98-9.63,28.99-28.59,33.9-45.48-19.72-.45-25.96,5.03-31.74,20.47-8.06-19.98,3.73-36.03,21.5-37.4,15.36-1.19,23.76,7.56,24.21,19.33.78,17.96-17.82,37.88-47.63,57.9,29.15-1.04,34.92-2.85,40.62-17.22,2.84,13.26.86,20.99-2.02,24.84-3.97,5.46-8.57,6.72-17.15,7.38-11.44.88-23.22-.63-34.72,1.47Z"/><path class="cls-2" d="m1311.3,688.71c5.6-28.91,16.7-51.98,40.86-51.59,13.14.21,22.19,10.02,18.08,30.95-3.95,20.17-14.35,37.52-28.23,46.21,8.77-.76,15.45-2.77,20.17-5.11-4.72,11.55-15.13,20.45-32.49,20.17-20.99-.34-23.48-14.42-18.37-40.62Zm21.63,26.02c11.3-17.03,21.52-41.94,24.27-62.28-9.64-1.82-15.55-.1-18.95,4.22-6.48,8.2-15.1,37.06-16.04,57.73,3.92.21,7.39.42,10.72.32Z"/><path class="cls-2" d="m1359.51,727.06c3.77-11.29,7.85-18.31,18.48-28.42,8.61-8.2,33.69-22.87,41.57-38.6-19.32-4.01-26.45.25-34.92,14.39-4.31-21.1,10.19-34.76,27.91-32.9,15.32,1.61,22,11.73,20.31,23.4-2.48,17.81-24.38,34.03-57.32,48.33,28.86,4.25,34.86,3.52,43.07-9.59.4,13.56-2.95,20.8-6.48,24.07-4.89,4.65-9.64,5.06-18.2,4.16-11.41-1.2-22.72-4.82-34.41-4.84Z"/><path class="cls-2" d="m1415.08,732.12c4.77-10.91,9.46-17.53,20.95-26.65,9.31-7.4,35.6-19.76,44.85-34.72-18.88-5.72-26.36-2.12-36.07,11.21-2.4-21.4,13.26-33.71,30.74-30.26,15.11,2.98,20.86,13.65,18.13,25.12-4.07,17.51-27.33,31.7-61.41,43,28.36,6.82,34.4,6.62,43.75-5.69-.82,13.54-4.8,20.45-8.61,23.39-5.29,4.19-10.06,4.17-18.5,2.51-11.26-2.22-22.2-6.84-33.84-7.9Z"/><path class="cls-2" d="m1575.99,653.96l-90.86,125.23-6.92-2.14,90.86-125.23,6.92,2.14Z"/><path class="cls-2" d="m1638.78,696.49c-4.74,7.16-10.19,11.39-19.26,8.78-10.93,13.87-35.2,45.65-50.39,53.4,5.56,2.73,11.16,6.14,17.54,8.9,6.79,2.94,13.36,1.83,21.62-2.83-7.27,18.73-16.15,22.14-27.3,17.48-5.74-2.32-15.58-8.87-23.75-12.41-6.51-2.82-11.75-4.42-18.12-6.02,6.85-8.23,12.54-10.37,18.83-9.3,15.82-17.18,38.59-48.96,53.32-54.11-7.39-2.7-12.44-3.57-16.29-3.42,8.54-11.77,15.49-13.38,23.94-9.72,8.87,3.83,12.87,6.38,19.86,9.24Z"/><path class="cls-2" d="m1609.36,773.45c9.03-13.99,31.06-25.01,51.55-23.79-7.93-3.13-16.88-4.07-25.47-3.77,12.18-11.58,28.01-13.77,40.73-6.82,7.82,4.27,13.65,12.8,6.48,25.92-7.32,13.38-26.59,26.6-40.88,31.34-12.25,4.15-21.53,4.75-29.21.55-8.48-4.64-9.22-13.99-3.2-23.43Zm27.1,12.75c11.19-4.73,27.04-20.5,35.42-29.85-1.83-1.69-3.88-2.98-6.06-4.34-19.36,6.45-34.26,16.72-43.79,31.3,5.77,2.98,10.19,4.02,14.42,2.89Z"/><path class="cls-2" d="m1659.25,810.88c-5.28.84-10.76,2.27-14.15,3.28,12.88-21.54,39.09-26.6,79.71-22.24-16.52-17.15-25.31-15.93-43.9-8.16,10.66-16.3,27.65-25.49,38.68-17.8,5.57,3.89,8.43,11.59,11.37,20.26,4.65-.72,9.13-2.27,14.02-4.46-11.03,26.94-43.73,29.49-78.54,23.75,19.2,19.12,29.08,16.26,44.24,9.83-13.3,17.81-26.02,24.95-37.96,17-8.42-5.6-11.66-14.1-13.47-21.47Z"/><path class="cls-2" d="m1698.2,837.8c9.45-14.11,38.95-30.47,62.51-31.05,9.32-.24,17.96,3.24,23.48,7.69,4.94,3.98,8.95,9.35,10.63,12.07-16.21,13.11-41.38,25.79-59.91,30.24,9.99,2.05,20.54.28,29.39-2.28-15.94,15.66-32.78,21.86-42.18,14.28-8.81-7.11,5.25-19.24,16.54-23.13-20.22,6.78-34.16,8.91-40.16,4.07-3.64-2.94-3.34-7.16-.3-11.89Zm43.3.21c11.64-2.64,24.82-7.91,32.85-11.13-5.54-5.64-11.92-9.04-16.37-9.53-7.73-1-32.13,12.88-42.69,23.57,8.89-.2,17.62-.92,26.21-2.91Z"/><path class="cls-2" d="m1872.87,849.98l-138.9,68.15-5.12-5.13,138.9-68.15,5.12,5.13Z"/></g></svg>