<?xml version="1.0" encoding="UTF-8"?><svg id="Layer_5" xmlns="http://www.w3.org/2000/svg" viewBox="0 0 2672.51 2672.51"><defs><style>.cls-1{fill:#00a55d;}.cls-2{fill:#fff;}</style></defs><circle class="cls-1" cx="1336.25" cy="1336.25" r="1213.19"/><path class="cls-2" d="m1134.13,439.07l42.14-96.3c17.3-39.95,40.26-84.17,73.19-110.97-14.17-4.08-32.9-4.9-57.22-1.03-89.44,14.25-156.75,90.47-148.07,152.9,2.8,20.26,13.15,32.14,30.46,29.38,26.38-4.2,45.17-50.72,44.7-90.8l4.53-.72c1.95,44.06-18.58,92.97-49.9,97.96-21.84,3.48-38.63-9.06-42.16-33.86-9.79-69.44,62.94-146.1,160.21-161.6,26.38-4.2,48.12-3.02,65.38,1.84,9.1-6.52,19.71-11.59,30.64-14.6,7.29-2.01,18.63-5.08,34.23-7.99l1.27,5.29c-14.77,2.78-26.12,5.85-38.84,10.84-6.74,2.76-12.6,5.81-18.32,9.68,32.98,13.34,45.6,42.18,41.9,69.39-3.07,25.85-21.55,58.37-67.77,73.34,47.69-.41,66.12,41.03,57.22,85.97-7.97,40.15-38.5,76.71-83.01,83.8-26.38,4.2-41.73-7.3-44.23-22.96-1.84-11.54,1.83-25.65,10.48-35.05l3.15,1.19c-6.24,8.6-10.3,20.24-8.27,33.01,1.9,11.95,14.39,21.37,35.41,18.03,32.97-5.25,56.32-36.44,65.43-82.69,8.12-41.86-12.54-78.72-46.73-75.81-5.84.51-11.89,2.32-17.18,3.58l-1.13-4.47,9.76-2.4c36.98-9.27,58.87-46.99,63.99-73.16,5.19-25.76-.03-53.24-26.91-65.44-18.85,16.95-33.89,47.24-62.42,112.21l-39.41,89.53c-35.02,79.96-58.18,122.95-114.64,131.94-30.09,4.79-55-16.01-51.16-57.65h0c3.14,39.27,24.62,55.54,50.17,51.46,34.62-5.51,54.04-34.81,93.11-123.86Z"/><path class="cls-2" d="m1317.98,452.8c9.79-46.14,57.78-87.23,100.16-77.85,28.93,6.41,37.82,24.19,29.82,46.78l-3.44.09c4.96-22.41-3.69-35.44-22.44-39.59-40.34-8.93-84.35,33.47-93.96,78.8-6.27,30.24,6.11,49.65,35.44,56.15,33.41,7.4,64.09-11.46,147.6-79.74,62.11-50.79,163.9-132.13,237.32-139.39-39.39-7.44-95.13-27.9-126.1-34.76-49.3-10.92-98.51-6.85-126.67,41.2-12.3,20.79-13.59,51.71-.89,75.46l-2.17,2.08c-22.97-25.6-21.73-62.09-6-86.82,24.19-37.82,75.56-51.67,138.72-37.68,38.71,8.57,100.16,34.14,152.95,38.99l1,3.21c-34.62,7.72-40.63,21.35-79.21,70.09l-55.22,69.85c-47.39,59.61-82.63,97.12-140.84,105.18l48.9,10.83c61.12,13.53,94.11,1.6,107.98-32.09,8.45-20.79,2.92-34.41-.44-42.42l2.49-1.59c5.98,7.74,10.89,28.06,2.8,47.21-15.14,35.55-48.99,49.43-114.18,34.99l-68.86-15.25.13-6.38c53.78.37,91.36-43.89,134.64-98.43l1.76-2.17-77.83-17.23-7.83,6.39c-85.41,69.15-127.57,105.12-172.8,95.11-37.08-8.21-49.37-39.57-42.83-71.04Zm305.5-18.71l43.19-54.13c30.16-37.78,53.5-65.95,77.53-76.02-63.59,11.14-136.75,65.48-196.51,113.37l75.79,16.78Z"/><path class="cls-2" d="m1645.04,559.57c11.72,8,24.78,19.96,41.18,33.69,30.48,7.17,66.95-3.3,136.73-32.96l96.19-40.94c41.41-17.71,88.71-34.42,133.22-29.29-7.73-12.36-20.67-25.24-40.31-38.65-74.78-51.08-173.94-45.02-212.88,9.76-11.88,16.65-12.65,33.31,1.48,42.96,22.06,15.07,68.14-6.52,95.67-35.73l3.45,2.35c-28.85,33.36-78.53,55.03-104.03,37.61-18.26-12.48-21.38-33.81-6.91-54.25,40.58-57.19,146.1-62.95,227.43-7.39,21.02,14.36,34.98,29.45,43.83,44.6,11.44,1.75,22.97,5.58,33.67,11.38,6.67,3.55,17.03,9.11,26.91,15.35l-2.01,3.68c-9.2-5.78-19.55-11.33-32.23-16.45-7.83-3.33-14.87-5.61-22.61-6.85,16.62,35.61,3.73,69.27-19.96,86.94-24.75,18.47-76.01,26.93-127.27-6.06,9.22,13.88,3.32,24-1.62,31.24-11.3,16.54-57.32,32.11-77.56,61.75-8,11.72-6.31,25.51,10.23,36.81,34.46,23.54,95.52-1.47,115.06-30.07,7.77-11.37,10.77-20.95,8.71-33.47l3.61-1.58c4.4,10.58.91,31.96-8.5,45.74-22.83,33.43-88.5,46.7-122.97,23.15-24.81-16.95-21.48-45.5-10.42-61.7,17.18-25.16,69.87-46.79,78.58-59.54,4.71-6.89.86-14.58-31.91-33.93l-39.44,17.03c-67.81,28.99-110.01,34.53-144.3,26.27,11.47,9.85,24.78,19.96,40.63,30.79,19.99,13.65,41.15,25.58,67.06,27.61l.08,3.59c-27.88-1.36-48.16-10.15-70.9-25.69-10.68-7.3-30.98-24.2-48.63-39.79-14.42-4.79-27.87-12.47-41.66-21.89-12.06-8.24-14.1-12.66-11.27-16.8,2.82-4.14,8.48-2.8,13.65.73Zm386.54,8.29c23.57-16.75,38.44-41.47,24.87-70.45-24.29-1.43-55.09,8.87-126.27,39.09l-41.41,17.71,19.06,13.53c49.84,35.06,92.24,22.57,123.74.12Z"/><path class="cls-2" d="m2343.01,849.19c27.25,37.46,58.98,42.76,69.08,43.16l.46,2.76c-16.72,1.84-48.17-5.21-77.39-45.37-1.96-2.7-5.31-8.01-9.55-15.25-13.9-14.14-48.27-15.98-131.24-10.84l-97.42,5.85c-73.27,4.28-115.22-4.43-144.98-24.06,7.49,13.13,16.64,27.12,27.93,42.65,14.24,19.57,30.17,37.92,53.89,48.53l-1.13,3.41c-25.81-10.64-41.95-25.74-58.15-48.01-7.61-10.46-20.81-32.86-32.2-53.47-12.21-9.69-22.31-21.44-32.13-34.94-8.59-11.81-9.02-16.66-4.97-19.61,4.05-2.95,8.93.21,12.61,5.28,8.35,11.47,16.64,27.12,27.47,45.56,26.3,16.99,64.41,19.72,140.11,15.22l104.35-6.25c71.52-4.55,109.14,3.17,129.18,20.07-20.78-34.94-55.49-93.3-77.1-123-48.37-66.48-115.57-72.3-167.26-36.24-20.16,14.15-27.39,35.41-15.85,51.28,19.4,26.66,74.17,20.36,109.66,1.76l2.21,3.04c-38.38,21.73-96.07,27.57-117.92-2.46-16.2-22.27-10.1-45.81,12.75-61.92,62.16-43.67,147.16-16.23,197.74,53.29,27.99,38.47,66.12,120.67,79.86,139.57Z"/><path class="cls-2" d="m2220.73,976.45c-6.16-21.25,4.84-38.77,28.49-45.63,46.5-13.48,142,29.67,163.73,104.63,9.3,32.07-8.85,53.41-32.1,60.15-12.83,3.72-30.84,1.55-51.09-3.87l-79.31-21.77c-24.96-6.67-37.92-6.39-48.74-3.25-10.42,3.02-15.21,10.49-11.14,24.52,5,17.24,23.08,37.63,48.55,58.06,53.33,4.1,123.18,11.22,175.2,31.78,25.49,9.99,49.18,28.76,53.6,44,4.07,14.03-7.2,21.64-29.73,20.35-52.81-3.81-126.66-36.72-181.67-75.09-32.17-1.54-62.61-3.14-85.73-6.44-62.12-8.93-113.79-58.27-132.15-121.6-16.96-58.52.1-109.1,37.09-119.38,34.19-9.48,66.28,17.29,77.9,57.37,10.46,36.08,4.21,67-19.25,92.49l-3.05-3.03c20.26-24.56,25.82-54.85,16.29-87.72-10.69-36.88-43.21-56.13-74.88-46.95-34.47,9.99-42.15,56.97-28.09,105.48,16.03,55.32,67.9,96.34,128.24,103.62,12.1,1.27,31.6,2.57,55.17,4.43-22.6-19.52-38.62-38.78-43.5-55.61-7.09-24.45,9.08-39.13,25.52-43.9,10.42-3.02,29.29-2.41,50.06,3.31l77.88,21.31c23.13,6.33,41.54,8.38,55.57,4.32,12.03-3.49,20.51-17.68,12.96-43.73-19.29-66.54-113.68-104.36-161.78-90.42-14.83,4.3-23.05,14.94-18.4,30.97,10.57,36.48,72.75,60.6,105.56,49.36l1.85,3.38c-40.24,15.58-102.68-15.43-113.02-51.11Zm215.81,263.34c20.01,1.59,29.17-2.81,26.15-13.23-3.37-11.62-26.13-27.19-55.23-36.13-40.46-12.17-90.87-16.68-138.06-19.08,52.76,35.11,120.92,64.89,167.14,68.44Z"/><path class="cls-2" d="m2441.56,1474.67c2.05-39.6-31.48-110.29-103.25-152.87l-36.89-21.97c-45.82-27.03-79.17-28.76-97.92-29.73-37.09-1.92-57.37,18.34-58.9,47.93-1.23,23.76,8.77,48.51,25.51,72.37,17.08-15,44.12-20.7,66.62-19.53,29.18,1.51,58.77,10.98,86.34,27.46,49.03,29.7,72.97,67.72,71.74,91.48-1.21,23.34-18.05,33.75-43.05,32.46-48.35-2.5-134.89-58.39-181.75-121.83-6.18,6.37-10.36,14.51-10.9,24.93-1.88,36.26,45.39,83.84,95.55,99.81l-1.05,4.12c-57.62-17.19-102.23-67.56-100.29-105.07.63-12.09,5.31-21.87,12.41-29.86-17.9-25.58-28.63-52.47-27.35-77.06,2.44-47.1,45.99-64.9,81.42-63.07,41.68,2.16,97.77,24.7,137.08,56.41,67.39,54.47,93.76,110.17,90.97,163.94-2.2,42.51-26.38,65.5-62.24,72l-1.08-3.4c35.16-9.04,55.03-29.75,57.04-68.51Zm-267.17-78.2c45.74,60.88,132.52,112.18,178.78,114.57,21.26,1.1,34.41-2.81,35.21-18.24,1.55-30.01-55.9-66.42-94.57-86.39-30.13-15.35-58.3-20.15-75.39-21.04-17.09-.88-32.75,2.9-44.04,11.09Z"/><path class="cls-2" d="m2324.02,1747.91c21.08,7.98,45.37,1.55,56.45-27.72,12.26-32.4,1.11-77.22-40.7-111.78-38.74-32.06-108.86-38.96-143.13,51.59l-2.95,7.81,75.7,101.83c47,63.3,54.81,112.22,44.62,139.15-13.44,35.52-63.1,12.27-98.29-45.67-25.13-42.08-49.5-106.19-33.32-177.27l-2.38-3.13c-20.68-27.9-44.84-64.27-54.64-103.23-14.13,19.64-27.77,40.36-35.6,61.05-16.84,44.5-12.46,83.64,9.74,106.32,9.01,9.21,22.47,16.09,33.85,15.49l.68,2.93c-24.24,5.1-90.25-38.61-57.46-125.27,9.31-24.59,28.03-46.95,46.76-69.32-4.13-22.09-3.63-44.66,4.94-67.3,13.59-35.91,29.43-42.41,41.15-37.98,10.93,4.14,14.75,17.63,7.51,36.76-7.09,18.74-25.57,41.64-44.16,67.18,8.42,27.28,27.1,52.2,43.88,75.06l12.65,17.28,1.48-3.9c35.6-94.07,115.75-93.63,160.09-56.33,39.86,33.82,50.31,82.85,35.83,121.1-12.41,32.79-39.93,40.67-64.91,31.21-25.37-9.6-49.69-45.58-47.38-83.52h3.57c-1.57,36.01,23.78,69.25,46.03,77.67Zm-190.26-242.46c-7.68,20.3-7.64,39.05-3.2,56.8,17.45-20.17,33.58-40.39,41.85-62.25,5.02-13.27,3.4-25.49-5.19-28.74-11.71-4.43-23.27,7.26-33.46,34.19Zm87.5,354.84c26.25,43.85,75.72,78.19,87.39,47.35,9.45-24.98-6.17-60.34-54.67-125.55l-66.55-89.44c-13.24,66.83,10.07,127.86,33.84,167.64Z"/><path class="cls-2" d="m2197.19,1904.01c39.3,31.72,36.38,87.83,8.06,122.9-23.59,29.23-85.88,37.95-115.16,55.62,3.67,26.02,6.45,46.5,6.81,52.7.53,13.3-1.99,23.07-5.66,27.61-4.19,5.2-9.15,6.02-14.67,1.57-13.32-10.75-20.59-62.21.91-88.84l2.62-3.25c-5.72-48.06-13.75-103.89-18.56-151.76-3-28.17-6.9-61.89-10.28-93.58-34.13,25.01-101.89,32.53-124.17,60.14-20.18,25.01-14.64,82.58,26.6,118.55,18.64,16.12,37.15,14.44,49.21-.5,16.51-20.46,13.11-60.76-12.75-94.5l4.51-2.26c27.04,30.95,31.79,78.22,10.3,104.85-15.47,19.16-39.91,18.21-58.22,2.35-39.87-34.33-50.42-110.96-22.89-145.06,30.93-38.32,96.66-45.33,125.08-59.94-4.24-28.63-7.33-52.05-7.43-58.56-.53-13.3,1.99-23.07,5.66-27.61,4.2-5.2,9.15-6.02,14.67-1.57,15.26,12.32,21.21,68.08.5,93.73l-3.47,3.64c4.13,38.73,9.22,83.6,13.48,120.84,4.58,40.17,10.25,84.97,15.36,124.5,33.42-26.12,96.66-28.71,121.04-58.91,18.09-22.41,14.3-66.23-24.67-97.68-17.54-14.16-40.28-15.88-55.22,2.63-21.5,26.63,1.68,63.04,19.13,81.95l-2.68,2.66c-21.95-19.32-43.6-60.94-21.32-88.54,21.76-26.95,54.05-19.12,73.21-3.66Zm-147-145.47c1.83,14.35,4.55,31.57,6.51,47.09,1.11-.71,1.9-1.69,2.68-2.66,19.66-24.36,5.96-66.52-2.81-73.6-5.85-4.72-8.9,8.37-6.39,29.17Zm28.72,333.2c-15.99,19.81-5.86,59.09,2.9,66.17,5.85,4.72,9.16-8.69,6.96-26.56-1.57-14.67-4.63-29.48-6.66-42.92-1.37,1.04-2.42,2.34-3.21,3.31Z"/><path class="cls-2" d="m1910.2,2209.27c7.96,45.28-17.07,91.39-67.52,124.8-23.66,15.67-43.37,26.72-62.27,36.73-7.44,9.93-16.26,17.78-26,24.23-4.87,3.23-11.71,5.75-14.01,2.27-2.76-4.18,1.65-9.6,7.68-14.1,7.43-5.42,17.63-11.17,29.22-17.85,9.91-22.08,11.98-55.99,8.42-103.69l-10.25-128.86c-30.79,38.91-41.09,73.26-40.89,121.18l-3.82-.47c-2.28-49.55,11.27-88.05,44.04-129.27-6.44-88.34,11.33-183.2,70.83-222.6,30.27-20.05,55.02-11.4,66.28,16.18,18.15,44.04-23.11,98.9-101.48,176.32-6.04,6-11.38,11.54-16.72,17.08l10.92,137.43c4.01,51.41-2.81,86.46-16.78,110.72,16.93-9.21,36.17-19.45,53.23-30.74,42.1-27.88,71.05-66.57,56.05-120.21-6.41-23.29-25.9-45.92-51.81-53.29v-3.01c31.95,2.88,59.77,27.5,64.89,57.15Zm-59.49-302.99c-45.58,30.19-63.45,118.1-57.44,196.72,4.65-5.08,9.64-10.39,15.21-15.58,74.89-73.62,109.92-134.86,92.1-173.11-7.47-16.58-23.77-25.31-49.86-8.03Z"/><path class="cls-2" d="m1554.09,2310.27c-12.76-45.83,16.05-127.51,74.34-143.74,46.64-12.99,89.78,51.68,71.04,135.31-17.31,76.3-68.75,114.03-109.76,125.45-63.12,17.58-102.9-35.03-108.48-100.19-6.87-79.1,32.11-163.17,110.37-216.59-28.08-1.28-56.23-1.24-80.76,5.59-47.84,13.32-79.64,43.84-77.15,83.87l-4.76.02c-6-46.42,27.98-86.21,77.43-99.98,29.35-8.17,66.7-4.71,101.87.22,21.93-13.04,46.36-23.31,73.3-30.81,33.77-9.4,49.01.21,52.49,12.68,2.8,10.05-2.91,23.77-27.44,30.6-23.32,6.49-61.01,1.83-100.38-1.07-74.36,51.9-110.09,139.83-105.25,222.53,3.93,63.89,32.8,102.21,87.07,87.09,38.6-10.75,82.71-49.9,100.27-128.43,17.91-80.37-21.2-130.56-58.19-120.26-42.62,11.87-74.53,94.84-59.53,148.71,3.92,14.07,10.65,27.36,22.14,32.83l-2.03,3.6c-11.66-4.55-28.88-19.69-36.6-47.43Zm129.13-234.81c-22.92,6.38-43.44,15.13-61.98,26.36,34.36,5.16,65.57,9.9,83.67,4.86,14.88-4.14,25.88-12.84,23.09-22.89-3.47-12.46-26.28-13.48-44.78-8.33Z"/><path class="cls-2" d="m1324.04,2336.9c-28.78-.84-47.95-16.44-55.3-36.28l-23.8,14.33c-8.92,5.17-19.53,11.12-30.59,17.89-3.78,14.92-7.97,29.83-13.83,44.27-22.5,55.29-56.46,74.33-81.49,73.6-12.1-.35-18.55-8.06-18.27-17.65.91-30.87,47.01-65.42,91.67-93.34,7.05-41.13,11.79-88.59,23.96-119.13,21.17-52.82,72.25-85.98,133.16-84.19,15.02.44,27.88,3.32,39.01,8.24,4.4-22,.7-37.98-6.09-48.61l2.15-2.02c8.87,10.7,12.93,28.77,8.47,52.86,39.88,21.21,51.43,68.73,40.7,106.83-15.87,57.15-61.77,84.62-109.75,83.21Zm-217.02,96.34c-.24,8.34,4.66,11.83,12.59,12.06,19.19.56,41.45-17.99,55.15-43.89,7.08-13.57,12.23-32.63,16.21-54.22-41.27,26.34-83.14,58.52-83.94,86.05Zm163.63-155.11c-.13,4.59.15,9.19,1.28,13.4,49.8-32.36,93.56-72.41,111.48-127.83,1.82-4.96,2.78-9.52,4.16-13.66-10.31-4.48-23.17-7.36-38.18-7.8-56.73-1.67-94.4,43.99-112.94,92.3-9.03,23.12-12.93,56.4-20.62,90.83l26.34-15.51c8.07-4.77,16.58-9.95,24.66-15.14-1.51-5.47-2.18-10.92-2.01-16.76.67-22.94,16.78-45.44,39.15-53.55l1.18,2.54c-19.9,9.44-33.8,27.82-34.49,51.18Zm121.44-125.87c-.97,4.56-2.36,9.12-3.75,14.09-17.95,56.68-63.4,97.51-114.48,130.67,6.97,18.58,25.34,32.89,50.37,33.63,42.55,1.25,85.37-35.07,98.46-82.7,9.36-34.38,5.59-76.66-30.59-95.68Z"/><path class="cls-2" d="m861.78,2238.38c-20.17,27.94-30.49,61.9-10.54,89.92,23.28-6.13,50.36-24.64,107.9-70.21l76.41-60.71c57.67-45.96,96.88-62.52,132.13-63.67-13.67-6.45-29.19-12.66-47.35-18.88-22.9-7.85-46.47-13.73-71.99-8.8l-1.03-3.44c27.24-6.1,49.12-3.01,75.18,5.93,12.24,4.2,36.3,15.09,57.46,25.44,15.17.79,30.18,4.62,45.97,10.03,13.82,4.74,16.95,8.46,15.33,13.2-1.62,4.74-7.43,4.95-13.36,2.92-13.42-4.6-29.19-12.66-48.65-21.54-31.29,1.18-63.66,20.96-123.06,68.1l-81.86,65.02c-34.55,27.42-74.65,55.58-117.34,63,10.47,10.65,25.69,20.28,47.41,27.73,85.67,29.38,179.65-2.81,202.63-65.96,7.03-19.21,3.34-35.47-12.85-41.03-25.27-8.66-63.96,24.39-82.74,59.87l-3.95-1.35c18.95-39.83,61.08-73.91,90.3-63.89,20.92,7.17,29.6,26.91,21.08,50.47-23.93,65.92-124.13,99.5-217.29,67.55-23.29-7.99-39.69-19.35-51.2-32.12-13.34,1.6-26.41,1.09-39.97-1.8-7.38-1.65-18.84-4.25-30.03-7.65l.96-4.08c10.4,3.12,21.86,5.73,35.44,7.3,10.15,1.28,19.39,1.35,28.24-.02-24.26-33.47-18.09-75.91.5-104.39,28.48-43.18,88.36-68.53,156.58-37.19l-2.4,3.15c-58.26-24.39-105.34,2.26-137.93,47.12Z"/><path class="cls-2" d="m974.02,2101.94c-25.53,30.9-120.44,35.51-226.04-6.72l-15.8,6.76c-36.14,15.29-64.43,36.14-82.22,57.73-13.7,16.31-19.67,34.92-4.16,46.93,39.92,30.93,119.57,13.98,150.62-22.68,9.02-10.96,9-20.48-.23-27.64-17.49-13.55-48.77-9.28-82.27,8.06l-.96-2.85c31.01-18.21,65.66-24.1,86.96-8.65,14.11,10.41,13.7,25.93,1.28,40.59-28.42,33.95-117.33,50.58-162.2,15.82-27.38-21.22-12.24-49.61,7.99-73,5.19-6.01,10.78-11.18,17.36-15.59-56.49,14.31-116.73,17.78-150.06-8.03-13.2-10.22-15.24-23.95-4.17-37.55,25.53-30.9,120.44-35.51,226.04,6.72l15.8-6.76c36.14-15.29,64.43-36.14,82.22-57.73,13.7-16.31,19.67-34.92,4.16-46.93-39.92-30.93-119.58-13.98-150.62,22.68-9.02,10.96-9,20.48.23,27.64,17.49,13.55,48.77,9.28,82.27-8.06l.96,2.85c-31.01,18.21-65.66,24.1-86.96,8.65-14.11-10.41-13.7-25.93-1.28-40.59,28.42-33.95,117.33-50.58,162.2-15.82,27.38,21.22,12.24,49.61-7.99,73-5.19,6.01-10.78,11.18-17.36,15.59,56.49-14.31,116.73-17.79,150.06,8.03,13.2,10.22,15.23,23.95,4.17,37.55Zm-458.87-22.4c-8.25,9.97-5.93,21.28,2.98,28.18,32,24.8,118.88,15.56,179.89-10.03l29.08-12.32c-87.18-35.35-185.91-37.4-211.95-5.83Zm450.87-10.2c-32-24.79-118.88-15.56-179.89,10.03l-29.08,12.32c87.18,35.35,185.91,37.4,211.95,5.83,8.25-9.97,5.93-21.28-2.98-28.18Z"/><path class="cls-2" d="m251.28,1676.1l-3.44-6.2c20.55.05,75.85-.07,174.88-3.94,68.63-2.75,114.52-4.34,138.97-17.91,9.85-5.47,15.94-16,10.27-26.22-14.17-25.55-83.41-28.19-131.85-20.88l.21-3.93c49.3-9.21,120.93-7.42,136.92,21.41,12.75,22.99-4.08,39.97-20.5,49.08-21.17,11.74-78.82,17.95-123.85,17.63-46.54-.44-98.02,1.39-140.62-3.13,64.24,16.86,101.12,27.43,141.78,34.47,57.76,9.48,141.54,24.58,216.49,34.07l-1.1,4.9c-39.73,1.51-82.87,10.65-116.6,21.25l-76.67,24.39c-21,6.88-51.53,18.09-88.54,17.62,51.47,11.06,111.07,6.64,176.74,8.87,96.36,3.35,153.35,8.01,176.02,48.88,17.01,30.66-1.21,58.9-27.65,74.04-36.66,20.81-103.02,15.62-124.07-22.34-14.37-25.91-4.31-43.9,15.28-53.34l2.35,2.51c-20.07,11.13-24.62,27.02-15.31,43.81,20.85,37.59,87.09,35.69,121.2,16.29,26.08-14.94,35.49-34.96,22.13-59.05-16.8-30.29-55.71-40.21-150.77-43.8-83.83-3.14-165.35,3.9-229.67-19.12,11.78,22.1,20.84,50.48,32.18,70.92,19.03,34.31,51.2,61.33,101.35,50.21,30.89-7.11,51.05-20.68,55.33-60.28l3,.25c.09,41.47-26.07,67.44-60.21,73.01-39.53,6.18-82.52-20.57-105.4-61.81-14.58-26.28-20.8-58.14-40.85-85.68l3.57-3.89c28.41,13.36,50.91,10.9,109.25-9.54l48.78-17.03c30-10.44,65.56-22.05,116.56-22.18l-105.14-16.61c-108.91-17.38-181.58-39.12-241-56.75Z"/><path class="cls-2" d="m335.17,1308.97c-90.92-52.74-129.12-94.29-131.78-130.5-1.1-14.98,6.55-24.75,21.95-25.88,40.37-2.97,107.19,69.12,131.67,145.99,79.39,43.96,118.93,52.36,142.23,50.64,19.98-1.47,27.03-13.7,26.17-25.36-2.17-29.55-63.18-68.17-110.49-85.62l1.36-4.28c47.58,15.33,113.28,55.28,115.79,89.41,1.77,24.14-17.67,38.54-48.06,40.78-23.31,1.71-57.76-5.8-120.06-39.3l16.22,78.32,2.52,11.53,41.13,18.74c90.51,41.47,123.08,91.81,126.02,131.76,1.62,22.06-9.54,29.58-22.42,30.94-26.16,2.76-74.85-33.42-102.88-73.2-11.24-16.33-27.51-44.01-41.06-86.12l-66.7-30.67c-47.65-22.03-74.91-45.55-88.63-67.14.04,17.57.35,38.89,1.85,59.29,3.7,50.36,21.51,93.41,79.46,107.57,25.55,6.07,48.71,2.28,68.92-18.87l2.62,1.48c-18.44,28.14-53.39,36.56-81.68,27.35-43.74-14.36-70.94-54.21-75.68-118.72-1.99-27.05-1.94-49.24-1.24-68.12-4-8.91-6.28-17.11-6.86-25.02-.86-11.65.41-17.19,3.74-17.43,3.75-.28,6.52,3.29,7.91,16.58.31,4.16.53,12.93.53,24.23,14.7,17.75,44.53,36.48,86.97,55.96l61.07,28.15-1.26-5.77-18.37-84.85c-6.55-3.7-13.55-7.79-20.96-11.85Zm-109.37-150.14c-11.24.83-17.08,6.7-16.32,17.1,2.42,32.88,48.36,65.91,137.91,117.08.42-.03.45.39.86.35-26.16-71.31-87.91-137.07-122.45-134.54Zm317.09,408.56c-2.11-28.72-27.29-69.55-107.86-106.73l-44.61-20.57c13.13,36.28,31.93,70.05,42.54,83.5,31.39,39.96,72.33,67.5,95.58,64.95,9.54-1.12,14.52-7.34,14.35-21.14Z"/><path class="cls-2" d="m284.35,1131.36c32.21,8.79,68.82-8.04,85.74-70.05,2.42-8.86,4.54-18.23,5.75-27.42-17.53,5.6-36.75,4.68-54.1-7.84-29.43-20.58-43.08-64.1-30.55-110,7.47-27.38,24.35-40.08,42.87-35.03,36.24,9.89,55.37,71.35,50.02,136.94,22.11-6.51,40.34-25.76,48.98-46.33l4.91,2.64c-5.6,11.02-13.55,32.21-16.73,43.89-24.06,88.18,4.45,132.73,37.87,151.36,37.11,20.94,82.94,8.36,98.55-48.82,13.73-50.33-9.91-114.32-55.4-126.73-10.87-2.97-23.35-1.61-29.69.98l-2.05-3.59c6.55-3.4,19.29-7.28,35.8-2.78,49.12,13.4,71.44,82.22,56.72,136.18-18.57,68.05-70.84,88.39-112.93,63.49-42.09-24.9-64.12-78.93-32.12-183.54l.55-2.01c-8.46,11.97-21.23,22.33-35.95,28.69-1.65,10.8-3.7,21.49-6.67,32.36-18.57,68.05-59.71,88.83-91.52,80.15-28.18-7.69-44.32-34.16-42.86-69.66l3.15-.44c-1.32,28.62,15.51,50.96,39.67,57.55Zm93.32-112.11c5.24-60.43-10.75-122.33-45.37-131.78-15.3-4.18-28.08,6.18-33.79,27.12-10.99,40.26,5.55,76.36,34.62,95.1,15.08,9.74,30.42,12.19,44.55,9.56Z"/><path class="cls-2" d="m550.22,991.58c-39.39-25.93-61.32-83.88-37.13-119.92,15.12-22.52,35.15-24.66,54.44-10.71l-1.17,3.24c-19.76-11.75-34.93-9.37-45.63,6.57-23.96,35.69,4.58,90.53,40.85,114.37,25.88,16.86,47.99,14.62,64.74-10.33,19.07-28.42,13.52-67.33-27.87-156.93-35.88-76.85-85.16-160.69-88.82-211.4-13.72,20.45-35.79,44.34-50.21,65.82-23.49,35-32.06,72.48,3.81,114.14,15.92,18.22,42.5,32.54,73.9,22.45l1.15,2.78c-36.87,18.98-71.68,8.69-91.85-18.92-24.32-33.41-23.37-79.01,8.03-125.8,17.44-25.99,41.58-46.98,56.72-74.02l5.43,1.64c-2.29,28.12,12.58,48.65,51.03,80.49l49.18,40.55c25.06,20.33,63.36,59.11,78.9,89.14-17.69-42.54-46.09-105.82-67.02-149.53-19.9-41.5-46.7-96.68-51.8-131.77-2.83-20.5-3-39.71,12.11-62.24,9.54-14.21,24.37-21.34,36.99-21.42l1.15,2.78c-13.21,4.7-22.84,12.31-28.66,20.98-23.26,34.65-8.51,94.31,36.57,188.9,28.29,59.7,55.65,120.78,84.36,194.84l-6.02,1.49c-22.56-41.28-47.25-65.89-74.62-88.78l-60.61-51.23c-15.12-12.66-37.29-32.06-52.95-58.16,16.19,42.53,46.24,94.36,70.73,146.99,42.55,90.88,60.67,143.26,34.86,181.72-21.16,31.53-53.68,29.81-80.6,12.25Z"/><path class="cls-2" d="m807.21,668.75c-10.56-15.02-14.02-33-18.88-70.39l-13.41-106.89c-4.48-36.13-12.2-62.34-18.68-71.56-9.12-12.97-27.83-15.64-49.68-.28-58.93,42.45-59.59,137.29-32.47,175.87,13.2,18.78,28.04,19.57,41.36,10.21,32.44-22.8,29.64-84.1,5.73-110.14l2.25-2.6c29.83,26.47,28.4,94.82-4.72,118.1-20.83,14.64-42.45,6.38-57.57-15.13-28.8-40.97-20.76-136.93,42.75-181.57,34.14-24,60.68-4.4,73.64,14.04,11.04,15.71,13.95,35.09,18.71,73.06l11.4,90.96c4.94,40.4,9.5,65.76,21.5,82.83,10.32,14.68,24.99,13.04,35.23,5.84,16.05-11.28,29.63-56.54,38.06-113.49-12.94-27.12-26.77-66.38-35.36-104.72-15.53-70.71-24.56-140.88,7.53-163.45,18.44-12.96,34.2,6.56,38.83,43.62,7.37,59.1,6.08,133.47-1.58,198.04,10.38,26.37,20.85,47.07,28.05,57.31,8.16,11.61,19.52,16.88,32.16,8,28.68-20.16,23.99-87.78.32-127.26l4.13-1.38c24.49,39.92,30.31,111.33-1.44,133.65-21.85,15.36-43.25,2.34-59.57-20.87-2.64-3.76-5.66-8.78-8.58-14.38-9.15,55.92-23.01,99.34-39.74,111.1-26.29,18.48-49.65-3.87-59.97-18.55Zm99.83-321.7c-4.79-34.39-16.31-50.77-26.21-43.81-16.05,11.28-16.27,53.78,3.89,147.76,5.9,27.99,14.1,54.88,22.66,77.94,6.23-61.52,6.75-129.73-.34-181.89Z"/><circle class="cls-2" cx="1336.25" cy="1335.26" r="492.78"/><path class="cls-2" d="m1114.34,719.98c-2.95-7.16-9.89-11.58-19.83-7.48-11,4.54-18.53,17.1-17.38,35.7,1.06,17.24,15.43,36.28,45.25,23.98l.66-.27,7.72-42.57c4.83-26.65,15.91-40.37,26.52-44.74,12.59-5.19,18.03,12.88,11.77,35.31-4.33,15.43-14.16,35.61-33.85,48.39l-.33,1.84c-2,11.68-6.08,26.23-14.02,38.19,7.42-1.2,14.93-2.9,21.42-5.58,15.11-6.23,23.93-15.3,24.4-26.19.19-4.42-1.27-9.09-4.09-11.8l1-1.34c6.97,4.88,12.98,31.09-17.9,43.82-9.41,3.88-18.72,4.62-27.87,4.98-4.81,6.01-10.82,10.98-18.51,14.15-12.19,5.03-18.08,2.03-19.5-1.42-1.48-3.58,1.27-7.81,7.77-10.49,6.1-2.51,15.88-3.6,26.14-5.04,4.07-8.19,5.74-18.03,7.45-27.42l1.28-7.04c-31.31,12.45-50.24-7.5-51.25-27.25-.88-17.93,9.35-32.23,22.33-37.59,11.4-4.7,19.7.4,23.2,8.88,3.55,8.61.57,23.18-9.94,31.55l-1.19-1.37c9.39-8.06,11.85-21.64,8.74-29.19Zm-16.03,104c6.23-2.57,10.5-6.5,13.56-11.49-8.01.51-16.04,1.34-23.86,4.57-4.11,1.69-6.74,4.33-5.7,6.85,1.42,3.45,8.05,3.35,16,.07Zm68.21-104.58c4.83-16.88,2.61-36.9-7.86-32.58-8.48,3.5-11.71,15.22-16.38,41.49l-6.45,36.62c17.81-12.46,26.56-31.11,30.69-45.53Z"/><path class="cls-2" d="m1187.16,746.2c5.7-20.54,19.01-35.63,29.15-38.22,7.64-1.95,13.15,1.08,14.5,6.36,3.09,12.08-12.8,26.35-34.19,38.17l-.79,2.72c-4.27,15.15-2.17,32.07,7.55,29.58,9.31-2.38,17.85-18.76,22.16-31.99l2.4.72c-3.49,10.66-11.29,30.55-25.04,34.06-7.78,1.99-15.59-3.71-17.62-11.63-1.31-5.14-2.78-13.2,1.87-29.77Zm34.7-26.91c.69-7.13-1.3-9.73-5.33-8.7-7.92,2.02-11.89,13.69-17.12,32.04l-1.92,6.41c17.23-10.17,22.91-14.58,24.36-29.75Zm3.31-47.89c1.64,1.21,1.34,3.5.27,5.7-1.82,3.87-9.29,13.47-18.73,22.24l-1.64-1.21c8.61-9.15,11.81-16.92,14.76-23.3,1.62-3.52,3.91-4.4,5.34-3.43Z"/><path class="cls-2" d="m1235.27,768.74c-.95-6.53,1.57-20.07,7.8-36.04,7.84-19.83,19.55-32.97,31.89-34.76,6.38-.93,12.21,4.31,11.51,14.41l.22-.47,4.93-14.91,11.06-1.61-16.52,50.78c-3.02,9.13-5.82,16.78-5.41,19.62.23,1.56.92,2.33,2.05,2.16,3.55-.52,13.16-14.08,20.11-28.13l2.21,1.27c-4.4,9.62-15.87,29.39-23.67,30.53-4.68.68-9.72-3.08-10.44-8.04-.45-3.12,1.48-8.76,4.94-18.83l6.34-18.16c-11.38,24.4-25.81,48.66-36.03,50.14-4.68.68-10.29-3-11.01-7.96Zm11.95,4.49c7.24-1.05,20.63-22.55,33.38-48.45,7.48-18.32.14-24.94-4.4-24.28-7.23,1.05-13.45,12.09-20.47,29.63l-5,12.46c-5.84,14.61-6.49,25.13-6.06,28.11.29,1.99,1.26,2.71,2.54,2.53Z"/><path class="cls-2" d="m1446.82,693.45c3.88-8.8,5.03-17.63-1.63-23.52-6.61,4.45-12.52,13.55-26.7,32.74l-20,27c-18.12,24.53-31.22,36.04-50,35.39l-.57-.04c-.29-.02-.57-.04-.86-.06-12.26-1.52-18.42-10.54-12.57-23.09l1.88-.17c-5.04,13.46,1.13,20.19,11.55,21.15,11.61.47,18.07-8.31,37.59-34.62l21.43-29.06c9.3-12.61,18.09-26.26,33.85-32.27-4.18-2-9.98-3.38-17.7-3.88-31.04-2.02-57.23,18.54-59.07,40.11-.6,7,1.68,11.75,5.83,12.02,8.73.57,18.27-13.61,21.16-27.07l2.29.15c-2.7,14.91-13.6,30.14-24.18,29.46-7.58-.49-12.22-6.4-11.52-14.97,1.99-24,32.18-44.16,65.94-41.96,8.58.56,15.51,2.3,20.8,4.95,3.8-1.05,7.87-1.79,12.34-1.93,2.59-.12,6.63-.29,12.07-.08l.02,1.87c-5.16-.19-9.19-.02-13.83.68-2.47.41-4.52,1-6.44,1.88,10.75,7.02,13.48,17.97,10.15,27.24-2.8,7.72-11.45,16.92-28.5,18.54,16.17,3.21,19.58,19.23,13.34,33.34-5.72,12.84-19.72,22.71-36.46,21.62-9.58-.62-13.43-5.61-13.07-11.05.26-4.01,2.56-8.45,6.17-10.95l.96.64c-2.03,2.45-4.27,6.04-4.56,10.48-.27,4.15,2.95,7.66,9.82,8.11,10.73.7,21.11-8.68,26.16-22.29,5.56-14.87,2.33-27-7.91-28.53-1.98-.42-4.15-.27-6.03-.1l-.12-2.59,3.44.08c13.05.28,20.74-9.57,24.95-19.21Z"/><path class="cls-2" d="m1465.94,766.47l-7,7.86-11.06-2.42,33.89-41.6c6.04-7.48,11.77-13.57,12.38-16.37.34-1.54-.04-2.5-1.16-2.75-3.5-.77-17.28,8.55-28.71,19.26l-1.62-1.97c7.5-7.46,25.19-21.93,32.89-20.25,4.62,1.01,7.87,6.27,6.8,11.17-.67,3.08-4.67,7.93-11.39,15.85l-16.23,19.2c19.99-18.96,46.44-40.62,55.69-38.6,3.08.67,4.78,2.95,4.14,5.89-.67,3.08-4.78,7.76-12.72,5.14-4.11-1.34-7.01-.8-11.42,1.91-4.72,2.78-20.32,13.75-44.48,37.68Z"/><path class="cls-2" d="m1573.97,755.42c-23.08,16.49-55.92,34.48-63.92,31.73-4.34-1.49-7.51-7.27-5.88-12.02,1.02-2.98,4.64-7.35,13.4-14.35l20.4-16.19c7.71-6.15,13.79-11.94,14.72-14.65.51-1.49.25-2.49-.84-2.86-3.39-1.16-18.14,6.51-30.74,15.83l-1.39-2.14c8.31-6.55,27.54-18.9,35-16.34,4.47,1.53,7.1,7.13,5.47,11.88-1.02,2.98-4.64,7.35-13.4,14.35l-20.4,16.19c-9.77,7.71-14.02,12.62-14.81,14.92-.51,1.49-.02,2.27.79,2.55,5.97,2.05,43.94-17.67,70.6-38.84l8.04-7.09,10.71,3.67-38.44,37.44c-6.86,6.74-13.25,12.13-14.18,14.84-.51,1.49-.25,2.49.84,2.86,3.39,1.16,18.14-6.51,30.73-15.83l1.39,2.14c-8.31,6.55-27.54,18.9-35,16.34-4.47-1.53-7.1-7.13-5.47-11.88,1.02-2.98,5.55-7.34,13.13-14.44l19.24-18.11Z"/><path class="cls-2" d="m1666.61,779.04c.71-1.41.32-2.24-.45-2.63-5.64-2.83-45.92,11.61-75.17,29.01l-8.92,5.95-10.12-5.08,43.12-31.94c7.7-5.76,14.76-10.24,16.04-12.8.71-1.41.58-2.44-.45-2.95-3.2-1.61-18.85,4.01-32.58,11.56l-1.09-2.31c9.11-5.37,29.83-15.03,36.88-11.49,4.23,2.12,6.08,8.02,3.83,12.51-1.41,2.82-6.48,6.53-14.95,12.55l-21.5,15.36c25.08-13.24,60.04-26.66,67.6-22.86,4.1,2.06,6.46,8.21,4.21,12.7-1.41,2.82-5.84,6.53-15.21,12.42l-21.75,13.63c-8.21,5.18-14.89,10.17-16.17,12.74-.71,1.41-.58,2.44.44,2.95,3.2,1.61,18.85-4.01,32.58-11.56l1.09,2.31c-9.11,5.37-29.83,15.03-36.88,11.49-4.23-2.12-6.08-8.02-3.83-12.51,1.41-2.82,5.46-6.72,14.83-12.61l21.75-13.63c10.33-6.53,15.59-10.62,16.69-12.8Z"/><path class="cls-2" d="m1649.33,830.25c2.89-4.45,7.82-10.99,23.15-18.8,18.97-9.73,39.08-10.17,47.86-4.47,6.61,4.29,8.12,10.4,5.15,14.97-6.79,10.46-28.05,8.45-51.24.73l-2.53,1.26c-14.03,7.13-25.05,20.14-16.63,25.61,8.05,5.23,25.89.41,38.54-5.39l1.1,2.25c-10.2,4.65-30.11,12.41-42.01,4.68-6.73-4.37-7.84-13.98-3.39-20.83Zm66.46-11.53c5.71-4.32,6.27-7.55,2.78-9.81-6.85-4.45-18.12.53-35.16,9.13l-6.01,2.93c19.15,5.78,26.25,6.96,38.38-2.25Z"/><path class="cls-2" d="m1687.62,861.2c4.15-5.12,15.82-12.46,31.77-18.72,19.88-7.69,37.48-8.01,47.17-.15,5.01,4.06,5.12,11.9-2.78,18.23l.49-.15,14.3-6.49,8.69,7.04-48.52,22.31c-8.76,3.98-16.28,7.11-18.08,9.34-.99,1.23-1.09,2.25-.2,2.98,2.78,2.26,19.28.12,34.3-4.31l.57,2.49c-10.05,3.3-32.36,8.28-38.48,3.32-3.68-2.98-4.33-9.23-1.17-13.13,1.99-2.45,7.44-4.86,17.18-9.14l17.65-7.66c-25.64,8.19-53.26,14.04-61.28,7.54-3.68-2.98-4.78-9.59-1.62-13.49Zm4.81,11.83c5.68,4.6,30.56-.15,58.24-8.35,18.54-6.94,18.42-16.81,14.85-19.7-5.68-4.6-18.01-1.68-35.65,5.06l-12.55,4.78c-14.7,5.62-22.87,12.28-24.76,14.62-1.26,1.56-1.14,2.77-.13,3.58Z"/><path class="cls-2" d="m1814.39,920.41c-28.08,4.02-65.51,4.88-71.35-1.23-3.17-3.32-3.32-9.91.31-13.38,2.28-2.18,7.5-4.39,18.5-6.57l25.56-4.99c9.68-1.91,17.74-4.26,19.81-6.24,1.14-1.09,1.37-2.1.57-2.93-2.48-2.59-19.1-2.57-34.57-.08l-.25-2.54c10.39-1.99,33.15-4.11,38.59,1.6,3.27,3.42,3.02,9.6-.6,13.07-2.28,2.18-7.5,4.39-18.5,6.57l-25.56,4.99c-12.22,2.36-18.26,4.75-20.02,6.44-1.14,1.09-1.06,2-.47,2.63,4.36,4.56,47.14,4.53,80.55-2l10.4-2.6,7.82,8.19-51.36,15.55c-9.19,2.83-17.34,4.67-19.42,6.65-1.14,1.09-1.37,2.1-.57,2.93,2.48,2.59,19.1,2.57,34.57.08l.25,2.54c-10.39,1.99-33.15,4.11-38.59-1.59-3.27-3.42-3.02-9.6.6-13.07,2.28-2.18,8.3-3.97,18.3-6.78l25.41-7.22Z"/><path class="cls-2" d="m1786.58,975.75c4.44-.39,6.59-1.36,5.62-3.52-1.61-3.66-.95-7.46,3.07-9.54,3.68-1.81,8.87-.78,11.53,2.59,3.1,3.94,1.36,9.15-4.28,11.95-11.93,5.93-25.75,2.76-34.64-3.19l1.16-2.01c5.46,3,11.75,4.25,17.53,3.71Z"/><path class="cls-2" d="m1976.34,1074c6.26,11.44,17.4,15.97,20.98,15.65l-.12,1.86c-5.78-.11-15.75-2.5-23.93-17.46-.76-1.38-2.14-4.22-4.01-7.93-4.64-4-15.69-4.49-42-6.27l-33.44-2.29c-24.12-1.67-37.75-5.98-47.48-13.89,1.55,3.73,3.24,7.71,5.64,12.11,4.27,7.8,8.62,14.56,16.24,19.22l-.65,1.5c-8.32-4.76-13.16-10.61-17.98-19.41-1.93-3.52-5.03-10.98-7.92-18.05-3.61-3.91-6.67-8.61-9.7-14.14-2.48-4.53-1.99-6.92-.35-7.81,2.01-1.1,4.82.14,7.29,4.67,2.13,3.9,3.3,9.31,5.41,16.16,7.95,4.97,20.12,6.31,43.85,7.87l35.82,2.46c24.05,1.55,36.3,6.61,42.75,12.72-7.35-14.93-18.2-37.43-21.57-43.6-13.56-24.77-33.66-28.97-52.86-18.95-7.49,3.93-10.5,10.97-7.61,16.26,5.37,9.81,24.05,10.21,36.96,5.43l.76,1.38c-14.03,5.72-34,5.37-40.26-6.08-4.4-8.05-2.39-16.01,6.48-20.71,23.09-12.15,50.93-.09,65.8,27.07,7.85,14.34,17.35,43.94,21.89,52.24Z"/><path class="cls-2" d="m1882.63,1110.69c-1.48.54-1.78,1.41-1.49,2.21,2.15,5.93,42.04,23.51,75.56,31.06l9.51,1.44,3.8,10.52-90.71-11.4c-19.02-2.42-33.52-16.38-38.49-30.14-3.02-8.36.87-14.03,8.51-14.82,6.6-.71,16.53,4.39,27.83,12.04-.74-4.15,1.67-9.29,5.98-10.85,2.97-1.07,8.64-.99,19.58,1.45l25.4,5.75c9.62,2.16,17.95,3.26,20.65,2.29,1.48-.54,2.1-1.37,1.71-2.45-1.22-3.37-16.44-10.06-31.6-14.03l.8-2.42c10.31,2.37,31.99,9.62,34.67,17.04,1.61,4.45-1.11,10-5.83,11.71-2.97,1.07-8.64.99-19.58-1.45l-25.4-5.75c-12.13-2.78-18.62-3.02-20.91-2.19Zm-39.59,1.82c3.41,9.44,13.39,18.48,39.42,22.18l59.12,8.35-.15-.4c-20.24-5.79-44.32-15.07-56.4-22.74l-.23-.22c-1.15-.65-2.17-1.35-3-1.96-13.02-9.01-24.71-16.06-31.95-15.43-6.79.63-8.57,5.39-6.81,10.24Z"/><path class="cls-2" d="m1978.14,1231.03c-6.43,1.44-20.14-.03-36.54-5.02-20.37-6.3-34.37-16.97-37.1-29.14-1.38-6.15,3.26-12.34,13.17-12.65l-.14.03-53.34-13.15-2.45-10.91,89.96,21.83c9.33,2.31,17.21,4.66,20,4.03,1.54-.35,2.25-1.09,2-2.21-.78-3.5-15.05-12.05-29.58-17.9l1.1-2.3c9.93,3.65,30.52,13.57,32.25,21.26,1.04,4.62-2.33,9.93-7.22,11.02-3.08.69-8.85-.81-19.15-3.49l-17.35-4.63c24.74,9.43,49.24,21.71,51.47,31.64,1.04,4.62-2.2,10.48-7.1,11.58Zm-71.16-35.6c1.6,7.13,13.09,12.49,31.1,18.14l12.81,4.03c15.01,4.71,25.56,4.55,28.49,3.89,1.96-.44,2.61-1.47,2.33-2.73-1.6-7.13-24.06-18.84-50.86-29.57-18.84-6.06-24.87,1.76-23.87,6.24Z"/><path class="cls-2" d="m1929.16,1236.92c5.27-.6,13.45-.97,29.24,5.88,19.58,8.43,32.73,23.66,33.92,34.06.9,7.83-2.85,12.88-8.26,13.5-12.39,1.42-24.37-16.25-33.19-39.05l-2.59-1.15c-14.43-6.28-31.48-6.49-30.33,3.48,1.09,9.54,16.17,20.22,28.7,26.29l-1.04,2.28c-10.09-4.9-28.74-15.32-30.36-29.41-.92-7.98,5.79-14.95,13.91-15.88Zm51.21,43.9c6.97,1.65,9.81.03,9.34-4.1-.93-8.12-11.95-13.63-29.43-21.3l-6.09-2.76c7.74,18.45,11.34,24.67,26.17,28.16Z"/><path class="cls-2" d="m1930.95,1314.62c6.59.24,19.46,5.16,34.05,14.15,18.09,11.28,28.92,25.15,28.46,37.62-.24,6.45-6.44,11.24-16.24,8.73l.42.3,13.78,7.53-.41,11.17-46.98-25.38c-8.44-4.61-15.46-8.74-18.33-8.85-1.58-.06-2.46.48-2.5,1.63-.13,3.58,11.48,15.48,24.05,24.83l-1.65,1.95c-8.67-6.05-26.06-20.89-25.77-28.77.17-4.73,4.78-9.01,9.79-8.82,3.15.12,8.35,3.03,17.63,8.25l16.72,9.5c-21.95-15.58-43.22-34.14-42.85-44.45.17-4.73,4.8-9.58,9.81-9.4Zm-6.57,10.95c-.27,7.31,18.48,24.34,41.66,41.54,16.68,10.65,24.5,4.62,24.67.04.27-7.31-9.48-15.41-25.47-25.46l-11.36-7.16c-13.32-8.38-23.56-10.9-26.57-11.01-2.01-.07-2.9.76-2.94,2.04Z"/><path class="cls-2" d="m1975.11,1465.91c1.55.26,2.24-.35,2.38-1.2,1.04-6.22-24.66-40.44-49.92-63.25l-8.32-6.76,1.86-11.17,43.25,31.76c7.78,5.66,14.14,11.08,16.97,11.55,1.55.26,2.5-.16,2.69-1.3.59-3.54-9.41-16.83-20.67-27.71l1.89-1.72c7.83,7.12,23.17,24.06,21.88,31.84-.78,4.67-5.87,8.18-10.82,7.35-3.11-.52-8.15-4.27-16.4-10.58l-21.02-16c20.06,20.05,43.21,49.49,41.82,57.83-.75,4.53-5.94,8.6-10.89,7.78-3.11-.52-7.97-3.65-16.36-10.86l-19.45-16.76c-7.38-6.31-14.12-11.22-16.95-11.69-1.56-.26-2.5.16-2.69,1.3-.59,3.54,9.41,16.83,20.67,27.71l-1.89,1.72c-7.82-7.12-23.17-24.06-21.87-31.84.78-4.67,5.87-8.18,10.82-7.35,3.11.52,8.04,3.23,16.43,10.44l19.45,16.75c9.29,7.94,14.76,11.76,17.16,12.16Z"/><path class="cls-2" d="m1916.57,1461.02c6.31,1.92,17.5,9.96,29.31,22.38,14.61,15.52,21.54,31.71,17.91,43.64-1.83,6.04-8.91,9.13-17.7,4.51l.14.04,22.94,21.65c7.21,6.83,12.59,12.81,15.33,13.64,1.51.46,2.5.16,2.83-.94,1.04-3.43-7.15-17.9-16.91-30.15l2.09-1.46c6.84,8.07,19.86,26.86,17.57,34.4-1.37,4.53-6.88,7.35-11.68,5.89-3.02-.92-7.08-5.3-14.9-12.61l-48.12-45.32c-6.98-6.61-12.67-12.54-15.42-13.37-1.51-.46-2.5-.16-2.83.94-1.04,3.43,7.15,17.9,16.91,30.15l-2.09,1.46c-6.84-8.07-19.86-26.85-17.57-34.4,1.37-4.53,6.92-7.49,11.72-6.03,3.02.92,7.3,5.06,14.94,12.48l12.81,12.58c-16.88-20.41-32.14-43.17-29.18-52.91,1.37-4.53,7.08-8.04,11.89-6.58Zm-9.15,8.91c-2.12,7,11.65,28.26,29.67,50.81,13.41,14.56,22.51,10.73,23.84,6.34,2.12-7-5.23-17.32-18.12-31.12l-9.15-9.82c-10.74-11.5-19.99-16.56-22.87-17.43-1.92-.58-2.99,0-3.37,1.22Z"/><path class="cls-2" d="m1894.19,1741.34l-1.68,2.84c-3.55-6.1-13.39-22.11-31.71-50.8-12.72-19.87-21.14-33.2-30.02-38.47-2.96-1.75-6.23-1.86-7.84.85-5.12,8.63,5.93,28.51,15.98,42.47l-1.27.74c-10.89-13.12-22.78-34.67-17-44.41,4.61-7.77,13.58-7.45,21.97-2.48,6.78,4.02,16.93,17.54,24.53,30.87,6.97,12.13,13.7,24.12,20.01,37.36-4.67-18.27-8.31-28.43-12.75-40.06-7.2-18.77-17.62-45.61-27.29-70.34l2.45-1.05c7.34,11.52,17.45,22.01,26.44,30.17l20.53,18.5c5.56,4.96,12.97,11.02,18.82,20.82-5.98-16.05-17.25-31.06-27.35-49.71-15.71-29.15-23.85-47.47-15.66-61.28,6.14-10.36,17.65-10.37,26.97-5.01,14.08,8.01,22.27,28.2,14.67,41.03-5.19,8.75-11.95,9.75-18.46,4.72l.34-1.13c6.78,4.02,11.96,2.59,15.32-3.08,7.53-12.7-4.78-31-16.45-37.75-8.95-5.14-15.95-4.29-20.27,2.98-6.07,10.23-2.75,23.2,12.66,52,13.61,25.4,30.12,47.86,34.45,70.92,4.31-7.28,10.76-14.78,14.78-21.56,6.87-11.59,9.09-24.61-4.01-38.21-5.81-5.94-15.2-10.34-25.77-6.28l-.45-.93c12.28-7.22,24.41-4.36,31.86,4.73,8.98,10.99,9.53,26.65.17,42.43-5.26,8.88-13.63,16.25-18.32,26.97l-1.77-.38c-2.81-10.16-8-15.74-23.09-28.52l-13.51-11.51c-8-6.74-16.9-15.35-22.33-25.57l10.39,26.32c14,35.13,20.18,59.29,24.67,81.79Z"/><path class="cls-2" d="m1814.62,1687.58c4.03,3.45,9.86,9.21,15.58,25.44,7.14,20.09,4.91,40.09-1.9,48.03-5.13,5.99-11.38,6.67-15.52,3.12-9.47-8.12-4.66-28.92,6.05-50.89l-.92-2.67c-5.21-14.85-16.65-27.49-23.18-19.87-6.25,7.29-3.83,25.61.25,38.92l-2.38.79c-3.26-10.73-8.32-31.49.92-42.26,5.22-6.09,14.9-5.92,21.1-.6Zm2.64,67.41c3.53,6.23,6.65,7.21,9.36,4.06,5.32-6.2,1.87-18.04-4.4-36.06l-2.11-6.34c-8.26,18.22-10.37,25.1-2.85,38.34Z"/><path class="cls-2" d="m1778.57,1721.55c4.53,4.79,10.27,17.32,14.37,33.97,5,20.72,3,38.21-6.07,46.78-4.58,4.33-12.27,3.51-17.61-4.85l.1.1,9.2,30.17c2.88,9.51,4.59,17.37,6.56,19.45,1.08,1.15,2.09,1.38,2.92.59,2.6-2.46,2.66-19.09.25-34.57l2.54-.23c1.94,10.4,3.95,33.17-1.78,38.59-3.44,3.25-9.61,2.98-13.06-.67-2.17-2.29-3.53-8.11-6.69-18.34l-19.34-63.21c-2.79-9.2-4.8-17.17-6.77-19.25-1.08-1.15-2.09-1.38-2.92-.59-2.6,2.46-2.66,19.09-.25,34.57l-2.54.23c-1.94-10.4-3.95-33.17,1.78-38.59,3.44-3.25,9.72-3.08,13.17.57,2.17,2.29,3.83,8.02,6.79,18.24l4.9,17.27c-4.55-26.09-6.53-53.42.87-60.42,3.44-3.25,10.14-3.47,13.58.17Zm-12.36,3.21c-5.31,5.02-3.88,30.31.6,58.83,4.43,19.29,14.24,20.47,17.57,17.32,5.31-5.02,4.04-17.63-.32-36.01l-3.09-13.07c-3.63-15.31-9.16-24.29-11.23-26.48-1.38-1.46-2.59-1.49-3.53-.6Z"/><path class="cls-2" d="m1728.14,1791.62l3.86,24.79c1.49,9.38,3.01,17.64,4.77,19.9.97,1.24,1.95,1.57,2.85.87,2.83-2.2,4.48-18.75,3.57-34.39h2.55c.94,10.55.74,33.4-5.48,38.25-3.73,2.91-9.97,2.13-13.05-1.83-1.94-2.49-3.07-8.15-4.79-18.98l-3.86-24.79c-1.49-9.38-3.01-17.64-4.77-19.9-.97-1.24-1.95-1.57-2.85-.87-2.83,2.2-4.48,18.75-3.57,34.39h-2.55c-.94-10.55-.74-33.4,5.48-38.25,3.73-2.91,9.97-2.13,13.05,1.83,1.94,2.49,3.16,8.26,4.79,18.98Zm16.72,81.45c-3.39,2.64-7.66,1.6-9.64-2.12-1.96-3.92-1.02-9.01,2.26-11.57,3.51-2.73,7.77-1.69,9.85,2.15,1.88,3.81.94,8.9-2.46,11.54Z"/><path class="cls-2" d="m1694.98,1795.96c3.53,5.57,6.76,18.97,7.6,36.09.94,21.3-4.37,38.08-14.9,44.76-5.45,3.45-12.91,1.06-16.39-8.45v.52s1.58,15.63,1.58,15.63l-9.44,5.99-5.66-53.1c-.97-9.57-1.54-17.69-3.08-20.11-.84-1.33-1.79-1.75-2.76-1.14-3.03,1.92-6.26,18.23-6.86,33.89l-2.54-.26c.08-10.58,2.47-33.31,9.13-37.53,4-2.53,10.13-1.16,12.82,3.08,1.69,2.66,2.23,8.6,3.18,19.2l1.63,19.17c.42-26.91,3.68-54.96,12.4-60.48,4-2.53,10.61-1.47,13.3,2.77Zm-12.74.78c-6.17,3.91-9.61,29.01-10.67,57.86.66,19.78,10.06,22.82,13.93,20.36,6.17-3.91,7.34-16.53,6.58-35.4l-.53-13.41c-.63-15.72-4.35-25.59-5.96-28.13-1.08-1.69-2.26-1.96-3.35-1.27Z"/><path class="cls-2" d="m1582.61,1969.36l-.93-1.79c13.27-11.96,23.18-33.87,23.08-70.35v-1.09c-.13-35.07-12.87-53.77-27.35-58.77l.37-2.03c14.8,3.93,36.16,22.35,37.81,57.7l.06,1.22c1.76,36.7-18.29,64.07-33.04,75.11Z"/><path class="cls-2" d="m1463.22,1994.09c-12.58,3.44-19.57,13.22-20.08,16.78l-1.79-.55c1.44-5.6,6.08-14.74,22.54-19.23,1.52-.42,4.6-1.11,8.65-2.07,4.97-3.59,8-14.22,15.84-39.4l9.98-32c7.22-23.08,14.57-35.34,24.52-42.96-3.99.64-8.25,1.36-13.09,2.68-8.57,2.34-16.17,5.01-22.46,11.34l-1.31-.98c6.56-6.99,13.37-10.34,23.05-12.99,3.87-1.06,11.84-2.34,19.4-3.52,4.64-2.61,9.92-4.49,16-6.16,4.98-1.36,7.19-.33,7.68,1.47.6,2.21-1.26,4.65-6.23,6.01-4.29,1.17-9.82,1.05-16.97,1.52-6.67,6.58-10.81,18.11-17.82,40.83l-10.7,34.28c-7.08,23.04-14.85,33.78-22.29,38.63,16.23-3.69,40.63-9.02,47.41-10.87,27.24-7.44,35.99-26.03,30.7-47.02-2.09-8.2-8.24-12.76-14.05-11.17-10.79,2.95-15.51,21.03-13.85,34.7l-1.52.42c-2.31-14.97,2.66-34.31,15.25-37.75,8.85-2.42,16.13,1.39,18.64,11.11,6.46,25.28-11.72,49.57-41.59,57.73-15.76,4.31-46.77,6.68-55.9,9.18Z"/><path class="cls-2" d="m1437.63,1904.92c-13.99,15.53-30.63,44.88-33.41,61.58l-13.84,1.4,14.22-61.81c-13.61,13.62-30.11,37.19-29.3,49.5.13,2.72,1.81,3.71,2.25,7.99.32,3.14-1.86,7.25-5.86,7.65-3.99.4-6.36-3.1-6.73-6.67-.35-3.42,2.06-11.01,5.41-16.4,9.02-14.89,17.35-30.86,44.12-55.46l3-.3-14.2,63.53,1.14-.12c6.32-18.79,21.81-45.14,44.29-66.57l2.85-.29-12.31,50.81c-2.36,9.46-3.84,16.24-3.55,19.09.16,1.57.82,2.37,1.96,2.25,3.57-.36,11.91-13.3,19.46-27.03l2.15,1.37c-4.81,9.42-15.28,28.49-23.13,29.28-4.71.47-9.58-3.5-10.08-8.49-.32-3.14.51-7.83,3.19-18.33l8.34-32.97Z"/><path class="cls-2" d="m1373.78,1911.15c-.14,6.02-3.27,17.71-10.87,30.3-9.24,15.42-24,27.85-37.05,27.55-19.64-.44-16.75-26.48-5.28-45.58,10.58-17.69,29.59-27.72,39.63-27.5,10.61.24,13.71,8.77,13.56,15.22Zm-40.86,12.12l-5.96,10.05c-12.68,21.51-11.93,32.85-1.75,33.08,8.17.18,17.87-10.35,27-27.06l2.39-4.39c10.47-19.26,16.88-36.18,5.84-36.43-7.45-.17-16.93,6.93-27.52,24.76Z"/><path class="cls-2" d="m1154.96,1965.18c6.06-1.44,14.16-9.15,32.41-25.49l24.98-22.35c18.03-16.1,30.63-22.86,43.09-24.3-3.75-1.49-7.78-3.06-12.61-4.41-8.56-2.39-16.45-3.99-25.1-1.79l-.62-1.51c9.22-2.64,16.78-2.02,26.45.68,3.87,1.08,11.37,4.06,18.46,6.93,5.32.14,10.82,1.23,16.89,2.92,4.97,1.39,6.34,3.41,5.84,5.2-.62,2.21-3.46,3.35-8.43,1.96-4.28-1.19-8.97-4.14-15.35-7.4-9.1,2.22-18.56,10-36.24,25.91l-26.77,23.94c-17.07,15.33-28.87,20.82-37.73,21.62,16.64,5.98,33.18,11.78,45.05,15.09,27.2,7.59,44.24-3.88,50.47-24.62,2.41-8.11-.53-15.18-6.33-16.8-10.77-3-24.1,10.1-29.69,22.68l-1.52-.42c5.7-14.04,19.89-28.09,32.45-24.58,8.84,2.46,13.13,9.47,10.3,19.09-7.42,25.02-35.49,36.54-65.31,28.22-21.27-5.93-56.31-23.29-77.23-31.51l-1.48-.56c-9.54,5.38-19.08,7.03-29.29,4.18-5.94-1.66-9.05-4.91-8.16-8.08,1.46-5.25,11.68-6.12,29.49-1.15,6.9-4.47,14.15-11.23,21.56-19.14l38.06-40.43c-22.08,17.8-53.81,37.68-61.96,35.4-4.42-1.23-7.92-6.82-6.57-11.65.85-3.04,4.48-7.53,12.55-15.1l18.73-17.55c7.07-6.66,12.66-12.84,13.43-15.6.42-1.52.1-2.5-1-2.81-3.45-.96-17.73,7.56-29.76,17.6l-1.51-2.06c7.91-7.02,26.39-20.47,33.99-18.35,4.56,1.27,7.51,6.71,6.16,11.54-.85,3.04-4.07,7.65-12.13,15.22l-18.73,17.55c-8.89,8.39-13.27,13.41-13.92,15.76-.42,1.52.11,2.26.94,2.5,6.08,1.69,42.84-20.2,68.21-42.89l7.61-7.55,10.91,3.04-56.25,60.81c-6.77,7.19-13.33,13.1-19.84,17.24.41.12.69.19.97.27l34.54,12.76Zm-72.99-14.7c-.42,1.52.61,3.15,4.2,4.15,6.21,1.73,13.11-.06,20.29-4.46-15.05-4.2-23.61-2.86-24.49.31Z"/><path class="cls-2" d="m1118.92,1860.93c-2.76,5.35-10.68,14.49-23.02,22.49-15.05,9.83-33.76,14.55-45.36,8.58-17.46-8.99-3.48-31.14,15.19-43.29,17.25-11.28,38.74-11.99,47.66-7.4,9.43,4.85,8.49,13.88,5.54,19.62Zm-42.04-6.96l-9.76,6.43c-20.8,13.8-25.09,24.33-16.04,28.98,7.27,3.74,20.6-1.49,36.11-12.53l4.07-2.9c17.84-12.74,31-25.16,21.19-30.21-6.63-3.41-18.26-1.17-35.57,10.23Z"/><path class="cls-2" d="m997.36,1831.49c26.55-9.97,62.92-18.88,69.95-14.16,3.81,2.56,5.38,8.96,2.58,13.13-1.76,2.62-6.38,5.9-16.65,10.4l-23.89,10.38c-9.04,3.95-16.41,7.98-18.01,10.36-.88,1.31-.88,2.34.07,2.98,2.98,2,19.21-1.61,33.78-7.36l.79,2.43c-9.72,4.18-31.49,11.15-38.03,6.75-3.93-2.64-5.02-8.72-2.22-12.89,1.76-2.62,6.38-5.9,16.65-10.4l23.89-10.38c11.43-4.93,16.81-8.57,18.17-10.6.88-1.31.6-2.18-.11-2.66-5.24-3.52-47.02,5.73-78.23,19.3l-9.6,4.78-9.4-6.31,46.81-26.25c8.37-4.74,15.93-8.3,17.53-10.68.88-1.31.88-2.34-.07-2.98-2.98-2-19.21,1.61-33.78,7.36l-.79-2.43c9.72-4.18,31.49-11.15,38.03-6.75,3.93,2.64,5.02,8.72,2.22,12.89-1.76,2.62-7.26,5.66-16.42,10.56l-23.26,12.53Z"/><path class="cls-2" d="m1000.86,1770.11c8.98,7.58,8.22,18.94,2.58,25.62-3.7,4.38-8.62,5.11-11.25,2.89-2.41-2.03-2.04-4.91-.57-6.67,3.61-4.27,8.64-1.34,11.13-4.3,3.14-3.73,2.7-10.1-3.76-15.55-7.12-6.01-17.4-3.61-23.96,4.17-1.94,2.3-3.1,5.45-3.68,10.59l-1.43,11.92c-.62,4.73-2.44,8.45-4.29,10.64-5.27,6.25-18.52,11.95-31.23,1.22-9.31-7.86-7.59-18.79-3.06-24.16,3.7-4.38,8.57-5.71,11.42-3.31,2.3,1.94,2.36,4.99.3,7.2-3.92,4.2-8.49.72-10.98,3.68-2.4,2.85-2.59,9.07,3.66,14.34,7.12,6.01,15.21,4.21,19.37-.73,2.5-2.96,3.81-5.41,4.68-11.99l1.66-12.86c.69-5.04,2.4-8.85,4.44-11.26,7.4-8.77,24.79-10.03,34.98-1.44Z"/><path class="cls-2" d="m968.34,1756.1c-4.76,4.57-17.24,10.4-33.86,14.63-20.69,5.16-38.19,3.29-46.83-5.71-4.47-4.65-3.6-12.44,5.02-17.74l-.51.09-15,4.67-7.75-8.06,50.92-16.11c9.18-2.86,17.03-5.03,19.1-7.02,1.14-1.09,1.36-2.1.57-2.93-2.48-2.59-19.11-2.51-34.57.01l-.25-2.54c10.38-2.02,33.14-4.2,38.6,1.49,3.28,3.41,3.15,9.7-.47,13.17-2.28,2.19-7.99,3.9-18.19,6.94l-18.46,5.41c26.46-4.94,54.59-7.32,61.75.13,3.28,3.41,3.55,10.11-.07,13.59Zm-3.3-12.33c-5.07-5.27-30.34-3.65-58.83,1.05-19.26,4.58-20.36,14.39-17.19,17.7,5.07,5.27,17.67,3.9,36.01-.59l13.04-3.19c15.28-3.75,24.22-9.35,26.39-11.43,1.45-1.39,1.47-2.61.58-3.54Z"/><path class="cls-2" d="m828.94,1682.63c-1.27.94-1.3,1.86-.79,2.55,3.75,5.07,46.21,10.4,80.17,8.11l10.65-1.28,6.73,9.11-52.9,8.99c-9.47,1.66-17.79,2.46-20.1,4.17-1.27.94-1.62,1.91-.94,2.83,2.13,2.88,18.63,4.94,34.29,4.42l-.07,2.55c-10.56.67-33.4-.08-38.09-6.42-2.81-3.8-1.8-9.9,2.24-12.89,2.54-1.88,8.74-2.89,19.01-4.43l26.12-3.98c-28.36.47-65.61-3.37-70.64-10.17-2.73-3.69-2.05-10.25,1.98-13.23,2.54-1.88,8.16-3.19,19.18-4.2l25.56-2.32c9.67-.91,17.88-2.35,20.18-4.05,1.27-.94,1.62-1.91.94-2.83-2.13-2.88-18.63-4.94-34.29-4.42l.07-2.55c10.56-.67,33.4.08,38.09,6.42,2.81,3.8,1.8,9.9-2.24,12.89-2.54,1.88-7.91,3.53-18.92,4.55l-25.56,2.32c-12.16,1.15-18.71,2.43-20.67,3.87Z"/><path class="cls-2" d="m873.13,1643.94c-5.76,3.21-19.32,5.67-36.46,5.53-21.32-.27-37.77-6.54-43.83-17.43-3.07-5.51-.37-12.75,9.05-15.87l-.13.07-31.51,1.46c-9.93.44-17.96.16-20.47,1.55-1.38.77-1.85,1.69-1.29,2.69,1.74,3.13,17.84,7.29,33.44,8.78l-.4,2.52c-10.56-.69-33.11-4.37-36.95-11.26-2.3-4.13-.51-10.05,3.87-12.49,2.76-1.53,8.73-1.41,19.42-1.95l66.02-3.13c9.61-.43,17.82-.41,20.33-1.8,1.38-.77,1.85-1.69,1.29-2.69-1.74-3.13-17.84-7.29-33.44-8.78l.4-2.52c10.56.69,33.11,4.37,36.95,11.26,2.3,4.13.58,10.18-3.8,12.62-2.76,1.53-8.71,1.73-19.35,2.08l-17.95.48c26.4,2.04,53.38,6.87,58.33,15.76,2.3,4.13.86,10.68-3.52,13.12Zm-.05-12.77c-3.56-6.39-28.42-11.25-57.16-13.95-19.79-.47-23.36,8.74-21.12,12.75,3.56,6.39,16.09,8.27,34.97,8.59l13.42.24c15.73.26,25.8-2.88,28.43-4.34,1.75-.98,2.09-2.15,1.46-3.27Z"/><path class="cls-2" d="m840.88,1562.59c4.6,10.81-1.2,20.61-9.24,24.03-5.28,2.25-10,.67-11.34-2.49-1.24-2.9.39-5.31,2.5-6.21,5.14-2.19,8.31,2.69,11.87,1.18,4.48-1.91,6.96-7.79,3.65-15.58-3.65-8.57-13.9-11.06-23.27-7.08-2.77,1.18-5.22,3.47-8.06,7.79l-6.65,10c-2.68,3.95-5.98,6.44-8.62,7.57-7.52,3.2-21.92,2.32-28.43-12.98-4.77-11.21,1.69-20.19,8.15-22.94,5.28-2.25,10.22-1.24,11.68,2.19,1.18,2.77-.14,5.51-2.97,6.56-5.39,1.98-7.9-3.18-11.46-1.66-3.43,1.46-6.4,6.93-3.2,14.45,3.65,8.57,11.68,10.61,17.62,8.08,3.56-1.52,5.84-3.11,9.58-8.6l7.27-10.73c2.89-4.19,6.13-6.82,9.04-8.05,10.55-4.49,26.65,2.21,31.87,14.47Z"/><path class="cls-2" d="m688.96,1407.64c-2.85-12.73-12.3-20.17-15.83-20.84l.64-1.76c5.52,1.7,14.44,6.76,18.16,23.41.34,1.54.89,4.65,1.66,8.74,3.35,5.13,13.84,8.66,38.62,17.66l31.5,11.46c22.71,8.29,34.62,16.2,41.77,26.5-.46-4.01-.98-8.3-2.07-13.2-1.94-8.67-4.25-16.38-10.28-22.97l1.04-1.26c6.68,6.88,9.71,13.84,11.9,23.63.88,3.92,1.79,11.94,2.61,19.54,2.39,4.75,4.03,10.12,5.4,16.27,1.13,5.04,0,7.2-1.82,7.61-2.24.5-4.59-1.47-5.72-6.51-.97-4.34-.59-9.86-.72-17.03-6.26-6.97-17.59-11.64-39.96-19.71l-33.74-12.28c-22.68-8.15-33.05-16.4-37.55-24.06,2.93,16.38,7.12,41.01,8.65,47.86,6.17,27.56,24.33,37.16,45.54,32.85,8.29-1.71,13.13-7.64,11.81-13.51-2.44-10.91-20.28-16.47-34.01-15.45l-.34-1.54c15.06-1.61,34.15,4.26,37,16.99,2,8.95-2.14,16.05-11.96,18.1-25.56,5.28-48.97-14.02-55.73-44.24-3.57-15.95-4.5-47.03-6.56-56.26Z"/><path class="cls-2" d="m779.21,1386.22c-14.87-14.69-43.42-32.66-59.98-36.2l-.76-13.89,61.09,17.05c-12.98-14.22-35.77-31.78-48.1-31.54-2.73,0-3.79,1.64-8.08,1.88-3.15.17-7.15-2.19-7.37-6.2-.22-4.01,3.39-6.22,6.97-6.41,3.44-.19,10.91,2.56,16.13,6.15,14.46,9.69,30.03,18.75,53.37,46.61l.16,3.01-62.82-17.1.06,1.15c18.48,7.17,44.09,23.86,64.47,47.3l.16,2.86-50.19-14.63c-9.34-2.79-16.04-4.58-18.91-4.42-1.57.09-2.4.71-2.34,1.85.2,3.58,12.74,12.51,26.11,20.68l-1.47,2.09c-9.19-5.24-27.76-16.57-28.19-24.45-.26-4.72,3.94-9.4,8.95-9.68,3.15-.17,7.8.87,18.17,4.03l32.56,9.85Z"/><path class="cls-2" d="m775.36,1322.03c-5.29-.33-13.41-1.41-27.76-10.93-17.79-11.74-28.06-29.05-27.4-39.49.49-7.87,5.07-12.18,10.51-11.84,12.45.78,21.14,20.28,25.81,44.28l2.34,1.58c13.1,8.72,29.85,11.92,30.48,1.91.6-9.59-12.37-22.75-23.63-30.92l1.42-2.07c9.07,6.6,25.6,20.13,24.71,34.3-.5,8.01-8.33,13.7-16.48,13.19Zm-42.7-52.23c-6.57-2.85-9.66-1.75-9.92,2.4-.51,8.16,9.37,15.52,25.22,26.14l5.51,3.79c-4.38-19.52-6.83-26.28-20.82-32.33Z"/><path class="cls-2" d="m738.08,1191.43c-1.55-.27-2.24.34-2.39,1.18-1.09,6.21,24.32,40.64,49.4,63.66l8.26,6.83-1.95,11.16-42.98-32.12c-7.73-5.72-14.05-11.19-16.87-11.69-1.55-.27-2.5.14-2.7,1.27-.62,3.53,9.27,16.9,20.44,27.88l-1.9,1.71c-7.77-7.18-22.97-24.25-21.61-32.02.82-4.66,5.94-8.13,10.88-7.26,3.11.54,8.12,4.33,16.32,10.72l20.89,16.17c-19.89-20.22-42.79-49.84-41.33-58.17.79-4.52,6.01-8.55,10.95-7.69,3.11.54,7.94,3.72,16.27,11l19.31,16.91c7.32,6.38,14.03,11.33,16.85,11.83,1.55.27,2.5-.14,2.7-1.27.62-3.53-9.27-16.9-20.44-27.88l1.9-1.71c7.77,7.18,22.97,24.25,21.61,32.02-.82,4.66-5.93,8.13-10.88,7.26-3.11-.54-8.01-3.29-16.34-10.57l-19.31-16.91c-9.22-8.02-14.66-11.88-17.06-12.3Z"/><path class="cls-2" d="m745.18,1150.43l-11.65-10.91,3.09-10.89,11.65,10.91,4.54-16,2.48.71-4.9,17.24,37.19,34.86c7.06,6.63,12.9,12.31,15.66,13.09,1.52.43,2.5.11,2.89-1.26,1.49-5.24-6.96-19.56-16.94-31.64l2.07-1.5c6.98,7.94,20.34,26.49,17.8,35.46-1.49,5.24-6.98,8.3-11.8,6.93-3.03-.86-7.12-4.85-15.12-12.34l-34.83-32.69-3.02,10.62-2.48-.7,3.37-11.86Z"/><path class="cls-2" d="m815.09,1148.66c1.47.58,2.26.12,2.58-.68,2.31-5.87-15.99-45.44-36.16-73.26l-6.19-7.37,4.1-10.4,60.52,68.53c12.67,14.39,14.31,34.45,8.95,48.06-3.26,8.27-9.93,9.95-16.18,5.49-5.42-3.83-9.5-14.22-12.92-27.43-2.19,3.61-7.4,5.87-11.67,4.19-2.93-1.16-7.13-4.97-13.73-14.04l-15.26-21.11c-5.79-7.98-11.31-14.32-13.98-15.37-1.47-.58-2.48-.36-2.9.71-1.31,3.33,5.69,18.42,14.43,31.42l-2.2,1.29c-6.17-8.59-17.64-28.37-14.75-35.7,1.73-4.4,7.45-6.77,12.11-4.93,2.93,1.16,7.13,4.97,13.73,14.04l15.26,21.11c7.27,10.11,11.98,14.58,14.24,15.47Zm30.9,24.81c3.68-9.34,2.17-22.72-14.92-42.7l-38.84-45.35-.16.4c11.35,17.72,23.29,40.61,27.28,54.35l.03.32c.43,1.25.73,2.45.95,3.46,3.81,15.37,7.92,28.39,13.77,32.7,5.5,4.02,9.99,1.63,11.88-3.18Z"/><path class="cls-2" d="m834.91,907.93c7.11-10.94,5.81-22.89,3.83-25.89l1.7-.78c2.65,5.14,5.27,15.05-4.03,29.35-.86,1.32-2.7,3.89-5.08,7.3-1.32,5.98,3.49,15.94,14.39,39.95l13.84,30.53c9.96,22.03,12.63,36.07,10.28,48.39,2.55-3.13,5.25-6.5,7.98-10.71,4.84-7.45,8.74-14.5,9.23-23.41l1.63-.14c-.24,9.59-3.1,16.62-8.57,25.03-2.19,3.37-7.28,9.63-12.14,15.53-1.73,5.03-4.42,9.95-7.85,15.24-2.81,4.33-5.15,5.03-6.71,4.02-1.92-1.25-2.16-4.31.65-8.64,2.42-3.73,6.63-7.32,11.66-12.42.61-9.35-3.98-20.71-13.86-42.34l-14.82-32.71c-10.04-21.91-11.39-35.09-9.07-43.67-9.66,13.55-24.33,33.77-28.16,39.66-15.39,23.68-9.55,43.37,8.37,55.53,7.01,4.73,14.64,4.04,17.92-1.01,6.09-9.38-2.42-26.02-12.74-35.12l.86-1.32c11.69,9.64,20.84,27.39,13.74,38.33-5,7.69-12.97,9.7-21.3,4.11-21.64-14.57-24.23-44.8-7.36-70.77,8.9-13.7,30.47-36.11,35.62-44.04Z"/><path class="cls-2" d="m913.34,957.41c.09-20.91-7.05-53.87-16.11-68.18l9.39-10.26,30.57,55.57c1.08-19.23-2.32-47.79-11.12-56.43-1.91-1.94-3.82-1.56-7-4.46-2.33-2.13-3.44-6.65-.73-9.61,2.71-2.96,6.81-1.93,9.46.49,2.54,2.32,5.8,9.59,6.89,15.83,3.19,17.11,7.62,34.57,4.05,70.75l-2.03,2.22-31.74-56.84-.77.85c7.81,18.22,13.8,48.19,11.32,79.15l-1.94,2.11-24.67-46.09c-4.54-8.63-7.96-14.66-10.07-16.6-1.16-1.06-2.18-1.22-2.96-.38-2.42,2.64-.02,17.86,3.5,33.13l-2.52.42c-2.69-10.23-7.58-31.42-2.26-37.24,3.19-3.49,9.47-3.77,13.17-.38,2.33,2.13,4.84,6.18,9.83,15.8l15.74,30.15Z"/><path class="cls-2" d="m956.79,910.21c-3.9-4.58-9.35-15.39-12.06-29.84-3.37-17.66-.62-36.76,9.31-45.22,14.95-12.74,30.12,8.61,34.27,30.5,3.87,20.24-3.63,40.39-11.27,46.9-8.08,6.88-16.07,2.58-20.25-2.33Zm22.42-36.24l-2.24-11.47c-4.86-24.49-12.97-32.46-20.71-25.86-6.22,5.3-6.45,19.62-2.14,38.17l1.14,4.87c5.01,21.35,11.49,38.24,19.89,31.08,5.67-4.83,8.03-16.44,4.06-36.79Z"/><path class="cls-2" d="m1010.94,900.55l-1.26-1.57c10.61-14.37,15.95-37.82,8.56-73.54l-.22-1.07c-7.12-34.34-23.34-50.12-38.53-52.13l-.04-2.07c15.29.89,39.9,14.68,48.57,48.99l.3,1.19c9.06,35.61-5.12,66.44-17.38,80.2Z"/></svg>