<?xml version="1.0" encoding="utf-8"?>
<!-- Generator: Adobe Illustrator 27.5.0, SVG Export Plug-In . SVG Version: 6.00 Build 0)  -->
<svg version="1.1" id="Layer_5" xmlns="http://www.w3.org/2000/svg" xmlns:xlink="http://www.w3.org/1999/xlink" x="0px" y="0px"
	 viewBox="0 0 2672.5 2672.5" style="enable-background:new 0 0 2672.5 2672.5;" xml:space="preserve">
<style type="text/css">
	.st0{fill:#00A55D;}
	.st1{fill:#FFFFFF;}
</style>
<circle class="st0" cx="1336.2" cy="1336.2" r="1213.2"/>
<path class="st1" d="M1134.1,439.1l42.1-96.3c17.3-40,40.3-84.2,73.2-111c-14.2-4.1-32.9-4.9-57.2-1
	c-89.4,14.2-156.8,90.5-148.1,152.9c2.8,20.3,13.2,32.1,30.5,29.4c26.4-4.2,45.2-50.7,44.7-90.8l4.5-0.7c1.9,44.1-18.6,93-49.9,98
	c-21.8,3.5-38.6-9.1-42.2-33.9c-9.8-69.4,62.9-146.1,160.2-161.6c26.4-4.2,48.1-3,65.4,1.8c9.1-6.5,19.7-11.6,30.6-14.6
	c7.3-2,18.6-5.1,34.2-8l1.3,5.3c-14.8,2.8-26.1,5.9-38.8,10.8c-6.7,2.8-12.6,5.8-18.3,9.7c33,13.3,45.6,42.2,41.9,69.4
	c-3.1,25.9-21.6,58.4-67.8,73.3c47.7-0.4,66.1,41,57.2,86c-8,40.1-38.5,76.7-83,83.8c-26.4,4.2-41.7-7.3-44.2-23
	c-1.8-11.5,1.8-25.6,10.5-35l3.2,1.2c-6.2,8.6-10.3,20.2-8.3,33c1.9,12,14.4,21.4,35.4,18c33-5.2,56.3-36.4,65.4-82.7
	c8.1-41.9-12.5-78.7-46.7-75.8c-5.8,0.5-11.9,2.3-17.2,3.6l-1.1-4.5l9.8-2.4c37-9.3,58.9-47,64-73.2c5.2-25.8,0-53.2-26.9-65.4
	c-18.8,16.9-33.9,47.2-62.4,112.2l-39.4,89.5c-35,80-58.2,123-114.6,131.9c-30.1,4.8-55-16-51.2-57.6l0,0
	c3.1,39.3,24.6,55.5,50.2,51.5C1075.6,557.4,1095.1,528.1,1134.1,439.1L1134.1,439.1z"/>
<path class="st1" d="M1318,452.8c9.8-46.1,57.8-87.2,100.2-77.9c28.9,6.4,37.8,24.2,29.8,46.8l-3.4,0.1c5-22.4-3.7-35.4-22.4-39.6
	c-40.3-8.9-84.3,33.5-94,78.8c-6.3,30.2,6.1,49.6,35.4,56.2c33.4,7.4,64.1-11.5,147.6-79.7c62.1-50.8,163.9-132.1,237.3-139.4
	c-39.4-7.4-95.1-27.9-126.1-34.8c-49.3-10.9-98.5-6.9-126.7,41.2c-12.3,20.8-13.6,51.7-0.9,75.5l-2.2,2.1c-23-25.6-21.7-62.1-6-86.8
	c24.2-37.8,75.6-51.7,138.7-37.7c38.7,8.6,100.2,34.1,152.9,39l1,3.2c-34.6,7.7-40.6,21.4-79.2,70.1l-55.2,69.9
	c-47.4,59.6-82.6,97.1-140.8,105.2l48.9,10.8c61.1,13.5,94.1,1.6,108-32.1c8.4-20.8,2.9-34.4-0.4-42.4l2.5-1.6
	c6,7.7,10.9,28.1,2.8,47.2c-15.1,35.5-49,49.4-114.2,35l-68.9-15.2l0.1-6.4c53.8,0.4,91.4-43.9,134.6-98.4l1.8-2.2l-77.8-17.2
	l-7.8,6.4c-85.4,69.1-127.6,105.1-172.8,95.1C1323.7,515.6,1311.4,484.2,1318,452.8L1318,452.8z M1623.5,434.1l43.2-54.1
	c30.2-37.8,53.5-65.9,77.5-76c-63.6,11.1-136.8,65.5-196.5,113.4L1623.5,434.1z"/>
<path class="st1" d="M1645,559.6c11.7,8,24.8,20,41.2,33.7c30.5,7.2,66.9-3.3,136.7-33l96.2-40.9c41.4-17.7,88.7-34.4,133.2-29.3
	c-7.7-12.4-20.7-25.2-40.3-38.6c-74.8-51.1-173.9-45-212.9,9.8c-11.9,16.6-12.7,33.3,1.5,43c22.1,15.1,68.1-6.5,95.7-35.7l3.4,2.4
	c-28.8,33.4-78.5,55-104,37.6c-18.3-12.5-21.4-33.8-6.9-54.2c40.6-57.2,146.1-63,227.4-7.4c21,14.4,35,29.5,43.8,44.6
	c11.4,1.8,23,5.6,33.7,11.4c6.7,3.5,17,9.1,26.9,15.4l-2,3.7c-9.2-5.8-19.6-11.3-32.2-16.5c-7.8-3.3-14.9-5.6-22.6-6.9
	c16.6,35.6,3.7,69.3-20,86.9c-24.8,18.5-76,26.9-127.3-6.1c9.2,13.9,3.3,24-1.6,31.2c-11.3,16.5-57.3,32.1-77.6,61.8
	c-8,11.7-6.3,25.5,10.2,36.8c34.5,23.5,95.5-1.5,115.1-30.1c7.8-11.4,10.8-21,8.7-33.5l3.6-1.6c4.4,10.6,0.9,32-8.5,45.7
	c-22.8,33.4-88.5,46.7-123,23.2c-24.8-17-21.5-45.5-10.4-61.7c17.2-25.2,69.9-46.8,78.6-59.5c4.7-6.9,0.9-14.6-31.9-33.9l-39.4,17
	c-67.8,29-110,34.5-144.3,26.3c11.5,9.8,24.8,20,40.6,30.8c20,13.7,41.2,25.6,67.1,27.6l0.1,3.6c-27.9-1.4-48.2-10.2-70.9-25.7
	c-10.7-7.3-31-24.2-48.6-39.8c-14.4-4.8-27.9-12.5-41.7-21.9c-12.1-8.2-14.1-12.7-11.3-16.8C1634.2,554.7,1639.8,556,1645,559.6
	L1645,559.6z M2031.6,567.9c23.6-16.8,38.4-41.5,24.9-70.5c-24.3-1.4-55.1,8.9-126.3,39.1l-41.4,17.7l19.1,13.5
	C1957.7,602.8,2000.1,590.3,2031.6,567.9L2031.6,567.9z"/>
<path class="st1" d="M2343,849.2c27.2,37.5,59,42.8,69.1,43.2l0.5,2.8c-16.7,1.8-48.2-5.2-77.4-45.4c-2-2.7-5.3-8-9.6-15.2
	c-13.9-14.1-48.3-16-131.2-10.8l-97.4,5.8c-73.3,4.3-115.2-4.4-145-24.1c7.5,13.1,16.6,27.1,27.9,42.7
	c14.2,19.6,30.2,37.9,53.9,48.5l-1.1,3.4c-25.8-10.6-41.9-25.7-58.2-48c-7.6-10.5-20.8-32.9-32.2-53.5
	c-12.2-9.7-22.3-21.4-32.1-34.9c-8.6-11.8-9-16.7-5-19.6s8.9,0.2,12.6,5.3c8.3,11.5,16.6,27.1,27.5,45.6
	c26.3,17,64.4,19.7,140.1,15.2l104.4-6.2c71.5-4.5,109.1,3.2,129.2,20.1c-20.8-34.9-55.5-93.3-77.1-123
	c-48.4-66.5-115.6-72.3-167.3-36.2c-20.2,14.2-27.4,35.4-15.9,51.3c19.4,26.7,74.2,20.4,109.7,1.8l2.2,3
	c-38.4,21.7-96.1,27.6-117.9-2.5c-16.2-22.3-10.1-45.8,12.8-61.9c62.2-43.7,147.2-16.2,197.7,53.3
	C2291.2,748.1,2329.3,830.3,2343,849.2L2343,849.2z"/>
<path class="st1" d="M2220.7,976.5c-6.2-21.2,4.8-38.8,28.5-45.6c46.5-13.5,142,29.7,163.7,104.6c9.3,32.1-8.9,53.4-32.1,60.2
	c-12.8,3.7-30.8,1.6-51.1-3.9l-79.3-21.8c-25-6.7-37.9-6.4-48.7-3.2c-10.4,3-15.2,10.5-11.1,24.5c5,17.2,23.1,37.6,48.6,58.1
	c53.3,4.1,123.2,11.2,175.2,31.8c25.5,10,49.2,28.8,53.6,44c4.1,14-7.2,21.6-29.7,20.3c-52.8-3.8-126.7-36.7-181.7-75.1
	c-32.2-1.5-62.6-3.1-85.7-6.4c-62.1-8.9-113.8-58.3-132.2-121.6c-17-58.5,0.1-109.1,37.1-119.4c34.2-9.5,66.3,17.3,77.9,57.4
	c10.5,36.1,4.2,67-19.2,92.5l-3.1-3c20.3-24.6,25.8-54.8,16.3-87.7c-10.7-36.9-43.2-56.1-74.9-47c-34.5,10-42.2,57-28.1,105.5
	c16,55.3,67.9,96.3,128.2,103.6c12.1,1.3,31.6,2.6,55.2,4.4c-22.6-19.5-38.6-38.8-43.5-55.6c-7.1-24.4,9.1-39.1,25.5-43.9
	c10.4-3,29.3-2.4,50.1,3.3l77.9,21.3c23.1,6.3,41.5,8.4,55.6,4.3c12-3.5,20.5-17.7,13-43.7c-19.3-66.5-113.7-104.4-161.8-90.4
	c-14.8,4.3-23.1,14.9-18.4,31c10.6,36.5,72.8,60.6,105.6,49.4l1.9,3.4C2293.5,1043.2,2231.1,1012.2,2220.7,976.5L2220.7,976.5z
	 M2436.5,1239.8c20,1.6,29.2-2.8,26.1-13.2c-3.4-11.6-26.1-27.2-55.2-36.1c-40.5-12.2-90.9-16.7-138.1-19.1
	C2322.2,1206.5,2390.3,1236.2,2436.5,1239.8L2436.5,1239.8z"/>
<path class="st1" d="M2441.6,1474.7c2.1-39.6-31.5-110.3-103.2-152.9l-36.9-22c-45.8-27-79.2-28.8-97.9-29.7
	c-37.1-1.9-57.4,18.3-58.9,47.9c-1.2,23.8,8.8,48.5,25.5,72.4c17.1-15,44.1-20.7,66.6-19.5c29.2,1.5,58.8,11,86.3,27.5
	c49,29.7,73,67.7,71.7,91.5c-1.2,23.3-18.1,33.8-43.1,32.5c-48.4-2.5-134.9-58.4-181.8-121.8c-6.2,6.4-10.4,14.5-10.9,24.9
	c-1.9,36.3,45.4,83.8,95.6,99.8l-1.1,4.1c-57.6-17.2-102.2-67.6-100.3-105.1c0.6-12.1,5.3-21.9,12.4-29.9
	c-17.9-25.6-28.6-52.5-27.4-77.1c2.4-47.1,46-64.9,81.4-63.1c41.7,2.2,97.8,24.7,137.1,56.4c67.4,54.5,93.8,110.2,91,163.9
	c-2.2,42.5-26.4,65.5-62.2,72l-1.1-3.4C2419.7,1534.2,2439.6,1513.4,2441.6,1474.7L2441.6,1474.7z M2174.4,1396.5
	c45.7,60.9,132.5,112.2,178.8,114.6c21.3,1.1,34.4-2.8,35.2-18.2c1.6-30-55.9-66.4-94.6-86.4c-30.1-15.3-58.3-20.2-75.4-21
	C2201.3,1384.5,2185.7,1388.3,2174.4,1396.5L2174.4,1396.5z"/>
<path class="st1" d="M2324,1747.9c21.1,8,45.4,1.6,56.4-27.7c12.3-32.4,1.1-77.2-40.7-111.8c-38.7-32.1-108.9-39-143.1,51.6
	l-2.9,7.8l75.7,101.8c47,63.3,54.8,112.2,44.6,139.2c-13.4,35.5-63.1,12.3-98.3-45.7c-25.1-42.1-49.5-106.2-33.3-177.3l-2.4-3.1
	c-20.7-27.9-44.8-64.3-54.6-103.2c-14.1,19.6-27.8,40.4-35.6,61.1c-16.8,44.5-12.5,83.6,9.7,106.3c9,9.2,22.5,16.1,33.9,15.5
	l0.7,2.9c-24.2,5.1-90.2-38.6-57.5-125.3c9.3-24.6,28-46.9,46.8-69.3c-4.1-22.1-3.6-44.7,4.9-67.3c13.6-35.9,29.4-42.4,41.1-38
	c10.9,4.1,14.8,17.6,7.5,36.8c-7.1,18.7-25.6,41.6-44.2,67.2c8.4,27.3,27.1,52.2,43.9,75.1l12.6,17.3l1.5-3.9
	c35.6-94.1,115.8-93.6,160.1-56.3c39.9,33.8,50.3,82.8,35.8,121.1c-12.4,32.8-39.9,40.7-64.9,31.2c-25.4-9.6-49.7-45.6-47.4-83.5
	h3.6C2276.4,1706.3,2301.8,1739.5,2324,1747.9L2324,1747.9z M2133.8,1505.5c-7.7,20.3-7.6,39.1-3.2,56.8
	c17.4-20.2,33.6-40.4,41.9-62.2c5-13.3,3.4-25.5-5.2-28.7C2155.5,1466.8,2144,1478.5,2133.8,1505.5L2133.8,1505.5z M2221.3,1860.3
	c26.2,43.8,75.7,78.2,87.4,47.3c9.4-25-6.2-60.3-54.7-125.6l-66.6-89.4C2174.2,1759.5,2197.5,1820.5,2221.3,1860.3L2221.3,1860.3z"
	/>
<path class="st1" d="M2197.2,1904c39.3,31.7,36.4,87.8,8.1,122.9c-23.6,29.2-85.9,38-115.2,55.6c3.7,26,6.4,46.5,6.8,52.7
	c0.5,13.3-2,23.1-5.7,27.6c-4.2,5.2-9.1,6-14.7,1.6c-13.3-10.8-20.6-62.2,0.9-88.8l2.6-3.2c-5.7-48.1-13.8-103.9-18.6-151.8
	c-3-28.2-6.9-61.9-10.3-93.6c-34.1,25-101.9,32.5-124.2,60.1c-20.2,25-14.6,82.6,26.6,118.6c18.6,16.1,37.2,14.4,49.2-0.5
	c16.5-20.5,13.1-60.8-12.8-94.5l4.5-2.3c27,30.9,31.8,78.2,10.3,104.8c-15.5,19.2-39.9,18.2-58.2,2.3
	c-39.9-34.3-50.4-111-22.9-145.1c30.9-38.3,96.7-45.3,125.1-59.9c-4.2-28.6-7.3-52.1-7.4-58.6c-0.5-13.3,2-23.1,5.7-27.6
	c4.2-5.2,9.1-6,14.7-1.6c15.3,12.3,21.2,68.1,0.5,93.7l-3.5,3.6c4.1,38.7,9.2,83.6,13.5,120.8c4.6,40.2,10.2,85,15.4,124.5
	c33.4-26.1,96.7-28.7,121-58.9c18.1-22.4,14.3-66.2-24.7-97.7c-17.5-14.2-40.3-15.9-55.2,2.6c-21.5,26.6,1.7,63,19.1,81.9l-2.7,2.7
	c-21.9-19.3-43.6-60.9-21.3-88.5C2145.7,1880.7,2178,1888.6,2197.2,1904L2197.2,1904z M2050.2,1758.5c1.8,14.3,4.6,31.6,6.5,47.1
	c1.1-0.7,1.9-1.7,2.7-2.7c19.7-24.4,6-66.5-2.8-73.6C2050.7,1724.7,2047.7,1737.7,2050.2,1758.5L2050.2,1758.5z M2078.9,2091.7
	c-16,19.8-5.9,59.1,2.9,66.2c5.9,4.7,9.2-8.7,7-26.6c-1.6-14.7-4.6-29.5-6.7-42.9C2080.7,2089.5,2079.7,2090.8,2078.9,2091.7
	L2078.9,2091.7z"/>
<path class="st1" d="M1910.2,2209.3c8,45.3-17.1,91.4-67.5,124.8c-23.7,15.7-43.4,26.7-62.3,36.7c-7.4,9.9-16.3,17.8-26,24.2
	c-4.9,3.2-11.7,5.8-14,2.3c-2.8-4.2,1.7-9.6,7.7-14.1c7.4-5.4,17.6-11.2,29.2-17.9c9.9-22.1,12-56,8.4-103.7l-10.2-128.9
	c-30.8,38.9-41.1,73.3-40.9,121.2l-3.8-0.5c-2.3-49.6,11.3-88.1,44-129.3c-6.4-88.3,11.3-183.2,70.8-222.6
	c30.3-20.1,55-11.4,66.3,16.2c18.2,44-23.1,98.9-101.5,176.3c-6,6-11.4,11.5-16.7,17.1l10.9,137.4c4,51.4-2.8,86.5-16.8,110.7
	c16.9-9.2,36.2-19.4,53.2-30.7c42.1-27.9,71.1-66.6,56.1-120.2c-6.4-23.3-25.9-45.9-51.8-53.3v-3
	C1877.3,2155,1905.1,2179.6,1910.2,2209.3L1910.2,2209.3z M1850.7,1906.3c-45.6,30.2-63.4,118.1-57.4,196.7
	c4.7-5.1,9.6-10.4,15.2-15.6c74.9-73.6,109.9-134.9,92.1-173.1C1893.1,1897.7,1876.8,1889,1850.7,1906.3L1850.7,1906.3z"/>
<path class="st1" d="M1554.1,2310.3c-12.8-45.8,16.1-127.5,74.3-143.7c46.6-13,89.8,51.7,71,135.3c-17.3,76.3-68.8,114-109.8,125.4
	c-63.1,17.6-102.9-35-108.5-100.2c-6.9-79.1,32.1-163.2,110.4-216.6c-28.1-1.3-56.2-1.2-80.8,5.6c-47.8,13.3-79.6,43.8-77.2,83.9
	l-4.8,0c-6-46.4,28-86.2,77.4-100c29.3-8.2,66.7-4.7,101.9,0.2c21.9-13,46.4-23.3,73.3-30.8c33.8-9.4,49,0.2,52.5,12.7
	c2.8,10.1-2.9,23.8-27.4,30.6c-23.3,6.5-61,1.8-100.4-1.1c-74.4,51.9-110.1,139.8-105.2,222.5c3.9,63.9,32.8,102.2,87.1,87.1
	c38.6-10.8,82.7-49.9,100.3-128.4c17.9-80.4-21.2-130.6-58.2-120.3c-42.6,11.9-74.5,94.8-59.5,148.7c3.9,14.1,10.7,27.4,22.1,32.8
	l-2,3.6C1579,2353.2,1561.8,2338,1554.1,2310.3L1554.1,2310.3z M1683.2,2075.5c-22.9,6.4-43.4,15.1-62,26.4
	c34.4,5.2,65.6,9.9,83.7,4.9c14.9-4.1,25.9-12.8,23.1-22.9C1724.5,2071.3,1701.7,2070.3,1683.2,2075.5L1683.2,2075.5z"/>
<path class="st1" d="M1324,2336.9c-28.8-0.8-47.9-16.4-55.3-36.3l-23.8,14.3c-8.9,5.2-19.5,11.1-30.6,17.9
	c-3.8,14.9-8,29.8-13.8,44.3c-22.5,55.3-56.5,74.3-81.5,73.6c-12.1-0.4-18.6-8.1-18.3-17.6c0.9-30.9,47-65.4,91.7-93.3
	c7.1-41.1,11.8-88.6,24-119.1c21.2-52.8,72.2-86,133.2-84.2c15,0.4,27.9,3.3,39,8.2c4.4-22,0.7-38-6.1-48.6l2.2-2
	c8.9,10.7,12.9,28.8,8.5,52.9c39.9,21.2,51.4,68.7,40.7,106.8C1417.9,2310.9,1372,2338.3,1324,2336.9L1324,2336.9z M1107,2433.2
	c-0.2,8.3,4.7,11.8,12.6,12.1c19.2,0.6,41.4-18,55.2-43.9c7.1-13.6,12.2-32.6,16.2-54.2C1149.7,2373.5,1107.8,2405.7,1107,2433.2
	L1107,2433.2z M1270.7,2278.1c-0.1,4.6,0.2,9.2,1.3,13.4c49.8-32.4,93.6-72.4,111.5-127.8c1.8-5,2.8-9.5,4.2-13.7
	c-10.3-4.5-23.2-7.4-38.2-7.8c-56.7-1.7-94.4,44-112.9,92.3c-9,23.1-12.9,56.4-20.6,90.8l26.3-15.5c8.1-4.8,16.6-9.9,24.7-15.1
	c-1.5-5.5-2.2-10.9-2-16.8c0.7-22.9,16.8-45.4,39.2-53.6l1.2,2.5C1285.2,2236.4,1271.3,2254.8,1270.7,2278.1L1270.7,2278.1z
	 M1392.1,2152.3c-1,4.6-2.4,9.1-3.8,14.1c-17.9,56.7-63.4,97.5-114.5,130.7c7,18.6,25.3,32.9,50.4,33.6
	c42.6,1.2,85.4-35.1,98.5-82.7C1432.1,2213.6,1428.3,2171.3,1392.1,2152.3L1392.1,2152.3z"/>
<path class="st1" d="M861.8,2238.4c-20.2,27.9-30.5,61.9-10.5,89.9c23.3-6.1,50.4-24.6,107.9-70.2l76.4-60.7
	c57.7-46,96.9-62.5,132.1-63.7c-13.7-6.4-29.2-12.7-47.3-18.9c-22.9-7.9-46.5-13.7-72-8.8l-1-3.4c27.2-6.1,49.1-3,75.2,5.9
	c12.2,4.2,36.3,15.1,57.5,25.4c15.2,0.8,30.2,4.6,46,10c13.8,4.7,16.9,8.5,15.3,13.2s-7.4,4.9-13.4,2.9
	c-13.4-4.6-29.2-12.7-48.7-21.5c-31.3,1.2-63.7,21-123.1,68.1l-81.9,65c-34.5,27.4-74.7,55.6-117.3,63
	c10.5,10.6,25.7,20.3,47.4,27.7c85.7,29.4,179.6-2.8,202.6-66c7-19.2,3.3-35.5-12.8-41c-25.3-8.7-64,24.4-82.7,59.9l-4-1.4
	c19-39.8,61.1-73.9,90.3-63.9c20.9,7.2,29.6,26.9,21.1,50.5c-23.9,65.9-124.1,99.5-217.3,67.6c-23.3-8-39.7-19.4-51.2-32.1
	c-13.3,1.6-26.4,1.1-40-1.8c-7.4-1.6-18.8-4.2-30-7.6l1-4.1c10.4,3.1,21.9,5.7,35.4,7.3c10.2,1.3,19.4,1.4,28.2,0
	c-24.3-33.5-18.1-75.9,0.5-104.4c28.5-43.2,88.4-68.5,156.6-37.2l-2.4,3.1C941.4,2166.9,894.3,2193.5,861.8,2238.4L861.8,2238.4z"/>
<path class="st1" d="M974,2101.9c-25.5,30.9-120.4,35.5-226-6.7l-15.8,6.8c-36.1,15.3-64.4,36.1-82.2,57.7
	c-13.7,16.3-19.7,34.9-4.2,46.9c39.9,30.9,119.6,14,150.6-22.7c9-11,9-20.5-0.2-27.6c-17.5-13.6-48.8-9.3-82.3,8.1l-1-2.9
	c31-18.2,65.7-24.1,87-8.6c14.1,10.4,13.7,25.9,1.3,40.6c-28.4,33.9-117.3,50.6-162.2,15.8c-27.4-21.2-12.2-49.6,8-73
	c5.2-6,10.8-11.2,17.4-15.6c-56.5,14.3-116.7,17.8-150.1-8c-13.2-10.2-15.2-23.9-4.2-37.6c25.5-30.9,120.4-35.5,226,6.7l15.8-6.8
	c36.1-15.3,64.4-36.1,82.2-57.7c13.7-16.3,19.7-34.9,4.2-46.9c-39.9-30.9-119.6-14-150.6,22.7c-9,11-9,20.5,0.2,27.6
	c17.5,13.6,48.8,9.3,82.3-8.1l1,2.8c-31,18.2-65.7,24.1-87,8.7c-14.1-10.4-13.7-25.9-1.3-40.6c28.4-33.9,117.3-50.6,162.2-15.8
	c27.4,21.2,12.2,49.6-8,73c-5.2,6-10.8,11.2-17.4,15.6c56.5-14.3,116.7-17.8,150.1,8C983.1,2074.6,985.1,2088.3,974,2101.9
	L974,2101.9z M515.2,2079.5c-8.2,10-5.9,21.3,3,28.2c32,24.8,118.9,15.6,179.9-10l29.1-12.3C639.9,2050,541.2,2048,515.2,2079.5
	L515.2,2079.5z M966,2069.3c-32-24.8-118.9-15.6-179.9,10l-29.1,12.3c87.2,35.4,185.9,37.4,212,5.8
	C977.2,2087.6,974.9,2076.2,966,2069.3L966,2069.3z"/>
<path class="st1" d="M251.3,1676.1l-3.4-6.2c20.5,0.1,75.9-0.1,174.9-3.9c68.6-2.8,114.5-4.3,139-17.9c9.8-5.5,15.9-16,10.3-26.2
	c-14.2-25.6-83.4-28.2-131.9-20.9l0.2-3.9c49.3-9.2,120.9-7.4,136.9,21.4c12.8,23-4.1,40-20.5,49.1c-21.2,11.7-78.8,17.9-123.9,17.6
	c-46.5-0.4-98,1.4-140.6-3.1c64.2,16.9,101.1,27.4,141.8,34.5c57.8,9.5,141.5,24.6,216.5,34.1l-1.1,4.9
	c-39.7,1.5-82.9,10.7-116.6,21.2l-76.7,24.4c-21,6.9-51.5,18.1-88.5,17.6c51.5,11.1,111.1,6.6,176.7,8.9c96.4,3.3,153.4,8,176,48.9
	c17,30.7-1.2,58.9-27.7,74c-36.7,20.8-103,15.6-124.1-22.3c-14.4-25.9-4.3-43.9,15.3-53.3l2.3,2.5c-20.1,11.1-24.6,27-15.3,43.8
	c20.8,37.6,87.1,35.7,121.2,16.3c26.1-14.9,35.5-35,22.1-59.1c-16.8-30.3-55.7-40.2-150.8-43.8c-83.8-3.1-165.4,3.9-229.7-19.1
	c11.8,22.1,20.8,50.5,32.2,70.9c19,34.3,51.2,61.3,101.4,50.2c30.9-7.1,51.1-20.7,55.3-60.3l3,0.2c0.1,41.5-26.1,67.4-60.2,73
	c-39.5,6.2-82.5-20.6-105.4-61.8c-14.6-26.3-20.8-58.1-40.9-85.7l3.6-3.9c28.4,13.4,50.9,10.9,109.2-9.5l48.8-17
	c30-10.4,65.6-22.1,116.6-22.2l-105.1-16.6C383.4,1715.4,310.7,1693.7,251.3,1676.1L251.3,1676.1z"/>
<path class="st1" d="M335.2,1309c-90.9-52.7-129.1-94.3-131.8-130.5c-1.1-15,6.6-24.8,21.9-25.9c40.4-3,107.2,69.1,131.7,146
	c79.4,44,118.9,52.4,142.2,50.6c20-1.5,27-13.7,26.2-25.4c-2.2-29.6-63.2-68.2-110.5-85.6l1.4-4.3c47.6,15.3,113.3,55.3,115.8,89.4
	c1.8,24.1-17.7,38.5-48.1,40.8c-23.3,1.7-57.8-5.8-120.1-39.3l16.2,78.3l2.5,11.5l41.1,18.7c90.5,41.5,123.1,91.8,126,131.8
	c1.6,22.1-9.5,29.6-22.4,30.9c-26.2,2.8-74.9-33.4-102.9-73.2c-11.2-16.3-27.5-44-41.1-86.1l-66.7-30.7
	c-47.6-22-74.9-45.6-88.6-67.1c0,17.6,0.4,38.9,1.9,59.3c3.7,50.4,21.5,93.4,79.5,107.6c25.5,6.1,48.7,2.3,68.9-18.9l2.6,1.5
	c-18.4,28.1-53.4,36.6-81.7,27.3c-43.7-14.4-70.9-54.2-75.7-118.7c-2-27.1-1.9-49.2-1.2-68.1c-4-8.9-6.3-17.1-6.9-25
	c-0.9-11.7,0.4-17.2,3.7-17.4c3.8-0.3,6.5,3.3,7.9,16.6c0.3,4.2,0.5,12.9,0.5,24.2c14.7,17.8,44.5,36.5,87,56l61.1,28.2l-1.3-5.8
	l-18.4-84.8C349.6,1317.1,342.6,1313,335.2,1309L335.2,1309z M225.8,1158.8c-11.2,0.8-17.1,6.7-16.3,17.1
	c2.4,32.9,48.4,65.9,137.9,117.1c0.4,0,0.5,0.4,0.9,0.3C322.1,1222,260.3,1156.3,225.8,1158.8L225.8,1158.8z M542.9,1567.4
	c-2.1-28.7-27.3-69.6-107.9-106.7l-44.6-20.6c13.1,36.3,31.9,70.1,42.5,83.5c31.4,40,72.3,67.5,95.6,64.9
	C538.1,1587.4,543.1,1581.2,542.9,1567.4L542.9,1567.4z"/>
<path class="st1" d="M284.4,1131.4c32.2,8.8,68.8-8,85.7-70.1c2.4-8.9,4.5-18.2,5.8-27.4c-17.5,5.6-36.8,4.7-54.1-7.8
	c-29.4-20.6-43.1-64.1-30.5-110c7.5-27.4,24.4-40.1,42.9-35c36.2,9.9,55.4,71.3,50,136.9c22.1-6.5,40.3-25.8,49-46.3l4.9,2.6
	c-5.6,11-13.5,32.2-16.7,43.9c-24.1,88.2,4.5,132.7,37.9,151.4c37.1,20.9,82.9,8.4,98.5-48.8c13.7-50.3-9.9-114.3-55.4-126.7
	c-10.9-3-23.4-1.6-29.7,1l-2-3.6c6.5-3.4,19.3-7.3,35.8-2.8c49.1,13.4,71.4,82.2,56.7,136.2c-18.6,68.1-70.8,88.4-112.9,63.5
	s-64.1-78.9-32.1-183.5l0.5-2c-8.5,12-21.2,22.3-36,28.7c-1.6,10.8-3.7,21.5-6.7,32.4c-18.6,68.1-59.7,88.8-91.5,80.2
	c-28.2-7.7-44.3-34.2-42.9-69.7l3.1-0.4C243.4,1102.4,260.2,1124.8,284.4,1131.4L284.4,1131.4z M377.7,1019.2
	c5.2-60.4-10.8-122.3-45.4-131.8c-15.3-4.2-28.1,6.2-33.8,27.1c-11,40.3,5.5,76.4,34.6,95.1C348.2,1019.4,363.6,1021.9,377.7,1019.2
	L377.7,1019.2z"/>
<path class="st1" d="M550.2,991.6c-39.4-25.9-61.3-83.9-37.1-119.9c15.1-22.5,35.2-24.7,54.4-10.7l-1.2,3.2
	c-19.8-11.8-34.9-9.4-45.6,6.6c-24,35.7,4.6,90.5,40.8,114.4c25.9,16.9,48,14.6,64.7-10.3c19.1-28.4,13.5-67.3-27.9-156.9
	c-35.9-76.8-85.2-160.7-88.8-211.4c-13.7,20.5-35.8,44.3-50.2,65.8c-23.5,35-32.1,72.5,3.8,114.1c15.9,18.2,42.5,32.5,73.9,22.5
	l1.2,2.8c-36.9,19-71.7,8.7-91.9-18.9c-24.3-33.4-23.4-79,8-125.8c17.4-26,41.6-47,56.7-74l5.4,1.6c-2.3,28.1,12.6,48.7,51,80.5
	l49.2,40.5c25.1,20.3,63.4,59.1,78.9,89.1c-17.7-42.5-46.1-105.8-67-149.5c-19.9-41.5-46.7-96.7-51.8-131.8
	c-2.8-20.5-3-39.7,12.1-62.2c9.5-14.2,24.4-21.3,37-21.4l1.2,2.8c-13.2,4.7-22.8,12.3-28.7,21c-23.3,34.6-8.5,94.3,36.6,188.9
	c28.3,59.7,55.7,120.8,84.4,194.8l-6,1.5c-22.6-41.3-47.2-65.9-74.6-88.8l-60.6-51.2c-15.1-12.7-37.3-32.1-53-58.2
	c16.2,42.5,46.2,94.4,70.7,147c42.5,90.9,60.7,143.3,34.9,181.7C609.7,1010.8,577.1,1009.1,550.2,991.6L550.2,991.6z"/>
<path class="st1" d="M807.2,668.8c-10.6-15-14-33-18.9-70.4l-13.4-106.9c-4.5-36.1-12.2-62.3-18.7-71.6c-9.1-13-27.8-15.6-49.7-0.3
	c-58.9,42.5-59.6,137.3-32.5,175.9c13.2,18.8,28,19.6,41.4,10.2c32.4-22.8,29.6-84.1,5.7-110.1l2.2-2.6
	c29.8,26.5,28.4,94.8-4.7,118.1c-20.8,14.6-42.5,6.4-57.6-15.1c-28.8-41-20.8-136.9,42.8-181.6c34.1-24,60.7-4.4,73.6,14
	c11,15.7,14,35.1,18.7,73.1l11.4,91c4.9,40.4,9.5,65.8,21.5,82.8c10.3,14.7,25,13,35.2,5.8c16-11.3,29.6-56.5,38.1-113.5
	c-12.9-27.1-26.8-66.4-35.4-104.7c-15.5-70.7-24.6-140.9,7.5-163.4c18.4-13,34.2,6.6,38.8,43.6c7.4,59.1,6.1,133.5-1.6,198
	c10.4,26.4,20.8,47.1,28,57.3c8.2,11.6,19.5,16.9,32.2,8c28.7-20.2,24-87.8,0.3-127.3l4.1-1.4c24.5,39.9,30.3,111.3-1.4,133.7
	c-21.8,15.4-43.2,2.3-59.6-20.9c-2.6-3.8-5.7-8.8-8.6-14.4c-9.2,55.9-23,99.3-39.7,111.1C840.9,705.8,817.5,683.4,807.2,668.8
	L807.2,668.8z M907,347c-4.8-34.4-16.3-50.8-26.2-43.8c-16,11.3-16.3,53.8,3.9,147.8c5.9,28,14.1,54.9,22.7,77.9
	C913.6,467.4,914.1,399.2,907,347L907,347z"/>
<path class="st1" d="M1114.3,720c-2.9-7.2-9.9-11.6-19.8-7.5c-11,4.5-18.5,17.1-17.4,35.7c1.1,17.2,15.4,36.3,45.2,24l0.7-0.3
	l7.7-42.6c4.8-26.7,15.9-40.4,26.5-44.7c12.6-5.2,18,12.9,11.8,35.3c-4.3,15.4-14.2,35.6-33.8,48.4l-0.3,1.8
	c-2,11.7-6.1,26.2-14,38.2c7.4-1.2,14.9-2.9,21.4-5.6c15.1-6.2,23.9-15.3,24.4-26.2c0.2-4.4-1.3-9.1-4.1-11.8l1-1.3
	c7,4.9,13,31.1-17.9,43.8c-9.4,3.9-18.7,4.6-27.9,5c-4.8,6-10.8,11-18.5,14.2c-12.2,5-18.1,2-19.5-1.4c-1.5-3.6,1.3-7.8,7.8-10.5
	c6.1-2.5,15.9-3.6,26.1-5c4.1-8.2,5.7-18,7.4-27.4l1.3-7c-31.3,12.5-50.2-7.5-51.2-27.2c-0.9-17.9,9.3-32.2,22.3-37.6
	c11.4-4.7,19.7,0.4,23.2,8.9c3.6,8.6,0.6,23.2-9.9,31.5l-1.2-1.4C1115,741.1,1117.4,727.5,1114.3,720L1114.3,720z M1098.3,824
	c6.2-2.6,10.5-6.5,13.6-11.5c-8,0.5-16,1.3-23.9,4.6c-4.1,1.7-6.7,4.3-5.7,6.8C1083.7,827.4,1090.4,827.3,1098.3,824L1098.3,824z
	 M1166.5,719.4c4.8-16.9,2.6-36.9-7.9-32.6c-8.5,3.5-11.7,15.2-16.4,41.5l-6.4,36.6C1153.6,752.5,1162.4,733.8,1166.5,719.4
	L1166.5,719.4z"/>
<path class="st1" d="M1187.2,746.2c5.7-20.5,19-35.6,29.2-38.2c7.6-2,13.2,1.1,14.5,6.4c3.1,12.1-12.8,26.3-34.2,38.2l-0.8,2.7
	c-4.3,15.2-2.2,32.1,7.6,29.6c9.3-2.4,17.8-18.8,22.2-32l2.4,0.7c-3.5,10.7-11.3,30.5-25,34.1c-7.8,2-15.6-3.7-17.6-11.6
	C1184,770.8,1182.5,762.8,1187.2,746.2L1187.2,746.2z M1221.9,719.3c0.7-7.1-1.3-9.7-5.3-8.7c-7.9,2-11.9,13.7-17.1,32l-1.9,6.4
	C1214.7,738.9,1220.4,734.5,1221.9,719.3L1221.9,719.3z M1225.2,671.4c1.6,1.2,1.3,3.5,0.3,5.7c-1.8,3.9-9.3,13.5-18.7,22.2
	l-1.6-1.2c8.6-9.2,11.8-16.9,14.8-23.3C1221.5,671.3,1223.7,670.4,1225.2,671.4z"/>
<path class="st1" d="M1235.3,768.7c-0.9-6.5,1.6-20.1,7.8-36c7.8-19.8,19.6-33,31.9-34.8c6.4-0.9,12.2,4.3,11.5,14.4l0.2-0.5
	l4.9-14.9l11.1-1.6l-16.5,50.8c-3,9.1-5.8,16.8-5.4,19.6c0.2,1.6,0.9,2.3,2.1,2.2c3.6-0.5,13.2-14.1,20.1-28.1l2.2,1.3
	c-4.4,9.6-15.9,29.4-23.7,30.5c-4.7,0.7-9.7-3.1-10.4-8c-0.4-3.1,1.5-8.8,4.9-18.8l6.3-18.2c-11.4,24.4-25.8,48.7-36,50.1
	C1241.6,777.4,1236,773.7,1235.3,768.7L1235.3,768.7z M1247.2,773.2c7.2-1,20.6-22.5,33.4-48.5c7.5-18.3,0.1-24.9-4.4-24.3
	c-7.2,1-13.4,12.1-20.5,29.6l-5,12.5c-5.8,14.6-6.5,25.1-6.1,28.1C1245,772.7,1245.9,773.4,1247.2,773.2L1247.2,773.2z"/>
<path class="st1" d="M1446.8,693.5c3.9-8.8,5-17.6-1.6-23.5c-6.6,4.5-12.5,13.5-26.7,32.7l-20,27c-18.1,24.5-31.2,36-50,35.4l-0.6,0
	c-0.3,0-0.6,0-0.9-0.1c-12.3-1.5-18.4-10.5-12.6-23.1l1.9-0.2c-5,13.5,1.1,20.2,11.6,21.2c11.6,0.5,18.1-8.3,37.6-34.6l21.4-29.1
	c9.3-12.6,18.1-26.3,33.8-32.3c-4.2-2-10-3.4-17.7-3.9c-31-2-57.2,18.5-59.1,40.1c-0.6,7,1.7,11.8,5.8,12
	c8.7,0.6,18.3-13.6,21.2-27.1l2.3,0.2c-2.7,14.9-13.6,30.1-24.2,29.5c-7.6-0.5-12.2-6.4-11.5-15c2-24,32.2-44.2,65.9-42
	c8.6,0.6,15.5,2.3,20.8,5c3.8-1,7.9-1.8,12.3-1.9c2.6-0.1,6.6-0.3,12.1-0.1l0,1.9c-5.2-0.2-9.2,0-13.8,0.7c-2.5,0.4-4.5,1-6.4,1.9
	c10.8,7,13.5,18,10.2,27.2c-2.8,7.7-11.4,16.9-28.5,18.5c16.2,3.2,19.6,19.2,13.3,33.3c-5.7,12.8-19.7,22.7-36.5,21.6
	c-9.6-0.6-13.4-5.6-13.1-11c0.3-4,2.6-8.5,6.2-11l1,0.6c-2,2.5-4.3,6-4.6,10.5c-0.3,4.2,2.9,7.7,9.8,8.1
	c10.7,0.7,21.1-8.7,26.2-22.3c5.6-14.9,2.3-27-7.9-28.5c-2-0.4-4.2-0.3-6-0.1l-0.1-2.6l3.4,0.1
	C1434.9,713,1442.6,703.1,1446.8,693.5L1446.8,693.5z"/>
<path class="st1" d="M1465.9,766.5l-7,7.9l-11.1-2.4l33.9-41.6c6-7.5,11.8-13.6,12.4-16.4c0.3-1.5,0-2.5-1.2-2.8
	c-3.5-0.8-17.3,8.5-28.7,19.3l-1.6-2c7.5-7.5,25.2-21.9,32.9-20.2c4.6,1,7.9,6.3,6.8,11.2c-0.7,3.1-4.7,7.9-11.4,15.8l-16.2,19.2
	c20-19,46.4-40.6,55.7-38.6c3.1,0.7,4.8,3,4.1,5.9c-0.7,3.1-4.8,7.8-12.7,5.1c-4.1-1.3-7-0.8-11.4,1.9
	C1505.7,731.6,1490.1,742.5,1465.9,766.5L1465.9,766.5z"/>
<path class="st1" d="M1574,755.4c-23.1,16.5-55.9,34.5-63.9,31.7c-4.3-1.5-7.5-7.3-5.9-12c1-3,4.6-7.3,13.4-14.3l20.4-16.2
	c7.7-6.2,13.8-11.9,14.7-14.7c0.5-1.5,0.2-2.5-0.8-2.9c-3.4-1.2-18.1,6.5-30.7,15.8l-1.4-2.1c8.3-6.5,27.5-18.9,35-16.3
	c4.5,1.5,7.1,7.1,5.5,11.9c-1,3-4.6,7.3-13.4,14.3l-20.4,16.2c-9.8,7.7-14,12.6-14.8,14.9c-0.5,1.5,0,2.3,0.8,2.5
	c6,2,43.9-17.7,70.6-38.8l8-7.1l10.7,3.7l-38.4,37.4c-6.9,6.7-13.2,12.1-14.2,14.8c-0.5,1.5-0.2,2.5,0.8,2.9
	c3.4,1.2,18.1-6.5,30.7-15.8l1.4,2.1c-8.3,6.5-27.5,18.9-35,16.3c-4.5-1.5-7.1-7.1-5.5-11.9c1-3,5.6-7.3,13.1-14.4L1574,755.4
	L1574,755.4z"/>
<path class="st1" d="M1666.6,779c0.7-1.4,0.3-2.2-0.4-2.6c-5.6-2.8-45.9,11.6-75.2,29l-8.9,6l-10.1-5.1l43.1-31.9
	c7.7-5.8,14.8-10.2,16-12.8c0.7-1.4,0.6-2.4-0.4-3c-3.2-1.6-18.8,4-32.6,11.6l-1.1-2.3c9.1-5.4,29.8-15,36.9-11.5
	c4.2,2.1,6.1,8,3.8,12.5c-1.4,2.8-6.5,6.5-14.9,12.5l-21.5,15.4c25.1-13.2,60-26.7,67.6-22.9c4.1,2.1,6.5,8.2,4.2,12.7
	c-1.4,2.8-5.8,6.5-15.2,12.4l-21.8,13.6c-8.2,5.2-14.9,10.2-16.2,12.7c-0.7,1.4-0.6,2.4,0.4,3c3.2,1.6,18.8-4,32.6-11.6l1.1,2.3
	c-9.1,5.4-29.8,15-36.9,11.5c-4.2-2.1-6.1-8-3.8-12.5c1.4-2.8,5.5-6.7,14.8-12.6l21.8-13.6C1660.2,785.3,1665.5,781.2,1666.6,779
	L1666.6,779z"/>
<path class="st1" d="M1649.3,830.2c2.9-4.5,7.8-11,23.2-18.8c19-9.7,39.1-10.2,47.9-4.5c6.6,4.3,8.1,10.4,5.2,15
	c-6.8,10.5-28.1,8.5-51.2,0.7l-2.5,1.3c-14,7.1-25.1,20.1-16.6,25.6c8.1,5.2,25.9,0.4,38.5-5.4l1.1,2.2c-10.2,4.7-30.1,12.4-42,4.7
	C1646,846.7,1644.9,837.1,1649.3,830.2L1649.3,830.2z M1715.8,818.7c5.7-4.3,6.3-7.5,2.8-9.8c-6.8-4.5-18.1,0.5-35.2,9.1l-6,2.9
	C1696.5,826.8,1703.6,827.9,1715.8,818.7L1715.8,818.7z"/>
<path class="st1" d="M1687.6,861.2c4.2-5.1,15.8-12.5,31.8-18.7c19.9-7.7,37.5-8,47.2-0.2c5,4.1,5.1,11.9-2.8,18.2l0.5-0.2l14.3-6.5
	l8.7,7l-48.5,22.3c-8.8,4-16.3,7.1-18.1,9.3c-1,1.2-1.1,2.2-0.2,3c2.8,2.3,19.3,0.1,34.3-4.3l0.6,2.5c-10.1,3.3-32.4,8.3-38.5,3.3
	c-3.7-3-4.3-9.2-1.2-13.1c2-2.5,7.4-4.9,17.2-9.1l17.7-7.7c-25.6,8.2-53.3,14-61.3,7.5C1685.6,871.7,1684.5,865.1,1687.6,861.2
	L1687.6,861.2z M1692.4,873c5.7,4.6,30.6-0.2,58.2-8.3c18.5-6.9,18.4-16.8,14.8-19.7c-5.7-4.6-18-1.7-35.7,5.1l-12.6,4.8
	c-14.7,5.6-22.9,12.3-24.8,14.6C1691.3,871,1691.4,872.2,1692.4,873L1692.4,873z"/>
<path class="st1" d="M1814.4,920.4c-28.1,4-65.5,4.9-71.3-1.2c-3.2-3.3-3.3-9.9,0.3-13.4c2.3-2.2,7.5-4.4,18.5-6.6l25.6-5
	c9.7-1.9,17.7-4.3,19.8-6.2c1.1-1.1,1.4-2.1,0.6-2.9c-2.5-2.6-19.1-2.6-34.6-0.1l-0.2-2.5c10.4-2,33.2-4.1,38.6,1.6
	c3.3,3.4,3,9.6-0.6,13.1c-2.3,2.2-7.5,4.4-18.5,6.6l-25.6,5c-12.2,2.4-18.3,4.8-20,6.4c-1.1,1.1-1.1,2-0.5,2.6
	c4.4,4.6,47.1,4.5,80.6-2l10.4-2.6l7.8,8.2l-51.4,15.5c-9.2,2.8-17.3,4.7-19.4,6.7c-1.1,1.1-1.4,2.1-0.6,2.9
	c2.5,2.6,19.1,2.6,34.6,0.1l0.2,2.5c-10.4,2-33.2,4.1-38.6-1.6c-3.3-3.4-3-9.6,0.6-13.1c2.3-2.2,8.3-4,18.3-6.8L1814.4,920.4
	L1814.4,920.4z"/>
<path class="st1" d="M1786.6,975.8c4.4-0.4,6.6-1.4,5.6-3.5c-1.6-3.7-0.9-7.5,3.1-9.5c3.7-1.8,8.9-0.8,11.5,2.6
	c3.1,3.9,1.4,9.2-4.3,12c-11.9,5.9-25.8,2.8-34.6-3.2l1.2-2C1774.5,975,1780.8,976.3,1786.6,975.8L1786.6,975.8z"/>
<path class="st1" d="M1976.3,1074c6.3,11.4,17.4,16,21,15.7l-0.1,1.9c-5.8-0.1-15.8-2.5-23.9-17.5c-0.8-1.4-2.1-4.2-4-7.9
	c-4.6-4-15.7-4.5-42-6.3l-33.4-2.3c-24.1-1.7-37.8-6-47.5-13.9c1.6,3.7,3.2,7.7,5.6,12.1c4.3,7.8,8.6,14.6,16.2,19.2l-0.7,1.5
	c-8.3-4.8-13.2-10.6-18-19.4c-1.9-3.5-5-11-7.9-18.1c-3.6-3.9-6.7-8.6-9.7-14.1c-2.5-4.5-2-6.9-0.3-7.8c2-1.1,4.8,0.1,7.3,4.7
	c2.1,3.9,3.3,9.3,5.4,16.2c7.9,5,20.1,6.3,43.8,7.9l35.8,2.5c24.1,1.6,36.3,6.6,42.8,12.7c-7.3-14.9-18.2-37.4-21.6-43.6
	c-13.6-24.8-33.7-29-52.9-19c-7.5,3.9-10.5,11-7.6,16.3c5.4,9.8,24.1,10.2,37,5.4l0.8,1.4c-14,5.7-34,5.4-40.3-6.1
	c-4.4-8-2.4-16,6.5-20.7c23.1-12.2,50.9-0.1,65.8,27.1C1962.3,1036.1,1971.8,1065.7,1976.3,1074L1976.3,1074z"/>
<path class="st1" d="M1882.6,1110.7c-1.5,0.5-1.8,1.4-1.5,2.2c2.2,5.9,42,23.5,75.6,31.1l9.5,1.4l3.8,10.5l-90.7-11.4
	c-19-2.4-33.5-16.4-38.5-30.1c-3-8.4,0.9-14,8.5-14.8c6.6-0.7,16.5,4.4,27.8,12c-0.7-4.2,1.7-9.3,6-10.8c3-1.1,8.6-1,19.6,1.4
	l25.4,5.8c9.6,2.2,17.9,3.3,20.7,2.3c1.5-0.5,2.1-1.4,1.7-2.4c-1.2-3.4-16.4-10.1-31.6-14l0.8-2.4c10.3,2.4,32,9.6,34.7,17
	c1.6,4.4-1.1,10-5.8,11.7c-3,1.1-8.6,1-19.6-1.4l-25.4-5.8C1891.4,1110.1,1884.9,1109.9,1882.6,1110.7L1882.6,1110.7z M1843,1112.5
	c3.4,9.4,13.4,18.5,39.4,22.2l59.1,8.3l-0.2-0.4c-20.2-5.8-44.3-15.1-56.4-22.7l-0.2-0.2c-1.2-0.7-2.2-1.3-3-2
	c-13-9-24.7-16.1-31.9-15.4C1843.1,1102.9,1841.3,1107.7,1843,1112.5L1843,1112.5z"/>
<path class="st1" d="M1978.1,1231c-6.4,1.4-20.1,0-36.5-5c-20.4-6.3-34.4-17-37.1-29.1c-1.4-6.2,3.3-12.3,13.2-12.7l-0.1,0
	l-53.3-13.2l-2.4-10.9l90,21.8c9.3,2.3,17.2,4.7,20,4c1.5-0.3,2.2-1.1,2-2.2c-0.8-3.5-15.1-12.1-29.6-17.9l1.1-2.3
	c9.9,3.7,30.5,13.6,32.2,21.3c1,4.6-2.3,9.9-7.2,11c-3.1,0.7-8.8-0.8-19.2-3.5l-17.3-4.6c24.7,9.4,49.2,21.7,51.5,31.6
	C1986.3,1224.1,1983,1229.9,1978.1,1231L1978.1,1231z M1907,1195.4c1.6,7.1,13.1,12.5,31.1,18.1l12.8,4c15,4.7,25.6,4.6,28.5,3.9
	c2-0.4,2.6-1.5,2.3-2.7c-1.6-7.1-24.1-18.8-50.9-29.6C1912,1183.1,1906,1191,1907,1195.4L1907,1195.4z"/>
<path class="st1" d="M1929.2,1236.9c5.3-0.6,13.4-1,29.2,5.9c19.6,8.4,32.7,23.7,33.9,34.1c0.9,7.8-2.8,12.9-8.3,13.5
	c-12.4,1.4-24.4-16.2-33.2-39.1l-2.6-1.2c-14.4-6.3-31.5-6.5-30.3,3.5c1.1,9.5,16.2,20.2,28.7,26.3l-1,2.3
	c-10.1-4.9-28.7-15.3-30.4-29.4C1914.3,1244.8,1921,1237.9,1929.2,1236.9L1929.2,1236.9z M1980.4,1280.8c7,1.7,9.8,0,9.3-4.1
	c-0.9-8.1-11.9-13.6-29.4-21.3l-6.1-2.8C1961.9,1271.1,1965.5,1277.3,1980.4,1280.8L1980.4,1280.8z"/>
<path class="st1" d="M1930.9,1314.6c6.6,0.2,19.5,5.2,34.1,14.2c18.1,11.3,28.9,25.2,28.5,37.6c-0.2,6.4-6.4,11.2-16.2,8.7l0.4,0.3
	l13.8,7.5l-0.4,11.2l-47-25.4c-8.4-4.6-15.5-8.7-18.3-8.8c-1.6-0.1-2.5,0.5-2.5,1.6c-0.1,3.6,11.5,15.5,24.1,24.8l-1.7,1.9
	c-8.7-6.1-26.1-20.9-25.8-28.8c0.2-4.7,4.8-9,9.8-8.8c3.2,0.1,8.3,3,17.6,8.2l16.7,9.5c-21.9-15.6-43.2-34.1-42.8-44.4
	C1921.3,1319.3,1925.9,1314.4,1930.9,1314.6L1930.9,1314.6z M1924.4,1325.6c-0.3,7.3,18.5,24.3,41.7,41.5c16.7,10.7,24.5,4.6,24.7,0
	c0.3-7.3-9.5-15.4-25.5-25.5l-11.4-7.2c-13.3-8.4-23.6-10.9-26.6-11C1925.3,1323.5,1924.4,1324.3,1924.4,1325.6L1924.4,1325.6z"/>
<path class="st1" d="M1975.1,1465.9c1.6,0.3,2.2-0.3,2.4-1.2c1-6.2-24.7-40.4-49.9-63.2l-8.3-6.8l1.9-11.2l43.2,31.8
	c7.8,5.7,14.1,11.1,17,11.6c1.6,0.3,2.5-0.2,2.7-1.3c0.6-3.5-9.4-16.8-20.7-27.7l1.9-1.7c7.8,7.1,23.2,24.1,21.9,31.8
	c-0.8,4.7-5.9,8.2-10.8,7.3c-3.1-0.5-8.2-4.3-16.4-10.6l-21-16c20.1,20.1,43.2,49.5,41.8,57.8c-0.8,4.5-5.9,8.6-10.9,7.8
	c-3.1-0.5-8-3.7-16.4-10.9l-19.4-16.8c-7.4-6.3-14.1-11.2-16.9-11.7c-1.6-0.3-2.5,0.2-2.7,1.3c-0.6,3.5,9.4,16.8,20.7,27.7l-1.9,1.7
	c-7.8-7.1-23.2-24.1-21.9-31.8c0.8-4.7,5.9-8.2,10.8-7.3c3.1,0.5,8,3.2,16.4,10.4l19.4,16.8
	C1967.3,1461.7,1972.7,1465.5,1975.1,1465.9L1975.1,1465.9z"/>
<path class="st1" d="M1916.6,1461c6.3,1.9,17.5,10,29.3,22.4c14.6,15.5,21.5,31.7,17.9,43.6c-1.8,6-8.9,9.1-17.7,4.5l0.1,0
	l22.9,21.7c7.2,6.8,12.6,12.8,15.3,13.6c1.5,0.5,2.5,0.2,2.8-0.9c1-3.4-7.2-17.9-16.9-30.2l2.1-1.5c6.8,8.1,19.9,26.9,17.6,34.4
	c-1.4,4.5-6.9,7.3-11.7,5.9c-3-0.9-7.1-5.3-14.9-12.6l-48.1-45.3c-7-6.6-12.7-12.5-15.4-13.4c-1.5-0.5-2.5-0.2-2.8,0.9
	c-1,3.4,7.2,17.9,16.9,30.2l-2.1,1.5c-6.8-8.1-19.9-26.8-17.6-34.4c1.4-4.5,6.9-7.5,11.7-6c3,0.9,7.3,5.1,14.9,12.5l12.8,12.6
	c-16.9-20.4-32.1-43.2-29.2-52.9C1906,1463.1,1911.7,1459.6,1916.6,1461L1916.6,1461z M1907.4,1469.9c-2.1,7,11.7,28.3,29.7,50.8
	c13.4,14.6,22.5,10.7,23.8,6.3c2.1-7-5.2-17.3-18.1-31.1l-9.2-9.8c-10.7-11.5-20-16.6-22.9-17.4
	C1908.9,1468.1,1907.8,1468.7,1907.4,1469.9z"/>
<path class="st1" d="M1894.2,1741.3l-1.7,2.8c-3.6-6.1-13.4-22.1-31.7-50.8c-12.7-19.9-21.1-33.2-30-38.5c-3-1.8-6.2-1.9-7.8,0.8
	c-5.1,8.6,5.9,28.5,16,42.5l-1.3,0.7c-10.9-13.1-22.8-34.7-17-44.4c4.6-7.8,13.6-7.4,22-2.5c6.8,4,16.9,17.5,24.5,30.9
	c7,12.1,13.7,24.1,20,37.4c-4.7-18.3-8.3-28.4-12.8-40.1c-7.2-18.8-17.6-45.6-27.3-70.3l2.4-1.1c7.3,11.5,17.4,22,26.4,30.2
	l20.5,18.5c5.6,5,13,11,18.8,20.8c-6-16.1-17.2-31.1-27.3-49.7c-15.7-29.2-23.8-47.5-15.7-61.3c6.1-10.4,17.7-10.4,27-5
	c14.1,8,22.3,28.2,14.7,41c-5.2,8.8-11.9,9.8-18.5,4.7l0.3-1.1c6.8,4,12,2.6,15.3-3.1c7.5-12.7-4.8-31-16.4-37.8
	c-8.9-5.1-15.9-4.3-20.3,3c-6.1,10.2-2.8,23.2,12.7,52c13.6,25.4,30.1,47.9,34.4,70.9c4.3-7.3,10.8-14.8,14.8-21.6
	c6.9-11.6,9.1-24.6-4-38.2c-5.8-5.9-15.2-10.3-25.8-6.3l-0.4-0.9c12.3-7.2,24.4-4.4,31.9,4.7c9,11,9.5,26.7,0.2,42.4
	c-5.3,8.9-13.6,16.2-18.3,27l-1.8-0.4c-2.8-10.2-8-15.7-23.1-28.5l-13.5-11.5c-8-6.7-16.9-15.3-22.3-25.6l10.4,26.3
	C1883.5,1694.7,1889.7,1718.8,1894.2,1741.3L1894.2,1741.3z"/>
<path class="st1" d="M1814.6,1687.6c4,3.4,9.9,9.2,15.6,25.4c7.1,20.1,4.9,40.1-1.9,48c-5.1,6-11.4,6.7-15.5,3.1
	c-9.5-8.1-4.7-28.9,6.1-50.9l-0.9-2.7c-5.2-14.8-16.7-27.5-23.2-19.9c-6.2,7.3-3.8,25.6,0.2,38.9l-2.4,0.8
	c-3.3-10.7-8.3-31.5,0.9-42.3C1798.7,1682.1,1808.4,1682.3,1814.6,1687.6L1814.6,1687.6z M1817.3,1755c3.5,6.2,6.7,7.2,9.4,4.1
	c5.3-6.2,1.9-18-4.4-36.1l-2.1-6.3C1811.8,1734.9,1809.7,1741.8,1817.3,1755z"/>
<path class="st1" d="M1778.6,1721.6c4.5,4.8,10.3,17.3,14.4,34c5,20.7,3,38.2-6.1,46.8c-4.6,4.3-12.3,3.5-17.6-4.8l0.1,0.1l9.2,30.2
	c2.9,9.5,4.6,17.4,6.6,19.4c1.1,1.2,2.1,1.4,2.9,0.6c2.6-2.5,2.7-19.1,0.2-34.6l2.5-0.2c1.9,10.4,3.9,33.2-1.8,38.6
	c-3.4,3.2-9.6,3-13.1-0.7c-2.2-2.3-3.5-8.1-6.7-18.3l-19.3-63.2c-2.8-9.2-4.8-17.2-6.8-19.2c-1.1-1.2-2.1-1.4-2.9-0.6
	c-2.6,2.5-2.7,19.1-0.2,34.6l-2.5,0.2c-1.9-10.4-3.9-33.2,1.8-38.6c3.4-3.2,9.7-3.1,13.2,0.6c2.2,2.3,3.8,8,6.8,18.2l4.9,17.3
	c-4.6-26.1-6.5-53.4,0.9-60.4C1768.4,1718.1,1775.1,1717.9,1778.6,1721.6L1778.6,1721.6z M1766.2,1724.8c-5.3,5-3.9,30.3,0.6,58.8
	c4.4,19.3,14.2,20.5,17.6,17.3c5.3-5,4-17.6-0.3-36l-3.1-13.1c-3.6-15.3-9.2-24.3-11.2-26.5
	C1768.4,1723.9,1767.2,1723.9,1766.2,1724.8L1766.2,1724.8z"/>
<path class="st1" d="M1728.1,1791.6l3.9,24.8c1.5,9.4,3,17.6,4.8,19.9c1,1.2,1.9,1.6,2.8,0.9c2.8-2.2,4.5-18.8,3.6-34.4h2.6
	c0.9,10.6,0.7,33.4-5.5,38.2c-3.7,2.9-10,2.1-13.1-1.8c-1.9-2.5-3.1-8.2-4.8-19l-3.9-24.8c-1.5-9.4-3-17.6-4.8-19.9
	c-1-1.2-1.9-1.6-2.8-0.9c-2.8,2.2-4.5,18.8-3.6,34.4h-2.6c-0.9-10.6-0.7-33.4,5.5-38.2c3.7-2.9,10-2.1,13.1,1.8
	C1725.3,1775.1,1726.5,1780.9,1728.1,1791.6z M1744.9,1873.1c-3.4,2.6-7.7,1.6-9.6-2.1c-2-3.9-1-9,2.3-11.6c3.5-2.7,7.8-1.7,9.8,2.2
	C1749.2,1865.3,1748.3,1870.4,1744.9,1873.1L1744.9,1873.1z"/>
<path class="st1" d="M1695,1796c3.5,5.6,6.8,19,7.6,36.1c0.9,21.3-4.4,38.1-14.9,44.8c-5.4,3.4-12.9,1.1-16.4-8.4v0.5l1.6,15.6
	l-9.4,6l-5.7-53.1c-1-9.6-1.5-17.7-3.1-20.1c-0.8-1.3-1.8-1.8-2.8-1.1c-3,1.9-6.3,18.2-6.9,33.9l-2.5-0.3
	c0.1-10.6,2.5-33.3,9.1-37.5c4-2.5,10.1-1.2,12.8,3.1c1.7,2.7,2.2,8.6,3.2,19.2l1.6,19.2c0.4-26.9,3.7-55,12.4-60.5
	C1685.7,1790.7,1692.3,1791.8,1695,1796L1695,1796z M1682.2,1796.7c-6.2,3.9-9.6,29-10.7,57.9c0.7,19.8,10.1,22.8,13.9,20.4
	c6.2-3.9,7.3-16.5,6.6-35.4l-0.5-13.4c-0.6-15.7-4.3-25.6-6-28.1C1684.5,1796.3,1683.3,1796.1,1682.2,1796.7L1682.2,1796.7z"/>
<path class="st1" d="M1582.6,1969.4l-0.9-1.8c13.3-12,23.2-33.9,23.1-70.3v-1.1c-0.1-35.1-12.9-53.8-27.3-58.8l0.4-2
	c14.8,3.9,36.2,22.3,37.8,57.7l0.1,1.2C1617.4,1930.9,1597.4,1958.3,1582.6,1969.4L1582.6,1969.4z"/>
<path class="st1" d="M1463.2,1994.1c-12.6,3.4-19.6,13.2-20.1,16.8l-1.8-0.6c1.4-5.6,6.1-14.7,22.5-19.2c1.5-0.4,4.6-1.1,8.7-2.1
	c5-3.6,8-14.2,15.8-39.4l10-32c7.2-23.1,14.6-35.3,24.5-43c-4,0.6-8.2,1.4-13.1,2.7c-8.6,2.3-16.2,5-22.5,11.3l-1.3-1
	c6.6-7,13.4-10.3,23.1-13c3.9-1.1,11.8-2.3,19.4-3.5c4.6-2.6,9.9-4.5,16-6.2c5-1.4,7.2-0.3,7.7,1.5c0.6,2.2-1.3,4.7-6.2,6
	c-4.3,1.2-9.8,1.1-17,1.5c-6.7,6.6-10.8,18.1-17.8,40.8l-10.7,34.3c-7.1,23-14.8,33.8-22.3,38.6c16.2-3.7,40.6-9,47.4-10.9
	c27.2-7.4,36-26,30.7-47c-2.1-8.2-8.2-12.8-14.1-11.2c-10.8,2.9-15.5,21-13.8,34.7l-1.5,0.4c-2.3-15,2.7-34.3,15.2-37.8
	c8.8-2.4,16.1,1.4,18.6,11.1c6.5,25.3-11.7,49.6-41.6,57.7C1503.4,1989.2,1472.4,1991.6,1463.2,1994.1L1463.2,1994.1z"/>
<path class="st1" d="M1437.6,1904.9c-14,15.5-30.6,44.9-33.4,61.6l-13.8,1.4l14.2-61.8c-13.6,13.6-30.1,37.2-29.3,49.5
	c0.1,2.7,1.8,3.7,2.2,8c0.3,3.1-1.9,7.2-5.9,7.7c-4,0.4-6.4-3.1-6.7-6.7c-0.3-3.4,2.1-11,5.4-16.4c9-14.9,17.3-30.9,44.1-55.5l3-0.3
	l-14.2,63.5l1.1-0.1c6.3-18.8,21.8-45.1,44.3-66.6l2.8-0.3l-12.3,50.8c-2.4,9.5-3.8,16.2-3.6,19.1c0.2,1.6,0.8,2.4,2,2.2
	c3.6-0.4,11.9-13.3,19.5-27l2.2,1.4c-4.8,9.4-15.3,28.5-23.1,29.3c-4.7,0.5-9.6-3.5-10.1-8.5c-0.3-3.1,0.5-7.8,3.2-18.3
	L1437.6,1904.9L1437.6,1904.9z"/>
<path class="st1" d="M1373.8,1911.2c-0.1,6-3.3,17.7-10.9,30.3c-9.2,15.4-24,27.8-37.1,27.6c-19.6-0.4-16.8-26.5-5.3-45.6
	c10.6-17.7,29.6-27.7,39.6-27.5C1370.8,1896.2,1373.9,1904.7,1373.8,1911.2L1373.8,1911.2z M1332.9,1923.3l-6,10.1
	c-12.7,21.5-11.9,32.8-1.8,33.1c8.2,0.2,17.9-10.3,27-27.1l2.4-4.4c10.5-19.3,16.9-36.2,5.8-36.4
	C1353,1898.3,1343.5,1905.4,1332.9,1923.3L1332.9,1923.3z"/>
<path class="st1" d="M1155,1965.2c6.1-1.4,14.2-9.2,32.4-25.5l25-22.3c18-16.1,30.6-22.9,43.1-24.3c-3.8-1.5-7.8-3.1-12.6-4.4
	c-8.6-2.4-16.4-4-25.1-1.8l-0.6-1.5c9.2-2.6,16.8-2,26.4,0.7c3.9,1.1,11.4,4.1,18.5,6.9c5.3,0.1,10.8,1.2,16.9,2.9
	c5,1.4,6.3,3.4,5.8,5.2c-0.6,2.2-3.5,3.3-8.4,2c-4.3-1.2-9-4.1-15.3-7.4c-9.1,2.2-18.6,10-36.2,25.9l-26.8,23.9
	c-17.1,15.3-28.9,20.8-37.7,21.6c16.6,6,33.2,11.8,45.1,15.1c27.2,7.6,44.2-3.9,50.5-24.6c2.4-8.1-0.5-15.2-6.3-16.8
	c-10.8-3-24.1,10.1-29.7,22.7l-1.5-0.4c5.7-14,19.9-28.1,32.4-24.6c8.8,2.5,13.1,9.5,10.3,19.1c-7.4,25-35.5,36.5-65.3,28.2
	c-21.3-5.9-56.3-23.3-77.2-31.5l-1.5-0.6c-9.5,5.4-19.1,7-29.3,4.2c-5.9-1.7-9.1-4.9-8.2-8.1c1.5-5.2,11.7-6.1,29.5-1.2
	c6.9-4.5,14.2-11.2,21.6-19.1l38.1-40.4c-22.1,17.8-53.8,37.7-62,35.4c-4.4-1.2-7.9-6.8-6.6-11.7c0.8-3,4.5-7.5,12.6-15.1l18.7-17.6
	c7.1-6.7,12.7-12.8,13.4-15.6c0.4-1.5,0.1-2.5-1-2.8c-3.4-1-17.7,7.6-29.8,17.6l-1.5-2.1c7.9-7,26.4-20.5,34-18.3
	c4.6,1.3,7.5,6.7,6.2,11.5c-0.8,3-4.1,7.7-12.1,15.2l-18.7,17.6c-8.9,8.4-13.3,13.4-13.9,15.8c-0.4,1.5,0.1,2.3,0.9,2.5
	c6.1,1.7,42.8-20.2,68.2-42.9l7.6-7.6l10.9,3l-56.2,60.8c-6.8,7.2-13.3,13.1-19.8,17.2c0.4,0.1,0.7,0.2,1,0.3L1155,1965.2
	L1155,1965.2z M1082,1950.5c-0.4,1.5,0.6,3.2,4.2,4.2c6.2,1.7,13.1-0.1,20.3-4.5C1091.4,1946,1082.8,1947.3,1082,1950.5L1082,1950.5
	z"/>
<path class="st1" d="M1118.9,1860.9c-2.8,5.3-10.7,14.5-23,22.5c-15.1,9.8-33.8,14.6-45.4,8.6c-17.5-9-3.5-31.1,15.2-43.3
	c17.2-11.3,38.7-12,47.7-7.4C1122.8,1846.2,1121.9,1855.2,1118.9,1860.9L1118.9,1860.9z M1076.9,1854l-9.8,6.4
	c-20.8,13.8-25.1,24.3-16,29c7.3,3.7,20.6-1.5,36.1-12.5l4.1-2.9c17.8-12.7,31-25.2,21.2-30.2
	C1105.8,1840.3,1094.2,1842.6,1076.9,1854L1076.9,1854z"/>
<path class="st1" d="M997.4,1831.5c26.5-10,62.9-18.9,69.9-14.2c3.8,2.6,5.4,9,2.6,13.1c-1.8,2.6-6.4,5.9-16.7,10.4l-23.9,10.4
	c-9,3.9-16.4,8-18,10.4c-0.9,1.3-0.9,2.3,0.1,3c3,2,19.2-1.6,33.8-7.4l0.8,2.4c-9.7,4.2-31.5,11.2-38,6.8c-3.9-2.6-5-8.7-2.2-12.9
	c1.8-2.6,6.4-5.9,16.7-10.4l23.9-10.4c11.4-4.9,16.8-8.6,18.2-10.6c0.9-1.3,0.6-2.2-0.1-2.7c-5.2-3.5-47,5.7-78.2,19.3l-9.6,4.8
	l-9.4-6.3l46.8-26.2c8.4-4.7,15.9-8.3,17.5-10.7c0.9-1.3,0.9-2.3-0.1-3c-3-2-19.2,1.6-33.8,7.4l-0.8-2.4c9.7-4.2,31.5-11.2,38-6.8
	c3.9,2.6,5,8.7,2.2,12.9c-1.8,2.6-7.3,5.7-16.4,10.6L997.4,1831.5L997.4,1831.5z"/>
<path class="st1" d="M1000.9,1770.1c9,7.6,8.2,18.9,2.6,25.6c-3.7,4.4-8.6,5.1-11.2,2.9c-2.4-2-2-4.9-0.6-6.7
	c3.6-4.3,8.6-1.3,11.1-4.3c3.1-3.7,2.7-10.1-3.8-15.6c-7.1-6-17.4-3.6-24,4.2c-1.9,2.3-3.1,5.4-3.7,10.6l-1.4,11.9
	c-0.6,4.7-2.4,8.4-4.3,10.6c-5.3,6.2-18.5,11.9-31.2,1.2c-9.3-7.9-7.6-18.8-3.1-24.2c3.7-4.4,8.6-5.7,11.4-3.3
	c2.3,1.9,2.4,5,0.3,7.2c-3.9,4.2-8.5,0.7-11,3.7c-2.4,2.8-2.6,9.1,3.7,14.3c7.1,6,15.2,4.2,19.4-0.7c2.5-3,3.8-5.4,4.7-12l1.7-12.9
	c0.7-5,2.4-8.8,4.4-11.3C973.3,1762.8,990.7,1761.5,1000.9,1770.1L1000.9,1770.1z"/>
<path class="st1" d="M968.3,1756.1c-4.8,4.6-17.2,10.4-33.9,14.6c-20.7,5.2-38.2,3.3-46.8-5.7c-4.5-4.7-3.6-12.4,5-17.7l-0.5,0.1
	l-15,4.7l-7.8-8.1l50.9-16.1c9.2-2.9,17-5,19.1-7c1.1-1.1,1.4-2.1,0.6-2.9c-2.5-2.6-19.1-2.5-34.6,0l-0.2-2.5
	c10.4-2,33.1-4.2,38.6,1.5c3.3,3.4,3.2,9.7-0.5,13.2c-2.3,2.2-8,3.9-18.2,6.9l-18.5,5.4c26.5-4.9,54.6-7.3,61.8,0.1
	C971.7,1745.9,972,1752.6,968.3,1756.1L968.3,1756.1z M965,1743.8c-5.1-5.3-30.3-3.7-58.8,1.1c-19.3,4.6-20.4,14.4-17.2,17.7
	c5.1,5.3,17.7,3.9,36-0.6l13-3.2c15.3-3.8,24.2-9.3,26.4-11.4C965.9,1745.9,965.9,1744.7,965,1743.8z"/>
<path class="st1" d="M828.9,1682.6c-1.3,0.9-1.3,1.9-0.8,2.6c3.8,5.1,46.2,10.4,80.2,8.1l10.7-1.3l6.7,9.1l-52.9,9
	c-9.5,1.7-17.8,2.5-20.1,4.2c-1.3,0.9-1.6,1.9-0.9,2.8c2.1,2.9,18.6,4.9,34.3,4.4l-0.1,2.6c-10.6,0.7-33.4-0.1-38.1-6.4
	c-2.8-3.8-1.8-9.9,2.2-12.9c2.5-1.9,8.7-2.9,19-4.4l26.1-4c-28.4,0.5-65.6-3.4-70.6-10.2c-2.7-3.7-2-10.2,2-13.2
	c2.5-1.9,8.2-3.2,19.2-4.2l25.6-2.3c9.7-0.9,17.9-2.3,20.2-4.1c1.3-0.9,1.6-1.9,0.9-2.8c-2.1-2.9-18.6-4.9-34.3-4.4l0.1-2.6
	c10.6-0.7,33.4,0.1,38.1,6.4c2.8,3.8,1.8,9.9-2.2,12.9c-2.5,1.9-7.9,3.5-18.9,4.6l-25.6,2.3C837.5,1679.9,830.9,1681.2,828.9,1682.6
	L828.9,1682.6z"/>
<path class="st1" d="M873.1,1643.9c-5.8,3.2-19.3,5.7-36.5,5.5c-21.3-0.3-37.8-6.5-43.8-17.4c-3.1-5.5-0.4-12.8,9-15.9l-0.1,0.1
	l-31.5,1.5c-9.9,0.4-18,0.2-20.5,1.6c-1.4,0.8-1.8,1.7-1.3,2.7c1.7,3.1,17.8,7.3,33.4,8.8l-0.4,2.5c-10.6-0.7-33.1-4.4-37-11.3
	c-2.3-4.1-0.5-10.1,3.9-12.5c2.8-1.5,8.7-1.4,19.4-1.9l66-3.1c9.6-0.4,17.8-0.4,20.3-1.8c1.4-0.8,1.8-1.7,1.3-2.7
	c-1.7-3.1-17.8-7.3-33.4-8.8l0.4-2.5c10.6,0.7,33.1,4.4,37,11.3c2.3,4.1,0.6,10.2-3.8,12.6c-2.8,1.5-8.7,1.7-19.3,2.1l-18,0.5
	c26.4,2,53.4,6.9,58.3,15.8C879,1634.9,877.5,1641.5,873.1,1643.9L873.1,1643.9z M873.1,1631.2c-3.6-6.4-28.4-11.2-57.2-13.9
	c-19.8-0.5-23.4,8.7-21.1,12.8c3.6,6.4,16.1,8.3,35,8.6l13.4,0.2c15.7,0.3,25.8-2.9,28.4-4.3
	C873.4,1633.5,873.7,1632.3,873.1,1631.2L873.1,1631.2z"/>
<path class="st1" d="M840.9,1562.6c4.6,10.8-1.2,20.6-9.2,24c-5.3,2.2-10,0.7-11.3-2.5c-1.2-2.9,0.4-5.3,2.5-6.2
	c5.1-2.2,8.3,2.7,11.9,1.2c4.5-1.9,7-7.8,3.7-15.6c-3.7-8.6-13.9-11.1-23.3-7.1c-2.8,1.2-5.2,3.5-8.1,7.8l-6.7,10
	c-2.7,3.9-6,6.4-8.6,7.6c-7.5,3.2-21.9,2.3-28.4-13c-4.8-11.2,1.7-20.2,8.2-22.9c5.3-2.2,10.2-1.2,11.7,2.2c1.2,2.8-0.1,5.5-3,6.6
	c-5.4,2-7.9-3.2-11.5-1.7c-3.4,1.5-6.4,6.9-3.2,14.4c3.7,8.6,11.7,10.6,17.6,8.1c3.6-1.5,5.8-3.1,9.6-8.6l7.3-10.7
	c2.9-4.2,6.1-6.8,9-8.1C819.5,1543.6,835.7,1550.3,840.9,1562.6L840.9,1562.6z"/>
<path class="st1" d="M689,1407.6c-2.8-12.7-12.3-20.2-15.8-20.8l0.6-1.8c5.5,1.7,14.4,6.8,18.2,23.4c0.3,1.5,0.9,4.7,1.7,8.7
	c3.3,5.1,13.8,8.7,38.6,17.7l31.5,11.5c22.7,8.3,34.6,16.2,41.8,26.5c-0.5-4-1-8.3-2.1-13.2c-1.9-8.7-4.2-16.4-10.3-23l1-1.3
	c6.7,6.9,9.7,13.8,11.9,23.6c0.9,3.9,1.8,11.9,2.6,19.5c2.4,4.8,4,10.1,5.4,16.3c1.1,5,0,7.2-1.8,7.6c-2.2,0.5-4.6-1.5-5.7-6.5
	c-1-4.3-0.6-9.9-0.7-17c-6.3-7-17.6-11.6-40-19.7l-33.7-12.3c-22.7-8.2-33-16.4-37.5-24.1c2.9,16.4,7.1,41,8.7,47.9
	c6.2,27.6,24.3,37.2,45.5,32.8c8.3-1.7,13.1-7.6,11.8-13.5c-2.4-10.9-20.3-16.5-34-15.4l-0.3-1.5c15.1-1.6,34.2,4.3,37,17
	c2,8.9-2.1,16.1-12,18.1c-25.6,5.3-49-14-55.7-44.2C692,1448,691,1416.9,689,1407.6L689,1407.6z"/>
<path class="st1" d="M779.2,1386.2c-14.9-14.7-43.4-32.7-60-36.2l-0.8-13.9l61.1,17.1c-13-14.2-35.8-31.8-48.1-31.5
	c-2.7,0-3.8,1.6-8.1,1.9c-3.2,0.2-7.2-2.2-7.4-6.2s3.4-6.2,7-6.4c3.4-0.2,10.9,2.6,16.1,6.2c14.5,9.7,30,18.8,53.4,46.6l0.2,3
	l-62.8-17.1l0.1,1.2c18.5,7.2,44.1,23.9,64.5,47.3l0.2,2.9l-50.2-14.6c-9.3-2.8-16-4.6-18.9-4.4c-1.6,0.1-2.4,0.7-2.3,1.8
	c0.2,3.6,12.7,12.5,26.1,20.7l-1.5,2.1c-9.2-5.2-27.8-16.6-28.2-24.4c-0.3-4.7,3.9-9.4,9-9.7c3.2-0.2,7.8,0.9,18.2,4L779.2,1386.2
	L779.2,1386.2z"/>
<path class="st1" d="M775.4,1322c-5.3-0.3-13.4-1.4-27.8-10.9c-17.8-11.7-28.1-29.1-27.4-39.5c0.5-7.9,5.1-12.2,10.5-11.8
	c12.5,0.8,21.1,20.3,25.8,44.3l2.3,1.6c13.1,8.7,29.8,11.9,30.5,1.9c0.6-9.6-12.4-22.8-23.6-30.9l1.4-2.1
	c9.1,6.6,25.6,20.1,24.7,34.3C791.3,1316.9,783.5,1322.6,775.4,1322L775.4,1322z M732.7,1269.8c-6.6-2.8-9.7-1.8-9.9,2.4
	c-0.5,8.2,9.4,15.5,25.2,26.1l5.5,3.8C749.1,1282.6,746.6,1275.9,732.7,1269.8L732.7,1269.8z"/>
<path class="st1" d="M738.1,1191.4c-1.5-0.3-2.2,0.3-2.4,1.2c-1.1,6.2,24.3,40.6,49.4,63.7l8.3,6.8l-2,11.2l-43-32.1
	c-7.7-5.7-14-11.2-16.9-11.7c-1.5-0.3-2.5,0.1-2.7,1.3c-0.6,3.5,9.3,16.9,20.4,27.9l-1.9,1.7c-7.8-7.2-23-24.2-21.6-32
	c0.8-4.7,5.9-8.1,10.9-7.3c3.1,0.5,8.1,4.3,16.3,10.7l20.9,16.2c-19.9-20.2-42.8-49.8-41.3-58.2c0.8-4.5,6-8.6,11-7.7
	c3.1,0.5,7.9,3.7,16.3,11l19.3,16.9c7.3,6.4,14,11.3,16.8,11.8c1.5,0.3,2.5-0.1,2.7-1.3c0.6-3.5-9.3-16.9-20.4-27.9l1.9-1.7
	c7.8,7.2,23,24.2,21.6,32c-0.8,4.7-5.9,8.1-10.9,7.3c-3.1-0.5-8-3.3-16.3-10.6l-19.3-16.9C745.9,1195.7,740.5,1191.9,738.1,1191.4
	L738.1,1191.4z"/>
<path class="st1" d="M745.2,1150.4l-11.7-10.9l3.1-10.9l11.7,10.9l4.5-16l2.5,0.7l-4.9,17.2l37.2,34.9c7.1,6.6,12.9,12.3,15.7,13.1
	c1.5,0.4,2.5,0.1,2.9-1.3c1.5-5.2-7-19.6-16.9-31.6l2.1-1.5c7,7.9,20.3,26.5,17.8,35.5c-1.5,5.2-7,8.3-11.8,6.9
	c-3-0.9-7.1-4.8-15.1-12.3l-34.8-32.7l-3,10.6l-2.5-0.7L745.2,1150.4L745.2,1150.4z"/>
<path class="st1" d="M815.1,1148.7c1.5,0.6,2.3,0.1,2.6-0.7c2.3-5.9-16-45.4-36.2-73.3l-6.2-7.4l4.1-10.4l60.5,68.5
	c12.7,14.4,14.3,34.4,9,48.1c-3.3,8.3-9.9,9.9-16.2,5.5c-5.4-3.8-9.5-14.2-12.9-27.4c-2.2,3.6-7.4,5.9-11.7,4.2
	c-2.9-1.2-7.1-5-13.7-14l-15.3-21.1c-5.8-8-11.3-14.3-14-15.4c-1.5-0.6-2.5-0.4-2.9,0.7c-1.3,3.3,5.7,18.4,14.4,31.4l-2.2,1.3
	c-6.2-8.6-17.6-28.4-14.8-35.7c1.7-4.4,7.5-6.8,12.1-4.9c2.9,1.2,7.1,5,13.7,14l15.3,21.1C808.1,1143.3,812.8,1147.8,815.1,1148.7
	L815.1,1148.7z M846,1173.5c3.7-9.3,2.2-22.7-14.9-42.7l-38.8-45.3l-0.2,0.4c11.3,17.7,23.3,40.6,27.3,54.3l0,0.3
	c0.4,1.2,0.7,2.4,1,3.5c3.8,15.4,7.9,28.4,13.8,32.7C839.6,1180.7,844.1,1178.3,846,1173.5L846,1173.5z"/>
<path class="st1" d="M834.9,907.9c7.1-10.9,5.8-22.9,3.8-25.9l1.7-0.8c2.7,5.1,5.3,15-4,29.3c-0.9,1.3-2.7,3.9-5.1,7.3
	c-1.3,6,3.5,15.9,14.4,40l13.8,30.5c10,22,12.6,36.1,10.3,48.4c2.5-3.1,5.2-6.5,8-10.7c4.8-7.5,8.7-14.5,9.2-23.4l1.6-0.1
	c-0.2,9.6-3.1,16.6-8.6,25c-2.2,3.4-7.3,9.6-12.1,15.5c-1.7,5-4.4,9.9-7.8,15.2c-2.8,4.3-5.2,5-6.7,4c-1.9-1.2-2.2-4.3,0.7-8.6
	c2.4-3.7,6.6-7.3,11.7-12.4c0.6-9.3-4-20.7-13.9-42.3L837,966.2c-10-21.9-11.4-35.1-9.1-43.7c-9.7,13.5-24.3,33.8-28.2,39.7
	c-15.4,23.7-9.5,43.4,8.4,55.5c7,4.7,14.6,4,17.9-1c6.1-9.4-2.4-26-12.7-35.1l0.9-1.3c11.7,9.6,20.8,27.4,13.7,38.3
	c-5,7.7-13,9.7-21.3,4.1c-21.6-14.6-24.2-44.8-7.4-70.8C808.2,938.3,829.8,915.9,834.9,907.9L834.9,907.9z"/>
<path class="st1" d="M913.3,957.4c0.1-20.9-7-53.9-16.1-68.2l9.4-10.3l30.6,55.6c1.1-19.2-2.3-47.8-11.1-56.4
	c-1.9-1.9-3.8-1.6-7-4.5c-2.3-2.1-3.4-6.7-0.7-9.6c2.7-3,6.8-1.9,9.5,0.5c2.5,2.3,5.8,9.6,6.9,15.8c3.2,17.1,7.6,34.6,4,70.8l-2,2.2
	L905,896.5l-0.8,0.8c7.8,18.2,13.8,48.2,11.3,79.2l-1.9,2.1l-24.7-46.1c-4.5-8.6-8-14.7-10.1-16.6c-1.2-1.1-2.2-1.2-3-0.4
	c-2.4,2.6,0,17.9,3.5,33.1l-2.5,0.4c-2.7-10.2-7.6-31.4-2.3-37.2c3.2-3.5,9.5-3.8,13.2-0.4c2.3,2.1,4.8,6.2,9.8,15.8L913.3,957.4
	L913.3,957.4z"/>
<path class="st1" d="M956.8,910.2c-3.9-4.6-9.3-15.4-12.1-29.8c-3.4-17.7-0.6-36.8,9.3-45.2c15-12.7,30.1,8.6,34.3,30.5
	c3.9,20.2-3.6,40.4-11.3,46.9C969,919.4,961,915.1,956.8,910.2L956.8,910.2z M979.2,874l-2.2-11.5c-4.9-24.5-13-32.5-20.7-25.9
	c-6.2,5.3-6.5,19.6-2.1,38.2l1.1,4.9c5,21.3,11.5,38.2,19.9,31.1C980.8,905.9,983.2,894.3,979.2,874L979.2,874z"/>
<path class="st1" d="M1010.9,900.5l-1.3-1.6c10.6-14.4,16-37.8,8.6-73.5l-0.2-1.1c-7.1-34.3-23.3-50.1-38.5-52.1l0-2.1
	c15.3,0.9,39.9,14.7,48.6,49l0.3,1.2C1037.4,856,1023.2,886.8,1010.9,900.5L1010.9,900.5z"/>
</svg>
