<?xml version="1.0" encoding="UTF-8"?><svg xmlns="http://www.w3.org/2000/svg" viewBox="0 0 2672.51 2672.51"><defs><style>.cls-1{fill:#fff;}</style></defs><g id="Background_Big_Sticker"><circle class="cls-1" cx="1336.25" cy="1336.26" r="1328.45"/></g><g id="Big_Sticker"><path d="m1325,699.9c.34-1.42,1.12-20.06,1.19-24.19.07-4.13.04-22.22-.74-22.71-1.18-.42-3.08-.92-4.75-1.03l.05-3.33,18.73.3-.05,3.33c-1.67.05-3.74.49-4.94.87-.25.79-1.09,13.71-1.23,21.89-.18,10.87.01,23.49.23,24.77,2.62.12,7.06.27,11.27.34,6.51.11,8.68-1.61,8.82-10.33l3.41.05-.24,14.92-36.9-.6.05-3.33c2.62-.2,3.97-.41,5.09-.95Z"/><path d="m1363.13,686.2c.98-13.77,11.05-21.26,22.29-20.46,12.35.87,18.53,7.92,17.65,20.34-.96,13.54-9.56,21.6-22.79,20.66-11.8-.84-17.98-9.07-17.16-20.55Zm19.65,15.71c7.99.57,12.07-4.16,12.79-14.29.7-9.9-2.9-16.36-12.48-17.04-7.44-.53-11.63,3.63-12.38,14.16-.71,10.05,3.92,16.59,12.07,17.16Z"/><path d="m1413.61,704.94c.71-2.39,1.99-9.74,2.78-15.8.62-4.72,1.31-10.07,1.1-12.74-2.07-.67-3.78-1.05-6.35-.99l.4-3.07c3.62-.17,8.84-.93,12.6-2.68l1.81,1.44-.97,6.84c3.9-4.77,8.74-6.86,14.03-6.33l-.97,7.48-3.54-.46c-3.94-.51-7.21.66-10.3,4.74l-.96,6.76c-.87,6.05-1.82,14.57-1.67,15.87,1.02.77,4.75,1.66,6.71,1.92l-.4,3.07-21.33-2.78.4-3.07c1.73.23,5.54.48,6.67-.17Z"/><path d="m1463.63,711.47c-3.54,2.88-8.3,4.96-14.69,3.74-7.8-1.49-11.58-4.96-10.25-11.9,1.25-6.55,6.59-7.87,11.73-8.1,4.89-.2,11.1-.14,16.41-.02.57-2.56.97-4.66,1.21-5.91.82-4.29-2.96-7.35-8.96-8.5-4.99-.95-8.2-.19-8.73,2.53-.39,2.03.52,5.75.79,6.45l-5.79,1.56c-.56-1.72-1.25-4.04-.68-7,1.27-6.63,9.77-10.09,20.29-8.08,8.18,1.56,11.09,5.83,9.92,11.91l-4.09,21.44c-.43,2.26-.31,3.74,1.02,3.99.94.18,1.63-.5,2.45-1.39v-.08s1.87,2.13,1.87,2.13v.08c-1.56,2.61-4.09,5.28-8.23,4.49-3.9-.75-4.93-3.37-4.25-7.36Zm-11.86-1.78c5.69,1.09,9.83-.71,12.9-3.68.36-1.87.81-3.8,1.15-5.6-4.11-.46-10.62-1.06-13.3-1-5.67.05-6.57,1.41-7.11,4.22-.69,3.59,1.91,5.21,6.36,6.06Z"/><path d="m1498.22,723.11l6.69-21.03,3.58,1.06c-4.32,12.13-3.91,18.87,11.01,23.27,6.47,1.91,10.55.13,12.03-4.89,1.91-6.47-2.05-10.45-9.4-15.84-7.63-5.56-15.27-11.62-12.58-20.75,2.92-9.9,13.25-11.82,22.91-8.97,4.8,1.41,10.28,4.43,14.83,8.34l-5.29,15.98-3.58-1.05c3.32-11.27-.53-16.45-10.8-19.48-5.71-1.68-9.1-.28-10.24,3.6-2.04,6.93,3.05,10.99,9.69,15.68,8.44,5.88,14.84,11.41,12.01,21-4.46,15.15-19.87,11.85-24.82,10.39-6.09-1.79-10.71-3.82-16.05-7.3Z"/><path d="m1572.61,745.53c2.12-3.78,5.09-11.56,9.19-22.32,1.39-3.63-1.13-7.06-5.8-8.84-3.86-1.47-8.91-1.36-14.14,3.01-3.73,9.79-7.6,20.37-7.7,21.1.81.99,4.23,2.72,6.08,3.42l-1.1,2.89-20.17-7.69,1.1-2.89c2.52.96,5.35,1.78,6.6,1.41,1.25-2.16,4.2-9.01,6.38-14.72,1.7-4.45,11.03-28.92,11.44-31.56-1.86-1.13-3.73-2.02-6.17-2.52l1.22-3.19c3.49.65,9.04,1.24,13.09.41l1.43,1.82-6.05,15.19-4.24,11.12c5.17-3.97,10.83-4.79,17.58-2.22,6.82,2.6,10.29,6.64,7.72,13.39.28-.74-8.8,23.31-9.17,24.95.68,1.11,3.12,2.29,5.64,3.25l-1.1,2.89-19.8-7.55,1.1-2.89c1.85.71,5.63,1.72,6.89,1.52Z"/><path d="m1596.06,749.84c5.65-12.34,8.53-18.44,10.75-23.1-1.83-1.54-3.95-2.42-6.08-3.31l1.65-3.61c5.41,2.48,9.98,1.08,13.72-3.84l2.53,1.16-3.78,7.87c2.32,1.24,4.66,2.4,6.97,3.45,2.38,1.09,4.72,2.07,7.17,3.02l-2.51,4.35c-2.53-1.33-5.1-2.6-7.62-3.75-1.95-.89-3.93-1.71-5.98-2.56l-9.05,19.77c-1.85,4.04-1.39,7.22,1.93,8.74,2.6,1.19,7.27.71,10.31-.6l.35,2.86c-4.15,3.16-10.13,4.96-15.4,2.55-6.35-2.91-7.34-7.81-4.96-13.01Z"/><path d="m1624,768.78c1.48-2.01,5.14-8.42,7.94-13.86,2.18-4.23,4.62-8.96,5.32-11.54-1.72-1.33-2.92-2.13-5.36-2.94l1.45-2.82c3.47,1.07,8.35,1.98,12.48,1.61l1.22,1.97-9.01,16.97c-2.8,5.43-6.62,13.02-6.92,14.29.7,1.07,3.41,2.92,5.17,3.82l-1.45,2.82-18.35-9.45,1.45-2.82c2.33,1.2,4.77,2.19,6.05,1.95Zm21.92-43.26c1.27-2.47,4.01-2.76,6.2-1.63,2.12,1.09,3.44,3.38,2.13,5.92l-.44.85c-1.2,2.33-3.83,2.94-6.09,1.77-2.54-1.31-3.43-3.73-2.23-6.06l.44-.85Z"/><path d="m1647.41,781.35c1.57-1.94,5.55-8.25,8.6-13.55,2.37-4.13,5.05-8.81,5.87-11.36-1.66-1.41-3.1-2.42-5.5-3.34l1.54-2.68c3.41,1.23,8.53,2.51,12.66,2.32l1.13,2.02-3.5,5.95c5.43-2.92,10.69-3.02,15.39-.51l-3.75,6.54-3.1-1.78c-3.44-1.97-6.92-2.14-11.33.46l-3.46,5.88c-3.11,5.26-7.24,12.77-7.59,14.03.65,1.1,3.75,3.34,5.48,4.33l-1.54,2.68-18.66-10.7,1.54-2.68c1.51.87,4.94,2.56,6.23,2.38Z"/><path d="m1690.44,789.75l-3.19-2.09c-3.76,5.88-7.51,11.59-7.96,12.72.58,1.14,4.54,4.22,4.87,4.43l-1.74,2.66-17.12-11.23,1.74-2.65c2.06,1.35,4.31,2.54,5.81,2.58,1.22-1.29,11.15-15.84,15.11-21.88,2.61-3.98,9.79-15.22,12.07-19.42-.69-.83-3.37-2.68-5.02-3.48l1.92-2.92c3.47,1.51,8.56,3.15,12.7,3.21l.54,1.78c-3.75,5.42-13,19.09-16.61,24.6l-3.83,5.84,3.72,2.44,16.28-4.13c-.91-1.07-2.66-2.31-4.05-3.23l1.74-2.65,13.74,9.01-1.74,2.66c-2.12-1.39-3.65-2.11-6.22-1.52l-16.13,3.46,2.42,23.8,4.32,4.26-1.61,2.46-10.42-6.83-1.34-23.85Z"/><path d="m1713.81,806.17c8.35-10.99,20.88-11.74,29.85-4.93,9.86,7.49,11.18,16.77,3.64,26.69-8.21,10.81-19.82,12.85-30.38,4.83-9.42-7.15-10.08-17.43-3.12-26.59Zm7.85,23.9c6.38,4.85,12.38,3.12,18.52-4.96,6-7.9,6.52-15.28-1.12-21.08-5.94-4.51-11.72-3.33-18.11,5.08-6.1,8.02-5.8,16.03.71,20.97Z"/><path d="m1760.23,820.28c-.26-1.28-.76-2.03-2.38-3.43l2.03-2.34,14.19,12.34-2.03,2.34c-1.5-1.3-4.87-3.71-6.13-3.96-3.57,10.15-6.96,20.34-10.35,30.65l28.14-15.18c-.26-1.28-2.98-3.96-4.41-5.2l2.03-2.34,12.99,11.3-2.03,2.34c-1.5-1.3-2.96-2.04-4.21-2.29l-34.77,16.88-5.27-4.58c4.17-12.05,8.26-24.26,12.19-36.51Z"/><path d="m1789.99,888.18c-4.54.42-9.66-.51-14.28-5.09-5.64-5.58-6.85-10.57-1.88-15.59,4.69-4.74,9.86-2.86,14.25-.18,4.17,2.56,9.29,6.07,13.63,9.13,1.9-1.81,3.41-3.33,4.3-4.23,3.07-3.1,1.64-7.75-2.7-12.05-3.61-3.57-6.7-4.74-8.66-2.76-1.45,1.47-2.78,5.06-2.95,5.79l-5.68-1.94c.5-1.74,1.21-4.05,3.34-6.19,4.75-4.79,13.73-2.93,21.35,4.6,5.92,5.86,5.95,11.02,1.59,15.42l-15.35,15.51c-1.62,1.64-2.34,2.93-1.38,3.88.68.67,1.63.5,2.81.21l.06-.06.35,2.8-.06.06c-2.74,1.31-6.33,2.11-9.32-.85-2.82-2.79-2.22-5.54.57-8.48Zm-8.85-8.09c4.12,4.08,8.55,4.89,12.76,4.14,1.34-1.35,2.79-2.71,4.08-4.01-3.16-2.68-8.23-6.8-10.48-8.25-4.73-3.12-6.24-2.49-8.25-.46-2.57,2.6-1.32,5.4,1.9,8.58Z"/><path d="m1869.32,896.63l2.37,2.88-57.39,47.17-2.37-2.88,57.39-47.17Z"/><path d="m1866.49,981.03c1.43-.56,12.66-7.18,20.02-12.02,5.31-3.49,13.44-9.02,17.03-11.66l-2.44-3.71c-2.75-4.18-9.54-2.09-15.6,1.7l-3.05-4.64,16.32-10.72,25.63,39-16.32,10.72-3.05-4.64c5.88-4.06,10.5-9.46,7.01-14.77l-1.13-1.72c-3.93,2.11-12.37,7.18-17.68,10.67-7.36,4.84-18.31,12.03-19.33,13.08-.1,1.3.97,3.64,2.45,5.89l-4.05,2.66-14.29-21.75,4.05-2.66c1.22,1.86,3.03,3.89,4.44,4.59Z"/><path d="m1886.31,1028.56l23.82-31.86c.19-1.29-.56-3.14-1.21-4.32l4.17-2.3,12.14,21.94-3.96,2.19c-.96-1.73-3.29-4.8-4.24-5.54l-16.43,20.15,25.68-3.41c.26-1.33-1.17-4.25-2.09-5.92l3.96-2.19,8.8,15.9-3.96,2.19c-.46-.83-1.88-2.59-2.98-3.25l-37.43,3.65c-7.75.75-21.93-.3-28.69-12.52l10.28-5.69c2.99,5.24,6.03,9.27,12.14,10.97Zm8.17.83l-3.38-.04c1.03.06,2.2.05,3.38.04Z"/><path d="m1908.15,1067.58c-5.09,2.42-9.1,4.34-11.53,5.71-.04,1.06,1.04,4.76,1.54,5.84l-4.26,1.95-9.55-20.86,4.26-1.95c.56,1.23,1.82,2.83,2.62,3.25,3.94-1.11,9.03-3.35,22.09-9.33,12.99-5.95,16.31-7.47,18.46-9.06-.17-1.14-.96-3.05-1.77-4.25l4.26-1.95c2.13,3.13,6.11,7.06,9.59,9.31l.43,5.13c-1.19.46-2.92,1.25-4.97,2.1,5.4,1.11,9.67,3.95,11.91,8.86,4.82,10.54-.63,18.45-9.87,22.68-11.69,5.35-24.81,2.81-31.12-10.98-1.09-2.38-1.77-4.43-2.09-6.46Zm9.07,4.75c3.14,6.86,9.5,6.82,15.7,3.98,6.13-2.81,10.18-7.89,7.17-14.46-1.35-2.96-4-4.54-7.74-5.27-4.58,2.01-9.49,4.26-13.46,6.07l-2.67,1.22c-.49,2.93-.23,5.78.99,8.45Z"/><path d="m1938.58,1091.18c10.04-3.74,23.79-2.75,29.13,11.6,4.73,12.72-1.09,20.05-11.73,24.01-.89.33-3.12,1.16-4.17,1.3l-9.38-25.22c-4.62,3.07-6.9,8.07-4.33,14.99,1.41,3.79,3.53,6.31,7.49,8.05l-2.35,4.6c-7.28-1.36-12.43-6.55-15.28-14.21-4.62-12.42.22-21.25,10.63-25.13Zm14.13,23.62c5.98-2.82,9.45-6.48,7.65-11.31-1.91-5.13-7.13-5.05-12.99-3.04l5.34,14.36Z"/><path d="m1948.88,1153.97l43.41-2.85c.44-1.9.47-3.46.42-5.33l4.94-1.2,4.58,18.9-33.34,18.78,38.73,3.43,4.55,18.74-4.78,1.16c-.72-1.62-1.71-3.34-2.66-4.91l-40.65,15.9c-.33.98.1,4.47.25,5.41l-4.78,1.16-5.87-24.22,4.78-1.16c.6,2.14,1.87,5.67,2.67,6.62l33.97-12.81-44.19-4.06-1.8-7.4,36.9-21.61-35.31,2.93c-.05,2.14.16,4.7.79,7.65l-4.78,1.16-4.7-19.36,4.78-1.16c.41,1.37,1.53,3.63,2.09,4.23Z"/><path d="m1976.6,1222.93c10.6-1.53,23.83,2.33,26.02,17.49,1.94,13.43-5.3,19.37-16.53,20.99-.94.14-3.3.48-4.35.39l-3.85-26.63c-5.16,2.03-8.45,6.43-7.39,13.74.58,4.01,2.12,6.91,5.62,9.45l-3.27,4c-6.83-2.86-10.77-9.03-11.94-17.12-1.9-13.12,4.7-20.73,15.7-22.32Zm8.82,26.07c6.44-1.49,10.6-4.34,9.86-9.45-.78-5.42-5.9-6.44-12.05-5.71l2.19,15.16Z"/><path d="m1982.2,1267.14c12.59-.9,24.52,5.73,25.67,21.79.16,2.22.06,4.13-.23,5.75,4.51-.4,9.09-.89,11.68-1.31.24-1.05.15-3.51-.2-5.08l5.07-.36c.88,3.44,2.79,10.06,5.26,13.39l-.89,4.28c-6.58.31-23.05,1.41-29.63,1.88-6.1.44-22.95,1.72-24.83,2.18-.55,1.15-.79,3.4-.68,4.9l-4.75.34-1.16-16.15,3.99-.92c-3.36-2.46-5.77-6.11-6.16-11.57-.88-12.35,6.01-18.33,16.85-19.11Zm-7.79,23.39c.17,2.38,1.27,4.45,3.07,6.15,5.07-.28,14.35-.79,20.68-1.24l.55-.04c1.25-2.48,1.7-5.14,1.5-7.91-.5-6.97-6.23-9.18-13.27-8.68-8.47.61-13.02,4.83-12.53,11.72Z"/><path d="m1974.22,1321.85c2.47.36,8.26.58,14.37.48,3.97-.06,8.49-.14,11.1-.74.38-1.2.41-3.9.07-5.24l4.76-.08c.69,3.32,2.76,8.69,5.04,12.14l-1.67,4.95-19.21.07c-6.11.1-13.01.29-14.28.63-.62,1.12-.99,2.79-.95,4.78l-4.76.08-.36-22.06,4.76-.08c.03,1.98.3,4.04,1.11,5.06Zm49.04-.48c3.97-.06,6.16,3.15,6.22,6.65.06,3.41-1.96,6.62-6,6.69l-1.35.02c-3.65.06-6.24-2.84-6.3-6.49-.07-4.05,2.43-6.79,6.08-6.85l1.35-.02Z"/><path d="m1972.05,1367.7c-3.23-2.51-5.15-6.17-4.9-12.43.34-8.33,3.46-12.81,10.67-12.52,5.71.23,8.7,2.97,10.04,10.89.71,4,1.45,9.19,2.05,13.98,2.3.17,4.28.25,5.79.31,3.73.15,5.73-2.23,5.91-6.59.16-4.04-.89-5.36-3.51-5.47-1.51-.06-2.95.2-4.25,1.02l-3.59-9.52c1.71-.96,3.97-1.82,6.5-1.72,7.45.3,12.51,8.93,12.08,19.55-.44,10.79-4.18,15-12.51,14.67l-19.75-.8c-2.3-.09-2.95.28-2.99,1.23-.03.87.89,1.47,1.75,1.82h.08s-2.06,3.73-2.06,3.73h-.08c-4.62-1.54-7.19-4.74-6.98-10.14.18-4.52,2.43-6.97,5.73-8.03Zm2.26-6.74c-.12,2.85,1.24,4.74,3.17,6.09h.08c2.14.09,4.2.17,6.11.25.14-1.58.29-3.25.35-4.75.19-4.6-.26-7.4-4.38-7.56-3.09-.13-5.18,2.41-5.33,5.98Z"/><path d="m1987.84,1420.39c5.86,9.85,9.39,13.3,14.11,13.95,5.03.69,8.83-1.28,9.55-6.54.83-6.06-3.16-9.72-11.41-10.85l.95-6.92,15.18,2.08c2.5,4.59,3.73,12.53,2.64,19.91-1.6,11.08-6.2,17.82-16.58,16.4-10.3-1.41-16.06-14.94-22.07-24.89-1.88-3.22-3.69-5.79-5.87-7.45l-1.53,11.17c-1.09,7.94,1.35,12.36,7.63,12.74l-.78,5.66-19.58-2.68,5.43-40.27c10.93,1.5,17.7,9.95,22.33,17.72Z"/><path d="m1983.79,1452.92c16.22,3.47,29.99,11.94,26.34,29.01-3.07,14.36-12.97,19.63-29.34,16.12-18.47-3.95-30.69-13.23-27.19-29.6,2.97-13.89,12.88-19.24,30.19-15.53Zm-23.43,18.44c-1.59,7.45,7.77,10.35,21.12,13.2,11.25,2.41,20.43,1.61,22.01-5.76,1.48-6.91-8.6-9.88-20.48-12.42-12.03-2.58-21.19-1.86-22.66,4.97Z"/><path d="m1968.23,1516.32c4.32,10.62,7.3,14.55,11.87,15.9,4.87,1.43,8.92.06,10.42-5.04,1.72-5.86-1.67-10.09-9.66-12.44l1.97-6.7,14.7,4.32c1.78,4.91,1.82,12.94-.36,20.08-3.23,10.71-8.79,16.69-18.84,13.73-9.97-2.93-13.65-17.17-18.1-27.91-1.38-3.47-2.79-6.28-4.69-8.24l-3.18,10.81c-2.26,7.69-.51,12.42,5.64,13.74l-1.61,5.48-18.96-5.57,11.39-39c10.58,3.11,16.02,12.48,19.43,20.85Z"/><path d="m1953.28,1562.4c3.52,10.91,6.2,15.06,10.66,16.74,4.75,1.79,8.89.72,10.76-4.26,2.15-5.72-.91-10.18-8.71-13.12l2.46-6.54,14.34,5.4c1.41,5.03.85,13.04-1.85,20-4.02,10.44-10.01,15.99-19.81,12.3-9.73-3.66-12.34-18.13-15.98-29.17-1.12-3.56-2.31-6.47-4.07-8.57l-3.97,10.55c-2.83,7.5-1.43,12.35,4.61,14.12l-2.02,5.35-18.49-6.97,14.25-38.06c10.32,3.89,15.05,13.64,17.83,22.24Z"/><path d="m1954.55,1645.89l-1.68,3.33-66.32-33.47,1.68-3.33,66.32,33.47Z"/><path d="m1877.58,1668.95c1.02,1.05,13.32,9.51,20.5,14.18,6.72,4.37,21.26,13.16,21.68,13.24,1.11-.7,3.63-3.7,4.54-5.09l1.33.87-16.26,25.02c-5.62,8.65-12.52,7.76-17.78,4.34-6.92-4.5-10.11-13.57-5.64-23.07l-26.4-.6-5.23,4.84-1.26-.82,5.97-9.18,29.15,1.91c2.62-3.88,4.68-6.33,6.95-8.07-3.79-2.47-19.29-12.26-20.67-12.77-1.14.59-5.67,6.82-6.75,8.49l-1.33-.86,12.67-19.5,1.33.86c-1.04,1.6-2.98,4.88-2.81,6.22Zm11.75,28.09c-3.85,5.92-3.93,14.2,4.39,19.61,6.59,4.28,11.76,2.15,16.6-5.3,2.03-3.13,4.65-7.3,6.11-10.42-5.93-4.42-12.09-8.33-18.24-12.42-2.99,1.84-6.22,4.48-8.86,8.54Z"/><path d="m1856.64,1713.62c3.33,2.57,15.9,12.14,19.22,14.59,1.72-1.58,3.17-3.47,4.39-5.44l1.13.87c-1.72,3.28-2.77,6.98-3.04,10.98l-1.72.28c-2.57-2.38-11.11-9.25-20.67-16.61-4.53-3.48-9.61-2.49-13.67,2.8-4.55,5.91-3.83,11.48,2.92,21.58l.76.58c4.78,3.68,8.85,6.72,11.61,8.73,1.72-1.58,3.17-3.47,4.38-5.44l1.13.87c-1.72,3.28-2.77,6.98-3.04,10.98l-1.93.42c-1.63-1.66-9.44-8.17-14.79-12.28-5.97-4.6-11.95-8.8-13.71-9.65-1.18.49-3.97,2.95-5.18,4.52l-1.13-.87,7.26-9.43,10.09,7.97c-4.9-8.08-4.72-15.85.41-22.52,4.65-6.04,10.17-7.1,15.58-2.93Z"/><path d="m1820.41,1749.06c4.72,4.25,14.07,13.08,20.09,18.5,3.54,3.18,14.74,13.05,18.55,15.94,1.73-1.33,3.33-2.87,4.68-4.97l1.3,1.17c-1.86,3.02-3.19,6.63-3.87,10.72l-1.73.15-21.79-19.92-.53-.48c2.28,5.89,2.24,12.58-3.39,18.84-5.89,6.55-14.58,9.2-24.55.23-9.68-8.71-11.72-20.68-2.75-30.66,3.61-4.01,8.39-7.19,14-9.51Zm-.53,5.93c-4.7.47-8.58,2.53-12.82,7.26-5.31,5.9-6.73,13.06,3.95,22.67,7.73,6.95,16.04,6.74,21.24.96,6.37-7.08,3.78-14.53.42-19.69-4.24-3.71-9.5-8.43-12.79-11.18Z"/><path d="m1786.21,1784.32c3.08,3.99,7.67,8.71,11.99,13.04,3.36,3.37,6.44,6.24,10.09,9.33,1.8-1.23,3.48-2.69,4.95-4.71l1.01,1.01c-2.02,2.92-3.55,6.45-4.45,10.49l-1.74.05c-4.54-4.78-8.24-8.6-12.89-13.26-4.31-4.33-8.74-8.77-12.72-12.2-1.24.33-4.1,2.63-5.51,4.03l-1.01-1.01,13.26-13.22,1.01,1.01c-1.86,1.85-3.82,4.15-3.99,5.44Zm35.02,35.13c1.4,1.41,1.06,3.31-.12,4.49-1.07,1.06-2.92,1.45-4.38,0l-.45-.45c-1.29-1.29-1.17-3.2,0-4.38,1.35-1.34,3.2-1.4,4.49-.11l.45.45Z"/><path d="m1747.57,1820.23c1.64,2.57,5.79,7.49,16.05,19.07,3.79,4.28,8.96,4.25,13.95-.17,5.94-5.26,6.58-10.28,2.46-20.32l-1.89-2.14c-4.68-5.4-11.01-12.3-11.98-12.92-.91.17-5.2,3.23-7.75,5.49l-.95-1.07,16.1-14.26.95,1.07c-2.5,2.21-4.13,4.19-4.37,5.25,1.18,1.93,6.73,8.67,11.2,13.72,5.37,6.06,8.17,8.98,9.68,10.09,2.16-1.27,3.82-2.75,5.27-4.46l.95,1.07c-2.25,2.84-3.98,6.28-5.12,10.26l-1.74-.05-6.78-7.89c2.88,8.16,1.07,14.85-5.7,20.85-5.7,5.05-11.32,5.05-15.85-.06-2.42-2.73-17.06-19.13-18.29-20.16-1.08.1-3.24,1.49-5.73,3.7l-.95-1.07,15.92-14.1.95,1.07c-2.61,2.32-6.11,6.15-6.38,7.04Z"/><path d="m1715.17,1849.79l2.06,2.72c-.72-5.54.24-12.15,6.94-17.24,5.12-3.89,11.35-4.34,15.05.52,2.74,3.6.15,8.46-2.99,12.34-3.54,4.39-8.19,9.42-12.15,13.52,2,2.76,3.73,5.04,4.64,6.24,4.08,5.37,9.34,3.77,14.14.12,5.43-4.13,7.01-7.82,4.66-10.92-1.54-2.02-6.39-3.82-7.09-4.08l2.08-4.87c1.66.74,4.73,2.29,6.55,4.69,3.99,5.24,1.23,13.82-6.92,20.01-6.51,4.95-11.62,4.25-15.37-.68l-14.69-19.34c-1.49-1.96-3.05-2.57-4.56-1.42-1.71,1.3-1.27,3.06.51,5.4l3.07,4.04-1.39,1.06-2.74-3.6c-2.93-3.86-3.47-7.33.44-10.31,2.84-2.16,5.44-1.24,7.74,1.79Zm9.11-9.91c-5.81,4.42-6,10.34-4.26,16.3.61.93,1.28,1.82,1.95,2.7,2.59-1.97,9.22-7.8,13.3-12.8,2.17-2.65,3.05-4.91,1.46-6.99-2.64-3.48-7.78-2.76-12.46.79Z"/><path d="m1692.28,1898.14c2.09,1.89,3.86,3.87,5.15,5.97,4.56,7.44,5.87,15.2-2.52,20.34-6.09,3.73-11.61,1.25-13.93-2.54-3.11-5.08-3.08-13.38,6.23-21.59-7.55-5.33-17.92-9.5-26.97-11.21-.8,4.31.16,8.93,2.86,13.33,1.53,2.5,2.54,3.38,4.27,5.3,1.51-.27,5.3-2.13,7.06-3.21l.83,1.35-15.77,9.66-.83-1.35c1.56-.95,3.92-2.87,4.71-4-4.81-8.31-5.93-15.45-4.86-21.31-6.17-.96-11.56-.64-14.88,1.39l-.31-.65c4.4-2.69,9.97-3.78,15.96-3.73,1.75-5.35,5.56-9.46,10.1-12.23,12.11-7.42,22.64-3.91,27.03,3.26,3.65,5.96,3.09,14.3-4.12,21.23Zm-21.97-22.65c-4.6,2.82-7.67,6.47-9.21,10.48,10.6.58,22.04,4.84,29.69,10.94,5.36-4.77,5.38-11.58,2.19-16.79-4.02-6.57-12.99-10.57-22.67-4.64Zm18.37,25.88c-6.38,6.14-6.87,13.7-4.01,18.37,2.45,3.99,6.44,4.89,10.23,2.57,4.94-3.03,4.28-8.21,1.13-13.35-1.62-2.64-4.19-5.16-7.35-7.6Z"/><path d="m1625.05,1903.01l12.35,48.92c1.67.03,4.45-.35,6.98-1.31l.65,1.45-9.77,4.4-37.34-36.38,2.52,52.04-9.92,4.46-.65-1.45c3.12-1.58,4.9-3.42,5.58-4.43l-27.51-42.01c-1.27-.3-4.84,1.04-6.57,1.83l-.65-1.45,18.89-8.5.65,1.45c-2.03.91-7.51,3.81-8.26,4.85l24.62,37.31-1.16-49.6,2.17-.98,36.09,34.76-12.06-43.83c-1.27-.12-8.67,2.77-9.11,2.97l-.65-1.45,18.24-8.21.65,1.45c-2.46,1.11-5.11,2.56-5.73,3.71Z"/><path d="m1563.77,1946.64c4.86,14.27-1.02,23.32-12.14,27.11-12.1,4.12-18.93-4.12-21.44-11.48-.23-.68-.41-1.45-.64-2.13l30.65-10.45-.15-.45c-4.02-11.8-12.57-13.75-21.21-10.8-4.73,1.61-9.58,5.61-10.76,12.22l-1.31-.39c.35-8.08,6.46-13.27,13.37-15.63,9.02-3.07,18.94-1.76,23.62,11.99Zm-29.45,14.23c2.94,7.89,9.22,12.79,17.86,9.85,8.34-2.84,11.82-7.64,8.66-18.88l-26.52,9.04Z"/><path d="m1513.23,1946.45c.09,1.46,4.59,18.17,6.94,26.41,2.19,7.71,7.21,23.61,7.47,23.95,1.77-.17,4.67-1,6.46-1.67l.39,1.38c-3.49,1.65-6.15,3.9-8.9,6.99l-1.55-.8c-.18-.94-5.65-21-7.77-28.48-2.41-8.47-7.31-24.82-7.92-26.38-.78-.44-4.45.03-6.81.7l-.39-1.37,17.86-5.08.39,1.38c-2.29.65-5.73,2.21-6.16,2.99Z"/><path d="m1491.99,1952.2c.03,1.46,3.95,18.32,6.01,26.64,1.92,7.78,6.38,23.85,6.63,24.2,1.77-.11,4.7-.83,6.51-1.44l.34,1.39c-3.55,1.53-6.29,3.68-9.14,6.67l-1.52-.85c-.15-.94-4.91-21.19-6.77-28.74-2.11-8.55-6.44-25.06-6.99-26.64-.77-.47-4.45-.13-6.84.46l-.34-1.39,18.03-4.46.34,1.39c-2.31.57-5.8,2.01-6.26,2.77Z"/><path d="m1478.92,1972.26c2.58,13.49-5.33,22.83-16.17,24.9-11.46,2.19-20.18-2.45-22.64-15.31-2.61-13.64,5.4-22.93,16.23-25,10.13-1.94,19.85,1.14,22.58,15.4Zm-23.3-12.44c-9.12,1.74-13.43,8.38-11.28,19.61,2.31,12.08,9.32,16.64,19.06,14.78,8.58-1.64,13.61-7.85,11.39-19.47-2.34-12.24-9.43-16.78-19.17-14.92Z"/><path d="m1407.56,2024.05l-3.71.37-7.37-73.92,3.71-.37,7.37,73.92Z"/><path d="m1341.13,1973.3c-.34,1.42-1.12,20.06-1.19,24.19-.07,4.13-.04,22.22.74,22.71,1.18.42,3.08.92,4.75,1.03l-.05,3.33-18.73-.3.05-3.33c1.67-.05,3.74-.49,4.94-.87.25-.79,1.09-13.71,1.23-21.89.18-10.87-.01-23.5-.23-24.77-2.62-.12-7.06-.27-11.27-.34-6.51-.11-8.68,1.6-8.82,10.33l-3.41-.06.24-14.92,36.9.6-.05,3.33c-2.62.19-3.97.41-5.09.95Z"/><path d="m1302.84,1986.73c-1.12,13.76-11.27,21.14-22.51,20.23-12.34-1-18.45-8.11-17.44-20.53,1.1-13.53,9.79-21.5,23-20.43,11.79.96,17.88,9.25,16.95,20.73Zm-19.49-15.92c-7.99-.65-12.11,4.03-12.94,14.16-.8,9.89,2.73,16.39,12.3,17.16,7.44.6,11.67-3.51,12.53-14.03.82-10.05-3.75-16.63-11.89-17.29Z"/><path d="m1252.58,1967.46c-.74,2.38-2.09,9.73-2.95,15.78-.67,4.72-1.42,10.06-1.24,12.73,2.07.69,3.77,1.09,6.34,1.06l-.43,3.06c-3.63.13-8.86.83-12.62,2.55l-1.8-1.45,1.04-6.83c-3.95,4.73-8.81,6.77-14.1,6.19l1.05-7.47,3.54.5c3.93.55,7.22-.59,10.35-4.63l1.03-6.75c.93-6.04,1.97-14.55,1.84-15.85-1.01-.78-4.73-1.71-6.69-1.99l.43-3.07,21.3,3-.43,3.06c-1.73-.24-5.53-.54-6.67.1Z"/><path d="m1202.63,1960.4c3.57-2.84,8.35-4.87,14.73-3.59,7.78,1.57,11.53,5.08,10.13,12.01-1.32,6.54-6.68,7.8-11.81,7.98-4.89.15-11.1.03-16.41-.16-.6,2.55-1.02,4.65-1.27,5.9-.86,4.28,2.88,7.38,8.87,8.59,4.98,1.01,8.2.28,8.75-2.44.41-2.02-.46-5.76-.72-6.46l5.81-1.5c.54,1.73,1.21,4.05.61,7.01-1.34,6.61-9.87,9.99-20.37,7.87-8.17-1.65-11.02-5.95-9.8-12.02l4.32-21.4c.46-2.26.35-3.73-.97-4-.93-.19-1.63.48-2.46,1.37l-.02.08-1.83-2.15.02-.08c1.58-2.6,4.13-5.24,8.26-4.41,3.89.78,4.9,3.42,4.17,7.4Zm11.84,1.91c-5.68-1.15-9.84.6-12.94,3.54-.38,1.87-.85,3.8-1.21,5.59,4.11.5,10.61,1.17,13.29,1.14,5.67.01,6.59-1.34,7.15-4.14.72-3.58-1.86-5.23-6.29-6.13Z"/><path d="m1168.16,1948.4l-6.92,20.96-3.57-1.09c4.45-12.09,4.11-18.83-10.77-23.39-6.45-1.98-10.55-.24-12.08,4.77-1.98,6.45,1.94,10.47,9.23,15.94,7.57,5.64,15.15,11.78,12.36,20.89-3.02,9.86-13.37,11.68-23.01,8.72-4.78-1.46-10.23-4.54-14.74-8.5l5.46-15.93,3.57,1.09c-3.44,11.23.35,16.46,10.6,19.6,5.69,1.74,9.1.38,10.28-3.49,2.11-6.91-2.93-11.03-9.53-15.79-8.38-5.97-14.72-11.56-11.79-21.12,4.63-15.1,20-11.64,24.93-10.13,6.07,1.86,10.67,3.93,15.98,7.46Z"/><path d="m1094,1925.19c-2.16,3.76-5.21,11.51-9.43,22.22-1.42,3.62,1.06,7.07,5.71,8.9,3.84,1.51,8.9,1.45,14.18-2.86,3.84-9.75,7.82-20.3,7.93-21.02-.8-1-4.2-2.76-6.05-3.49l1.13-2.88,20.09,7.91-1.13,2.88c-2.51-.99-5.33-1.84-6.58-1.48-1.27,2.14-4.3,8.97-6.54,14.66-1.74,4.43-11.33,28.8-11.78,31.44,1.85,1.15,3.71,2.06,6.15,2.59l-1.25,3.18c-3.48-.69-9.03-1.34-13.09-.55l-1.41-1.83,6.21-15.13,4.36-11.08c-5.21,3.92-10.88,4.67-17.6,2.03-6.79-2.67-10.22-6.75-7.58-13.47-.29.74,9.05-23.22,9.44-24.86-.67-1.12-3.09-2.33-5.61-3.31l1.13-2.88,19.72,7.76-1.13,2.88c-1.85-.73-5.61-1.78-6.88-1.6Z"/><path d="m1070.61,1920.63c-5.78,12.28-8.73,18.35-10.99,22.98,1.81,1.55,3.93,2.46,6.04,3.37l-1.69,3.59c-5.38-2.54-9.97-1.18-13.76,3.7l-2.51-1.18,3.86-7.83c-2.3-1.26-4.64-2.45-6.94-3.53-2.37-1.11-4.7-2.12-7.14-3.1l2.56-4.32c2.52,1.36,5.07,2.65,7.58,3.83,1.94.91,3.91,1.75,5.96,2.63l9.26-19.67c1.89-4.02,1.46-7.21-1.84-8.76-2.59-1.22-7.26-.79-10.32.49l-.32-2.87c4.19-3.12,10.18-4.86,15.42-2.39,6.32,2.97,7.25,7.89,4.82,13.06Z"/><path d="m1020.49,1944.43c-1.3,2.46-4.04,2.71-6.21,1.56-2.11-1.11-3.4-3.41-2.07-5.94l.45-.84c1.22-2.32,3.86-2.9,6.11-1.71,2.53,1.34,3.4,3.77,2.17,6.09l-.45.84Zm22.37-43.03c-1.5,1.99-5.23,8.37-8.08,13.77-2.22,4.21-4.71,8.91-5.44,11.49,1.71,1.35,2.9,2.16,5.33,2.99l-1.48,2.81c-3.45-1.11-8.33-2.07-12.46-1.73l-1.2-1.98,9.18-16.87c2.85-5.41,6.75-12.95,7.06-14.22-.69-1.08-3.38-2.95-5.13-3.88l1.48-2.81,18.25,9.64-1.48,2.81c-2.32-1.22-4.74-2.24-6.03-2.02Z"/><path d="m1019.6,1888.58c-1.59,1.92-5.64,8.19-8.74,13.46-2.41,4.11-5.15,8.76-6,11.3,1.65,1.43,3.07,2.45,5.46,3.39l-1.57,2.67c-3.4-1.26-8.5-2.61-12.64-2.46l-1.11-2.03,3.57-5.91c-5.46,2.87-10.73,2.9-15.39.34l3.82-6.5,3.08,1.81c3.42,2.01,6.89,2.21,11.33-.33l3.53-5.84c3.16-5.23,7.37-12.7,7.74-13.95-.64-1.11-3.72-3.38-5.43-4.39l1.57-2.67,18.54,10.9-1.57,2.67c-1.5-.88-4.91-2.61-6.2-2.45Z"/><path d="m976.66,1879.72l3.16,2.12c3.83-5.84,7.63-11.51,8.1-12.63-.57-1.14-4.5-4.26-4.83-4.48l1.77-2.64,17,11.41-1.77,2.64c-2.04-1.37-4.28-2.59-5.78-2.64-1.24,1.27-11.32,15.72-15.34,21.72-2.65,3.95-9.95,15.11-12.28,19.28.68.84,3.34,2.72,4.99,3.54l-1.95,2.9c-3.45-1.55-8.53-3.24-12.67-3.34l-.52-1.78c3.8-5.38,13.2-18.95,16.87-24.42l3.89-5.8-3.69-2.48-16.32,3.95c.9,1.08,2.63,2.34,4.02,3.27l-1.77,2.64-13.64-9.16,1.77-2.64c2.11,1.41,3.62,2.15,6.2,1.58l16.17-3.29-2.17-23.82-4.28-4.31,1.64-2.44,10.34,6.95,1.09,23.86Z"/><path d="m953.47,1863.07c-8.47,10.91-21.01,11.53-29.91,4.61-9.78-7.59-11.01-16.88-3.36-26.73,8.32-10.72,19.96-12.64,30.43-4.51,9.34,7.25,9.9,17.53,2.84,26.62Zm-7.6-23.99c-6.33-4.92-12.34-3.26-18.57,4.77-6.09,7.84-6.68,15.21.9,21.1,5.89,4.57,11.69,3.45,18.16-4.89,6.18-7.96,5.97-15.97-.49-20.98Z"/><path d="m907.18,1848.46c.24,1.28.74,2.04,2.34,3.46l-2.05,2.31-14.06-12.49,2.06-2.31c1.48,1.32,4.83,3.76,6.09,4.02,3.67-10.11,7.18-20.27,10.67-30.54l-28.3,14.89c.24,1.28,2.93,3.99,4.36,5.25l-2.06,2.31-12.88-11.44,2.06-2.31c1.48,1.32,2.93,2.07,4.19,2.34l34.95-16.52,5.22,4.64c-4.29,12-8.52,24.17-12.58,36.39Z"/><path d="m878.14,1780.26c4.55-.37,9.65.61,14.23,5.24,5.58,5.64,6.73,10.64,1.71,15.61-4.74,4.69-9.89,2.75-14.25.03-4.14-2.6-9.23-6.17-13.53-9.28-1.92,1.79-3.44,3.29-4.34,4.19-3.1,3.07-1.73,7.74,2.57,12.08,3.57,3.61,6.65,4.81,8.63,2.85,1.47-1.45,2.83-5.04,3-5.76l5.66,1.99c-.51,1.74-1.26,4.03-3.4,6.15-4.8,4.74-13.76,2.79-21.3-4.83-5.86-5.92-5.83-11.09-1.43-15.44l15.52-15.35c1.64-1.62,2.37-2.91,1.42-3.86-.67-.68-1.62-.51-2.81-.24l-.06.06-.32-2.81.06-.06c2.76-1.28,6.35-2.04,9.31.95,2.79,2.82,2.16,5.57-.66,8.47Zm8.77,8.18c-4.07-4.12-8.5-4.98-12.72-4.28-1.35,1.34-2.82,2.68-4.12,3.96,3.13,2.71,8.16,6.89,10.39,8.36,4.7,3.17,6.22,2.56,8.25.55,2.59-2.57,1.38-5.38-1.81-8.6Z"/><path d="m798.38,1770.33l-2.34-2.91,57.93-46.5,2.34,2.91-57.93,46.5Z"/><path d="m802.19,1685.96c-1.44.55-12.75,7.03-20.16,11.78-5.35,3.42-13.55,8.86-17.16,11.46l2.4,3.74c2.7,4.21,9.51,2.2,15.61-1.52l2.99,4.68-16.44,10.53-25.16-39.3,16.44-10.53,3,4.68c-5.93,3.99-10.61,9.34-7.19,14.68l1.11,1.74c3.96-2.06,12.46-7.03,17.81-10.46,7.42-4.75,18.45-11.81,19.48-12.85.11-1.3-.92-3.65-2.38-5.92l4.08-2.61,14.03,21.92-4.08,2.61c-1.2-1.87-2.99-3.93-4.38-4.64Z"/><path d="m782.93,1638.2l-24.2,31.58c-.21,1.28.52,3.14,1.16,4.33l-4.19,2.25-11.88-22.09,3.98-2.14c.94,1.75,3.23,4.84,4.18,5.59l16.66-19.95-25.72,3.11c-.28,1.32,1.12,4.26,2.02,5.94l-3.98,2.14-8.61-16.01,3.98-2.14c.45.84,1.85,2.61,2.94,3.28l37.47-3.21c7.76-.66,21.92.55,28.54,12.86l-10.34,5.56c-2.93-5.27-5.92-9.34-12.01-11.11Zm-8.16-.93l3.38.08c-1.03-.08-2.2-.08-3.38-.08Z"/><path d="m761.55,1598.91c5.12-2.36,9.15-4.23,11.59-5.58.05-1.06-.99-4.77-1.47-5.86l4.28-1.9,9.3,20.97-4.28,1.9c-.55-1.23-1.79-2.85-2.58-3.28-3.96,1.06-9.07,3.24-22.2,9.07-13.06,5.79-16.4,7.27-18.57,8.84.16,1.14.92,3.06,1.72,4.27l-4.28,1.9c-2.09-3.15-6.03-7.14-9.48-9.43l-.37-5.13c1.19-.44,2.93-1.22,5-2.04-5.38-1.17-9.62-4.07-11.81-9-4.7-10.59.85-18.44,10.14-22.56,11.75-5.21,24.85-2.51,30.99,11.34,1.06,2.39,1.71,4.45,2.01,6.49Zm-9.01-4.86c-3.06-6.89-9.42-6.94-15.66-4.17-6.17,2.73-10.27,7.77-7.34,14.37,1.32,2.97,3.95,4.59,7.68,5.36,4.6-1.96,9.54-4.14,13.53-5.91l2.68-1.19c.53-2.93.3-5.78-.89-8.46Z"/><path d="m731.41,1574.96c-10.09,3.62-23.82,2.47-28.99-11.95-4.58-12.78,1.33-20.04,12.01-23.87.9-.32,3.14-1.13,4.19-1.25l9.08,25.33c4.65-3.02,7-7.99,4.51-14.94-1.37-3.81-3.46-6.35-7.39-8.14l2.41-4.57c7.26,1.44,12.35,6.7,15.11,14.39,4.47,12.48-.47,21.25-10.93,25Zm-13.84-23.79c-6.01,2.75-9.52,6.37-7.78,11.22,1.85,5.16,7.07,5.14,12.95,3.2l-5.17-14.42Z"/><path d="m721.86,1512.08l-43.44,2.35c-.46,1.9-.51,3.46-.48,5.32l-4.95,1.14-4.36-18.95,33.56-18.4-38.69-3.88-4.33-18.8,4.8-1.1c.7,1.63,1.67,3.36,2.6,4.94l40.84-15.43c.35-.97-.05-4.47-.19-5.41l4.8-1.1,5.59,24.29-4.8,1.1c-.58-2.15-1.8-5.69-2.59-6.65l-34.12,12.42,44.14,4.58,1.71,7.43-37.15,21.18,35.34-2.52c.08-2.14-.1-4.7-.7-7.66l4.8-1.1,4.47,19.41-4.8,1.1c-.4-1.38-1.49-3.65-2.04-4.25Z"/><path d="m694.95,1442.78c-10.62,1.41-23.8-2.61-25.81-17.79-1.78-13.45,5.53-19.31,16.77-20.8.94-.13,3.3-.44,4.36-.34l3.54,26.67c5.18-1.97,8.53-6.33,7.56-13.65-.53-4.01-2.04-6.93-5.5-9.52l3.32-3.96c6.79,2.94,10.66,9.15,11.73,17.26,1.74,13.14-4.94,20.67-15.96,22.13Zm-8.51-26.17c-6.46,1.42-10.65,4.21-9.97,9.33.72,5.43,5.83,6.51,11.98,5.86l-2.01-15.18Z"/><path d="m689.87,1398.5c-12.6.75-24.45-6.01-25.41-22.1-.13-2.22,0-4.13.29-5.74-4.51.35-9.1.78-11.7,1.18-.26,1.05-.19,3.51.14,5.08l-5.07.3c-.84-3.45-2.67-10.1-5.1-13.45l.94-4.27c6.59-.23,23.07-1.14,29.64-1.53,6.1-.37,22.97-1.45,24.85-1.88.57-1.15.83-3.39.74-4.89l4.75-.28.97,16.16-4,.88c3.33,2.5,5.7,6.18,6.02,11.65.74,12.36-6.22,18.26-17.08,18.91Zm8.07-23.3c-.14-2.38-1.22-4.46-2.99-6.18-5.08.22-14.35.62-20.69,1l-.55.03c-1.28,2.46-1.76,5.11-1.6,7.89.42,6.97,6.12,9.26,13.17,8.83,8.48-.51,13.08-4.68,12.67-11.57Z"/><path d="m649.51,1344.59c-3.97.06-6.16-3.15-6.22-6.65-.06-3.41,1.96-6.62,6-6.69l1.35-.02c3.65-.06,6.24,2.84,6.3,6.49.07,4.05-2.43,6.79-6.08,6.85l-1.35.02Zm49.04-.48c-2.47-.36-8.26-.58-14.37-.48-3.97.06-8.49.14-11.1.74-.38,1.2-.41,3.9-.07,5.24l-4.76.08c-.69-3.32-2.76-8.69-5.04-12.14l1.67-4.95,19.21-.07c6.11-.1,13.01-.29,14.28-.63.62-1.12.99-2.79.95-4.78l4.76-.08.36,22.06-4.76.08c-.03-1.98-.3-4.04-1.11-5.06Z"/><path d="m701.18,1298.07c3.21,2.55,5.08,6.23,4.75,12.49-.43,8.32-3.61,12.77-10.82,12.39-5.71-.3-8.66-3.07-9.92-11.01-.67-4.01-1.35-9.21-1.89-14.01-2.29-.2-4.28-.3-5.78-.38-3.73-.19-5.76,2.16-5.98,6.52-.21,4.04.83,5.37,3.45,5.5,1.51.08,2.95-.16,4.26-.97l3.48,9.56c-1.72.94-3.99,1.78-6.52,1.65-7.45-.39-12.4-9.07-11.85-19.69.56-10.78,4.36-14.95,12.68-14.52l19.74,1.03c2.3.12,2.95-.24,3-1.2.05-.87-.88-1.48-1.73-1.84h-.08s2.1-3.71,2.1-3.71h.08c4.61,1.59,7.14,4.83,6.86,10.22-.24,4.52-2.51,6.94-5.82,7.96Zm-2.34,6.71c.15-2.85-1.18-4.75-3.1-6.12h-.08c-2.14-.12-4.2-.22-6.1-.32-.16,1.58-.33,3.24-.41,4.75-.24,4.6.17,7.4,4.29,7.62,3.09.16,5.21-2.35,5.39-5.92Z"/><path d="m686.02,1245.17c-5.74-9.92-9.24-13.41-13.95-14.11-5.02-.75-8.84,1.17-9.62,6.43-.9,6.05,3.04,9.76,11.28,10.99l-1.03,6.91-15.15-2.26c-2.44-4.62-3.58-12.57-2.41-19.94,1.73-11.06,6.41-17.74,16.78-16.2,10.28,1.53,15.88,15.12,21.77,25.15,1.84,3.24,3.62,5.83,5.78,7.52l1.66-11.15c1.18-7.93-1.21-12.38-7.48-12.83l.84-5.65,19.55,2.91-5.91,40.2c-10.91-1.62-17.58-10.16-22.12-17.98Z"/><path d="m690.45,1212.68c-16.18-3.66-29.85-12.29-25.99-29.32,3.24-14.32,13.2-19.47,29.53-15.77,18.42,4.17,30.53,13.59,26.83,29.92-3.14,13.86-13.11,19.09-30.37,15.18Zm23.64-18.17c1.68-7.43-7.65-10.44-20.96-13.45-11.22-2.54-20.41-1.86-22.08,5.5-1.56,6.89,8.48,9.98,20.33,12.66,12,2.72,21.17,2.11,22.71-4.7Z"/><path d="m706.75,1149.48c-4.2-10.67-7.13-14.64-11.68-16.04-4.86-1.49-8.92-.16-10.48,4.92-1.79,5.84,1.55,10.11,9.51,12.55l-2.05,6.68-14.64-4.5c-1.72-4.93-1.67-12.97.6-20.07,3.36-10.67,8.99-16.58,19.01-13.51,9.94,3.05,13.44,17.33,17.77,28.12,1.34,3.48,2.71,6.31,4.59,8.3l3.31-10.77c2.35-7.66.66-12.42-5.48-13.8l1.68-5.46,18.89,5.8-11.85,38.87c-10.55-3.24-15.87-12.67-19.18-21.08Z"/><path d="m722.25,1103.59c-3.39-10.95-6.02-15.13-10.46-16.86-4.73-1.85-8.88-.82-10.81,4.13-2.22,5.69.79,10.19,8.56,13.22l-2.54,6.51-14.27-5.57c-1.35-5.04-.7-13.05,2.09-19.97,4.14-10.4,10.2-15.87,19.96-12.06,9.69,3.78,12.12,18.28,15.63,29.36,1.08,3.57,2.24,6.5,3.96,8.62l4.1-10.5c2.92-7.47,1.58-12.34-4.44-14.17l2.08-5.32,18.41,7.19-14.7,37.88c-10.28-4.01-14.88-13.82-17.56-22.45Z"/><path d="m721.95,1020.12l1.72-3.31,65.92,34.24-1.72,3.31-65.92-34.25Z"/><path d="m799.2,997.95c-1.01-1.06-13.21-9.67-20.34-14.42-6.67-4.45-21.11-13.41-21.53-13.5-1.12.68-3.68,3.65-4.6,5.04l-1.32-.88,16.56-24.83c5.72-8.58,12.61-7.61,17.83-4.14,6.87,4.58,9.95,13.69,5.37,23.14l26.39.9,5.28-4.78,1.25.84-6.08,9.11-29.12-2.25c-2.66,3.85-4.76,6.27-7.04,7.99,3.76,2.51,19.15,12.48,20.51,13.01,1.14-.57,5.75-6.76,6.85-8.41l1.32.88-12.9,19.35-1.32-.88c1.06-1.58,3.04-4.84,2.88-6.18Zm-11.42-28.22c3.92-5.88,4.1-14.15-4.16-19.66-6.54-4.36-11.73-2.29-16.66,5.11-2.07,3.1-4.73,7.24-6.23,10.34,5.88,4.49,12,8.48,18.09,12.64,3.02-1.8,6.27-4.4,8.96-8.43Z"/><path d="m820.68,953.53c-3.3-2.6-15.75-12.32-19.04-14.81-1.74,1.56-3.21,3.43-4.45,5.39l-1.12-.88c1.76-3.26,2.85-6.95,3.17-10.94l1.72-.26c2.55,2.41,11,9.38,20.47,16.85,4.49,3.54,9.57,2.6,13.7-2.64,4.62-5.86,3.96-11.43-2.67-21.61l-.75-.59c-4.74-3.74-8.77-6.82-11.5-8.87-1.74,1.56-3.21,3.43-4.45,5.39l-1.12-.89c1.76-3.26,2.85-6.95,3.17-10.94l1.93-.4c1.61,1.68,9.34,8.28,14.64,12.45,5.92,4.67,11.85,8.94,13.59,9.81,1.19-.48,4.01-2.9,5.24-4.46l1.12.89-7.37,9.35-10-8.08c4.8,8.13,4.54,15.91-.67,22.51-4.72,5.98-10.25,6.98-15.61,2.75Z"/><path d="m857.31,918.52c-4.67-4.3-13.91-13.25-19.87-18.73-3.5-3.23-14.59-13.22-18.36-16.15-1.74,1.31-3.37,2.83-4.74,4.91l-1.28-1.18c1.9-3,3.27-6.59,4-10.67l1.74-.13,21.55,20.18.53.48c-2.21-5.92-2.09-12.61,3.61-18.79,5.97-6.48,14.68-9.03,24.55.06,9.57,8.82,11.47,20.82,2.38,30.68-3.66,3.97-8.47,7.09-14.11,9.34Zm.6-5.92c4.7-.42,8.61-2.43,12.91-7.1,5.38-5.84,6.88-12.98-3.69-22.71-7.65-7.04-15.95-6.93-21.22-1.21-6.45,7.01-3.95,14.49-.65,19.69,4.2,3.76,9.39,8.54,12.65,11.33Z"/><path d="m857.31,848.13c-1.38-1.42-1.02-3.32.17-4.49,1.08-1.05,2.94-1.42,4.38.06l.44.45c1.27,1.31,1.14,3.21-.06,4.38-1.36,1.33-3.22,1.36-4.49.05l-.44-.46Zm34.6,35.53c-3.03-4.02-7.57-8.8-11.83-13.18-3.32-3.41-6.37-6.31-9.98-9.45-1.81,1.21-3.51,2.65-5,4.65l-1-1.02c2.06-2.89,3.62-6.41,4.57-10.43l1.74-.03c4.48,4.83,8.13,8.69,12.73,13.41,4.26,4.38,8.64,8.87,12.58,12.35,1.24-.32,4.13-2.58,5.55-3.97l1,1.02-13.42,13.07-1-1.02c1.88-1.83,3.87-4.1,4.06-5.39Z"/><path d="m930.98,848.2c-1.61-2.59-5.7-7.56-15.83-19.26-3.74-4.32-8.91-4.36-13.95,0-6,5.19-6.7,10.21-2.7,20.28l1.87,2.16c4.61,5.45,10.86,12.43,11.83,13.06.91-.16,5.24-3.17,7.82-5.4l.94,1.08-16.26,14.07-.94-1.08c2.52-2.18,4.18-4.14,4.43-5.19-1.15-1.94-6.63-8.75-11.04-13.85-5.3-6.12-8.07-9.08-9.56-10.2-2.17,1.25-3.85,2.7-5.32,4.4l-.93-1.08c2.28-2.82,4.05-6.23,5.24-10.2l1.74.07,6.68,7.96c-2.79-8.19-.9-14.86,5.94-20.78,5.76-4.99,11.38-4.92,15.85.24,2.39,2.76,16.83,19.33,18.05,20.37,1.08-.09,3.26-1.45,5.78-3.63l.94,1.08-16.08,13.92-.94-1.08c2.64-2.29,6.18-6.08,6.47-6.96Z"/><path d="m963.73,819.01l-2.03-2.74c.65,5.54-.38,12.14-7.14,17.15-5.16,3.83-11.4,4.21-15.04-.7-2.69-3.63-.05-8.46,3.13-12.3,3.6-4.35,8.3-9.32,12.31-13.38-1.97-2.79-3.67-5.08-4.57-6.29-4.02-5.42-9.3-3.88-14.14-.28-5.48,4.07-7.11,7.74-4.79,10.86,1.51,2.04,6.34,3.89,7.04,4.16l-2.14,4.85c-1.65-.76-4.7-2.34-6.5-4.77-3.92-5.29-1.07-13.83,7.16-19.93,6.57-4.87,11.67-4.11,15.36.86l14.47,19.51c1.47,1.98,3.02,2.6,4.55,1.47,1.72-1.28,1.3-3.04-.45-5.4l-3.03-4.08,1.4-1.04,2.69,3.63c2.88,3.89,3.39,7.37-.56,10.3-2.87,2.13-5.45,1.18-7.72-1.88Zm-9.23,9.81c5.86-4.35,6.12-10.27,4.45-16.25-.6-.94-1.26-1.83-1.92-2.72-2.61,1.94-9.31,7.7-13.45,12.64-2.2,2.62-3.11,4.87-1.55,6.98,2.6,3.51,7.75,2.85,12.46-.65Z"/><path d="m987.19,770.94c-2.06-1.91-3.81-3.92-5.07-6.03-4.47-7.5-5.69-15.27,2.76-20.31,6.13-3.66,11.63-1.11,13.9,2.7,3.05,5.11,2.92,13.41-6.48,21.51,7.48,5.42,17.8,9.71,26.83,11.53.86-4.3-.06-8.93-2.7-13.36-1.5-2.52-2.5-3.41-4.21-5.35-1.51.25-5.33,2.07-7.1,3.12l-.81-1.36,15.88-9.47.81,1.36c-1.57.94-3.95,2.82-4.76,3.95,4.71,8.37,5.74,15.52,4.61,21.37,6.16,1.04,11.55.78,14.89-1.21l.3.65c-4.43,2.64-10.01,3.66-16,3.54-1.81,5.33-5.67,9.39-10.24,12.11-12.2,7.28-22.68,3.64-26.99-3.58-3.58-6-2.91-14.34,4.37-21.18Zm3.64-3.19c6.45-6.07,7.03-13.62,4.23-18.32-2.4-4.02-6.38-4.97-10.2-2.69-4.98,2.97-4.38,8.15-1.29,13.33,1.58,2.66,4.12,5.21,7.26,7.68Zm18.06,26.1c4.63-2.76,7.75-6.38,9.34-10.37-10.59-.71-21.98-5.1-29.56-11.29-5.42,4.71-5.52,11.51-2.39,16.76,3.94,6.61,12.86,10.72,22.61,4.91Z"/><path d="m1054.47,766.87l-11.76-49.07c-1.67-.05-4.46.3-7,1.23l-.63-1.45,9.82-4.28,36.9,36.83-1.9-52.07,9.97-4.34.63,1.46c-3.14,1.54-4.94,3.36-5.63,4.36l27.01,42.34c1.26.31,4.85-.99,6.6-1.75l.63,1.46-18.99,8.27-.63-1.45c2.04-.89,7.56-3.72,8.32-4.75l-24.17-37.61.57,49.62-2.18.95-35.67-35.2,11.53,43.98c1.27.14,8.71-2.67,9.14-2.86l.63,1.46-18.34,7.98-.63-1.45c2.47-1.08,5.14-2.5,5.77-3.64Z"/><path d="m1116.27,723.96c-4.69-14.33,1.3-23.31,12.46-26.97,12.14-3.98,18.88,4.34,21.3,11.73.22.68.39,1.46.62,2.14l-30.77,10.08.15.45c3.88,11.84,12.4,13.89,21.07,11.05,4.75-1.56,9.64-5.5,10.91-12.09l1.3.41c-.44,8.08-6.62,13.19-13.56,15.46-9.05,2.96-18.96,1.53-23.48-12.27Zm29.61-13.87c-2.84-7.92-9.07-12.9-17.74-10.06-8.37,2.74-11.91,7.49-8.88,18.78l26.62-8.72Z"/><path d="m1166.78,724.75c-.07-1.46-4.38-18.22-6.63-26.49-2.1-7.74-6.93-23.69-7.19-24.04-1.77.15-4.68.94-6.48,1.6l-.37-1.38c3.51-1.61,6.2-3.82,8.99-6.88l1.54.82c.17.94,5.4,21.07,7.44,28.57,2.31,8.5,7.02,24.91,7.61,26.47.78.45,4.45.02,6.82-.62l.37,1.38-17.92,4.87-.38-1.38c2.3-.62,5.75-2.14,6.2-2.92Z"/><path d="m1188.09,719.26c-.02-1.46-3.74-18.36-5.7-26.71-1.83-7.81-6.1-23.92-6.35-24.27-1.77.09-4.71.78-6.53,1.37l-.33-1.39c3.56-1.49,6.33-3.6,9.22-6.57l1.51.87c.14.95,4.66,21.25,6.44,28.82,2.01,8.58,6.14,25.14,6.68,26.72.76.47,4.44.18,6.84-.38l.33,1.39-18.08,4.24-.33-1.39c2.32-.54,5.82-1.94,6.3-2.7Z"/><path d="m1201.4,699.36c-2.42-13.52,5.6-22.77,16.46-24.71,11.48-2.05,20.15,2.68,22.46,15.58,2.45,13.67-5.67,22.86-16.53,24.8-10.16,1.82-19.84-1.37-22.39-15.67Zm23.15,12.71c9.14-1.64,13.53-8.22,11.51-19.47-2.17-12.11-9.12-16.75-18.89-15-8.59,1.54-13.7,7.69-11.62,19.33,2.19,12.27,9.23,16.89,18.99,15.15Z"/><path d="m1275.02,648.26l3.72-.32,6.32,74.02-3.72.32-6.32-74.01Z"/><path d="m1402.69,453.86c3.61-26.74,30.32-65.41,54.34-94.76,11.86-37.45,19.07-72.3,5.8-112.06,15.31-7.25,40.48-10.66,57.72-8.33,24.98,3.37,37.44,17.23,34.5,39.04-3.65,27.09-27.01,51.52-44.99,89.22-12.94,26.91-34.16,80.65-17.72,110.09-12.92,10.79-35.45,18.5-56.21,15.7-24.63-3.32-36.15-18.85-33.44-38.9Z"/><path d="m1654.87,411.62c-11.52-9.55-27.23-9.26-44.66,1.29-13.58,24.39-30.27,50.42-37.05,72.1-2.54,8.13-3.75,15.56-3.31,21.28-9.68,4.78-23.25,5.38-35.79,1.46-25.75-8.05-31.57-25.12-25.64-44.09,6.67-21.35,28.24-45.1,53.08-61.51,5.72-24.25,7.76-53.37.33-72.43,16.67-3.34,32.93-4.21,49.87,1.09,19.65,6.14,24.31,20.99,17.74,42-.74,2.37-1.48,4.74-2.67,7.35,30.5-20.22,50.22-28.56,78.68-19.66,21.34,6.67,30.28,22.11,22.44,47.19-5.93,18.97-28.15,37.69-47.4,52.87-4.98,15.92-10.55,48.03-.16,63.55-17.26,13.57-36.26,18.42-55.57,12.38-17.28-5.4-27.82-16.88-21.68-36.53,10.38-33.2,45.12-66.98,51.79-88.32Z"/><path d="m1693.06,515.76c8.02-14.63,21.55-23.82,44.28-28.36-6.75,31.52,8.3,62.43,27.91,73.18,21.91-20.78-34.26-68.97-11.06-111.31,12.28-22.42,37.94-28.6,59.27-12.86,16.37-8.44,30.56-9.97,53.29,2.48,27.09,14.84,33.76,35.91,22.84,55.83-7.51,13.7-27.24,23.12-48.91,20.56,12.28-22.42,1.19-44.28-24.85-57.34-21.48,17.78,32.91,67.01,10.05,108.73-13.65,24.91-33.88,26.37-53.98,20.21-11.69,6.55-31.23,2.32-54.27-10.3-26.46-14.5-37.19-37.78-24.56-60.82Z"/><path d="m1755.42,647.78c18.22-22.25,104.52-82.8,138.47-94.01,14.37-20.35,27.15-46.6,27.38-67.05,16.71,3.13,32.12,8.41,45.85,19.65,15.93,13.05,17.45,30.81,3.5,47.83l-1.57,1.92c22.98-7.33,51.81-6.67,69.66,7.95,18.95,15.52,15.7,38.55-1.4,59.42-28.79,35.16-88.11,82.94-136.5,52.94-12.42,4.52-27.95.51-38.66-8.26-7.69-6.3-11.81-14.72-12.88-22.94-16.54,16.28-36.51,41.22-36.65,62.68-13.01,3.57-34.79-2.34-47.7-12.91-18.68-15.29-22.32-31.58-9.5-47.24Zm207.43-34.78c11.02-13.46,13.58-28.34-2.7-44.89-27.51,15.1-52.17,28.4-67.24,46.8-10.8,13.18,3.16,29.2,13.05,37.3,20.19-10.08,44.07-23.56,56.89-39.22Z"/><path d="m1961.94,706.91c17.91-16.19,51.27-24.81,74.2-25.92,17.24-17.98,35.69-39.92,41.35-57.48,16.06,5.58,30.51,13.1,42.41,26.27,11.19,12.38,9.33,29.37-7,44.13-38.19,34.52-79.32,22.89-107.78,78.77-21.76,2.92-36.26-3.59-47.93-16.49-16.19-17.91-10.53-35.47,4.75-49.28Zm177.79-111.43c15.39-11.04,38.4-8.87,51.73,5.88,12.14,13.43,10.31,34.7-5.07,45.74-16.17,11.75-39.16,9.08-51.31-4.35-13.33-14.75-11.27-35.76,4.65-47.27Z"/><path d="m2022.75,778.51c23.79-16.15,51.83-19.72,81.98-17.02,19.57-15.42,39.28-36.95,45.32-56.5,15.13,7.75,28.4,17.2,38.37,31.88,11.56,17.04,5.97,31.56-12.24,43.92l-3.53,2.39c25.21.48,52.35,8.24,62.12,22.63,8.77,12.93,6.23,27.52-5.52,35.49-20.86,14.15-66.61,18.17-92.25-10.76,22.99-6.59,22.38-20.76,10.65-34.25-6.09,2.41-16.68,7.03-29.45,10.97-20.71,8.05-41.51,16.59-55.91,26.35-7.05,4.78-12.62,9.85-15.83,14.6-10.55-2.28-21.55-10.26-28.93-21.13-13.55-19.98-11.53-37.22,5.21-48.59Z"/><path d="m2123.36,881.19c43.8-20.3,116.43-21.48,132.81,20.62,19,2.15,32.97,12.89,41.63,31.57,13.73,29.63,9.9,51.76-14.26,62.95-32.21,14.93-90.97-1.27-120.87-59.02-13.43,8.18-10.47,26.37-1.66,45.38,5.67,12.24,15.63,24.45,23.95,28.03l-.2,1.26c-29.88,11.5-63.9-3.64-83.16-45.19-18.21-39.3-12.71-69.63,21.76-85.6Zm112.93,69.74c9.98-4.63,13.72-12.62,6.4-28.4l-1.04-2.25c-17.01.45-39.04,4.4-56.02,9.14,15.5,18.25,33.27,29.58,50.67,21.52Z"/><path d="m2194.17,1124.86c-16.87-6.05-39.58-19.43-46.69-48.02-5.31-21.36,5.65-39.08,34.24-46.19,58.22-14.47,130.7.44,139.08,44.44,17.38,5.19,28.9,19.15,32.42,33.28,1.28,5.17,1.45,10.25.41,14.9,26.86.64,35.3-.73,50.81-4.58,13.78-3.42,19.47-7.03,27.14-14.43,12.21,9.4,22.01,25.26,25.6,39.73,5.48,22.05-2.63,37.97-24.34,43.36-33.07,8.22-151.53-7.7-169.69-13.06-20.24,6.86-47.38,19.82-54.8,31.18-18.16-6.83-33.81-16.84-38.87-37.16-4.97-19.98,4.27-35.81,24.68-43.45Zm18.09-3.76l.34,1.38c23.59,3.65,67.49,8.1,84.03,3.99,14.12-3.51,11.31-25.13,8.66-38.73-21.52-4.16-49.41-7.47-72.49-1.73-16.88,4.2-23.36,20.8-20.54,35.1Z"/><path d="m2239.55,1245.55c20.24,0,42.24,8.88,55.73,21.66,19.88,0,90.52,19.89,126.73,19.9,8.87,0,21.3-1.06,32.66-8.52,9.94,12.78,15.62,29.47,15.61,45.44,0,24.14-13.49,35.85-33.73,35.85-15.97,0-67.8-16.34-95.13-28.77,20.59,12.43,36.21,32.31,36.2,56.09,0,25.92-20.24,37.98-47.22,37.98-48.28,0-119.28-17.76-126.02-72.44-12.07-5.68-19.17-24.85-19.16-45.09,0-29.46,15.27-62.12,54.32-62.12Zm86.25,84.86c-27.33-9.59-54.31-22.37-73.48-22.37-15.62,0-25.92,8.52-25.92,33.72,38.69,17.04,94.42,38,99.4-11.35Z"/><path d="m2156.09,1389.66c9.41,1.84,18.34,6.11,25.89,11.92-11.6,5.69-19.06,17.98-21.85,32.27-5.78,29.62,6.93,68.27,40.76,80.29-12.85-23.12-20-49.48-16.33-68.29,3.54-18.12,17.6-32.73,44.43-27.5,23.34,4.56,46.07,25.27,59.59,43.1,27.52,3.56,53.05.59,71.68-5.9,6.6,12.5,7.74,32.62,5.36,44.81-4.89,25.09-18.77,35.04-40.03,30.89-25.43-4.96-49.03-32.35-72.37-36.91-16.03-3.13-20.62,11.17-22.22,26.77,19.32,21.49,43.94,30.64,71.81,36.08,13.94,2.72,25.76-.4,34.15-6.36,8,12.77,12.54,30.3,9.54,45.63-4.69,24.04-21.71,31.57-42.27,27.56-25.08-4.9-62.09-28.39-80.33-57.27-80.37-5.19-137.32-65.5-125.49-126.13,8.57-43.9,34-55.58,57.69-50.96Z"/><path d="m2230.15,1684.55c15.67,9.41,27.74,17.28,36.84,23.1,5.22-11.28,8.47-20.7,8.84-25.18,4.43,2.28,22.66,9.31,26.76,16.86,4.81,8.62.99,19.34-4.97,28.76,19.86,10.43,35.71,12.2,41.68,10.89,3.27,14.92,2.02,34.07-4.13,48.43-8.66,20.24-23.76,28.45-43.67,19.92-5.22-2.23-12.92-8.62-21.68-17-6.66,13.75-11.04,25.78-13.55,37.06-21.26-7.17-33.71-24.08-25.47-43.34,2.23-5.22,6.05-13.24,10.76-22.43-21.13-21.01-43.75-43.05-62.35-51.01-9.79-4.19-20.46.89-25.21,11.99-2.1,4.9-3.63,11.19-3.63,19.3-34.69-19.1-39.97-57.27-28.52-84.03,9.5-22.19,30.75-36.65,56.21-25.76,18.6,7.96,37.96,25.9,52.09,52.42Z"/><path d="m2126.57,1738.93c23.99,15.85,39.76,42.86,46.57,69.91,15.99,10.57,66.94,68.05,96.27,87.42,16,10.57,23.48,10.83,30.86,10.6.56,15.26-2.72,31.81-11.33,44.85-12.13,18.37-30.02,24.84-48.09,12.9-9.77-6.46-37.77-38.14-58.76-65.62,5.22,23.02,3.91,40.45-8.8,59.7-12.33,18.66-29.64,22.97-51.56,8.49-16.59-10.96-28.42-37.49-37.67-60.2-13.92-9.2-43.22-23.45-61.02-17.76-8.26-20.35-7.65-39.94,3.5-56.83,9.98-15.11,23.93-22.06,41.11-10.71,29.03,19.18,51.86,61.91,70.52,74.24,12.37-8.42,16.44-23.6,11.24-42.78-24.53-27.27-58.16-61.39-78.26-65.74-1.42-9.45.39-23.14,7.44-33.8,12.72-19.25,29.33-27,47.99-14.68Z"/><path d="m2039.63,1912.36c34.39,33.88,61.01,101.46,27.34,131.59,4.66,18.54-.49,35.4-14.94,50.07-22.92,23.27-44.98,27.45-63.95,8.76-25.29-24.92-30.76-85.62,12.81-133.9-12.37-9.7-28.37-.54-43.07,14.38-9.47,9.61-17.4,23.23-17.83,32.27l-1.25.26c-21.27-23.94-19.03-61.11,13.11-93.73,30.4-30.85,60.73-36.35,87.79-9.69Zm-25.64,130.23c7.84,7.72,16.63,8.41,28.84-3.98l1.74-1.77c-6.39-15.77-17.83-35.01-28.23-49.24-11.64,20.92-16.01,41.54-2.35,54.99Z"/><path d="m1893.57,2052.66c10.8,17.11,15.03,40.47,11.42,58.7,10.61,16.81,31.48,87.17,50.8,117.8,4.74,7.51,12.26,17.45,24.63,23.08-5.51,15.23-16.59,28.93-30.1,37.45-20.42,12.88-37.52,7.72-48.32-9.4-8.52-13.51-22.36-66.07-26.43-95.81.48,24.04-8.01,47.86-28.12,60.55-21.92,13.83-42.92,3.15-57.32-19.67-25.76-40.84-48.62-110.36-5.98-145.23-1.63-13.24,10.79-29.47,27.91-40.27,24.92-15.72,60.69-20.23,81.52,12.8Zm-25.74,118.23c-6.48-28.24-10.06-57.87-20.29-74.09-8.33-13.21-21.03-17.38-42.35-3.93,6.23,41.82,18.25,100.14,62.64,78.02Z"/><path d="m1735.13,2125.86c10.72,26.68,8.25,54.83-.8,83.72,10.91,22.4,27.75,46.24,45.57,56.3-10.79,13.13-22.84,24.09-39.31,30.71-19.11,7.67-32.11-.88-40.31-21.3l-1.59-3.95c-5.83,24.53-19.18,49.4-35.32,55.89-14.5,5.82-28.21.24-33.51-12.94-9.4-23.39-3.59-68.95,30.13-87.85,1.55,23.86,15.53,26.28,31.21,17.69-1.06-6.46-3.32-17.79-4.46-31.11-3.46-21.95-7.38-44.09-13.87-60.23-3.17-7.91-6.94-14.43-10.9-18.58,4.47-9.83,14.61-18.87,26.79-23.77,22.4-9,38.82-3.35,46.37,15.42Z"/><path d="m1604.73,2184.55c4.62,23.33-4.08,57.99-17.21,79.4,3.17,16.02,17.23,54.13,32.18,63.84-9.42,9.1-25.45,19.51-40.77,22.55-22.29,4.41-35.01-5.01-38.87-24.51-4.07-20.55-1.31-39.55,1.3-57.43,2.12-14.9,4.09-28.68,1.68-40.86-15.03-2.81-29.59,2.24-40.21,19.9.13,2.51-.08,5.08-.01,7.24-1.25,32.09-6.55,71.14,9.63,94.36-9.7,11.33-25.1,19.44-39.73,22.34-19.15,3.79-32.02-.9-35.26-17.27-4.41-22.29,4.5-57.71,14.08-80.59-3.77-31.82-19.18-53.02-29.05-59.02,4.7-18.3,16.7-32.62,36.9-36.62,22.63-4.48,35.56,5.99,39.01,23.4.76,3.83,1.59,8.01,2.06,12.26,18.17-34.36,32.05-50.13,62-56.06,22.29-4.41,37.86,4.81,42.28,27.1Z"/><path d="m1413.45,2227.53c-.09,16.69-7.62,31.2-25.45,46.02-9.07-30.93-37.01-50.96-59.37-51.08-9.38,28.71,62.96,44.36,62.7,92.63-.13,25.56-19.75,43.21-46,39.52-10.38,15.21-22.13,23.31-48.05,23.17-30.88-.16-46.78-15.51-46.66-38.23.08-15.62,12.96-33.3,33.23-41.36-.14,25.56,20.03,39.51,49.14,38.6,10.43-25.86-60.83-43.28-60.58-90.85.15-28.4,17.25-39.31,37.86-43.46,7.16-11.32,26.36-16.9,52.63-16.76,30.17.16,50.68,15.53,50.54,41.8Z"/><path d="m1263.71,2219.97c-5.5,28.22-24.45,53.1-46.86,69.71-3.67,18.81-37.37,87.84-44.09,122.33-3.67,18.82-1.06,25.83,1.97,32.57-13.89,6.33-30.45,9.62-45.78,6.63-21.6-4.21-34.41-18.28-30.27-39.54,2.24-11.5,20.85-49.46,38.25-79.35-19.29,13.6-35.9,19.04-58.55,14.63-21.95-4.28-32.54-18.64-27.51-44.42,3.8-19.51,23.82-40.57,41.28-57.78,3.19-16.38,5.19-48.9-6.86-63.18,15.66-15.39,34-22.31,53.87-18.44,17.77,3.46,29.52,13.71,25.58,33.92-6.65,34.15-37.45,71.54-41.73,93.5,12.5,8.22,28.09,6.2,43.83-5.92,15.85-33.08,34.57-77.17,30.92-97.41,8.19-4.91,21.54-8.46,34.08-6.02,22.65,4.41,36.15,16.81,31.87,38.76Z"/><path d="m962.8,2140.94c13.27-12.64,41.56-22.25,63.8-11.98,22.24,10.27,32.27,31.72,19.03,60.4-21.14,45.76-63.58,49.62-122.06,12.83-5.18,6.99-9.45,12.84-11.98,18.32-5.8,12.57,2.62,23.11,17.05,32.51,8.11-9.94,20.19-20,29.51-26.65,10.58,13.49,22.93,32.49,16.97,45.38-11.76,25.46-79.47,8.66-105.89-3.55-33.2-15.33-48.29-30.91-35.34-58.94,4.61-9.99,22.89-30.09,53.67-46.77,7.74-16.76,15.66-48.29,8.22-62.68,12.75-8.97,35.76-14.77,55.74-5.54,17.4,8.04,19.04,24.83,11.29,46.67Zm3.57,12.6c-2.58-1.19-5.63-2.21-8.83-2.9-5.85,10.98-13.47,21.54-21.11,31.31,11.28,5.21,33.44,13.1,45.59,15.58,6.87-14.03,2.71-35.5-15.66-43.99Z"/><path d="m728.52,2102.38c7.67,12.85,22.58,17.82,42.53,13.7,20.94-18.46,45.37-37.42,59-55.59,5.11-6.82,8.73-13.42,10.22-18.96,10.72-1.28,23.71,2.7,34.22,10.58,21.58,16.19,21.37,34.22,9.44,50.13-13.42,17.89-41.68,33.09-70.57,40.26-13.49,20.94-25.13,47.71-24.49,68.16-16.83-2.41-32.45-7.03-46.65-17.68-16.47-12.35-15.9-27.9-2.7-45.51,1.49-1.99,2.98-3.98,4.97-6.04-35.5,8.88-56.87,10.15-80.73-7.74-17.89-13.42-21.16-30.96-5.4-51.97,11.93-15.91,39.12-26.13,62.34-34.01,10.01-13.35,25.98-41.75,21.37-59.85,20.8-7.03,40.33-5.25,56.52,6.88,14.48,10.86,20.59,25.21,8.24,41.68-20.87,27.83-64.89,48.07-78.31,65.96Z"/><path d="m669.19,1915.33c17.77-2.3,44.08-.74,63.44,21.47,14.46,16.59,12.78,37.36-9.43,56.72-45.23,39.41-116.54,59.17-144.05,23.82-17.84,3.3-34.46-3.88-44.02-14.85-3.5-4.01-5.96-8.46-7.15-13.07-24.2,11.67-31.09,16.73-43.14,27.23-10.71,9.33-14.12,15.13-17.58,25.21-15.16-2.8-31.1-12.45-40.9-23.7-14.93-17.13-14.96-35,1.91-49.69,25.69-22.39,138.39-62.2,157-65.7,14.89-15.33,33.14-39.24,34.57-52.73,19.27-2.2,37.77-.42,51.53,15.37,13.53,15.52,12.52,33.82-2.17,49.92Zm-14.38,11.59l-.93-1.07c-22.66,7.5-63.77,23.55-76.62,34.74-10.97,9.56,1.38,27.52,9.94,38.43,21.05-6.1,47.39-15.87,65.32-31.49,13.12-11.43,11.31-29.17,2.29-40.61Z"/><path d="m590.13,1829.61c-14.69,7.92-31.04,8.26-52.58-.28,22.81-22.78,26.99-56.9,16.38-76.59-29.69,5.52-8.76,76.51-51.26,99.43-22.5,12.13-47.39,3.37-56.73-21.44-18.32-1.82-31.07-8.25-43.37-31.06-14.66-27.19-8.8-48.49,11.2-59.28,13.75-7.41,35.44-4.59,52.23,9.35-22.5,12.13-25.08,36.51-10.33,61.63,27.7-3.24,8.83-74.13,50.7-96.71,25-13.48,42.77-3.7,56.29,12.4,13.37.86,27.47,15.04,39.93,38.16,14.32,26.56,10.66,51.93-12.47,64.4Z"/><path d="m444.45,1689.74c-17.88,3.78-32.08,6.24-42.71,8.17,3.87,11.81,7.9,20.93,10.67,24.46-4.8,1.34-22.93,8.61-31.08,5.88-9.39-3.04-13.9-13.49-15.95-24.45-21.65,5.89-34.45,15.39-37.93,20.42-12.55-8.69-24.69-23.57-29.97-38.27-7.44-20.71-1.98-37.01,18.4-44.33,5.35-1.92,15.33-2.49,27.46-2.32-4.49-14.61-9.48-26.39-15.33-36.36,20.45-9.23,41.09-5.33,48.17,14.38,1.92,5.35,4.59,13.82,7.4,23.75,29.78,1,61.35,1.73,80.39-5.11,10.02-3.6,14.37-14.59,10.29-25.95-1.8-5.01-4.96-10.67-10.49-16.6,38.41-9.65,68.28,14.7,78.12,42.1,8.16,22.72,2.45,47.78-23.61,57.14-19.04,6.84-45.43,6.89-73.84-2.9Z"/><path d="m458.78,1581.96c-43.02,7.5-115.85-7.19-122.51-55.76-15.21-4.56-28.46-20.62-31.87-40.21-7.01-40.22,9.71-60.07,49.93-67.08,57.35-10,109.17,4.03,122.39,46.77,11.47,3.77,24.55,20.94,27.72,39.13,7.44,42.67-7.18,70.44-45.65,77.15Zm-75.83-104.25c-22.73,3.96-30.89,12.95-26.76,34.58,12.35,4.69,57.62,10.13,77.91,6.6,19.58-3.41,27.43-16.31,24.3-36.31-31.62-5.66-54.46-8.52-75.44-4.87Z"/><path d="m359.98,1281.45c-6.08,13.67-1.54,28.72,13.32,42.65,27.16,6.47,56.73,15.49,79.44,16.15,8.52.25,16-.6,21.38-2.58,7.23,8.02,11.47,20.93,11.09,34.06-.78,26.97-15.64,37.19-35.51,36.62-22.36-.65-51.06-14.98-73.58-34.45-24.89,1.05-53.48,6.97-69.81,19.29-7.73-15.14-12.97-30.56-12.45-48.31.6-20.58,13.63-29.08,35.63-28.44,2.48.07,4.97.14,7.8.58-27.72-23.89-41.09-40.61-40.22-70.42.65-22.36,13.09-35.14,39.35-34.37,19.87.58,43.9,16.9,63.73,31.33,16.68.48,49.09-2.84,61.23-17.05,17.74,12.94,27.54,29.92,26.96,50.15-.52,18.1-8.72,31.36-29.3,30.76-34.78-1.01-76.69-25.31-99.04-25.96Z"/><path d="m435.18,1215.61c-47.08-10.68-105.31-54.09-92.57-97.43-13.73-13.3-18.24-30.34-13.68-50.42,7.22-31.85,23.77-47.03,49.73-41.14,34.62,7.85,71.26,56.56,59.66,120.55,15.63,1.72,24.4-14.49,29.03-34.91,2.98-13.16,2.55-28.91-1.84-36.82l.93-.88c30.69,9.14,48.37,41.91,38.25,86.57-9.58,42.24-32.46,62.89-69.51,54.49Zm-46.82-124.19c-10.73-2.43-18.57,1.61-22.41,18.58l-.55,2.42c13.74,10.03,33.6,20.36,49.94,26.98-1.13-23.92-8.28-43.74-26.98-47.98Z"/><path d="m485.31,1022.26c-49.19-23.02-91.79-79.41-70.74-119.34-10.47-11.96-11.29-31.15-3.31-48.19,11.44-24.44,27.7-34.07,49.25-23.98,22.19,10.38,40.57,39.77,24.32,74.49-18.74-24.45-36.48-22.56-46.26-1.66,13.64,17.75,46.29,45.97,59.8,52.29,14.15,6.62,29.2-7.11,36.27-22.22,7.22-15.43,8.65-27.7,6.05-36.37l10.61,4.97c18.15,13.98,26.56,50.45,9.4,87.1-16.1,34.4-43.55,47.82-75.38,32.92Z"/><path d="m616.49,817.83c9.9,15.42,13.98,45.03-.32,64.91-14.3,19.89-37.26,25.68-62.91,7.24-40.93-29.43-36.67-71.84,10.53-122.29-5.88-6.41-10.82-11.71-15.72-15.23-11.24-8.08-23.19-1.8-35.15,10.58,8.22,9.85,15.82,23.61,20.57,34.03-15.25,7.84-36.24,16.36-47.77,8.07-22.77-16.37,6.56-79.67,23.55-103.3,21.34-29.69,39.5-41.56,64.57-23.53,8.94,6.42,25.21,28.18,35.76,61.56,14.99,10.78,44.45,24.53,59.98,19.95,6.39,14.22,7.72,37.91-5.12,55.78-11.19,15.56-27.98,13.99-47.96,2.25Zm-13.04,1.12c1.66-2.31,3.23-5.11,4.52-8.12-9.67-7.83-18.6-17.31-26.74-26.66-7.25,10.09-19.2,30.36-23.94,41.81,12.48,9.41,34.35,9.39,46.16-7.04Z"/><path d="m671.2,753.01c-19.89-20.77-28.09-47.81-30.46-77.99-18.47-16.72-42.98-32.56-63.26-35.26,5.12-16.21,12.22-30.87,25.03-43.15,14.87-14.24,30.12-11.15,45.34,4.74l2.95,3.08c-3.73-24.94-.61-52.99,11.95-65.02,11.28-10.8,26.09-10.74,35.92-.48,17.43,18.2,29.03,62.64,4.78,92.75-10.33-21.56-24.2-18.6-35.55-4.78,3.39,5.6,9.71,15.27,15.73,27.2,11.39,19.08,23.28,38.16,35.31,50.73,5.89,6.15,11.82,10.8,17.04,13.17-.48,10.79-6.52,22.96-16.01,32.04-17.43,16.7-34.78,17.58-48.77,2.97Z"/><path d="m772.6,640.47c-13.27-19.74-19.55-41.18-19.25-67.47-17.8-21.4-32.05-41.33-51.87-48.55,4.18-13.5,16.44-27.73,26.75-34.66,23.57-15.84,38.06-11.46,50.14,6.51,14.45,21.51,15.66,55.77,33.88,82.88,6.93,10.31,16.29,12.15,27.02,12.21,7.45-34.09-5.68-72.74-23.51-99.26-7.92-11.79-18.48-17.95-28.63-19.68,3.39-14.68,12.59-30.27,25.55-38.99,18.86-12.67,32.55-12.03,43.63,4.47,27.92,41.55,31.47,176.03-22.16,212.07-23.57,15.84-45.34,14.64-61.57-9.52Zm61.61-33.7l-.88,1.87.88-1.87Z"/><path d="m858.28,353.35c-6.15-17.91,2.53-39.33,20.48-47.86,16.35-7.77,36.2.08,42.36,17.99,6.61,18.87-2.54,40.12-18.9,47.9-17.95,8.54-37.48.53-43.94-18.02Zm55.68,202.29c-10.36-21.8-9.04-56.23-3.52-78.51-12.27-21.68-27.99-45.65-43.19-56.12,9.96-13.77,21.31-25.46,37.34-33.08,15.07-7.16,30.81-.5,40.26,19.38,22.1,46.49-.85,82.55,44.5,125.85-3.45,21.68-13.85,33.71-29.56,41.17-21.8,10.36-37-.1-45.83-18.69Z"/><path d="m1089.09,389.96c-14.88-1.58-27.81,7.37-36.48,25.8,2.2,27.83,2.71,58.75,9.07,80.56,2.38,8.18,5.49,15.04,9.03,19.55-5.41,9.34-16.39,17.35-29,21.03-25.9,7.55-40.2-3.44-45.77-22.53-6.26-21.47-1.46-53.19,10.15-80.61-8.66-23.36-23.09-48.74-39.83-60.5,12.03-12.01,25.09-21.74,42.13-26.71,19.77-5.76,31.86,4.02,38.02,25.15.7,2.39,1.39,4.77,1.85,7.6,14.2-33.72,26.01-51.59,54.63-59.93,21.47-6.26,37.46,1.65,44.81,26.87,5.56,19.09-2.57,46.97-10.2,70.28,4.67,16.02,17.8,45.84,35.06,53.01-6.86,20.86-20,35.41-39.42,41.08-17.38,5.07-32.52,1.35-38.28-18.42-9.74-33.4.49-80.76-5.77-102.23Z"/><path d="m1164.74,530.85c-1.76-20.52,13.05-43.16,30.09-56.38-2.4-3-3.76-6.45-4.06-9.99-1.12-13.09,7.35-22.36,19.42-31.24-20.03-5.05-31.02-16.94-32.66-36.04-3.36-39.26,16.41-83,59.63-81.71,4.49-10,17.71-17.91,31.5-19.09,9.9-.85,19.9-.64,27.57,1.56,9.53-21.84,17.28-35.33,33.91-36.75,14.5-1.24,31.37,12.63,24.24,41.75-14.2,4.78-19.39,2.37-41.07,11.36,10.88,2.27,18.71,6.24,20.74,29.94,2.27,26.53-14.4,85.68-79.48,91.25-6.72.58-13.12.77-18.81.9,7.68,18.94,89.77,12.26,94.86,71.69,2.09,24.41-20.49,51.99-53.07,50.15-12.98,10.73-24.79,14.24-42.12,15.72-38.55,3.3-67.77-9.16-70.68-43.12Zm105.95,9.81c4.14-5.7,6.9-10.92,6.51-15.52-1.52-17.69-34.58-25.19-59.34-35.54-4.59,4.67-8.02,10.31-7.57,15.61,1.45,16.98,39.37,31.19,60.4,35.45Zm1.27-193.23c-1.33-15.56-8.77-19.2-24.36-18.22-5.36,16.49-10.08,40.41-8.75,55.98,1.3,15.21,6.45,21.18,23.84,20.41,7.39-17.74,10.57-42.95,9.27-58.16Z"/></g></svg>