<?xml version="1.0" encoding="UTF-8"?><svg xmlns="http://www.w3.org/2000/svg" xmlns:xlink="http://www.w3.org/1999/xlink" viewBox="0 0 2672.51 2672.51"><defs><style>.cls-1{fill:url(#linear-gradient);}.cls-2{fill:#fff;}.cls-3{fill:url(#linear-gradient-2);}</style><linearGradient id="linear-gradient" x1="153.87" y1="1337.1" x2="2515.04" y2="1337.1" gradientUnits="userSpaceOnUse"><stop offset="0" stop-color="#192681"/><stop offset="0" stop-color="#f62684"/><stop offset=".45" stop-color="#3833a8"/><stop offset="1" stop-color="#192681"/></linearGradient><linearGradient id="linear-gradient-2" x1="809.18" y1="1932.46" x2="814.81" y2="1932.46" gradientTransform="translate(82335.69 -213347.86) rotate(177.9) scale(109.49 -109.49)" gradientUnits="userSpaceOnUse"><stop offset="0" stop-color="#192669"/><stop offset="1" stop-color="#f62684"/></linearGradient></defs><g id="Background_Big_Sticker"><circle class="cls-1" cx="1334.46" cy="1337.1" r="1180.58"/><path class="cls-3" d="m508.38,513.82l9.98,9.94c-140.34,140.82-236.67,308.77-289.12,486.92-115.44,392.22-18.07,833.62,291.87,1142.51,140.82,140.34,308.77,236.67,486.92,289.12,392.22,115.44,833.63,18.07,1142.52-291.87,140.34-140.82,236.67-308.76,289.11-486.91,115.44-392.22,18.07-833.63-291.88-1142.52-140.82-140.34-308.77-236.67-486.92-289.12-392.22-115.44-833.62-18.07-1142.51,291.88l-9.98-9.94-9.98-9.94C814.83,186.38,1267.09,86.58,1668.83,204.86h0c182.51,53.72,354.65,152.48,498.85,296.19,317.49,316.43,417.3,768.69,299.02,1170.43h0c-53.72,182.51-152.47,354.65-296.19,498.85-316.43,317.49-768.69,417.3-1170.43,299.01-182.51-53.72-354.66-152.48-498.85-296.19C183.74,1856.72,83.93,1404.47,202.22,1002.73c53.72-182.51,152.48-354.66,296.19-498.85l9.98,9.94Z"/></g><g id="Big_Sticker"><path class="cls-2" d="m1324.4,768.25c.3-1.27,1-17.93,1.06-21.62.06-3.69.04-19.87-.66-20.3-1.06-.37-2.75-.83-4.24-.92l.05-2.98,16.74.27-.05,2.98c-1.49.05-3.34.44-4.41.78-.22.71-.98,12.26-1.1,19.57-.16,9.72.01,21,.21,22.14,2.34.11,6.31.24,10.07.31,5.82.09,7.76-1.44,7.88-9.24l3.05.05-.22,13.34-32.98-.53.05-2.98c2.34-.18,3.55-.37,4.55-.85Z"/><path class="cls-2" d="m1358.49,756.01c.87-12.31,9.88-19,19.93-18.29,11.04.78,16.57,7.08,15.78,18.19-.86,12.1-8.55,19.31-20.37,18.47-10.54-.75-16.07-8.11-15.34-18.37Zm17.57,14.05c7.15.51,10.79-3.72,11.43-12.77.63-8.85-2.59-14.62-11.15-15.23-6.65-.47-10.4,3.25-11.07,12.66-.64,8.99,3.5,14.83,10.79,15.34Z"/><path class="cls-2" d="m1403.61,772.76c.64-2.13,1.78-8.71,2.49-14.13.55-4.22,1.17-9,.99-11.39-1.85-.6-3.38-.94-5.68-.88l.36-2.74c3.24-.15,7.91-.83,11.26-2.39l1.62,1.28-.87,6.11c3.49-4.27,7.81-6.14,12.54-5.66l-.87,6.68-3.17-.41c-3.52-.46-6.45.59-9.21,4.24l-.86,6.04c-.78,5.41-1.63,13.02-1.49,14.19.91.69,4.24,1.48,6,1.71l-.36,2.74-19.07-2.49.36-2.74c1.55.2,4.95.43,5.96-.15Z"/><path class="cls-2" d="m1448.33,778.6c-3.16,2.57-7.42,4.43-13.13,3.34-6.97-1.33-10.35-4.43-9.16-10.63,1.12-5.85,5.89-7.04,10.48-7.24,4.37-.18,9.92-.13,14.66-.02.51-2.29.87-4.17,1.08-5.28.73-3.83-2.64-6.57-8.01-7.6-4.46-.85-7.33-.17-7.8,2.27-.35,1.81.46,5.14.7,5.77l-5.18,1.39c-.5-1.54-1.12-3.61-.61-6.26,1.13-5.92,8.73-9.02,18.14-7.23,7.32,1.4,9.91,5.21,8.87,10.65l-3.66,19.16c-.39,2.02-.28,3.34.91,3.57.84.16,1.46-.44,2.19-1.24v-.07s1.67,1.91,1.67,1.91v.07c-1.4,2.34-3.66,4.72-7.35,4.02-3.48-.67-4.41-3.01-3.8-6.58Zm-10.6-1.59c5.09.97,8.79-.63,11.53-3.29.32-1.67.72-3.4,1.03-5-3.68-.41-9.5-.95-11.89-.9-5.06.04-5.87,1.26-6.35,3.77-.61,3.2,1.71,4.66,5.68,5.42Z"/><path class="cls-2" d="m1479.25,789l5.98-18.8,3.2.94c-3.86,10.84-3.49,16.87,9.85,20.8,5.78,1.71,9.43.12,10.76-4.37,1.7-5.78-1.83-9.34-8.4-14.16-6.82-4.97-13.65-10.39-11.25-18.55,2.61-8.85,11.84-10.56,20.48-8.02,4.29,1.26,9.19,3.96,13.26,7.46l-4.73,14.28-3.2-.94c2.97-10.07-.47-14.71-9.66-17.42-5.1-1.5-8.13-.25-9.16,3.22-1.82,6.19,2.73,9.83,8.66,14.02,7.55,5.26,13.27,10.2,10.74,18.77-3.99,13.54-17.76,10.59-22.19,9.29-5.44-1.6-9.57-3.41-14.35-6.52Z"/><path class="cls-2" d="m1545.75,809.04c1.9-3.38,4.55-10.34,8.21-19.95,1.24-3.25-1.01-6.31-5.19-7.9-3.45-1.31-7.96-1.22-12.64,2.69-3.34,8.75-6.79,18.21-6.89,18.86.73.88,3.78,2.43,5.44,3.06l-.99,2.59-18.03-6.87.99-2.58c2.25.86,4.78,1.6,5.9,1.26,1.11-1.93,3.76-8.06,5.7-13.16,1.52-3.98,9.86-25.85,10.23-28.21-1.66-1.01-3.34-1.8-5.52-2.26l1.09-2.85c3.12.58,8.08,1.11,11.71.36l1.28,1.63-5.41,13.58-3.79,9.94c4.62-3.55,9.68-4.28,15.71-1.98,6.1,2.33,9.2,5.94,6.9,11.97.25-.66-7.87,20.84-8.2,22.31.61.99,2.79,2.05,5.04,2.91l-.99,2.59-17.7-6.75.99-2.58c1.66.63,5.03,1.54,6.16,1.36Z"/><path class="cls-2" d="m1566.71,812.9c5.05-11.03,7.63-16.48,9.61-20.65-1.63-1.37-3.54-2.16-5.44-2.96l1.48-3.23c4.84,2.22,8.92.96,12.26-3.44l2.26,1.03-3.38,7.04c2.07,1.1,4.17,2.14,6.23,3.09,2.13.97,4.22,1.85,6.41,2.7l-2.25,3.89c-2.26-1.19-4.56-2.32-6.81-3.35-1.74-.8-3.51-1.53-5.35-2.29l-8.09,17.68c-1.65,3.61-1.24,6.46,1.73,7.81,2.32,1.06,6.5.63,9.22-.54l.31,2.56c-3.71,2.83-9.05,4.44-13.76,2.28-5.68-2.6-6.56-6.98-4.43-11.63Z"/><path class="cls-2" d="m1591.69,829.82c1.32-1.79,4.6-7.53,7.1-12.39,1.95-3.78,4.13-8.01,4.76-10.32-1.54-1.19-2.61-1.9-4.79-2.63l1.3-2.52c3.1.96,7.47,1.77,11.15,1.44l1.09,1.76-8.05,15.17c-2.5,4.86-5.92,11.64-6.18,12.78.62.96,3.05,2.61,4.62,3.42l-1.3,2.52-16.4-8.45,1.3-2.52c2.08,1.07,4.26,1.96,5.41,1.75Zm19.6-38.67c1.14-2.21,3.58-2.46,5.54-1.46,1.89.98,3.07,3.02,1.9,5.29l-.39.76c-1.07,2.08-3.43,2.63-5.45,1.59-2.27-1.17-3.07-3.34-2-5.42l.39-.76Z"/><path class="cls-2" d="m1612.61,841.06c1.4-1.73,4.97-7.38,7.68-12.11,2.12-3.69,4.52-7.88,5.25-10.15-1.49-1.26-2.77-2.16-4.91-2.98l1.38-2.4c3.05,1.1,7.62,2.25,11.32,2.08l1.01,1.81-3.13,5.32c4.85-2.61,9.56-2.7,13.75-.45l-3.35,5.85-2.77-1.59c-3.08-1.76-6.18-1.91-10.13.41l-3.1,5.26c-2.78,4.7-6.47,11.42-6.79,12.55.58.99,3.36,2.99,4.9,3.87l-1.38,2.4-16.68-9.56,1.38-2.4c1.35.78,4.41,2.29,5.57,2.13Z"/><path class="cls-2" d="m1651.07,848.58l-2.85-1.87c-3.37,5.26-6.71,10.36-7.12,11.37.52,1.02,4.06,3.77,4.36,3.96l-1.56,2.37-15.3-10.04,1.56-2.37c1.84,1.21,3.85,2.27,5.19,2.3,1.09-1.15,9.97-14.16,13.51-19.56,2.34-3.56,8.75-13.6,10.79-17.36-.62-.74-3.01-2.4-4.49-3.12l1.71-2.61c3.1,1.35,7.66,2.82,11.36,2.87l.48,1.59c-3.35,4.85-11.62,17.07-14.85,21.99l-3.43,5.22,3.32,2.18,14.55-3.69c-.81-.96-2.38-2.07-3.62-2.89l1.56-2.37,12.28,8.05-1.56,2.37c-1.9-1.25-3.26-1.88-5.56-1.36l-14.42,3.1,2.16,21.28,3.87,3.81-1.44,2.19-9.31-6.11-1.2-21.32Z"/><path class="cls-2" d="m1671.97,863.25c7.47-9.83,18.67-10.5,26.69-4.4,8.81,6.69,9.99,14.99,3.26,23.86-7.34,9.66-17.72,11.48-27.15,4.32-8.42-6.39-9.01-15.58-2.79-23.77Zm7.02,21.37c5.71,4.33,11.06,2.79,16.56-4.44,5.36-7.06,5.83-13.65-1-18.85-5.31-4.03-10.48-2.97-16.19,4.54-5.45,7.17-5.18,14.33.64,18.75Z"/><path class="cls-2" d="m1713.46,875.87c-.23-1.14-.68-1.81-2.13-3.07l1.82-2.09,12.69,11.03-1.82,2.09c-1.34-1.16-4.35-3.32-5.48-3.54-3.19,9.07-6.22,18.18-9.25,27.4l25.15-13.57c-.23-1.14-2.66-3.54-3.95-4.65l1.82-2.09,11.62,10.1-1.82,2.09c-1.34-1.16-2.64-1.83-3.76-2.05l-31.08,15.09-4.71-4.1c3.72-10.77,7.39-21.68,10.9-32.64Z"/><path class="cls-2" d="m1740.96,937.45c-4.06.37-8.63-.46-12.76-4.55-5.04-4.99-6.12-9.45-1.68-13.94,4.19-4.24,8.82-2.55,12.74-.17,3.72,2.29,8.31,5.43,12.18,8.16,1.7-1.61,3.04-2.98,3.84-3.78,2.75-2.77,1.47-6.93-2.41-10.77-3.23-3.19-5.99-4.23-7.74-2.47-1.3,1.31-2.49,4.53-2.63,5.18l-5.08-1.73c.44-1.56,1.09-3.62,2.98-5.53,4.24-4.29,12.28-2.62,19.08,4.12,5.29,5.24,5.32,9.86,1.43,13.79l-13.73,13.87c-1.45,1.46-2.09,2.62-1.24,3.47.6.6,1.46.44,2.51.19l.05-.05.31,2.51-.05.05c-2.45,1.17-5.66,1.89-8.33-.76-2.52-2.5-1.98-4.96.51-7.58Zm-7.91-7.23c3.68,3.64,7.65,4.38,11.41,3.7,1.2-1.21,2.5-2.42,3.64-3.58-2.82-2.39-7.36-6.08-9.37-7.38-4.23-2.79-5.58-2.23-7.38-.41-2.3,2.32-1.18,4.82,1.69,7.67Z"/><path class="cls-2" d="m1810.98,944.12l2.12,2.58-51.3,42.17-2.12-2.58,51.3-42.17Z"/><path class="cls-2" d="m1806.66,1017.77c1.28-.5,11.32-6.42,17.9-10.74,4.74-3.12,12.02-8.07,15.22-10.43l-2.18-3.32c-2.45-3.74-8.53-1.87-13.94,1.52l-2.73-4.15,14.58-9.58,22.91,34.86-14.59,9.58-2.73-4.15c5.26-3.63,9.38-8.46,6.27-13.2l-1.01-1.54c-3.52,1.88-11.06,6.42-15.81,9.54-6.58,4.32-16.36,10.75-17.28,11.69-.09,1.16.86,3.25,2.19,5.27l-3.62,2.38-12.78-19.45,3.62-2.38c1.09,1.66,2.71,3.48,3.97,4.1Z"/><path class="cls-2" d="m1826.17,1062.05l21.3-28.48c.17-1.15-.5-2.81-1.08-3.86l3.73-2.06,10.85,19.62-3.54,1.96c-.86-1.55-2.94-4.29-3.79-4.95l-14.68,18.01,22.96-3.05c.24-1.18-1.05-3.8-1.87-5.29l3.54-1.96,7.86,14.22-3.54,1.96c-.41-.75-1.68-2.31-2.66-2.91l-33.46,3.27c-6.93.67-19.6-.26-25.65-11.19l9.19-5.08c2.67,4.68,5.39,8.29,10.86,9.81Zm7.3.74l-3.02-.03c.92.06,1.97.04,3.02.03Z"/><path class="cls-2" d="m1845.69,1096.93c-4.55,2.16-8.13,3.88-10.3,5.11-.03.95.93,4.25,1.38,5.22l-3.81,1.74-8.54-18.64,3.81-1.74c.5,1.1,1.63,2.53,2.34,2.91,3.53-.99,8.07-2.99,19.75-8.34,11.61-5.32,14.58-6.67,16.5-8.1-.16-1.02-.86-2.73-1.58-3.8l3.81-1.74c1.9,2.8,5.47,6.31,8.57,8.33l.38,4.59c-1.06.41-2.61,1.12-4.45,1.88,4.82.99,8.64,3.53,10.65,7.92,4.31,9.42-.57,16.49-8.82,20.27-10.45,4.78-22.18,2.51-27.82-9.81-.97-2.13-1.58-3.96-1.87-5.78Zm8.11,4.25c2.81,6.13,8.49,6.1,14.04,3.56,5.48-2.51,9.1-7.05,6.41-12.92-1.21-2.65-3.58-4.06-6.92-4.71-4.09,1.8-8.48,3.81-12.03,5.43l-2.39,1.09c-.44,2.62-.21,5.17.88,7.56Z"/><path class="cls-2" d="m1872.89,1118.03c8.98-3.34,21.26-2.46,26.04,10.37,4.23,11.37-.98,17.92-10.48,21.46-.8.3-2.79,1.04-3.73,1.16l-8.39-22.54c-4.13,2.75-6.17,7.22-3.87,13.4,1.26,3.39,3.16,5.64,6.69,7.2l-2.1,4.11c-6.51-1.21-11.11-5.86-13.66-12.71-4.13-11.1.2-19,9.51-22.46Zm12.63,21.12c5.35-2.52,8.44-5.79,6.84-10.11-1.71-4.59-6.37-4.52-11.61-2.72l4.78,12.83Z"/><path class="cls-2" d="m1882.1,1174.15l38.8-2.55c.39-1.7.42-3.09.38-4.76l4.41-1.07,4.1,16.89-29.8,16.79,34.62,3.07,4.06,16.75-4.28,1.04c-.64-1.45-1.53-2.99-2.38-4.39l-36.34,14.22c-.3.87.09,3.99.22,4.84l-4.28,1.04-5.25-21.65,4.28-1.04c.54,1.92,1.67,5.07,2.38,5.92l30.37-11.45-39.5-3.63-1.61-6.62,32.99-19.32-31.56,2.62c-.05,1.91.14,4.2.71,6.84l-4.28,1.04-4.2-17.31,4.28-1.04c.37,1.22,1.37,3.25,1.87,3.78Z"/><path class="cls-2" d="m1906.88,1235.8c9.48-1.37,21.3,2.08,23.26,15.63,1.74,12.01-4.73,17.32-14.77,18.77-.84.12-2.95.43-3.89.35l-3.44-23.8c-4.61,1.81-7.55,5.75-6.61,12.28.52,3.58,1.9,6.18,5.02,8.45l-2.92,3.58c-6.1-2.56-9.63-8.07-10.67-15.3-1.7-11.73,4.2-18.53,14.03-19.95Zm7.89,23.3c5.76-1.34,9.47-3.88,8.81-8.44-.7-4.84-5.28-5.76-10.78-5.11l1.96,13.55Z"/><path class="cls-2" d="m1911.89,1275.32c11.25-.8,21.92,5.12,22.95,19.48.14,1.98.05,3.7-.2,5.14,4.03-.36,8.12-.79,10.44-1.17.22-.94.13-3.14-.18-4.54l4.53-.32c.79,3.07,2.49,9,4.7,11.97l-.79,3.83c-5.88.28-20.61,1.26-26.48,1.68-5.45.39-20.52,1.54-22.2,1.95-.5,1.03-.71,3.04-.61,4.38l-4.25.3-1.03-14.44,3.57-.83c-3-2.2-5.16-5.46-5.51-10.35-.79-11.04,5.37-16.39,15.07-17.08Zm-6.97,20.91c.15,2.12,1.14,3.97,2.74,5.49,4.53-.25,12.82-.7,18.49-1.11l.5-.03c1.12-2.21,1.52-4.59,1.34-7.07-.45-6.23-5.57-8.21-11.87-7.76-7.57.54-11.64,4.32-11.2,10.48Z"/><path class="cls-2" d="m1904.75,1326.02c2.2.32,7.39.52,12.85.43,3.55-.06,7.59-.12,9.92-.66.34-1.07.37-3.48.07-4.68l4.26-.07c.62,2.97,2.47,7.76,4.5,10.85l-1.49,4.42-17.17.07c-5.46.09-11.63.26-12.76.56-.55,1-.88,2.5-.85,4.27l-4.26.07-.32-19.72,4.26-.07c.03,1.77.27,3.61,1,4.52Zm43.84-.43c3.55-.06,5.51,2.82,5.56,5.94.05,3.05-1.75,5.92-5.37,5.98l-1.21.02c-3.26.05-5.58-2.54-5.63-5.8-.06-3.62,2.17-6.07,5.43-6.12l1.21-.02Z"/><path class="cls-2" d="m1902.82,1367c-2.89-2.25-4.61-5.51-4.38-11.11.3-7.44,3.09-11.45,9.54-11.19,5.1.21,7.77,2.66,8.98,9.74.64,3.58,1.3,8.22,1.84,12.5,2.05.15,3.83.23,5.17.28,3.33.14,5.12-1.99,5.28-5.89.15-3.62-.8-4.79-3.14-4.89-1.35-.05-2.63.18-3.8.91l-3.21-8.51c1.53-.86,3.55-1.63,5.81-1.54,6.66.27,11.18,7.98,10.79,17.48-.39,9.64-3.74,13.41-11.18,13.11l-17.65-.72c-2.06-.08-2.64.25-2.67,1.1-.03.78.8,1.31,1.57,1.63h.07s-1.84,3.34-1.84,3.34h-.07c-4.13-1.38-6.43-4.24-6.24-9.06.16-4.04,2.17-6.23,5.12-7.18Zm2.02-6.02c-.1,2.55,1.11,4.23,2.83,5.44h.07c1.91.08,3.76.16,5.46.22.13-1.41.26-2.9.31-4.25.17-4.11-.23-6.61-3.92-6.76-2.77-.11-4.63,2.16-4.76,5.35Z"/><path class="cls-2" d="m1916.93,1412.31c5.24,8.81,8.4,11.89,12.62,12.47,4.5.62,7.89-1.14,8.53-5.85.74-5.41-2.82-8.69-10.2-9.7l.85-6.19,13.57,1.86c2.23,4.1,3.34,11.2,2.36,17.8-1.43,9.9-5.55,15.93-14.82,14.66-9.21-1.26-14.36-13.35-19.73-22.25-1.68-2.88-3.3-5.18-5.25-6.66l-1.37,9.98c-.97,7.1,1.21,11.05,6.82,11.39l-.69,5.06-17.5-2.39,4.85-36c9.77,1.34,15.83,8.9,19.96,15.84Z"/><path class="cls-2" d="m1913.31,1441.4c14.5,3.1,26.81,10.67,23.54,25.94-2.75,12.84-11.59,17.54-26.23,14.41-16.51-3.53-27.44-11.82-24.3-26.46,2.66-12.42,11.52-17.2,26.99-13.89Zm-20.94,16.49c-1.43,6.66,6.94,9.25,18.88,11.8,10.06,2.15,18.27,1.44,19.68-5.15,1.32-6.17-7.69-8.83-18.3-11.1-10.75-2.3-18.95-1.66-20.25,4.44Z"/><path class="cls-2" d="m1899.4,1498.07c3.86,9.49,6.53,13.01,10.61,14.21,4.36,1.28,7.97.05,9.31-4.51,1.54-5.24-1.49-9.02-8.64-11.12l1.76-5.99,13.14,3.86c1.59,4.39,1.63,11.57-.32,17.95-2.89,9.58-7.86,14.92-16.85,12.28-8.92-2.62-12.2-15.34-16.18-24.95-1.23-3.1-2.49-5.61-4.19-7.37l-2.84,9.66c-2.02,6.87-.46,11.11,5.04,12.28l-1.44,4.9-16.95-4.98,10.18-34.87c9.46,2.78,14.32,11.16,17.37,18.64Z"/><path class="cls-2" d="m1886.04,1539.26c3.15,9.75,5.54,13.46,9.53,14.96,4.25,1.6,7.95.64,9.62-3.81,1.93-5.11-.82-9.1-7.79-11.73l2.2-5.84,12.81,4.83c1.26,4.49.76,11.66-1.65,17.88-3.59,9.34-8.95,14.29-17.71,10.99-8.7-3.28-11.03-16.21-14.29-26.08-1-3.18-2.07-5.78-3.63-7.66l-3.55,9.43c-2.53,6.71-1.28,11.04,4.12,12.62l-1.8,4.78-16.53-6.23,12.74-34.02c9.23,3.48,13.45,12.19,15.94,19.88Z"/><path class="cls-2" d="m1887.17,1613.89l-1.5,2.98-59.28-29.92,1.5-2.98,59.28,29.92Z"/><path class="cls-2" d="m1818.37,1634.51c.92.93,11.91,8.5,18.33,12.68,6.01,3.91,19.01,11.76,19.38,11.84,1-.62,3.25-3.3,4.06-4.55l1.19.77-14.54,22.37c-5.03,7.73-11.2,6.94-15.89,3.88-6.19-4.02-9.04-12.13-5.04-20.62l-23.6-.53-4.67,4.32-1.13-.73,5.34-8.21,26.05,1.71c2.34-3.47,4.19-5.66,6.21-7.22-3.39-2.2-17.25-10.96-18.47-11.42-1.02.52-5.06,6.1-6.03,7.59l-1.19-.77,11.33-17.43,1.19.77c-.93,1.43-2.66,4.36-2.51,5.56Zm10.5,25.11c-3.44,5.29-3.51,12.69,3.92,17.53,5.89,3.83,10.51,1.92,14.84-4.74,1.82-2.8,4.16-6.52,5.46-9.31-5.3-3.95-10.81-7.45-16.3-11.11-2.68,1.65-5.56,4-7.92,7.63Z"/><path class="cls-2" d="m1799.64,1674.43c2.98,2.29,14.21,10.85,17.18,13.04,1.54-1.41,2.83-3.1,3.92-4.86l1.01.78c-1.54,2.93-2.48,6.24-2.72,9.81l-1.54.25c-2.3-2.13-9.93-8.27-18.48-14.85-4.05-3.12-8.59-2.22-12.22,2.5-4.07,5.29-3.42,10.26,2.61,19.29l.68.52c4.27,3.29,7.91,6,10.38,7.81,1.54-1.41,2.83-3.1,3.92-4.86l1.01.78c-1.54,2.93-2.48,6.24-2.72,9.81l-1.72.38c-1.46-1.48-8.44-7.3-13.22-10.98-5.34-4.11-10.69-7.87-12.25-8.62-1.06.44-3.55,2.64-4.63,4.04l-1.01-.78,6.49-8.43,9.02,7.12c-4.38-7.22-4.22-14.17.37-20.13,4.15-5.4,9.09-6.34,13.93-2.62Z"/><path class="cls-2" d="m1767.26,1706.12c4.22,3.8,12.58,11.69,17.96,16.53,3.17,2.85,13.18,11.66,16.58,14.25,1.55-1.19,2.98-2.57,4.19-4.44l1.16,1.04c-1.67,2.7-2.85,5.93-3.46,9.58l-1.55.13-19.48-17.81-.47-.43c2.04,5.27,2,11.25-3.03,16.84-5.27,5.86-13.03,8.23-21.94.21-8.65-7.78-10.47-18.49-2.46-27.4,3.23-3.59,7.5-6.43,12.51-8.5Zm-.47,5.3c-4.2.42-7.67,2.27-11.46,6.49-4.74,5.27-6.01,11.67,3.53,20.26,6.91,6.22,14.34,6.02,18.99.85,5.69-6.33,3.38-12.99.37-17.6-3.79-3.32-8.49-7.54-11.43-10Z"/><path class="cls-2" d="m1736.69,1737.64c2.75,3.57,6.86,7.79,10.72,11.65,3.01,3.01,5.76,5.58,9.02,8.34,1.61-1.1,3.11-2.4,4.42-4.21l.9.9c-1.81,2.61-3.17,5.76-3.98,9.38l-1.55.05c-4.06-4.27-7.36-7.69-11.52-11.86-3.86-3.87-7.81-7.84-11.37-10.9-1.1.3-3.67,2.35-4.92,3.6l-.9-.9,11.86-11.82.9.9c-1.66,1.65-3.42,3.71-3.57,4.86Zm31.31,31.4c1.25,1.26.95,2.96-.11,4.01-.95.95-2.61,1.3-3.91,0l-.4-.4c-1.15-1.16-1.05-2.86,0-3.91,1.21-1.2,2.86-1.25,4.01-.09l.4.4Z"/><path class="cls-2" d="m1702.14,1769.74c1.47,2.3,5.17,6.7,14.35,17.05,3.39,3.82,8.01,3.8,12.47-.15,5.31-4.7,5.88-9.19,2.2-18.16l-1.69-1.91c-4.18-4.83-9.84-11-10.71-11.55-.81.15-4.65,2.89-6.93,4.91l-.85-.96,14.39-12.75.85.96c-2.23,1.98-3.69,3.75-3.9,4.69,1.05,1.72,6.02,7.75,10.01,12.26,4.8,5.42,7.3,8.03,8.65,9.02,1.93-1.14,3.42-2.46,4.71-3.99l.85.96c-2.01,2.54-3.56,5.62-4.58,9.17l-1.56-.04-6.06-7.05c2.58,7.29.96,13.27-5.1,18.64-5.1,4.52-10.12,4.51-14.17-.05-2.16-2.44-15.25-17.1-16.35-18.02-.96.09-2.9,1.33-5.13,3.31l-.85-.96,14.23-12.61.85.96c-2.34,2.07-5.46,5.5-5.71,6.29Z"/><path class="cls-2" d="m1673.19,1796.17l1.85,2.43c-.64-4.95.21-10.86,6.2-15.41,4.58-3.48,10.15-3.88,13.46.47,2.45,3.22.13,7.56-2.67,11.03-3.17,3.92-7.33,8.42-10.86,12.09,1.79,2.47,3.33,4.51,4.15,5.58,3.65,4.8,8.35,3.37,12.64.1,4.86-3.69,6.27-6.99,4.17-9.76-1.37-1.81-5.71-3.41-6.34-3.65l1.86-4.35c1.48.66,4.23,2.04,5.86,4.19,3.56,4.69,1.1,12.35-6.19,17.89-5.82,4.42-10.39,3.8-13.74-.61l-13.14-17.29c-1.33-1.75-2.73-2.3-4.08-1.27-1.53,1.16-1.13,2.73.46,4.82l2.75,3.62-1.24.94-2.45-3.22c-2.62-3.45-3.11-6.55.4-9.21,2.54-1.93,4.86-1.11,6.92,1.6Zm8.15-8.86c-5.2,3.95-5.36,9.24-3.81,14.57.54.83,1.15,1.62,1.75,2.41,2.32-1.76,8.24-6.98,11.89-11.44,1.94-2.37,2.73-4.39,1.31-6.25-2.36-3.11-6.95-2.47-11.13.71Z"/><path class="cls-2" d="m1652.72,1839.38c1.86,1.69,3.45,3.46,4.6,5.34,4.08,6.65,5.25,13.59-2.25,18.19-5.44,3.34-10.38,1.12-12.46-2.27-2.78-4.54-2.75-11.96,5.57-19.3-6.75-4.77-16.02-8.49-24.11-10.02-.72,3.85.15,7.98,2.55,11.91,1.37,2.24,2.27,3.02,3.82,4.73,1.35-.24,4.74-1.9,6.31-2.87l.74,1.21-14.1,8.63-.74-1.21c1.39-.85,3.51-2.56,4.21-3.58-4.3-7.43-5.3-13.81-4.35-19.05-5.52-.86-10.33-.57-13.3,1.24l-.27-.58c3.93-2.41,8.91-3.38,14.27-3.33,1.56-4.78,4.97-8.45,9.03-10.94,10.83-6.63,20.24-3.5,24.17,2.92,3.26,5.32,2.76,12.79-3.68,18.98Zm-19.64-20.25c-4.11,2.52-6.86,5.78-8.24,9.37,9.47.52,19.7,4.32,26.54,9.78,4.79-4.27,4.81-10.35,1.96-15.01-3.59-5.87-11.61-9.45-20.26-4.15Zm16.42,23.14c-5.71,5.49-6.14,12.25-3.58,16.42,2.19,3.57,5.76,4.38,9.15,2.3,4.42-2.71,3.83-7.34,1.01-11.93-1.45-2.36-3.74-4.61-6.57-6.79Z"/><path class="cls-2" d="m1592.63,1843.73l11.04,43.73c1.49.03,3.98-.31,6.24-1.17l.58,1.29-8.73,3.93-33.38-32.52,2.25,46.52-8.86,3.99-.58-1.29c2.79-1.41,4.38-3.06,4.99-3.96l-24.6-37.56c-1.13-.27-4.32.93-5.88,1.63l-.58-1.3,16.89-7.6.58,1.3c-1.81.81-6.71,3.41-7.39,4.33l22,33.36-1.04-44.34,1.94-.87,32.26,31.08-10.78-39.18c-1.14-.11-7.75,2.48-8.14,2.65l-.58-1.29,16.31-7.34.58,1.3c-2.2.99-4.57,2.29-5.12,3.31Z"/><path class="cls-2" d="m1537.84,1882.74c4.35,12.76-.91,20.85-10.85,24.24-10.81,3.68-16.92-3.68-19.16-10.26-.21-.6-.37-1.3-.57-1.9l27.4-9.34-.14-.4c-3.59-10.55-11.23-12.29-18.96-9.66-4.23,1.44-8.56,5.02-9.62,10.92l-1.17-.35c.31-7.23,5.78-11.86,11.96-13.97,8.06-2.75,16.93-1.57,21.12,10.72Zm-26.32,12.72c2.63,7.05,8.24,11.43,15.97,8.8,7.46-2.54,10.57-6.83,7.74-16.88l-23.71,8.08Z"/><path class="cls-2" d="m1492.67,1882.57c.08,1.31,4.1,16.24,6.2,23.61,1.96,6.89,6.45,21.11,6.68,21.41,1.58-.15,4.17-.89,5.77-1.49l.35,1.23c-3.12,1.48-5.5,3.48-7.96,6.25l-1.38-.71c-.16-.84-5.05-18.78-6.95-25.46-2.16-7.57-6.53-22.19-7.08-23.58-.7-.39-3.98.02-6.09.63l-.35-1.23,15.97-4.54.35,1.23c-2.05.58-5.12,1.97-5.51,2.67Z"/><path class="cls-2" d="m1473.68,1887.71c.03,1.31,3.53,16.38,5.37,23.81,1.72,6.96,5.71,21.32,5.93,21.63,1.58-.1,4.2-.75,5.82-1.29l.31,1.24c-3.17,1.37-5.62,3.29-8.17,5.97l-1.36-.76c-.14-.84-4.39-18.94-6.05-25.69-1.89-7.64-5.75-22.4-6.25-23.82-.69-.42-3.97-.11-6.11.41l-.31-1.24,16.12-3.98.31,1.24c-2.07.51-5.18,1.79-5.6,2.48Z"/><path class="cls-2" d="m1461.99,1905.64c2.3,12.06-4.77,20.41-14.45,22.26-10.24,1.96-18.04-2.19-20.24-13.69-2.33-12.2,4.82-20.5,14.51-22.35,9.06-1.73,17.75,1.02,20.18,13.77Zm-20.83-11.12c-8.15,1.56-12,7.49-10.09,17.53,2.06,10.8,8.33,14.88,17.04,13.21,7.67-1.46,12.17-7.02,10.18-17.4-2.09-10.94-8.43-15-17.14-13.34Z"/><path class="cls-2" d="m1398.21,1951.94l-3.32.33-6.58-66.08,3.32-.33,6.59,66.08Z"/><path class="cls-2" d="m1338.82,1906.57c-.3,1.27-1,17.94-1.06,21.62-.06,3.69-.04,19.87.66,20.3,1.06.37,2.75.83,4.24.92l-.05,2.98-16.74-.27.05-2.98c1.49-.05,3.34-.44,4.41-.78.22-.71.98-12.26,1.1-19.56.16-9.72-.01-21-.21-22.14-2.34-.11-6.31-.25-10.07-.31-5.82-.1-7.76,1.43-7.88,9.24l-3.05-.05.22-13.34,32.98.53-.05,2.98c-2.34.17-3.55.37-4.55.85Z"/><path class="cls-2" d="m1304.6,1918.57c-1,12.3-10.08,18.9-20.12,18.08-11.03-.9-16.49-7.25-15.59-18.35.98-12.09,8.75-19.22,20.56-18.26,10.54.85,15.98,8.27,15.15,18.53Zm-17.42-14.23c-7.14-.58-10.83,3.6-11.56,12.66-.72,8.84,2.44,14.65,11,15.34,6.65.54,10.43-3.14,11.2-12.54.73-8.98-3.35-14.86-10.63-15.46Z"/><path class="cls-2" d="m1259.66,1901.35c-.66,2.13-1.87,8.69-2.63,14.1-.6,4.22-1.27,8.99-1.1,11.38,1.85.62,3.37.98,5.67.94l-.39,2.74c-3.24.12-7.92.75-11.28,2.28l-1.61-1.3.93-6.1c-3.53,4.23-7.88,6.05-12.6,5.53l.94-6.67,3.16.45c3.51.5,6.45-.52,9.25-4.14l.92-6.03c.83-5.4,1.76-13.01,1.64-14.17-.9-.7-4.23-1.53-5.98-1.77l.39-2.74,19.04,2.69-.39,2.74c-1.55-.22-4.95-.48-5.96.09Z"/><path class="cls-2" d="m1215.01,1895.04c3.19-2.54,7.47-4.36,13.17-3.2,6.95,1.41,10.3,4.54,9.05,10.73-1.18,5.84-5.97,6.97-10.56,7.13-4.37.13-9.92.02-14.67-.14-.53,2.28-.91,4.16-1.14,5.27-.77,3.82,2.58,6.6,7.93,7.68,4.45.9,7.33.25,7.82-2.18.37-1.81-.41-5.15-.64-5.78l5.19-1.34c.48,1.55,1.08,3.62.54,6.26-1.19,5.91-8.82,8.93-18.21,7.03-7.3-1.47-9.86-5.32-8.76-10.74l3.86-19.13c.41-2.02.31-3.34-.87-3.58-.83-.17-1.46.43-2.2,1.22v.07s-1.65-1.92-1.65-1.92v-.07c1.42-2.32,3.71-4.68,7.4-3.94,3.48.7,4.38,3.06,3.73,6.62Zm10.59,1.7c-5.08-1.03-8.8.54-11.57,3.16-.34,1.67-.76,3.39-1.08,4.99,3.67.45,9.49,1.05,11.88,1.02,5.06.01,5.89-1.2,6.39-3.7.65-3.2-1.66-4.68-5.63-5.48Z"/><path class="cls-2" d="m1184.2,1884.31l-6.18,18.73-3.19-.98c3.98-10.8,3.67-16.83-9.62-20.91-5.77-1.77-9.43-.22-10.8,4.26-1.77,5.77,1.73,9.36,8.25,14.25,6.77,5.04,13.54,10.53,11.05,18.67-2.7,8.82-11.95,10.44-20.57,7.8-4.27-1.31-9.14-4.06-13.18-7.6l4.88-14.24,3.19.98c-3.08,10.04.32,14.72,9.47,17.52,5.09,1.56,8.13.34,9.19-3.12,1.89-6.17-2.62-9.86-8.52-14.11-7.49-5.34-13.16-10.34-10.54-18.88,4.13-13.5,17.88-10.4,22.29-9.05,5.43,1.66,9.54,3.51,14.28,6.67Z"/><path class="cls-2" d="m1117.91,1863.56c-1.93,3.36-4.66,10.29-8.43,19.86-1.27,3.23.94,6.32,5.1,7.96,3.43,1.35,7.95,1.3,12.67-2.56,3.43-8.72,6.99-18.14,7.09-18.79-.72-.89-3.76-2.47-5.41-3.12l1.01-2.57,17.96,7.07-1.01,2.57c-2.24-.88-4.77-1.65-5.88-1.32-1.14,1.92-3.84,8.02-5.84,13.1-1.56,3.96-10.13,25.75-10.53,28.11,1.65,1.03,3.32,1.84,5.49,2.31l-1.12,2.84c-3.11-.61-8.07-1.19-11.7-.49l-1.26-1.64,5.55-13.52,3.9-9.9c-4.66,3.5-9.73,4.18-15.73,1.81-6.07-2.39-9.14-6.04-6.77-12.04-.26.66,8.09-20.76,8.44-22.22-.6-1-2.77-2.08-5.01-2.96l1.01-2.57,17.63,6.94-1.01,2.58c-1.65-.65-5.02-1.59-6.15-1.43Z"/><path class="cls-2" d="m1097,1859.49c-5.17,10.98-7.8,16.4-9.83,20.54,1.62,1.39,3.51,2.2,5.4,3.01l-1.51,3.21c-4.81-2.27-8.91-1.06-12.3,3.31l-2.25-1.06,3.45-7c-2.06-1.12-4.15-2.19-6.2-3.15-2.12-1-4.2-1.9-6.38-2.77l2.29-3.86c2.25,1.22,4.53,2.37,6.78,3.43,1.73.82,3.5,1.57,5.32,2.35l8.28-17.59c1.69-3.6,1.31-6.44-1.65-7.83-2.31-1.09-6.49-.7-9.23.44l-.28-2.56c3.74-2.79,9.1-4.34,13.79-2.14,5.65,2.66,6.48,7.05,4.31,11.67Z"/><path class="cls-2" d="m1052.2,1880.76c-1.16,2.2-3.61,2.42-5.55,1.4-1.88-.99-3.04-3.05-1.85-5.31l.4-.75c1.09-2.07,3.45-2.59,5.46-1.53,2.26,1.19,3.04,3.37,1.94,5.44l-.4.75Zm20-38.46c-1.34,1.78-4.67,7.48-7.23,12.31-1.99,3.76-4.21,7.97-4.86,10.27,1.53,1.21,2.59,1.93,4.76,2.68l-1.33,2.51c-3.09-.99-7.45-1.85-11.14-1.55l-1.07-1.77,8.21-15.08c2.55-4.83,6.04-11.58,6.31-12.71-.61-.97-3.02-2.64-4.59-3.47l1.33-2.51,16.31,8.62-1.33,2.51c-2.07-1.09-4.24-2-5.39-1.8Z"/><path class="cls-2" d="m1051.4,1830.84c-1.42,1.72-5.04,7.32-7.81,12.03-2.16,3.67-4.6,7.83-5.36,10.1,1.47,1.28,2.75,2.19,4.88,3.03l-1.4,2.39c-3.04-1.13-7.6-2.33-11.3-2.2l-.99-1.82,3.19-5.29c-4.88,2.56-9.59,2.59-13.76.31l3.42-5.81,2.75,1.62c3.06,1.8,6.16,1.98,10.13-.3l3.15-5.22c2.83-4.67,6.59-11.35,6.92-12.47-.57-.99-3.32-3.02-4.85-3.92l1.4-2.39,16.58,9.74-1.4,2.38c-1.34-.79-4.39-2.33-5.54-2.19Z"/><path class="cls-2" d="m1013.01,1822.92l2.83,1.9c3.42-5.22,6.82-10.29,7.24-11.29-.51-1.02-4.02-3.81-4.32-4.01l1.58-2.36,15.2,10.2-1.58,2.36c-1.83-1.23-3.83-2.31-5.17-2.36-1.11,1.14-10.12,14.06-13.72,19.42-2.37,3.53-8.9,13.51-10.98,17.24.61.75,2.98,2.43,4.46,3.16l-1.74,2.59c-3.08-1.39-7.63-2.9-11.32-2.99l-.47-1.6c3.4-4.81,11.8-16.94,15.08-21.83l3.48-5.18-3.3-2.22-14.59,3.54c.8.97,2.35,2.09,3.59,2.92l-1.58,2.36-12.19-8.19,1.58-2.36c1.88,1.26,3.24,1.92,5.54,1.42l14.45-2.95-1.94-21.29-3.82-3.85,1.46-2.18,9.25,6.21.97,21.33Z"/><path class="cls-2" d="m992.28,1808.04c-7.57,9.75-18.78,10.3-26.74,4.12-8.74-6.79-9.84-15.09-3.01-23.89,7.44-9.58,17.84-11.3,27.2-4.03,8.35,6.48,8.85,15.67,2.54,23.8Zm-6.8-21.44c-5.66-4.4-11.03-2.91-16.6,4.26-5.44,7.01-5.98,13.6.81,18.86,5.27,4.09,10.45,3.08,16.24-4.37,5.53-7.12,5.33-14.27-.44-18.75Z"/><path class="cls-2" d="m950.91,1794.97c.22,1.14.66,1.82,2.09,3.09l-1.84,2.07-12.57-11.17,1.84-2.07c1.33,1.18,4.32,3.36,5.44,3.6,3.28-9.04,6.42-18.12,9.54-27.3l-25.3,13.31c.22,1.14,2.62,3.56,3.9,4.7l-1.84,2.07-11.51-10.22,1.84-2.07c1.33,1.18,2.62,1.85,3.74,2.09l31.24-14.76,4.67,4.15c-3.84,10.73-7.62,21.61-11.24,32.53Z"/><path class="cls-2" d="m924.05,1733.11c4.06-.33,8.63.55,12.72,4.68,4.99,5.04,6.02,9.51,1.53,13.96-4.24,4.19-8.84,2.46-12.74.03-3.7-2.33-8.25-5.51-12.1-8.29-1.71,1.6-3.08,2.94-3.88,3.74-2.77,2.74-1.54,6.91,2.3,10.8,3.19,3.23,5.95,4.3,7.71,2.55,1.31-1.3,2.53-4.5,2.69-5.15l5.06,1.78c-.46,1.55-1.12,3.61-3.04,5.5-4.29,4.24-12.3,2.49-19.04-4.32-5.24-5.3-5.21-9.91-1.28-13.8l13.87-13.72c1.46-1.45,2.12-2.6,1.27-3.45-.6-.61-1.45-.46-2.51-.21l-.05.05-.29-2.51.05-.05c2.46-1.14,5.68-1.82,8.32.85,2.5,2.52,1.93,4.98-.59,7.57Zm7.84,7.32c-3.64-3.68-7.6-4.46-11.37-3.82-1.21,1.2-2.52,2.39-3.68,3.54,2.8,2.42,7.29,6.16,9.29,7.47,4.2,2.83,5.56,2.29,7.37.49,2.32-2.3,1.23-4.81-1.61-7.69Z"/><path class="cls-2" d="m853.65,1725.13l-2.09-2.6,51.79-41.56,2.09,2.6-51.79,41.57Z"/><path class="cls-2" d="m858.84,1651.49c-1.29.49-11.39,6.28-18.03,10.53-4.78,3.06-12.11,7.92-15.34,10.24l2.14,3.35c2.41,3.76,8.5,1.97,13.96-1.35l2.68,4.18-14.7,9.41-22.49-35.13,14.7-9.41,2.68,4.18c-5.3,3.56-9.48,8.35-6.42,13.13l.99,1.55c3.54-1.84,11.14-6.29,15.92-9.35,6.63-4.25,16.49-10.56,17.41-11.48.1-1.16-.83-3.26-2.13-5.29l3.64-2.33,12.55,19.6-3.64,2.33c-1.07-1.67-2.67-3.51-3.92-4.15Z"/><path class="cls-2" d="m839.84,1607.02l-21.63,28.23c-.19,1.15.46,2.81,1.04,3.87l-3.75,2.02-10.62-19.74,3.56-1.92c.84,1.56,2.89,4.33,3.74,5l14.9-17.84-22.99,2.78c-.25,1.18,1,3.81,1.81,5.31l-3.56,1.92-7.69-14.31,3.56-1.92c.4.75,1.66,2.33,2.63,2.94l33.5-2.87c6.93-.59,19.6.5,25.51,11.49l-9.25,4.97c-2.62-4.71-5.3-8.35-10.74-9.93Zm-7.29-.83l3.02.07c-.92-.07-1.97-.07-3.02-.07Z"/><path class="cls-2" d="m820.72,1571.9c4.58-2.11,8.18-3.78,10.36-4.98.04-.95-.88-4.27-1.31-5.24l3.83-1.7,8.31,18.74-3.83,1.7c-.49-1.1-1.6-2.55-2.31-2.93-3.54.95-8.11,2.9-19.85,8.1-11.67,5.18-14.66,6.5-16.6,7.91.14,1.02.83,2.74,1.54,3.82l-3.83,1.7c-1.87-2.82-5.39-6.38-8.47-8.43l-.33-4.59c1.07-.4,2.62-1.09,4.47-1.83-4.81-1.05-8.6-3.64-10.56-8.05-4.2-9.47.76-16.48,9.06-20.16,10.51-4.66,22.21-2.25,27.71,10.14.95,2.14,1.53,3.98,1.8,5.8Zm-8.06-4.34c-2.73-6.16-8.42-6.2-13.99-3.73-5.51,2.44-9.18,6.95-6.56,12.85,1.18,2.66,3.53,4.1,6.86,4.79,4.11-1.75,8.52-3.7,12.09-5.29l2.4-1.06c.47-2.61.27-5.17-.79-7.56Z"/><path class="cls-2" d="m793.78,1550.49c-9.02,3.23-21.29,2.21-25.92-10.68-4.1-11.42,1.19-17.91,10.74-21.34.8-.29,2.81-1.01,3.74-1.12l8.12,22.64c4.16-2.7,6.26-7.14,4.03-13.35-1.22-3.41-3.09-5.67-6.61-7.28l2.15-4.09c6.49,1.29,11.04,5.99,13.51,12.87,4,11.15-.42,19-9.77,22.35Zm-12.38-21.26c-5.38,2.46-8.51,5.69-6.95,10.03,1.65,4.61,6.32,4.59,11.58,2.86l-4.62-12.89Z"/><path class="cls-2" d="m785.24,1494.28l-38.83,2.1c-.41,1.7-.45,3.09-.43,4.76l-4.43,1.02-3.9-16.94,30-16.44-34.58-3.47-3.87-16.8,4.29-.99c.63,1.46,1.49,3.01,2.33,4.41l36.51-13.79c.31-.87-.05-3.99-.17-4.84l4.29-.99,5,21.71-4.29.99c-.51-1.92-1.61-5.09-2.32-5.95l-30.5,11.1,39.46,4.09,1.53,6.64-33.21,18.93,31.59-2.25c.07-1.91-.09-4.2-.63-6.84l4.29-.99,4,17.35-4.29.99c-.36-1.23-1.33-3.26-1.82-3.8Z"/><path class="cls-2" d="m761.19,1432.33c-9.49,1.26-21.28-2.33-23.08-15.9-1.59-12.03,4.94-17.26,15-18.59.84-.11,2.95-.39,3.9-.3l3.16,23.84c4.63-1.76,7.62-5.66,6.75-12.2-.48-3.59-1.82-6.2-4.92-8.51l2.96-3.54c6.07,2.63,9.53,8.18,10.49,15.43,1.56,11.74-4.42,18.48-14.26,19.78Zm-7.61-23.39c-5.77,1.27-9.52,3.77-8.91,8.34.64,4.85,5.21,5.82,10.71,5.24l-1.8-13.57Z"/><path class="cls-2" d="m756.65,1392.75c-11.26.67-21.86-5.38-22.72-19.75-.12-1.98,0-3.7.26-5.13-4.03.31-8.13.7-10.46,1.05-.23.94-.17,3.14.13,4.54l-4.53.27c-.75-3.08-2.39-9.03-4.56-12.02l.84-3.82c5.89-.21,20.62-1.02,26.5-1.37,5.45-.33,20.53-1.3,22.22-1.68.51-1.03.74-3.03.66-4.38l4.25-.25.86,14.45-3.58.78c2.98,2.24,5.09,5.52,5.38,10.41.66,11.05-5.56,16.32-15.27,16.9Zm7.21-20.83c-.13-2.12-1.09-3.99-2.68-5.53-4.54.2-12.83.55-18.5.89l-.5.03c-1.15,2.2-1.57,4.57-1.43,7.05.37,6.23,5.47,8.27,11.77,7.9,7.58-.45,11.69-4.18,11.32-10.34Z"/><path class="cls-2" d="m720.57,1342.77c-3.55.06-5.51-2.82-5.56-5.94-.05-3.05,1.75-5.92,5.37-5.98l1.21-.02c3.26-.05,5.58,2.54,5.63,5.8.06,3.62-2.17,6.07-5.44,6.12l-1.21.02Zm43.84-.43c-2.2-.32-7.39-.52-12.85-.43-3.55.06-7.59.12-9.92.66-.34,1.07-.37,3.48-.07,4.68l-4.26.07c-.62-2.97-2.47-7.76-4.5-10.85l1.49-4.42,17.17-.07c5.46-.09,11.63-.26,12.76-.56.55-1,.88-2.5.85-4.27l4.26-.07.32,19.72-4.26.07c-.03-1.77-.27-3.61-1-4.52Z"/><path class="cls-2" d="m766.76,1301.18c2.87,2.28,4.54,5.56,4.25,11.16-.39,7.44-3.22,11.41-9.67,11.08-5.1-.26-7.74-2.75-8.87-9.84-.6-3.58-1.21-8.23-1.69-12.52-2.05-.18-3.82-.27-5.17-.34-3.33-.17-5.14,1.93-5.35,5.83-.19,3.61.74,4.8,3.08,4.92,1.35.07,2.64-.15,3.81-.87l3.11,8.54c-1.54.84-3.56,1.59-5.83,1.47-6.66-.35-11.09-8.11-10.59-17.6.5-9.64,3.89-13.37,11.33-12.98l17.64.92c2.05.11,2.64-.22,2.68-1.07.04-.78-.78-1.32-1.55-1.64h-.07s1.88-3.31,1.88-3.31h.07c4.12,1.43,6.38,4.31,6.13,9.13-.21,4.04-2.24,6.21-5.2,7.12Zm-2.09,6c.13-2.55-1.06-4.25-2.77-5.47h-.07c-1.91-.1-3.76-.2-5.46-.29-.14,1.41-.29,2.9-.36,4.24-.21,4.11.15,6.62,3.84,6.81,2.76.14,4.66-2.1,4.82-5.29Z"/><path class="cls-2" d="m753.21,1255.68c-5.13-8.87-8.26-11.99-12.47-12.61-4.49-.67-7.9,1.05-8.6,5.75-.8,5.4,2.72,8.73,10.09,9.82l-.92,6.18-13.54-2.02c-2.18-4.13-3.2-11.24-2.15-17.82,1.54-9.88,5.73-15.86,15-14.48,9.19,1.37,14.2,13.52,19.46,22.48,1.65,2.9,3.24,5.22,5.17,6.72l1.48-9.96c1.06-7.09-1.08-11.06-6.68-11.47l.75-5.05,17.47,2.6-5.28,35.94c-9.75-1.45-15.72-9.08-19.77-16.07Z"/><path class="cls-2" d="m757.17,1226.64c-14.46-3.27-26.68-10.99-23.24-26.21,2.9-12.8,11.8-17.41,26.4-14.1,16.47,3.73,27.29,12.15,23.99,26.75-2.8,12.39-11.72,17.06-27.15,13.57Zm21.14-16.24c1.5-6.64-6.84-9.33-18.74-12.03-10.03-2.27-18.25-1.66-19.74,4.91-1.39,6.16,7.58,8.92,18.17,11.32,10.73,2.43,18.92,1.88,20.3-4.21Z"/><path class="cls-2" d="m771.74,1170.15c-3.75-9.54-6.37-13.09-10.44-14.34-4.34-1.33-7.97-.15-9.37,4.4-1.6,5.22,1.38,9.03,8.5,11.22l-1.83,5.97-13.09-4.02c-1.54-4.41-1.49-11.59.54-17.94,3-9.54,8.04-14.82,16.99-12.08,8.89,2.73,12.02,15.49,15.88,25.14,1.2,3.11,2.42,5.64,4.11,7.42l2.96-9.63c2.1-6.85.59-11.1-4.9-12.34l1.5-4.88,16.89,5.18-10.59,34.75c-9.43-2.89-14.19-11.33-17.15-18.84Z"/><path class="cls-2" d="m785.59,1129.12c-3.03-9.79-5.38-13.53-9.35-15.07-4.23-1.65-7.94-.74-9.67,3.69-1.99,5.09.71,9.11,7.65,11.82l-2.27,5.82-12.76-4.98c-1.21-4.51-.62-11.67,1.87-17.85,3.7-9.29,9.12-14.19,17.84-10.78,8.66,3.38,10.83,16.34,13.97,26.25.96,3.19,2,5.81,3.54,7.7l3.66-9.39c2.61-6.68,1.41-11.03-3.97-12.67l1.86-4.76,16.46,6.42-13.14,33.86c-9.19-3.59-13.3-12.35-15.7-20.07Z"/><path class="cls-2" d="m785.33,1054.5l1.54-2.96,58.93,30.61-1.54,2.96-58.93-30.61Z"/><path class="cls-2" d="m854.38,1034.69c-.91-.95-11.81-8.64-18.18-12.89-5.96-3.98-18.87-11.99-19.24-12.06-1,.61-3.29,3.27-4.11,4.51l-1.18-.79,14.8-22.19c5.12-7.67,11.28-6.81,15.94-3.7,6.14,4.09,8.89,12.24,4.8,20.68l23.59.81,4.72-4.27,1.12.75-5.43,8.15-26.03-2.01c-2.38,3.44-4.25,5.61-6.3,7.14,3.36,2.24,17.12,11.16,18.34,11.63,1.02-.51,5.14-6.04,6.12-7.52l1.18.79-11.53,17.29-1.18-.79c.94-1.42,2.72-4.33,2.58-5.53Zm-10.21-25.23c3.5-5.25,3.66-12.65-3.72-17.57-5.84-3.9-10.49-2.05-14.9,4.56-1.85,2.77-4.23,6.47-5.57,9.25,5.25,4.01,10.72,7.58,16.17,11.3,2.7-1.61,5.61-3.93,8.01-7.54Z"/><path class="cls-2" d="m873.58,994.97c-2.95-2.33-14.08-11.01-17.02-13.24-1.55,1.4-2.87,3.07-3.98,4.82l-1-.79c1.57-2.91,2.55-6.21,2.83-9.78l1.54-.23c2.28,2.16,9.83,8.38,18.3,15.06,4.01,3.16,8.56,2.32,12.25-2.36,4.13-5.24,3.54-10.22-2.39-19.32l-.67-.53c-4.23-3.34-7.84-6.09-10.28-7.93-1.55,1.4-2.87,3.07-3.98,4.82l-1-.79c1.57-2.91,2.55-6.21,2.83-9.78l1.73-.36c1.44,1.5,8.35,7.4,13.09,11.13,5.29,4.17,10.59,7.99,12.15,8.77,1.06-.43,3.58-2.6,4.68-3.99l1,.79-6.59,8.36-8.94-7.23c4.3,7.27,4.06,14.22-.6,20.12-4.22,5.35-9.16,6.24-13.95,2.46Z"/><path class="cls-2" d="m906.33,963.68c-4.17-3.85-12.44-11.84-17.76-16.74-3.13-2.89-13.04-11.82-16.41-14.44-1.56,1.17-3.01,2.53-4.24,4.39l-1.15-1.06c1.7-2.68,2.92-5.89,3.57-9.54l1.55-.11,19.27,18.04.47.43c-1.98-5.29-1.87-11.27,3.23-16.8,5.33-5.79,13.12-8.07,21.94.05,8.56,7.88,10.25,18.61,2.13,27.43-3.27,3.55-7.57,6.34-12.61,8.35Zm.54-5.29c4.2-.37,7.69-2.17,11.54-6.35,4.81-5.22,6.15-11.6-3.29-20.3-6.84-6.3-14.26-6.19-18.97-1.08-5.77,6.26-3.53,12.95-.58,17.6,3.75,3.36,8.4,7.64,11.31,10.13Z"/><path class="cls-2" d="m906.33,900.75c-1.24-1.27-.91-2.97.15-4.01.97-.94,2.63-1.27,3.91.05l.4.41c1.14,1.17,1.02,2.87-.05,3.91-1.22,1.19-2.88,1.22-4.01.05l-.4-.41Zm30.93,31.77c-2.71-3.6-6.77-7.87-10.58-11.78-2.97-3.05-5.69-5.64-8.92-8.45-1.62,1.08-3.14,2.37-4.47,4.16l-.89-.91c1.84-2.58,3.24-5.73,4.09-9.33l1.56-.03c4.01,4.32,7.27,7.77,11.38,11.99,3.81,3.91,7.72,7.93,11.24,11.04,1.11-.29,3.69-2.31,4.96-3.55l.89.91-11.99,11.68-.89-.91c1.68-1.63,3.46-3.67,3.63-4.82Z"/><path class="cls-2" d="m972.18,900.82c-1.44-2.32-5.1-6.75-14.15-17.21-3.34-3.86-7.97-3.89-12.47,0-5.36,4.64-5.99,9.12-2.41,18.13l1.67,1.93c4.12,4.87,9.71,11.11,10.57,11.68.82-.14,4.68-2.83,6.99-4.83l.84.97-14.54,12.58-.84-.97c2.25-1.95,3.74-3.7,3.96-4.64-1.03-1.73-5.92-7.82-9.87-12.38-4.74-5.47-7.21-8.11-8.55-9.12-1.94,1.12-3.44,2.42-4.76,3.93l-.83-.97c2.04-2.52,3.62-5.57,4.68-9.12l1.55.06,5.97,7.12c-2.49-7.32-.8-13.28,5.31-18.58,5.15-4.46,10.17-4.4,14.17.22,2.14,2.47,15.05,17.28,16.14,18.21.96-.08,2.91-1.3,5.16-3.25l.84.96-14.38,12.44-.84-.97c2.36-2.04,5.52-5.44,5.78-6.22Z"/><path class="cls-2" d="m1001.46,874.73l-1.82-2.45c.58,4.96-.34,10.85-6.38,15.33-4.62,3.42-10.19,3.76-13.45-.63-2.41-3.25-.04-7.56,2.8-11,3.21-3.89,7.42-8.33,11-11.96-1.76-2.49-3.28-4.54-4.09-5.63-3.59-4.84-8.31-3.46-12.64-.25-4.9,3.63-6.35,6.92-4.28,9.71,1.35,1.82,5.67,3.48,6.29,3.72l-1.91,4.33c-1.47-.68-4.2-2.09-5.81-4.26-3.51-4.73-.95-12.36,6.4-17.82,5.87-4.35,10.44-3.68,13.73.77l12.93,17.44c1.31,1.77,2.7,2.33,4.07,1.31,1.54-1.14,1.16-2.72-.4-4.83l-2.7-3.65,1.25-.93,2.41,3.25c2.58,3.48,3.03,6.59-.5,9.21-2.56,1.9-4.87,1.05-6.9-1.68Zm-8.25,8.77c5.24-3.89,5.47-9.18,3.98-14.52-.53-.84-1.13-1.64-1.72-2.44-2.34,1.73-8.32,6.88-12.02,11.3-1.97,2.34-2.78,4.36-1.38,6.24,2.32,3.13,6.93,2.55,11.14-.58Z"/><path class="cls-2" d="m1022.43,831.76c-1.84-1.71-3.41-3.5-4.54-5.39-4-6.7-5.09-13.65,2.47-18.16,5.48-3.27,10.39-.99,12.43,2.42,2.73,4.57,2.61,11.99-5.79,19.23,6.69,4.85,15.91,8.68,23.99,10.31.76-3.84-.05-7.98-2.41-11.94-1.34-2.25-2.23-3.05-3.76-4.78-1.35.23-4.76,1.85-6.35,2.79l-.73-1.22,14.2-8.46.73,1.22c-1.4.84-3.53,2.52-4.26,3.53,4.21,7.48,5.13,13.87,4.12,19.1,5.51.93,10.33.7,13.31-1.08l.27.58c-3.96,2.36-8.95,3.27-14.3,3.16-1.62,4.76-5.07,8.39-9.15,10.83-10.91,6.5-20.28,3.25-24.13-3.2-3.2-5.36-2.61-12.82,3.91-18.93Zm3.26-2.85c5.77-5.42,6.29-12.17,3.78-16.38-2.14-3.59-5.71-4.44-9.12-2.41-4.45,2.65-3.91,7.29-1.15,11.92,1.42,2.38,3.69,4.66,6.49,6.87Zm16.14,23.33c4.14-2.47,6.93-5.7,8.35-9.27-9.46-.63-19.65-4.55-26.42-10.1-4.84,4.21-4.93,10.29-2.13,14.98,3.52,5.91,11.5,9.58,20.21,4.39Z"/><path class="cls-2" d="m1082.57,828.12l-10.51-43.86c-1.49-.05-3.99.27-6.25,1.1l-.57-1.3,8.78-3.82,32.98,32.92-1.7-46.54,8.91-3.88.57,1.3c-2.81,1.38-4.42,3.01-5.04,3.89l24.14,37.85c1.13.28,4.34-.88,5.9-1.56l.57,1.3-16.98,7.39-.57-1.3c1.82-.79,6.75-3.33,7.44-4.24l-21.6-33.62.51,44.35-1.95.85-31.89-31.46,10.31,39.31c1.14.12,7.78-2.38,8.17-2.55l.57,1.3-16.39,7.14-.57-1.3c2.21-.96,4.6-2.23,5.16-3.25Z"/><path class="cls-2" d="m1137.82,789.76c-4.2-12.81,1.16-20.84,11.14-24.11,10.86-3.55,16.87,3.88,19.04,10.49.2.61.35,1.3.55,1.91l-27.51,9.01.13.41c3.47,10.59,11.09,12.42,18.84,9.88,4.25-1.39,8.62-4.91,9.75-10.81l1.16.37c-.4,7.22-5.92,11.79-12.12,13.82-8.09,2.65-16.95,1.37-20.99-10.97Zm26.47-12.4c-2.54-7.08-8.11-11.53-15.86-8.99-7.48,2.45-10.65,6.7-7.94,16.78l23.8-7.79Z"/><path class="cls-2" d="m1182.97,790.47c-.06-1.31-3.91-16.29-5.92-23.68-1.88-6.91-6.2-21.18-6.43-21.49-1.58.14-4.18.84-5.79,1.43l-.33-1.23c3.14-1.44,5.54-3.42,8.03-6.15l1.37.73c.16.84,4.83,18.83,6.65,25.54,2.07,7.6,6.27,22.26,6.8,23.66.7.4,3.98.02,6.1-.55l.33,1.23-16.02,4.36-.34-1.23c2.05-.56,5.14-1.91,5.54-2.61Z"/><path class="cls-2" d="m1202.02,785.55c-.02-1.31-3.34-16.41-5.09-23.88-1.64-6.98-5.46-21.38-5.67-21.7-1.58.08-4.21.7-5.83,1.22l-.29-1.24c3.19-1.33,5.66-3.22,8.24-5.87l1.35.78c.13.85,4.16,18.99,5.75,25.76,1.8,7.67,5.49,22.47,5.97,23.89.68.42,3.97.16,6.11-.34l.29,1.24-16.16,3.79-.29-1.24c2.07-.49,5.21-1.73,5.63-2.41Z"/><path class="cls-2" d="m1213.92,767.77c-2.16-12.08,5.01-20.36,14.72-22.09,10.27-1.84,18.02,2.4,20.08,13.92,2.19,12.22-5.07,20.44-14.77,22.17-9.08,1.62-17.73-1.22-20.02-14Zm20.7,11.36c8.17-1.46,12.09-7.35,10.29-17.41-1.94-10.82-8.16-14.97-16.89-13.41-7.68,1.37-12.25,6.87-10.39,17.28,1.96,10.97,8.25,15.1,16.98,13.54Z"/><path class="cls-2" d="m1279.73,722.09l3.32-.28,5.65,66.16-3.32.28-5.65-66.16Z"/><path class="cls-2" d="m1395.61,548.39c3.36-23.75,27.32-57.96,48.83-83.92,10.75-33.22,17.36-64.15,5.79-99.57,13.65-6.36,36.04-9.24,51.35-7.08,22.18,3.14,33.18,15.53,30.44,34.9-3.4,24.06-24.3,45.64-40.5,79.04-11.66,23.85-30.82,71.49-16.37,97.75-11.54,9.52-31.62,16.24-50.05,13.64-21.87-3.09-32.02-16.96-29.5-34.77Z"/><path class="cls-2" d="m1575.03,590.94c9.37-29.47,40.4-59.34,46.42-78.28-10.7-9.03-25.86-8.23-42.18,2.48-1.18,1.61-2.05,3.32-3.22,4.93-12.31,18.93-22.1,40.32-27.55,57.46-2.3,7.22-3.4,13.82-3.03,18.9-8.62,4.21-20.69,4.68-31.82,1.14-22.85-7.27-27.95-22.47-22.6-39.31,6.03-18.94,24.99-40.06,47.15-54.54,6.69-21.05,7.95-53.1,2.32-63.5,13.42-3.68,29.99-3.71,41.41-.07,18.64,5.93,25.3,18.31,19.76,35.75l-2.2,6.92c25.42-16.42,42.79-23.15,67.15-15.4,18.94,6.03,26.82,19.79,19.74,42.04-5.36,16.84-25.19,33.38-42.36,46.79-4.5,14.13-9.59,42.65-.42,56.49-15.4,11.99-32.31,16.21-49.45,10.76-15.34-4.88-24.66-15.13-19.11-32.57Z"/><path class="cls-2" d="m1653.46,605.02c7.19-12.97,19.26-21.07,39.48-25.01-6.13,27.99,7.1,55.53,24.49,65.17,19.57-18.38-30.15-61.45-9.34-98.98,11.02-19.87,33.84-25.25,52.73-11.17,14.58-7.43,27.21-8.73,47.35,2.44,24.01,13.31,29.85,32.06,20.06,49.72-6.73,12.14-24.31,20.43-43.56,18.06,11.01-19.87,1.25-39.35-21.84-51.07-19.17,15.71,28.95,59.71,8.45,96.69-12.24,22.08-30.23,23.29-48.07,17.73-10.41,5.77-27.77,1.92-48.19-9.4-23.46-13-32.89-33.74-21.56-54.17Z"/><path class="cls-2" d="m1709.1,723.18c16.29-19.69,93.28-73.13,123.5-82.93,14.08-17.02,27.23-46.27,25.9-58.03,13.82,1.61,29.2,7.78,39.41,16.23,14.1,11.67,15.64,25.64,3.98,39.74l-4.63,5.59c21.07-7.14,47.33-6.71,63.62,6.77,16.77,13.88,13.78,34.33-5.13,57.19-21.73,26.26-74.67,68.46-117.55,41.58-11.06,3.96-24.12.93-33.35-6.71-7.29-6.03-10.96-13.98-12.11-21.49-14.58,14.15-32.84,36.72-33.06,55.79-11.58,3.11-30.91-2.23-44.29-13.3-14.59-12.07-17.75-26.56-6.28-40.42Zm185.74-31.43c11.87-14.34,11.26-25.49-3.81-37.96-7.06,3.58-14.52,7.65-24.52,13.3-13.99,8.49-26.4,17.06-35.05,27.51-9.66,11.67,2.68,25.97,11.43,33.21,17.99-8.87,39.28-20.74,51.95-36.06Z"/><path class="cls-2" d="m1894.59,778.85c16.03-14.26,45.75-21.68,66.14-22.5,15.46-15.86,32.01-35.23,37.17-50.79,14.23,5.08,27.02,11.86,37.51,23.65,9.86,11.08,8.08,26.18-6.54,39.18-34.19,30.41-70.67,19.78-96.36,69.23-19.37,2.44-32.21-3.45-42.48-15-14.26-16.03-9.1-31.6,4.58-43.76Zm158.83-97.76c13.76-9.7,34.2-7.61,45.94,5.6,10.7,12.03,8.92,30.92-4.84,40.62-14.46,10.33-34.88,7.79-45.57-4.23-11.74-13.2-9.76-31.86,4.47-41.98Z"/><path class="cls-2" d="m1948.92,844.38c21.23-14.24,46.16-17.28,72.95-14.72,17.47-13.61,35.09-32.65,40.56-49.99,13.41,6.96,25.16,15.42,33.95,28.53,10.19,15.2,5.15,28.08-11.1,38.97l-3.15,2.11c22.41.55,46.49,7.58,55.1,20.42,7.73,11.53,5.4,24.49-5.08,31.52-18.61,12.48-59.29,15.82-81.94-10.02,20.46-5.74,19.99-18.34,9.63-30.39-5.42,2.12-14.86,6.17-26.23,9.61-18.45,7.05-36.98,14.54-49.82,23.15-6.29,4.22-11.27,8.69-14.14,12.9-9.37-2.08-19.1-9.23-25.61-18.92-11.95-17.82-10.06-33.14,4.87-43.16Z"/><path class="cls-2" d="m2037.69,937.69c48.51-22.16,105.16-15.09,118.96,18.16,14.81.52,27.47,10,34.68,25.79,12.46,27.27,6.66,43.44-14.29,53.01-35.3,16.13-83.92-6.76-106.49-51.61-10.54,6.55-10.64,21.51-1.33,41.89,5.24,11.48,14.2,21.96,21.15,25.03l.39.86c-29.94,8.13-59.19-7.3-75.19-42.32-15.21-33.29-7.45-57.31,22.12-70.81Zm98.88,59.25c9.76-4.46,11.73-12.3,5.83-25.21l-.92-2.01c-15.25.03-35.41,2.99-50.65,6.83,16.39,19.92,31.96,26.68,45.74,20.39Z"/><path class="cls-2" d="m2097.97,1151.46c-14.96-5.46-35.09-17.45-41.27-42.9-4.62-19.01,5.2-34.71,30.66-40.89,51.51-12.51,116.48.93,123.72,40.09,15.43,4.69,25.6,17.16,28.66,29.73,1.12,4.6,1.24,9.12.29,13.24,23.87.69,30.77-.33,41.81-3.01,12.57-3.05,20.71-6.98,27.56-13.52,10.81,8.41,19.44,22.55,22.57,35.43,4.77,19.62-2.52,33.74-21.84,38.43-29.44,7.15-134.65-7.55-150.77-12.41-17.72,5.93-42.21,17.4-48.86,27.46-16.11-6.15-29.67-15.2-34.07-33.29-4.4-18.09,3.89-32.12,21.53-38.35Zm16.39-2.03c20.95,3.35,60.26,7.44,74.98,3.87,12.57-3.05,10.17-22.28,7.88-34.39-19.72-3.65-43.89-6.87-60.75-2.78-20.24,4.92-26.5,13.91-22.11,33.3Z"/><path class="cls-2" d="m2138.4,1258.92c17.99.08,37.2,8.05,49.14,19.46,17.67.07,80.39,18.01,112.58,18.15,7.89.03,18.94-.87,29.06-7.45,8.79,11.4,13.77,26.25,13.71,40.45-.09,21.46-12.13,31.82-26.64,31.76-17.04-.07-63.36-14.78-87.93-25.93,18.26,10.81,32.06,28.85,31.98,49.36-.1,23.67-18.13,34.32-48.74,34.19-36.29-.15-99.02-16.19-104.81-64.81-10.71-5.09-16.95-22.16-16.87-40.15.11-26.19,13.8-55.16,48.51-55.02Zm11.13,55.58c-13.88-.06-23.07,7.48-23.16,29.88,18.27,8.28,40.95,17.21,60.83,17.3,18.62.08,26.85-7.46,26.94-27.02-24.26-8.62-47.88-20.08-64.6-20.15Z"/><path class="cls-2" d="m2063.03,1386.81c8.36,1.65,16.29,5.47,22.98,10.66-10.32,5.03-16.99,15.94-19.5,28.63-5.21,26.31,6.31,60.76,36.41,71.22-11.37-20.58-17.73-43.72-14.42-60.43,3.18-16.1,15.72-29.06,39.55-24.34,20.74,4.1,40.89,22.57,52.87,38.44,21.67,4.29,53.66,1.93,63.36-4.83,5.16,12.92,7.05,29.38,4.72,41.14-3.8,19.19-15.35,27.2-33.31,23.65-33.43-6.61-55.64-30.95-79.78-35.73-2.65,3.66-4.07,7.56-4.8,11.27-1.65,8.36.9,16.58,5.93,23.69,15.56,14.02,34.45,20.97,53.02,24.64,13.93,2.76,24.76,3.29,36.57.48,4.53,7.97,8.09,22.51,5.58,35.2-3.86,19.5-17.52,28.38-37.64,24.4-22.29-4.41-51.41-24.65-67.25-50.3-72.04-4.93-125.93-59.33-115.71-112.64,7.41-39.06,30.34-49.32,51.39-45.16Z"/><path class="cls-2" d="m2138.65,1716.27c-15.26-15.56-44.9-40.8-57.06-46.08-12.74-5.52-22.06,4.88-26.84,15.88-3.52,8.11-4.5,15.93-2.83,20.79l-.38.87c-32.36-18.17-30.92-54-20.62-77.74,11.05-25.48,31.9-37.07,54.48-27.27,14.76,6.4,31.02,22.05,43.47,45.68,13.89,8.43,24.59,15.48,32.64,20.69,4.69-10.01,7.62-18.36,7.97-22.34,3.93,2.05,20.1,8.38,23.72,15.1,4.24,7.68.8,17.2-4.55,25.55,17.61,9.36,31.69,10.99,37,9.86,2.84,13.27,1.65,30.3-3.88,43.03-7.79,17.95-21.24,25.18-36.29,18.65-6.37-2.76-14.01-8.14-22.06-15.76-5.85,11.91-9.67,22.29-11.95,32.31-18.87-6.46-29.86-21.55-20.44-43.26,1.38-3.18,4.18-8.85,7.61-15.96Z"/><path class="cls-2" d="m2033.88,1701.95c21.22,14.25,35.05,38.37,40.92,62.46,14.14,9.5,59.04,60.95,84.97,78.37,14.14,9.5,20.8,9.79,27.36,9.64.39,13.57-2.64,28.26-10.38,39.78-10.91,16.24-26.86,21.87-42.83,11.14-8.64-5.81-33.31-34.16-51.78-58.73,4.48,20.49,3.2,35.98-8.24,53.01-11.08,16.5-26.5,20.21-45.88,7.19-14.67-9.85-25-33.52-33.07-53.77-12.31-8.27-38.26-21.14-54.12-16.21-7.2-18.14-6.53-35.56,3.5-50.49,8.97-13.36,21.42-19.44,36.62-9.24,25.67,17.24,45.66,55.38,62.17,66.47,11.05-7.4,14.78-20.86,10.29-37.95-21.62-24.41-51.27-54.97-69.11-58.97-1.2-8.41.51-20.57,6.84-29.99,11.44-17.03,26.25-23.8,42.75-12.72Z"/><path class="cls-2" d="m1954.08,1856.06c37.86,37.55,51.25,93.06,25.02,117.71,4.74,14.04.34,29.23-11.88,41.55-21.11,21.28-38.29,21.57-54.64,5.35-27.55-27.33-23.31-80.9,10.68-117.85-9.85-7.55-23.88-2.36-39.66,13.55-8.89,8.96-15.53,21.04-15.95,28.62l-.67.67c-18.17-25.14-14.07-57.95,13.04-85.29,25.78-25.99,50.98-27.2,74.06-4.32Zm-20.51,113.43c7.62,7.56,15.65,6.63,25.65-3.45l1.56-1.57c-5.41-14.26-15.3-32.07-24.28-44.97-12.85,22.36-13.68,39.33-2.92,49.99Z"/><path class="cls-2" d="m1829.1,1976.43c9.61,15.21,13.22,35.69,10.02,51.9,9.44,14.94,28.04,77.47,45.23,104.68,4.21,6.67,10.91,15.5,21.91,20.5-4.88,13.54-14.73,25.73-26.73,33.31-18.14,11.46-33.35,6.88-41.1-5.39-9.1-14.41-21.6-61.37-25.41-88.08.7,21.2-7.09,42.55-24.43,53.5-20.01,12.64-38.68,3.16-55.03-22.71-19.38-30.68-39.58-92.19-1.7-123.22-1.46-11.77,9.57-26.2,24.78-35.81,22.14-13.99,53.93-18.02,72.47,11.32Zm-40.89,39.27c-7.42-11.74-18.71-15.43-37.65-3.46,2.84,19.85,7.5,43.78,18.12,60.59,9.94,15.74,20.73,18.63,37.27,8.18-5.77-25.09-8.81-51.17-17.74-65.31Z"/><path class="cls-2" d="m1687.62,2041.32c9.65,23.67,7.59,48.7-.32,74.42,9.8,19.86,24.88,40.97,40.76,49.83-9.53,11.72-20.19,21.52-34.8,27.48-16.95,6.91-28.54-.63-35.93-18.75l-1.43-3.51c-5.07,21.83-16.82,44-31.13,49.84-12.86,5.24-25.08.34-29.84-11.35-8.46-20.74-3.51-61.27,26.37-78.23,1.49,21.2,13.93,23.29,27.82,15.58-.98-5.74-3.04-15.8-4.11-27.63-3.18-19.49-6.76-39.16-12.6-53.47-2.86-7.01-6.24-12.79-9.78-16.46,3.93-8.76,12.9-16.84,23.71-21.25,19.87-8.1,34.49-3.16,41.28,13.5Z"/><path class="cls-2" d="m1572.61,2092.79c4.34,21.34-3.24,52.18-14.82,71.27,2.89,14.22,15.56,48.04,28.89,56.6-8.33,8.13-22.54,17.46-37.69,20.54-18.24,3.71-29.34-3.37-33.37-23.17-3.2-15.77-1.09-33.91,1.15-49.82,1.82-13.25,3.51-25.51,1.31-36.33-13.07-2.5-25.37,1.93-34.42,17.62.13,2.23.2,4.14.02,6.44-.96,28.53-5.5,63.26,8.98,83.83-8.57,10.11-22.23,17.4-34.29,19.85-17.94,3.64-30.03-3.56-32.98-18.09-4.02-19.79,4.37-48.22,12.79-68.61-3.49-28.27-17.35-47.35-26.15-52.65,4.1-16.29,14.76-28.76,33.32-32.53,19.48-3.96,31.02,5.29,34.16,20.75.69,3.4,1.51,7.42,1.95,11.2,15.75-30.25,28.2-45.01,51.71-49.79,23.19-4.71,35.53,3.73,39.43,22.9Z"/><path class="cls-2" d="m1405.94,2132.05c.04,14.83-6.54,27.79-22.28,41.09-8.29-27.43-33.26-45.02-53.14-44.97-8.13,25.58,56.28,38.96,56.41,81.87.07,22.72-17.24,38.55-40.6,35.46-9.11,13.6-19.5,20.88-42.54,20.95-27.45.08-41.69-13.44-41.75-33.64-.04-13.88,11.27-29.69,29.24-37,.07,22.72,18.09,34.97,43.96,33.95,9.08-23.06-54.39-38.02-54.51-80.3-.07-25.24,15.04-35.07,33.33-38.91,6.28-10.12,23.3-15.21,46.66-15.28,26.82-.08,45.16,13.44,45.23,36.79Z"/><path class="cls-2" d="m1275.78,2126.63c-4.56,25.15-21.12,47.48-40.85,62.5-3.04,16.77-32.2,78.5-37.78,109.24-3.04,16.77-.64,22.97,2.13,28.93-12.28,5.79-26.95,8.9-40.61,6.42-19.25-3.49-30.8-15.85-27.36-34.79,1.86-10.25,17.96-44.21,33.08-70.97-16.99,12.31-31.69,17.34-51.87,13.68-19.56-3.55-29.13-16.19-24.96-39.17,3.16-17.39,20.7-36.33,36.02-51.83,2.65-14.59,4.05-43.52-6.82-56.08,13.74-13.86,29.97-20.22,47.66-17.01,15.83,2.87,26.39,11.84,23.13,29.85-5.52,30.43-32.46,64.02-36.01,83.58,11.21,7.16,25.04,5.18,38.89-5.77,13.71-29.58,29.84-68.99,26.36-86.94,7.22-4.46,19.05-7.77,30.23-5.74,20.18,3.66,32.32,14.52,28.77,34.08Z"/><path class="cls-2" d="m1007.3,2059.94c11.63-11.4,36.66-20.3,56.55-11.45,19.89,8.85,29.08,27.79,17.66,53.45-18.21,40.94-55.89,44.9-108.33,12.93-4.52,6.28-8.24,11.53-10.42,16.43-5,11.24,2.62,20.51,15.56,28.68,7.08-8.94,17.69-18.03,25.9-24.05,9.57,11.86,20.78,28.59,15.65,40.12-10.13,22.78-70.52,8.69-94.16-1.83-29.69-13.21-43.31-26.86-32.15-51.95,3.98-8.94,19.97-27.03,47.11-42.24,6.67-14.99,13.31-43.12,6.52-55.81,11.22-8.13,31.6-13.57,49.47-5.62,15.57,6.93,17.23,21.83,10.62,41.34Zm3.33,11.15c-2.31-1.03-5.03-1.89-7.88-2.47-5.07,9.83-11.7,19.31-18.37,28.09,10.09,4.49,29.89,11.22,40.72,13.28,5.93-12.56,1.97-31.59-14.47-38.9Z"/><path class="cls-2" d="m868.42,1969.9c-18.06,25.1-56.82,43.87-68.43,60.01,7.37,11.91,22.03,15.85,40.87,10.74,1.62-1.17,2.98-2.52,4.6-3.69,17.58-14.18,33.52-31.47,44.02-46.08,4.42-6.15,7.52-12.08,8.75-17.03,9.5-1.33,21.12,1.98,30.6,8.79,19.47,14,19.6,30.03,9.28,44.38-11.61,16.14-36.2,30.33-61.75,37.21-12.9,17.93-24.04,48.01-21.91,59.65-13.9-.67-29.66-5.78-39.39-12.78-15.88-11.43-18.37-25.26-7.68-40.12l4.24-5.89c-29.26,7.72-47.86,8.72-68.61-6.2-16.14-11.61-19.35-27.13-5.72-46.09,10.32-14.35,34.3-23.91,54.8-31.33,8.66-12.04,22.35-37.56,17.93-53.57,18.36-6.62,35.75-5.39,50.35,5.12,13.06,9.4,18.75,22.04,8.06,36.89Z"/><path class="cls-2" d="m744.49,1864.24c15.76-2.33,39.17-1.37,56.73,18.06,13.12,14.52,11.96,33-7.47,50.56-39.33,35.54-102.86,54.67-127.87,23.69-15.8,3.22-30.68-2.89-39.36-12.49-3.17-3.51-5.43-7.42-6.57-11.5-21.32,10.76-26.9,14.95-35.32,22.56-9.6,8.67-14.89,16-17.8,25.01-13.51-2.25-27.84-10.57-36.72-20.4-13.54-14.98-13.85-30.86.9-44.19,22.48-20.31,121.99-57.5,138.47-60.91,12.76-13.65,28.83-35.4,29.88-47.41,17.09-2.26,33.33-.77,45.81,13.04,12.48,13.81,11.88,30.09-.66,43.98Zm-13.44,9.6c-20.02,7.03-56.53,22.16-67.77,32.32-9.6,8.67,1.67,24.44,9.45,33.99,19.08-6.18,41.86-14.86,54.74-26.5,15.45-13.96,16.67-24.85,3.58-39.81Z"/><path class="cls-2" d="m672.57,1789.5c-12.92,7.29-27.44,7.87-46.74.64,19.88-20.64,23.02-51.03,13.25-68.34-26.29,5.41-6.48,68.15-43.86,89.23-19.79,11.16-42.06,3.8-50.78-18.09-16.31-1.3-27.75-6.81-39.07-26.87-13.49-23.91-8.65-42.95,8.94-52.87,12.09-6.82,31.42-4.68,46.58,7.42-19.79,11.16-21.67,32.88-8.13,54.95,24.56-3.35,6.59-66.03,43.41-86.81,21.99-12.4,37.95-4.02,50.24,10.06,11.9.53,24.67,12.9,36.14,33.23,13.18,23.36,10.35,45.97-9.98,57.44Z"/><path class="cls-2" d="m485.15,1622.43c21.79.63,60.65-1.74,73.06-6.37,13.01-4.85,12.52-18.81,8.33-30.05-3.09-8.28-7.8-14.6-12.38-16.94l-.33-.89c35.91-9.35,59.73,17.46,68.77,41.71,9.7,26.02,2.72,48.83-20.34,57.43-15.08,5.62-37.64,5.62-63-2.77-15.85,3.55-28.45,5.9-37.87,7.73,3.56,10.46,7.24,18.52,9.75,21.62-4.25,1.25-20.29,7.9-27.56,5.56-8.38-2.6-12.5-11.84-14.44-21.56-19.18,5.47-30.46,14.06-33.49,18.56-11.25-7.59-22.2-20.68-27.05-33.69-6.84-18.33-2.16-32.87,13.22-38.61,6.5-2.43,15.74-3.85,26.82-3.94-4.04-12.64-8.49-22.76-13.79-31.56,18.07-8.43,36.46-5.18,44.73,16.99,1.21,3.25,3.12,9.28,5.58,16.78Z"/><path class="cls-2" d="m563.14,1460.28c10.22,3.28,21.95,18.47,25.9,40.2,5.47,30.12-7.36,54.89-42.13,61.2-36.64,6.65-104.57-5.4-110.79-48.52-10.22-3.28-21.56-16.29-25.5-38.02-5.47-30.12,7.36-54.89,43.06-61.37,37.26-6.76,103.63,5.57,109.46,46.52Zm-110.45,39.93c11.01,4.1,55.82,10.71,75.07,7.22,15.21-2.76,23.26-13.2,17.76-34.65-11.01-4.1-54.38-8.09-72.08-4.88-16.77,3.04-23.66,14.56-20.76,32.31Z"/><path class="cls-2" d="m546.8,1316.58c-30.92-.57-68.4-21.77-88.28-22.13-5.6,12.84-.5,27.13,14.42,39.71,1.88.67,3.77,1.02,5.65,1.68,21.66,6.39,44.95,9.66,62.94,9.99,7.57.14,14.21-.69,18.98-2.49,6.5,7.06,10.39,18.49,10.18,30.17-.44,23.98-13.55,33.21-31.22,32.88-19.88-.36-45.53-12.51-65.74-29.61-22.08-.4-53.16,7.55-61.52,15.92-7.36-11.81-12.12-27.68-11.9-39.67.36-19.56,10.32-29.48,28.62-29.14l7.26.13c-22.99-19.67-34.4-34.4-33.93-59.96.36-19.88,11.31-31.35,34.65-30.93,17.67.32,39.18,14.6,56.94,27.24,14.83.27,43.61-2.99,54.26-15.73,15.89,11.34,24.77,26.33,24.44,44.32-.29,16.09-7.45,27.95-25.75,27.62Z"/><path class="cls-2" d="m525.78,1234.07c-52.15-11.17-93.38-50.66-84.61-85.57-11.57-9.26-16.07-24.42-12.43-41.39,6.28-29.31,20.58-38.83,43.11-34.01,37.95,8.13,63.3,55.51,54.64,104.97,12.36,1.04,21.38-10.91,26.07-32.82,2.64-12.34,1.72-26.09-2.03-32.71l.2-.93c28.87,11.35,43.13,41.19,35.07,78.83-7.67,35.79-28.23,50.43-60.01,43.62Zm-43.98-106.56c-10.49-2.25-16.75,2.87-19.72,16.75l-.46,2.16c12.25,9.08,30.19,18.73,44.72,24.75-1.26-25.76-9.72-40.48-24.53-43.66Z"/><path class="cls-2" d="m559.68,1062.58c-44.35-19.87-73.67-68.63-58.17-99.37-9.35-10.76-10.36-27.81-2.49-45.37,9.29-20.73,24.11-27.58,42.25-19.45,24.48,10.97,34.45,39.64,22.71,65.84-16.12-20.36-32.23-20.67-41.01-1.09l-.13.29c12.35,14.87,40.95,39.79,52.47,44.95,13.53,6.06,24.83-.63,32.83-18.48,5.68-12.67,7.64-26.31,5.36-33.56l.39-.86c27.16,14.24,34.49,47.27,19.52,80.67-14.58,32.54-39.76,41.66-73.74,26.43Z"/><path class="cls-2" d="m677.93,887.04c9.09,13.52,13.28,39.74.95,57.69-12.33,17.95-32.62,23.53-55.77,7.63-36.93-25.37-33.96-63.14,7.02-108.87-5.35-5.59-9.84-10.2-14.26-13.24-10.14-6.97-20.64-1.16-31.04,10.07,7.5,8.59,14.51,20.68,18.93,29.85-13.4,7.25-31.89,15.22-42.3,8.08-20.55-14.11,4.31-70.92,18.96-92.25,18.4-26.79,34.31-37.69,56.93-22.14,8.06,5.54,22.94,24.56,32.95,54.02,13.52,9.29,39.97,20.95,53.69,16.59,5.95,12.51,7.59,33.54-3.49,49.67-9.65,14.05-24.6,12.96-42.58,2.91Zm-11.57,1.24c1.43-2.08,2.78-4.6,3.86-7.3-8.75-6.77-16.86-15.02-24.27-23.18-6.25,9.1-16.48,27.34-20.48,37.61,11.27,8.12,30.7,7.69,40.89-7.14Z"/><path class="cls-2" d="m727.57,826.13c-18.09-18.06-25.91-41.93-28.61-68.7-16.74-14.49-38.84-28.09-56.92-30.08,4.23-14.51,10.25-27.68,21.39-38.84,12.93-12.95,26.54-10.51,40.39,3.32l2.68,2.68c-3.81-22.09-1.59-47.08,9.33-58.02,9.81-9.82,22.97-10.06,31.91-1.14,15.85,15.83,27.04,55.09,6.08,82.33-9.61-18.96-21.88-16.05-31.69-3.55,3.13,4.91,8.93,13.38,14.52,23.86,10.5,16.73,21.44,33.45,32.38,44.38,5.36,5.35,10.72,9.36,15.4,11.37-.22,9.59-5.34,20.53-13.59,28.79-15.16,15.18-30.56,16.31-43.28,3.6Z"/><path class="cls-2" d="m813.28,726.3c-12.19-17.27-18.22-36.19-18.49-59.56-16.26-18.65-29.33-36.07-47.09-42.07,3.44-12.09,14.04-24.98,23.06-31.35,20.62-14.56,33.59-10.97,44.69,4.76,13.29,18.82,15.06,49.24,31.81,72.95,6.37,9.02,14.72,10.46,24.26,10.29,5.93-30.45-6.54-64.52-22.92-87.72-7.28-10.31-16.79-15.57-25.84-16.91,2.71-13.12,10.57-27.16,21.91-35.17,16.5-11.65,28.67-11.36,38.87,3.07,25.66,36.35,31.57,155.78-15.34,188.9-20.62,14.56-39.99,13.94-54.91-7.2Zm54.06-31.21l-.74,1.68.74-1.68Z"/><path class="cls-2" d="m883.4,469.41c-5.85-15.78,1.41-35,17.19-42.97,14.36-7.25,32.17-.69,38.02,15.09,6.28,16.63-1.41,35.71-15.77,42.96-15.77,7.97-33.3,1.26-39.43-15.08Zm53.77,178.58c-9.67-19.15-9.23-49.78-4.79-69.69-11.37-19.01-25.84-39.98-39.57-48.95,8.56-12.45,18.39-23.08,32.48-30.19,13.24-6.69,27.37-1.1,36.19,16.37,20.62,40.84,1,73.38,42.21,110.89-2.6,19.34-11.59,30.25-25.39,37.22-19.15,9.67-32.88.7-41.13-15.64Z"/><path class="cls-2" d="m1098.16,587.21c-9.41-29.46-1.4-71.77-7.45-90.7-13.96-1.17-25.85,8.26-32.96,26.43-.02,1.99.25,3.89.23,5.89.92,22.56,5.32,45.67,10.79,62.8,2.31,7.21,5.22,13.24,8.47,17.17-4.6,8.42-14.17,15.79-25.29,19.34-22.84,7.3-35.8-2.14-41.18-18.97-6.05-18.94-2.81-47.14,6.88-71.76-6.72-21.04-24.25-47.9-34.86-53.12,8.81-10.77,22.31-20.38,33.73-24.03,18.64-5.95,31.23.29,36.8,17.72l2.21,6.91c11.23-28.1,21.5-43.64,45.85-51.42,18.94-6.05,33.32.61,40.43,22.86,5.38,16.83-1.22,41.8-7.47,62.68,4.51,14.13,16.86,40.33,32.35,46.31-5.62,18.69-16.96,31.92-34.1,37.4-15.33,4.9-28.86,1.94-34.44-15.5Z"/><path class="cls-2" d="m1161.03,620.19c-1.99-18.19,10.69-38.63,25.55-50.73-2.19-2.62-3.48-5.65-3.82-8.79-1.27-11.61,6.06-20.03,16.6-28.16-17.91-4.07-27.92-14.4-29.78-31.34-3.81-34.82,12.83-74.1,51.27-73.86,3.78-8.98,15.36-16.28,27.59-17.62,8.78-.96,17.67-.98,24.53.81,8.01-19.61,14.61-31.76,29.36-33.37,12.86-1.41,28.14,10.57,22.42,36.59-12.52,4.55-17.18,2.52-36.26,10.95,9.72,1.79,16.75,5.15,19.05,26.16,2.58,23.52-10.99,76.43-68.71,82.76-5.96.65-11.64.96-16.69,1.19,7.22,16.67,80.03,9.01,85.8,61.71,2.37,21.64-17.11,46.63-46.1,45.68-11.31,9.81-21.73,13.17-37.1,14.86-34.19,3.75-60.41-6.71-63.71-36.83Zm94.35,6.49c3.56-5.15,5.9-9.85,5.46-13.93-1.72-15.68-31.26-21.65-53.47-30.33-3.98,4.24-6.92,9.33-6.4,14.03,1.65,15.06,35.64,26.89,54.42,30.23Zm-2.94-171.72c-1.51-13.8-8.2-16.88-22.03-15.68-4.41,14.77-8.11,36.12-6.59,49.92,1.48,13.49,6.17,18.69,21.61,17.63,6.19-15.91,8.49-38.39,7.02-51.87Z"/></g></svg>