<?xml version="1.0" encoding="utf-8"?>
<!-- Generator: Adobe Illustrator 23.1.1, SVG Export Plug-In . SVG Version: 6.00 Build 0)  -->
<svg version="1.1" id="Small_Sticker" xmlns="http://www.w3.org/2000/svg" xmlns:xlink="http://www.w3.org/1999/xlink" x="0px"
	 y="0px" viewBox="0 0 1080 1080" style="enable-background:new 0 0 1080 1080;" xml:space="preserve">
<style type="text/css">
	.st0{clip-path:url(#SVGID_2_);}
	.st1{clip-path:url(#SVGID_4_);}
	.st2{fill:url(#SVGID_5_);}
	.st3{fill:#FFFFFF;}
	.st4{clip-path:url(#SVGID_7_);}
	.st5{fill:none;stroke:#FFFFFF;stroke-width:2;}
</style>
<g>
	<g>
		<defs>
			<rect id="SVGID_1_" x="61.7" y="87.8" width="925.4" height="933.6"/>
		</defs>
		<clipPath id="SVGID_2_">
			<use xlink:href="#SVGID_1_"  style="overflow:visible;"/>
		</clipPath>
		<g class="st0">
			<g>
				<defs>
					<path id="SVGID_3_" d="M101.8,543.2c0,242.5,196.6,439.1,439.1,439.1s439.1-196.6,439.1-439.1S783.3,104.1,540.9,104.1
						S101.8,300.7,101.8,543.2"/>
				</defs>
				<clipPath id="SVGID_4_">
					<use xlink:href="#SVGID_3_"  style="overflow:visible;"/>
				</clipPath>
				<g class="st1">
					
						<linearGradient id="SVGID_5_" gradientUnits="userSpaceOnUse" x1="176.2357" y1="-59.8359" x2="177.0957" y2="-59.8359" gradientTransform="matrix(-521.0867 572.6668 -572.6668 -521.0867 58465.0391 -131952.2969)">
						<stop  offset="0" style="stop-color:#FFFFFF"/>
						<stop  offset="1" style="stop-color:#231F20"/>
					</linearGradient>
					<polygon class="st2" points="-335.3,584.5 499.5,-333 1417,501.8 582.2,1419.3 					"/>
				</g>
			</g>
		</g>
	</g>
</g>
<g id="text">
	<path class="st3" d="M443.5,177.2c0.9,1.2,1.7,2.2,2.3,2.9c0.6,0.7,1.4,1.3,2.2,1.8c0.8,0.5,1.8,0.8,2.9,0.9l-10.3,2.9
		c1.1-0.7,1.7-1.4,1.9-2.2s0-1.6-0.4-2.4c-0.4-0.8-1.2-1.9-2.2-3.2l-8.3-11l0.4-0.1l-1.4,13.8c-0.2,2.3-0.1,4,0.5,5.1
		c0.6,1.1,1.7,1.7,3.4,1.8l-8.5,2.4c1.1-1,1.8-2.1,2.3-3.4c0.5-1.3,0.9-3.2,1.1-5.6l1.9-19.4l0.4-0.1l11.5,15.3L443.5,177.2
		L443.5,177.2z M429.5,179.1l12.3-3.5l0.3,1.2l-12.3,3.5L429.5,179.1z"/>
	<path class="st3" d="M454.1,179.9c0.3-0.9,0.2-2.2-0.1-3.8l-2.9-13.2c-0.3-1.6-0.8-2.7-1.5-3.5c-0.6-0.8-1.6-1.2-2.8-1.4l9.3-2
		c-0.9,0.5-1.6,1.1-1.9,1.6s-0.5,1.1-0.5,1.8c0,0.6,0.2,1.6,0.5,2.9l4.1,18.8l-6.2,1.4C453.2,181.6,453.8,180.8,454.1,179.9
		L454.1,179.9z M466.1,177.5c0.7-0.5,1.3-1.3,1.8-2.4c0.5-1.1,0.8-2.7,1.1-4.8l1,8.1l-13.1,2.9l-0.3-1.2l6.4-1.4
		C464.3,178.4,465.4,178,466.1,177.5L466.1,177.5z"/>
	<path class="st3" d="M491.2,151c-0.4,0.6-0.6,1.2-0.7,1.9s0,1.7,0.1,2.8l1.4,8.9c0.4,2.5,0.3,4.6-0.4,6.2c-0.6,1.7-1.5,2.9-2.8,3.8
		c-1.3,0.9-2.7,1.5-4.3,1.7c-3.2,0.5-5.8,0.1-7.9-1.3c-2-1.3-3.4-3.9-3.9-7.6l-1.4-9c-0.2-1.1-0.4-2-0.7-2.6
		c-0.3-0.7-0.7-1.2-1.3-1.6s-1.2-0.7-2-0.9l9.4-1.4c-0.7,0.4-1.3,0.9-1.7,1.4s-0.6,1.2-0.7,1.9s0,1.7,0.1,2.7l1.3,8.3
		c0.5,3.3,1.5,5.6,3,7c1.5,1.4,3.4,1.9,5.9,1.6c2.3-0.4,4-1.4,5-3.1s1.4-4,1-6.6l-1.4-9.3c-0.2-1.1-0.4-2-0.7-2.7s-0.8-1.2-1.3-1.6
		s-1.2-0.7-2-0.9l7.6-1.2C492.1,150,491.5,150.5,491.2,151L491.2,151z"/>
	<path class="st3" d="M501,171.8c0.4-0.9,0.5-2.1,0.4-3.8l-1-13.5c-0.1-1.6-0.5-2.8-1-3.7s-1.4-1.4-2.6-1.8l6.4-0.5l1.9,24.9
		l-6.4,0.5C499.9,173.4,500.6,172.7,501,171.8z M513.5,149.3c2.3,0.8,4.1,2,5.4,3.7c1.3,1.7,2,3.9,2.2,6.4c0.2,2.4-0.2,4.6-1.2,6.6
		s-2.6,3.7-4.7,5c-2.1,1.3-4.7,2.1-7.7,2.3l-3.2,0.2l-0.1-1.2l2.3-0.2c2.8-0.2,5-0.9,6.7-1.9c1.7-1.1,2.9-2.5,3.6-4.2
		c0.7-1.8,0.9-3.8,0.8-6.1c-0.2-2.2-0.8-4.1-1.9-5.7c-1.1-1.6-2.6-2.8-4.5-3.6c-1.9-0.8-4.2-1.1-6.8-0.9l-2.5,0.2l-0.1-1.2l3.4-0.3
		C508.4,148.2,511.2,148.5,513.5,149.3L513.5,149.3z"/>
	<path class="st3" d="M525.9,170.1c0.5-0.9,0.7-2.1,0.7-3.7l-0.2-13.5c0-1.6-0.3-2.9-0.8-3.7s-1.3-1.5-2.5-1.9l6.4-0.1l0.3,19.2
		c0,1.6,0.3,2.9,0.8,3.7c0.5,0.9,1.3,1.5,2.5,1.9l-9.5,0.1C524.6,171.7,525.4,171,525.9,170.1L525.9,170.1z M538.6,148.7
		c1.5,1.1,2.3,2.8,2.3,5c0,1.3-0.4,2.6-1.1,3.8c-0.8,1.2-2,2-3.6,2.5s-3.6,0.3-5.8-0.5c1.8,0.2,3.2,0,4.3-0.6c1-0.6,1.8-1.4,2.1-2.4
		s0.6-1.8,0.5-2.6c0-1.7-0.6-3.1-1.7-4c-1.1-1-2.9-1.4-5.4-1.4h-0.9l0-1.2l3.1,0C535,147,537.1,147.6,538.6,148.7L538.6,148.7z
		 M533.1,159.7l10.7,12.1l-4.7,0.1l-8.7-12.5L533.1,159.7L533.1,159.7z"/>
	<path class="st3" d="M566.5,165.4c0.5,1.4,0.9,2.6,1.3,3.5s0.9,1.7,1.5,2.4c0.6,0.7,1.4,1.3,2.4,1.8l-10.7-0.5
		c1.2-0.3,2.1-0.8,2.5-1.5c0.4-0.7,0.5-1.5,0.4-2.4c-0.2-0.9-0.5-2.2-1-3.8l-4.4-13.1l0.4,0l-5.7,12.7c-1,2.1-1.3,3.7-1.2,5
		c0.2,1.3,1,2.2,2.6,2.8l-8.9-0.4c1.3-0.6,2.4-1.4,3.3-2.5c0.9-1.1,1.8-2.7,2.8-4.9l8-17.8l0.4,0l6,18.1L566.5,165.4L566.5,165.4z
		 M552.7,162.8l12.8,0.6l-0.1,1.2l-12.8-0.6L552.7,162.8z"/>
	<path class="st3" d="M603.9,165.1l-0.3,2.6l-22.2-3l0.3-2.6L603.9,165.1z"/>
	<path class="st3" d="M632.2,177c0.1,0.8,0.2,1.5,0.2,2.1c0.1,0.6,0.1,1.2,0.2,1.9s0.1,1.2,0.2,1.7c0.1,0.5,0.1,0.8,0.2,1l-3.4-0.8
		l-0.2-0.1c-0.1-1.1-0.2-2.1-0.3-2.9c-0.1-0.8-0.2-1.6-0.2-2.5c-0.1-0.8-0.2-1.8-0.3-2.9l-1-14.4l0.4,0.1l-8.7,13.5
		c-0.7,1.1-1.3,2-1.8,2.9s-1,1.5-1.4,2.1c-0.3,0.5-0.6,0.9-0.6,1l-3.6-0.9c0.1-0.1,0.2-0.3,0.6-0.7c0.3-0.4,0.7-0.9,1.1-1.5
		c0.4-0.6,0.9-1.2,1.3-1.9c0.5-0.7,0.9-1.3,1.3-1.9s0.9-1.2,1.4-2l6.2-9c0.5-0.7,0.9-1.3,1.3-1.8c0.3-0.5,0.7-1,1.1-1.6
		c0.4-0.5,0.8-1.1,1.3-1.9l2.9,0.7L632.2,177L632.2,177z M619.4,169.6l12.1,2.8l-0.7,2.8l-12.1-2.8L619.4,169.6z"/>
	<path class="st3" d="M639.3,185.4c0.2-0.5,0.4-0.9,0.5-1.3c0.1-0.4,0.3-0.8,0.4-1.2s0.3-0.9,0.5-1.5c0.2-0.6,0.4-1.2,0.6-2.1
		l3.5-11.6c0.2-0.8,0.4-1.4,0.6-2s0.3-1.1,0.4-1.5c0.1-0.5,0.2-0.9,0.3-1.3c0.1-0.4,0.2-0.9,0.3-1.4l3.4,1c-0.2,0.5-0.4,0.9-0.5,1.3
		c-0.2,0.4-0.3,0.8-0.4,1.3s-0.3,1-0.5,1.5c-0.2,0.6-0.4,1.2-0.6,2l-3.5,11.6c-0.2,0.8-0.4,1.5-0.6,2s-0.3,0.9-0.4,1.3
		s-0.2,0.8-0.3,1.2c-0.1,0.4-0.3,0.9-0.5,1.6l0,0.1L639.3,185.4L639.3,185.4z M650.1,185.6c0.4,0.1,0.8,0.2,1.2,0.4s0.8,0.2,1.3,0.3
		c0.4,0.1,0.8,0.2,1.2,0.3l-1.2,2.8l-12-3.6l0.8-2.7L650.1,185.6L650.1,185.6z"/>
	<path class="st3" d="M686.8,175.1c-0.2,0.4-0.4,0.9-0.6,1.3c-0.2,0.4-0.3,0.8-0.5,1.2c-0.2,0.4-0.4,0.9-0.6,1.5s-0.4,1.2-0.7,2
		l-2.3,6.4c-0.7,2-1.6,3.7-2.6,4.9c-1,1.3-2.1,2.2-3.2,2.8s-2.4,0.9-3.7,0.9c-1.3,0-2.6-0.2-3.9-0.7c-1.3-0.5-2.4-1.1-3.4-1.9
		s-1.8-1.8-2.3-3s-0.8-2.6-0.7-4.2s0.5-3.5,1.2-5.6l2.3-6.4c0.3-0.8,0.5-1.4,0.7-2s0.4-1,0.5-1.5c0.2-0.4,0.3-0.9,0.4-1.3
		c0.1-0.4,0.2-0.9,0.4-1.3l3.3,1.2c-0.2,0.4-0.4,0.9-0.6,1.3c-0.2,0.4-0.3,0.8-0.5,1.2s-0.4,0.9-0.6,1.5c-0.2,0.6-0.4,1.2-0.7,2
		l-2.4,6.5c-1,2.7-1.2,5-0.8,6.8s1.8,3.1,4.1,3.9c1.5,0.5,2.8,0.6,3.9,0.3c1.2-0.3,2.2-1,3.1-2.1c0.9-1.1,1.7-2.6,2.4-4.4l2.3-6.4
		c0.3-0.8,0.5-1.4,0.7-2c0.2-0.6,0.4-1,0.5-1.5s0.3-0.9,0.4-1.3c0.1-0.4,0.2-0.9,0.4-1.3L686.8,175.1L686.8,175.1z"/>
	<path class="st3" d="M685.3,201.5c0.3-0.5,0.5-0.9,0.7-1.3s0.4-0.8,0.6-1.2c0.2-0.4,0.4-0.9,0.7-1.4c0.2-0.5,0.5-1.2,0.9-2
		l4.9-10.9c0.3-0.7,0.6-1.4,0.8-1.9c0.2-0.5,0.4-1,0.6-1.5c0.2-0.4,0.3-0.9,0.5-1.3c0.1-0.4,0.3-0.8,0.5-1.3l3.2,1.5
		c-0.3,0.7-0.6,1.3-0.8,1.8c-0.2,0.5-0.5,1-0.7,1.6c-0.3,0.6-0.6,1.4-1.1,2.5l-5,11c-0.5,1-0.8,1.8-1.1,2.4
		c-0.3,0.6-0.5,1.1-0.7,1.6c-0.2,0.5-0.5,1.1-0.8,1.8L685.3,201.5L685.3,201.5z M700.8,181.1c3.1,1.4,5.4,3,7.1,4.9s2.6,3.9,2.9,6
		s-0.1,4.4-1.1,6.6c-1,2.2-2.4,4-4.3,5.2s-4,1.9-6.5,2c-2.5,0.1-5.3-0.6-8.3-2l-3-1.4l1.2-2.6l2.9,1.3c2.4,1.1,4.5,1.6,6.5,1.6
		c1.9,0,3.6-0.5,5-1.5c1.4-1,2.5-2.3,3.3-4.1c0.8-1.7,1.1-3.4,0.8-5.1s-1-3.2-2.3-4.6c-1.3-1.4-3.1-2.7-5.5-3.8l-3.4-1.5l1.2-2.6
		L700.8,181.1L700.8,181.1z"/>
	<path class="st3" d="M708.3,212.2c0.3-0.4,0.5-0.8,0.8-1.2c0.2-0.4,0.4-0.7,0.7-1.1c0.2-0.4,0.5-0.8,0.7-1.3c0.3-0.5,0.6-1.1,1-1.9
		l5.8-10.7c0.4-0.7,0.7-1.3,1-1.8c0.3-0.5,0.5-1,0.7-1.4c0.2-0.4,0.4-0.8,0.6-1.2c0.2-0.4,0.4-0.8,0.6-1.3l3,1.6
		c-0.3,0.5-0.5,0.9-0.7,1.3s-0.4,0.7-0.6,1.1c-0.2,0.4-0.4,0.8-0.7,1.3c-0.3,0.5-0.6,1.1-1,1.9l-5.8,10.7c-0.4,0.8-0.7,1.4-1,1.9
		s-0.5,0.9-0.7,1.4c-0.2,0.4-0.4,0.8-0.6,1.2s-0.4,0.8-0.6,1.3L708.3,212.2L708.3,212.2z M725.1,192.9c1.8,1,3.1,2,4,3.1
		c0.9,1.1,1.3,2.3,1.4,3.5s-0.3,2.5-1,3.7c-0.4,0.7-0.9,1.3-1.5,1.9c-0.7,0.6-1.5,1-2.4,1.3c-1,0.3-2.1,0.4-3.4,0.2
		c-1.3-0.2-2.7-0.7-4.3-1.6l1.7-1.7l0.7,0.4c1,0.4,1.9,0.6,2.7,0.5s1.5-0.4,2-0.8s1-1,1.4-1.7c0.7-1.3,0.8-2.4,0.4-3.5
		c-0.4-1.1-1.3-2-2.7-2.7l-2.4-1.3l1.3-2.5L725.1,192.9L725.1,192.9z M721.8,206.4l1.5,7.1c0.1,0.5,0.2,1,0.3,1.5s0.2,1.1,0.4,1.6
		s0.3,1.1,0.4,1.6s0.2,1.1,0.3,1.5c0.1,0.5,0.2,0.9,0.3,1.3l-3.7-2c-0.1-0.4-0.2-0.7-0.2-1.1c-0.1-0.4-0.2-0.8-0.3-1.2
		c-0.1-0.4-0.2-0.8-0.3-1.2c-0.1-0.4-0.2-0.8-0.3-1.2c-0.1-0.4-0.2-0.8-0.2-1.1l-1-5.1c-0.1-0.3-0.2-0.7-0.3-1
		c-0.1-0.4-0.2-0.8-0.4-1.1c-0.1-0.3-0.3-0.6-0.5-0.9L721.8,206.4L721.8,206.4z"/>
	<path class="st3" d="M748.6,228.4c-0.2,0.8-0.3,1.5-0.5,2.1c-0.1,0.6-0.3,1.2-0.4,1.8c-0.1,0.6-0.3,1.2-0.4,1.7s-0.2,0.8-0.2,1
		l-2.9-1.9L744,233c0.3-1.1,0.5-2,0.7-2.9c0.2-0.8,0.4-1.6,0.6-2.4c0.2-0.8,0.5-1.8,0.7-2.9l3.8-14l0.3,0.2l-12.7,9.9
		c-1,0.8-1.9,1.5-2.7,2.1s-1.5,1.1-2,1.5s-0.8,0.6-0.9,0.7l-3.2-2c0.1-0.1,0.3-0.2,0.8-0.5c0.4-0.3,0.9-0.6,1.5-1.1
		c0.6-0.4,1.2-0.9,1.9-1.3c0.7-0.5,1.3-0.9,1.8-1.3s1.2-0.9,2-1.4l8.8-6.4c0.7-0.5,1.3-1,1.8-1.3s1-0.7,1.5-1.1s1.1-0.8,1.8-1.3
		l2.5,1.6L748.6,228.4L748.6,228.4z M738.9,217.2l10.5,6.6l-1.5,2.4l-10.5-6.6L738.9,217.2z"/>
	<path class="st3" d="M782.2,246l-1.6,2.1l-17.8-13.5l1.6-2.1L782.2,246z"/>
	<path class="st3" d="M800.3,253.7c1.1,0.2,2,0.8,3,1.6c1.1,1,1.8,2.2,2.2,3.5c0.3,1.4,0.3,2.8-0.1,4.2s-1.2,2.8-2.3,4.1
		c-1.5,1.7-3.1,2.8-4.8,3.2s-3.4,0.5-5.1,0s-3.3-1.4-4.7-2.7c-0.6-0.5-1.1-1-1.6-1.6c-0.5-0.5-0.9-1.1-1.2-1.6s-0.7-1.1-1.1-1.8
		l12.1-13.5c0.5-0.6,1-1.1,1.5-1.7c0.5-0.6,1-1.1,1.4-1.7c0.5-0.5,0.9-1,1.2-1.5c0.4-0.4,0.7-0.8,1-1.2l2.5,2.2l-7.2,8l0.1,0.1
		C798.2,253.5,799.3,253.5,800.3,253.7L800.3,253.7z M798.2,255.8c-1-0.2-2-0.2-3.2,0.1l-6.6,7.3c0.3,0.5,0.6,1,0.9,1.5
		s0.8,0.9,1.3,1.4c1,0.9,2,1.4,3.1,1.7s2.3,0.2,3.4-0.1c1.1-0.4,2.2-1.1,3.2-2.2c0.9-1,1.5-2,1.8-3c0.3-1,0.4-2,0.1-2.9
		s-0.8-1.7-1.6-2.5C799.9,256.5,799.1,256,798.2,255.8L798.2,255.8z"/>
	<path class="st3" d="M802,286.5c-1.2,0.4-2.2,0.6-3,0.6c-0.8,0-1.5-0.2-2.2-0.5c-0.8-0.3-1.5-0.9-2.2-1.5c-0.7-0.7-1.2-1.4-1.5-2
		l2.1-2.6c0.1,0.5,0.3,1,0.5,1.5c0.3,0.5,0.6,0.9,0.9,1.2s0.7,0.6,1,0.8c0.5,0.2,1,0.3,1.5,0.3c0.6,0,1.2-0.2,1.9-0.4
		c0.7-0.3,1.5-0.7,2.5-1.2c0.9-0.5,2-1.2,3.2-2.1l-0.4,3.9C804.6,285.5,803.1,286.2,802,286.5L802,286.5z M814.3,266.1
		c-0.2,0.2-0.4,0.6-0.7,1.1s-0.6,1-0.8,1.5s-0.6,1.1-1,1.8l-5.1,10.2l0,0l9.7-5c0.7-0.4,1.2-0.6,1.7-0.9c0.5-0.3,1-0.5,1.5-0.8
		c0.5-0.3,1-0.6,1.7-0.9l2.2,2.2c-0.7,0.4-1.3,0.7-1.9,1c-0.5,0.3-1.1,0.5-1.6,0.8s-1.2,0.6-1.9,1l-11.9,6.1l-3.2-3.3l6.3-12.6
		c0.4-0.8,0.7-1.5,1-2.1s0.6-1.1,0.8-1.7c0.3-0.5,0.5-1,0.6-1.2L814.3,266.1L814.3,266.1z"/>
	<path class="st3" d="M841.6,292.5c0-0.6-0.1-1.3-0.2-1.9c-0.1-0.6-0.3-1.2-0.6-1.8c-0.3-0.6-0.6-1.1-0.9-1.5
		c-0.6-0.7-1.2-1.2-1.9-1.5s-1.4-0.4-2.1-0.3s-1.4,0.4-2,1c-0.6,0.5-1,1.1-1.2,1.9s-0.2,1.5-0.1,2.4c0.1,0.9,0.2,1.8,0.4,2.9
		c0.2,1.3,0.3,2.4,0.4,3.4c0.1,1,0,1.8-0.1,2.6c-0.2,0.8-0.4,1.4-0.8,2s-0.8,1.1-1.5,1.7c-0.8,0.7-1.8,1.2-3,1.4
		c-1.2,0.2-2.3,0.1-3.6-0.4s-2.5-1.4-3.6-2.7c-0.6-0.8-1.2-1.5-1.6-2.3c-0.4-0.8-0.7-1.5-1-2.3c-0.2-0.8-0.4-1.5-0.5-2.2l3-2
		c0,0.9,0,1.7,0.1,2.5c0.1,0.8,0.4,1.6,0.7,2.4c0.3,0.8,0.8,1.5,1.5,2.3c0.9,1,1.8,1.6,2.9,1.7c1,0.1,1.9-0.2,2.7-0.8
		c0.7-0.5,1.1-1.2,1.2-1.9c0.2-0.7,0.2-1.5,0.1-2.4s-0.3-1.8-0.5-2.8c-0.3-1.4-0.4-2.6-0.4-3.8c0-1.2,0.1-2.2,0.5-3.2
		c0.4-1,1-1.9,2-2.6c0.8-0.7,1.9-1.2,3.1-1.4s2.4-0.1,3.7,0.4c1.3,0.5,2.5,1.4,3.7,2.7c0.6,0.8,1.2,1.6,1.6,2.6
		c0.4,1,0.7,1.9,0.9,2.6L841.6,292.5L841.6,292.5z"/>
	<path class="st3" d="M847,303.3c0.9,0.6,1.7,1.3,2.3,2.1c0.8,1,1.3,2.1,1.6,3.2c0.2,1.1,0.1,2.1-0.5,3.2s-1.5,2.2-3,3.3l-4.2,3.2
		l-0.5,0.4c-0.5,0.4-0.8,0.7-1.2,1c-0.3,0.3-0.7,0.6-0.9,1c-0.3,0.3-0.5,0.6-0.7,1c-0.2,0.3-0.4,0.7-0.6,1l-2.4-2.5
		c0.2-0.3,0.4-0.5,0.6-0.8c0.2-0.2,0.3-0.5,0.6-0.8l-0.1-0.1c-0.4-0.1-0.9-0.2-1.5-0.3c-0.6-0.2-1.1-0.4-1.7-0.8s-1.1-0.9-1.6-1.5
		c-0.7-0.9-1.1-1.8-1.2-2.7c-0.1-0.9,0-1.7,0.4-2.5c0.4-0.8,0.9-1.5,1.7-2c1.1-0.8,2.2-1.2,3.4-1.1c1.2,0.1,2.4,0.6,3.7,1.6
		c1.3,0.9,2.7,2.2,4.2,3.7c0.8-0.6,1.4-1.2,1.8-1.9c0.5-0.7,0.7-1.4,0.7-2.1s-0.3-1.5-0.9-2.3c-0.2-0.3-0.5-0.6-0.8-0.8
		s-0.7-0.5-1.1-0.8c-0.4-0.2-0.8-0.4-1.2-0.6s-0.9-0.3-1.4-0.3l2.3-2.2C845.3,302.3,846.1,302.7,847,303.3L847,303.3z M840.7,311.8
		c-0.8-0.7-1.6-1.1-2.4-1.3c-0.8-0.2-1.5,0-2.2,0.6c-0.7,0.5-1,1.1-1,1.8c0,0.7,0.2,1.4,0.7,2c0.5,0.6,1.1,1,2,1.4
		c0.9,0.3,1.7,0.5,2.5,0.5l3-2.3C842.4,313.4,841.5,312.5,840.7,311.8L840.7,311.8z"/>
	<path class="st3" d="M842.3,327c0.2-0.1,0.4-0.2,0.6-0.3c0.2-0.1,0.6-0.3,1-0.6s0.9-0.6,1.6-1c0.6-0.4,1.4-0.9,2.3-1.5l3.5-2.3
		c0.9-0.6,1.7-1.1,2.3-1.5c0.6-0.4,1.2-0.8,1.7-1.2s0.9-0.6,1.3-0.9s0.8-0.6,1.2-0.9l1.8,2.7l-2.1,1.4l0.1,0.1
		c1.3,0.1,2.4,0.4,3.4,1.1c1,0.7,1.8,1.5,2.3,2.2c0.4,0.7,0.8,1.4,0.9,2c0.2,0.7,0.2,1.4,0.1,2c-0.1,0.7-0.3,1.3-0.6,1.9
		c0.7,0.1,1.5,0.3,2.2,0.6c0.7,0.3,1.4,0.7,2,1.1c0.6,0.5,1.1,1,1.5,1.6c1.3,2,1.6,3.7,1.1,5.3c-0.6,1.6-1.9,3-3.9,4.4l-4,2.6
		c-0.9,0.6-1.6,1.1-2.2,1.5c-0.6,0.4-1.1,0.7-1.4,1s-0.7,0.5-0.9,0.7c-0.2,0.2-0.5,0.4-0.7,0.5l-1.9-2.9c0.2-0.1,0.4-0.2,0.6-0.4
		c0.2-0.1,0.6-0.3,1-0.6s0.9-0.6,1.6-1c0.6-0.4,1.4-0.9,2.3-1.5l3.8-2.5c0.6-0.4,1.1-0.9,1.6-1.4c0.5-0.6,0.8-1.2,0.9-2
		c0.1-0.7-0.2-1.6-0.8-2.5c-0.6-0.9-1.3-1.5-2.1-2c-0.8-0.4-1.6-0.7-2.4-0.9c-0.2,0.2-0.5,0.4-0.8,0.6c-0.3,0.2-0.7,0.5-1.1,0.8
		l-3.9,2.5c-0.9,0.6-1.7,1.1-2.2,1.5c-0.6,0.4-1.1,0.8-1.5,1c-0.4,0.3-0.7,0.5-0.9,0.7c-0.2,0.2-0.4,0.3-0.6,0.4l-1.9-2.9
		c0.2-0.1,0.4-0.2,0.6-0.4s0.6-0.3,1-0.6s0.9-0.6,1.6-1c0.6-0.4,1.4-0.9,2.3-1.5l3.8-2.5c0.8-0.5,1.4-1,1.8-1.6
		c0.5-0.6,0.8-1.2,0.8-1.9c0.1-0.7-0.2-1.4-0.7-2.1c-0.5-0.7-1.1-1.3-2-1.9c-0.9-0.5-2-0.9-3.2-0.9l-5.4,3.5
		c-0.9,0.6-1.7,1.1-2.2,1.5s-1.1,0.8-1.5,1c-0.4,0.3-0.7,0.5-0.9,0.7c-0.2,0.2-0.4,0.3-0.6,0.4L842.3,327L842.3,327z"/>
	<path class="st3" d="M880.9,354.5c0.7-0.7,1.2-1.3,1.7-1.8c0.5-0.5,1-1,1.5-1.5c0.5-0.5,1-1.1,1.7-1.8l1.7,3.2
		c-0.6,0.7-1.2,1.3-1.7,1.8c-0.5,0.5-0.9,1-1.4,1.5s-1,1.1-1.7,1.8l-10.2,11.1l-0.1-0.2l14.9-2.3c1-0.1,1.8-0.3,2.6-0.4
		s1.4-0.2,1.9-0.3s1-0.1,1.3-0.2c0.3,0,0.7-0.1,1-0.1l1.5,2.8c-1,0.1-1.9,0.3-2.9,0.5c-1,0.1-2.2,0.3-3.8,0.6l-19.6,2.9l-1.6-3
		L880.9,354.5L880.9,354.5z"/>
	<path class="st3" d="M893.2,378.9c0.7,0.8,1.3,1.6,1.8,2.6c0.5,1.2,0.8,2.4,0.8,3.5c0,1.1-0.4,2.1-1.2,3c-0.8,0.9-2,1.8-3.7,2.6
		l-4.8,2.2l-0.6,0.3c-0.5,0.2-1,0.5-1.4,0.7c-0.4,0.2-0.8,0.5-1.1,0.7c-0.3,0.2-0.6,0.5-0.9,0.8s-0.6,0.6-0.8,0.9l-1.8-3
		c0.3-0.2,0.5-0.4,0.7-0.6c0.2-0.2,0.4-0.4,0.7-0.6l-0.1-0.2c-0.4-0.1-0.9-0.4-1.4-0.6c-0.5-0.3-1-0.7-1.5-1.1
		c-0.5-0.5-0.9-1.1-1.2-1.9c-0.5-1-0.7-2-0.6-2.9c0.1-0.9,0.4-1.7,0.9-2.4c0.5-0.7,1.2-1.2,2.1-1.6c1.2-0.6,2.4-0.7,3.5-0.3
		c1.1,0.4,2.2,1.1,3.2,2.3c1,1.2,2.1,2.7,3.2,4.6c0.9-0.4,1.6-0.9,2.2-1.4c0.6-0.5,1-1.2,1.1-1.9c0.2-0.7,0-1.5-0.4-2.4
		c-0.2-0.3-0.3-0.7-0.6-1s-0.5-0.7-0.9-1c-0.3-0.3-0.7-0.6-1.1-0.8s-0.8-0.5-1.3-0.6l2.7-1.6C891.7,377.5,892.5,378.1,893.2,378.9
		L893.2,378.9z M885.1,385.8c-0.7-0.9-1.3-1.5-2-1.8s-1.5-0.3-2.3,0.1c-0.8,0.4-1.2,0.9-1.4,1.5s-0.1,1.4,0.2,2.1
		c0.3,0.7,0.9,1.3,1.7,1.8s1.6,0.9,2.3,1l3.5-1.6C886.4,387.7,885.8,386.7,885.1,385.8L885.1,385.8z"/>
	<path class="st3" d="M883.1,401.1c0.2,0,0.4-0.1,0.7-0.2s0.7-0.2,1.2-0.4s1-0.3,1.6-0.5c0.6-0.2,1.2-0.5,1.9-0.7l4.6-1.8
		c0.7-0.3,1.4-0.5,2-0.8c0.7-0.3,1.3-0.5,1.9-0.8c0.6-0.3,1.2-0.5,1.7-0.7s1-0.5,1.5-0.7l0.1,0l1.2,3.1l-2.4,0.9l-9.6,3.7
		c-0.7,0.3-1.3,0.5-1.9,0.8c-0.6,0.2-1.1,0.5-1.5,0.6c-0.5,0.2-0.8,0.4-1.1,0.5c-0.3,0.1-0.5,0.2-0.7,0.3L883.1,401.1L883.1,401.1z
		 M899.3,398.6c1.2,0.3,2.2,0.9,3.1,1.8s1.4,1.8,1.8,2.7c0.5,1.4,0.7,2.7,0.5,3.7c-0.2,1-0.7,1.9-1.5,2.6s-1.7,1.3-2.9,1.7l-6.2,2.4
		c-0.7,0.3-1.3,0.5-1.9,0.8c-0.6,0.2-1.1,0.5-1.5,0.6c-0.5,0.2-0.8,0.4-1.1,0.5s-0.5,0.2-0.7,0.3l-1.2-3.2c0.2,0,0.4-0.1,0.7-0.2
		c0.3-0.1,0.7-0.2,1.2-0.4s1-0.3,1.6-0.5c0.6-0.2,1.2-0.5,1.9-0.7l5-1.9c0.7-0.3,1.3-0.6,1.9-1c0.6-0.4,1-1,1.3-1.7s0.2-1.6-0.2-2.6
		c-0.3-0.8-0.8-1.5-1.6-2.3s-1.7-1.2-2.9-1.5l2.9-1.1L899.3,398.6L899.3,398.6z"/>
	<path class="st3" d="M911.1,425.1c0.8-0.6,1.4-1.1,2-1.5c0.6-0.4,1.1-0.8,1.7-1.2c0.6-0.4,1.2-0.9,2-1.5l1,3.5
		c-0.8,0.5-1.4,1-2,1.4c-0.5,0.4-1.1,0.8-1.7,1.2c-0.5,0.4-1.2,0.9-2,1.4l-12.1,9l0-0.2l15,0.6c1,0,1.8,0.1,2.6,0.1
		c0.8,0,1.4,0,1.9,0.1s1,0,1.3,0c0.3,0,0.7,0,1,0l0.9,3c-1,0-2-0.1-3-0.1s-2.3-0.1-3.8-0.1l-19.8-0.9l-1-3.3L911.1,425.1
		L911.1,425.1z"/>
	<path class="st3" d="M918.6,451.7c0.6,0.9,1,1.9,1.2,2.9c0.3,1.3,0.3,2.5,0.1,3.5c-0.2,1.1-0.8,2-1.7,2.7c-0.9,0.8-2.3,1.4-4.1,1.8
		l-5.1,1.2l-0.7,0.1c-0.6,0.1-1,0.3-1.5,0.4c-0.4,0.1-0.8,0.3-1.2,0.5c-0.4,0.2-0.7,0.4-1.1,0.6s-0.7,0.4-1,0.7l-1.2-3.3
		c0.3-0.2,0.6-0.3,0.8-0.5c0.2-0.1,0.5-0.3,0.8-0.5l0-0.2c-0.4-0.2-0.8-0.5-1.2-0.9c-0.4-0.4-0.8-0.9-1.2-1.4
		c-0.4-0.6-0.6-1.3-0.8-2.1c-0.2-1.1-0.2-2.1,0-2.9c0.3-0.9,0.7-1.6,1.4-2.1c0.7-0.6,1.4-1,2.3-1.2c1.3-0.3,2.5-0.2,3.5,0.4
		c1,0.6,1.9,1.6,2.7,2.9s1.5,3.1,2.3,5.1c0.9-0.2,1.7-0.5,2.4-0.9s1.2-1,1.5-1.6c0.3-0.7,0.3-1.5,0.1-2.5c-0.1-0.4-0.2-0.7-0.4-1.1
		s-0.4-0.8-0.7-1.1c-0.3-0.4-0.6-0.7-0.9-1c-0.3-0.3-0.7-0.6-1.1-0.9l3-1C917.4,450,918,450.7,918.6,451.7L918.6,451.7z
		 M909.3,456.8c-0.5-1-1-1.7-1.6-2.2c-0.6-0.5-1.4-0.6-2.3-0.4c-0.8,0.2-1.4,0.6-1.7,1.2c-0.3,0.6-0.3,1.3-0.2,2.1
		c0.2,0.7,0.6,1.4,1.3,2.1s1.4,1.2,2.1,1.5l3.7-0.9C910.2,459,909.8,457.8,909.3,456.8L909.3,456.8z"/>
	<path class="st3" d="M915.7,470.6l1.8,9.2c0.9-0.1,1.6-0.5,2.3-1s1.1-1.1,1.4-1.8c0.3-0.7,0.4-1.5,0.2-2.4c-0.1-0.8-0.5-1.5-1-2.1
		c-0.5-0.7-1.3-1.1-2.3-1.5s-2.2-0.3-3.7-0.1c-1.8,0.3-3.2,0.9-4.1,1.6c-1,0.8-1.6,1.7-1.9,2.7s-0.4,2.1-0.2,3.2
		c0.2,0.9,0.5,1.9,1,2.7s1.1,1.6,1.8,2.2l-3,0.9c-0.4-0.5-0.8-1-1.1-1.5c-0.3-0.5-0.6-1.2-0.9-1.8s-0.5-1.4-0.6-2.3
		c-0.3-1.6-0.2-3.1,0.2-4.6c0.4-1.5,1.3-2.8,2.5-3.9s2.9-1.9,5-2.2c1.9-0.3,3.6-0.3,5.2,0.2s2.9,1.2,3.9,2.3s1.7,2.5,2,4.1
		c0.3,1.7,0.2,3.2-0.4,4.5s-1.6,2.3-3,3.1c-1.4,0.8-3,1.3-5,1.5l-2.2-12.5L915.7,470.6L915.7,470.6z"/>
	<path class="st3" d="M907.2,488.2c0.2,0,0.5,0,0.8,0s0.7-0.1,1.2-0.1c0.5,0,1-0.1,1.7-0.2c0.6-0.1,1.3-0.2,2-0.3l4.9-0.7
		c0.8-0.1,1.5-0.2,2.3-0.4c0.8-0.1,1.6-0.2,2.3-0.4s1.4-0.2,1.9-0.3s0.9-0.2,1.2-0.2l0.5,3.2l-2.7,0.4l-10,1.4
		c-0.8,0.1-1.4,0.2-2,0.3c-0.6,0.1-1.2,0.2-1.6,0.3s-0.9,0.2-1.2,0.2c-0.3,0.1-0.6,0.1-0.8,0.2L907.2,488.2L907.2,488.2z
		 M923.4,489.4c0.9,0.5,1.7,1.1,2.2,1.8s0.9,1.3,1.1,1.9s0.4,1.2,0.5,1.8c0,0,0,0.1,0,0.2c0,0.1,0,0.1,0,0.2l-3.6,0.5
		c0-0.6,0-1.2-0.1-1.8c-0.1-0.5-0.2-1-0.4-1.5c-0.2-0.5-0.5-1-1-1.6c-0.5-0.5-1.1-0.9-1.8-1.2l3-0.4L923.4,489.4L923.4,489.4z"/>
	<path class="st3" d="M920.5,502.7l1.1,9.3c0.9-0.1,1.7-0.4,2.3-0.8c0.7-0.4,1.2-1,1.6-1.7c0.4-0.7,0.5-1.5,0.4-2.4
		c-0.1-0.8-0.4-1.5-0.9-2.2s-1.2-1.2-2.2-1.6s-2.2-0.5-3.7-0.4c-1.8,0.2-3.2,0.6-4.2,1.3c-1,0.7-1.7,1.5-2.1,2.6
		c-0.4,1-0.5,2-0.4,3.1c0.1,0.9,0.3,1.9,0.8,2.8c0.4,0.9,1,1.7,1.6,2.3l-3.1,0.7c-0.4-0.5-0.7-1-1-1.6c-0.3-0.6-0.5-1.2-0.7-1.9
		c-0.2-0.7-0.3-1.5-0.4-2.3c-0.2-1.6,0-3.1,0.6-4.6c0.5-1.5,1.5-2.7,2.8-3.7c1.3-1,3-1.6,5.1-1.8c1.9-0.2,3.6,0,5.1,0.5
		c1.5,0.6,2.8,1.4,3.7,2.6s1.5,2.6,1.7,4.2c0.2,1.8-0.1,3.2-0.8,4.5c-0.7,1.2-1.8,2.2-3.2,2.9s-3.1,1.1-5.1,1.1l-1.3-12.6
		L920.5,502.7L920.5,502.7z"/>
	<path class="st3" d="M910.7,519.7c0.2,0,0.5,0,0.8,0s0.7,0,1.2,0c0.5,0,1,0,1.7,0s1.3,0,2.1-0.1l5-0.2c0.8,0,1.5-0.1,2.2-0.1
		s1.4-0.1,2-0.1c0.7,0,1.3-0.1,1.8-0.1c0.6,0,1.1-0.1,1.7-0.1h0.1l0.1,3.3l-2.5,0.1l-10.3,0.4c-0.8,0-1.5,0.1-2.1,0.1
		c-0.6,0-1.2,0.1-1.7,0.1c-0.5,0-0.9,0.1-1.2,0.1c-0.3,0-0.6,0-0.8,0.1L910.7,519.7L910.7,519.7z M926.8,522.5
		c1,0.7,1.8,1.6,2.3,2.7c0.5,1.1,0.8,2.1,0.8,3.1c0.1,1.5-0.2,2.8-0.7,3.7s-1.3,1.6-2.3,2c-1,0.4-2.1,0.7-3.3,0.7l-6.7,0.3
		c-0.8,0-1.5,0.1-2.1,0.1c-0.6,0-1.2,0.1-1.7,0.1s-0.9,0.1-1.2,0.1c-0.3,0-0.6,0-0.8,0.1l-0.1-3.4c0.2,0,0.5,0,0.8,0s0.7,0,1.2,0
		c0.5,0,1,0,1.7,0s1.3,0,2.1-0.1l5.3-0.2c0.7,0,1.4-0.2,2.1-0.4c0.7-0.2,1.3-0.6,1.8-1.2c0.5-0.6,0.7-1.4,0.6-2.6
		c0-0.8-0.3-1.7-0.8-2.6c-0.5-0.9-1.2-1.7-2.2-2.4l3.1-0.1L926.8,522.5L926.8,522.5z"/>
	<path class="st3" d="M929.3,548.4c0.5,1,0.8,2.1,0.7,3.3c0,1.5-0.5,2.8-1.3,3.9c-0.8,1.2-1.9,2.1-3.3,2.7c-1.4,0.7-2.9,1-4.6,0.9
		c-2.3,0-4.1-0.6-5.6-1.6s-2.6-2.3-3.3-3.9c-0.7-1.6-1.1-3.4-1-5.3c0-0.8,0.1-1.5,0.2-2.2s0.2-1.3,0.4-2c0.2-0.6,0.4-1.3,0.6-1.9
		l18.1,0.4c0.8,0,1.5,0,2.3,0s1.5,0,2.2,0c0.7,0,1.3,0,1.9,0c0.6,0,1.1,0,1.5,0l-0.1,3.3l-10.7-0.2v0.1
		C928.1,546.6,928.8,547.5,929.3,548.4L929.3,548.4z M926.3,548.1c-0.5-0.9-1.2-1.7-2.2-2.4l-9.9-0.2c-0.2,0.6-0.4,1.1-0.5,1.7
		s-0.2,1.2-0.2,1.8c0,1.3,0.2,2.4,0.8,3.5s1.3,1.9,2.3,2.5s2.2,0.9,3.7,1c1.3,0,2.5-0.2,3.5-0.6c1-0.4,1.7-1,2.3-1.8
		s0.8-1.7,0.8-2.8C927,549.9,926.8,549,926.3,548.1L926.3,548.1z"/>
	<path class="st3" d="M921.9,566.7l-0.5,9.3c0.9,0.1,1.7-0.1,2.4-0.4c0.8-0.3,1.4-0.8,1.8-1.4c0.5-0.6,0.7-1.4,0.8-2.3
		c0.1-0.8-0.1-1.6-0.5-2.3s-1-1.4-1.9-2c-0.9-0.5-2.1-0.9-3.6-1c-1.8-0.1-3.3,0.1-4.4,0.6s-2,1.2-2.5,2.2c-0.6,0.9-0.9,1.9-1,3
		c-0.1,1,0,1.9,0.3,2.9s0.7,1.8,1.2,2.6L911,578c-0.3-0.6-0.5-1.2-0.7-1.8c-0.2-0.6-0.3-1.3-0.4-2s-0.1-1.5,0-2.4
		c0.1-1.6,0.6-3.1,1.4-4.5s1.9-2.4,3.4-3.2c1.5-0.8,3.2-1.1,5.3-0.9c1.9,0.1,3.5,0.6,5,1.4c1.4,0.8,2.5,1.9,3.2,3.2
		c0.8,1.3,1.1,2.8,0.9,4.5c-0.1,1.8-0.6,3.2-1.5,4.3c-0.9,1.1-2.1,1.9-3.6,2.3c-1.5,0.4-3.3,0.5-5.2,0.2l0.9-12.6L921.9,566.7
		L921.9,566.7z"/>
	<path class="st3" d="M909.3,581.7c0.2,0,0.4,0.1,0.8,0.1s0.7,0.1,1.2,0.2c0.5,0.1,1,0.2,1.6,0.2c0.6,0.1,1.3,0.2,2,0.2l4.9,0.5
		c0.8,0.1,1.5,0.2,2.4,0.2c0.8,0.1,1.6,0.2,2.3,0.2c0.8,0.1,1.4,0.1,2,0.2c0.6,0,1,0.1,1.2,0.1l-0.3,3.2l-2.7-0.3l-10-1.1
		c-0.8-0.1-1.4-0.2-2-0.2c-0.6-0.1-1.2-0.1-1.7-0.1c-0.5,0-0.9-0.1-1.2-0.1s-0.6,0-0.8,0L909.3,581.7L909.3,581.7z M924.8,586.8
		c0.8,0.8,1.3,1.5,1.7,2.3s0.6,1.5,0.6,2.1c0.1,0.7,0.1,1.3,0,1.8c0,0,0,0.1,0,0.2s0,0.1,0,0.2l-3.6-0.4c0.1-0.6,0.2-1.2,0.3-1.7
		s0.1-1.1,0-1.6c-0.1-0.5-0.2-1.1-0.6-1.8c-0.3-0.6-0.8-1.2-1.5-1.6l3,0.3L924.8,586.8L924.8,586.8z"/>
	<path class="st3" d="M913.5,602.2c-0.1-0.8-0.2-1.5-0.5-1.8s-0.6-0.6-1-0.6c-0.5-0.1-0.9,0.1-1.2,0.5c-0.3,0.4-0.5,1-0.6,1.7
		l-0.5,2.6c-0.5,2.4-1.3,4.2-2.5,5.2c-1.2,1.1-2.5,1.5-4.1,1.3c-1.3-0.2-2.4-0.8-3.3-1.7s-1.6-2.2-1.9-3.8s-0.4-3.4,0-5.5
		c0.2-1.5,0.6-2.7,1.2-3.7c0.6-1,1.3-1.8,2.1-2.2s1.7-0.6,2.7-0.5c0.8,0.1,1.5,0.4,2.1,0.9c0.6,0.5,1.1,1,1.5,1.6s0.7,1.2,0.9,1.9
		s0.2,1.3,0.1,1.8l-0.8,2c-0.1-1.4-0.4-2.5-1.1-3.4c-0.6-0.8-1.4-1.3-2.2-1.5c-0.8-0.1-1.5,0-2,0.4c-0.6,0.4-1.1,1-1.4,1.7
		c-0.4,0.8-0.6,1.6-0.8,2.7c-0.1,0.8-0.1,1.6,0,2.5s0.4,1.6,0.9,2.3c0.5,0.7,1.1,1.1,2,1.2c1,0.2,1.9-0.2,2.6-1.1s1.2-2.2,1.5-3.9
		l0.4-2.5c0.1-0.6,0.4-1.2,0.8-1.8s0.9-1.1,1.5-1.5c0.6-0.4,1.2-0.5,2-0.4s1.4,0.5,1.9,1.2c0.5,0.7,0.8,1.7,0.8,3L913.5,602.2
		L913.5,602.2z M914.2,599.8c0.7-1,1.6-1.7,2.6-2.1c1-0.4,2.1-0.5,3.2-0.3c1.2,0.2,2.3,0.7,3.1,1.5c0.8,0.8,1.4,1.8,1.8,3
		c0.3,1.2,0.4,2.4,0.2,3.7c-0.2,1.2-0.5,2.2-1,3c-0.5,0.8-1.1,1.4-1.8,1.9c-0.7,0.5-1.5,0.8-2.3,0.9c-0.8,0.1-1.6,0.1-2.5,0
		c-1.2-0.2-2.2-0.7-3-1.4s-1.3-1.7-1.7-2.8s-0.4-2.3-0.2-3.6C913,602,913.5,600.7,914.2,599.8L914.2,599.8z M915.7,606.6
		c0.5,0.9,1.4,1.4,2.7,1.6c1.2,0.2,2.3,0,3.1-0.6s1.3-1.5,1.5-2.5c0.1-0.7,0-1.4-0.2-2c-0.2-0.6-0.6-1.2-1.2-1.6s-1.2-0.7-2-0.9
		c-1.2-0.2-2.2,0-3,0.6s-1.2,1.5-1.4,2.5C915,604.8,915.2,605.7,915.7,606.6L915.7,606.6z M924.2,609c-0.1,0.5-0.2,1-0.2,1.4
		c-0.1,0.5-0.2,1-0.2,1.4c-0.1,0.5-0.2,1-0.2,1.5c-0.1,0.5-0.2,1-0.2,1.5l-2.2-0.3c0.1-0.5,0.1-0.9,0.2-1.3s0.1-0.9,0.2-1.3
		c0.1-0.4,0.1-0.9,0.2-1.3s0.1-0.9,0.2-1.3c0.1-0.4,0.1-0.9,0.2-1.3l2.3-0.5C924.4,608,924.3,608.5,924.2,609L924.2,609z"/>
	<path class="st3" d="M919.2,621.8c0.8,0.9,1.3,2,1.5,3.2c0.2,1.2,0.2,2.3,0,3.2c-0.3,1.5-0.9,2.6-1.6,3.4s-1.7,1.2-2.7,1.3
		c-1,0.2-2.2,0.1-3.3-0.2l-6.5-1.5c-0.7-0.2-1.4-0.3-2-0.4c-0.6-0.1-1.2-0.2-1.6-0.3s-0.9-0.2-1.2-0.2c-0.3-0.1-0.6-0.1-0.8-0.1
		l0.7-3.3c0.2,0.1,0.4,0.1,0.7,0.2c0.3,0.1,0.7,0.2,1.2,0.3s1,0.3,1.6,0.4c0.6,0.2,1.3,0.3,2,0.5l5.2,1.2c0.7,0.2,1.4,0.2,2.2,0.2
		c0.7,0,1.4-0.3,2-0.7c0.6-0.5,1-1.2,1.3-2.3c0.2-0.8,0.2-1.7-0.1-2.8s-0.8-2-1.6-2.9l3.1,0.7L919.2,621.8L919.2,621.8z
		 M904.3,615.1c0.2,0.1,0.4,0.1,0.7,0.2c0.3,0.1,0.7,0.2,1.2,0.3c0.5,0.1,1,0.3,1.6,0.4c0.6,0.2,1.3,0.3,2,0.5l12.8,2.9
		c0.7,0.2,1.5,0.3,2.2,0.5c0.7,0.2,1.4,0.3,2,0.4c0.7,0.1,1.3,0.2,1.9,0.4s1.1,0.2,1.6,0.3l-0.7,3.1l-10.5-2.3l-10-2.2
		c-0.7-0.2-1.4-0.3-2-0.4s-1.2-0.2-1.6-0.3s-0.9-0.2-1.2-0.2s-0.6-0.1-0.8-0.1L904.3,615.1L904.3,615.1z"/>
	<path class="st3" d="M902,669.2l-2.5-0.8l6.7-21.3l2.5,0.8L902,669.2z"/>
	<path class="st3" d="M885.6,695.1c-0.8-0.1-1.5-0.1-2.1-0.1c-0.6,0-1.2-0.1-1.9-0.1s-1.2-0.1-1.7-0.1c-0.5,0-0.8,0-1,0l1.3-3.2
		l0.1-0.2c1.1,0.1,2.1,0.2,2.9,0.2c0.8,0,1.7,0.1,2.5,0.2s1.8,0.2,2.9,0.2l14.4,1.4l-0.2,0.4l-11.8-10.9c-0.9-0.8-1.8-1.6-2.5-2.3
		s-1.3-1.3-1.8-1.7c-0.5-0.4-0.8-0.7-0.9-0.8l1.5-3.4c0.1,0.1,0.3,0.3,0.6,0.7s0.8,0.8,1.3,1.3c0.5,0.5,1.1,1.1,1.6,1.6
		c0.6,0.6,1.1,1.1,1.6,1.6s1.1,1.1,1.7,1.7l7.8,7.6c0.6,0.6,1.2,1.1,1.6,1.5c0.5,0.4,0.9,0.9,1.3,1.3c0.5,0.5,1,1,1.6,1.6l-1.2,2.8
		L885.6,695.1L885.6,695.1z M895.1,683.7l-4.8,11.4l-2.6-1.1l4.8-11.4L895.1,683.7z"/>
	<path class="st3" d="M874.1,711.3c-0.2,0.4-0.4,0.8-0.6,1.2c-0.2,0.4-0.4,0.8-0.5,1.2c-0.2,0.4-0.3,0.8-0.5,1.2l-2.6-1.7l5.5-11.2
		l2.5,1.3L874.1,711.3z M876.2,700.6c0.5,0.3,0.9,0.5,1.2,0.7c0.4,0.2,0.8,0.4,1.2,0.6s0.8,0.4,1.4,0.7s1.2,0.6,1.9,1l10.8,5.4
		c0.7,0.4,1.3,0.7,1.9,0.9c0.5,0.3,1,0.5,1.4,0.7s0.8,0.4,1.2,0.5c0.4,0.2,0.8,0.3,1.3,0.5l-1.6,3.2c-0.4-0.3-0.8-0.5-1.2-0.7
		c-0.4-0.2-0.8-0.4-1.2-0.7c-0.4-0.2-0.9-0.5-1.4-0.7c-0.5-0.3-1.1-0.6-1.9-0.9l-10.8-5.4c-0.8-0.4-1.4-0.7-1.8-0.9
		s-0.9-0.4-1.2-0.6c-0.3-0.2-0.7-0.3-1.1-0.5c-0.4-0.2-0.9-0.4-1.5-0.7l-0.1-0.1L876.2,700.6L876.2,700.6z"/>
	<path class="st3" d="M879.1,748.1c-0.4-0.3-0.8-0.5-1.2-0.8s-0.7-0.5-1.2-0.7s-0.9-0.5-1.4-0.8s-1.1-0.6-1.8-1l-5.9-3.4
		c-1.9-1.1-3.4-2.2-4.4-3.4s-1.8-2.4-2.2-3.7s-0.5-2.5-0.3-3.8s0.7-2.5,1.3-3.7c0.7-1.2,1.5-2.2,2.5-3.1c1-0.8,2.1-1.4,3.3-1.8
		c1.3-0.3,2.7-0.3,4.3,0c1.6,0.3,3.4,1,5.3,2.2l5.9,3.4c0.7,0.4,1.3,0.7,1.8,1c0.5,0.3,1,0.5,1.4,0.8c0.4,0.2,0.8,0.4,1.2,0.6
		s0.8,0.4,1.3,0.6l-1.8,3.1c-0.4-0.3-0.8-0.5-1.2-0.8c-0.4-0.2-0.7-0.5-1.2-0.7c-0.4-0.2-0.9-0.5-1.4-0.8s-1.1-0.6-1.8-1l-6-3.4
		c-2.5-1.4-4.7-2.1-6.6-1.9s-3.4,1.3-4.5,3.3c-0.8,1.4-1.1,2.6-1,3.8s0.6,2.3,1.6,3.4c0.9,1.1,2.3,2.1,4,3.1l5.9,3.4
		c0.7,0.4,1.3,0.7,1.8,1c0.5,0.3,1,0.5,1.4,0.8s0.8,0.4,1.2,0.6s0.8,0.4,1.3,0.6L879.1,748.1L879.1,748.1z"/>
	<path class="st3" d="M871.1,760.8c-1.9,2.8-3.9,4.9-6,6.2c-2.1,1.3-4.2,1.9-6.4,1.8s-4.3-0.8-6.3-2.2c-2-1.4-3.5-3-4.5-5.1
		c-1-2-1.2-4.3-0.9-6.8c0.4-2.5,1.5-5.1,3.3-7.9l1.8-2.7l2.4,1.6l-1.8,2.6c-1.5,2.2-2.3,4.2-2.6,6.1c-0.3,1.9-0.1,3.7,0.7,5.2
		s1.9,2.9,3.5,3.9c1.6,1.1,3.2,1.6,4.9,1.7c1.7,0,3.3-0.4,5-1.5c1.6-1,3.2-2.6,4.6-4.8l2.1-3.1l2.4,1.6L871.1,760.8L871.1,760.8z
		 M853.6,742.1c0.5,0.4,0.8,0.7,1.2,0.9c0.3,0.3,0.7,0.5,1.1,0.8s0.8,0.5,1.3,0.9c0.5,0.3,1.1,0.7,1.8,1.2l9.9,6.7
		c0.7,0.5,1.2,0.8,1.8,1.1s1,0.6,1.4,0.8c0.4,0.2,0.8,0.5,1.2,0.7s0.8,0.4,1.2,0.7l-2,3c-0.6-0.4-1.2-0.8-1.6-1.1
		c-0.4-0.3-0.9-0.6-1.5-1c-0.5-0.4-1.3-0.9-2.3-1.5l-10.1-6.7c-0.9-0.6-1.7-1.1-2.2-1.5c-0.5-0.4-1-0.7-1.5-1s-1-0.7-1.6-1.1
		L853.6,742.1L853.6,742.1z"/>
	<path class="st3" d="M842.9,777.2l-7.3,0.3c-0.5,0-1,0-1.5,0c-0.5,0-1.1,0.1-1.7,0.1c-0.6,0-1.1,0.1-1.7,0.1
		c-0.5,0-1.1,0.1-1.6,0.1s-1,0-1.3,0l2.6-3.3c0.4,0,0.8,0,1.2,0c0.4,0,0.8,0,1.2-0.1c0.4,0,0.8,0,1.2-0.1s0.8,0,1.2,0
		c0.4,0,0.8,0,1.2,0l5.2-0.2c0.3,0,0.7-0.1,1.1-0.1s0.8-0.1,1.1-0.2s0.7-0.2,1-0.3L842.9,777.2L842.9,777.2z M839.4,762.9
		c0.4,0.4,0.7,0.7,1.1,1c0.3,0.3,0.7,0.6,1,0.8c0.3,0.3,0.7,0.6,1.2,1c0.5,0.4,1,0.8,1.7,1.3l9.6,7.5c0.6,0.5,1.2,0.9,1.6,1.3
		s0.9,0.7,1.3,1c0.4,0.3,0.8,0.5,1.1,0.8c0.3,0.2,0.7,0.5,1.2,0.8l-2.1,2.7c-0.5-0.3-0.8-0.7-1.2-0.9c-0.3-0.3-0.7-0.5-1-0.8
		c-0.3-0.3-0.7-0.6-1.2-0.9s-1-0.8-1.7-1.3l-9.5-7.4c-0.7-0.5-1.2-1-1.7-1.3s-0.9-0.7-1.2-0.9s-0.7-0.5-1.1-0.8
		c-0.3-0.2-0.8-0.5-1.2-0.8L839.4,762.9L839.4,762.9z M855.6,782.7c-1.2,1.6-2.5,2.8-3.8,3.4c-1.2,0.7-2.5,0.9-3.7,0.8
		s-2.4-0.7-3.5-1.6c-0.6-0.5-1.2-1.1-1.6-1.8c-0.5-0.7-0.8-1.6-0.9-2.6s0-2.1,0.4-3.4s1.2-2.6,2.3-4l1.4,2l-0.5,0.7
		c-0.6,0.9-0.9,1.7-0.9,2.5c0,0.8,0.1,1.5,0.5,2.1c0.4,0.6,0.8,1.2,1.5,1.7c1.1,0.9,2.3,1.2,3.4,1s2.2-1,3.1-2.2l1.7-2.2l2.2,1.8
		L855.6,782.7L855.6,782.7z"/>
	<path class="st3" d="M817.5,799.4c-0.7-0.3-1.4-0.6-2-0.8s-1.1-0.5-1.7-0.7s-1.1-0.5-1.6-0.6s-0.8-0.3-1-0.3l2.3-2.6l0.2-0.2
		c1,0.4,1.9,0.8,2.7,1.1c0.8,0.3,1.5,0.6,2.3,1s1.7,0.7,2.7,1.2l13.2,5.9l-0.3,0.3l-7.8-14.1c-0.6-1.1-1.2-2.1-1.7-3
		c-0.5-0.9-0.9-1.6-1.2-2.2s-0.5-0.9-0.6-1l2.5-2.8c0,0.1,0.2,0.4,0.4,0.8c0.2,0.5,0.5,1,0.8,1.7c0.3,0.7,0.7,1.3,1,2.1
		c0.4,0.7,0.7,1.4,1,2s0.7,1.3,1.1,2.1l5,9.7c0.4,0.8,0.8,1.4,1,2c0.3,0.5,0.6,1.1,0.9,1.7c0.3,0.6,0.6,1.2,1,2l-2,2.2L817.5,799.4
		L817.5,799.4z M830.1,791.5l-8.2,9.3l-2.1-1.9l8.2-9.3L830.1,791.5z"/>
	<path class="st3" d="M794.6,829.7l-1.8-1.9l16.3-15.3l1.8,1.9L794.6,829.7L794.6,829.7z"/>
	<path class="st3" d="M767.9,844.3c-0.7-0.4-1.3-0.8-1.8-1.1c-0.5-0.3-1-0.7-1.6-1c-0.5-0.3-1-0.7-1.5-0.9s-0.7-0.4-0.9-0.5l2.7-2.1
		l0.2-0.2c0.9,0.6,1.8,1.2,2.5,1.6c0.7,0.5,1.4,0.9,2.1,1.4c0.7,0.5,1.5,1,2.5,1.6l11.9,8.2l-0.3,0.2l-5.1-15.2
		c-0.4-1.2-0.8-2.3-1.1-3.2c-0.3-1-0.6-1.8-0.8-2.3s-0.3-1-0.4-1.1l2.9-2.3c0,0.1,0.1,0.4,0.2,0.9c0.1,0.5,0.3,1.1,0.5,1.8
		c0.2,0.7,0.4,1.4,0.6,2.2c0.2,0.8,0.4,1.5,0.6,2.2s0.4,1.4,0.7,2.3l3.2,10.4c0.3,0.8,0.5,1.5,0.7,2.1c0.2,0.6,0.4,1.2,0.5,1.8
		s0.4,1.3,0.7,2.2l-2.3,1.8L767.9,844.3L767.9,844.3z M781.7,838.9l-9.7,7.7l-1.8-2.2l9.7-7.7L781.7,838.9z"/>
	<path class="st3" d="M749.9,852.8c-0.3,0.2-0.7,0.5-1.1,0.8c-0.3,0.3-0.7,0.5-1,0.8s-0.7,0.5-1,0.8l-1.4-2.7l10.3-7.1l1.6,2.3
		L749.9,852.8z M756.9,844.5c0.3,0.5,0.5,0.9,0.7,1.2s0.5,0.7,0.7,1.1c0.2,0.4,0.5,0.8,0.9,1.3c0.3,0.5,0.7,1,1.2,1.8l6.9,10
		c0.5,0.7,0.8,1.2,1.2,1.7c0.3,0.5,0.6,0.9,0.9,1.3c0.3,0.4,0.5,0.8,0.8,1.1c0.3,0.3,0.6,0.7,0.9,1.1l-2.9,2
		c-0.2-0.4-0.5-0.8-0.7-1.2c-0.2-0.4-0.5-0.8-0.7-1.1c-0.3-0.4-0.5-0.8-0.9-1.3c-0.3-0.5-0.7-1-1.2-1.7l-6.9-10
		c-0.5-0.7-0.9-1.3-1.2-1.7s-0.5-0.8-0.8-1.1s-0.5-0.7-0.7-1s-0.6-0.8-0.9-1.4l-0.1-0.1L756.9,844.5L756.9,844.5z"/>
	<path class="st3" d="M736.5,887.3c-0.2-0.5-0.4-0.9-0.6-1.2c-0.2-0.4-0.4-0.8-0.7-1.2c-0.2-0.4-0.5-0.9-0.8-1.4s-0.7-1.1-1.1-1.8
		l-3.5-5.8c-1.1-1.8-1.8-3.6-2.2-5.1c-0.4-1.6-0.4-3-0.1-4.3s0.8-2.4,1.6-3.4c0.8-1,1.8-1.9,3-2.6c1.2-0.7,2.4-1.2,3.7-1.5
		s2.5-0.2,3.8,0.1c1.3,0.3,2.5,1,3.8,2.1c1.2,1.1,2.4,2.5,3.6,4.5l3.5,5.8c0.4,0.7,0.8,1.3,1.1,1.8c0.3,0.5,0.6,1,0.8,1.3
		c0.2,0.4,0.5,0.8,0.7,1.1s0.5,0.7,0.8,1.1l-3,1.8c-0.2-0.5-0.4-0.9-0.6-1.2c-0.2-0.4-0.4-0.8-0.7-1.2c-0.2-0.4-0.5-0.9-0.8-1.4
		s-0.7-1.1-1.1-1.8l-3.6-5.9c-1.5-2.5-3.1-4.1-4.8-4.8c-1.7-0.8-3.6-0.5-5.6,0.7c-1.3,0.8-2.2,1.8-2.7,2.8c-0.5,1.1-0.6,2.3-0.3,3.7
		s1,2.9,2,4.6l3.5,5.8c0.4,0.7,0.8,1.3,1.1,1.8c0.3,0.5,0.6,1,0.8,1.3c0.3,0.4,0.5,0.8,0.7,1.1s0.5,0.7,0.8,1.1L736.5,887.3
		L736.5,887.3z"/>
	<path class="st3" d="M723.4,894.4c-3,1.5-5.8,2.3-8.2,2.4s-4.7-0.4-6.5-1.5s-3.3-2.8-4.4-5s-1.6-4.4-1.4-6.6c0.2-2.2,1-4.3,2.6-6.3
		c1.5-2,3.8-3.7,6.8-5.2l2.9-1.5l1.3,2.5l-2.8,1.4c-2.3,1.2-4.1,2.5-5.3,4.1c-1.2,1.5-1.9,3.2-2,4.9c-0.1,1.7,0.2,3.4,1.1,5.1
		c0.9,1.7,2,3,3.4,3.8s3.1,1.3,5,1.2s4-0.7,6.4-1.9l3.3-1.7l1.3,2.5L723.4,894.4L723.4,894.4z M717.3,869.5c0.2,0.5,0.4,1,0.6,1.4
		c0.2,0.4,0.3,0.8,0.5,1.2c0.2,0.4,0.4,0.9,0.7,1.4s0.6,1.2,1,2l5.4,10.7c0.4,0.7,0.7,1.3,1,1.8c0.3,0.5,0.5,1,0.8,1.4
		c0.2,0.4,0.5,0.8,0.7,1.2c0.2,0.4,0.5,0.8,0.7,1.2l-3.2,1.6c-0.3-0.7-0.6-1.2-0.9-1.7s-0.5-1-0.8-1.6s-0.7-1.4-1.2-2.4l-5.5-10.8
		c-0.5-1-0.9-1.8-1.2-2.4s-0.6-1.1-0.8-1.6s-0.5-1.1-0.9-1.8L717.3,869.5L717.3,869.5z"/>
	<path class="st3" d="M691.1,894.8l-6.5-3.3c-0.4-0.2-0.9-0.5-1.4-0.7c-0.5-0.2-1-0.5-1.5-0.7c-0.5-0.2-1-0.5-1.5-0.7
		s-1-0.5-1.4-0.7c-0.4-0.2-0.8-0.4-1.2-0.6l3.8-1.6c0.3,0.2,0.7,0.3,1,0.5s0.7,0.4,1.1,0.5s0.8,0.4,1.1,0.5c0.4,0.2,0.8,0.4,1.1,0.5
		s0.7,0.4,1,0.5l4.7,2.4c0.3,0.1,0.6,0.3,1,0.4c0.4,0.2,0.7,0.3,1.1,0.4s0.7,0.2,1,0.2L691.1,894.8L691.1,894.8z M699.5,905.7
		c-1.9,0.8-3.5,1.2-5,1.2s-2.6-0.4-3.6-1.1c-1-0.7-1.8-1.7-2.3-3.1c-0.3-0.7-0.5-1.5-0.5-2.4s0.1-1.8,0.5-2.7c0.4-0.9,1-1.9,2-2.8
		c1-0.9,2.3-1.7,3.9-2.4l0.3,2.4l-0.8,0.3c-0.9,0.5-1.6,1.1-2,1.8s-0.6,1.4-0.6,2.1c0,0.7,0.2,1.4,0.5,2.1c0.6,1.3,1.4,2.2,2.5,2.5
		c1.1,0.3,2.4,0.2,3.8-0.4l2.5-1.1l1.1,2.6L699.5,905.7L699.5,905.7z M694.9,880.6c0.2,0.5,0.3,1,0.5,1.3c0.2,0.4,0.3,0.8,0.5,1.2
		c0.2,0.4,0.4,0.9,0.6,1.4c0.2,0.5,0.5,1.2,0.8,2l4.8,11.2c0.3,0.7,0.6,1.4,0.8,1.9c0.2,0.5,0.5,1,0.7,1.4c0.2,0.4,0.4,0.8,0.6,1.2
		s0.4,0.8,0.7,1.2l-3.1,1.3c-0.2-0.5-0.4-1-0.6-1.4c-0.2-0.4-0.3-0.8-0.5-1.2c-0.2-0.4-0.4-0.8-0.6-1.4c-0.2-0.5-0.5-1.2-0.8-2
		l-4.8-11.1c-0.3-0.8-0.6-1.4-0.8-2s-0.4-1-0.6-1.4c-0.2-0.4-0.4-0.8-0.6-1.2s-0.4-0.8-0.7-1.3L694.9,880.6L694.9,880.6z"/>
	<path class="st3" d="M658.2,901.8c-0.5-0.6-0.9-1.2-1.3-1.7c-0.4-0.5-0.8-1-1.2-1.5c-0.4-0.5-0.8-0.9-1.1-1.3
		c-0.3-0.4-0.6-0.6-0.7-0.7l3.3-1.2l0.2-0.1c0.7,0.9,1.3,1.7,1.8,2.3c0.5,0.7,1,1.3,1.5,2c0.5,0.7,1.1,1.4,1.8,2.3l8.7,11.6
		l-0.4,0.1l0-16.1c0-1.2,0-2.4,0-3.4s0-1.8,0-2.5c0-0.6,0-1,0-1.2l3.5-1.2c0,0.1,0,0.4-0.1,0.9c0,0.5-0.1,1.1-0.1,1.8
		c0,0.7-0.1,1.5-0.1,2.3s-0.1,1.6-0.1,2.3c0,0.7-0.1,1.5-0.1,2.4l-0.3,10.9c0,0.9,0,1.6-0.1,2.2s0,1.2-0.1,1.9c0,0.6,0,1.4-0.1,2.2
		l-2.8,1L658.2,901.8L658.2,901.8z M673,901.1l-11.7,4.1l-1-2.7l11.7-4.1L673,901.1z"/>
	<path class="st3" d="M624.8,916.9l-0.7-2.5l21.7-5.6l0.7,2.5L624.8,916.9z"/>
	<path class="st3" d="M594.2,916.8c-0.4-0.7-0.7-1.3-1-1.8c-0.3-0.5-0.6-1.1-0.9-1.6s-0.6-1.1-0.8-1.5s-0.4-0.7-0.5-0.8l3.4-0.6
		l0.2,0c0.5,1,1,1.9,1.4,2.6c0.4,0.7,0.8,1.5,1.2,2.2c0.4,0.7,0.8,1.6,1.4,2.6l6.5,12.9l-0.4,0.1l2.9-15.8c0.2-1.2,0.4-2.3,0.6-3.3
		c0.2-1,0.3-1.8,0.5-2.4s0.2-1,0.2-1.2l3.7-0.6c0,0.1-0.1,0.4-0.2,0.9s-0.3,1.1-0.4,1.8c-0.2,0.7-0.3,1.5-0.5,2.2s-0.3,1.5-0.5,2.2
		s-0.3,1.5-0.5,2.3l-2.2,10.7c-0.2,0.8-0.3,1.6-0.5,2.2c-0.1,0.6-0.3,1.2-0.4,1.8s-0.3,1.4-0.5,2.2l-3,0.5L594.2,916.8L594.2,916.8z
		 M609,918.7l-12.2,2l-0.5-2.8l12.2-2L609,918.7z"/>
	<path class="st3" d="M574.3,915.7c-0.4,0-0.9,0.1-1.3,0.2c-0.4,0.1-0.9,0.1-1.3,0.2s-0.8,0.2-1.3,0.2l0-3L583,912l0.3,2.8
		L574.3,915.7L574.3,915.7z M584.4,911.8c0,0.5,0,1,0,1.4c0,0.4,0,0.9,0.1,1.3s0.1,1,0.1,1.5c0.1,0.6,0.1,1.3,0.2,2.1l1.2,12
		c0.1,0.8,0.2,1.5,0.2,2.1s0.1,1.1,0.2,1.6c0.1,0.5,0.1,0.9,0.2,1.3c0.1,0.4,0.2,0.9,0.2,1.4l-3.5,0.4c0-0.5,0-1,0-1.4
		s0-0.9-0.1-1.3c0-0.5-0.1-1-0.1-1.6s-0.1-1.3-0.2-2.1l-1.2-12c-0.1-0.8-0.2-1.5-0.2-2c0-0.5-0.1-1-0.1-1.3c0-0.4-0.1-0.8-0.1-1.2
		c0-0.4-0.1-1-0.2-1.7v-0.1L584.4,911.8L584.4,911.8z"/>
	<path class="st3" d="M547.5,939.5c0-0.5,0-1,0-1.4c0-0.4,0-0.9,0-1.3c0-0.5,0-1-0.1-1.6c0-0.6-0.1-1.3-0.1-2.1l-0.3-6.8
		c-0.1-2.2,0-4,0.5-5.6c0.4-1.5,1-2.8,1.9-3.8s1.8-1.8,3-2.3c1.2-0.5,2.5-0.8,3.9-0.9c1.4-0.1,2.7,0.1,3.9,0.4s2.3,1,3.3,1.9
		s1.8,2.1,2.3,3.6c0.6,1.5,0.9,3.4,1.1,5.7l0.3,6.8c0,0.8,0.1,1.5,0.1,2.1c0,0.6,0.1,1.1,0.1,1.6c0,0.5,0.1,0.9,0.1,1.3
		c0,0.4,0.1,0.9,0.2,1.4l-3.6,0.2c0-0.5,0-1,0-1.4c0-0.4,0-0.9,0-1.3c0-0.5,0-1-0.1-1.6c0-0.6-0.1-1.3-0.1-2.1l-0.3-6.9
		c-0.2-2.9-0.8-5.1-2-6.5s-2.9-2.2-5.3-2c-1.6,0.1-2.8,0.5-3.8,1.2c-0.9,0.7-1.6,1.8-2,3.2c-0.4,1.4-0.5,3-0.4,5l0.3,6.8
		c0,0.8,0.1,1.5,0.1,2.1c0,0.6,0.1,1.1,0.1,1.6s0.1,0.9,0.1,1.3c0,0.4,0.1,0.9,0.2,1.4L547.5,939.5L547.5,939.5z"/>
	<path class="st3" d="M533,939.3c-3.4-0.1-6.2-0.7-8.4-1.7s-3.9-2.5-5-4.4c-1.1-1.9-1.6-4-1.6-6.5c0.1-2.5,0.7-4.6,1.9-6.5
		s2.9-3.3,5.2-4.4c2.3-1,5.1-1.5,8.5-1.4l3.3,0.1l-0.1,2.8l-3.2-0.1c-2.6-0.1-4.8,0.3-6.6,1.1c-1.8,0.8-3.1,1.9-4,3.4
		c-0.9,1.5-1.4,3.1-1.5,5c0,1.9,0.4,3.6,1.2,5c0.9,1.4,2.2,2.6,3.9,3.4s3.9,1.3,6.5,1.3l3.7,0.1l-0.1,2.8L533,939.3L533,939.3z
		 M539.4,914.5c-0.1,0.6-0.1,1.1-0.1,1.5c0,0.4-0.1,0.9-0.1,1.3s0,1,0,1.5s0,1.3,0,2.2l-0.3,12c0,0.8,0,1.5,0,2.1s0,1.1,0,1.6
		c0,0.5,0,0.9,0.1,1.4c0,0.4,0.1,0.9,0.1,1.4l-3.6-0.1c0-0.8,0-1.4,0-1.9c0-0.5,0-1.1,0-1.8s0-1.6,0.1-2.7l0.3-12.1
		c0-1.1,0-2,0.1-2.7c0-0.7,0-1.2,0-1.8c0-0.5,0-1.2,0-2L539.4,914.5L539.4,914.5z"/>
	<path class="st3" d="M504.6,924.4l-4.1-6c-0.3-0.4-0.6-0.8-0.9-1.3s-0.6-0.9-1-1.4c-0.3-0.5-0.7-0.9-1-1.4
		c-0.3-0.5-0.6-0.9-0.9-1.3s-0.5-0.8-0.8-1.1l4.1,0.4c0.2,0.3,0.4,0.6,0.7,1s0.5,0.7,0.7,1s0.5,0.7,0.7,1c0.2,0.3,0.5,0.7,0.7,1
		c0.2,0.3,0.5,0.7,0.7,1l2.9,4.3c0.2,0.3,0.4,0.5,0.7,0.8s0.5,0.6,0.8,0.9c0.3,0.3,0.5,0.5,0.8,0.6L504.6,924.4L504.6,924.4z
		 M506.8,938c-2-0.2-3.7-0.6-4.9-1.3c-1.2-0.7-2.1-1.6-2.6-2.7c-0.5-1.1-0.7-2.4-0.6-3.8c0.1-0.8,0.3-1.6,0.7-2.4s1-1.5,1.7-2.2
		c0.8-0.7,1.8-1.1,3-1.5c1.3-0.3,2.8-0.4,4.6-0.2l-0.9,2.2l-0.8-0.1c-1.1,0-2,0.2-2.6,0.6s-1.2,0.9-1.5,1.5
		c-0.3,0.7-0.5,1.3-0.6,2.1c-0.1,1.4,0.2,2.6,1,3.4s2,1.3,3.6,1.5l2.7,0.3l-0.3,2.8L506.8,938L506.8,938z M514.8,913.8
		c-0.1,0.5-0.2,1-0.2,1.4c-0.1,0.4-0.1,0.8-0.2,1.3c0,0.4-0.1,0.9-0.2,1.5s-0.1,1.3-0.2,2.1l-1.2,12.1c-0.1,0.8-0.2,1.5-0.2,2.1
		c-0.1,0.6-0.1,1.1-0.1,1.6c0,0.5,0,0.9-0.1,1.3c0,0.4,0,0.9,0,1.4l-3.4-0.3c0.1-0.6,0.1-1.1,0.1-1.5s0.1-0.8,0.1-1.3
		c0-0.4,0.1-0.9,0.1-1.5s0.1-1.3,0.2-2.2l1.2-12c0.1-0.8,0.1-1.6,0.2-2.1s0.1-1.1,0.1-1.5s0.1-0.9,0.1-1.3c0-0.4,0-0.9,0-1.4
		L514.8,913.8L514.8,913.8z"/>
	<path class="st3" d="M473.3,914.9c-0.1-0.8-0.3-1.5-0.4-2.1c-0.1-0.6-0.2-1.2-0.3-1.8s-0.2-1.2-0.3-1.7c-0.1-0.5-0.2-0.8-0.3-1
		l3.4,0.5l0.2,0c0.2,1.1,0.4,2.1,0.5,2.9c0.1,0.8,0.3,1.6,0.4,2.5s0.3,1.8,0.5,2.9l2.1,14.3l-0.4-0.1l7.7-14.1
		c0.6-1.1,1.1-2.1,1.6-3s0.9-1.6,1.2-2.2c0.3-0.5,0.5-0.9,0.6-1l3.7,0.6c-0.1,0.1-0.2,0.3-0.5,0.8c-0.3,0.4-0.6,1-1,1.6
		c-0.4,0.6-0.8,1.3-1.2,2c-0.4,0.7-0.8,1.3-1.2,1.9c-0.4,0.6-0.8,1.3-1.2,2.1l-5.5,9.4c-0.4,0.8-0.8,1.4-1.1,1.9s-0.6,1.1-1,1.6
		c-0.3,0.5-0.7,1.2-1.1,2l-3-0.5L473.3,914.9L473.3,914.9z M486.6,921.4l-12.2-2l0.5-2.8l12.2,2L486.6,921.4L486.6,921.4z"/>
	<path class="st3" d="M435.4,911.9l0.6-2.6l21.7,5.4l-0.6,2.6L435.4,911.9z"/>
	<path class="st3" d="M408.6,897.2c0-0.8,0-1.5,0-2.1c0-0.6,0-1.2,0-1.9s0-1.2,0-1.7c0-0.5,0-0.8-0.1-1l3.3,1.2l0.2,0.1
		c0,1.1,0,2.1,0,2.9c0,0.8,0,1.7,0,2.5s0,1.8-0.1,2.9l-0.5,14.5l-0.4-0.1l10.1-12.5c0.8-1,1.5-1.9,2.1-2.6c0.6-0.8,1.2-1.4,1.6-1.9
		c0.4-0.5,0.6-0.8,0.7-0.9l3.5,1.2c-0.1,0.1-0.3,0.3-0.6,0.7s-0.8,0.8-1.2,1.4c-0.5,0.5-1,1.1-1.5,1.7s-1,1.2-1.5,1.7
		c-0.5,0.5-1,1.1-1.6,1.8l-7.1,8.2c-0.6,0.7-1,1.2-1.5,1.7c-0.4,0.5-0.8,1-1.2,1.4c-0.4,0.5-0.9,1-1.5,1.7l-2.8-1L408.6,897.2
		L408.6,897.2z M420.6,905.9l-11.7-4.1l1-2.7l11.7,4.1L420.6,905.9z"/>
	<path class="st3" d="M392.2,886.9c-0.4-0.2-0.8-0.3-1.2-0.5c-0.4-0.2-0.8-0.3-1.2-0.4c-0.4-0.1-0.8-0.3-1.2-0.4l1.5-2.7l11.6,4.7
		l-1.1,2.6L392.2,886.9L392.2,886.9z M402.9,888.2c-0.2,0.5-0.5,0.9-0.6,1.3c-0.2,0.4-0.4,0.8-0.5,1.2s-0.4,0.9-0.6,1.4
		c-0.2,0.5-0.5,1.2-0.8,2l-4.6,11.2c-0.3,0.8-0.6,1.4-0.8,1.9s-0.4,1-0.6,1.5c-0.2,0.4-0.3,0.9-0.5,1.3c-0.1,0.4-0.3,0.8-0.4,1.3
		l-3.3-1.3c0.2-0.4,0.4-0.9,0.6-1.2s0.4-0.8,0.6-1.2c0.2-0.4,0.4-0.9,0.6-1.5s0.5-1.2,0.8-1.9l4.6-11.2c0.3-0.8,0.6-1.4,0.8-1.9
		s0.4-0.9,0.5-1.2s0.3-0.7,0.5-1.1c0.2-0.4,0.4-0.9,0.6-1.5l0-0.1L402.9,888.2L402.9,888.2z"/>
	<path class="st3" d="M358,895.1c0.3-0.4,0.5-0.8,0.7-1.2c0.2-0.4,0.4-0.8,0.6-1.2c0.2-0.4,0.5-0.9,0.7-1.4c0.2-0.5,0.5-1.2,0.9-1.9
		l2.9-6.1c0.9-2,2-3.5,3.1-4.7c1.1-1.2,2.3-2,3.5-2.5c1.2-0.5,2.5-0.7,3.7-0.6c1.3,0.1,2.5,0.5,3.8,1.1c1.2,0.6,2.3,1.3,3.2,2.2
		c0.9,0.9,1.6,2,2,3.2c0.4,1.2,0.5,2.7,0.3,4.3c-0.2,1.6-0.8,3.4-1.8,5.5l-2.9,6.1c-0.4,0.7-0.6,1.3-0.9,1.9c-0.2,0.5-0.5,1-0.7,1.4
		c-0.2,0.4-0.4,0.8-0.5,1.2c-0.2,0.4-0.3,0.8-0.5,1.3l-3.2-1.5c0.3-0.4,0.5-0.8,0.7-1.2c0.2-0.4,0.4-0.8,0.6-1.2
		c0.2-0.4,0.5-0.9,0.7-1.4c0.2-0.5,0.5-1.2,0.9-1.9l3-6.2c1.2-2.6,1.7-4.8,1.4-6.7c-0.3-1.8-1.5-3.3-3.7-4.3
		c-1.4-0.7-2.7-0.9-3.9-0.7c-1.2,0.2-2.3,0.8-3.3,1.8s-1.9,2.4-2.8,4.2l-2.9,6.1c-0.4,0.7-0.6,1.3-0.9,1.9c-0.2,0.5-0.5,1-0.7,1.4
		c-0.2,0.4-0.4,0.8-0.5,1.2c-0.2,0.4-0.3,0.8-0.5,1.3L358,895.1L358,895.1z"/>
	<path class="st3" d="M345.7,888.3c-2.9-1.7-5.1-3.5-6.6-5.5c-1.5-2-2.2-4.1-2.3-6.3c-0.1-2.2,0.5-4.3,1.7-6.4s2.8-3.7,4.7-4.8
		c2-1.1,4.2-1.5,6.7-1.4c2.5,0.2,5.2,1.1,8.1,2.8l2.9,1.6l-1.4,2.5l-2.8-1.6c-2.3-1.3-4.4-2-6.3-2.2c-1.9-0.2-3.7,0.2-5.2,1
		s-2.7,2.1-3.7,3.7s-1.4,3.3-1.3,5s0.7,3.3,1.8,4.8c1.1,1.5,2.8,3,5.1,4.3l3.2,1.8l-1.4,2.5L345.7,888.3L345.7,888.3z M363.1,869.5
		c-0.3,0.5-0.6,0.9-0.8,1.2c-0.2,0.4-0.5,0.7-0.7,1.1c-0.2,0.4-0.5,0.8-0.8,1.3c-0.3,0.5-0.6,1.1-1.1,1.9l-5.9,10.4
		c-0.4,0.7-0.7,1.3-1,1.8s-0.5,1-0.7,1.4s-0.4,0.8-0.6,1.2c-0.2,0.4-0.4,0.8-0.6,1.3l-3.1-1.8c0.4-0.7,0.7-1.2,1-1.7s0.5-1,0.9-1.5
		s0.8-1.4,1.4-2.4l6-10.5c0.5-1,1-1.7,1.3-2.3s0.6-1.1,0.9-1.5c0.3-0.5,0.6-1,1-1.7L363.1,869.5L363.1,869.5z"/>
	<path class="st3" d="M322.9,874.5c-1.7-1.1-2.9-2.3-3.7-3.5c-0.8-1.2-1.1-2.4-1-3.6c0.1-1.2,0.5-2.4,1.3-3.6c0.4-0.7,1-1.2,1.7-1.8
		s1.6-0.9,2.5-1.1c1-0.2,2.1-0.2,3.4,0.1c1.3,0.3,2.7,1,4.2,2l-1.9,1.5l-0.7-0.5c-0.9-0.5-1.8-0.8-2.6-0.8c-0.8,0-1.5,0.2-2.1,0.6
		c-0.6,0.4-1.1,0.9-1.5,1.6c-0.8,1.2-1,2.3-0.7,3.4s1.1,2.1,2.5,3l2.3,1.5l-1.6,2.4L322.9,874.5L322.9,874.5z M341.4,857
		c-0.3,0.4-0.6,0.8-0.9,1.1c-0.3,0.3-0.5,0.7-0.8,1c-0.2,0.4-0.5,0.8-0.9,1.3c-0.3,0.5-0.7,1.1-1.2,1.8l-6.8,10.1
		c-0.5,0.7-0.8,1.2-1.2,1.7s-0.6,0.9-0.9,1.3c-0.2,0.4-0.5,0.8-0.7,1.2c-0.2,0.4-0.5,0.8-0.7,1.2l-2.8-1.9c0.3-0.5,0.6-0.9,0.8-1.2
		s0.5-0.7,0.7-1c0.2-0.4,0.5-0.8,0.8-1.2s0.7-1.1,1.2-1.8l6.7-10.1c0.5-0.7,0.9-1.3,1.2-1.8c0.3-0.5,0.6-0.9,0.8-1.3
		s0.5-0.8,0.7-1.1c0.2-0.4,0.5-0.8,0.7-1.2L341.4,857z M327.4,861.5l-0.8-7.3c0-0.5-0.1-1-0.2-1.5c-0.1-0.5-0.1-1.1-0.2-1.7
		s-0.1-1.1-0.2-1.7c-0.1-0.5-0.1-1.1-0.2-1.6c-0.1-0.5-0.1-0.9-0.1-1.3l3.5,2.3c0,0.4,0.1,0.8,0.1,1.2c0,0.4,0.1,0.8,0.1,1.2
		c0.1,0.4,0.1,0.8,0.1,1.2c0,0.4,0.1,0.8,0.1,1.2c0,0.4,0.1,0.8,0.1,1.2l0.5,5.2c0,0.3,0.1,0.7,0.2,1.1s0.2,0.8,0.3,1.1
		c0.1,0.4,0.2,0.7,0.4,0.9L327.4,861.5L327.4,861.5z"/>
	<path class="st3" d="M304.8,838.5c0.2-0.8,0.5-1.4,0.6-2s0.4-1.2,0.6-1.8c0.2-0.6,0.4-1.2,0.5-1.7c0.1-0.5,0.2-0.8,0.2-1l2.8,2.1
		l0.2,0.2c-0.4,1.1-0.7,2-0.9,2.8c-0.3,0.8-0.5,1.6-0.8,2.4c-0.3,0.8-0.6,1.7-1,2.8l-4.9,13.6l-0.3-0.2l13.5-8.8
		c1-0.7,2-1.3,2.9-1.9c0.9-0.5,1.5-1,2.1-1.3c0.5-0.3,0.9-0.6,1-0.6l3,2.3c-0.1,0-0.4,0.2-0.8,0.4s-1,0.6-1.6,0.9s-1.3,0.8-2,1.2
		c-0.7,0.4-1.4,0.8-2,1.2c-0.6,0.4-1.3,0.8-2.1,1.2l-9.3,5.7c-0.7,0.5-1.4,0.8-1.9,1.2c-0.5,0.3-1.1,0.7-1.6,1
		c-0.5,0.3-1.2,0.7-1.9,1.2l-2.4-1.8L304.8,838.5L304.8,838.5z M313.5,850.5l-9.9-7.5l1.7-2.3l9.9,7.5L313.5,850.5z"/>
	<path class="st3" d="M273.2,818.4l1.8-2l16.6,15l-1.8,2L273.2,818.4z"/>
	<path class="st3" d="M256.6,792.7c0.4-0.7,0.7-1.3,1-1.9c0.3-0.5,0.6-1.1,0.9-1.7s0.6-1.1,0.8-1.5c0.2-0.5,0.4-0.8,0.4-0.9l2.3,2.5
		l0.2,0.2c-0.5,1-1,1.8-1.4,2.6c-0.4,0.7-0.8,1.5-1.2,2.2s-0.9,1.6-1.4,2.6l-7.3,12.5l-0.3-0.3l14.8-6.2c1.1-0.5,2.2-0.9,3.1-1.3
		s1.7-0.7,2.3-0.9c0.6-0.2,0.9-0.4,1.1-0.5l2.5,2.8c-0.1,0-0.4,0.1-0.9,0.3c-0.5,0.2-1.1,0.4-1.7,0.6c-0.7,0.2-1.4,0.5-2.2,0.8
		c-0.8,0.3-1.5,0.5-2.1,0.8c-0.7,0.2-1.4,0.5-2.2,0.8l-10.2,3.9c-0.8,0.3-1.5,0.6-2.1,0.8c-0.6,0.2-1.2,0.5-1.8,0.7
		s-1.3,0.5-2.1,0.8l-2-2.2L256.6,792.7L256.6,792.7z M263,806l-8.4-9.2l2.1-1.9l8.4,9.2L263,806z"/>
	<path class="st3" d="M256.9,783.3c-0.4,0.3-0.8,0.6-1.2,0.8c-0.3,0.2-0.7,0.5-1.1,0.8c-0.4,0.3-0.8,0.6-1.2,1
		c-0.4,0.4-1,0.8-1.6,1.4l-9.3,7.7c-0.6,0.5-1.2,1-1.6,1.3s-0.9,0.7-1.2,1s-0.7,0.6-1,0.9s-0.6,0.6-1,1l-2.3-2.7
		c0.4-0.3,0.8-0.5,1.1-0.8s0.7-0.5,1.1-0.8c0.4-0.3,0.8-0.6,1.2-1c0.4-0.4,1-0.8,1.6-1.3l9.3-7.7c0.7-0.5,1.2-1,1.6-1.3
		c0.4-0.3,0.7-0.6,1-0.8s0.6-0.5,0.9-0.8s0.8-0.6,1.3-1l0.1-0.1L256.9,783.3L256.9,783.3z M248,777.1c-0.3-0.3-0.6-0.7-0.8-1
		s-0.6-0.7-0.9-1s-0.6-0.6-0.9-0.9l2.6-1.7l8,9.6l-2.2,1.8L248,777.1L248,777.1z"/>
	<path class="st3" d="M214,768.5c0.4-0.2,0.8-0.5,1.2-0.7s0.7-0.5,1.1-0.8c0.4-0.3,0.8-0.6,1.3-0.9c0.5-0.3,1-0.8,1.7-1.2l5.5-4
		c1.8-1.3,3.4-2.2,4.9-2.7c1.5-0.5,2.9-0.7,4.2-0.5c1.3,0.2,2.5,0.6,3.6,1.3c1.1,0.7,2,1.6,2.8,2.8c0.8,1.1,1.4,2.3,1.8,3.5
		s0.5,2.5,0.2,3.8c-0.2,1.3-0.8,2.6-1.7,3.9c-0.9,1.3-2.3,2.6-4.2,4l-5.5,4c-0.6,0.5-1.2,0.9-1.7,1.2c-0.5,0.3-0.9,0.7-1.3,1
		c-0.4,0.3-0.7,0.6-1.1,0.8s-0.7,0.6-1.1,0.9l-2.1-2.9c0.4-0.3,0.8-0.5,1.2-0.7s0.7-0.5,1.1-0.8c0.4-0.3,0.8-0.6,1.3-0.9
		c0.5-0.3,1-0.8,1.7-1.2l5.6-4.1c2.3-1.7,3.8-3.5,4.4-5.2c0.6-1.8,0.2-3.6-1.2-5.5c-0.9-1.3-1.9-2.1-3.1-2.5c-1.1-0.4-2.4-0.4-3.7,0
		c-1.4,0.4-2.8,1.2-4.4,2.4l-5.5,4c-0.6,0.5-1.2,0.9-1.7,1.2c-0.5,0.3-0.9,0.7-1.3,1c-0.4,0.3-0.7,0.6-1.1,0.8s-0.7,0.6-1.1,0.9
		L214,768.5L214,768.5z"/>
	<path class="st3" d="M206,756.3c-1.8-2.9-2.8-5.5-3.1-8c-0.3-2.5,0-4.7,1-6.6s2.5-3.6,4.6-4.8s4.2-2,6.5-2c2.2,0,4.4,0.6,6.5,2
		c2.1,1.4,4.1,3.5,5.8,6.3l1.7,2.8l-2.4,1.5l-1.7-2.7c-1.4-2.2-2.9-3.9-4.5-4.9c-1.6-1.1-3.3-1.6-5-1.6c-1.7,0-3.4,0.5-5,1.5
		s-2.8,2.2-3.5,3.8s-1,3.2-0.7,5.1s1.1,4,2.4,6.2l2,3.2l-2.4,1.5L206,756.3L206,756.3z M230.3,748.2c-0.5,0.3-0.9,0.5-1.3,0.7
		c-0.4,0.2-0.8,0.4-1.1,0.7c-0.4,0.2-0.8,0.5-1.3,0.8c-0.5,0.3-1.1,0.7-1.9,1.2l-10.2,6.3c-0.7,0.4-1.3,0.8-1.8,1.1
		s-0.9,0.6-1.3,0.9c-0.4,0.3-0.8,0.5-1.1,0.8s-0.7,0.5-1.1,0.8l-1.9-3c0.6-0.4,1.2-0.7,1.6-1c0.4-0.3,0.9-0.6,1.5-0.9
		c0.6-0.3,1.3-0.8,2.3-1.4l10.3-6.4c0.9-0.6,1.7-1,2.2-1.4c0.6-0.3,1.1-0.7,1.5-0.9s1-0.6,1.7-1L230.3,748.2L230.3,748.2z"/>
	<path class="st3" d="M192.4,733.3c-1-1.8-1.5-3.4-1.6-4.8c-0.1-1.4,0.1-2.7,0.8-3.7s1.6-1.9,2.9-2.6c0.7-0.4,1.5-0.6,2.3-0.8
		s1.8-0.1,2.8,0.2c1,0.3,1.9,0.8,2.9,1.7c1,0.9,1.9,2.1,2.8,3.7l-2.4,0.5l-0.4-0.7c-0.6-0.9-1.2-1.5-1.9-1.9s-1.4-0.5-2.1-0.4
		c-0.7,0.1-1.4,0.3-2.1,0.7c-1.3,0.7-2,1.6-2.3,2.7s0,2.4,0.8,3.8l1.3,2.4l-2.5,1.3L192.4,733.3L192.4,733.3z M217,726.4
		c-0.5,0.2-0.9,0.4-1.3,0.6s-0.8,0.4-1.2,0.6s-0.8,0.4-1.4,0.7c-0.5,0.3-1.1,0.6-1.9,1l-10.7,5.7c-0.7,0.4-1.3,0.7-1.8,1
		c-0.5,0.3-1,0.5-1.4,0.8c-0.4,0.2-0.8,0.5-1.2,0.7c-0.4,0.2-0.8,0.5-1.2,0.8l-1.6-3c0.5-0.3,0.9-0.5,1.3-0.7
		c0.4-0.2,0.7-0.4,1.1-0.6c0.4-0.2,0.8-0.4,1.3-0.7s1.1-0.6,1.9-1l10.7-5.7c0.8-0.4,1.4-0.7,1.9-1s0.9-0.5,1.3-0.7s0.8-0.5,1.1-0.7
		s0.8-0.5,1.2-0.8L217,726.4L217,726.4z M202.6,723.9l2.7-6.8c0.2-0.5,0.4-0.9,0.6-1.4s0.4-1,0.6-1.6c0.2-0.5,0.4-1.1,0.6-1.6
		s0.4-1,0.6-1.5c0.2-0.5,0.4-0.9,0.5-1.3l2,3.7c-0.1,0.3-0.3,0.7-0.4,1.1s-0.3,0.8-0.4,1.1c-0.1,0.4-0.3,0.8-0.4,1.2
		c-0.1,0.4-0.3,0.8-0.4,1.2c-0.1,0.4-0.3,0.7-0.4,1.1l-2,4.8c-0.1,0.3-0.2,0.6-0.3,1c-0.1,0.4-0.2,0.8-0.3,1.1
		c-0.1,0.4-0.1,0.7-0.1,1L202.6,723.9L202.6,723.9z"/>
	<path class="st3" d="M193.7,693.7c0.6-0.5,1.1-1,1.5-1.5c0.4-0.4,0.9-0.8,1.3-1.3s0.9-0.8,1.2-1.2s0.6-0.6,0.7-0.8l1.4,3.1l0.1,0.2
		c-0.8,0.8-1.5,1.4-2.1,2s-1.2,1.2-1.8,1.7c-0.6,0.6-1.3,1.2-2.2,2l-10.8,9.7l-0.2-0.4l16-1.4c1.2-0.1,2.4-0.2,3.4-0.3
		s1.8-0.1,2.5-0.2c0.6,0,1-0.1,1.2-0.1l1.6,3.4c-0.1,0-0.4,0-0.9,0c-0.5,0-1.1,0-1.9,0.1c-0.7,0-1.5,0.1-2.3,0.1
		c-0.8,0-1.6,0.1-2.3,0.1c-0.7,0-1.5,0.1-2.4,0.1l-10.9,0.6c-0.9,0.1-1.6,0.1-2.2,0.1c-0.6,0-1.2,0.1-1.9,0.1
		c-0.6,0-1.4,0.1-2.2,0.1l-1.2-2.7L193.7,693.7L193.7,693.7z M195.8,708.4l-5.2-11.3l2.6-1.2l5.2,11.3L195.8,708.4z"/>
	<path class="st3" d="M175.8,662.5l2.5-0.9l7.5,21.1l-2.5,0.9L175.8,662.5z"/>
	<path class="st3" d="M173,632.2c0.7-0.5,1.2-0.8,1.7-1.2c0.5-0.3,1-0.7,1.5-1.1c0.5-0.4,1-0.7,1.4-1c0.4-0.3,0.7-0.5,0.8-0.6
		l0.9,3.3l0.1,0.2c-0.9,0.6-1.8,1.2-2.4,1.6c-0.7,0.5-1.4,0.9-2.1,1.4s-1.5,1-2.5,1.6l-12.2,7.8l-0.1-0.4l16,1.3
		c1.2,0.1,2.4,0.2,3.4,0.3c1,0.1,1.8,0.2,2.5,0.2s1,0.1,1.2,0.1l1,3.6c-0.1,0-0.4-0.1-0.9-0.1s-1.1-0.2-1.8-0.2
		c-0.7-0.1-1.5-0.2-2.3-0.3s-1.6-0.2-2.2-0.3s-1.5-0.2-2.4-0.3l-10.8-1.2c-0.9-0.1-1.6-0.2-2.2-0.2s-1.2-0.1-1.9-0.2
		c-0.6-0.1-1.4-0.2-2.2-0.2l-0.8-2.9L173,632.2L173,632.2z M172.6,647l-3.2-12l2.8-0.8l3.2,12L172.6,647z"/>
	<path class="st3" d="M177.5,623.5c-0.5,0.1-1,0.1-1.4,0.2c-0.4,0.1-0.9,0.1-1.3,0.2s-0.9,0.2-1.5,0.3s-1.3,0.3-2.1,0.4l-11.9,2.4
		c-0.8,0.2-1.5,0.3-2,0.4c-0.6,0.1-1.1,0.2-1.6,0.3c-0.5,0.1-0.9,0.2-1.3,0.3c-0.4,0.1-0.9,0.2-1.3,0.4l-0.7-3.5
		c0.5,0,1-0.1,1.4-0.2s0.9-0.1,1.3-0.2c0.5-0.1,1-0.2,1.6-0.3c0.6-0.1,1.2-0.3,2-0.4l11.9-2.4c0.8-0.2,1.5-0.3,2-0.4
		s0.9-0.2,1.3-0.3s0.8-0.2,1.2-0.2s1-0.2,1.6-0.3l0.1,0L177.5,623.5L177.5,623.5z M172.6,613.8c-0.1-0.4-0.2-0.8-0.3-1.3
		s-0.2-0.8-0.3-1.3c-0.1-0.4-0.2-0.8-0.3-1.2l3-0.3l2.5,12.2l-2.8,0.6L172.6,613.8L172.6,613.8z"/>
	<path class="st3" d="M146.4,590.6c0.5,0,1-0.1,1.4-0.1s0.9-0.1,1.4-0.2c0.5-0.1,1-0.1,1.6-0.2c0.6-0.1,1.3-0.2,2.1-0.3l6.7-1
		c2.1-0.3,4-0.4,5.6-0.1s2.9,0.8,4,1.5s1.9,1.7,2.6,2.8c0.6,1.1,1.1,2.4,1.3,3.8c0.2,1.4,0.2,2.7,0,3.9s-0.7,2.4-1.5,3.5
		c-0.8,1.1-1.9,2-3.4,2.7c-1.4,0.7-3.3,1.3-5.5,1.6l-6.7,1c-0.8,0.1-1.5,0.2-2.1,0.3c-0.6,0.1-1.1,0.2-1.6,0.3
		c-0.5,0.1-0.9,0.2-1.3,0.3s-0.9,0.2-1.4,0.3L149,607c0.5,0,1-0.1,1.4-0.1s0.9-0.1,1.4-0.2c0.5-0.1,1-0.1,1.6-0.2
		c0.6-0.1,1.3-0.2,2.1-0.3l6.8-1c2.9-0.4,5-1.3,6.3-2.6s1.9-3.1,1.5-5.5c-0.2-1.5-0.8-2.8-1.6-3.6s-1.9-1.4-3.3-1.7
		c-1.4-0.3-3.1-0.2-5,0.1l-6.7,1c-0.8,0.1-1.5,0.2-2.1,0.3c-0.6,0.1-1.1,0.2-1.6,0.3s-0.9,0.2-1.3,0.3s-0.9,0.2-1.4,0.3L146.4,590.6
		L146.4,590.6z"/>
	<path class="st3" d="M145.2,576.1c-0.3-3.4,0-6.2,0.9-8.5c0.9-2.3,2.1-4.1,3.9-5.4c1.8-1.3,3.9-2,6.3-2.2s4.6,0.2,6.6,1.2
		c2,1,3.6,2.6,4.9,4.8s2,4.9,2.3,8.3l0.2,3.3l-2.8,0.2l-0.2-3.2c-0.2-2.6-0.8-4.8-1.7-6.4s-2.2-2.9-3.8-3.7c-1.5-0.8-3.2-1.1-5.1-1
		s-3.5,0.7-4.9,1.7c-1.4,1-2.4,2.4-3,4.2s-0.9,4-0.7,6.6l0.3,3.7l-2.8,0.2L145.2,576.1L145.2,576.1z M170.5,580c-0.6,0-1.1,0-1.5,0
		s-0.9,0-1.3,0c-0.4,0-1,0.1-1.6,0.1s-1.3,0.1-2.2,0.2l-11.9,0.9c-0.8,0.1-1.5,0.1-2.1,0.2c-0.6,0.1-1.1,0.1-1.6,0.2
		s-0.9,0.1-1.3,0.2s-0.9,0.1-1.4,0.2l-0.3-3.5c0.8-0.1,1.4-0.1,1.9-0.2c0.5,0,1.1-0.1,1.8-0.1s1.6-0.1,2.7-0.2l12.1-0.9
		c1.1-0.1,2-0.2,2.6-0.2s1.2-0.1,1.8-0.1c0.5,0,1.2-0.1,2-0.2L170.5,580L170.5,580z"/>
	<path class="st3" d="M143.9,549.5c0-2,0.2-3.7,0.8-5c0.6-1.3,1.4-2.3,2.4-2.9c1-0.6,2.3-1,3.7-1c0.8,0,1.6,0.1,2.4,0.4
		c0.8,0.3,1.6,0.8,2.4,1.5c0.7,0.7,1.3,1.6,1.8,2.9s0.7,2.7,0.7,4.6l-2.3-0.7v-0.8c-0.1-1.1-0.4-1.9-0.9-2.5c-0.5-0.6-1-1.1-1.7-1.3
		c-0.7-0.3-1.4-0.4-2.2-0.4c-1.4,0-2.5,0.5-3.3,1.3c-0.7,0.9-1.1,2.1-1.1,3.7l0,2.7l-2.9,0L143.9,549.5L143.9,549.5z M168.9,554.7
		c-0.5,0-1-0.1-1.4-0.1c-0.4,0-0.9,0-1.3,0c-0.4,0-0.9,0-1.5,0s-1.3,0-2.1,0l-12.1,0.2c-0.8,0-1.5,0-2.1,0c-0.6,0-1.1,0-1.6,0.1
		c-0.5,0-0.9,0.1-1.4,0.1c-0.4,0-0.9,0.1-1.4,0.1l-0.1-3.4c0.6,0,1.1,0,1.5,0s0.8,0,1.3,0c0.4,0,0.9,0,1.5,0c0.6,0,1.3,0,2.2,0
		l12.1-0.2c0.9,0,1.6,0,2.1,0c0.6,0,1.1,0,1.5,0c0.4,0,0.9,0,1.3-0.1c0.4,0,0.9-0.1,1.4-0.1L168.9,554.7L168.9,554.7z M157.2,545.8
		l5.5-4.8c0.4-0.3,0.8-0.7,1.2-1c0.4-0.4,0.8-0.7,1.2-1.1c0.4-0.4,0.8-0.8,1.2-1.1s0.8-0.7,1.2-1c0.4-0.3,0.7-0.6,1-0.9l0.1,4.2
		c-0.3,0.2-0.6,0.5-0.9,0.8c-0.3,0.3-0.6,0.5-0.9,0.8c-0.3,0.3-0.6,0.5-0.9,0.8s-0.6,0.5-0.9,0.8s-0.6,0.5-0.9,0.8l-4,3.4
		c-0.2,0.2-0.5,0.5-0.8,0.8c-0.3,0.3-0.5,0.6-0.8,0.9c-0.2,0.3-0.4,0.6-0.5,0.9L157.2,545.8L157.2,545.8z"/>
	<path class="st3" d="M163.4,514.7c0.8-0.2,1.4-0.4,2-0.6c0.6-0.2,1.2-0.3,1.8-0.5c0.6-0.2,1.2-0.3,1.6-0.5s0.8-0.3,0.9-0.4
		l-0.2,3.5v0.2c-1.1,0.3-2,0.6-2.8,0.8c-0.8,0.2-1.6,0.5-2.4,0.7c-0.8,0.2-1.8,0.5-2.8,0.8l-14,3.6l0-0.4l14.9,6.1
		c1.2,0.5,2.2,0.9,3.1,1.3s1.7,0.7,2.3,1c0.6,0.2,0.9,0.4,1.1,0.5l-0.2,3.7c-0.1,0-0.4-0.2-0.8-0.4s-1-0.5-1.7-0.8s-1.4-0.6-2.1-1
		c-0.7-0.3-1.4-0.7-2.1-1c-0.6-0.3-1.4-0.6-2.2-1l-9.9-4.4c-0.8-0.3-1.5-0.7-2-0.9c-0.6-0.2-1.1-0.5-1.7-0.8
		c-0.6-0.3-1.3-0.6-2.1-0.9l0.1-3L163.4,514.7L163.4,514.7z M158.4,528.7l0.6-12.4l2.8,0.1l-0.6,12.4L158.4,528.7z"/>
	<path class="st3" d="M162.3,478.2l2.6,0.4l-3.3,22.1l-2.6-0.4L162.3,478.2z"/>
	<path class="st3" d="M174.1,450c0.8-0.1,1.5-0.1,2.1-0.2c0.6-0.1,1.2-0.1,1.9-0.2s1.2-0.1,1.7-0.2c0.5-0.1,0.8-0.1,1-0.2l-0.8,3.4
		l-0.1,0.2c-1.1,0.1-2.1,0.2-2.9,0.3c-0.8,0.1-1.6,0.2-2.5,0.2c-0.8,0.1-1.8,0.2-2.9,0.3l-14.4,1l0.1-0.4l13.5,8.7
		c1.1,0.7,2,1.3,2.9,1.8s1.5,1,2.1,1.4s0.9,0.5,1,0.6l-0.9,3.6c-0.1-0.1-0.3-0.2-0.7-0.6c-0.4-0.3-0.9-0.7-1.5-1.1
		c-0.6-0.4-1.2-0.9-1.9-1.3s-1.3-0.9-1.9-1.3s-1.2-0.9-2-1.4l-9-6.2c-0.7-0.5-1.3-0.9-1.8-1.3c-0.5-0.4-1-0.7-1.6-1.1
		s-1.1-0.8-1.9-1.3l0.7-2.9L174.1,450L174.1,450z M166.7,462.9l2.8-12.1l2.8,0.6l-2.8,12.1L166.7,462.9z"/>
	<path class="st3" d="M182.5,443c-0.5-0.2-0.9-0.4-1.3-0.5c-0.4-0.1-0.8-0.3-1.2-0.4c-0.4-0.1-0.9-0.3-1.5-0.5
		c-0.6-0.2-1.2-0.4-2.1-0.6l-11.6-3.5c-0.8-0.2-1.4-0.4-2-0.6c-0.6-0.2-1.1-0.3-1.5-0.4c-0.5-0.1-0.9-0.2-1.3-0.3
		c-0.4-0.1-0.9-0.2-1.4-0.3l1-3.4c0.5,0.2,0.9,0.4,1.3,0.5s0.8,0.3,1.3,0.4s0.9,0.3,1.5,0.5c0.6,0.2,1.2,0.4,2,0.6l11.6,3.5
		c0.8,0.2,1.5,0.4,2,0.6s0.9,0.3,1.3,0.4c0.4,0.1,0.8,0.2,1.2,0.4s0.9,0.3,1.6,0.5l0.1,0L182.5,443L182.5,443z M182.8,432.1
		c0.1-0.4,0.2-0.8,0.4-1.2s0.2-0.8,0.3-1.3c0.1-0.4,0.2-0.8,0.3-1.2l2.8,1.2l-3.6,12l-2.7-0.8L182.8,432.1L182.8,432.1z"/>
	<path class="st3" d="M172.4,395.3c0.4,0.2,0.9,0.4,1.3,0.6c0.4,0.2,0.8,0.4,1.2,0.5s0.9,0.4,1.5,0.6c0.5,0.2,1.2,0.5,1.9,0.7
		l6.4,2.4c2,0.8,3.7,1.7,4.9,2.7s2.2,2.1,2.8,3.3c0.6,1.2,0.9,2.4,0.9,3.7s-0.3,2.6-0.8,3.9c-0.5,1.3-1.1,2.4-2,3.4
		c-0.8,1-1.8,1.7-3,2.3c-1.2,0.5-2.6,0.8-4.2,0.7c-1.6-0.1-3.5-0.5-5.6-1.3l-6.4-2.4c-0.8-0.3-1.4-0.5-1.9-0.7
		c-0.5-0.2-1-0.4-1.5-0.5c-0.4-0.2-0.9-0.3-1.3-0.4c-0.4-0.1-0.9-0.3-1.3-0.4l1.3-3.3c0.4,0.2,0.9,0.4,1.3,0.6
		c0.4,0.2,0.8,0.4,1.2,0.5s0.9,0.4,1.5,0.6c0.5,0.2,1.2,0.5,1.9,0.7l6.5,2.5c2.7,1,5,1.3,6.8,0.8c1.8-0.5,3.1-1.8,4-4
		c0.6-1.5,0.7-2.8,0.4-3.9c-0.3-1.1-1-2.2-2.1-3.1s-2.6-1.7-4.4-2.4l-6.4-2.4c-0.8-0.3-1.4-0.5-1.9-0.7s-1-0.4-1.5-0.5
		s-0.9-0.3-1.3-0.4c-0.4-0.1-0.9-0.3-1.3-0.4L172.4,395.3L172.4,395.3z"/>
	<path class="st3" d="M198.6,397c-0.5-0.3-0.9-0.5-1.3-0.7s-0.8-0.4-1.2-0.6s-0.9-0.4-1.4-0.7s-1.2-0.5-2-0.9l-10.9-5
		c-0.7-0.3-1.4-0.6-1.9-0.9c-0.5-0.2-1-0.4-1.5-0.6c-0.4-0.2-0.9-0.3-1.3-0.5s-0.8-0.3-1.3-0.5l1.5-3.2c0.7,0.3,1.3,0.6,1.7,0.8
		s1,0.5,1.6,0.7c0.6,0.3,1.4,0.7,2.5,1.1l11,5.1c1,0.5,1.8,0.8,2.4,1.1c0.6,0.3,1.1,0.5,1.6,0.8s1.1,0.5,1.8,0.8L198.6,397
		L198.6,397z M178.5,381.2c1.4-3.1,3.1-5.4,4.9-7c1.9-1.6,3.9-2.6,6.1-2.8s4.4,0.1,6.6,1.2c2.2,1,3.9,2.5,5.2,4.3s1.9,4,1.9,6.5
		c0,2.5-0.7,5.3-2.1,8.3l-1.4,3l-2.6-1.2l1.3-2.9c1.1-2.4,1.6-4.5,1.6-6.5c0-1.9-0.5-3.6-1.5-5.1s-2.3-2.5-4-3.3s-3.4-1.1-5.1-0.9
		c-1.7,0.2-3.2,0.9-4.7,2.2c-1.4,1.3-2.7,3.1-3.8,5.5l-1.6,3.4l-2.6-1.2L178.5,381.2L178.5,381.2z"/>
	<path class="st3" d="M209.5,374c-0.4-0.3-0.8-0.5-1.2-0.8s-0.7-0.5-1.1-0.7c-0.4-0.2-0.8-0.5-1.3-0.7c-0.5-0.3-1.1-0.6-1.9-1
		l-10.7-5.8c-0.7-0.4-1.3-0.7-1.8-1s-1-0.5-1.4-0.7c-0.4-0.2-0.8-0.4-1.2-0.6c-0.4-0.2-0.8-0.4-1.3-0.6l1.6-3
		c0.5,0.3,0.9,0.5,1.3,0.7c0.4,0.2,0.7,0.4,1.1,0.6c0.4,0.2,0.8,0.4,1.3,0.7c0.5,0.3,1.1,0.6,1.9,1l10.6,5.8c0.8,0.4,1.4,0.7,1.9,1
		s0.9,0.5,1.4,0.7c0.4,0.2,0.8,0.4,1.2,0.6s0.8,0.4,1.3,0.6L209.5,374L209.5,374z M190.2,357.2c1-1.8,2-3.1,3.1-4
		c1.1-0.9,2.3-1.3,3.5-1.4c1.2,0,2.5,0.3,3.7,1c0.7,0.4,1.3,0.9,1.9,1.5c0.6,0.7,1,1.5,1.3,2.4c0.3,1,0.4,2.1,0.2,3.4
		c-0.2,1.3-0.7,2.7-1.6,4.4l-1.7-1.7l0.4-0.7c0.4-1,0.6-1.9,0.5-2.6c-0.1-0.8-0.4-1.5-0.8-2s-1-1-1.7-1.4c-1.3-0.7-2.4-0.8-3.5-0.4
		s-2,1.3-2.7,2.7l-1.3,2.4l-2.5-1.4L190.2,357.2L190.2,357.2z M203.7,360.5l7.1-1.5c0.5-0.1,1-0.2,1.5-0.3s1.1-0.2,1.6-0.4
		s1.1-0.3,1.6-0.4c0.5-0.1,1.1-0.2,1.5-0.3c0.5-0.1,0.9-0.2,1.3-0.3l-2,3.7c-0.4,0.1-0.7,0.1-1.1,0.2c-0.4,0.1-0.8,0.2-1.2,0.3
		c-0.4,0.1-0.8,0.2-1.2,0.3s-0.8,0.2-1.2,0.3c-0.4,0.1-0.8,0.2-1.1,0.2l-5.1,1c-0.3,0.1-0.7,0.2-1,0.3s-0.8,0.2-1.1,0.4
		c-0.3,0.1-0.6,0.3-0.9,0.5L203.7,360.5L203.7,360.5z"/>
	<path class="st3" d="M225.8,333.8c0.8,0.2,1.5,0.4,2.1,0.5c0.6,0.1,1.2,0.3,1.8,0.4c0.6,0.1,1.2,0.3,1.7,0.4c0.5,0.1,0.8,0.2,1,0.1
		l-1.9,2.9l-0.1,0.2c-1.1-0.3-2-0.5-2.9-0.7c-0.8-0.2-1.6-0.4-2.4-0.6c-0.8-0.2-1.8-0.5-2.9-0.7l-14-3.8l0.2-0.3l9.9,12.7
		c0.8,1,1.5,1.9,2.1,2.7s1.1,1.5,1.5,2s0.6,0.8,0.7,0.9l-2,3.1c-0.1-0.1-0.2-0.4-0.5-0.8c-0.3-0.4-0.6-0.9-1.1-1.5
		c-0.4-0.6-0.9-1.2-1.3-1.9s-0.9-1.3-1.3-1.9s-0.9-1.2-1.4-2l-6.4-8.8c-0.5-0.7-1-1.3-1.3-1.8s-0.7-1-1.1-1.5
		c-0.4-0.5-0.8-1.1-1.3-1.8l1.6-2.5L225.8,333.8L225.8,333.8z M214.5,343.5l6.6-10.5l2.4,1.5l-6.6,10.5L214.5,343.5z"/>
	<path class="st3" d="M243.4,300.3l2.1,1.6L232,319.7l-2.1-1.6L243.4,300.3z"/>
	<path class="st3" d="M267.6,281.5c0.7,0.3,1.4,0.6,1.9,0.8s1.1,0.5,1.7,0.7c0.6,0.2,1.1,0.5,1.6,0.7s0.8,0.3,1,0.3l-2.4,2.5
		l-0.2,0.2c-1-0.5-1.9-0.9-2.7-1.2s-1.5-0.7-2.3-1c-0.8-0.4-1.6-0.8-2.7-1.2l-13.1-6.2l0.3-0.3l7.4,14.2c0.6,1.1,1.1,2.1,1.6,3
		c0.5,0.9,0.8,1.6,1.1,2.2s0.5,0.9,0.5,1l-2.5,2.7c0-0.1-0.2-0.4-0.4-0.8c-0.2-0.5-0.5-1-0.8-1.7s-0.6-1.4-1-2.1s-0.7-1.4-1-2
		s-0.6-1.4-1-2.2l-4.8-9.8c-0.4-0.8-0.7-1.4-1-2c-0.3-0.6-0.6-1.1-0.8-1.7c-0.3-0.6-0.6-1.2-1-2l2-2.2L267.6,281.5L267.6,281.5z
		 M254.9,289l8.4-9.1l2.1,1.9L257,291L254.9,289z"/>
	<path class="st3" d="M278.9,279c-0.3-0.4-0.6-0.8-0.9-1.1s-0.6-0.6-0.9-1s-0.6-0.7-1-1.1c-0.4-0.4-0.9-0.9-1.5-1.5l-8.4-8.7
		c-0.6-0.6-1-1.1-1.4-1.5s-0.8-0.8-1.1-1.1c-0.3-0.3-0.7-0.6-1-0.9s-0.7-0.6-1-0.9l2.6-2.5c0.3,0.4,0.6,0.8,0.9,1.1
		c0.3,0.3,0.6,0.7,0.9,1s0.7,0.7,1.1,1.2s0.9,0.9,1.4,1.5l8.4,8.7c0.6,0.6,1.1,1.1,1.4,1.5s0.7,0.7,0.9,1c0.3,0.3,0.5,0.6,0.9,0.9
		c0.3,0.3,0.7,0.7,1.1,1.2l0.1,0.1L278.9,279L278.9,279z M284.5,269.8c0.3-0.3,0.6-0.6,0.9-0.9s0.6-0.6,0.9-1c0.3-0.3,0.6-0.6,0.9-1
		l1.8,2.4l-9,8.6l-2-2.1L284.5,269.8L284.5,269.8z"/>
	<path class="st3" d="M291.9,234c0.3,0.4,0.6,0.8,0.8,1.1c0.3,0.3,0.5,0.7,0.8,1.1c0.3,0.4,0.6,0.8,1,1.2s0.8,1,1.4,1.6l4.4,5.2
		c1.4,1.6,2.4,3.2,3,4.7c0.6,1.5,0.9,2.9,0.8,4.2c-0.1,1.3-0.4,2.5-1,3.6c-0.6,1.1-1.5,2.1-2.5,3c-1,0.9-2.2,1.6-3.4,2
		s-2.4,0.6-3.8,0.5c-1.3-0.1-2.7-0.6-4-1.5c-1.4-0.9-2.8-2.1-4.3-3.9l-4.4-5.2c-0.5-0.6-1-1.1-1.4-1.6s-0.7-0.8-1-1.2
		c-0.3-0.4-0.6-0.7-0.9-1c-0.3-0.3-0.6-0.6-1-1l2.7-2.3c0.3,0.4,0.6,0.8,0.8,1.1c0.3,0.3,0.5,0.7,0.8,1.1s0.6,0.8,1,1.2
		s0.8,1,1.4,1.6l4.5,5.3c1.9,2.2,3.7,3.5,5.5,4c1.8,0.5,3.6-0.1,5.4-1.6c1.2-1,1.9-2.1,2.2-3.2s0.2-2.4-0.3-3.7s-1.4-2.7-2.7-4.2
		l-4.4-5.2c-0.5-0.6-1-1.1-1.4-1.6s-0.7-0.8-1-1.2c-0.3-0.4-0.6-0.7-0.9-1c-0.3-0.3-0.6-0.6-1-1L291.9,234L291.9,234z"/>
	<path class="st3" d="M313.5,248.8c-0.3-0.5-0.6-0.9-0.8-1.3s-0.5-0.7-0.7-1.1s-0.6-0.8-0.9-1.3s-0.8-1.1-1.3-1.8l-7-9.7
		c-0.5-0.6-0.9-1.2-1.2-1.7c-0.4-0.5-0.7-0.9-1-1.2c-0.3-0.4-0.6-0.7-0.9-1s-0.6-0.7-0.9-1.1l2.9-2.1c0.5,0.6,0.8,1.1,1.1,1.6
		s0.6,0.9,1,1.4c0.4,0.5,0.9,1.3,1.6,2.2l7.1,9.8c0.7,0.9,1.2,1.6,1.6,2.1c0.4,0.5,0.7,1,1,1.4c0.3,0.4,0.7,1,1.2,1.6L313.5,248.8
		L313.5,248.8z M303.5,225.2c2.7-2,5.3-3.2,7.7-3.7c2.4-0.5,4.7-0.4,6.7,0.5s3.7,2.2,5.2,4.2c1.4,2,2.3,4.1,2.5,6.3
		s-0.3,4.4-1.5,6.6c-1.2,2.2-3.1,4.3-5.9,6.3l-2.6,1.9l-1.7-2.3l2.6-1.9c2.1-1.5,3.6-3.2,4.6-4.9c0.9-1.7,1.3-3.4,1.2-5.1
		c-0.1-1.7-0.8-3.3-1.9-4.9c-1.1-1.5-2.5-2.6-4-3.2c-1.6-0.6-3.3-0.7-5.2-0.3c-1.9,0.4-3.9,1.4-6,2.9l-3,2.2l-1.7-2.3L303.5,225.2
		L303.5,225.2z"/>
	<path class="st3" d="M333.5,234.5c-0.2-0.5-0.5-0.9-0.7-1.3c-0.2-0.4-0.4-0.8-0.6-1.1c-0.2-0.4-0.5-0.8-0.8-1.3s-0.7-1.1-1.1-1.8
		l-6.5-10.2c-0.4-0.7-0.8-1.3-1.1-1.8c-0.3-0.5-0.6-0.9-0.9-1.3c-0.3-0.4-0.5-0.8-0.8-1.1c-0.2-0.4-0.5-0.7-0.8-1.1l2.9-1.8
		c0.3,0.5,0.6,0.9,0.8,1.2s0.5,0.7,0.7,1.1c0.2,0.4,0.5,0.8,0.8,1.3s0.7,1.1,1.2,1.8l6.5,10.2c0.5,0.7,0.8,1.3,1.1,1.8
		s0.6,0.9,0.8,1.3c0.2,0.4,0.5,0.7,0.8,1.1s0.5,0.7,0.9,1.1L333.5,234.5L333.5,234.5z M324.9,210.5c1.7-1.1,3.3-1.8,4.7-2
		c1.4-0.2,2.6-0.1,3.7,0.5c1.1,0.6,2,1.4,2.8,2.7c0.4,0.7,0.7,1.4,0.9,2.3s0.2,1.8,0,2.8c-0.2,1-0.7,2-1.5,3c-0.8,1-2,2.1-3.5,3
		l-0.6-2.3l0.7-0.4c0.9-0.6,1.4-1.3,1.7-2.1c0.3-0.7,0.4-1.4,0.2-2.2c-0.1-0.7-0.4-1.4-0.8-2c-0.8-1.2-1.7-1.9-2.9-2.1
		c-1.1-0.1-2.4,0.2-3.7,1.1l-2.3,1.5l-1.5-2.4L324.9,210.5L324.9,210.5z M335,219.9l7,2.2c0.5,0.1,1,0.3,1.5,0.5
		c0.5,0.2,1.1,0.3,1.6,0.5c0.5,0.2,1.1,0.3,1.6,0.5c0.5,0.1,1,0.3,1.5,0.4s0.9,0.3,1.3,0.4l-3.5,2.2c-0.4-0.1-0.7-0.2-1.1-0.4
		c-0.4-0.1-0.8-0.2-1.2-0.4c-0.4-0.1-0.8-0.2-1.2-0.4c-0.4-0.1-0.8-0.2-1.2-0.4c-0.4-0.1-0.8-0.2-1.1-0.4l-5-1.6
		c-0.3-0.1-0.7-0.2-1-0.3c-0.4-0.1-0.8-0.1-1.1-0.2c-0.4-0.1-0.7,0-1,0L335,219.9L335,219.9z"/>
	<path class="st3" d="M366.3,207.9c0.6,0.6,1.1,1,1.5,1.4s0.9,0.8,1.4,1.3s0.9,0.8,1.3,1.1c0.4,0.3,0.6,0.5,0.8,0.6l-3,1.6l-0.2,0.1
		c-0.8-0.8-1.5-1.4-2.1-2c-0.6-0.6-1.2-1.1-1.8-1.7s-1.3-1.2-2.1-2l-10.3-10.1l0.3-0.2l2.4,15.9c0.2,1.2,0.4,2.4,0.5,3.4
		c0.1,1,0.2,1.8,0.3,2.4s0.1,1,0.2,1.2l-3.3,1.8c0-0.1,0-0.4-0.1-0.9c0-0.5-0.1-1.1-0.2-1.8s-0.2-1.5-0.2-2.3
		c-0.1-0.8-0.2-1.6-0.2-2.2c-0.1-0.7-0.2-1.5-0.3-2.4l-1.3-10.8c-0.1-0.9-0.2-1.6-0.3-2.2c-0.1-0.6-0.1-1.2-0.2-1.9
		s-0.2-1.4-0.3-2.2l2.6-1.4L366.3,207.9L366.3,207.9z M351.8,210.8l10.9-5.9l1.4,2.5l-10.9,5.9L351.8,210.8z"/>
	<path class="st3" d="M398.7,186.9l1,2.4l-20.6,8.8l-1-2.4L398.7,186.9z"/>
	<g>
		<defs>
			<rect id="SVGID_6_" x="61.7" y="64.9" width="956.6" height="956.6"/>
		</defs>
		<clipPath id="SVGID_7_">
			<use xlink:href="#SVGID_6_"  style="overflow:visible;"/>
		</clipPath>
		<g class="st4">
			<circle class="st5" cx="540.9" cy="543.2" r="351"/>
			<path class="st3" d="M690.8,413.1c-12.5-18.2-26.7-32.5-42.5-42.9c-15.9-10.4-31.9-18-48-22.6c-16.1-4.7-31.5-7-46-7
				c-13.5,0-25.8,2.1-36.7,6.2c-10.9,4.2-19.3,10.3-25,18.3c-5.7,8.1-8.6,18.1-8.6,30c0,15.6,5.9,29.4,17.6,41.4
				c11.7,12,26.8,23,45.3,33.2c18.5,10.1,37.6,19.9,57.4,29.3c20.3,10.4,38.4,20.9,54.2,31.6c15.9,10.7,29.5,22.4,41,35.1
				c11.4,12.8,20.4,26.5,26.9,41.4c6.5,14.8,9.8,31.6,9.8,50.3c0,33.3-8.5,62.2-25.4,86.6c-16.9,24.5-40.2,43.3-69.9,56.6
				s-64.3,19.9-103.8,19.9c-25,0-49-2.5-72.2-7.4c-23.2-5-43.8-11-62-18.3c-18.2-7.3-32.8-15.1-43.7-23.4l4.7-136.6
				c14,21.3,30.6,38.4,49.6,51.1c19,12.8,38.2,22,57.8,27.7c19.5,5.7,37.1,8.6,52.7,8.6c27.6,0,48.8-4.7,63.6-14
				s22.2-23.4,22.2-42.2c0-13-4.4-24.1-13.3-33.2c-8.8-9.1-21.3-17.6-37.5-25.4c-16.1-7.8-34.1-16.4-53.9-25.8
				c-28.6-13-53.7-27.2-75.3-42.5c-21.6-15.3-38.8-33.4-51.5-54.2c-12.8-20.8-19.1-46-19.1-75.7c0-33.3,8.5-62.2,25.4-86.6
				c16.9-24.5,40.3-43.6,70.2-57.4c29.9-13.8,63.4-20.7,100.3-20.7c30.7,0,58.9,3.5,84.7,10.5c25.8,7,47,15,63.6,23.8L690.8,413.1
				L690.8,413.1z"/>
		</g>
	</g>
</g>
</svg>
