<?xml version="1.0" encoding="utf-8"?>
<!-- Generator: Adobe Illustrator 23.1.1, SVG Export Plug-In . SVG Version: 6.00 Build 0)  -->
<svg version="1.1" id="Small_Sticker" xmlns="http://www.w3.org/2000/svg" xmlns:xlink="http://www.w3.org/1999/xlink" x="0px"
	 y="0px" viewBox="0 0 1080 1080" style="enable-background:new 0 0 1080 1080;" xml:space="preserve">
<style type="text/css">
	.st0{fill:url(#SVGID_1_);}
	.st1{fill:#FFFFFF;}
	.st2{fill:none;}
	.st3{fill:none;stroke:#FFFFFF;stroke-width:2;}
</style>
<linearGradient id="SVGID_1_" gradientUnits="userSpaceOnUse" x1="965.3364" y1="-211.2791" x2="435.2914" y2="264.278" gradientTransform="matrix(0.9976 -6.975647e-02 6.975647e-02 0.9976 -36.7553 434.7472)">
	<stop  offset="0" style="stop-color:#FFFFFF"/>
	<stop  offset="0.9572" style="stop-color:#1E1E1E"/>
</linearGradient>
<circle class="st0" cx="540" cy="540" r="436.2"/>
<g id="text">
	<path class="st1" d="M443.5,174c0.9,1.2,1.7,2.2,2.3,2.9c0.6,0.7,1.4,1.3,2.2,1.8c0.8,0.5,1.8,0.8,2.9,0.9l-10.3,2.9
		c1.1-0.7,1.7-1.4,1.9-2.2c0.2-0.8,0-1.6-0.4-2.4c-0.4-0.8-1.2-1.9-2.2-3.2l-8.3-11l0.4-0.1l-1.3,13.8c-0.2,2.3-0.1,4,0.5,5.1
		s1.7,1.7,3.4,1.8l-8.5,2.4c1.1-1,1.8-2.1,2.3-3.4c0.5-1.3,0.9-3.2,1.1-5.6l1.9-19.4l0.4-0.1l11.5,15.3L443.5,174L443.5,174z
		 M429.5,175.9l12.3-3.5l0.3,1.2l-12.3,3.5L429.5,175.9z"/>
	<path class="st1" d="M454.1,176.7c0.3-0.9,0.2-2.2-0.1-3.8l-2.9-13.2c-0.3-1.6-0.8-2.7-1.5-3.5c-0.6-0.8-1.6-1.2-2.8-1.4l9.3-2
		c-0.9,0.5-1.6,1.1-1.9,1.6c-0.3,0.6-0.5,1.1-0.5,1.8s0.2,1.6,0.5,2.9l4.1,18.8l-6.2,1.4C453.2,178.5,453.8,177.7,454.1,176.7
		L454.1,176.7z M466.1,174.3c0.7-0.5,1.3-1.3,1.8-2.4c0.5-1.1,0.8-2.7,1.1-4.8l1,8.1l-13.2,2.9l-0.3-1.2l6.4-1.4
		C464.3,175.3,465.4,174.9,466.1,174.3L466.1,174.3z"/>
	<path class="st1" d="M491.2,147.9c-0.4,0.6-0.6,1.2-0.7,1.9c-0.1,0.8,0,1.7,0.1,2.8l1.4,8.9c0.4,2.5,0.3,4.6-0.3,6.2
		s-1.5,2.9-2.8,3.8c-1.3,0.9-2.7,1.5-4.3,1.7c-3.2,0.5-5.8,0.1-7.9-1.3c-2-1.3-3.4-3.9-3.9-7.6l-1.4-9c-0.2-1.1-0.4-2-0.7-2.6
		c-0.3-0.7-0.7-1.2-1.3-1.6c-0.5-0.4-1.2-0.7-2-0.9l9.4-1.4c-0.7,0.4-1.3,0.9-1.7,1.4s-0.6,1.2-0.7,1.9c-0.1,0.8,0,1.7,0.1,2.7
		l1.3,8.3c0.5,3.3,1.5,5.6,3,7s3.4,1.9,5.9,1.6c2.3-0.4,4-1.4,5-3.1c1.1-1.8,1.4-4,1-6.6l-1.4-9.3c-0.2-1.1-0.4-2-0.7-2.7
		s-0.8-1.2-1.3-1.6c-0.5-0.4-1.2-0.7-2-0.9l7.6-1.2C492.1,146.8,491.5,147.3,491.2,147.9L491.2,147.9z"/>
	<path class="st1" d="M501,168.7c0.4-0.9,0.5-2.1,0.4-3.8l-1-13.5c-0.1-1.6-0.5-2.8-1-3.7s-1.4-1.4-2.6-1.8l6.4-0.5l1.9,24.9
		l-6.4,0.5C499.9,170.3,500.6,169.6,501,168.7z M513.5,146.1c2.3,0.8,4.1,2,5.4,3.7c1.3,1.7,2,3.9,2.2,6.4c0.2,2.4-0.2,4.6-1.2,6.6
		s-2.6,3.7-4.7,5c-2.1,1.3-4.7,2.1-7.7,2.3l-3.2,0.2l-0.1-1.2l2.3-0.2c2.8-0.2,5-0.9,6.7-1.9c1.7-1.1,2.9-2.5,3.6-4.2
		c0.7-1.8,0.9-3.8,0.8-6.1c-0.2-2.2-0.8-4.1-1.9-5.7c-1.1-1.6-2.6-2.8-4.5-3.6c-1.9-0.8-4.2-1.1-6.8-0.9l-2.5,0.2l-0.1-1.2l3.4-0.3
		C508.4,145.1,511.2,145.3,513.5,146.1L513.5,146.1z"/>
	<path class="st1" d="M525.9,167c0.5-0.9,0.7-2.1,0.7-3.7l-0.2-13.5c0-1.6-0.3-2.9-0.8-3.7s-1.3-1.5-2.5-1.9l6.4-0.1l0.3,19.2
		c0,1.6,0.3,2.9,0.8,3.7c0.5,0.9,1.3,1.5,2.5,1.9l-9.5,0.1C524.6,168.5,525.4,167.8,525.9,167L525.9,167z M538.6,145.5
		c1.5,1.1,2.3,2.8,2.3,5c0,1.3-0.4,2.6-1.1,3.8c-0.8,1.2-2,2-3.6,2.5s-3.6,0.3-5.8-0.5c1.8,0.2,3.2,0,4.3-0.6c1-0.6,1.8-1.4,2.1-2.4
		s0.6-1.8,0.5-2.6c0-1.7-0.6-3.1-1.7-4c-1.1-1-2.9-1.4-5.4-1.4h-0.9v-1.2h3.1C535,143.9,537.1,144.4,538.6,145.5L538.6,145.5z
		 M533.1,156.6l10.7,12.1l-4.7,0.1l-8.7-12.5L533.1,156.6L533.1,156.6z"/>
	<path class="st1" d="M566.5,162.3c0.5,1.4,0.9,2.6,1.3,3.5s0.9,1.7,1.5,2.4s1.4,1.3,2.4,1.8l-10.7-0.5c1.2-0.3,2.1-0.8,2.5-1.5
		s0.5-1.5,0.4-2.4c-0.2-0.9-0.5-2.2-1-3.8l-4.4-13.1h0.4l-5.7,12.7c-1,2.1-1.3,3.7-1.2,5c0.2,1.3,1,2.2,2.6,2.8l-8.9-0.4
		c1.3-0.6,2.4-1.4,3.3-2.5c0.9-1.1,1.8-2.7,2.8-4.9l8-17.8h0.4l6,18.1L566.5,162.3L566.5,162.3z M552.7,159.6l12.8,0.6l-0.1,1.2
		l-12.8-0.6L552.7,159.6z"/>
	<path class="st1" d="M603.9,162l-0.3,2.6l-22.2-3l0.3-2.6L603.9,162z"/>
	<path class="st1" d="M632.2,173.9c0.1,0.8,0.2,1.5,0.2,2.1c0.1,0.6,0.1,1.2,0.2,1.9s0.1,1.2,0.2,1.7c0.1,0.5,0.1,0.8,0.2,1
		l-3.4-0.8l-0.2-0.1c-0.1-1.1-0.2-2.1-0.3-2.9c-0.1-0.8-0.2-1.6-0.2-2.5c-0.1-0.8-0.2-1.8-0.3-2.9l-1-14.4l0.4,0.1l-8.7,13.5
		c-0.7,1.1-1.3,2-1.8,2.9s-1,1.5-1.4,2.1c-0.3,0.5-0.6,0.9-0.6,1l-3.6-0.9c0.1-0.1,0.2-0.3,0.6-0.7c0.3-0.4,0.7-0.9,1.1-1.5
		c0.4-0.6,0.9-1.2,1.3-1.9c0.5-0.7,0.9-1.3,1.3-1.9s0.9-1.2,1.4-2l6.2-9c0.5-0.7,0.9-1.3,1.3-1.8c0.3-0.5,0.7-1,1.1-1.6
		c0.4-0.5,0.8-1.1,1.3-1.9l2.9,0.7L632.2,173.9L632.2,173.9z M619.4,166.5l12.1,2.8l-0.7,2.8l-12.1-2.8L619.4,166.5z"/>
	<path class="st1" d="M639.3,182.2c0.2-0.5,0.4-0.9,0.5-1.3c0.1-0.4,0.3-0.8,0.4-1.2s0.3-0.9,0.5-1.5s0.4-1.2,0.6-2.1l3.5-11.6
		c0.2-0.8,0.4-1.4,0.6-2s0.3-1.1,0.4-1.5c0.1-0.5,0.2-0.9,0.3-1.3c0.1-0.4,0.2-0.9,0.3-1.4l3.4,1c-0.2,0.5-0.4,0.9-0.5,1.3
		c-0.2,0.4-0.3,0.8-0.4,1.3s-0.3,1-0.5,1.5c-0.2,0.6-0.4,1.2-0.6,2l-3.5,11.6c-0.2,0.8-0.4,1.5-0.6,2s-0.3,0.9-0.4,1.3
		s-0.2,0.8-0.3,1.2s-0.3,0.9-0.5,1.6v0.1L639.3,182.2L639.3,182.2z M650.1,182.5c0.4,0.1,0.8,0.2,1.2,0.4s0.8,0.2,1.3,0.3
		c0.4,0.1,0.8,0.2,1.2,0.3l-1.2,2.8l-12-3.6l0.8-2.7L650.1,182.5L650.1,182.5z"/>
	<path class="st1" d="M686.7,171.9c-0.2,0.4-0.4,0.9-0.6,1.3c-0.2,0.4-0.3,0.8-0.5,1.2s-0.4,0.9-0.6,1.5s-0.4,1.2-0.7,2l-2.3,6.4
		c-0.7,2-1.6,3.7-2.6,4.9c-1,1.3-2.1,2.2-3.2,2.8s-2.4,0.9-3.7,0.9s-2.6-0.2-3.9-0.7c-1.3-0.5-2.4-1.1-3.4-1.9s-1.8-1.8-2.3-3
		s-0.8-2.6-0.7-4.2s0.5-3.5,1.2-5.6l2.3-6.4c0.3-0.8,0.5-1.4,0.7-2s0.4-1,0.5-1.5c0.2-0.4,0.3-0.9,0.4-1.3c0.1-0.4,0.2-0.9,0.4-1.3
		l3.3,1.2c-0.2,0.4-0.4,0.9-0.6,1.3c-0.2,0.4-0.3,0.8-0.5,1.2s-0.4,0.9-0.6,1.5c-0.2,0.6-0.4,1.2-0.7,2l-2.4,6.5
		c-1,2.7-1.2,5-0.8,6.8s1.8,3.1,4.1,3.9c1.5,0.5,2.8,0.6,3.9,0.3c1.2-0.3,2.2-1,3.1-2.1c0.9-1.1,1.7-2.6,2.4-4.4l2.3-6.4
		c0.3-0.8,0.5-1.4,0.7-2s0.4-1,0.5-1.5s0.3-0.9,0.4-1.3c0.1-0.4,0.2-0.9,0.4-1.3L686.7,171.9L686.7,171.9z"/>
	<path class="st1" d="M685.3,198.3c0.3-0.5,0.5-0.9,0.7-1.3s0.4-0.8,0.6-1.2c0.2-0.4,0.4-0.9,0.7-1.4c0.2-0.5,0.5-1.2,0.9-2
		l4.9-10.9c0.3-0.7,0.6-1.4,0.8-1.9s0.4-1,0.6-1.5c0.2-0.4,0.3-0.9,0.5-1.3c0.1-0.4,0.3-0.8,0.5-1.3l3.2,1.5
		c-0.3,0.7-0.6,1.3-0.8,1.8s-0.5,1-0.7,1.6c-0.3,0.6-0.6,1.4-1.1,2.5l-5,11c-0.5,1-0.8,1.8-1.1,2.4c-0.3,0.6-0.5,1.1-0.7,1.6
		s-0.5,1.1-0.8,1.8L685.3,198.3L685.3,198.3z M700.8,178c3.1,1.4,5.4,3,7.1,4.9s2.6,3.9,2.9,6s-0.1,4.4-1.1,6.6
		c-1,2.2-2.4,4-4.3,5.2s-4,1.9-6.5,2s-5.3-0.6-8.3-2l-3-1.4l1.2-2.6l2.9,1.3c2.4,1.1,4.5,1.6,6.5,1.6c1.9,0,3.6-0.5,5-1.5
		s2.5-2.3,3.3-4.1c0.8-1.7,1.1-3.4,0.8-5.1s-1-3.2-2.3-4.6c-1.3-1.4-3.1-2.7-5.5-3.8l-3.4-1.5l1.2-2.6L700.8,178L700.8,178z"/>
	<path class="st1" d="M708.3,209.1c0.3-0.4,0.5-0.8,0.8-1.2c0.2-0.4,0.4-0.7,0.7-1.1c0.2-0.4,0.5-0.8,0.7-1.3c0.3-0.5,0.6-1.1,1-1.9
		l5.8-10.7c0.4-0.7,0.7-1.3,1-1.8s0.5-1,0.7-1.4s0.4-0.8,0.6-1.2c0.2-0.4,0.4-0.8,0.6-1.3l3,1.6c-0.3,0.5-0.5,0.9-0.7,1.3
		s-0.4,0.7-0.6,1.1c-0.2,0.4-0.4,0.8-0.7,1.3s-0.6,1.1-1,1.9l-5.8,10.7c-0.4,0.8-0.7,1.4-1,1.9s-0.5,0.9-0.7,1.4
		c-0.2,0.4-0.4,0.8-0.6,1.2s-0.4,0.8-0.6,1.3L708.3,209.1L708.3,209.1z M725.1,189.8c1.8,1,3.1,2,4,3.1s1.3,2.3,1.4,3.5
		s-0.3,2.5-1,3.7c-0.4,0.7-0.9,1.3-1.5,1.9c-0.7,0.6-1.5,1-2.4,1.3c-1,0.3-2.1,0.4-3.4,0.2c-1.3-0.2-2.7-0.7-4.3-1.6l1.7-1.7
		l0.7,0.4c1,0.4,1.9,0.6,2.7,0.5s1.5-0.4,2-0.8s1-1,1.4-1.7c0.7-1.3,0.8-2.4,0.4-3.5c-0.4-1.1-1.3-2-2.7-2.7l-2.4-1.3l1.3-2.5
		L725.1,189.8L725.1,189.8z M721.8,203.2l1.5,7.1c0.1,0.5,0.2,1,0.3,1.5s0.2,1.1,0.4,1.6s0.3,1.1,0.4,1.6s0.2,1.1,0.3,1.5
		c0.1,0.5,0.2,0.9,0.3,1.3l-3.7-2c-0.1-0.4-0.2-0.7-0.2-1.1c-0.1-0.4-0.2-0.8-0.3-1.2s-0.2-0.8-0.3-1.2s-0.2-0.8-0.3-1.2
		s-0.2-0.8-0.2-1.1l-1-5.1c-0.1-0.3-0.2-0.7-0.3-1c-0.1-0.4-0.2-0.8-0.4-1.1c-0.1-0.3-0.3-0.6-0.5-0.9L721.8,203.2L721.8,203.2z"/>
	<path class="st1" d="M748.6,225.3c-0.2,0.8-0.3,1.5-0.5,2.1c-0.1,0.6-0.3,1.2-0.4,1.8c-0.1,0.6-0.3,1.2-0.4,1.7s-0.2,0.8-0.2,1
		l-2.9-1.9l-0.2-0.1c0.3-1.1,0.5-2,0.7-2.9c0.2-0.8,0.4-1.6,0.6-2.4c0.2-0.8,0.5-1.8,0.7-2.9l3.8-14l0.3,0.2l-12.7,9.9
		c-1,0.8-1.9,1.5-2.7,2.1s-1.5,1.1-2,1.5s-0.8,0.6-0.9,0.7l-3.2-2c0.1-0.1,0.3-0.2,0.8-0.5c0.4-0.3,0.9-0.6,1.5-1.1
		c0.6-0.4,1.2-0.9,1.9-1.3c0.7-0.5,1.3-0.9,1.8-1.3s1.2-0.9,2-1.4l8.8-6.4c0.7-0.5,1.3-1,1.8-1.3s1-0.7,1.5-1.1s1.1-0.8,1.8-1.3
		l2.5,1.6L748.6,225.3L748.6,225.3z M738.9,214l10.5,6.6l-1.5,2.4l-10.5-6.6L738.9,214z"/>
	<path class="st1" d="M782.2,242.8l-1.6,2.1l-17.8-13.5l1.6-2.1L782.2,242.8z"/>
	<path class="st1" d="M800.3,250.6c1.1,0.2,2,0.8,3,1.6c1.1,1,1.8,2.2,2.2,3.5c0.3,1.4,0.3,2.8-0.1,4.2s-1.2,2.8-2.3,4.1
		c-1.5,1.7-3.1,2.8-4.8,3.2s-3.4,0.5-5.1,0s-3.3-1.4-4.7-2.7c-0.6-0.5-1.1-1-1.6-1.6c-0.5-0.5-0.9-1.1-1.2-1.6s-0.7-1.1-1.1-1.8
		l12.1-13.5c0.5-0.6,1-1.1,1.5-1.7c0.5-0.6,1-1.1,1.4-1.7c0.5-0.5,0.9-1,1.2-1.5c0.4-0.4,0.7-0.8,1-1.2l2.5,2.2l-7.2,8l0.1,0.1
		C798.2,250.3,799.3,250.3,800.3,250.6L800.3,250.6z M798.2,252.7c-1-0.2-2-0.2-3.2,0.1l-6.6,7.3c0.3,0.5,0.6,1,0.9,1.5
		s0.8,0.9,1.3,1.4c1,0.9,2,1.4,3.1,1.7s2.3,0.2,3.4-0.1c1.1-0.4,2.2-1.1,3.2-2.2c0.9-1,1.5-2,1.8-3s0.4-2,0.1-2.9s-0.8-1.7-1.6-2.5
		C799.9,253.3,799.1,252.9,798.2,252.7L798.2,252.7z"/>
	<path class="st1" d="M801.9,283.4c-1.2,0.4-2.2,0.6-3,0.6s-1.5-0.2-2.2-0.5c-0.8-0.3-1.5-0.9-2.2-1.5c-0.7-0.7-1.2-1.4-1.5-2
		l2.1-2.6c0.1,0.5,0.3,1,0.5,1.5c0.3,0.5,0.6,0.9,0.9,1.2s0.7,0.6,1,0.8c0.5,0.2,1,0.3,1.5,0.3c0.6,0,1.2-0.2,1.9-0.4
		c0.7-0.3,1.5-0.7,2.5-1.2c0.9-0.5,2-1.2,3.2-2.1l-0.4,3.9C804.6,282.3,803.1,283,801.9,283.4L801.9,283.4z M814.3,263
		c-0.2,0.2-0.4,0.6-0.7,1.1s-0.6,1-0.8,1.5s-0.6,1.1-1,1.8l-5.1,10.2l0,0l9.7-5c0.7-0.4,1.2-0.6,1.7-0.9s1-0.5,1.5-0.8
		s1-0.6,1.7-0.9l2.2,2.2c-0.7,0.4-1.3,0.7-1.9,1c-0.5,0.3-1.1,0.5-1.6,0.8s-1.2,0.6-1.9,1l-11.9,6.1l-3.2-3.3l6.3-12.6
		c0.4-0.8,0.7-1.5,1-2.1s0.6-1.1,0.8-1.7c0.3-0.5,0.5-1,0.6-1.2L814.3,263L814.3,263z"/>
	<path class="st1" d="M841.6,289.3c0-0.6-0.1-1.3-0.2-1.9c-0.1-0.6-0.3-1.2-0.6-1.8c-0.3-0.6-0.6-1.1-0.9-1.5
		c-0.6-0.7-1.2-1.2-1.9-1.5s-1.4-0.4-2.1-0.3s-1.4,0.4-2,1c-0.6,0.5-1,1.1-1.2,1.9s-0.2,1.5-0.1,2.4c0.1,0.9,0.2,1.8,0.4,2.9
		c0.2,1.3,0.3,2.4,0.4,3.4c0.1,1,0,1.8-0.1,2.6c-0.2,0.8-0.4,1.4-0.8,2s-0.8,1.1-1.5,1.7c-0.8,0.7-1.8,1.2-3,1.4
		c-1.2,0.2-2.3,0.1-3.6-0.4s-2.5-1.4-3.6-2.7c-0.6-0.8-1.2-1.5-1.6-2.3c-0.4-0.8-0.7-1.5-1-2.3c-0.2-0.8-0.4-1.5-0.5-2.2l3-2
		c0,0.9,0,1.7,0.1,2.5s0.4,1.6,0.7,2.4s0.8,1.5,1.5,2.3c0.9,1,1.8,1.6,2.9,1.7c1,0.1,1.9-0.2,2.7-0.8c0.7-0.5,1.1-1.2,1.2-1.9
		c0.2-0.7,0.2-1.5,0.1-2.4s-0.3-1.8-0.5-2.8c-0.3-1.4-0.4-2.6-0.4-3.8c0-1.2,0.1-2.2,0.5-3.2s1-1.9,2-2.6c0.8-0.7,1.9-1.2,3.1-1.4
		s2.4-0.1,3.7,0.4s2.5,1.4,3.7,2.7c0.6,0.8,1.2,1.6,1.6,2.6c0.4,1,0.7,1.9,0.9,2.6L841.6,289.3L841.6,289.3z"/>
	<path class="st1" d="M847,300.1c0.9,0.6,1.7,1.3,2.3,2.1c0.8,1,1.3,2.1,1.6,3.2c0.2,1.1,0.1,2.1-0.5,3.2s-1.5,2.2-3,3.3l-4.2,3.2
		l-0.5,0.4c-0.5,0.4-0.8,0.7-1.2,1c-0.3,0.3-0.7,0.6-0.9,1c-0.3,0.3-0.5,0.6-0.7,1c-0.2,0.3-0.4,0.7-0.6,1l-2.4-2.5
		c0.2-0.3,0.4-0.5,0.6-0.8c0.2-0.2,0.3-0.5,0.6-0.8l-0.1-0.1c-0.4-0.1-0.9-0.2-1.5-0.3c-0.6-0.2-1.1-0.4-1.7-0.8s-1.1-0.9-1.6-1.5
		c-0.7-0.9-1.1-1.8-1.2-2.7c-0.1-0.9,0-1.7,0.4-2.5s0.9-1.5,1.7-2c1.1-0.8,2.2-1.2,3.4-1.1s2.4,0.6,3.7,1.6c1.3,0.9,2.7,2.2,4.2,3.7
		c0.8-0.6,1.4-1.2,1.8-1.9c0.5-0.7,0.7-1.4,0.7-2.1s-0.3-1.5-0.9-2.3c-0.2-0.3-0.5-0.6-0.8-0.8s-0.7-0.5-1.1-0.8
		c-0.4-0.2-0.8-0.4-1.2-0.6s-0.9-0.3-1.4-0.3l2.3-2.2C845.3,299.1,846.1,299.6,847,300.1L847,300.1z M840.7,308.7
		c-0.8-0.7-1.6-1.1-2.4-1.3c-0.8-0.2-1.5,0-2.2,0.6c-0.7,0.5-1,1.1-1,1.8c0,0.7,0.2,1.4,0.7,2s1.1,1,2,1.4c0.9,0.3,1.7,0.5,2.5,0.5
		l3-2.3C842.4,310.2,841.5,309.4,840.7,308.7L840.7,308.7z"/>
	<path class="st1" d="M842.3,323.9c0.2-0.1,0.4-0.2,0.6-0.3c0.2-0.1,0.6-0.3,1-0.6s0.9-0.6,1.6-1c0.6-0.4,1.4-0.9,2.3-1.5l3.5-2.3
		c0.9-0.6,1.7-1.1,2.3-1.5s1.2-0.8,1.7-1.2s0.9-0.6,1.3-0.9s0.8-0.6,1.2-0.9l1.8,2.7l-2.1,1.4l0.1,0.1c1.3,0.1,2.4,0.4,3.4,1.1
		s1.8,1.5,2.3,2.2c0.4,0.7,0.8,1.4,0.9,2c0.2,0.7,0.2,1.4,0.1,2c-0.1,0.7-0.3,1.3-0.6,1.9c0.7,0.1,1.5,0.3,2.2,0.6
		c0.7,0.3,1.4,0.7,2,1.1c0.6,0.5,1.1,1,1.5,1.6c1.3,2,1.6,3.7,1.1,5.3c-0.6,1.6-1.9,3-3.9,4.4l-4,2.6c-0.9,0.6-1.6,1.1-2.2,1.5
		c-0.6,0.4-1.1,0.7-1.4,1s-0.7,0.5-0.9,0.7s-0.5,0.4-0.7,0.5l-1.9-2.9c0.2-0.1,0.4-0.2,0.6-0.4c0.2-0.1,0.6-0.3,1-0.6s0.9-0.6,1.6-1
		c0.6-0.4,1.4-0.9,2.3-1.5l3.8-2.5c0.6-0.4,1.1-0.9,1.6-1.4c0.5-0.6,0.8-1.2,0.9-2c0.1-0.7-0.2-1.6-0.8-2.5s-1.3-1.5-2.1-2
		c-0.8-0.4-1.6-0.7-2.4-0.9c-0.2,0.2-0.5,0.4-0.8,0.6s-0.7,0.5-1.1,0.8l-3.9,2.5c-0.9,0.6-1.7,1.1-2.2,1.5c-0.6,0.4-1.1,0.8-1.5,1
		c-0.4,0.3-0.7,0.5-0.9,0.7s-0.4,0.3-0.6,0.4l-1.9-2.9c0.2-0.1,0.4-0.2,0.6-0.4s0.6-0.3,1-0.6s0.9-0.6,1.6-1
		c0.6-0.4,1.4-0.9,2.3-1.5l3.8-2.5c0.8-0.5,1.4-1,1.8-1.6c0.5-0.6,0.8-1.2,0.8-1.9c0.1-0.7-0.2-1.4-0.7-2.1s-1.1-1.3-2-1.9
		c-0.9-0.5-2-0.9-3.2-0.9l-5.4,3.5c-0.9,0.6-1.7,1.1-2.2,1.5s-1.1,0.8-1.5,1c-0.4,0.3-0.7,0.5-0.9,0.7s-0.4,0.3-0.6,0.4L842.3,323.9
		L842.3,323.9z"/>
	<path class="st1" d="M880.9,351.4c0.7-0.7,1.2-1.3,1.7-1.8s1-1,1.5-1.5s1-1.1,1.7-1.8l1.7,3.2c-0.6,0.7-1.2,1.3-1.7,1.8
		s-0.9,1-1.4,1.5s-1,1.1-1.7,1.8l-10.2,11.1l-0.1-0.2l14.9-2.3c1-0.1,1.8-0.3,2.6-0.4s1.4-0.2,1.9-0.3s1-0.1,1.3-0.2
		c0.3,0,0.7-0.1,1-0.1l1.5,2.8c-1,0.1-1.9,0.3-2.9,0.5c-1,0.1-2.2,0.3-3.8,0.6l-19.6,2.9l-1.6-3L880.9,351.4L880.9,351.4z"/>
	<path class="st1" d="M893.2,375.7c0.7,0.8,1.3,1.6,1.8,2.6c0.5,1.2,0.8,2.4,0.8,3.5s-0.4,2.1-1.2,3s-2,1.8-3.7,2.6l-4.8,2.2
		l-0.6,0.3c-0.5,0.2-1,0.5-1.4,0.7s-0.8,0.5-1.1,0.7s-0.6,0.5-0.9,0.8s-0.6,0.6-0.8,0.9l-1.8-3c0.3-0.2,0.5-0.4,0.7-0.6
		s0.4-0.4,0.7-0.6l-0.1-0.2c-0.4-0.1-0.9-0.4-1.4-0.6c-0.5-0.3-1-0.7-1.5-1.1c-0.5-0.5-0.9-1.1-1.2-1.9c-0.5-1-0.7-2-0.6-2.9
		c0.1-0.9,0.4-1.7,0.9-2.4c0.5-0.7,1.2-1.2,2.1-1.6c1.2-0.6,2.4-0.7,3.5-0.3c1.1,0.4,2.2,1.1,3.2,2.3c1,1.2,2.1,2.7,3.2,4.6
		c0.9-0.4,1.6-0.9,2.2-1.4c0.6-0.5,1-1.2,1.1-1.9c0.2-0.7,0-1.5-0.4-2.4c-0.2-0.3-0.3-0.7-0.6-1s-0.5-0.7-0.9-1
		c-0.3-0.3-0.7-0.6-1.1-0.8s-0.8-0.5-1.3-0.6l2.7-1.6C891.7,374.4,892.4,375,893.2,375.7L893.2,375.7z M885.1,382.7
		c-0.7-0.9-1.3-1.5-2-1.8s-1.5-0.3-2.3,0.1s-1.2,0.9-1.4,1.5s-0.1,1.4,0.2,2.1s0.9,1.3,1.7,1.8s1.6,0.9,2.3,1l3.5-1.6
		C886.4,384.6,885.8,383.5,885.1,382.7L885.1,382.7z"/>
	<path class="st1" d="M883.1,398c0.2,0,0.4-0.1,0.7-0.2s0.7-0.2,1.2-0.4s1-0.3,1.6-0.5s1.2-0.5,1.9-0.7l4.6-1.8
		c0.7-0.3,1.4-0.5,2-0.8c0.7-0.3,1.3-0.5,1.9-0.8c0.6-0.3,1.2-0.5,1.7-0.7s1-0.5,1.5-0.7h0.1l1.2,3.1l-2.4,0.9l-9.6,3.7
		c-0.7,0.3-1.3,0.5-1.9,0.8c-0.6,0.2-1.1,0.5-1.5,0.6c-0.5,0.2-0.8,0.4-1.1,0.5s-0.5,0.2-0.7,0.3L883.1,398L883.1,398z M899.3,395.4
		c1.2,0.3,2.2,0.9,3.1,1.8s1.4,1.8,1.8,2.7c0.5,1.4,0.7,2.7,0.5,3.7s-0.7,1.9-1.5,2.6s-1.7,1.3-2.9,1.7l-6.2,2.4
		c-0.7,0.3-1.3,0.5-1.9,0.8c-0.6,0.2-1.1,0.5-1.5,0.6c-0.5,0.2-0.8,0.4-1.1,0.5s-0.5,0.2-0.7,0.3l-1.2-3.2c0.2,0,0.4-0.1,0.7-0.2
		s0.7-0.2,1.2-0.4s1-0.3,1.6-0.5s1.2-0.5,1.9-0.7l5-1.9c0.7-0.3,1.3-0.6,1.9-1c0.6-0.4,1-1,1.3-1.7s0.2-1.6-0.2-2.6
		c-0.3-0.8-0.8-1.5-1.6-2.3s-1.7-1.2-2.9-1.5l2.9-1.1L899.3,395.4L899.3,395.4z"/>
	<path class="st1" d="M911.1,421.9c0.8-0.6,1.4-1.1,2-1.5s1.1-0.8,1.7-1.2c0.6-0.4,1.2-0.9,2-1.5l1,3.5c-0.8,0.5-1.4,1-2,1.4
		c-0.5,0.4-1.1,0.8-1.7,1.2c-0.5,0.4-1.2,0.9-2,1.4l-12.1,9V434l15,0.6c1,0,1.8,0.1,2.6,0.1s1.4,0,1.9,0.1s1,0,1.3,0s0.7,0,1,0
		l0.9,3c-1,0-2-0.1-3-0.1s-2.3-0.1-3.8-0.1l-19.8-0.9l-1-3.3L911.1,421.9L911.1,421.9z"/>
	<path class="st1" d="M918.6,448.5c0.6,0.9,1,1.9,1.2,2.9c0.3,1.3,0.3,2.5,0.1,3.5c-0.2,1.1-0.8,2-1.7,2.7c-0.9,0.8-2.3,1.4-4.1,1.8
		l-5.1,1.2l-0.7,0.1c-0.6,0.1-1,0.3-1.5,0.4c-0.4,0.1-0.8,0.3-1.2,0.5s-0.7,0.4-1.1,0.6s-0.7,0.4-1,0.7l-1.2-3.3
		c0.3-0.2,0.6-0.3,0.8-0.5c0.2-0.1,0.5-0.3,0.8-0.5v-0.2c-0.4-0.2-0.8-0.5-1.2-0.9s-0.8-0.9-1.2-1.4c-0.4-0.6-0.6-1.3-0.8-2.1
		c-0.2-1.1-0.2-2.1,0-2.9c0.3-0.9,0.7-1.6,1.4-2.1c0.7-0.6,1.4-1,2.3-1.2c1.3-0.3,2.5-0.2,3.5,0.4s1.9,1.6,2.7,2.9s1.5,3.1,2.3,5.1
		c0.9-0.2,1.7-0.5,2.4-0.9s1.2-1,1.5-1.6c0.3-0.7,0.3-1.5,0.1-2.5c-0.1-0.4-0.2-0.7-0.4-1.1s-0.4-0.8-0.7-1.1
		c-0.3-0.4-0.6-0.7-0.9-1c-0.3-0.3-0.7-0.6-1.1-0.9l3-1C917.4,446.9,918,447.6,918.6,448.5L918.6,448.5z M909.3,453.7
		c-0.5-1-1-1.7-1.6-2.2s-1.4-0.6-2.3-0.4c-0.8,0.2-1.4,0.6-1.7,1.2s-0.3,1.3-0.2,2.1c0.2,0.7,0.6,1.4,1.3,2.1s1.4,1.2,2.1,1.5
		l3.7-0.9C910.2,455.8,909.8,454.7,909.3,453.7L909.3,453.7z"/>
	<path class="st1" d="M915.7,467.4l1.8,9.2c0.9-0.1,1.6-0.5,2.3-1s1.1-1.1,1.4-1.8c0.3-0.7,0.4-1.5,0.2-2.4c-0.1-0.8-0.5-1.5-1-2.1
		c-0.5-0.7-1.3-1.1-2.3-1.5s-2.2-0.3-3.7-0.1c-1.8,0.3-3.2,0.9-4.1,1.6c-1,0.8-1.6,1.7-1.9,2.7s-0.4,2.1-0.2,3.2
		c0.2,0.9,0.5,1.9,1,2.7s1.1,1.6,1.8,2.2l-3,0.9c-0.4-0.5-0.8-1-1.1-1.5s-0.6-1.2-0.9-1.8s-0.5-1.4-0.6-2.3
		c-0.3-1.6-0.2-3.1,0.2-4.6s1.3-2.8,2.5-3.9s2.9-1.9,5-2.2c1.9-0.3,3.6-0.3,5.2,0.2s2.9,1.2,3.9,2.3s1.7,2.5,2,4.1
		c0.3,1.7,0.2,3.2-0.4,4.5s-1.6,2.3-3,3.1c-1.4,0.8-3,1.3-5,1.5l-2.2-12.5L915.7,467.4L915.7,467.4z"/>
	<path class="st1" d="M907.2,485c0.2,0,0.5,0,0.8,0s0.7-0.1,1.2-0.1s1-0.1,1.7-0.2c0.6-0.1,1.3-0.2,2-0.3l4.9-0.7
		c0.8-0.1,1.5-0.2,2.3-0.4c0.8-0.1,1.6-0.2,2.3-0.4s1.4-0.2,1.9-0.3s0.9-0.2,1.2-0.2l0.5,3.2l-2.7,0.4l-10,1.4
		c-0.8,0.1-1.4,0.2-2,0.3c-0.6,0.1-1.2,0.2-1.6,0.3s-0.9,0.2-1.2,0.2c-0.3,0.1-0.6,0.1-0.8,0.2L907.2,485L907.2,485z M923.4,486.2
		c0.9,0.5,1.7,1.1,2.2,1.8s0.9,1.3,1.1,1.9s0.4,1.2,0.5,1.8c0,0,0,0.1,0,0.2s0,0.1,0,0.2l-3.6,0.5c0-0.6,0-1.2-0.1-1.8
		c-0.1-0.5-0.2-1-0.4-1.5s-0.5-1-1-1.6c-0.5-0.5-1.1-0.9-1.8-1.2l3-0.4L923.4,486.2L923.4,486.2z"/>
	<path class="st1" d="M920.4,499.6l1.1,9.3c0.9-0.1,1.7-0.4,2.3-0.8c0.7-0.4,1.2-1,1.6-1.7c0.4-0.7,0.5-1.5,0.4-2.4
		c-0.1-0.8-0.4-1.5-0.9-2.2s-1.2-1.2-2.2-1.6s-2.2-0.5-3.7-0.4c-1.8,0.2-3.2,0.6-4.2,1.3c-1,0.7-1.7,1.5-2.1,2.6
		c-0.4,1-0.5,2-0.4,3.1c0.1,0.9,0.3,1.9,0.8,2.8c0.4,0.9,1,1.7,1.6,2.3l-3.1,0.7c-0.4-0.5-0.7-1-1-1.6s-0.5-1.2-0.7-1.9
		c-0.2-0.7-0.3-1.5-0.4-2.3c-0.2-1.6,0-3.1,0.6-4.6c0.5-1.5,1.5-2.7,2.8-3.7s3-1.6,5.1-1.8c1.9-0.2,3.6,0,5.1,0.5
		c1.5,0.6,2.8,1.4,3.7,2.6s1.5,2.6,1.7,4.2c0.2,1.8-0.1,3.2-0.8,4.5c-0.7,1.2-1.8,2.2-3.2,2.9s-3.1,1.1-5.1,1.1l-1.3-12.6
		L920.4,499.6L920.4,499.6z"/>
	<path class="st1" d="M910.6,516.6c0.2,0,0.5,0,0.8,0s0.7,0,1.2,0s1,0,1.7,0s1.3,0,2.1-0.1l5-0.2c0.8,0,1.5-0.1,2.2-0.1
		s1.4-0.1,2-0.1c0.7,0,1.3-0.1,1.8-0.1c0.6,0,1.1-0.1,1.7-0.1h0.1l0.1,3.3l-2.5,0.1l-10.3,0.4c-0.8,0-1.5,0.1-2.1,0.1
		s-1.2,0.1-1.7,0.1s-0.9,0.1-1.2,0.1s-0.6,0-0.8,0.1L910.6,516.6L910.6,516.6z M926.8,519.3c1,0.7,1.8,1.6,2.3,2.7
		c0.5,1.1,0.8,2.1,0.8,3.1c0.1,1.5-0.2,2.8-0.7,3.7s-1.3,1.6-2.3,2s-2.1,0.7-3.3,0.7l-6.7,0.3c-0.8,0-1.5,0.1-2.1,0.1
		s-1.2,0.1-1.7,0.1s-0.9,0.1-1.2,0.1s-0.6,0-0.8,0.1l-0.1-3.4c0.2,0,0.5,0,0.8,0s0.7,0,1.2,0s1,0,1.7,0s1.3,0,2.1-0.1l5.3-0.2
		c0.7,0,1.4-0.2,2.1-0.4c0.7-0.2,1.3-0.6,1.8-1.2c0.5-0.6,0.7-1.4,0.6-2.6c0-0.8-0.3-1.7-0.8-2.6c-0.5-0.9-1.2-1.7-2.2-2.4l3.1-0.1
		L926.8,519.3L926.8,519.3z"/>
	<path class="st1" d="M929.3,545.3c0.5,1,0.8,2.1,0.7,3.3c0,1.5-0.5,2.8-1.3,3.9c-0.8,1.2-1.9,2.1-3.3,2.7c-1.4,0.7-2.9,1-4.6,0.9
		c-2.3,0-4.1-0.6-5.6-1.6s-2.6-2.3-3.3-3.9c-0.7-1.6-1.1-3.4-1-5.3c0-0.8,0.1-1.5,0.2-2.2s0.2-1.3,0.4-2c0.2-0.6,0.4-1.3,0.6-1.9
		l18.1,0.4c0.8,0,1.5,0,2.3,0s1.5,0,2.2,0s1.3,0,1.9,0c0.6,0,1.1,0,1.5,0l-0.1,3.3l-10.7-0.2v0.1
		C928.1,543.5,928.8,544.3,929.3,545.3L929.3,545.3z M926.3,545c-0.5-0.9-1.2-1.7-2.2-2.4l-9.9-0.2c-0.2,0.6-0.4,1.1-0.5,1.7
		s-0.2,1.2-0.2,1.8c0,1.3,0.2,2.4,0.8,3.5s1.3,1.9,2.3,2.5s2.2,0.9,3.7,1c1.3,0,2.5-0.2,3.5-0.6c1-0.4,1.7-1,2.3-1.8
		s0.8-1.7,0.8-2.8C927,546.8,926.8,545.9,926.3,545L926.3,545z"/>
	<path class="st1" d="M921.9,563.6l-0.5,9.3c0.9,0.1,1.7-0.1,2.4-0.4c0.8-0.3,1.4-0.8,1.8-1.4c0.5-0.6,0.7-1.4,0.8-2.3
		c0.1-0.8-0.1-1.6-0.5-2.3s-1-1.4-1.9-2c-0.9-0.5-2.1-0.9-3.6-1c-1.8-0.1-3.3,0.1-4.4,0.6s-2,1.2-2.5,2.2c-0.6,0.9-0.9,1.9-1,3
		c-0.1,1,0,1.9,0.3,2.9s0.7,1.8,1.2,2.6l-3.2,0.1c-0.3-0.6-0.5-1.2-0.7-1.8s-0.3-1.3-0.4-2s-0.1-1.5,0-2.4c0.1-1.6,0.6-3.1,1.4-4.5
		s1.9-2.4,3.4-3.2s3.2-1.1,5.3-0.9c1.9,0.1,3.5,0.6,5,1.4c1.4,0.8,2.5,1.9,3.2,3.2c0.8,1.3,1.1,2.8,0.9,4.5
		c-0.1,1.8-0.6,3.2-1.5,4.3s-2.1,1.9-3.6,2.3c-1.5,0.4-3.3,0.5-5.2,0.2l0.9-12.6L921.9,563.6L921.9,563.6z"/>
	<path class="st1" d="M909.3,578.5c0.2,0,0.4,0.1,0.8,0.1s0.7,0.1,1.2,0.2c0.5,0.1,1,0.2,1.6,0.2c0.6,0.1,1.3,0.2,2,0.2l4.9,0.5
		c0.8,0.1,1.5,0.2,2.4,0.2c0.8,0.1,1.6,0.2,2.3,0.2c0.8,0.1,1.4,0.1,2,0.2c0.6,0,1,0.1,1.2,0.1l-0.3,3.2l-2.7-0.3l-10-1.1
		c-0.8-0.1-1.4-0.2-2-0.2c-0.6-0.1-1.2-0.1-1.7-0.1s-0.9-0.1-1.2-0.1s-0.6,0-0.8,0L909.3,578.5L909.3,578.5z M924.7,583.6
		c0.8,0.8,1.3,1.5,1.7,2.3s0.6,1.5,0.6,2.1c0.1,0.7,0.1,1.3,0,1.8c0,0,0,0.1,0,0.2s0,0.1,0,0.2l-3.6-0.4c0.1-0.6,0.2-1.2,0.3-1.7
		s0.1-1.1,0-1.6s-0.2-1.1-0.6-1.8c-0.3-0.6-0.8-1.2-1.5-1.6l3,0.3L924.7,583.6L924.7,583.6z"/>
	<path class="st1" d="M913.5,599.1c-0.1-0.8-0.2-1.5-0.5-1.8s-0.6-0.6-1-0.6c-0.5-0.1-0.9,0.1-1.2,0.5s-0.5,1-0.6,1.7l-0.5,2.6
		c-0.5,2.4-1.3,4.2-2.5,5.2c-1.2,1.1-2.5,1.5-4.1,1.3c-1.3-0.2-2.4-0.8-3.3-1.7s-1.6-2.2-1.9-3.8s-0.4-3.4,0-5.5
		c0.2-1.5,0.6-2.7,1.2-3.7c0.6-1,1.3-1.8,2.1-2.2s1.7-0.6,2.7-0.5c0.8,0.1,1.5,0.4,2.1,0.9s1.1,1,1.5,1.6s0.7,1.2,0.9,1.9
		s0.2,1.3,0.1,1.8l-0.8,2c-0.1-1.4-0.4-2.5-1.1-3.4c-0.6-0.8-1.4-1.3-2.2-1.5c-0.8-0.1-1.5,0-2,0.4c-0.6,0.4-1.1,1-1.4,1.7
		c-0.4,0.8-0.6,1.6-0.8,2.7c-0.1,0.8-0.1,1.6,0,2.5s0.4,1.6,0.9,2.3s1.1,1.1,2,1.2c1,0.2,1.9-0.2,2.6-1.1s1.2-2.2,1.5-3.9l0.4-2.5
		c0.1-0.6,0.4-1.2,0.8-1.8s0.9-1.1,1.5-1.5s1.2-0.5,2-0.4s1.4,0.5,1.9,1.2s0.8,1.7,0.8,3L913.5,599.1L913.5,599.1z M914.2,596.6
		c0.7-1,1.6-1.7,2.6-2.1c1-0.4,2.1-0.5,3.2-0.3c1.2,0.2,2.3,0.7,3.1,1.5s1.4,1.8,1.8,3c0.3,1.2,0.4,2.4,0.2,3.7
		c-0.2,1.2-0.5,2.2-1,3s-1.1,1.4-1.8,1.9s-1.5,0.8-2.3,0.9c-0.8,0.1-1.6,0.1-2.5,0c-1.2-0.2-2.2-0.7-3-1.4s-1.3-1.7-1.7-2.8
		s-0.4-2.3-0.2-3.6C913,598.8,913.5,597.6,914.2,596.6L914.2,596.6z M915.7,603.4c0.5,0.9,1.4,1.4,2.7,1.6c1.2,0.2,2.3,0,3.1-0.6
		s1.3-1.5,1.5-2.5c0.1-0.7,0-1.4-0.2-2s-0.6-1.2-1.2-1.6s-1.2-0.7-2-0.9c-1.2-0.2-2.2,0-3,0.6s-1.2,1.5-1.4,2.5
		C915,601.6,915.2,602.6,915.7,603.4L915.7,603.4z M924.2,605.8c-0.1,0.5-0.2,1-0.2,1.4c-0.1,0.5-0.2,1-0.2,1.4
		c-0.1,0.5-0.2,1-0.2,1.5c-0.1,0.5-0.2,1-0.2,1.5l-2.2-0.3c0.1-0.5,0.1-0.9,0.2-1.3s0.1-0.9,0.2-1.3c0.1-0.4,0.1-0.9,0.2-1.3
		s0.1-0.9,0.2-1.3c0.1-0.4,0.1-0.9,0.2-1.3l2.3-0.5C924.4,604.8,924.3,605.3,924.2,605.8L924.2,605.8z"/>
	<path class="st1" d="M919.2,618.7c0.8,0.9,1.3,2,1.5,3.2s0.2,2.3,0,3.2c-0.3,1.5-0.9,2.6-1.6,3.4s-1.7,1.2-2.7,1.3
		c-1,0.2-2.2,0.1-3.3-0.2l-6.5-1.5c-0.7-0.2-1.4-0.3-2-0.4c-0.6-0.1-1.2-0.2-1.6-0.3s-0.9-0.2-1.2-0.2c-0.3-0.1-0.6-0.1-0.8-0.1
		l0.7-3.3c0.2,0.1,0.4,0.1,0.7,0.2c0.3,0.1,0.7,0.2,1.2,0.3s1,0.3,1.6,0.4c0.6,0.2,1.3,0.3,2,0.5l5.2,1.2c0.7,0.2,1.4,0.2,2.2,0.2
		c0.7,0,1.4-0.3,2-0.7c0.6-0.5,1-1.2,1.3-2.3c0.2-0.8,0.2-1.7-0.1-2.8s-0.8-2-1.6-2.9l3.1,0.7L919.2,618.7L919.2,618.7z
		 M904.3,611.9c0.2,0.1,0.4,0.1,0.7,0.2c0.3,0.1,0.7,0.2,1.2,0.3s1,0.3,1.6,0.4c0.6,0.2,1.3,0.3,2,0.5l12.8,2.9
		c0.7,0.2,1.5,0.3,2.2,0.5s1.4,0.3,2,0.4c0.7,0.1,1.3,0.2,1.9,0.4s1.1,0.2,1.6,0.3l-0.7,3.1l-10.5-2.3l-10-2.2
		c-0.7-0.2-1.4-0.3-2-0.4s-1.2-0.2-1.6-0.3s-0.9-0.2-1.2-0.2s-0.6-0.1-0.8-0.1L904.3,611.9L904.3,611.9z"/>
	<path class="st1" d="M901.9,666.1l-2.5-0.8l6.7-21.3l2.5,0.8L901.9,666.1z"/>
	<path class="st1" d="M885.6,691.9c-0.8-0.1-1.5-0.1-2.1-0.1s-1.2-0.1-1.9-0.1s-1.2-0.1-1.7-0.1s-0.8,0-1,0l1.3-3.2l0.1-0.2
		c1.1,0.1,2.1,0.2,2.9,0.2c0.8,0,1.7,0.1,2.5,0.2s1.8,0.2,2.9,0.2l14.4,1.4l-0.2,0.4L891,679.7c-0.9-0.8-1.8-1.6-2.5-2.3
		s-1.3-1.3-1.8-1.7s-0.8-0.7-0.9-0.8l1.5-3.4c0.1,0.1,0.3,0.3,0.6,0.7s0.8,0.8,1.3,1.3s1.1,1.1,1.6,1.6c0.6,0.6,1.1,1.1,1.6,1.6
		s1.1,1.1,1.7,1.7l7.8,7.6c0.6,0.6,1.2,1.1,1.6,1.5c0.5,0.4,0.9,0.9,1.3,1.3c0.5,0.5,1,1,1.6,1.6l-1.2,2.8L885.6,691.9L885.6,691.9z
		 M895,680.5l-4.8,11.4l-2.6-1.1l4.8-11.4L895,680.5z"/>
	<path class="st1" d="M874.1,708.1c-0.2,0.4-0.4,0.8-0.6,1.2c-0.2,0.4-0.4,0.8-0.5,1.2c-0.2,0.4-0.3,0.8-0.5,1.2L870,710l5.5-11.2
		l2.5,1.3L874.1,708.1z M876.2,697.5c0.5,0.3,0.9,0.5,1.2,0.7c0.4,0.2,0.8,0.4,1.2,0.6s0.8,0.4,1.4,0.7s1.2,0.6,1.9,1l10.8,5.4
		c0.7,0.4,1.3,0.7,1.9,0.9c0.5,0.3,1,0.5,1.4,0.7s0.8,0.4,1.2,0.5c0.4,0.2,0.8,0.3,1.3,0.5l-1.6,3.2c-0.4-0.3-0.8-0.5-1.2-0.7
		s-0.8-0.4-1.2-0.7c-0.4-0.2-0.9-0.5-1.4-0.7c-0.5-0.3-1.1-0.6-1.9-0.9l-10.8-5.4c-0.8-0.4-1.4-0.7-1.8-0.9s-0.9-0.4-1.2-0.6
		c-0.3-0.2-0.7-0.3-1.1-0.5c-0.4-0.2-0.9-0.4-1.5-0.7l-0.1-0.1L876.2,697.5L876.2,697.5z"/>
	<path class="st1" d="M879.1,745c-0.4-0.3-0.8-0.5-1.2-0.8s-0.7-0.5-1.2-0.7s-0.9-0.5-1.4-0.8s-1.1-0.6-1.8-1l-5.9-3.4
		c-1.9-1.1-3.4-2.2-4.4-3.4s-1.8-2.4-2.2-3.7s-0.5-2.5-0.3-3.8s0.7-2.5,1.3-3.7c0.7-1.2,1.5-2.2,2.5-3.1c1-0.8,2.1-1.4,3.3-1.8
		c1.3-0.3,2.7-0.3,4.3,0s3.4,1,5.3,2.2l5.9,3.4c0.7,0.4,1.3,0.7,1.8,1s1,0.5,1.4,0.8c0.4,0.2,0.8,0.4,1.2,0.6s0.8,0.4,1.3,0.6
		l-1.8,3.1c-0.4-0.3-0.8-0.5-1.2-0.8c-0.4-0.2-0.7-0.5-1.2-0.7c-0.4-0.2-0.9-0.5-1.4-0.8s-1.1-0.6-1.8-1l-6-3.4
		c-2.5-1.4-4.7-2.1-6.6-1.9s-3.4,1.3-4.5,3.3c-0.8,1.4-1.1,2.6-1,3.8s0.6,2.3,1.6,3.4c0.9,1.1,2.3,2.1,4,3.1l5.9,3.4
		c0.7,0.4,1.3,0.7,1.8,1s1,0.5,1.4,0.8s0.8,0.4,1.2,0.6s0.8,0.4,1.3,0.6L879.1,745L879.1,745z"/>
	<path class="st1" d="M871.1,757.6c-1.9,2.8-3.9,4.9-6,6.2s-4.2,1.9-6.4,1.8s-4.3-0.8-6.3-2.2s-3.5-3-4.5-5.1c-1-2-1.2-4.3-0.9-6.8
		c0.4-2.5,1.5-5.1,3.3-7.9l1.8-2.7l2.4,1.6l-1.8,2.6c-1.5,2.2-2.3,4.2-2.6,6.1c-0.3,1.9-0.1,3.7,0.7,5.2s1.9,2.9,3.5,3.9
		c1.6,1.1,3.2,1.6,4.9,1.7c1.7,0,3.3-0.4,5-1.5c1.6-1,3.2-2.6,4.6-4.8l2.1-3.1l2.4,1.6L871.1,757.6L871.1,757.6z M853.6,738.9
		c0.5,0.4,0.8,0.7,1.2,0.9c0.3,0.3,0.7,0.5,1.1,0.8s0.8,0.5,1.3,0.9c0.5,0.3,1.1,0.7,1.8,1.2l9.9,6.7c0.7,0.5,1.2,0.8,1.8,1.1
		s1,0.6,1.4,0.8s0.8,0.5,1.2,0.7s0.8,0.4,1.2,0.7l-2,3c-0.6-0.4-1.2-0.8-1.6-1.1c-0.4-0.3-0.9-0.6-1.5-1c-0.5-0.4-1.3-0.9-2.3-1.5
		l-10.1-6.7c-0.9-0.6-1.7-1.1-2.2-1.5s-1-0.7-1.5-1s-1-0.7-1.6-1.1L853.6,738.9L853.6,738.9z"/>
	<path class="st1" d="M842.9,774l-7.3,0.3c-0.5,0-1,0-1.5,0s-1.1,0.1-1.7,0.1c-0.6,0-1.1,0.1-1.7,0.1c-0.5,0-1.1,0.1-1.6,0.1
		s-1,0-1.3,0l2.6-3.3c0.4,0,0.8,0,1.2,0s0.8,0,1.2-0.1c0.4,0,0.8,0,1.2-0.1s0.8,0,1.2,0s0.8,0,1.2,0l5.2-0.2c0.3,0,0.7-0.1,1.1-0.1
		s0.8-0.1,1.1-0.2s0.7-0.2,1-0.3L842.9,774L842.9,774z M839.4,759.8c0.4,0.4,0.7,0.7,1.1,1c0.3,0.3,0.7,0.6,1,0.8
		c0.3,0.3,0.7,0.6,1.2,1s1,0.8,1.7,1.3l9.6,7.5c0.6,0.5,1.2,0.9,1.6,1.3s0.9,0.7,1.3,1c0.4,0.3,0.8,0.5,1.1,0.8
		c0.3,0.2,0.7,0.5,1.2,0.8l-2.1,2.7c-0.5-0.3-0.8-0.7-1.2-0.9c-0.3-0.3-0.7-0.5-1-0.8s-0.7-0.6-1.2-0.9s-1-0.8-1.7-1.3l-9.5-7.4
		c-0.7-0.5-1.2-1-1.7-1.3s-0.9-0.7-1.2-0.9s-0.7-0.5-1.1-0.8c-0.3-0.2-0.8-0.5-1.2-0.8L839.4,759.8L839.4,759.8z M855.6,779.5
		c-1.2,1.6-2.5,2.8-3.8,3.4c-1.2,0.7-2.5,0.9-3.7,0.8s-2.4-0.7-3.5-1.6c-0.6-0.5-1.2-1.1-1.6-1.8c-0.5-0.7-0.8-1.6-0.9-2.6
		s0-2.1,0.4-3.4s1.2-2.6,2.3-4l1.4,2l-0.5,0.7c-0.6,0.9-0.9,1.7-0.9,2.5s0.1,1.5,0.5,2.1s0.8,1.2,1.5,1.7c1.1,0.9,2.3,1.2,3.4,1
		s2.2-1,3.1-2.2l1.7-2.2l2.2,1.8L855.6,779.5L855.6,779.5z"/>
	<path class="st1" d="M817.5,796.2c-0.7-0.3-1.4-0.6-2-0.8s-1.1-0.5-1.7-0.7s-1.1-0.5-1.6-0.6s-0.8-0.3-1-0.3l2.3-2.6l0.2-0.2
		c1,0.4,1.9,0.8,2.7,1.1s1.5,0.6,2.3,1s1.7,0.7,2.7,1.2l13.2,5.9l-0.3,0.3l-7.8-14.1c-0.6-1.1-1.2-2.1-1.7-3s-0.9-1.6-1.2-2.2
		s-0.5-0.9-0.6-1l2.5-2.8c0,0.1,0.2,0.4,0.4,0.8c0.2,0.5,0.5,1,0.8,1.7s0.7,1.3,1,2.1c0.4,0.7,0.7,1.4,1,2s0.7,1.3,1.1,2.1l5,9.7
		c0.4,0.8,0.8,1.4,1,2c0.3,0.5,0.6,1.1,0.9,1.7c0.3,0.6,0.6,1.2,1,2l-2,2.2L817.5,796.2L817.5,796.2z M830.1,788.4l-8.2,9.3
		l-2.1-1.9l8.2-9.3L830.1,788.4z"/>
	<path class="st1" d="M794.6,826.5l-1.8-1.9l16.3-15.3l1.8,1.9L794.6,826.5L794.6,826.5z"/>
	<path class="st1" d="M767.9,841.1c-0.7-0.4-1.3-0.8-1.8-1.1s-1-0.7-1.6-1c-0.5-0.3-1-0.7-1.5-0.9s-0.7-0.4-0.9-0.5l2.7-2.1l0.2-0.2
		c0.9,0.6,1.8,1.2,2.5,1.6c0.7,0.5,1.4,0.9,2.1,1.4c0.7,0.5,1.5,1,2.5,1.6l11.9,8.2l-0.3,0.2l-5.1-15.2c-0.4-1.2-0.8-2.3-1.1-3.2
		c-0.3-1-0.6-1.8-0.8-2.3s-0.3-1-0.4-1.1l2.9-2.3c0,0.1,0.1,0.4,0.2,0.9c0.1,0.5,0.3,1.1,0.5,1.8s0.4,1.4,0.6,2.2
		c0.2,0.8,0.4,1.5,0.6,2.2s0.4,1.4,0.7,2.3L785,844c0.3,0.8,0.5,1.5,0.7,2.1s0.4,1.2,0.5,1.8s0.4,1.3,0.7,2.2l-2.3,1.8L767.9,841.1
		L767.9,841.1z M781.7,835.7l-9.7,7.7l-1.8-2.2l9.7-7.7L781.7,835.7z"/>
	<path class="st1" d="M749.9,849.7c-0.3,0.2-0.7,0.5-1.1,0.8c-0.3,0.3-0.7,0.5-1,0.8s-0.7,0.5-1,0.8l-1.4-2.7l10.3-7.1l1.6,2.3
		L749.9,849.7z M756.9,841.4c0.3,0.5,0.5,0.9,0.7,1.2s0.5,0.7,0.7,1.1c0.2,0.4,0.5,0.8,0.9,1.3c0.3,0.5,0.7,1,1.2,1.8l6.9,10
		c0.5,0.7,0.8,1.2,1.2,1.7c0.3,0.5,0.6,0.9,0.9,1.3c0.3,0.4,0.5,0.8,0.8,1.1s0.6,0.7,0.9,1.1l-2.9,2c-0.2-0.4-0.5-0.8-0.7-1.2
		s-0.5-0.8-0.7-1.1c-0.3-0.4-0.5-0.8-0.9-1.3c-0.3-0.5-0.7-1-1.2-1.7l-6.9-10c-0.5-0.7-0.9-1.3-1.2-1.7s-0.5-0.8-0.8-1.1
		s-0.5-0.7-0.7-1s-0.6-0.8-0.9-1.4l-0.1-0.1L756.9,841.4L756.9,841.4z"/>
	<path class="st1" d="M736.5,884.1c-0.2-0.5-0.4-0.9-0.6-1.2c-0.2-0.4-0.4-0.8-0.7-1.2c-0.2-0.4-0.5-0.9-0.8-1.4s-0.7-1.1-1.1-1.8
		l-3.5-5.8c-1.1-1.8-1.8-3.6-2.2-5.1c-0.4-1.6-0.4-3-0.1-4.3s0.8-2.4,1.6-3.4s1.8-1.9,3-2.6c1.2-0.7,2.4-1.2,3.7-1.5
		s2.5-0.2,3.8,0.1s2.5,1,3.8,2.1c1.2,1.1,2.4,2.5,3.6,4.5l3.5,5.8c0.4,0.7,0.8,1.3,1.1,1.8s0.6,1,0.8,1.3c0.2,0.4,0.5,0.8,0.7,1.1
		s0.5,0.7,0.8,1.1l-3,1.8c-0.2-0.5-0.4-0.9-0.6-1.2c-0.2-0.4-0.4-0.8-0.7-1.2c-0.2-0.4-0.5-0.9-0.8-1.4s-0.7-1.1-1.1-1.8L744,864
		c-1.5-2.5-3.1-4.1-4.8-4.8c-1.7-0.8-3.6-0.5-5.6,0.7c-1.3,0.8-2.2,1.8-2.7,2.8c-0.5,1.1-0.6,2.3-0.3,3.7s1,2.9,2,4.6l3.5,5.8
		c0.4,0.7,0.8,1.3,1.1,1.8s0.6,1,0.8,1.3c0.3,0.4,0.5,0.8,0.7,1.1s0.5,0.7,0.8,1.1L736.5,884.1L736.5,884.1z"/>
	<path class="st1" d="M723.4,891.2c-3,1.5-5.8,2.3-8.2,2.4s-4.7-0.4-6.5-1.5s-3.3-2.8-4.4-5s-1.6-4.4-1.4-6.6c0.2-2.2,1-4.3,2.6-6.3
		c1.5-2,3.8-3.7,6.8-5.2l2.9-1.5l1.3,2.5l-2.8,1.4c-2.3,1.2-4.1,2.5-5.3,4.1c-1.2,1.5-1.9,3.2-2,4.9s0.2,3.4,1.1,5.1
		c0.9,1.7,2,3,3.4,3.8s3.1,1.3,5,1.2s4-0.7,6.4-1.9l3.3-1.7l1.3,2.5L723.4,891.2L723.4,891.2z M717.3,866.3c0.2,0.5,0.4,1,0.6,1.4
		c0.2,0.4,0.3,0.8,0.5,1.2s0.4,0.9,0.7,1.4s0.6,1.2,1,2l5.4,10.7c0.4,0.7,0.7,1.3,1,1.8s0.5,1,0.8,1.4c0.2,0.4,0.5,0.8,0.7,1.2
		s0.5,0.8,0.7,1.2l-3.2,1.6c-0.3-0.7-0.6-1.2-0.9-1.7s-0.5-1-0.8-1.6s-0.7-1.4-1.2-2.4l-5.5-10.8c-0.5-1-0.9-1.8-1.2-2.4
		s-0.6-1.1-0.8-1.6s-0.5-1.1-0.9-1.8L717.3,866.3L717.3,866.3z"/>
	<path class="st1" d="M691.1,891.6l-6.5-3.3c-0.4-0.2-0.9-0.5-1.4-0.7s-1-0.5-1.5-0.7s-1-0.5-1.5-0.7s-1-0.5-1.4-0.7
		s-0.8-0.4-1.2-0.6l3.8-1.6c0.3,0.2,0.7,0.3,1,0.5s0.7,0.4,1.1,0.5s0.8,0.4,1.1,0.5c0.4,0.2,0.8,0.4,1.1,0.5s0.7,0.4,1,0.5l4.7,2.4
		c0.3,0.1,0.6,0.3,1,0.4c0.4,0.2,0.7,0.3,1.1,0.4s0.7,0.2,1,0.2L691.1,891.6L691.1,891.6z M699.5,902.6c-1.9,0.8-3.5,1.2-5,1.2
		s-2.6-0.4-3.6-1.1c-1-0.7-1.8-1.7-2.3-3.1c-0.3-0.7-0.5-1.5-0.5-2.4s0.1-1.8,0.5-2.7s1-1.9,2-2.8c1-0.9,2.3-1.7,3.9-2.4l0.3,2.4
		L694,892c-0.9,0.5-1.6,1.1-2,1.8s-0.6,1.4-0.6,2.1c0,0.7,0.2,1.4,0.5,2.1c0.6,1.3,1.4,2.2,2.5,2.5s2.4,0.2,3.8-0.4l2.5-1.1l1.1,2.6
		L699.5,902.6L699.5,902.6z M694.9,877.5c0.2,0.5,0.3,1,0.5,1.3c0.2,0.4,0.3,0.8,0.5,1.2s0.4,0.9,0.6,1.4c0.2,0.5,0.5,1.2,0.8,2
		l4.8,11.2c0.3,0.7,0.6,1.4,0.8,1.9s0.5,1,0.7,1.4s0.4,0.8,0.6,1.2s0.4,0.8,0.7,1.2l-3.1,1.3c-0.2-0.5-0.4-1-0.6-1.4
		c-0.2-0.4-0.3-0.8-0.5-1.2s-0.4-0.8-0.6-1.4c-0.2-0.5-0.5-1.2-0.8-2l-4.8-11.1c-0.3-0.8-0.6-1.4-0.8-2s-0.4-1-0.6-1.4
		c-0.2-0.4-0.4-0.8-0.6-1.2s-0.4-0.8-0.7-1.3L694.9,877.5L694.9,877.5z"/>
	<path class="st1" d="M658.2,898.6c-0.5-0.6-0.9-1.2-1.3-1.7c-0.4-0.5-0.8-1-1.2-1.5s-0.8-0.9-1.1-1.3c-0.3-0.4-0.6-0.6-0.7-0.7
		l3.3-1.2l0.2-0.1c0.7,0.9,1.3,1.7,1.8,2.3c0.5,0.7,1,1.3,1.5,2s1.1,1.4,1.8,2.3l8.7,11.6l-0.4,0.1v-16.1c0-1.2,0-2.4,0-3.4
		s0-1.8,0-2.5c0-0.6,0-1,0-1.2l3.5-1.2c0,0.1,0,0.4-0.1,0.9c0,0.5-0.1,1.1-0.1,1.8s-0.1,1.5-0.1,2.3s-0.1,1.6-0.1,2.3
		s-0.1,1.5-0.1,2.4l-0.3,10.9c0,0.9,0,1.6-0.1,2.2s0,1.2-0.1,1.9c0,0.6,0,1.4-0.1,2.2l-2.8,1L658.2,898.6L658.2,898.6z M673,897.9
		l-11.7,4.1l-1-2.7l11.7-4.1L673,897.9z"/>
	<path class="st1" d="M624.8,913.7l-0.7-2.5l21.7-5.6l0.7,2.5L624.8,913.7z"/>
	<path class="st1" d="M594.2,913.7c-0.4-0.7-0.7-1.3-1-1.8s-0.6-1.1-0.9-1.6s-0.6-1.1-0.8-1.5s-0.4-0.7-0.5-0.8l3.4-0.6h0.2
		c0.5,1,1,1.9,1.4,2.6c0.4,0.7,0.8,1.5,1.2,2.2s0.8,1.6,1.4,2.6l6.5,12.9l-0.4,0.1l2.9-15.8c0.2-1.2,0.4-2.3,0.6-3.3
		c0.2-1,0.3-1.8,0.5-2.4s0.2-1,0.2-1.2l3.7-0.6c0,0.1-0.1,0.4-0.2,0.9s-0.3,1.1-0.4,1.8c-0.2,0.7-0.3,1.5-0.5,2.2s-0.3,1.5-0.5,2.2
		s-0.3,1.5-0.5,2.3l-2.2,10.7c-0.2,0.8-0.3,1.6-0.5,2.2c-0.1,0.6-0.3,1.2-0.4,1.8s-0.3,1.4-0.5,2.2l-3,0.5L594.2,913.7L594.2,913.7z
		 M609,915.6l-12.2,2l-0.5-2.8l12.2-2L609,915.6z"/>
	<path class="st1" d="M574.3,912.6c-0.4,0-0.9,0.1-1.3,0.2c-0.4,0.1-0.9,0.1-1.3,0.2s-0.8,0.2-1.3,0.2v-3l12.4-1.3l0.3,2.8
		L574.3,912.6L574.3,912.6z M584.4,908.7c0,0.5,0,1,0,1.4s0,0.9,0.1,1.3s0.1,1,0.1,1.5c0.1,0.6,0.1,1.3,0.2,2.1l1.2,12
		c0.1,0.8,0.2,1.5,0.2,2.1s0.1,1.1,0.2,1.6c0.1,0.5,0.1,0.9,0.2,1.3c0.1,0.4,0.2,0.9,0.2,1.4l-3.5,0.4c0-0.5,0-1,0-1.4
		s0-0.9-0.1-1.3c0-0.5-0.1-1-0.1-1.6s-0.1-1.3-0.2-2.1l-1.2-12c-0.1-0.8-0.2-1.5-0.2-2s-0.1-1-0.1-1.3c0-0.4-0.1-0.8-0.1-1.2
		s-0.1-1-0.2-1.7V909L584.4,908.7L584.4,908.7z"/>
	<path class="st1" d="M547.5,936.3c0-0.5,0-1,0-1.4s0-0.9,0-1.3c0-0.5,0-1-0.1-1.6c0-0.6-0.1-1.3-0.1-2.1l-0.3-6.8
		c-0.1-2.2,0-4,0.5-5.6c0.4-1.5,1-2.8,1.9-3.8s1.8-1.8,3-2.3s2.5-0.8,3.9-0.9c1.4-0.1,2.7,0.1,3.9,0.4s2.3,1,3.3,1.9
		s1.8,2.1,2.3,3.6c0.6,1.5,0.9,3.4,1.1,5.7l0.3,6.8c0,0.8,0.1,1.5,0.1,2.1s0.1,1.1,0.1,1.6s0.1,0.9,0.1,1.3c0,0.4,0.1,0.9,0.2,1.4
		l-3.6,0.2c0-0.5,0-1,0-1.4s0-0.9,0-1.3c0-0.5,0-1-0.1-1.6c0-0.6-0.1-1.3-0.1-2.1l-0.3-6.9c-0.2-2.9-0.8-5.1-2-6.5s-2.9-2.2-5.3-2
		c-1.6,0.1-2.8,0.5-3.8,1.2c-0.9,0.7-1.6,1.8-2,3.2s-0.5,3-0.4,5l0.3,6.8c0,0.8,0.1,1.5,0.1,2.1s0.1,1.1,0.1,1.6s0.1,0.9,0.1,1.3
		c0,0.4,0.1,0.9,0.2,1.4L547.5,936.3L547.5,936.3z"/>
	<path class="st1" d="M533,936.1c-3.4-0.1-6.2-0.7-8.4-1.7s-3.9-2.5-5-4.4s-1.6-4-1.6-6.5c0.1-2.5,0.7-4.6,1.9-6.5s2.9-3.3,5.2-4.4
		c2.3-1,5.1-1.5,8.5-1.4l3.3,0.1l-0.1,2.8l-3.2-0.1c-2.6-0.1-4.8,0.3-6.6,1.1s-3.1,1.9-4,3.4s-1.4,3.1-1.5,5c0,1.9,0.4,3.6,1.2,5
		c0.9,1.4,2.2,2.6,3.9,3.4s3.9,1.3,6.5,1.3l3.7,0.1l-0.1,2.8L533,936.1L533,936.1z M539.4,911.3c-0.1,0.6-0.1,1.1-0.1,1.5
		s-0.1,0.9-0.1,1.3s0,1,0,1.5s0,1.3,0,2.2l-0.3,12c0,0.8,0,1.5,0,2.1s0,1.1,0,1.6s0,0.9,0.1,1.4c0,0.4,0.1,0.9,0.1,1.4l-3.6-0.1
		c0-0.8,0-1.4,0-1.9s0-1.1,0-1.8s0-1.6,0.1-2.7l0.3-12.1c0-1.1,0-2,0.1-2.7c0-0.7,0-1.2,0-1.8c0-0.5,0-1.2,0-2L539.4,911.3
		L539.4,911.3z"/>
	<path class="st1" d="M504.6,921.2l-4.1-6c-0.3-0.4-0.6-0.8-0.9-1.3s-0.6-0.9-1-1.4c-0.3-0.5-0.7-0.9-1-1.4s-0.6-0.9-0.9-1.3
		c-0.3-0.4-0.5-0.8-0.8-1.1l4.2,0.4c0.2,0.3,0.4,0.6,0.7,1c0.2,0.3,0.5,0.7,0.7,1s0.5,0.7,0.7,1s0.5,0.7,0.7,1s0.5,0.7,0.7,1
		l2.9,4.3c0.2,0.3,0.4,0.5,0.7,0.8s0.5,0.6,0.8,0.9c0.3,0.3,0.5,0.5,0.8,0.6L504.6,921.2L504.6,921.2z M506.8,934.9
		c-2-0.2-3.7-0.6-4.9-1.3c-1.2-0.7-2.1-1.6-2.6-2.7c-0.5-1.1-0.7-2.4-0.6-3.8c0.1-0.8,0.3-1.6,0.7-2.4s1-1.5,1.7-2.2
		c0.8-0.7,1.8-1.1,3-1.5c1.3-0.3,2.8-0.4,4.6-0.2l-0.9,2.2l-0.8-0.1c-1.1,0-2,0.2-2.6,0.6s-1.2,0.9-1.5,1.5
		c-0.3,0.7-0.5,1.3-0.6,2.1c-0.1,1.4,0.2,2.6,1,3.4c0.8,0.8,2,1.3,3.6,1.5l2.7,0.3l-0.3,2.8L506.8,934.9L506.8,934.9z M514.8,910.6
		c-0.1,0.5-0.2,1-0.2,1.4c-0.1,0.4-0.1,0.8-0.2,1.3c0,0.4-0.1,0.9-0.2,1.5s-0.1,1.3-0.2,2.1l-1.2,12.1c-0.1,0.8-0.2,1.5-0.2,2.1
		c-0.1,0.6-0.1,1.1-0.1,1.6s0,0.9-0.1,1.3c0,0.4,0,0.9,0,1.4l-3.4-0.3c0.1-0.6,0.1-1.1,0.1-1.5s0.1-0.8,0.1-1.3
		c0-0.4,0.1-0.9,0.2-1.5s0.1-1.3,0.2-2.2l1.2-12c0.1-0.8,0.2-1.6,0.2-2.1s0.1-1.1,0.1-1.5c0-0.5,0.1-0.9,0.1-1.3c0-0.4,0-0.9,0-1.4
		L514.8,910.6L514.8,910.6z"/>
	<path class="st1" d="M473.3,911.7c-0.1-0.8-0.3-1.5-0.4-2.1s-0.2-1.2-0.3-1.8s-0.2-1.2-0.3-1.7c-0.1-0.5-0.2-0.8-0.3-1l3.4,0.5h0.2
		c0.2,1.1,0.4,2.1,0.5,2.9c0.2,0.8,0.3,1.6,0.4,2.5s0.3,1.8,0.5,2.9l2.1,14.3l-0.4-0.1l7.7-14.1c0.6-1.1,1.1-2.1,1.6-3
		s0.9-1.6,1.2-2.2c0.3-0.5,0.5-0.9,0.6-1l3.7,0.6c-0.1,0.1-0.2,0.3-0.5,0.8c-0.3,0.4-0.6,1-1,1.6s-0.8,1.3-1.2,2
		c-0.4,0.7-0.8,1.3-1.2,1.9s-0.8,1.3-1.2,2.1l-5.5,9.4c-0.4,0.8-0.8,1.4-1.1,1.9s-0.6,1.1-1,1.6c-0.3,0.5-0.7,1.2-1.1,2l-3-0.5
		L473.3,911.7L473.3,911.7z M486.6,918.2l-12.2-2l0.5-2.8l12.2,2L486.6,918.2L486.6,918.2z"/>
	<path class="st1" d="M435.4,908.8l0.6-2.6l21.7,5.4l-0.6,2.6L435.4,908.8z"/>
	<path class="st1" d="M408.6,894c0-0.8,0-1.5,0-2.1s0-1.2,0-1.9s0-1.2,0-1.7s0-0.8-0.1-1l3.3,1.2l0.2,0.1c0,1.1,0,2.1,0,2.9
		c0,0.8,0,1.7,0,2.5s0,1.8-0.1,2.9l-0.5,14.5l-0.4-0.1l10.1-12.5c0.8-1,1.5-1.9,2.1-2.6c0.7-0.8,1.2-1.4,1.6-1.9s0.6-0.8,0.7-0.9
		l3.5,1.2c-0.1,0.1-0.3,0.3-0.6,0.7c-0.3,0.4-0.8,0.8-1.2,1.4c-0.5,0.5-1,1.1-1.5,1.7c-0.5,0.6-1,1.2-1.5,1.7s-1,1.1-1.6,1.8
		l-7.1,8.2c-0.6,0.7-1,1.2-1.5,1.7c-0.4,0.5-0.8,1-1.2,1.4s-0.9,1-1.5,1.7l-2.8-1L408.6,894L408.6,894z M420.6,902.8l-11.7-4.1
		l1-2.7l11.7,4.1L420.6,902.8z"/>
	<path class="st1" d="M392.2,883.7c-0.4-0.2-0.8-0.3-1.2-0.5c-0.4-0.2-0.8-0.3-1.2-0.4c-0.4-0.1-0.8-0.3-1.2-0.4l1.5-2.7l11.6,4.7
		l-1.1,2.6L392.2,883.7L392.2,883.7z M402.9,885c-0.2,0.5-0.5,0.9-0.6,1.3c-0.2,0.4-0.4,0.8-0.5,1.2s-0.4,0.9-0.6,1.4
		s-0.5,1.2-0.8,2l-4.6,11.2c-0.3,0.8-0.6,1.4-0.8,1.9c-0.2,0.5-0.4,1-0.6,1.5c-0.2,0.4-0.3,0.9-0.5,1.3c-0.1,0.4-0.3,0.8-0.4,1.3
		l-3.3-1.3c0.2-0.4,0.4-0.9,0.6-1.2s0.4-0.8,0.6-1.2s0.4-0.9,0.6-1.5s0.5-1.2,0.8-1.9l4.6-11.2c0.3-0.8,0.6-1.4,0.8-1.9
		s0.4-0.9,0.5-1.2s0.3-0.7,0.5-1.1c0.2-0.4,0.4-0.9,0.6-1.5V884L402.9,885L402.9,885z"/>
	<path class="st1" d="M358,892c0.3-0.4,0.5-0.8,0.7-1.2s0.4-0.8,0.6-1.2s0.5-0.9,0.7-1.4s0.5-1.2,0.9-1.9l2.9-6.1
		c0.9-2,2-3.5,3.1-4.7s2.3-2,3.5-2.5s2.5-0.7,3.7-0.6c1.3,0.1,2.5,0.5,3.8,1.1c1.2,0.6,2.3,1.3,3.2,2.2c0.9,0.9,1.6,2,2,3.2
		s0.5,2.7,0.3,4.3s-0.8,3.4-1.8,5.5l-2.9,6.1c-0.4,0.7-0.7,1.3-0.9,1.9c-0.2,0.5-0.5,1-0.7,1.4s-0.4,0.8-0.5,1.2
		c-0.2,0.4-0.3,0.8-0.5,1.3l-3.2-1.5c0.3-0.4,0.5-0.8,0.7-1.2s0.4-0.8,0.6-1.2s0.5-0.9,0.7-1.4s0.5-1.2,0.9-1.9l3-6.2
		c1.2-2.6,1.7-4.8,1.4-6.7c-0.3-1.8-1.5-3.3-3.7-4.3c-1.4-0.7-2.7-0.9-3.9-0.7c-1.2,0.2-2.3,0.8-3.3,1.8s-1.9,2.4-2.8,4.2l-2.9,6.1
		c-0.3,0.7-0.6,1.3-0.9,1.9c-0.2,0.5-0.5,1-0.7,1.4s-0.4,0.8-0.5,1.2c-0.2,0.4-0.3,0.8-0.5,1.3L358,892L358,892z"/>
	<path class="st1" d="M345.7,885.1c-2.9-1.7-5.1-3.5-6.6-5.5s-2.2-4.1-2.3-6.3c-0.1-2.2,0.5-4.3,1.7-6.4c1.2-2.1,2.8-3.7,4.7-4.8
		c2-1.1,4.2-1.5,6.7-1.4c2.5,0.2,5.2,1.1,8.1,2.8l2.9,1.6l-1.4,2.5l-2.8-1.6c-2.3-1.3-4.4-2-6.3-2.2s-3.7,0.2-5.2,1
		s-2.7,2.1-3.7,3.7s-1.4,3.3-1.3,5s0.7,3.3,1.8,4.8c1.1,1.5,2.8,3,5.1,4.3l3.2,1.8L349,887L345.7,885.1L345.7,885.1z M363.1,866.4
		c-0.3,0.5-0.6,0.9-0.8,1.2c-0.2,0.4-0.5,0.7-0.7,1.1c-0.2,0.4-0.5,0.8-0.8,1.3s-0.6,1.1-1.1,1.9l-5.9,10.4c-0.4,0.7-0.7,1.3-1,1.8
		s-0.5,1-0.7,1.4s-0.4,0.8-0.6,1.2s-0.4,0.8-0.6,1.3l-3.1-1.8c0.4-0.7,0.7-1.2,1-1.7s0.5-1,0.9-1.5s0.8-1.4,1.3-2.4l6-10.5
		c0.5-1,1-1.7,1.3-2.3s0.6-1.1,0.9-1.5c0.3-0.5,0.6-1,1-1.7L363.1,866.4L363.1,866.4z"/>
	<path class="st1" d="M322.9,871.4c-1.7-1.1-2.9-2.3-3.7-3.5s-1.1-2.4-1-3.6c0.1-1.2,0.5-2.4,1.3-3.6c0.4-0.7,1-1.2,1.7-1.8
		c0.7-0.5,1.6-0.9,2.5-1.1c1-0.2,2.1-0.2,3.4,0.1s2.7,1,4.2,2l-1.9,1.5l-0.7-0.5c-0.9-0.5-1.8-0.8-2.6-0.8c-0.8,0-1.5,0.2-2.1,0.6
		c-0.6,0.4-1.1,0.9-1.5,1.6c-0.8,1.2-1,2.3-0.7,3.4s1.1,2.1,2.5,3l2.3,1.5l-1.6,2.4L322.9,871.4L322.9,871.4z M341.4,853.8
		c-0.3,0.4-0.6,0.8-0.9,1.1s-0.5,0.7-0.8,1c-0.2,0.4-0.5,0.8-0.9,1.3c-0.3,0.5-0.7,1.1-1.2,1.8l-6.8,10.1c-0.5,0.7-0.8,1.2-1.2,1.7
		s-0.6,0.9-0.8,1.3c-0.2,0.4-0.5,0.8-0.7,1.2s-0.5,0.8-0.7,1.2l-2.8-1.9c0.3-0.5,0.6-0.9,0.8-1.2c0.2-0.3,0.5-0.7,0.7-1
		c0.2-0.4,0.5-0.8,0.8-1.2c0.3-0.5,0.7-1.1,1.2-1.8l6.7-10.1c0.5-0.7,0.9-1.3,1.2-1.8c0.3-0.5,0.6-0.9,0.8-1.3s0.5-0.8,0.7-1.1
		c0.2-0.4,0.5-0.8,0.7-1.2L341.4,853.8z M327.4,858.3l-0.8-7.3c0-0.5-0.1-1-0.2-1.5s-0.1-1.1-0.2-1.7c-0.1-0.6-0.2-1.1-0.2-1.7
		c-0.1-0.5-0.1-1.1-0.2-1.6s-0.1-0.9-0.1-1.3l3.5,2.3c0,0.4,0.1,0.8,0.1,1.2s0.1,0.8,0.2,1.2s0.1,0.8,0.1,1.2s0.1,0.8,0.1,1.2
		s0.1,0.8,0.1,1.2l0.5,5.2c0,0.3,0.1,0.7,0.2,1.1s0.2,0.8,0.3,1.1c0.1,0.4,0.2,0.7,0.4,0.9L327.4,858.3L327.4,858.3z"/>
	<path class="st1" d="M304.8,835.4c0.2-0.8,0.5-1.4,0.6-2s0.4-1.2,0.6-1.8s0.4-1.2,0.5-1.7s0.2-0.8,0.2-1l2.8,2.1l0.2,0.2
		c-0.4,1.1-0.7,2-0.9,2.8c-0.3,0.8-0.5,1.6-0.8,2.4c-0.3,0.8-0.6,1.7-1,2.8l-4.9,13.6l-0.3-0.2l13.5-8.8c1-0.7,2-1.3,2.8-1.9
		s1.5-1,2.1-1.3c0.5-0.3,0.9-0.6,1-0.6l3,2.3c-0.1,0-0.4,0.2-0.8,0.4s-1,0.6-1.6,0.9s-1.3,0.8-2,1.2s-1.3,0.8-2,1.2
		c-0.6,0.4-1.3,0.8-2.1,1.2l-9.3,5.7c-0.7,0.5-1.4,0.8-1.9,1.2c-0.5,0.3-1.1,0.7-1.6,1s-1.2,0.7-1.9,1.2l-2.4-1.8L304.8,835.4
		L304.8,835.4z M313.5,847.4l-9.9-7.5l1.7-2.3l9.9,7.5L313.5,847.4z"/>
	<path class="st1" d="M273.2,815.3l1.8-2l16.6,15l-1.8,2L273.2,815.3z"/>
	<path class="st1" d="M256.6,789.5c0.4-0.7,0.7-1.3,1-1.9c0.3-0.5,0.6-1.1,0.9-1.7c0.3-0.6,0.6-1.1,0.8-1.5c0.2-0.5,0.4-0.8,0.4-0.9
		l2.3,2.5l0.2,0.2c-0.5,1-1,1.8-1.4,2.6c-0.4,0.7-0.8,1.5-1.2,2.2c-0.4,0.7-0.9,1.6-1.4,2.6l-7.3,12.5l-0.3-0.3l14.8-6.2
		c1.2-0.5,2.2-0.9,3.1-1.3s1.7-0.7,2.3-0.9c0.6-0.2,0.9-0.4,1.1-0.5l2.5,2.8c-0.1,0-0.4,0.1-0.9,0.3s-1.1,0.4-1.7,0.6
		c-0.7,0.2-1.4,0.5-2.2,0.8c-0.8,0.3-1.5,0.5-2.1,0.8c-0.7,0.2-1.4,0.5-2.2,0.8l-10.2,3.9c-0.8,0.3-1.5,0.6-2.1,0.8
		s-1.2,0.5-1.8,0.7s-1.3,0.5-2.1,0.8l-2-2.2L256.6,789.5L256.6,789.5z M263,802.9l-8.4-9.2l2.1-1.9l8.3,9.2L263,802.9z"/>
	<path class="st1" d="M256.9,780.2c-0.4,0.3-0.8,0.6-1.2,0.8c-0.3,0.2-0.7,0.5-1.1,0.8c-0.4,0.3-0.8,0.6-1.2,1s-1,0.8-1.6,1.4
		l-9.3,7.7c-0.6,0.5-1.2,1-1.6,1.3s-0.9,0.7-1.2,1s-0.7,0.6-1,0.9s-0.6,0.6-1,1l-2.3-2.7c0.4-0.3,0.8-0.5,1.1-0.8s0.7-0.5,1.1-0.8
		c0.4-0.3,0.8-0.6,1.2-1s1-0.8,1.6-1.3l9.3-7.7c0.7-0.5,1.2-1,1.6-1.3c0.4-0.3,0.7-0.6,1-0.8s0.6-0.5,0.9-0.8s0.8-0.6,1.3-1l0.1-0.1
		L256.9,780.2L256.9,780.2z M248,774c-0.3-0.3-0.6-0.7-0.8-1s-0.6-0.7-0.9-1s-0.6-0.6-0.9-0.9l2.6-1.7l8,9.6l-2.2,1.8L248,774
		L248,774z"/>
	<path class="st1" d="M214,765.4c0.4-0.2,0.8-0.5,1.2-0.7s0.7-0.5,1.1-0.8c0.4-0.3,0.8-0.6,1.3-0.9c0.5-0.3,1-0.8,1.7-1.2l5.5-4
		c1.8-1.3,3.4-2.2,4.9-2.7s2.9-0.7,4.2-0.5s2.5,0.6,3.6,1.3s2,1.6,2.8,2.8c0.8,1.1,1.4,2.3,1.8,3.5s0.5,2.5,0.2,3.8
		c-0.2,1.3-0.8,2.6-1.7,3.9c-0.9,1.3-2.3,2.6-4.2,4l-5.5,4c-0.6,0.5-1.2,0.9-1.7,1.2s-0.9,0.7-1.3,1c-0.4,0.3-0.7,0.6-1.1,0.8
		s-0.7,0.6-1.1,0.9l-2.1-2.9c0.4-0.3,0.8-0.5,1.2-0.7s0.7-0.5,1.1-0.8c0.4-0.3,0.8-0.6,1.3-0.9c0.5-0.3,1-0.8,1.7-1.2l5.6-4.1
		c2.3-1.7,3.8-3.5,4.4-5.2c0.6-1.8,0.2-3.6-1.2-5.5c-0.9-1.3-1.9-2.1-3.1-2.5c-1.1-0.4-2.4-0.4-3.7,0c-1.4,0.4-2.8,1.2-4.4,2.4
		l-5.5,4c-0.6,0.5-1.2,0.9-1.7,1.2s-0.9,0.7-1.3,1c-0.4,0.3-0.7,0.6-1.1,0.8s-0.7,0.6-1.1,0.9L214,765.4L214,765.4z"/>
	<path class="st1" d="M206,753.2c-1.8-2.9-2.8-5.5-3.1-8s0-4.7,1-6.6s2.5-3.6,4.6-4.8s4.2-2,6.5-2c2.2,0,4.4,0.6,6.5,2
		s4.1,3.5,5.8,6.3l1.7,2.8l-2.4,1.5l-1.7-2.7c-1.4-2.2-2.9-3.9-4.5-4.9c-1.6-1.1-3.3-1.6-5-1.6s-3.4,0.5-5,1.5s-2.8,2.2-3.5,3.8
		s-1,3.2-0.7,5.1s1.1,4,2.4,6.2l2,3.2l-2.4,1.5L206,753.2L206,753.2z M230.3,745c-0.5,0.3-0.9,0.5-1.3,0.7c-0.4,0.2-0.8,0.4-1.1,0.7
		c-0.4,0.2-0.8,0.5-1.3,0.8s-1.1,0.7-1.9,1.2l-10.2,6.3c-0.7,0.4-1.3,0.8-1.8,1.1s-0.9,0.6-1.3,0.9c-0.4,0.3-0.8,0.5-1.1,0.8
		s-0.7,0.5-1.1,0.8l-1.9-3c0.6-0.4,1.2-0.7,1.6-1c0.4-0.3,0.9-0.6,1.5-0.9c0.6-0.3,1.3-0.8,2.3-1.4l10.3-6.4c0.9-0.6,1.7-1,2.2-1.4
		c0.6-0.3,1.1-0.7,1.5-0.9s1-0.6,1.7-1L230.3,745L230.3,745z"/>
	<path class="st1" d="M192.4,730.1c-1-1.8-1.5-3.4-1.6-4.8c-0.1-1.4,0.1-2.7,0.8-3.7s1.6-1.9,2.9-2.6c0.7-0.4,1.5-0.6,2.3-0.8
		s1.8-0.1,2.8,0.2s1.9,0.8,2.9,1.7s1.9,2.1,2.8,3.7l-2.4,0.5l-0.4-0.7c-0.6-0.9-1.2-1.5-1.9-1.9s-1.4-0.5-2.1-0.4
		c-0.7,0.1-1.4,0.3-2.1,0.7c-1.3,0.7-2,1.6-2.3,2.7s0,2.4,0.8,3.8l1.3,2.4l-2.5,1.3L192.4,730.1L192.4,730.1z M217,723.3
		c-0.5,0.2-0.9,0.4-1.3,0.6s-0.8,0.4-1.2,0.6s-0.8,0.4-1.4,0.7c-0.5,0.3-1.1,0.6-1.9,1l-10.7,5.7c-0.7,0.4-1.3,0.7-1.8,1
		s-1,0.5-1.4,0.8c-0.4,0.2-0.8,0.5-1.2,0.7s-0.8,0.5-1.2,0.8l-1.6-3c0.5-0.3,0.9-0.5,1.3-0.7c0.4-0.2,0.7-0.4,1.1-0.6
		c0.4-0.2,0.8-0.4,1.3-0.7s1.1-0.6,1.9-1l10.7-5.7c0.8-0.4,1.4-0.7,1.9-1s0.9-0.5,1.3-0.7s0.8-0.5,1.1-0.7s0.8-0.5,1.2-0.8
		L217,723.3L217,723.3z M202.6,720.7l2.7-6.8c0.2-0.5,0.4-0.9,0.6-1.4s0.4-1,0.6-1.6c0.2-0.5,0.4-1.1,0.6-1.6s0.4-1,0.6-1.5
		c0.2-0.5,0.4-0.9,0.5-1.3l2,3.7c-0.1,0.3-0.3,0.7-0.4,1.1s-0.3,0.8-0.4,1.1c-0.1,0.4-0.3,0.8-0.4,1.2c-0.1,0.4-0.3,0.8-0.4,1.2
		c-0.1,0.4-0.3,0.7-0.4,1.1l-2,4.8c-0.1,0.3-0.2,0.6-0.3,1s-0.2,0.8-0.3,1.1c-0.1,0.4-0.1,0.7-0.1,1L202.6,720.7L202.6,720.7z"/>
	<path class="st1" d="M193.7,690.5c0.6-0.5,1.1-1,1.5-1.5c0.4-0.4,0.9-0.8,1.3-1.3s0.9-0.8,1.2-1.2s0.6-0.6,0.7-0.8l1.4,3.1l0.1,0.2
		c-0.8,0.8-1.5,1.4-2.1,2s-1.2,1.2-1.8,1.7c-0.6,0.6-1.3,1.2-2.2,2l-10.8,9.7l-0.2-0.4l16-1.4c1.2-0.1,2.4-0.2,3.4-0.3
		s1.8-0.1,2.5-0.2c0.6,0,1-0.1,1.2-0.1l1.6,3.4c-0.1,0-0.4,0-0.9,0s-1.1,0-1.9,0.1c-0.7,0-1.5,0.1-2.3,0.1s-1.6,0.1-2.3,0.1
		s-1.5,0.1-2.4,0.1l-10.9,0.6c-0.9,0.1-1.6,0.1-2.2,0.1c-0.6,0-1.2,0.1-1.9,0.1c-0.6,0-1.4,0.1-2.2,0.1l-1.2-2.7L193.7,690.5
		L193.7,690.5z M195.8,705.2l-5.2-11.3l2.6-1.2l5.2,11.3L195.8,705.2z"/>
	<path class="st1" d="M175.8,659.3l2.5-0.9l7.5,21.1l-2.5,0.9L175.8,659.3z"/>
	<path class="st1" d="M173,629c0.7-0.5,1.2-0.8,1.7-1.2c0.5-0.3,1-0.7,1.5-1.1c0.5-0.4,1-0.7,1.4-1s0.7-0.5,0.8-0.6l0.9,3.3l0.1,0.2
		c-0.9,0.6-1.8,1.2-2.4,1.6c-0.7,0.5-1.4,0.9-2.1,1.4s-1.5,1-2.5,1.6l-12.2,7.8l-0.1-0.4l16,1.3c1.2,0.1,2.4,0.2,3.4,0.3
		s1.8,0.2,2.5,0.2s1,0.1,1.2,0.1l1,3.6c-0.1,0-0.4-0.1-0.9-0.1s-1.1-0.2-1.8-0.2c-0.7-0.1-1.5-0.2-2.3-0.3s-1.6-0.2-2.2-0.3
		s-1.5-0.2-2.4-0.3l-10.8-1.2c-0.9-0.1-1.6-0.2-2.2-0.2s-1.2-0.1-1.9-0.2c-0.6-0.1-1.4-0.2-2.2-0.2l-0.8-2.9L173,629L173,629z
		 M172.6,643.8l-3.2-12l2.8-0.8l3.2,12L172.6,643.8z"/>
	<path class="st1" d="M177.5,620.3c-0.5,0.1-1,0.1-1.4,0.2c-0.4,0.1-0.9,0.1-1.3,0.2s-0.9,0.2-1.5,0.3s-1.3,0.3-2.1,0.4l-11.9,2.4
		c-0.8,0.2-1.5,0.3-2,0.4c-0.6,0.1-1.1,0.2-1.6,0.3s-0.9,0.2-1.3,0.3c-0.4,0.1-0.9,0.2-1.3,0.4l-0.7-3.5c0.5,0,1-0.1,1.4-0.2
		s0.9-0.1,1.3-0.2c0.5-0.1,1-0.2,1.6-0.3s1.2-0.3,2-0.4l11.9-2.4c0.8-0.2,1.5-0.3,2-0.4s0.9-0.2,1.3-0.3s0.8-0.2,1.2-0.2
		s1-0.2,1.6-0.3h0.1L177.5,620.3L177.5,620.3z M172.6,610.7c-0.1-0.4-0.2-0.8-0.3-1.3s-0.2-0.8-0.3-1.3c-0.1-0.4-0.2-0.8-0.3-1.2
		l3-0.3l2.5,12.2l-2.8,0.6L172.6,610.7L172.6,610.7z"/>
	<path class="st1" d="M146.4,587.4c0.5,0,1-0.1,1.4-0.1s0.9-0.1,1.4-0.2c0.5-0.1,1-0.1,1.6-0.2c0.6-0.1,1.3-0.2,2.1-0.3l6.7-1
		c2.1-0.3,4-0.4,5.6-0.1s2.9,0.8,4,1.5s1.9,1.7,2.6,2.8c0.6,1.1,1.1,2.4,1.3,3.8c0.2,1.4,0.2,2.7,0,3.9s-0.7,2.4-1.5,3.5
		s-1.9,2-3.4,2.7c-1.4,0.7-3.3,1.3-5.5,1.6l-6.7,1c-0.8,0.1-1.5,0.2-2.1,0.3s-1.1,0.2-1.6,0.3s-0.9,0.2-1.3,0.3s-0.9,0.2-1.4,0.3
		l-0.5-3.5c0.5,0,1-0.1,1.4-0.1s0.9-0.1,1.4-0.2c0.5-0.1,1-0.1,1.6-0.2c0.6-0.1,1.3-0.2,2.1-0.3l6.8-1c2.9-0.4,5-1.3,6.3-2.6
		s1.9-3.1,1.5-5.5c-0.2-1.5-0.8-2.8-1.6-3.6s-1.9-1.4-3.3-1.7c-1.4-0.3-3.1-0.2-5,0.1l-6.7,1c-0.8,0.1-1.5,0.2-2.1,0.3
		s-1.1,0.2-1.6,0.3s-0.9,0.2-1.3,0.3s-0.9,0.2-1.4,0.3L146.4,587.4L146.4,587.4z"/>
	<path class="st1" d="M145.2,572.9c-0.3-3.4,0-6.2,0.9-8.5s2.1-4.1,3.9-5.4c1.8-1.3,3.9-2,6.3-2.2s4.6,0.2,6.6,1.2s3.6,2.6,4.9,4.8
		s2,4.9,2.3,8.3l0.2,3.3l-2.8,0.2l-0.2-3.2c-0.2-2.6-0.8-4.8-1.7-6.4s-2.2-2.9-3.8-3.7c-1.5-0.8-3.2-1.1-5.1-1s-3.5,0.7-4.9,1.7
		s-2.4,2.4-3,4.2s-0.9,4-0.7,6.6l0.3,3.7l-2.8,0.2L145.2,572.9L145.2,572.9z M170.5,576.9c-0.6,0-1.1,0-1.5,0s-0.9,0-1.3,0
		c-0.4,0-1,0.1-1.6,0.1s-1.3,0.1-2.2,0.2l-11.9,0.9c-0.8,0.1-1.5,0.1-2.1,0.2c-0.6,0.1-1.1,0.1-1.6,0.2s-0.9,0.1-1.3,0.2
		s-0.9,0.1-1.4,0.2l-0.3-3.5c0.8-0.1,1.4-0.1,1.9-0.2c0.5,0,1.1-0.1,1.8-0.1s1.6-0.1,2.7-0.2l12.1-0.9c1.1-0.1,2-0.2,2.6-0.2
		s1.2-0.1,1.8-0.1c0.5,0,1.2-0.1,2-0.2L170.5,576.9L170.5,576.9z"/>
	<path class="st1" d="M143.9,546.3c0-2,0.2-3.7,0.8-5s1.4-2.3,2.4-2.9c1-0.6,2.3-1,3.7-1c0.8,0,1.6,0.1,2.4,0.4
		c0.8,0.3,1.6,0.8,2.4,1.5c0.7,0.7,1.3,1.6,1.8,2.9s0.7,2.7,0.7,4.6l-2.3-0.7v-0.8c-0.1-1.1-0.4-1.9-0.9-2.5s-1-1.1-1.7-1.3
		c-0.7-0.3-1.4-0.4-2.2-0.4c-1.4,0-2.5,0.5-3.3,1.3c-0.7,0.9-1.1,2.1-1.1,3.7v2.7h-2.9L143.9,546.3L143.9,546.3z M168.9,551.6
		c-0.5,0-1-0.1-1.4-0.1s-0.9,0-1.3,0c-0.4,0-0.9,0-1.5,0s-1.3,0-2.1,0l-12.1,0.2c-0.8,0-1.5,0-2.1,0s-1.1,0-1.6,0.1
		c-0.5,0-0.9,0.1-1.4,0.1c-0.4,0-0.9,0.1-1.4,0.1l-0.1-3.4c0.6,0,1.1,0,1.5,0s0.8,0,1.3,0c0.4,0,0.9,0,1.5,0s1.3,0,2.2,0l12.1-0.2
		c0.9,0,1.6,0,2.1,0c0.6,0,1.1,0,1.5,0s0.9,0,1.3-0.1c0.4,0,0.9-0.1,1.4-0.1L168.9,551.6L168.9,551.6z M157.2,542.6l5.5-4.8
		c0.4-0.3,0.8-0.7,1.2-1c0.4-0.4,0.8-0.7,1.2-1.1c0.4-0.4,0.8-0.8,1.2-1.1s0.8-0.7,1.2-1s0.7-0.6,1-0.9l0.1,4.2
		c-0.3,0.2-0.6,0.5-0.9,0.8c-0.3,0.3-0.6,0.5-0.9,0.8c-0.3,0.3-0.6,0.5-0.9,0.8s-0.6,0.5-0.9,0.8s-0.6,0.5-0.9,0.8l-4,3.4
		c-0.2,0.2-0.5,0.5-0.8,0.8s-0.5,0.6-0.8,0.9c-0.2,0.3-0.4,0.6-0.5,0.9L157.2,542.6L157.2,542.6z"/>
	<path class="st1" d="M163.3,511.5c0.8-0.2,1.4-0.4,2-0.6s1.2-0.3,1.8-0.5s1.2-0.3,1.6-0.5s0.8-0.3,0.9-0.4l-0.2,3.4v0.2
		c-1.1,0.3-2,0.6-2.8,0.8s-1.6,0.5-2.4,0.7c-0.8,0.2-1.8,0.5-2.8,0.8l-14,3.6v-0.4l14.9,6.1c1.2,0.5,2.2,0.9,3.1,1.3s1.7,0.7,2.3,1
		c0.6,0.2,0.9,0.4,1.1,0.5l-0.2,3.7c-0.1,0-0.4-0.2-0.8-0.4s-1-0.5-1.7-0.8s-1.4-0.6-2.1-1c-0.7-0.3-1.4-0.7-2.1-1
		c-0.6-0.3-1.4-0.6-2.2-1l-9.9-4.4c-0.8-0.3-1.5-0.7-2-0.9c-0.6-0.2-1.1-0.5-1.7-0.8c-0.6-0.3-1.3-0.6-2.1-0.9l0.1-3L163.3,511.5
		L163.3,511.5z M158.4,525.5l0.6-12.4l2.8,0.1l-0.6,12.4L158.4,525.5z"/>
	<path class="st1" d="M162.3,475l2.6,0.4l-3.3,22.1l-2.6-0.4L162.3,475z"/>
	<path class="st1" d="M174.1,446.9c0.8-0.1,1.5-0.1,2.1-0.2s1.2-0.1,1.9-0.2s1.2-0.1,1.7-0.2s0.8-0.1,1-0.2l-0.8,3.4l-0.1,0.2
		c-1.1,0.1-2.1,0.2-2.9,0.3c-0.8,0.1-1.6,0.2-2.5,0.2c-0.8,0.1-1.8,0.2-2.9,0.3l-14.4,1l0.1-0.4l13.5,8.7c1.1,0.7,2,1.3,2.9,1.8
		s1.5,1,2.1,1.4s0.9,0.5,1,0.6l-0.9,3.6c-0.1-0.1-0.3-0.2-0.7-0.6c-0.4-0.3-0.9-0.7-1.5-1.1s-1.2-0.9-1.9-1.3s-1.3-0.9-1.9-1.3
		s-1.2-0.9-2-1.4l-9-6.2c-0.7-0.5-1.3-0.9-1.8-1.3s-1-0.7-1.6-1.1s-1.1-0.8-1.9-1.3l0.7-2.9L174.1,446.9L174.1,446.9z M166.7,459.7
		l2.8-12.1l2.8,0.6l-2.8,12.1L166.7,459.7z"/>
	<path class="st1" d="M182.5,439.8c-0.5-0.2-0.9-0.4-1.3-0.5c-0.4-0.1-0.8-0.3-1.2-0.4s-0.9-0.3-1.5-0.5s-1.2-0.4-2.1-0.6l-11.6-3.5
		c-0.8-0.2-1.4-0.4-2-0.6s-1.1-0.3-1.5-0.4c-0.5-0.1-0.9-0.2-1.3-0.3c-0.4-0.1-0.9-0.2-1.4-0.3l1-3.4c0.5,0.2,0.9,0.4,1.3,0.5
		s0.8,0.3,1.3,0.4s0.9,0.3,1.5,0.5s1.2,0.4,2,0.6l11.6,3.5c0.8,0.2,1.5,0.4,2,0.6s0.9,0.3,1.3,0.4c0.4,0.1,0.8,0.2,1.2,0.4
		s0.9,0.3,1.6,0.5h0.1L182.5,439.8L182.5,439.8z M182.8,429c0.1-0.4,0.2-0.8,0.4-1.2s0.2-0.8,0.3-1.3c0.1-0.4,0.2-0.8,0.3-1.2
		l2.8,1.2l-3.6,12l-2.7-0.8L182.8,429L182.8,429z"/>
	<path class="st1" d="M172.4,392.2c0.4,0.2,0.9,0.4,1.3,0.6c0.4,0.2,0.8,0.4,1.2,0.5s0.9,0.4,1.5,0.6c0.5,0.2,1.2,0.5,1.9,0.7
		l6.4,2.4c2,0.8,3.7,1.7,4.9,2.7s2.2,2.1,2.8,3.3c0.6,1.2,0.9,2.4,0.9,3.7s-0.3,2.6-0.8,3.9s-1.1,2.4-2,3.4c-0.8,1-1.8,1.7-3,2.3
		c-1.2,0.5-2.6,0.8-4.2,0.7c-1.6-0.1-3.5-0.5-5.6-1.3l-6.4-2.4c-0.8-0.3-1.4-0.5-1.9-0.7s-1-0.4-1.5-0.5c-0.4-0.2-0.9-0.3-1.3-0.4
		c-0.4-0.1-0.9-0.3-1.3-0.4l1.3-3.3c0.4,0.2,0.9,0.4,1.3,0.6c0.4,0.2,0.8,0.4,1.2,0.5s0.9,0.4,1.5,0.6c0.5,0.2,1.2,0.5,1.9,0.7
		l6.5,2.5c2.7,1,5,1.3,6.8,0.8s3.1-1.8,4-4c0.6-1.5,0.7-2.8,0.4-3.9s-1-2.2-2.1-3.1s-2.6-1.7-4.4-2.4l-6.4-2.4
		c-0.8-0.3-1.4-0.5-1.9-0.7s-1-0.4-1.5-0.5s-0.9-0.3-1.3-0.4c-0.4-0.1-0.9-0.3-1.3-0.4L172.4,392.2L172.4,392.2z"/>
	<path class="st1" d="M198.6,393.8c-0.5-0.3-0.9-0.5-1.3-0.7s-0.8-0.4-1.2-0.6s-0.9-0.4-1.4-0.7s-1.2-0.5-2-0.9l-10.9-5
		c-0.7-0.3-1.4-0.6-1.9-0.9c-0.5-0.2-1-0.4-1.5-0.6c-0.4-0.2-0.9-0.3-1.3-0.5s-0.8-0.3-1.3-0.5l1.5-3.2c0.7,0.3,1.3,0.6,1.7,0.8
		s1,0.5,1.6,0.7c0.6,0.3,1.4,0.7,2.5,1.1l11,5.1c1,0.5,1.8,0.8,2.4,1.1c0.6,0.3,1.1,0.5,1.6,0.8s1.1,0.5,1.8,0.8L198.6,393.8
		L198.6,393.8z M178.5,378c1.4-3.1,3.1-5.4,4.9-7c1.9-1.6,3.9-2.6,6.1-2.8s4.4,0.1,6.6,1.2c2.2,1,3.9,2.5,5.2,4.3s1.9,4,1.9,6.5
		s-0.7,5.3-2.1,8.3l-1.4,3l-2.6-1.2l1.3-2.9c1.1-2.4,1.6-4.5,1.6-6.5c0-1.9-0.5-3.6-1.5-5.1s-2.3-2.5-4-3.3s-3.4-1.1-5.1-0.9
		c-1.7,0.2-3.2,0.9-4.7,2.2c-1.4,1.3-2.7,3.1-3.8,5.5l-1.6,3.4l-2.6-1.2L178.5,378L178.5,378z"/>
	<path class="st1" d="M209.5,370.9c-0.4-0.3-0.8-0.5-1.2-0.8s-0.7-0.5-1.1-0.7c-0.4-0.2-0.8-0.5-1.3-0.7c-0.5-0.3-1.1-0.6-1.9-1
		l-10.7-5.8c-0.7-0.4-1.3-0.7-1.8-1s-1-0.5-1.4-0.7s-0.8-0.4-1.2-0.6s-0.8-0.4-1.3-0.6l1.6-3c0.5,0.3,0.9,0.5,1.3,0.7
		c0.4,0.2,0.7,0.4,1.1,0.6c0.4,0.2,0.8,0.4,1.3,0.7c0.5,0.3,1.1,0.6,1.9,1l10.6,5.8c0.8,0.4,1.4,0.7,1.9,1s0.9,0.5,1.4,0.7
		c0.4,0.2,0.8,0.4,1.2,0.6s0.8,0.4,1.3,0.6L209.5,370.9L209.5,370.9z M190.2,354.1c1-1.8,2-3.1,3.1-4s2.3-1.3,3.5-1.4
		c1.2,0,2.5,0.3,3.7,1c0.7,0.4,1.3,0.9,1.9,1.5c0.6,0.7,1,1.5,1.3,2.4c0.3,1,0.4,2.1,0.2,3.4s-0.7,2.7-1.6,4.4l-1.7-1.7l0.4-0.7
		c0.4-1,0.6-1.9,0.5-2.6c-0.1-0.8-0.4-1.5-0.8-2s-1-1-1.7-1.4c-1.3-0.7-2.4-0.8-3.5-0.4s-2,1.3-2.7,2.7l-1.3,2.4l-2.5-1.4
		L190.2,354.1L190.2,354.1z M203.7,357.4l7.1-1.5c0.5-0.1,1-0.2,1.5-0.3s1.1-0.2,1.6-0.4s1.1-0.3,1.6-0.4s1.1-0.2,1.5-0.3
		c0.5-0.1,0.9-0.2,1.3-0.3l-2,3.7c-0.4,0.1-0.7,0.1-1.1,0.2c-0.4,0.1-0.8,0.2-1.2,0.3c-0.4,0.1-0.8,0.2-1.2,0.3s-0.8,0.2-1.2,0.3
		c-0.4,0.1-0.8,0.2-1.1,0.2l-5.1,1c-0.3,0.1-0.7,0.2-1,0.3s-0.8,0.2-1.1,0.4c-0.3,0.1-0.6,0.3-0.9,0.5L203.7,357.4L203.7,357.4z"/>
	<path class="st1" d="M225.8,330.6c0.8,0.2,1.5,0.4,2.1,0.5s1.2,0.3,1.8,0.4s1.2,0.3,1.7,0.4s0.8,0.2,1,0.1l-1.9,2.9l-0.1,0.2
		c-1.1-0.3-2-0.5-2.9-0.7c-0.8-0.2-1.6-0.4-2.4-0.6c-0.8-0.2-1.8-0.5-2.9-0.7l-14-3.8l0.2-0.3l9.9,12.7c0.8,1,1.5,1.9,2.1,2.7
		s1.1,1.5,1.5,2s0.6,0.8,0.7,0.9l-2,3.1c-0.1-0.1-0.2-0.4-0.5-0.8s-0.6-0.9-1.1-1.5c-0.4-0.6-0.9-1.2-1.3-1.9s-0.9-1.3-1.3-1.9
		s-0.9-1.2-1.4-2l-6.4-8.8c-0.5-0.7-1-1.3-1.3-1.8s-0.7-1-1.1-1.5c-0.4-0.5-0.8-1.1-1.3-1.8l1.6-2.5L225.8,330.6L225.8,330.6z
		 M214.5,340.3l6.6-10.5l2.4,1.5l-6.6,10.5L214.5,340.3z"/>
	<path class="st1" d="M243.4,297.1l2.1,1.6L232,316.5l-2.1-1.6L243.4,297.1z"/>
	<path class="st1" d="M267.6,278.4c0.7,0.3,1.4,0.6,1.9,0.8s1.1,0.5,1.7,0.7s1.1,0.5,1.6,0.7s0.8,0.3,1,0.3l-2.4,2.5l-0.2,0.2
		c-1-0.5-1.9-0.9-2.7-1.2c-0.8-0.3-1.5-0.7-2.3-1c-0.8-0.4-1.6-0.8-2.7-1.2l-13.1-6.2l0.3-0.3l7.4,14.2c0.6,1.1,1.1,2.1,1.6,3
		s0.8,1.6,1.1,2.2c0.3,0.6,0.5,0.9,0.5,1L259,297c0-0.1-0.2-0.4-0.4-0.8s-0.5-1-0.8-1.7s-0.6-1.4-1-2.1c-0.3-0.7-0.7-1.4-1-2
		c-0.3-0.6-0.6-1.4-1-2.2l-4.8-9.8c-0.4-0.8-0.7-1.4-1-2s-0.6-1.1-0.8-1.7c-0.3-0.6-0.6-1.2-1-2l2-2.2L267.6,278.4L267.6,278.4z
		 M254.9,285.9l8.4-9.1l2.1,1.9l-8.4,9.1L254.9,285.9z"/>
	<path class="st1" d="M278.9,275.9c-0.3-0.4-0.6-0.8-0.9-1.1c-0.3-0.3-0.6-0.6-0.9-1s-0.6-0.7-1-1.1s-0.9-0.9-1.5-1.5l-8.4-8.7
		c-0.6-0.6-1-1.1-1.4-1.5s-0.8-0.8-1.1-1.1c-0.3-0.3-0.7-0.6-1-0.9s-0.7-0.6-1-0.9l2.6-2.5c0.3,0.4,0.6,0.8,0.9,1.1
		c0.3,0.3,0.6,0.7,0.9,1s0.7,0.7,1.1,1.2c0.4,0.4,0.9,0.9,1.4,1.5l8.4,8.7c0.6,0.6,1.1,1.1,1.4,1.5c0.4,0.4,0.7,0.7,0.9,1
		c0.3,0.3,0.5,0.6,0.8,0.9s0.7,0.7,1.2,1.2l0.1,0.1L278.9,275.9L278.9,275.9z M284.5,266.6c0.3-0.3,0.6-0.6,0.9-0.9s0.6-0.6,0.9-1
		c0.3-0.3,0.6-0.6,0.9-1l1.8,2.4l-9,8.6l-2-2.1L284.5,266.6L284.5,266.6z"/>
	<path class="st1" d="M291.9,230.8c0.3,0.4,0.6,0.8,0.8,1.1c0.3,0.3,0.5,0.7,0.8,1.1c0.3,0.4,0.6,0.8,1,1.2s0.8,1,1.4,1.6l4.4,5.2
		c1.4,1.6,2.4,3.2,3,4.7s0.9,2.9,0.8,4.2s-0.4,2.5-1,3.6s-1.5,2.1-2.5,3c-1,0.9-2.2,1.6-3.4,2c-1.2,0.5-2.4,0.6-3.8,0.5
		c-1.3-0.1-2.7-0.6-4-1.5c-1.4-0.9-2.8-2.1-4.3-3.9l-4.4-5.2c-0.5-0.6-1-1.1-1.4-1.6s-0.7-0.8-1-1.2s-0.6-0.7-0.9-1s-0.6-0.6-1-1
		l2.7-2.3c0.3,0.4,0.6,0.8,0.8,1.1c0.3,0.3,0.5,0.7,0.8,1.1s0.6,0.8,1,1.2s0.8,1,1.3,1.6l4.5,5.3c1.9,2.2,3.7,3.5,5.5,4
		c1.8,0.5,3.6-0.1,5.4-1.6c1.2-1,1.9-2.1,2.2-3.2s0.2-2.4-0.3-3.7s-1.4-2.7-2.7-4.2l-4.4-5.2c-0.5-0.6-1-1.1-1.3-1.6s-0.7-0.8-1-1.2
		s-0.6-0.7-0.9-1s-0.6-0.6-1-1L291.9,230.8L291.9,230.8z"/>
	<path class="st1" d="M313.5,245.7c-0.3-0.5-0.6-0.9-0.8-1.3c-0.2-0.4-0.5-0.7-0.7-1.1s-0.6-0.8-0.9-1.3s-0.8-1.1-1.3-1.8l-7-9.7
		c-0.5-0.6-0.9-1.2-1.2-1.7c-0.4-0.5-0.7-0.9-1-1.2c-0.3-0.4-0.6-0.7-0.9-1s-0.6-0.7-0.9-1.1l2.9-2.1c0.5,0.6,0.8,1.1,1.1,1.6
		s0.7,0.9,1,1.4c0.4,0.5,0.9,1.3,1.6,2.2l7.1,9.8c0.7,0.9,1.2,1.6,1.6,2.1s0.7,1,1,1.4s0.7,1,1.2,1.6L313.5,245.7L313.5,245.7z
		 M303.5,222.1c2.7-2,5.3-3.2,7.7-3.7c2.4-0.5,4.7-0.4,6.7,0.5s3.7,2.2,5.2,4.2c1.4,2,2.3,4.1,2.5,6.3s-0.3,4.4-1.5,6.6
		c-1.2,2.2-3.1,4.3-5.9,6.3l-2.6,1.9l-1.7-2.3l2.6-1.9c2.1-1.5,3.6-3.2,4.6-4.9c0.9-1.7,1.3-3.4,1.2-5.1c-0.2-1.7-0.8-3.3-1.9-4.9
		c-1.1-1.5-2.5-2.6-4-3.2c-1.6-0.6-3.3-0.7-5.2-0.3c-1.9,0.4-3.9,1.4-6,2.9l-3,2.2l-1.7-2.3L303.5,222.1L303.5,222.1z"/>
	<path class="st1" d="M333.5,231.4c-0.2-0.5-0.5-0.9-0.7-1.3c-0.2-0.4-0.4-0.8-0.7-1.1c-0.2-0.4-0.5-0.8-0.8-1.3s-0.7-1.1-1.1-1.8
		l-6.5-10.2c-0.4-0.7-0.8-1.3-1.1-1.8c-0.3-0.5-0.6-0.9-0.9-1.3c-0.3-0.4-0.5-0.8-0.8-1.1c-0.2-0.4-0.5-0.7-0.8-1.1l2.9-1.8
		c0.3,0.5,0.6,0.9,0.8,1.2c0.2,0.4,0.5,0.7,0.7,1.1c0.2,0.4,0.5,0.8,0.8,1.3s0.7,1.1,1.2,1.8l6.5,10.2c0.5,0.7,0.8,1.3,1.1,1.8
		s0.6,0.9,0.8,1.3c0.2,0.4,0.5,0.7,0.8,1.1s0.5,0.7,0.9,1.1L333.5,231.4L333.5,231.4z M324.9,207.3c1.7-1.1,3.3-1.8,4.7-2
		c1.4-0.2,2.6-0.1,3.7,0.5s2,1.4,2.8,2.7c0.4,0.7,0.7,1.4,0.9,2.3c0.2,0.9,0.2,1.8,0,2.8s-0.7,2-1.5,3s-2,2.1-3.5,3l-0.6-2.3
		l0.7-0.4c0.9-0.6,1.4-1.3,1.7-2.1c0.3-0.7,0.4-1.4,0.2-2.2c-0.1-0.7-0.4-1.4-0.8-2c-0.8-1.2-1.7-1.9-2.9-2.1
		c-1.1-0.1-2.4,0.2-3.7,1.1l-2.3,1.5l-1.5-2.4L324.9,207.3L324.9,207.3z M335,216.7l7,2.2c0.5,0.1,1,0.3,1.5,0.5s1.1,0.3,1.6,0.5
		s1.1,0.3,1.6,0.5c0.5,0.1,1,0.3,1.5,0.4c0.5,0.1,0.9,0.3,1.3,0.4l-3.5,2.2c-0.3-0.1-0.7-0.2-1.1-0.4c-0.4-0.1-0.8-0.2-1.2-0.4
		c-0.4-0.1-0.8-0.2-1.2-0.4c-0.4-0.1-0.8-0.2-1.2-0.4c-0.4-0.1-0.8-0.2-1.1-0.4l-5-1.6c-0.3-0.1-0.7-0.2-1-0.3
		c-0.4-0.1-0.8-0.1-1.1-0.2s-0.7,0-1,0L335,216.7L335,216.7z"/>
	<path class="st1" d="M366.3,204.7c0.6,0.6,1.1,1,1.5,1.4s0.9,0.8,1.4,1.3c0.5,0.4,0.9,0.8,1.3,1.1s0.6,0.5,0.8,0.6l-3,1.6l-0.2,0.1
		c-0.8-0.8-1.5-1.4-2.1-2s-1.2-1.1-1.8-1.7s-1.3-1.2-2.1-2L351.8,195l0.3-0.2l2.4,15.9c0.2,1.2,0.4,2.4,0.5,3.4s0.2,1.8,0.3,2.4
		c0.1,0.6,0.1,1,0.2,1.2l-3.3,1.8c0-0.1,0-0.4-0.1-0.9c0-0.5-0.1-1.1-0.2-1.8s-0.2-1.5-0.2-2.3c-0.1-0.8-0.2-1.6-0.2-2.2
		c-0.1-0.7-0.2-1.5-0.3-2.4l-1.3-10.8c-0.1-0.9-0.2-1.6-0.3-2.2c-0.1-0.6-0.1-1.2-0.2-1.9s-0.2-1.4-0.3-2.2l2.6-1.4L366.3,204.7
		L366.3,204.7z M351.8,207.7l10.9-5.9l1.4,2.5l-10.9,5.9L351.8,207.7z"/>
	<path class="st1" d="M398.7,183.8l1,2.4l-20.6,8.8l-1-2.4L398.7,183.8z"/>
	<rect x="61.7" y="61.7" class="st2" width="956.6" height="956.6"/>
	<path class="st1" d="M690.8,410c-12.5-18.2-26.7-32.5-42.5-42.9c-15.9-10.4-31.9-18-48-22.6c-16.1-4.7-31.5-7-46-7
		c-13.5,0-25.8,2.1-36.7,6.2c-10.9,4.2-19.3,10.3-25,18.3c-5.7,8.1-8.6,18.1-8.6,30c0,15.6,5.8,29.4,17.6,41.4
		c11.7,12,26.8,23,45.3,33.2c18.5,10.1,37.6,19.9,57.4,29.3c20.3,10.4,38.4,20.9,54.2,31.6c15.9,10.7,29.5,22.4,41,35.1
		c11.4,12.8,20.4,26.5,26.9,41.4c6.5,14.8,9.8,31.6,9.8,50.3c0,33.3-8.5,62.2-25.4,86.6c-16.9,24.5-40.2,43.3-69.9,56.6
		s-64.3,19.9-103.8,19.9c-25,0-49-2.5-72.2-7.4c-23.2-5-43.8-11-62-18.3s-32.8-15.1-43.7-23.4l4.7-136.6
		c14,21.3,30.6,38.4,49.6,51.1c19,12.8,38.2,22,57.8,27.7c19.5,5.7,37.1,8.6,52.7,8.6c27.6,0,48.8-4.7,63.6-14s22.2-23.4,22.2-42.2
		c0-13-4.4-24.1-13.3-33.2c-8.8-9.1-21.3-17.6-37.5-25.4c-16.1-7.8-34.1-16.4-53.9-25.8c-28.6-13-53.7-27.2-75.3-42.5
		s-38.8-33.4-51.5-54.2c-12.8-20.8-19.1-46-19.1-75.7c0-33.3,8.5-62.2,25.4-86.6c16.9-24.5,40.3-43.6,70.2-57.4
		c29.9-13.8,63.4-20.7,100.3-20.7c30.7,0,58.9,3.5,84.7,10.5c25.8,7,47,15,63.6,23.8L690.8,410L690.8,410z"/>
	<circle class="st3" cx="540.9" cy="540" r="351"/>
</g>
</svg>
