<?xml version="1.0" encoding="utf-8"?>
<!-- Generator: Adobe Illustrator 27.5.0, SVG Export Plug-In . SVG Version: 6.00 Build 0)  -->
<svg version="1.1" id="Small_Sticker" xmlns="http://www.w3.org/2000/svg" xmlns:xlink="http://www.w3.org/1999/xlink" x="0px"
	 y="0px" viewBox="0 0 1080 1080" style="enable-background:new 0 0 1080 1080;" xml:space="preserve">
<style type="text/css">
	.st0{fill:#FF2F17;}
	.st1{fill:#F4F3EE;}
</style>
<g>
	<g>
		<path class="st0" d="M539.5,975.4c241.3,0,436.9-195.6,436.9-436.9S780.8,101.6,539.5,101.6S102.6,297.2,102.6,538.5
			S298.2,975.4,539.5,975.4"/>
		<path class="st1" d="M849.4,579.8c0-21.1,6-28.5,27.7-34.5v47.5c0,3.1,0.3,6,0.5,8.6c-4.7,5.7-8.6,7.6-13,7.6
			C854.6,609,849.4,600.4,849.4,579.8 M905.8,624.9c17,0,27.2-6.8,31.6-21.1l-2.6-0.8c-2.6,6.8-5,9.1-8.6,9.1
			c-4.2,0-6.3-2.9-6.3-11.5v-76.7c0-34.5-14.9-47.5-50.4-47.5c-18,0-35.8,3.6-52.7,11.5l3.1,42h26.9l2.6-46.5c0-1.8,1.3-2.6,2.3-2.9
			c1.8-0.5,4.4-0.8,6.5-0.8c11.5,0,18.8,8.9,18.8,34.5v28.2c-53.8,12.8-68.9,25.3-68.9,48.8s14.1,33.7,33.7,33.7
			c14.6,0,26.6-6.3,36.3-20.1C881.2,619.2,889.6,625,905.8,624.9 M749.2,625.2c26.9,0,42.8-15.7,49.1-47.8l-2.6-0.8
			c-4.4,15.9-12.5,23-27.2,23c-22.5,0-34.2-16.2-34.2-60s11-60.8,25.8-60.8c1.8,0,2.6,0,3.4,0.3c1.6,0.5,2.1,1.6,2.1,3.1l2.6,48.8
			h26.6l2.9-42.8c-10.7-8.1-25.1-12.3-41.2-12.3c-39.7,0-65.3,26.6-65.3,76S715,625.2,749.2,625.2 M608.2,621h79.1v-2.9l-17.8-2.6
			V476.7l-61.3,11.2v2.6H626v125l-17.8,2.6V621L608.2,621z M622.6,441.4c0,13.8,10.7,23.5,24.8,23.5s25.1-10.4,25.1-23.5
			s-11-23.2-24.8-23.2C633,418.2,622.6,427.9,622.6,441.4 M571.7,625.2c24.3,0,37.6-14.4,37.1-45.2h-2.6
			c-0.5,18.3-5.2,25.1-14.6,25.1c-7.3,0-11.5-5.2-11.5-17.8V483.5h27.4v-3.1H580V437h-27.2l-5,39.9c-0.3,1.6-1,2.1-2.6,2.4
			l-25.3,1.3v2.6h16.4v104.1C536.4,613.2,548.2,625.2,571.7,625.2 M465.4,625.2c26.9,0,42.8-15.7,49.1-47.8l-2.6-0.8
			c-4.4,15.9-12.5,23-27.1,23c-22.5,0-34.2-16.2-34.2-60s11-60.8,25.8-60.8c1.8,0,2.6,0,3.4,0.3c1.6,0.5,2.1,1.6,2.1,3.1l2.6,48.8
			h26.6l2.9-42.8c-10.7-8.1-25.1-12.3-41.2-12.3c-39.7,0-65.3,26.6-65.3,76S431.2,625.2,465.4,625.2 M304.4,615.5l-17.8,2.6v2.9
			h85.6v-2.9l-24.5-2.6V513.5c2.4-11,13.8-24,17.8-25.1c2.1-0.5,3.1,0.3,3.4,3.1l2.4,38.9h26.4l2.9-52c-3.1-0.8-7.3-1.3-11.8-1.3
			c-15.9,0-32.9,10.4-41,27.9v-28.5l-61.1,11.2v2.6h17.8L304.4,615.5L304.4,615.5z M169.9,564.6l24.5-93.2l26.4,93.2H169.9z
			 M292.4,618.2l-10.7-2.3l-52.7-186.4H202l-47.8,184l-17,4.7v2.9h59v-2.9l-38.9-4.7l11.8-45.7h52.5l13.6,47.8l-19.6,2.6v2.9h76.7
			L292.4,618.2L292.4,618.2z"/>
		<path class="st1" d="M450.8,246.3l7.5-1.9v-46.5l-7.5-1.9v-2.6h26.4c10.7,0,16.5,5.9,16.5,14.1c0,7.7-5.1,12.4-13.9,13.3v0.6
			c7.4,0.9,10.5,4,11.7,10.8l2,10.9c0.4,2.2,1,2.9,2,2.9c1.1,0,1.7-0.7,2.3-2.4l2.9,1c-1,3.6-3.2,5.5-7.3,5.5s-6.2-1.9-7.2-7.2
			l-1.7-9.2c-1.4-7.6-3.9-10.5-11.1-10.5h-8.2v21.3l7.4,1.9v2.6h-21.8L450.8,246.3L450.8,246.3z M474.1,219.1
			c7.8,0,12.3-3.4,12.3-11.1c0-6.9-3.8-10.8-12-10.8h-9.1v21.9H474.1L474.1,219.1z"/>
		<path class="st1" d="M504,246.3l6.8-1.6v-30.7L504,213v-2.9l13.5-0.9v35.6l6.8,1.6v2.6H504V246.3L504,246.3z M514.2,192.2
			c2.6,0,4.7,1.9,4.7,5s-2.1,5.1-4.7,5.1c-2.9,0-4.8-2.1-4.8-5.1S511.4,192.2,514.2,192.2z"/>
		<path class="st1" d="M545.1,209.2c5,0,9.6,1.2,12.7,3.1l-1,9.3h-3.7l-1.4-7.5c-0.1-0.5-0.2-0.6-0.5-0.8c-1-0.5-3.7-0.9-6.2-0.9
			c-5.4,0-8.1,1.8-8.1,5.6c0,3.2,1.8,5.2,9.2,8.3c9.8,4,12.9,8,12.9,12.8c0,6.5-5.5,10.7-15,10.7c-5.2,0-10.4-1.2-13.7-3.2l0.9-10
			h3.7l1.4,8.2c0.1,0.5,0.2,0.6,0.6,0.8c1,0.5,4.2,0.9,7.2,0.9c5.9,0,8.7-1.9,8.7-5.9c0-3.2-1.8-5.3-9.5-8.4
			c-9.7-4-12.6-7.6-12.6-12.5C530.8,213.3,536.1,209.2,545.1,209.2L545.1,209.2z"/>
		<path class="st1" d="M570.9,238.9l0.2-25.4H565v-3.4h6.5l1.3-12.1h5.1v12.1h10.3v3.4h-10.3l-0.2,24.8c-0.1,5.1,1.6,6.9,4.6,6.9
			c3.4,0,5.1-1.7,5.6-7.4l3.2,0.2c0.2,8-3.5,11.8-10.5,11.8C573.9,249.9,570.8,246.5,570.9,238.9L570.9,238.9z"/>
		<path class="st1" d="M596.2,229.5c0-12.5,6.9-20.5,19-20.5s19.2,7.9,19.2,20.4c0,13.1-7.6,20.7-19.2,20.7S596.2,242.8,596.2,229.5
			L596.2,229.5z M615.2,246.8c7.3,0,11.9-5.6,11.9-17.2s-4.6-17.2-11.9-17.2s-11.8,5.6-11.8,16.9C603.5,241.2,608,246.8,615.2,246.8
			L615.2,246.8z"/>
		<path class="st1" d="M370.9,334.3l7.5-2v-46.5l-7.5-2v-2.6h21.8v2.6l-7.4,2v46.5l7.4,2v2.6h-21.8V334.3z M386.6,308.6L409,286
			l-8-2.1v-2.6h18.8v2.6l-5.2,2.1l-20.4,20.7l20.4,25.7l5.6,2v2.6h-11.1L386.6,308.6L386.6,308.6z"/>
		<path class="st1" d="M426.5,324.6v-22.5l-6.1-1.1v-2.9l12.8-0.9v26.8c0,6.6,2.6,9.4,7.5,9.4s9.2-2.6,11.8-7.7v-23.5l-6.1-1.1v-2.9
			l12.8-0.9v35.7l6.9,1.1v2.9l-13.6,0.8v-8c-2.7,5.2-8.5,8.3-14.4,8.3C430.6,337.9,426.6,333.3,426.5,324.6L426.5,324.6z"/>
		<path class="st1" d="M476.9,342.9v-40.8l-6.7-1.1v-2.9l13.4-0.9v42.6c0,10.1-3.7,14-13.9,15.1l-0.5-3.2
			C475.8,350.2,476.9,348.9,476.9,342.9L476.9,342.9z M480.4,280.1c2.6,0,4.7,2,4.7,5.1s-2.1,5.2-4.7,5.2c-3,0-4.8-2.1-4.8-5.2
			S477.4,280.1,480.4,280.1z"/>
		<path class="st1" d="M518.6,330.8c-4.5,5.1-8.9,7.2-13.3,7.2c-5.9,0-10.1-3.8-10.1-10c0-5.6,3.2-9,12-11.5l11.5-3.4V310
			c0-6-2.8-9.2-8.4-9.2c-2,0-5.1,0.2-6.4,0.5c-0.5,0.1-0.6,0.3-0.7,0.9l-1.8,9h-3.6l-1.2-11.1c4.7-1.6,11.5-2.6,15.6-2.6
			c9.5,0,13,3.5,13,12.8v21c0,2,0.7,2.8,1.7,2.8s2-0.8,2.7-2.4l2.9,1c-0.9,3.4-3.5,5.5-7,5.5C521.3,338.1,518.8,335.8,518.6,330.8
			L518.6,330.8z M507.7,333.8c3.3,0,6.9-1.9,10.9-6.8v-9.9l-8.7,1.8c-5.8,1.2-7.9,3.6-7.9,8.1S504.2,333.8,507.7,333.8L507.7,333.8z
			"/>
		<path class="st1" d="M536.4,334.3l6.9-1.6v-30.7l-6.9-1.1v-2.9l13.6-0.9v8.5c2.7-4.8,8.1-8.3,14.6-8.3c7.4,0,11.6,4.5,11.6,13.7
			v21.6l6.9,1.6v2.6h-20.4v-2.6l6.8-1.6v-21c0-6.5-2.6-9.6-7.2-9.6c-5.4,0-9.8,2.6-12.2,7.5v23.1l6.7,1.6v2.6h-20.3V334.3z"/>
		<path class="st1" d="M599.7,331.9v18.4l7.7,1.6v2.6h-21.3v-2.6l6.9-1.6V302l-6.9-1.1v-2.8l13.6-0.9v8c2.3-4.9,6.9-8,13-8
			c9.7,0,16.2,7.6,16.2,19.9c0,13.3-7.7,21.4-17.5,21.4C606,338.3,601.8,335.8,599.7,331.9L599.7,331.9z M610.2,334.4
			c6.8,0,11.6-5.1,11.6-16.8s-4.3-16.4-11-16.4c-5.1,0-8.8,3-11.1,10.1v14.3C601.2,331.6,604.8,334.4,610.2,334.4L610.2,334.4z"/>
		<path class="st1" d="M660.8,330.8c-4.5,5.1-8.9,7.2-13.3,7.2c-5.9,0-10.1-3.8-10.1-10c0-5.6,3.2-9,12-11.5l11.5-3.4V310
			c0-6-2.8-9.2-8.3-9.2c-2,0-5.1,0.2-6.4,0.5c-0.5,0.1-0.6,0.3-0.7,0.9l-1.8,9H640l-1.2-11.1c4.7-1.6,11.5-2.6,15.6-2.6
			c9.5,0,13,3.5,13,12.8v21c0,2,0.7,2.8,1.7,2.8s2-0.8,2.7-2.4l2.9,1c-0.9,3.4-3.5,5.5-7,5.5C663.6,338.1,661.1,335.8,660.8,330.8
			L660.8,330.8z M645.2,281.7c2.3,0,4.2,1.6,4.2,4.4s-1.8,4.5-4.2,4.5s-4.1-1.9-4.1-4.5S642.8,281.7,645.2,281.7z M649.9,333.8
			c3.3,0,6.9-1.9,10.9-6.8v-9.9l-8.7,1.8c-5.8,1.2-7.9,3.6-7.9,8.1S646.5,333.8,649.9,333.8L649.9,333.8z M660.5,281.7
			c2.3,0,4.3,1.6,4.3,4.4s-1.9,4.5-4.3,4.5s-4.1-1.9-4.1-4.5S658.1,281.7,660.5,281.7z"/>
		<path class="st1" d="M703.6,330.8c-4.5,5.1-8.9,7.2-13.3,7.2c-5.9,0-10.1-3.8-10.1-10c0-5.6,3.2-9,12-11.5l11.5-3.4V310
			c0-6-2.8-9.2-8.3-9.2c-2,0-5.1,0.2-6.4,0.5c-0.5,0.1-0.6,0.3-0.7,0.9l-1.8,9h-3.6l-1.2-11.1c4.7-1.6,11.5-2.6,15.6-2.6
			c9.5,0,13,3.5,13,12.8v21c0,2,0.7,2.8,1.7,2.8s2-0.8,2.7-2.4l2.9,1c-0.9,3.4-3.5,5.5-7,5.5C706.3,338.1,703.8,335.8,703.6,330.8
			L703.6,330.8z M687.9,281.7c2.3,0,4.2,1.6,4.2,4.4s-1.8,4.5-4.2,4.5s-4.1-1.9-4.1-4.5S685.6,281.7,687.9,281.7z M692.7,333.8
			c3.3,0,6.9-1.9,10.9-6.8v-9.9l-8.7,1.8c-5.8,1.2-7.9,3.6-7.9,8.1S689.2,333.8,692.7,333.8L692.7,333.8z M703.2,281.7
			c2.3,0,4.3,1.6,4.3,4.4s-1.9,4.5-4.3,4.5s-4.1-1.9-4.1-4.5S700.9,281.7,703.2,281.7z"/>
		<path class="st1" d="M445.2,762.7l7.9-2v-47.1h-13.3c-0.4,0-0.7,0.3-0.8,0.7l-1.6,11.4l-4.1-0.2l-0.3-15.8h47.2l-0.4,15.8
			l-4.1,0.2l-1.6-11.4c-0.1-0.4-0.3-0.7-0.7-0.7H460v47.1l7.8,2v2.6h-22.6L445.2,762.7L445.2,762.7z"/>
		<path class="st1" d="M480,746.4c0-12.8,7.2-21,18-21c9.8,0,16.2,6.7,16,20.7H487c0.1,10.3,5,15.3,12.6,15.3
			c4.6,0,8.7-1.6,11.6-4.7l2.3,1.8c-2.9,4.8-9.3,7.9-16.2,7.9C487.2,766.4,480.1,759.1,480,746.4L480,746.4z M507,742.8
			c0-10.1-3.6-14.1-9.2-14.1s-10,4.3-10.7,14.1H507z"/>
		<path class="st1" d="M538.9,762.7l6.3-1.5l-8.5-11.8l-8,10.7l5,2.6v2.6h-14.9v-2.6l5.8-2.6l10.2-13.4l-11.5-16.1l-3.9-1.6v-2.6
			h17.9v2.6l-6.2,1.6l9,12.5l8-11.5l-5.5-2.6v-2.6h14.9v2.6l-5.5,2.6l-10,14.2l11,15.3l5,1.6v2.6h-19L538.9,762.7L538.9,762.7z"/>
		<path class="st1" d="M567.4,755.3l0.2-25.4h-6.2v-3.4h6.5l1.3-12.1h5.1v12.1h10.3v3.4h-10.3l-0.2,24.8c-0.1,5.2,1.6,6.9,4.6,6.9
			c3.4,0,5.1-1.7,5.6-7.4l3.2,0.2c0.2,8-3.5,11.8-10.5,11.8C570.5,766.2,567.3,762.9,567.4,755.3L567.4,755.3z"/>
		<path class="st1" d="M609.3,722.2c0-6.7,5.5-11.2,13.1-11.2c7.1,0,11.5,4.3,11.5,10.5c0,5.5-3.5,9.7-10,12.9l14.6,17.3
			c3.3-5.2,4.7-9.8,4.5-13.9l-6.3-2.7v-2.6H654v2.6l-7,2.7c0,3.9-1.5,10.1-5.7,16.3l-0.3,0.5l4.7,5.5l8.3,2.4v2.6h-13.4l-4.4-5.2
			c-4.6,4.1-10.1,6.4-16.1,6.4c-10,0-16.2-6.2-16.2-15c0-7.1,4.3-12.5,11.7-15.8l-0.7-0.9C610.8,729.7,609.3,725.8,609.3,722.2
			L609.3,722.2z M623.1,761.7c4,0,7.6-1.2,10.9-4.5l-16.5-19.5c-4.3,2.3-6.5,6.2-6.5,11.9C611.1,757.3,615.5,761.7,623.1,761.7
			L623.1,761.7z M621.3,731.2l0.8,0.9c5.4-3,8-6.5,8-10.5c0-4.4-3-6.8-6.9-6.8c-4.2,0-6.9,2-6.9,6.4
			C616.3,723.9,617.1,726.2,621.3,731.2L621.3,731.2z"/>
		<path class="st1" d="M407.3,853.2l0.5-2.6l8.1-2l10.8-46.5l-7.2-2l0.5-2.6h24.2c16.1,0,24.2,10.3,21.1,27.4
			c-3.3,18.5-17.4,28.2-34.3,28.2L407.3,853.2L407.3,853.2z M432.7,849.3c13,0,21.8-6.6,25.4-24c3.2-15.2-2-23.7-15-23.7h-9.7
			l-11.1,47.7L432.7,849.3L432.7,849.3z"/>
		<path class="st1" d="M472.1,846l6.7-27.8l-6.3-0.4l0.4-3.5l13.3-0.7l-7.8,32.5c-0.8,3.3-0.4,4.4,1.2,4.4c1.6,0,4-1.1,5.6-2.9
			l1.6,1.7c-2.2,3.3-5.9,5.3-9.4,5.3C472.4,854.5,470.9,851.3,472.1,846L472.1,846z M486.9,797.5c2.4,0,3.9,1.6,3.2,4.5
			c-0.6,2.8-3,4.7-5.4,4.7c-2.7,0-4-1.9-3.4-4.7C482.1,799.2,484.2,797.5,486.9,797.5L486.9,797.5z"/>
		<path class="st1" d="M495.6,821.7c1.3-5.5,6.8-8.5,13-8.7c4.8-0.2,10.1,1.4,13,3.6l-3.5,8.2h-3.2l-0.8-7.8c-1.9-0.6-4-0.9-6.2-0.8
			c-4.2,0.3-6.4,1.9-7.1,4.7c-0.9,3.8,1.9,7.4,7.3,10.5c8.4,4.8,10.6,9.1,9.3,14c-1.6,5.8-6.5,8.9-14.4,8.9
			c-5.1,0-10.3-1.3-13.2-3.5l3.4-8.3h3.4l0.9,7.7c1.8,0.7,3.5,0.9,5.5,0.9c5.5,0,8.1-1.8,8.9-4.8c0.9-3-0.9-5.9-7.5-9.9
			C496.7,831.8,494.4,826.5,495.6,821.7L495.6,821.7z"/>
		<path class="st1" d="M532.7,852.5l-3.4,14.3l6.7,0.4l-0.8,3.5h-17.6l0.8-3.5l4.7-0.5l11.5-48.4l-5.2-0.4l0.4-3.5l12.2-0.7l-3,12.2
			c4.8-9,10-12.7,14.7-12.7c5.1,0,9.8,6.2,9.8,15.4c0,15.5-11.2,25.9-23.4,25.9C537.1,854.5,534.6,853.8,532.7,852.5L532.7,852.5z
			 M540.7,851.4c8.3,0,16.3-8.3,16.3-21.8c0-7.8-2.2-11.3-5.2-11.3c-3.3,0-8.6,4.5-13.9,12.6l-4,16.8
			C535.2,850.1,537.6,851.4,540.7,851.4L540.7,851.4z"/>
		<path class="st1" d="M576,797l0.4-3.5l12.9-0.7L576.5,846c-0.8,3.3-0.4,4.4,1.2,4.4c1.6,0,4-1.1,5.6-2.9l1.6,1.7
			c-2.2,3.3-5.8,5.3-9.4,5.3c-4.8,0-6.5-3.3-5.3-8.6l11.7-48.6L576,797L576,797z"/>
		<path class="st1" d="M614.5,846.7l0.8-3.1c-5.5,7.8-10.2,10.8-14.3,10.8c-6.3,0-11.9-10.5-8.7-22.3c3-11.6,11.5-19,20.8-19
			c3.1,0,6,0.9,8.9,2.8l2.3-2.5h4.5l-8.2,33.7c-0.5,2.2,0.2,3,1.6,3c1.6,0,4-1.1,5.6-2.9l1.6,1.7c-2.2,3.3-5.8,5.3-9.6,5.3
			C615.6,854.1,613.2,851.6,614.5,846.7L614.5,846.7z M602.9,849.2c2.4,0,8.1-3.4,13.3-9.7l5.1-20.6c-1.6-1.7-4.5-2.8-6.9-2.8
			c-6.5,0-13.1,6.1-15.5,16C596.1,842.6,599.1,849.2,602.9,849.2z"/>
		<path class="st1" d="M642.1,871.3c-5.2,0-8.1-0.9-10.9-2.3l2-7.8h4.4l0.8,6.8c1.2,0.2,2.1,0.3,3.4,0.3c8.8,0,13.3-3,16.2-14.7
			l2.8-11.8c-5.9,8.7-11.5,12.7-16.9,12.7c-4.9,0-8-3.5-6.1-11.2l6.1-25.2l-6.2-0.4l0.4-3.5l13.3-0.7l-7.2,30
			c-1.3,5.4-0.2,6.9,2,6.9c4.1,0,10.5-5.1,16.2-14.7l5.1-21.3h6.2l-9.8,40.6C660.8,867,653.7,871.3,642.1,871.3L642.1,871.3z"/>
	</g>
</g>
</svg>
