<?xml version="1.0" encoding="UTF-8"?><svg id="Small_Sticker" xmlns="http://www.w3.org/2000/svg" viewBox="0 0 1080 1080"><defs><style>.cls-1{fill:#fff;}.cls-2{fill:#808285;}</style></defs><circle class="cls-2" cx="560.11" cy="555.06" r="412.86"/><path class="cls-2" d="m972.56,499.22l53.86.29-47.71-56.1c-8.98-10.56-2.62-26.88,11.15-28.57l20.15-2.47-64.76-53.71c-10.13-8.4-7.64-24.56,4.54-29.53l22.96-9.36-65.55-33.58c-12.34-6.32-12.7-23.84-.63-30.66l17.67-9.99-80.38-24.84c-12.57-3.88-16.46-19.77-7.1-29.02l17.63-17.44-73.41-5.94c-13.82-1.12-20.86-17.16-12.31-28.09l12.51-15.99-83.77,7.81c-13.1,1.22-22.77-11.97-17.67-24.09l9.62-22.85-70.1,22.61c-13.2,4.26-25.84-7.87-22.12-21.24l5.44-19.56-74.41,39.27c-11.63,6.14-25.62-2.34-25.54-15.5l.14-24.8-56.1,47.71c-10.56,8.98-26.88,2.62-28.57-11.15l-2.47-20.15-53.71,64.76c-8.4,10.13-24.56,7.64-29.53-4.54l-9.36-22.96-33.58,65.55c-6.32,12.34-23.83,12.7-30.66.63l-9.99-17.67-24.84,80.38c-3.88,12.57-19.77,16.46-29.02,7.1l-17.43-17.63-5.94,73.41c-1.12,13.82-17.16,20.86-28.08,12.31l-15.99-12.5,7.81,83.76c1.22,13.1-11.96,22.77-24.09,17.67l-22.86-9.61,22.61,70.1c4.26,13.2-7.87,25.84-21.24,22.12l-19.55-5.43,23.21,79.2c4.24,14.45-10.64,27.1-24.22,20.61h0s47.71,56.11,47.71,56.11c8.98,10.57,2.61,26.88-11.15,28.56l-20.15,2.46,51.75,64.29c9.44,11.73.55,29.11-14.49,28.31h0s65.56,33.58,65.56,33.58c12.34,6.32,12.7,23.84.63,30.66l-17.67,9.98,72.41,39.6c13.22,7.23,11.64,26.69-2.56,31.7h0s73.41,5.94,73.41,5.94c13.82,1.12,20.86,17.16,12.31,28.08l-12.5,15.99,84.54-6.54c13.31-1.03,22.78,12.68,17.1,24.77l-9.82,20.91,70.1-22.61c13.2-4.26,25.84,7.87,22.12,21.24l-5.44,19.56,79.2-23.21c14.45-4.24,27.1,10.64,20.61,24.22h0s56.11-47.71,56.11-47.71c10.56-8.98,26.88-2.62,28.57,11.15l2.47,20.15,64.29-51.75c11.73-9.44,29.11-.55,28.31,14.49h0s33.58-65.55,33.58-65.55c6.32-12.34,23.84-12.7,30.66-.63l9.98,17.67,24.84-80.38c3.88-12.57,19.77-16.46,29.02-7.1l17.43,17.63,5.94-73.41c1.12-13.82,17.16-20.86,28.08-12.31l15.99,12.5-7.81-83.76c-1.22-13.1,11.96-22.77,24.09-17.67l22.86,9.61-22.61-70.09c-4.26-13.2,7.87-25.83,21.23-22.12l19.56,5.43-52.84-100.1h0Z"/><path d="m540.5,724.96c0,1.69.03,3.38,0,5.07-.19,8.63-1.58,17.04-4.58,25.15-3.48,9.4-9.06,17.29-17.12,23.29-7.74,5.76-15.6,11.37-23.41,17.04-.39.28-.79.55-1.21.79-.54.31-1.15.42-1.75.26-1.05-.27-2.1-.56-3.12-.91-6.61-2.29-13.21-4.6-19.82-6.89-6.61-2.28-13.17-4.72-19.6-7.48-2.88-1.24-5.69-2.63-8.49-4.05-1.17-.59-2.24-1.41-3.32-2.18-.62-.44-.91-1.15-.9-1.9.03-2.05.14-4.09.51-6.12,1.34-7.49,3.24-14.84,5.2-22.18,2.99-11.19,6.36-22.26,9.78-33.32,3.17-10.25,6.35-20.51,9.85-30.66,3.66-10.61,7.59-21.11,12.18-31.35,2.42-5.39,5.03-10.7,8.1-15.76,1.69-2.79,3.52-5.48,5.56-8.03,1.52-1.9,3.24-3.56,5.28-4.91,1.56-1.03,3.23-1.53,5.11-1.53,2.47,0,4.78.52,6.97,1.63,2.17,1.1,4.13,2.48,5.9,4.15,3.46,3.26,6.21,7.05,8.54,11.17,3.64,6.42,6.49,13.2,8.93,20.15,3.55,10.15,6.22,20.54,7.91,31.16.62,3.93,1.38,7.84,1.79,11.8.38,3.59,1,7.17,1,10.8,0,.6,0,1.21.1,1.81.68,4.31.52,8.66.59,13Z"/><path d="m572.38,763.54c2.29,0,4.58-.05,6.87.02,1.68.05,3.36.25,5.04.39.96.08,1.92.15,2.88.24,1.8.16,3.6.33,5.4.49.48.05.96.13,1.44.16,6.25.42,12.46,1.24,18.67,2.09,3.82.52,7.65.96,11.47,1.49,3.7.51,7.4,1.04,11.08,1.64,6.07.99,12.11,2.09,18.07,3.63,2.1.54,4.17,1.18,6.24,1.84.92.29,1.78.74,2.67,1.1,2.2.89,3.45,2.55,3.93,4.83.5,2.36,1.02,4.72,1.01,7.15,0,3.74.08,7.48-.11,11.21-.18,3.61-.65,7.2-1.03,10.79-.28,2.63-.66,5.26-.96,7.89-.89,7.69-2.47,15.22-5.06,22.53-1.9,5.37-4.38,10.44-7.66,15.11-4.9,6.97-11.17,12.27-18.96,15.73-2.9,1.29-5.93,1.92-9.1,2.08-5.98.29-11.77-.65-17.46-2.43-7.28-2.28-14.19-5.39-20.86-9.06-12.93-7.1-24.95-15.56-36.54-24.65-6.27-4.92-12.33-10.06-17.94-15.73-2.88-2.92-5.72-5.87-8.21-9.15-1.9-2.5-3.67-5.08-5.07-7.9-.86-1.73-1.53-3.53-2.04-5.4-1.44-5.22.22-9.48,3.98-13.09.78-.75,1.68-1.38,2.55-2.02,6.32-4.64,12.79-9.06,19.55-13.05,4.05-2.39,8.23-4.55,12.64-6.22,2.96-1.12,6.02-1.74,9.18-1.78,2.77-.03,5.55,0,8.32,0v.07Z"/><path d="m455.72,793.12c2.07-.04,4.09.22,6.09.72,7.07,1.77,13.23,5.1,18.29,10.41,1.67,1.76,3.09,3.7,4.21,5.85,2.33,4.43,3.73,9.13,4.08,14.14.07.96.15,1.92.28,2.88.25,1.8.25,3.6.01,5.41-.13.95-.25,1.92-.27,2.88-.07,3.03-.61,6-1.19,8.95-1.57,7.95-4.12,15.6-7.32,23.05-3.44,8-7.67,15.56-12.29,22.92-4.95,7.87-10.31,15.44-16.31,22.54-3.97,4.71-8.22,9.14-13.16,12.87-2.12,1.6-4.39,2.96-6.81,4.08-3.32,1.54-6.74,1.74-10.23.84-2.33-.6-4.65-1.29-6.95-2-11.99-3.72-23.69-8.22-35.06-13.53-9.18-4.29-18.09-9.11-26.66-14.53-2.44-1.54-4.77-3.27-7.06-5.04-1.94-1.5-2.11-2.42-1.13-4.72,1.29-3.01,3.01-5.78,5.06-8.32,2.5-3.09,5.06-6.14,7.7-9.11,4.16-4.69,8.41-9.3,12.62-13.94.16-.18.32-.36.49-.53,4.96-5.27,9.91-10.54,14.87-15.8,3.64-3.86,7.24-7.75,10.93-11.56,3.27-3.38,6.59-6.71,9.95-10,5.86-5.75,12.13-11.04,18.82-15.79,5.22-3.71,10.69-6.99,16.65-9.42,3.48-1.42,7.09-2.36,10.78-2.98,1.18-.2,2.4-.18,3.6-.26Z"/><path d="m300.53,795.47c-.09-5.51.67-10.52,1.73-15.47,1.88-8.75,4.64-17.23,8.09-25.48,1.82-4.35,4.03-8.49,6.57-12.47,1.56-2.45,3.38-4.7,5.3-6.87,2.58-2.93,5.62-5.29,9.05-7.13,5.1-2.74,10.24-5.4,15.37-8.08.85-.45,1.74-.83,2.64-1.18.7-.28,1.44-.23,2.1.13.95.53,1.89,1.07,2.77,1.7,8.16,5.79,16.37,11.53,24.45,17.43,11.11,8.1,22.16,16.29,33.16,24.53,5.02,3.76,9.89,7.72,14.8,11.62,1.13.9,2.17,1.91,3.21,2.92.78.75.9,1.64.41,2.65-.37.76-.74,1.53-1.21,2.22-1.7,2.49-3.35,5.02-5.18,7.41-5.52,7.17-11.45,14-17.59,20.65-4.17,4.52-8.29,9.09-12.48,13.59-5.76,6.19-11.81,12.07-18.55,17.21-5.39,4.11-11.04,7.78-17.45,10.15-3.41,1.26-6.91,2.2-10.53,2.49-5.82.46-11.26-.97-16.34-3.76-2.54-1.4-4.88-3.1-7.01-5.09-4.7-4.38-8.9-9.17-12.49-14.5-4.98-7.4-8.38-15.48-9.9-24.27-.61-3.56-1.14-7.15-.94-10.38Z"/><path d="m225.99,432.65c.05-3.13.08-6.26.48-9.39.32-2.51.46-5.04.74-7.55.42-3.85,1.15-7.63,1.91-11.41,1.76-8.76,4.2-17.34,6.96-25.84,1.6-4.94,3.45-9.79,5.8-14.42.87-1.72,1.84-3.4,2.89-5.01.72-1.1,1.64-2.08,2.54-3.05.75-.8,1.69-1.33,2.74-1.7,2.74-.99,5.58-1.52,8.46-1.89,2.14-.28,4.06.3,5.7,1.75.63.56,1.29,1.09,1.89,1.69,2.91,2.89,5.84,5.76,8.54,8.86,2.85,3.27,5.85,6.41,8.73,9.67,4.55,5.15,9.08,10.33,13.55,15.55,2.83,3.3,5.6,6.64,8.28,10.05,4.78,6.07,9.27,12.35,13.15,19.04,2.24,3.87,4.23,7.85,5.7,12.09,1.24,3.57,1.85,7.25,2.02,10.99.5,10.85-1.11,21.41-4.83,31.62-2.38,6.55-5.89,12.4-10.95,17.27-3.7,3.56-7.96,6.23-12.78,8.02-4.54,1.69-9.24,2.74-14.01,3.5-2.98.48-6,.59-8.99.9-2.53.26-5.05.41-7.58.42-3.29.02-6.49-.54-9.61-1.52-3.73-1.17-7.06-3.09-9.97-5.71-2.7-2.43-5.1-5.12-7.06-8.2-2.07-3.26-3.93-6.63-5.44-10.2-3.54-8.39-5.79-17.13-7.29-26.07-.54-3.2-.81-6.45-1.1-9.7-.29-3.25-.43-6.49-.47-9.75Z"/><path d="m945.17,571.54c.03,3.33-.44,6.44-1.08,9.5-1.36,6.49-2.84,12.95-4.28,19.42-.29,1.29-.61,2.58-.93,3.86-.25,1.01-.91,1.68-1.84,2.1-.66.3-1.32.59-1.99.87-13.09,5.57-26.17,11.18-39.29,16.68-7.23,3.03-14.48,6-21.93,8.46-1.49.49-2.98.99-4.49,1.41-1.04.29-2.11.49-3.18.66-.63.1-1.19-.18-1.61-.65-.9-1-1.47-2.21-1.96-3.44-1.16-2.91-2.34-5.82-3.38-8.77-2.38-6.71-4.32-13.55-6.28-20.39-1.53-5.33-2.99-10.68-4.02-16.14-.85-4.5-1.67-9-1.88-13.6-.13-2.89-.62-5.76-.48-8.66.08-1.56.16-3.13.32-4.69.27-2.64.45-5.28.89-7.9.88-5.26,2.24-10.38,4.45-15.23,3.5-7.69,7.41-15.17,12.24-22.13,1.45-2.09,3.12-3.98,4.87-5.82,2.55-2.68,5.78-3.44,9.24-3.24,4.64.27,8.99,1.67,13.04,3.97,2.31,1.31,4.59,2.68,6.66,4.35,2.81,2.27,5.69,4.48,8.34,6.94,5.13,4.75,10.28,9.49,15.13,14.54,5.1,5.3,10.2,10.6,15.26,15.94,4.18,4.41,6.8,9.6,7.66,15.66.31,2.16.57,4.3.52,6.3Z"/><path d="m608.72,913.85c.19,2.29-.11,4.57-.24,6.86-.05.87-.46,1.62-1.03,2.26-.89,1-1.93,1.83-3.12,2.43-1.94.97-3.88,1.95-5.88,2.78-4.69,1.95-9.55,3.33-14.46,4.61-10.86,2.83-21.84,5.05-32.93,6.74-3.09.47-6.19.99-9.34,1.03-1.08.01-2.16.21-3.23.34-2.42.29-4.81.13-7.19-.37-1.38-.29-2.45-.98-3.23-2.13-.67-1-1.33-2.01-1.95-3.04-2.26-3.72-4.19-7.61-5.99-11.56-5.23-11.53-10.39-23.09-14.7-35.01-3.65-10.11-6.46-20.46-8.13-31.09-.67-4.29-1.32-8.58-1.39-12.93-.01-.72-.07-1.45-.16-2.16-.42-3.37-.42-6.73-.04-10.1.15-1.31.18-2.65.22-3.97.07-2.65.1-5.31.17-7.96.03-1.08.09-2.17.16-3.25.13-2.04.28-4.09.44-6.13.06-.72.16-1.43.28-2.14.06-.37.87-.78,1.19-.6.63.35,1.27.69,1.84,1.11,3.58,2.66,7.16,5.32,10.72,8.01,13.19,9.95,26.38,19.9,39.55,29.87,8.46,6.41,16.82,12.95,25.01,19.7,4.74,3.91,9.47,7.85,13.93,12.09,2.18,2.08,4.41,4.11,6.61,6.17,2.56,2.4,4.85,5.05,7.06,7.75,1.06,1.3,2.01,2.71,2.92,4.13,1.12,1.75,1.71,3.68,2.03,5.75.57,3.59.79,7.19.87,10.81Z"/><path d="m264.34,510.79c1.17,0,1.77.02,2.38,0,5.11-.23,9.74,1.31,14.15,3.73,4.27,2.34,7.96,5.43,11.48,8.74,3.43,3.23,6.47,6.82,9.39,10.52,6.68,8.44,12.4,17.52,17.7,26.86,6.79,11.96,13.05,24.2,18.97,36.61,3.27,6.86,6.27,13.84,8.72,21.04.93,2.73,1.6,5.56,2.42,8.33.55,1.87.61,3.81.75,5.73.06.83-.09,1.68-.24,2.51-.19,1.01-.83,1.72-1.75,2.17-.99.49-2.04.77-3.14.76-1.69-.02-3.39.01-5.05-.21-4.55-.61-9-1.69-13.38-3.06-8.76-2.74-17.3-6.03-25.75-9.6-4.89-2.07-9.68-4.35-14.41-6.75-6.79-3.46-13.19-7.53-19.19-12.23-8.16-6.4-14.95-13.99-20.07-23.03-3.3-5.83-5.52-12.06-6.85-18.59-1.04-5.08-1.72-10.22-2.29-15.37-.35-3.11-.83-6.21-1.09-9.33-.36-4.32-.71-8.65-.81-12.99-.06-2.52.36-5.04.61-7.56.06-.59.29-1.17.46-1.74.33-1.09,1.03-1.93,2.03-2.43,1.07-.53,2.19-1.01,3.33-1.37,3.46-1.1,7.05-1.56,10.65-1.96,1.8-.2,3.6-.38,5.4-.5,2.04-.14,4.09-.19,5.58-.26Z"/><path d="m326.84,497.74c6.27-.19,11.63.53,17.01,1.26,7.77,1.04,15.42,2.68,23.07,4.37,8.35,1.85,16.69,3.74,24.97,5.91,4.66,1.22,9.31,2.52,13.85,4.15,3.95,1.42,4.27,1.68,5.13,5.7.83,3.89,1.53,7.8,2.18,11.72.72,4.4,1.33,8.81,1.95,13.23.32,2.27.58,4.54.78,6.82.3,3.52-.22,6.98-.92,10.41-1.55,7.6-5.1,14.24-9.87,20.3-4.74,6.03-10.52,10.93-16.62,15.48-2.62,1.95-5.45,3.54-8.52,4.7-2.28.86-4.61,1.28-7.05,1.42-4.99.27-9.53-1.01-13.81-3.5-2.51-1.46-4.86-3.14-7.01-5.09-4.3-3.9-8.11-8.24-11.53-12.93-4.63-6.35-8.63-13.08-12.27-20.02-3.69-7.04-7.23-14.17-10.69-21.33-3.04-6.3-5.63-12.79-7.75-19.47-1.02-3.23-1.89-6.48-2.38-9.82-.23-1.54-.3-3.12-.28-4.68.01-.94.27-1.9.52-2.82.33-1.21,1.07-2.19,2.14-2.81,1.03-.6,2.12-1.16,3.26-1.52,2.65-.84,5.36-1.41,8.16-1.46,2.17-.04,4.34,0,5.69,0Z"/><path d="m629.29,220.47c4.36.07,8.64.74,12.92,1.51,4.21.76,7.25,2.96,9.19,6.83,1.68,3.35,3.26,6.73,4.5,10.27,1.06,3.02,1.3,6.09.79,9.27-.78,4.79-2.19,9.39-3.92,13.9-2.74,7.11-6.03,13.96-9.67,20.63-3.23,5.93-6.63,11.77-10.05,17.6-3.17,5.43-6.79,10.54-11.04,15.2-2.21,2.42-4.64,4.57-7.28,6.48-3.37,2.44-7.11,4.06-11.23,4.75-2.05.34-4.07.33-6.12-.02-4.36-.75-8.29-2.54-11.96-4.94-2.73-1.79-5.29-3.8-7.6-6.12-4.93-4.96-9.91-9.89-14.77-14.92-4.69-4.86-9.29-9.81-13.6-15.02-1.3-1.58-2.47-3.27-3.64-4.95-.68-.97-.73-2.05-.11-3.08.74-1.24,1.48-2.49,2.32-3.66,3.59-5,7.45-9.79,11.38-14.53,2-2.41,4.08-4.76,6.28-7,7.34-7.43,15.62-13.62,24.65-18.84,6.18-3.57,12.58-6.65,19.25-9.18,4.52-1.71,9.13-3.1,13.94-3.78,1.92-.27,3.83-.41,5.77-.4Z"/><path d="m742.06,195.96c3.47.12,6.62.65,9.55,2.34,5.01,2.9,10,5.84,14.8,9.08,2.6,1.75,5.17,3.55,7.74,5.35.99.69,1.89,1.49,2.54,2.54.48.78.6,1.58.24,2.41-.33.77-.7,1.54-1.12,2.27-2.29,3.97-4.52,7.98-6.93,11.88-3.61,5.85-7.32,11.64-11.04,17.43-3.65,5.68-7.34,11.35-11.07,16.98-3.68,5.54-7.83,10.71-12.66,15.31-2.1,2.01-4.39,3.77-6.8,5.39-2.95,1.99-6.21,3.2-9.69,3.83-3.56.64-6.98.02-10.27-1.34-3.6-1.49-6.84-3.59-9.6-6.36-3.23-3.25-6.46-6.51-9.57-9.88-2.86-3.1-5.58-6.34-8.34-9.53-3.23-3.75-6.23-7.68-9.12-11.7-2.12-2.94-3.96-6.06-5.65-9.26-.68-1.27-1.24-2.62-1.76-3.97-1.62-4.18-1.01-8.07,1.77-11.57,2.04-2.56,4.39-4.83,7.1-6.66,2.09-1.42,4.25-2.76,6.47-3.98,5.72-3.14,11.7-5.72,17.68-8.32,4.65-2.02,9.39-3.81,14.16-5.52,7.74-2.78,15.67-4.84,23.82-5.96,2.63-.36,5.28-.53,7.74-.77Z"/><path d="m591.5,739.04c-.23-3.58.76-7.32,1.82-11.03,1.04-3.6,2.42-7.07,3.99-10.47,3.15-6.8,6.81-13.31,10.85-19.62,2.99-4.68,6.21-9.2,9.72-13.5,5.37-6.59,11.43-12.42,18.57-17.08,5.32-3.46,11.06-5.95,17.32-7.04,4.03-.7,8.1-1.36,12.22-.53.94.19,1.92.12,2.89.2,1.44.12,2.88.27,4.32.4.96.09,1.92.19,2.88.28,1.92.18,3.84.37,5.76.55.84.08,1.68.12,2.52.19,1.68.15,3.36.33,5.04.48,1.44.13,2.89.22,4.33.33,1.08.08,2.16.17,3.17.64.37.17.79.77.73,1.15-.08.47-.13.96-.29,1.41-.53,1.47-1.1,2.94-1.68,4.39-5.91,14.79-11.79,29.59-17.75,44.35-2.94,7.29-6.51,14.26-10.9,20.8-3.46,5.15-7.5,9.76-12.15,13.83-6.11,5.34-13.14,8.94-21.09,10.65-2,.43-4.01.84-6.08.86-.84,0-1.68.17-2.52.25-.72.07-1.45.2-2.16.15-6.15-.37-12.27-.91-18.14-3-1.94-.69-3.82-1.51-5.55-2.63-5.03-3.25-7.73-7.82-7.83-13.86,0-.6,0-1.21,0-2.16Z"/><path d="m410.32,746.53c-3.04.11-6.16-.67-9.17-2.04-2.87-1.3-5.6-2.83-8.12-4.71-9.87-7.35-19.74-14.69-29.61-22.04-1.55-1.15-3.05-2.36-4.56-3.57-.37-.3-.74-.64-.98-1.05-.16-.27-.18-.7-.1-1.02.09-.33.34-.64.59-.89.77-.76,1.55-1.52,2.38-2.22,7.16-6.1,14.32-12.2,21.5-18.28,5.06-4.29,10.14-8.55,15.23-12.81,5.18-4.34,10.37-8.66,15.56-12.98,4.73-3.94,9.44-7.89,14.2-11.78,8.31-6.79,16.65-13.56,25-20.3,3-2.42,6.13-4.7,9.15-7.09,2.66-2.1,5.61-3.76,8.43-5.61.29-.19.66-.27,1-.4.38-.15,1,.33,1,.78,0,.36.04.73-.02,1.08-.15.95-.32,1.9-.54,2.84-1.69,7.41-3.72,14.73-5.89,22.01-2.65,8.9-5.34,17.79-8.07,26.66-2.38,7.72-4.77,15.44-7.3,23.11-2.99,9.06-6.53,17.9-11.01,26.34-2.27,4.27-4.89,8.31-7.86,12.13-1.71,2.2-3.67,4.16-5.74,6.02-1.44,1.29-3.05,2.36-4.75,3.29-3.5,1.91-6.04,2.55-10.33,2.53Z"/><path d="m626.78,359.71c-2.97.22-6.68-.27-10.4-.66-1.21-.13-2.37-.41-3.48-.92-.62-.28-1.13-1.1-.97-1.78.27-1.17.55-2.35.98-3.47.79-2.02,1.61-4.04,2.56-5.99,1.85-3.79,3.7-7.59,5.73-11.29,3.88-7.08,7.84-14.13,11.87-21.14,3.31-5.75,6.61-11.51,10.35-16.99,3-4.39,6.23-8.59,10.01-12.35,1.89-1.88,3.96-3.53,6.13-5.07,1.68-1.19,3.51-2.11,5.43-2.85,4.49-1.72,8.96-1.68,13.41.08,2.94,1.16,5.61,2.8,7.98,4.89,1.36,1.2,2.66,2.45,3.93,3.75,3.88,3.97,7.82,7.88,11.58,11.96,5.81,6.29,11.72,12.49,17.15,19.12.61.75,1.21,1.5,1.79,2.27,2.25,2.95,2.94,6.25,2.38,9.9-.46,2.99-1.16,5.91-2.09,8.78-.58,1.78-1.57,3.24-2.92,4.49-1.7,1.57-3.6,2.84-5.69,3.81-3.51,1.62-7.1,3.04-10.83,4.07-6.98,1.93-14.05,3.43-21.21,4.5-5.6.84-11.21,1.64-16.85,2.19-3.36.33-6.7.77-10.06,1.13-1.08.12-2.17.11-3.25.21-4.56.4-9.14.64-13.71.93-3.01.19-6.01.37-9.81.41Z"/><path d="m822.29,544.39c-5.1,0-9.36-.85-13.6-1.77-3.54-.77-6.97-1.93-10.37-3.17-8.73-3.17-17.4-6.52-25.78-10.55-3.15-1.52-6.23-3.19-9.11-5.18-.79-.55-1.58-1.12-2.32-1.73-1.48-1.21-2.26-2.78-2.31-4.72-.09-3.62,0-7.21.59-10.82,1.44-8.7,3.39-17.27,6.29-25.61,1.47-4.22,3.24-8.3,5.55-12.16,3.66-6.12,8.76-10.52,15.31-13.28,1.79-.76,3.65-1.26,5.54-1.63,1.68-.33,3.37-.31,5.01.25,1.37.47,2.74.94,4.06,1.52,3.77,1.67,7.22,3.88,10.55,6.29,5.47,3.97,10.73,8.21,15.77,12.72,2.79,2.49,5.57,4.99,8.21,7.64,3.85,3.87,7.18,8.14,10.04,12.78,2.3,3.73,3.89,7.74,4.83,12.03.68,3.11.74,6.24.4,9.36-.64,5.72-2.53,11.04-5.69,15.87-4.17,6.39-9.98,10.34-17.57,11.6-2.03.34-4.05.62-5.38.56Z"/><path d="m370.26,337.19c.36-7.66,1.5-14.42,3.56-21.01,3.18-10.14,7.01-20.03,11.54-29.63,1.9-4.04,4.1-7.93,6.65-11.6.82-1.19,1.71-2.34,2.67-3.41,2.36-2.62,5.32-3.15,8.58-2.14,2.21.68,4.2,1.85,6.01,3.27,2.09,1.63,4.19,3.27,6.09,5.11,2.77,2.68,5.37,5.54,8.03,8.33.42.44.8.9,1.21,1.34,4.95,5.28,9.9,10.55,14.84,15.84,1.07,1.14,2.08,2.34,3.09,3.54.65.77.94,1.68.9,2.68-.04.96-.03,1.94-.16,2.89-.41,2.86-.83,5.72-1.34,8.57-1.77,9.97-3.84,19.88-6.08,29.75-1.99,8.82-4.05,17.62-6.13,26.41-.55,2.34-1.26,4.65-1.92,6.97-.2.69-.43,1.38-.69,2.05-.42,1.1-1.23,1.53-2.27,1.19-1.03-.34-2.05-.71-3.05-1.12-5.01-2.08-9.99-4.22-15.02-6.27-5.05-2.06-9.8-4.65-14.35-7.63-6.84-4.48-12.63-10.03-17.07-16.95-2.73-4.24-4.32-8.86-4.71-13.89-.13-1.68-.32-3.36-.41-4.28Z"/><path d="m883.55,707.77c-.01,1.4.02,3.81-.36,6.2-.11.71-.15,1.44-.16,2.16-.06,4.47-.74,8.87-1.33,13.29-.4,2.99-.93,5.95-1.49,8.91-.84,4.4-2.13,8.65-3.66,12.85-.82,2.27-1.89,4.44-3.07,6.54-1.31,2.33-2.94,4.41-4.91,6.22-2.65,2.44-5.71,3.9-9.32,4.37-2.19.29-4.32.07-6.48-.07-3.77-.24-7.37-1.17-10.89-2.46-5.52-2.03-10.21-5.38-14.5-9.33-2.58-2.38-4.75-5.13-6.94-7.85-2.41-3.01-4.68-6.13-6.97-9.24-1.29-1.75-2.38-3.63-3.26-5.62-.47-1.05-.54-2.09-.05-3.15.51-1.09.99-2.2,1.52-3.28,3.15-6.38,6.52-12.64,10.03-18.83,5.7-10.07,11.41-20.13,17.16-30.17,4.61-8.05,9.28-16.07,13.94-24.1,1.87-3.23,3.77-6.45,5.66-9.68.37-.62.73-1.25,1.12-1.86.94-1.47,2.26-1.58,3.68-.41,1.03.85,1.75,1.98,2.46,3.11,2.06,3.27,3.82,6.71,5.41,10.22,1.93,4.28,3.79,8.6,5.58,12.95,2.86,6.95,4.62,14.18,5.65,21.62.41,3,.46,6.01.79,8.99.28,2.52.41,5.04.39,8.59Z"/><path d="m353.46,669.29c.04-4.96-.09-8.81.47-12.65.14-.95.08-1.93.13-2.89.18-4.35.86-8.62,1.8-12.87.85-3.86,2.64-7.23,5.09-10.27,3.41-4.24,7.19-8.1,11.29-11.69,11.37-9.94,23.56-18.77,36.26-26.92,3.55-2.28,7.21-4.39,11.02-6.2,2.51-1.19,5.06-2.23,7.79-2.86,1.61-.37,3.1-.21,4.58.42,2.9,1.24,5.6,2.83,8.18,4.61,4.76,3.29,9.29,6.9,13.58,10.8.81.74,1.56,1.51,2.02,2.52.67,1.47.88,2.99.52,4.58-.68,2.97-1.82,5.74-3.41,8.33-1.9,3.08-3.94,6.07-6.25,8.86-2.08,2.5-4.17,5-6.43,7.34-3.94,4.07-7.95,8.08-12.05,11.99-2.96,2.83-6.08,5.49-9.18,8.17-3.83,3.31-7.68,6.6-11.56,9.84-7.41,6.18-15.1,12-23.09,17.41-3.79,2.57-7.7,4.97-11.83,6.97-2.17,1.04-4.41,1.95-6.65,2.82-2.04.79-4.19,1.09-6.39.96-2.15-.13-3.62-1.17-4.44-3.14-.47-1.12-.75-2.28-.83-3.5-.29-4.57-.79-9.13-.6-12.62Z"/><path d="m572.97,512.56c0,2.17.05,4.34-.01,6.51-.06,1.93-.24,3.85-.37,5.77-.08,1.2-.17,2.41-.24,3.61-.13,2.3-.59,4.54-1.27,6.74-.61,1.96-1.92,3.31-3.69,4.26-1.36.73-2.78.87-4.17.16-.96-.49-1.91-1.05-2.72-1.75-1-.86-1.9-1.85-2.76-2.86-3.69-4.32-7.06-8.87-10.26-13.56-7.96-11.66-15.71-23.46-22.82-35.66-3.04-5.21-5.97-10.48-8.79-15.81-2.99-5.65-5.56-11.51-7.78-17.51-2.15-5.8-3.43-11.8-4.18-17.93-.31-2.51-.79-5.01-.71-7.55.02-.72.02-1.45.07-2.17.07-.93.57-1.6,1.41-1.94,1-.41,2.03-.78,3.07-1.07,4.3-1.21,8.58-2.44,12.91-3.55,7.83-2,15.66-3.96,23.58-5.59,4.49-.92,9-1.72,13.56-2.2.24-.03.48-.05.72-.07,1.32-.08,2.4.36,3.01,1.57.54,1.07,1.03,2.18,1.44,3.31.95,2.61,1.6,5.31,2.15,8.03,1.3,6.38,2.29,12.81,3.02,19.29.51,4.55,1.09,9.09,1.44,13.66.29,3.72.76,7.43,1.11,11.15.12,1.2.11,2.41.2,3.61.35,4.81.64,9.62.95,14.44.21,3.25.42,6.49.53,9.75.07,2.05.25,4.09.37,6.14.06,1.08.15,2.17.16,3.25.02,2.65,0,5.31,0,7.96h.06Z"/><path d="m174.08,435.55c2.92.04,5.21.05,7.48.44.94.16,1.92.15,2.88.21,3.87.27,7.63,1.04,11.31,2.27,8.05,2.69,14.36,7.75,19.48,14.4,3.41,4.42,6.06,9.3,8.07,14.49,4,10.37,7.01,21.03,9.17,31.93.37,1.89.58,3.81.86,5.72.03.24.04.48.05.72.25,4.85-.68,5.63-3.98,7.73-1.22.77-2.48,1.5-3.79,2.1-6.27,2.87-12.76,5.08-19.48,6.62-3.82.87-7.68.77-11.51.28-4.57-.59-8.92-2.03-13.11-3.94-5.29-2.4-10.23-5.39-14.93-8.79-3.42-2.47-6.71-5.11-9.9-7.88-2.66-2.31-4.87-5.01-6.9-7.87-.91-1.28-1.63-2.67-2.1-4.19-.47-1.52-.61-3.04-.39-4.64,1.09-7.88,2.32-15.74,4.08-23.5,1.33-5.87,2.9-11.7,4.37-17.54.18-.7.44-1.38.66-2.07.64-1.95,1.98-3.29,3.79-4.16,1.64-.78,3.38-1.33,5.17-1.59,3.1-.46,6.2-.97,8.72-.77Z"/><path d="m745.47,747.28c-.05,3.26.02,6.52-.77,9.71-.09.35-.12.71-.21,1.06-.78,3.22-2.53,5.65-5.6,7.11-3.28,1.57-6.7,2.71-10.2,3.64-6.29,1.67-12.68,2.9-19.13,3.8-3.94.55-7.85,1.24-11.78,1.81-4.17.61-8.35,1.17-12.52,1.75-2.62.36-5.25.68-7.87,1.07-1.15.17-2.16-.04-3.07-.73-1.44-1.1-2.86-2.21-4.27-3.34-.99-.8-1.47-1.89-1.59-3.14-.14-1.45-.01-2.88.21-4.32.92-5.97,2.47-11.79,4.3-17.54,3.21-10.11,6.98-20.02,10.92-29.87,2.78-6.94,5.7-13.81,8.9-20.57,3.31-6.98,6.96-13.77,11.57-20,1.08-1.45,2.25-2.83,3.41-4.22,1.25-1.49,2.8-2.65,4.42-3.7,2.08-1.35,4.25-1.52,6.54-.54,3.38,1.44,6.3,3.48,8.72,6.27,3.22,3.7,5.32,8.02,7.03,12.55.85,2.25,1.54,4.57,2.15,6.9,1.79,6.76,3.42,13.55,4.72,20.42,1.05,5.56,2.07,11.13,2.72,16.76.33,2.87.81,5.73,1.09,8.6.21,2.16.22,4.33.32,6.5Z"/><path d="m214.32,664.25c-.05-2.92.47-5.77.99-8.61.14-.74.97-1.22,1.65-1.01.46.14.93.27,1.37.46,2.42,1.09,4.85,2.16,7.24,3.31,9.03,4.33,18.05,8.66,27.05,13.04,10.74,5.22,21.46,10.49,32.18,15.74,7.37,3.61,14.6,7.48,21.67,11.64,6.14,3.61,12.15,7.41,17.6,12.04,1.85,1.57,3.59,3.23,4.9,5.29.45.7.79,1.49,1.09,2.27.28.73.06,1.48-.47,2.01-.59.59-1.26,1.14-1.99,1.52-2.14,1.11-4.29,2.2-6.5,3.18-5.29,2.35-10.71,4.38-16.21,6.22-11.45,3.82-23.07,7.01-34.84,9.68-3.42.78-6.9,1.13-10.36,1.57-.24.03-.48.05-.72.04-5.1-.13-10.07-.84-14.77-3.01-4.97-2.3-8.75-5.93-11.91-10.29-3.15-4.35-5.31-9.2-6.84-14.3-3.33-11.09-6.31-22.28-8.73-33.6-.96-4.48-1.6-9.02-2.19-13.56-.15-1.19-.14-2.41-.21-3.61Z"/><path d="m845.58,633.55c-.84,0-1.69-.03-2.53,0-3.68.18-7.18-.67-10.61-1.89-5.47-1.95-10.73-4.36-15.79-7.18-10.02-5.58-19.73-11.65-29.1-18.26-2.76-1.95-5.54-3.86-8.28-5.83-7.18-5.14-13.82-10.91-19.81-17.41-2.79-3.03-5.23-6.31-7.27-9.89-.96-1.68-1.72-3.45-2.42-5.25-1.02-2.63-1.34-5.37-1.26-8.17.04-1.58.31-3.12.86-4.6,1.62-4.43,4.17-8.13,8.2-10.72,2.58-1.66,5.45-2.59,8.45-3.05,1.66-.26,3.37-.4,5.05-.35,3.74.11,7.45.42,11.13,1.21,8.3,1.77,16.26,4.54,23.86,8.28,7.41,3.64,14.14,8.31,19.95,14.21,4.25,4.31,7.89,9.12,10.87,14.4,3.1,5.48,5.61,11.22,7.29,17.3,2.83,10.23,5.61,20.47,8.41,30.7.35,1.28.68,2.56,1,3.85.09.35.11.71.14,1.07.08.71-.5,1.41-1.26,1.49-.6.07-1.2.13-1.8.13-1.69.02-3.38,0-5.07,0v-.03Z"/><path d="m283.95,258.32c-.24-4.59.2-9.04.67-13.47.05-.48.11-.96.21-1.43,1.15-5.79,1.58-5.78,5.07-8.78,4.67-4,9.51-7.81,14.48-11.44.49-.36.99-.68,1.47-1.06,1.6-1.26,3.44-1.75,5.43-1.55,2.28.23,4.55.51,6.81.87,5.84.93,11.58,2.31,17.31,3.76,9.94,2.51,19.79,5.35,29.59,8.35,6.23,1.91,12.39,4.02,18.44,6.45,3.36,1.35,6.72,2.71,9.79,4.66.91.58,1.79,1.23,2.63,1.9.57.46,1,1.08,1.14,1.81.32,1.66.61,3.32.84,4.99.19,1.36-.13,2.64-.94,3.77-.56.78-1.08,1.61-1.68,2.36-1.97,2.44-3.93,4.89-5.98,7.26-.78.9-1.71,1.71-2.67,2.42-2.04,1.52-4.26,2.72-6.61,3.71-5.02,2.1-10.19,3.72-15.46,5.06-7.49,1.9-15.06,3.36-22.69,4.52-4.17.63-8.34,1.31-12.52,1.87-6.83.91-13.7,1.19-20.58.82-4.59-.25-9.1-1.04-13.39-2.81-1.68-.7-3.26-1.57-4.72-2.65-3.25-2.42-5.2-5.66-6-9.59-.4-2.01-.69-4.04-.66-6.11.03-1.93,0-3.86,0-5.67Z"/><path d="m347.9,702.07c0,1.57.02,3.14-.01,4.7,0,.47-.16.94-.26,1.4-.05.24-.62.56-.88.51-.35-.07-.72-.1-1.05-.24-1.55-.66-3.11-1.32-4.64-2.03-4.26-2-8.53-3.98-12.75-6.04-16.48-8.04-32.95-16.1-49.41-24.18-6.28-3.08-12.44-6.41-18.42-10.05-5.88-3.57-11.63-7.33-16.97-11.7-2.9-2.38-5.58-4.99-8.08-7.77-1.95-2.17-3.44-4.63-4.64-7.3-1.96-4.38-1.4-8.46,1.32-12.31,2.14-3.03,4.93-5.3,8.37-6.68,2.47-.99,5.05-1.59,7.73-1.77,3.26-.22,6.52-.15,9.76.11,3.37.28,6.67,1.03,9.96,1.82,5.17,1.23,10.24,2.78,15.21,4.67,7.79,2.96,15.45,6.2,22.87,9.99,6.57,3.35,12.89,7.11,18.83,11.48,5.37,3.95,10.29,8.38,14.27,13.77,1.94,2.62,3.69,5.36,4.99,8.37,1.9,4.38,2.7,8.99,2.95,13.72.09,1.69.09,3.38.12,5.07.06,3.01.07,6.03.45,9.03.23,1.79.17,3.61.24,5.42h.04Z"/><path d="m603.2,390.09c.28-3.47,1.24-6.39,3.43-8.83,1.55-1.72,3.37-3.1,5.36-4.26,2.61-1.51,5.32-2.82,8.15-3.88,7.02-2.62,14.25-4.46,21.62-5.75,3.68-.64,7.35-1.3,11.04-1.86,2.74-.42,5.49-.7,8.24-1.03,3.47-.41,6.93-.84,10.41-1.19,3.59-.36,7.2-.64,10.79-.96,1.08-.1,2.16-.2,3.24-.31.48-.05.95-.16,1.43-.2,8.29-.61,16.58-1.22,24.91-.95.6.02,1.19.13,1.79.22.39.06.86.72.75,1.1-.19.69-.34,1.41-.68,2.03-1.67,3.07-3.29,6.17-5.11,9.15-3.89,6.38-7.84,12.72-11.87,19.01-4.1,6.39-8.27,12.74-12.5,19.04-4.03,6-8.21,11.9-12.64,17.63-2.51,3.24-5.07,6.44-8.03,9.3-.86.84-1.77,1.64-2.71,2.38-1,.79-2.21,1.03-3.42.69-1.39-.38-2.8-.78-4.09-1.4-2.17-1.04-4.31-2.17-6.35-3.43-7.3-4.5-14.07-9.73-20.7-15.14-4.68-3.82-9.02-7.99-13.15-12.38-2.07-2.2-3.9-4.6-5.53-7.13-1.84-2.86-3.26-5.91-3.95-9.26-.19-.94-.3-1.9-.42-2.6Z"/><path d="m700.49,619.2c0,2.65.01,5.3,0,7.95-.02,3.16-.59,6.24-1.47,9.25-2.37,8.12-7.8,13.11-15.9,15.24-5.18,1.36-10.47,1.66-15.78,1.17-3.24-.29-6.46-.73-9.68-1.18-5.62-.79-11.12-2.11-16.49-3.97-3.54-1.23-6.9-2.85-10.12-4.76-4.21-2.5-7.74-5.77-10.4-9.88-4.79-7.41-8.91-15.16-11.89-23.5-1.02-2.84-1.75-5.76-2.45-8.69-.72-3.01.2-5.49,2.52-7.44,1.01-.85,2.14-1.57,3.28-2.22,2.85-1.62,5.94-2.65,9.08-3.5,3.84-1.04,7.74-1.82,11.68-2.34,5.25-.69,10.5-1.45,15.77-1.96,7.07-.69,14.17-1.17,21.29-.9,3.9.15,7.6.91,11.16,2.63,4.35,2.09,8.58,4.37,12.78,6.75,2.01,1.14,3.3,2.74,4.08,4.85.89,2.38,1.4,4.85,1.82,7.35.84,5.02.76,10.08.71,15.14Z"/><path d="m576.42,440.19c0-2.41-.05-4.82.02-7.23.06-2.04.26-4.08.41-6.13.06-.84.16-1.68.19-2.52.13-3.39.74-6.71,1.52-9.99.36-1.51.96-2.98,1.55-4.43.27-.66.7-1.26,1.15-1.82.7-.88,1.65-1.41,2.79-1.5,1.69-.14,3.37-.13,5.03.31,2.22.59,4.37,1.36,6.45,2.33,3.83,1.79,7.46,3.94,10.97,6.28,5.02,3.34,9.81,7,14.46,10.84,5.86,4.83,11.65,9.74,16.94,15.21,2.6,2.7,5.01,5.54,7.16,8.61.83,1.18,1.52,2.46,2.21,3.73,1,1.86,1.31,3.87.99,5.96-.9,5.84-2.11,11.62-3.85,17.27-.72,2.34-1.91,4.41-3.56,6.23-2.6,2.86-5.37,5.53-8.35,7.99-3.9,3.23-8,6.21-12.16,9.09-3.57,2.47-7.19,4.86-10.83,7.22-1.51.98-3.12,1.83-4.73,2.63-1.84.91-3.81,1.46-5.84,1.83-2.76.5-5.26-.09-7.6-1.54-1.67-1.03-2.98-2.44-4.09-4.03-1.53-2.19-2.72-4.55-3.65-7.04-2.09-5.55-3.41-11.3-4.29-17.15-.48-3.21-.85-6.45-1.25-9.67-.09-.72-.16-1.44-.18-2.16-.07-2.29-.23-4.57-.54-6.84-.19-1.43-.18-2.89-.23-4.33-.08-2.65-.07-5.3-.47-7.94-.15-.95-.13-1.92-.14-2.89-.02-2.77,0-5.54,0-8.32h-.05Z"/><path d="m737.29,666.05c-2.7-.08-4.83-.53-6.94-1.04-2.93-.7-5.84-1.5-8.71-2.39-3.68-1.14-7.33-2.41-10.99-3.64-.8-.27-1.59-.57-2.37-.88-.99-.4-1.52-1.14-1.58-2.21,0-.12-.03-.24-.02-.36.05-5.91-.1-11.82.45-17.71.12-1.32.19-2.65.22-3.97.06-2.41,0-4.83.14-7.23.4-7.48,1.27-14.89,3.56-22.07,1.44-4.52,3.49-8.72,6.49-12.43,1.23-1.52,2.64-2.8,4.24-3.91,3.23-2.24,6.79-2.97,10.65-2.46,5.93.77,11.45,2.81,16.84,5.3,5.7,2.63,11.16,5.71,16.47,9.05,5.41,3.41,10.76,6.9,15.86,10.76,2.78,2.11,5.48,4.34,8.15,6.6,2.59,2.19,4.78,4.76,6.83,7.46,1.25,1.64,2.2,3.46,2.99,5.36,1.54,3.7.89,7.09-1.61,10.14-1.54,1.88-3.41,3.41-5.48,4.68-2.78,1.71-5.71,3.12-8.75,4.32-6.28,2.47-12.56,4.95-18.86,7.37-6.75,2.58-13.5,5.2-20.38,7.43-1.49.48-2.98.97-4.5,1.37-1.04.27-2.13.37-2.69.46Z"/><path d="m531.28,542.02c2.77,0,5.55-.08,8.32.02,4.33.15,8.65.54,12.93,1.3,1.67.3,3.3.71,4.84,1.42,3.29,1.53,5.78,3.86,7.18,7.28.59,1.43.55,2.79-.07,4.19-.94,2.1-2.1,4.07-3.48,5.9-1.89,2.5-3.76,5.02-5.81,7.39-3.3,3.84-6.63,7.65-10.2,11.25-1.78,1.8-3.44,3.72-5.22,5.51-1.7,1.71-3.5,3.31-5.24,4.98-2.51,2.43-5.13,4.75-7.84,6.95-3.84,3.12-7.85,6-12.14,8.48-3.15,1.82-6.45,3.3-9.95,4.25-4.45,1.21-9.01,1.56-13.61,1.23-2.04-.14-4.08-.3-6.13-.39-1.58-.07-3.11-.31-4.64-.68-1.2-.29-2.26-.82-3.21-1.59-.84-.68-1.68-1.37-2.5-2.08-4.91-4.27-9.82-8.54-14.71-12.83-.9-.79-1.79-1.63-2.57-2.54-.7-.81-1.36-1.7-1.86-2.65-1.11-2.1-1.41-4.31-.71-6.65.52-1.75,1.29-3.38,2.28-4.9,2.11-3.25,4.63-6.16,7.58-8.69,2.65-2.28,5.37-4.47,8.18-6.56,7.74-5.75,15.44-11.55,23.16-17.32q3.38-2.53,7.62-2.6c2.65-.05,5.3-.07,7.95-.1,2.65-.03,5.3-.02,7.94-.39,1.07-.15,2.16-.13,3.25-.14,2.89-.02,5.78,0,8.68,0,0-.02,0-.04,0-.05Z"/><path d="m617.67,579.14c-4.67.15-9.82-.37-14.91-1.43-3.19-.66-6.3-1.61-9.24-3.09-2.71-1.36-5.25-2.96-7.46-5.05-.87-.83-1.81-1.59-2.72-2.38-3.12-2.68-5.83-5.77-8.36-9-.81-1.03-1.44-2.23-2.04-3.4-1.1-2.14-1.19-4.39-.56-6.69.99-3.59,2.97-6.57,5.66-9.09,3.8-3.55,7.9-6.72,12.12-9.74,8.93-6.38,18.07-12.46,27.38-18.27,4.3-2.68,8.77-5.06,13.4-7.13,2.32-1.03,4.71-1.84,7.14-2.58,2.35-.71,4.74-.83,7.16-.7,2.04.11,3.71.97,5.01,2.54,1.23,1.5,2.22,3.16,3.08,4.89,1.83,3.68,3.23,7.53,4.37,11.48,2.04,7.08,3.55,14.27,4.56,21.56.33,2.39.73,4.77,1.03,7.16.55,4.39-.02,8.67-1.44,12.83-1.63,4.75-4.78,8.32-8.95,11.02-2.96,1.92-6.21,3.2-9.6,4.13-4.67,1.27-9.43,1.98-14.25,2.29-.6.04-1.21.02-1.8.12-2.99.53-6,.49-9.56.52Z"/><path d="m579.58,227.35c-3.79.14-7.45-.62-11.04-1.68-6.5-1.92-12.68-4.61-18.6-7.92-8.75-4.9-16.98-10.58-24.91-16.72-6.6-5.11-12.86-10.56-18.58-16.64-1.74-1.85-3.39-3.77-4.83-5.85-1.17-1.68-2.3-3.4-3.27-5.2-.8-1.47-1.43-3.06-2-4.64-1.01-2.81-1.12-5.63-.07-8.49,1-2.72,1.8-5.51,2.84-8.2.74-1.9,1.72-3.72,2.65-5.54.46-.91,1.29-1.43,2.29-1.61.95-.16,1.91-.28,2.86-.38,1.68-.18,3.36-.33,5.04-.5.48-.05.96-.08,1.44-.14,2.1-.25,4.07.1,5.96,1.07,3.55,1.81,7.18,3.46,10.65,5.4,8.42,4.7,16.81,9.48,25.15,14.33,8.66,5.04,16.99,10.59,24.93,16.71,3.54,2.73,6.93,5.62,10.23,8.63,3.67,3.34,6.9,7.08,9.85,11.06,1.52,2.05,2.67,4.28,3.46,6.72,1.14,3.52.44,6.67-1.74,9.54-.65.86-1.4,1.67-2.22,2.38-4.16,3.63-8.81,6.31-14.31,7.34-1.92.36-3.84.3-5.77.34Z"/><path d="m547.39,716.39c-.01-8.94,1.66-19.12,5.08-29.01,2.66-7.69,6.38-14.85,11.01-21.51,7.64-10.99,16.89-20.42,27.73-28.28,1.85-1.34,3.83-2.52,5.82-3.65,2.21-1.26,4.62-2.05,7.13-2.51,3.22-.59,5.97.33,8.27,2.59,2.13,2.09,3.37,4.69,4.02,7.57.84,3.68.89,7.38.36,11.14-1.01,7.22-3.16,14.1-5.77,20.87-3.39,8.79-7.57,17.22-12.08,25.48-4.04,7.41-8.24,14.74-12.62,21.95-4.57,7.53-9.34,14.93-14.58,22.01-2.73,3.69-5.66,7.22-9.04,10.34-1.06.98-2.21,1.86-3.4,2.67-.68.46-1.51.75-2.3,1.01-.72.24-1.46.04-2.04-.43-.47-.37-.89-.81-1.26-1.28-.88-1.16-1.49-2.47-1.99-3.84-.83-2.27-1.5-4.59-1.91-6.97-.81-4.75-1.65-9.5-1.75-14.34-.01-.6-.01-1.21-.11-1.8-.57-3.47-.5-6.97-.57-11.99Z"/><path d="m498.34,405.14c0,2.53.01,5.07,0,7.6,0,1.21-.11,2.41-.52,3.56-.27.75-.78,1.21-1.56,1.33-.59.09-1.2.14-1.8.14-3.25-.02-6.49-.17-9.74-.52-6.09-.65-11.75-2.57-17.22-5.18-5.56-2.66-10.8-5.86-15.82-9.45-4.27-3.06-7.13-7.13-8.92-12-1.64-4.46-2.39-9.07-2.52-13.81-.22-8.01.89-15.87,2.42-23.69,1.14-5.81,2.63-11.52,4.72-17.06,2.05-5.44,4.62-10.61,8.37-15.12,2.28-2.75,5.07-4.83,8.35-6.18,3.77-1.55,7.66-2.03,11.68-.96,2.75.73,5.14,2.02,7.22,3.94,2.15,1.99,3.8,4.35,5.18,6.92,2.02,3.74,3.4,7.73,4.48,11.81,1.45,5.48,2.44,11.05,3.05,16.7.75,6.96,1.34,13.92,1.4,20.91,0,.6,0,1.21.09,1.81.62,4.32.48,8.66.61,13,.07,2.29.28,4.57.36,6.86.12,3.13.18,6.27.27,9.4-.03,0-.06,0-.09,0Z"/><path d="m181.74,557.33c0-2.41,0-4.82,0-7.23,0-1.83.43-3.59.86-5.34.45-1.8,1.4-3.3,2.81-4.54,1.74-1.51,3.64-2.78,5.65-3.89,3.6-1.98,7.32-3.7,11.19-5.08,2.61-.94,5.25-1.77,7.9-2.61.92-.29,1.87-.45,2.81-.69,2.24-.56,4.31-.04,6.26,1.04,1.5.83,2.76,1.94,3.79,3.31,1.31,1.74,2.44,3.58,3.38,5.55,2.3,4.83,3.73,9.93,4.81,15.13,1.03,4.95,1.89,9.94,2.45,14.98.32,2.88.39,5.77.74,8.64.44,3.61.48,7.22.43,10.83-.03,1.8-.23,3.61-.35,5.41-.07.96-.14,1.92-.23,2.88-.8,9.23-3,18.06-7.48,26.23-1.16,2.11-2.48,4.13-3.78,6.17-3.11,4.88-6.22,9.76-9.39,14.61-1.94,2.97-2.21,3.03-5.65,2.28-1.29-.28-2.57-.65-3.86-.96-1.47-.36-2.65-1.18-3.54-2.37-.79-1.06-1.52-2.17-2.16-3.33-1.45-2.65-2.59-5.44-3.58-8.29-2.45-7.07-4.34-14.3-5.85-21.63-1.44-6.96-2.81-13.94-4.05-20.94-.72-4.03-1.43-8.07-1.82-12.15-.26-2.76-.7-5.5-1.02-8.25-.14-1.2-.25-2.4-.28-3.6-.04-2.05-.01-4.1-.01-6.15-.01,0-.03,0-.04,0Z"/><path d="m811.78,321.79c3.26,0,5.68-.05,8.09.01,2.47.07,4.72.88,6.75,2.28.45.31.73,1.15.53,1.62-.19.44-.37.9-.63,1.3-1.11,1.72-2.2,3.46-3.39,5.13-3.92,5.5-8.11,10.8-12.42,16-6.08,7.33-12.14,14.68-18.41,21.85-5.32,6.08-11.04,11.79-17.63,16.56-2.45,1.77-5.01,3.35-7.72,4.68-1.96.96-4,1.68-6.12,2.18-4.18.99-8.14.42-11.87-1.71-2.11-1.21-3.99-2.72-5.53-4.61-5.86-7.2-11.65-14.45-16.92-22.11-.82-1.19-1.52-2.46-2.3-3.67-1.03-1.61-1.33-3.34-.95-5.2.17-.83.23-1.68.46-2.48,1.09-3.7,2.2-7.39,3.33-11.08.92-3.01,2.81-5.28,5.38-7.04,2-1.36,4.15-2.45,6.38-3.39,3.9-1.64,7.95-2.81,12.07-3.75,5.05-1.16,10.16-2.02,15.3-2.72,2.98-.4,5.99-.65,8.98-.96,3.71-.39,7.43-.77,11.14-1.16.12-.01.24-.03.36-.04,4.2-.32,8.41-.64,12.61-.95.72-.05,1.46,0,2.17-.12,3.71-.61,7.45-.55,10.33-.61Z"/><path d="m896.38,435.02c-2.96.07-5.93-.48-8.9-.99-7.04-1.21-13.79-3.42-20.41-6.09-4.15-1.68-8.15-3.62-11.84-6.17-2.8-1.94-5.3-4.21-7.4-6.87-2.82-3.56-4.54-7.6-5.12-12.17-.69-5.41.32-10.57,1.88-15.66,1.06-3.47,2.56-6.77,4.31-9.94,1.11-2.01,2.4-3.9,3.89-5.65,4.37-5.14,9.92-7.91,16.66-8.31,3.29-.19,6.5.32,9.67,1.07,4.58,1.09,9.07,2.5,13.49,4.1,3.74,1.35,7.42,2.87,11.1,4.38,2.8,1.14,5.41,2.65,7.91,4.35,1.74,1.18,3.1,2.65,3.95,4.59,1.16,2.65,2.41,5.26,3.56,7.92,2.85,6.65,5.39,13.43,7.79,20.25.04.11.07.23.12.34,1.04,2.43.57,4.73-.69,6.92-1.27,2.2-2.87,4.17-4.59,6.03-2.3,2.49-4.89,4.66-7.58,6.7-2.62,1.99-5.55,3.38-8.78,4.12-2.95.67-5.91,1.19-9.02,1.09Z"/><path d="m283.83,746.08c1.96-.01,3.85.34,5.74.77,4.29.99,6.97,3.66,8.08,7.89.74,2.82.95,5.65.65,8.59-.68,6.52-2.38,12.79-4.22,19.04-1.91,6.48-4.06,12.87-6.69,19.11-1.64,3.9-3.52,7.66-5.69,11.29-1.49,2.5-3.22,4.81-5.12,6.99-.63.72-1.34,1.39-2.07,2.01-3.6,3.03-7.45,5.74-11.4,8.3-.5.32-1.06.59-1.62.77-.31.1-.76.06-1.03-.11-.61-.38-1.19-.82-1.7-1.33-5.1-5.13-10.26-10.19-15.09-15.59-5.79-6.48-11.27-13.21-16.43-20.2-.86-1.16-1.67-2.36-2.49-3.55-2.49-3.63-3.96-7.7-5.02-11.94-.47-1.9-.45-3.83-.29-5.76.1-1.22.55-2.34,1.14-3.41,1.13-2.03,2.62-3.75,4.46-5.17,1.53-1.19,3.2-2.15,4.93-3,4.66-2.3,9.54-4.04,14.5-5.57,7.95-2.45,15.97-4.64,24.07-6.54,3.64-.86,7.26-1.77,10.99-2.18,1.44-.16,2.88-.27,4.31-.41Z"/><path d="m535.95,299.38c-.02-2.44.04-4.37.78-6.2.19-.48.99-.91,1.49-.76.46.13.95.24,1.37.46,1.28.67,2.58,1.31,3.79,2.11,3.33,2.19,6.45,4.65,9.5,7.21,3.88,3.25,7.48,6.82,11.21,10.24,3.56,3.26,7.03,6.6,10.36,10.09,6.4,6.72,12.97,13.28,18.99,20.35,2.66,3.12,5.32,6.24,7.63,9.63.34.5.64,1.03,1.01,1.5,2.26,2.88,2.64,6.17,1.92,9.6-.57,2.71-1.25,5.41-2.12,8.03-1.39,4.24-3.09,8.37-5.05,12.38-1.97,4.03-4.43,7.73-7.73,10.83-2.32,2.18-4.91,3.88-7.94,4.89-4.82,1.61-9.75,2.7-14.78,3.37-1.3.18-2.65.11-3.97.09-.89,0-1.61-.45-2.19-1.11-1.13-1.28-1.95-2.76-2.63-4.3-.87-1.99-1.7-3.99-2.43-6.03-1.87-5.22-3.52-10.51-4.93-15.87-3.69-13.99-6.74-28.11-9.49-42.31-1.26-6.51-2.36-13.04-3.3-19.6-.44-3.09-.95-6.19-1.01-9.34-.03-1.92-.61-3.81-.47-5.25Z"/><path d="m844.78,355.5c-.37,7.38-2.1,14.28-4.22,21.08-4.09,13.15-9.08,25.95-15.57,38.13-2.73,5.13-5.81,10.03-9.49,14.51-3.83,4.67-8,9.03-12.92,12.59-2.66,1.92-5.54,3.38-8.69,4.35-3.37,1.03-6.42.42-9.3-1.49-1.93-1.28-3.55-2.9-5.03-4.66-2.34-2.78-4.27-5.84-5.96-9.05-1.2-2.28-1.78-4.7-1.83-7.3-.05-3.05.33-6.01,1.2-8.92,1.38-4.65,3.28-9.08,5.67-13.28,3.76-6.61,8.03-12.9,12.71-18.9,4.89-6.28,10.08-12.32,15.33-18.31,4.37-4.99,8.66-10.05,13.1-14.98,4.04-4.48,7.99-9.04,12.31-13.26.78-.76,1.55-1.51,2.37-2.23.69-.61,1.61-.49,2.23.25.39.46.77.93,1.1,1.43,1.4,2.11,2.8,4.22,4.18,6.35,1.61,2.48,2.55,5.18,2.71,8.14.11,1.92.6,3.83.11,5.55Z"/><path d="m689.27,425.54c-.14-2.35.32-4.71,1.09-7.01,1.11-3.32,2.46-6.53,4.23-9.57,3.48-5.95,7.43-11.55,11.99-16.72,2.41-2.73,5.19-5.02,8.18-7.08,1.6-1.1,3.38-1.83,5.25-2.38,3.17-.93,6.2-.53,9.11.94,1.73.87,3.33,1.96,4.72,3.31.95.92,1.87,1.88,2.71,2.91,7.62,9.35,14.86,18.97,21.54,29.02,3.14,4.72,6.02,9.6,8.83,14.52,1.56,2.72,2.83,5.59,3.96,8.52.92,2.38,1.43,4.85,1.82,7.35.34,2.2-.08,4.32-.93,6.36-.94,2.25-2.54,3.8-4.96,4.35-2.59.6-5.21,1.18-7.87.85-2.99-.37-6-.49-8.98-.96-5.48-.87-10.91-1.96-16.27-3.35-5.48-1.42-10.93-2.96-16.37-4.52-4.29-1.23-8.43-2.89-12.42-4.92-2.05-1.04-3.98-2.26-5.87-3.56-2.72-1.87-4.96-4.22-6.73-6.99-2.14-3.33-3.15-7.01-3.01-11.08Z"/><path d="m547.3,659.64c-3.94.22-6.91-1.71-9.35-4.58-1.8-2.12-3.23-4.51-4.39-7.05-2.63-5.76-4.17-11.82-4.82-18.1-.25-2.4-.17-4.81.11-7.22,1-8.86,4.43-16.73,9.67-23.87,2.08-2.83,4.3-5.52,6.76-8.01,3.48-3.52,6.99-7,10.93-10.03,2.97-2.29,6.08-4.35,9.5-5.93,1.87-.86,3.8-1.5,5.83-1.91,3.52-.71,6.7.02,9.63,2.02.6.41,1.19.83,1.73,1.32,3.79,3.39,7.34,6.99,10.22,11.21,2.39,3.51,4.19,7.3,5.46,11.37,1.19,3.86,1.03,7.61-.42,11.33-1.18,3.04-2.68,5.93-4.42,8.7-2.19,3.48-4.64,6.77-7.23,9.95-5.27,6.45-10.89,12.59-16.94,18.33-3.68,3.49-7.53,6.8-11.99,9.29-1.47.82-3.02,1.51-4.56,2.18-1.79.78-3.69,1.1-5.7,1.01Z"/><path d="m347.29,289.95c2.07,0,3.88-.03,5.69,0,2.91.05,5.75.61,8.53,1.45,1.15.35,2.27.82,3.33,1.39,4.02,2.14,5.91,5.76,5.24,10.56-.47,3.36-1.53,6.56-2.94,9.66-3.06,6.76-7.74,12.16-13.77,16.43-3.76,2.66-7.8,4.79-12.08,6.49-5.84,2.33-11.89,3.96-18.07,5.06-3.68.66-7.35,1.27-11.09,1.57-2.88.23-5.73.74-8.6,1.1-2.15.27-4.31.5-6.46.71-3.6.35-7.21.57-10.79,1.01-4.79.58-9.62.57-14.41,1.1-.96.11-1.93.11-2.89.1-.48,0-.95-.11-1.43-.2-.71-.14-1.33-.86-1.26-1.55.11-1.08.23-2.16.45-3.21.19-.94.51-1.86.79-2.78,1.7-5.54,3.79-10.93,6.05-16.26,2.55-6.02,6.54-10.93,11.62-14.99,4.75-3.8,10.12-6.52,15.71-8.83,6.6-2.72,13.47-4.54,20.47-5.88,3.9-.75,7.82-1.46,11.76-1.97,4.78-.62,9.57-1.25,14.15-.95Z"/><path d="m498.51,449.59c.21,6.69-1.41,12.69-4.01,18.47-1.49,3.31-3.36,6.39-5.47,9.35-4.21,5.9-8.9,11.38-14.16,16.39-5.14,4.89-11.04,8.53-17.55,11.25-5.02,2.1-10.23,3.58-15.56,4.64-3.9.77-7.84,1.24-11.79,1.7-3.37.4-6.73.5-10.1.43-.95-.02-1.91-.21-2.84-.45-1.2-.31-1.98-1.45-1.97-2.72,0-.48.05-.96.15-1.43.37-1.79,1.1-3.44,2.03-5,1.24-2.07,2.45-4.15,3.79-6.16,6.83-10.22,13.69-20.42,20.56-30.61,2.02-3,4.12-5.94,6.17-8.92,3.15-4.57,6.56-8.94,10.1-13.21,2.46-2.97,4.98-5.89,7.69-8.63,2.04-2.06,4.25-3.92,6.52-5.71,1.71-1.35,3.56-2.48,5.52-3.42,2.47-1.18,4.98-1.66,7.71-.94,2.88.77,5.38,2.08,7.27,4.43,2.15,2.68,3.55,5.73,4.42,9.03,1.02,3.86,1.72,7.77,1.51,11.5Z"/><path d="m227.72,370.27c.19,4.76-.52,9.53-1.42,14.27-1.21,6.4-2.68,12.74-4.95,18.86-1.51,4.08-3.27,8.04-5.62,11.71-2.22,3.48-4.8,6.63-8.13,9.14-3.95,2.97-8.33,4.77-13.3,5.13-7.33.52-14.41-.65-21.32-3.03-1.95-.67-3.75-1.62-5.36-2.94-2.79-2.29-3.83-5.19-3.01-8.7.41-1.76.93-3.49,1.48-5.22,2.41-7.59,5.19-15.04,8.21-22.4,4.36-10.61,9.41-20.87,15.21-30.77,1.7-2.91,3.49-5.77,5.29-8.63,1.04-1.65,2.42-2.98,4.07-4.05,2.22-1.44,4.66-1.93,7.24-1.8,1.44.08,2.86.35,4.25.81,3.12,1.03,6.01,2.5,8.64,4.46,2.96,2.21,5.18,5.03,6.47,8.52,1.35,3.64,2.25,7.38,2.24,11.29,0,1.09,0,2.17,0,3.34Z"/><path d="m276.98,270.42c0,1.79-.02,4.08,0,6.37.04,4.24-.59,8.4-1.2,12.58-.86,5.86-2.19,11.61-3.94,17.25-3.19,10.28-7.34,20.15-12.88,29.41-1.49,2.49-3.23,4.8-5.14,6.98-2.11,2.4-4.62,4.21-7.85,4.86-1.8.36-3.59.36-5.39.05-3.82-.67-7.48-1.88-11-3.5-3.51-1.62-6.88-3.49-10.15-5.55-1.84-1.16-3.53-2.52-5.16-3.96-1.36-1.21-2.49-2.63-3.39-4.21-1.4-2.45-1.69-5.01-.56-7.64.47-1.1,1.03-2.18,1.66-3.2,5.33-8.62,11.19-16.88,17.48-24.83,6.52-8.23,13.53-16.02,21.01-23.4,6.95-6.86,13.86-13.76,20.8-20.63.85-.84,1.8-1.59,2.74-2.34.47-.37,1.27-.09,1.54.41.41.77.51,1.6.6,2.44.64,6.12.98,12.25.83,18.91Z"/><path d="m844.63,645.31c-.1.68-.16,1.65-.4,2.58-.51,1.98-1.03,3.97-1.71,5.9-1.32,3.76-2.92,7.4-4.66,10.98-4.7,9.67-10.15,18.91-15.81,28.03-2.8,4.51-5.72,8.94-8.99,13.13-1.26,1.62-2.53,3.23-3.85,4.8-1.56,1.85-3.24,3.58-5.23,4.97-.79.55-1.63,1.02-2.49,1.45-.8.39-1.66.36-2.43-.12-.92-.58-1.85-1.16-2.66-1.86-2.47-2.12-5-4.18-7.32-6.46-6.53-6.43-12.99-12.94-19.42-19.47-1.35-1.37-2.54-2.91-3.68-4.45-1.37-1.85-2.33-3.92-2.99-6.15-.69-2.34-.35-4.53.65-6.68.72-1.55,1.73-2.89,2.9-4.12,2.34-2.47,5.04-4.5,7.99-6.17,3.47-1.96,7.04-3.72,10.73-5.22,9.95-4.04,20.05-7.65,30.32-10.8,5.76-1.77,11.61-3.25,17.57-4.24,2.26-.37,4.54-.56,6.82-.78.59-.06,1.21.01,1.8.1,1.64.24,2.61,1.25,2.77,2.86.05.48.06.96.1,1.73Z"/><path d="m747.63,319.33c-4.2.36-7.93-.04-11.66-.13-2.17-.05-4.31-.51-6.34-1.33-1.03-.41-1.51-1.18-1.34-2.28.14-.95.3-1.92.64-2.81.81-2.14,1.64-4.28,2.61-6.36,2.5-5.36,5.36-10.53,8.36-15.64,4.34-7.39,8.97-14.6,13.6-21.8,2.94-4.57,6.22-8.89,9.8-12.99,2.16-2.47,4.69-4.51,7.39-6.35,1.41-.96,2.96-1.61,4.61-2.05,2.33-.62,4.54-.36,6.65.81,2.04,1.12,3.73,2.65,5.17,4.46,2.19,2.75,4.02,5.73,5.5,8.91,3.32,7.13,6,14.49,7.42,22.25.43,2.37.78,4.77.94,7.17.27,4.02-.41,7.93-1.85,11.71-1.38,3.62-3.86,6.37-6.91,8.64-1.94,1.45-4.08,2.57-6.37,3.39-4.34,1.56-8.81,2.52-13.4,2.9-1.08.09-2.16.23-3.24.34-1.32.13-2.64.25-3.96.35-.96.07-1.94,0-2.89.15-4.31.68-8.66.59-13,.66-.72.01-1.45,0-1.72,0Z"/><path d="m796.63,746.16c8.45.18,15.44,3.4,20.77,10.02,1.06,1.31,2.03,2.7,2.91,4.14,2.02,3.26,2.87,6.9,3.04,10.68.09,2.17-.4,4.32-.95,6.42-1.13,4.37-3.13,8.35-5.51,12.15-2.24,3.59-4.88,6.89-7.51,10.2-2.77,3.5-5.74,6.85-8.84,10.06-1.83,1.9-3.94,3.55-5.97,5.25-.64.53-1.42.91-2.18,1.28-1.03.5-2.12.51-3.14-.04-.95-.51-1.92-1.05-2.76-1.72-1.98-1.58-3.96-3.16-5.81-4.89-5.04-4.69-9.87-9.59-14.51-14.66-3.99-4.36-7.95-8.75-11.46-13.53-1.72-2.33-3.36-4.72-4.7-7.3-.78-1.51-1.42-3.06-1.84-4.71-.36-1.4-.08-2.67.93-3.68.94-.93,1.95-1.8,3.01-2.59,3.12-2.29,6.51-4.15,9.99-5.83,5.33-2.56,10.73-4.96,16.24-7.1,3.27-1.27,6.56-2.44,10-3.12,2.72-.54,5.45-1.07,8.25-1.04Z"/><path d="m670.5,839.75c0-2.17-.02-4.34.01-6.51.02-1.08.1-2.17.23-3.24.38-3.23.75-6.46,1.2-9.68.78-5.61,1.61-11.21,2.44-16.81.37-2.5.75-5,1.15-7.5.25-1.55.53-3.09.81-4.63.04-.23.2-.43.29-.65.11-.26.74-.49.95-.32.46.37.97.72,1.34,1.17,2.3,2.79,4.59,5.58,6.84,8.41,6.45,8.11,12.92,16.21,19.3,24.38,5.49,7.03,10.8,14.2,15.61,21.72,2.41,3.76,4.68,7.59,6.56,11.65.65,1.42,1.21,2.89,1.74,4.36.75,2.1.75,4.27.21,6.41-.32,1.28-.77,2.54-1.25,3.77-1.28,3.25-3.46,5.75-6.47,7.53-2.29,1.36-4.66,2.54-7.17,3.4-2.05.7-4.15,1.26-6.23,1.86-4,1.15-7.87.65-11.64-.98-3.78-1.64-7.27-3.76-10.51-6.3-.85-.67-1.68-1.37-2.54-2.03-4.64-3.55-7.77-8.2-9.79-13.61-1.14-3.05-1.87-6.21-2.44-9.43-.76-4.31-.69-8.64-.63-12.97Z"/><path d="m942.29,623.8c.06,3.15-.48,6.25-1.01,9.33-1.71,9.99-4.14,19.81-6.97,29.54-2.83,9.74-6.4,19.21-10.3,28.56-.46,1.11-.99,2.21-1.63,3.22-2.15,3.43-5.57,5.11-9.93,4.28-2.51-.48-4.86-1.42-7.04-2.73-3.33-2-6.28-4.45-8.81-7.42-3.38-3.97-6.16-8.33-8.63-12.9-1.95-3.61-3.65-7.34-5.2-11.14-1.1-2.7-1.84-5.51-2.1-8.39-.39-4.46.77-8.62,3.14-12.4,1.54-2.46,3.44-4.64,5.69-6.51,2.97-2.48,6.14-4.65,9.58-6.45,5.88-3.09,12.02-5.59,18.2-7.99,5.06-1.97,10.17-3.78,15.42-5.15,1.17-.3,2.34-.6,3.52-.82.94-.17,1.91-.27,2.87-.3,1.53-.04,2.23.52,2.66,1.91.55,1.76.57,3.56.55,5.37Z"/><path d="m423.02,207.12c-1.32-.13-2.42-.15-3.48-.35-4.55-.85-7.97-3.31-10.12-7.42-.72-1.38-1.35-2.83-1.86-4.31-1.52-4.48-2.26-9.12-2.59-13.82-.21-3.03.36-6.01,1.39-8.87,1.11-3.08,3.27-5.31,6.06-6.93.93-.54,1.94-.98,2.94-1.37,12.46-4.92,25.25-8.8,38.32-11.73,5.29-1.18,10.59-2.31,15.95-3.13,3.93-.6,7.86-1.19,11.8-1.71,1.19-.16,2.41-.13,3.61-.09.71.02,1.43.18,2.13.38,1.96.55,3.01,1.9,3.23,3.9.13,1.21-.02,2.4-.27,3.59-.95,4.63-2.58,9.03-4.45,13.35-.81,1.88-1.76,3.7-2.71,5.52-2.84,5.47-6.86,9.88-12.09,13.15-4.5,2.81-9.14,5.38-13.93,7.66-5.99,2.84-12.04,5.55-18.15,8.12-3.8,1.59-7.68,2.84-11.73,3.57-1.42.26-2.86.36-4.07.51Z"/><path d="m336.25,347.9c4.92-.15,10.55.44,16.13,1.47,2.97.55,5.89,1.32,8.6,2.7,1.39.71,2.76,1.5,4.05,2.37,2.7,1.82,4.46,4.38,5.49,7.43.92,2.71.82,5.47.21,8.21-.45,2.01-1.25,3.89-2.24,5.71-1.98,3.63-4.53,6.83-7.29,9.87-3.18,3.48-6.68,6.63-10.36,9.56-2.36,1.88-4.89,3.53-7.64,4.8-5.58,2.58-11.31,3.19-17.26,1.38-3.6-1.09-7-2.61-10.19-4.61-2.35-1.48-4.58-3.13-6.64-5-4.29-3.91-8.33-8.04-11.84-12.67-1.98-2.6-3.8-5.29-5.19-8.25-.88-1.86-1.59-3.78-1.87-5.83-.5-3.66.64-6.65,3.61-8.9,2.33-1.77,4.93-3.02,7.7-3.93,2.87-.94,5.8-1.66,8.78-2.13,4.64-.72,9.31-1.22,14-1.61,3.73-.31,7.45-.53,11.96-.57Z"/><path d="m838.04,428.21c2.93-.2,6.14.32,9.32,1.02,8.51,1.89,16.68,4.75,24.45,8.73,3.34,1.71,6.43,3.8,9.36,6.14,2.29,1.84,4.09,4.09,5.6,6.57,2.63,4.32,3.25,9.02,2.41,13.94-.35,2.02-.89,4-1.61,5.93-1.99,5.31-4.13,10.55-6.77,15.58-1.18,2.25-2.51,4.4-3.98,6.46-.98,1.38-2.12,2.62-3.42,3.72-1.2,1-2.57,1.3-4.07.94-1.53-.37-2.99-.94-4.35-1.75-1.86-1.11-3.76-2.18-5.53-3.42-5.53-3.88-10.78-8.12-15.87-12.57-5.18-4.53-10.2-9.2-14.94-14.19-2.75-2.9-5.19-6.03-7.31-9.41-.96-1.53-1.77-3.15-2.6-4.76-.72-1.4-1.13-2.91-1.52-4.43-1.17-4.47.01-8.35,2.88-11.8,1.88-2.27,4.23-3.95,6.97-5.04,2.59-1.03,5.27-1.73,8.09-1.68.84.02,1.69,0,2.89,0Z"/><path d="m373.4,444.89c6.39-.17,11.36,2.23,15.65,6.28,2.57,2.43,4.52,5.33,6.2,8.41,1.09,2.01,2.12,4.07,2.99,6.18,3.2,7.81,6.17,15.7,8.69,23.75.9,2.88,1.63,5.8,2.16,8.77.1.59.15,1.19.17,1.79.02.71-.53,1.42-1.17,1.67-1.27.49-2.58.54-3.92.44-8.78-.69-17.45-2.07-26.08-3.77-7.8-1.54-15.58-3.19-23.25-5.29-6.41-1.76-12.64-3.97-18.48-7.21-2.24-1.24-4.23-2.76-5.93-4.67-.89-1-1.54-2.13-1.88-3.45-.41-1.6-.12-3.13.42-4.61.96-2.61,2.19-5.1,3.99-7.25,2.64-3.15,5.56-6.02,8.96-8.37,4.37-3.02,8.98-5.62,13.87-7.72,3.21-1.38,6.42-2.75,9.79-3.71,2.68-.75,5.37-1.38,7.82-1.23Z"/><path d="m718.45,779.38c7.66-.3,14.77,1.33,21.63,4.27,3.91,1.68,7.5,3.89,10.84,6.49,4.5,3.49,8.45,7.54,11.83,12.15,1.29,1.76,2.34,3.65,3.28,5.61,1.56,3.23,2.13,6.64,1.81,10.2-.23,2.58-1.2,4.92-2.52,7.1-.81,1.34-1.74,2.62-2.76,3.8-3.16,3.71-6.86,6.76-11.26,8.93-2.64,1.3-5.42,2.03-8.34,2.22-1.94.13-3.86-.17-5.74-.6-2.36-.54-4.63-1.37-6.76-2.52-3.19-1.73-6.22-3.71-8.93-6.13-9.16-8.18-16.9-17.53-22.98-28.22-1.8-3.16-3.18-6.5-3.83-10.1-.17-.94-.25-1.93-.16-2.87.25-2.67,1.49-4.8,3.76-6.3,1.83-1.21,3.82-2.08,5.95-2.57,3.53-.81,7.09-1.46,10.73-1.47,1.21,0,2.41,0,3.46,0Z"/><path d="m756,487.45c-.06.41-.11,1.01-.23,1.6-1.08,5.21-2.62,10.28-4.63,15.2-.45,1.1-1.11,2.13-1.77,3.13-.43.65-1.17.88-1.92.7-.93-.22-1.87-.49-2.76-.85-4.7-1.87-9.44-3.68-14.08-5.7-10.28-4.47-20.54-9-30.75-13.62-5.93-2.69-11.86-5.38-17.62-8.42-6.08-3.21-12.11-6.5-17.77-10.43-2.09-1.45-4.02-3.08-5.81-4.87-.51-.51-1-1.04-1.48-1.59-1.46-1.65-2.02-3.47-1.33-5.68.55-1.73,1.08-3.44,2.09-4.98.88-1.34,2.01-2.4,3.38-3.21.95-.56,1.95-.94,3.07-.96,2.65-.05,5.29-.03,7.93.37,5.25.8,10.43,1.91,15.58,3.18,12.06,2.97,24.02,6.31,35.79,10.26,6.3,2.11,12.37,4.76,18.14,8.08,2.84,1.63,5.44,3.57,7.89,5.72,1.74,1.52,3.1,3.37,4.29,5.34,1.2,2,1.74,4.22,1.97,6.72Z"/><path d="m458.25,251c-3.74,0-7.47,0-11.21,0-2.65,0-5.3,0-7.94-.32-1.55-.18-3.13-.12-4.69-.15-4.21-.08-8.42-.12-12.63-.6-2.75-.32-5.51-.56-8.25-.91-2.16-.27-4.27-.74-6.34-1.41-.57-.18-1.12-.43-1.67-.69-.95-.46-1.46-1.24-1.52-2.28-.1-1.93-.01-3.84.5-5.73.67-2.45,1.56-4.81,2.7-7.08,1.1-2.18,2.57-4.06,4.4-5.68,3.27-2.89,6.86-5.31,10.68-7.4,6.67-3.63,13.52-6.9,20.59-9.7,4.19-1.66,8.55-2.58,13.01-2.8,3.25-.16,6.49.42,9.57,1.58,2.6.98,5.05,2.27,7.28,3.95,3.3,2.48,6.18,5.36,8.55,8.75,3.18,4.55,5.94,9.36,8.63,14.2,2.16,3.9,4.36,7.79,5.97,11.96.3.78.48,1.6.68,2.41.09.37-.39,1.06-.76,1.11-.83.12-1.67.26-2.5.27-4.1.05-8.2.03-12.29.08-1.8.02-3.61.17-5.41.25-1.2.05-2.41.12-3.61.12-4.58.01-9.16,0-13.74,0v.03Z"/><path d="m479.2,194.38c.09-1.17.1-2.02.24-2.84.39-2.29,1.98-3.63,4.28-3.58.95.02,1.92.2,2.85.41,3.42.79,6.62,2.19,9.79,3.69,4.69,2.22,9.13,4.89,13.5,7.68,7.62,4.86,15.09,9.95,22.24,15.49,5.05,3.92,9.99,7.96,14.41,12.6,2.75,2.89,5.24,5.97,7.37,9.35,1.37,2.16,2.3,4.5,2.92,6.97.66,2.67.46,5.27-.8,7.73-.49.96-1.02,1.93-1.69,2.77-2.2,2.73-4.68,5.19-7.69,7.05-2.28,1.4-4.69,2.4-7.39,2.74-2.21.28-4.33-.02-6.44-.52-2.35-.56-4.58-1.45-6.69-2.67-4.09-2.36-7.85-5.15-11.3-8.37-6.02-5.61-11.31-11.85-16.04-18.56-5.7-8.09-10.85-16.51-15.09-25.47-1.65-3.49-3.13-7.05-3.91-10.85-.27-1.29-.4-2.61-.55-3.61Z"/><path d="m503.3,350.33c0-3.41-.05-5.82.02-8.23.05-1.92.25-3.84.38-5.77.05-.72.15-1.44.18-2.16.25-4.83,1.05-9.58,2.27-14.25.7-2.7,1.74-5.26,3.05-7.72.74-1.39,1.65-2.67,2.79-3.76.61-.58,1.26-1.13,1.96-1.58,2.25-1.43,4.3-1.28,6.32.41,1.5,1.25,2.66,2.79,3.67,4.44,2.08,3.41,3.76,7.01,5.15,10.75,2.52,6.79,4.47,13.75,6.19,20.78,1.66,6.79,3.11,13.63,4.21,20.53.48,2.97,1.03,5.94,1.05,8.97,0,.6.06,1.21.16,1.8.54,3.11.54,6.26.33,9.38-.3,4.44-.69,8.89-2.1,13.17-.76,2.3-1.71,4.51-3.19,6.45-3.69,4.85-8.64,6.75-14.61,6.15-2.09-.21-3.9-1.21-5.49-2.57-1.48-1.26-2.66-2.78-3.69-4.43-1.67-2.68-2.8-5.6-3.75-8.6-1.34-4.26-2.28-8.62-2.86-13.05-.39-2.99-.77-5.97-1.15-8.96-.06-.48-.13-.96-.14-1.44-.14-7.11-1.14-14.18-.76-20.31Z"/><path d="m454.31,420.87c.03,2.44-.53,4.79-1.05,7.14-.81,3.67-2.19,7.14-3.74,10.55-3.11,6.83-7.01,13.21-11.36,19.31-2.32,3.24-4.78,6.37-7.4,9.37-1.99,2.29-4.19,4.33-6.65,6.11-1.37.99-2.85,1.8-4.43,2.43-2.56,1.02-4.95.72-7.23-.79-.92-.61-1.71-1.34-2.38-2.2-1.39-1.83-2.63-3.75-3.61-5.84-2.76-5.94-4.69-12.16-5.76-18.61-1.08-6.5-.86-12.96,1.12-19.32,1.61-5.16,4.3-9.72,7.9-13.68,4.94-5.45,9.84-10.95,15.17-16.03.87-.83,1.78-1.62,2.72-2.37.6-.48,1.35-.56,2.05-.22.86.42,1.72.88,2.54,1.39,5.33,3.32,10.52,6.84,15.59,10.53.78.57,1.49,1.23,2.2,1.88,3.02,2.78,4.44,6.24,4.31,10.34Z"/><path d="m341.6,445.24c-1.35-.03-2.65-.28-3.92-.68-1.97-.61-3.39-1.87-4.08-3.8-.82-2.28-1.28-4.63-.91-7.09.64-4.23,2.07-8.17,4.22-11.85,1.89-3.23,4.02-6.31,6.54-9.09,6-6.63,12.38-12.85,19.59-18.17,3.01-2.23,6.15-4.25,9.43-6.05,4.05-2.21,8.31-3.81,12.87-4.64,5.49-1,10.82-.42,15.99,1.51,1.91.71,3.71,1.73,5.5,2.71.94.52,1.82,1.19,2.62,1.92,2.78,2.52,3.6,5.62,2.45,9.19-.71,2.2-1.78,4.23-3.13,6.09-1.13,1.56-2.32,3.09-3.61,4.51-5.93,6.55-12.55,12.34-19.89,17.26-3.4,2.28-6.92,4.4-10.51,6.37-5.81,3.2-11.83,5.98-18.07,8.27-3.85,1.42-7.79,2.55-11.85,3.19-1.07.17-2.15.23-3.23.34Z"/><path d="m695.21,569.43c-.03-2.77.07-5.53.4-8.3.33-2.75.51-5.51.85-8.27.4-3.36,1.06-6.67,1.84-9.95.99-4.13,2.63-8.02,4.82-11.66,3.88-6.45,9.51-10.48,16.94-11.82,4.62-.83,9.28-1.47,13.92-2.16,2.86-.42,5.72-.82,8.6-1.13,1.79-.19,3.6-.23,5.41-.26,1.18-.02,2.07.62,2.66,1.61,1.45,2.46,2.17,5.06,1.69,7.95-.65,3.94-1.62,7.79-3.11,11.5-1.76,4.36-3.48,8.74-5.43,13.01-2.96,6.49-6.55,12.62-10.89,18.3-5.11,6.71-11.32,12.15-18.79,16.12-2.78,1.48-5.69,2.62-8.79,3.22-1.32.25-2.62.21-3.94-.09-2.18-.49-3.72-1.7-4.44-3.82-.46-1.36-.83-2.77-1.1-4.18-.3-1.54-.52-3.1-.61-4.66-.1-1.8-.02-3.61-.02-5.42Z"/><path d="m390.97,230.23c-5.1.14-10.08-.78-15.04-1.78-11.47-2.31-22.7-5.54-33.74-9.42-3.75-1.32-7.45-2.8-10.95-4.7-1.27-.69-2.5-1.45-3.7-2.25-.59-.39-1.11-.92-1.62-1.43-.76-.78-.77-1.87,0-2.57.71-.64,1.46-1.26,2.25-1.8,5.26-3.62,10.58-7.15,16.08-10.42,10.89-6.48,22.18-12.18,33.88-17.05,1.22-.51,2.43-1.07,3.66-1.55,1.01-.39,2.05-.71,3.08-1.04,2.8-.91,5.25-.13,7.36,1.74.89.79,1.65,1.76,2.33,2.74,1.52,2.19,2.6,4.61,3.47,7.13,1.5,4.34,2.47,8.81,3.45,13.28,1,4.6,1.49,9.28,1.87,13.96.28,3.51-.26,6.97-1.2,10.36-.1.35-.24.68-.37,1.02-.59,1.58-1.72,2.58-3.31,3.09-1.27.41-2.56.7-3.9.7-1.21,0-2.41,0-3.62,0Z"/><path d="m642.77,175.73c-.04,1.21-.13,2.41-.11,3.62.09,4.36-.33,8.68-.91,12.98-.55,4.06-1.27,8.1-2.62,12-.6,1.72-1.3,3.38-2.29,4.9-.46.7-.95,1.41-1.53,2.01-1.6,1.66-3.56,2.51-5.87,2.19-1.43-.19-2.85-.51-4.23-.94-4.35-1.36-8.01-3.88-11.34-6.91-4.14-3.75-7.61-8.07-10.74-12.67-3.82-5.61-6.9-11.61-8.99-18.09-1.49-4.61-2.37-9.33-2.67-14.18-.17-2.78-.18-5.54.11-8.3.11-1.07.39-2.13.65-3.18.11-.46.33-.91.55-1.33.73-1.4,1.87-2.22,3.48-2.15,1.93.09,3.86.17,5.77.42,4.42.59,8.84,1.22,13.24,1.95,6.9,1.14,13.75,2.58,20.52,4.33.35.09.7.18,1.04.29,1.32.43,2.29,1.29,2.98,2.49.96,1.7,1.56,3.54,1.93,5.43.48,2.48.92,4.98.9,7.53-.01,1.69.15,3.37.22,5.06.03.84,0,1.68,0,2.53-.03,0-.06,0-.09,0Z"/><path d="m496.91,947.05c-2.29-.03-4.56-.28-6.83-.53-5.39-.6-10.73-1.51-16.06-2.41-7.25-1.23-14.39-2.91-21.49-4.82-.46-.13-.93-.27-1.38-.43-.92-.34-1.44-1.22-1.44-2.28,0-1.48.44-2.86.93-4.21.97-2.72,2.09-5.39,3.52-7.91,1.79-3.14,3.53-6.31,5.48-9.35,2.8-4.35,5.76-8.61,8.68-12.88,1.97-2.89,4.26-5.53,6.55-8.18,1.9-2.2,4.15-4.03,6.54-5.66,1.18-.8,2.52-1.41,3.86-1.94,2.65-1.06,5.19-.69,7.59.83,1.64,1.05,3.04,2.35,4.2,3.92,2.01,2.73,3.71,5.64,5.02,8.76,3.4,8.11,6.59,16.3,8.89,24.81.82,3.03,1.38,6.11,1.82,9.21.27,1.91.25,3.84-.28,5.73-.33,1.2-.89,2.23-1.84,3.04-3.03,2.57-6.46,4.16-10.49,4.3-1.08.04-2.17,0-3.25,0Z"/><path d="m756.99,881.42c-4.04-.17-7.85-1.27-11.6-2.64-1.93-.71-3.73-1.69-5.39-2.91-2.58-1.89-4.3-5.64-3.17-9.32.5-1.63,1.19-3.15,2.12-4.57,1.59-2.43,3.37-4.7,5.38-6.79,3.68-3.83,7.52-7.48,11.62-10.85,6.71-5.52,13.58-10.8,20.9-15.49,2.14-1.37,4.34-2.61,6.66-3.63,1.1-.48,2.26-.82,3.41-1.18,1.1-.35,2.18-.13,3.13.45.92.56,1.84,1.17,2.61,1.92,1.55,1.51,3.14,3.02,4.46,4.73,3.24,4.2,6.22,8.6,8.5,13.41.62,1.3,1.1,2.67,1.61,4.02.21.56.33,1.16.46,1.75.5,2.44-.11,4.41-2.1,6.11-7.25,6.19-14.76,12.03-22.58,17.48-2.09,1.46-4.35,2.59-6.7,3.55-5.27,2.16-10.72,3.63-16.44,3.97-.96.06-1.92,0-2.88,0Z"/><path d="m421.54,538.1c.1-2.99.45-5.62.9-8.23.35-2.03,1.14-3.93,2.15-5.73,1.22-2.18,2.96-3.79,5.26-4.76.89-.37,1.79-.74,2.73-.94,2.59-.57,5.24-.93,7.88-.84,2.64.09,5.27.54,7.89.9,3,.42,5.87,1.35,8.72,2.34,6.18,2.15,11.95,5.13,17.44,8.67,1.01.65,1.97,1.4,2.89,2.17,1.3,1.1,2.36,2.41,3.14,3.93.85,1.65,1.2,3.37.8,5.24-.33,1.55-.84,3.02-1.68,4.36-1.75,2.77-3.78,5.31-6.24,7.47-2.36,2.06-4.76,4.09-7.26,5.97-5.69,4.27-11.51,8.37-17.68,11.92-2.09,1.2-4.24,2.29-6.41,3.35-2.06,1-4.24,1.74-6.49,2.2-2.08.42-3.82-.23-5.16-1.85-1.4-1.69-2.36-3.64-3.13-5.68-1.11-2.94-2.03-5.93-2.67-9-1.16-5.54-2.21-11.1-2.59-16.77-.11-1.68-.35-3.35-.49-4.7Z"/><path d="m479.03,306.33c-2.65-.05-5.31-.07-7.96-.17-1.44-.05-2.88-.23-4.32-.36-.84-.08-1.68-.24-2.52-.24-3.03.02-5.99-.67-9-.89-.24-.02-.48-.07-.71-.12-2.28-.44-2.67-1.4-1.18-3.15,1.87-2.21,3.74-4.42,5.73-6.52,4.73-4.99,9.41-10.04,14.33-14.83,5.79-5.63,11.51-11.35,17.75-16.51,1.67-1.38,3.41-2.69,5.14-4,.57-.44,1.21-.8,1.82-1.18,1.41-.87,2.88-1.09,4.5-.59,2.08.64,4.14,1.33,6.08,2.3,3.13,1.56,6.31,3.04,9.35,4.76,3.99,2.26,7.89,4.67,11.77,7.1,1.63,1.02,3.16,2.21,4.67,3.41.84.67,1.59,1.47,2.3,2.28.51.58.58,1.31.25,2.04-.2.44-.4.88-.66,1.28-2.06,3.15-4.41,6.06-7.44,8.33-6.87,5.17-14.29,9.43-22.21,12.78-4.14,1.75-8.49,2.74-12.91,3.4-6,.9-6.41.88-14.79.85Z"/><path d="m182.11,620.54c.13,4.25-.38,8.43-1.46,12.54-.46,1.77-1.17,3.43-2.25,4.9-1.52,2.06-3.54,3.27-6.1,3.43-3.63.23-7.24.08-10.77-.9-1.16-.32-2.31-.73-3.4-1.22-3.14-1.41-5.33-3.71-6.21-7.09-.67-2.57-1.36-5.13-1.9-7.73-1.55-7.44-2.98-14.89-3.9-22.44-.53-4.31-1.16-8.6-1.35-12.94-.03-.72-.09-1.45-.22-2.16-.38-2.15-.36-4.32-.44-6.49-.11-3.24.8-6.2,2.43-8.96.86-1.46,1.86-2.81,3.02-4.06,2.55-2.77,5.49-5.07,8.63-7.12,1.02-.66,2.12-1.16,3.29-1.46.97-.25,1.91-.15,2.82.27,1.47.66,2.62,1.7,3.56,2.99,2.02,2.73,3.63,5.7,4.79,8.89.87,2.38,1.68,4.78,2.41,7.21,2.15,7.17,3.62,14.5,4.91,21.87.85,4.87,1.35,9.79,1.88,14.7.21,1.91.18,3.85.27,5.78Z"/><path d="m648.89,199.78c-.01-3.49-.1-6.99.45-10.46.06-.36.08-.72.07-1.08-.1-3.99.46-7.94.9-11.88.49-4.3,1.22-8.58,2.66-12.7.48-1.37,1.02-2.71,1.84-3.91.82-1.2,1.95-1.77,3.41-1.55.71.11,1.42.26,2.12.45,12.71,3.36,25.11,7.65,37.15,12.93.88.39,1.76.8,2.59,1.27,2.52,1.42,4.21,3.54,5.24,6.23.88,2.29,1.16,4.66.97,7.1-.12,1.6-.72,3.05-1.6,4.37-1.34,2.02-2.92,3.83-4.81,5.35-3.48,2.8-7.16,5.31-11.1,7.43-8.5,4.57-17.25,8.57-26.3,11.94-2.6.97-5.27,1.69-7.99,2.24-.59.12-1.19.19-1.79.22-.96.05-1.91-.58-2.27-1.49-.49-1.24-.81-2.52-.94-3.85-.19-1.92-.5-3.83-.59-5.75-.1-2.28-.02-4.58-.02-6.86Z"/><path d="m862.68,775.7c2.77.05,5.55.09,8.32.14,1.57.03,3.13.22,4.64.67.89.27,1.26,1.08.88,2.01-.23.55-.46,1.12-.77,1.63-.87,1.45-1.72,2.91-2.67,4.3-4.49,6.58-9.29,12.93-14.36,19.07-6.46,7.82-13.31,15.28-20.51,22.42-2.83,2.8-5.6,5.67-8.46,8.43-3.56,3.44-7.17,6.81-10.78,10.19-.43.41-.93.76-1.45,1.05-.44.25-.96.16-1.37-.12-.39-.27-.77-.59-1.07-.96-2.56-3.07-4.77-6.38-6.76-9.83-1.15-2.01-1.68-4.23-1.79-6.57-.18-3.67.28-7.22,1.61-10.65,1-2.59,2.1-5.13,3.5-7.54,4.57-7.88,10.08-15.01,16.68-21.3,3.24-3.09,6.77-5.8,10.66-8.04,3.8-2.19,7.84-3.72,12.14-4.53,1.18-.22,2.39-.31,3.6-.33,2.65-.05,5.31-.01,7.96-.01,0-.01,0-.03,0-.04Z"/><path d="m677.86,913.78c-2.28-.2-4.56-.42-6.84-.6-1.08-.09-2.17-.14-3.25-.18-2.89-.1-5.79-.11-8.66-.58-.95-.15-1.92-.12-2.89-.15-2.65-.08-5.31-.1-7.94-.56-.71-.12-1.44-.12-2.16-.14-5.44-.18-10.79-1.08-16.11-2.18-2.48-.52-4.89-1.33-7.26-2.21-1.71-.63-3.31-1.48-4.74-2.6-.76-.59-1.5-1.23-2.11-1.97-1.38-1.68-1.85-3.61-1.38-5.77.29-1.32.8-2.52,1.51-3.66,1.28-2.08,2.93-3.83,4.81-5.37,2.43-1.99,4.99-3.81,7.73-5.35,4.52-2.55,9.15-4.88,14.01-6.75,3.17-1.22,6.42-2.18,9.76-2.65,4.07-.57,8.18-.69,12.24.19,3.95.86,7.53,2.53,10.71,5.06,4.09,3.25,7.74,6.9,10.53,11.36,1.22,1.96,2.19,4.02,2.72,6.28.45,1.92.5,3.83-.03,5.73-.97,3.49-2.19,6.9-3.84,10.13-.16.32-.37.62-.59.91-.37.5-.87.88-1.5.89-1.57.04-3.13.01-4.7.01,0,.05,0,.1,0,.15Z"/><path d="m894.46,500.28c.11,0-.25.02-.61,0-2.38-.15-3.79-1.28-4.4-3.58-.15-.58-.26-1.18-.28-1.78-.08-2.05-.03-4.09.39-6.12.99-4.73,2.25-9.38,3.96-13.9,2.05-5.42,4.41-10.7,7.06-15.85,1.88-3.65,4-7.16,6.36-10.52,4.46-6.38,9.83-11.88,16.09-16.52,1.65-1.22,3.36-2.36,5.23-3.22.87-.4,1.79-.69,2.71-.97.64-.2,1.57.22,1.87.82.37.75.74,1.52.98,2.32,1.2,3.92,2.43,7.83,3.5,11.79,1.8,6.63,3.41,13.32,4.63,20.09.11.59.24,1.18.32,1.78.2,1.48-.03,2.89-.73,4.21-.39.74-.8,1.49-1.3,2.17-1.79,2.43-3.7,4.74-5.97,6.76-6.32,5.64-13.19,10.53-20.36,15.01-3.18,1.99-6.5,3.71-9.93,5.21-1.65.72-3.4,1.22-5.11,1.8-1.27.43-2.59.58-4.4.52Z"/><path d="m224.06,747.17c.07,2.18-.08,4.45-.67,6.69-.41,1.57-1.17,2.89-2.42,3.93-2.34,1.93-4.88,3.53-7.7,4.66-.45.18-.91.33-1.37.45-1.73.42-3.34.17-4.84-.82-1.32-.88-2.46-1.95-3.42-3.2-1.4-1.81-2.79-3.64-4.02-5.56-6.25-9.75-11.81-19.89-16.71-30.39-1.58-3.38-3.01-6.84-4.5-10.26-.24-.55-.43-1.13-.61-1.7-.42-1.3-.4-2.61-.03-3.92.54-1.88,1.42-3.58,2.54-5.17,1.54-2.17,3.26-4.2,5.29-5.92,2.21-1.87,4.48-3.65,6.78-5.41,1.64-1.26,3.49-2.12,5.49-2.68,1.7-.48,3.33-.36,4.94.32,1.47.62,2.72,1.54,3.84,2.66,1.72,1.72,3.07,3.71,4.23,5.83,2.32,4.24,4.23,8.67,5.65,13.28,2.27,7.37,4.26,14.82,5.74,22.39.8,4.1,1.97,11.81,1.8,14.8Z"/><path d="m842.47,273.76c-.1.44-.25,1.52-.58,2.54-1.04,3.21-2.05,6.43-3.23,9.58-1.48,3.95-3.12,7.83-4.69,11.75-1.44,3.58-3.17,7.03-4.98,10.43-.96,1.81-2.04,3.56-3.42,5.09-.31.35-.7.68-1.12.88-.28.13-.75.14-1.01-.02-.4-.23-.76-.6-1.01-1-.89-1.43-1.78-2.87-2.57-4.36-3.31-6.3-6.13-12.83-8.79-19.42-3.93-9.72-7.64-19.52-11.22-29.37-3.67-10.08-7.32-20.15-10.97-30.24-.61-1.7-1.18-3.42-1.74-5.13-.11-.33-.14-.71-.12-1.07.01-.22.13-.49.3-.61.16-.12.49-.2.66-.12.64.31,1.29.64,1.87,1.06,6.05,4.39,11.98,8.92,17.68,13.76,7.63,6.48,14.84,13.4,21.87,20.53,3.04,3.09,6.13,6.14,9.16,9.25,1.17,1.21,2.25,2.52,3.35,3.79.5.58.65,1.28.56,2.67Z"/><path d="m523,534.99c-4.5.14-8.88-.53-13.17-1.86-5.71-1.78-10.34-5.1-14.02-9.77-2.11-2.68-3.53-5.75-4.77-8.89-1.47-3.72-2.4-7.58-2.76-11.56-.08-.84-.13-1.69-.08-2.53.4-7.05,2.72-13.43,6.9-19.1.71-.96,1.56-1.85,2.47-2.62,1.68-1.42,3.64-1.84,5.76-1.17.91.29,1.81.67,2.65,1.12,1.49.8,2.84,1.82,4.09,2.96,2.32,2.12,4.55,4.33,6.5,6.78,6.09,7.67,11.44,15.82,15.77,24.62,1.01,2.05,1.82,4.2,2.68,6.32.87,2.14,1.24,4.4,1.59,6.67.25,1.59-.08,3.13-.7,4.59-.59,1.39-1.67,2.35-3.01,3-1.75.86-3.62,1.33-5.57,1.43-1.44.07-2.89.01-4.34.01Z"/><path d="m335.19,883.96c-1.82-.05-3.57-.52-5.3-1.03-3.01-.88-5.93-2.03-8.78-3.32-4.07-1.84-7.99-3.93-11.72-6.4-7.55-4.99-14.71-10.49-21.65-16.28-5.09-4.25-10.09-8.59-14.76-13.29-.59-.6-1.22-1.17-1.77-1.81-.46-.55-.87-1.15-1.22-1.78-.48-.88-.61-1.84-.21-2.79.32-.77.67-1.55,1.13-2.25,1.97-2.97,4.65-5.21,7.69-6.99,2.13-1.25,4.49-1.67,6.97-1.2,2.5.48,4.9,1.22,7.2,2.31,4.39,2.07,8.3,4.87,12.1,7.85,2.75,2.16,5.39,4.44,7.86,6.92,4.67,4.7,9.38,9.36,13.94,14.17,3.73,3.93,7.18,8.12,10.34,12.53,1.26,1.77,2.43,3.59,3.38,5.55.37.76.7,1.54.95,2.34.57,1.79.14,3.02-1.37,4.09-1.43,1.02-3.04,1.42-4.77,1.39Z"/><path d="m177.56,648.51c3.86-.07,7.7-.03,11.55.42,2.63.3,5.29.33,7.9.86,1.3.26,2.6.54,3.89.82.35.08.69.21,1.03.33,3.82,1.35,5.35,3.51,5.54,7.54.16,3.49-.65,6.69-2.51,9.63-1.29,2.04-2.69,3.99-4.35,5.76-3.72,3.97-7.77,7.56-12.19,10.74-2.45,1.76-4.88,3.55-7.53,4.99-1.8.98-3.66,1.83-5.52,2.69-.99.46-2.07.61-3.18.58-1.05-.03-1.89-.44-2.4-1.35-.41-.73-.76-1.51-1.07-2.29-4.21-10.53-7.8-21.27-10.66-32.25-.27-1.05-.51-2.11-.68-3.18-.14-.89.2-1.69.87-2.27.54-.46,1.16-.86,1.81-1.16,1.54-.71,3.18-1.11,4.87-1.3,1.68-.19,3.35-.49,5.03-.56,2.53-.1,5.06-.02,7.59-.02Z"/><path d="m874.14,315.94c2.95-.18,5.24,1.3,7.06,3.84,4.28,5.98,8.39,12.07,12.18,18.36,3.92,6.5,7.56,13.16,10.88,19.99.42.86.79,1.75,1.13,2.65.25.64-.35,1.51-1.08,1.58-.59.06-1.21.12-1.79.03-2.62-.41-5.26-.73-7.83-1.34-10.22-2.42-20.15-5.73-29.77-9.96-3.87-1.7-7.47-3.9-10.89-6.39-1.96-1.43-3.64-3.13-5.06-5.11-2.24-3.12-2.24-6.23-.19-9.42.98-1.54,2.18-2.89,3.58-4.04,4.01-3.32,8.36-6.12,13.16-8.17,1.22-.52,2.49-.89,3.74-1.34,1.5-.54,3.05-.67,4.88-.67Z"/><path d="m698.87,514.01c-7.67.04-15.43-.8-23.03-2.91-4.91-1.36-9.55-3.35-13.67-6.4-4.43-3.29-7.92-7.37-10.33-12.35-1.4-2.89-1.94-5.94-1.63-9.13.04-.36.09-.72.15-1.07.24-1.27,1.15-2.11,2.46-2.29,1.33-.18,2.64-.1,3.96.12,3.21.54,6.37,1.27,9.48,2.25,5.87,1.84,11.63,3.95,17.3,6.32,9.45,3.95,18.76,8.22,27.82,12.99,3.2,1.69,6.33,3.48,9.23,5.66.77.58,1.51,1.19,2.24,1.82.27.23.45.56.67.84.26.34.14,1.08-.2,1.3-.2.13-.39.29-.61.37-.33.13-.68.24-1.04.3-3.92.65-7.83,1.38-11.81,1.53-.48.02-.97.02-1.44.11-3.1.57-6.24.49-9.56.54Z"/><path d="m435.01,258.08c6.63,0,13.25-.01,19.88,0,3.99,0,7.91.65,11.81,1.46,1.66.34,3.24.95,4.73,1.76.63.34,1.25.74,1.78,1.22,1.07.96,1.47,2.17,1.09,3.59-.35,1.29-.9,2.5-1.67,3.59-.83,1.18-1.65,2.39-2.6,3.47-3.11,3.54-6.47,6.81-10.34,9.54-1.98,1.39-4.06,2.59-6.26,3.58-3.37,1.52-6.89,2.15-10.57,1.81-2.8-.26-5.42-1.17-7.86-2.52-2.43-1.34-4.71-2.93-6.68-4.9-2.04-2.05-4.05-4.13-6.03-6.23-1.9-2.02-3.75-4.08-5.61-6.13-2.1-2.33-4.19-4.66-6.25-7.01-.39-.44-.71-.98-.9-1.54-.09-.25.1-.76.33-.93.37-.27.86-.46,1.32-.5,1.2-.11,2.4-.16,3.61-.17,6.75-.06,13.49-.1,20.24-.15,0,.02,0,.05,0,.07Z"/><path d="m147.15,507.91c.32.07,1.16.18,1.95.44,1.95.64,3.82,1.47,5.62,2.47,6.65,3.73,12.85,8.11,18.65,13.05,2.02,1.72,3.91,3.59,5.42,5.8.68,1,1.31,2.03,1.59,3.23.17.74.1,1.47-.35,2.07-.5.67-1.03,1.35-1.66,1.89-2.19,1.89-4.38,3.79-6.67,5.55-5.84,4.49-12,8.51-18.23,12.43-1.84,1.16-3.78,2.13-5.81,2.92-.91.35-1.84.55-2.82.53-.72-.02-1.41-.48-1.64-1.2-.18-.57-.36-1.16-.41-1.75-.09-.96-.12-1.93-.12-2.89,0-7.72-.01-15.44.05-23.16.02-2.04.27-4.09.43-6.13.04-.6.16-1.2.15-1.8-.05-3.39.63-6.72.87-10.09.04-.6.19-1.19.34-1.77.27-1.02,1.09-1.62,2.65-1.59Z"/><path d="m768.91,717.26c5.65.25,11.28.68,16.82,1.96,5.57,1.29,10.26,4.05,14.36,7.93.79.74,1.52,1.55,1.87,2.62.16.49.11,1-.22,1.36-.49.52-1.04,1.01-1.64,1.39-2.33,1.49-4.74,2.87-7.26,4.03-5.47,2.52-11.01,4.87-16.65,6.99-2.25.85-4.57,1.51-6.87,2.21-2.69.82-5.46.85-8.24.71-3.74-.18-6.32-2.15-7.89-5.44-.94-1.96-1.51-4.07-1.61-6.26-.09-1.92-.05-3.85-.07-5.78,0-1.34.32-2.62.73-3.89.99-3.06,3.02-5.17,6-6.33,2.37-.93,4.86-1.38,7.4-1.5,1.08-.05,2.17,0,3.25,0Z"/><path d="m669.08,533.38c-.08-2.77-.19-5.56.63-8.26.31-1.03.63-2.08,1.09-3.05,1.02-2.18,2.84-3.24,5.21-3.25,2.72,0,5.25.74,7.46,2.36,1.98,1.46,3.54,3.29,4.43,5.61.6,1.57,1.17,3.18,1.51,4.83,1.04,5,1.18,10.05.65,15.12-.33,3.12-.73,6.22-1.16,9.33-.64,4.54-1.47,9.04-2.79,13.44-.56,1.85-1.15,3.69-2.09,5.38-.35.62-.79,1.2-1.25,1.76-.41.5-1.45.63-2,.22-.58-.42-1.16-.87-1.62-1.41-1.18-1.39-2.04-2.98-2.76-4.65-1.13-2.67-2.13-5.39-2.85-8.19-1.74-6.78-3.13-13.63-3.87-20.59-.17-1.56-.45-3.1-.56-4.66-.09-1.32-.02-2.65-.02-3.98Z"/><path d="m913.44,713.68c.06,1.65-.39,3.14-1.03,4.59-.93,2.09-1.82,4.2-2.79,6.27-5.08,10.81-10.68,21.33-17.17,31.36-1.9,2.93-3.86,5.82-5.83,8.71-.33.48-.82.86-1.24,1.27-.2.19-.86,0-.95-.24-.08-.22-.22-.44-.23-.67-.03-.6-.07-1.21,0-1.8.26-2.39.53-4.79.84-7.17.36-2.75.77-5.48,1.14-8.23.89-6.56,1.78-13.12,2.97-19.64.97-5.34,2.29-10.59,4.21-15.68.85-2.27,1.92-4.41,3.36-6.37.64-.88,1.38-1.67,2.3-2.28,1.27-.83,2.61-1.15,4.12-.69,3.06.94,5.72,2.55,7.99,4.77,1.62,1.58,2.5,3.53,2.31,5.81Z"/><path d="m834.48,319.92c.29-2.57.78-4.81,1.51-6.98,1-2.97,2.02-5.93,3.11-8.87,2.02-5.42,4.19-10.79,6.89-15.91.9-1.7,1.92-3.34,2.95-4.97.31-.5.8-.89,1.23-1.3.28-.27,1.07-.3,1.36-.04.63.55,1.3,1.08,1.85,1.71,4.9,5.64,9.65,11.41,14.1,17.42,1.71,2.31,1.87,2.97-.24,5.3-1.46,1.61-3.07,3.07-4.85,4.33-6.71,4.74-13.79,8.86-21.17,12.45-.22.11-.43.22-.65.31-.89.34-1.78.97-2.75.6-1.4-.53-2.39-1.61-3.09-2.91-.22-.4-.21-.92-.25-1.12Z"/><path d="m550.78,142.32c2.89,0,5.78-.02,8.67,0,2.17.02,4.33.11,6.48.43,1.3.19,2.64.21,3.96.23,2.06.03,4.07.39,6.09.71,1.35.21,2.49.86,3.47,1.8,1.34,1.27,2.27,2.8,2.89,4.53.69,1.93,1.18,3.92,1.49,5.95.24,1.55.39,3.11.57,4.66.14,1.21.03,2.4-.35,3.57-.45,1.41-1.37,2.24-2.84,2.41-1.82.21-3.6-.03-5.35-.53-3.02-.85-5.95-1.94-8.79-3.29-5.89-2.79-11.51-6.05-17.05-9.46-3.59-2.21-7.11-4.52-10.63-6.84-1.1-.72-2.09-1.61-3.1-2.46-.15-.13-.29-.48-.22-.63.13-.3.38-.71.64-.76.94-.18,1.9-.31,2.86-.32,3.73-.03,7.47-.01,11.2-.01v.02Z"/><path d="m637.34,918.39c2.53.06,5.08-.02,7.6.2,4.32.38,8.66.57,12.94,1.36,1.18.22,2.35.53,3.52.81.23.06.44.19.66.29.74.31.99,1.26.44,1.77-.53.49-1.05,1-1.66,1.38-1.43.9-2.86,1.8-4.35,2.58-7.38,3.85-14.94,7.33-22.64,10.51-2.79,1.15-5.65,2.11-8.59,2.82-1.07.26-2.14.39-3.23.2-2.29-.41-3.98-1.66-5.01-3.75-.81-1.64-1.26-3.4-1.48-5.2-.31-2.52-.26-5.06-.07-7.59.1-1.32.8-2.25,1.93-2.87,1.83-.99,3.82-1.43,5.86-1.75,4.67-.74,9.36-.83,14.07-.77Z"/><path d="m912.3,510.29c-.07-1.43.36-2.8,1-4.12.9-1.85,2.06-3.53,3.46-5.04,1.64-1.76,3.35-3.45,5.29-4.9,1.74-1.29,3.44-2.63,5.23-3.86,4.56-3.13,9.15-6.22,13.75-9.3.79-.53,1.66-.96,2.51-1.4.43-.23,1.08.21,1.01.67-.06.47-.09.96-.25,1.4-.8,2.27-1.6,4.54-2.46,6.78-1.99,5.16-3.97,10.33-6.05,15.45-1.09,2.67-2.34,5.28-3.63,7.85-.7,1.39-1.57,2.71-2.49,3.97-.71.96-1.54,1.86-2.45,2.63-2.35,1.97-5.03,2.11-7.69.51-.21-.12-.41-.25-.6-.4-1.85-1.37-3.5-2.94-4.82-4.84-1.11-1.61-1.86-3.37-1.8-5.43Z"/><path d="m722.88,906.71c0,1.97-.64,3.2-1.98,4.02-.82.51-1.67.97-2.54,1.38-7.3,3.45-14.67,6.73-22.23,9.56-.9.34-1.81.67-2.73.94-1.35.4-2.38-.41-2.38-1.85,0-.48,0-.97.1-1.44.42-2.13.75-4.28,1.33-6.36.78-2.78,1.73-5.52,2.66-8.25.7-2.07,1.75-3.97,3.03-5.73,3.1-4.26,7.37-6.48,12.54-6.97,2.24-.21,4.32.5,6.02,1.99.9.78,1.75,1.69,2.39,2.68,1.65,2.54,2.84,5.3,3.54,8.26.16.7.21,1.42.25,1.75Z"/><path d="m766.35,710.19c-2.06.1-4.07-.17-6.09-.6-6.13-1.31-10.73-4.7-13.89-10.07-1.16-1.98-2.13-4.05-2.83-6.24-1.51-4.71-2.59-9.52-3.37-14.4-.21-1.31-.3-2.63,0-3.95.16-.71,1.01-1.23,1.66-.93.87.41,1.77.79,2.52,1.37,2.29,1.76,4.6,3.5,6.73,5.45,5.15,4.71,10.05,9.7,14.81,14.81,1.55,1.67,2.98,3.47,4.35,5.3.93,1.25,1.69,2.63,2.48,3.98.3.51.47,1.11.66,1.68.43,1.32-.09,2.5-1.37,2.89-1.03.31-2.09.54-3.16.68-.83.11-1.68.02-2.52.02Z"/><path d="m950.85,537.94c0,2.58.01,5.23,0,7.88-.01,1.81-.23,3.6-.68,5.36-.1.41-.86.67-1.2.42-.29-.21-.61-.4-.86-.65-1.84-1.91-3.71-3.78-5.48-5.76-2.79-3.13-4.38-6.81-5.1-10.97-.67-3.89-.25-7.69.42-11.48.6-3.44,1.52-6.82,2.84-10.06,1.5-3.68,3.03-7.34,4.59-11,.33-.76.81-1.46,1.28-2.16.09-.14.45-.17.66-.12.21.05.51.22.54.39.33,1.65.71,3.3.91,4.96.48,4.06.87,8.13,1.3,12.2.04.36.09.72.09,1.08.06,6.62,1.08,13.21.67,19.91Z"/><path d="m557.17,950.5c-2.86,0-5.87.02-8.88-.02-.58,0-1.17-.19-1.74-.37-.16-.05-.26-.36-.34-.58-.03-.08.07-.24.15-.32.64-.61,1.49-.77,2.29-.97,3.98-.99,7.95-1.99,11.95-2.9,4.94-1.11,9.89-2.17,14.85-3.17,5.55-1.12,11.1-2.25,16.73-2.9,2.87-.33,5.73-.8,8.61-1.06,2.52-.23,5.05-.32,7.56.27,1.29.3,2.19.97,2.6,2.23.26.79.48,1.6.68,2.42.09.36-.29,1.08-.61,1.24-.32.16-.64.36-.98.45-1.87.47-3.73,1-5.62,1.33-4.27.75-8.55,1.46-12.84,2.07-3.1.43-6.23.66-9.34.98-.84.09-1.68.18-2.51.28-.72.08-1.43.24-2.15.26-6.75.13-13.46,1.12-20.38.74Z"/><path d="m732.76,882.98c1.57-.09,3.1.24,4.62.64,4.56,1.2,8.87,2.97,12.91,5.42.92.56,1.81,1.17,2.49,2.05.52.68.55,1.71-.1,2.3-.71.64-1.45,1.26-2.27,1.74-3.42,2-6.86,3.96-10.31,5.91-1.57.88-3.17,1.71-4.76,2.55-.42.23-.85.45-1.28.65-.94.42-1.99.24-2.65-.48-.48-.53-.97-1.08-1.34-1.69-1.68-2.78-3.11-5.69-4.08-8.8-.47-1.51-.68-3.05-.66-4.62.03-1.96.95-3.43,2.62-4.44,1.48-.9,3.1-1.26,4.83-1.21Z"/><path d="m473.04,506.4c1.16-.07,2.4.35,3.56,1.06,1.56.95,2.91,2.16,3.96,3.64.97,1.37,1.91,2.78,2.72,4.25,2.21,4.01,3.97,8.23,5.76,12.44.09.22.16.47.15.7-.01.22-.09.49-.23.64-.14.14-.44.26-.63.21-.46-.12-.92-.3-1.32-.55-3.69-2.27-7.4-4.51-11.04-6.85-2.02-1.3-3.94-2.76-5.86-4.21-1.35-1.02-2.55-2.21-3.54-3.58-.42-.58-.79-1.21-1.11-1.85-.48-.96-.28-1.89.39-2.69.38-.46.82-.89,1.3-1.24,1.69-1.23,3.56-2,5.9-1.97Z"/><path d="m721.85,191.1c-.84,0-1.69.02-2.53,0-.98-.03-1.9-.31-2.78-.72-1.27-.59-2.15-1.55-2.57-2.88-.76-2.37-.79-4.74.07-7.1.2-.55.89-.96,1.44-.81.46.12.95.21,1.38.41,4.99,2.43,9.97,4.87,14.93,7.34.42.21.75.58,1.12.88.2.16.11.85-.11.99-.2.12-.39.31-.61.36-3.39.9-6.8,1.65-10.33,1.52Z"/><path d="m683.74,923.53c.05.67-.13,1.24-.56,1.69-.49.51-1.01,1.06-1.62,1.4-1.25.7-2.54,1.36-3.88,1.87-5.27,2-10.63,3.74-16.02,5.37-.45.14-.94.12-1.42.16-.1,0-.28-.09-.29-.17-.04-.21-.09-.52.02-.62.34-.32.73-.63,1.15-.84,6.47-3.14,12.95-6.26,19.43-9.38.53-.26,1.12-.4,1.7-.57.72-.21,1.47.37,1.48,1.1Z"/><path d="m524.53,949.77c-2.57-.27-5.06-.51-7.54-.8-.74-.08-1.04-1.07-.58-1.7,1.1-1.47,2.47-2.58,4.19-3.23.81-.31,1.66-.33,2.42.11,1.68.97,3.02,2.31,3.96,4.02.25.46-.2,1.28-.77,1.37-.59.1-1.18.16-1.69.23Z"/><path class="cls-1" d="m287.35,565.54c-15.76,7.23-43.14,37.46-4.13,42.37l-.77,5.17c-36.94-3.88-44.69,27.38-17.57,42.63l-2.84,4.13c-32.29-16.79-13.18,44.95,8.27,44.95,7.49,0,12.4-3.36-6.2-25.58l3.88-3.62c32.03,38.24,37.72,33.84,47.02,1.55l4.91,1.29c-2.58,22.99,15.5,15.5,33.07-21.96l5.17,2.33c-12.4,29.97-12.4,42.37-7.75,44.44l-2.84,4.65c-14.47-3.1-23.51.78-24.29,4.39-.52,2.84,3.36,5.42,13.18,4.65l1.29,4.91c-16.79,2.58-31.52,6.98-45.99,15.76l-3.1-4.13c11.11-12.66-14.21-14.98-52.19,2.84l-2.84-4.65c22.22-13.69,20.15-15.76-11.37-19.38,3.36-35.14-2.84-44.95-18.34-11.11l-4.91-1.55c19.89-46.25,16.28-54.77,6.72-62l.77-4.13c14.73-.52,40.3-49.86,21.44-55.29l2.07-4.91c26.87,3.62,58.39-28.16,25.58-19.63l-1.81-5.17c18.86-5.43,42.89-14.47,60.97-22.74l3.1,4.39c-9.82,8.78,6.46,16.79,45.21-3.88l2.84,4.65c-17.31,15.5-6.98,28.68,11.63,14.73l4.65,2.84c-6.2,18.86-15.5,41.34-25.06,62.26l-4.65-2.33c6.98-34.36-13.18-51.67-22.74-50.9-6.2.52-8.01,8.27,4.13,23.51l-4.39,4.39c-17.31-21.96-26.35-26.87-42.11-19.89Z"/><path class="cls-1" d="m457.6,567.87l2.84,2.32c-4.39,19.89,19.89,29.19,45.99,18.08l2.32,3.1c-39.53,36.69-26.09,51.93,12.4,16.28l2.32,3.1c-40.56,38.49-43.14,50.9-17.05,60.45l-1.03,3.62c-35.39-8.01-36.43,23.77-24.03,53.22l-3.62,1.81c-14.98-28.16-29.97-25.84-65.36,12.66l-3.36-2.33c-1.81-17.83-20.93-29.97-46.24-17.31l-2.33-3.1c33.59-34.62,27.13-58.9-12.14-21.44l-2.32-3.1c35.65-35.39,39.27-48.57,13.95-58.39l1.29-3.62c34.36,8.52,36.94-20.15,25.58-52.19l3.36-1.81c14.98,31.26,24.54,28.94,67.43-11.37Zm-41.08,142.35c39.53,0,59.68-47.8,44.7-47.8-3.62,0-12.14,7.49-34.36,31l-3.1-2.07c35.65-42.37,36.43-48.83,20.15-57.87l2.07-3.62c15.76,6.46,22.22,4.65,24.03-3.1,3.87-15.24-4.65-26.87-18.09-26.87-36.69,0-59.42,42.37-48.83,42.37,3.1,0,11.11-4.91,34.36-29.45l3.1,2.84c-35.14,35.65-39.53,47.28-21.7,59.68l-1.81,3.62c-13.69-8.27-17.05-5.68-19.89,4.91-3.36,12.66,4.91,26.35,19.38,26.35Z"/><path class="cls-1" d="m488.6,721.33l-.26-4.65c42.37,5.68,42.37,0,14.98-18.34l13.95-43.4,3.62,1.29c-5.17,38.75,13.18,59.16,33.07,61.23,13.43,1.03,20.41-6.98,20.67-19.12.26-25.32-59.94-104.37-16.53,4.91l-4.39,2.07c-19.63-50.64-22.22-57.87-54.25-64.59l.26-3.87c51.67,7.75,40.56-25.32,6.72-38.24l.77-3.62c28.68,3.1,50.89-9.56,67.69-31.52,5.17,16.53,14.21,19.38,62,24.54l-1.29,4.39c-51.93-6.2-52.19,2.33-22.99,11.37-4.65,7.75-8.53,21.96-9.04,49.6l-4.39-.52c-.52-43.66-22.48-62.26-35.91-62.26-8.78,0-14.98,4.39-14.73,15.76.77,33.59,59.68,100.24,13.43.52l4.13-2.07c24.29,55.03,29.45,62.52,56.32,78.54l-2.32,4.13c-33.33-20.41-50.64-8.01-12.92,42.89l-2.58,3.1c-24.29-24.29-41.59-12.92-58.65,14.73-2.84-17.57-15.76-22.99-57.35-26.87Z"/><path class="cls-1" d="m718.79,567.35l4.39,1.55c-16.53,42.37-5.17,43.4,63.04-6.98l2.32,3.88c-77.51,60.71-49.09,65.1-3.87,14.47l2.84,2.84c-41.34,49.6-41.08,62.78-36.69,62.78,4.65,0,24.8-21.96,53.22-78.54l4.39,1.55c-16.53,42.37-8.01,43.4,60.71-1.03l2.07,4.39c-80.09,56.06-51.41,71.31,16.79-1.29l3.1,3.36c-59.94,60.97-65.62,84.74-7.23,45.73l2.32,3.36c-64.07,44.18-65.88,50.38-32.04,62.26l-1.03,3.87c-60.45-17.83-35.91,25.32,9.56,49.35l-2.07,4.13c-37.98-17.05-46.5-16.79-70.27,13.18l-3.36-3.1c51.93-58.65,16.53-48.05-25.06-12.4l-2.07-3.36c4.39-3.87,8.53-7.75,12.66-11.63-21.96-7.49-28.94-4.91-56.58,19.38l-1.81-3.36c35.65-33.07,16.79-47.54-34.88-2.33l-2.07-3.36c4.13-3.36,8.01-6.46,11.63-10.08-22.48-8.01-28.42-5.68-54,17.05l-2.32-3.1c33.84-31.52,21.44-43.92-27.9-7.49l-1.81-3.36c55.8-41.85,55.03-68.72-8.53-18.09l-2.32-3.62c66.14-48.05,61.75-60.71,23.25-73.11l1.55-3.62c59.16,15.76,76.21-76.21,17.31-18.86l-2.07-3.1c20.93-19.12,28.68-27.38,34.36-43.66,2.32,24.28,8.01,35.14,55.55-19.89l3.36,2.84c-53.48,66.65-80.61,115.74-73.37,115.74,5.94,0,41.85-44.95,66.91-96.37Zm-24.54,115.48c27.9-31,38.49-51.15,38.49-62,0-7.23-3.36-9.56-7.75-9.56-26.35,0-97.4,90.94-65.88,90.94,10.08,0,20.93-5.42,35.14-19.38Zm37.46-31.78c-4.13,0-9.3,5.94-34.36,33.84-21.7,26.09-22.48,29.97-5.42,38.24,34.88-34.1,45.73-72.08,39.79-72.08Zm44.69,34.1h-.26c28.42-28.68,40.82-51.15,40.82-64.59,0-6.97-3.1-9.3-7.75-9.3-24.03,0-96.62,90.94-65.88,90.94,10.08,0,20.41-4.65,33.07-17.05Zm54.51-49.09c-3.36,0-7.23,3.62-50.38,50.64-20.15,23.77-21.96,27.9-4.65,35.91,45.73-45.21,60.97-86.55,55.03-86.55Z"/><path class="cls-1" d="m540.92,441.57c-1.79-2.5-22.52,34.32-33.24,53.26l-8.22-6.08c50.76-68.99,54.34-65.78-9.29-8.58l-6.79-8.22c16.09-10.37,32.17-20.73,46.11-32.89,5.72-5.36,5.36-6.43-.72-11.44l-30.03-23.59c-15.37-12.15-28.24-13.23-56.48-8.58v-10.72c118.68,1.79,133.34-8.58,0-8.58v-11.08l89.01,10.37c5.72.72,6.08.36,5.72-5.01-6.08-106.89-10.01-144.42-13.23-174.09l13.58-1.43c-.72,35.39,2.86,244.16,6.44,244.16s7.15-208.77,6.43-244.16l13.58,1.43c-3.21,29.67-7.15,67.21-13.22,174.09-.36,5.36,0,5.72,5.72,5.01l89.72-10.37v11.08c-143.7,1.07-112.96,9.65,0,8.22v9.65c-27.52-3.93-40.75-2.14-56.48,10.01l-30.74,23.59c-6.08,4.65-6.44,6.08-.72,11.44,13.94,12.15,30.03,22.52,46.11,32.89l-6.79,8.22c-63.63-56.84-60.06-59.7-9.29,8.58l-8.58,6.08c-10.73-18.95-31.1-55.77-32.89-53.26-1.43,2.5,10.37,26.1,12.16,39.32l-6.08,70.07h-3.21v-40.75c0-31.82-3.93-65.78-5.72-65.78s-5.72,33.96-5.72,65.78v40.75h-3.22l-6.08-70.07c1.79-13.23,13.58-36.82,12.15-39.32Zm-24.67-27.53c10.37,9.29,20.74,15.73,21.81,14.66,1.43-1.43-6.79-10.01-17.52-19.3-19.3-16.44-23.95-19.3-24.67-18.23-1.07,1.43,2.15,5.72,20.38,22.88Zm15.37,2.5c8.58,8.58,8.22,8.22,7.51-2.5l-1.43-23.59c-.36-4.29-.72-4.29-5.36-3.93l-20.38,2.14c-6.43.72-5.72,2.14,0,7.87l19.66,20.02Zm24.31,0l19.66-20.02c5.72-5.72,5.01-7.15-1.43-7.87l-18.95-2.14c-4.65-.36-5.01-.36-5.36,3.93l-1.43,23.59c-.72,10.72-1.07,11.08,7.51,2.5Zm15.37-2.5c18.23-17.16,21.45-21.45,20.38-22.88-.71-1.07-5.36,1.79-24.67,18.23-10.72,9.29-18.95,17.87-17.51,19.3,1.07,1.07,11.44-5.36,21.8-14.66Z"/><path class="cls-1" d="m369.84,814.35v-31.67c0-4.4-1.52-6-4.63-6.15l-4.18-.23v-4.25h26.88c10.1,0,15.87,4.1,15.87,11.32,0,5.54-3.57,10.1-10.4,12.83,7.9,1.44,13.06,6.23,13.06,13.21,0,9.64-7.82,16.18-17.69,16.18h-28.55l-.08-1.22c6.23-1.59,9.72-4.25,9.72-10.02Zm17.69-18.6c5.01-2.05,7.67-5.62,7.67-10.4,0-5.62-3.8-8.73-12.3-8.96l-5.39-.15v19.29l10.02.23Zm-2.35,25.59h1.67c7.75,0,10.4-3.8,10.4-9.87,0-7.52-5.01-11.39-14.28-11.39h-5.47v14.58c0,4.71,1.52,6.68,7.67,6.68Z"/><path class="cls-1" d="m414.03,808.2c0-13.37,8.58-23.69,19.21-23.69,8.73,0,14.28,6.91,13.59,18.23h-25.44c0,.84-.08,1.75-.08,2.66,0,10.25,4.56,15.11,12.23,15.11,6.23,0,11.54-4.33,12.68-10.4l.76.08c-.46,9.87-6.83,17.09-15.95,17.09-10.4,0-17.01-7.9-17.01-19.06Zm25.06-9.64c0-5.7-2.43-9.72-7.37-9.72-4.4,0-8.05,3.72-9.57,9.72h16.94Z"/><path class="cls-1" d="m483.82,812.23v-12.99c0-6.46-2.66-8.51-7.37-8.51-3.49,0-7.9,2.51-10.56,5.92v18.68c0,4.4,1.52,6.15,4.63,6.15h1.44v4.1h-19.59l-.08-.99c4.33-1.44,6.68-4.48,6.68-10.33v-19.44c0-2.66-1.37-3.65-3.65-3.49l-1.97.15-.15-.91,12.68-6.61v7.67c4.1-4.18,10.1-7.37,14.81-7.37,6.08,0,10.02,3.65,10.02,11.47v19.82c0,4.94,1.37,6,4.48,6h.68v4.02h-17.39l-.08-.99c3.95-2.05,5.39-3.57,5.39-12.38Z"/><path class="cls-1" d="m532.03,812.23v-12.99c0-6.46-2.66-8.51-7.37-8.51-3.49,0-7.9,2.51-10.56,5.92v18.68c0,4.4,1.52,6.15,4.63,6.15h1.44v4.1h-19.59l-.08-.99c4.33-1.44,6.68-4.48,6.68-10.33v-19.44c0-2.66-1.37-3.65-3.65-3.49l-1.97.15-.15-.91,12.68-6.61v7.67c4.1-4.18,10.1-7.37,14.81-7.37,6.08,0,10.02,3.65,10.02,11.47v19.82c0,4.94,1.37,6,4.48,6h.68v4.02h-17.39l-.08-.99c3.95-2.05,5.39-3.57,5.39-12.38Z"/><path class="cls-1" d="m590.04,825.59h-24.76l-.08-1.22c2.51-1.29,5.7-4.48,12.3-14.2l23.24-34.1-16.4.46c-9.42.23-14.05,4.4-15.95,12.68l-.91-.08c-.23-6.76.08-11.77,1.22-17.62,5.01.3,13.97.53,24.83.53h19.21l.15,1.22c-2.13,1.9-5.62,6.23-7.97,9.64l-26.35,38.58,13.21-.53c12.38-.53,18.15-4.18,21.72-14.28l.91.15c-.3,7.37-1.37,13.82-3.11,19.29-5.01-.3-11.77-.53-21.26-.53Z"/><path class="cls-1" d="m620.72,807.75c0-14.28,9.42-23.31,20.43-23.31s17.09,7.75,17.09,19.52c0,13.59-8.43,23.31-20.5,23.31-10.4,0-17.01-6.99-17.01-19.52Zm18.38,15.19c6.08.08,11.47-5.92,11.47-17.62s-5.47-16.56-10.71-16.63c-6.15-.08-11.39,5.92-11.39,17.62s5.47,16.55,10.63,16.63Z"/><path class="cls-1" d="m671.06,814.28v-19.44c0-2.66-1.37-3.65-3.65-3.49l-1.97.15-.15-.91,12.68-6.61v7.82c2.73-3.72,7.37-6.99,12.15-7.29,1.06,4.1.99,8.28.23,12.3h-.84c-.46-2.43-2.2-4.1-5.16-4.1-2.58,0-4.78,1.22-6.38,3.11v19.14c0,4.4,1.52,6.61,4.63,6.61h5.24v4.02h-23.39l-.08-.99c4.33-1.44,6.68-4.48,6.68-10.33Z"/><path class="cls-1" d="m726.5,812.23v-12.99c0-6.46-2.66-8.51-7.37-8.51-3.49,0-7.9,2.51-10.56,5.92v18.68c0,4.4,1.52,6.15,4.63,6.15h1.44v4.1h-19.59l-.08-.99c4.33-1.44,6.68-4.48,6.68-10.33v-19.44c0-2.66-1.37-3.65-3.65-3.49l-1.97.15-.15-.91,12.68-6.61v7.67c4.1-4.18,10.1-7.37,14.81-7.37,6.08,0,10.02,3.65,10.02,11.47v19.82c0,4.94,1.37,6,4.48,6h.68v4.02h-17.39l-.08-.99c3.95-2.05,5.39-3.57,5.39-12.38Z"/></svg>