<?xml version="1.0" encoding="UTF-8"?><svg id="Small_Sticker" xmlns="http://www.w3.org/2000/svg" viewBox="0 0 1080 1080"><defs><style>.cls-1{fill:#fad25a;}.cls-2{fill:#f04a31;}.cls-3{fill:#f1f0e6;}.cls-4{fill:#253e21;}.cls-5{fill:#4c75b9;}</style></defs><path class="cls-4" d="m1032.62,411.32c3.22,0,3.22-5,0-5s-3.22,5,0,5h0Z"/><path d="m988.48,564.41v4.92c-1.31.98-2.9,1.74-3.88,2.98-2.36,2.99-4.79,6.02-6.46,9.4-.86,1.75-3.38,4.11-.36,6.5.73.57,1.49,2.23,1.18,2.76-.77,1.31-1.99,2.65-3.35,3.23-1.8.77-3.9.82-5.89,1.18q1.46,4.9-3.29,7.72c1.54,4.71,3.26,9.34,4.5,14.08.56,2.15.79,4.76.09,6.78-.97,2.8-2.97,5.25-4.79,8.3,1.3.7,2.95,1.59,4.72,2.54.62,3.61-1.81,5.49-4.91,7-2.17,1.05-4.18,2.44-3.73,5.29.43,2.69,1.12,5.34,1.7,8-1.7,1.81-4.49,3.57-5.27,5.98-.63,1.94-1.64,1.96-2.7,2.13-2.72.44-5.54.31-8.2.95-.97.23-2.26,2.01-2.2,3.02.12,2.25,1.35,4.44,1.44,6.68.06,1.59-.51,4.03-1.63,4.7-3.93,2.36-4.57,4.79-1.74,8.66.79,1.07,1.81,2.79,1.46,3.72-1.22,3.17-1.23,7.03-2.65,9.58-3.6,6.43-.64,13.01-2.38,19.23-.86-.23-2.08-.55-3.51-.94.16,1.11.26,1.77.33,2.2-2.22.54-4.42.88-6.44,1.67-.65.25-1.25,1.75-1.15,2.59.5,4.17-2.51,6.46-4.73,9.08-2.3,2.7-5.01,5.06-7.35,7.73-.36.41.24,1.76.55,2.61.34.93,1.49,2.24,1.22,2.61-2.73,3.8-5.21,8.04-8.77,10.89-1.9,1.52-2.9,2.47-2.41,4.58.48,2.09-.52,2.5-2.2,2.5-.98,0-1.95,0-3.01,0q.96,3-.07,7.74c-.02.11.02.24,0,.35-.87,6.28-1.74,12.55-2.66,19.19-.91,1.15-5.44-1.91-4.33,2.57-.78.33-2.31.8-2.28,1,.47,2.6-1.89,3.74-2.59,5.49-1.76,4.39-5.72,7.81-5.31,13.27.27,3.49-1.19,4.07-4.57,3.17-3.16-.85-8.32,2.99-8.1,6.48.12,1.99-.51,2.39-2.07,2.81-1.36.37-3.54.82-3.77,1.67-.96,3.52-2.9,2.09-5.51.97-.62,1.82-2.2,4.17-1.59,5.1,1.8,2.76.15,4.34-1.38,5.68-2.1,1.85-4.65,3.18-7.01,4.74-1.89.12-4.44.14-5.55,1.41-3.79,4.35-9.42,4.49-14.01,6.9-.94.49-2,.73-3.01,1.09.93,1.63-1.64,4.13,1.62,5.35,2.05.77,2.35,2.75.93,4.66-.83,1.12-1.53,2.39-2.53,3.34-3.34,3.15-6.12,7.11-9.88,7.77-2.05,1.99-3.35,3.26-4.97,4.83.09.52.28,1.63.65,3.73-3.05-.24-5.78-.46-8.7-.69-.7.65-1.77,1.4-2.53,2.4-1.55,2.04-3.07,3.46-5.65,1.38-.21-.17-1.75.67-1.96,1.29-.25.74.27,1.74.46,2.62-.28-.16-.55-.33-.83-.49-2.16,2.61-5.32,4.92-6.17,7.9-.7,2.45-1.84,3.57-3.49,4.92-.85.7-1.68,1.76-1.93,2.8-1.48,6.21-1.76,6.53-7.67,7.09-.21.02-.41.21-.61.32.14.11.28.21.42.32-2.24,3.03-4.49,6.06-7.01,9.46-1.05-.95-2.19-1.98-3.34-3.01-.1.27-.19.55-.29.82-1.68-.38-3.43-.6-5.04-1.17-2.51-.9-4.89-2.14-7.41-3.01-.7-.24-1.88.05-2.47.54-1.72,1.44-3.41,2.97-4.81,4.71-1.77,2.2-3.59,1.46-5.03.1-1.93-1.84-3.55-1.5-5.11.11-1.52,1.57-2.79,3.37-4.46,5.42-1.35-.37-3.72-.35-5.1-1.51-3.66-3.08-7.08-2.25-10.75-.4-2.44,1.23-4.96,2.34-3.35,5.73-2.92,1.89-5.5,2.11-8.21.04-1.03-.79-3.17-1.78-3.64-1.37-2.23,1.97-4.5.59-5.89-.31-2.99-1.93-4.5-.43-6.06,1.57-1.15,1.46-2.03,3.13-3.12,4.63-1.79,2.46-3.94,4.7-5.39,7.33-1.04,1.89-1.19,4.27-1.74,6.44-1.89-.53-3.39-1.47-4.41-1.1-1.14.42-1.84,2.03-2.75,3.15-.37-.77-.74-1.52-1.57-3.26-1.29,2.77-2.21,4.72-3.3,7.05-.11-.04-.9-.44-1.73-.69-2.47-.74-4.95-1.47-7.45-2.12-2.74-.71-5.55-1.52-6.91,2.23-.08.21-.99.39-1.28.21-3.13-1.92-4.66.56-6.99,1.91-2.31,1.34-5.52,1.21-8.36,1.52-2.04.22-4.16.41-6.16.09-6.04-.96-6.02-1.06-6.79-6.86-.02-.16-.29-.29-.77-.73-2.15,1.07-4.43,2.2-6.85,3.41-1.35.45-2.95.83-4.41,1.49-1.93.87-4.22,3.23-5.54,2.74-4.96-1.84-7.04,1.75-9.85,4.16h-.7c-2.9-.64-5.8-1.77-8.69-1.76-2.49.01-4.75.72-7.38-.35-3.04-1.24-6.49-1.47-9.76-2.09-1.59-.3-3.2-.51-5.65-.9-3.47,1.1-8.03,3.16-12.77,3.84-3.14.45-6.59-.96-9.86-1.72-6.14-1.43-6.24-1.67-4.96-7.61.04-.17-.2-.39-.2-.4-1.87-.35-4.47-.09-5.14-1.11-1.29-1.96-2.33-2.76-4.67-2.3-2.85.56-5.81.59-8.64,1.19-.57.12-1.04,1.72-1.16,2.68-.1.79.41,1.65.8,3.04-1.72-.67-2.83-1.1-3.4-1.33-1.38,2.55-2.53,4.85-3.88,7.01-.23.37-1.59.49-2.05.18-1.17-.81-2.13-1.93-2.84-2.62-1.86.13-3.82.84-5.22.25-4.25-1.8-8.23-4.24-12.44-6.14-.99-.45-3.25-.21-3.62.45-1.87,3.28-4.85,2.61-7.48,2.26-2.09-.28-3.58-.39-5.26,1.27-1.01.99-2.96,1.02-4.49,1.49-.35-1.38-.73-2.76-1.05-4.15-.18-.77-.25-1.57-.4-2.54-3.06.62-6.26-2.24-8.97,1.05-.23.28-1.41.07-1.93-.26-2.56-1.62-3.87-1.08-4.04,2.03-.05,1.03-.47,2.04-.54,3.07-.26,3.7-3.38,5.63-5.61,2.98-2.24-2.65-6.38-4.98-4.99-9.79.12-.43-.85-1.17-1.35-1.81-2.68,3.21-4.82,2.95-7.2-.35-.51-.71-2.07-1.43-2.74-1.15-3.42,1.44-5.88.31-8.42-2.04-1.01-.94-2.88-1.06-4.4-1.31-1.2-.19-2.5.2-3.68-.04-2.12-.44-4.18-1.16-6.27-1.76.05-.14.27-.86.71-2.26-1.67.74-2.87,1-3.7,1.69-1.75,1.45-3.27,1.15-4.98-.01-3.91-2.64-7.85-5.26-11.87-7.74-.69-.42-2.4-.48-2.67-.07-1.55,2.37-4.35,3.26-5.35,1.09-1.44-3.13-4.7-.67-5.85-2.98-.07-.14.25-.56.18-.62-1.92-1.72-3.95-4.93-5.79-4.83-5.44.31-8.11-2.82-10.27-5.98-3.35.19-6.35.95-8.96.25-1.19-.32-1.61-3.51-2.38-5.4-4.69,2-8.17.6-10.85-4.38-1.06.74-2.42,2.33-3.12,2.08-2.9-1.03-5.64-2.55-8.35-4.05-1.01-.56-1.77-1.58-2.65-2.4-.58-2.33-1.56-4.55-2.95-6.47-1.04-1.44-3-2.27-3.86-3.76-1.34-2.35-1.11-2.36-3.3-2.61-1.34-.15-2.65-.71-3.93-1.2-1.94-.74-3.84-1.59-6-2.49-1.62-2.23-3.28-4.44-7.01-5.17-3.31-.65-6.25-3.14-9.35-4.81.39-1.02.77-2.01.85-2.2-2.54-2.61-4.66-4.65-6.6-6.85-.88-1-1.12-2.8-2.13-3.36-1.07-.59-2.72-.13-3.62-.13v-4.36h-2.98c-.14-2.71-.47-2.82-3.03-2.1-.79.22-2.05-.47-2.82-1.09-1.46-1.18-2.76-2.58-4.05-3.95-.84-.9-1.51-1.97-2.33-2.89-2.27-2.55-4.36-5.33-6.96-7.48-1.7-1.41-5.35-1.32-6.08-2.87-1.67-3.55-3.99-5.59-7.34-7.47-5-2.81-8.64-7.2-11.17-12.51-.59-1.24-2.55-1.83-3.87-2.73-1.08-.74-2.69-1.27-3.12-2.28-.66-1.58-.52-3.5-.71-5.27-1.85-1.12-3.19-2.74-4.6-4.31-2.73-3.05-5.37-6.2-8.32-9.03-1.65-1.59-3.71-2.98-5.83-3.8-3.32-1.28-4.98-4.26-3.58-7.28-.77-1.38-1.19-3.09-2.28-3.92-2.74-2.08-4.97-3.93-6.68-7.46-2.38-4.92-6.75-8.65-7.98-14.65-1.01-4.91-5.37-8.27-9.89-10.42-3.05-1.45-4.21-3.33-2.82-6.13,1.47-2.96.42-3.99-2.22-5.12-1.77-.76-4.38-2.59-2.66-4.66,2.28-2.77.86-3.48-1.24-4.53-1.34-.67-2.8-1.22-3.96-2.13-.8-.62-1.73-1.8-1.67-2.67.24-3.28.86-6.54,1.38-10.07-3.47-.22-4.68-1.72-4.14-4.76.16-.87-.63-1.91-.99-2.87-1.46-3.93-2.92-7.86-4.08-10.98-1.32-1.82-2.99-3.08-2.91-4.22.26-3.89-1.53-6.5-4.32-8.68-1.47-1.15-1.86-1.84-.36-3.53,1.72-1.93,2.77-4.45,4-6.52-1.41-3.87-2.81-7.81-4.3-11.72-.62-1.62-2.12-3.22-1.99-4.73.19-2.24.33-3.64-2.4-3.72-.37,0-1.07-.66-1.03-.76,1.22-2.92-1.74-3.55-2.67-5.28-.65-1.2-.54-3.25.03-4.56.91-2.08,2.1-3.83.46-6.09-.32-.44-.06-1.88.4-2.21,3.69-2.72,1.92-5.37-.06-7.88,2.05-2.64,2.13-5.15,1.24-8.18-.64-2.2-2.35-4.89.62-7.24.82-.65.41-2.85.65-5.1-1.39,1-2.05,1.47-3.13,2.25,0-2.44.71-4.82-.15-6.3-1.76-3.03-.76-5.06,2.04-7.67h-3.96c-3.65-4.2-4.43-8.89-5.04-13.96-.87-7.3-.34-11.93,3.75-13.76-3.72-3.58-5.74-7.6-2.35-11.95.93-.8,1.86-1.61,2.79-2.41-1.02-.87-1.94-1.92-3.08-2.55-1.35-.75-2.93-1.07-4.34-1.73-.34-.16-.68-1.1-.52-1.38.28-.49,1.05-1.13,1.47-1.03,2.35.54,2.34-.3,1.51-2.08-1.1-2.39-2.02-4.85-2.73-6.56,2.82-1.18,5.43-2.28,8.04-3.37-.1-.36-.2-.73-.31-1.09-.89-.46-1.79-.92-2.66-1.37.06-1.02.11-1.96.16-2.9-.34.25-.69.49-1.03.74-.79-.75-2.27-1.51-2.26-2.25.04-2.76.58-5.51.89-8.27.52-4.58,1.02-9.16,1.55-13.99-2.02-.88-2.73-2.45-1.44-4.86.45-.83.18-2.01.4-2.99.32-1.47.87-2.9,1.17-4.37.55-2.73,1.14-5.47,1.37-8.24.05-.58-1.41-1.28-2.77-2.43,1.55-1.54,3.02-3,3.89-3.87,1.46-5.1,2.8-9.76,4.14-14.46-.52-.18-1.34-.47-2.4-.84,1.37-1.45,2.51-2.65,3.66-3.87-.99-2.77-1.96-5.47-3.07-8.56,1.21-.87,2.56-1.84,3.73-2.67-.83-1.59-1.62-3.12-2.56-4.91,1.28-.12,2.16-.2,3.03-.27-.28-.19-.56-.38-.84-.57.78-1.75,1.56-3.51,2.43-5.46-1.18-1.9-.52-6.46,1.72-7.36.75-.3,2.26,1.31,3.8,2.28.45-.36,1.5-1.2,3.19-2.56-1.59-.83-2.7-1.42-3.82-2.01-.69-.36-1.69-.53-2.01-1.09-1.04-1.8,1.1-7.52,2.6-8.23,1.19-3.05-.07-6.78,3.99-8.31.39-.15.18-1.88.28-3.29.9-.6,2.4-1.61,3.98-2.67-.07-.45-.03-.95-.21-1.35-1.03-2.2-3.44-4.69,1.43-5.42.36-.05.85-1.39.73-2.03-.24-1.33-.78-2.62-1.3-3.88-1.09-2.6-.25-3.93,1.95-4.04.99-2.34,1.85-4.39,2.71-6.43.57-1.36,1.54-2.69,1.62-4.08.13-2.26-.09-4.6-.6-6.81-.61-2.63-1.24-5.43-2.63-7.68-2.3-3.7-2.19-5.57,1.35-8.18,1.06-.78,2.11-1.83,2.66-2.99,1.75-3.73,2.91-7.83,7.99-8.51.72-.1,1.81-1.52,1.78-2.3-.11-3.03,1.44-4.46,4.44-4.88,0-2.71-.07-5.18.05-7.65.03-.57.64-1.19,1.13-1.64,3-2.78,5.89-5.5,7.27-9.65,1.7-5.15,4.01-10.1,6.25-15.61,4.24,2.81,4.65-1.99,6.98-3.32,3.37-1.93,3.16-4.72,2.02-7.1,4.14-4.86,7.97-9.35,11.82-13.86-.01-.01-.41-.35-.09-.07,1.32-1.7,2.58-3.32,4.14-5.34.34.04,1.53.19,2.73.34-.86,1.62-1.54,2.9-2.22,4.18.24.15.48.31.72.46,2.12-1.64,4.25-3.27,6.32-4.87.72-3.38-2.01-1.58-3.53-1.86,3.45-3.01,8.68-4.47,6.51-10.16,1.54-.71,2.91-.9,3.53-1.69,3.79-4.81,8.58-8.49,13.94-11.15,3.29-1.64,5.52-3.89,7.55-6.71.5-.7,1.6-1.38,2.41-1.37,4.83.09,10.06-3.66,10.85-7.55,3.24-.58,6.26-1.14,9.29-1.67,2.72-.48,2.61-1.47.65-3.01-2.13-1.68-2.16-3.39.18-4.97.63-.42,1.24-.86,1.86-1.29l-1.12-.18c-.23-2.39-.1-4.89-.79-7.14-.62-2.02.1-2.29,1.59-3.32,2.97-2.05,5.86-4.47,8.02-7.32,1.82-2.4,3.61-4.42,6.4-5.58,3.96-1.65,7.86-3.4,11.61,1.38,2.33-3.26,4.7-5.94,6.22-9.03.59-1.2.82-1.92,2.06-2.8,2.67-1.9,5.95-4.16,6.82-6.95.67-2.17,1.35-3.55,2.87-4.83,4.27,2.6,9.19.41,9.74-4.42.32-2.77,1.44-3.68,4.16-4.02,2.44-.3,5.17-1.14,6.97-2.68,1.11-.95,1.63-2.81,3.26-1.64,1.03.74,1.49,2.45,1.93,3.82.4,1.25.44,2.62.64,3.94.85-.99,1.72-1.95,2.53-2.97.2-.25.2-.66.28-1,1.33-5.55,1.86-5.8,7.41-4.25,1.21.34,3.6.39,3.76-.05,1.29-3.52,4.23-3.52,7.11-3.65v-1.88c1.56-.55,3.24-.61,3.65-1.37,3.36-6.19,10.93-6.22,15.67-3.34,2.04-1.32,4.07-2.64,5.64-3.66,2.65,1.19,4.85,2.58,7.23,3.06,1.15.23,3.32-.97,3.8-2.06.61-1.39-.16-3.34-.06-5.04.06-.98.51-2.66,1.02-2.75,1.03-.19,2.27.37,3.32.85.47.21.68.98,1.1,1.64.58-.51,1.16-.78,1.22-1.12.56-3.37,3.72-3.63,5.98-4.62.89-.39,3.67.95,3.76,1.72.4,3.33,2.32,2.49,3.92,1.87.77-1.54,1.56-3.02,2.8-3.77,2.83-1.71,5.94-2.94,8.8-4.6,4.44-2.58,6.03-2.16,7.47,2.02,1.99-.1,3.87-.23,5.75-.29,1.07-.03,2.22.3,3.19,0,2.39-.74,4.72-2.56,7.02-2.47,4.13.16,8.15,1.55,11.69-2.01.8-.81,2.62-.92,3.94-.83,2.37.16,4.11-.16,5.1-2.69.26-.67,2.54-1.31,2.6-1.2,1.87,3.19,4.93,1.33,7.38,1.9,2.74.64,4.57-.27,6.2-2.35,1.97-2.51,3.3-2.21,5.12.59.6.92,1.92,1.76,3.01,1.91,3.05.44,6.67-2.04,8.1-4.84.34-.67,1.53-.94,2.36-1.33,2.31-1.09,5.92,1.24,7.16-2.53.92-2.81,1.98-2.59,3.87-.81,1.26,1.19,2.87,2.63,4.42,2.76,6.69.56,13.41.68,19.99.95-.34.96-.65,1.82-.95,2.69.85.24,1.68.56,2.54.71.56.1,1.16-.07,1.75-.07,3.69,0,7.43-.38,11.05.13,5.02.71,5.48.31,5.57-4.95.03-1.51,1.94-3.09,3.25-4.36.18-.17,1.96,1.15,2.88,1.92,1.39,1.17,2.56,2.65,4.08,3.56.33.2,1.7-1.46,2.69-2.12.55-.37,1.31-.53,1.99-.59,5.2-.42,10.4-.88,15.61-1.14,2.06-.1,3.11.84,2.82,3.29-.25,2.05,1.13,3.79,3.16,2.2,2.42-1.89,4.5-1.02,6.88-.5,1.79.4,3.68.39,5.53.53,6.41.48,13.55-3.35,18.99,3.17.2.24,1.11.02,1.63-.16,3.42-1.23,6.8-2.57,10.25-3.72.85-.28,2.18-.37,2.8.1,2.39,1.82,4.58,3.89,6.68,5.73,2.44-1.69,3.85-4.31,6.06-1.78,1.46,1.68,2.48,3.55,5.27,2.6.38-.13,1.41,1.29,1.97,2.11.62.92,1.05,1.97,1.57,2.96.22-.36.44-.72.66-1.08,1.45.48,3.06.69,4.3,1.49,2.52,1.62,5.65,1.3,8.15-.46,1.19-.84,3.46-1.27,4.7-.7,4.67,2.14,9.11,4.77,13.83,7.33-2.55,3.44,1.1,4.68,2.12,7.31,1.4-1.03,2.45-1.95,3.64-2.6.71-.39,1.79-.7,2.46-.44,1.85.74,3.62,1.73,5.33,2.76,1.46.88,3.73,1.76,4,2.99.51,2.39,2.49,2.53,3.51,2.33,4.4-.86,8.52-.66,12.48,1.53.27.15.83.19,1.01.03,2.56-2.3,4.53-.12,6.58.9,3.59,1.8,7.1,3.74,11.4,6.02,1.52-.59,4.33-2.06,4.64,2.61.04.55,1.66,1.45,2.49,1.4,1.82-.12,3.97-.26,5.34-1.27,2.7-2,3.83-.19,5.02,1.52.92,1.32,1.39,2.94,2.27,4.29.46.71,1.34,1.2,2.11,1.66.81.48,2.48.87,2.45,1.17-.11,1.11-.48,2.52-1.28,3.17-1.84,1.51-1.37,2.55.11,3.4,1.63-.26,3.46-.72,4.48,0,2.51,1.77,4.64,4.09,6.95,6.17.6.54,1.24,1.03,1.93,1.45,1.52.92,3.07,1.79,4.63,2.64,2.72,1.48,5.47,2.89,8.18,4.39,1.18.65,2.33,1.39,3.37,2.23.77.62,1.24,1.63,2.03,2.19,2.88,2.02,5.81,3.97,8.79,5.84,1.36.85,3.22,1.14,4.24,2.25,3.73,4.06,7.67,7.71,12.6,10.39,3.21,1.75,5.92,2.72,9.08.18,1.79-1.43,3.82-1.99,5.4.45.84,1.3,1.52,2.72,2.38,4.01.62.93,1.37,2.43,2.15,2.48,4.76.34,4.38,3.76,4.48,6.94,3.42.08,3.63.47,2.55,3.48,1.34,1.29,2.42,2.39,3.56,3.42.76.68,1.54,1.39,2.43,1.86,6.59,3.49,10.23,9.19,12.49,16.08.85,2.6,1.96,5.26,3.57,7.42,2.32,3.12,5.26,5.78,7.85,8.71,1.25,1.41,2.34,2.97,3.42,4.52,2.48,3.58,6.3,3.8,10.05,3.88,3.16.07,3.55,1.74,3.41,4.36-.1,1.86.36,3.76.66,5.63.14.89.33,1.84.79,2.58.96,1.52,1.89,3.21,3.28,4.23.66.49,2.33-.4,3.9-.74.26,1.32,1.14,3.11.82,4.65-.81,3.91,1.01,6.99,2.29,10.35.69,1.81.71,3.87,1.03,5.82-.48.35-.95.7-1.43,1.04,4.59,2.64,9.19,5.28,14.07,8.08-.4,2.1-1.13,4.63-1.29,7.2-.19,3.11.14,6.01,1.69,9.1,1.86,3.7,5.63,3.31,8.02,5.44.91.81,2.24,2.48,1.95,3.08-1.6,3.34-1.07,6.29.04,9.71,1.4,4.32,1.8,8.96,2.68,13.7,5.95-3.03,3.98,3.1,5.93,4.82,2.69.99,5.43,1.96,8.12,3.06.33.14.4.95.57,1.46.75,2.33.79,5.79,2.38,6.77,4.78,2.97,3.25,9.78,7.65,11.24-1.45,2.87-2.77,5.05-3.67,7.4-.5,1.31-.29,2.88-.44,4.89.04.03.8.56,1.54,1.12.88.68,1.74,1.4,2.62,2.1-1.07,1.31-2.13,2.65-3.23,3.94-1.59,1.86-3.31,3.63-4.73,5.61-.19.27,1.14,2.3,1.61,2.25,2.31-.27,2.92.98,3.16,2.8.48,3.62,2.38,5.87,5.83,7.31,1.39.58,3.15,2.79,3.01,4.07-.57,5.09.82,9.75,2.19,14.45.5,1.7,1.2,3-1.34,3.74-.78.23-1.83,2.38-1.51,3.05,1.12,2.34,2.44,4.81,4.33,6.49,2.8,2.5,3.35,5.03,1.26,8.02-2.05,2.93-3.72,6.11-5.61,9.27,1.69,1.26,3.31,2.1,4.37,3.4.7.85,1.07,2.55.71,3.56-.69,1.91-2,3.61-3.07,5.38-.99,1.64-.23,5.68,1.27,6.71,3.3,2.27,3.48,4.36.78,6.93,1.09,3.66,2.74,7.17,3.07,10.8.41,4.44,1.91,7.73,5.35,10.59,3.48,2.9,3.8,6.65,1.22,9.26.8.88,1.71,1.72,2.4,2.71.39.56.7,1.44.56,2.07-1.07,4.54-2.26,9.05-3.47,13.75,2.05.26,3.76.48,5.47.7ZM154.22,360.8c-.93-.57-1.82-.9-2.4-1.52-1.29-1.38-2.65-1.39-3.18.29-.26.84.71,2.41,1.55,3.18,1.28,1.16,2.93,1.92,4.74,3.04.31-2.42.58-4.56.86-6.71-.28-.06-.56-.12-.85-.19-.22.58-.45,1.16-.73,1.9Zm-32.65,228.03c1.45.34,2.62.91,2.88.63,1.37-1.47,2.99-3.02,3.53-4.83.31-1.03-1.26-2.63-1.82-3.66-1.43,1.77-2.42,3.01-3.53,4.39.67.19,1.33.39,2.31.68-1,.84-1.76,1.47-3.37,2.81Zm16.04-139.73c1.88,1.04,3.36,1.86,4.83,2.67.27-.17.53-.34.8-.51-.96-2.34-1.93-4.68-3.19-7.74-1.1,2.52-1.76,4.03-2.43,5.58Zm17.48-67.45c.11.54.22,1.08.33,1.63,1.35.14,2.69.27,4.04.41-.39-1.2-.78-2.4-1.16-3.6-1.07.52-2.14,1.05-3.21,1.57Z"/><path class="cls-5" d="m243.84,84c1.73.81,3.52,1.51,5.17,2.46,1.87,1.08,3.62,1.1,5.49.14.28-.14.77-.05,1.11.09.64.25,1.22.83,1.85.87,2.32.16,15.35.35,17.4,1.18.37.15.88.43,1.15.3,1.18-.57,2.2.19,3.29.24.48.03.96.01,1.44-.01,2.77-.14,5.49-.01,7.8,1.77.55.42.97,1,1.75.32.15-.13.67.12,1.01.23.83.26,1.65.56,2.49.79.59.16,1.21.19,1.8.33,2.06.48,4.15.9,6.17,1.51,1.21.36,2.32,1.03,3.48,1.57.32.15.62.36.93.53.47.25.97.46,1.42.74,1.45.94,2.8,1.94,4.71,2.09,1.67.13,3.31.74,4.96,1.18.82.22,1.62.79,2.4.74.79-.05,1.21.14,1.81.57,1.38.99,2.85,1.95,4.63.56.44-.35,1.18-.64,1.69-.54,1.99.39,4.06.72,5.89,1.52,2.11.92,4.07,1.15,6.2.36.26-.1.63,0,.93.09,3.57,1.05,7.13,2.12,10.7,3.17.19.06.43.1.6.04,1.16-.43,2.02.17,2.96.69.5.27,1.16.55,1.67.46,1.95-.36,3.33,1.02,5,1.48.98.27,1.79,1.08,2.73,1.52,1.09.51,2.32.75,3.35,1.33,2.43,1.37,4.98,2.45,7.73,2.79,2.05.26,3.51,1.18,4.9,2.51.46.43,1.16.68,1.79.87.8.25,1.67.3,2.47.56,1.29.43,2.43,1.38,3.94.9.11-.03.28.13.42.2,1.05.52,2.09,1.07,3.16,1.55,1.22.55,2.69.79,3.65,1.61,1.49,1.28,3.14,1.29,4.82,1.14,2.28-.21,4.33.19,6.27,1.37,1.07.65,2.18,1.23,3.3,1.8.85.44,1.88.64,2.59,1.23,1.51,1.26,3.2,1.76,5.13,1.81.54.01,1.08.29,1.61.48.49.18.96.52,1.46.57,2.09.21,3.96.9,5.65,2.11.93.66,1.88,1.04,2.5.23,1.55.27,2.84.52,4.14.71.8.12,1.65.02,2.39.26,1.35.44,2.59,1.34,3.95,1.53,1.89.26,3.71.44,5.3,1.57.15.1.41.13.59.1,3.11-.55,5.52,1.67,8.43,2.03,1.59.2,3.03,1.39,4.62,1.75,2.17.49,4.42.63,6.64.91.19.02.47,0,.58-.13,1.06-1.13,1.65-.25,2.49.39.87.67,1.96,1.42,2.96,1.44.92.03,1.44.24,2.13.72.56.39,1.47.7,2.08.54.84,1.8,1.67,3.6,2.63,5.34.22.41.9.63,1.41.84,1.19.5,2.41.95,3.62,1.41.3.12.6.29.92.31,2.69.23,5.13,1.21,7.56,2.29.79.35,1.83.12,2.66.4,1.92.65,3.77,1.47,5.67,2.18,2.22.83,4.47,1.61,6.7,2.44,2.01.75,3.98,1.62,6.02,2.31,1.84.62,3.81.89,5.25,2.4.26.27.92.32,1.36.25,2.98-.44,5.97-.11,8.62,1.06,2.05.9,4.07.99,6.12,1.03,1.61.03,2.92.48,4.24,1.27.93.56,1.92,1.1,2.96,1.37,2.64.7,5.33,1.18,7.97,1.87,2.24.59,4.43,1.36,6.65,2.03,1.04.31,2.13.5,3.15.86,3.68,1.33,5.67,5.4,3.55,9.5-.8,1.55-1.32,3.18-1.17,5.01.07.88-.57,1.8-.73,2.72-.11.62.12,1.29.08,1.93-.13,2.26,1.43,4.51,0,6.78-.24.38-.33.92-.3,1.38.11,1.72.08,3.49.5,5.15.78,3.04.36,5.98-.12,8.98-.18,1.12-.06,2.38.29,3.47.9,2.81.93,5.6.32,8.44-.04.19-.22.41-.16.56.51,1.44.11,2.75-.52,4.04-.24.5-.51.99-.76,1.49-.09.17-.25.35-.24.52.26,3.01-.01,5.97-.63,8.91-.15.72-.31,1.51-.72,2.11-1,1.46-1.14,3.01-.91,4.66.1.74.41,1.56-.66,1.97-.14.06-.22.49-.19.73.23,1.49-.17,2.79-.99,4.05-.47.72-.78,1.55-1.13,2.34-.39.88-.74,1.77-.99,2.36-.13,1.02-.1,1.81-.35,2.51-.41,1.15-1.02,2.24-1.53,3.35-.6,1.32-1.14,2.65-.25,4.07.06.1.14.24.11.33-.37,1.12-.6,2.32-1.17,3.33-.64,1.14-1.66,2.1-.83,3.55.08.13-.02.38-.08.56-.34,1.05-.69,2.1-1.06,3.14-.41,1.17-.21,2.39-.81,3.64-.6,1.24-.89,2.88-.72,4.5.15,1.36-.32,2.77-.49,4.16-.03.27.08.56.03.81-.18.83-.14,1.99-.68,2.4-1.78,1.34-1.72,3.23-2,5.03-.16,1,.03,2.08-.9,2.86-.12.1-.2.42-.13.54.62,1.03-.2,1.69-.61,2.47-.87,1.64-1.65,3.33-2.58,4.94-.53.92-1.2,1.78-1.94,2.56-1.01,1.06-1.7,2.16-1.65,3.68.04,1.01-.15,2.03-.24,3.04-.01.16.01.38-.08.46-1.19.98-.67,2.5-1.25,3.67-.3.6-.29,1.1.35,1.67.31.28.17,1.19.03,1.77-.71,2.89-2.27,5.62-1.52,8.75.12.5.35.97.52,1.45.29.81.5,1.6-.18,2.35-.15.16-.25.45-.22.66.38,2.45-1.72,3.83-2.26,5.81-.22.91-.41,1.83-.66,2.74-.52,1.89-1.49,3.77-1.52,5.67-.06,3.18-2.27,5.16-3.69,7.6-.47.82-1.25,1.46-1.79,2.25-.4.58-.93,1.25-.93,1.89-.02,2.28-1.19,4.16-2.35,5.91-1.1,1.66-1.38,3.46-1.6,5.21-.21,1.73-.99,2.89-2.24,3.87-1.1.87-2.29,1.64-3.48,2.39-1,.64-1.19,1.59-1.1,2.59.1,1.13-.19,2.22.11,3.41.39,1.52-.88,2.73-2.52,2.81-1.66.08-3.34.14-4.75-1.03-.28-.23-.82-.42-1.13-.31-1.35.49-2.4-.19-3.56-.65-2.53-1-5.13-1.81-7.64-2.85-1.76-.73-3.39-1.74-5.11-2.57-.4-.19-.99-.3-1.38-.16-1.1.38-2.1.38-3.17-.11-2.2-1.02-4.45-1.95-6.65-2.97-.65-.3-1.14-.49-1.92-.28-.61.16-1.51-.15-2.08-.54-.69-.48-1.21-.69-2.13-.72-1.01-.03-2.1-.78-2.96-1.44-.83-.64-1.43-1.52-2.49-.39-.11.12-.39.15-.58.13-2.22-.27-4.47-.41-6.64-.91-1.6-.36-3.03-1.55-4.62-1.75-2.91-.37-5.32-2.58-8.43-2.03-.19.03-.45,0-.59-.1-1.59-1.13-3.42-1.31-5.3-1.57-1.36-.18-2.61-1.09-3.95-1.53-.75-.24-1.6-.15-2.39-.26-1.3-.2-2.59-.44-4.14-.71-.62.81-1.58.43-2.5-.23-1.69-1.21-3.56-1.9-5.65-2.11-.5-.05-.96-.39-1.46-.57-.53-.19-1.07-.47-1.61-.48-1.93-.05-3.62-.55-5.13-1.81-.71-.59-1.74-.8-2.59-1.23-1.12-.57-2.23-1.15-3.3-1.8-1.94-1.18-3.99-1.58-6.27-1.37-1.67.16-3.32.15-4.82-1.14-.95-.82-2.43-1.06-3.65-1.61-1.07-.48-2.11-1.03-3.16-1.55-.14-.07-.31-.23-.42-.2-1.51.48-2.66-.47-3.94-.9-.8-.26-1.67-.31-2.47-.56-.63-.2-1.33-.44-1.79-.87-1.39-1.32-2.85-2.25-4.9-2.51-2.75-.35-5.31-1.43-7.73-2.79-1.03-.58-2.26-.82-3.35-1.33-.95-.44-1.76-1.25-2.73-1.52-1.67-.46-3.04-1.84-5-1.48-.51.09-1.18-.18-1.67-.46-.93-.52-1.8-1.11-2.96-.69-.17.06-.41.02-.6-.04-3.57-1.05-7.13-2.12-10.7-3.17-.3-.09-.67-.19-.93-.09-2.13.8-4.09.56-6.2-.36-1.83-.8-3.9-1.13-5.89-1.52-.51-.1-1.25.2-1.69.54-1.77,1.39-3.24.43-4.63-.56-.6-.43-1.02-.62-1.81-.57-.78.05-1.58-.52-2.4-.74-1.64-.44-3.28-1.04-4.96-1.18-1.9-.15-3.25-1.15-4.71-2.09-.45-.29-.95-.49-1.42-.74-.32-.17-.61-.38-.93-.53-1.15-.54-2.27-1.21-3.48-1.57-2.02-.61-4.11-1.03-6.17-1.51-.59-.14-1.21-.17-1.8-.33-.84-.23-1.66-.53-2.49-.79-.34-.11-.86-.36-1.01-.23-.78.68-1.2.11-1.75-.32-2.31-1.78-5.03-1.9-7.8-1.77-.48.02-.96.04-1.44.01-1.09-.06-2.11-.81-3.29-.24-.27.13-.77-.15-1.15-.3-2.05-.83-3.95-2.04-6.27-2.2-.63-.04-1.21-.62-1.85-.87-.33-.13-.83-.23-1.11-.09-1.87.96-3.62.94-5.49-.14-1.64-.95-3.44-1.65-5.17-2.46-1.98-.93-4-1.78-5.92-2.82-.76-.42-1.41-.45-2.06-.11-.93.48-1.66.06-2.4-.33-1.2-.64-2.31-1.62-3.58-1.92-1.82-.42-3.53-.96-5.2-1.76-.57-.27-1.37-.06-2.03-.2-2.54-.55-5.05-1.5-7.61-1.63-2.25-.12-4.27-.57-6.38-1.26-2.18-.71-4.56-.79-6.81-1.35-1.03-.25-1.94-.97-2.9-1.47-.5-.26-.97-.7-1.49-.75-1.47-.17-2.97-.13-4.45-.27-.83-.08-1.79-.16-2.42-.61-1.65-1.18-3.59-1.28-5.44-1.63-2.81-.52-5.63-.76-8.39-1.83l-.13-.06c-.22-1.81-.73-3.58-.61-5.45.12-1.92.02-3.85.09-5.77.07-2.22.51-4.33,2.32-5.89.76-.66.76-1.46.74-2.38-.02-.98.22-1.97.4-2.95.17-.89.33-1.8.67-2.64.22-.55.77-.98,1.14-1.49.37-.52.78-1.04,1.02-1.62.19-.45.07-1.01.21-1.49.4-1.33.55-2.56-.32-3.84-1.02-1.49.1-2.91.5-4.29.41-1.43,1.43-2.71,1.73-4.15.24-1.17.09-2.6-.41-3.68-.92-2-.52-3.86-.05-5.79.23-.96.38-1.96.71-2.88.31-.85,1.4-1.98,1.14-2.39-.75-1.17.23-1.75.41-2.6.14-.68.16-1.42.02-2.09-.31-1.51-.05-2.87.63-4.25.68-1.37,1.23-2.82,1.72-4.27.94-2.79,1.87-5.59,2.65-8.42.82-2.97,1.14-6.12,2.29-8.95,1.43-3.51,1.95-7.24,3.24-10.78,1.18-3.27,1.82-6.72,2.76-10.07.63-2.24,1.49-4.41,2.04-6.67.5-2.07.69-4.22,1.09-6.31.43-2.25,1.02-4.46,1.41-6.72.18-1-.03-2.06.08-3.07.07-.59.3-1.27.71-1.68.98-.98.96-2.09.87-3.31-.12-1.53-.22-3.07-.16-4.59.18-4.35,2.42-7.98,4.44-11.68.52-.95.7-2.07,1.14-3.07.68-1.53,1.45-3.03,2.2-4.54.33-.67.76-1.3,1.04-1.98.52-1.24,5.28-10.71,5.63-11.99.35-1.29.48-2.63.72-3.95.11-.62.17-1.26.36-1.86.31-.98.42-1.92-.1-2.87-.15-.27-.22-.62-.18-.92.21-1.64.4-3.29.73-4.91.09-.42.59-.84,1.02-1.08,1.26-.7,1.87-1.6,1.69-3.1-.09-.72.16-1.69.63-2.21,1.12-1.22,3.48-14.62,4.76-15.69,1.95-1.62,3.18-3.55,3.27-6.14.04-1.15.32-2.34.76-3.4l.47-1.34Z"/><g id="OzaLtr"><path class="cls-1" d="m910.86,260.28c-.53-.4-1.05-.8-1.65-1.25-.44.99.2,1.33.69,1.7.56.43,1.17.8.1,1.37-.16.09-.34.52-.28.59.16.19.46.38.69.36.37-.03.73-.23,1.08-.36-.08.44-.11.47-2.12,1.41.47.29.82.54,1.19.74.97.51,1.57,1.15,1.43,2.39-.12.99.35,2.14,0,2.98-.59,1.4-.11,1.4,1.06,1.81,1.32.46,1.66,2.23,1.27,3.8-.06.26.05.56.06.84.03.44.05.89.07,1.33,0,.14-.09.34-.03.41,1.15,1.25.4,2.84.66,4.25.21,1.15.13,2.32.82,3.38.22.35.23.94.13,1.37-.16.71-.12,1.15.67,1.41.24.08.53.56.5.81-.11.86-.45,1.7-.52,2.56-.06.66.16,1.34.25,2.01l.37-.02.12-1.87c1.27.62,1.46,1.47.75,2.48-.21.29-.23.98-.02,1.24.43.56.63.88-.09,1.37-.22.15-.29.88-.12,1.15.62.95.95,1.88.7,3.04-.17.75-.54,1.49.39,2.28.57.48.55,1.68.75,2.56.16.71.63,1.54-.85,1.83.09.1.19.2.28.31.61.16,1.23.31,2.16.55-.62.62-1.11,1.11-1.65,1.65.24.43.62.95.83,1.53.43,1.19.13,1.63-1.07,1.82-1.49.24-1.94.68-1.82,1.81-.78.44-1.54.9-2.34,1.29-.22.11-.54,0-.81,0-1.01.04-2.3-.75-2.74.95-.03.11-.3.16-.46.23-1.36.6-2.73,1.19-4.22,1.84-.18-.06-.6-.28-1.05-.34-.71-.11-1.45-.06-2.16-.17-.86-.13-1.42.18-2.1.73-1.08.88-2.34,1.64-3.85,1.49-1.43-.14-2.32.79-3.34,1.51-.61.42-1.25.81-1.92,1.11-1.03.47-2.09.89-3.17,1.25-.34.12-.8.07-1.16-.04-.91-.28-1.66-.13-2.41.5-.27.22-.79.14-1.2.18-.06,0-.13-.06-.19-.1-1.52-1.14-3.03-1.3-4.61-.07-.35.27-.86.44-1.31.46-.83.04-1.21.42-1.46,1.18-.09.28-.51.6-.81.64-.88.12-1.77.09-2.66.16-.24.02-.59.1-.67.26-.52,1-1.38.86-2.26.76-.61-.06-1.23-.1-1.84-.12-1.36-.04-2.5.42-3.2,1.63-.44.75-.98,1.15-1.89,1.19-.46.02-.91.45-1.37.68-.24.12-.52.35-.73.3-1.61-.37-2.51.7-3.56,1.58-.42.36-1.01.59-1.56.73-.97.24-1.96.44-2.96.51-1.34.09-2.69.05-3.72,1.13-.07.08-.34,0-.5-.04-.58-.12-1.15-.33-1.73-.37-1.57-.11-3.02,0-4.4,1.08-.73.58-1.97.49-2.98.74-.47.12-.92.31-1.36.5-.26.11-.51.41-.75.4-.98-.06-1.59.2-1.55,1.33,0,.11-.51.33-.79.33-1.05-.02-2.09-.14-3.14-.18-.89-.03-1.83-.42-2.58.53-.17.22-.82.05-1.25.1-1.38.16-2.78.23-4.12.55-.57.14-1.01.81-1.51,1.23-.21.18-.41.51-.64.54-1.44.2-2.88.43-4.33.46-.7.01-1.29-.17-1.8.55-.22.31-.77.47-1.19.53-.56.08-1.15,0-1.73,0-1.86-.02-3.51.48-4.9,1.82-.42.4-1.15.48-1.74.71-.22.09-.57.15-.62.31-.37,1.02-1.17.89-1.97.84-1.18-.08-2.4-.31-3.32.78-.08.09-.37.11-.49.04-1.51-.94-3.08-.14-4.61-.18-2,1.71-4.81.64-6.93,2.05-1.34.89-2.96.93-4.55,1.11-1.15.13-2.22.94-3.35,1.39-.61.24-1.27.37-1.92.53-1.51.39-3.02.8-4.54,1.14-1.04.23-2.11.44-3.17.51-1.74.12-3.23.79-4.8,1.5-1.55.7-3.3.98-4.98,1.36-.89.2-1.72.29-2.2,1.28-.18.36-.92.68-1.35.62-2.19-.27-4.31.04-6.42.52-.34.08-.65.28-.96.45-1.12.65-2.24,1.29-3.35,1.96-.9.54-1.48,1.59-2.7,1.62-.06,0-.13.16-.18.26-.72,1.4-.78,1.43-2.24.91-.31-.11-.61-.23-.9-.37-.81-.38-1.44-.27-2.12.39-1.34,1.31-3.55.94-4.54-.7-.3-.5-.61-.57-1.02-.17-.1.1-.16.25-.26.34-.8.68-1.48,1.4-2.78.72-1.35-.71-2.88-.56-4.29.12-.1.05-.2.14-.29.13-1.34-.02-2.67-.04-4.01-.1-.75-.03-1.52-.23-1.97.66-.07.14-.37.3-.51.26-2.07-.53-4.11-.5-6.15.42-.43-1.21-1.2-1.32-2.19-.92-.31.13-.73.15-1.05.06-.61-.18-1.11-.32-1.4.45-.04.1-.32.2-.47.17-1.33-.26-2.68-.44-3.96-.86-.66-.22-1.09-.29-1.46.32-.53.87-1.19,1.03-2.19.72-.91-.28-1.92-.27-2.89-.33-.29-.02-.72.09-.87.3-.94,1.22-2.24,1.33-3.6,1.27-1.01-.04-1.93-.07-2.87.59-.6.42-1.57.31-2.47.45-.29-.92-.91-.8-1.68-.47-.63.27-1.23.51-2.03.06-.68-.39-1.63-.39-2.46-.4-.63,0-1.28.47-1.88.39-1.23-.17-2.34-.29-3.1.96-.13.22-.48.43-.73.43-1.31.01-2.62-.04-3.93-.08-.17,0-.35-.14-.51-.13-1.56.11-3.11.24-4.67.38-.61.05-1.26,0-1.82.2-1.77.62-3.47.13-5.2-.13-.71-.11-1.46.12-2.2.15-1.2.05-2.41,0-3.61.11-.49.05-1.07.29-1.42.63-.76.76-2.14.98-2.91.22-.53-.52-1.04-.57-1.65-.25-.48.25-1.02.42-1.44.75-1.07.86-2.06.58-3.17.07-1.4-.65-2.82-1.38-4.31-1.65-.99-.18-2.13.32-3.18.62-.65.19-1.22.6-1.86.86-.27.11-.62.13-.9.06-.56-.14-1.11-.33-1.63-.56-.76-.33-1.41-.3-2.13.19-.7.48-1.47.97-2.3.07-.16-.18-.68-.09-1.02-.03-2.23.38-4.44.84-6.68,1.17-1.1.16-2.23.11-3.34.13-.74,0-1.44-.18-2.14.4-.43.35-1.02.23-1.11-.61-.04-.33-.42-.62-.63-.93-.17-.24-.46-.5-.45-.74.06-1.31.21-2.62.29-3.94.02-.39-.08-.81-.2-1.18-.6-1.79-1.27-3.56-1.8-5.37-.14-.47.12-1.05.2-1.67-.26-.17-.57-.38-1.06-.7.55-.67,1.03-1.33,1.58-1.91.81-.87,1.09-1.73.6-2.93-.53-1.32,0-2.62.59-3.83.26-.54.45-.93-.34-1.26-.28-.12-.49-.87-.41-1.28.18-.95.62-1.84.81-2.78.14-.69.05-1.43.03-2.2-.07-.95-.08-1.92-.22-2.86-.18-1.23-.05-2.45-.96-3.63-.56-.73-.2-2.14-.29-3.24-.05-.58-.01-1.26-.31-1.71-1.14-1.74-1.21-3.58-.73-5.49.26-1.03-.35-1.64-1.04-2.13-.57-.41-.61-.71-.14-1.19.4-.41.75-.88,1.16-1.28.76-.73,1-1.56.84-2.63-.25-1.67-.36-3.36-.53-5.05-.01-.14-.01-.36-.1-.4-1.63-.94-.45-2.68-1.13-3.89-.06-.11-.04-.31.03-.42,1.17-2.19.39-4.44.24-6.67-.05-.79.27-1.64-.71-2.21-.15-.09.31-1.15.41-1.78.08-.49.1-1,.03-1.49-.21-1.4-.67-2.8.48-4.04,1.09-1.17,1.32-2.62,1.44-4.15.05-.71.46-1.45.86-2.07.29-.44.49-.67.1-1.19-.26-.34-.36-.92-.31-1.37.07-.6.25-1.22.55-1.74.71-1.22.94-2.25-.07-3.54-.51-.66-.33-1.86-.42-2.83-.07-.75-.06-1.51-.09-2.26,0-.14.05-.33-.02-.43-1.1-1.59-.34-2.9.47-4.32.26-.46-.07-1.26-.13-1.95.77.25.99-.39,1.21-1.05.33-.98.69-1.95.9-2.54-.14-1.03-.33-1.74-.31-2.44.03-1.15.19-2.3.28-3.45.01-.18.06-.44-.04-.53-1-.87-.07-1.62.08-2.44.2-1.05.17-2.15.24-3.22.01-.21-.08-.53.02-.61,1.43-1.13.31-2.72.76-4.02-1.14-1.47.18-2.83.21-4.25.02-1.05.32-2.11-1.06-2.59-.19-.07-.33-.59-.32-.9.03-1.21.2-2.42.16-3.63-.01-.47-.36-.99-.69-1.38-.57-.69-1.13-1.33-.63-2.31.09-.17.1-.47,0-.61-1.17-1.71-.43-3.63-.57-5.44-.07-.99.78-1.58,1.75-1.79.95-.21,1.21-.74,1.18-1.71-.05-1.39.96-3.65,2.72-4.33.81-.31,1.37-.72,1.42-1.69.02-.25.48-.53.78-.7,1.21-.69,2.52-1.24,3.65-2.05,1.15-.83,1.07-1.35.03-2.12,2-1.45,3.97-2.95,6.03-4.32.85-.56,1.85-1.04,2.84-1.21,1.5-.26,2.18-1.37,3.02-2.36.09-.11.09-.31.19-.38,1.18-.84,2.32-1.75,3.58-2.44.74-.4,1.22-.82,1.39-1.63.28-1.37,1.27-2.27,2.64-2.43.39-.05.79-.14,1.18-.11.66.05.92-.25.99-.85.08-.65.5-.86,1.1-1.13,1.16-.52,2.53-.81,3.13-2.22.18-.43.74-.73,1.18-1,1-.61,2.04-1.17,3.25-1.85-1.32-.79-.83-1.33-.19-2.08.55-.64.91-1.51,1.12-2.35.4-1.56,1.35-2.6,2.97-2.87.76-.13,1.08-.44.88-1.25-.08-.32.06-.7.14-1.05.03-.13.19-.23.22-.37.62-2.55,2.72-3.07,4.85-3.6.65-.16,1.33-.44,1.84-.85.26-.21.16-.84.25-1.41,2.04-.43,3.26-1.9,4.01-3.91.37-.99,1.18-1.9,1.26-2.89.15-1.69,1.23-2.76,2.03-4.04.87-1.38,1.97-2.46,3.5-3.12.28-.12.54-.55.6-.88.32-1.89,1.69-2.92,3.14-3.85,1.36-.86,2.79-1.61,4.18-2.41.11-.07.27-.21.27-.32,0-1.39,1.06-1.62,2.06-2.08,1-.46,1.97-1.11,2.76-1.89,1.13-1.11,2.43-1.76,3.91-2.17.23-.06.45-.2.73-.34-.12-.2-.19-.37-.31-.49-1.09-1.11-.98-1.72.48-2.33.97-.41,1.95-.8,2.93-1.18.15-.06.36,0,.52.06.86.34,1.6.31,2.43-.24.39-.26,1.16,0,1.75.1,1.21.2,2.41.86,3.63.02.09-.06.34-.06.41.02,1.14,1.19,2.76.82,4.13,1.28.85.29,1.8.47,2.47,1,1.49,1.19,3.22,1.25,4.95,1.38.49.04,1.01-.25,1.52-.38.34-.09.7-.25,1.02-.2,1.35.18,2.69.51,4.04.61.82.06,1.67-.18,2.5-.29.22,1.41,2.16,2.95,3.64,2.9.14,0,.34-.03.4-.11.69-1.16,1.75-.52,2.64-.47.31.02.6.58.89.9.14.15.26.3.39.45.16-.16.35-.31.49-.48.67-.82,1.31-1.66,1.98-2.47,1.4-1.68,3.08-2.39,5.36-2.15,1.38.15,2.69-.7,3.57-1.93.79-1.09,2.95-1.56,4.27-1.34.84.14,1.78-.32,2.67-.5.47-.09.96-.27,1.41-.21,2.3.34,4.49.31,6.34-1.4.27-.25.77-.34,1.16-.36,1.55-.06,1.72-.2,1.84-1.76,0-.07.01-.17.05-.2,1.18-.69,1.76-2.23,3.41-2.28.9-.03,1.9.04,2.4-1.06.08-.18.73-.23,1.07-.16,1.74.37,3.4.48,5.19-.11,1.53-.51,3.23-.51,4.85-.73.18-.02.42.02.53-.08,1.65-1.48,3.85-1.52,5.81-2.16,1.55-.51,2.88-1.22,3.88-2.58.28-.38,1.04-.51,1.59-.57.62-.07,1.07-.14,1.61-.61.52-.46,1.48-.39,2.2-.67.6-.24,1.2-.57,1.68-.99.56-.49.99-1.13,1.48-1.7,1.08-1.27,2.64-.94,4.02-1.14,1.95-.28,3.36-1.11,4.32-2.94.8-1.51,2.52-2.83,4.81-2.34.71.15,1.21.14,1.28-.69.41-.06.88.02,1.08-.17,1.05-1.02,2.37-1.38,3.73-1.78.65-.19,1.31-.67,1.74-1.21.68-.87,1.48-.93,2.48-.91,1.93.05,3.87-.06,5.8-.14.25-.01.51-.25.73-.42,1.43-1.12,2.85-2.26,4.28-3.39.36-.29.76-.55,1.07-.9.68-.78,1.56-.93,2.47-.7.88.22,1.47-.11,2.03-.67.25-.26.57-.48.74-.79.78-1.49,2.33-1.88,3.67-2.53.44-.21,1.19.23,1.64.02.38-.17.42-.99.8-1.28.59-.45,1.33-.72,2.02-1.03.78-.35,1.63-.57,1.92-1.57.05-.16.7-.33.95-.22.64.3,1.22.75,1.82,1.15.03.02.05.06.08.07,1.13.48,2.49.81,1.61,2.56,1.05.6.89,1.78,1.28,2.69.28.65.66.36,1.02.08.74-.55,1.03-.17.93.55-.21,1.35-.4,2.67.31,3.95.28.51.26,1.17,1.02,1.38.22.06.34.59.44.92.21.73.37,1.46.55,2.2.37,1.51,1.57,2.35,2.61,3.33.44.42.71,1.03,1.05,1.56.17.27.35.54.43.84.12.4.29.87.19,1.23-.36,1.31-.1,2.24.9,3.18.49.46.91,1.01,1.31,1.55.48.66.96,1.33,1.34,2.05.36.69.67,1.43.87,2.18.34,1.28.91,2.54.39,3.92-.04.11,0,.33.09.41,1.06.97.57,2.28.8,3.43.08.4.61.7.73,1.11.43,1.44,2.49,2.02,2.02,3.52.75.71,1.27,1.23,1.82,1.71.37.33.75.69,1.19.91.74.36,1.51.71,2.31.9,1.22.29,1.61,1.06,1.62,2.2,0,.75.09,1.51-1.08,1.39-.11-.01-.36.52-.38.81-.01.2.24.43.41.62,1.26,1.42,2.08,3.04,2.53,4.91.38,1.56,1.01,3.05,1.5,4.58.12.36.21.82.1,1.16-.43,1.33.17,2.32.74,3.46.65,1.29,1.7,2.53,1.35,4.16-.22,1.04.21,1.43,1.12,1.2-.03.53-.13,1.05-.09,1.55.08.82.22,1.63.41,2.43.06.26.35.48.52.72.46.61,1.17,1.16,1.31,1.84.27,1.32.19,2.71.34,4.07.05.43.35.83.55,1.24.24.49.75.99.71,1.46-.09,1.12-.45,2.21-.64,3.32-.06.35-.02.97.18,1.08.97.52,1.03,1.19.57,2.07-.07.14-.03.33-.05.63.42-.15.74-.26,1.13-.4,1.05.93.63,2.26.88,3.4.25,1.12.51,2.24.75,3.36.3,1.38.56,2.78.92,4.15.12.46.38.95.72,1.26.5.45.7.74.31,1.43-1.18,2.09-.97,3.52.21,4.77.3.32.51,1.05.36,1.42-.87,2.03.26,3.65.96,5.36.17.42.37.84.49,1.28.19.71.38,1.43.48,2.15.1.8.1,1.61.14,2.42.04.86.43,1.34,1.28,1.64,1.6.57,2.3,2.45,1.59,3.94-.21.45-.36.94-.46,1.43-.14.67.05,1.16.79,1.43,1.05.38,1.85,1.01,2.2,2.19.18.62.67,1.19,1.13,1.68.48.51.7.87.04,1.41-.17.14-.2.62-.12.89.61,1.98,1.27,3.95,1.89,5.93.08.26.1.6.01.85-.54,1.48.3,2.45,1.17,3.44.18.2.46.52.4.69-.6,1.79.34,3.3.79,4.91.21.75.5,1.57.37,2.29-.34,2,.39,3.54,1.64,4.98.33.39.53.89.79,1.34-.07.04-.15.08-.22.12Z"/></g><path class="cls-3" d="m242.48,431.3c16.45-.32,30.95,5.1,37.68,10.23l.95,48.66-25.13.49-6.24-26.62c-2.53-.64-4.82-.82-6.41-.79-10.74.21-14.91,8.98-14.08,51.01.88,45,4.2,51.11,17.91,50.84,2.06-.04,4.34-.31,6.38-1.04l4.47-28.66,25.59-.5.96,48.66c-11.25,8.9-25.57,12.84-41.11,13.15-33.81.66-53.27-12.67-54.59-79.6-1.11-56.43,9.99-84.98,53.62-85.84Z"/><path class="cls-3" d="m296.01,503.84l-5.2-8.81-.37-18.73,23.56-10.75,11.06,4.81.29,14.85,1.14-.02c2.71-13.08,12.43-18.53,20.89-18.69,2.97-.06,6.64.78,9.18,1.88l-5.3,44.44c-5.27-.81-9.86-1.86-18.56-2.61l1.02,52.09,8.45,11.49.36,18.28-49.35.97-.36-18.51,4.37-10.14-1.19-60.54Z"/><path class="cls-3" d="m358.21,493.71l-.37-18.73,25.16-10.78,16.78,4.7,1.65,83.84c.13,6.4,3.39,9.53,9.55,9.41,2.51-.05,4.11-.31,7.07-.82l-1.15-58.71-5.22-9.95-.37-18.73,25.16-10.78,16.78,4.7,1.67,84.98c.16,8,1.57,10.02,6.14,9.94l.5,25.59c-5.44,2.39-11.12,3.87-18.43,4.02-10.51.21-20.38-1.89-23.86-16.44-8.4,14.56-20,17.3-29.59,17.49-15.08.3-24.6-7.52-25.08-31.96l-1.13-57.8-5.22-9.95Z"/><path class="cls-3" d="m504.11,591.17c-14.62.29-26.08-1.32-35.96-3.86l-.78-39.98,22.62-.44,4.21,16.6c2.29.18,4.35.37,6.18.34,6.85-.13,10.91-3.18,10.79-8.9-.16-8-10.28-11.23-21.62-18.77-11.35-7.55-22.49-16.47-22.91-37.94-.38-19.42,12.58-34.53,38.85-35.04,12.34-.24,24.72,2.03,34.86,6.4l.79,40.21-22.39.44-4.72-19.11c-2.07-.42-4.13-.6-6.18-.56-5.48.11-8.39,3.36-8.3,7.93.13,6.85,7.53,11.28,18.17,17.7,12.96,7.97,26.42,18.45,26.8,38.1.53,27.19-14.37,36.39-40.41,36.9Z"/><path class="cls-3" d="m552.41,455.61l-5.19-8.36-.37-18.73,25.16-10.78,16.78,4.7,1.17,59.63c9.74-15.96,21.06-21.44,31.8-21.65,15.53-.31,24.14,7.53,24.5,25.8l1.4,71.28,4.77,9.96.36,18.5-46.15.91-.36-18.5,4.37-10.14-1.14-58.25c-.14-7.31-3.39-9.53-8.64-9.43-3.88.08-7.06,1.28-10.68,3.18l1.27,64.88,4.77,9.96.36,18.5-46.15.91-.36-18.5,4.37-10.14-2.04-103.72Z"/><path class="cls-3" d="m657.49,487.83l-.37-18.73,25.16-10.78,16.78,4.7,1.65,83.84c.13,6.4,3.39,9.53,9.55,9.41,2.51-.05,4.11-.31,7.07-.82l-1.15-58.71-5.22-9.95-.37-18.73,25.16-10.78,16.78,4.7,1.67,84.98c.16,8,1.57,10.02,6.14,9.94l.5,25.59c-5.44,2.39-11.12,3.87-18.43,4.02-10.51.21-20.38-1.89-23.86-16.44-8.4,14.56-20,17.3-29.6,17.49-15.08.3-24.6-7.52-25.08-31.96l-1.13-57.8-5.22-9.95Z"/><path class="cls-3" d="m835.14,584.67c-8.91.18-18.57-3.06-19.74-15.84-8.41,13.88-17.73,16.57-25.95,16.74-15.53.3-24.65-9.8-24.98-26.71-.39-19.88,12.05-38.17,48.08-53.74l-.23-11.88c-.14-7.08-3.16-9.54-9.78-9.41-2.28.04-4.79.32-7.29,1.06l-4.38,21.57-22.85.45-.79-40.44c11.78-5.26,25.88-8.96,40.73-9.26,29.01-.57,41.29,7.65,41.83,35.52l1.03,52.32c.16,8,1.34,10.03,6.14,9.94l.5,25.59c-5.66,2.62-12.95,3.91-22.32,4.09Zm-27.07-28.26c1.6-.03,3.43-.07,6.37-1.27l-.57-29.24c-11.49,8.22-14.33,14.91-14.2,21.53.12,6.17,3.15,9.08,8.4,8.98Z"/><path class="cls-3" d="m865.41,449.93l-5.2-8.81-.37-18.73,25.16-10.78,16.78,4.7,2.67,136.16,4.77,9.96.36,18.5-46.15.91-.36-18.5,4.37-10.14-2.03-103.26Z"/><path class="cls-3" d="m385.86,684.25l-.86-43.86-5.36-2.95-.05-2.62,17.43-.34.05,2.62-5.24,3.15.87,44.37,2.56,1.04,12.78-.25,5.65-11.95,2.91.31-.57,15.56-35.37.69-.05-2.61,5.24-3.16Z"/><path class="cls-3" d="m442,683.66c-5.2,5.33-8.96,6.06-12.38,6.13-5.81.11-9.29-3.38-9.4-8.68-.14-7.12,4.54-12.88,21.3-17.57l-.03-1.67c-.15-7.41-2.94-9.31-7.52-9.22-1.31.03-2.97.2-4.93.68l-3.66,9.73-4.08-.5.45-10.54c2.73-1.51,8-3.35,13.3-3.46,7.77-.15,12.76,2.51,12.94,11.81l.43,21.86c.04,2.03.71,2.89,4.4,2.24l.05,2.76c-1.79,1.34-4.47,2.05-6.06,2.08-3.27.06-4.53-1.51-4.83-5.64Zm-9.36.84c2.4-.05,5.93-1.13,9.21-4.39l-.26-13.29c-12.27,4.24-14.72,8.79-14.65,12.35.06,3.05,2.28,5.4,5.7,5.34Z"/><path class="cls-3" d="m462.11,653.26l-6.61.13-.06-3.05,6.37-1.14,2.5-9.49,4.07-.08.19,9.44,10.17-.2.08,4.07-10.17.2.52,26.65c.08,3.92,1.84,4.83,4.74,4.78,1.74-.04,3.78-.15,5.51-.4l.42,2.9c-2.88,1.44-5.62,2.29-8.31,2.34-4.94.1-8.75-1.65-8.9-9.2l-.53-26.94Z"/><path class="cls-3" d="m484.49,653.62l-.04-2.25,8.86-3.66,2.65,1.76.65,33.26,5.06,2.45.05,2.47-16.56.32-.05-2.47,4.96-2.64-.54-27.74-5.04-1.5Zm7.53-12.5c-2.9.06-4.39-1.44-4.44-4.27l-.02-.87c-.06-2.83,1.37-4.46,4.27-4.51,2.91-.06,4.39,1.51,4.44,4.34l.02.87c.06,2.83-1.37,4.39-4.27,4.44Z"/><path class="cls-3" d="m505.34,653.21l-.04-2.25,8.86-3.66,2.65,1.76.07,3.49c3.64-3.05,8.39-5.32,12.53-5.4,5.37-.11,10.43,2.19,10.61,11.05l.46,23.67,4.34,2.46.05,2.47-14.74.29-.05-2.47,3.87-2.62-.44-22.58c-.11-5.45-2.61-7.29-7.11-7.2-3.49.07-6.8,1.66-9.45,3.67l.52,26.43,3.97,2.47.05,2.47-14.74.29-.05-2.47,4.23-2.63-.54-27.74-5.04-1.5Z"/><path class="cls-3" d="m552.75,663.17l20.55-.4.1,4.94-20.55.4-.1-4.94Z"/><path class="cls-3" d="m596.75,680.11l-.89-45.53-9.29.18-4.41,12.07-3.79-.5.57-15.41,40.45-.79,1.25,15.38-3.76.65-4.88-11.89-9.3.18.89,45.53,5.51,2.94.05,2.61-17.72.35-.05-2.61,5.39-3.16Z"/><path class="cls-3" d="m622.81,631l-.04-2.25,8.82-2.28,2.65,1.76.43,22.01c3.64-3.05,8.39-5.32,12.53-5.4,5.37-.11,10.43,2.19,10.61,11.05l.47,23.67,4.33,2.46.05,2.47-14.74.29-.05-2.47,3.87-2.62-.44-22.51c-.11-5.52-2.61-7.36-7.12-7.27-3.49.07-6.8,1.66-9.44,3.67l.52,26.43,3.97,2.47.05,2.47-14.74.29-.05-2.47,4.23-2.63-.93-47.42-4.97-1.72Z"/><path class="cls-3" d="m688.55,678.82c-5.2,5.33-8.96,6.06-12.38,6.13-5.81.11-9.29-3.38-9.4-8.68-.14-7.12,4.54-12.88,21.3-17.57l-.03-1.67c-.14-7.41-2.94-9.31-7.52-9.22-1.31.03-2.97.2-4.93.68l-3.66,9.73-4.08-.5.45-10.54c2.73-1.51,8-3.35,13.3-3.46,7.77-.15,12.76,2.51,12.95,11.81l.43,21.86c.04,2.03.71,2.89,4.4,2.24l.05,2.76c-1.79,1.34-4.47,2.05-6.06,2.08-3.27.06-4.53-1.51-4.83-5.64Zm-9.36.84c2.4-.05,5.94-1.13,9.21-4.39l-.26-13.29c-12.27,4.24-14.72,8.79-14.65,12.35.06,3.05,2.29,5.4,5.7,5.34Z"/><path class="cls-3" d="m703.22,649.32l-.04-2.25,8.86-3.66,2.65,1.76.65,33.26,5.06,2.45.05,2.47-16.56.32-.05-2.47,4.96-2.64-.54-27.74-5.04-1.5Zm7.53-12.5c-2.91.06-4.39-1.44-4.44-4.27l-.02-.87c-.06-2.83,1.37-4.46,4.27-4.52,2.9-.06,4.39,1.51,4.44,4.34l.02.87c.06,2.83-1.37,4.39-4.27,4.44Z"/><path class="cls-2" d="m653.96,288.04c-2.04.57-3.87.66-5.7.76-12.59.66-19.36-5.88-20.18-21.67l-.81-15.57c-.88-16.94,4.8-26.88,23.57-27.85,16.94-.88,25.21,3.74,27.25,20.85,4.46-11.25,14.57-24.4,31.97-25.3,5.26-.27,9.19.21,12.91,1.16l1.54,29.53-24.49,1.27c17.98,5.95,25.44,16.81,26.38,34.89l1.56,29.99c1.01,19.46-6.35,36.83-27.18,37.91l-65.01,3.38-.95-18.31,5.79-12.24-1.3-24.95c5.28-4.41,10.09-9.02,14.66-13.85Zm.33-15.63l-.77-14.88c-.81-15.57-.87-16.71-5.22-16.48-4.12.21-4.29,1.37-3.66,13.5l.38,7.33c.54,10.3,1.26,10.95,4.92,10.76l4.35-.23Zm24.9-11.17c0,13.31-2.06,22.14-6.13,32.22l1.91,36.63,7.55-.39c5.26-.27,9.74-2.57,9.34-10.13l-2.33-44.87c-.5-9.61-2.76-13.4-10.34-13.46Z"/><path class="cls-2" d="m726.06,206.55c-26.7,4.34-36.65-4.03-39.48-21.45-1.88-11.54,2.5-21.77,16.98-24.13,13.58-2.21,18.56,4.18,20.33,15.04.4,2.49.55,4.79.39,6.67l.23-.04c11.31-1.84,27.31-6.3,41.01-12.01l3.46,21.27c-11.79,7.49-27.97,12.21-42.91,14.64Zm-19.99-34.37c-2.72.44-3.33,2.4-2.19,9.41,1.07,6.56,2.11,8.71,8.45,7.68l.45-.07-1.51-9.28c-1.1-6.79-1.81-8.3-5.21-7.75Z"/><path class="cls-2" d="m794.36,337.51c-18.23,3.54-26.43-.23-30.19-19.58l-1.92-9.9c-3.02-15.53-1.26-24.51,9.86-28.54l-5.73-29.48c-2.41-12.38-9.04-15.29-19.17-13.32-5.85,1.14-9.36,2.29-14.68,3.79l-3.94-20.25c8.39-6.07,20.25-12.34,33.75-14.97,20.03-3.89,33.88,3.69,38.99,30.02l14.17,72.9c3.76,19.35-6.08,26.4-21.15,29.33Zm-9.28-46.53l-4.27.83c-3.83.74-4.1,1.73-1.65,14.33l.79,4.05c2.36,12.15,3.07,13.41,7.12,12.63,3.6-.7,3.79-2.14.81-17.44l-2.8-14.4Z"/><path class="cls-2" d="m862.4,317.2c-18.38,2.64-26.39-1.53-29.19-21.05l-1.43-9.98c-2.25-15.66-.05-24.54,11.26-28.02l-.78-5.44c-1.37-9.53-7.73-13.48-30.13-16.28-2.09-19.38.12-47.49,26.67-51.31,14.29-2.05,26.19-1.45,35.85-.29l3.55,24.73c-9.47.2-19.16.44-30.05,2-4.08.59-5.54,1.72-5.28,5.16,22.86,2.74,33.17,10.06,35.84,28.66l6.26,43.56c2.8,19.51-7.37,26.07-22.57,28.25Zm-6.98-46.93l-4.31.62c-3.86.55-4.18,1.53-2.36,14.23l.59,4.08c1.76,12.25,2.41,13.55,6.49,12.96,3.63-.52,3.89-1.95,1.67-17.38l-2.09-14.52Z"/><path class="cls-2" d="m830.26,134.51c6.13-.87,14.82-1.64,22.24-1.54l2.16,15.21c-7,1.23-12.64,2.26-18.29,3.29,3.99,1.98,6.38,5.81,7.09,10.8,1.61,11.35-4.52,17.08-17.23,18.89-14.3,2.03-21.94-2.9-23.88-16.52-2.26-15.89,4.98-26.87,27.9-30.13Zm-8.34,19.48l-3.4.48,1.19,8.4c1.1,7.72,2.42,8.92,5.38,8.5,3.18-.45,3.89-1.94,2.76-9.89-.87-6.13-2.75-7.94-5.93-7.49Z"/><path class="cls-3" d="m281.17,250.29l-24.97,35.95-24.63-6.94,22.27-79.03c7.75-27.51,29.02-36.14,62.07-26.82,32.84,9.26,43.34,27.06,35.64,54.36l-19.15,67.94-8.66,9.52-24.84-7,12.9-45.78c-4.65,11.76-11.35,12.75-19.56,10.44-6.98-1.97-10.95-5.97-11.06-12.64Zm27.17-52.39c-13.96-3.93-21.12.25-25,14.01l-2.02,7.18c-2.31,8.21-8.86,21.21-13.19,29.52,2.33-3.55,4.78-7.52,6.03-9.6l8.48-13.56c7.66-12.24,14.65-15.81,23.89-13.21,7.59,2.14,13.35,6.86,11.81,17.06l1.97-6.98c4.11-14.57,1.59-20.6-11.95-24.42Zm-12.4,53.45c2.46.69,4.1-.4,5.43-5.12l4.8-17.04c.87-3.08.25-4.8-2.42-5.56-1.44-.4-2.84-.14-4.33,1.22l-5.44,19.3c-1.27,4.52-1.12,6.33,1.96,7.2Z"/><path class="cls-3" d="m370.89,320.33c-16.63-4.68-21.86-11.26-16.89-28.91l2.55-9.03c3.99-14.16,9.21-20.89,20.14-19.58l1.39-4.93c2.43-8.62-1.49-14.38-19.48-25.21,5.53-17.27,18.02-40.34,42.03-33.58,12.93,3.64,22.82,8.65,30.6,13.28l-6.31,22.37c-8.13-3.4-16.46-6.85-26.31-9.63-3.7-1.04-5.36-.62-6.44,2.4,18.41,10.95,24.42,21.06,19.68,37.89l-11.11,39.41c-4.97,17.65-16.1,19.39-29.85,15.52Zm11.77-42.55l-3.9-1.1c-3.49-.98-4.13-.28-7.37,11.22l-1.04,3.69c-3.12,11.09-3.06,12.43.63,13.47,3.28.93,4.04-.19,7.98-14.15l3.7-13.14Z"/><path class="cls-3" d="m404.99,193.01c-24.22-6.83-29.33-17.79-24.88-33.6,2.95-10.47,10.66-17.38,23.8-13.68,12.32,3.47,14.01,10.82,11.24,20.67-.64,2.26-1.42,4.25-2.29,5.78l.2.06c10.26,2.89,25.51,5.42,39.3,5.98l-5.44,19.3c-12.88,1.69-28.39-.69-41.94-4.5Zm-3.35-36.84c-2.46-.69-3.75.72-5.54,7.08-1.68,5.95-1.64,8.18,4.11,9.8l.41.12,2.37-8.42c1.74-6.16,1.73-7.71-1.35-8.58Z"/><path class="cls-3" d="m422.91,303.97l9.14-32.43c21.35,6.02,30.83,2.26,37.65-21.96l3.07-10.88-1.23-.35-6.99,3.57-2.6,9.24c-4.16,14.78-11.38,19.17-22.47,16.05-12.11-3.41-15.04-11.11-11.34-24.24l3.7-13.14c4.28-15.19,11.59-19.11,23.5-15.76,8.21,2.31,10.54,7.4,9.95,13.44l12.84-7.02.41.12c7.8,2.2,11.6,6.81,11.68,14.37,6.78-5.18,15.35-8.08,26.23-5.02,3.49.98,6.39,2.47,9.18,4.36l-8.16,28.94c-8.24-2.99-16.43-6.18-24.67-9.17,17.44,12.01,20.79,22.92,16.23,39.14l-7.58,26.89c-4.92,17.45-15.15,30.96-34.04,25.64l-57.88-16.31,4.63-16.42,8.75-9.05Zm31.43-75.34l-3.49-.98c-3.08-.87-3.6-.57-6.44,9.49l-1.91,6.77c-3.01,10.67-2.71,11.2.37,12.07,3.28.93,3.61.57,6.61-10.1l4.86-17.24Zm27.84,36.43c-4.63,9.33-11.2,14.57-20.35,17.97l-9.6,34.07,5.95,1.68c5.13,1.45,8.94.52,10.85-6.25l12.49-44.34c.35-1.23.64-2.26.66-3.14Z"/><path class="cls-3" d="m249.23,644.81l33.42-13.02.75-4.94,1.99-.78,6.57,16.87c3.04,7.8.86,13.49-5.23,15.86-5.26,2.05-9.92.04-12.28-3.37.94,5.37-1.17,10.91-7.31,13.3-9.24,3.6-14.52-2.43-16.87-8.46l-6.94-17.82,1.99-.78,3.9,3.13Zm3.89,13.27c1.92,4.92,6.11,7.5,12.08,5.17,6.14-2.39,6.8-6.92,4.75-12.17l-2.82-7.25-16.32,6.36-.13,1.64,2.44,6.25Zm32.66-21.52l-15.44,6.01,3,7.69c1.51,3.87,5.87,5.42,10.57,3.59,4.81-1.87,6.54-5.29,4.62-10.21l-2.76-7.08Z"/><path class="cls-3" d="m295.22,678.45c3.6,6.69,1.52,15.1-7.95,20.19-8.89,4.78-17.97,3.33-22.36-4.83-4.17-7.74-1.06-15.88,7.51-20.5,8.89-4.78,18.15-3.5,22.79,5.13Zm-26.99,14.26c2.53,4.71,8.07,5.1,16.17.73,6.64-3.57,10.42-8.58,7.58-13.86-2.79-5.18-9-5.2-15.75-1.57-7.22,3.88-10.79,9.52-8.01,14.69Z"/><path class="cls-3" d="m313.05,707.26c4.35,6.23,3.26,14.82-5.55,20.97-8.27,5.78-17.46,5.39-22.76-2.2-5.03-7.2-2.9-15.65,5.08-21.23,8.27-5.78,17.62-5.58,23.23,2.45Zm-25.15,17.29c3.06,4.38,8.61,4.13,16.15-1.15,6.18-4.32,9.35-9.73,5.92-14.64-3.37-4.82-9.55-4.12-15.82.27-6.72,4.69-9.61,10.7-6.25,15.52Z"/><path class="cls-3" d="m321.2,729.47l-1.87-3.87,1.34-1.27,7.09,3.34.39,2.57-2.24,2.13c4.06.48,8.01,1.97,10.34,4.43,2.33,2.45,3.68,5.51,1.82,9.08,4.73.59,8.77,2.08,11.14,4.58,3.02,3.19,4.42,7.51-.83,12.49l-14.04,13.32.9,3.97-1.46,1.39-8.3-8.74,1.46-1.39,3.71.9,13.35-12.67c3.27-3.11,3-5.63.47-8.3-2.04-2.15-5.12-3.16-7.59-3.69-.43.49-.91,1.03-1.47,1.56l-14.04,13.32.7,3.76-1.46,1.39-8.09-8.53,1.46-1.39,3.71.9,13.35-12.67c3.27-3.11,3-5.63.47-8.3-1.96-2.07-4.88-3.07-7.46-3.64l-15.64,14.84.7,3.76-1.46,1.39-8.3-8.74,1.46-1.39,3.92,1.11,16.46-15.61Z"/><path class="cls-3" d="m343.77,784.91l.45-.55c1.55-1.87,3.39-2.13,5.31-.54,1.92,1.59,2.01,3.44.45,5.31l-.8.96c-1.9,2.29-5.94,4.56-11.71,5.64l-.32-2.12c3.75-.9,5.99-1.36,7.83-2.84-.27-.14-.58-.33-.81-.52-1.92-1.59-2.04-3.39-.41-5.36Z"/><path class="cls-3" d="m367.93,807.78l1.13-1.82,5,.17,18.94-30.46-2.37-4.41,1.13-1.82,13.52,8.4c8.83,5.49,11.42,11.44,6.75,18.95-4.39,7.06-12.91,9.18-22.34,3.31l-3.83-2.38-7.05,11.35,2.76,4.23-1.32,2.12-12.31-7.65Zm30.43-30.17l-10.75,17.3,3.88,2.41c6.1,3.79,11.7,2.66,15.56-3.54,3.51-5.65,1-10.15-4.25-13.41l-4.44-2.76Z"/><path class="cls-3" d="m412.61,830.94l-.9,1.81-11.17-5.54.9-1.81,4.06-.31,10.07-20.33-3.09-2.99.82-1.65,7.81.69,1.26,2.28-1.98,3.99c2.3-2.11,5.22-3.98,8.25-2.47.96.47,1.94,1.3,2.34,1.82l-2.35,4.21-2.29-1.13c-2.31-1.21-4.95-1.66-6.64-1.04l-9.41,19,2.32,3.47Z"/><path class="cls-3" d="m448.47,812.58c7.1,2.71,11.02,10.44,7.18,20.48-3.6,9.43-11.42,14.26-20.07,10.96-8.21-3.13-11.19-11.33-7.71-20.42,3.6-9.43,11.45-14.51,20.6-11.01Zm-11.11,28.43c4.99,1.91,9.44-1.42,12.72-10.02,2.69-7.05,2.28-13.3-3.32-15.44-5.49-2.1-10.21,1.95-12.95,9.1-2.92,7.66-1.95,14.26,3.55,16.35Z"/><path class="cls-3" d="m467.68,826.39l-3.73-2.15.39-1.8,7.74-1.24,1.77,1.9-.65,3.02c3.63-1.89,7.73-2.88,11.04-2.16,3.31.72,6.14,2.49,6.61,6.48,4.24-2.18,8.41-3.22,11.78-2.49,4.29.93,7.88,3.72,6.35,10.79l-4.1,18.92,2.98,2.77-.43,1.97-11.78-2.56.43-1.97,3.57-1.35,3.9-17.99c.96-4.41-.69-6.35-4.29-7.13-2.9-.63-6.01.28-8.35,1.23-.08.65-.17,1.36-.34,2.11l-4.1,18.92,2.69,2.71-.43,1.97-11.49-2.49.43-1.97,3.57-1.35,3.9-17.99c.96-4.41-.69-6.35-4.29-7.13-2.79-.61-5.76.21-8.22,1.19l-4.57,21.06,2.69,2.71-.43,1.97-11.78-2.56.43-1.97,3.86-1.29,4.81-22.17Z"/><path class="cls-3" d="m516.66,834.72l.12-1.84,7.47-2.38,2.04,1.62-.14,2.19c2.94-2.25,6.17-3.53,9.49-3.32,7.53.48,11.98,6.17,11.34,16.31-.63,9.9-6.66,17.78-16.5,17.16-2.31-.15-4.36-.63-6.17-1.22l-.69,10.84,4.61,2.38-.13,2.01-14.16-.9.13-2.01,4.22-1.81,2.37-37.45-4.01-1.56Zm9.29,2.73l-1.37,21.69c1.6.99,3.4,1.7,6.25,1.88,5.81.37,9.85-4.31,10.41-13.2.59-9.3-2.98-13.1-8.07-13.42-2.49-.16-4.87.82-7.21,3.05Z"/><path class="cls-3" d="m551.69,820.5l-.1-1.84,7.14-2.11,2.21,1.37.97,17.96c2.89-2.59,6.71-4.58,10.09-4.77,4.39-.24,8.58,1.5,8.98,8.73l1.05,19.33,3.61,1.89.11,2.02-12.04.65-.11-2.02,3.09-2.25-.99-18.38c-.24-4.51-2.34-5.94-6.02-5.74-2.85.15-5.51,1.55-7.61,3.27l1.17,21.58,3.31,1.9.11,2.02-12.04.65-.11-2.02,3.39-2.27-2.09-38.72-4.11-1.26Z"/><path class="cls-3" d="m608.95,855.17c-3.58,4.93-6.54,5.96-9.29,6.41-4.69.78-7.92-1.64-8.63-5.92-.95-5.74,2.16-10.95,15.17-16.72l-.22-1.35c-.99-5.98-3.48-7.19-7.17-6.58-1.05.18-2.38.51-3.91,1.13l-1.81,8.31-3.36.07-.88-8.58c2.03-1.54,6.08-3.65,10.35-4.36,6.27-1.04,10.62.53,11.86,8.03l2.92,17.64c.27,1.64.92,2.26,3.83,1.29l.37,2.23c-1.29,1.3-3.37,2.18-4.66,2.4-2.64.44-3.85-.69-4.57-4Zm-7.47,1.78c1.93-.32,4.67-1.62,6.94-4.64l-1.77-10.72c-9.43,4.87-10.88,8.84-10.4,11.72.41,2.46,2.49,4.1,5.24,3.65Z"/><path class="cls-3" d="m617.2,829.55l-.5-1.77,6.26-4.72,2.46.85.77,2.74c2.25-3.16,5.54-5.94,8.8-6.86,4.23-1.19,8.7-.42,10.67,6.56l5.25,18.63,3.94,1.05.55,1.94-11.6,3.27-.55-1.94,2.52-2.87-5.01-17.78c-1.21-4.29-3.57-5.23-7.11-4.23-2.74.77-5.03,2.71-6.71,4.85l5.86,20.8,3.65,1.13.55,1.94-11.6,3.27-.55-1.94,2.81-2.95-6.15-21.83-4.3-.15Z"/><path class="cls-3" d="m669.2,792.76c4.52-2.1,9.18-3.49,12.07-4.04l5.31,10.43-3.08,1.96-7.25-7.56c-1.85.53-3.48,1.1-5.21,1.9-4.47,2.08-5.76,5.63-3.96,9.5,2.3,4.95,7.19,5.17,12.54,5.56,6.28.42,13.16.69,16.46,7.8,4.31,9.26-2.62,14.77-7.57,17.08-4.95,2.31-9.52,3.32-12.24,3.67l-5.09-9.95,3.08-1.96,7.77,7.26c1.69-.46,3.14-1,4.64-1.7,4.25-1.98,7.12-5.67,4.69-10.89-2.25-4.85-8.15-5.84-13.69-6.2-6.1-.44-12.45-1.28-15.53-7.9-2.75-5.92.06-11.69,7.06-14.94Z"/><path class="cls-3" d="m708.67,813.89c2.37,3.91,4.9,3.63,7.44,2.09,2.13-1.29,3.96-3.78,5.03-6.72l-10.3-17.02-4.48-.07-.95-1.58,5.48-6.09,1.58.09,13.86,22.92c.86,1.42,1.69,1.76,4.03-.22l1.17,1.93c-.72,1.68-2.32,3.28-3.44,3.95-2.13,1.29-3.58.85-5.31-1.44-1.74,4.59-3.97,7.33-7.02,9.17-3.05,1.84-7.67,2.35-10.96-3.09l-9.71-16.06-4.48-.07-.95-1.58,5.48-6.09,1.58.09,11.96,19.77Z"/><path class="cls-3" d="m747.87,796.03l1.23,1.6-9.81,7.59-1.24-1.6,1.5-3.79-23.73-30.67-4.52,1.62-1.13-1.46,5.1-6.12,2.6-.13,16.24,20.99,2.25-1.74,1.67-11.43-3.52.02-1.24-1.6,10-7.74,1.23,1.6-2.97,6.05-1.88,11.44,17.94,5.04,4.04-.8,1.45,1.88-9.06,7.01-1.13-1.46.59-2.63-16.01-4.88-1.74,1.34,8.03,10.38,4.09-.54Z"/><path class="cls-3" d="m775.39,776.48c-2.37,2.25-5.52,4.18-8.11,5.25l-6.89-6.64,2.08-2.63,7.79,3.98c1.41-.85,2.35-1.66,3.21-2.48,2.71-2.58,4.17-5.52,1.39-8.45-2.9-3.06-6.22-1.38-10.16,0-4.91,1.64-9.82,3.03-13.58-.93-3.89-4.09-3-9.02,1.69-13.48,2.8-2.66,6.59-4.87,7.87-5.43l6.64,6.38-2.08,2.63-7.09-3.75c-1.07.6-2.05,1.37-3.21,2.48-2.54,2.41-3.4,4.87-1.27,7.11,2.74,2.88,6.31,1.29,10.34-.16,4.75-1.73,9.48-3.03,13.41,1.1,4.99,5.25,2.89,10.36-2.02,15.03Z"/><path class="cls-3" d="m786.88,750.61c3.47,2.97,5.79,1.91,7.72-.34,1.62-1.89,2.58-4.83,2.67-7.96l-15.11-12.94-4.28,1.34-1.4-1.2,3.3-7.5,1.53-.41,20.34,17.43c1.26,1.08,2.15,1.14,3.76-1.47l1.71,1.47c-.15,1.82-1.18,3.84-2.03,4.83-1.62,1.89-3.14,1.93-5.49.3-.21,4.9-1.47,8.2-3.79,10.91-2.32,2.7-6.55,4.63-11.38.5l-14.25-12.21-4.28,1.34-1.4-1.2,3.3-7.5,1.53-.41,17.54,15.03Z"/><path class="cls-3" d="m793.31,715.43l-3.28,2.78-1.56-.98,1.46-7.7,2.39-1.03,2.62,1.64c-.55-4.05-.09-8.25,1.7-11.12,1.79-2.87,4.42-4.94,8.33-4.03-.62-4.73-.18-9.01,1.65-11.93,2.33-3.73,6.16-6.16,12.31-2.32l16.41,10.27,3.62-1.87,1.71,1.07-6.39,10.22-1.71-1.07-.06-3.82-15.61-9.76c-3.83-2.39-6.21-1.5-8.16,1.62-1.57,2.52-1.78,5.75-1.67,8.27.59.3,1.22.62,1.88,1.03l16.41,10.27,3.46-1.62,1.71,1.07-6.23,9.97-1.71-1.07-.06-3.82-15.61-9.76c-3.83-2.39-6.21-1.5-8.16,1.62-1.51,2.42-1.75,5.49-1.66,8.14l18.27,11.43,3.46-1.62,1.71,1.07-6.39,10.22-1.71-1.07.1-4.07-19.23-12.03Z"/><path class="cls-3" d="m848.2,657.56l2.44-.68c1.82,3.53,1.91,8.04-.01,12.39-4.21,9.56-12.19,10.72-21.37,6.67-10.32-4.55-13.05-12.63-9.8-20.02,3.14-7.12,9.24-9.03,17.33-5.46.82.36,1.66.8,2.51,1.23l-8.19,18.58c7.71,3.4,13.59,1.84,16.28-4.24,1.27-2.88,1.23-5.88.81-8.47Zm-19.81,11.38l5.84-13.25c-6.51-2.74-10.17-1.95-11.99,2.17-1.46,3.31-.58,7.34,6.15,11.08Z"/><path class="cls-3" d="m859.04,638.47l1.93.61-3.73,11.83-1.93-.61-.93-3.97-36.98-11.66-2.79,3.91-1.76-.55.7-7.94,2.06-1.59,25.31,7.98.86-2.72-5.15-10.34-2.88,2.02-1.93-.61,3.8-12.06,1.93.61,1.01,6.67,4.98,10.47,17.61-6.09,2.86-2.96,2.27.71-3.45,10.93-1.76-.55-1.02-2.5-15.94,5.12-.66,2.09,12.52,3.95,3.05-2.77Z"/></svg>