<?xml version="1.0" encoding="utf-8"?>
<!-- Generator: Adobe Illustrator 27.5.0, SVG Export Plug-In . SVG Version: 6.00 Build 0)  -->
<svg version="1.1" id="Small_Sticker" xmlns="http://www.w3.org/2000/svg" xmlns:xlink="http://www.w3.org/1999/xlink" x="0px"
	 y="0px" viewBox="0 0 1080 1080" style="enable-background:new 0 0 1080 1080;" xml:space="preserve">
<style type="text/css">
	.st0{clip-path:url(#SVGID_00000168808498734942488090000000857157215621585792_);}
	.st1{fill:#9DB7DF;}
	.st2{fill:#3D5DD9;}
	.st3{fill:#1D1D1B;}
	.st4{fill:#FFFFFF;}
	.st5{fill:#DADADA;}
</style>
<g>
	<defs>
		<rect id="SVGID_1_" x="73.2" y="100" width="933.7" height="902.1"/>
	</defs>
	<clipPath id="SVGID_00000148643330515209571250000000079807773936222911_">
		<use xlink:href="#SVGID_1_"  style="overflow:visible;"/>
	</clipPath>
	<g style="clip-path:url(#SVGID_00000148643330515209571250000000079807773936222911_);">
		<path class="st1" d="M357.3,788.3c-10.3,20-15.5,43.9-15.5,66.5c0,80.7,66.5,147.2,146.6,147.2c17.4,0,35.5-3.9,51.7-9.7
			c16.1,5.8,34.2,9.7,51.7,9.7c80.1,0,146.6-66.5,146.6-147.2c0-22.6-5.2-46.5-15.5-66.5l1.9-1.3c27.1,27.8,65.2,42.6,103.3,42.6
			c85.2,0,147.2-68.4,147.2-152.4c20.7-25.8,31.6-58.1,31.6-90.4c0-81.4-66.5-148.5-146.6-148.5c-7.7,0-16.1,0.6-23.2,1.9l-0.6-3.2
			c47.8-25.2,79.4-74.9,79.4-129.8c0-65.2-43.9-123.3-106.5-142.1c-27.1-40-73-65.2-122.7-65.2c-73.6,0-136.9,56.2-145.9,129.1h-1.3
			c-9-73-72.3-129.1-145.9-129.1c-49.7,0-95.6,25.2-122.7,65.2c-62.6,18.7-106.5,76.8-106.5,142.1c0,54.9,31.6,104.6,79.4,129.8
			l-0.6,3.2c-7.1-1.3-15.5-1.9-23.2-1.9c-80.1,0-146.6,67.2-146.6,148.5c0,32.3,11,64.6,31.6,90.4c0,83.9,62,152.4,147.2,152.4
			c38.1,0,76.2-14.9,103.3-42.6L357.3,788.3L357.3,788.3z"/>
		<path class="st2" d="M381.2,699.2c-8.4,0-18.7,2.6-25.8,5.8c-12.3,48.4-53.6,82.7-103.3,82.7c-57.5,0-105.3-47.1-105.3-105.3
			c0-6.5,0-13.6,1.3-20c-21.3-18.7-33.6-47.1-33.6-75.6c0-58.8,47.1-106.5,105.3-106.5c25.2,0,49.7,9,68.4,25.8
			c34.2-9,49.7-26.5,49.7-54.9c0-21.3-9.7-31-16.8-40c-3.9,0.6-6.5,0.6-9.7,0.6c-57.5,0-105.3-46.5-105.3-104.6
			c0-52.3,39.4-97.5,91.7-104.6c17.4-36.8,54.2-60.1,95.6-60.1c58.1,0,104.6,47.8,104.6,105.9c0,13.6-1.9,27.8-8.4,39.4
			c11,19.4,23.2,31.6,50.4,31.6c27.1,0,39.4-12.3,50.4-31.6c-6.5-11.6-8.4-25.8-8.4-39.4c0-58.1,46.5-105.9,104.6-105.9
			c41.3,0,78.1,23.2,95.6,60.1c52.3,7.1,91.7,52.3,91.7,104.6c0,58.1-47.8,104.6-105.3,104.6c-3.2,0-5.8,0-9.7-0.6
			c-7.1,9-16.8,18.7-16.8,40c0,28.4,15.5,45.8,49.7,54.9c18.7-16.8,43.3-25.8,68.4-25.8c58.1,0,105.3,47.8,105.3,106.5
			c0,28.4-12.3,56.8-33.6,75.6c1.3,6.5,1.3,13.6,1.3,20c0,58.1-47.8,105.3-105.3,105.3c-49.7,0-91-34.2-103.3-82.7
			c-7.1-3.2-17.4-5.8-25.8-5.8c-31.6,0-58.1,31-54.2,64.6c32.9,18.7,52.3,54.2,52.3,91c0,56.8-47.1,104.6-104.6,104.6
			c-18.1,0-36.2-3.9-52.3-12.9c-16.1,9-34.2,12.9-52.3,12.9c-57.5,0-104.6-47.8-104.6-104.6c0-36.8,19.4-72.3,52.3-91
			C439.3,730.2,412.8,699.2,381.2,699.2 M357.3,788.3c-10.3,20-15.5,43.9-15.5,66.5c0,80.7,66.5,147.2,146.6,147.2
			c17.4,0,35.5-3.9,51.7-9.7c16.1,5.8,34.2,9.7,51.7,9.7c80.1,0,146.6-66.5,146.6-147.2c0-22.6-5.2-46.5-15.5-66.5l1.9-1.3
			c27.1,27.8,65.2,42.6,103.3,42.6c85.2,0,147.2-68.4,147.2-152.4c20.7-25.8,31.6-58.1,31.6-90.4c0-81.4-66.5-148.5-146.6-148.5
			c-7.7,0-16.1,0.6-23.2,1.9l-0.6-3.2c47.8-25.2,79.4-74.9,79.4-129.8c0-65.2-43.9-123.3-106.5-142.1c-27.1-40-73-65.2-122.7-65.2
			c-73.6,0-136.9,56.2-145.9,129.1h-1.3c-9-73-72.3-129.1-145.9-129.1c-49.7,0-95.6,25.2-122.7,65.2
			c-62.6,18.7-106.5,76.8-106.5,142.1c0,54.9,31.6,104.6,79.4,129.8l-0.6,3.2c-7.1-1.3-15.5-1.9-23.2-1.9
			c-80.1,0-146.6,67.2-146.6,148.5c0,32.3,11,64.6,31.6,90.4c0,83.9,62,152.4,147.2,152.4c38.1,0,76.2-14.9,103.3-42.6L357.3,788.3
			L357.3,788.3z"/>
		<path class="st2" d="M487.7,768.9c0,12.9,4.5,24.5,11.6,33.6v0.6c-3.2,0-6.5-0.6-10.3-0.6c-29.7,0-50.4,25.2-50.4,52.3
			c0,27.1,23.9,52.3,52.3,52.3c20.7,0,40-12.9,48.4-32.9h1.3c8.4,20,27.8,32.9,48.4,32.9c28.4,0,52.3-23.9,52.3-52.3
			c0-28.4-20.7-52.3-50.4-52.3c-3.9,0-7.1,0.6-10.3,0.6v-0.6c7.1-9,11.6-20.7,11.6-33.6c0-25.8-22.6-51.7-52.3-51.7
			C510.3,717.3,487.7,743.1,487.7,768.9 M298.5,655.3c5.2,3.2,12.3,4.5,18.7,4.5c29.1,0,53-23.9,53-52.3c0-28.4-22.6-53.6-48.4-53.6
			c-20.7,0-37.5,7.7-48.4,25.8l-1.3-0.6c-2.6-25.8-26.5-45.2-52.3-45.2c-29.1,0-52.3,23.2-52.3,53c0,29.7,26.5,51.7,56.8,51.7
			c-15.5,9.7-24.5,26.5-24.5,43.9c0,28.4,23.9,53,52.3,53s52.3-23.9,52.3-53c0-8.4-1.9-18.1-6.5-26.5L298.5,655.3L298.5,655.3z
			 M782.1,655.9c-4.5,8.4-6.5,18.1-6.5,26.5c0,29.1,23.2,53,52.3,53s52.3-24.5,52.3-53c0-17.4-9-34.2-24.5-43.9
			c30.4,0,56.8-20.7,56.8-51.7s-23.2-53-52.3-53c-25.8,0-49.7,19.4-52.3,45.2l-1.3,0.6c-11-18.1-27.8-25.8-48.4-25.8
			c-25.8,0-48.4,25.8-48.4,53.6s23.9,52.3,53,52.3c6.5,0,13.6-1.3,18.7-4.5L782.1,655.9L782.1,655.9z M540,371.8
			c-29.1,0-52.3,23.9-52.3,53c0,9,1.9,16.1,4.5,23.2l-21.3,16.1c-9.7-9-22-14.9-36.2-14.9c-29.7,0-53,24.5-53,53
			c0,28.4,24.5,51.7,53,51.7c3.9,0,7.7,0,12.3-0.6l9,23.2c-20,7.7-33.6,27.1-33.6,49.1c0,29.1,23.2,52.3,51.7,52.3s53-23.2,53-52.3
			h25.8c0,29.1,23.9,52.3,53,52.3c29.1,0,51.7-23.2,51.7-52.3c0-22-13.6-41.3-33.6-49.1l9-23.2c4.5,0.6,8.4,0.6,12.3,0.6
			c28.4,0,53-23.2,53-51.7c0-28.4-23.2-53-53-53c-14.2,0-26.5,5.8-36.2,14.9L587.8,448c2.6-7.1,4.5-14.2,4.5-23.2
			C592.3,395.7,569,371.8,540,371.8 M730.5,343.4c9.7,10.3,23.2,15.5,38.1,15.5c27.1,0,52.3-22.6,52.3-49.7
			c0-29.7-22.6-54.2-52.3-54.2c-10.3,0-18.7,2.6-27.8,7.7l-2.6-1.3c1.3-4.5,1.9-9,1.9-12.9c0-29.7-22-53-50.4-53
			c-28.4,0-54.2,23.2-54.2,47.1s7.1,40.7,28.4,51.7v1.3c-20,4.5-39.4,25.2-39.4,51c0,25.8,19.4,52.3,53.6,52.3
			c31,0,51.7-25.8,51.7-55.5L730.5,343.4L730.5,343.4z M350.1,343.4c0,29.7,20.7,55.5,51.7,55.5c34.2,0,53.6-26.5,53.6-52.3
			s-19.4-46.5-39.4-51v-1.3c21.3-11,28.4-28.4,28.4-51.7s-25.8-47.1-54.2-47.1c-28.4,0-50.4,23.2-50.4,53c0,3.9,0.6,8.4,1.9,12.9
			l-2.6,1.3c-9-5.2-17.4-7.7-27.8-7.7c-29.7,0-52.3,24.5-52.3,54.2c0,27.1,25.2,49.7,52.3,49.7c14.9,0,28.4-5.2,38.1-15.5
			L350.1,343.4L350.1,343.4z"/>
		<path class="st3" d="M769.2,640.6c2.8-3.4,5.1-7.6,6.2-12.9v-0.1l0-0.1c1.6-8.2-0.4-16.6-5.6-22.9c-5.3-6.4-13.3-10.1-22.1-10.1
			c-6.7,0-13.8-10.4-19.6-7.2c-4.7-3.2-10.7-5-17.1-5c-1.8,0-1.7,2.6-3.5,2.9c-0.8-4.1-3.9,1.9-6.6-1.3c-4.6-5.3-11.3-8.4-18.5-8.4
			c-4.4,0-8.5,1.1-12.1,3.1h-23.9v-0.1h-33.9l0,0.1h-43.5l-23.9,7.5l7.6,4.9l16-4.1c-2.2-1.7-4.6-3.1-7.2-4.1l5.7-19.3l-33.4,8.4
			l-14.9,3.8l-12.2,3.1l-2.3,12.4l-0.2,1.3l-0.5,2.7c3-16.4-4.1-20.9-6.4-20.9c-6.3,0-18.3,8.5-23.8,11.4c-4.6-2.9-3.8-1.6-9.9-1.6
			c-4.3,0-9.4,11.2-13.4,12.5l-12.9-8.1l-3.6-1h-17.1l8.2,4l-7.2-12.8h-65.2l-3.1,15.9l-0.6,3.2l-4.4,22.2l8.2,0.5l-6.1,30.2
			l-4.6,2.4c-6.5,3.4-11.4,10.1-12.9,17.4c-1.5,7.2,0.3,14.6,4.9,20.3c4.6,5.7,11.7,8.9,19.3,8.9s15.4-3.3,22.9-9.8
			c4.1-3.5,7.5-7.7,10.3-12.4c3.6,1.9,7.6,2.9,11.8,2.9c4.2,0,7.8-0.8,11.1-2.3c3.1,1.5,6.5,2.3,10,2.3c5.2,0,10.2-1.3,14.9-3.8
			c4.3,2.5,9.2,3.8,14.3,3.8c6.5,0,13.5-2.2,20.1-6.2c5.6,4,12.5,6.2,20,6.2c6.5,0,12.7-1.7,18.4-4.8l4,1.3c6.9,2.3,13.3,3.5,19,3.5
			c21.2,0,39.5-17.2,44.9-42.1l2.3,23.6l1.7,17.8h67.8l5.3-10.7c0.6,0.9,1.2,1.9,1.9,2.7c4.5,5.5,11.4,8.7,18.9,8.7
			c4.7,0,9.1-1.2,13.2-3c4.1,2,8.7,3,13.7,3c6.7,0,13-1.9,18.6-5c4.7,3.3,10.2,5,16.1,5c15.6,0,29.6-13.4,32.3-16.1l11.1-11.2
			L769.2,640.6L769.2,640.6z"/>
		<path class="st3" d="M895.8,553.8l-1.6-7.8l-5.1-25l-23.3,10.4c-2.3,1-4.4,1.8-6.3,2.4v-27.1c9.8-0.6,23.4-3.3,29.8-15.6l1.8-3.5
			l0.4-3.9l1-10.5l2.2-22.5h-35l1.5-35.4l-31.5,16.6l-45.9,24.2l-5.2,2.7c-9.6-7.4-21.4-11.3-34.7-11.3c-19.2,0-38.5,8-52.9,22
			c-1.4,1.3-2.7,2.7-3.9,4.1v-26.5c0-14.5,1.4-26,2.3-29.8l7.2-31l-31.2,6.3l-49.1,9.9l-16.4,3.3v34.1l8.2,6.1l4.7,3.5v14.8
			c-11.2-10.9-26.3-16.9-42.9-16.9c-4.2,0-8.5,0.5-12.8,1.5v-1.8c0-15,1.4-26,2.2-29.5l7.9-31.4l-31.8,6.4l-49,9.9l-16.4,3.3v34
			l8.1,6.1l4.7,3.6V466c-1.3-2-2.8-3.8-4.5-5.6c-8.5-8.6-20.7-13-36.2-13c-21,0-47.2,6.6-63.7,19.2l-5.1-39.8l-2.3-17.7l-17.8-0.2
			c-2.8,0-6.9-0.7-11.6-1.4c-8.2-1.3-18.5-3-31.4-3c-31.3,0-58.1,9.3-77.5,26.8c-20.1,18.3-30.8,44-30.8,74.5
			c0,30.5,9.2,53,26.6,69.2c16.5,15.4,40.1,23.5,68.3,23.5c25,0,51.2-5.6,68.8-10.4l8.7-2.3c8.6,7.5,19.8,11.8,31,11.8
			c8.9,0,18-2.5,27.4-7.7c6.2,4.8,13.9,7.5,22.9,7.5c6.7,0,14.2-1.6,21.7-4.6l-0.1,0.5l22.9,1l5,0.2h0.1h0.1
			c12.2,0.5,26.8,0.8,32.2,0.8c23.9,0,44.7-5.5,60.8-16v15h103.1v-5.7c10.1,5.7,22,8.9,35,8.9c19.5,0,37.8-7.2,55.8-21.8
			c2.1,3.5,4.4,6.3,6.5,8.5c8.6,8.7,20.4,13.3,34.3,13.3c21.1,0,40.3-8.6,57.2-25.4l7.8-7.8L895.8,553.8L895.8,553.8z"/>
		<path class="st4" d="M222.5,505.9c0-50.5,34.9-80.8,87.8-80.8c19.3,0,32.3,4.3,42.8,4.4l5.5,42.4h-13.1l-3.3-7.6
			c-7.3-16.7-17.6-24.1-35.4-24.1c-28.9,0-44.6,21.6-44.6,62.8c0,41.2,14.7,60,45.6,60c14,0,18.6-3.9,18.6-13.9v-19
			c0-11.6-2.5-13.2-16.7-13l-13.6,0.2v-15.2h67c-1.5,8-2.6,18-2.6,38.1v28.3c-21.9,5.9-44.5,9.7-63.4,9.7
			C251.2,578.2,222.5,554.2,222.5,505.9"/>
		<path class="st4" d="M628.8,436l-8.5-6.4v-7.1l49.1-9.9c-1.5,6.4-2.8,19.7-2.8,34.4v106.4c0,7.3,1.4,9.2,7.7,9.7l6.7,0.5v10.5
			h-62.2v-10.5l6.7-0.5c6.4-0.5,7.7-2.4,7.7-9.7V449.1C633.2,441.6,632.2,438.6,628.8,436"/>
		<path class="st4" d="M757.2,502.8c-2.8-14-9.7-21.2-18.9-21.2c-10.2,0-16.4,9.3-17.9,24.3L757.2,502.8L757.2,502.8z M743.9,467.9
			c18.2,0,30.8,10.6,37.1,29.7c2,6.4,4.2,9.3,6.1,10.5l-2.4,6.6c-25.2,2.2-43.4,2.7-64.5,2.5v0.5c1.1,20.8,13.4,36.4,35.1,36.4
			c8.8,0,20.8-3.9,28.4-7.2l1.7,7.8c-14.3,13.4-30.2,22.6-49,22.6c-28.8,0-48.9-20.7-48.9-51.3C687.6,491.9,715.8,467.9,743.9,467.9
			"/>
		<path class="st4" d="M875.8,557.9c-13.1,13.1-27.2,19.4-42.8,19.4c-17.3,0-27.5-10.7-27.3-29.9l0.6-51.5c0.1-6.4-0.5-9.7-4.5-11.3
			l-8.4-3.3v-7.2l45.9-24.2l-0.9,21.2h33.8l-1,10.5c-1.6,3.1-6.9,4.8-18.8,4.8H839v53.6c0,10.2,5,15.2,14.3,15.2
			c6.6,0,13.4-1.8,20.8-5.1L875.8,557.9L875.8,557.9z"/>
		<path class="st4" d="M536.6,543.3c0,11.9,4.5,17.3,14.2,17.3c13.2,0,26.1-11.5,26.1-36.6c0-20.8-9.8-34.3-27.1-34.3
			c-4.1,0-8.9,1-13.3,2.8V543.3L536.6,543.3z M501.1,574.1c1.3-7.7,2.2-14,2.2-30.7v-94.4c0-7.5-0.9-10.5-4.4-13.1l-8.4-6.4v-7.1
			l49-9.9c-1.6,6.4-2.8,19.7-2.8,34.4v13.5c0,7.2-0.3,15-0.7,21.4l0.3,0.1l3-2.2c10-7.6,20.8-12.1,30.7-12.1
			c25.1,0,42.3,19.1,42.3,47.5c0,34.7-26.7,59.7-74.7,59.7c-5.3,0-19.8-0.3-31.4-0.8L501.1,574.1L501.1,574.1z"/>
		<path class="st4" d="M438.2,561.2c-12.6,11-23.2,16.1-32.7,16.1c-14.3,0-28.2-12.1-28.1-31.7c0-8.8,2.6-15.4,8.8-18.9
			c6-3.4,18.4-7.3,50.7-12.3v-15.2c0-11-4-16.1-13.9-16.1c-4.7,0-8.5,1.4-10.2,3.4c-1.4,1.7-1,3.6-0.1,10.9
			c-3.8,3.3-12.2,6.8-19.2,6.8s-10.7-3.3-10.7-8.9c0-13.5,30.8-27.4,59.5-27.4c21.5,0,28.4,10.3,28.1,29l-0.8,41.7
			c-0.2,12.7,1.9,18.6,5.9,18.6c1.7,0,5.5-1.5,9-3.4l1.9,10.7c-10.3,8-22.2,12.5-30.6,12.5c-8.4,0-14.7-4.3-16.9-15.9L438.2,561.2
			L438.2,561.2z M436.8,528.1c-9.9,0.3-18,2.8-21.5,4.5c-3.2,1.6-4.3,5.2-4.3,9c0,8.3,5.8,16.1,12.3,16.1c3.2,0,8.4-2.6,13.5-6.6
			L436.8,528.1L436.8,528.1z"/>
		<path class="st5" d="M347.7,671.6c0.3-1.7,1.6-3.3,2.7-3.9c1.6,1.4,3.6,2.7,6.1,2.7c2.2,0,5.3-1.9,7.8-14.2l10.1-50.4
			c1-5.3,0.6-6.5-3.5-6.7l-3.5-0.2l0.6-3.2h24.8l-0.7,3.2l-3.5,0.2c-4.2,0.2-5.2,1.5-6.2,6.7l-3.6,17.9c-2.1,10.8-2.8,15.2-5.7,30.1
			c-1.4,7.1-5.1,13.8-10.5,18.4c-3.5,3-7.1,5-10.1,5C349.1,677.3,347.1,674.7,347.7,671.6"/>
		<path class="st5" d="M413.6,637.2c3.7-6.5,5.2-10.7,6.3-14.8l0.4-1.5c0.7-2.4-2.6-4.3-7.2-4.3c-6.5,0-11.3,6.5-13.4,16.6
			c-2,10.1-1.2,17.5,2.1,17.5C404.4,650.6,409.2,644.8,413.6,637.2 M391,636.5c2.9-14.6,13-24.9,24.8-24.9c2,0,4.7,0.2,7,0.8
			c1,0.2,1.8,0.3,2.3,0.3c0.9,0,1.4-0.4,2.1-2.2l0.8-2.1l3.6,1c-1.6,4.3-4.2,12.7-5.4,18.5l-0.9,4.1c-3.1,14.8-2.4,20-0.9,20
			c1.1,0,3.2-1.8,5.4-4.2l1.4,2.5c-2.9,3.9-7.3,7.5-12.3,7.5c-3.8,0-4.9-4.7-1.5-21l-0.2-0.1c-7.8,15.5-13.9,21-19.4,21
			C391,658,388.6,648.8,391,636.5"/>
		<path class="st5" d="M438.4,634.9c2.9-14.4,13.4-23.3,23.9-23.3c4.5,0,8.4,2,7.7,5.1c-0.5,2.3-3,4.6-3.9,4.6c-3-2.3-5.7-4-8.6-4
			c-6.2,0-9.6,10.3-10.6,15c-2.2,10.6-0.7,18.9,4.7,18.9c2.8,0,6.9-2,13.1-5.8l1.5,2.3c-5.8,6.6-13.4,10.3-18.3,10.3
			C439.9,658,435.7,648.2,438.4,634.9"/>
		<path class="st5" d="M501.9,636.9c1.3-6.8,2.1-21.4-6.3-21.4c-5.8,0-11.1,8.1-13,18.3c-1.3,6.9-1.4,20.3,6.9,20.3
			C495,654.1,500,646.4,501.9,636.9 M473.8,634c2.6-12.5,12-22.3,22.7-22.3c13.4,0,16.5,12.9,14.2,24.1
			c-2.5,12.5-11.9,22.3-22.6,22.3C474.7,658,471.6,645,473.8,634"/>
		<path class="st5" d="M546.9,634.2c1.7-8.5,0.7-15-3.6-15c-3.7,0-7.6,4.1-11.3,10.9c-3.4,6.2-5.1,11-6.4,18.7
			c-0.4,2.7,2.3,4.3,7.1,4.3C539.9,653.1,545,643.6,546.9,634.2 M527.6,601.5c0.5-2.6,0.5-3.8-0.5-4.6l-3.8-3.3l0.2-1.3l14.9-3.8
			c-1.5,5.2-2.3,8.8-4.5,18.7l-1.3,5.6c-1.4,6.6-2.6,11.9-3.8,16.3l0.2,0.1c6.1-11.8,11.4-17.5,18.1-17.5c7.2,0,10.6,7,8.2,18.7
			c-3.1,15.9-13.7,27.6-26,27.6c-3.3,0-7.5-0.7-12.7-2.5L527.6,601.5L527.6,601.5z"/>
		<path class="st5" d="M596.2,657.3l-4.8-49.7c-0.6-6.7-1.5-8.4-5.8-8.5l-1.2-0.1l0.6-3.2h25.2l-0.7,3.2l-4.3,0.3
			c-5.5,0.3-6.4,1.9-5.8,7.5l3.3,36.8l22.3-47.9h4.2l6.8,48.7l10.7-24.1c3.4-7.5,6.2-14.2,6.8-17c0.5-2.8-0.9-4-5.5-4.2l-3.9-0.2
			l0.6-3.2h25l-0.6,3.2l-1.1,0.1c-4.3,0.4-6.4,2-9.6,8.5L634,657.3h-4.2l-6.6-47.8l-22.8,47.8L596.2,657.3L596.2,657.3z"/>
		<path class="st5" d="M676.9,597.1c0.6-2.7,2.8-4.4,5.5-4.4c3.2,0,5.2,2.5,4.6,5.9c-0.5,2.9-2.7,4.9-5.6,4.9
			C678.2,603.5,676.1,600.7,676.9,597.1 M672.3,658c-3.4,0-5.1-2.2-4.3-5.7l5.6-27.5c1.2-5.7,0.9-7.1-0.2-7.1s-2.7,0.9-6.6,4.8
			l-1.4-2.4c3.3-4.6,8.6-8.4,13-8.4c2,0,4.4,0.8,5,2.7L677,645c-1.2,5.8-0.5,7,0.4,7c1.2,0,3.4-1.6,6.6-4.8l1.5,2.4
			C682.7,653.6,677.5,658,672.3,658"/>
		<path class="st5" d="M690.4,650.7c0.3-1.6,1.3-3,2.4-3.6c2.7,3.5,6.5,5.5,9.9,5.5c3.2,0,5.2-1.7,5.8-4.7c0.6-3.2-0.5-6.3-6-11
			c-6.3-5.4-7.5-8.9-6.7-13.7c0.9-5.9,8.4-11.5,15.7-11.5c5,0,8.4,2.4,7.9,5.2c-0.3,1.7-1.5,3.1-3.1,4.1c-2.8-2.7-6-4.2-8.6-4.2
			c-2.6,0-4.6,1.7-5,4.2c-0.6,3.1,0.7,6.1,6.3,11.1c6.2,5.5,7.3,8.8,6.4,13.5c-1.4,6.9-8.8,12.5-16.4,12.5
			C693.3,658,689.6,654.9,690.4,650.7"/>
		<path class="st5" d="M738.4,629c6.4-1.9,9.9-4.7,10.4-7.9c0.5-2.8-1.5-5.2-4.1-5.2c-4.2,0-10.2,4.9-12.2,14.6v0.2L738.4,629
			L738.4,629z M724.1,634.8c2.7-14,13.2-23.2,23.6-23.2c5.8,0,9.5,4.2,8.4,9.6c-1.1,5.4-6.2,8.8-16.1,11.4l-8.2,2.2
			c-1.2,10,0.8,16.5,5.4,16.5c2.7,0,9.6-3.4,13.3-5.9l1.5,2.3c-5.5,5.5-13.4,10.3-18.3,10.3C725.6,658,721.7,647.7,724.1,634.8"/>
	</g>
</g>
</svg>
