<?xml version="1.0" encoding="UTF-8"?><svg id="Small_Sticker" xmlns="http://www.w3.org/2000/svg" xmlns:xlink="http://www.w3.org/1999/xlink" viewBox="0 0 1080 1080"><defs><style>.cls-1{fill:none;}.cls-2{clip-path:url(#clippath);}.cls-3{fill:#fff;}.cls-4{fill:#9db7df;}.cls-5{fill:#dadada;}.cls-6{fill:#1d1d1b;}.cls-7{fill:#3d5dd9;}</style><clipPath id="clippath"><rect class="cls-1" x="92.38" y="107.55" width="895.23" height="864.9"/></clipPath></defs><g class="cls-2"><path class="cls-4" d="m364.79,767.52c-9.91,19.19-14.86,42.1-14.86,63.77,0,77.39,63.77,141.16,140.54,141.16,16.72,0,34.05-3.71,49.53-9.29,15.48,5.57,32.81,9.29,49.53,9.29,76.77,0,140.54-63.77,140.54-141.16,0-21.67-4.95-44.58-14.86-63.77l1.86-1.24c26,26.62,62.53,40.86,99.06,40.86,81.72,0,141.16-65.63,141.16-146.11,19.81-24.76,30.34-55.72,30.34-86.68,0-78.01-63.77-142.4-140.54-142.4-7.43,0-15.48.62-22.29,1.86l-.62-3.1c45.81-24.14,76.15-71.82,76.15-124.44,0-62.53-42.1-118.25-102.15-136.2-26-38.38-69.96-62.53-117.63-62.53-70.58,0-131.25,53.86-139.92,123.82h-1.24c-8.67-69.96-69.34-123.82-139.92-123.82-47.67,0-91.63,24.15-117.63,62.53-60.05,17.95-102.15,73.67-102.15,136.2,0,52.63,30.34,100.3,76.15,124.44l-.62,3.1c-6.81-1.24-14.86-1.86-22.29-1.86-76.77,0-140.54,64.39-140.54,142.4,0,30.96,10.52,61.91,30.34,86.68,0,80.48,59.43,146.11,141.16,146.11,36.53,0,73.06-14.24,99.06-40.86l1.86,1.24Z"/><path class="cls-7" d="m387.7,682.09c-8.05,0-17.95,2.48-24.76,5.57-11.76,46.43-51.39,79.25-99.06,79.25-55.1,0-100.92-45.2-100.92-100.92,0-6.19,0-13,1.24-19.19-20.43-17.95-32.19-45.2-32.19-72.44,0-56.34,45.2-102.15,100.92-102.15,24.14,0,47.67,8.67,65.63,24.77,32.81-8.67,47.67-25.38,47.67-52.63,0-20.43-9.29-29.72-16.1-38.38-3.71.62-6.19.62-9.29.62-55.1,0-100.92-44.58-100.92-100.3,0-50.15,37.77-93.49,87.91-100.3,16.72-35.29,52.01-57.58,91.63-57.58,55.72,0,100.3,45.81,100.3,101.53,0,13-1.86,26.62-8.05,37.77,10.52,18.57,22.29,30.34,48.29,30.34s37.77-11.76,48.29-30.34c-6.19-11.14-8.05-24.76-8.05-37.77,0-55.72,44.58-101.53,100.3-101.53,39.62,0,74.91,22.29,91.63,57.58,50.15,6.81,87.91,50.15,87.91,100.3,0,55.72-45.81,100.3-100.92,100.3-3.1,0-5.57,0-9.29-.62-6.81,8.67-16.1,17.95-16.1,38.38,0,27.24,14.86,43.96,47.67,52.63,17.95-16.1,41.48-24.77,65.63-24.77,55.72,0,100.92,45.81,100.92,102.15,0,27.24-11.76,54.48-32.19,72.44,1.24,6.19,1.24,13,1.24,19.19,0,55.72-45.81,100.92-100.92,100.92-47.67,0-87.29-32.81-99.06-79.25-6.81-3.09-16.72-5.57-24.76-5.57-30.34,0-55.72,29.72-52,61.91,31.57,17.95,50.15,52.01,50.15,87.29,0,54.48-45.2,100.3-100.3,100.3-17.34,0-34.67-3.71-50.15-12.38-15.48,8.67-32.81,12.38-50.15,12.38-55.1,0-100.3-45.81-100.3-100.3,0-35.29,18.57-69.34,50.15-87.29,3.71-32.19-21.67-61.91-52-61.91m-22.91,85.44c-9.91,19.19-14.86,42.1-14.86,63.77,0,77.39,63.77,141.16,140.54,141.16,16.72,0,34.05-3.71,49.53-9.29,15.48,5.57,32.81,9.29,49.53,9.29,76.77,0,140.54-63.77,140.54-141.16,0-21.67-4.95-44.58-14.86-63.77l1.86-1.24c26,26.62,62.53,40.86,99.06,40.86,81.72,0,141.16-65.63,141.16-146.11,19.81-24.76,30.34-55.72,30.34-86.68,0-78.01-63.77-142.4-140.54-142.4-7.43,0-15.48.62-22.29,1.86l-.62-3.1c45.81-24.14,76.15-71.82,76.15-124.44,0-62.53-42.1-118.25-102.15-136.2-26-38.38-69.96-62.53-117.63-62.53-70.58,0-131.25,53.86-139.92,123.82h-1.24c-8.67-69.96-69.34-123.82-139.92-123.82-47.67,0-91.63,24.15-117.63,62.53-60.05,17.95-102.15,73.67-102.15,136.2,0,52.63,30.34,100.3,76.15,124.44l-.62,3.1c-6.81-1.24-14.86-1.86-22.29-1.86-76.77,0-140.54,64.39-140.54,142.4,0,30.96,10.52,61.91,30.34,86.68,0,80.48,59.43,146.11,141.16,146.11,36.53,0,73.06-14.24,99.06-40.86l1.86,1.24Z"/><path class="cls-7" d="m489.85,748.95c0,12.38,4.33,23.53,11.14,32.19v.62c-3.1,0-6.19-.62-9.91-.62-28.48,0-48.29,24.14-48.29,50.15s22.91,50.15,50.15,50.15c19.81,0,38.38-12.38,46.43-31.57h1.24c8.05,19.19,26.62,31.57,46.43,31.57,27.24,0,50.15-22.91,50.15-50.15s-19.81-50.15-48.29-50.15c-3.71,0-6.81.62-9.91.62v-.62c6.81-8.67,11.14-19.81,11.14-32.19,0-24.76-21.67-49.53-50.15-49.53s-50.15,24.76-50.15,49.53m-181.4-108.96c4.95,3.1,11.76,4.33,17.95,4.33,27.86,0,50.77-22.91,50.77-50.15s-21.67-51.39-46.43-51.39c-19.81,0-35.91,7.43-46.43,24.76l-1.24-.62c-2.48-24.76-25.38-43.34-50.15-43.34-27.86,0-50.15,22.29-50.15,50.77s25.38,49.53,54.48,49.53c-14.86,9.29-23.53,25.38-23.53,42.1,0,27.24,22.91,50.77,50.15,50.77s50.15-22.91,50.15-50.77c0-8.05-1.86-17.34-6.19-25.38l.62-.62Zm463.71.62c-4.33,8.05-6.19,17.34-6.19,25.38,0,27.86,22.29,50.77,50.15,50.77s50.15-23.53,50.15-50.77c0-16.72-8.67-32.81-23.53-42.1,29.1,0,54.48-19.81,54.48-49.53s-22.29-50.77-50.15-50.77c-24.77,0-47.67,18.57-50.15,43.34l-1.24.62c-10.52-17.34-26.62-24.76-46.43-24.76-24.76,0-46.43,24.76-46.43,51.39s22.91,50.15,50.77,50.15c6.19,0,13-1.24,17.95-4.33l.62.62Zm-232.17-272.41c-27.86,0-50.15,22.91-50.15,50.77,0,8.67,1.86,15.48,4.33,22.29l-20.43,15.48c-9.29-8.67-21.05-14.24-34.67-14.24-28.48,0-50.77,23.53-50.77,50.77s23.53,49.53,50.77,49.53c3.71,0,7.43,0,11.76-.62l8.67,22.29c-19.19,7.43-32.19,26-32.19,47.05,0,27.86,22.29,50.15,49.53,50.15s50.77-22.29,50.77-50.15h24.76c0,27.86,22.91,50.15,50.77,50.15s49.53-22.29,49.53-50.15c0-21.05-13-39.62-32.19-47.05l8.67-22.29c4.33.62,8.05.62,11.76.62,27.24,0,50.77-22.29,50.77-49.53s-22.29-50.77-50.77-50.77c-13.62,0-25.38,5.57-34.67,14.24l-20.43-15.48c2.48-6.81,4.33-13.62,4.33-22.29,0-27.86-22.29-50.77-50.15-50.77m182.64-27.24c9.29,9.91,22.29,14.86,36.53,14.86,26,0,50.15-21.67,50.15-47.67,0-28.48-21.67-52.01-50.15-52.01-9.91,0-17.95,2.48-26.62,7.43l-2.48-1.24c1.24-4.33,1.86-8.67,1.86-12.38,0-28.48-21.05-50.77-48.29-50.77s-52.01,22.29-52.01,45.19,6.81,39,27.24,49.53v1.24c-19.19,4.33-37.77,24.15-37.77,48.91s18.57,50.15,51.39,50.15c29.72,0,49.53-24.76,49.53-53.24h.62Zm-364.66,0c0,28.48,19.81,53.24,49.53,53.24,32.81,0,51.39-25.38,51.39-50.15s-18.57-44.58-37.77-48.91v-1.24c20.43-10.52,27.24-27.24,27.24-49.53s-24.76-45.19-52.01-45.19-48.29,22.29-48.29,50.77c0,3.71.62,8.05,1.86,12.38l-2.48,1.24c-8.67-4.95-16.72-7.43-26.62-7.43-28.48,0-50.15,23.53-50.15,52.01,0,26,24.15,47.67,50.15,47.67,14.24,0,27.24-4.95,36.53-14.86h.62Z"/><path class="cls-6" d="m759.76,625.91c2.71-3.26,4.86-7.32,5.9-12.37v-.06s.02-.06.02-.06c1.57-7.91-.38-15.92-5.34-21.96-5.07-6.17-12.79-9.71-21.2-9.71-6.46,0-13.21-9.94-18.78-6.87-4.54-3.08-10.23-4.81-16.41-4.81-1.76,0-1.66,2.51-3.37,2.78-.79-3.91-3.76,1.78-6.35-1.24-4.38-5.12-10.86-8.05-17.76-8.05-4.18,0-8.13,1.06-11.6,2.96h-22.93v-.05h-32.48l-.02.05h-41.73l-22.96,7.19,7.29,4.66,15.38-3.91c-2.11-1.67-4.41-3.02-6.93-3.96l5.49-18.48-32.07,8.09-14.31,3.61-11.71,2.96-2.2,11.88-.23,1.25-.48,2.58c2.91-15.71-3.91-20.04-6.18-20.04-6.04,0-17.57,8.15-22.86,10.94-4.4-2.8-3.65-1.57-9.54-1.57-4.15,0-9.05,10.74-12.86,12l-12.41-7.78-3.43-.93h-16.4s7.83,3.83,7.83,3.83l-6.9-12.32h-62.54l-2.99,15.2-.6,3.06-4.18,21.25,7.87.44-5.82,28.91-4.44,2.32c-6.2,3.24-10.93,9.64-12.35,16.71-1.41,6.93.3,14.04,4.71,19.43,4.45,5.44,11.18,8.56,18.48,8.56s14.74-3.16,21.97-9.38c3.9-3.38,7.22-7.42,9.9-11.9,3.46,1.78,7.32,2.76,11.33,2.76s7.46-.81,10.68-2.18c2.93,1.42,6.2,2.18,9.59,2.18,4.96,0,9.78-1.27,14.25-3.68,4.1,2.39,8.78,3.68,13.75,3.68,6.24,0,12.97-2.14,19.25-5.91,5.39,3.82,11.96,5.91,19.17,5.91,6.23,0,12.22-1.67,17.63-4.63l3.82,1.28c6.6,2.22,12.71,3.34,18.18,3.34,20.33,0,37.86-16.53,43.08-40.34l2.2,22.63,1.65,17.02h65.03l5.06-10.29c.54.91,1.13,1.8,1.81,2.63,4.32,5.31,10.92,8.35,18.11,8.35,4.53,0,8.77-1.12,12.61-2.91,3.91,1.87,8.36,2.91,13.09,2.91,6.4,0,12.51-1.78,17.8-4.83,4.47,3.13,9.74,4.83,15.39,4.83,14.91,0,28.42-12.86,30.97-15.44l10.66-10.76-7.6-11.77Z"/><path class="cls-6" d="m881.16,542.69l-1.53-7.52-4.87-23.99-22.36,9.97c-2.21.99-4.23,1.74-6.07,2.27v-25.94c9.37-.58,22.42-3.2,28.54-15l1.74-3.36.37-3.77.98-10.03,2.1-21.53h-33.53l1.46-33.95-30.22,15.94-44.04,23.22-4.96,2.62c-9.22-7.09-20.52-10.88-33.3-10.88-18.43,0-36.93,7.7-50.75,21.14-1.31,1.27-2.55,2.6-3.75,3.95v-25.41c0-13.87,1.36-24.9,2.22-28.6l6.89-29.69-29.88,6.02-47.09,9.48-15.75,3.17v32.66l7.88,5.89,4.54,3.39v14.17c-10.77-10.45-25.2-16.17-41.09-16.17-4.06,0-8.18.48-12.32,1.41v-1.74c0-14.36,1.31-24.96,2.14-28.27l7.54-30.14-30.45,6.15-46.99,9.48-15.74,3.18v32.58l7.78,5.89,4.54,3.43v15.82c-1.28-1.89-2.67-3.69-4.29-5.33-8.11-8.26-19.8-12.45-34.73-12.45-20.18,0-45.24,6.3-61.09,18.4l-4.91-38.13-2.18-16.93-17.07-.19c-2.7-.03-6.58-.66-11.09-1.39-7.89-1.28-17.71-2.87-30.12-2.87-30.05,0-55.73,8.88-74.27,25.69-19.31,17.5-29.52,42.21-29.52,71.45s8.82,50.83,25.51,66.39c15.83,14.76,38.48,22.57,65.52,22.57,24,0,49.1-5.41,65.94-9.94l8.31-2.24c8.29,7.2,18.94,11.31,29.74,11.31,8.57,0,17.26-2.44,26.26-7.39,5.91,4.65,13.36,7.17,21.93,7.17,6.47,0,13.62-1.54,20.8-4.37l-.08.51,21.99,1,4.8.22h.06s.06,0,.06,0c11.71.46,25.66.78,30.86.78,22.92,0,42.87-5.28,58.32-15.33v14.35h98.88v-5.49c9.69,5.48,21.07,8.54,33.57,8.54,18.72,0,36.28-6.86,53.46-20.91,1.99,3.37,4.18,6.08,6.24,8.17,8.24,8.34,19.6,12.75,32.85,12.75,20.22,0,38.68-8.21,54.87-24.39l7.45-7.45-2.1-10.33Z"/><path class="cls-3" d="m235.56,496.77c0-48.4,33.47-77.51,84.16-77.51,18.53,0,30.96,4.14,40.99,4.25l5.23,40.66h-12.54l-3.16-7.3c-6.98-16.03-16.9-23.11-33.9-23.11-27.69,0-42.74,20.71-42.74,60.18s14.06,57.56,43.72,57.56c13.41,0,17.88-3.71,17.88-13.3v-18.21c0-11.12-2.4-12.65-16.03-12.43l-13.08.22v-14.61h64.21c-1.42,7.63-2.51,17.23-2.51,36.52v27.14c-21.04,5.67-42.63,9.27-60.83,9.27-43.82,0-71.41-23-71.41-69.34"/><path class="cls-3" d="m625.16,429.73l-8.18-6.1v-6.76l47.1-9.48c-1.42,6.11-2.73,18.86-2.73,33.03v102.04c0,6.98,1.31,8.83,7.41,9.27l6.43.44v10.03h-59.63v-10.03l6.43-.44c6.1-.44,7.41-2.29,7.41-9.27v-100.19c0-7.2-.98-10.03-4.25-12.54"/><path class="cls-3" d="m748.23,493.83c-2.73-13.41-9.27-20.28-18.1-20.28-9.81,0-15.7,8.94-17.12,23.33l35.21-3.05Zm-12.75-33.47c17.44,0,29.54,10.14,35.54,28.45,1.96,6.1,4.03,8.94,5.89,10.03l-2.29,6.32c-24.2,2.07-41.64,2.62-61.81,2.4v.44c1.09,19.95,12.86,34.89,33.69,34.89,8.39,0,19.95-3.71,27.25-6.87l1.64,7.52c-13.74,12.86-29,21.69-46.99,21.69-27.58,0-46.88-19.84-46.88-49.17,0-32.71,27.04-55.71,53.96-55.71"/><path class="cls-3" d="m861.93,546.59c-12.54,12.54-26.06,18.64-40.99,18.64-16.57,0-26.38-10.25-26.17-28.67l.55-49.39c.11-6.1-.44-9.27-4.36-10.79l-8.07-3.16v-6.87l44.04-23.22-.87,20.28h32.38l-.98,10.03c-1.53,2.94-6.65,4.58-17.99,4.58h-12.76v51.35c0,9.81,4.8,14.61,13.74,14.61,6.32,0,12.86-1.74,19.95-4.91l1.53,7.52Z"/><path class="cls-3" d="m536.75,532.64c0,11.45,4.36,16.57,13.63,16.57,12.65,0,25.07-11.01,25.07-35.1,0-19.95-9.38-32.92-25.95-32.92-3.93,0-8.5.98-12.75,2.73v48.73Zm-34.01,29.54c1.2-7.41,2.07-13.41,2.07-29.44v-90.48c0-7.2-.87-10.03-4.25-12.54l-8.07-6.1v-6.76l46.99-9.48c-1.53,6.11-2.72,18.86-2.72,33.03v12.97c0,6.87-.33,14.39-.66,20.5l.33.11,2.84-2.07c9.59-7.3,19.95-11.56,29.44-11.56,24.09,0,40.55,18.31,40.55,45.57,0,33.25-25.62,57.23-71.63,57.23-5.12,0-18.97-.33-30.09-.76l-4.8-.22Z"/><path class="cls-3" d="m442.35,549.75c-12.1,10.57-22.24,15.48-31.4,15.48-13.74,0-27.04-11.56-26.93-30.42,0-8.39,2.51-14.72,8.4-18.1,5.78-3.27,17.66-6.98,48.62-11.77v-14.61c0-10.57-3.82-15.48-13.3-15.48-4.47,0-8.18,1.31-9.81,3.27-1.31,1.64-.98,3.49-.11,10.47-3.6,3.16-11.66,6.54-18.42,6.54s-10.25-3.16-10.25-8.5c0-12.97,29.55-26.27,57.02-26.27,20.6,0,27.25,9.92,26.93,27.8l-.76,40.01c-.22,12.21,1.85,17.88,5.67,17.88,1.64,0,5.23-1.42,8.61-3.27l1.85,10.25c-9.92,7.63-21.26,11.99-29.33,11.99s-14.06-4.14-16.24-15.26h-.55Zm-1.31-31.72c-9.49.33-17.23,2.73-20.61,4.36-3.05,1.53-4.14,5.01-4.14,8.61,0,7.96,5.56,15.48,11.77,15.48,3.05,0,8.07-2.51,12.97-6.32v-22.13Z"/><path class="cls-5" d="m355.66,655.66c.32-1.62,1.53-3.15,2.59-3.7,1.53,1.34,3.47,2.59,5.88,2.59,2.08,0,5.09-1.81,7.45-13.61l9.72-48.33c.97-5.09.56-6.25-3.38-6.44l-3.33-.19.6-3.06h23.8l-.65,3.06-3.33.19c-4.03.18-4.95,1.43-5.93,6.44l-3.47,17.18c-2.04,10.32-2.69,14.54-5.51,28.84-1.39,6.85-4.86,13.19-10.05,17.68-3.33,2.87-6.76,4.81-9.68,4.81-3.43,0-5.32-2.5-4.72-5.46"/><path class="cls-5" d="m418.76,622.65c3.56-6.2,5-10.28,6.02-14.21l.37-1.43c.65-2.31-2.5-4.17-6.94-4.17-6.25,0-10.88,6.2-12.82,15.88-1.94,9.68-1.16,16.76,2.04,16.76,2.55,0,7.18-5.51,11.34-12.82m-21.62-.65c2.82-14.03,12.5-23.84,23.8-23.84,1.9,0,4.49.23,6.71.74.97.19,1.76.32,2.22.32.88,0,1.34-.37,1.99-2.08l.79-1.99,3.43.93c-1.53,4.17-4.03,12.18-5.19,17.78l-.83,3.94c-2.96,14.21-2.27,19.17-.88,19.17,1.02,0,3.1-1.76,5.18-3.98l1.3,2.41c-2.82,3.7-7.04,7.22-11.81,7.22-3.66,0-4.68-4.49-1.43-20.14l-.23-.05c-7.45,14.86-13.29,20.18-18.61,20.18-6.44,0-8.8-8.89-6.44-20.6"/><path class="cls-5" d="m442.59,620.47c2.82-13.84,12.82-22.32,22.92-22.32,4.35,0,8.01,1.94,7.41,4.86-.46,2.22-2.92,4.44-3.7,4.44-2.87-2.18-5.46-3.8-8.29-3.8-5.93,0-9.21,9.86-10.14,14.4-2.08,10.19-.65,18.1,4.54,18.1,2.64,0,6.57-1.94,12.59-5.6l1.44,2.18c-5.56,6.3-12.82,9.86-17.5,9.86-7.87,0-11.85-9.35-9.26-22.13"/><path class="cls-5" d="m503.47,622.37c1.25-6.48,1.99-20.51-6.02-20.51-5.56,0-10.6,7.73-12.5,17.5-1.25,6.62-1.39,19.49,6.62,19.49,5.28,0,10.09-7.36,11.9-16.48m-26.9-2.82c2.45-11.99,11.48-21.39,21.8-21.39,12.87,0,15.79,12.36,13.61,23.06-2.41,11.99-11.39,21.39-21.71,21.39-12.92,0-15.83-12.5-13.7-23.06"/><path class="cls-5" d="m546.57,619.78c1.67-8.15.7-14.4-3.43-14.4-3.57,0-7.27,3.94-10.83,10.46-3.29,5.97-4.86,10.51-6.16,17.92-.42,2.55,2.22,4.12,6.81,4.12,6.99,0,11.81-9.12,13.61-18.1m-18.42-31.39c.46-2.5.46-3.61-.51-4.44l-3.66-3.15.23-1.25,14.31-3.61c-1.48,5-2.22,8.43-4.31,17.92l-1.2,5.37c-1.39,6.34-2.5,11.39-3.61,15.65l.23.09c5.88-11.34,10.97-16.81,17.31-16.81,6.94,0,10.14,6.71,7.87,17.96-3.01,15.28-13.15,26.48-24.91,26.48-3.19,0-7.22-.69-12.18-2.36l10.42-51.85Z"/><path class="cls-5" d="m593.93,641.91l-4.63-47.69c-.6-6.39-1.48-8.01-5.55-8.19l-1.16-.05.6-3.06h24.12l-.65,3.06-4.12.28c-5.28.32-6.11,1.85-5.6,7.22l3.19,35.32,21.34-45.92h4.07l6.53,46.67,10.28-23.06c3.24-7.22,5.97-13.57,6.48-16.3.51-2.73-.83-3.84-5.28-4.03l-3.75-.19.6-3.06h23.98l-.6,3.06-1.06.14c-4.17.42-6.16,1.9-9.21,8.19l-23.38,47.59h-4.03l-6.3-45.79-21.85,45.79h-4.03Z"/><path class="cls-5" d="m671.24,584.22c.6-2.55,2.64-4.26,5.23-4.26,3.06,0,4.95,2.36,4.44,5.65-.46,2.78-2.55,4.68-5.37,4.68-3.01,0-5.09-2.64-4.3-6.06m-4.4,58.38c-3.24,0-4.86-2.13-4.17-5.46l5.37-26.39c1.11-5.51.88-6.85-.19-6.85s-2.55.83-6.34,4.58l-1.39-2.31c3.19-4.4,8.29-8.01,12.5-8.01,1.94,0,4.26.74,4.77,2.59l-6.02,29.4c-1.16,5.56-.51,6.71.42,6.71,1.16,0,3.29-1.57,6.34-4.58l1.44,2.27c-2.73,3.84-7.78,8.06-12.73,8.06"/><path class="cls-5" d="m684.24,635.61c.28-1.57,1.2-2.87,2.31-3.43,2.55,3.38,6.2,5.23,9.54,5.23,3.06,0,5-1.62,5.6-4.54.6-3.1-.51-6.02-5.79-10.55-6.06-5.19-7.22-8.52-6.44-13.15.88-5.65,8.01-11.02,15.05-11.02,4.77,0,8.1,2.27,7.59,4.95-.32,1.62-1.44,3.01-2.96,3.94-2.64-2.55-5.79-4.03-8.24-4.03s-4.4,1.62-4.82,4.03c-.56,2.96.65,5.83,6.07,10.65,5.97,5.23,6.99,8.47,6.11,12.96-1.3,6.62-8.47,11.94-15.74,11.94-5.51,0-9.07-3.01-8.29-6.99"/><path class="cls-5" d="m730.26,614.83c6.11-1.85,9.49-4.49,10-7.55.46-2.73-1.48-4.95-3.94-4.95-3.98,0-9.81,4.68-11.71,14.03v.19l5.65-1.71Zm-13.7,5.56c2.59-13.38,12.64-22.22,22.59-22.22,5.55,0,9.07,4.03,8.06,9.17-1.06,5.18-5.97,8.43-15.42,10.97l-7.82,2.13c-1.16,9.63.79,15.79,5.14,15.79,2.59,0,9.17-3.24,12.78-5.69l1.44,2.22c-5.23,5.28-12.87,9.86-17.59,9.86-7.82,0-11.53-9.91-9.17-22.22"/></g></svg>