<?xml version="1.0" encoding="utf-8"?>
<!-- Generator: Adobe Illustrator 27.4.0, SVG Export Plug-In . SVG Version: 6.00 Build 0)  -->
<svg version="1.1" id="Small_Sticker" xmlns="http://www.w3.org/2000/svg" xmlns:xlink="http://www.w3.org/1999/xlink" x="0px"
	 y="0px" viewBox="0 0 1080 1080" style="enable-background:new 0 0 1080 1080;" xml:space="preserve">
<style type="text/css">
	.st0{fill:url(#SVGID_1_);}
	.st1{fill:#C7EAFB;}
	.st2{fill:url(#SVGID_00000005980297087732012360000002663336579922823046_);}
	.st3{fill:#EE2B56;}
</style>
<linearGradient id="SVGID_1_" gradientUnits="userSpaceOnUse" x1="109.9627" y1="542.3849" x2="957.5527" y2="542.3849" gradientTransform="matrix(0.9929 -0.1189 -0.1189 -0.9929 66.9378 1142.2856)">
	<stop  offset="0" style="stop-color:#AB2254"/>
	<stop  offset="0.11" style="stop-color:#BB2454"/>
	<stop  offset="0.39" style="stop-color:#E02955"/>
	<stop  offset="0.54" style="stop-color:#EE2B56"/>
	<stop  offset="0.65" style="stop-color:#E52955"/>
	<stop  offset="0.82" style="stop-color:#CD2655"/>
	<stop  offset="1" style="stop-color:#AD2255"/>
</linearGradient>
<circle class="st0" cx="539.8" cy="539.4" r="431.2"/>
<path class="st1" d="M453.5,251.7c2.6-6.8,6.4-17.7,9.9-28.9c-4.4,0.3-8.5,0.9-13.2,1.9c-0.2,0.6-0.6,1.1-0.9,1.7
	c-3.2,6-5.2,8.9-7.7,11c4.5,0.3,9.6-0.9,13.1-3.6c-2,13.3-8,19.6-18.8,20.1c-5.9,0.2-11.4-0.5-14.1-1.5c5-14.6,14.3-35.1,23.5-48.1
	c6.6-9.2,10.3-13.5,14.3-16.7c-7.5,1.8-12.2,5.6-17.4,11.1c0.6-17.4,10-27.9,26.1-28.5c16.1-0.6,19.3,6.6,19.8,15.6
	c0.4,10.2-6.2,34.9-15.2,49.9c5.8-2.9,9.3-5.3,13.3-10.4c-1.1,19.2-9.3,27.1-20.8,27.5C460.4,253.2,456.6,252.5,453.5,251.7
	L453.5,251.7z M467.7,209.5c3-9.8,5.4-18.6,6.1-22.8c-1.1-0.1-2.1,0-3-0.1c-4.6,6.9-8.6,15-13.4,24.3
	C460.4,210.3,463.8,209.8,467.7,209.5L467.7,209.5z"/>
<path class="st1" d="M507.7,245.2c-1-7.2,3.5-22.2,17.2-42.1c-5.9,3.6-8.6,6.3-12.8,10.2c-4.9,12.1-7.6,23.5-9.2,33.9
	c-5,3.7-12.8,5.6-20,5.2c1.9-16.1,15-40.2,22-48.1c-5.7,2.5-11.3,8.9-16,16.9c0.8-19.1,9.9-34.8,20.6-35.2c6.7-0.3,9,6.1,4.1,17.3
	c7-12.4,13.8-18,19.7-18.3c5.5-0.2,8.4,3.2,8.7,8.9c0.7,11.6-11.6,28.9-20.1,39.4c6.5-3.8,11.6-8,16.4-15.8
	c-2.7,21.9-12.5,33.3-22.6,33.7C511,251.4,508.2,249,507.7,245.2L507.7,245.2z"/>
<path class="st1" d="M559.6,243.2c-1-7.2,3.5-22.2,17.2-42.1c-5.9,3.6-8.6,6.3-12.8,10.2c-4.9,12.1-7.6,23.5-9.2,33.9
	c-5,3.7-12.8,5.6-20,5.2c1.9-16.1,15-40.2,22-48.1c-5.7,2.5-11.3,8.9-16,16.9c0.8-19.1,9.9-34.8,20.6-35.2c6.7-0.3,9,6.1,4.1,17.3
	c7-12.4,13.8-18,19.7-18.3c5.5-0.2,8.4,3.2,8.7,8.9c0.7,11.6-11.6,28.9-20.1,39.4c6.5-3.8,11.6-8,16.4-15.8
	c-2.7,21.9-12.5,33.3-22.6,33.7C562.9,249.4,560.1,246.9,559.6,243.2L559.6,243.2z"/>
<path class="st1" d="M590.3,238.4c-1.6-12.9,5.9-35.8,21-50.5c4.9-4.9,13.1-6.6,19.5-6.8c4.1-0.2,8.9,0.4,13.2,1.3
	c-3.9,19.1-9.5,33.4-18,46.3c6-3.1,10.5-8.4,13.8-15.5c0.3,17.2-8,33.7-18.5,34.1c-8.5,0.3-9.2-9-4.7-21.6
	c-5.8,12-10.5,22.2-18.6,22.5C593.8,248.3,591.1,244.8,590.3,238.4L590.3,238.4z M626.1,198.1c-4.1-0.2-7.9,0.7-9.6,2.4
	c-2.7,2.9-7.6,14.4-10.5,28.6C615,216.9,623.7,201.2,626.1,198.1L626.1,198.1z"/>
<path class="st1" d="M389.2,314.2c-1,0.3-1.9,0.4-2.9,0.7c-3.1,8.8-6.4,17.1-8.8,21.7c2.4-0.2,5-1.5,7-3
	c-1.3,17.3-8.1,19.4-17.2,19.8c-5.6,0.2-9.2-0.1-14.7-1c2.2-8.4,5.1-12.5,10.5-16.9c6.2-20.5,12.5-39.6,19.5-48.8
	c-6.5,1.5-10.2,4.2-15,10.3c0.4-19.7,9.5-26.5,20.5-26.9c5-0.2,9,0.2,13.2,1.2c-1,2.6-1.9,5.5-5,14.8c-1,2.8-2.9,8.6-5.2,15.5
	c1.7-0.7,3.2-1.2,4.1-1.5c4.6-5.8,10.2-15.8,14-27.9c5.4-3,15.1-4.1,21.4-3.3c-7.9,18.9-16.9,30.2-28.3,40.1c0,8.5,0.6,17.5,2,23.7
	c4.5-3.9,7.9-10.3,11.2-17.6c3.6,21.4-4.3,36.6-15.9,37.1C387.7,352.8,387.1,335.2,389.2,314.2L389.2,314.2z"/>
<path class="st1" d="M442.6,274.6c-5.1,2.9-8.5,5.9-12.2,11.4c0.3-19.6,9.4-27.7,16.6-28c6.2-0.2,9,3.2,9.5,8.6
	c0.7,9.7-6,22.2-12.5,35.2c8.3-12,15.7-17,21.3-17.2s8.3,3.3,8.5,9.3c0.4,11.2-11.2,28.1-19.7,38.7c6.7-3.5,11.5-8,16-15.7
	c-2.7,21.9-11.8,33.3-22.1,33.7c-5.5,0.2-8.2-2.5-8.5-7.8c-0.2-6.1,3.7-20.1,16.5-39.5c-4.8,2.7-8.8,5-13.1,10.7
	c-4.7,10.8-7.8,22.3-8.5,32.9c-4.1,3.2-11.2,5.5-19.1,5.1C417.1,337.1,430.4,296.9,442.6,274.6L442.6,274.6z"/>
<path class="st1" d="M470,335c-0.5-13.5,8.1-28.5,20.6-35.8c-5.2,0.9-10.9,3.3-15.4,7.9c2.9-14.8,14.1-23.8,26.5-24.2
	c9.7-0.4,17.2,4.1,17.6,15.8c0.8,20.1-15.6,50.2-34.5,50.9C475.1,350,470.3,343.5,470,335L470,335z M493.9,328
	c3.1-3.9,8.7-17.5,11.9-28c-1-0.5-2.5-0.9-4.3-1c-6.6,8.9-12.5,21.8-14.3,33C490.1,331.3,492,330.4,493.9,328L493.9,328z"/>
<path class="st1" d="M535.8,299.9c-7,3.4-12.6,11.2-15.9,16.9c1.5-23.9,12.2-38,27.9-35c-1.6,5.6-3.7,10.7-5.6,16.1
	c6.8-12.5,12.1-16.8,16.8-16.9s6.9,3.5,6.3,11.2c-1.5,12.2-8.3,24.9-20.2,30.6c1.8-6,3.2-13.6,3.9-21.7
	c-6.6,5.2-10.6,13.7-13.3,42.3c-5.3,3.1-12.3,4.7-20.1,4.7C518,332.1,526.1,312.5,535.8,299.9L535.8,299.9z"/>
<path class="st1" d="M557.9,336.4c-1.6-12.9,5.9-35.8,21-50.5c4.9-4.9,13.1-6.6,19.5-6.8c4.1-0.2,8.9,0.4,13.2,1.3
	c-3.9,19.1-9.5,33.4-18,46.3c6-3.1,10.5-8.4,13.8-15.5c0.3,17.2-8,33.7-18.5,34.1c-8.5,0.3-9.2-9-4.7-21.6
	c-5.8,12-10.5,22.2-18.6,22.5C561.4,346.4,558.7,342.8,557.9,336.4L557.9,336.4z M593.7,296.1c-4.1-0.2-7.9,0.7-9.6,2.4
	c-2.7,2.9-7.6,14.4-10.5,28.6C582.5,314.9,591.3,299.3,593.7,296.1L593.7,296.1z"/>
<path class="st1" d="M607.2,332.4c-0.2-5.6,1.7-10.1,5.8-17.2c1.9,9,6.3,12.4,18.2,11.9c-6.4-8.2-16.5-18.8-14.8-31.3
	c1.3-9.8,8.3-17.7,19.8-18.1c9.5-0.4,14.1,5.5,14.3,12.8c0.2,4.9-1.3,10.1-4.3,15c-2.2-7.8-6.8-12.9-19.2-12.5
	c10.4,11.9,18.5,20.9,16.3,33.5c-1.6,9.2-9.5,17.4-21.9,17.9C611.3,344.7,607.4,339,607.2,332.4L607.2,332.4z"/>
<path class="st1" d="M670.6,265.7c-5.1,2.9-8.5,5.9-12.2,11.4c0.3-19.6,9.4-27.7,16.6-28c6.2-0.2,9,3.2,9.5,8.6
	c0.7,9.7-6,22.2-12.5,35.2c8.3-12,15.7-17,21.3-17.2s8.3,3.3,8.5,9.3c0.4,11.2-11.2,28.1-19.7,38.7c6.7-3.5,11.5-8,16-15.7
	c-2.7,21.9-11.8,33.3-22.1,33.7c-5.5,0.2-8.2-2.5-8.5-7.8c-0.2-6.1,3.7-20.1,16.5-39.5c-4.8,2.7-8.8,5-13.1,10.7
	c-4.7,10.8-7.8,22.3-8.5,32.9c-4.1,3.2-11.2,5.5-19.1,5.1C645.1,328.1,658.5,288,670.6,265.7L670.6,265.7z"/>
<linearGradient id="SVGID_00000170968162433576182470000016145484019194629002_" gradientUnits="userSpaceOnUse" x1="102.823" y1="540.1315" x2="976.0554" y2="540.1315" gradientTransform="matrix(0.9996 2.792164e-02 2.792164e-02 -0.9996 -14.5254 1064.2389)">
	<stop  offset="0.11" style="stop-color:#9AB0D5"/>
	<stop  offset="0.48" style="stop-color:#C7EAFB"/>
	<stop  offset="0.84" style="stop-color:#9AB0D5"/>
</linearGradient>
<path style="fill:url(#SVGID_00000170968162433576182470000016145484019194629002_);" d="M527.6,975.8
	c-58.9-1.7-115.8-14.8-168.9-39.1c-51.4-23.4-97.1-56.2-136.1-97.4c-39-41.2-69.1-88.8-89.7-141.4c-21.2-54.5-31.2-111.9-29.5-170.8
	s14.8-115.8,39.1-168.9c23.4-51.4,56.2-97.1,97.4-136.1s88.8-69.1,141.4-89.7c54.5-21.2,111.9-31.2,170.8-29.5
	c58.9,1.7,115.8,14.8,168.9,39.1c51.4,23.4,97.2,56.2,136.1,97.4c39,41.2,69.1,88.8,89.7,141.4c21.2,54.5,31.2,111.9,29.5,170.8
	c-1.7,58.9-14.8,115.8-39.1,168.9c-23.4,51.4-56.2,97.2-97.4,136.1c-41.2,39-88.8,69.1-141.3,89.7
	C644,967.5,586.5,977.5,527.6,975.8L527.6,975.8z M551.7,113.8c-57.5-1.6-113.5,8.1-166.6,28.8c-51.3,20-97.6,49.4-137.8,87.4
	s-72.1,82.6-95,132.7c-23.7,51.8-36.5,107.3-38.1,164.7C112.6,584.9,122.3,641,143,694c20,51.3,49.4,97.7,87.4,137.8
	s82.6,72.1,132.7,95c51.8,23.7,107.3,36.5,164.7,38.1c57.5,1.6,113.5-8.1,166.6-28.8c51.3-20,97.7-49.4,137.8-87.4
	s72.1-82.7,95-132.7c23.7-51.8,36.5-107.3,38.1-164.7s-8.1-113.5-28.8-166.6c-20-51.3-49.4-97.6-87.4-137.8s-82.7-72.1-132.7-95
	C664.6,128.2,609.2,115.4,551.7,113.8L551.7,113.8z"/>
<path class="st3" d="M944.6,398.1c-5.2,0.5-12.1,0.4-20.8,0.1c-13.3-0.2-23.3,0-30.5,0.6c-17,1.4-28.2,8.4-34.9,14.7
	c-2.6-1.5-5.4-2.9-8.3-4.1c-12-5.1-25.6-7.2-40.4-6.2c-16.4,1.1-31.4,5.5-44.7,13c-1,0.6-2.1,1.2-3.1,1.9
	c-7.6-5.7-16.8-8.5-26.2-7.9c-6.1,0.4-12,2.2-17.2,5.2l-16.7,2.3c-4.4-2.4-10.1-4.2-16.9-3.8l0,0l-13.3,0.7c0.5-4.5-0.1-10.7-2-16.7
	c-8.4,8.5-16.2,15.4-28.3,19.5c-4.1,1.3-9.4,2.3-12.8,2.5c-1,0.1-5.6,0.2-22.5-0.3c-7-0.2-14.2-0.3-21.4-0.3
	c-7.9,0-14.3,0.3-19.8,0.8c-4.5,0.4-20.5,2-24.5,3.1c2.4-6.3,1.7-11.6-0.2-17.2c-9.1,9.6-22.2,15.2-35.5,18.8
	c-5.3,1.3-9.1,2-21.2,2.8l-17.8,1.2c-12.6,0.8-23.2,1.9-32.6,3.2c-10.3,1.6-19.3,4.3-27,8.2l-7,0.2c-1.9-5.8-6.3-11.1-13.2-15.7
	c-2.9,7.2-5.8,12.2-10.1,18.7c-10.5-2.6-18.5-4.5-24.3-5.6c-9-1.7-18.1-2.3-27-1.7c-21,1.4-33.2,10.5-39.8,17.9
	c-0.1,0.1-0.2,0.2-0.2,0.3c-12.9-10-31.8-16.5-66.7-9.6c-0.4-3.7-2.5-7.8-6.4-10.6c-6.3,6.7-19.6,11.2-30.1,13.7c0,0-1,0.4-3.3,0.8
	c-4,0.6-9.4,1.2-15.5,1.7c-8.5,0.6-15.2,1.3-20.5,2.4c-14.2,2.7-25.4,9-33.3,18.6c-8.2,10-12,22-11.2,34.9
	c0.8,12,5.5,23.4,13.7,33.2l1.6,2l-4.3,14.2c-3.8,12.6-6,18.2-7,20.4c-12.6,5.5-29.5,6.9-41,4.2c2,15.8,5.8,27.8,13.6,41.6
	c9.7,14.5,24.2,22.3,39.8,21.3c1.5-0.1,3.1-0.3,4.9-0.6c3,2.3,5.8,4.3,8.2,6.1c7.2,5.2,15.9,10,25.8,14.1c12,5,24.2,7.1,36.5,6.3
	c12.8-0.8,23.9-5.1,32.9-12.8c7.2-6.1,12.6-13.8,16-22.8c6.1-1.8,11.9-4.5,17.6-7.9c10.3,6.5,19.8,7.5,26.2,7.1
	c3.2-0.2,6.3-0.8,9.4-1.7c7,4.2,13.6,7.9,20,11.1c-2.8,0-5.8-0.1-9.1-0.2c-13.4-0.2-23.4-0.1-30.5,0.6c-18.6,1.5-30.2,9.8-36.7,16.4
	c-7.4,7.6-15.6,21.1-13.2,42.6l6.6,57.6c-1.4,4.8-2.6,8-3.4,10.2c-4.1,1.2-7.8,2.9-11.2,5c-8.1,5.1-14.5,12.7-19.1,22.6
	c-7.5,18.2-10.4,30.9-11.3,43.3c16.5-2.1,30.9-3.4,47.4-4c2.2-0.1,8.9-0.2,10.2-0.2c1.6,0,3,0,4.4,0c6.8,0.2,11.7,0.1,15.5-0.1
	c14.9-1,26.8-5.9,35.3-14.7c1.3-1.3,2.5-2.7,3.6-4.1c1.9,2.2,3.9,4.3,6.2,6.1c6.3,5.1,17.3,10.9,33.6,9.8c2.2-0.1,60.1-5.9,60.1-5.9
	c0.9-0.1,2.3-0.2,3.8-0.3l14.1-0.8c8.2-0.5,15-2.2,21-4.9c6,2.6,13.6,4.4,23.2,3.8c6.5-0.4,25.7-6.3,25.7-6.3l-2.6,14.1
	c7.9-3.3,16-6.3,25-8.4l40.4-6.5l-2.4,4.5l58.4-10.2c2.5-0.5,5.8-0.8,9.6-1.1c4.6-0.3,8.2-0.5,10.8-0.5l16.2-0.8
	c10-0.7,18.2-2.5,25.1-5.5c0.3-0.1,0.5-0.2,0.8-0.4c6,2.6,12.4,3.7,19,3.3c1.5-0.1,3.1-0.3,4.9-0.6c3,2.3,5.8,4.3,8.2,6.1
	c7.2,5.3,15.9,10,25.8,14.1c12,5,24.2,7.1,36.5,6.3c12.8-0.8,23.9-5.1,32.9-12.8c7.1-6,12.4-13.4,15.8-22.2c4.5-1,8.7-2.5,12.4-4.3
	c8.6-4.3,15.6-11.1,20.2-19.6c2.8-5.2,4.2-10.1,4.5-15.8l9.7-38.4c8-8,14.8-15.7,20.5-23c14.2-18.1,21-35.8,20.1-52.8
	c-0.8-15.3-7.8-24.6-13.6-29.6c-8.1-7.1-18.3-10.7-28.8-10c-4.6,0.3-9.1,1.4-13.2,3.2c-5.6-2.2-12.3-2.3-21.2-1.5
	c7.5-6.2,20.8-11.4,38-15.1c1.4-0.3,3.9-0.6,7.7-0.9c0.6,0,4.7-0.2,21.1,0.4l0.7,0c1.6,0,5.5,0.1,11.6,0.3
	c7.5,0.2,13.7,0.2,18.9-0.1c24.9-1.7,36.8-15.1,41.6-22.9c6.9-11.1,9.5-25.3,7.7-42.3l-3.3-32.1l12.5-35.8c1.3-1,2.5-2.1,3.7-3.2
	c7.5-7.3,12.6-16.9,14.7-27.7c2-11.3,3.2-27,3.1-49.2C984.9,389.1,964.3,396.5,944.6,398.1"/>
<path class="st1" d="M294.1,740.1c4.4-0.3,8-1.6,10.9-4c2.9-2.4,5.2-6.2,7.1-11.5c-6.4,2.9-13,4.6-19.7,5
	c-4.9,0.3-11.6,0.2-20.2-0.4l4.7-16.4c2.2-7.4,4.5-13.5,6.9-18.3c2.3-4.8,5.2-9.4,8.5-13.8c-6,0.9-11.3,4.1-15.7,9.5
	c-4.4,5.4-8.3,13.9-11.5,25.3l-12.8,44.2c-2.5,8.6-4.8,15-6.7,19.1c-1.9,4.1-4.1,7.9-6.4,11.3l-0.4,0c-6.1-0.1-10.8,0.8-14,2.9
	c-3.2,2-5.9,5.4-8.1,10.1c3.7-1.2,7.8-1.9,12.3-2.2c2.8-0.2,5.3-0.3,7.4-0.3c2.1,0,3.8,0,5.1,0c5.7,0.1,10,0.1,12.8-0.1
	c7.5-0.5,12.9-2.5,16.3-5.9c3.4-3.5,5.9-9.6,7.5-18.4c-2.9,3.5-5.6,6.3-8.2,8.1c-2.6,1.8-5.8,3.2-9.4,4.1c-3.7,0.9-8.6,1.4-14.9,1.6
	c7.3-4.6,13.3-14.7,17.8-30.3l7-24.2c5.2,1.7,9.5,3,13.1,3.8C286.9,740.1,290.5,740.3,294.1,740.1 M246.2,692
	c3.4-5.7,7-9.7,10.9-12.1c3.9-2.4,9.1-3.8,15.6-4.2c4.2-0.3,8.9-0.3,14-0.2c5.1,0.2,8.4,0.3,9.9,0.3c9.6,0.5,17.5,0.6,23.5,0.2
	c7.4-0.5,12.6-2.3,15.9-5.4c3.2-3.1,5.3-7.2,6.3-12.2c-2.5,1.8-5.4,3.3-8.8,4.4c-3.4,1.1-7.8,1.8-13.4,2.2c-6.2,0.4-14,0.5-23.3,0.2
	c-12.2-0.2-21.4-0.1-27.6,0.5c-7.7,0.6-13.8,3.2-18.1,7.6S245.3,683.9,246.2,692 M410.9,790.7c4.6-0.3,8.2-1.1,10.8-2.4
	s4.6-3.4,6.1-6.4c1.5-3,2.5-7.5,3.2-13.3c-3,4.2-5.9,7.2-8.7,9c-2.9,1.8-6.9,2.8-12.2,3l-1.9,0.1c5.6-4.8,10-14.9,12.9-30.4l1.7-9
	l2.9-0.2c4.6-0.3,8.6-1.9,11.8-4.8c3.2-2.9,5.3-7.3,6.2-13.3c-5.3,5.8-11.7,8.9-19.2,9.4c3-16.4,5.9-30.6,8.6-42.6
	c2.7-12,5.5-21.5,8.4-28.2c3.4-1.9,5.8-5.1,7.1-9.6c-6.2,2.6-15.1,4.3-26.9,5.1l-17.8,1.2c-11.7,0.8-21.8,1.8-30.1,3
	c-12.1,1.8-20.8,5.6-26.3,11.2s-7.9,12.4-7.4,20.4c0.3,4.7,1.7,8.6,4.2,12c2.5,3.3,5.5,5.8,9.1,7.4c-2.4-4.9-3.8-9.8-4.1-14.9
	c-0.2-2.6-0.1-4.9,0.3-7c0.8-5.1,3.3-9.3,7.5-12.5c4.2-3.2,11-5.7,20.3-7.4c5.5-1,15.9-2,31.3-3c9.7-0.6,15.9-1.2,18.7-1.6
	c2.8-0.4,4.9-0.8,6.1-1.2c-4,6.9-7.3,15.3-10,25.4s-5.8,24.3-9.4,42.5l-5.5-0.4c-5-0.5-8.4-0.6-10.3-0.5c-7,0.5-11.6,4.1-13.8,11
	c2.9-1.5,6.3-2.4,10.3-2.6c2.2-0.2,4.8-0.1,7.7,0.1c2.9,0.2,4.9,0.3,6,0.4l4.1,0.3l-2.6,13.2c-1.7,8.3-3.1,14.4-4.4,18.3
	c-1.3,3.9-2.6,7-3.9,9.3c-4.8,1.2-8.7,4.8-11.5,10.7c1.4-0.2,3.7-0.4,6.8-0.6L410.9,790.7L410.9,790.7z M321.4,765.3
	c-5.2,6-7.5,12.2-7.1,18.3c0.3,4.4,2.1,7.9,5.4,10.5s7.7,3.8,13.2,3.4c6.7-0.5,12.7-3,17.9-7.7c5.2-4.7,10.1-11,14.7-18.8
	c4.6-7.9,11-20,19.1-36.3l11-22.1c10.5-20.9,20.4-34.5,29.7-40.8c-8.1,0.5-14.9,3.8-20.3,9.7c-5.4,5.9-11.5,15.5-18.3,28.8
	l-11.2,22.1l-5.3,10.5c-6.5,13-11.4,22.3-14.6,28c-3.2,5.7-6.4,10-9.5,13c-3.2,3-6.8,4.6-10.9,4.9c-3.7,0.2-6.9-1-9.6-3.8
	c-2.6-2.8-4.1-6.8-4.5-11.9C320.8,770.9,321,768.3,321.4,765.3 M455.1,789.5c10.5-0.7,19.5-5.9,27.1-15.6c7.6-9.7,14.8-24,21.4-43
	l12.9-36.8c4.6-13,8.7-22.7,12.2-29.2c-3.8,1.7-7.2,4.6-10.2,8.7c-3,4.2-6.1,10.2-9.2,18.2l-14.3,36.7c-4.8,12.4-9,22.2-12.9,29.5
	c-3.9,7.3-7.7,12.8-11.5,16.5c-3.8,3.7-8,5.7-12.5,6c-3.7,0.2-6.9-1-9.6-3.8c-2.6-2.8-4.1-6.8-4.5-11.9c-0.1-2.1,0-4.6,0.5-7.6
	c-2.6,3.2-4.6,6.3-5.8,9.5c-1.2,3.2-1.7,6.3-1.5,9.2c0.3,4.4,2,7.8,5.2,10.3C445.6,788.7,449.9,789.8,455.1,789.5 M465.5,684.4
	c0.3,4.7,1.7,8.6,4.2,12c2.5,3.3,5.5,5.8,9.1,7.4c-2.4-4.9-3.8-9.8-4.1-14.9c-0.2-2.6-0.1-4.9,0.3-7c0.8-5.1,3.3-9.3,7.5-12.5
	c4.2-3.3,11-5.7,20.3-7.4c3.2-0.6,6.7-1.1,10.6-1.6c3.8-0.5,6.6-0.8,8.3-1c7.5-0.8,12.8-1.5,16.2-2.2c-1.4,2.4-2.4,5.3-3.1,8.6
	c-0.7,3.3-1.5,8.5-2.5,15.7l-3,22.7c-4.5,36-8.2,62.3-11.3,78.9c2.9-1,5.3-2.3,7.2-4.1c1.9-1.7,4.3-5.2,7.2-10.3
	c12.4-21.9,31.5-54.6,57.2-98c-1.5,5.5-3.9,17-7.2,34.3c-2.9,15-5.4,26.5-7.4,34.7c-2,8.2-4.1,14.6-6.2,19.3
	c-2.1,4.7-4.7,8.8-7.8,12.4c-3.3,1-5.8,2.2-7.3,3.7c-1.6,1.5-3.1,3.7-4.6,6.6c1.4-0.2,3.7-0.4,6.8-0.6l13.9-0.7
	c5.5-0.4,10-1.3,13.2-2.7c3.3-1.5,5.9-3.9,7.9-7.2s3.3-8.2,3.9-14.6c-3.4,4.8-6.8,8.2-10,10.4c-3.2,2.2-8.3,3.7-15.2,4.7
	c3.6-2.7,6.4-6,8.6-10c2.1-4,4.3-9.5,6.4-16.5c2.2-7.8,5-20.9,8.5-39.2c2.1-11.2,4.2-21.3,6.2-30.3c3-13.5,5.8-24.5,8.3-32.8
	c-3.7,1.5-7,3.5-9.9,5.9c-3,2.4-5.1,4.7-6.5,7c-17.2,28.5-34,57.1-50.5,85.7c-2.6,4.2-5.2,8.7-8,13.5c3.7-25.6,6.9-50,9.5-73.1
	l0.5-4.1c0.6-5,1.2-9.6,1.8-13.9c0.6-4.3,1.3-7.6,2.1-9.8c2-1.8,3.4-4.4,4.3-7.9c-2.1,1.3-4.4,2.2-6.8,2.8c-2.4,0.5-5.7,1-9.8,1.4
	c-2.7,0.3-6.6,0.6-11.8,1c-10.6,1-18.3,1.8-23.1,2.5c-12.1,1.6-20.8,5.2-26.3,10.9C467.4,669.4,465,676.3,465.5,684.4 M636.2,774.3
	c6.5-0.4,11.5-1.4,15-3c3.6-1.6,6.2-4.2,7.8-7.9c1.6-3.7,2.4-8.9,2.3-15.8c-3,4.9-5.9,8.4-8.6,10.7c-2.7,2.3-5.9,3.8-9.6,4.7
	c-3.7,0.9-9.2,1.6-16.4,2.2c3.7-2.5,7-6.5,10-12.3c2.9-5.8,5.9-13.8,9-24.1l12.4-41.8l1.4-4.8c2-7.1,3.8-13,5.3-17.5
	c1.6-4.6,3.6-9.3,6-14.1c4.9-0.7,8.5-2.1,10.8-4.2c2.3-2.1,4.1-5.1,5.2-8.9c-1.9,1-4.5,1.8-7.8,2.3c-3.3,0.5-8.6,1.1-15.8,1.8
	c-9.4,0.9-17,1.9-22.9,3.1c-7.3,1.7-12.6,4.5-16,8.6c-3.4,4.1-5,8.8-4.6,14.1c0.4,5.8,2.7,11.2,6.9,16.3c-0.7-7.2-0.3-12.9,1.4-17.2
	c1.7-4.2,5.2-7.6,10.7-10.1c5.5-2.5,13.8-4.4,25-5.6c-3.1,3.7-5.8,8.1-8.2,13.2c-2.3,5.1-4.9,12.4-7.8,22.1l-12.1,40.8
	c-3.2,10.8-6,19-8.4,24.7c-2.4,5.6-5,10.2-7.7,13.7c-6.7,0.4-11.7,1.5-14.9,3s-6,4.6-8.2,9c3.6-0.6,7.8-1.1,12.7-1.4
	c5.2-0.3,9.2-0.5,12-0.6L636.2,774.3L636.2,774.3z M690.3,756.9c-2.8,2.3-6,3.9-9.5,4.9c-3.5,1-7.8,1.6-13,1.6
	c3.9,5.8,8.3,8.6,13.4,8.2c3.7-0.2,7.4-2,10.9-5.4c8.9,7,16,12.5,21.4,16.5c5.4,3.9,12,7.5,19.8,10.7c7.8,3.2,15.6,4.6,23.3,4.1
	c6.5-0.4,11.8-2.4,15.9-5.9c4.2-3.5,7-8.2,8.6-14.2c-3.9,2.5-7.5,4.3-11,5.6s-7.3,2-11.6,2.3c-7.1,0.5-14.3-0.6-21.7-3.3
	c-7.4-2.7-13.9-5.8-19.7-9.2c-5.7-3.4-12.2-7.7-19.4-12.8c4.1-4.3,7.6-9.2,10.4-14.8c2.8-5.6,5.8-13.8,9.1-24.8l11.1-37.3
	c3.3-11.1,6-19.5,8.2-25.3c2.2-5.8,4.4-10.2,6.7-13.2c6.5-0.3,11-1.4,13.7-3.3c2.7-1.9,4.8-4.9,6.3-9.1c-3.1,1.5-7,2.6-11.6,3.3
	c-4.6,0.7-10.6,1.4-17.9,2c-7.2,0.5-12.9,1.1-17,1.9c-7.3,1.4-12.6,4.2-16,8.3c-3.4,4.2-5,9-4.6,14.4c0.4,5.8,2.7,11.2,6.9,16.3
	c-0.7-7.1-0.4-12.7,1-17c1.4-4.2,4.5-7.7,9.4-10.3c4.9-2.7,12.4-4.6,22.5-6c-5.8,4.7-10.6,13.4-14.6,26.2l-15.5,50.6
	c-3.5,11.5-6.4,19.7-8.6,24.5S692.7,754.8,690.3,756.9 M807.7,721.1l2-6.3c18-15.7,31.9-29.8,41.6-42.2
	c9.7-12.4,14.4-23.5,13.9-33.2c-0.2-4.1-1.4-7.1-3.7-9.1c-2.2-2-4.7-2.9-7.4-2.7c-3,0.2-5.5,1.5-7.6,3.9c5,2,7.6,5.4,7.9,10
	c0,0.5,0,1.6-0.2,3.2c-0.8,6.5-3.5,13.2-7.9,19.8c-4.4,6.7-9.6,13.1-15.6,19.2c-6,6.1-13.8,13.6-23.5,22.6c-3.2-14.7-5-27-5.5-36.9
	c-0.5-10.7,0.5-20,3.1-28c3.5-3.4,5.2-7,5.1-10.7c-1.8,0.2-4.2,0.5-7.2,0.7l-12.2,0.6c-14.3,1-21,8.8-20.2,23.5
	c3.2-5.2,6.5-8.8,9.9-10.8c3.3-1.9,7.6-3.1,12.9-3.4l1.5-0.1c-2.9,6.5-4.1,15.3-3.6,26.2c0.6,12,3.2,27,7.8,45.1l-2,6.5
	c-2.9,9.4-5.6,16.7-8,21.6c-2.4,5-5.3,9.3-8.6,13c-6.2,0.4-10.7,1.5-13.5,3.2c-2.8,1.7-5.4,4.9-7.8,9.5c2-0.4,5.2-0.8,9.5-1
	l11.8-0.6c5.7-0.1,10-0.3,12.8-0.5c5.5-0.4,9.9-1.3,13.2-3c3.2-1.6,5.7-4,7.5-7.3c1.8-3.3,3.4-8,5-14c-4.4,5.2-8.5,8.7-12.1,10.4
	c-3.7,1.8-8.9,2.8-15.6,3.1c3.3-2.1,6-5.5,8.2-10.3S804.4,731.1,807.7,721.1"/>
<path class="st1" d="M116.2,593c-2.8,2.3-6,3.9-9.5,4.9c-3.5,1-7.8,1.5-13,1.6c3.9,5.8,8.3,8.6,13.4,8.2c3.7-0.2,7.4-2,10.9-5.4
	c8.9,7,16,12.5,21.4,16.5c5.4,3.9,12,7.5,19.8,10.7c7.8,3.2,15.6,4.6,23.3,4.1c6.4-0.4,11.8-2.4,15.9-5.9c4.2-3.5,7-8.2,8.6-14.2
	c-3.9,2.5-7.5,4.3-11,5.6s-7.4,2-11.6,2.3c-7.1,0.5-14.3-0.6-21.7-3.3c-7.4-2.7-13.9-5.8-19.6-9.2c-5.7-3.4-12.2-7.7-19.4-12.8
	c4.1-4.3,7.6-9.2,10.4-14.8c2.8-5.6,5.9-13.8,9.1-24.8l11.1-37.3c3.3-11.1,6-19.5,8.2-25.3c2.2-5.8,4.4-10.2,6.7-13.2
	c6.5-0.3,11-1.4,13.7-3.3c2.6-1.9,4.8-5,6.3-9.1c-3.1,1.5-7,2.6-11.6,3.3s-10.6,1.4-17.9,2c-7.2,0.5-12.9,1.1-17,1.9
	c-7.3,1.4-12.6,4.2-16.1,8.4s-4.9,9-4.6,14.4c0.4,5.8,2.7,11.2,6.9,16.2c-0.7-7.1-0.4-12.7,1-17s4.5-7.7,9.4-10.3
	c4.9-2.6,12.4-4.6,22.5-6c-5.8,4.6-10.6,13.4-14.6,26.2l-15.5,50.6c-3.5,11.5-6.4,19.7-8.6,24.5C120.9,587.4,118.6,590.9,116.2,593
	 M215.4,600.9c9.9-0.7,19.3-4.8,28.1-12.5c8.8-7.7,16.1-17.7,21.8-30.1c5.7-12.4,9.3-25.8,10.6-40.2c0.4-5.3,0.5-10.1,0.2-14.4
	c-0.9-13.5-5-23.7-12.4-30.4c-7.4-6.7-16.7-9.7-27.9-8.9c-6.1,0.4-12.1,2.4-18.2,5.9c-6.1,3.5-10.9,8.2-14.5,14.1
	c-3.6,5.9-5,12.4-4.1,19.4c5-8.8,10.5-15.6,16.5-20.5s12.1-7.6,18.1-8c9.1-0.6,16.4,1.8,21.8,7.3c5.3,5.5,8.4,13.7,9.1,24.6
	c0.3,5,0.2,10.1-0.4,15.2c-1.2,11.7-3.9,22.8-8.3,33.1c-4.4,10.3-9.9,18.7-16.7,25.1c-6.8,6.4-14.1,9.9-22.1,10.4
	c-6.3,0.4-11.4-1.3-15.3-5.1s-6.1-9.5-6.6-17.1c-0.1-2.3-0.1-4.8,0.1-7.6c0.6-8.6,2.8-16.4,6.6-23.4s8.7-12.7,14.7-17
	c6-4.3,12.3-7,19-8c-3.8-2-7.8-2.8-12.2-2.5c-6.2,0.4-12.3,3-18.2,7.9c-6,4.9-10.9,11.3-14.8,19.3c-3.9,8-6.2,16.9-6.9,26.5
	c-0.2,1.6-0.1,3.8,0.1,6.8c0.6,9.7,3.8,17.2,9.5,22.7C198.6,599.1,206.1,601.6,215.4,600.9 M303.1,502.2c-0.9-11.1,0.5-19,4.1-23.8
	s10-7.5,19-8.1c10.4-0.7,26.4,1.2,47.8,5.8l-2.3,3.3c-11.3,16.8-23.8,33.4-37.5,49.6s-27.6,31.1-41.7,44.6
	c-5.6,5.3-10.6,9.3-15,12.1c-4.4,2.8-9.1,5-14,6.6c4.2,3.5,8.2,5.1,11.8,4.8c3.7-0.2,8.1-2.3,13-6.1c16.5,11,31.3,19.1,44.3,24.5
	s24.8,7.8,35.5,7.1c8.5-0.6,15.2-3.1,20-7.6c4.8-4.5,7.5-10.2,7.9-17c-2.8,3.4-6.4,6.2-10.9,8.4c-4.5,2.2-9.7,3.5-15.7,3.8
	c-10.2,0.7-22.4-1.5-36.6-6.6c-14.2-5.1-27.1-10.9-38.9-17.5l1.3-1.2c30.8-29.2,59.1-62.5,84.7-99.7c3.4-4.9,5.9-9,7.2-12.2
	c1.4-3.3,2-6.2,1.9-8.8c-0.2-2.7-1.4-5.8-3.5-9.3c-1.5,4.1-4,9-7.4,14.7l-6.7-1.7c-13.5-3.5-23.5-5.9-30.1-7.1
	c-6.6-1.2-13.2-1.7-19.6-1.2c-8.9,0.6-15.5,3.3-19.8,8.1c-4.3,4.8-6.2,10.6-5.8,17.3C296.5,491.3,298.8,497,303.1,502.2
	 M469.6,584.6c4.6-0.3,8.2-1.1,10.8-2.4s4.6-3.4,6.1-6.4c1.5-3,2.5-7.5,3.2-13.3c-3,4.2-5.9,7.2-8.7,9c-2.9,1.8-6.9,2.8-12.2,3
	l-1.9,0.1c5.6-4.8,10-14.9,13-30.4l1.7-9l2.9-0.2c4.6-0.3,8.6-1.9,11.8-4.8c3.2-2.9,5.3-7.3,6.2-13.3c-5.3,5.8-11.7,8.9-19.2,9.4
	c3-16.4,5.9-30.6,8.6-42.6s5.5-21.5,8.4-28.2c3.4-1.9,5.7-5.1,7.1-9.6c-6.2,2.6-15.1,4.3-26.9,5.1l-17.8,1.2
	c-11.7,0.8-21.8,1.8-30.1,3c-12.1,1.8-20.8,5.6-26.3,11.2c-5.5,5.6-7.9,12.4-7.4,20.4c0.3,4.6,1.7,8.6,4.2,12
	c2.5,3.3,5.5,5.8,9.1,7.4c-2.4-4.9-3.8-9.9-4.1-14.9c-0.2-2.6-0.1-4.9,0.3-7c0.8-5.1,3.3-9.3,7.5-12.5c4.2-3.3,11-5.7,20.3-7.4
	c5.5-1,15.9-2,31.3-3c9.7-0.6,15.9-1.2,18.7-1.6c2.8-0.5,4.9-0.8,6.1-1.2c-4,6.9-7.3,15.3-10,25.4c-2.7,10.1-5.8,24.3-9.4,42.5
	l-5.5-0.4c-5-0.5-8.4-0.6-10.3-0.5c-7,0.5-11.6,4.1-13.8,11c2.9-1.5,6.3-2.4,10.3-2.6c2.2-0.2,4.8-0.1,7.7,0.1s4.9,0.3,6,0.4
	l4.1,0.3l-2.6,13.2c-1.7,8.3-3.1,14.4-4.4,18.3c-1.3,3.9-2.6,7-3.9,9.3c-4.8,1.2-8.7,4.8-11.5,10.7c1.4-0.2,3.7-0.4,6.8-0.6
	L469.6,584.6L469.6,584.6z M380,559.3c-5.2,6-7.5,12.2-7.1,18.3c0.3,4.4,2.1,7.9,5.4,10.5c3.3,2.6,7.7,3.8,13.2,3.4
	c6.7-0.5,12.7-3,17.9-7.7c5.2-4.7,10.1-11,14.7-18.8c4.6-7.9,11-20,19.1-36.3l11-22.1c10.5-20.9,20.4-34.5,29.7-40.8
	c-8.1,0.5-14.9,3.8-20.3,9.7c-5.4,5.9-11.5,15.5-18.3,28.8L434,526.4l-5.3,10.5c-6.5,13-11.4,22.3-14.6,28c-3.2,5.7-6.4,10-9.5,13
	c-3.2,3-6.8,4.6-10.9,4.9c-3.7,0.2-6.9-1-9.6-3.8c-2.6-2.8-4.1-6.8-4.5-11.9C379.4,564.8,379.6,562.3,380,559.3 M567.6,577.3
	c7.2-0.5,12.6-2.5,16.2-6c3.6-3.5,6.3-9.5,8.2-17.9c-4.7,4.7-9.7,8.1-14.9,10s-12.1,3-20.8,3.2c3.1-2.7,5.8-6.4,8.2-11.2
	c2.4-4.8,4.7-10.9,6.8-18.3l13.8-47.4c2.4-8.2,4.7-14.5,6.7-18.9c2-4.4,4.8-8.7,8.3-12.8c-6,0.9-11.1,3.9-15.2,9
	c-4.1,5.1-7.9,13.5-11.4,25.4l-13,44.6c-2.8,9.4-4.9,16-6.3,20s-3.2,7.2-5.1,9.8l-1.8-0.1c-7.1,0.5-12.2,1.7-15.4,3.5
	s-5.9,5.3-8.2,10.2c4.2-1.1,8.9-1.8,14-2.1c2.8-0.2,7.5-0.4,14-0.5C557,577.8,562.3,577.7,567.6,577.3 M537.8,470.5
	c3.2-5.9,7-10.1,11.3-12.6c4.3-2.5,10.5-4,18.5-4.5c5.5-0.4,15.5-0.2,29.8,0.4c14,0.6,23.5,0.8,28.4,0.5c7.5-0.5,12.8-2.2,15.9-5
	c3.1-2.9,5.1-7.2,5.8-13.1c-2.6,2-5.5,3.6-8.8,4.9c-3.3,1.2-7.6,2.1-13,2.4c-3.9,0.3-12.3,0.2-25.3-0.3c-6.8-0.2-13.6-0.3-20.5-0.3
	c-6.9,0-12.6,0.2-17,0.6c-8.6,0.8-15.2,3.5-19.7,8.1C538.6,456.1,536.9,462.4,537.8,470.5 M686.2,527.1l2-6.3
	c18-15.7,31.9-29.8,41.6-42.2c9.7-12.4,14.4-23.5,13.9-33.2c-0.2-4.1-1.4-7.1-3.6-9.1c-2.2-2-4.7-2.9-7.4-2.7
	c-3,0.2-5.5,1.5-7.6,3.9c5,2,7.6,5.4,7.9,10c0,0.5,0,1.6-0.2,3.2c-0.8,6.5-3.5,13.1-7.9,19.8c-4.4,6.7-9.6,13.1-15.6,19.2
	c-6,6.1-13.8,13.6-23.5,22.6c-3.2-14.7-5-27-5.5-36.9c-0.5-10.7,0.5-20,3.1-28c3.5-3.4,5.2-6.9,5.1-10.6c-1.8,0.2-4.2,0.5-7.2,0.7
	l-12.2,0.6c-14.3,1-21,8.8-20.2,23.5c3.2-5.2,6.5-8.8,9.9-10.8c3.3-1.9,7.6-3.1,12.9-3.4l1.5-0.1c-2.9,6.5-4.1,15.3-3.6,26.2
	c0.6,12,3.2,27,7.8,45.1l-2,6.5c-2.9,9.4-5.6,16.7-8,21.6c-2.4,5-5.3,9.3-8.6,13c-6.2,0.4-10.7,1.5-13.5,3.2
	c-2.8,1.7-5.4,4.9-7.8,9.5c2-0.4,5.2-0.7,9.5-1l11.8-0.6c5.7-0.1,10-0.3,12.8-0.5c5.5-0.4,9.9-1.3,13.2-3c3.2-1.6,5.7-4,7.5-7.3
	c1.8-3.3,3.4-8,5-14c-4.4,5.2-8.5,8.7-12.1,10.4c-3.7,1.8-8.9,2.8-15.6,3.1c3.3-2.1,6-5.5,8.2-10.2S683,537.1,686.2,527.1
	 M802,508.8c2.7,4.1,7,5.9,12.8,5.6c1.3-0.1,2.3-0.2,3.1-0.4c6.9-1.2,13.4-4,19.4-8.3c6-4.3,10.8-9.8,14.4-16.6s5.6-14.2,5.8-22.2
	c0.2-8.2-1.7-15.4-5.9-21.8c-4.2-6.3-10.2-11.1-18-14.5c-7.8-3.3-16.8-4.6-27-4c-12,0.8-22.7,3.9-32,9.2c-9.4,5.4-16.5,12-21.3,20
	c-4.8,8-7,16.1-6.4,24.5c0.7,11,6.5,17,17.3,18.3c-4.4-5.5-6.8-11.1-7.1-16.8c-0.1-1.7-0.1-2.9,0-3.7c0.3-7.4,2.3-14.2,6-20.4
	c3.7-6.2,9.1-11.2,16.1-15.1c7-3.8,15.3-6.1,25-6.7c8.1-0.5,15.2,0.4,21.4,2.8c6.1,2.4,11,5.9,14.5,10.6c3.5,4.7,5.5,10.1,5.9,16.3
	c0.1,1.8,0.1,3.2,0.1,4.1c-0.3,6.6-2.1,12.8-5.2,18.5c-3.1,5.7-7.7,10.4-13.6,14.1c-6,3.7-13.1,5.8-21.3,6.4L802,508.8L802,508.8z
	 M740.2,566.3c3.9-1.5,9.1-2.5,15.5-3c3.1-0.2,9.5-0.3,19.2-0.3c6.2,0.1,10.1,0.1,11.7,0c8.6-0.6,14.9-2.8,18.9-6.6
	c4-3.8,5.8-10.1,5.5-18.7c-2.6,4-5,7.1-7.3,9c-2.3,2-5,3.4-8.3,4.4s-7.9,1.7-13.8,2.1l-8.1,0.3c3.8-3.1,7.2-7.6,10.3-13.6
	c3-6,5.9-13.5,8.5-22.6l10.5-35.9c2.2-7.8,4.4-14,6.6-18.8c2.2-4.8,5.1-9.2,8.5-13.3c-5.6,0.9-10.5,4-14.7,9.4
	c-4.2,5.4-8,13.8-11.3,25.3l-11.2,38.3c-2.7,9-5.1,15.7-7.4,20.1c-2.3,4.4-4.7,8.2-7.2,11.2l-4.1,0.1c-6.6,0-11.4,1.1-14.3,3.1
	C744.5,558.9,742.1,562,740.2,566.3 M914.7,496.8c4.4-0.3,8-1.6,10.9-4c2.9-2.4,5.2-6.2,7.1-11.5c-6.4,2.9-13,4.6-19.7,5
	c-4.9,0.3-11.7,0.2-20.2-0.4l4.7-16.4c2.2-7.4,4.5-13.5,6.8-18.3c2.3-4.8,5.2-9.4,8.5-13.8c-6,0.9-11.3,4.1-15.7,9.5
	c-4.4,5.4-8.3,13.9-11.5,25.4l-12.8,44.2c-2.3,8.1-4.3,14.1-6,18.1c-1.7,4-3.5,7.4-5.3,10.1l-0.6,0c-10.1,0.7-17.1,5.6-21.2,14.8
	c3.8-1.5,7.3-2.6,10.5-3.2c3.2-0.6,6.9-1,11.2-1.3c3.6-0.2,11.7-0.1,24.1,0.3c1.7,0,5.8,0.1,12.3,0.3s11.8,0.2,15.9-0.1
	c9-0.6,15.2-3.6,18.6-9.1c3.4-5.5,4.5-13.4,3.5-23.8c-3.7,10.5-8.5,17.1-14.2,19.8c-2.1,0.9-4.4,1.6-6.9,1.9
	c-2.4,0.4-5.3,0.6-8.7,0.7c-1.9,0-7.5-0.1-16.7-0.2c-2.3-0.1-5.2-0.2-8.7-0.3c-3.4-0.1-7.3-0.1-11.6-0.1c6-5.2,11-14.5,14.9-27.8
	l6.9-24.2c5.2,1.7,9.5,3,13.1,3.8C907.5,496.8,911.1,497,914.7,496.8 M867.6,448.6c3.4-5.7,7-9.7,10.9-12.1
	c3.8-2.4,9.1-3.8,15.7-4.2c4.2-0.3,8.9-0.3,14-0.1s8.4,0.3,9.9,0.3c9.6,0.5,17.5,0.6,23.5,0.2c7.3-0.5,12.6-2.3,15.9-5.4
	c3.2-3.1,5.3-7.2,6.3-12.2c-2.5,1.9-5.4,3.3-8.8,4.4c-3.4,1.1-7.8,1.8-13.4,2.1c-6.2,0.4-14,0.5-23.3,0.2
	c-12.2-0.2-21.4-0.1-27.6,0.5c-7.7,0.6-13.7,3.2-18,7.6C868.4,434.3,866.7,440.5,867.6,448.6"/>
<path class="st1" d="M545.2,383.7l-13.4,14.1c-6.3,6.7-16.2,11.8-30.1,15.6c-4,1-7,1.7-18.9,2.4L465,417c-13,0.9-23.9,2-33.5,3.3
	c-9.5,1.5-18.2,3.8-25.8,7.1c-3.2-4.6-7.6-8.8-13.2-12.6l-12-8l-5.4,13.5c-1.4,3.6-2.9,6.6-4.6,9.6c-6.8-1.6-12.3-2.8-16.7-3.7
	c-10-1.9-20.1-2.5-29.9-1.9c-18.8,1.2-31.9,7.9-40.6,15c-13-7.3-28.5-10.2-47-9c-3.6,0.2-7.3,0.6-11.1,1.2c-1.8-2.7-4.1-5-6.8-7
	l-8.4-6l-7.1,7.5c-3.4,3.6-12.9,7.6-24.2,10.2l-2.4,0.6l0,0c-3.7,0.5-8.7,1.1-14.7,1.6c0,0-0.1,0-0.1,0c-8.8,0.6-15.9,1.4-21.7,2.5
	c-17,3.2-30.5,10.9-40.2,22.7c-10.1,12.3-14.8,27.2-13.8,43.1c0.9,13.2,5.7,25.9,14,36.9l-2.5,8.2c-2.2,7.1-3.7,11.7-4.8,14.7
	c-4.5,1.5-9.7,2.4-14.9,2.8c-5.3,0.3-10.4,0-14.4-0.9l-16.5-3.9l2.1,16.8c2.2,17.6,6.6,31,15,45.9l0.2,0.4l0.2,0.4
	c12.1,18.1,30.4,27.8,50.3,26.5c0.3,0,0.6,0,0.9-0.1c1.6,1.2,3.1,2.3,4.5,3.3c8,5.8,17.4,11,28.2,15.5c13.6,5.7,27.7,8.1,41.8,7.2
	c7.9-0.5,15.3-2.2,22.1-4.9c-2.1,7.6-3.1,16.5-1.9,26.9l6.3,55.1c-0.2,0.7-0.4,1.4-0.7,2.1c-2.9,1.2-5.6,2.6-8.2,4.2
	c-10.1,6.4-18,15.7-23.5,27.6l-0.1,0.2l-0.1,0.2c-7.5,18.2-11.1,32.2-12.2,46.9l-1.1,14.3l14.2-1.8c12.6-1.6,22.6-2.6,32.4-3.2
	c4.6-0.3,9.2-0.5,14-0.7c2.1-0.1,8.6-0.1,9.9-0.2c1.5,0,2.7,0,3.9,0c7.3,0.2,12.5,0.1,16.7-0.1c15.5-1,28.4-5.8,38.5-14.1
	c6,4.5,15,9.2,26.9,10.8l74.5-5.6c0.3,0,0.9-0.1,1.5-0.1c0.4,0,0.8,0,1.2-0.1l14-0.7c7.7-0.5,14.5-1.8,20.6-4
	c7.4,2.5,15.4,3.4,23.8,2.8c2.5-0.2,6.1-0.9,10-1.8l-3.1,17.1l20-8.4c8.7-3.6,15.7-6,22.7-7.7l17-2.7l-2.6,4.9l23.4-4.1l58.4-10.2
	c2.1-0.4,4.9-0.7,8.3-0.9c4.2-0.3,7.8-0.5,10.3-0.5h0.2l0.2,0l16.2-0.8c0,0,0,0,0,0c9.8-0.7,18.2-2.3,25.5-5
	c6.3,2,12.9,2.8,19.6,2.4c0.3,0,0.6,0,0.9-0.1c1.6,1.2,3.1,2.3,4.5,3.3c7.9,5.8,17.4,11,28.2,15.5c13.7,5.7,27.7,8.1,41.8,7.2
	c15.3-1,28.7-6.2,39.7-15.5c7-5.9,12.6-13.1,16.7-21.3c3.2-1,6.3-2.3,9.2-3.7c10.8-5.4,19.5-13.9,25.3-24.5
	c3.5-6.4,5.3-12.7,5.8-19.6l8.6-34.2c7.4-7.6,13.7-14.7,19.2-21.7c16-20.3,23.6-40.8,22.6-60.6c-1-19.4-10.1-31.3-17.5-37.9
	c-1.3-1.2-2.7-2.3-4.2-3.3h0.5c1.6,0,5.4,0.1,11.5,0.3c7.9,0.3,14.5,0.2,20-0.2c30.1-2,44.8-18.7,50.8-28.4
	c8.3-13.4,11.5-30.1,9.4-49.8l-3.1-29.5l10.5-30.2c0.6-0.5,1.2-1.1,1.8-1.7c9.2-9,15.5-20.7,18-33.9c2.4-13.3,3.5-30.1,3.3-51.6
	l-0.2-23.3l-18.6,14c-13.6,10.2-31.8,17-49.9,18.6l-1.2,0.1c-5,0.3-12.1,0.2-18.3,0c-12.2-0.2-21.7-0.1-29.2,0.4
	c-0.9,0.1-1.8,0.1-2.7,0.2c-15.7,1.3-27.3,6.8-35.3,12.5c-0.7-0.3-1.5-0.7-2.2-1c-13.7-5.8-29.1-8.2-45.7-7.1
	c-17,1.1-32.7,5.5-46.7,12.9c-8.4-4.5-17.8-6.5-27.3-5.9c-7.1,0.5-13.9,2.4-20.2,5.6l-11,1.5c-6.2-2.7-12.8-3.8-19.5-3.4l-1.4,0.1
	c-0.5-2.7-1.1-5.4-2-8l-5.9-18.4l-13.6,13.8c-8.3,8.4-14.5,13.5-23.7,16.7c-3,1-7.4,1.7-9.8,1.9c-0.2,0-3.9,0.2-21.3-0.3
	c-7.4-0.2-14.7-0.3-21.8-0.3c-6.4,0-11.8,0.2-16.6,0.5c-1.5,0.1-2.8,0.2-4.2,0.3c-4.1,0.4-7.6,0.8-10.5,1.1
	c-0.5-2.7-1.2-5.1-1.9-7.3L545.2,383.7L545.2,383.7z M540.3,405.9c1.9,5.6,2.6,10.9,0.2,17.2c4-1.1,20-2.7,24.5-3.1
	c1.2-0.1,2.5-0.2,3.9-0.3c4.6-0.3,9.8-0.5,15.9-0.5c7.2,0,14.4,0.1,21.4,0.3c16.9,0.6,21.5,0.4,22.5,0.3c3.4-0.2,8.7-1.2,12.8-2.5
	c12.1-4.1,19.9-11,28.3-19.5c1.9,6,2.5,12.2,2,16.7L685,414l0,0c6.8-0.5,12.5,1.4,16.9,3.8l16.7-2.3c5.2-3,11.1-4.8,17.2-5.2
	c9.4-0.6,18.6,2.2,26.2,7.9c1-0.6,2-1.2,3.1-1.9c13.2-7.5,28.2-11.9,44.7-13c14.8-1,28.3,1.1,40.4,6.2c2.9,1.2,5.7,2.6,8.3,4.1
	c6.7-6.2,17.8-13.2,34.9-14.7c0.8-0.1,1.6-0.1,2.5-0.2c7-0.5,16.2-0.6,28-0.4c8,0.2,14.4,0.3,19.4,0c0.5,0,1-0.1,1.4-0.1
	c19.7-1.7,40.3-9.1,55.9-20.9c0.2,22.2-1,38-3.1,49.2c-2.1,10.8-7.2,20.4-14.7,27.7c-1.2,1.1-2.4,2.2-3.7,3.2l-12.5,35.8l3.3,32.1
	c1.8,17-0.8,31.2-7.7,42.3c-4.9,7.9-16.8,21.3-41.6,22.9c-5.2,0.3-11.3,0.4-18.9,0.1c-6.2-0.2-10-0.3-11.6-0.3l-0.7,0
	c-16.4-0.6-20.4-0.4-21.1-0.4c-3.8,0.2-6.3,0.6-7.7,0.9c-17.2,3.7-30.5,8.9-38,15.1c0.8-0.1,1.7-0.1,2.5-0.2
	c7.7-0.5,13.7-0.2,18.8,1.7c4.2-1.8,8.6-2.9,13.2-3.2c10.5-0.7,20.7,2.8,28.8,10c5.8,5.1,12.8,14.3,13.6,29.6
	c0.8,17-6,34.7-20.1,52.8c-5.8,7.3-12.5,14.9-20.5,23l-9.7,38.4c-0.2,5.7-1.6,10.6-4.5,15.8c-4.6,8.5-11.6,15.3-20.2,19.6
	c-3.8,1.9-7.9,3.3-12.4,4.3c-3.4,8.8-8.7,16.2-15.8,22.2c-9.1,7.6-20.1,11.9-32.9,12.8c-12.2,0.8-24.5-1.3-36.5-6.3
	c-9.9-4.1-18.6-8.9-25.8-14.1c-2.4-1.8-5.1-3.8-8.2-6.1c-1.8,0.3-3.4,0.5-4.9,0.6c-6.6,0.4-13.1-0.7-19-3.3
	c-0.3,0.1-0.5,0.2-0.8,0.4c-6.9,3.1-15.1,4.9-25.1,5.5l-16.2,0.8c-2.5,0.1-6.1,0.2-10.8,0.5c-3.8,0.2-7.1,0.6-9.6,1.1l-58.4,10.2
	l2.4-4.5l-40.4,6.5c-9,2.1-17.1,5.1-25,8.4l2.6-14.1c0,0-19.2,5.8-25.7,6.3c-9.5,0.6-17.2-1.2-23.2-3.8c-6,2.8-12.9,4.4-21,4.9
	l-14.1,0.8c-1.4,0.1-2.8,0.2-3.8,0.3c0,0-58,5.7-60.1,5.9c-16.3,1.1-27.2-4.7-33.5-9.8c-2.3-1.8-4.4-3.9-6.2-6.1
	c-1.1,1.5-2.3,2.8-3.6,4.1c-8.5,8.7-20.5,13.7-35.3,14.7c-3.8,0.2-8.7,0.3-15.5,0.1c-1.4,0-2.7,0-4.4,0c-1.4,0-8,0.1-10.2,0.2
	c-4.9,0.2-9.7,0.4-14.3,0.7c-11,0.7-21.5,1.8-33.1,3.3c0.9-12.4,3.9-25.1,11.3-43.3c4.6-9.9,11-17.5,19.1-22.6
	c3.4-2.1,7.1-3.8,11.2-5c0.8-2.2,1.9-5.4,3.4-10.2l-6.6-57.6c-2.4-21.4,5.8-35,13.2-42.6c6.5-6.7,18.1-14.9,36.7-16.4
	c1-0.1,2-0.2,3-0.2c6.9-0.5,15.9-0.5,27.5-0.3c3.3,0.1,6.3,0.2,9.1,0.2c-6.4-3.2-13-6.9-20-11.1c-3.1,0.9-6.2,1.5-9.4,1.7
	c-6.5,0.4-15.9-0.6-26.2-7.1c-5.6,3.5-11.5,6.1-17.6,7.9c-3.4,9.1-8.8,16.7-16,22.8c-9,7.6-20.1,11.9-32.9,12.8
	c-12.2,0.8-24.5-1.3-36.5-6.3c-9.9-4.1-18.6-8.9-25.8-14.1c-2.4-1.8-5.2-3.8-8.2-6.1c-1.8,0.3-3.4,0.5-4.9,0.6
	c-15.6,1-30.1-6.7-39.8-21.3c-7.8-13.8-11.6-25.9-13.6-41.6c5.2,1.2,11.4,1.6,17.9,1.2c7.9-0.5,16.2-2.3,23.2-5.3
	c1-2.2,3.2-7.8,7-20.4l4.3-14.2l-1.6-2c-8.2-9.7-12.9-21.2-13.7-33.2c-0.9-12.9,3-25,11.2-34.9c7.8-9.6,19-15.9,33.3-18.6
	c5.3-1,12-1.8,20.5-2.4c6.1-0.5,11.6-1.1,15.5-1.7c2.4-0.4,3.3-0.8,3.3-0.8c10.6-2.5,23.8-7,30.1-13.7c3.9,2.8,6,6.9,6.4,10.6
	c7-1.4,13.4-2.2,19.1-2.6c23.1-1.5,37.2,4.2,47.6,12.2c0.1-0.1,0.2-0.2,0.2-0.3c6.5-7.4,18.8-16.5,39.8-17.9c8.9-0.6,17.9,0,27,1.7
	c5.9,1.1,13.9,2.9,24.3,5.6c4.2-6.5,7.2-11.6,10.1-18.7c6.8,4.6,11.3,9.9,13.2,15.7l7-0.2c7.7-3.9,16.7-6.6,27-8.2
	c9.4-1.4,20-2.4,32.6-3.2l17.8-1.2c12.1-0.8,15.9-1.5,21.2-2.8C518.1,421.1,531.2,415.5,540.3,405.9"/>
</svg>
