<?xml version="1.0" encoding="utf-8"?>
<!-- Generator: Adobe Illustrator 23.1.1, SVG Export Plug-In . SVG Version: 6.00 Build 0)  -->
<svg version="1.1" id="Small_Sticker" xmlns="http://www.w3.org/2000/svg" xmlns:xlink="http://www.w3.org/1999/xlink" x="0px"
	 y="0px" viewBox="0 0 1080 1080" style="enable-background:new 0 0 1080 1080;" xml:space="preserve">
<style type="text/css">
	.st0{fill:url(#SVGID_1_);}
	.st1{fill:url(#SVGID_2_);}
	.st2{fill:#302681;}
	.st3{fill:#E5007E;}
	.st4{fill:#FFFFFF;}
	.st5{clip-path:url(#SVGID_4_);fill:url(#SVGID_5_);}
	.st6{fill:#F62684;}
</style>
<linearGradient id="SVGID_1_" gradientUnits="userSpaceOnUse" x1="571.7299" y1="675.0322" x2="487.4645" y2="322.6549">
	<stop  offset="0" style="stop-color:#E82F85"/>
	<stop  offset="0.2207" style="stop-color:#EB5095"/>
	<stop  offset="0.754" style="stop-color:#F39DB8"/>
	<stop  offset="1" style="stop-color:#F6BBC6"/>
</linearGradient>
<circle class="st0" cx="539.2" cy="539" r="435"/>
<linearGradient id="SVGID_2_" gradientUnits="userSpaceOnUse" x1="-111.3672" y1="-6.2097" x2="-109.2872" y2="-6.2097" gradientTransform="matrix(103.832 -34.7417 34.7417 103.832 12245.3955 -2660.8936)">
	<stop  offset="0" style="stop-color:#E82F85"/>
	<stop  offset="1" style="stop-color:#F6BBC6"/>
</linearGradient>
<path class="st1" d="M918.7,745.1l-4.6-2.5c35.1-64.7,51.8-134.4,51.8-203.2c0-151.4-80.8-298-223.1-375.3
	C678,129,608.3,112.3,539.6,112.3c-151.4,0-298,80.8-375.3,223.1c-35.1,64.7-51.8,134.4-51.8,203.2c0,151.4,80.8,298,223.1,375.3
	c64.7,35.1,134.4,51.8,203.2,51.8c151.4,0,298-80.8,375.3-223.1L918.7,745.1l4.6,2.5c-79.2,145.9-229.4,228.6-384.5,228.6l0,0
	c-70.5,0-141.9-17.1-208.2-53C184.8,843.9,102,693.7,102,538.6l0,0c0-70.5,17.1-141.9,53.1-208.2
	c79.2-145.9,229.4-228.6,384.5-228.6c70.5,0,141.9,17.1,208.2,53.1c145.9,79.2,228.6,229.4,228.6,384.5c0,70.5-17.1,141.9-53,208.2
	L918.7,745.1L918.7,745.1L918.7,745.1z"/>
<path class="st2" d="M502.8,607.3c-21.2-1.1-37.3-7.3-48-18.3c-7.4,12-20.4,13-27,12.7l-13-0.7c-5.5-0.3-15.4-2.1-21.9-10.8
	c-7.1,6.2-17.8,10.1-33.9,9.2c-14-0.7-23.5-5-30-11.1c-6.8,7.3-16.5,7.7-20.4,7.5c-9-0.5-14.3-4.6-17.2-7.9
	c-7.1-8.2-6.2-19.3-5.9-23.1l18.1-250.9c1.2-15.5,4.3-56.7,48-54.4c17.8,0.9,30.3,7.7,37.4,20.3c0.2-0.3,0.4-0.6,0.6-0.9
	c8.5-11.3,21.3-16.4,39.1-15.4c13.8,0.7,35.2,6.7,40.9,35.8c8.6-5.6,18.9-6.9,28.1-6.4c12.9,0.7,22.9,4.6,30.1,11.8
	c5.5-4.6,13.1-6.9,22.2-6.4l11.7,0.6c3,0.1,6,0.7,8.9,1.7c3.8-24,21.7-26.8,32.5-26.3l11.7,0.6c9.5,0.5,15.6,4.3,19.4,8.2
	c6.9-5.5,15.6-6.4,21.9-6l11.7,0.6c11.5,0.6,18,6,21.5,10.5c3.9,5,6,11.4,6.4,19.1c3.6-0.8,7.4-1.1,11.1-0.9l11.7,0.6
	c4.1,0.2,13.7,1.6,20.5,9.3c10.3-8.8,22.8-9.7,30-9.3c16,0.9,27.9,6.8,35.2,17.7c6.3,9.4,8.9,21.8,8,38.8l-10.1,191.9
	c-2.3,43.4-27.9,65.1-74.2,62.7c-21.2-1.1-37.4-7.6-48.5-18.9c-5.9,9.1-16,13.8-28.9,13.1l-13.7-0.7c-3.7-0.2-11.9-1.3-18.4-7.2
	c-5.6,3.7-12.7,5.5-21,5.1l-13.7-0.7c-5.5-0.3-20.7-2.6-26.1-19.3c-12.9,13-31.2,18.9-55.2,17.7"/>
<path class="st3" d="M393.2,547.1l9-222.7c0.1-3,1-6,5.3-5.7c2.7,0.1,3.2,3.2,3,6.2L401.2,566c-0.4,14.7,5,20,14.3,20.5l13,0.7
	c10.3,0.5,16.3-4.2,17-18.9l1.3-25.4l9.4-224c1-25.7-7.6-39.6-28.3-40.6c-25.4-1.3-33.7,11.6-35.5,45.7l-11.8,192.8
	c-0.3,5.3-0.8,8.7-3.8,8.5s-3.5-3.5-3.2-8.9c1.6-31,6.9-188.7,7.4-199.1c1.5-29.7-7.9-41.9-30.2-43.1c-22.7-1.2-30.4,12.1-32.6,40.8
	L300,566c-0.8,9,1.2,14.8,9.2,15.2c8.7,0.5,11.6-4.1,12.1-13.4c1.1-21.4,3.8-199.6,6.3-247.3c0.2-3,1-6,3.7-5.8s3.2,3.2,3,6.2
	L330,544.4c-0.6,25.1,5.3,39.1,29.7,40.4C386.4,586.2,391.8,572.7,393.2,547.1 M464,345.3l-10.1,193.2c-1.7,32.7,12,52.2,49.7,54.1
	c39,2,59.2-17.7,61.7-65.7c0.2-4-1.3-6.8-4.7-6.9c-4.7-0.2-10.2,9.2-20.3,16c-9.7,6.5-19.6,10.7-28,10.2
	c-10.7-0.6-14.7-6.5-13.9-21.5l7.8-149.2c0.2-3.7,0.7-6.3,4.7-6.1c3.7,0.2,4.2,2.9,4,6.6l-8.1,153.5c-0.3,5.7,1.6,7.8,6.6,8.1
	c9.1,0.5,27.6-8.9,40.9-27.6c12.3-17.1,13.3-37.5,13.9-48.1l6.7-128.1c0.8-14.4-5-19.7-14-20.1l-11.7-0.6
	c-11-0.6-16.9,4.1-17.7,18.5L523,496.9c-0.1,2.3-0.9,3.6-2.9,3.5s-2.6-1.5-2.5-3.8l7.7-148.1c1.3-25.7-5-39.8-28.3-41
	C476.1,306.4,465.4,317.6,464,345.3 M584.8,594.3l13.7,0.7c12.3,0.6,18.7-6,19.4-19.1c0.3-6.7-0.8-11.4-2.9-14.5l13.2-251.7
	c0.8-14.3-5-19.7-14-20.1l-11.7-0.6c-11.3-0.6-16.9,4.1-17.7,18.5l-14,266.3C570,588.4,575.8,593.8,584.8,594.3 M637.9,597l13.7,0.7
	c12.3,0.7,18.7-6,19.4-19.1c0.3-6.7-0.8-11.4-2.9-14.5l13.2-251.6c0.8-14.3-5-19.7-14-20.1l-11.7-0.6c-11.3-0.6-16.9,4.1-17.7,18.5
	l-14,266.3C623.1,591.2,628.9,596.5,637.9,597 M731.9,342.3l-10.5,201.9c-0.2,3.3,0.8,4.7,2.8,4.8s2.7-1.2,2.9-4.5l9.7-184.2
	c1.5-27.7,13.1-39.5,31.8-38.5c23,1.2,30.7,15,29.3,41l-10.1,191.9c-1.7,33-17.7,50.9-58.8,48.8c-38-2-53-22.9-51.2-57.6L688.5,340
	c0.7-14.6,6.6-19.4,17.7-18.8l11.7,0.6C726.9,322.2,732.7,327.5,731.9,342.3 M736.2,541.6c-0.3,5.3,0.2,8.1,3.9,8.2
	c4,0.2,4.5-2.5,4.8-7.8l8.1-155.2c0.1-2.7-1.1-4.7-4.1-4.9s-4.5,2.1-4.6,4.5L736.2,541.6L736.2,541.6L736.2,541.6z"/>
<polygon class="st4" points="798.7,405.8 808.7,401 798.4,397 793.7,387 789.7,397.3 779.7,402 790,406.1 794.7,416.1 "/>
<path class="st2" d="M999.1,662.5c-8.8-9.2-12.1-27.1-15.8-49.8c3.9-17.1,6.7-42.1,3.2-64c-7-44.1-35.6-55.6-60-51.8
	c-14.6,2.3-41.2,12.8-70.4,54.6c-6.2-26.7-27.8-41.5-55.1-37.3c-10.1,1.6-23.7,6.7-36.4,21c-12.6-7.3-29.8-10.5-53.1-6.9
	c-14.2,2.3-27.6,8.1-39,16.9c-10-5.1-22.3-6.9-35.9-4.7c-16.9,2.7-37.1,12.1-49.5,22.9c-12.4-7.9-27.8-10.9-45.1-8.2
	c-12,1.8-23.3,6.7-32.9,14.1c-9.4-4-20.7-5.3-33.1-3.3c-13.5,2.1-29,8.5-41,16.4c-10.3-5.1-22.9-6.6-37.4-4.3
	c-14.9,2.4-31.4,10.8-42.8,19.1c-10.4-6.3-23.9-8.6-39.4-6.1c-22.1,3.5-40.6,16.5-48,22.3c-12.6-7.4-28.2-10.2-45.4-7.4
	c-11.4,1.7-22.2,6.5-31.2,13.7c-9.4-4-20.6-5.2-32.8-3.3c-17.2,2.7-37.9,12.4-50.2,23.5l-17.6,15.8l13.6,19.4
	c11,15.6,13.6,32.1,13.5,54.5c-14.3,35.5-20,63.4-16.8,82.9c4.6,29.2,29.4,46.2,60.4,41.3c14-2.2,27.9-9,38.9-18.4
	c10.5,6,23.3,8.3,37.5,6c17.7-2.8,33.4-12.5,44.6-27.3c12.3,10.9,29.1,15.7,48.3,12.6c13.4-2.1,25.9-8.6,37.5-19.5
	c10.5,7,24.2,10,39.4,7.6c13.4-2.2,26.1-7.8,36.8-16.3c9.9,5.1,21.9,7,35,4.9c15-2.4,29.9-9.9,41.2-20.4c14,6.9,29.8,9.2,45.2,6.7
	c14.9-2.3,27.5-8.7,37.1-17.8c10.2,6,23.1,8.3,37.2,6c13.7-2.2,27.4-8.7,38.3-17.9c9.4,5.9,21.2,8.2,34.2,6.2
	c9.9-1.6,23.3-6.5,35.9-20.5c10.5,6.3,25.7,11,46.2,7.7c12.1-1.9,25.7-5.4,38.7-16c9.6,4.8,21.2,6.6,34.1,4.5
	c17.5-2.8,33.3-9.7,45.1-19.6c10.3,6.3,23.4,8.7,37.8,6.4c21.3-3.4,41.4-16.2,52.4-33.6l11.2-17.6L999.1,662.5L999.1,662.5
	L999.1,662.5z"/>
<path class="st4" d="M203.3,463.5c1-18.6,8.4-33,26.3-32c13.7,0.7,22.3,10,21.6,24.5c-0.9,16.9-15.4,35.3-42.4,39.8
	C204.9,484,202.8,473,203.3,463.5 M160.6,542.3c1-18.9,12.9-36.2,35-39c8.8,29,30.5,59.9,56.5,79.9c-11,7.5-25.2,11.5-41.8,10.6
	C175.2,592,159.3,566.1,160.6,542.3 M146.2,544.6c-1.4,26,19.3,53.4,63.2,55.7c16.4,0.9,33.3-2.9,47.2-13.5
	c15.2,10.6,31.3,17.6,47.2,18.5l0.4-2.2c-12-0.6-26.3-9.2-40.4-22.5c13-13.1,22.6-33.2,24.9-62.8c4-1.5,13.4-2.2,19-1.9l0.2-4.9
	l-57.1-3l-0.3,4.9c6.4,0.3,19.3,2.2,23.6,4.2c1.1,7.9,2.1,11.9,1.6,21c-0.8,15.9-6.5,29.4-16.1,39c-20.1-20.2-39.2-48.9-49.1-75.8
	c38.1-4.6,52.7-25.8,53.7-44.1c0.7-13.7-9-29.7-31.1-30.9c-30.4-1.6-40.6,20.5-42.1,47.4c-0.3,8.2,0.6,16.3,2.7,24.2
	C163.4,502.7,147.4,523,146.2,544.6"/>
<g>
	<g>
		<defs>
			<path id="SVGID_3_" d="M943.3,520.1c-14.8,1.3-42.2,10-74.4,49.8c-4.3-27.2-24.9-43.6-52.6-41.2c-10.2,0.9-24.2,5-38,18.5
				c-12.2-8.2-29.2-12.7-52.8-10.6c-14.4,1.3-28.3,6.2-40.3,14.2c-9.6-5.8-21.8-8.5-35.7-7.3c-17.1,1.5-38.1,9.5-51.2,19.5
				c-11.9-8.8-27.1-12.9-44.7-11.3c-12.2,1-23.9,5-34,11.8c-9.2-4.7-20.4-6.8-33-5.7c-13.6,1.2-29.6,6.5-42.2,13.6
				c-10-5.8-22.5-8.2-37.3-6.9c-15.1,1.3-32.2,8.7-44.3,16.2c-10-7-23.3-10.3-39.1-8.9c-22.4,2-41.9,13.7-49.6,18.9
				c-12.1-8.3-27.5-12.2-45-10.7c-11.6,0.9-22.7,4.9-32.3,11.5c-9.1-4.7-20.3-6.7-32.7-5.6c-17.5,1.5-38.9,9.8-52,20l-18.7,14.7
				l12.3,20.4c9.9,16.5,11.3,33.1,9.8,55.6c-16.8,34.7-24.4,62.2-22.7,82c2.6,29.6,26.3,48.3,57.6,45.6c14.2-1.2,28.6-7,40.3-15.7
				c10.1,6.8,22.8,9.9,37.2,8.7c17.9-1.6,34.3-10.1,46.6-24.3c11.6,11.8,28.1,17.7,47.5,16c13.5-1.2,26.5-6.8,39-16.9
				c10.1,7.8,23.6,11.7,39,10.4c13.6-1.3,26.7-6,38.1-13.7c9.5,5.8,21.5,8.5,34.8,7.4c15.1-1.3,30.7-7.9,42.7-17.6
				c13.5,7.9,29.2,11.4,44.8,9.9c15.1-1.3,28.2-6.8,38.4-15.3c9.8,6.7,22.5,9.9,36.8,8.7c13.9-1.2,28.1-6.8,39.7-15.3
				c9,6.6,20.6,9.7,33.8,8.6c10.1-0.9,23.9-4.9,37.4-18c10.1,7,25,12.8,45.7,11c12.2-1.1,26.2-3.7,39.9-13.4
				c9.2,5.5,20.8,8.1,33.9,6.9c17.8-1.6,34.1-7.4,46.6-16.5c9.9,7,22.9,10.4,37.5,9.1c21.6-1.9,42.7-13.4,54.9-30l12.4-16.9
				l-13.3-16.1c-8.2-9.9-10.2-28-12.3-51.1c5.1-16.9,9.7-41.8,7.8-64c-3.7-41.7-28.2-56.3-51.6-56.3
				C946.6,519.9,944.9,520,943.3,520.1"/>
		</defs>
		<clipPath id="SVGID_4_">
			<use xlink:href="#SVGID_3_"  style="overflow:visible;"/>
		</clipPath>
		
			<linearGradient id="SVGID_5_" gradientUnits="userSpaceOnUse" x1="-955.327" y1="1072.981" x2="-954.317" y2="1072.981" gradientTransform="matrix(-13.8607 -168.5912 -168.5912 13.8607 168222.7031 -175080.3281)">
			<stop  offset="0" style="stop-color:#E72F84"/>
			<stop  offset="1" style="stop-color:#F5BAC5"/>
		</linearGradient>
		<polygon class="st5" points="66,521.9 1011.5,444.2 1042.8,824.9 97.3,902.7 		"/>
	</g>
</g>
<path class="st6" d="M129.5,774.5c-1.6-18.4,10.4-48.3,22.1-71.5c2.3-26.8,1.9-51.2-13-75.8c9.1-7.1,25.5-13.2,37.3-14.2
	c16.5-1.4,26.6,5.2,28.8,19c8.1-13.2,19.2-23.4,35.4-24.8c28.1-2.5,40.9,15.2,42.7,36.3c2.4,27.6-12.8,57-44.8,68.1
	c5.9,19.8,15.9,25.5,37,12.4c0.7-0.5,1.4-0.9,1.5,0.1c4.5,29.4-13.1,62-42.2,64.5c-18.9,1.7-30.1-9.1-31.8-28.2
	c-1.2-13.3,5.9-29.8,14.7-44.3H217c-9.5,0.8-16.2-1.5-16.9-9.5c-0.4-4.4,3.2-24.2,4.6-31.2c0.1-1.2,1-2.1,2.2-2c0.2,0,0.4,0,0.5,0.1
	c14.6,2.6,23.5,11.4,27.5,18.3c4.4-6.5,6.4-14.4,5.6-22.2c-1.2-13.3-11.3-25.6-26.1-27.3c-8.1,7.3-16.6,24.7-21.3,40.9V683
	c-1.7,5.3-3.4,11.1-4.8,17.3c-4.6,19.9-10.7,59,4.7,76.3c-7.1,9.2-20.9,17.7-35.2,19C140.8,796.9,130.8,788.3,129.5,774.5"/>
<path class="st6" d="M292.1,749c-1.6-18.1,5.4-41.3,17.7-59.7c2.5-26.8-1.7-58.7-13-76c9-6.2,23-13.2,36.8-14.5
	c18.1-1.6,27.8,5.4,29.2,21.6c1,11.9-3.2,24.7-8.5,39.8c-6.2,18.6-13.6,40.3-13.4,67.3c13.8,3.9,31.2-8.6,43.2-25.5
	c1.7-8.2,3.2-15.9,4.1-22.6c3.8-26.9,6.9-46.3-7.7-73.5c10.1-7.2,25-13.4,35.4-14.3c17.9-1.6,29.2,4.3,30.5,19.8
	c1.8,20.8-13.2,52.4-24.2,72.4c0.4,29.5,9.3,64.4,17.7,70.7c-7.4,10.4-22.2,18-35.7,19.2c-13.8,1.2-26.5-4.5-28-21
	c-0.3-4.7,0-9.4,0.7-14c-18.4,29.2-35.8,40.3-49.9,41.5C305.1,782.4,293.8,768.5,292.1,749"/>
<path class="st6" d="M448.2,746.6c-1.6-18.4,10.4-48.3,22.1-71.5c2.3-26.8,1.9-51.2-13-75.8c9.1-7.2,25.5-13.2,37.3-14.3
	c16.5-1.4,26.6,5.2,28.8,18.7c8.4-13.2,19.9-23.2,37.4-24.8c25.5-2.2,39.3,13.2,41.5,39.1c2.1,24-10.2,45.3-29.4,57.8
	c15.1,7.7,25.7,20.2,27.3,37.9c2,23.5-11.3,44-37.3,46.2c-24.7,2.2-49.4-15.2-52-44.3c-0.1-1,0.4-1.2,1.2-0.8
	c5.2,2.1,10.8,3.1,16.4,2.7c14.8-1.3,26.7-13.5,25.3-28.8c-0.1-1.2-0.2-2.4-0.5-3.6c-4.6,1.4-9.4,2.3-14.2,2.7
	c-10.7,0.9-16-2-16.7-9.5c-0.4-4.4,3-24.2,3.8-28.7c0.5-2.5,1.1-3.8,3.6-3.2c12.9,2.8,21.9,10.1,25.9,16.5c3.6-6,5.1-13,4.4-19.9
	c-1.3-15.3-12.2-27.3-26.4-28.7c-8.5,9.1-14.6,20.6-19.9,35c-2.7,7.5-5,15.2-6.8,23.1c-4.6,19.9-10.7,59.1,4.7,76.3
	c-7,9.2-20.9,17.7-35.2,19C459.4,769.1,449.4,760.4,448.2,746.6"/>
<path class="st6" d="M609.1,732.5c-1.6-18.4,10.5-48.3,22.1-71.5c2.3-26.8,1.9-51.2-13-75.8c9.2-7.2,25.5-13.2,37.3-14.2
	c17.2-1.5,27.6,5.9,28.9,20.9c1.6,18.7-10.3,38.5-16.7,66.4c-4.6,19.9-10.7,59.1,4.7,76.3c-7,9.2-20.9,17.7-35.2,19
	C620.3,755,610.3,746.4,609.1,732.5"/>
<path class="st6" d="M792.8,574.3c7-9.4,16.1-17,27.5-18c13.3-1.2,22.5,5.4,23.8,21.2c1.6,18.4-5.6,47.9-17.2,71.1
	c-4.7,27-4.3,51.7-1.5,77.3c-9.9,9.9-19.4,12.9-33.2,14.1c-27.2,2.4-43.7-13.3-46.7-48c-0.9-9.9-0.5-24.9,0.3-35.9
	c0.6-7.1-4-23.3-11.5-37.1c-2.7,11-4,24.3-6.3,34c-4.6,19.9-5.9,58.6,9.6,75.8c-7,9.4-16.1,17-27.5,18c-13.3,1.2-22.4-5.4-23.8-21.2
	c-1.6-18.4,5.6-47.9,17.2-71.1c4.7-27,3.7-49.9-8.7-74.7c12.5-10.3,24.6-14.8,36-15.8c37.8-3.3,49.1,14.3,51.6,43.1
	c1.1,13.1,0.3,28.3-0.4,45.2c-0.8,16,5,28.9,14.2,34.4l7.5-40.2C808.1,626.7,808.2,591.6,792.8,574.3"/>
<path class="st6" d="M926.4,641.5c2-13.8,3.4-25.7,2.9-31c-0.9-10.2-6-16.6-19.7-15.4c-8.5,11.2-16.1,31.2-20.2,50.8
	C901.9,643.2,914.9,640.8,926.4,641.5 M837.9,712.8c-4.6-52.1,61.6-160.9,107.9-165c18.1-1.6,25.5,12.7,27.2,31.3
	c1.7,19.1-2.9,42.7-8.1,57.8c2.6,29.6,4.7,53.6,18.6,70.4c-8.1,11-22.4,17.8-35.2,19c-14.1,1.2-26.8-4.7-28.2-21
	c-0.8-9.2,0.8-24.7,3-40.5c-12.9,0.3-25.5,3.5-37,9.3c0,2.4,0.1,4.7,0.4,7c2.2,24.7,11.8,31.9,18,35.2c-7.8,8.7-21.8,15.6-39.3,17.1
	C847.6,735.1,839.1,726.8,837.9,712.8"/>
<path class="st3" d="M835.3,288.1c1.4-1.2,3-0.6,4.9,0.8c3.4,2.6,6.5,5.6,9.4,8.8c-0.6,0.5-1.2,1-1.8,1.5c-4.1,1.4-8.2,1.5-11.5-2.4
	C833.6,293.6,833,290,835.3,288.1 M842.5,308.2c2.2,2.6,4.6,2.1,7.2,0l2.4-2l-0.8-0.9l-2.7,2.3c-1.6,1.3-2.8,1.7-3.7,0.5
	s-0.5-2.1,0.8-3.2l13-10.9c3.3-2.8,3.6-6.4-0.1-10.7c-4.6-5.5-10.7-7.1-14.2-4.1c-1.4,1.3-2.4,2.9-3,4.7l3.5,1.3
	c0.2-0.5,1.2-3.9,2.6-5.1c2.1-1.8,4.7-0.8,7.8,2.9c2.7,3.2,4,6.8,0.4,9.9c-0.8,0.7-2.3,2-4.2,3.5c-3-2.6-6.7-5.7-9.8-8
	c-2.8-2-6.2-3.7-8.7-1.6c-3.3,2.8-2.7,7.1,0.2,10.5c3.8,4.5,8.4,4.9,12.3,4.2l-1.9,1.5C841.4,304.6,840.9,306.4,842.5,308.2
	 M817,279.2l1.3,1.3l26.5-9.8c1.2,0.3,2.2,1,3,1.9l0.7-0.7l-8.6-8.8l-0.7,0.7c1,1,3.4,4.1,3.7,4.9l-22,9.2c2.9-7.7,5.8-15.4,8.8-23
	c0.9,0.2,4.8,3.9,5.8,4.9l0.7-0.7l-9.8-10.1l-0.7,0.7c0.8,0.7,1.5,1.7,1.7,2.8C824.1,261.5,820.6,270.4,817,279.2 M798.7,242.5
	c5.5-6.2,11.1-6,15.6-2c5.2,4.6,5.6,10.4-0.1,16.8c-5.3,6-10.8,6.4-15.6,2.1C793.4,254.8,792.9,249,798.7,242.5 M796.6,260.3
	c5.8,5.1,14.3,5.6,20.7-1.7c6.1-6.8,4.9-13.6-1.2-19c-5.8-5.1-14.3-5.5-20.7,1.6C788.8,248.8,791.2,255.5,796.6,260.3 M780.4,246.2
	l5.9,4.5l0.6-0.8l-2.6-3.1l-1.1-17.9l13.9-1.8c1.8-0.2,3.2,0.5,4.6,1.6l0.6-0.8l-8.7-6.6l-0.6,0.8c1.1,0.8,2,1.8,2.7,3l-14,2.6
	l-2.9-2.3c1.2-1.7,2.4-3.2,3.3-4.4c3.3-4.3,12.2-15.7,12.7-16.2l-0.2-1.2c-2.7-0.1-5.3-0.9-7.6-2.1l-0.6,0.8
	c1.3,0.8,2.5,1.8,3.6,2.9c-0.1,0.3-6.9,9.7-10.3,14.2c-3.6,4.8-11.1,14.2-11.9,14.9c-0.6,0.1-2.9-1.2-4.2-2.2l-0.6,0.8l10.3,7.9
	l0.6-0.8c-1.4-1-3.2-2.9-3.2-3.5c0.4-0.6,3.8-5.2,7.1-9.7l3,2.2L780.4,246.2L780.4,246.2L780.4,246.2z M746.7,221.2l-0.5,0.8
	l12.6,8.2l0.5-0.8c-1.2-0.8-4.7-3.4-5.1-4.2c0.7-1.6,4.2-6.9,6.5-10.4l1.4-2.1c5.3-3.9,9-3.1,11.5-1.4l1.2,0.8l2.1-3.2
	c-2.8-1.8-8-2.1-13.1,1.3l4-6l-0.3-1.2c-2.7,0-5.3-0.5-7.8-1.5l-0.5,0.8c1.5,0.7,2.8,1.6,3.9,2.7c-0.6,1.6-3.1,5.4-4.9,8.2
	c-2.2,3.5-4.6,6.8-7.2,10C750.2,223.2,748.3,222.1,746.7,221.2 M754.8,185.3c-0.6,1.1-0.3,2.4,0.8,3c1,0.6,2.4,0.3,3-0.8l0.2-0.4
	c0.6-1,0.3-2.3-0.6-2.9l-0.1-0.1c-1-0.7-2.3-0.4-3,0.6c0,0,0,0.1-0.1,0.1L754.8,185.3L754.8,185.3L754.8,185.3z M732.8,212.7
	l-0.5,0.9l11.2,6.7l0.5-0.9c-1.4-0.8-2.6-1.8-3.7-3.1c1.7-3.3,3.9-7,6.1-10.7c2.4-3.9,4.3-7.1,6.8-11l-0.3-1.2
	c-2.7,0.1-5.3-0.3-7.8-1.2l-0.5,0.9c1.5,0.6,2.8,1.5,4,2.6c-1.5,3-2.9,5.6-4.6,8.4c-2.1,3.6-4.3,7-6.8,10.3
	C736.3,214.7,734.4,213.7,732.8,212.7 M722.5,208.6c4.2,2.2,8.5,0.9,11.6-3l-0.8-0.4c-2,2.4-5.3,3.1-8,1.6c-2.3-1.2-3.1-3-1.1-6.7
	l8.5-15.4c1.3,0.6,2.7,1.3,4,2.1c1.7,0.9,3.4,1.9,5.1,2.9l1.4-1.9c-1.7-0.8-3.3-1.6-4.9-2.4c-1.6-0.9-3.2-1.8-4.6-2.7l3-5.4
	l-0.9-0.5c-2.6,3.8-5.2,4.8-9.8,2.4l-0.5,0.9c1.5,0.8,3,1.8,4.2,2.9c-3,5.6-5.9,11.2-8.9,16.7C718.9,203.4,718.8,206.6,722.5,208.6
	 M699.4,195.6l-0.4,0.9l13.6,6l0.4-0.9c-2.2-1-3.6-1.9-4-2.6c0.3-1.1,9.3-21.5,7.5-17.5c2-4.6,0-8.1-4.6-10.1
	c-5.4-2.4-10.4-2.1-15.2,2.8l0.7-1.5c2.2-5,8.2-18.2,8.5-18.8l-0.5-1.1c-2.6,0.5-5.2,0.4-7.8-0.2l-0.4,0.9c1.4,0.5,2.8,1.1,4.1,1.9
	c0,0.3-4.4,11.1-6.7,16.1c-2.4,5.5-7.5,16.4-8.1,17.2c-0.6,0.2-3.1-0.4-4.6-1.1l-0.4,0.9l13.6,6.2l0.4-0.9c-1.6-0.7-5.5-2.9-5.7-3.4
	c0.3-0.9,3-7.2,5.4-12.8c4.7-5.1,8.1-7.1,13.8-4.6c4.6,2,5.6,5.5,4.2,8.8c-2.8,6.4-5.9,13.3-7.5,15.7c-0.6,0.1-4.1-1.1-6.3-2
	 M664.9,183.8c6.9,2.5,14.1,1.2,16.8-6.3c2-5.7-3.2-10.3-8.4-14.5c-4.4-3.6-8.2-7.2-6.6-11.8c1.7-4.7,4.9-5.5,11.1-3.3
	c7.2,2.6,9.5,7.9,6.8,14.9l1.1,0.4l3.8-10.7c-2.8-2.7-6.2-4.8-9.8-6.2c-6.3-2.2-13.6-1.5-15.8,4.7c-2.1,6,2.6,10.6,7.5,14.6
	s9.1,8.1,7.4,12.9c-1.9,5.4-6.9,5.6-11.2,4.1c-10.6-3.8-11.3-8.4-7.2-18.1l-1.1-0.4l-5.3,14C657.4,180.3,661,182.3,664.9,183.8
	 M614.7,161.7c0.4-1.8,2-2.3,4.4-2.3c4.3,0.1,8.6,0.6,12.8,1.4c-0.2,0.8-0.3,1.5-0.6,2.2c-2.4,3.6-5.7,6.2-10.6,5
	C616.7,167.1,614,164.7,614.7,161.7 M632.6,173.5c3.3,0.8,5-1.1,5.7-4.4l0.7-3.1l-1.2-0.3l-0.8,3.5c-0.5,2-1.2,3-2.7,2.6
	c-1.3-0.3-1.7-1.4-1.3-3.1l3.8-16.5c1-4.2-0.9-7.3-6.5-8.6c-7-1.6-12.8,0.7-13.8,5.2c-0.3,1.9-0.2,3.8,0.4,5.6l3.5-1.1
	c-0.2-0.4-1.4-3.8-0.9-5.6c0.6-2.6,3.3-3.4,7.9-2.4c4.1,0.9,7.3,3.1,6.2,7.6c-0.2,1-0.7,3-1.3,5.3c-4-0.3-8.7-0.5-12.7-0.5
	c-3.5,0.1-7.2,0.8-8,3.9c-1,4.2,2.1,7.3,6.4,8.3c5.7,1.3,9.7-1.1,12.3-4l-0.5,2.3C629.5,171.1,630.2,172.9,632.6,173.5 M590.1,163.5
	l-0.2,1l14.9,2.5l0.2-1c-1.4-0.2-5.7-1.2-6.4-1.8c0.1-1.7,1-8,1.7-12.2l0.5-2.5c3.3-5.8,7-6.5,10-6l1.4,0.2l0.6-3.8
	c-3.3-0.5-8.2,1.3-11.5,6.5l1.3-7.1l-0.7-0.9c-2.5,1.1-5.1,1.7-7.8,1.7l-0.2,1c1.6,0,3.2,0.3,4.7,0.9c0.1,1.7-0.6,6.2-1.2,9.5
	c-0.7,4.2-1.9,10.5-2.5,12.1C594,164.1,591.9,163.9,590.1,163.5 M564,147.3c0.8-8.2,5.4-11.4,11.5-10.7c6.9,0.7,10.7,5.1,9.8,13.7
	c-0.8,7.9-5,11.5-11.5,10.9C566.9,160.4,563.1,155.9,564,147.3 M572.8,162.9c7.7,0.8,14.9-3.8,15.8-13.5c0.9-9.1-4-13.9-12.1-14.8
	c-7.7-0.8-14.8,3.9-15.8,13.4C559.7,158.2,565.6,162.2,572.8,162.9 M528.4,159.2v1.1l27.3,0.7l0.3-12.6h-1.3
	c-0.3,10.1-1.6,10.9-9.8,10.7c-2.1-0.1-4.9-0.2-7.8-0.5c-0.1-1.2-0.1-11.3,0.1-17.4c0.2-5.4,0.8-16.9,1-17.5
	c1.5-0.4,3.1-0.7,4.7-0.6V122l-13.5-0.4v1.1c1.6,0.1,3.2,0.3,4.7,0.8c0.1,0.3,0.2,12.1,0,17.7c-0.2,6-0.7,16.4-1,17.4
	C532.3,159.2,530.2,159.3,528.4,159.2"/>
<polygon class="st4" points="884.1,392.8 905.5,390.7 889.4,376.5 887.4,355 873.1,371.2 851.6,373.2 867.8,387.5 869.8,408.9 "/>
</svg>
