<?xml version="1.0" encoding="UTF-8"?><svg id="Small_Sticker" xmlns="http://www.w3.org/2000/svg" xmlns:xlink="http://www.w3.org/1999/xlink" viewBox="0 0 1080 1080"><defs><style>.cls-1{fill:none;}.cls-2{fill:url(#linear-gradient);}.cls-3{clip-path:url(#clippath);}.cls-4{fill:#f62684;}.cls-5{fill:#fff;}.cls-6{fill:#e5007e;}.cls-7{fill:#302681;}.cls-8{clip-path:url(#clippath-1);}.cls-9{clip-path:url(#clippath-2);}.cls-10{fill:url(#linear-gradient-3);}.cls-11{fill:url(#linear-gradient-2);}</style><clipPath id="clippath"><path class="cls-1" d="m187.27,283.36c-141.21,194.35-98.12,466.38,96.23,607.59,194.36,141.21,466.39,98.12,607.59-96.23,141.21-194.36,98.12-466.39-96.23-607.59-77.2-56.09-166.68-83.1-255.32-83.11-134.52,0-267.15,62.18-352.27,179.34"/></clipPath><linearGradient id="linear-gradient" x1="3.01" y1="1077.73" x2="5.1" y2="1077.73" gradientTransform="translate(119626 950.75) rotate(-90) scale(110.5 -110.5)" gradientUnits="userSpaceOnUse"><stop offset="0" stop-color="#e82f85"/><stop offset="1" stop-color="#f6bbc6"/></linearGradient><clipPath id="clippath-1"><rect class="cls-1" x="101" y="100.85" width="876.37" height="876.37"/></clipPath><linearGradient id="linear-gradient-2" x1="4.44" y1="1083.09" x2="6.52" y2="1083.09" gradientTransform="translate(37632.25 113173.18) rotate(-18.5) scale(109.49 -109.49)" xlink:href="#linear-gradient"/><clipPath id="clippath-2"><path class="cls-1" d="m943.26,520.1c-14.8,1.29-42.16,9.97-74.39,49.82-4.31-27.2-24.94-43.6-52.62-41.18-10.17.89-24.24,5.04-37.98,18.53-12.16-8.2-29.16-12.66-52.75-10.6-14.41,1.34-28.27,6.21-40.35,14.17-9.64-5.81-21.84-8.49-35.66-7.28-17.12,1.51-38.07,9.48-51.24,19.48-11.87-8.75-27.12-12.86-44.66-11.33-12.15.95-23.86,5.01-33.99,11.8-9.18-4.72-20.4-6.79-32.95-5.69-13.65,1.19-29.64,6.48-42.25,13.61-10.01-5.85-22.51-8.19-37.27-6.9-15.11,1.32-32.23,8.65-44.32,16.22-9.97-7.05-23.31-10.3-39.08-8.92-22.39,2.01-41.87,13.65-49.65,18.93-12.09-8.27-27.51-12.18-45-10.65-11.59.94-22.73,4.91-32.29,11.52-9.14-4.65-20.26-6.68-32.68-5.59-17.49,1.53-38.86,9.76-51.99,20.02l-18.74,14.66,12.3,20.37c9.93,16.45,11.34,33.13,9.75,55.56-16.76,34.65-24.4,62.16-22.69,81.99,2.59,29.6,26.29,48.35,57.63,45.62,14.16-1.23,28.62-7.05,40.29-15.68,10.07,6.75,22.81,9.92,37.18,8.66,17.9-1.56,34.32-10.14,46.65-24.28,11.56,11.75,28.12,17.74,47.52,16.04,13.54-1.19,26.54-6.84,39.02-16.94,10.07,7.83,23.61,11.71,38.99,10.36,13.64-1.29,26.73-6.01,38.06-13.71,9.53,5.79,21.47,8.53,34.81,7.36,15.11-1.32,30.66-7.86,42.74-17.57,13.54,7.89,29.21,11.36,44.81,9.91,15.11-1.32,28.2-6.78,38.44-15.27,9.84,6.7,22.54,9.93,36.85,8.68,13.92-1.22,28.11-6.84,39.7-15.26,9,6.58,20.62,9.74,33.85,8.58,10.07-.89,23.86-4.91,37.42-17.99,10.07,7.05,24.95,12.77,45.74,10.96,12.23-1.07,26.19-3.66,39.94-13.38,9.25,5.52,20.82,8.06,33.88,6.92,17.79-1.56,34.11-7.4,46.63-16.48,9.92,7.05,22.88,10.4,37.49,9.07,21.64-1.89,42.68-13.39,54.92-30l12.42-16.87-13.35-16.12c-8.15-9.86-10.25-28.02-12.31-51.08,5.12-16.91,9.69-41.77,7.75-63.97-3.65-41.69-28.2-56.32-51.58-56.32-1.67,0-3.33.08-4.99.22"/></clipPath><linearGradient id="linear-gradient-3" x1="-839.65" y1="6.13" x2="-838.64" y2="6.13" gradientTransform="translate(-482.2 -141182.95) rotate(-90) scale(169.16)" gradientUnits="userSpaceOnUse"><stop offset="0" stop-color="#e72f84"/><stop offset="1" stop-color="#f5bac5"/></linearGradient></defs><g class="cls-3"><rect class="cls-2" x="-33.43" y="18.45" width="1145.22" height="1099.28" transform="translate(-98.49 113.32) rotate(-11)"/></g><g class="cls-8"><path class="cls-11" d="m918.69,745.09l-4.58-2.49c35.12-64.7,51.78-134.42,51.78-203.19,0-151.39-80.75-298-223.14-375.31-64.7-35.12-134.42-51.78-203.19-51.78-151.39,0-298,80.75-375.31,223.14-35.12,64.69-51.78,134.42-51.78,203.18,0,151.39,80.75,298,223.14,375.31,64.7,35.13,134.42,51.78,203.19,51.78,151.39,0,298-80.75,375.31-223.14l4.58,2.49,4.58,2.49c-79.2,145.86-229.41,228.6-384.48,228.59h0c-70.45,0-141.92-17.08-208.16-53.05-145.86-79.2-228.6-229.41-228.6-384.48h0c0-70.45,17.08-141.92,53.05-208.16,79.2-145.86,229.41-228.6,384.48-228.59,70.45,0,141.92,17.08,208.17,53.05,145.86,79.2,228.6,229.41,228.59,384.48,0,70.45-17.08,141.92-53.05,208.16l-4.58-2.49Z"/></g><path class="cls-7" d="m502.77,607.34c-21.2-1.11-37.27-7.3-48.01-18.28-7.43,11.99-20.39,13.02-26.99,12.68l-13.01-.68c-5.46-.29-15.39-2.1-21.91-10.81-7.15,6.17-17.84,10.07-33.89,9.23-13.95-.74-23.48-5.04-29.97-11.14-6.78,7.35-16.45,7.7-20.38,7.49-8.95-.47-14.31-4.58-17.22-7.94-7.13-8.22-6.22-19.3-5.88-23.12l18.13-250.91c1.17-15.54,4.29-56.69,48-54.39,17.81.94,30.26,7.71,37.35,20.32.2-.29.41-.57.62-.85,8.47-11.32,21.27-16.37,39.12-15.43,13.83.73,35.25,6.72,40.93,35.83,8.65-5.59,18.85-6.93,28.14-6.44,12.85.67,22.93,4.64,30.06,11.82,5.54-4.65,13.09-6.88,22.16-6.4l11.67.6c3.04.14,6.05.7,8.94,1.66,3.8-23.96,21.66-26.82,32.5-26.26l11.67.61c9.52.49,15.64,4.33,19.44,8.18,6.91-5.51,15.62-6.35,21.94-6.04l11.68.61c11.48.6,18.03,6.04,21.5,10.54,3.93,5.04,6.04,11.37,6.43,19.14,3.63-.84,7.36-1.15,11.08-.91l11.68.6c4.11.22,13.69,1.59,20.48,9.26,10.34-8.75,22.83-9.66,30.05-9.29,16.04.85,27.88,6.79,35.25,17.66,6.35,9.42,8.88,21.75,8,38.8l-10.07,191.89c-2.28,43.43-27.93,65.11-74.21,62.69-21.15-1.11-37.42-7.57-48.45-18.88-5.94,9.07-16.02,13.82-28.89,13.14l-13.69-.72c-3.71-.19-11.87-1.33-18.42-7.18-5.6,3.74-12.7,5.55-20.95,5.12l-13.68-.72c-5.5-.29-20.72-2.63-26.08-19.27-12.86,13.01-31.25,18.91-55.16,17.69"/><path class="cls-6" d="m393.16,547.07l8.99-222.71c.15-3.02,1.01-5.97,5.32-5.74,2.67.14,3.18,3.18,3.02,6.18l-9.29,241.12c-.43,14.71,4.98,20,14.31,20.5l13.02.68c10.34.54,16.28-4.17,17.04-18.86l1.33-25.36,9.41-224.05c1.01-25.72-7.64-39.56-28.32-40.64-25.36-1.33-33.74,11.61-35.53,45.66l-11.77,192.78c-.28,5.34-.8,8.65-3.8,8.5-3-.15-3.5-3.54-3.21-8.87,1.62-31.03,6.88-188.71,7.42-199.06,1.55-29.7-7.85-41.91-30.22-43.08-22.69-1.19-30.42,12.09-32.59,40.79l-18.17,251.03c-.81,8.99,1.24,14.79,9.25,15.21,8.67.45,11.59-4.08,12.09-13.42,1.12-21.36,3.77-199.59,6.27-247.31.16-3.02,1.01-5.97,3.66-5.83,2.65.14,3.18,3.18,3.02,6.18l-4.36,223.61c-.64,25.07,5.32,39.1,29.67,40.38,26.7,1.4,32.09-12.09,33.44-37.74m70.8-201.76l-10.07,193.22c-1.71,32.71,11.99,52.17,49.7,54.14,39.05,2.01,59.16-17.65,61.68-65.7.21-4.03-1.32-6.76-4.65-6.94-4.67-.24-10.18,9.18-20.26,16.01-9.71,6.53-19.63,10.69-27.97,10.25-10.68-.56-14.73-6.47-13.93-21.49l7.82-149.18c.19-3.67.66-6.33,4.66-6.11,3.68.19,4.2,2.9,4.03,6.57l-8.06,153.52c-.29,5.67,1.6,7.79,6.61,8.06,9.07.47,27.58-8.93,40.94-27.64,12.28-17.12,13.35-37.45,13.9-48.14l6.72-128.14c.76-14.35-5.04-19.67-14-20.15l-11.68-.61c-11.01-.57-16.94,4.14-17.7,18.48l-8.67,165.53c-.12,2.34-.87,3.64-2.86,3.53s-2.6-1.47-2.48-3.81l7.7-148.15c1.34-25.7-4.95-39.75-28.31-40.97-21.02-1.11-31.65,10.07-33.1,37.75m120.81,248.99l13.68.72c12.35.64,18.73-6.04,19.41-19.06.34-6.68-.75-11.42-2.92-14.54l13.19-251.69c.76-14.34-5.04-19.67-14-20.15l-11.68-.61c-11.34-.59-16.94,4.13-17.7,18.48l-13.96,266.32c-.77,14.69,4.98,20,13.99,20.48m53.06,2.78l13.68.72c12.35.65,18.73-6.04,19.41-19.06.34-6.68-.75-11.42-2.92-14.54l13.19-251.64c.76-14.34-5.04-19.66-14-20.15l-11.68-.61c-11.34-.59-16.94,4.13-17.7,18.48l-13.96,266.32c-.77,14.69,4.98,20,13.99,20.48m94-254.76l-10.54,201.91c-.17,3.33.76,4.72,2.76,4.82,2,.1,2.74-1.19,2.92-4.52l9.65-184.22c1.45-27.7,13.09-39.47,31.8-38.5,23.03,1.21,30.67,15,29.31,41.03l-10.07,191.89c-1.73,33.04-17.73,50.94-58.77,48.79-38.04-2.01-53.01-22.86-51.2-57.57l10.8-205.92c.73-14.64,6.62-19.39,17.7-18.82l11.67.61c9.02.47,14.76,5.79,13.99,20.48m4.28,199.34c-.28,5.34.24,8.06,3.92,8.24,4.03.21,4.47-2.45,4.75-7.79l8.13-155.18c.14-2.67-1.09-4.74-4.09-4.91s-4.46,2.12-4.58,4.45l-8.13,155.18Z"/><polygon class="cls-5" points="798.74 405.78 808.71 401.04 798.42 397 793.69 387.02 789.65 397.32 779.67 402.05 789.96 406.09 794.7 416.07 798.74 405.78"/><path class="cls-7" d="m999.06,662.47c-8.76-9.21-12.09-27.09-15.75-49.84,3.91-17.12,6.71-42.12,3.24-64.01-6.98-44.06-35.59-55.62-60.03-51.75-14.6,2.32-41.15,12.83-70.37,54.61-6.16-26.7-27.78-41.55-55.08-37.27-10.07,1.59-23.71,6.66-36.4,21.04-12.64-7.3-29.83-10.55-53.1-6.86-14.2,2.34-27.61,8.13-39.05,16.86-9.97-5.1-22.26-6.9-35.9-4.74-16.93,2.68-37.13,12.09-49.51,22.89-12.38-7.86-27.8-10.89-45.11-8.15-12,1.8-23.33,6.66-32.91,14.1-9.44-4.03-20.72-5.32-33.1-3.35-13.46,2.13-28.97,8.48-40.99,16.44-10.34-5.12-22.92-6.57-37.43-4.27-14.94,2.37-31.4,10.83-42.84,19.14-10.4-6.34-23.85-8.6-39.41-6.14-22.12,3.54-40.61,16.49-47.96,22.29-12.57-7.36-28.2-10.17-45.41-7.43-11.43,1.73-22.2,6.45-31.23,13.67-9.38-3.98-20.56-5.22-32.82-3.27-17.24,2.73-37.88,12.38-50.19,23.47l-17.62,15.81,13.62,19.36c11.01,15.64,13.56,32.1,13.54,54.47-14.28,35.5-19.95,63.39-16.85,82.94,4.62,29.21,29.44,46.17,60.36,41.3,13.97-2.21,27.91-8.95,38.91-18.36,10.49,5.99,23.33,8.26,37.49,6.04,17.66-2.79,33.36-12.45,44.62-27.33,12.29,10.86,29.13,15.65,48.27,12.62,13.36-2.12,25.87-8.62,37.55-19.52,10.55,7.05,24.24,9.98,39.41,7.57,13.44-2.25,26.09-7.84,36.8-16.28,9.85,5.1,21.9,6.98,35.04,4.9,14.96-2.37,29.9-9.92,41.21-20.4,13.99,6.89,29.78,9.24,45.17,6.71,14.86-2.35,27.49-8.68,37.09-17.82,10.22,5.96,23.06,8.3,37.17,6.04,13.73-2.18,27.42-8.74,38.34-17.9,9.39,5.9,21.15,8.23,34.2,6.16,9.89-1.57,23.34-6.53,35.89-20.46,10.52,6.29,25.65,10.96,46.15,7.71,12.09-1.91,25.69-5.44,38.71-16.05,9.56,4.83,21.21,6.56,34.11,4.51,17.55-2.78,33.33-9.71,45.13-19.58,10.33,6.26,23.43,8.72,37.84,6.44,21.34-3.37,41.43-16.24,52.38-33.58l11.17-17.62-14.34-15.11Z"/><path class="cls-5" d="m203.3,463.46c1.01-18.63,8.37-33,26.26-32.05,13.73.72,22.34,10.01,21.59,24.48-.89,16.91-15.37,35.32-42.41,39.81-3.81-11.74-5.93-22.67-5.44-32.23m-42.72,78.87c1.01-18.88,12.95-36.19,34.98-38.97,8.8,28.98,30.53,59.86,56.52,79.91-10.96,7.53-25.18,11.46-41.84,10.59-35.05-1.84-50.91-27.74-49.66-51.52m-14.37,2.2c-1.36,25.99,19.33,53.39,63.21,55.67,16.42.86,33.33-2.92,47.16-13.51,15.18,10.63,31.28,17.62,47.21,18.45l.36-2.2c-12.02-.62-26.31-9.25-40.36-22.51,12.97-13.09,22.63-33.24,24.92-62.85,4.03-1.51,13.4-2.25,19.04-1.94l.25-4.91-57.11-3.02-.26,4.9c6.38.34,19.3,2.25,23.63,4.19,1.06,7.93,2.07,11.91,1.6,20.98-.84,15.93-6.46,29.4-16.06,38.97-20.07-20.19-39.21-48.92-49.11-75.79,38.09-4.64,52.72-25.76,53.68-44.14.73-13.73-9-29.72-31.06-30.87-30.4-1.59-40.65,20.48-42.06,47.44-.26,8.16.63,16.31,2.66,24.21-30.5,5.04-46.56,25.33-47.68,46.9"/><g class="cls-9"><rect class="cls-10" x="80.03" y="482.43" width="948.73" height="382.01" transform="translate(-53.32 47.69) rotate(-4.7)"/></g><path class="cls-4" d="m129.54,774.5c-1.61-18.41,10.43-48.28,22.07-71.52,2.3-26.81,1.87-51.2-12.98-75.79,9.15-7.14,25.46-13.22,37.34-14.25,16.48-1.44,26.59,5.25,28.77,18.98,8.13-13.16,19.2-23.42,35.44-24.84,28.11-2.46,40.88,15.23,42.73,36.31,2.42,27.63-12.83,57.04-44.82,68.14,5.87,19.76,15.9,25.47,36.98,12.4.68-.55,1.39-.86,1.48.11,4.52,29.4-13.14,61.96-42.22,64.47-18.9,1.66-30.1-9.07-31.77-28.2-1.17-13.34,5.93-29.83,14.69-44.27h-.24c-9.46.83-16.25-1.51-16.95-9.51-.38-4.36,3.25-24.17,4.6-31.16.05-1.18,1.04-2.09,2.22-2.05.18,0,.36.04.54.09,14.64,2.63,23.46,11.38,27.49,18.35,4.37-6.54,6.35-14.39,5.62-22.22-1.17-13.34-11.27-25.63-26.07-27.27-8.15,7.3-16.65,24.65-21.32,40.94v-.24c-1.74,5.28-3.43,11.08-4.84,17.27-4.6,19.93-10.71,59.05,4.72,76.26-7.05,9.16-20.92,17.71-35.25,18.96-16.95,1.48-26.99-7.16-28.2-20.98"/><path class="cls-4" d="m292.13,749.04c-1.59-18.13,5.43-41.3,17.74-59.67,2.54-26.84-1.71-58.7-13-76.03,8.98-6.15,23.02-13.25,36.84-14.45,18.13-1.59,27.82,5.38,29.21,21.62,1.01,11.88-3.21,24.7-8.48,39.82-6.19,18.6-13.58,40.29-13.41,67.35,13.78,3.92,31.23-8.59,43.19-25.51,1.72-8.21,3.24-15.91,4.13-22.58,3.75-26.94,6.94-46.27-7.66-73.53,10.07-7.23,24.95-13.42,35.38-14.33,17.93-1.57,29.21,4.29,30.55,19.79,1.82,20.84-13.25,52.44-24.17,72.44.38,29.52,9.3,64.39,17.67,70.74-7.39,10.42-22.16,18.05-35.68,19.24-13.81,1.21-26.52-4.51-27.96-20.99-.26-4.68-.02-9.37.73-13.99-18.44,29.21-35.8,40.29-49.85,41.48-22.29,1.95-33.52-11.96-35.25-31.35"/><path class="cls-4" d="m448.2,746.63c-1.61-18.42,10.44-48.29,22.07-71.52,2.3-26.81,1.87-51.2-12.97-75.78,9.14-7.15,25.46-13.23,37.33-14.26,16.48-1.44,26.59,5.25,28.75,18.74,8.37-13.19,19.94-23.24,37.39-24.76,25.45-2.23,39.28,13.16,41.52,39.1,2.1,23.99-10.19,45.33-29.38,57.76,15.11,7.72,25.71,20.22,27.26,37.9,2.01,23.51-11.3,43.97-37.27,46.23-24.72,2.17-49.44-15.21-51.99-44.32-.08-1.01.38-1.25,1.15-.83,5.17,2.14,10.77,3.07,16.36,2.72,14.83-1.29,26.69-13.52,25.35-28.83-.07-1.22-.25-2.43-.55-3.62-4.62,1.39-9.37,2.3-14.17,2.71-10.67.94-16.05-2.01-16.71-9.53-.38-4.36,3.02-24.17,3.85-28.66.51-2.49,1.13-3.77,3.62-3.25,12.94,2.78,21.89,10.07,25.87,16.54,3.56-5.99,5.09-12.98,4.36-19.91-1.33-15.27-12.15-27.27-26.44-28.7-8.48,9.07-14.56,20.56-19.89,34.95-2.69,7.55-4.95,15.25-6.77,23.06-4.61,19.93-10.71,59.06,4.71,76.26-7.05,9.17-20.92,17.71-35.25,18.96-16.96,1.48-27-7.16-28.2-20.97"/><path class="cls-4" d="m609.11,732.54c-1.63-18.37,10.46-48.29,22.07-71.53,2.3-26.82,1.86-51.2-12.98-75.79,9.15-7.15,25.46-13.22,37.34-14.25,17.2-1.51,27.62,5.88,28.93,20.91,1.64,18.65-10.3,38.51-16.65,66.41-4.6,19.94-10.71,59.06,4.71,76.27-7.05,9.16-20.91,17.7-35.25,18.95-16.96,1.49-26.99-7.16-28.2-20.97"/><path class="cls-4" d="m792.81,574.35c6.99-9.41,16.12-17.04,27.48-18.04,13.34-1.16,22.45,5.37,23.83,21.15,1.61,18.41-5.58,47.86-17.22,71.1-4.71,27.03-4.27,51.65-1.54,77.3-9.87,9.9-19.38,12.92-33.19,14.1-27.15,2.41-43.68-13.28-46.7-47.96-.87-9.94-.46-24.87.27-35.92.6-7.14-4.03-23.34-11.54-37.09-2.7,10.98-4.03,24.29-6.31,34.01-4.6,19.94-5.86,58.63,9.57,75.85-6.99,9.4-16.12,17.03-27.49,18.03-13.33,1.17-22.44-5.37-23.82-21.15-1.61-18.42,5.58-47.87,17.22-71.1,4.71-27.04,3.7-49.9-8.73-74.7,12.55-10.3,24.64-14.78,35.99-15.77,37.8-3.3,49.1,14.26,51.63,43.1,1.14,13.09.27,28.3-.44,45.22-.81,15.95,4.97,28.87,14.24,34.41l7.47-40.2c4.6-19.94,4.69-55.12-10.73-72.32"/><path class="cls-4" d="m926.4,641.54c2.01-13.85,3.37-25.7,2.9-31.02-.89-10.17-6.04-16.56-19.65-15.37-8.54,11.24-16.12,31.23-20.22,50.85,12.45-2.8,25.43-5.15,36.97-4.45m-88.51,71.23c-4.56-52.11,61.61-160.94,107.9-164.99,18.13-1.59,25.53,12.66,27.2,31.33,1.67,19.14-2.86,42.74-8.13,57.85,2.59,29.56,4.68,53.56,18.61,70.41-8.06,10.96-22.37,17.83-35.25,18.96-14.1,1.23-26.79-4.74-28.2-20.98-.81-9.21.78-24.73,3.02-40.55-12.89.32-25.54,3.51-37.04,9.35,0,2.36.13,4.71.37,7.05,2.17,24.72,11.84,31.93,17.99,35.25-7.79,8.74-21.84,15.58-39.28,17.12-17.45,1.54-25.99-6.77-27.2-20.82"/><path class="cls-6" d="m835.29,288.09c1.39-1.18,3-.65,4.92.77,3.4,2.64,6.54,5.6,9.39,8.82-.59.5-1.19,1-1.81,1.46-4.09,1.42-8.24,1.49-11.51-2.4-2.63-3.13-3.32-6.69-.99-8.66m7.23,20.11c2.21,2.63,4.61,2.13,7.21-.05l2.41-2.03-.79-.94-2.71,2.28c-1.56,1.32-2.79,1.73-3.74.55s-.48-2.13.83-3.23l12.97-10.92c3.3-2.77,3.61-6.37-.06-10.73-4.6-5.46-10.68-7.08-14.19-4.11-1.37,1.32-2.41,2.94-3.04,4.73l3.47,1.29c.16-.5,1.24-3.94,2.6-5.09,2.08-1.75,4.7-.75,7.77,2.87,2.71,3.22,4.01,6.84.41,9.86-.8.67-2.33,1.96-4.19,3.5-3-2.62-6.66-5.68-9.85-8-2.81-2.05-6.25-3.68-8.7-1.65-3.27,2.75-2.74,7.08.15,10.51,3.78,4.49,8.42,4.93,12.26,4.23l-1.87,1.54c-2.03,1.75-2.58,3.55-.98,5.42m-25.49-29.04l1.28,1.31,26.53-9.83c1.16.33,2.2,1,2.98,1.92l.71-.69-8.57-8.81-.71.69c.96.99,3.43,4.08,3.65,4.94l-21.98,9.21c2.88-7.67,5.85-15.35,8.85-22.98.86.25,4.8,3.9,5.77,4.89l.71-.69-9.85-10.12-.71.69c.85.73,1.45,1.7,1.73,2.79-3.33,8.99-6.82,17.85-10.3,26.66m-18.43-36.67c5.48-6.19,11.06-6,15.61-1.99,5.18,4.59,5.64,10.41-.07,16.83-5.29,5.96-10.8,6.4-15.64,2.1-5.18-4.6-5.68-10.46.1-16.95m-2.05,17.81c5.76,5.11,14.3,5.58,20.74-1.66,6.07-6.83,4.92-13.64-1.19-19.04-5.76-5.11-14.3-5.51-20.66,1.65-6.74,7.58-4.3,14.26,1.08,19.05m-16.2-14.09l5.93,4.54.58-.75-2.63-3.08-1.13-17.95,13.87-1.81c1.83-.25,3.15.53,4.56,1.61l.6-.79-8.66-6.65-.61.79c1.07.82,1.98,1.82,2.69,2.96l-13.95,2.59-2.94-2.26c1.2-1.66,2.38-3.2,3.32-4.44,3.3-4.31,12.24-15.73,12.7-16.23l-.2-1.2c-2.66-.15-5.26-.85-7.63-2.07l-.61.79c1.31.84,2.53,1.82,3.63,2.92-.08.29-6.89,9.72-10.28,14.17-3.64,4.75-11.1,14.23-11.89,14.9-.62.08-2.93-1.2-4.25-2.21l-.6.79,10.29,7.88.61-.8c-1.37-1.04-3.15-2.9-3.24-3.52.43-.65,3.81-5.25,7.13-9.68l2.95,2.25-.25,17.24Zm-33.66-25.03l-.54.84,12.63,8.23.55-.84c-1.16-.76-4.71-3.41-5.12-4.21.71-1.6,4.17-6.88,6.5-10.45l1.43-2.1c5.3-3.95,9-3.12,11.54-1.44l1.16.76,2.09-3.2c-2.85-1.8-8.04-2.08-13.09,1.3l4.04-5.96-.29-1.18c-2.67,0-5.32-.52-7.8-1.53l-.55.84c1.46.66,2.78,1.58,3.92,2.7-.59,1.6-3.1,5.45-4.89,8.18-2.22,3.47-4.63,6.81-7.22,10.02-.91.07-2.8-1-4.38-2.01m8.12-35.85c-.62,1.06-.27,2.42.78,3.04,1.04.61,2.38.28,3.01-.75l.22-.38c.63-.97.35-2.26-.61-2.89-.04-.02-.08-.05-.12-.07-.98-.67-2.31-.42-2.98.55-.03.04-.05.08-.08.12l-.23.38Zm-21.99,27.47l-.51.89,11.19,6.74.52-.85c-1.38-.81-2.62-1.84-3.66-3.05,1.65-3.27,3.87-7.02,6.11-10.71,2.37-3.93,4.34-7.13,6.8-10.96l-.33-1.17c-2.67.1-5.34-.33-7.85-1.24l-.51.89c1.48.6,2.84,1.47,4.02,2.55-1.47,2.99-2.91,5.55-4.61,8.41-2.07,3.56-4.34,7.01-6.8,10.32-.91.11-2.79-.84-4.36-1.78m-10.34-4.14c4.15,2.22,8.5.91,11.61-3.01l-.79-.43c-1.96,2.37-5.31,3.06-8.05,1.65-2.34-1.25-3.08-3.03-1.07-6.67l8.49-15.37c1.3.63,2.69,1.32,4.05,2.05,1.66.89,3.39,1.93,5.1,2.9l1.37-1.85c-1.67-.76-3.3-1.58-4.91-2.45-1.61-.86-3.17-1.82-4.61-2.66l2.98-5.36-.89-.48c-2.56,3.84-5.23,4.81-9.76,2.41l-.5.89c1.55.75,2.97,1.75,4.2,2.95-2.99,5.56-5.93,11.16-8.91,16.71-1.88,3.51-2.04,6.64,1.66,8.62m-23.04-12.94l-.4.9,13.57,6.02.4-.9c-2.23-.98-3.64-1.94-4.02-2.56.3-1.08,9.28-21.46,7.5-17.46,2.04-4.61,0-8.06-4.56-10.07-5.38-2.41-10.41-2.07-15.22,2.76l.68-1.52c2.2-4.96,8.23-18.16,8.55-18.75l-.47-1.12c-2.58.48-5.24.42-7.8-.18l-.4.9c1.44.5,2.82,1.15,4.11,1.95,0,.29-4.42,11.06-6.69,16.15-2.42,5.47-7.46,16.43-8.07,17.25-.58.23-3.07-.45-4.64-1.14l-.4.9,13.58,6.17.4-.9c-1.57-.7-5.46-2.85-5.69-3.43.27-.9,2.97-7.23,5.36-12.77,4.72-5.13,8.13-7.12,13.85-4.58,4.61,2.04,5.63,5.46,4.15,8.81-2.85,6.43-5.9,13.32-7.45,15.72-.64.08-4.14-1.05-6.3-2.03m-34.58-11.95c6.94,2.47,14.14,1.21,16.82-6.3,2.01-5.69-3.23-10.26-8.44-14.46-4.38-3.56-8.19-7.21-6.58-11.75,1.67-4.69,4.91-5.54,11.12-3.33,7.19,2.57,9.53,7.92,6.79,14.87l1.1.39,3.8-10.7c-2.84-2.68-6.17-4.81-9.8-6.25-6.29-2.23-13.59-1.5-15.84,4.71-2.14,6.01,2.59,10.56,7.52,14.56,4.93,3.99,9.1,8.11,7.42,12.86-1.93,5.39-6.88,5.61-11.16,4.09-10.64-3.79-11.28-8.42-7.24-18.15l-1.09-.39-5.35,14.03c3.4,2.39,7.09,4.35,10.98,5.82m-50.22-22.05c.41-1.81,2.01-2.32,4.41-2.34,4.3.08,8.59.55,12.8,1.43-.18.76-.35,1.52-.58,2.25-2.42,3.56-5.66,6.18-10.64,4.98-4-.92-6.67-3.37-5.98-6.33m17.86,11.76c3.35.77,4.97-1.07,5.73-4.36l.71-3.08-1.18-.3-.81,3.46c-.46,2-1.21,3.02-2.66,2.64-1.3-.3-1.66-1.41-1.28-3.08l3.83-16.51c.98-4.21-.93-7.31-6.48-8.56-6.96-1.61-12.76.73-13.82,5.21-.3,1.88-.16,3.8.41,5.61l3.55-1.06c-.2-.43-1.39-3.79-.94-5.6.61-2.64,3.3-3.44,7.94-2.37,4.1.95,7.31,3.06,6.24,7.65-.23,1.02-.69,2.97-1.27,5.27-3.97-.3-8.74-.54-12.72-.49-3.48.05-7.24.82-7.95,3.89-.97,4.16,2.06,7.34,6.43,8.32,5.72,1.33,9.7-1.11,12.35-3.96l-.54,2.32c-.59,2.59.06,4.4,2.49,4.96m-42.53-9.9l-.17.99,14.86,2.47.16-.98c-1.37-.23-5.69-1.23-6.38-1.79.06-1.74,1.05-7.97,1.74-12.18l.47-2.5c3.26-5.75,6.97-6.47,9.98-5.97l1.37.23.62-3.77c-3.34-.5-8.23,1.33-11.46,6.46l1.29-7.09-.74-.93c-2.45,1.08-5.08,1.67-7.75,1.74l-.17.98c1.6.02,3.18.33,4.68.89.12,1.7-.64,6.24-1.22,9.46-.69,4.21-1.9,10.46-2.52,12.1-.8.43-2.95.24-4.81-.07m-26.04-16.26c.83-8.16,5.44-11.35,11.51-10.74,6.89.71,10.66,5.15,9.79,13.69-.81,7.93-5.01,11.51-11.46,10.85-6.89-.7-10.74-5.16-9.84-13.8m8.77,15.64c7.66.78,14.86-3.83,15.84-13.47.93-9.06-3.98-13.94-12.07-14.76-7.67-.78-14.79,3.94-15.8,13.42-1.02,10.08,4.86,14.08,12.02,14.8m-44.34-3.73l-.04,1.08,27.26.72.33-12.62-1.27-.04c-.26,10.13-1.62,10.92-9.81,10.71-2.1-.07-4.92-.24-7.8-.48-.08-1.17-.09-11.31.07-17.45.18-5.45.78-16.88.96-17.54,1.53-.45,3.13-.65,4.72-.6l.04-1.06-13.51-.36-.04,1.11c1.59.06,3.17.34,4.68.84.11.29.18,12.14.03,17.73-.2,5.98-.7,16.35-.95,17.38-.74.53-2.85.64-4.73.59"/><polygon class="cls-5" points="884.1 392.77 905.55 390.74 889.39 376.47 887.36 355.02 873.1 371.18 851.63 373.21 867.8 387.47 869.83 408.94 884.1 392.77"/></svg>