<?xml version="1.0" encoding="UTF-8"?><svg id="Layer_5" xmlns="http://www.w3.org/2000/svg" viewBox="0 0 1080 1080"><defs><style>.cls-1,.cls-2,.cls-3,.cls-4,.cls-5,.cls-6{fill:none;}.cls-2{stroke-width:3px;}.cls-2,.cls-3,.cls-4,.cls-5,.cls-6{stroke:#e86b86;stroke-miterlimit:10;}.cls-3{stroke-width:12px;}.cls-7,.cls-8,.cls-9,.cls-10,.cls-11{fill:#fbd4d4;}.cls-12{fill:#e86b85;}.cls-13{fill:#e86b86;}.cls-14{fill:#263e22;}.cls-4{stroke-width:7.5px;}.cls-8{opacity:.2;}.cls-5{stroke-width:5.25px;}.cls-6{stroke-width:9.75px;}.cls-9{opacity:.6;}.cls-10{opacity:.8;}.cls-11{opacity:.4;}</style></defs><g id="Layer_5-2"><path class="cls-8" d="m540.37,997.96c-123.71,0-240.9-49.57-326.79-137.13-10.98-.97-24.83-3.06-39.64-7.43-33.54-9.9-61.95-28.48-82.15-53.73l-30.4-37.99,29.21-135.17c-5.44-28.46-8.18-57.54-8.17-86.68.03-61.76,12.41-121.86,36.8-178.63,23.45-54.58,56.9-103.62,99.41-145.75,42.52-42.14,91.88-75.16,146.69-98.13,57.01-23.89,117.2-35.74,179.01-35.21,87.28.74,172,26.16,244.98,73.51,60.23,39.07,110.24,91.49,146.29,153,12.83,4.78,24.65,11.49,35.16,20.03,16.58,13.46,29.57,31.29,37.62,51.58,14.55,36.1,14.34,76.9-.65,124.69-1.14,3.79-2.53,8-4.42,13.72l-.12.37c-1.46,4.41-3.12,9.45-4.93,15.1.03,1.99.04,3.97.04,5.93,0,66.84-14.02,131.08-41.7,191.16-1.1,10.22-2.24,22.01-3.59,37.16l-8.31,93.27h-78.31c-85.83,87.08-202.68,136.36-326.03,136.36v-.03Z"/><path class="cls-11" d="m540.37,983.06c-121.56,0-236.6-49.47-320.03-136.67-10.82-.64-25.87-2.47-42.18-7.28-30.6-9.03-56.44-25.89-74.73-48.75l-25.97-32.46,28.36-131.24c-5.64-28.47-8.5-57.62-8.48-86.83.02-59.73,12-117.85,35.59-172.76,22.69-52.82,55.06-100.27,96.21-141.05,41.16-40.79,88.92-72.74,141.96-94.97,55.13-23.1,113.38-34.55,173.13-34.05,84.44.72,166.4,25.31,237,71.11,59.82,38.81,109.22,91.21,144.29,152.78,31.63,10.22,56.31,32.93,69.07,64.89h0c13.16,32.97,12.82,69.43-1.07,114.74-.98,3.21-2.35,7.47-4.44,13.8-1.66,5.04-3.6,10.9-5.72,17.55.05,2.74.08,5.46.08,8.15,0,65.48-13.91,128.37-41.34,187.11-1.2,10.89-2.42,23.43-3.89,39.89l-7.1,79.69h-70.97c-83.41,87.01-198.32,136.36-319.73,136.36h-.04Z"/><path class="cls-9" d="m540.37,968.16c-119.46,0-232.41-49.44-313.35-136.4-9.89-.23-26.41-1.56-44.64-6.94-27.66-8.16-50.94-23.3-67.32-43.77l-21.55-26.93,27.52-127.36c-5.86-28.47-8.82-57.66-8.8-86.93.02-57.7,11.59-113.84,34.38-166.88,21.93-51.05,53.23-96.93,93-136.35,39.79-39.44,85.96-70.33,137.23-91.81,53.26-22.32,109.54-33.39,167.24-32.9,81.6.7,160.8,24.46,229.02,68.71,59.51,38.6,108.35,91.14,142.4,152.91,30.04,8.02,53.5,28.4,65.23,57.78h0c11.83,29.64,11.36,62.96-1.48,104.85-.95,3.1-2.29,7.27-4.35,13.5-1.87,5.66-4.08,12.36-6.52,20.06.08,3.47.13,6.92.13,10.3,0,64.09-13.78,125.62-40.98,183-1.3,11.57-2.6,24.85-4.19,42.67l-5.89,66.11h-63.76c-80.94,86.94-193.86,136.36-313.31,136.36v.02Z"/><path class="cls-9" d="m540.37,953.26c-117.45,0-228.39-49.52-306.79-136.38-1.02.02-2.05.03-3.07.03-15.88,0-70.3-3.26-103.82-45.16l-17.12-21.4,26.7-123.53c-6.08-28.44-9.15-57.66-9.14-86.97.02-55.67,11.18-109.84,33.17-161.01,21.18-49.29,51.39-93.58,89.8-131.65,38.42-38.08,83-67.91,132.5-88.65,51.38-21.53,105.69-32.18,161.35-31.74,78.76.67,155.2,23.6,221.03,66.31,59.28,38.46,107.6,91.24,140.57,153.35,28.64,5.5,50.49,23.2,61.33,50.36h0c10.5,26.32,9.9,56.5-1.88,94.97-.92,3-2.23,7.07-4.25,13.2-1.97,5.96-4.54,13.74-7.33,22.63.12,4.19.19,8.34.19,12.4,0,62.69-13.66,122.83-40.6,178.83-1.41,12.29-2.8,26.29-4.51,45.52l-4.68,52.53h-52.74c-1.31,0-2.61-.01-3.91-.04-78.4,86.88-189.33,136.4-306.8,136.4h0Z"/><path class="cls-10" d="m540.37,938.36c-115.53,0-224.53-49.71-300.33-136.66-3.18.2-6.36.3-9.53.3-14.2,0-62.82-2.85-92.19-39.57l-12.7-15.87,25.88-119.77c-6.31-28.39-9.5-57.62-9.49-86.95.02-53.63,10.77-105.83,31.96-155.13,20.42-47.52,49.55-90.23,86.6-126.95,37.06-36.73,80.05-65.5,127.77-85.49,49.51-20.75,101.81-31.05,155.47-30.58,75.93.65,149.6,22.75,213.05,63.91,59.25,38.44,107.13,91.71,138.96,154.47,26.97,2.99,47.54,18.03,57.21,42.27h0c9.18,23,8.45,50.03-2.29,85.08-.89,2.89-2.17,6.87-4.16,12.9-2.16,6.54-5.04,15.26-8.16,25.25.17,4.88.26,9.73.26,14.44,0,61.27-13.53,120-40.21,174.61-1.53,13.03-3,27.74-4.84,48.42l-3.47,38.95h-39.11c-3.48,0-6.95-.11-10.36-.33-75.8,86.97-184.8,136.68-300.35,136.68l.03.02Z"/><path class="cls-7" d="m540.37,923.46c-113.73,0-220.87-50.03-294-137.28-5.25.61-10.58.92-15.86.92-12.52,0-55.33-2.45-80.55-33.97l-8.27-10.34.05-.23,25.03-115.84c-6.54-28.32-9.86-57.54-9.84-86.87.02-51.6,10.37-101.82,30.75-149.26,19.66-45.75,47.72-86.88,83.4-122.25,35.69-35.38,77.09-63.08,123.04-82.33,47.64-19.96,97.99-29.85,149.58-29.42,73.09.62,144,21.89,205.07,61.51,59.42,38.55,106.97,92.6,137.53,156.32,34.73.25,48.06,21.04,52.91,33.44h0c8.08,19.88,7.22,43.77-2.7,75.19-.85,2.87-2.15,6.8-3.94,12.22l-.12.37c-2.35,7.11-5.54,16.8-9,27.94.23,5.55.35,11.08.35,16.42,0,59.82-13.39,117.12-39.8,170.31-1.66,13.83-3.21,29.21-5.19,51.4l-2.26,25.38h-25.47c-5.69,0-11.3-.32-16.69-.95-73.13,87.26-180.28,137.3-294.01,137.3v.02Z"/><g id="Layer_5-3"><path class="cls-2" d="m540.37,997.96c-123.71,0-240.9-49.57-326.79-137.13-10.98-.97-24.83-3.06-39.64-7.43-33.54-9.9-61.95-28.48-82.15-53.73l-30.4-37.99,29.21-135.17c-5.44-28.46-8.18-57.54-8.17-86.68.03-61.76,12.41-121.86,36.8-178.63,23.45-54.58,56.9-103.62,99.41-145.75,42.52-42.14,91.88-75.16,146.69-98.13,57.01-23.89,117.2-35.74,179.01-35.21,87.28.74,172,26.16,244.98,73.51,60.23,39.07,110.24,91.49,146.29,153,12.83,4.78,24.65,11.49,35.16,20.03,16.58,13.46,29.57,31.29,37.62,51.58,14.55,36.1,14.34,76.9-.65,124.69-1.14,3.79-2.53,8-4.42,13.72l-.12.37c-1.46,4.41-3.12,9.45-4.93,15.1.03,1.99.04,3.97.04,5.93,0,66.84-14.02,131.08-41.7,191.16-1.1,10.22-2.24,22.01-3.59,37.16l-8.31,93.27h-78.31c-85.83,87.08-202.68,136.36-326.03,136.36v-.03Z"/><path class="cls-5" d="m540.37,983.06c-121.56,0-236.6-49.47-320.03-136.67-10.82-.64-25.87-2.47-42.18-7.28-30.6-9.03-56.44-25.89-74.73-48.75l-25.97-32.46,28.36-131.24c-5.64-28.47-8.5-57.62-8.48-86.83.02-59.73,12-117.85,35.59-172.76,22.69-52.82,55.06-100.27,96.21-141.05,41.16-40.79,88.92-72.74,141.96-94.97,55.13-23.1,113.38-34.55,173.13-34.05,84.44.72,166.4,25.31,237,71.11,59.82,38.81,109.22,91.21,144.29,152.78,31.63,10.22,56.31,32.93,69.07,64.89h0c13.16,32.97,12.82,69.43-1.07,114.74-.98,3.21-2.35,7.47-4.44,13.8-1.66,5.04-3.6,10.9-5.72,17.55.05,2.74.08,5.46.08,8.15,0,65.48-13.91,128.37-41.34,187.11-1.2,10.89-2.42,23.43-3.89,39.89l-7.1,79.69h-70.97c-83.41,87.01-198.32,136.36-319.73,136.36h-.04Z"/><path class="cls-4" d="m540.37,968.16c-119.46,0-232.41-49.44-313.35-136.4-9.89-.23-26.41-1.56-44.64-6.94-27.66-8.16-50.94-23.3-67.32-43.77l-21.55-26.93,27.52-127.36c-5.86-28.47-8.82-57.66-8.8-86.93.02-57.7,11.59-113.84,34.38-166.88,21.93-51.05,53.23-96.93,93-136.35,39.79-39.44,85.96-70.33,137.23-91.81,53.26-22.32,109.54-33.39,167.24-32.9,81.6.7,160.8,24.46,229.02,68.71,59.51,38.6,108.35,91.14,142.4,152.91,30.04,8.02,53.5,28.4,65.23,57.78h0c11.83,29.64,11.36,62.96-1.48,104.85-.95,3.1-2.29,7.27-4.35,13.5-1.87,5.66-4.08,12.36-6.52,20.06.08,3.47.13,6.92.13,10.3,0,64.09-13.78,125.62-40.98,183-1.3,11.57-2.6,24.85-4.19,42.67l-5.89,66.11h-63.76c-80.94,86.94-193.86,136.36-313.31,136.36v.02Z"/><path class="cls-4" d="m540.37,953.26c-117.45,0-228.39-49.52-306.79-136.38-1.02.02-2.05.03-3.07.03-15.88,0-70.3-3.26-103.82-45.16l-17.12-21.4,26.7-123.53c-6.08-28.44-9.15-57.66-9.14-86.97.02-55.67,11.18-109.84,33.17-161.01,21.18-49.29,51.39-93.58,89.8-131.65,38.42-38.08,83-67.91,132.5-88.65,51.38-21.53,105.69-32.18,161.35-31.74,78.76.67,155.2,23.6,221.03,66.31,59.28,38.46,107.6,91.24,140.57,153.35,28.64,5.5,50.49,23.2,61.33,50.36h0c10.5,26.32,9.9,56.5-1.88,94.97-.92,3-2.23,7.07-4.25,13.2-1.97,5.96-4.54,13.74-7.33,22.63.12,4.19.19,8.34.19,12.4,0,62.69-13.66,122.83-40.6,178.83-1.41,12.29-2.8,26.29-4.51,45.52l-4.68,52.53h-52.74c-1.31,0-2.61-.01-3.91-.04-78.4,86.88-189.33,136.4-306.8,136.4h0Z"/><path class="cls-6" d="m540.37,938.36c-115.53,0-224.53-49.71-300.33-136.66-3.18.2-6.36.3-9.53.3-14.2,0-62.82-2.85-92.19-39.57l-12.7-15.87,25.88-119.77c-6.31-28.39-9.5-57.62-9.49-86.95.02-53.63,10.77-105.83,31.96-155.13,20.42-47.52,49.55-90.23,86.6-126.95,37.06-36.73,80.05-65.5,127.77-85.49,49.51-20.75,101.81-31.05,155.47-30.58,75.93.65,149.6,22.75,213.05,63.91,59.25,38.44,107.13,91.71,138.96,154.47,26.97,2.99,47.54,18.03,57.21,42.27h0c9.18,23,8.45,50.03-2.29,85.08-.89,2.89-2.17,6.87-4.16,12.9-2.16,6.54-5.04,15.26-8.16,25.25.17,4.88.26,9.73.26,14.44,0,61.27-13.53,120-40.21,174.61-1.53,13.03-3,27.74-4.84,48.42l-3.47,38.95h-39.11c-3.48,0-6.95-.11-10.36-.33-75.8,86.97-184.8,136.68-300.35,136.68l.03.02Z"/><path class="cls-3" d="m540.37,923.46c-113.73,0-220.87-50.03-294-137.28-5.25.61-10.58.92-15.86.92-12.52,0-55.33-2.45-80.55-33.97l-8.27-10.34.05-.23,25.03-115.84c-6.54-28.32-9.86-57.54-9.84-86.87.02-51.6,10.37-101.82,30.75-149.26,19.66-45.75,47.72-86.88,83.4-122.25,35.69-35.38,77.09-63.08,123.04-82.33,47.64-19.96,97.99-29.85,149.58-29.42,73.09.62,144,21.89,205.07,61.51,59.42,38.55,106.97,92.6,137.53,156.32,34.73.25,48.06,21.04,52.91,33.44h0c8.08,19.88,7.22,43.77-2.7,75.19-.85,2.87-2.15,6.8-3.94,12.22l-.12.37c-2.35,7.11-5.54,16.8-9,27.94.23,5.55.35,11.08.35,16.42,0,59.82-13.39,117.12-39.8,170.31-1.66,13.83-3.21,29.21-5.19,51.4l-2.26,25.38h-25.47c-5.69,0-11.3-.32-16.69-.95-73.13,87.26-180.28,137.3-294.01,137.3v.02Z"/><path class="cls-1" d="m304.26,967.78c3.22,0,3.22-5,0-5s-3.22,5,0,5h0Z"/></g><path class="cls-12" d="m411.31,832.49l-53,10.66c-.86-2.15-1.29-4.55-1.46-7.05l29.16-8.86v-1.11l-26.67-16.09c.86-2.49,2.24-4.47,4.13-6.11l40.61,18.07c36.91-2.58,111.76-6.37,168.29-6.37,70.63,0,134.56,3.19,150.82,6.71.34,1.46.34,2.75-.17,4.05-17.29,8.26-49.47,14.28-99.29,14.28-71.58,0-148.07.69-212.42-8.17h0Zm280.74-5.16c0-2.75-2.15-4.99-4.9-4.99s-4.99,2.24-4.99,4.99,2.24,4.9,4.99,4.9,4.9-2.24,4.9-4.9Z"/><path class="cls-13" d="m304.26,967.78c3.22,0,3.22-5,0-5s-3.22,5,0,5h0Z"/><path class="cls-12" d="m380.23,271.48c-1.25-2.04-2.86-4.29-4.3-6.11-4,2.46-5.74,3.58-8.43,5.78-1.2-.99-1.97-2.24-2.36-3.84,3.43-1.62,3.69-1.73,6.82-3.66,2.16-1.33,4.36-2.74,7.18-4.74,1.24,3.24,3.17,7.18,5.03,10.19l2.99,4.86c2.77,4.51,4.63,7.96,4.21,10.97-.41,2.58-1.72,4.67-3.71,5.9-2.19,1.35-4.18,2.25-5.69,2.42-1.74-1.25-3.18-2.53-4.11-4.22,2.71-.16,4.06-.34,6.06-1.57,1.65-1.01,2.23-2.08,2.43-3.87.17-2.1-1.87-5.23-4.54-9.58l-1.57-2.55v.02Z"/><path class="cls-12" d="m404.41,281.28c-3.19,1.64-6.23.56-7.61-2.14-1.26-2.45-1.17-5.09-.1-6.93,1.59-2.73,5.14-5.39,8.17-7.04l-.06-.12c-1.37-2.66-1.92-4.03-3.09-4.31-1.01-.26-1.85-.19-3.45.63-2.54,1.3-4.13,3.93-5.56,6.48-1.06-.96-1.77-3.64-1.68-4.77,1.01-1.97,3.6-4.07,6.17-5.4,2.66-1.37,4.28-1.84,6.17-1.57,1.77.23,2.92,1.45,3.91,3.37,1.05,2.05,1.71,3.83,2.72,5.79l.82,1.6c1.2,2.33,3.08,5.19,5.19,7.78-1.57,1.27-3.17,2.09-5.03,2.59-.35-1.58-.79-2.75-1.49-4.2l-.55.13c.09,2.28-.37,4.02-1.16,5.2-.83,1.2-1.97,2.2-3.36,2.92h-.01Zm0-4.55c1.31-.67,2.18-1.69,2.56-2.87.36-1.11.38-3.09-.45-5.3-2.6.77-3.89,1.28-4.63,1.66-2.33,1.2-2.54,3.22-1.63,4.98.5.98,1.13,1.69,1.96,1.89.66.18,1.46.02,2.2-.35h0Z"/><path class="cls-12" d="m426.69,269.96c-1.77,1.13-3.81,1.98-6.12,2.54-.61-3.28-1.9-7.33-3.43-11.03l-5.18-12.49c-.86-2.08-2.82-5.85-4.67-8.62,1.38-1.47,3.3-2.96,5.41-3.64.95,4.09,1.96,7,3.16,9.89l4.09,9.86c.76-.32,1.53-.63,2.23-.98,1.41-3.57,1.8-6.22,2.53-9.62,2.68-1.71,5.06-2.69,7.05-2.93l-6.15,10.97.1.36c2.53,1.79,2.34,1.57,4.01,2.72l3.42,2.36c2.46,1.72,4.35,2.93,7.65,4.75-2.06,1.15-4.23,2.05-6.58,2.73-1.49-2.27-2.79-3.12-4.82-4.42l-2.64-1.69c-1.02-.67-2.18-1.29-3.76-1.98-.61.2-1.21.45-1.8.7l.11.25c1.53,3.7,3.59,7.57,5.4,10.26h-.01Z"/><path class="cls-12" d="m457.1,256.04c-1.62,2.94-3.86,4.82-6.58,5.69-4.69,1.51-9.63-1.11-11.76-7.72-1.41-4.38-.59-7.83.93-10.78,1.6-3.12,4.24-4.99,6.74-5.79,4.69-1.51,9.5,1.15,11.64,7.8,1.41,4.38.63,7.82-.97,10.8Zm-6.07,1.27c1.71-.55,2.9-1.51,3.52-2.87.63-1.36.37-3.21-.29-5.41-1.7-5.3-4.45-8.43-8.52-7.12-1.66.54-2.85,1.21-3.52,2.73-.62,1.36-.36,3.4.35,5.59,1.66,5.31,4.44,8.38,8.46,7.09h0Z"/><path class="cls-12" d="m475.13,254.61c-3.54.81-7.08.62-9.3-.05.13-3.14-.5-6.73-1.39-10.63l-2.82-12.38c-.51-2.24-1.8-6.24-3.15-9.28,1.61-1.22,3.75-2.37,5.99-2.69.2,4.2.71,7.25,1.42,10.38l1.42,6.23.29.03c.52-1.86,1.31-2.94,2.38-3.84,1.19-.98,2.54-1.71,4.51-2.16,4.08-.93,8.13,2.35,9.61,8.85,1.02,4.48-.07,7.56-1.96,10.45-1.74,2.71-4.18,4.44-7,5.09h0Zm-5.93-10.07c.41,1.79.9,3.95,1.71,6.07,1.28.23,2.95.13,5.11-.36,1.75-.4,2.97-1.24,3.68-2.49.78-1.36.78-3.01.27-5.25-1.24-5.43-3.54-8.49-7.08-7.68-1.48.34-2.52,1.14-3.23,2.2-.74,1.11-1.39,3.43-.7,6.43l.25,1.08h0Z"/><path class="cls-12" d="m499.72,229.39c-.37-3.48-1.2-7.69-2.23-10.86l19.76-2.13c.22,2.06.11,4.01-.55,6.03-3.9-1.38-8.28-1.7-12.68-1.36-.09,2.6.03,5.46.29,7.83l.39,3.61c2.32-.34,4.66-.96,9.51-2.74.68,2.05.88,3.84.57,6.14-5.03-.71-7.45-.86-9.79-.7l.26,2.42c.38,3.52,1.26,7.82,2.33,10.9-2.24.7-4.52.95-6.77.73.29-3.32.25-7.57-.13-11.09l-.95-8.78h-.01Z"/><path class="cls-12" d="m526.95,247.55c-3.59.12-5.87-2.16-5.97-5.19-.09-2.76,1.12-5.1,2.88-6.31,2.61-1.79,6.96-2.67,10.4-2.87v-.14c-.1-2.99-.01-4.46-.96-5.22-.8-.66-1.6-.96-3.39-.9-2.85.09-5.42,1.79-7.8,3.48-.55-1.32-.04-4.05.53-5.03,1.75-1.35,4.99-2.14,7.89-2.24,2.99-.1,4.65.17,6.25,1.22,1.5.96,2.02,2.56,2.09,4.72.07,2.3-.09,4.19-.02,6.4l.06,1.79c.08,2.62.56,6.01,1.36,9.25-1.96.48-3.76.54-5.66.18.36-1.58.46-2.82.45-4.43l-.56-.12c-.9,2.1-2.05,3.47-3.27,4.2-1.26.73-2.72,1.15-4.29,1.2h0Zm1.94-4.11c1.47-.05,2.7-.59,3.54-1.5.8-.85,1.66-2.63,1.86-4.98-2.68-.42-4.07-.51-4.89-.49-2.62.09-3.67,1.82-3.6,3.8.04,1.1.3,2.02.96,2.55.52.44,1.31.65,2.14.62h-.01Z"/><path class="cls-12" d="m551.29,237.3c-.14,2.85.05,6.27.57,9.56-2.18.26-4.38.15-6.62-.34.85-3.23,1.39-6.56,1.54-9.46l.21-4.23c.13-2.62-.06-5.99-.59-9.29,2-.31,3.79-.22,5.65.29-.45,1.54-.69,2.73-.82,4.29l.54.17c1.16-2.06,2.32-3.11,3.6-3.73,1.32-.67,3.08-.86,5.01-.76,3.31.17,6.1,2.43,5.89,6.56-.13,2.53-.51,4.58-.62,6.74l-.05.92c-.14,2.85.05,6.27.57,9.56-2.18.26-4.38.15-6.62-.34.85-3.23,1.39-6.56,1.54-9.46l.15-3.03c.15-2.99,0-4.7-.77-5.7-.52-.67-1.5-1.27-3.02-1.35-1.47-.07-2.69.42-3.66,1.24-1.01.87-2.27,3.02-2.43,6.1l-.12,2.25h.05Z"/><path class="cls-12" d="m568.38,252.72c.26-2.33,1.89-4.11,4.47-4.32l.12-.54c-1.24-.77-1.89-1.83-1.67-3.47.25-1.87,1.22-3.6,3.6-3.65l.17-.58c-1.85-1.41-2.89-3.73-2.5-6.65.41-3.1,2.17-4.81,4.38-6.05,2.37-1.45,5.15-1.73,7.43-1.42,1,.13,1.94.4,2.73.78l3.02-5.26c1.7.51,3.18,2.23,3.2,3.82l-4.82,2.37c1.76,1.44,2.66,3.7,2.28,6.57-.41,3.1-2.08,4.78-4.43,6.09-1.96,1.08-4.25,1.57-6.45,1.41-2.89.08-4.12.66-4.24,1.52-.21,1.55,1.43,1.81,5.99,2.42l2.23.3c3.24.43,4.87.7,6.12,1.79.83.71,1.11,2.14.93,3.47-.23,1.73-1.69,3.63-3.91,5.32-2.95,2.25-6.88,3.58-11.35,2.99-5.88-.79-7.68-3.67-7.29-6.91h-.01Zm10.26,2.72c3.83.51,5.79-.25,6.85-.9,1.02-.65,1.63-1.41,1.75-2.32.09-.64-.19-1-.53-1.23-.6-.4-1.45-.61-6.56-1.29-1-.13-1.96-.26-2.82-.42-1.32.15-2.34.48-2.78.65-.93.34-1.58,1.09-1.7,1.95-.27,2.01,1.55,2.99,5.79,3.56h0Zm2.54-16.6c1.32.18,2.42-.05,3.29-.63.87-.63,1.36-1.49,1.6-2.94.46-3.42-.61-5.84-3.9-6.27-1.32-.18-2.32-.03-3.23.59-.92.62-1.46,1.57-1.65,2.98-.46,3.42.61,5.84,3.9,6.27h0Z"/><path class="cls-12" d="m600.85,242.97c-.67,2.77-1.1,6.17-1.15,9.52-2.23-.16-4.38-.67-6.49-1.56,1.43-3.01,2.58-6.19,3.25-9.01l.99-4.11c.61-2.55,1.04-5.9,1.13-9.24,2.02.06,3.81.49,5.59,1.34-.83,1.5-1.21,2.69-1.65,4.1l.46.25c1.47-1.78,2.91-2.66,4.23-3.05,1.42-.41,3.05-.31,4.58.06,2.73.66,4.46,2.3,3.87,5.75l.46.25c1.27-1.54,2.62-2.63,3.98-2.97,1.5-.35,3.05-.31,4.66.08,2.95.71,4.83,3.34,3.94,7.05-.69,2.86-1.31,4.46-1.88,6.83l-.21.89c-.67,2.77-1.1,6.17-1.15,9.52-2.23-.16-4.38-.67-6.49-1.56,1.43-3.01,2.58-6.19,3.24-8.97l1.16-4.83c.37-1.52.48-2.77.07-3.63-.51-1.02-1.15-1.51-2.76-1.89-1.03-.25-1.82-.11-2.92.53-1.2.66-2.8,2.59-3.52,5.59l-.52,2.15c-.67,2.77-1.1,6.17-1.15,9.52-2.19-.15-4.38-.67-6.48-1.56,1.43-3.01,2.58-6.19,3.25-9.01l1.15-4.79c.37-1.52.48-2.77.07-3.63-.51-1.02-1.2-1.52-2.76-1.89-1.03-.25-1.82-.11-2.92.53-1.2.66-2.8,2.59-3.51,5.54l-.53,2.19h.01Z"/><path class="cls-12" d="m646.31,254.65l-8.78-3.74c-1.52,5.12-.17,8.19,3.95,9.65,2.25.8,4.82.73,7.52-.41.06,1.34-1.1,3.66-2.28,4.66-2.16.6-4.92.4-8.44-.84-5.64-2-7.82-6.87-5.5-13.41,1.54-4.34,4.09-6.6,7.16-7.96,3.01-1.33,5.6-1.63,8.42-.63,4.16,1.47,5.52,5.22,4.05,9.39-.4,1.13-1.02,2.47-1.47,3.04-1.3.37-2.82.52-4.63.26h0Zm-7.99-5.95c3.34,1.04,7.1,2.12,9.32,2.62.21-.46.4-.98.67-1.76.75-2.12-1.24-3.81-3.02-4.44-1.47-.52-3.15-.48-4.29.14s-2.01,1.83-2.68,3.44Z"/><path class="cls-12" d="m660.84,247.37c2.3.58,4.32,1.48,6.1,2.58-1.93,2.78-3.58,5.73-4.69,8.36l-1.54,3.64c-1.11,2.63-2.1,5.9-2.74,9.18-2.05-.47-4.08-1.33-6.1-2.58,1.91-2.74,3.56-5.69,4.69-8.36l1.54-3.64c1.13-2.67,2.1-5.9,2.74-9.18h0Zm4.85-10.63c1.86.44,3.73,1.23,5.42,2.3-.46,1.9-1.25,3.77-2.37,5.59-1.82-.42-3.64-1.19-5.42-2.3.46-1.9,1.26-3.81,2.37-5.59Z"/><path class="cls-12" d="m679.83,269.46l-8.26-4.77c-2.13,4.9-1.15,8.11,2.76,10.05,2.14,1.06,4.69,1.31,7.51.5-.1,1.34-1.54,3.5-2.83,4.35-2.22.33-4.94-.19-8.27-1.85-5.35-2.66-6.93-7.76-3.84-13.98,2.05-4.12,4.86-6.06,8.07-7.03,3.14-.95,5.76-.94,8.43.39,3.95,1.97,4.85,5.85,2.88,9.8-.53,1.07-1.31,2.33-1.82,2.84-1.34.21-2.86.17-4.63-.3h0Zm-7.21-6.87c3.19,1.43,6.79,2.97,8.93,3.72.27-.43.51-.93.88-1.67,1-2.02-.77-3.93-2.46-4.77-1.4-.7-3.07-.86-4.28-.38-1.21.48-2.22,1.57-3.08,3.09h.01Z"/><path class="cls-12" d="m693.16,278.4c-1.44,2.46-2.85,5.58-3.9,8.75-2.01-.75-3.96-1.89-5.71-3.35,2.25-2.47,4.26-5.18,5.73-7.68l2.14-3.65c1.33-2.26,2.71-5.34,3.76-8.51,1.92.64,3.46,1.55,4.88,2.86-1.33,1.46-1.94,2.22-2.7,3.43l.41.4c1.88-1.3,3.44-1.77,4.96-1.73,1.69.03,2.85.5,4.64,1.82-1.32,1.79-2.46,2.93-3.86,4.03-.58-.82-1.2-1.23-1.79-1.58-1.19-.7-1.92-.64-3.19-.38-1.34.28-3.2,1.91-4.18,3.58l-1.19,2.02h0Z"/></g><path class="cls-14" d="m230.54,758.04c-22.7,0-46.1-8.26-59.86-21.33l36.46-164.43c8.94,0,19.95,2.75,26.14,6.88l-33.71,139.67c11.7,8.94,22.02,12.38,37.15,12.38,26.83,0,48.85-11.7,58.48-51.6,13.76-59.17-6.88-105.27-35.09-160.99-27.52-54.35-29.58-104.58-20.64-148.61,8.94-44.72,39.22-68.8,76.37-68.8,24.77,0,44.03,9.63,57.1,22.7l-34.4,149.98c-10.32,1.38-19.95-1.38-28.21-6.88l33.71-127.97c-10.32-7.57-22.02-10.32-36.46-10.32-19.95,0-35.78,14.45-43.34,43.34-6.19,26.14-8.94,74.3,18.58,130.72,28.21,57.79,51.6,119.02,38.53,178.19-10.32,48.85-39.9,77.06-90.82,77.06Zm-9.63-174.75l-4.13-1.38-33.02,147.23c13.76,12.38,30.27,17.2,52.29,17.2,46.1,0,66.74-33.02,74.3-64.67,15.14-59.86-4.82-108.02-35.78-169.25-31.65-62.61-28.9-99.76-20.64-141.04,7.57-36.46,33.71-54.35,59.17-54.35,20.64,0,36.46,8.26,44.72,16.51l-33.71,128.66,4.13,1.38,34.4-131.41c-9.63-11.01-28.9-19.26-48.16-19.26-29.58,0-57.1,19.26-64.67,57.79-7.57,41.28-11.01,79.81,20.64,143.1,29.58,59.86,50.91,108.71,36.46,167.18-7.57,30.96-26.83,61.23-70.86,61.23-21.33,0-37.15-6.88-48.16-14.45l33.02-144.48Z"/><path class="cls-14" d="m379.13,715.38c6.19,12.38,19.26,15.82,28.21,15.82,6.19,0,12.38-1.38,18.58-3.44l24.08-150.67c8.26-2.75,19.26-1.38,25.46,2.75l-29.58,168.56c-15.82,7.57-20.64,9.63-44.03,9.63-18.58,0-35.09-4.81-44.72-22.02-17.2-30.96,2.75-100.45,13.07-148.61,9.63-46.1,32.34-172,41.97-251.12,12.38-2.06,20.64,0,28.9,5.5-6.19,24.77-9.63,46.78-13.07,66.05l58.48.69c1.38,8.26-.69,22.02-5.5,28.9l-57.1-6.19c-15.14,86-19.95,108.02-23.39,126.59-9.63,47.47-30.27,139.67-21.33,157.55Zm35.78-297.9c6.88-39.22,12.38-70.18,12.38-70.86v-2.06l-3.44-.69-.69,2.75s-6.19,38.53-14.45,84.62c-7.57,45.41-17.2,97.7-22.7,124.53-6.19,32.34-15.14,67.42-19.95,98.38-5.5,30.96-6.88,57.79.69,72.93,7.57,14.45,19.26,19.26,34.4,19.26,13.76,0,25.46-2.06,37.15-6.19l1.38-.69,23.39-154.11-3.44-.69-24.08,152.05c-8.94,4.13-23.39,5.5-33.02,5.5-15.14,0-24.77-4.81-31.65-16.51-7.57-14.45-6.19-40.59-.69-70.86,4.82-30.96,13.07-66.05,19.95-97.7,5.5-26.83,14.45-79.81,22.7-125.22l1.38-10.32,63.3,3.44.69-4.13-63.3-3.44Z"/><path class="cls-14" d="m628.88,509.67h24.08c2.75,6.19,1.38,19.26-2.06,24.77l-99.07-2.06c-2.75,10.32-5.5,22.02-7.57,34.4-13.07,66.05-15.82,128.66-7.57,148.61,5.5,13.76,17.89,15.82,28.9,15.82,7.57,0,14.45-.69,20.64-3.44l15.82-127.28c9.63-1.38,22.02,0,28.21,3.44l-24.77,145.86c-14.45,6.88-31.65,8.26-47.47,8.26-19.95,0-35.78-6.19-44.03-21.33-17.2-32.34-11.01-99.76.69-156.86,25.46-125.22,52.29-176.82,104.58-176.82,14.45,0,26.14,6.88,30.96,17.89,4.82,11.01,5.5,28.9,0,46.1-6.19,19.95-13.07,33.02-21.33,41.28v1.38Zm-17.89,10.32c13.07-17.89,20.64-30.27,26.83-46.78,5.5-14.45,8.26-32.34.69-46.78-5.5-10.32-13.76-13.76-23.39-13.76-8.94,0-16.51,2.75-23.39,6.88-28.21,18.58-41.28,54.35-64.67,156.18-8.26,36.46-11.01,69.49-11.01,96.32-.69,26.14,1.38,41.97,5.5,50.91,6.88,16.51,21.33,24.08,39.22,24.08,15.14,0,26.83-2.06,37.15-6.19l18.58-128.66-3.44-.69-19.26,126.59c-6.88,2.06-17.89,4.82-33.02,4.82s-29.58-6.88-35.09-21.33c-3.44-8.95-6.19-24.08-6.19-49.54.69-26.14,4.13-59.17,11.7-94.94,4.13-20.64,8.26-37.84,12.38-52.98h101.14v-4.13h-33.71Zm-17.2-97.01c6.19-4.13,12.38-6.19,20.64-6.19,8.94,0,16.51,3.44,20.64,12.38,6.19,12.38,3.44,27.52-1.38,42.66-5.5,17.89-12.38,28.21-28.21,48.16h-61.23c18.58-61.23,25.46-81.18,49.54-97.01Zm-35.78,87.38l46.1-.69c8.94-11.7,15.14-25.46,19.26-37.15,4.13-13.07,5.5-27.52,2.06-37.15-2.06-6.19-7.57-8.94-14.45-8.94-8.94,0-17.89,6.19-24.77,15.14-8.94,11.7-18.58,33.71-28.21,68.8Z"/><path class="cls-14" d="m647.45,752.54c15.14-71.55,28.9-134.16,38.53-196.08,7.57-44.72,15.14-95.63,23.39-153.43,10.32,0,25.46,2.06,30.96,5.5-11.7,47.47-19.95,90.13-30.27,151.36-10.32,62.61-22.7,127.97-31.65,198.14-11.7,0-22.02-1.38-30.96-5.5Zm77.74-339.87l-3.44-.69-.69,1.38c-4.13,25.46-10.32,59.17-15.14,88.06-4.82,29.58-8.94,55.04-10.32,63.98-2.75,14.45-8.26,45.41-15.14,79.12-6.19,33.71-13.07,70.86-17.89,99.76v1.38l3.44.69.69-2.06c4.82-28.21,11.7-65.36,17.89-99.07,6.19-33.71,12.38-63.98,15.14-79.81,1.38-8.26,5.5-33.71,10.32-63.3,4.82-28.9,10.32-62.61,15.14-87.38v-2.06Zm.69-108.02c11.7-3.44,23.39-2.75,35.09,2.75,2.06,10.32,1.38,19.95-4.82,30.96-11.7,2.75-23.39,2.75-33.02-2.06-4.82-10.32-3.44-20.64,2.75-31.65Zm6.19,26.14l8.94-6.88,6.19,7.57,4.13-2.75-6.88-6.88,8.26-4.82-2.75-4.13-8.26,6.19-6.88-8.26-4.13,2.75,7.57,7.57-8.94,6.19,2.75,3.44Z"/><path class="cls-14" d="m716.93,752.54c17.89-71.55,30.96-132.1,35.78-165.12,9.63-65.36,23.39-136.22,28.9-184.38,11.7,0,24.08,2.06,31.65,5.5-11.01,37.84-21.33,87.38-29.58,130.03l2.75.69c20.64-57.1,36.46-89.44,52.29-112.83,11.01-15.82,26.14-23.39,43.34-23.39,13.76,0,23.39,6.19,26.83,15.14,5.5,13.07,6.19,28.9-2.06,55.04-6.88,22.02-20.64,59.17-31.65,109.39-17.2,80.5-23.39,118.34-28.21,174.75-13.07,0-24.77-2.06-33.02-5.5,12.38-58.48,26.14-119.03,37.15-167.19,12.38-52.98,24.08-93.57,28.9-111.46,5.5-21.33,6.19-32.34,4.13-37.84-2.06-4.82-6.19-6.19-10.32-6.19-7.57,0-13.07,4.82-20.64,15.14-6.19,8.26-19.95,35.09-78.43,165.81l-.69,2.06c-8.94,53.66-19.95,114.21-24.08,146.54-13.07-.69-26.14-2.75-33.02-6.19Zm19.26-4.82c5.5-26.83,11.7-52.97,17.2-79.12,3.44-18.58,8.94-44.72,10.32-55.04,15.14-35.78,28.21-63.98,44.72-98.38,15.82-35.09,31.65-66.74,37.84-76.37,5.5-7.57,10.32-13.07,15.82-16.51,5.5-3.44,11.01-4.82,17.2-4.82,11.01,0,16.51,6.88,17.89,17.2,2.75,17.89-7.57,45.41-19.26,83.25-20.64,66.05-37.84,161.68-48.16,226.35l4.13.69c10.32-65.36,30.27-166.5,47.47-225.66,11.7-39.9,23.39-68.11,19.26-86.69-2.06-10.32-8.26-19.26-21.33-19.26-6.88,0-13.07,2.06-19.26,5.5-6.19,4.13-11.7,9.63-16.51,17.2-7.57,10.32-22.7,41.97-38.53,77.06-11.7,24.77-26.14,57.79-39.9,90.82h-1.38c2.75-8.26,3.44-11.01,4.13-14.45,6.19-29.58,10.32-61.92,15.14-91.5,5.5-30.27,10.32-60.54,13.76-81.18l-4.13-.69c-2.75,21.33-8.26,50.91-13.76,81.18-4.82,30.27-10.32,62.61-15.14,92.19-4.13,25.46-8.94,51.6-14.45,77.74s-11.7,53.66-17.2,79.12l4.13,1.38Z"/></svg>