<?xml version="1.0" encoding="utf-8"?>
<!-- Generator: Adobe Illustrator 23.1.1, SVG Export Plug-In . SVG Version: 6.00 Build 0)  -->
<svg version="1.1" id="Small_Sticker" xmlns="http://www.w3.org/2000/svg" xmlns:xlink="http://www.w3.org/1999/xlink" x="0px"
	 y="0px" viewBox="0 0 1080 1080" style="enable-background:new 0 0 1080 1080;" xml:space="preserve">
<style type="text/css">
	.st0{fill:#7662CC;}
	.st1{fill:url(#SVGID_1_);}
	.st2{opacity:0.67;}
	.st3{clip-path:url(#SVGID_3_);}
	.st4{clip-path:url(#SVGID_5_);}
	.st5{fill:url(#SVGID_6_);}
	.st6{clip-path:url(#SVGID_8_);}
	.st7{clip-path:url(#SVGID_10_);}
	.st8{fill:url(#SVGID_11_);}
	.st9{clip-path:url(#SVGID_13_);}
	.st10{clip-path:url(#SVGID_15_);}
	.st11{fill:url(#SVGID_16_);}
	.st12{clip-path:url(#SVGID_18_);}
	.st13{clip-path:url(#SVGID_20_);}
	.st14{fill:url(#SVGID_21_);}
	.st15{clip-path:url(#SVGID_23_);}
	.st16{clip-path:url(#SVGID_25_);}
	.st17{fill:url(#SVGID_26_);}
	.st18{clip-path:url(#SVGID_28_);}
	.st19{clip-path:url(#SVGID_30_);}
	.st20{fill:url(#SVGID_31_);}
	.st21{clip-path:url(#SVGID_33_);}
	.st22{clip-path:url(#SVGID_35_);}
	.st23{fill:url(#SVGID_36_);}
	.st24{clip-path:url(#SVGID_38_);}
	.st25{clip-path:url(#SVGID_40_);}
	.st26{fill:url(#SVGID_41_);}
	.st27{clip-path:url(#SVGID_43_);}
	.st28{clip-path:url(#SVGID_45_);}
	.st29{fill:url(#SVGID_46_);}
	.st30{clip-path:url(#SVGID_48_);}
	.st31{clip-path:url(#SVGID_50_);}
	.st32{fill:url(#SVGID_51_);}
	.st33{clip-path:url(#SVGID_53_);}
	.st34{clip-path:url(#SVGID_55_);}
	.st35{fill:url(#SVGID_56_);}
	.st36{clip-path:url(#SVGID_58_);}
	.st37{clip-path:url(#SVGID_60_);}
	.st38{fill:url(#SVGID_61_);}
	.st39{clip-path:url(#SVGID_63_);}
	.st40{clip-path:url(#SVGID_65_);}
	.st41{fill:url(#SVGID_66_);}
	.st42{clip-path:url(#SVGID_68_);}
	.st43{clip-path:url(#SVGID_70_);}
	.st44{fill:url(#SVGID_71_);}
	.st45{clip-path:url(#SVGID_73_);}
	.st46{clip-path:url(#SVGID_75_);}
	.st47{fill:url(#SVGID_76_);}
	.st48{clip-path:url(#SVGID_78_);}
	.st49{clip-path:url(#SVGID_80_);}
	.st50{fill:url(#SVGID_81_);}
	.st51{clip-path:url(#SVGID_83_);}
	.st52{clip-path:url(#SVGID_85_);}
	.st53{fill:url(#SVGID_86_);}
	.st54{clip-path:url(#SVGID_88_);}
	.st55{clip-path:url(#SVGID_90_);}
	.st56{fill:url(#SVGID_91_);}
	.st57{clip-path:url(#SVGID_93_);}
	.st58{clip-path:url(#SVGID_95_);}
	.st59{fill:url(#SVGID_96_);}
	.st60{clip-path:url(#SVGID_98_);}
	.st61{clip-path:url(#SVGID_100_);}
	.st62{fill:url(#SVGID_101_);}
	.st63{clip-path:url(#SVGID_103_);}
	.st64{clip-path:url(#SVGID_105_);}
	.st65{fill:url(#SVGID_106_);}
	.st66{clip-path:url(#SVGID_108_);}
	.st67{clip-path:url(#SVGID_110_);}
	.st68{fill:url(#SVGID_111_);}
	.st69{clip-path:url(#SVGID_113_);}
	.st70{clip-path:url(#SVGID_115_);}
	.st71{fill:url(#SVGID_116_);}
	.st72{clip-path:url(#SVGID_118_);}
	.st73{clip-path:url(#SVGID_120_);}
	.st74{fill:url(#SVGID_121_);}
	.st75{clip-path:url(#SVGID_123_);}
	.st76{clip-path:url(#SVGID_125_);}
	.st77{fill:url(#SVGID_126_);}
	.st78{clip-path:url(#SVGID_128_);}
	.st79{clip-path:url(#SVGID_130_);}
	.st80{fill:url(#SVGID_131_);}
	.st81{clip-path:url(#SVGID_133_);}
	.st82{clip-path:url(#SVGID_135_);}
	.st83{fill:url(#SVGID_136_);}
	.st84{clip-path:url(#SVGID_138_);}
	.st85{clip-path:url(#SVGID_140_);}
	.st86{fill:url(#SVGID_141_);}
	.st87{clip-path:url(#SVGID_143_);}
	.st88{clip-path:url(#SVGID_145_);}
	.st89{fill:url(#SVGID_146_);}
	.st90{clip-path:url(#SVGID_148_);}
	.st91{fill:#70052C;}
	.st92{clip-path:url(#SVGID_150_);}
	.st93{clip-path:url(#SVGID_152_);}
	.st94{clip-path:url(#SVGID_154_);}
	.st95{clip-path:url(#SVGID_156_);}
	.st96{clip-path:url(#SVGID_158_);}
	.st97{clip-path:url(#SVGID_160_);}
	.st98{clip-path:url(#SVGID_162_);}
	.st99{clip-path:url(#SVGID_164_);}
	.st100{clip-path:url(#SVGID_166_);}
	.st101{clip-path:url(#SVGID_168_);}
	.st102{clip-path:url(#SVGID_170_);}
	.st103{clip-path:url(#SVGID_172_);}
	.st104{clip-path:url(#SVGID_174_);}
	.st105{clip-path:url(#SVGID_176_);}
	.st106{clip-path:url(#SVGID_178_);}
	.st107{clip-path:url(#SVGID_180_);}
	.st108{clip-path:url(#SVGID_182_);}
	.st109{clip-path:url(#SVGID_184_);}
	.st110{clip-path:url(#SVGID_186_);}
	.st111{fill:url(#SVGID_187_);}
	.st112{clip-path:url(#SVGID_189_);}
	.st113{clip-path:url(#SVGID_191_);}
	.st114{fill:url(#SVGID_192_);}
	.st115{clip-path:url(#SVGID_194_);}
	.st116{clip-path:url(#SVGID_196_);}
	.st117{fill:url(#SVGID_197_);}
	.st118{clip-path:url(#SVGID_199_);}
	.st119{clip-path:url(#SVGID_201_);}
	.st120{fill:url(#SVGID_202_);}
	.st121{clip-path:url(#SVGID_204_);}
	.st122{clip-path:url(#SVGID_206_);}
	.st123{fill:url(#SVGID_207_);}
	.st124{clip-path:url(#SVGID_209_);}
	.st125{clip-path:url(#SVGID_211_);}
	.st126{fill:url(#SVGID_212_);}
	.st127{clip-path:url(#SVGID_214_);}
	.st128{clip-path:url(#SVGID_216_);}
	.st129{fill:url(#SVGID_217_);}
	.st130{clip-path:url(#SVGID_219_);}
	.st131{clip-path:url(#SVGID_221_);}
	.st132{fill:url(#SVGID_222_);}
	.st133{clip-path:url(#SVGID_224_);}
	.st134{clip-path:url(#SVGID_226_);}
	.st135{fill:url(#SVGID_227_);}
	.st136{clip-path:url(#SVGID_229_);}
	.st137{clip-path:url(#SVGID_231_);}
	.st138{fill:url(#SVGID_232_);}
	.st139{clip-path:url(#SVGID_234_);}
	.st140{clip-path:url(#SVGID_236_);}
	.st141{fill:url(#SVGID_237_);}
	.st142{clip-path:url(#SVGID_239_);}
	.st143{clip-path:url(#SVGID_241_);}
	.st144{fill:url(#SVGID_242_);}
	.st145{clip-path:url(#SVGID_244_);}
	.st146{clip-path:url(#SVGID_246_);}
	.st147{fill:url(#SVGID_247_);}
	.st148{clip-path:url(#SVGID_249_);}
	.st149{clip-path:url(#SVGID_251_);}
	.st150{fill:url(#SVGID_252_);}
	.st151{clip-path:url(#SVGID_254_);}
	.st152{clip-path:url(#SVGID_256_);}
	.st153{fill:url(#SVGID_257_);}
	.st154{clip-path:url(#SVGID_259_);}
	.st155{clip-path:url(#SVGID_261_);}
	.st156{fill:url(#SVGID_262_);}
	.st157{clip-path:url(#SVGID_264_);}
	.st158{clip-path:url(#SVGID_266_);}
	.st159{fill:url(#SVGID_267_);}
	.st160{clip-path:url(#SVGID_269_);}
	.st161{fill:url(#SVGID_270_);}
	.st162{fill:#806BD6;}
</style>
<circle class="st0" cx="540" cy="540" r="436.9"/>
<linearGradient id="SVGID_1_" gradientUnits="userSpaceOnUse" x1="564.8248" y1="943.2123" x2="543.2543" y2="104.6545" gradientTransform="matrix(0.9976 -6.975647e-02 -6.975647e-02 -0.9976 24.5627 1111.7581)">
	<stop  offset="0" style="stop-color:#5500B8"/>
	<stop  offset="0.99" style="stop-color:#210051"/>
</linearGradient>
<circle class="st1" cx="540.3" cy="541.7" r="419.4"/>
<g class="st2">
	<g>
		<g>
			<defs>
				
					<rect id="SVGID_2_" x="270.7" y="218.9" transform="matrix(0.9994 -3.489950e-02 3.489950e-02 0.9994 -9.4558 11.6262)" width="115.1" height="115.6"/>
			</defs>
			<clipPath id="SVGID_3_">
				<use xlink:href="#SVGID_2_"  style="overflow:visible;"/>
			</clipPath>
			<g class="st3">
				<g>
					<defs>
						<path id="SVGID_4_" d="M307,304.5c-1.4-3.7-2.5-7.5-3.1-11.2c-1.8-9.3-1.6-17.7,0.6-25.3c2.3-7.6,5.7-13.7,10.4-18.4
							c3.2-3.3,6.6-5.7,10.4-7.1c0.2-0.1,0.4-0.1,0.6-0.2c4-1.5,7.6-2.1,11-1.6c3.3,0.4,6.2,1.6,8.5,3.4c2.3,1.8,4,4,5,6.6
							c1.4,3.6,1.4,7.3,0.1,11.1s-3.9,6.6-7.7,8.3c-1.4-1.2-3.4-2.5-5.9-3.9c-2.5-1.4-5.4-2.1-8.6-2.2c-0.9,2.8-1.3,6-1.4,9.7
							c-0.1,3.7,0.2,7.5,0.7,11.3s1.5,7.4,2.6,10.5c0.4,0.9,0.7,1.8,1.1,2.6c4.2-2.4,8.1-5.1,11.7-8c3.6-2.9,6.2-5.3,7.8-7.3
							c2.4,0.4,4.4,2.7,6,7.1c1,2.7,1.4,5.8,1.2,9.2c-0.2,3.5-1.5,7-4,10.4c-2.4,3.5-6.5,6.5-12.1,9c-0.1,0-0.1,0-0.1,0
							c-0.2,0.2-0.5,0.4-0.9,0.5c-0.2,0.1-0.4,0.1-0.6,0.2c-0.3,0.1-0.5,0.2-0.6,0.2s-0.1,0,0.2-0.1c-0.3,0.1-0.6,0.2-1,0.4
							c0,0,0,0-0.1,0c-6.4,2.4-12.5,2.5-18.4,0.3S310.1,312.8,307,304.5"/>
					</defs>
					<clipPath id="SVGID_5_">
						<use xlink:href="#SVGID_4_"  style="overflow:visible;"/>
					</clipPath>
					<g class="st4">
						
							<linearGradient id="SVGID_6_" gradientUnits="userSpaceOnUse" x1="148.3717" y1="36.8773" x2="150.2317" y2="36.8773" gradientTransform="matrix(-6.7812 1.1008 -1.1008 -6.7812 1381.7809 367.3913)">
							<stop  offset="0" style="stop-color:#BABAFF"/>
							<stop  offset="1" style="stop-color:#BABAFF"/>
						</linearGradient>
						<polygon class="st5" points="290.3,243 355.2,232.5 369.4,319.9 304.5,330.5 						"/>
					</g>
				</g>
			</g>
		</g>
	</g>
	<g>
		<g>
			<defs>
				
					<rect id="SVGID_7_" x="294.6" y="265.1" transform="matrix(0.9994 -3.489950e-02 3.489950e-02 0.9994 -10.1992 11.9588)" width="85.6" height="66.2"/>
			</defs>
			<clipPath id="SVGID_8_">
				<use xlink:href="#SVGID_7_"  style="overflow:visible;"/>
			</clipPath>
			<g class="st6">
				<g>
					<defs>
						<path id="SVGID_9_" d="M317.5,304.5c2.8-0.7,5.9-2,9.2-3.7c3.3-1.7,6.6-3.7,9.8-5.9c3.2-2.2,6.1-4.3,8.6-6.5
							c2.5-2.1,4.5-4,5.8-5.5c2.4,0.4,4.4,2.7,6,7.1c1.1,2.8,1.4,6,1.1,9.8c-0.3,3.7-1.9,7.4-4.8,11c-2.9,3.6-7.6,6.7-14.2,9.2
							c-2.5,1-4.6,1.1-6.1,0.4s-3.1-1.9-4.4-3.6c-1.3-1.7-2.8-3.7-4.5-5.9C322.3,308.7,320.2,306.5,317.5,304.5"/>
					</defs>
					<clipPath id="SVGID_10_">
						<use xlink:href="#SVGID_9_"  style="overflow:visible;"/>
					</clipPath>
					<g class="st7">
						
							<linearGradient id="SVGID_11_" gradientUnits="userSpaceOnUse" x1="229.7391" y1="-122.5265" x2="231.5991" y2="-122.5265" gradientTransform="matrix(10.5007 -9.7511 9.7511 10.5007 -885.9916 3834.8069)">
							<stop  offset="0" style="stop-color:#5200D0"/>
							<stop  offset="1" style="stop-color:#BABAFF"/>
						</linearGradient>
						<polygon class="st8" points="298.7,300.9 339.5,263 377.1,303.5 336.4,341.4 						"/>
					</g>
				</g>
			</g>
		</g>
	</g>
	<g>
		<g>
			<defs>
				
					<rect id="SVGID_12_" x="270.8" y="221.8" transform="matrix(0.9994 -3.489950e-02 3.489950e-02 0.9994 -9.5119 11.4721)" width="106.1" height="112.8"/>
			</defs>
			<clipPath id="SVGID_13_">
				<use xlink:href="#SVGID_12_"  style="overflow:visible;"/>
			</clipPath>
			<g class="st9">
				<g>
					<defs>
						<path id="SVGID_14_" d="M307,304.5c-2.5-6.7-3.9-13.3-4.1-19.9c-0.2-6.6,0.6-12.8,2.4-18.5c1.9-5.7,4.5-10.7,8-14.8
							s7.7-7.1,12.5-9c1.8-0.7,3.3-0.5,4.7,0.6c1.4,1.1,2.5,2.5,3.3,4.4c0.8,1.9,1.3,3.7,1.5,5.6c0.2,1.9,0,3.4-0.5,4.4
							c-2.4-0.1-4.2,1.2-5.4,3.7c-1.3,2.5-2,5.9-2.4,9.9c-0.3,4-0.2,8.3,0.4,12.7c0.6,4.4,1.5,8.4,2.9,11.9
							c2.2,5.8,5.1,9.7,8.7,11.5s7.2,2,11,0.6c2-0.7,3.6-1.7,5-2.8s2.4-2.3,2.9-3.6c-0.9,4.7-3.1,8.6-6.7,11.6
							c-3.6,3.1-7.6,5.5-12.1,7.1c-6.4,2.4-12.5,2.5-18.4,0.3S310.1,312.9,307,304.5"/>
					</defs>
					<clipPath id="SVGID_15_">
						<use xlink:href="#SVGID_14_"  style="overflow:visible;"/>
					</clipPath>
					<g class="st10">
						
							<linearGradient id="SVGID_16_" gradientUnits="userSpaceOnUse" x1="142.2208" y1="-94.4761" x2="144.0808" y2="-94.4761" gradientTransform="matrix(2.279 20.222 -20.222 2.279 -1906.8691 -2397.8328)">
							<stop  offset="0" style="stop-color:#5200D0"/>
							<stop  offset="1" style="stop-color:#BABAFF"/>
						</linearGradient>
						<polygon class="st11" points="295.1,243.2 355.2,236.5 364.7,320.9 304.6,327.7 						"/>
					</g>
				</g>
			</g>
		</g>
	</g>
	<g>
		<g>
			<defs>
				
					<rect id="SVGID_17_" x="270.8" y="219.1" transform="matrix(0.9994 -3.489950e-02 3.489950e-02 0.9994 -8.8484 11.4185)" width="103.7" height="80.2"/>
			</defs>
			<clipPath id="SVGID_18_">
				<use xlink:href="#SVGID_17_"  style="overflow:visible;"/>
			</clipPath>
			<g class="st12">
				<g>
					<defs>
						<path id="SVGID_19_" d="M325.8,242.3c4-1.5,7.6-2.1,11-1.6c3.3,0.4,6.2,1.6,8.5,3.4c2.3,1.8,4,4,5,6.6
							c1.4,3.6,1.4,7.3,0.1,11.1c-1.3,3.8-3.9,6.6-7.7,8.3c-1.2-1.1-2.8-2.3-5-3.5c-2.1-1.2-4.6-2-7.3-2.5s-5.6-0.1-8.8,1.1
							c-2.4,0.9-5,2.5-7.7,4.8c-2.8,2.3-5.1,5.3-7,9.1c-1.9,3.8-3,8.5-3,14.2c-1.6-8.4-1.6-16.1,0.1-23c1.7-6.9,4.5-12.9,8.4-17.8
							C316.2,247.6,320.7,244.2,325.8,242.3"/>
					</defs>
					<clipPath id="SVGID_20_">
						<use xlink:href="#SVGID_19_"  style="overflow:visible;"/>
					</clipPath>
					<g class="st13">
						
							<linearGradient id="SVGID_21_" gradientUnits="userSpaceOnUse" x1="211.3964" y1="-170.9879" x2="213.2563" y2="-170.9879" gradientTransform="matrix(9.4055 -1.767 1.767 9.4055 -1361.9891 2248.7183)">
							<stop  offset="0" style="stop-color:#BABAFF"/>
							<stop  offset="1" style="stop-color:#BABAFF"/>
						</linearGradient>
						<polygon class="st14" points="293,242.8 349.8,232.1 360.7,290.1 303.9,300.8 						"/>
					</g>
				</g>
			</g>
		</g>
	</g>
	<g>
		<g>
			<defs>
				
					<rect id="SVGID_22_" x="386.6" y="240.5" transform="matrix(0.9994 -3.489950e-02 3.489950e-02 0.9994 -9.2309 14.9973)" width="76.8" height="62.7"/>
			</defs>
			<clipPath id="SVGID_23_">
				<use xlink:href="#SVGID_22_"  style="overflow:visible;"/>
			</clipPath>
			<g class="st15">
				<g>
					<defs>
						<path id="SVGID_24_" d="M426.9,293.1c-2.5,0.6-4.8,0.5-7-0.5c-2.1-1-4-2.4-5.5-4.3c-1.5-1.9-2.6-3.9-3.3-6
							c-0.6-2.1-0.7-4-0.1-5.7c0.5-1.7,1.8-2.8,3.7-3.2c3.4-0.9,6.4-2.4,9.2-4.6c2.8-2.2,5-4.3,6.8-6.4c1.8-2.1,2.8-3.3,3.1-3.7
							c1.1,0.7,2.5,2,4.1,3.7c1.6,1.7,2.8,4.1,3.6,7.2c1.4,5.7,0.8,10.6-2,15C436.7,288.9,432.5,291.7,426.9,293.1"/>
					</defs>
					<clipPath id="SVGID_25_">
						<use xlink:href="#SVGID_24_"  style="overflow:visible;"/>
					</clipPath>
					<g class="st16">
						
							<linearGradient id="SVGID_26_" gradientUnits="userSpaceOnUse" x1="247.8945" y1="-131.2095" x2="249.7545" y2="-131.2095" gradientTransform="matrix(7.9303 -7.6662 7.6662 7.9303 -538.3307 3222.144)">
							<stop  offset="0" style="stop-color:#5200D0"/>
							<stop  offset="1" style="stop-color:#BABAFF"/>
						</linearGradient>
						<polygon class="st17" points="393.1,275.7 427.2,242.7 460.3,277 426.2,310 						"/>
					</g>
				</g>
			</g>
		</g>
	</g>
	<g>
		<g>
			<defs>
				
					<rect id="SVGID_27_" x="372.8" y="213.9" transform="matrix(0.9994 -3.489950e-02 3.489950e-02 0.9994 -8.8008 14.74)" width="90" height="91.2"/>
			</defs>
			<clipPath id="SVGID_28_">
				<use xlink:href="#SVGID_27_"  style="overflow:visible;"/>
			</clipPath>
			<g class="st18">
				<g>
					<defs>
						<path id="SVGID_29_" d="M405.2,281.3c-1-3.8-1.2-7.9-0.7-12.2c0.5-4.3,1.3-8.6,2.4-12.8c1.1-4.2,2.1-8.1,3-11.5
							c0.9-3.5,1.3-6.1,1.2-8.1c3.9-0.4,7-0.4,9.3-0.2s4.1,1.1,5.4,2.6c1.3,1.5,2.4,3.9,3.2,7.3c0.7,2.6,0.7,5.3,0.2,8
							s-1.2,5.6-2.1,8.5s-1.6,5.9-2.1,8.8c-0.5,2.9-0.3,5.9,0.5,9c0.6,2.4,1.7,4.2,3.2,5.4c1.5,1.2,3.3,1.5,5.2,1.1
							c1.5-0.4,3-1.3,4.5-2.8c1.5-1.5,2.5-3.5,3.2-6s0.6-5.4-0.2-8.7c1.4,5.7,0.7,10.7-2.1,15c-2.8,4.3-7,7.2-12.5,8.5
							c-4.4,1.1-8.1,1.2-11.1,0.3s-5.3-2.5-7-4.7C407.1,286.5,405.9,284,405.2,281.3"/>
					</defs>
					<clipPath id="SVGID_30_">
						<use xlink:href="#SVGID_29_"  style="overflow:visible;"/>
					</clipPath>
					<g class="st19">
						
							<linearGradient id="SVGID_31_" gradientUnits="userSpaceOnUse" x1="129.6983" y1="-77.2214" x2="131.5583" y2="-77.2214" gradientTransform="matrix(-4.8681 15.5246 -15.5246 -4.8681 -136.5737 -2149.0549)">
							<stop  offset="0" style="stop-color:#5200D0"/>
							<stop  offset="1" style="stop-color:#BABAFF"/>
						</linearGradient>
						<polygon class="st20" points="386.3,289.1 406.5,224.4 460,241.1 439.7,305.8 						"/>
					</g>
				</g>
			</g>
		</g>
	</g>
	<g>
		<g>
			<defs>
				
					<rect id="SVGID_32_" x="348.6" y="195.7" transform="matrix(0.9994 -3.489950e-02 3.489950e-02 0.9994 -8.5223 14.3417)" width="116" height="111.1"/>
			</defs>
			<clipPath id="SVGID_33_">
				<use xlink:href="#SVGID_32_"  style="overflow:visible;"/>
			</clipPath>
			<g class="st21">
				<g>
					<defs>
						<path id="SVGID_34_" d="M391.7,300.6c-1.1-1.6-2.1-4.3-3-8c-0.9-3.7-1.6-7.7-2.1-12c-0.5-4.4-0.8-8.5-0.9-12.4
							c0-3.9,0.3-6.9,1-9.1c2-8.3,4-15.1,6.2-20.3s4.3-9.4,6.5-12.3s4.4-5.1,6.6-6.5s4.2-2.3,6.3-2.8c4.6-1.2,8.6-0.6,12.1,1.8
							s5.8,5.9,7,10.7c1,4,1.2,8.4,0.6,13.1s-1.9,10-3.6,15.9c0.3-1.9,0.6-4.1,0.8-6.4c0.2-2.4,0.1-4.6-0.4-6.6
							c-0.6-2.5-1.8-4.2-3.6-5.2c-1.7-1-3.8-1.2-6.1-0.6c-4.1,1.1-7.8,3.1-10.9,6.2c-3.1,3.1-5.9,6.8-8.2,11.2
							c-2.3,4.4-4.2,9.1-5.5,14.1s-2.3,10.1-2.7,15.2C391.2,291.6,391.2,296.3,391.7,300.6"/>
					</defs>
					<clipPath id="SVGID_35_">
						<use xlink:href="#SVGID_34_"  style="overflow:visible;"/>
					</clipPath>
					<g class="st22">
						
							<linearGradient id="SVGID_36_" gradientUnits="userSpaceOnUse" x1="215.2121" y1="-90.1394" x2="217.0721" y2="-90.1394" gradientTransform="matrix(9.5692 -25.4718 25.4718 9.5692 633.855 6634.3794)">
							<stop  offset="0" style="stop-color:#5200D0"/>
							<stop  offset="1" style="stop-color:#BABAFF"/>
						</linearGradient>
						<polygon class="st23" points="356.6,289.4 390.3,199.8 461.9,226.7 428.2,316.3 						"/>
					</g>
				</g>
			</g>
		</g>
	</g>
	<g>
		<g>
			<defs>
				
					<rect id="SVGID_37_" x="318.6" y="169.5" transform="matrix(0.9994 -3.489950e-02 3.489950e-02 0.9994 -8.203 13.4612)" width="125.8" height="144.3"/>
			</defs>
			<clipPath id="SVGID_38_">
				<use xlink:href="#SVGID_37_"  style="overflow:visible;"/>
			</clipPath>
			<g class="st24">
				<g>
					<defs>
						<path id="SVGID_39_" d="M366.6,291.3c-0.7-2.7-1.3-6.3-1.7-10.8c-0.5-4.5-0.8-9.5-0.9-14.9c-0.1-5.5,0-11,0.5-16.6
							c0.4-5.6,1.2-10.8,2.3-15.6c1.5-6.3,3.3-11.2,5.6-14.7s4.1-5.7,5.4-6.7c3.5-1.3,6.7-4.2,9.4-8.5c2.7-4.4,5.2-10.1,7.4-17.2
							c0.7,3.3,1.4,6.9,1.8,10.8c0.5,3.9-0.1,8.6-1.8,14.2c-1.8,6.1-3.2,12.2-4.2,18.3s-1.7,13.5-2,22.3c-0.2,5.4-0.1,11.2,0.1,17.5
							s0.6,12.2,1.1,17.8s1.2,10,2.1,13.4c-6.6,3-12,4-16.2,2.8C371.3,302.2,368.4,298.2,366.6,291.3"/>
					</defs>
					<clipPath id="SVGID_40_">
						<use xlink:href="#SVGID_39_"  style="overflow:visible;"/>
					</clipPath>
					<g class="st25">
						
							<linearGradient id="SVGID_41_" gradientUnits="userSpaceOnUse" x1="141.297" y1="-86.6122" x2="143.157" y2="-86.6122" gradientTransform="matrix(-1.6946 21.0619 -21.0619 -1.6946 -1200.7812 -2916.5076)">
							<stop  offset="0" style="stop-color:#5200D0"/>
							<stop  offset="1" style="stop-color:#BABAFF"/>
						</linearGradient>
						<polygon class="st26" points="351.8,304 361.5,183.5 409.8,187.4 400.1,307.8 						"/>
					</g>
				</g>
			</g>
		</g>
	</g>
	<g>
		<g>
			<defs>
				
					<rect id="SVGID_42_" x="331.1" y="165.2" transform="matrix(0.9994 -3.489950e-02 3.489950e-02 0.9994 -6.655 13.1982)" width="87.2" height="64.1"/>
			</defs>
			<clipPath id="SVGID_43_">
				<use xlink:href="#SVGID_42_"  style="overflow:visible;"/>
			</clipPath>
			<g class="st27">
				<g>
					<defs>
						<path id="SVGID_44_" d="M356,211c-1.1-4.5-0.9-8.3,0.7-11.2s4.2-5.4,7.8-7.4c3.6-1.9,7.9-3.5,12.8-4.8
							c1.6-0.4,3.6-0.8,5.8-1.1c2.2-0.3,4.4-0.5,6.5-0.6s3.8,0.1,5,0.5c1.8,5.2,2.6,9.4,2.3,12.6s-1.4,5.8-3.2,7.7s-4.2,3.4-7.1,4.5
							c-2.9,1.1-6.1,2.1-9.5,3c-7.1,1.8-11.5,4.4-13.2,7.7c-2.3-1.3-4-3-5.2-5.2C357.2,214.5,356.4,212.6,356,211"/>
					</defs>
					<clipPath id="SVGID_45_">
						<use xlink:href="#SVGID_44_"  style="overflow:visible;"/>
					</clipPath>
					<g class="st28">
						
							<linearGradient id="SVGID_46_" gradientUnits="userSpaceOnUse" x1="134.1943" y1="92.4026" x2="136.0543" y2="92.4026" gradientTransform="matrix(-4.8816 0.6132 -0.6132 -4.8816 1102.8939 570.8257)">
							<stop  offset="0" style="stop-color:#BABAFF"/>
							<stop  offset="1" style="stop-color:#BABAFF"/>
						</linearGradient>
						<polygon class="st29" points="351,187.6 396.3,181.9 401.1,220.3 355.8,226 						"/>
					</g>
				</g>
			</g>
		</g>
	</g>
	<g>
		<g>
			<defs>
				
					<rect id="SVGID_47_" x="461.5" y="230.6" transform="matrix(0.9994 -3.489950e-02 3.489950e-02 0.9994 -8.8385 17.7502)" width="85.1" height="62.9"/>
			</defs>
			<clipPath id="SVGID_48_">
				<use xlink:href="#SVGID_47_"  style="overflow:visible;"/>
			</clipPath>
			<g class="st30">
				<g>
					<defs>
						<path id="SVGID_49_" d="M505.6,257c5.6-1.1,10.3-4.1,14.1-9.1c1.2,0.9,2.3,2.2,3.2,4.1c1,1.8,1.6,4,1.8,6.5
							c0.7,6.6-0.7,11.9-4.4,15.9c-3.7,4-9,6.4-16,7.2c-3,0.3-6,0.4-9.3,0.1c-3.2-0.2-5.7-0.7-7.3-1.4c0.5-2,1.7-4.5,3.8-7.5
							s4.4-5.8,7-8.7C501.3,261.2,503.6,258.8,505.6,257"/>
					</defs>
					<clipPath id="SVGID_50_">
						<use xlink:href="#SVGID_49_"  style="overflow:visible;"/>
					</clipPath>
					<g class="st31">
						
							<linearGradient id="SVGID_51_" gradientUnits="userSpaceOnUse" x1="187.8233" y1="-166.9618" x2="189.6833" y2="-166.9618" gradientTransform="matrix(10.4974 1.736 -1.736 10.4974 -1761.2151 1690.6477)">
							<stop  offset="0" style="stop-color:#5200D0"/>
							<stop  offset="1" style="stop-color:#BABAFF"/>
						</linearGradient>
						<polygon class="st32" points="481.4,281.3 487.9,241.6 531.3,248.8 524.8,288.4 						"/>
					</g>
				</g>
			</g>
		</g>
	</g>
	<g>
		<g>
			<defs>
				
					<rect id="SVGID_52_" x="430.9" y="201.2" transform="matrix(0.9994 -3.489950e-02 3.489950e-02 0.9994 -8.2474 16.8962)" width="97.9" height="87.1"/>
			</defs>
			<clipPath id="SVGID_53_">
				<use xlink:href="#SVGID_52_"  style="overflow:visible;"/>
			</clipPath>
			<g class="st33">
				<g>
					<defs>
						<path id="SVGID_54_" d="M496.4,217.9c0.5,4,0.4,8.7-0.1,13.9c-0.5,5.2-1.4,10.5-2.6,15.8c-1.2,5.3-2.7,10.3-4.5,14.9
							s-3.7,8.4-5.9,11.3c-2.1,2.9-4.3,4.5-6.6,4.8c-2.3,0.2-4.6-0.5-7.1-2.1s-4.6-3.9-6.4-6.7c-1.8-2.8-2.8-5.7-3.1-8.6
							c4.4-0.5,8.6-2,12.5-4.4c3.9-2.4,7.3-5.4,10.3-8.9s5.4-7.2,7.1-11.1c1.8-3.9,2.8-7.6,3.1-11c0.2-2.6,0.5-4.4,0.8-5.2
							c0.3-0.9,0.6-1.3,0.9-1.4c0.3,0,0.6,0,0.8,0C496,219.1,496.2,218.7,496.4,217.9"/>
					</defs>
					<clipPath id="SVGID_55_">
						<use xlink:href="#SVGID_54_"  style="overflow:visible;"/>
					</clipPath>
					<g class="st34">
						
							<linearGradient id="SVGID_56_" gradientUnits="userSpaceOnUse" x1="214.9316" y1="-105.0568" x2="216.7916" y2="-105.0568" gradientTransform="matrix(16.6951 -16.8356 16.8356 16.6951 -1358.1621 5638.5029)">
							<stop  offset="0" style="stop-color:#5200D0"/>
							<stop  offset="0.5" style="stop-color:#BABAFF"/>
							<stop  offset="1" style="stop-color:#5200D0"/>
						</linearGradient>
						<polygon class="st35" points="429.8,248.5 478.2,199.6 527.8,248.7 479.3,297.6 						"/>
					</g>
				</g>
			</g>
		</g>
	</g>
	<g>
		<g>
			<defs>
				
					<rect id="SVGID_57_" x="446.5" y="182.1" transform="matrix(0.9994 -3.489950e-02 3.489950e-02 0.9994 -7.8717 17.5798)" width="106.3" height="104.4"/>
			</defs>
			<clipPath id="SVGID_58_">
				<use xlink:href="#SVGID_57_"  style="overflow:visible;"/>
			</clipPath>
			<g class="st36">
				<g>
					<defs>
						<path id="SVGID_59_" d="M493,206.5c5.7-1.9,10.4-3,14.2-3.2c3.8-0.2,6.8,0.6,9,2.6c2.2,1.9,3.5,5.4,4.1,10.5
							c0.9,8.4,0.2,16.9-2.3,25.6s-6.1,16.8-11,24.2c-2.4,3.8-5.2,6.6-8.5,8.6s-6.9,3.8-10.8,5.5c1.5-7.5,2.6-15.6,3.4-24.4
							c0.8-8.8,1.4-17.5,1.6-26.1C493.2,221.1,493.2,213.3,493,206.5"/>
					</defs>
					<clipPath id="SVGID_60_">
						<use xlink:href="#SVGID_59_"  style="overflow:visible;"/>
					</clipPath>
					<g class="st37">
						
							<linearGradient id="SVGID_61_" gradientUnits="userSpaceOnUse" x1="222.7834" y1="-104.7358" x2="224.6435" y2="-104.7358" gradientTransform="matrix(12.7428 -15.376 15.376 12.7428 -753.1939 5036.5366)">
							<stop  offset="0" style="stop-color:#BABAFF"/>
							<stop  offset="1" style="stop-color:#BABAFF"/>
						</linearGradient>
						<polygon class="st38" points="448.7,247.9 500.2,185.8 559.6,235.1 508.2,297.2 						"/>
					</g>
				</g>
			</g>
		</g>
	</g>
	<g>
		<g>
			<defs>
				
					<rect id="SVGID_62_" x="413.2" y="193" transform="matrix(0.9994 -3.489950e-02 3.489950e-02 0.9994 -8.2589 16.3325)" width="101" height="103.5"/>
			</defs>
			<clipPath id="SVGID_63_">
				<use xlink:href="#SVGID_62_"  style="overflow:visible;"/>
			</clipPath>
			<g class="st39">
				<g>
					<defs>
						<path id="SVGID_64_" d="M448.7,270.7c-0.4-3.8-0.1-7.9,1-12.2c1.1-4.3,2.5-8.5,4.2-12.7c1.7-4.2,3.1-8.2,4.4-12
							c1.3-3.8,1.9-7.1,1.7-10c1.2-4.2,2.9-7.3,5-9.1s4.2-2.7,6.5-2.5c2.2,0.1,4.1,1.2,5.8,3.2c1.7,2,2.7,4.6,3.1,8
							c0.4,3.4,0.4,6.6,0,9.8c-0.3,3.2-0.9,6.1-1.7,8.8c-1.6,5-3.3,9.6-5,14c-1.7,4.4-2.3,8.6-1.8,12.6c0.2,2.3,1,4,2.2,5.2
							c1.2,1.2,2.8,1.7,4.7,1.5c2.7-0.3,5-2.1,7-5.6c-2.1,4.2-4.9,7.9-8.2,10.9c-3.4,3-7.2,4.8-11.5,5.2c-5,0.6-9-0.5-12-3.3
							C451.1,279.7,449.3,275.8,448.7,270.7"/>
					</defs>
					<clipPath id="SVGID_65_">
						<use xlink:href="#SVGID_64_"  style="overflow:visible;"/>
					</clipPath>
					<g class="st40">
						
							<linearGradient id="SVGID_66_" gradientUnits="userSpaceOnUse" x1="136.8852" y1="-81.4683" x2="138.7452" y2="-81.4683" gradientTransform="matrix(-4.7304 18.4637 -18.4637 -4.7304 -385.2011 -2683.3337)">
							<stop  offset="0" style="stop-color:#5200D0"/>
							<stop  offset="1" style="stop-color:#BABAFF"/>
						</linearGradient>
						<polygon class="st41" points="428.8,281.6 449,202.6 504.1,216.7 483.8,295.7 						"/>
					</g>
				</g>
			</g>
		</g>
	</g>
	<g>
		<g>
			<defs>
				
					<rect id="SVGID_67_" x="417.9" y="186.6" transform="matrix(0.9994 -3.489950e-02 3.489950e-02 0.9994 -7.4806 16.2149)" width="85.8" height="71.5"/>
			</defs>
			<clipPath id="SVGID_68_">
				<use xlink:href="#SVGID_67_"  style="overflow:visible;"/>
			</clipPath>
			<g class="st42">
				<g>
					<defs>
						<path id="SVGID_69_" d="M443,231.4c-0.5-4.1,0.1-7.9,1.8-11.1c1.6-3.3,4-5.9,7.3-8c3.2-2.1,6.8-3.3,10.9-3.8
							c5.4-0.6,9.8,0.5,13.1,3.3c3.3,2.8,5.2,6.6,5.8,11.3c0.4,3.4,0.2,6.6-0.6,9.9s-1.6,6.2-2.4,8.9c0.4-1.2,0.5-2.2,0.4-2.8
							c-0.1-0.6-0.2,0.3-0.4,2.8c0.7-2.2,0.5-4.3-0.4-6.3s-2.5-3.6-4.6-4.8c-2.2-1.2-4.8-1.6-7.9-1.2c-3.8,0.4-7.1,1.9-9.9,4.5
							c-2.8,2.6-5,5.1-6.9,7.7c-1.5-1-2.8-2.4-4-4.2S443.2,233.7,443,231.4"/>
					</defs>
					<clipPath id="SVGID_70_">
						<use xlink:href="#SVGID_69_"  style="overflow:visible;"/>
					</clipPath>
					<g class="st43">
						
							<linearGradient id="SVGID_71_" gradientUnits="userSpaceOnUse" x1="128.3032" y1="79.7459" x2="130.1632" y2="79.7459" gradientTransform="matrix(-5.152 0.7048 -0.7048 -5.152 1187.4381 544.618)">
							<stop  offset="0" style="stop-color:#BABAFF"/>
							<stop  offset="1" style="stop-color:#BABAFF"/>
						</linearGradient>
						<polygon class="st44" points="438.4,209.3 480.9,203.5 486.1,241.3 443.6,247.1 						"/>
					</g>
				</g>
			</g>
		</g>
	</g>
	<g>
		<g>
			<defs>
				
					<rect id="SVGID_72_" x="554.8" y="231.9" transform="matrix(0.9994 -3.489950e-02 3.489950e-02 0.9994 -8.7582 20.8605)" width="76.7" height="58.8"/>
			</defs>
			<clipPath id="SVGID_73_">
				<use xlink:href="#SVGID_72_"  style="overflow:visible;"/>
			</clipPath>
			<g class="st45">
				<g>
					<defs>
						<path id="SVGID_74_" d="M589.7,280.5c-2.6-0.1-4.8-0.9-6.6-2.4c-1.8-1.5-3.2-3.4-4.2-5.6c-1-2.2-1.5-4.4-1.5-6.7
							s0.4-4.1,1.4-5.5c1-1.5,2.5-2.2,4.4-2.1c3.5,0.1,6.8-0.5,10.1-1.9c3.3-1.4,6-2.8,8.3-4.3c2.3-1.5,3.6-2.4,4-2.7
							c0.9,1,1.8,2.6,2.9,4.7c1.1,2.1,1.6,4.7,1.5,7.9c-0.2,5.9-2.2,10.5-6,13.8C600.2,279,595.5,280.7,589.7,280.5"/>
					</defs>
					<clipPath id="SVGID_75_">
						<use xlink:href="#SVGID_74_"  style="overflow:visible;"/>
					</clipPath>
					<g class="st46">
						
							<linearGradient id="SVGID_76_" gradientUnits="userSpaceOnUse" x1="239.1973" y1="-143.9018" x2="241.0573" y2="-143.9018" gradientTransform="matrix(9.7135 -5.2258 5.2258 9.7135 -984.0311 2916.4463)">
							<stop  offset="0" style="stop-color:#5200D0"/>
							<stop  offset="1" style="stop-color:#BABAFF"/>
						</linearGradient>
						<polygon class="st47" points="564.7,256.7 602.9,236.2 623.1,273.6 584.9,294.1 						"/>
					</g>
				</g>
			</g>
		</g>
	</g>
	<g>
		<g>
			<defs>
				
					<rect id="SVGID_77_" x="540.7" y="201.4" transform="matrix(0.9994 -3.489950e-02 3.489950e-02 0.9994 -8.2572 20.6523)" width="93.5" height="90.8"/>
			</defs>
			<clipPath id="SVGID_78_">
				<use xlink:href="#SVGID_77_"  style="overflow:visible;"/>
			</clipPath>
			<g class="st48">
				<g>
					<defs>
						<path id="SVGID_79_" d="M572,263.2c0.1-4,1-8,2.6-12s3.6-7.9,5.8-11.7c2.2-3.8,4.2-7.2,6.1-10.3c1.8-3.1,3-5.6,3.4-7.4
							c3.8,0.7,6.9,1.5,9,2.3c2.2,0.9,3.7,2.2,4.5,4c0.8,1.8,1.2,4.4,1.1,7.9c-0.1,2.7-0.7,5.3-2,7.8c-1.2,2.5-2.7,5-4.4,7.6
							c-1.7,2.6-3.1,5.2-4.4,7.9c-1.3,2.7-1.9,5.6-2,8.8c-0.1,2.5,0.5,4.5,1.6,6.1s2.7,2.4,4.7,2.4c1.6,0,3.3-0.5,5.1-1.5
							c1.8-1,3.4-2.7,4.7-4.9s2.1-5.1,2.2-8.4c-0.2,5.9-2.2,10.5-6.1,13.8c-3.9,3.4-8.7,5-14.3,4.8c-4.6-0.1-8.1-1-10.7-2.7
							c-2.6-1.7-4.4-3.9-5.5-6.5C572.4,268.7,571.9,266,572,263.2"/>
					</defs>
					<clipPath id="SVGID_80_">
						<use xlink:href="#SVGID_79_"  style="overflow:visible;"/>
					</clipPath>
					<g class="st49">
						
							<linearGradient id="SVGID_81_" gradientUnits="userSpaceOnUse" x1="130.7129" y1="-66.604" x2="132.5729" y2="-66.604" gradientTransform="matrix(-8.8993 13.6204 -13.6204 -8.8993 861.152 -2144.0464)">
							<stop  offset="0" style="stop-color:#5200D0"/>
							<stop  offset="1" style="stop-color:#BABAFF"/>
						</linearGradient>
						<polygon class="st50" points="544,262.8 582.4,204 637.1,239.7 598.6,298.5 						"/>
					</g>
				</g>
			</g>
		</g>
	</g>
	<g>
		<g>
			<defs>
				
					<rect id="SVGID_82_" x="515.4" y="182.4" transform="matrix(0.9994 -3.489950e-02 3.489950e-02 0.9994 -7.7856 20.3018)" width="124.6" height="101.4"/>
			</defs>
			<clipPath id="SVGID_83_">
				<use xlink:href="#SVGID_82_"  style="overflow:visible;"/>
			</clipPath>
			<g class="st51">
				<g>
					<defs>
						<path id="SVGID_84_" d="M553.8,278.1c-0.7-1.9-0.9-4.7-0.8-8.5s0.5-7.8,1.2-12.2c0.7-4.4,1.5-8.4,2.5-12.1
							c1-3.7,2.2-6.6,3.4-8.5c4.2-7.4,8-13.4,11.5-17.9s6.7-7.8,9.6-10.1c2.9-2.3,5.6-3.8,8.1-4.5s4.7-1.1,6.8-1
							c4.8,0.1,8.5,1.8,11.2,5c2.7,3.2,4,7.3,3.8,12.2c-0.1,4.2-1.1,8.4-3,12.8c-1.9,4.4-4.5,9.1-7.8,14.3c0.8-1.8,1.7-3.8,2.5-6
							c0.8-2.2,1.3-4.4,1.3-6.4c0.1-2.6-0.6-4.6-2-6c-1.4-1.4-3.3-2.2-5.7-2.2c-4.3-0.1-8.3,0.9-12.2,3c-3.9,2.1-7.5,5-10.9,8.6
							c-3.4,3.6-6.5,7.6-9.2,12.1c-2.7,4.5-5,9.1-6.8,13.9C555.7,269.3,554.4,273.8,553.8,278.1"/>
					</defs>
					<clipPath id="SVGID_85_">
						<use xlink:href="#SVGID_84_"  style="overflow:visible;"/>
					</clipPath>
					<g class="st52">
						
							<linearGradient id="SVGID_86_" gradientUnits="userSpaceOnUse" x1="214.2648" y1="-96.367" x2="216.1248" y2="-96.367" gradientTransform="matrix(16.124 -21.9181 21.9181 16.124 -781.5018 6518.7646)">
							<stop  offset="0" style="stop-color:#5200D0"/>
							<stop  offset="1" style="stop-color:#BABAFF"/>
						</linearGradient>
						<polygon class="st53" points="516.3,251.1 572.7,174.5 647.5,229.6 591.2,306.2 						"/>
					</g>
				</g>
			</g>
		</g>
	</g>
	<g>
		<g>
			<defs>
				
					<rect id="SVGID_87_" x="497.9" y="189.2" transform="matrix(0.9994 -3.489950e-02 3.489950e-02 0.9994 -8.0209 19.4734)" width="111.7" height="100.6"/>
			</defs>
			<clipPath id="SVGID_88_">
				<use xlink:href="#SVGID_87_"  style="overflow:visible;"/>
			</clipPath>
			<g class="st54">
				<g>
					<defs>
						<path id="SVGID_89_" d="M531.8,262.3c0.1-4.6,0.9-9,2.3-13.2s3.2-8,5.3-11.3c2.1-3.3,4.3-5.9,6.6-7.8c2.3-1.9,4.4-2.7,6.2-2.4
							c3.8-1,7.3-3.3,10.7-6.9c3.3-3.6,7-8.6,11-14.8c-4.5,10.4-8.2,19.7-11.1,27.9s-5.1,15.8-6.5,22.9c-1.5,7.1-2.3,14.2-2.5,21.4
							c-7.3,1.1-12.8,0.5-16.5-1.7S531.7,269.5,531.8,262.3"/>
					</defs>
					<clipPath id="SVGID_90_">
						<use xlink:href="#SVGID_89_"  style="overflow:visible;"/>
					</clipPath>
					<g class="st55">
						
							<linearGradient id="SVGID_91_" gradientUnits="userSpaceOnUse" x1="136.4009" y1="-80.6969" x2="138.2609" y2="-80.6969" gradientTransform="matrix(-5.7815 18.2145 -18.2145 -5.7815 -121.6776 -2729.0342)">
							<stop  offset="0" style="stop-color:#5200D0"/>
							<stop  offset="1" style="stop-color:#BABAFF"/>
						</linearGradient>
						<polygon class="st56" points="508.9,272.4 534,193.2 597.1,213.2 571.9,292.4 						"/>
					</g>
				</g>
			</g>
		</g>
	</g>
	<g>
		<g>
			<defs>
				
					<rect id="SVGID_92_" x="508.5" y="178.1" transform="matrix(0.9994 -3.489950e-02 3.489950e-02 0.9994 -6.9774 19.3851)" width="86.6" height="62.9"/>
			</defs>
			<clipPath id="SVGID_93_">
				<use xlink:href="#SVGID_92_"  style="overflow:visible;"/>
			</clipPath>
			<g class="st57">
				<g>
					<defs>
						<path id="SVGID_94_" d="M533.1,219.1c0.2-6.9,2.5-11.5,7-13.7c4.5-2.2,10.6-3.2,18.2-3c2.5,0.1,5.3,0.4,8.5,1
							c3.2,0.6,5.5,1.4,7.1,2.6c-1.9,5-3.6,9-5.1,11.9c-1.5,2.9-3,5.2-4.6,6.7c-1.6,1.5-3.4,2.5-5.5,2.9c-2.1,0.4-4.7,0.6-7.9,0.5
							c-3.7-0.1-6.5,0.2-8.4,0.8c-2,0.6-3.6,1.6-4.9,3c-1.8-1.8-3-4-3.6-6.4S533,220.8,533.1,219.1"/>
					</defs>
					<clipPath id="SVGID_95_">
						<use xlink:href="#SVGID_94_"  style="overflow:visible;"/>
					</clipPath>
					<g class="st58">
						
							<linearGradient id="SVGID_96_" gradientUnits="userSpaceOnUse" x1="285.0879" y1="-42.4181" x2="286.9479" y2="-42.4181" gradientTransform="matrix(-1.2554 -8.1944 8.1944 -1.2554 1262.0608 2519.0417)">
							<stop  offset="0" style="stop-color:#BABAFF"/>
							<stop  offset="1" style="stop-color:#BABAFF"/>
						</linearGradient>
						<polygon class="st59" points="529,203.3 573,196.5 578.1,229.9 534.1,236.6 						"/>
					</g>
				</g>
			</g>
		</g>
	</g>
	<g>
		<g>
			<defs>
				
					<rect id="SVGID_97_" x="637" y="243.3" transform="matrix(0.9994 -3.489950e-02 3.489950e-02 0.9994 -9.1298 23.771)" width="78.6" height="60.2"/>
			</defs>
			<clipPath id="SVGID_98_">
				<use xlink:href="#SVGID_97_"  style="overflow:visible;"/>
			</clipPath>
			<g class="st60">
				<g>
					<defs>
						<path id="SVGID_99_" d="M669,291.1c-2.5-0.4-4.5-1.5-5.9-3.3s-2.3-3.8-2.6-6c-0.3-2.3-0.2-4.5,0.4-6.6s1.6-3.9,2.9-5.1
							c1.4-1.3,3-1.7,5-1.4c4.3,0.8,8.5,0.6,12.7-0.4c4.2-1,7.4-2.3,9.8-3.8c1.3,1.5,2.3,3.5,3,6c0.6,2.4,0.7,4.9,0.3,7.3
							c-0.8,4.8-2.6,8.3-5.2,10.4s-5.8,3.4-9.4,3.6C676.3,291.9,672.7,291.7,669,291.1"/>
					</defs>
					<clipPath id="SVGID_100_">
						<use xlink:href="#SVGID_99_"  style="overflow:visible;"/>
					</clipPath>
					<g class="st61">
						
							<linearGradient id="SVGID_101_" gradientUnits="userSpaceOnUse" x1="251.8481" y1="-122.6785" x2="253.7081" y2="-122.6785" gradientTransform="matrix(8.3881 -7.8962 7.8962 8.3881 -470.7656 3300.3069)">
							<stop  offset="0" style="stop-color:#5200D0"/>
							<stop  offset="1" style="stop-color:#BABAFF"/>
						</linearGradient>
						<polygon class="st62" points="646.7,277.7 678.8,247.4 708.5,279 676.4,309.3 						"/>
					</g>
				</g>
			</g>
		</g>
	</g>
	<g>
		<g>
			<defs>
				
					<rect id="SVGID_102_" x="625.6" y="227.4" transform="matrix(0.9994 -3.489950e-02 3.489950e-02 0.9994 -8.8936 23.528)" width="87.7" height="78.2"/>
			</defs>
			<clipPath id="SVGID_103_">
				<use xlink:href="#SVGID_102_"  style="overflow:visible;"/>
			</clipPath>
			<g class="st63">
				<g>
					<defs>
						<path id="SVGID_104_" d="M648.8,256.5c2.3-1.3,4.6-2.1,6.8-2.4c2.2-0.3,4.5-0.2,6.9,0.2c3.2,0.6,5.7,2,7.5,4.3s3.1,5,4,8.2
							c0.9,3.1,1.7,6.3,2.4,9.4s1.6,5.8,2.8,8s2.8,3.5,4.9,3.9c1.6,0.3,3.5-0.4,5.9-2.1c2.3-1.6,3.9-4.5,4.6-8.5
							c-0.8,4.8-2.6,8.3-5.2,10.4s-5.8,3.4-9.4,3.6c-3.6,0.3-7.3,0.1-11-0.5c-7.4-1.3-12.7-4.9-15.7-11
							C650.2,274.1,648.8,266.2,648.8,256.5"/>
					</defs>
					<clipPath id="SVGID_105_">
						<use xlink:href="#SVGID_104_"  style="overflow:visible;"/>
					</clipPath>
					<g class="st64">
						
							<linearGradient id="SVGID_106_" gradientUnits="userSpaceOnUse" x1="106.413" y1="-110.8729" x2="108.273" y2="-110.8729" gradientTransform="matrix(0.3357 11.1149 -11.1149 0.3357 -596.9356 -890.6671)">
							<stop  offset="0" style="stop-color:#5200D0"/>
							<stop  offset="1" style="stop-color:#BABAFF"/>
						</linearGradient>
						<polygon class="st65" points="648.3,254 693.8,252.6 695,291.5 649.5,292.9 						"/>
					</g>
				</g>
			</g>
		</g>
	</g>
	<g>
		<g>
			<defs>
				
					<rect id="SVGID_107_" x="624.9" y="212.5" transform="matrix(0.9994 -3.489950e-02 3.489950e-02 0.9994 -8.0901 23.5067)" width="88.9" height="62.1"/>
			</defs>
			<clipPath id="SVGID_108_">
				<use xlink:href="#SVGID_107_"  style="overflow:visible;"/>
			</clipPath>
			<g class="st66">
				<g>
					<defs>
						<path id="SVGID_109_" d="M661.4,260.9c-2.2-0.4-4.4-0.9-6.5-1.6s-4.1-1.6-6.1-2.9c4.8-2.3,9.3-4.9,13.4-8
							c4.1-3.1,7.6-6,10.4-8.8s4.5-5,5.1-6.6c5-0.5,8.7-0.3,10.9,0.8c2.2,1,3.6,2.7,4,5.1s0.4,5.2-0.2,8.6c-0.5,2.7-1.8,5.1-4,6.9
							c-2.2,1.9-4.9,3.4-8,4.5c-3.2,1.1-6.4,1.8-9.7,2.2C667.3,261.5,664.2,261.4,661.4,260.9"/>
					</defs>
					<clipPath id="SVGID_110_">
						<use xlink:href="#SVGID_109_"  style="overflow:visible;"/>
					</clipPath>
					<g class="st67">
						
							<linearGradient id="SVGID_111_" gradientUnits="userSpaceOnUse" x1="128.3717" y1="-46.8119" x2="130.2318" y2="-46.8119" gradientTransform="matrix(-10.6819 8.7213 -8.7213 -10.6819 1648.672 -1384.5717)">
							<stop  offset="0" style="stop-color:#5200D0"/>
							<stop  offset="1" style="stop-color:#BABAFF"/>
						</linearGradient>
						<polygon class="st68" points="634.7,244.6 675.6,211.2 707,249.7 666.1,283 						"/>
					</g>
				</g>
			</g>
		</g>
	</g>
	<g>
		<g>
			<defs>
				
					<rect id="SVGID_112_" x="598" y="194.3" transform="matrix(0.9994 -3.489950e-02 3.489950e-02 0.9994 -8.0314 23.2478)" width="127.8" height="94.9"/>
			</defs>
			<clipPath id="SVGID_113_">
				<use xlink:href="#SVGID_112_"  style="overflow:visible;"/>
			</clipPath>
			<g class="st69">
				<g>
					<defs>
						<path id="SVGID_114_" d="M633.7,283.5c-0.4-2-0.3-4.8,0.1-8.6s1-7.8,1.9-12c0.9-4.3,2-8.2,3.3-11.8c1.3-3.6,2.7-6.3,4.2-8
							c5.2-6.8,10.1-12,14.6-15.9c4.5-3.8,8.7-6.6,12.5-8.3c3.8-1.7,7.2-2.7,10.2-3s5.5-0.2,7.6,0.1c4.7,0.8,7.9,3,9.6,6.4
							c1.7,3.5,2.1,7.6,1.3,12.5c-0.7,4.1-2.2,8-4.3,11.6c-2.2,3.6-4.3,6.3-6.3,8.2c2-3,3.1-5.9,3.3-8.8s-0.5-5.4-2.2-7.5
							c-1.7-2.1-4.3-3.5-8-4.1c-3.7-0.6-7.9,0-12.7,1.9c-4.7,1.9-9.4,5-14.1,9.3c-4.7,4.2-8.8,9.5-12.6,15.9
							C638.4,267.7,635.6,275.1,633.7,283.5"/>
					</defs>
					<clipPath id="SVGID_115_">
						<use xlink:href="#SVGID_114_"  style="overflow:visible;"/>
					</clipPath>
					<g class="st70">
						
							<linearGradient id="SVGID_116_" gradientUnits="userSpaceOnUse" x1="218.7975" y1="-110.4093" x2="220.6575" y2="-110.4093" gradientTransform="matrix(16.6744 -12.1815 12.1815 16.6744 -1652.2288 4766.5361)">
							<stop  offset="0" style="stop-color:#5200D0"/>
							<stop  offset="1" style="stop-color:#BABAFF"/>
						</linearGradient>
						<polygon class="st71" points="601.1,239.2 676.7,184 731.6,259.1 656,314.3 						"/>
					</g>
				</g>
			</g>
		</g>
	</g>
	<g>
		<g>
			<defs>
				
					<rect id="SVGID_117_" x="573.8" y="164.3" transform="matrix(0.9994 -3.489950e-02 3.489950e-02 0.9994 -7.6004 22.8051)" width="151.2" height="129.7"/>
			</defs>
			<clipPath id="SVGID_118_">
				<use xlink:href="#SVGID_117_"  style="overflow:visible;"/>
			</clipPath>
			<g class="st72">
				<g>
					<defs>
						<path id="SVGID_119_" d="M614.6,264.7c0.5-2.7,1.4-6.2,2.8-10.5s3.2-8.9,5.3-13.9c2.1-5,4.5-10,7.2-14.9
							c2.7-4.9,5.5-9.3,8.5-13.2c3.9-5.2,7.6-8.9,11.1-11.1c3.5-2.3,6-3.6,7.6-3.9c3.8,0.3,7.8-1.1,12.1-3.9s8.9-7.1,13.8-12.7
							c-0.7,3.3-1.6,6.9-2.8,10.6c-1.2,3.8-3.6,7.9-7.4,12.2c-4.2,4.8-7.9,9.8-11.4,14.9c-3.4,5.1-7.1,11.7-11,19.5
							c-2.3,4.8-4.7,10.1-7.1,16s-4.4,11.4-6.2,16.7c-1.8,5.3-3,9.6-3.5,13c-7.3,0-12.6-1.3-15.9-4S613.4,271.7,614.6,264.7"/>
					</defs>
					<clipPath id="SVGID_120_">
						<use xlink:href="#SVGID_119_"  style="overflow:visible;"/>
					</clipPath>
					<g class="st73">
						
							<linearGradient id="SVGID_121_" gradientUnits="userSpaceOnUse" x1="146.9431" y1="-74.5998" x2="148.8031" y2="-74.5998" gradientTransform="matrix(-12.4438 21.0581 -21.0581 -12.4438 925.3103 -3823.0508)">
							<stop  offset="0" style="stop-color:#5200D0"/>
							<stop  offset="1" style="stop-color:#BABAFF"/>
						</linearGradient>
						<polygon class="st74" points="566.9,256.4 630.2,149.2 729.9,208.1 666.6,315.3 						"/>
					</g>
				</g>
			</g>
		</g>
	</g>
	<g>
		<g>
			<defs>
				
					<rect id="SVGID_122_" x="612.9" y="147.7" transform="matrix(0.9994 -3.489950e-02 3.489950e-02 0.9994 -5.9306 23.0845)" width="90.8" height="67.5"/>
			</defs>
			<clipPath id="SVGID_123_">
				<use xlink:href="#SVGID_122_"  style="overflow:visible;"/>
			</clipPath>
			<g class="st75">
				<g>
					<defs>
						<path id="SVGID_124_" d="M637.8,187.1c0.8-4.6,2.5-7.9,5.2-10c2.7-2.1,6-3.2,10.1-3.5s8.6,0,13.6,0.9c1.7,0.3,3.6,0.7,5.7,1.3
							c2.2,0.6,4.2,1.3,6.2,2.1c2,0.8,3.4,1.7,4.4,2.6c-0.8,5.4-2.1,9.5-3.7,12.3c-1.7,2.8-3.7,4.8-6.1,5.7c-2.4,1-5,1.4-8,1.2
							s-6.2-0.6-9.7-1.2c-7.2-1.3-12.3-0.7-15.2,1.6c-1.5-2.1-2.4-4.4-2.7-6.9C637.5,190.8,637.5,188.7,637.8,187.1"/>
					</defs>
					<clipPath id="SVGID_125_">
						<use xlink:href="#SVGID_124_"  style="overflow:visible;"/>
					</clipPath>
					<g class="st76">
						
							<linearGradient id="SVGID_126_" gradientUnits="userSpaceOnUse" x1="176.3577" y1="149.8715" x2="178.2177" y2="149.8715" gradientTransform="matrix(-3.8883 -0.9803 0.9803 -3.8883 1200.4303 942.6464)">
							<stop  offset="0" style="stop-color:#BABAFF"/>
							<stop  offset="1" style="stop-color:#BABAFF"/>
						</linearGradient>
						<polygon class="st77" points="630.6,199.2 640,161.6 690.1,174.2 680.6,211.8 						"/>
					</g>
				</g>
			</g>
		</g>
	</g>
	<g>
		<g>
			<defs>
				
					<rect id="SVGID_127_" x="689.3" y="234.3" transform="matrix(0.9994 -3.489950e-02 3.489950e-02 0.9994 -8.9968 26.0217)" width="103.2" height="72.8"/>
			</defs>
			<clipPath id="SVGID_128_">
				<use xlink:href="#SVGID_127_"  style="overflow:visible;"/>
			</clipPath>
			<g class="st78">
				<g>
					<defs>
						<path id="SVGID_129_" d="M765.8,251c-1.2,3.9-3.1,8.1-5.7,12.6s-5.5,9-8.7,13.4c-3.2,4.4-6.6,8.3-10.1,11.8
							c-3.5,3.5-6.8,6.1-9.9,8s-5.8,2.4-8,1.7c-2.2-0.7-4.1-2.3-5.7-4.8s-2.6-5.4-3.1-8.7c-0.5-3.3-0.3-6.3,0.6-9.2
							c4.3,1.3,8.7,1.7,13.2,1c4.5-0.7,8.9-2,13-3.9s7.8-4.4,11-7.2c3.2-2.9,5.6-5.8,7.3-8.8c1.2-2.3,2.2-3.8,2.8-4.5
							c0.6-0.7,1.1-1,1.4-0.9c0.3,0.1,0.5,0.2,0.8,0.3C764.9,252,765.2,251.7,765.8,251"/>
					</defs>
					<clipPath id="SVGID_130_">
						<use xlink:href="#SVGID_129_"  style="overflow:visible;"/>
					</clipPath>
					<g class="st79">
						
							<linearGradient id="SVGID_131_" gradientUnits="userSpaceOnUse" x1="209.2658" y1="-113.0576" x2="211.1258" y2="-113.0576" gradientTransform="matrix(21.6587 -8.989 8.989 21.6587 -2797.9766 4614.2305)">
							<stop  offset="0" style="stop-color:#5200D0"/>
							<stop  offset="0.5" style="stop-color:#BABAFF"/>
							<stop  offset="1" style="stop-color:#5200D0"/>
						</linearGradient>
						<polygon class="st80" points="698,259.1 758.7,233.9 782.5,291.4 721.8,316.6 						"/>
					</g>
				</g>
			</g>
		</g>
	</g>
	<g>
		<g>
			<defs>
				
					<rect id="SVGID_132_" x="668" y="216.7" transform="matrix(0.9994 -3.489950e-02 3.489950e-02 0.9994 -8.7995 25.4451)" width="113" height="96.1"/>
			</defs>
			<clipPath id="SVGID_133_">
				<use xlink:href="#SVGID_132_"  style="overflow:visible;"/>
			</clipPath>
			<g class="st81">
				<g>
					<defs>
						<path id="SVGID_134_" d="M700.8,280c1.2-3.7,3.2-7.2,6.1-10.6s6-6.7,9.5-9.8s6.6-6.1,9.4-9.1c2.8-2.9,4.8-5.7,5.8-8.4
							c2.8-3.4,5.5-5.5,8-6.4s4.7-0.8,6.4,0.1c1.8,1,3,2.7,3.5,5.1c0.6,2.4,0.4,5.2-0.6,8.5s-2.3,6.2-3.9,9s-3.3,5.2-5.1,7.4
							c-2.4,2.6-4.8,4.8-7.2,6.7c-2.4,1.9-4.6,3.8-6.5,5.7c-1.9,1.9-3.3,4.2-4.1,6.8c-0.9,2.8-1,5.2-0.5,7.2c0.6,2,2,3.3,4.1,4
							c1.4,0.5,2.8,0.5,4.2,0.2c1.4-0.3,3-1,5-2.1c-3.7,3-7.6,5.2-11.8,6.6c-4.2,1.4-8.4,1.4-12.6,0.1c-4.8-1.5-8-4.1-9.7-7.9
							C699.3,289.3,699.3,285,700.8,280"/>
					</defs>
					<clipPath id="SVGID_135_">
						<use xlink:href="#SVGID_134_"  style="overflow:visible;"/>
					</clipPath>
					<g class="st82">
						
							<linearGradient id="SVGID_136_" gradientUnits="userSpaceOnUse" x1="143.791" y1="-68.5751" x2="145.651" y2="-68.5751" gradientTransform="matrix(-13.6433 16.5389 -16.5389 -13.6433 1566.5438 -3062.0046)">
							<stop  offset="0" style="stop-color:#5200D0"/>
							<stop  offset="1" style="stop-color:#BABAFF"/>
						</linearGradient>
						<polygon class="st83" points="665.8,274.9 719.6,209.7 783.8,262.7 730.1,327.9 						"/>
					</g>
				</g>
			</g>
		</g>
	</g>
	<g>
		<g>
			<defs>
				
					<rect id="SVGID_137_" x="676.9" y="218.1" transform="matrix(0.9994 -3.489950e-02 3.489950e-02 0.9994 -9.236 26.3365)" width="145.7" height="119.2"/>
			</defs>
			<clipPath id="SVGID_138_">
				<use xlink:href="#SVGID_137_"  style="overflow:visible;"/>
			</clipPath>
			<g class="st84">
				<g>
					<defs>
						<path id="SVGID_139_" d="M768.4,239.5c5.3,0.1,9.8,0.9,13.5,2.5c3.7,1.6,6.1,4,7.1,7.3c1,3.3-0.1,7.6-3.2,12.9
							c-1.4,2.4-3.3,5.5-5.8,9.4c-2.5,3.9-5.2,8.1-8.1,12.6c-2.9,4.5-5.8,8.9-8.7,13.2s-5.4,8.1-7.8,11.3c-2.3,3.2-4,5.4-5.1,6.6
							c-6.1,6.7-11.7,10.5-16.9,11.2c-5.2,0.8-11-0.7-17.4-4.5c3.4-2.6,7-6.3,10.9-11.1c3.8-4.8,7.7-10.3,11.6-16.5
							c3.9-6.1,7.7-12.5,11.4-19.2c3.7-6.6,7.1-13.1,10.3-19.3C763.5,249.9,766.2,244.3,768.4,239.5"/>
					</defs>
					<clipPath id="SVGID_140_">
						<use xlink:href="#SVGID_139_"  style="overflow:visible;"/>
					</clipPath>
					<g class="st85">
						
							<linearGradient id="SVGID_141_" gradientUnits="userSpaceOnUse" x1="215.9323" y1="-94.7617" x2="217.7923" y2="-94.7617" gradientTransform="matrix(16.1334 -20.8968 20.8968 16.1334 -777.8559 6359.6689)">
							<stop  offset="0" style="stop-color:#5200D0"/>
							<stop  offset="1" style="stop-color:#BABAFF"/>
						</linearGradient>
						<polygon class="st86" points="672.6,294.1 743,202.9 833.1,272.5 762.7,363.7 						"/>
					</g>
				</g>
			</g>
		</g>
	</g>
	<g>
		<g>
			<defs>
				
					<rect id="SVGID_142_" x="639.5" y="205.2" transform="matrix(0.9994 -3.489950e-02 3.489950e-02 0.9994 -9.286 25.1621)" width="153.3" height="146.7"/>
			</defs>
			<clipPath id="SVGID_143_">
				<use xlink:href="#SVGID_142_"  style="overflow:visible;"/>
			</clipPath>
			<g class="st87">
				<g>
					<defs>
						<path id="SVGID_144_" d="M682,312.2c0.9-2.7,2.2-4.9,4.1-6.5c1.9-1.6,3.8-2.8,5.7-3.4s3.4-0.9,4.3-0.6c1.4,3,3.8,5.5,7.2,7.5
							c3.4,2,6.7,3.4,9.8,4.4c4.5,1.4,9.2,2.2,14.2,2.5c5.1,0.3,9.9,0,14.6-0.9c4.7-0.9,8.8-2.5,12.3-4.7
							c-4.8,7.5-10.1,13.4-16.1,17.5s-12.2,6.7-18.7,7.7c-6.5,1-12.9,0.5-19.1-1.5c-6.5-2-11.6-5-15.2-9
							C681.5,321.2,680.5,316.9,682,312.2 M713.3,240.8c1.8-5.9,5.1-9.8,9.8-11.7c4.7-1.9,9.7-2.1,14.9-0.5c5.2,1.6,9,4.1,11.4,7.4
							c2.4,3.3,2.7,7.9,0.8,13.9c-1,3.2-2.5,6.2-4.5,8.8c-2,2.6-3.9,5-5.8,7.2c2.3-2.6,3-5.4,2.1-8.2c-0.9-2.9-3.5-5-8-6.4
							c-3.7-1.2-7.3-1.2-10.8-0.1s-6.5,2.1-9,3.1c-1-2.4-1.6-4.6-1.8-6.7S712.6,243.2,713.3,240.8"/>
					</defs>
					<clipPath id="SVGID_145_">
						<use xlink:href="#SVGID_144_"  style="overflow:visible;"/>
					</clipPath>
					<g class="st88">
						
							<linearGradient id="SVGID_146_" gradientUnits="userSpaceOnUse" x1="138.435" y1="-68.1802" x2="140.295" y2="-68.1802" gradientTransform="matrix(-11.779 14.9846 -14.9846 -11.779 1348.5399 -2625.0911)">
							<stop  offset="0" style="stop-color:#BABAFF"/>
							<stop  offset="1" style="stop-color:#BABAFF"/>
						</linearGradient>
						<polygon class="st89" points="626,294.3 706.9,191.2 806.7,269.7 725.7,372.7 						"/>
					</g>
				</g>
			</g>
		</g>
	</g>
</g>
<g>
	<g>
		<defs>
			<rect id="SVGID_147_" x="37.5" y="357.9" width="294.8" height="382.5"/>
		</defs>
		<clipPath id="SVGID_148_">
			<use xlink:href="#SVGID_147_"  style="overflow:visible;"/>
		</clipPath>
		<g class="st90">
			<path class="st91" d="M52.1,444.5c-1-11.9-0.6-22.7,1.4-32.5s5-17.7,9.1-23.7c5.3-0.1,13.8-0.6,25.6-1.5
				c11.8-0.9,22.6-1.7,32.5-2.6c6.6-0.6,16.4-1.8,29.7-3.6s27.3-3.6,42.1-5.4c14.9-1.8,28-3.2,39.5-4.2c17.4-1.5,32.2,1.8,44.5,10.1
				c12.3,8.2,19.3,22.6,21.1,43c0.9,10.2,0.2,20.8-1.9,31.6c-2.2,10.8-4.9,20.4-8.1,28.6c-3.2,8.3-5.9,13.6-8,16.2
				c-3.3,0.3-8.4,0.7-15.5,1.4s-15.3,1.7-24.8,3.2c-0.6,4.7-1.1,12.6-1.6,23.6c-0.5,11-0.9,23.8-1.1,38.5
				c-0.2,14.7-0.4,29.7-0.5,45.2c-0.1,15.5-0.2,30.2-0.1,44.2c0.1,14,0.3,25.9,0.7,35.9c0.4,9.9,0.7,16.6,1,19.9
				c-6,3.5-15.1,7.1-27.3,10.9c-12.2,3.7-27.5,6.4-45.9,8c-8.9,0.8-18.5,0.8-29,0s-19.9-2-28.3-3.8s-14.1-4.2-17-7.2
				c-1.9-17.5-2.4-36.5-1.5-57c0.8-20.5,2.3-40.7,4.4-60.5s4.3-37.7,6.7-53.7c2.4-16,4.4-28.2,6-36.7c-17.9-4.1-30.9-12.1-39-24
				C58.4,476.2,53.6,461.7,52.1,444.5"/>
		</g>
	</g>
</g>
<g>
	<g>
		<defs>
			<rect id="SVGID_149_" x="77.8" y="495.5" width="139.9" height="100.5"/>
		</defs>
		<clipPath id="SVGID_150_">
			<use xlink:href="#SVGID_149_"  style="overflow:visible;"/>
		</clipPath>
		<g class="st92">
			<path class="st91" d="M105.5,511.6c5,0.2,10.7,0.4,17.1,0.5c6.4,0.1,15.6-0.5,27.6-1.7c11.9-1.2,28.5-3.2,49.7-6.1
				c3,4.1,3.1,11,0.3,20.7c-2.8,9.7-8.4,19.9-16.9,30.4c-8.5,10.5-20.1,19.5-34.8,27s-32.8,11.1-54.3,11c0.4-6.4,1.3-14.5,2.6-24.4
				s2.7-20.1,4.3-30.5C102.7,528,104.2,519.1,105.5,511.6"/>
		</g>
	</g>
</g>
<g>
	<g>
		<defs>
			<rect id="SVGID_151_" x="259.1" y="339.5" width="203.7" height="378.9"/>
		</defs>
		<clipPath id="SVGID_152_">
			<use xlink:href="#SVGID_151_"  style="overflow:visible;"/>
		</clipPath>
		<g class="st93">
			<path class="st91" d="M301.6,464.6l114.5-16c0.7,3.9,1.2,9.5,1.7,16.6c0.5,7.1,0.3,16.9-0.4,29.5c-0.7,12.5-2.5,28.7-5.4,48.6
				s-7.3,44.5-13.4,74c1.9-0.5,4-1.1,6.3-1.8c2.2-0.7,4-1.3,5.3-1.7c2.3,3.1,4.3,7.2,6,12.2c1.8,5,3,11.1,3.6,18.4
				c1.5,17.2-2.8,32.2-12.9,45c-10.1,12.9-26,20.2-47.6,22.1c-39.7,3.5-61.1-13.6-64.4-51.2c-0.8-8.6-0.9-19.5-0.4-32.9
				c0.5-13.3,1.8-27.6,3.9-42.7c2.1-15.2,5.1-29.7,8.8-43.7c-8.1-5.6-12.7-14.8-13.8-27.7c-0.8-9.6-0.4-18.2,1.2-26
				S298.6,471.8,301.6,464.6 M374.7,445.2c-9.5,0.8-18.8-0.3-27.8-3.3c-9-3-16.5-7.8-22.5-14.2c-6-6.5-9.4-14.5-10.3-24
				s1.1-18.1,6-25.5c4.8-7.4,11.4-13.4,19.7-17.9s17.3-7.2,26.8-8.1c9.5-0.8,18.7,0.3,27.5,3.3c8.9,3,16.3,7.8,22.3,14.3
				c6,6.5,9.4,14.5,10.3,24c1.2,14.2-3,26-12.8,35.3C404.2,438.4,391.1,443.8,374.7,445.2"/>
		</g>
	</g>
</g>
<g>
	<g>
		<defs>
			<rect id="SVGID_153_" x="282" y="527.4" width="105" height="78.5"/>
		</defs>
		<clipPath id="SVGID_154_">
			<use xlink:href="#SVGID_153_"  style="overflow:visible;"/>
		</clipPath>
		<g class="st94">
			<path class="st91" d="M307.3,540.9c3.2,2.4,7.5,4,12.8,5.1c5.4,1,11.2,1.2,17.4,0.7c8.9-0.8,16.5-2,23-3.7
				c6.5-1.7,10.5-2.8,12.1-3.3c1.3,3.2,0.4,7.8-2.8,13.9s-7.6,12.5-13.4,19.2c-5.9,6.8-12.3,12.9-19.5,18.3
				c-7.1,5.4-14.2,9.1-21.3,11c-7.1,1.9-13.5,1-19.1-2.8c1.4-10.7,2.9-21.4,4.6-32.1C302.8,556.5,304.9,547.7,307.3,540.9"/>
		</g>
	</g>
</g>
<g>
	<g>
		<defs>
			<rect id="SVGID_155_" x="313.4" y="535" width="114.5" height="96"/>
		</defs>
		<clipPath id="SVGID_156_">
			<use xlink:href="#SVGID_155_"  style="overflow:visible;"/>
		</clipPath>
		<g class="st95">
			<path class="st91" d="M329.9,629.2c0-7.3,2.9-15.7,8.7-25.2c5.8-9.5,13.1-18.8,21.8-27.8c8.8-9.1,17.9-16.8,27.2-23.1
				c9.4-6.3,17.5-9.8,24.4-10.4c-1.4,10.1-3.3,22.3-5.7,36.7c-2.4,14.3-4.9,27-7.6,37.8c-3.9,1-10.2,2.4-19,4.2
				c-8.8,1.8-17.8,3.4-27.1,4.9C343.3,627.7,335.8,628.7,329.9,629.2"/>
		</g>
	</g>
</g>
<g>
	<g>
		<defs>
			<rect id="SVGID_157_" x="393.6" y="419.1" width="284.5" height="288.2"/>
		</defs>
		<clipPath id="SVGID_158_">
			<use xlink:href="#SVGID_157_"  style="overflow:visible;"/>
		</clipPath>
		<g class="st96">
			<path class="st91" d="M424.4,690.8c1.1-18,2.6-37.3,4.6-57.8c2-20.5,4.4-39.7,7.1-57.7c2.7-18,5.6-32,8.7-41.9
				c-12.6-4.2-19.6-14.7-21.1-31.6c-0.8-9.6-0.5-18.5,1.1-26.8c1.6-8.3,3.9-15.6,7-21.8l109.6-15.6l-1.6,9.6
				c5.3-3.1,12.4-6.2,21.2-9.3s18.3-5.1,28.5-6c19.3-1.7,34.1,2.2,44.4,11.8s16.2,23.6,17.8,42.1c0.8,8.6,0.5,19.4-0.9,32.5
				s-3.4,26.6-6.1,40.4c-2.8,13.9-6,26.3-9.6,37.3c2.3-0.5,5-1.4,8.2-2.7c2.3,3.1,4.3,7.2,6,12.2s3,11.1,3.6,18.4
				c1.5,17.2-3,32.2-13.7,45.1c-10.6,12.9-30.3,20.6-59.2,23.1c-5.9,0.5-12.8,0.6-20.5,0.3s-15.2-0.9-22.2-1.8s-12.4-2-16.2-3.3
				c-2.5,2.2-6.6,4.3-12.6,6.3c-5.9,2-12.1,3.7-18.6,5.1c-6.5,1.4-12.2,2.3-17.1,2.7c-9.9,0.5-19.1,0.3-27.8-0.6
				C436.4,700,429.5,696.6,424.4,690.8"/>
		</g>
	</g>
</g>
<g>
	<g>
		<defs>
			<rect id="SVGID_159_" x="419.7" y="516.7" width="101.6" height="77.2"/>
		</defs>
		<clipPath id="SVGID_160_">
			<use xlink:href="#SVGID_159_"  style="overflow:visible;"/>
		</clipPath>
		<g class="st97">
			<path class="st91" d="M444.8,533.8c2.3,0.5,5.3,1,8.8,1.5c3.5,0.5,7.2,0.6,11.1,0.3c8.8-0.8,17.6-2.7,26.4-5.8
				c8.8-3.1,14-4.9,15.6-5.3c1.3,3.2,0.5,8-2.4,14.4c-2.9,6.4-7.1,13.2-12.5,20.3s-11.6,13.6-18.3,19.3s-13.5,9.6-20.5,11.5
				c-6.9,1.9-13.2,0.8-18.8-3.3c1.1-5.8,2.3-12.3,3.5-19.5s2.4-14,3.6-20.3C442.5,540.6,443.7,536.3,444.8,533.8"/>
		</g>
	</g>
</g>
<g>
	<g>
		<defs>
			<rect id="SVGID_161_" x="489" y="424.2" width="122.3" height="168.4"/>
		</defs>
		<clipPath id="SVGID_162_">
			<use xlink:href="#SVGID_161_"  style="overflow:visible;"/>
		</clipPath>
		<g class="st98">
			<path class="st91" d="M511.8,590.8l28.1-143.6c5.3-3.1,12.8-6.3,22.2-9.4s18.5-5.1,27-5.9c-0.1,2.3-1.6,7.7-4.5,16.1
				c-2.9,8.4-6.7,18.5-11.5,30.2s-10,24-15.9,36.8S545.7,539.8,540,551s-10.9,20.4-15.9,27.8C519.2,586.2,515.1,590.2,511.8,590.8"
				/>
		</g>
	</g>
</g>
<g>
	<g>
		<defs>
			<rect id="SVGID_163_" x="495.3" y="485.3" width="122.2" height="213.6"/>
		</defs>
		<clipPath id="SVGID_164_">
			<use xlink:href="#SVGID_163_"  style="overflow:visible;"/>
		</clipPath>
		<g class="st99">
			<path class="st91" d="M521.2,687.3c7-51.8,16.8-93.4,29.5-124.8c12.6-31.4,25.9-54.5,39.8-69.3c2.2,6.8,2.2,16.9-0.1,30.2
				c-2.3,13.3-5.3,28.5-9.2,45.4c-3.8,17-7,34.9-9.7,53.7c-1.8,13.5-2.2,25.1-1.2,35c1,9.9,4.3,21.4,9.7,34.6
				c-4.9,0.4-11.1,0.6-18.5,0.4s-14.8-0.7-22.2-1.5S526,688.9,521.2,687.3"/>
		</g>
	</g>
</g>
<g>
	<g>
		<defs>
			<rect id="SVGID_165_" x="553.4" y="514.1" width="113" height="95.9"/>
		</defs>
		<clipPath id="SVGID_166_">
			<use xlink:href="#SVGID_165_"  style="overflow:visible;"/>
		</clipPath>
		<g class="st100">
			<path class="st91" d="M569.8,608.2c0-7.3,2.8-15.7,8.5-25.2s12.7-18.7,21.3-27.8s17.5-16.8,26.7-23c9.2-6.3,17.2-9.7,24.1-10.3
				c-0.4,6.7-1.5,14.6-3.1,23.7c-1.7,9.1-3.5,18.2-5.5,27.2c-2,9-4.2,16.8-6.6,23.3c-3.5,1.3-9.4,2.8-17.7,4.5s-16.8,3.3-25.6,4.7
				S575.7,607.7,569.8,608.2"/>
		</g>
	</g>
</g>
<g>
	<g>
		<defs>
			<rect id="SVGID_167_" x="631.5" y="363.6" width="211.2" height="320.1"/>
		</defs>
		<clipPath id="SVGID_168_">
			<use xlink:href="#SVGID_167_"  style="overflow:visible;"/>
		</clipPath>
		<g class="st101">
			<path class="st91" d="M658,523.7c-2.1-31.4,1.4-57.7,10.4-79c9-21.2,21.5-37.6,37.3-49.1c15.8-11.5,32.6-18.1,50.3-19.6
				c4.9-0.4,10.5-0.4,16.6,0c6.2,0.5,11,1.5,14.4,3.2l-5.8,40.9c9.8-0.9,17.2-2,22-3.4c2.9,3.4,5.4,7.6,7.3,12.6
				c1.9,5,3.2,11.4,3.9,19.4c1,11.9,0.5,23.1-1.5,33.5c-2.1,10.5-6.1,19.2-12.1,26.2s-14.2,11-24.7,11.9l-8.8,63.6
				c8.4-2.1,17.2-4.8,26.5-8.3c4.5,5.6,7.1,13.3,8,23.2c1.8,21.1-3.3,38.8-15.4,53c-12.1,14.2-30.3,22.4-54.6,24.5
				c-22,1.9-38.8-2.8-50.5-14c-11.7-11.3-18.5-27.2-20.3-47.6c-0.7-8.2-0.6-17.7,0.5-28.5s2.5-21.4,4.4-32.1s3.7-19.5,5.3-26.7
				c-2.3-0.5-4.6-1-6.8-1.7S660.1,524.5,658,523.7"/>
		</g>
	</g>
</g>
<g>
	<g>
		<defs>
			<rect id="SVGID_169_" x="646.9" y="512.4" width="122.5" height="76.1"/>
		</defs>
		<clipPath id="SVGID_170_">
			<use xlink:href="#SVGID_169_"  style="overflow:visible;"/>
		</clipPath>
		<g class="st102">
			<path class="st91" d="M671.3,527.5c7.7,1.7,17.3,2.1,28.8,1.2c11.5-0.8,27.1-3.5,46.8-7.8c12.5,3.2,12.1,10.2-1.2,20.8
				c-13.3,10.6-41.3,25.7-84.2,45c0.8-10,2-20,3.8-30S669.1,537,671.3,527.5"/>
		</g>
	</g>
</g>
<g>
	<g>
		<defs>
			<rect id="SVGID_171_" x="680.9" y="522.7" width="107.6" height="72.9"/>
		</defs>
		<clipPath id="SVGID_172_">
			<use xlink:href="#SVGID_171_"  style="overflow:visible;"/>
		</clipPath>
		<g class="st103">
			<path class="st91" d="M695.4,593.7c4.2-8.3,9-17.4,14.5-27.2s13.2-18.2,23.3-25.2c10.1-7,23.9-10.5,41.5-10.4l-7.2,53
				c-5.5,1.2-12.8,2.5-22,3.9c-9.1,1.5-18.2,2.7-27.2,3.6S701.6,593.2,695.4,593.7"/>
		</g>
	</g>
</g>
<g>
	<g>
		<defs>
			<rect id="SVGID_173_" x="706.7" y="371.4" width="93" height="56.2"/>
		</defs>
		<clipPath id="SVGID_174_">
			<use xlink:href="#SVGID_173_"  style="overflow:visible;"/>
		</clipPath>
		<g class="st104">
			<path class="st91" d="M719.8,425c0.4-10.7,4.1-19.2,11.1-25.6c7-6.4,15.6-11.2,25.7-14.5c10.1-3.2,20.3-5.1,30.5-5.6l-5.8,40.9
				c-10.1,1.2-20.3,2.2-30.5,2.9S730.3,424.4,719.8,425"/>
		</g>
	</g>
</g>
<g>
	<g>
		<defs>
			<rect id="SVGID_175_" x="781.6" y="386.1" width="274.7" height="287.4"/>
		</defs>
		<clipPath id="SVGID_176_">
			<use xlink:href="#SVGID_175_"  style="overflow:visible;"/>
		</clipPath>
		<g class="st105">
			<path class="st91" d="M962.7,658.6c-9.5,0.8-17.7,1-24.5,0.4c-6.8-0.6-14.1-1.8-21.9-3.8c-5,2.8-11.4,5.2-19,7.1
				s-15,3.3-22.2,3.9c-19.7,1.7-35.4-3.3-47.2-15.1c-11.8-11.8-18.8-31.2-21.2-58.2c-2.1-23.8-0.9-46.7,3.7-68.7
				c4.5-22,11.5-41.8,20.8-59.4s20.3-31.8,33-42.5c12.6-10.8,26-16.7,40-18c5.6-0.5,10.9-0.5,15.9,0.1c5,0.6,10.8,2,17.2,4.5
				c5.3-3.1,12-5.6,19.9-7.5c7.9-1.9,14.8-3,20.8-3.6c19-1.7,34.9,0.3,47.6,5.8c0.6,6.6,0.2,16.7-1.1,30.3
				c-1.3,13.6-3.1,28.5-5.5,44.9c-2.4,16.3-4.8,32.2-7.2,47.5c-2.5,15.3-4.6,27.9-6.4,37.7c3.2-1,5.9-1.7,8-2.2
				c2.1-0.5,3.8-1,5.1-1.4c1.9,3.2,3.8,7.2,5.8,12.2c1.9,5,3.2,11.1,3.8,18.4c1.7,19.8-3.7,35.6-16.2,47.3
				C999.5,650.1,983,656.8,962.7,658.6"/>
		</g>
	</g>
</g>
<g>
	<g>
		<defs>
			<rect id="SVGID_177_" x="824.4" y="393.8" width="137.2" height="198.8"/>
		</defs>
		<clipPath id="SVGID_178_">
			<use xlink:href="#SVGID_177_"  style="overflow:visible;"/>
		</clipPath>
		<g class="st106">
			<path class="st91" d="M937.4,409c-2.9,12.2-6.9,26.3-12.2,42.2s-11.2,32.3-18,49.2c-6.8,16.9-13.9,32.7-21.3,47.5
				c-7.5,14.8-14.9,27.2-22.3,37.1c-4.7,6.4-8.5,6.9-11.3,1.5c-2.8-5.4-4.6-14.5-5.3-27.2c-0.8-12.7-0.7-27.2,0.2-43.4
				c0.9-16.2,2.6-32.2,5.2-48.1s6-29.3,10.3-40.3c1.9-4.5,5.6-8.4,11.1-11.7s10.9-5.9,16.2-7.9s8.6-3,9.9-3.1
				c7.9-0.7,14.5-0.8,19.8-0.2C925,405,930.9,406.5,937.4,409"/>
		</g>
	</g>
</g>
<g>
	<g>
		<defs>
			<rect id="SVGID_179_" x="820.2" y="481.2" width="146.9" height="189.6"/>
		</defs>
		<clipPath id="SVGID_180_">
			<use xlink:href="#SVGID_179_"  style="overflow:visible;"/>
		</clipPath>
		<g class="st107">
			<path class="st91" d="M916.3,655.2c-5.1,2.4-10,4.6-14.8,6.5c-4.8,1.9-13.6,3.4-26.4,4.5c-10.5,0.9-18.3-0.2-23.3-3.4
				s-8-7.8-8.9-13.7c-0.4-5,1.1-11.5,4.7-19.6s8.3-17.4,14.2-27.9c5.8-10.5,11.9-21.3,18.2-32.5c6.8-12.6,13.8-24.7,20.9-36.2
				c7.1-11.6,13.7-21.2,19.8-28.9c6.1-7.7,11.2-12.4,15.4-14.1c4.2-1.7,6.8,0.9,7.9,7.8s0.1,19.4-2.9,37.7
				c-2.5,16.5-5.8,33.7-9.9,51.5C927.1,604.6,922.1,627.4,916.3,655.2"/>
		</g>
	</g>
</g>
<g>
	<g>
		<defs>
			<rect id="SVGID_181_" x="938.5" y="489" width="93.2" height="86.8"/>
		</defs>
		<clipPath id="SVGID_182_">
			<use xlink:href="#SVGID_181_"  style="overflow:visible;"/>
		</clipPath>
		<g class="st108">
			<path class="st91" d="M954.3,574.1c0.8-5.4,3.2-11.9,7-19.6c3.8-7.7,8.7-15.4,14.6-23.2s12.4-14.9,19.5-21.2
				c7-6.3,14.1-10.7,21.1-13.3c-0.3,4-1.2,10.3-2.6,18.9c-1.4,8.6-2.8,17.5-4.4,26.6c-1.5,9.1-2.9,16.4-4,21.8
				c-1.6,0.5-5.2,1.3-10.7,2.4c-5.5,1.2-11.9,2.4-19.2,3.7S961.1,572.8,954.3,574.1"/>
		</g>
	</g>
</g>
<g>
	<g>
		<defs>
			<rect id="SVGID_183_" x="54.7" y="354" width="286.8" height="369.7"/>
		</defs>
		<clipPath id="SVGID_184_">
			<use xlink:href="#SVGID_183_"  style="overflow:visible;"/>
		</clipPath>
		<g class="st109">
			<g>
				<defs>
					<path id="SVGID_185_" d="M69.1,438c-1-11.5-0.6-21.9,1.3-31.4c1.9-9.5,4.8-17.1,8.8-22.9c5.1-0.1,13.4-0.6,24.9-1.5
						c11.5-0.8,22-1.7,31.6-2.5c6.4-0.6,16-1.7,28.8-3.5s26.5-3.5,40.9-5.3s27.2-3.1,38.4-4.1c16.9-1.5,31.3,1.8,43.2,9.7
						s18.8,21.8,20.5,41.5c0.9,9.9,0.2,20-1.9,30.5c-2.1,10.5-4.8,19.7-7.9,27.7s-5.8,13.2-7.8,15.6c-3.2,0.3-8.2,0.7-15,1.3
						c-6.9,0.6-14.9,1.6-24.1,3.1c-0.6,4.5-1.1,12.1-1.6,22.8c-0.5,10.6-0.9,23-1.1,37.2c-0.2,14.1-0.4,28.7-0.5,43.6
						s-0.2,29.2-0.1,42.6s0.3,25,0.6,34.6c0.4,9.6,0.7,16,1,19.2c-5.8,3.4-14.6,6.9-26.5,10.5c-11.9,3.6-26.7,6.2-44.6,7.8
						c-8.6,0.8-18,0.8-28.2,0.1c-10.2-0.7-19.4-1.9-27.5-3.6s-13.7-4-16.5-7c-1.8-16.9-2.3-35.2-1.4-55c0.8-19.8,2.3-39.3,4.3-58.4
						c2-19.1,4.2-36.4,6.5-51.8c2.3-15.5,4.3-27.3,5.8-35.4c-17.4-3.9-30-11.7-37.9-23.2S70.6,454.6,69.1,438"/>
				</defs>
				<clipPath id="SVGID_186_">
					<use xlink:href="#SVGID_185_"  style="overflow:visible;"/>
				</clipPath>
				<g class="st110">
					
						<linearGradient id="SVGID_187_" gradientUnits="userSpaceOnUse" x1="182.6481" y1="-77.8171" x2="183.6481" y2="-77.8171" gradientTransform="matrix(-57.7984 31.2384 -31.2384 -57.7984 8370.4824 -9693.417)">
						<stop  offset="0" style="stop-color:#F2152B"/>
						<stop  offset="1" style="stop-color:#F2152B"/>
					</linearGradient>
					<polygon class="st111" points="-78.2,444.5 254.2,264.8 454.9,636.2 122.5,815.8 					"/>
				</g>
			</g>
		</g>
	</g>
</g>
<g>
	<g>
		<defs>
			<rect id="SVGID_188_" x="93.8" y="486.9" width="136.5" height="97.4"/>
		</defs>
		<clipPath id="SVGID_189_">
			<use xlink:href="#SVGID_188_"  style="overflow:visible;"/>
		</clipPath>
		<g class="st112">
			<g>
				<defs>
					<path id="SVGID_190_" d="M121,502.8c4.8,0.2,10.4,0.4,16.6,0.5c6.3,0.1,15.2-0.5,26.8-1.6c11.6-1.2,27.7-3.1,48.4-5.9
						c2.9,3.9,3,10.6,0.3,20c-2.7,9.4-8.2,19.2-16.4,29.4s-19.5,18.9-33.8,26.1s-31.9,10.7-52.8,10.6c0.4-6.1,1.3-14,2.5-23.6
						s2.6-19.4,4.2-29.5C118.3,518.6,119.7,510,121,502.8"/>
				</defs>
				<clipPath id="SVGID_191_">
					<use xlink:href="#SVGID_190_"  style="overflow:visible;"/>
				</clipPath>
				<g class="st113">
					
						<linearGradient id="SVGID_192_" gradientUnits="userSpaceOnUse" x1="176.8452" y1="-87.1548" x2="177.8452" y2="-87.1548" gradientTransform="matrix(37.2911 44.6313 -44.6313 37.2911 -10359.8672 -4149.7612)">
						<stop  offset="0" style="stop-color:#620110"/>
						<stop  offset="1" style="stop-color:#F2152B"/>
					</linearGradient>
					<polygon class="st114" points="67.8,531.1 172.4,443.7 258.3,546.5 153.6,633.9 					"/>
				</g>
			</g>
		</g>
	</g>
</g>
<g>
	<g>
		<defs>
			<rect id="SVGID_193_" x="270.1" y="336.2" width="198.3" height="366.2"/>
		</defs>
		<clipPath id="SVGID_194_">
			<use xlink:href="#SVGID_193_"  style="overflow:visible;"/>
		</clipPath>
		<g class="st115">
			<g>
				<defs>
					<path id="SVGID_195_" d="M311.6,457.3l111.3-15.5c0.6,3.8,1.2,9.1,1.6,16c0.4,6.9,0.3,16.4-0.4,28.5s-2.5,27.7-5.3,46.9
						c-2.8,19.2-7.1,43-13,71.4c1.9-0.5,3.9-1.1,6.1-1.7c2.2-0.7,3.9-1.2,5.1-1.7c2.2,3,4.1,6.9,5.9,11.8s2.9,10.7,3.5,17.8
						c1.5,16.6-2.7,31.1-12.6,43.5c-9.8,12.4-25.3,19.5-46.3,21.4c-38.5,3.4-59.4-13.1-62.6-49.4c-0.7-8.3-0.9-18.9-0.4-31.8
						s1.8-26.6,3.9-41.3s5-28.7,8.6-42.2c-7.9-5.4-12.3-14.3-13.4-26.8c-0.8-9.2-0.4-17.6,1.2-25.1
						C306.4,471.5,308.7,464.3,311.6,457.3 M382.6,438.5c-9.2,0.8-18.2-0.2-27-3.2c-8.8-2.9-16.1-7.5-21.9-13.7s-9.2-14-10-23.2
						c-0.8-9.2,1.1-17.4,5.8-24.6s11.1-12.9,19.2-17.3s16.8-7,26-7.8c9.2-0.8,18.2,0.3,26.8,3.2s15.8,7.5,21.7,13.8
						c5.8,6.2,9.2,14,10,23.2c1.2,13.7-2.9,25.1-12.4,34.1C411.3,431.9,398.6,437.1,382.6,438.5"/>
				</defs>
				<clipPath id="SVGID_196_">
					<use xlink:href="#SVGID_195_"  style="overflow:visible;"/>
				</clipPath>
				<g class="st116">
					
						<linearGradient id="SVGID_197_" gradientUnits="userSpaceOnUse" x1="172.4145" y1="-80.422" x2="173.4145" y2="-80.422" gradientTransform="matrix(-0.4596 37.0872 -37.0872 -0.4596 -2534.5261 -5928.7798)">
						<stop  offset="0" style="stop-color:#F2152B"/>
						<stop  offset="1" style="stop-color:#F2152B"/>
					</linearGradient>
					<polygon class="st117" points="298.5,698.9 302.8,346.3 438.7,347.9 434.4,700.5 					"/>
				</g>
			</g>
		</g>
	</g>
</g>
<g>
	<g>
		<defs>
			<rect id="SVGID_198_" x="292.2" y="517.6" width="102.5" height="76.2"/>
		</defs>
		<clipPath id="SVGID_199_">
			<use xlink:href="#SVGID_198_"  style="overflow:visible;"/>
		</clipPath>
		<g class="st118">
			<g>
				<defs>
					<path id="SVGID_200_" d="M317,531c3.1,2.3,7.2,3.9,12.5,4.9s10.9,1.2,16.9,0.7c8.6-0.8,16-2,22.3-3.6
						c6.3-1.7,10.2-2.7,11.8-3.2c1.2,3.1,0.3,7.6-2.7,13.5c-3,5.9-7.4,12.1-13,18.7s-12,12.5-18.9,17.8c-6.9,5.3-13.8,8.8-20.7,10.7
						c-6.9,1.9-13.1,1-18.5-2.7c1.3-10.4,2.8-20.8,4.5-31.2C312.7,546.1,314.7,537.6,317,531"/>
				</defs>
				<clipPath id="SVGID_201_">
					<use xlink:href="#SVGID_200_"  style="overflow:visible;"/>
				</clipPath>
				<g class="st119">
					
						<linearGradient id="SVGID_202_" gradientUnits="userSpaceOnUse" x1="173.628" y1="-87.1556" x2="174.628" y2="-87.1556" gradientTransform="matrix(23.6318 34.0778 -34.0778 23.6318 -6753.9966 -3332.0972)">
						<stop  offset="0" style="stop-color:#620110"/>
						<stop  offset="1" style="stop-color:#F2152B"/>
					</linearGradient>
					<polygon class="st120" points="277.3,550.1 357.3,494.6 411,572 331,627.6 					"/>
				</g>
			</g>
		</g>
	</g>
</g>
<g>
	<g>
		<defs>
			<rect id="SVGID_203_" x="322.7" y="524.9" width="111.8" height="93.1"/>
		</defs>
		<clipPath id="SVGID_204_">
			<use xlink:href="#SVGID_203_"  style="overflow:visible;"/>
		</clipPath>
		<g class="st121">
			<g>
				<defs>
					<path id="SVGID_205_" d="M339,616.2c0-7.1,2.9-15.2,8.5-24.3c5.6-9.2,12.7-18.1,21.2-26.9c8.5-8.8,17.4-16.2,26.5-22.3
						c9.1-6.1,17-9.4,23.7-10c-1.4,9.8-3.2,21.5-5.6,35.4c-2.3,13.8-4.8,26-7.4,36.5c-3.8,1-9.9,2.3-18.4,4s-17.3,3.3-26.3,4.7
						S344.7,615.7,339,616.2"/>
				</defs>
				<clipPath id="SVGID_206_">
					<use xlink:href="#SVGID_205_"  style="overflow:visible;"/>
				</clipPath>
				<g class="st122">
					
						<linearGradient id="SVGID_207_" gradientUnits="userSpaceOnUse" x1="193.6059" y1="-79.0197" x2="194.6059" y2="-79.0197" gradientTransform="matrix(-29.0777 -30.2373 30.2373 -29.0777 8428.9678 4163.2773)">
						<stop  offset="0" style="stop-color:#620110"/>
						<stop  offset="1" style="stop-color:#F2152B"/>
					</linearGradient>
					<polygon class="st123" points="297.2,572.8 380.4,492.8 460.5,576.1 377.3,656.1 					"/>
				</g>
			</g>
		</g>
	</g>
</g>
<g>
	<g>
		<defs>
			<rect id="SVGID_208_" x="400.8" y="413" width="276.9" height="278.7"/>
		</defs>
		<clipPath id="SVGID_209_">
			<use xlink:href="#SVGID_208_"  style="overflow:visible;"/>
		</clipPath>
		<g class="st124">
			<g>
				<defs>
					<path id="SVGID_210_" d="M430.8,675.6c1-17.4,2.5-36,4.5-55.8c2-19.8,4.3-38.3,6.9-55.7c2.6-17.4,5.5-30.9,8.5-40.5
						c-12.2-4.1-19.1-14.2-20.5-30.5c-0.8-9.2-0.4-17.9,1.1-25.9s3.8-15,6.8-21.1l106.5-15.1l-1.6,9.3c5.2-3,12.1-6,20.6-9
						s17.8-4.9,27.7-5.8c18.8-1.6,33.2,2.1,43.1,11.4c10,9.2,15.7,22.8,17.3,40.6c0.7,8.3,0.4,18.7-0.9,31.4
						c-1.3,12.6-3.3,25.7-6,39c-2.7,13.4-5.8,25.4-9.4,36c2.2-0.5,4.8-1.4,8-2.6c2.2,3,4.1,6.9,5.8,11.8c1.7,4.8,2.9,10.7,3.5,17.8
						c1.5,16.6-3,31.1-13.3,43.5c-10.3,12.5-29.5,19.9-57.5,22.4c-5.7,0.5-12.4,0.6-20,0.3s-14.8-0.9-21.6-1.7s-12-1.9-15.7-3.2
						c-2.4,2.1-6.5,4.2-12.2,6.1c-5.8,2-11.8,3.6-18.1,5s-11.8,2.2-16.6,2.7c-9.6,0.5-18.6,0.3-27-0.5
						C442.5,684.5,435.8,681.2,430.8,675.6"/>
				</defs>
				<clipPath id="SVGID_211_">
					<use xlink:href="#SVGID_210_"  style="overflow:visible;"/>
				</clipPath>
				<g class="st125">
					
						<linearGradient id="SVGID_212_" gradientUnits="userSpaceOnUse" x1="182.8539" y1="-87.3678" x2="183.8539" y2="-87.3678" gradientTransform="matrix(111.0315 -1.376 1.376 111.0315 -19686.2344 10507.9189)">
						<stop  offset="0" style="stop-color:#F2152B"/>
						<stop  offset="1" style="stop-color:#F2152B"/>
					</linearGradient>
					<polygon class="st126" points="426.2,424 654.3,421.1 657.6,686.4 429.5,689.2 					"/>
				</g>
			</g>
		</g>
	</g>
</g>
<g>
	<g>
		<defs>
			<rect id="SVGID_213_" x="426.1" y="507.2" width="99.3" height="74.9"/>
		</defs>
		<clipPath id="SVGID_214_">
			<use xlink:href="#SVGID_213_"  style="overflow:visible;"/>
		</clipPath>
		<g class="st127">
			<g>
				<defs>
					<path id="SVGID_215_" d="M450.8,524.1c2.3,0.4,5.1,0.9,8.5,1.4c3.4,0.5,7,0.6,10.9,0.2c8.6-0.8,17.2-2.6,25.8-5.6
						c8.6-3,13.6-4.7,15.2-5.2c1.2,3.1,0.4,7.8-2.4,13.9c-2.8,6.2-6.9,12.7-12.2,19.6s-11.3,13.1-17.9,18.7s-13.2,9.3-20,11.1
						c-6.7,1.9-12.9,0.8-18.3-3.2c1.1-5.5,2.3-11.8,3.4-18.8c1.1-7,2.4-13.5,3.6-19.6C448.6,530.6,449.7,526.4,450.8,524.1"/>
				</defs>
				<clipPath id="SVGID_216_">
					<use xlink:href="#SVGID_215_"  style="overflow:visible;"/>
				</clipPath>
				<g class="st128">
					
						<linearGradient id="SVGID_217_" gradientUnits="userSpaceOnUse" x1="173.7646" y1="-88.5479" x2="174.7646" y2="-88.5479" gradientTransform="matrix(26.7044 29.7939 -29.7939 26.7044 -6828.2261 -2294.1074)">
						<stop  offset="0" style="stop-color:#620110"/>
						<stop  offset="1" style="stop-color:#F2152B"/>
					</linearGradient>
					<polygon class="st129" points="407.9,544 480.3,479.1 544.8,551.1 472.4,615.9 					"/>
				</g>
			</g>
		</g>
	</g>
</g>
<g>
	<g>
		<defs>
			<rect id="SVGID_218_" x="493.5" y="417.9" width="119.3" height="163"/>
		</defs>
		<clipPath id="SVGID_219_">
			<use xlink:href="#SVGID_218_"  style="overflow:visible;"/>
		</clipPath>
		<g class="st130">
			<g>
				<defs>
					<path id="SVGID_220_" d="M515.8,579l27.3-138.7c5.2-3,12.4-6.1,21.6-9.1s18-4.9,26.2-5.7c-0.1,2.3-1.6,7.4-4.4,15.5
						s-6.5,17.8-11.2,29.1c-4.6,11.3-9.8,23.2-15.4,35.5s-11.2,23.9-16.7,34.7c-5.5,10.8-10.6,19.7-15.5,26.9
						C522.9,574.6,518.9,578.4,515.8,579"/>
				</defs>
				<clipPath id="SVGID_221_">
					<use xlink:href="#SVGID_220_"  style="overflow:visible;"/>
				</clipPath>
				<g class="st131">
					
						<linearGradient id="SVGID_222_" gradientUnits="userSpaceOnUse" x1="174.4387" y1="-94.611" x2="175.4387" y2="-94.611" gradientTransform="matrix(28.1537 12.2416 -12.2416 28.1537 -5548.0049 1016.6601)">
						<stop  offset="0" style="stop-color:#620110"/>
						<stop  offset="1" style="stop-color:#F2152B"/>
					</linearGradient>
					<polygon class="st132" points="459.7,554.7 527.8,398.2 647.1,450.1 579,606.6 					"/>
				</g>
			</g>
		</g>
	</g>
</g>
<g>
	<g>
		<defs>
			<rect id="SVGID_223_" x="499.6" y="476.9" width="119.2" height="206.6"/>
		</defs>
		<clipPath id="SVGID_224_">
			<use xlink:href="#SVGID_223_"  style="overflow:visible;"/>
		</clipPath>
		<g class="st133">
			<g>
				<defs>
					<path id="SVGID_225_" d="M524.9,672.2c6.9-50,16.4-90.2,28.7-120.5c12.3-30.3,25.2-52.6,38.7-67c2.2,6.5,2.2,16.3-0.1,29.1
						c-2.2,12.9-5.2,27.5-8.9,43.9s-6.8,33.7-9.4,51.9c-1.8,13-2.1,24.3-1.1,33.8c1,9.5,4.1,20.7,9.4,33.4c-4.8,0.4-10.8,0.5-18,0.4
						c-7.2-0.2-14.4-0.7-21.6-1.5C535.4,674.8,529.5,673.7,524.9,672.2"/>
				</defs>
				<clipPath id="SVGID_226_">
					<use xlink:href="#SVGID_225_"  style="overflow:visible;"/>
				</clipPath>
				<g class="st134">
					
						<linearGradient id="SVGID_227_" gradientUnits="userSpaceOnUse" x1="177.8313" y1="-96.0459" x2="178.8313" y2="-96.0459" gradientTransform="matrix(35.25 7.8341 -7.8341 35.25 -6486.2944 2567.967)">
						<stop  offset="0" style="stop-color:#620110"/>
						<stop  offset="1" style="stop-color:#F2152B"/>
					</linearGradient>
					<polygon class="st135" points="484.1,668.3 528.2,470 635.3,493.8 591.2,692.1 					"/>
				</g>
			</g>
		</g>
	</g>
</g>
<g>
	<g>
		<defs>
			<rect id="SVGID_228_" x="555.9" y="504.6" width="110.3" height="93"/>
		</defs>
		<clipPath id="SVGID_229_">
			<use xlink:href="#SVGID_228_"  style="overflow:visible;"/>
		</clipPath>
		<g class="st136">
			<g>
				<defs>
					<path id="SVGID_230_" d="M572.1,595.8c0-7.1,2.8-15.2,8.2-24.3c5.5-9.2,12.4-18.1,20.8-26.8c8.4-8.8,17-16.2,26-22.3
						s16.8-9.4,23.4-10c-0.4,6.5-1.4,14.1-3,22.9s-3.4,17.6-5.4,26.2s-4.1,16.2-6.5,22.5c-3.4,1.3-9.2,2.7-17.2,4.4
						c-8,1.7-16.3,3.2-24.9,4.6S577.9,595.3,572.1,595.8"/>
				</defs>
				<clipPath id="SVGID_231_">
					<use xlink:href="#SVGID_230_"  style="overflow:visible;"/>
				</clipPath>
				<g class="st137">
					
						<linearGradient id="SVGID_232_" gradientUnits="userSpaceOnUse" x1="195.096" y1="-78.6643" x2="196.096" y2="-78.6643" gradientTransform="matrix(-24.6553 -27.5078 27.5078 -24.6553 7614.1006 4013.2659)">
						<stop  offset="0" style="stop-color:#620110"/>
						<stop  offset="1" style="stop-color:#F2152B"/>
					</linearGradient>
					<polygon class="st138" points="530.7,549.5 615.6,473.4 692,558.6 607.1,634.8 					"/>
				</g>
			</g>
		</g>
	</g>
</g>
<g>
	<g>
		<defs>
			<rect id="SVGID_233_" x="631.9" y="359.3" width="205.6" height="309.5"/>
		</defs>
		<clipPath id="SVGID_234_">
			<use xlink:href="#SVGID_233_"  style="overflow:visible;"/>
		</clipPath>
		<g class="st139">
			<g>
				<defs>
					<path id="SVGID_235_" d="M657.9,514.1c-2-30.3,1.4-55.7,10.2-76.2s20.9-36.3,36.3-47.5c15.4-11.1,31.7-17.5,48.9-19
						c4.8-0.4,10.2-0.4,16.1,0c6,0.4,10.6,1.5,14,3.1l-5.7,39.5c9.6-0.8,16.7-1.9,21.4-3.3c2.8,3.3,5.2,7.3,7.1,12.1
						c1.9,4.8,3.1,11,3.8,18.7c1,11.5,0.5,22.3-1.5,32.4c-2,10.1-5.9,18.6-11.8,25.3s-13.8,10.6-24,11.5l-8.6,61.4
						c8.2-2,16.8-4.7,25.8-8c4.3,5.4,6.9,12.9,7.7,22.4c1.8,20.4-3.2,37.4-15,51.2c-11.8,13.7-29.5,21.6-53.1,23.7
						c-21.3,1.9-37.7-2.6-49.1-13.5s-17.9-26.2-19.7-46c-0.7-8-0.5-17.1,0.5-27.5c1-10.4,2.4-20.7,4.3-31s3.6-18.8,5.2-25.7
						c-2.3-0.4-4.5-1-6.6-1.6C662,515.6,659.9,514.9,657.9,514.1"/>
				</defs>
				<clipPath id="SVGID_236_">
					<use xlink:href="#SVGID_235_"  style="overflow:visible;"/>
				</clipPath>
				<g class="st140">
					
						<linearGradient id="SVGID_237_" gradientUnits="userSpaceOnUse" x1="181.7433" y1="-89.9464" x2="182.7433" y2="-89.9464" gradientTransform="matrix(65.6446 2.4415 -2.4415 65.6446 -11462.4121 5976.2959)">
						<stop  offset="0" style="stop-color:#F2152B"/>
						<stop  offset="1" style="stop-color:#F2152B"/>
					</linearGradient>
					<polygon class="st141" points="645.1,663 656.2,365.3 821.9,371.5 810.8,669.1 					"/>
				</g>
			</g>
		</g>
	</g>
</g>
<g>
	<g>
		<defs>
			<rect id="SVGID_238_" x="646.9" y="502.9" width="119.6" height="73.9"/>
		</defs>
		<clipPath id="SVGID_239_">
			<use xlink:href="#SVGID_238_"  style="overflow:visible;"/>
		</clipPath>
		<g class="st142">
			<g>
				<defs>
					<path id="SVGID_240_" d="M670.8,517.8c7.5,1.6,16.9,2,28,1.2c11.2-0.8,26.3-3.3,45.6-7.6c12.2,3.1,11.8,9.8-1.1,20.1
						c-12.9,10.3-40.2,24.8-81.9,43.5c0.8-9.7,2-19.3,3.7-29C666.8,536.4,668.7,527,670.8,517.8"/>
				</defs>
				<clipPath id="SVGID_241_">
					<use xlink:href="#SVGID_240_"  style="overflow:visible;"/>
				</clipPath>
				<g class="st143">
					
						<linearGradient id="SVGID_242_" gradientUnits="userSpaceOnUse" x1="175.8957" y1="-86.6912" x2="176.8957" y2="-86.6912" gradientTransform="matrix(30.2421 43.6101 -43.6101 30.2421 -8425.0098 -4554.6675)">
						<stop  offset="0" style="stop-color:#620110"/>
						<stop  offset="1" style="stop-color:#F2152B"/>
					</linearGradient>
					<polygon class="st144" points="631.5,532.1 725.6,466.9 786.3,554.4 692.2,619.6 					"/>
				</g>
			</g>
		</g>
	</g>
</g>
<g>
	<g>
		<defs>
			<rect id="SVGID_243_" x="679.9" y="512.8" width="105.1" height="70.7"/>
		</defs>
		<clipPath id="SVGID_244_">
			<use xlink:href="#SVGID_243_"  style="overflow:visible;"/>
		</clipPath>
		<g class="st145">
			<g>
				<defs>
					<path id="SVGID_245_" d="M694.2,581.7c4.1-8.1,8.8-16.8,14.1-26.3s12.8-17.6,22.7-24.4c9.8-6.8,23.3-10.1,40.3-10l-7.1,51.2
						c-5.4,1.1-12.5,2.4-21.3,3.8c-8.9,1.4-17.7,2.6-26.4,3.5C707.6,580.5,700.2,581.2,694.2,581.7"/>
				</defs>
				<clipPath id="SVGID_246_">
					<use xlink:href="#SVGID_245_"  style="overflow:visible;"/>
				</clipPath>
				<g class="st146">
					
						<linearGradient id="SVGID_247_" gradientUnits="userSpaceOnUse" x1="192.4111" y1="-80.8748" x2="193.4111" y2="-80.8748" gradientTransform="matrix(-31.1866 -38.9411 38.9411 -31.1866 9915.4609 5562.7466)">
						<stop  offset="0" style="stop-color:#620110"/>
						<stop  offset="1" style="stop-color:#F2152B"/>
					</linearGradient>
					<polygon class="st147" points="664.5,544.7 741.1,483.4 800.9,558 724.3,619.3 					"/>
				</g>
			</g>
		</g>
	</g>
</g>
<g>
	<g>
		<defs>
			<rect id="SVGID_248_" x="705" y="366.8" width="90.8" height="54.6"/>
		</defs>
		<clipPath id="SVGID_249_">
			<use xlink:href="#SVGID_248_"  style="overflow:visible;"/>
		</clipPath>
		<g class="st148">
			<g>
				<defs>
					<path id="SVGID_250_" d="M718,418.8c0.4-10.3,4-18.6,10.8-24.8c6.8-6.2,15.2-10.9,25-14s19.7-4.9,29.6-5.5l-5.7,39.5
						c-9.8,1.2-19.7,2.1-29.6,2.8C738.2,417.6,728.2,418.2,718,418.8"/>
				</defs>
				<clipPath id="SVGID_251_">
					<use xlink:href="#SVGID_250_"  style="overflow:visible;"/>
				</clipPath>
				<g class="st149">
					
						<linearGradient id="SVGID_252_" gradientUnits="userSpaceOnUse" x1="194.6458" y1="-80.8516" x2="195.6458" y2="-80.8516" gradientTransform="matrix(-23.0279 -33.1945 33.1945 -23.0279 7940.5825 5030.2588)">
						<stop  offset="0" style="stop-color:#620110"/>
						<stop  offset="1" style="stop-color:#F2152B"/>
					</linearGradient>
					<polygon class="st150" points="697.2,388.9 762.2,343.9 804.1,404.4 739.2,449.4 					"/>
				</g>
			</g>
		</g>
	</g>
</g>
<g>
	<g>
		<defs>
			<rect id="SVGID_253_" x="777.8" y="380.8" width="267.3" height="277.9"/>
		</defs>
		<clipPath id="SVGID_254_">
			<use xlink:href="#SVGID_253_"  style="overflow:visible;"/>
		</clipPath>
		<g class="st151">
			<g>
				<defs>
					<path id="SVGID_255_" d="M953.9,644.2c-9.2,0.8-17.2,0.9-23.8,0.4s-13.7-1.8-21.3-3.7c-4.9,2.7-11,5-18.4,6.9
						s-14.6,3.2-21.6,3.8c-19.1,1.7-34.4-3.2-45.8-14.5c-11.4-11.4-18.3-30.1-20.6-56.2c-2-22.9-0.8-45,3.6-66.3
						s11.2-40.4,20.3-57.4c9.1-17,19.8-30.7,32-41.1c12.2-10.4,25.2-16.2,38.9-17.4c5.4-0.5,10.6-0.4,15.4,0.1s10.4,2,16.8,4.3
						c5.2-3,11.6-5.4,19.3-7.2c7.7-1.8,14.4-3,20.2-3.5c18.5-1.6,33.9,0.2,46.2,5.6c0.6,6.4,0.2,16.1-1,29.2s-3,27.5-5.4,43.3
						c-2.3,15.8-4.7,31.1-7.1,45.9c-2.4,14.8-4.5,27-6.2,36.4c3.1-0.9,5.7-1.6,7.8-2.1c2-0.5,3.7-1,4.9-1.4c1.9,3,3.7,7,5.6,11.8
						s3.1,10.7,3.7,17.7c1.7,19.1-3.6,34.3-15.8,45.7C989.6,636,973.6,642.5,953.9,644.2"/>
				</defs>
				<clipPath id="SVGID_256_">
					<use xlink:href="#SVGID_255_"  style="overflow:visible;"/>
				</clipPath>
				<g class="st152">
					
						<linearGradient id="SVGID_257_" gradientUnits="userSpaceOnUse" x1="182.7096" y1="-80.3983" x2="183.7096" y2="-80.3983" gradientTransform="matrix(-94.1846 70.203 -70.203 -94.1846 12536.9609 -19923.7754)">
						<stop  offset="0" style="stop-color:#F2152B"/>
						<stop  offset="1" style="stop-color:#F2152B"/>
					</linearGradient>
					<polygon class="st153" points="674.7,484.7 941.1,286.1 1145,559.6 878.6,758.2 					"/>
				</g>
			</g>
		</g>
	</g>
</g>
<g>
	<g>
		<defs>
			<rect id="SVGID_258_" x="819.4" y="388.3" width="133.7" height="192.3"/>
		</defs>
		<clipPath id="SVGID_259_">
			<use xlink:href="#SVGID_258_"  style="overflow:visible;"/>
		</clipPath>
		<g class="st154">
			<g>
				<defs>
					<path id="SVGID_260_" d="M929.4,403.2c-2.8,11.8-6.8,25.4-11.8,40.8c-5.1,15.4-10.9,31.2-17.5,47.5
						c-6.6,16.3-13.5,31.6-20.8,45.9c-7.3,14.3-14.5,26.2-21.7,35.8c-4.6,6.2-8.2,6.7-11,1.4c-2.7-5.2-4.4-14-5.2-26.3
						c-0.8-12.3-0.7-26.3,0.2-41.9c0.9-15.6,2.6-31.1,5.1-46.4c2.5-15.3,5.9-28.3,10.1-38.9c1.9-4.3,5.5-8.1,10.8-11.3
						c5.3-3.2,10.6-5.7,15.7-7.6s8.3-2.9,9.6-3c7.7-0.7,14.1-0.8,19.2-0.2S923.1,400.9,929.4,403.2"/>
				</defs>
				<clipPath id="SVGID_261_">
					<use xlink:href="#SVGID_260_"  style="overflow:visible;"/>
				</clipPath>
				<g class="st155">
					
						<linearGradient id="SVGID_262_" gradientUnits="userSpaceOnUse" x1="188.3553" y1="-76.8486" x2="189.3553" y2="-76.8486" gradientTransform="matrix(-48.0964 -9.471 9.471 -48.0964 10706.7539 -1416.2877)">
						<stop  offset="0" style="stop-color:#620110"/>
						<stop  offset="1" style="stop-color:#F2152B"/>
					</linearGradient>
					<polygon class="st156" points="806.3,573.1 844,381.6 963.8,405.2 926.1,596.6 					"/>
				</g>
			</g>
		</g>
	</g>
</g>
<g>
	<g>
		<defs>
			<rect id="SVGID_263_" x="815.3" y="472.7" width="143.2" height="183.4"/>
		</defs>
		<clipPath id="SVGID_264_">
			<use xlink:href="#SVGID_263_"  style="overflow:visible;"/>
		</clipPath>
		<g class="st157">
			<g>
				<defs>
					<path id="SVGID_265_" d="M908.8,641c-4.9,2.4-9.7,4.5-14.4,6.3s-13.2,3.3-25.6,4.4c-10.2,0.9-17.8-0.2-22.7-3.3
						s-7.8-7.5-8.6-13.2c-0.4-4.8,1.1-11.1,4.6-18.9c3.5-7.8,8.1-16.8,13.8-27c5.7-10.1,11.6-20.6,17.7-31.4
						c6.6-12.1,13.4-23.8,20.3-35c6.9-11.2,13.3-20.5,19.2-27.9c5.9-7.4,10.9-12,14.9-13.6c4-1.6,6.6,0.9,7.6,7.5s0.1,18.8-2.8,36.4
						c-2.5,15.9-5.7,32.5-9.6,49.7C919.3,592.1,914.5,614.1,908.8,641"/>
				</defs>
				<clipPath id="SVGID_266_">
					<use xlink:href="#SVGID_265_"  style="overflow:visible;"/>
				</clipPath>
				<g class="st158">
					
						<linearGradient id="SVGID_267_" gradientUnits="userSpaceOnUse" x1="193.122" y1="-74.3224" x2="194.122" y2="-74.3224" gradientTransform="matrix(-30.5712 -15.3757 15.3757 -30.5712 7980.3135 1286.8423)">
						<stop  offset="0" style="stop-color:#620110"/>
						<stop  offset="1" style="stop-color:#F2152B"/>
					</linearGradient>
					<polygon class="st159" points="767.7,617.7 857.2,439.7 1006.2,514.6 916.7,692.6 					"/>
				</g>
			</g>
		</g>
	</g>
</g>
<g>
	<g>
		<defs>
			<path id="SVGID_268_" d="M945.8,562.6c0.8-5.2,3.1-11.5,6.8-18.9c3.7-7.4,8.4-14.9,14.2-22.4s12.1-14.4,18.9-20.4
				c6.8-6.1,13.7-10.4,20.5-12.9c-0.3,3.9-1.1,10-2.5,18.3c-1.4,8.3-2.8,16.9-4.3,25.6c-1.5,8.8-2.8,15.8-3.9,21
				c-1.6,0.5-5,1.2-10.4,2.3s-11.6,2.3-18.7,3.6C959.3,560.1,952.4,561.4,945.8,562.6"/>
		</defs>
		<clipPath id="SVGID_269_">
			<use xlink:href="#SVGID_268_"  style="overflow:visible;"/>
		</clipPath>
		<g class="st160">
			
				<linearGradient id="SVGID_270_" gradientUnits="userSpaceOnUse" x1="196.5212" y1="-74.6896" x2="197.5212" y2="-74.6896" gradientTransform="matrix(-23.2858 -18.1602 18.1602 -23.2858 6934.7544 2375.366)">
				<stop  offset="0" style="stop-color:#620110"/>
				<stop  offset="1" style="stop-color:#F2152B"/>
			</linearGradient>
			<polygon class="st161" points="909.6,534.3 968.6,458.6 1042.3,516.1 983.3,591.8 			"/>
		</g>
	</g>
</g>
<path class="st162" d="M798.2,790.8c0-1.1-0.5-1.9-1.3-2.6l-5.1,3.4l3.8-16.3c2.2-9-0.3-13.4-5.1-13.3c-4,0.1-9.2,2.7-13.1,13.9
	l-0.7-0.2l2.8-13.3l-12,1.2c-0.1,0.4-0.2,1.2-0.2,1.7c0.1,2.5,1.4,3.7,5.4,2.2l-3.3,25.2c-0.3,2.8,0,3.9,4.9,3.7
	c0.7-4.9,1.5-9.8,3.3-14.8c2.6-7.6,7.7-13.2,12.9-14.7c0.7,1.8,0.5,4.1-0.8,9.4l-2.7,10.9c-1.5,6,0.2,9,3.8,8.9
	C794.8,796.2,798.3,793.2,798.2,790.8 M757.5,771.1c0.2,4.7-2.9,9-12.4,11c0.9-8.2,5.9-13.9,10.3-15
	C756.8,768,757.5,769.5,757.5,771.1 M739,786.2c0.2,7.2,3.5,11.8,10.5,11.5c7-0.2,12.6-4.7,12.5-8.4c0-1-0.6-1.7-1.5-1.9
	c-2.3,2.6-6.6,5.3-10,5.4c-3.5,0.1-5.3-2.2-5.4-7.3c0-0.2,0-0.5,0-0.6c11.6-0.3,18.8-6.6,18.5-13.8c-0.2-5-3.8-7.9-8.3-7.8
	C746,763.7,738.7,775.3,739,786.2 M711.4,788.6c-0.4-10.5,4.6-18.9,9.4-19.1c1.9-0.1,4.4,0.6,6.5,1.5c-0.6,3-1.3,5.9-2.1,8
	c-2.7,6.6-7.5,12.2-12.7,14.7C711.7,792.1,711.5,790.5,711.4,788.6 M729.7,795.1l3.7-27c0.3-2.8,0.9-4.1-4.9-3.9
	c-0.2,0.8-0.4,1.9-0.5,3c-2.6-1.8-5.3-2.8-7.8-2.7c-7.6,0.3-15.1,10.7-14.7,24.4c0.2,5.9,2.5,10.3,6.6,10.1
	c5.3-0.2,10.4-6,14.2-16.5l0.8,0.2l-1.9,9.2c-3,14.5-5.8,16.7-11.1,16.9c-3.3,0.1-6.6-1.4-8.9-2.8c-1.1,0.7-1.6,1.8-1.6,2.9
	c0.1,3.1,4.9,5.6,9.7,5.4C722,814.1,728,807.8,729.7,795.1 M694.9,773.2c0.2,4.7-2.9,9-12.4,11c0.9-8.2,5.8-13.9,10.3-15
	C694.2,770.2,694.9,771.7,694.9,773.2 M676.4,788.4c0.2,7.2,3.5,11.8,10.5,11.5c7-0.2,12.6-4.7,12.5-8.4c0-1-0.6-1.7-1.5-1.9
	c-2.3,2.6-6.6,5.3-10,5.4c-3.5,0.1-5.3-2.2-5.4-7.3c0-0.3,0-0.5,0-0.6c11.6-0.3,18.8-6.6,18.5-13.8c-0.2-5-3.8-7.9-8.3-7.8
	C683.4,765.8,676.1,777.5,676.4,788.4 M647.1,790.9c-0.4-10.5,4.6-18.9,9.4-19.1c1.9-0.1,4.4,0.6,6.5,1.5c-0.6,3-1.3,5.9-2.1,8
	c-2.7,6.6-7.5,12.2-12.7,14.7C647.5,794.3,647.2,792.8,647.1,790.9 M671,792.6l-5.2,3.5l3.4-25.8c0.3-2.8,0.9-4.1-4.9-3.9
	c-0.2,0.8-0.4,1.9-0.5,3c-2.6-1.8-5.3-2.8-7.8-2.7c-7.6,0.3-15.1,10.7-14.7,24.4c0.2,5.9,2.5,10.3,6.6,10.1
	c5.3-0.2,10.4-6,14.2-16.5l0.8,0.2c-1.9,7.7-2.3,9.4-2.2,11.1c0.1,3.2,1.8,4.7,4.8,4.6c3.8-0.1,6.9-3.1,6.8-5.5
	C672.2,794.1,671.8,793.3,671,792.6 M636.5,796.5c0-1.1-0.5-1.9-1.3-2.6l-5.1,3.4l3.8-16.3c2.1-9-0.3-13.4-5.1-13.3
	c-4,0.1-9.2,2.7-13.1,13.9l-0.7-0.2c1.1-4.3,1.9-8.8,2.7-13.7l2.4-14.5l-11.9,1.2c-0.3,0.6-0.4,1.6-0.4,2.2c0.1,1.8,1.7,3.3,5.6,1.8
	l-5.7,40c-0.4,2.8,0,3.9,4.9,3.7c0.7-4.9,1.5-9.8,3.3-14.8c2.6-7.6,7.7-13.2,12.9-14.7c0.7,1.8,0.5,4.1-0.8,9.4l-2.7,10.9
	c-1.5,6,0.2,9,3.8,8.9C633,801.8,636.5,798.8,636.5,796.5 M591,788.3c2.9-8.5,7-12.9,13.4-13.2c1-1.1,1.4-2.6,1.3-3.8
	c-0.1-2.2-1.1-2.8-3-2.8c-4,0.1-8.8,4.9-11.9,13.9l-0.7-0.2l2.8-13.3l-12,1.2c-0.1,0.4-0.2,1.2-0.2,1.7c0.1,2.5,1.4,3.7,5.4,2.2
	l-3.3,25.2c-0.3,2.8,0,3.9,4.9,3.7C588.4,798.3,589.3,793.4,591,788.3 M570.8,777.6c0.2,4.7-2.9,9-12.4,11c0.9-8.2,5.8-13.9,10.3-15
	C570.1,774.5,570.7,776,570.8,777.6 M552.3,792.7c0.2,7.2,3.5,11.8,10.5,11.5c7-0.2,12.6-4.7,12.5-8.4c0-1-0.6-1.7-1.5-1.9
	c-2.3,2.6-6.6,5.3-10,5.4c-3.5,0.1-5.3-2.2-5.4-7.3c0-0.3,0-0.5,0-0.6c11.6-0.3,18.8-6.6,18.5-13.8c-0.2-5-3.8-7.9-8.3-7.8
	C559.3,770.1,551.9,781.8,552.3,792.7 M529.2,804.8l18.4-41.6l3.2-1.1c1.8-0.6,2.1-1.3,2.2-2.4c0.1-0.6,0-1.2-0.1-1.5l-12.6,0.4
	c-2.4,0.1-3.2,2.9-2.7,3.9l4.8,0.8l-13.9,32.1h-0.3l-4.8-31.5l2.8-1.1c1.8-0.7,2.1-1.3,2.2-2.4c0.1-0.6,0-1.2-0.1-1.5l-12.5,0.4
	c-2.4,0.1-3.2,2.9-2.7,3.9l4.4,0.7l6.2,40.9C525.6,805.3,527.3,805.3,529.2,804.8 M486.1,780.5c0.2,4.7-2.9,9-12.4,11
	c0.9-8.2,5.9-13.9,10.3-15C485.4,777.5,486.1,779,486.1,780.5 M467.6,795.7c0.2,7.2,3.5,11.8,10.5,11.5c7-0.2,12.6-4.7,12.5-8.4
	c0-1-0.6-1.7-1.5-1.9c-2.3,2.6-6.6,5.3-10,5.4c-3.5,0.1-5.3-2.2-5.4-7.3c0-0.3,0-0.5,0-0.6c11.6-0.3,18.8-6.6,18.5-13.8
	c-0.2-5-3.8-7.9-8.3-7.8C474.6,773.1,467.3,784.8,467.6,795.7 M445.7,796.1c-1,6.8,0.2,12.2,6.8,12c4.7-0.2,10.1-5,10-8.3
	c-0.1-1.6-1-2.1-1.6-2.4c-1.9,1.7-6,5.5-8.1,5.6c-1.5,0-2-1.9-1.5-5.7l2.9-18.5c2.6,0.3,6.4,0.7,7.7,0.7c1.9-0.1,3-2.5,3-3.4
	s-0.1-1.5-0.4-2c-0.8,0.2-6.4,0.6-9.6,0.8l0-0.4c0.6-4.1,0.8-6-2.4-5.9c-1.2,0-2.1,0.5-2.6,0.9l-0.8,5.5c-2.4,0-5.1-0.1-5.4-0.1
	c-0.4,0.3-0.7,1-0.7,1.8c0,1.3,0.8,3,2.7,2.9c0.8,0,1.8-0.2,2.7-0.3L445.7,796.1L445.7,796.1z M426.7,794.1
	c2.9-8.5,7-12.9,13.4-13.2c1-1.1,1.4-2.6,1.3-3.8c-0.1-2.2-1.1-2.8-3-2.8c-4,0.1-8.8,4.9-11.9,13.9l-0.7-0.2l2.8-13.3l-12,1.2
	c-0.1,0.4-0.2,1.2-0.2,1.7c0.1,2.5,1.4,3.7,5.4,2.2l-3.3,25.2c-0.4,2.8-0.1,3.9,4.9,3.7C424.1,804,424.9,799.1,426.7,794.1
	 M387.4,799.9c-0.4-10.5,4.6-18.9,9.4-19.1c1.9-0.1,4.4,0.6,6.5,1.5c-0.6,3-1.3,5.9-2.1,8c-2.7,6.6-7.5,12.2-12.7,14.7
	C387.7,803.3,387.5,801.8,387.4,799.9 M411.2,801.7l-5.2,3.5l3.4-25.8c0.4-2.8,0.9-4.1-4.9-3.9c-0.2,0.8-0.4,1.9-0.5,3
	c-2.6-1.8-5.3-2.8-7.8-2.7c-7.6,0.3-15.1,10.7-14.6,24.4c0.2,5.9,2.5,10.3,6.6,10.1c5.3-0.2,10.4-6,14.2-16.5l0.8,0.2
	c-1.9,7.7-2.3,9.4-2.2,11.1c0.1,3.2,1.8,4.7,4.8,4.6c3.8-0.1,6.9-3.1,6.8-5.5C412.5,803.2,412.1,802.4,411.2,801.7 M335.8,769.6
	l2.8,0.9l-7.4,36.6l-3.3,1.1c-2,0.7-2.1,1.3-2,2.6c0,0.1,0.1,1,0.2,1.3l12.5-0.4c2.7-0.1,3-2.9,2.3-3.9l-5-0.7l6.6-32.9l6.9,32.2
	c0.5,0.3,1.7,0.3,2.4-0.1l16.7-32.9l-2.9,32.6l-3.4,1.1c-2,0.7-2.1,1.3-2,2.6c0,0.1,0.1,1,0.2,1.3l13.6-0.5c2.7-0.1,3-2.9,2.3-3.9
	l-5-0.7l3.4-36.4l3.1-1.1c1.8-0.6,2.3-1.3,2.2-2.6c0-0.2-0.1-1-0.2-1.3l-12,0.4l-15.1,29.5l-6.2-28.8l-11.8,0.4
	c-0.2,0.3-0.5,1-0.5,1.5C334.1,768.3,334.2,769.1,335.8,769.6"/>
</svg>
