<?xml version="1.0" encoding="UTF-8"?>
<svg id="Layer_4" data-name="Layer 4" xmlns="http://www.w3.org/2000/svg" viewBox="0 0 900 2079.03">
  <defs>
    <style>
      .cls-1 {
        fill: #fad25a;
      }

      .cls-2 {
        fill: #f0f0e6;
      }

      .cls-3 {
        fill: #4576cc;
      }
    </style>
  </defs>
  <g>
    <rect class="cls-2" x="-.06" width="900.11" height="346.49"/>
    <g>
      <path d="m81.13,103.14l-6.99-14.75v-20.71h103.02v57.72h-25.88l-5.69-25.62h-19.93v52.54l24.85-3.88h16.05v34.42h-15.27l-25.62-3.62v32.87l10.87,15.53v21.22h-62.38v-21.22l6.99-14.75v-109.75Z"/>
      <path d="m256.88,251.45c-10.09,0-20.97-3.88-22-18.38-9.84,15.53-20.45,18.38-29.77,18.38-17.6,0-27.7-11.65-27.7-30.8,0-22.52,14.5-42.97,55.65-59.79v-13.46c0-8.02-3.36-10.87-10.87-10.87-2.59,0-5.44.26-8.28,1.04l-5.44,24.33h-25.88v-45.81c13.46-5.69,29.51-9.58,46.33-9.58,32.87,0,46.59,9.58,46.59,41.16v59.27c0,9.06,1.29,11.39,6.73,11.39v28.99c-6.47,2.85-14.75,4.14-25.37,4.14Zm-30.02-32.61c1.81,0,3.88,0,7.25-1.29v-33.13c-13.2,9.06-16.57,16.57-16.57,24.07,0,6.99,3.36,10.35,9.32,10.35Z"/>
      <path d="m361.96,248.86h-47.11l-26.92-104.05-7.77-14.24v-21.48h53.06v21.48l-4.4,12.94,2.59,18.64c2.59,17.6,6.21,34.43,9.84,52.03l13.46-70.66-4.92-12.94v-21.48h47.11v21.48l-7.76,14.24-27.18,104.05Z"/>
      <path d="m454.36,106.5c38.57,0,50.73,22.52,50.73,72.21,0,59.01-21.22,72.73-52.54,72.73-35.98,0-53.32-13.98-53.32-71.96,0-46.59,11.39-72.99,55.13-72.99Zm-2.33,32.35c-8.54,0-10.35,4.4-10.35,40.12s1.81,40.12,10.87,40.12c8.28,0,9.84-5.18,10.09-40.12.26-36.75-2.59-40.12-10.61-40.12Z"/>
      <path d="m519.85,147.91l-5.69-10.09v-21.22l26.92-11.65,12.42,5.69v16.82h1.29c3.36-14.75,14.49-20.71,24.07-20.71,3.36,0,7.51,1.04,10.35,2.33l-6.99,50.21c-5.95-1.04-11.13-2.33-20.97-3.37v59.01l9.32,13.2v20.71h-55.91v-20.97l5.18-11.39v-68.59Z"/>
      <path d="m598.53,149.21l-5.69-11.39v-21.22l28.73-11.65,18.9,5.69v105.86l5.18,11.39v20.97h-52.28v-20.97l5.18-11.39v-67.3Zm19.93-92.4c14.75,0,22,7.51,22,21.74s-7.25,21.74-22,21.74-22-7.51-22-21.74,7.77-21.74,22-21.74Z"/>
      <path d="m659.1,140.15h-8.8v-31.06h11.91l11.39-28.47h26.4v28.47h16.82v31.06h-15.79v61.86c0,8.54,2.33,11.65,8.8,11.65,2.85,0,4.66-.26,6.99-.52v34.17c-6.21,2.59-15.27,4.14-26.14,4.14-20.19,0-31.58-7.25-31.58-37.79v-73.51Z"/>
      <path d="m724.32,181.56c0-57.46,20.19-75.06,53.06-75.06s45.3,19.41,45.3,58.76c0,10.09-.78,23.55-1.29,30.02h-54.1v1.29c0,16.31,8.8,19.93,23.29,19.93,9.58,0,16.31-.78,27.7-2.59v32.35c-11.13,3.36-20.97,5.18-37.79,5.18-32.1,0-56.17-12.42-56.17-69.88Zm51.51-43.74c-8.8,0-10.35,6.47-11.13,29.25h21.48c0-17.08-1.55-29.25-10.35-29.25Z"/>
    </g>
  </g>
  <g>
    <rect x="-.06" y="346.56" width="900.11" height="346.49"/>
    <g>
      <path class="cls-2" d="m145.2,494.74c0-10.35-4.66-13.2-12.42-13.2-4.92,0-9.84,1.04-13.72,3.11v110.78h-41.93v-76.87c-1.29.26-2.59.26-3.88.26-11.39,0-17.08-7.76-17.08-25.62v-17.6c0-17.6,6.99-30.02,32.1-30.02,13.72,0,26.92,3.11,29.25,26.14,8.28-14.24,25.11-25.11,40.64-25.11,18.12,0,28.99,9.84,28.99,35.2v99.65l-6.99,13.98h-34.94v-100.69Zm-59.79,5.95v-16.82c0-17.6,0-18.9-4.92-18.9-4.66,0-4.92,1.29-4.92,15.01v8.28c0,11.65,1.04,12.42,4.92,12.42h4.92Z"/>
      <path class="cls-2" d="m240.71,597.49c-20.97,0-29.25-5.95-29.25-28.21v-11.39c0-17.86,3.88-27.44,17.08-29.51v-6.21c0-10.87-6.47-16.31-31.06-23.04.78-22,7.76-53.06,38.05-53.06,16.31,0,29.51,2.59,40.12,5.44v28.21c-10.61-1.29-21.48-2.59-33.91-2.59-4.66,0-6.47,1.04-6.73,4.92,25.11,6.73,35.46,16.57,35.46,37.79v49.7c0,22.26-12.42,27.95-29.77,27.95Zm-.26-53.58h-4.92c-4.4,0-4.92,1.04-4.92,15.53v4.66c0,13.98.52,15.53,5.18,15.53,4.14,0,4.66-1.55,4.66-19.15v-16.57Z"/>
      <path class="cls-2" d="m238.63,437.53c-30.54,0-40.12-11.13-40.12-31.06,0-13.2,6.73-23.81,23.3-23.81,15.53,0,19.93,8.02,19.93,20.45,0,2.85-.26,5.44-.78,7.51h.26c12.94,0,31.58-2.07,47.88-5.95v24.33c-14.49,6.21-33.39,8.54-50.47,8.54Zm-16.05-41.93c-3.11,0-4.14,2.07-4.14,10.09,0,7.51.78,10.09,8.02,10.09h.52v-10.61c0-7.77-.52-9.58-4.4-9.58Z"/>
      <path class="cls-2" d="m363.39,527.87l-14.24,67.56h-42.71v-77.13c-2.33.52-4.4.52-6.99.52-12.94,0-19.67-7.76-19.67-25.62v-17.6c0-17.6,6.99-30.02,32.1-30.02,15.79,0,30.8,3.36,30.8,30.8v18.12c0,22.52-1.81,45.3-3.11,63.16,2.07-9.32,4.14-18.38,6.21-27.44l10.61-47.11h14.24l10.61,47.11c2.07,9.32,4.14,18.64,6.21,27.95-1.04-17.6-3.11-40.12-3.11-63.67v-33.91l7.25-13.98h30.02v148.83h-43.48l-14.75-67.56Zm-54.36-27.18v-16.82c0-17.6,0-18.9-4.92-18.9-4.66,0-4.92,1.29-4.92,15.01v8.28c0,11.65,1.04,12.42,4.92,12.42h4.92Z"/>
      <path class="cls-2" d="m460.71,545.99c-11.13-3.37-18.9-11.65-18.9-33.39v-30.02c0-29.51,11.91-37.01,34.68-37.01s28.21,7.76,28.21,29.77v20.45c0,16.05-6.73,25.11-20.97,25.11-2.33,0-4.4-.26-6.21-.78.52,7.51,6.21,9.06,18.12,9.06h6.73v24.07h-8.54c-5.69,0-8.54,3.37-8.54,8.8v4.4h20.45c6.47,0,10.61-2.33,10.61-10.87v-94.99l7.25-13.98h34.68v107.68c0,22-7.25,41.15-32.87,41.15h-80.5v-22.78c0-16.82,5.18-24.33,15.79-26.66Zm14.75-62.12v19.41h4.92c3.88,0,4.92-1.29,4.92-9.83v-14.75c0-12.94-1.04-13.72-4.92-13.72-4.92,0-4.92,1.29-4.92,18.9Z"/>
      <path class="cls-2" d="m545.09,384.73c6.99,0,16.82.52,25.11,1.81v17.34c-8.02.26-14.5.52-20.97.78,4.14,2.85,6.21,7.51,6.21,13.2,0,12.94-7.77,18.38-22.26,18.38-16.31,0-24.07-6.73-24.07-22.26,0-18.12,9.84-29.25,35.98-29.25Zm-12.42,20.45h-3.88v9.58c0,8.8,1.29,10.35,4.66,10.35,3.62,0,4.66-1.55,4.66-10.61,0-6.99-1.81-9.32-5.44-9.32Z"/>
      <path class="cls-2" d="m577.96,523.98c0-26.4,15.53-36.24,32.35-36.24,12.42,0,25.88,4.66,34.43,15.53v-2.07c0-17.86-7.25-25.11-28.99-25.11-11.39,0-21.74,1.04-36.5,2.59v-24.59c15.53-5.69,32.61-10.09,53.84-10.09,11.39,0,22.26,2.85,28.73,6.99l14.24-14.75,19.93,29.51-17.34,8.02c5.44,6.21,8.02,15.27,8.02,31.06v76.61l-6.99,13.98h-34.94v-77.65c-2.59-1.04-9.84-2.59-14.75-2.59-8.8,0-13.2,3.62-13.2,12.17,8.8.26,16.05,4.4,16.05,18.89v26.4c0,21.74-9.32,24.85-26.66,24.85-19.41,0-28.21-6.21-28.21-29.25v-44.26Zm32.1,55.65c4.14,0,4.66-1.29,4.66-11.13v-16.57c0-6.99-2.33-8.02-5.69-8.02h-4.14v20.71c0,13.72.52,15.01,5.18,15.01Z"/>
      <path class="cls-2" d="m584.43,434.43v-6.47c0-16.82,10.09-31.84,36.24-31.84,23.3,0,48.92,10.87,66.26,28.21l-2.85,10.09h-23.55c-9.58-7.51-20.45-12.17-30.02-12.17-10.61,0-12.42,4.66-12.42,10.61v1.55h-33.65Z"/>
      <path class="cls-2" d="m810.13,597.23c-22.52,0-28.21-7.76-28.73-25.88-7.51,6.47-14.24,14.49-19.41,24.07h-41.93v-76.87c-1.29.26-2.59.26-3.88.26-11.39,0-17.08-7.76-17.08-25.62v-17.6c0-17.6,6.99-30.02,32.1-30.02,15.79,0,30.8,3.36,30.8,30.8v80.24c5.44-6.21,12.94-12.17,20.71-17.08v-78.94l7.25-13.98h34.68v77.39c11.39,1.04,15.53,7.51,15.53,25.11v23.55c0,16.82-8.28,24.59-30.02,24.59Zm-81.79-96.54v-16.82c0-17.6,0-18.9-4.92-18.9-4.66,0-4.92,1.29-4.92,15.01v8.28c0,11.65,1.04,12.42,4.92,12.42h4.92Zm92.4,54.1c0-9.58-1.04-12.68-4.92-12.68-2.07,0-3.62.78-4.92,2.07v18.12c0,13.72.78,15.53,4.92,15.53,3.88,0,4.92-1.29,4.92-12.68v-10.35Z"/>
    </g>
  </g>
  <g>
    <rect class="cls-3" x=".06" y="693.06" width="899.88" height="346.49"/>
    <g>
      <path class="cls-2" d="m131.12,761.19c10.87,0,24.59,2.33,35.2,6.73l.26,49.96h-16.05l-5.44-37.79c-4.4-.78-8.8-1.29-12.94-1.29-27.95,0-40.9,9.58-40.9,75.32s10.35,73.77,31.32,73.77c7.51,0,16.31-1.81,24.07-5.95v-53.32l-18.38-7.51v-11.65h38.83v94.22h-13.98l-4.14-12.17c-8.8,9.32-21.22,14.49-33.91,14.49-28.99,0-46.59-12.42-46.59-90.85,0-72.99,18.38-93.96,62.64-93.96Z"/>
      <path class="cls-2" d="m237.76,804.94c34.43,0,46.59,21.48,46.59,70.14s-13.98,70.4-48.4,70.4-46.33-21.74-46.33-70.66,13.72-69.89,48.14-69.89Zm-.78,15.53c-16.05,0-25.37,6.73-25.37,54.61s9.32,54.87,25.37,54.87,25.37-6.73,25.37-55.13-9.32-54.36-25.37-54.36Z"/>
      <path class="cls-2" d="m303.24,822.8v-11.13l17.34-6.47,10.87,3.62v97.84c0,18.38,7.51,22.78,18.9,22.78,7.51,0,16.31-2.59,24.07-7.51v-92.66l-6.73-6.47v-11.13l17.34-6.47,10.87,3.62v111.04c0,6.73,2.07,8.8,9.06,8.02v15.01c-3.88,1.29-8.54,2.33-13.2,2.33-8.02,0-15.53-2.33-17.08-14.49-12.17,12.17-23.81,14.75-33.13,14.75-17.34,0-31.58-7.51-31.58-35.98v-80.24l-6.73-6.47Z"/>
      <path class="cls-2" d="m430.33,829.27l-6.73-6.47v-11.13l18.38-6.47,8.28,3.62v13.46h.52c5.69-10.09,13.46-16.57,22.52-16.57,3.36,0,7.51.52,9.58,1.29l-2.33,22.26c-9.84-.26-18.64,0-28.99,3.37v91.89l7.25,7.76v11.13h-34.17v-11.13l5.69-7.76v-95.25Z"/>
      <path class="cls-2" d="m630.67,842.47c0-16.05-7.77-21.22-17.6-21.22-8.8,0-16.57,3.62-25.11,9.58.26,2.59.52,5.69.52,8.8v84.9l5.44,7.76v11.13h-32.35v-11.13l5.44-7.76v-82.05c0-15.01-5.95-21.22-18.12-21.22-8.28,0-17.08,3.36-24.85,8.02v95.25l5.44,7.76v11.13h-32.61v-11.13l5.69-7.76v-95.25l-6.73-6.47v-11.13l17.34-6.47,10.87,3.62v10.61c10.09-7.77,22-14.24,35.46-14.24,11.91,0,21.74,4.92,26.4,17.34,9.84-9.84,23.81-17.34,38.05-17.34,16.82,0,28.21,8.8,28.21,34.42v84.9l5.69,7.76v11.13h-32.61v-11.13l5.44-7.76v-82.05Z"/>
      <path class="cls-2" d="m677.25,877.15c0-53.32,14.75-72.21,46.59-72.21s40.9,23.55,40.9,57.72c0,7.51-.52,16.57-.78,21.48h-64.71v1.29c0,34.17,11.65,42.97,32.1,42.97,9.06,0,16.05-.78,28.99-2.59v16.05c-10.35,2.59-20.45,3.62-31.58,3.62-32.87,0-51.51-13.98-51.51-68.33Zm46.07-56.68c-18.64,0-25.11,13.98-24.85,48.14h47.63c.52-32.87-3.36-48.14-22.78-48.14Z"/>
      <path class="cls-2" d="m793.21,823.06h-18.12v-15.53h18.9l5.18-26.14h15.01v26.14h23.55v15.53h-23.3v89.3c0,11.65,3.62,15.53,12.17,15.53,4.66,0,8.02-.26,12.94-1.04v15.79c-5.69,1.81-12.17,2.85-19.67,2.85-17.6,0-26.66-7.76-26.66-29.51v-92.92Z"/>
    </g>
  </g>
  <g>
    <rect class="cls-2" x="-.03" y="1039.55" width="900.05" height="346.49"/>
    <g>
      <path class="cls-3" d="m99.16,1159.46c-20.19,0-31.06,8.8-31.06,32.61v14.24c.26,13.98-3.11,37.27-5.69,54.87,1.81-7.25,3.88-15.01,5.18-18.64l9.32-27.95c5.95-17.86,11.13-26.66,26.14-26.66,10.09,0,18.12,5.18,18.12,18.64v17.34c0,16.82-8.54,21.48-19.41,21.48-8.28,0-14.24-3.62-16.31-12.94l-18.89,57.46h-18.64v-99.91c0-31.84,18.64-46.59,51.51-46.59s49.7,14.75,49.7,47.11v92.4l-4.4,7.25h-16.05v-97.58c0-24.85-9.84-33.13-29.51-33.13Zm1.04,74.8c3.36,0,6.21-2.07,6.21-7.51v-20.19c0-4.66-1.55-6.99-5.44-6.99s-5.69,2.33-6.99,6.21v20.97c0,5.95,2.59,7.51,6.21,7.51Z"/>
      <path class="cls-3" d="m149.11,1344.01h-14.75v-12.68c-2.33,1.81-5.44,2.85-8.28,2.85-7.51,0-14.75-2.59-14.75-16.82s6.99-19.41,19.41-19.41c11.65,0,18.38,4.4,18.38,19.67v26.4Zm-15.01-18.38v-13.46c0-3.11-.78-5.18-4.4-5.18-4.4,0-5.69,2.33-5.69,9.58s1.55,9.06,5.95,9.06h4.14Z"/>
      <path class="cls-3" d="m228.05,1159.46c-11.39,0-23.81,3.37-33.91,8.8l10.09,15.53v50.99c3.36-1.55,6.99-2.59,11.13-2.59,7.25,0,17.34,3.36,17.34,20.45v13.98c0,19.15-9.32,24.85-24.59,24.85-13.98,0-25.11-5.18-25.11-26.66v-77.39l-8.54-13.2v-10.35c11.65-10.35,32.61-20.45,54.87-20.45,25.37,0,42.71,9.58,42.71,39.86v81.53c7.77-11.65,20.71-22.78,32.87-28.47v-83.34l4.66-7.25h16.57v86.45c8.28.78,13.46,5.44,13.46,18.38v19.93c0,14.75-7.77,20.97-21.74,20.97-15.27,0-22.26-5.18-22.26-21.22v-11.65c-9.06,7.77-16.82,18.64-23.3,31.32h-20.19v-104.57c0-20.45-9.32-25.88-24.07-25.88Zm-18.64,119.32c4.4,0,6.21-2.07,6.21-9.32v-17.08c0-8.28-2.33-9.58-8.28-9.58h-4.14v26.66c0,7.25,1.81,9.32,6.21,9.32Zm114.15-26.14c0-5.95-1.81-9.06-5.95-9.06-2.85,0-4.92,1.04-6.47,2.33v24.33c0,6.99,2.59,8.54,6.21,8.54,3.88,0,6.21-1.29,6.21-8.54v-17.6Z"/>
      <path class="cls-3" d="m359.54,1222.87c0-28.73,16.31-35.2,31.32-35.2,12.68,0,26.14,5.44,35.2,13.72v-10.87c0-24.33-10.35-31.06-30.02-31.06-13.98,0-27.95,3.11-39.34,6.73v-15.27c13.46-4.92,28.47-7.51,45.04-7.51,10.09,0,20.97,2.59,27.18,6.73l18.12-12.94,9.84,15.79-18.38,8.8c6.73,7.25,9.06,17.08,9.06,31.06v90.08l-4.4,7.25h-17.08v-76.87c-6.99-6.21-20.45-9.58-30.54-9.58-12.42,0-16.05,7.25-16.05,19.15v11.91c3.36-1.55,7.25-2.59,11.39-2.59,7.25,0,17.34,3.36,17.34,20.45v13.2c0,19.15-8.8,25.62-24.07,25.62s-24.59-4.92-24.59-26.66v-41.93Zm25.37,55.91c4.4,0,6.21-2.07,6.21-9.32v-17.08c0-8.28-2.33-9.58-8.28-9.58h-4.14v26.66c0,7.25,1.81,9.32,6.21,9.32Z"/>
      <path class="cls-3" d="m477.31,1254.45c0-17.6,10.09-22.26,20.45-22.26,2.07,0,3.88.26,5.69.52v-31.32c-3.36,1.55-6.99,2.59-11.13,2.59-7.25,0-17.34-3.11-17.34-20.45v-13.98c0-19.41,11.65-24.85,26.4-24.85,12.68,0,23.04,5.69,23.04,22v72.73c10.35,5.44,25.37,17.08,36.24,28.21v-114.66l4.66-7.25h16.82v144.17h-20.45c-11.39-13.46-25.11-26.14-37.27-34.42v9.32c0,21.48-11.91,26.66-24.85,26.66s-22.26-5.18-22.26-22v-15.01Zm27.18-61.08v-25.88c0-7.77-1.55-10.09-5.95-10.09s-6.47,2.07-6.47,9.32v17.08c0,8.28,2.33,9.58,8.28,9.58h4.14Zm1.55,49.44h-4.4c-5.44,0-7.25,1.29-7.25,9.58v17.08c0,7.25,1.55,9.32,5.95,9.32,3.88,0,5.69-2.07,5.69-9.32v-26.66Z"/>
      <path class="cls-3" d="m651.24,1166.7v107.16h27.7c11.13,0,15.53-2.85,15.53-15.53v-105.35l4.66-7.25h16.82v111.3c0,20.45-5.95,32.87-26.92,32.87h-67.81v-11.65l8.8-9.06v-67.81c-3.36,1.55-6.99,2.59-11.13,2.59-7.25,0-17.08-3.36-17.34-20.45v-13.98c0-19.41,11.65-24.85,26.4-24.85,12.94,0,23.29,5.69,23.29,22Zm-20.19,26.66v-25.88c0-7.77-1.55-10.09-5.95-10.09s-6.47,2.07-6.47,9.32v17.08c0,8.28,2.33,9.58,8.28,9.58h4.14Z"/>
      <path class="cls-3" d="m689.03,1133.31c-22.78,0-33.39-9.58-33.39-26.92,0-11.39,5.69-20.97,20.71-20.97,13.72,0,19.15,7.51,19.15,19.15,0,5.18-1.81,10.35-4.92,14.5,12.68-.26,30.28-3.37,45.04-9.84v13.2c-14.24,7.25-29.25,10.87-46.59,10.87Zm-12.42-37.79c-4.66,0-6.21,3.62-6.21,9.84,0,9.32,4.92,15.79,11.39,15.79h.52v-15.27c0-7.25-.78-10.35-5.69-10.35Z"/>
      <path class="cls-3" d="m767.71,1270.76l15.01-16.57c5.95-6.47,10.61-9.84,18.12-13.98-2.33.78-4.66,1.29-6.73,1.29-7.77,0-14.24-3.62-14.24-18.89v-14.24c0-16.05,7.51-22.26,21.22-22.26,12.68,0,19.41,6.21,19.41,23.81v13.98c0,17.6-16.05,29.77-24.85,38.83l-26.14,27.18h-19.67v-106.12c0-23.81,8.54-37.79,28.73-40.38l22.52,12.68,22.26-12.68c19.15,2.33,27.95,15.01,27.95,40.38v99.13l-4.66,7.25h-15.79v-105.6c0-16.82-3.36-20.45-10.09-23.29l-20.19,11.39-20.45-11.39c-6.73,2.85-10.35,6.99-10.35,23.29v53.84c0,7.76-.52,20.45-2.07,32.35Zm37.79-38.31v-26.4c0-5.69-1.04-8.28-5.44-8.28-4.92,0-5.95,2.59-5.95,8.28v18.64c0,5.95,1.55,7.77,4.92,7.77h6.47Z"/>
      <path class="cls-3" d="m759.69,1131.76v-4.4c0-16.05,8.54-30.28,30.28-30.28s43.48,10.35,60.05,30.28l-1.81,4.4h-17.86c-10.61-12.42-24.85-19.41-38.05-19.41-11.39,0-15.01,7.76-15.01,16.31v3.11h-17.6Z"/>
    </g>
  </g>
  <g>
    <rect class="cls-1" x=".06" y="1386.05" width="899.88" height="346.49"/>
    <g>
      <path d="m108.29,1463.15v-5.18h51.25c38.05,0,51.25,19.93,51.25,88.52s-13.72,90.07-54.1,90.07h-48.4v-5.18l6.99-5.95v-156.34l-6.99-5.95Zm46.85,1.55h-31.58v165.14h28.73c38.83,0,49.7-17.08,49.7-83.34s-10.61-81.79-46.85-81.79Z"/>
      <path d="m249.62,1513.62l-7.51-3.88v-4.66l9.84-3.11,5.44,2.33v122.17l5.95,5.44v4.66h-19.67v-4.66l5.95-5.44v-112.85Zm3.11-55.13c5.95,0,8.02,4.14,8.02,10.35,0,6.99-2.59,10.35-8.02,10.35s-8.02-3.36-8.02-10.35c0-6.21,2.07-10.35,8.02-10.35Z"/>
      <path d="m332.44,1636.57h-9.32l-34.43-123.21-6.99-5.44v-4.66h21.22v4.66l-5.95,5.44,17.34,66.26c4.14,15.01,8.28,30.28,13.72,50.47l32.61-116.73-5.95-5.44v-4.66h19.93v4.66l-7.25,5.44-34.94,123.21Z"/>
      <path d="m401.55,1513.62l-7.51-3.88v-4.66l9.84-3.11,5.44,2.33v122.17l5.95,5.44v4.66h-19.67v-4.66l5.95-5.44v-112.85Zm3.11-55.13c5.95,0,8.02,4.14,8.02,10.35,0,6.99-2.59,10.35-8.02,10.35s-8.02-3.36-8.02-10.35c0-6.21,2.07-10.35,8.02-10.35Z"/>
      <path d="m470.91,1638.12c-10.35,0-19.93-2.33-28.73-5.69v-34.68h6.21l3.36,31.58c7.25,1.55,11.39,2.59,19.93,2.59,16.82,0,29.51-4.92,29.51-26.4s-15.79-26.92-30.8-37.27c-14.24-10.09-26.66-17.86-26.66-37.01,0-15.27,8.8-30.54,32.61-30.54,9.32,0,18.9,1.55,29.25,4.4v37.01h-6.21l-2.85-32.35c-6.47-1.81-11.91-2.85-20.19-2.85-16.05,0-24.85,10.35-24.85,23.81,0,16.82,11.65,23.29,25.11,32.61,14.5,9.84,32.35,18.12,32.35,41.15s-11.13,33.65-38.05,33.65Z"/>
      <path d="m542.09,1513.62l-7.51-3.88v-4.66l9.84-3.11,5.44,2.33v122.17l5.95,5.44v4.66h-19.67v-4.66l5.95-5.44v-112.85Zm3.11-55.13c5.95,0,8.02,4.14,8.02,10.35,0,6.99-2.59,10.35-8.02,10.35s-8.02-3.36-8.02-10.35c0-6.21,2.07-10.35,8.02-10.35Z"/>
      <path d="m628.28,1500.68c27.95,0,43.23,13.46,43.23,68.59s-15.53,68.85-43.23,68.85-43.48-13.2-43.48-68.85,16.57-68.59,43.48-68.59Zm0,6.21c-19.15,0-35.46,8.28-35.46,62.38s14.49,62.64,34.94,62.64,35.46-8.28,35.46-62.38-15.01-62.64-34.94-62.64Z"/>
      <path d="m776.59,1532.52c0-18.64-10.61-24.85-25.37-24.85-11.65,0-24.33,4.4-35.98,12.17v106.64l5.95,5.44v4.66h-19.67v-4.66l5.95-5.44v-112.85l-7.51-3.88v-4.66l9.84-3.11,5.44,2.33v10.87c9.06-6.73,22.78-13.72,38.83-13.72s30.28,7.51,30.28,30.28v94.73l5.95,5.44v4.66h-19.67v-4.66l5.95-5.44v-93.96Z"/>
    </g>
  </g>
  <g>
    <rect x=".12" y="1732.54" width="899.88" height="346.49"/>
    <g>
      <path class="cls-1" d="m87.26,1844.84l2.85-2.85h4.92v91.37c2.07-1.04,5.18-2.33,8.54-2.33,9.58,0,16.05,4.66,16.05,21.48v8.28c0,16.82-4.4,23.29-16.57,23.29-11.13,0-15.79-6.21-15.79-21.22v-118.03Zm16.57,133.56c5.69,0,8.54-3.36,8.54-13.2v-14.5c0-10.09-3.11-14.49-10.87-14.49h-6.47v28.99c0,10.09,3.11,13.2,8.8,13.2Z"/>
      <path class="cls-1" d="m196.49,1891.69c-2.07,1.04-5.18,2.33-8.54,2.33-9.58,0-16.05-4.66-16.05-21.48v-8.28c0-16.82,5.44-23.29,17.08-23.29,10.87,0,15.27,6.21,15.27,21.22v93.44c0,19.67-4.66,27.44-23.81,27.44h-17.6l-31.84-129.16,7.25-1.81,31.06,124.5h8.28c14.24,0,18.9-3.11,18.9-18.38v-66.52Zm0-2.85v-28.99c0-10.09-2.33-13.2-8.02-13.2-6.47,0-9.32,3.37-9.32,13.2v14.49c0,10.09,3.11,14.5,10.87,14.5h6.47Z"/>
      <path class="cls-1" d="m121.94,1826.72v-2.85c0-15.53,8.28-29.51,28.73-29.51,17.08,0,37.01,11.13,53.58,29.25v3.11h-5.95c-15.53-16.82-33.91-26.14-48.14-26.14-15.79,0-21.48,11.39-21.48,24.33v1.81h-6.73Z"/>
      <path class="cls-1" d="m257.31,1891.69c-2.07,1.04-5.18,2.33-8.54,2.33-9.58,0-16.05-4.66-16.05-21.48v-8.28c0-16.82,5.44-23.29,17.08-23.29,10.87,0,15.27,6.21,15.27,21.22v111.3c10.87-16.05,31.84-37.01,45.04-41.93.78-.26,2.07-.52,3.88-.78v-85.93l2.85-2.85h4.92v88.52c7.77.78,12.17,6.47,12.17,16.57v16.83c0,14.75-6.73,20.19-15.79,20.19s-15.79-4.14-15.79-18.89v-23.55c-11.39,8.8-28.21,26.4-37.53,41.41h-7.51v-91.37Zm0-2.85v-28.99c0-10.09-2.33-13.2-8.02-13.2-6.47,0-9.32,3.37-9.32,13.2v14.49c0,10.09,3.11,14.5,10.87,14.5h6.47Zm69.37,59.01c0-7.25-2.33-11.91-8.28-11.91-3.88,0-7.25,1.29-9.06,2.59v28.47c0,8.8,4.4,11.13,8.8,11.13s8.54-2.33,8.54-11.13v-19.15Z"/>
      <path class="cls-1" d="m380.25,1891.69c-2.07,1.04-5.18,2.33-8.54,2.33-9.58,0-16.05-4.66-16.05-21.48v-8.28c0-16.82,5.44-23.29,17.08-23.29,10.87,0,15.27,6.21,15.27,21.22v114.15h37.53c14.24,0,18.64-3.11,18.64-18.38v-164.88l2.85-2.85h4.92v165.4c0,19.67-4.92,27.44-24.07,27.44h-55.39v-5.18l7.77-5.44v-80.76Zm0-2.85v-28.99c0-10.09-2.33-13.2-8.02-13.2-6.47,0-9.32,3.37-9.32,13.2v14.49c0,10.09,3.11,14.5,10.87,14.5h6.47Z"/>
      <path class="cls-1" d="m391.38,1827.5c-21.74,0-27.95-8.8-27.95-24.85,0-10.61,3.11-19.93,15.53-19.93,11.13,0,13.98,6.47,13.98,20.97,0,9.58-1.29,15.53-3.62,17.86,15.53,0,29.25-3.62,43.48-11.91v5.95c-13.46,8.54-27.18,11.91-41.41,11.91Zm-12.42-38.83c-6.21,0-8.54,4.4-8.54,15.01s4.92,17.86,15.27,17.86h.52v-17.08c0-11.65-.78-15.79-7.25-15.79Z"/>
      <path class="cls-1" d="m505.01,1891.69c-2.07,1.04-5.18,2.33-8.54,2.33-9.58,0-16.05-4.66-16.05-21.48v-8.28c0-16.82,5.44-23.29,17.08-23.29,10.87,0,15.27,6.21,15.27,21.22v111.3c10.87-16.05,31.84-37.01,45.04-41.93.78-.26,2.07-.52,3.88-.78v-85.93l2.85-2.85h4.92v88.52c7.76.78,12.17,6.47,12.17,16.57v16.83c0,14.75-6.73,20.19-15.79,20.19s-15.79-4.14-15.79-18.89v-23.55c-11.39,8.8-28.21,26.4-37.53,41.41h-7.51v-91.37Zm0-2.85v-28.99c0-10.09-2.33-13.2-8.02-13.2-6.47,0-9.32,3.37-9.32,13.2v14.49c0,10.09,3.11,14.5,10.87,14.5h6.47Zm69.37,59.01c0-7.25-2.33-11.91-8.28-11.91-3.88,0-7.25,1.29-9.06,2.59v28.47c0,8.8,4.4,11.13,8.8,11.13s8.54-2.33,8.54-11.13v-19.15Z"/>
      <path class="cls-1" d="m660.05,1923.79l-33.65,59.27h-7.77v-120.62c0-15.01,5.44-21.48,17.34-21.48,10.61,0,15.01,6.47,15.01,23.29v8.28c0,16.82-6.47,21.48-16.05,21.48-3.36,0-6.47-1.29-8.54-2.33v33.65c0,13.46-.26,32.61-1.55,48.66,2.85-5.44,5.95-11.13,9.06-16.82l23.55-41.41h5.18l22.52,40.12c3.62,6.47,6.99,12.68,10.09,18.89-1.29-16.05-1.81-35.2-1.81-49.18v-80.5l2.85-3.11h4.92v141.07h-7.77l-33.39-59.27Zm-33.65-63.93v28.99h6.47c7.77,0,10.87-4.4,10.87-14.5v-14.49c0-9.84-2.33-13.2-8.02-13.2-6.47,0-9.32,3.11-9.32,13.2Z"/>
      <path class="cls-1" d="m767.46,1890.4c-17.6,0-23.29,12.17-23.29,27.95v15.27c2.07-1.29,5.44-2.59,8.8-2.59,9.58,0,16.05,4.66,16.05,21.48v8.28c0,16.82-4.4,23.29-16.57,23.29-11.13,0-15.79-6.21-15.79-21.22v-44c0-28.73,16.82-34.42,30.8-34.42s26.92,6.21,35.72,12.68v-13.46c0-28.73-10.61-37.53-31.84-37.53-12.68,0-26.14,3.88-37.01,9.06v-6.47c12.17-5.44,23.55-8.8,39.08-8.8,24.85,0,37.53,12.68,37.53,41.67v99.13l-2.85,2.85h-4.92v-80.5c-9.84-6.99-22.78-12.68-35.72-12.68Zm-14.24,88c5.69,0,8.54-3.36,8.54-13.2v-14.5c0-10.09-3.11-14.49-10.87-14.49h-6.73v28.99c0,10.09,3.11,13.2,9.06,13.2Z"/>
    </g>
  </g>
</svg>