<?xml version="1.0" encoding="UTF-8"?>
<svg xmlns="http://www.w3.org/2000/svg" xmlns:xlink="http://www.w3.org/1999/xlink" viewBox="0 0 1980 1143.58">
  <defs>
    <style>
      .cls-1 {
        fill: none;
      }

      .cls-2 {
        clip-path: url(#clippath);
      }

      .cls-3 {
        fill: #fad25a;
      }

      .cls-4 {
        fill: #f0f0e6;
      }

      .cls-5 {
        fill: #f04931;
      }

      .cls-6 {
        fill: #4576cc;
      }
    </style>
    <clipPath id="clippath">
      <rect class="cls-1" x="0" y="-1356.3" width="1980" height="1200"/>
    </clipPath>
  </defs>
  <g id="Layer_1" data-name="Layer 1">
    <g class="cls-2">
      <path class="cls-5" d="m2430.98-192.4c-.28.19-.55.39-.94.66h-1.74c-.12-.12-.24-.24-.49-.49v-1.94c.42-.33.9-.39,1.41-.35v-.83c-.78-.67-1.4-1.23-2.06-1.74-.2-.15-.5-.17-.76-.25h-2.82v-2.84c-.9.1-1.73-.2-2.46.38-.56.14-.76.51-.7,1.06h-1.76c-.12-.12-.23-.23-.35-.35-.67-.08-.18-.67-.51-1.06h-3.71c-.23-.47-.47-.94-.7-1.41h-.7c-.64.04-1.1-.35-1.57-.7-.31-.23-.59-.47-.89-.71-.6-.54-1.23-1.05-1.78-1.63-.5-.52-1.07-.92-1.74-1.19-.63.14-.87-.39-1.23-.7s-.61-.85-1.23-.7c-.31-.82-.61-1.64-1.76-1.41h-3.87v-.35c-.35-.35-.7-.7-1.06-1.06-.71.05-1.43-.11-2.11.1v1.31h-.7c-.27-.05-.67.17-.7-.35v-.64c-.52-.16-.97-.29-1.41-.42h-3.52c-.52-.35-.85-.83-1.06-1.41h-.7c-.79.17-1.06-.68-1.7-.89-.46-.15-.75-.8-1.11-1.22-.12-.12-.23-.23-.35-.35v-1.41c-.45-.48-.96-.48-1.41,0v.7h-.35c-.15.12-.3.33-.45.34-1.1.03-2.2.02-3.42.02v-1.06c-.1-.59.19-1.23-.24-1.9-.68.56-1.28,1.06-1.87,1.55-.12.23-.23.47-.35.7h-.35v.7h-1.06v-.35c-.26-.32-.53-.64-.86-1.06h-6.18c-.23-.47-.47-.94-.7-1.41h-.7c-.64.04-1.1-.35-1.57-.7-.31-.23-.59-.47-.89-.71-.47-.47-.94-.94-1.41-1.41h-2.46c-.35-.13-.89.33-1.06-.35v-.7c-.12-.12-.23-.23-.35-.35h-3.52c-.12-.12-.23-.23-.35-.35v-.7h-.7v-.35h-1.76v-.35c-.35-.35-.7-.7-1.06-1.06h-1.5c-.34.25-.65.48-.96.7h-1.06c-.12.12-.23.23-.35.35-.47.59-.94,1.17-1.41,1.76h-2.11c-.15-.32-.31-.65-.5-1.06h-.91c-.12-.12-.23-.23-.35-.35h-.7c-.27-.05-.67.17-.7-.35v-1.41c-.12-.12-.23-.23-.35-.35v-.38c-.4-.39-.73-.71-1.06-1.03-.77-.92-1.75-1.58-2.82-2.11h-.7c-.12-.12-.23-.23-.35-.35s-.23-.23-.35-.35c-.14-.56-.51-.76-1.06-.7-.31-.82-.61-1.64-1.76-1.41h-5.82c-.28-.29-.56-.58-.79-.81-.15-1.18-.29-2.29-.44-3.41h-4.48c.12.97.22,1.83.34,2.82h-2.2c-.69.03-1.35-.03-1.76-.7-.35-.12-.7-.23-1.06-.35.05-.36-.02-.67-.35-.88-.34-.21-.4-.52-.35-.88h-1.41c-.13.35.33.89-.35,1.06v.35c-.91,0-1.82.02-2.73-.02-.15,0-.29-.22-.44-.34-.36.05-.67-.02-.88-.35-.21-.34-.52-.4-.88-.35v-.35h-1.76c0-.33-.04-.67.02-.99.02-.15.22-.28.34-.42h.35l.35-.35c.12-.12.23-.23.35-.35v-.7h-1.76c-.79-.07-.98-.27-1.06-1.06-.27-.05-.67.17-.7-.35h-2.11c-.12-.12-.23-.23-.35-.35-.77.05-1.1-.49-1.41-1.06h-.7c-.35-.47-.7-.94-1.06-1.41h-1.6c-.21.23-.4.37-.5.56-.07.13-.01.33-.01.5v.35c-.35.48-.7.48-1.06,0-.12-.12-.23-.23-.35-.35v-.7h-1.06c-.12-.12-.23-.23-.35-.35h-2.82v-2.11c-.23-.23-.47-.47-.7-.7-.12-.12-.23-.23-.35-.35h-.35c-.27-.23-.54-.46-.79-.71-.1-.1-.18-.23-.26-.35h-1.76c-.33,0-.67.04-.99-.02-.15-.02-.28-.22-.42-.34v-1.06h-4.23v-1.06h-.35v-.35h-3.87v.7c-.12.12-.23.23-.35.35-.12.12-.23.23-.35.35h-.35c-.12-.12-.23-.23-.35-.35v-1.57c.23-.24.46-.49.69-.73-.17-.17-.34-.34-.5-.5-.04.03-.08.07-.12.09-.59.25-1.28.37-1.76.76-.49.4-.76,1.06-1.13,1.6-.15.12-.3.22-.43.36-.1.1-.18.23-.27.35h-1.51c-.67-.28-.64-.84-.6-1.41v-1.06c-.12-.12-.23-.23-.35-.35h-2.11c-.12-.35-.23-.7-.35-1.06-.27-.14-.53-.28-.85-.44-.21.29-.39.54-.56.79v.7h-3.52c-.35-.47-.7-.94-1.06-1.41h-.7v-.35c-.53-.03-.3-.44-.35-.7-.42-.33-.9-.39-1.41-.35h-1.41c-.33,0-.67.04-.99-.02-.15-.02-.28-.22-.42-.34v-1.06h-1.93c-.52,0-1.05.05-1.57-.01-.48-.06-.95-.22-1.43-.34-.12-.12-.23-.23-.35-.35-.08-.31-.16-.62-.25-.98.04-.04.15-.17.19-.21-.14-.79-.27-1.5-.41-2.33h-3.75c-.35-.47-.7-.94-1.06-1.41h-1.6c-.21.23-.4.37-.5.56-.07.13-.01.33-.01.5v.35h-1.41v-.35c-.31-.38-.61-.76-.89-1.09-.73.04-1.34.07-1.93.11v.99c-.23.12-.47.23-.7.35h-1.41c-.77.07-1.58-.18-2.32.23-.24-.06-.54-.14-.85-.23-.45,0-.9.03-1.34-.02-.15-.02-.28-.22-.42-.34-.15-.98-.23-1.04-1.41-1.06h-1.41c-.35.13-.89-.33-1.06.35-.12.12-.23.23-.35.35-.12.12-.23.23-.35.35-.12.12-.23.23-.35.35h-.7v-3.87c-.12-.12-.23-.23-.35-.35h-1.06c-.79,0-1.59.02-2.38-.02-.15,0-.29-.22-.43-.34v-1.06h-6.34c-.6-.03-1.21-.08-1.41.7-.31.23-.63.46-.98.72-.55-.23-1.13-.57-1.75-.69-.34-.06-.93-.37-1.14.32-.79.07-.98.27-1.06,1.06v.35c-.03.53-.44.3-.7.35h-2.11v-2.47c-.12-.12-.23-.23-.35-.35h-2.46c-.44-.13-.88-.26-1.28-.38-.18-.38-.33-.7-.49-1.03h-2.11c-.53-.03-.3-.44-.35-.7v-2.11h-1.41c-.73.06-1.37,0-1.48-.94,0-.05-.18-.08-.28-.12v-.35h-3.84v-2.82c-.95,0-1.85.02-2.76-.02-.15,0-.3-.22-.45-.34-.55.06-.92-.15-1.06-.7-.23-.12-.47-.23-.7-.35-.23-.35-.47-.7-.7-1.06l-.7-.35h-.55c-.32.39.16.97-.51,1.06-.23.12-.47.23-.7.35h-.35c-.12-.15-.23-.3-.36-.44-.1-.1-.23-.18-.35-.27-.19-.25-.37-.51-.48-.66-.61.12-1.09.19-1.54.32-.17.05-.29.22-.44.34h-1.06c-.59.59-1.17,1.17-1.76,1.76.14,0,.28,0,.4,0h-.4c-.03.53-.44.3-.7.35h-1.76c-1.04,0-2.08-.06-3.11.02-1.17.09-2.06-.32-2.81-1.18-.1-.11-.27-.17-.41-.25-.12-.12-.23-.23-.35-.35-.35-.35-.7-.7-1.06-1.06-.23-.23-.47-.47-.7-.7-.12-.12-.23-.23-.35-.35s-.23-.23-.35-.35c-.15-.07-.29-.13-.5-.23-.57.39-1.28.19-1.97.23-.35-.13-.89.33-1.06-.35v-.7c-.12-.12-.23-.23-.35-.35h-3.52v-.35c-.23-.23-.47-.47-.7-.7-.12-.12-.23-.23-.35-.35h-1.41c-.23.23-.47.47-.7.7-.53.03-.3.44-.35.7h-1.76c-.27-.05-.67.17-.7-.35v-1.06h-3.87c-.12-.12-.23-.23-.35-.35v-.7h-1.08c-.38.39-.71.73-1.03,1.06-.35.48-.7.48-1.06,0-.61.08-.88-.25-1.07-.79-.16-.45-.52-.72-1.04-.62-.12-.12-.23-.23-.35-.35v-.35c-.53-.03-.3-.44-.35-.7h-3.87v-4.9h-1.68c-.25.32-.52.67-.79,1.02-.12.12-.23.23-.35.35-.23.23-.47.47-.7.7-.12.12-.23.23-.35.35-.12.23-.23.47-.35.7-.03.53-.44.3-.7.35-.12.12-.23.23-.33.37,0,0,0,0,0,0,0-.01,0-.02,0-.03.11-.11.22-.22.34-.34h-.35v-.35c-.43-.35-.86-.7-1.31-1.06h-3.26v-1.41c0-.33.04-.67-.02-.99-.02-.15-.22-.28-.34-.42-.12,0-.23,0-.35,0h-.7c-.03.53-.44.3-.7.35-.17-.13-.34-.27-.7-.56v.91c-.14.56-.51.76-1.06.7h-1.41c-.12-.23-.23-.47-.35-.7-.03-.53-.44-.3-.7-.35h-.35c-.53.03-.3.44-.35.7v.35h-.7c-.12-.12-.23-.23-.35-.35-.51-.46-1.07-.88-1.53-1.38-.52-.55-.68-1.27-.54-2.14h-.74c-.23.23-.47.47-.7.7-.54.98-1.44,1.45-2.46,1.76h-1.41v-.35c.05-.27-.17-.67.35-.7.22-.18.44-.37.68-.57-.16-.34.43-.95-.32-1.19-.18-.74-.95-.69-1.41-1.06-.29-.46-.58-.93-.86-1.39-.21-.34-.52-.42-.9-.37-.03.53-.44.3-.7.35.07.5-.15.81-.62,1.03-.46-.71-.9-1.39-1.34-2.09h-.5c-.72.22-1.45.44-2.24.68-.12-.08-.3-.21-.49-.34-.29.12-.59.25-.9.35-.1.04-.23,0-.24,0-.45-.46-.85-.86-1.36-1.38,0-.13-.36-.58.29-.73v-.7c-.61-.38-1.09-.84-1.44-1.52-.32-.62-.91-1.11-1.38-1.65-.12-.12-.23-.23-.35-.35h-.35c-.09-.12-.17-.33-.27-.34-.57-.03-1.14-.02-1.63-.02-.33.51-.62.96-.91,1.41-.23.12-.47.23-.7.35h0c-.41,0-.81,0-1.3,0-.19.21-.42.47-.64.71-1.37-.05-2.74.16-4.05-.36-.59-.59-1.17-1.17-1.76-1.76-.12-.12-.23-.23-.35-.35-.66-.14-1.32-.28-2.11-.45-.14.47-.25.82-.36,1.16-.03.53-.44.3-.7.35-.08.1-.16.19-.24.29-.04-.1-.08-.19-.12-.29-.12-.12-.23-.23-.35-.35-.53-.03-.3-.44-.35-.7h-1.41c-.35.12-.7.23-1.06.35h-.35c-.27-.23-.54-.46-.79-.71-.1-.1-.18-.23-.26-.35-.18-.22-.37-.44-.57-.68q-.94.11-1.19,1.03h-1.06c-1.02-.93-2.04-1.86-3.07-2.81-.48.16-1,.33-1.5.5v.73c-.38.19-.77.38-1.11.55-.37-.27-.69-.51-1-.74-.18-.62-.77-1.47-1.18-1.77-.22-.16-.42-.37-.6-.53v-1.02c-.31-.34-.59-.63-.85-.91h-1.24c-.09.12-.17.25-.27.35-.13.13-.29.24-.43.36-.35-.12-.7-.23-1.06-.35-.53-.03-.3-.44-.35-.7h-.96c-.07-.27-.11-.42-.14-.55-.47-.17-.91-.45-1.37-.48-.46-.02-.94.21-1.41.32-.11.03-.23,0-.35,0,0-.06.02-.16,0-.17-1.08-.51-2.01.03-2.92.48-.16.08-.17.49-.25.74-.18.11-.37.21-.6.35-.35-.46-.71-.94-1.08-1.42-.22.01-.44.02-.78.04v1.73c-.12.23-.23.47-.35.7.25.32.5.65.73.94-.23-.3-.48-.62-.73-.94h-1.41c-.87-.79-1.76-1.54-2.93-1.75-.22.13-.41.24-.59.34-.23-.23-.47-.47-.7-.7-.12-.12-.23-.23-.35-.35-.47-.41-.94-.81-1.4-1.23-.59-.53-1.18-1.06-1.77-1.59-.12-.12-.23-.23-.35-.35v-.35c-.12-.12-.23-.23-.35-.35h-1.76c-.14-.12-.26-.31-.42-.34-.32-.05-.66-.02-.99-.02-.27-.05-.67.17-.7-.35v-.7c-.12-.12-.23-.23-.35-.35h-1.06c-1.41-.12-2.82-.23-4.23-.35-.55-.06-.92.15-1.06.7-.12.12-.23.23-.35.35-.12.12-.23.23-.35.35-.12.12-.23.23-.35.35-.9.05-1.4-.72-2.11-1.06-.7.07-1.32-.73-1.99-.14-.56.53-1.12,1.06-1.65,1.56-.66-.41-.54-1.29-1.29-1.42h-.7c-.14-.12-.26-.31-.42-.34-.32-.05-.66-.02-.99-.02h-.7c-.23-.23-.47-.47-.7-.7-.59-.59-1.17-1.17-1.76-1.76-.35-.13-.89.33-1.06-.35h-1.06v-.35c-.78-.7-1.55-1.39-2.36-2.11h-1.16c-.14-.12-.28-.33-.43-.34-.68-.04-1.36-.02-2.03-.02-.33,0-.67.04-.99-.02-.15-.02-.28-.22-.42-.34v-1.06h-3.87c-.35-.47-.7-.94-1.06-1.41h-1.65c-.37.45-.77.93-1.17,1.41-.23.23-.47.47-.7.7v.7h-1.41v-1.35q-1.17.03-1.41,1c-.35.12-.7.23-1.06.35h-.35c-.35-.12-.7-.23-1.06-.35-.53-.03-.3-.44-.35-.7-.12-.12-.23-.23-.35-.35-1.11.14-1.96-.3-2.7-1.1-.46-.5-1.01-.91-1.53-1.37-.12-.12-.23-.23-.35-.35-.12-.12-.23-.23-.35-.35-.29-.37-.59-.74-.84-1.06h-2.68c-.35-.13-.89.33-1.06-.35v-1.06h-2.82c-.52,0-1.05.06-1.57-.02-.5-.08-.85.18-1.25.37-.22.62-.64.4-1.01.21-.28-.14-.5-.37-.75-.56.04-.51-.02-.99-.35-1.41h-.7v1.41h-1.06l-.35-.35c-.12-.12-.23-.23-.35-.35v-.35c-.12-.12-.23-.23-.35-.35-.23-.23-.47-.47-.7-.7-.12-.12-.23-.23-.35-.35-.21-.04-.43-.06-.64-.12-.26-.07-.51-.16-.77-.23-.45-.4-.89-.82-1.37-1.17-.2-.15-.49-.16-.74-.23v-.35c-.35-.35-.7-.7-1.06-1.06h-1.79c-.12.38-.22.72-.32,1.06v.35c-.35.48-.7.48-1.06,0-.15-.32-.31-.65-.49-1.03-.39-.12-.83-.25-1.28-.38h-2.82v-1.41h-3.87c-.12.12-.23.23-.35.35-.16.33-.32.67-.5,1.06h-5.13v-2.82h-2.82v1.06c-.35.12-.7.23-1.06.35-.61,0-1.24.11-1.76-.35-.35.12-.7.23-1.06.35h-2.46c-.52-.35-.85-.83-1.06-1.41h-.7c-.71-.03-1.24-.37-1.74-.85-.7-.67-1.42-1.31-2.14-1.97-.23-.23-.47-.47-.7-.7v-2.11h-2.11c-.56,0-1.13.02-1.69-.02-.15-.01-.29-.22-.43-.34v-1.06h-2.11c-.52,0-1.05.05-1.57-.01-.54-.06-1.07-.22-1.6-.34-.35-.23-.7-.47-1.06-.7-.54-.35-1.08-.69-1.58-1.02-.2.18-.37.34-.53.47v1.6c.06.73,0,1.37-.94,1.48-.05,0-.08.18-.12.28-.12.12-.23.23-.35.35v.7c-.12.09-.35.2-.33.27.15.86-.51,1.03-1.07,1.3,0,.46-.05.94.01,1.39.06.43.22.84.34,1.26v.35c-.12.12-.23.23-.35.35-.22.31-.44.62-.67.94.13.05.22.08.31.11v.35c-.23.35-.47.7-.7,1.06-.12.12-.23.23-.35.35-.12.12-.23.23-.35.35-.35.12-.7.23-1.06.35-.6-.03-1.05.24-1.41.7-.23.23-.47.47-.7.7-.12.08-.3.14-.34.25-.15.38-.25.77-.36,1.16l-.35.35v.35c-.12.23-.23.47-.35.7-.23.23-.47.47-.7.7-.23.23-.47.47-.7.7-.23.23-.47.47-.7.7-.23.23-.47.47-.7.7-.12.12-.23.23-.35.35-.68.17-.22.71-.35,1.06-.53.03-.3.44-.35.7v.35c-.35.23-.7.47-1.06.7v.7c-.53.03-.3.44-.35.7v.35c-.12.12-.23.23-.35.35-.23.18-.46.37-.74.59.12.48.26,1,.39,1.52-.52.16-1.04.32-1.68.52-.09.18-.27.52-.45.89.12.23.24.47.37.71v1.94c-.16.16-.33.32-.53.5h-1.67c-.46.25-.66.91-1.32.72-.31.03-.73-.16-.72.44,0,.09-.22.18-.34.27v1.41c.39.41.38.62-.05.94-.05.03-.08.08-.09.09-.19-.11-.38-.22-.56-.32v-.35c-.41-.13-.72-.35-.7-.83.02-.56-.29-.81-.76-.94q-1.91.65-2.77,1.77c-.23-.23-.47-.47-.7-.7-.23-.12-.47-.23-.7-.35-.12-.12-.23-.23-.35-.35v-.7h-.7v-.35h-3.52v-3.17h-.7c0-.46-.36-.38-.6-.34-.92.14-1.8.48-2.75.35-.3.48-.79.32-1.22.34-.12.12-.23.23-.35.35v1.06c.1-.04.19-.08.29-.12-.1.04-.19.08-.29.12-.15.12-.29.23-.44.35.15-.12.29-.23.44-.35h-.7c-.23-.12-.47-.23-.7-.35v-.64c-.53-.16-.97-.29-1.41-.42h-1.35c-.08-.88-.27-1.76.41-2.61-.49-.33-.91-.6-1.37-.91-.56.04-1.21-.2-1.73.22-.29-.07-.6-.15-.91-.23-.12.12-.23.23-.35.35v.35h-4.58v1.41h-.7c-.64-.27-.98-.81-1.25-1.41-.17,0-.34,0-.51,0-.46-.63-.8-1.41-1.76-1.41h-1.06c-.53-.03-.3-.44-.35-.7v-2.11h-7.16c-.3.4-.59.78-1.03,1.37-.36-1.06-.93-1.65-1.67-2.07-.64.14-1.28.29-1.87.42-.28-.28-.49-.49-.71-.71-.31.15-.63.31-.9.45-.05.2-.09.36-.12.52h-1.98v-2.78c-.44,0-.83.03-1.21,0-1.09-.11-2.73-1.64-3.07-2.81v-1.41h-2.82v1.41h-2.84c-.74-.5-1.41-.95-2.09-1.41-.4-.48-.8-.96-1.17-1.41h-1.65c-.7.12-1.41.23-2.11.35h-2.11c-1.11-.57-1.38-.52-2.11.35h-.35c-.12.12-.23.23-.35.35-.23-.12-.47-.23-.7-.35-.22.16-.42.35-.66.47-.23.12-.5.16-.75.24h-4.23c-.33,0-.67.04-.99-.02-.15-.02-.28-.22-.42-.34v-1.06h-.35c-.92,0-1.85-.06-2.76.02-1.17.1-2.06-.32-2.81-1.18-.1-.11-.27-.17-.41-.25-.12-.12-.23-.23-.35-.35-.52-.64-.32-1.39-.35-2.11-.12-.12-.23-.23-.35-.35h-1.76v-.35h-.35c-.12-.12-.23-.23-.35-.35-.26-.74-.74-.88-1.41-.55v1.26h-.35c-.27-.05-.67.17-.7-.35-.12-.09-.34-.18-.34-.27,0-.59-.41-.41-.72-.44-.27.05-.67-.17-.7.35-.15.22-.29.44-.46.7h-2v.35h-.35v.7c-.12.12-.23.23-.35.35h-.7c-.12-.12-.23-.23-.35-.35-.15-.32-.31-.65-.5-1.06h-6.54v-2.82h-2.46v-.35h-.35v-.7h-.7c-.03-.53-.44-.3-.7-.35h-2.46c-.12.12-.23.23-.35.35v1.06h-1.06c-.31-.82-.61-1.64-1.76-1.41-1.49.32-2.49-.59-3.52-1.41-.5-.5-.99-.99-1.36-1.36h-2.47c-.2.35-.39.68-.58,1.01h-.52c-.23-.35-.47-.7-.7-1.06-.47-.47-.94-.94-1.41-1.41-.94.03-1.87.04-2.32-1.05-.03-.06-.33,0-.5,0-.03-.53-.44-.3-.7-.35h-2.46v-.35c-.35-.35-.7-.7-1.06-1.06h-1.41c-.23.23-.47.47-.7.7-.15.12-.3.22-.44.36-.1.1-.18.23-.27.35h-2.11v-2.82c.06-.74.88-.04,1.12-.75-.12-.26-.29-.66-.45-1.01h-1.69c-.33.54-.71,1.15-1.09,1.76-.23.23-.47.47-.7.7-.23.23-.47.47-.7.7-.56.14-.76.51-.7,1.06v.35h-1.06v-.35c-.26-.32-.47-.74-.81-.94-.38-.22-.83-.31-.95-.82-.12-.12-.23-.23-.35-.35-.12-.12-.23-.23-.35-.35-.23-.23-.47-.47-.7-.7-.14-.56-.51-.76-1.06-.7-.12-.23-.23-.47-.35-.7-.23-.23-.47-.47-.7-.7h-1.48c-.66.55-1.18.98-1.69,1.41h-1.06c-.23-.31-.45-.62-.7-.96v-1.86h-3.87c-.12-.23-.23-.47-.35-.7-.31-.23-.62-.46-.94-.69h-1.41c-.26.34-.54.69-.81,1.05-.59.47-1.17.94-1.76,1.41-.12.12-.23.23-.35.35h-.35v-2.82c-.81,0-1.51,0-2.2,0-.68,0-1.36-.03-2.02-.04v-2.07c.11-.18.21-.37.33-.56-.58-.54-1.23-.95-2.09-.84-.18.23-.37.47-.55.7h-1.21c-.14-.56-.51-.76-1.06-.7-.12-.12-.23-.23-.35-.35-.6-.35-1.2-.7-1.91-1.12-.44.82-1.63.81-1.96,1.83-.42.33-.9.39-1.41.35-.27.05-.67-.17-.7.35-.12.12-.23.23-.35.35-.23.12-.47.23-.7.35-.35-.12-.7-.23-1.06-.35-.15.19-.31.37-.59.7h-1.53l-.35-.35h-.8c-.46-.37-.89-.71-1.32-1.06-.23-.23-.47-.47-.7-.7v-1.41h-.35v-.35c-.12-.12-.23-.23-.35-.35-.23-.12-.47-.23-.7-.35v-.35h-.35v-.7h-7.75c-.45,0-.9.03-1.34-.02-.15-.02-.28-.22-.42-.34v-1.06h-3.35c-.19.2-.39.41-.64.67h-1.43c-.27.27-.47.47-.66.66-1.27.38-2.15-.35-3.07-.98-.3-.22-.61-.45-.88-.65-.61.33-1.19.74-1.84.97-.41.15-.68.32-.8.73h-2.82c-.21-.04-.43-.06-.64-.12-.26-.07-.51-.15-.77-.23-.05-.27.17-.67-.35-.7v-.35h-2.46v-4.23h-6.69c-.12.14-.31.26-.34.42-.05.32-.02.66-.02.99h-.7c-.12-.12-.23-.23-.35-.35-.56-.14-.76-.51-.7-1.06h-.7c-.2-.58-.54-1.06-1.06-1.41h-2.11c-.33,0-.67.04-.99-.02-.15-.02-.28-.22-.42-.34v-1.06h-5.63v-2.83c-.56.03-.99.05-1.41.08v3.46c-.21.16-.42.32-.64.46-.25.16-.52.31-.76.45v5.78c-.04.51.02.99.35,1.41.09.12.16.25.26.35.26.24.53.47.79.71.05.77-.49,1.1-1.06,1.41-.12.12-.23.23-.35.35v2.64c-.41.41-.82.82-1.24,1.23h-1.22c-.12.12-.23.23-.35.35v1.76c-.23.23-.47.47-.7.7-.09.12-.17.25-.27.35-.13.13-.29.24-.44.36-.28.12-.58.21-.84.36-.39.23-.66.55-.57,1.05v.35c.12.12.23.23.35.35v.35h.7v1.41c.61-.08.94.23,1.05.8.05.25-.11.61.36.61v.7c-.23.12-.47.23-.7.35-.12.12-.23.23-.35.35v1.06c-.12.12-.23.23-.35.35v.7c-.23.23-.47.47-.7.7-.53.03-.3.44-.35.7v.35c-.12.12-.23.23-.35.35v.7c-.12.12-.23.23-.35.35h-.7v13.74h.35v.7c.17.68.71.22,1.06.35q.52.97-.23,1.82c-.06.07-.08.19-.12.29h-1.41c-.12.12-.23.23-.35.35h-.35c-.12.12-.23.23-.35.35-.23.23-.47.47-.7.7-.23.23-.47.47-.7.7-.12.12-.23.23-.35.35-1.17.12-2.35.23-3.52.35h-.66c-.05,1.27,1.03,2.74-.8,3.88-.33-.04-.96-.11-1.7-.19-.04.03-.2.2-.38.37.61,1.05.32,2.21.35,3.32,0,.35-.22.71-.33,1.07-.75.23-.14.87-.5,1.44-.08.07-.34.28-.55.47v.91c-.12.35-.23.7-.35,1.06-.68.17-.22.71-.35,1.06v.7c-.78.2-.73.81-.7,1.41v1.22c0,.52.05,1.05-.01,1.57-.06.48-.22.95-.34,1.43-.78-.12-1.01.55-1.39.91v1.4c.18.19.34.35.42.42.36-.1.67-.18.97-.26v.35c.08.31.16.61.28,1.06-.38.16-.86.37-1.33.57-.05.58.09,1.03.7,1.19.12.82.23,1.64.35,2.47-.22.12-.44.31-.68.34-.54.06-.34.44-.38.72v.7c-.03.43.15.92-.32,1.21.11.19.21.37.32.55v.35c.04.45-.09,1.03.14,1.31.51.63.04,1.02-.14,1.51.05.36-.02.67-.35.88-.34.21-.4.52-.35.88-.14.12-.26.31-.42.34-.32.05-.66.02-.99.02h-.7v2.11c-.23.23-.47.47-.7.7-.23.23-.47.47-.7.7-.23.23-.47.47-.7.7-.23.16-.46.31-.74.5.22.7-.3,1.49.36,2.14.12.12.1.48.02.68-.64,1.68-.21,3.42-.34,5.13v1.76h.7c-.25.77.35,1.39.35,2.11-.23.12-.47.23-.7.35-.12.14-.31.26-.34.42-.05.32-.02.66-.02.99-.53.03-.3.44-.35.7v.35c-.59.12-1.17.23-1.76.35-.2-.1-.4-.2-.7-.36v4.58h.98c.24-.41.43-.73.61-1.06h.52c.56.86,1.28,1.66,1.06,2.82-.12.12-.23.23-.35.35-.23.23-.47.47-.7.7h-.35c-.33.42-.39.9-.35,1.41-.12.12-.23.23-.35.35-.12.35-.23.7-.35,1.06-.23.23-.47.47-.7.7-.23.12-.47.23-.7.35v.35c-.35.35-.7.7-1.06,1.06-.12.12-.23.23-.35.35h-1.76c-.12.42-.28.82-.34,1.25-.06.4-.01.81-.01,1.22v1.41c-.12.12-.23.23-.35.35s-.23.23-.35.35c-.27.05-.67-.17-.7.35-.45.29-.89.58-1.38.9v1c.33.67.88.56,1.38.56.1.94-.19,1.89.33,2.83.38.69-.32,1.38-.33,2.1-.56.14-.76.51-.7,1.06,0,.56-.02,1.13.02,1.69.01.15.22.29.34.43.07.13.14.27.22.39.21.32.26.58-.22.66-.98.15-1.04.23-1.06,1.41-.35.12-.7.23-1.06.35v.7c.14.56.51.76,1.06.7v4.23h-.7c-.23.41-.47.82-.7,1.23-.21.38-.42.77-.58,1.08.1.22.17.36.23.51.35.35.7.7,1.06,1.06-.12.23-.23.47-.35.7-.12.14-.31.26-.34.42-.05.32-.02.66-.02.99-.12.12-.23.23-.35.35-.12.12-.23.23-.35.35v.35c-.23.23-.47.47-.7.7-.23.23-.47.47-.7.7-.12.12-.23.23-.35.35-.12.12-.23.23-.35.35-.23.23-.47.47-.7.7-.12.12-.23.23-.35.35-.12.12-.23.23-.35.35v.7c-.12.12-.23.23-.35.35v.35c-.35.44-.7.87-1.04,1.29v2.47c.23.15.46.31.69.46.23.23.47.47.7.7v4.93c-.16.22-.35.42-.47.66-.12.23-.16.5-.24.75v.7c-.23.23-.47.47-.7.7s-.47.47-.7.7c-.23.23-.47.47-.7.7-.35.35-.7.7-1.06,1.06-.12.12-.23.23-.35.35-.05.27.17.67-.35.7v.7c-.12.12-.23.23-.35.35-.12.23-.23.47-.35.7-.1.04-.19.08-.29.12.1.08.19.16.29.24v.7c-.12.12-.23.23-.35.35-.12.12-.23.23-.35.35-.12.23-.23.47-.35.7-.23.23-.47.47-.7.7-.47.39-.95.78-1.38,1.14v2.22c.49.18.93.35,1.38.51v9.51c-.23.12-.47.23-.7.35q-1.97.49-2.45,1.02c.12.37.23.73.34,1.09.12.14.31.26.34.42.05.32.02.66.02.99.27.05.67-.17.7.35h2.11c.12.12.23.23.35.35h.35c.12.12.23.23.35.35v.35c.04.22.04.45.12.64.44,1.09,1.31,1.99,1.32,3.29,0,.45.49.73,1.02.64h3.87c.39,0,.88-.1.61.7h-.61c.16.57-.31.81-.7,1.24v4.87c.45-.2.73-.33,1.05-.47.41.2.87.43,1.41.7v-1.61c.35-.17.63-.31,1.11-.54.12.21.3.52.43.74.77,0,1.53-.23,2.02.05.96.54,1.66.23,2.26-.15.44-.69.52-1.39,1.1-1.66.49.14.84.32,1.21.34,1.16.04,2.33.01,3.49.01.7-.14.93.5,1.41.86v3.36c.68,0,1.36-.02,2.03.02.15,0,.29.22.43.34v.7h.7c.59.7,1.17,1.41,1.76,2.11.23.35.47.7.7,1.06v1.41h2.11c.35-.23.7-.47,1.06-.7.35-.23.7-.47,1.06-.7h7.04c1.01.55,1.06.54,1.76-.35-.12-.12-.23-.23-.35-.35v-2.11h1.76c.42.57.84,1.14,1.3,1.77.99-.14,2.07-.3,3.05-.43.28.3.43.46.57.61-.1.1-.19.19-.33.33.22.28.46.59.69.89h1.06c.17-.68.71-.22,1.06-.35.33,0,.67.02,1,0,.55-.04.96.13,1.11.71l.35.35c.12.12.23.23.35.35.68.17.22.71.35,1.06.58.37.38.87.22,1.36-.05.14-.15.27-.22.4h1.06c.79,0,1.59-.02,2.38.02.15,0,.29.22.43.34.27.05.67-.17.7.35.12.12.23.23.35.35.49.55.96,1.11,1.48,1.63.13.13.42.09.63.13.15.18.31.37.57.68.66-.1,1.45-.21,2.25-.33.11-.56.23-1.12.32-1.59.64-.42,1.02,0,1.44.18.26.08.55.1.76.25.63.43,1.33.52,2.06.46.45.48.96.48,1.41,0v-1.01c.6-.02,1.22-.04,1.83-.05.63,0,1.27,0,1.92,0,.16.25.32.48.47.7.12.12.23.23.35.35.59.59,1.17,1.17,1.76,1.76.12.12.23.23.35.35.35.35.7.7,1.06,1.06.12.12.23.23.35.35.35.35.7.7,1.06,1.06.12.12.23.23.35.35.12.12.23.23.35.35.53.03.3.44.35.7h.99c.04-.54.07-1.09.12-1.76h.65c.18-.1.36-.2.62-.35.03.35.05.7.08,1.05v.35c.12.12.23.23.35.35.24.12.5.36.73.33,1.96-.23,3.86.5,5.89.36v-.79c.82-.79,1.57-1.52,2.42-2.33h1.4c.29.78.84,1.32,1.54,1.72.12.12.23.23.35.35.59.59,1.17,1.17,1.76,1.76.14.56.51.76,1.06.7h2.11c1.38-.42,2.63-.3,3.58.94.03.05.08.08.12.12h1.23c.04.1.07.28.12.28.93.11,1,.75.94,1.48h2.29c.16.17.33.33.58.59-.4.31-.81.62-1.1.85v1.29c.17.03.33.12.48.09.43-.09.84-.22,1.26-.34.04-.1.06-.27.12-.28.2-.05,1.36.42,1.64.63.32.46.63.91,1,1.44.43-.11.95-.25,1.47-.38,2.14,0,4.28,0,6.42,0,.25,0,.62-.13.62.35h.53c.16.44.33.88.55,1.47.64-.11,1.2-.2,1.82-.31.39.07.86.16,1.33.25.14-.66.6-.29,1.06-.3v1.3c.42.02.86.04,1.41.07v-1.42c.12-.12.23-.23.35-.35.18.12.35.32.54.34.51.05,1.03-.04,1.54.03.41.06.79.28,1.41.51.23.19.66.53,1.09.88.35.47.7.94,1.06,1.41h1.06v-1.41h1.41c-.04.51.02.99.35,1.41h.99c.15-.52.28-.96.42-1.41.61-.43,1.21-.88,1.84-1.29.16-.11.42-.08.63-.12.25.08.52.12.75.24.24.12.44.31.66.47.35.35.7.7,1.06,1.06.12.35.23.7.35,1.06v.7c.23.23.47.47.7.7.52.73,1.03,1.43,1.92,1.78.24.09.37.45.55.68.14.56.51.76,1.06.7h1.76c.6-.21,1.19-.43,1.73-.62.5.09.97.18,1.44.27.23.23.47.47.7.7.14.56.51.76,1.06.7h.7c.12.12.23.23.35.35h.51c.22.36.44.72.61,1.01h.99v-1.36c.12-.12.23-.23.35-.35.36.12.71.31,1.08.34.69.05,1.39.02,2.09.02.12.12.23.23.35.35h.35c-.12.82.61,1,.92,1.45,1.17-.14,2.06-.87,3.17-.81.15,0,.33-.42.5-.64h.7c.14-.12.29-.33.44-.34.91-.03,1.82-.02,2.73-.02,1.26,0,2.52.01,3.79-.02.15,0,.29-.22.44-.34v-.91c.57-.43,1.44.19,1.96-.48.55.63,1.28.2,1.91.33h1.72c.08.93.02,1.88.04,2.82h4.78c.24.3.55.68.85,1.06v.7h1.06c.14-.12.28-.33.43-.34.56-.04,1.12-.02,1.69-.02.61,0,1.24-.11,1.76.35.12.35.23.7.35,1.06.77-.05,1.1.49,1.41,1.06h.35v1.27c.32.25.69.55,1.06.84.12.35.23.7.35,1.06v1.41c.45-.11.84.11.96.47.22.64.3,1.33.45,2,.03.53.44.3.7.35h.35c.23-.35.47-.7.7-1.06.22-.78,1.02-.72,1.57-1.24.49,1.07,1.17,1.07,1.95.54.12-.12.23-.23.35-.35.12-.12.23-.23.35-.35.35-.12.7-.23,1.06-.35h.7c.12-.12.23-.23.35-.35.12-.12.23-.23.35-.35v-.7h1.41v.35c.05.27-.17.67.35.7.02.43.33.44.57.28.21-.14.33-.42.49-.64v-.7h1.06c.53.03.3.44.35.7.23.12.47.23.7.35v.35h.35v.35c.12.12.23.23.35.35v2.47c.59-.12,1.17-.23,1.76-.35v-.35h.84q.53-.94,1.62-1.15v-.61h.35c.81-.29.99,1.05,1.62.78.37-.38.62-.62.61-.61,1.08-.2,1.79-.33,2.53-.47.14.18.33.42.52.65.12.12.23.23.35.35.04.1.08.19.12.29.08-.1.16-.19.24-.29h3.52v.7c.16.23.31.46.46.69h2.83c.31-.23.62-.46.94-.69v-.57c.41-.17.83-.35,1.41-.59v3.28h2.46c.35-.35.7-.7,1.06-1.06.14-.12.28-.33.43-.34.79-.03,1.59-.02,2.38-.02h3.17c.3.22.61.44.91.67.28-.46.77-.28,1.2-.31.09-.12.18-.33.28-.34.69-.03,1.38-.02,2.19-.02v3.87c.42.33.9.39,1.41.35v2.82h3.83c.26-.49.51-.95.75-1.41h1.5c.69.6,1.35,1.18,2.02,1.76.43.5.87,1.01,1.28,1.49.6-.17,1.07-.3,1.54-.43.23-.47.47-.94.7-1.41h.35c.41,0,.81.03,1.22,0,.82-.07,1.56.11,2.14.73.49.52,1.1.72,1.81.69.47-.02.7.29.82.7.7.25,1.27.87,2.11.7.12.12.23.23.35.35s.23.23.35.35c.05.27-.17.67.35.7h3.35c.28.29.57.58.92.94-.13.7-.26,1.47-.4,2.23.47-.09.95-.18,1.53-.29.22.07.58.18.93.29.03.53.44.3.7.35.12.12.23.23.35.35,0,.96.78,1.3,1.41,1.76h1.06c.05-.27-.17-.67.35-.7v-.7h.35c.33,0,.67.02,1,0,.55-.04.96.13,1.11.71.05.27-.17.67.35.7h.7c.12-.12.23-.23.35-.35.25-.31.49-.61.74-.92.22-.28.45-.56.67-.84v-1.41c.53-.03.3-.44.35-.7.81,0,1.63-.04,2.44.02.36.02.72.22,1.08.34.07.79.27.98,1.06,1.06.47.47.94.94,1.41,1.41.08-.1.16-.19.24-.29-.08.1-.16.19-.24.29.12,0,.23,0,.35,0h2.82v-.7h.35v-.7h1.41v.7c.12.23.23.47.35.7h3.01c.15.2.33.45.51.7v.95c.65.17,1.2.31,1.76.46.45,0,.9.03,1.34-.02.15-.02.28-.22.42-.34.59-.12,1.19-.28,1.79-.34.64-.06,1.28-.01,1.92-.01.13-.25.24-.5.38-.73.15-.24.33-.45.49-.68h1.41c.23.23.47.47.7.7.23.23.47.47.7.7.06.7-.53,1.15-.7,1.76,0,.06-.02.13,0,.16.11.12.24.23.33.31-.12.21-.23.4-.33.58h2.82v1.42c.55-.03.98-.05,1.41-.07v-1.35h1.06c1.02.14,2.04.27,3.05.42.05,0,.08.18.12.28.43.34.86.69,1.31,1.06h1.15c.12-.12.23-.23.35-.35.42-1.6,1.17-2.35,2.82-2.82h.7c.2.38.38.78.62,1.13.19.27.47.48.7.71,1.02-.33,1.97-.8,2.91-.08,0,.5-.1,1.05.56,1.38h1.1c.15-.22.3-.45.45-.68h0v-.35c.23-.23.47-.47.7-.7h1.41c.12.12.23.23.35.35.12.12.23.23.35.35.7.7,1.41,1.41,2.11,2.11.12.12.23.23.35.35l.35.35c.12.12.23.23.35.35.16.22.35.42.47.66.12.23.16.5.24.75.23.12.47.25.69.37-.23-.12-.46-.25-.69-.37h-.7c-.12.12-.23.23-.35.35v1.76c.63-.14,1.26-.29,1.93-.44.33.5.63.96.98,1.49.55.01,1.18-.06,1.67.36.15-.12.29-.23.44-.35.09.12.18.23.27.35h1.06c.35-.35.7-.7,1.06-1.06.31.23.62.45.96.7h1.15c.64,0,1.29,0,1.93,0,.41.41.83.82,1.24,1.23v2.64c.64-.29,1.28-.57,1.92-.86,1.1-.12,2.3-.47,3.36.33-.1.1-.19.19-.29.29.11.27.23.55.4.95h1.29c.14-.12.28-.33.43-.34.56-.04,1.12-.02,1.69-.02h.99c.04.54.07,1.08.11,1.67.2.14.43.29.66.44.28-.19.55-.39,1.01-.71,1.31.18,2.87-.37,4.29.32.8-.8,1.58-1.58,2.45-2.45v-2.02c.3-.03.62-.05,1.06-.09v.73h.35c.12.12.23.23.35.35.82.82,1.64,1.64,2.46,2.47.23.23.47.47.7.7.12.12.23.23.35.35.23.23.47.47.7.7.12.23.23.47.35.7h.7v-1.41c.12-.12.23-.23.35-.35h2.3c.53.39,1.08.78,1.58,1.14v2.03c.35.12.7.23,1.06.35l1.06-.35c.14-.12.27-.32.42-.34.44-.05.89-.02,1.34-.02.12.12.23.23.35.35-.07.83.23,1.71-.35,2.47h2.82c1.51.1,1.71.43,1.06,1.76.55-.06.92.15,1.06.7.12.12.23.23.35.35.23.23.47.47.7.7.23.23.47.47.7.7h.7v-1.06c.12-.12.23-.23.35-.35h1.41c1.24.08,2.52-.24,3.71.34.17-.17.33-.33.55-.55-.12-.49-.26-1.02-.39-1.55v-1.06h5.99c.21.04.5,0,.63.13.64.64,1.23,1.32,1.84,1.99l.35.35c.18.74.95.69,1.41,1.06.14.56.51.76,1.06.7h1.41c.27-.05.67.17.7-.35v-.54c.5-.17,1-.42,1.52-.49.62-.09,1.26-.02,2-.02v2.82c.05.27-.17.67.35.7v.35c.12.12.23.23.35.35h.35c.4.64.83,1.24,1.76,1.47v-1.47h4.23v-1.41h2.82v2.82h1.06c.33-.7.61-1.44,1.41-1.76.33-.42.39-.9.35-1.41v-2.11c.08-.65.64-.21,1.06-.48.28-.34.67-.81,1.05-1.28h4.93v2.82h4.23v2.47c.14.12.26.31.42.34.32.05.66.02.99.02h1.06c.23-.47.47-.94.7-1.41h2.82c.27.05.67-.17.7.35.23.23.47.47.7.7h.7c.74-.06.05-.87.55-1.06.64,0,1.28,0,1.92,0h3.48c.08.93.02,1.88.04,2.82h5.63v.71c.35.42.63.77.84,1.02h1.07c.35-.32.64-.59.91-.84v-.9h.35c1.06-.18.94.98,1.71,1.47h2.16v3.82c-.06.55.15.92.7,1.06.12-.12.23-.23.35-.35h.35v-.35h1.76c-.16.33-.27.55-.42.85.45.22.86.42,1.41.69.06-.6.1-1.07.14-1.54h.63c.23.12.47.23.7.35.12.12.23.23.35.35.14.56.51.76,1.06.7h.7c.12.18.21.41.38.54.6.48,1.23.93,1.76,1.32-.03.42-.04.64-.05.88-.37.06-.69.11-1.01.16v.71c.53.69,1.04,1.35,1.53,1.98h.89c.03-.6.05-1.15.08-1.74.53.15.95.26,1.36.38-.16.74.55.94.84,1.37h3.38v-2.78h1.06c.12.12.23.23.35.35v.7h.7c.17.68.71.22,1.06.35h1.06c-.05,1.36-.05,1.36-1.41,1.41v1.06c.42.33.9.39,1.41.35.53-.03.3-.44.35-.7.36.28.71.55,1.05.81-.13.23-.24.41-.35.59h-.35c.17.68.71.22,1.06.35.35.12.7.23,1.06.35h.35c.12.12.23.23.35.35h1.06c.08-.1.16-.19.24-.29.04.1.08.19.12.29v.7c.03.53.44.3.7.35h2.7c.17.26.32.48.47.7.12.12.23.23.35.35.59.7,1.17,1.41,1.76,2.11.23.23.47.47.7.7.12.12.23.23.35.35h.35v.35c.35-.13.89.33,1.06-.35,1.06-.35,1.49-1.34,2.11-2.12.06-.07,0-.23,0-.34.12-.12.23-.23.35-.35.35-.04.63.04.88.33.25.28.58.48.88.72.03.53.44.3.7.35h.7c.12.12.23.23.35.35.53.03.3.44.35.7.55-.06.92.15,1.06.7.12.09.25.16.35.26.24.26.47.53.71.79l.35.35c.29.36.59.72.86,1.06h2.27v.97c-.48.32-.94.62-1.37.91v2.34h2.82v1.41h-2.46c-.53.03-.3.44-.35.7.23.23.47.47.7.7.12.12.23.23.35.35.35.35.7.7,1.06,1.06.23.12.47.23.7.35v3.52l.7.35c.35.35.7.7,1.06,1.06.14.12.28.34.41.33.5-.02.94.08,1.35.37.12.23.23.47.35.7v.35h.35v.35c-.03.6-.07,1.21.7,1.41.23.31.45.62.7.96v1.5c0,.33-.04.67.02.99.02.15.22.28.34.42h.7c.9-.05,1.4.72,2.11,1.06.03.6.08,1.21-.7,1.41.06,1.48,1.44,2.06,2.08,3.02.19.74-.33,1-.67,1.38.49.31.33.8.35,1.24.35.35.7.7,1.06,1.06.12.12.23.23.35.35.07.65-.3,1.48.7,1.76.12.12.23.23.35.35.7.59,1.41,1.17,2.11,1.76.23.23.47.47.7.7h1.41c.12.12.23.23.35.35v1.06c.12.35.23.7.35,1.06h.35v.35c.59.59,1.17,1.17,1.76,1.76.53.03.3.44.35.7.27.05.67-.17.7.35,1,.28.63,1.11.7,1.76v2.26c-.21.23-.45.5-.7.78.16.06.25.1.35.14-.12.23-.23.47-.35.7-.12.12-.23.23-.35.35-.6.52-1.2,1.04-1.76,1.52v1.3c.25-.08.51-.17.77-.23.21-.05.43-.08.64-.12h.88c.51,1.05,1.35,1.81,2.29,2.47v.7h.7c.12.12.23.23.35.35.2.78.81.73,1.41.7.12.12.23.23.35.35.35.12.7.23,1.06.35,0,.96.78,1.3,1.41,1.76v3.24c.23.23.59.57.95.92-.29.29-.62.62-.95.95,0,.41,0,.82,0,1.23h.7c.53-.12,1.06-.28,1.6-.34.52-.06,1.05-.01,1.57-.01.12-.12.23-.23.35-.35v-1.06h1.06c.53.03.3.44.35.7.23.23.47.47.7.7.23.15.45.3.68.45v2.36c-.67,0-1.34-.02-2,.02-.15,0-.29.22-.44.34-.12.35-.23.7-.35,1.06.56.31,1.12.62,1.75.98,0,.02.04.18.1.43h4.32c.26.28.54.57.83.89-.08.09-.19.21-.28.32.11.18.21.37.32.55h1.06c.14-.12.27-.32.42-.34.44-.05.89-.02,1.34-.02.79.07.98.27,1.06,1.06.58.38.38.87.22,1.37-.08.25-.15.5-.22.75,1.48-.56,3.03-.31,4.56-.34.24,0,.48.22.72.34,0,.29,0,.57,0,.5.43.53.69.86.94,1.16.52-.23,1.05-.45,1.53-.66v-1.36c.76-.25,1.39.35,2.11.35,0,.51-.1,1.05.66,1.43.25-.05.68-.12,1.1-.21.01,0,0-.11,0-.17h4.23v-.7c.12-.12.23-.23.35-.35h1.76c.12-.12.23-.23.35-.35.12-.12.23-.23.35-.35.12-.12.23-.23.35-.35.5-.84,1.33-.69,2.11-.7h2.49c.11.36.22.71.33,1.06-.03.69.03,1.35.7,1.76v.35c.23.23.47.47.7.7.3.49.75.74,1.32.69.16-.01.29-.22.44-.34h3.17c.21.04.5,0,.63.12.75.76,1.46,1.56,2.19,2.34.23.12.47.23.7.35.35.47.7.94,1.06,1.41h.35c.12-.12.23-.23.35-.35.12-.35.23-.7.35-1.06h1.06c0,.06-.02.12,0,.17.02.05.1.13.11.12.55-.33,1.09-.66,1.72-1.04.57.28,1.19.58,1.89.92.34-.62.59-1.1.85-1.58h5.28v-1.41h1.41c-.03.6-.08,1.21.7,1.41h.48c.37-.56.65-.98.93-1.41h1.76c.23.23.47.47.7.7.61.87,1.27,1.72,1.07,2.9-.01.07.22.18.34.27.27.05.67-.17.7.35.45-.02.88.08,1.27-.35.31-.35.82-.52,1.23-.77q.75,1.25.25,2.37c.2.11.46.24.72.38.01-.03.07-.1.13-.1,1.85-.05,3.71-.08,5.56-.11h.99c.03.66.07,1.33.11,2.11h.66c.78-.4,1.52-.9,2.46-.7.41,0,.82-.06,1.22.01.5.09.85-.18,1.25-.37.36.05.67-.02.88-.35.21-.34.52-.4.88-.35.66-.58,1.32-1.16,2-1.76h3.22v2.82h4.64c.55-.06.92.15,1.06.7v.67h1.33c.14-.46.29-.92.43-1.38h2.11c.13.35-.33.89.35,1.06.52.46,1.15.34,1.76.35h2.29c.17.44.33.89.53,1.41h3.69c.53,0,1.06-.05,1.57.01.48.06.95.22,1.43.34h1.06v-.7c1.18.02,1.26.08,1.41,1.06.23.12.47.23.7.35v.35h.35c.35.35.7.7,1.06,1.06.12.12.23.23.35.35.04.1.08.19.12.29.08-.1.16-.19.24-.29h4.58v1.31c.17.06.23.11.27.1.49-.17,1.15.41,1.49-.35v-.35c.34.16.67.32,1.01.48.04.55.08,1.09.11,1.63h.64c.25-.08.6-.08.75-.25.61-.71,1.15-1.47,1.72-2.22-.05-.24-.15-.35-.27-.4.12.04.22.16.27.4.53-.12,1.06-.22,1.58-.36.49-.13.84.17,1.24.36.03.53.44.3.7.35.28.3.55.59,1.11,1.19.06.08.35.5.65.92.12.35.23.7.35,1.06.12.12.23.23.35.35s.23.23.35.35c.35.35.7.7,1.06,1.06.54.02,1.11.1,1.32-.41-.11-.4-.18-.7-.26-.99h1.06c.15.12.34.36.43.33.34-.12.66-.34.98-.52,0-.17,0-.34,0-.52.12-.12.23-.23.35-.35.15-.12.29-.33.44-.34,1.26-.03,2.52-.02,3.79-.02h1.06v2.82h3.67c.18.24.37.47.55.7v.7h.7c.23.23.47.47.7.7.12.12.23.23.35.35s.23.23.35.35h3.52v1.37h1.22c.3-.47.6-.92.89-1.37h0c.78.01,1.61-.14,2.11.7v.7h.7l1.06.35c.07-.69.7-.11,1.06-.65v-1.82h.7c.53-.03.3-.44.35-.7.52-.64.32-1.39.35-2.11.57.03,1.14.07,1.41-.6v-2.92c.94-.01,1.89.03,2.97-.04-.23-.46-.37-.74-.51-1.02-.35-.23-.7-.47-1.06-.7v-2.47h7.04c.51.04.99-.02,1.41-.35.27-.05.67.17.7-.35.12-.12.23-.23.35-.35l.35-3.52c.08-.25.12-.52.24-.75.12-.24.31-.44.47-.66.79-.47,1.46-1.04,2.51-1.11,1.23-.08,2.36-1.71,2.42-3,.01-.23,0-.45,0-.7.25-.17.48-.32.7-.47.12-.12.23-.23.35-.35.53-.03.3-.44.35-.7v-2.62c.97-1.01,1.84-2.22,3.52-1.96h.7v-.7c.03-.72-.17-1.48.35-2.11.12-.12.23-.23.35-.35.23-.23.47-.47.7-.7.12-.12.23-.23.35-.35h2.46v-1.06c-.23-.18-.46-.37-.77-.61.48-.57.6-1.2.09-1.88-.11-.14-.02-.45-.02-.68.12-.12.23-.23.35-.35.39-.47.39-1.03.32-1.61-.19-.19-.4-.4-.61-.61-.01-.35-.37-.8.29-.95v-1.06c.12-.12.23-.23.35-.35.23-.12.47-.23.7-.35.03-.53.44-.3.7-.35.06-.73,0-1.37-.94-1.48-.05,0-.08-.18-.12-.28-.59-.47-1.17-.94-1.76-1.41V.26c.12-.12.23-.23.35-.35h1.06v-2.82h1.41v1.06c.12.12.23.23.35.35h1.06v-1.76c.46-.65.47-.97.11-1.84-.08-.19-.07-.42-.11-.63v-1.41c1.36-.05,1.36-.05,1.41-1.41v-1.41h2.46c.12-.12.23-.23.35-.35v-5.28h.7c.23-.23.47-.47.7-.7v-1.07c-.39-.6-.65-1-.91-1.4h-.49v-.7c.12-.12.23-.23.35-.35h.7v-.35c.68-.17.22-.71.35-1.06.12-.41.23-.81.3-1.04.45-.44.78-.76,1.11-1.08.47-.35.94-.7,1.41-1.06.23-.35.47-.7.7-1.06h3.41c.06-.31.12-.63.18-.95.21-.21.41-.41.61-.61-.11-.19-.22-.37-.32-.56h.65c.15-.77.28-1.44.41-2.11.09-.04.19-.07.21-.08-.07-.45-.14-.89-.21-1.33,1.13.12.97-.97,1.52-1.43-.32-.41-.57-.72-.81-1.04h-1.76c-.12-.35-.23-.7-.35-1.06,0-.64-.05-1.29.01-1.92.05-.54.22-1.07.34-1.6h.35c.23.12.47.23.7.35.23.35.47.7.7,1.06.51,0,1,.06,1.37-.46.12-.17.49-.17.74-.25,0-.33.04-.67-.02-.99-.02-.15-.22-.28-.34-.42-.14-.66-.28-1.32-.45-2.11h1.15c.51,0,1.05.1,1.4-.6-.26-.28.43-.89-.34-1.16v-.85c.24-.19.47-.37.7-.55h.51c.21-.33.35-.79.64-.94.67-.34.9-.85.95-1.53v-4.23h2.46c.68-.17.22-.71.35-1.06v-1.43c.39-.38.72-.71,1.06-1.03.58-.28,1.16-.57,1.66-.82.53-.86-.5-1.06-.6-1.65-.3-.24-.63-.44-.88-.72-.25-.29-.53-.38-.88-.33-.04-.21-.06-.43-.12-.64-.07-.26-.16-.51-.23-.77v-.35c.05-.27-.17-.67.35-.7.63-.46,1.41-.8,1.41-1.76h1.41c.35-.13.89.33,1.06-.35v-1.06h-1.41v-1.06c.12-.12.23-.23.35-.35h.35c.12-.12.23-.23.35-.35.12-.15.33-.29.34-.44.03-1.38.02-2.76.02-4.14v-.7h.7c.16-.22.35-.42.47-.66.12-.23.16-.5.24-.75h1.3c.06.31.11.62.19,1.06.15-.1.25-.18.42-.3,1.39,1.13,3.06.45,4.63.69.19-.29.35-.52.5-.74.48-.4.96-.8,1.41-1.17v-3.06c.05-.27-.17-.67.35-.7h2.11c.12-.12.23-.23.35-.35v-2.47c0-.33-.04-.67.02-.99.02-.15.22-.28.34-.42-.02-.12-.04-.23-.05-.32.02.09.04.2.05.32h2.46c.03-.6.07-1.21-.7-1.41h-.35c-.68-.21-.21-.77-.35-1.14-.01-.04.03-.1.1-.27h.95v-.35c.12-.15.33-.29.34-.44.03-1.26.02-2.52.02-3.79v-2.11c.12-.23.23-.47.35-.7.35.12.7.23,1.06.35h4.03s.09-.07.13-.11c.03-.04.06-.1.06-.15,0-3.2,0-6.4,0-9.6h1.41v-4.17c-.53-.02-1.08-.05-1.62-.06-.52-.01-1.03,0-1.55,0h-1.06v-.7c.12-.12.23-.23.35-.35.91-.8,1.03-1.09,1.06-2.47v-1.06c.05-.27-.17-.67.35-.7l.35-.35c.4-.48.8-.96,1.17-1.41h1.65c.03-.53.44-.3.7-.35v-.35c-.03-.08-.07-.15-.1-.2-.07-.11-.16-.16-.24-.18.09.02.17.07.24.18.04.05.07.12.1.2.23-.12.47-.23.7-.35.12-.35.23-.7.35-1.06.12-.12.23-.23.35-.35v-1.76h.7c.12-.12.23-.23.35-.35v-.7c.53-.03.3-.44.35-.7v-8.1h3.87c.12-.12.23-.23.35-.35v-8.1h.7c.12-.12.23-.23.35-.35.68-.17.22-.71.35-1.06v-4.23h4.23c.35,0,.7,0,1.06,0,.12-.12.23-.23.35-.35v-.35c-.04-.71.1-1.43-.1-2.11h-1.76c-.46-.37-.89-.71-1.31-1.06l-.35-.35c-.78-.2-.73-.81-.7-1.41v-1.06c.12-.12.23-.23.35-.35h.7v-1.06c.12-.12.23-.23.35-.35v-1.41h1.76c.12-.12.23-.23.35-.35h.7v-.7c.25-.08.52-.12.75-.24.24-.12.44-.31.66-.47.59-.7,1.17-1.41,1.76-2.11.59-.59,1.17-1.17,1.76-1.76h2.11v-3.87c.03-.53.44-.3.7-.35h.7v-4.23c.25-.08.56-.08.74-.24.42-.37.79-.81,1.13-1.17h2.36v-3.87c-.12-.12-.23-.23-.35-.35h-4.93c-.12-.12-.23-.23-.35-.35,0-1.05.03-2.1-.02-3.15-.02-.36-.22-.72-.34-1.08v-.7c.22-.16.42-.35.66-.47.23-.12.5-.16.75-.24.04-.21.06-.43.12-.64.07-.26.15-.51.23-.77-.56-.14-.76-.51-.7-1.06-.26-.08-.51-.17-.77-.23-.21-.05-.43-.08-.64-.12.23-.47.47-.94.7-1.41h1.06c.12-.12.23-.23.35-.35.09-.12.17-.25.27-.35.13-.13.29-.24.43-.36.23-.23.47-.47.7-.7.12-.23.23-.47.35-.7.23-.23.47-.47.7-.7.12-.12.23-.23.35-.35.03-.53.44-.3.7-.35h.7v.35c.12.35.23.7.35,1.06.35-.12.7-.23,1.06-.35.12-.23.23-.47.35-.7.23-.35.47-.7.7-1.06.22-.16.5-.28.64-.49.15-.24.15-.55-.28-.57v-1.86c.36-.45.71-.88,1.06-1.31.12-.12.23-.23.35-.35.27-.05.67.17.7-.35h.35c.22.63.63.36,1.02.22.24-.09.49-.14.74-.22v-2.47c-.12-.12-.23-.23-.35-.35-.23-.23-.47-.47-.7-.7Zm-807.75-.35c-.06.57-.06,1.14-.06,1.76v-1.85c.1-.61-.08-1.08-.39-1.52.32.45.52.95.45,1.61Zm15.49-52.6c.01.3-.03.56-.12.79.09-.24.13-.5.12-.79-.13-.14-.22-.24-.31-.33.09.08.19.19.31.33Zm3.22-18.42c.1-.14.24-.24.38-.32-.15.08-.28.18-.38.32Zm-4,16.03c.29.05.5.07.74.08-.23-.02-.44-.03-.67-.05-.46.13-.92.31-1.53.55.62-.25,1.07-.43,1.47-.59Zm156-85.17c.33-.15.58-.33.75-.57-.17.24-.41.42-.75.57Zm.94-.97c.14-.45.14-1.04.03-1.85h0c.11.81.11,1.4-.03,1.85Zm55.04,12.82c.16-.38.33-.76.41-1.15-.08.39-.25.77-.41,1.15-.89.44-1.19-.38-1.69-.79,0-.49,0-.99,0-1.48,0,0,0,0,0,0v1.48c.49.41.8,1.23,1.69.79Zm10.99,137.82h-.7c0-1.15.01-2.29-.02-3.44,0-.15-.22-.29-.34-.44.13-.35-.33-.89.35-1.06.17.68.71.22,1.06.35.68-.17.22-.71.35-1.06v-1.41h2.46c.12.12.23.23.35.35.31.79,1.03.91,1.74,1.06.37.08.72.23,1.08.35.47.47.94.94,1.41,1.41.05.36-.02.67-.35.88-.34.21-.4.52-.35.88,1.06-.09,1.97.13,2.49,1.04-.51-.9-1.42-1.12-2.49-1.03-.26.07-.58.08-.77.25-.65.59-1.26,1.23-1.88,1.85h-4.4Zm50.99-125.22c-.25.34-.27.67-.26,1,0-.32.01-.66.26-1Zm-.26,1.19c0,.12,0,.25-.02.37,0,0,0,0,0,0,.02-.12.02-.25.02-.37Zm-18.2-.94c-.14.06-.3.13-.48.2.01.05.02.11.03.17-.01-.06-.02-.11-.03-.17.18-.08.34-.15.48-.2Zm213.43,213.74c.46.46.91.91,1.37,1.37-.46-.46-.92-.92-1.37-1.37-.7,0-1.41,0-2.26,0,.85,0,1.55,0,2.26,0Zm-42-4.3c-.23-.34-.53-.8-.89-1.34h-2.36c-.27.05-.67-.17-.7.35h-.52c-.19.32-.38.65-.61,1.06h-.98c-.14.29-.28.58-.42.89.14-.3.28-.59.42-.89,0-.94,0-1.88,0-2.82h-4.23v-2.82h-4.23c-.45-.13-.9-.27-1.41-.42v-1.69c-.05-.27.17-.67-.35-.7h-2.46v-1.41h2.34c.52,1.12,1.82,1.63,2.33,2.83h3.78v1.4h4.23v2.82h5.63v-2.11c.12-.12.23-.23.35-.35.52.3,1.04.6,1.77,1.03h6.13c.69.89-.38,1.19-.51,1.79-.23.23-.47.47-.7.7-1.81.66-3.71.19-5.6.41-.02.43-.04.82-.07,1.28h-.94Zm-18.75-11.9h0c-.12.09-.25.16-.35.26.1-.1.23-.18.35-.26Zm35.4,13.44h1.14v5.56h-2.8c.12.54.2.93.31,1.43h-1.3c-.23-.23-.47-.47-.7-.7v-.46c-.61-.45-1.18-.87-1.76-1.3-.23-.23-.47-.47-.7-.7v-.62c.55-.58,1.01-1.01,1.4-1.5.35-.44.74-.69,1.3-.62.05,0,.08.18.12.28v2.37c.33.22.55.38.81.55.6-.78,1.14-1.49,1.65-2.16v-.76c.78-.23.04-.94.54-1.35Zm26.76,12.66c-.18-.51-.34-.96-.51-1.41h-2.46c-1.32-.51-2.03-1.6-3.01-2.47h-.82c-.04.16-.07.32-.11.51-.79.62-1.73.59-2.72.45-.26-.41-.53-.83-.86-1.35h-2.38v-1.76c.12-.35.23-.7.35-1.06.23-.23.47-.47.7-.7.16-.19.31-.38.58-.7,1.25-.19,2.47.87,3.94.67v-.77c.1-.11.16-.19.18-.19.4.13.8.26,1.23.41.05.28.1.61.17,1.03.38-.18.66-.32,1.16-.56.11.25.26.58.35.78h3.84c.18.51.34.97.5,1.41h6c.53.55,1.01,1.05,1.39,1.44h1.44c.68.62,1.35,1.24,2.03,1.85.37.33.76.64,1.14.96.74.29.19.86.34,1.35h-.79c-.76.88-.6,1.86-.61,2.8,0,.92,0,1.84,0,2.83h-1.29c-.02-.08-.05-.24-.12-.38-.19-.42.41-1.05-.35-1.32.06-.55-.15-.92-.7-1.06-.31-.57-.64-1.11-1.41-1.06-.12-.12-.23-.23-.35-.35-.76-.14-1.53-.28-2.38-.43-.04-.24-.1-.57-.16-.94h-4.32Zm5.4,3.71c.82.12,1.58.12,2.46.12h-2.39c-.54.12-1,.44-1.5.59.5-.15.96-.46,1.44-.71Zm8.29-9.12c.09.09.16.21.22.36-.16.81-.32,1.63-.51,2.6.19-.97.35-1.78.51-2.6-.06-.15-.13-.27-.22-.36Zm-107.88-25.27h0c.14-.07.28-.14.44-.21-.15.07-.29.14-.44.21Zm-20.83-205.45c-.33.08-.65.16-.97.24h0c.32-.08.63-.16.97-.24Zm-34.43-10.66c.08-.08.17-.17.26-.26-.1.1-.18.18-.26.26-.07.67-.07,1.32.11,1.98-.17-.66-.17-1.32-.11-1.98Zm63.31,218.44c-.39.13-.8.26-1.17.38-.29-.08-.6-.16-.91-.24-.04-.1-.08-.19-.12-.29-.08.1-.16.19-.24.29h-1.41c.04-.96-.61-1.83-.35-2.82h4.18v2.67Zm142.3-161.32c0-.08-.01-.15-.03-.22.02.07.02.15.03.22Zm18.52,179.22c-.13,0-.26,0-.4.02.13-.02.26-.02.4-.02Zm17.74-166.36c-.03.05-.05.11-.08.16.03-.05.05-.1.08-.16h0Zm-6.48-4.6h-1.43c-.36-.32-.54-.5-.56-.72.02.22.2.4.56.72.47,0,.93,0,1.43,0Zm-1.69-4.12c.05.13.08.26.09.38-.01-.12-.04-.25-.09-.38-.32-.15-.63-.17-.95-.12.31-.05.62-.03.95.12Zm188.9,194.32c.27.26.44.54.53.84-.09-.3-.25-.59-.53-.84-.05,0-.11.02-.17.03.06-.01.12-.02.17-.03Zm12.63-25.63c-.15,0-.26.03-.35.1.09-.07.2-.1.35-.1Z"/>
    </g>
  </g>
  <g id="Layer_2" data-name="Layer 2">
    <rect class="cls-4" x="0" width="990.26" height="381.19"/>
    <rect class="cls-6" x="0" y="381.19" width="990" height="381.19"/>
    <g>
      <path d="m89.32,113.47l-7.69-16.23v-22.78h113.33v63.5h-28.47l-6.27-28.19h-21.92v57.8l27.33-4.27h17.65v37.87h-16.8l-28.19-3.99v36.16l11.96,17.08v23.35h-68.62v-23.35l7.69-16.23v-120.73Z"/>
      <path d="m282.66,276.63c-11.11,0-23.06-4.27-24.2-20.22-10.82,17.08-22.5,20.22-32.75,20.22-19.36,0-30.47-12.81-30.47-33.88,0-24.77,15.95-47.27,61.22-65.78v-14.81c0-8.83-3.7-11.96-11.96-11.96-2.85,0-5.98.28-9.11,1.14l-5.98,26.77h-28.47v-50.4c14.81-6.26,32.46-10.54,50.97-10.54,36.16,0,51.25,10.54,51.25,45.27v65.21c0,9.97,1.42,12.53,7.4,12.53v31.89c-7.12,3.13-16.23,4.56-27.9,4.56Zm-33.03-35.88c1.99,0,4.27,0,7.97-1.42v-36.45c-14.52,9.97-18.22,18.22-18.22,26.48,0,7.69,3.7,11.39,10.25,11.39Z"/>
      <path d="m398.27,273.78h-51.82l-29.61-114.47-8.54-15.66v-23.63h58.37v23.63l-4.84,14.24,2.85,20.5c2.85,19.36,6.83,37.87,10.82,57.23l14.81-77.74-5.41-14.24v-23.63h51.82v23.63l-8.54,15.66-29.9,114.47Z"/>
      <path d="m499.93,117.18c42.43,0,55.81,24.77,55.81,79.44,0,64.92-23.35,80.01-57.8,80.01-39.58,0-58.66-15.38-58.66-79.16,0-51.25,12.53-80.3,60.65-80.3Zm-2.56,35.59c-9.4,0-11.39,4.84-11.39,44.14s1.99,44.14,11.96,44.14c9.11,0,10.82-5.69,11.11-44.14.29-40.43-2.85-44.14-11.67-44.14Z"/>
      <path d="m571.97,162.73l-6.27-11.1v-23.35l29.61-12.81,13.67,6.26v18.51h1.42c3.7-16.23,15.95-22.78,26.48-22.78,3.7,0,8.26,1.14,11.39,2.56l-7.69,55.24c-6.55-1.14-12.24-2.56-23.06-3.7v64.92l10.25,14.52v22.78h-61.5v-23.06l5.7-12.53v-75.46Z"/>
      <path d="m658.53,164.16l-6.26-12.53v-23.35l31.61-12.81,20.79,6.26v116.46l5.7,12.53v23.06h-57.52v-23.06l5.7-12.53v-74.03Zm21.92-101.65c16.23,0,24.2,8.26,24.2,23.92s-7.97,23.92-24.2,23.92-24.2-8.26-24.2-23.92,8.54-23.92,24.2-23.92Z"/>
      <path d="m725.17,154.19h-9.68v-34.17h13.1l12.53-31.32h29.04v31.32h18.51v34.17h-17.37v68.05c0,9.4,2.56,12.81,9.68,12.81,3.13,0,5.13-.28,7.69-.57v37.59c-6.83,2.85-16.8,4.56-28.76,4.56-22.21,0-34.74-7.97-34.74-41.57v-80.87Z"/>
      <path d="m796.92,199.75c0-63.21,22.21-82.58,58.37-82.58s49.83,21.36,49.83,64.64c0,11.1-.85,25.91-1.42,33.03h-59.51v1.42c0,17.94,9.68,21.93,25.63,21.93,10.54,0,17.94-.85,30.47-2.85v35.59c-12.24,3.7-23.06,5.7-41.57,5.7-35.31,0-61.79-13.67-61.79-76.88Zm56.66-48.12c-9.68,0-11.39,7.12-12.24,32.18h23.63c0-18.79-1.71-32.18-11.39-32.18Z"/>
    </g>
    <g>
      <path class="cls-4" d="m144.19,456.17c11.96,0,27.05,2.56,38.73,7.4l.29,54.96h-17.65l-5.98-41.57c-4.84-.85-9.68-1.42-14.24-1.42-30.75,0-44.99,10.54-44.99,82.86s11.39,81.15,34.45,81.15c8.26,0,17.94-1.99,26.48-6.55v-58.66l-20.22-8.26v-12.81h42.71v103.65h-15.38l-4.56-13.38c-9.68,10.25-23.35,15.95-37.3,15.95-31.89,0-51.25-13.67-51.25-99.95,0-80.3,20.22-103.36,68.91-103.36Z"/>
      <path class="cls-4" d="m261.5,504.29c37.87,0,51.25,23.63,51.25,77.17s-15.38,77.45-53.25,77.45-50.97-23.92-50.97-77.73,15.09-76.88,52.96-76.88Zm-.85,17.08c-17.65,0-27.91,7.4-27.91,60.08s10.25,60.37,27.91,60.37,27.9-7.4,27.9-60.65-10.25-59.8-27.9-59.8Z"/>
      <path class="cls-4" d="m333.55,523.94v-12.24l19.08-7.12,11.96,3.99v107.63c0,20.22,8.26,25.06,20.79,25.06,8.26,0,17.94-2.85,26.48-8.26v-101.94l-7.4-7.12v-12.24l19.08-7.12,11.96,3.99v122.16c0,7.4,2.28,9.68,9.96,8.83v16.52c-4.27,1.42-9.4,2.56-14.52,2.56-8.83,0-17.08-2.56-18.79-15.95-13.38,13.38-26.2,16.23-36.45,16.23-19.08,0-34.74-8.26-34.74-39.58v-88.27l-7.4-7.12Z"/>
      <path class="cls-4" d="m473.36,531.05l-7.4-7.12v-12.24l20.22-7.12,9.11,3.99v14.81h.57c6.27-11.1,14.81-18.22,24.77-18.22,3.7,0,8.26.57,10.54,1.42l-2.56,24.49c-10.82-.29-20.5,0-31.89,3.7v101.08l7.97,8.54v12.24h-37.59v-12.24l6.26-8.54v-104.79Z"/>
      <path class="cls-4" d="m693.75,545.58c0-17.65-8.54-23.35-19.36-23.35-9.68,0-18.22,3.99-27.62,10.54.29,2.85.57,6.26.57,9.68v93.4l5.98,8.54v12.24h-35.59v-12.24l5.98-8.54v-90.26c0-16.51-6.55-23.35-19.93-23.35-9.11,0-18.79,3.7-27.33,8.83v104.79l5.98,8.54v12.24h-35.88v-12.24l6.26-8.54v-104.79l-7.4-7.12v-12.24l19.08-7.12,11.96,3.99v11.67c11.1-8.54,24.2-15.66,39.01-15.66,13.1,0,23.92,5.41,29.04,19.08,10.82-10.82,26.2-19.08,41.86-19.08,18.51,0,31.04,9.68,31.04,37.87v93.4l6.26,8.54v12.24h-35.88v-12.24l5.98-8.54v-90.26Z"/>
      <path class="cls-4" d="m745.01,583.73c0-58.66,16.23-79.44,51.25-79.44s44.99,25.91,44.99,63.5c0,8.26-.57,18.22-.85,23.63h-71.19v1.42c0,37.59,12.81,47.27,35.31,47.27,9.97,0,17.65-.85,31.89-2.85v17.65c-11.39,2.85-22.49,3.99-34.74,3.99-36.16,0-56.66-15.38-56.66-75.17Zm50.68-62.36c-20.5,0-27.62,15.38-27.33,52.96h52.39c.57-36.16-3.7-52.96-25.06-52.96Z"/>
      <path class="cls-4" d="m872.58,524.22h-19.93v-17.08h20.79l5.7-28.76h16.51v28.76h25.91v17.08h-25.63v98.24c0,12.81,3.99,17.08,13.38,17.08,5.12,0,8.83-.29,14.24-1.14v17.37c-6.26,1.99-13.38,3.13-21.64,3.13-19.36,0-29.33-8.54-29.33-32.46v-102.22Z"/>
    </g>
    <rect x="0" y="762.39" width="990" height="381.19"/>
    <rect x="990.13" width="990.26" height="381.19"/>
    <g>
      <path class="cls-4" d="m1149.93,163.02c0-11.39-5.12-14.52-13.67-14.52-5.41,0-10.82,1.14-15.09,3.42v121.87h-46.13v-84.57c-1.42.28-2.85.28-4.27.28-12.53,0-18.79-8.54-18.79-28.19v-19.36c0-19.36,7.69-33.03,35.31-33.03,15.09,0,29.61,3.42,32.18,28.76,9.11-15.66,27.62-27.62,44.71-27.62,19.93,0,31.89,10.82,31.89,38.73v109.63l-7.69,15.38h-38.44v-110.77Zm-65.78,6.55v-18.51c0-19.36,0-20.79-5.41-20.79-5.12,0-5.41,1.42-5.41,16.52v9.11c0,12.81,1.14,13.67,5.41,13.67h5.41Z"/>
      <path class="cls-4" d="m1255,276.06c-23.06,0-32.18-6.55-32.18-31.04v-12.53c0-19.65,4.27-30.18,18.79-32.46v-6.83c0-11.96-7.12-17.94-34.17-25.34.85-24.2,8.54-58.37,41.86-58.37,17.94,0,32.46,2.85,44.14,5.98v31.04c-11.68-1.42-23.63-2.85-37.3-2.85-5.12,0-7.12,1.14-7.4,5.41,27.62,7.4,39.01,18.22,39.01,41.57v54.67c0,24.49-13.67,30.75-32.75,30.75Zm-.28-58.94h-5.41c-4.84,0-5.41,1.14-5.41,17.08v5.13c0,15.38.57,17.08,5.69,17.08,4.56,0,5.13-1.71,5.13-21.07v-18.22Z"/>
      <path class="cls-4" d="m1252.72,100.09c-33.6,0-44.14-12.24-44.14-34.17,0-14.52,7.4-26.2,25.63-26.2,17.08,0,21.92,8.83,21.92,22.49,0,3.13-.28,5.98-.85,8.26h.29c14.24,0,34.74-2.28,52.68-6.55v26.77c-15.95,6.83-36.73,9.4-55.53,9.4Zm-17.65-46.13c-3.42,0-4.56,2.28-4.56,11.1,0,8.26.86,11.11,8.83,11.11h.57v-11.67c0-8.54-.57-10.54-4.84-10.54Z"/>
      <path class="cls-4" d="m1389.97,199.47l-15.66,74.32h-46.98v-84.85c-2.56.57-4.84.57-7.69.57-14.24,0-21.64-8.54-21.64-28.19v-19.36c0-19.36,7.69-33.03,35.31-33.03,17.37,0,33.88,3.7,33.88,33.88v19.93c0,24.77-1.99,49.83-3.42,69.48,2.28-10.25,4.56-20.22,6.83-30.18l11.67-51.82h15.66l11.68,51.82c2.28,10.25,4.55,20.5,6.83,30.75-1.14-19.36-3.42-44.14-3.42-70.05v-37.3l7.97-15.38h33.03v163.73h-47.84l-16.23-74.32Zm-59.8-29.9v-18.51c0-19.36,0-20.79-5.41-20.79-5.13,0-5.41,1.42-5.41,16.52v9.11c0,12.81,1.14,13.67,5.41,13.67h5.41Z"/>
      <path class="cls-4" d="m1497.04,219.4c-12.24-3.7-20.79-12.81-20.79-36.73v-33.03c0-32.46,13.1-40.72,38.16-40.72s31.04,8.54,31.04,32.75v22.49c0,17.65-7.4,27.62-23.06,27.62-2.56,0-4.84-.28-6.83-.85.57,8.26,6.83,9.97,19.93,9.97h7.4v26.48h-9.4c-6.26,0-9.4,3.7-9.4,9.68v4.84h22.5c7.12,0,11.67-2.56,11.67-11.96v-104.5l7.97-15.38h38.16v118.45c0,24.2-7.97,45.27-36.16,45.27h-88.56v-25.06c0-18.51,5.69-26.77,17.37-29.33Zm16.23-68.34v21.36h5.41c4.27,0,5.41-1.42,5.41-10.82v-16.23c0-14.24-1.14-15.09-5.41-15.09-5.41,0-5.41,1.42-5.41,20.79Z"/>
      <path class="cls-4" d="m1589.87,42c7.69,0,18.51.57,27.62,1.99v19.08c-8.83.29-15.95.57-23.06.85,4.56,3.13,6.83,8.26,6.83,14.52,0,14.24-8.54,20.22-24.49,20.22-17.94,0-26.48-7.4-26.48-24.49,0-19.93,10.82-32.18,39.58-32.18Zm-13.67,22.49h-4.27v10.54c0,9.68,1.42,11.39,5.12,11.39,3.99,0,5.12-1.71,5.12-11.67,0-7.69-1.99-10.25-5.98-10.25Z"/>
      <path class="cls-4" d="m1626.03,195.2c0-29.04,17.08-39.86,35.59-39.86,13.67,0,28.47,5.13,37.87,17.08v-2.28c0-19.65-7.97-27.62-31.89-27.62-12.53,0-23.92,1.14-40.15,2.85v-27.05c17.08-6.26,35.88-11.1,59.23-11.1,12.53,0,24.49,3.13,31.61,7.69l15.66-16.23,21.92,32.46-19.08,8.83c5.98,6.83,8.83,16.8,8.83,34.17v84.28l-7.69,15.38h-38.44v-85.42c-2.85-1.14-10.82-2.85-16.23-2.85-9.68,0-14.52,3.99-14.52,13.38,9.68.28,17.65,4.84,17.65,20.79v29.04c0,23.92-10.25,27.34-29.33,27.34-21.36,0-31.04-6.83-31.04-32.18v-48.69Zm35.31,61.22c4.56,0,5.13-1.42,5.13-12.24v-18.22c0-7.69-2.56-8.83-6.27-8.83h-4.55v22.78c0,15.09.57,16.52,5.69,16.52Z"/>
      <path class="cls-4" d="m1633.15,96.67v-7.12c0-18.51,11.11-35.02,39.86-35.02,25.63,0,53.82,11.96,72.89,31.04l-3.13,11.1h-25.91c-10.54-8.26-22.5-13.38-33.03-13.38-11.67,0-13.67,5.13-13.67,11.67v1.71h-37.02Z"/>
      <path class="cls-4" d="m1881.45,275.78c-24.77,0-31.04-8.54-31.61-28.47-8.26,7.12-15.66,15.95-21.36,26.48h-46.13v-84.57c-1.42.28-2.85.28-4.27.28-12.53,0-18.79-8.54-18.79-28.19v-19.36c0-19.36,7.69-33.03,35.31-33.03,17.37,0,33.88,3.7,33.88,33.88v88.27c5.98-6.83,14.24-13.38,22.78-18.79v-86.85l7.97-15.38h38.16v85.14c12.53,1.14,17.09,8.26,17.09,27.62v25.91c0,18.51-9.11,27.05-33.03,27.05Zm-89.98-106.21v-18.51c0-19.36,0-20.79-5.41-20.79-5.13,0-5.41,1.42-5.41,16.52v9.11c0,12.81,1.14,13.67,5.41,13.67h5.41Zm101.65,59.51c0-10.54-1.14-13.95-5.41-13.95-2.28,0-3.99.85-5.41,2.28v19.93c0,15.09.85,17.08,5.41,17.08,4.27,0,5.41-1.42,5.41-13.95v-11.39Z"/>
    </g>
    <g>
      <path class="cls-3" d="m119.07,847.22v-5.69h56.38c41.86,0,56.38,21.92,56.38,97.38s-15.09,99.09-59.51,99.09h-53.25v-5.7l7.69-6.55v-171.99l-7.69-6.55Zm51.54,1.71h-34.74v181.67h31.61c42.71,0,54.67-18.79,54.67-91.69s-11.67-89.98-51.54-89.98Z"/>
      <path class="cls-3" d="m274.55,902.75l-8.26-4.27v-5.12l10.82-3.42,5.98,2.56v134.4l6.55,5.98v5.12h-21.64v-5.12l6.55-5.98v-124.15Zm3.42-60.65c6.55,0,8.83,4.56,8.83,11.39,0,7.69-2.85,11.39-8.83,11.39s-8.83-3.7-8.83-11.39c0-6.83,2.28-11.39,8.83-11.39Z"/>
      <path class="cls-3" d="m365.67,1038h-10.25l-37.87-135.54-7.69-5.98v-5.12h23.35v5.12l-6.55,5.98,19.08,72.89c4.56,16.51,9.11,33.32,15.09,55.52l35.88-128.42-6.55-5.98v-5.12h21.92v5.12l-7.97,5.98-38.44,135.54Z"/>
      <path class="cls-3" d="m441.7,902.75l-8.26-4.27v-5.12l10.82-3.42,5.98,2.56v134.4l6.55,5.98v5.12h-21.64v-5.12l6.55-5.98v-124.15Zm3.42-60.65c6.55,0,8.83,4.56,8.83,11.39,0,7.69-2.85,11.39-8.83,11.39s-8.83-3.7-8.83-11.39c0-6.83,2.28-11.39,8.83-11.39Z"/>
      <path class="cls-3" d="m518.01,1039.71c-11.39,0-21.93-2.56-31.61-6.26v-38.16h6.83l3.7,34.74c7.97,1.71,12.53,2.85,21.92,2.85,18.51,0,32.46-5.41,32.46-29.04s-17.37-29.61-33.88-41c-15.66-11.11-29.33-19.65-29.33-40.72,0-16.8,9.68-33.6,35.88-33.6,10.25,0,20.79,1.71,32.18,4.84v40.72h-6.83l-3.13-35.59c-7.12-1.99-13.1-3.13-22.21-3.13-17.65,0-27.33,11.39-27.33,26.2,0,18.51,12.81,25.63,27.62,35.88,15.95,10.82,35.59,19.93,35.59,45.27s-12.24,37.02-41.86,37.02Z"/>
      <path class="cls-3" d="m596.32,902.75l-8.26-4.27v-5.12l10.82-3.42,5.98,2.56v134.4l6.55,5.98v5.12h-21.64v-5.12l6.55-5.98v-124.15Zm3.42-60.65c6.55,0,8.83,4.56,8.83,11.39,0,7.69-2.85,11.39-8.83,11.39s-8.83-3.7-8.83-11.39c0-6.83,2.28-11.39,8.83-11.39Z"/>
      <path class="cls-3" d="m691.14,888.51c30.75,0,47.55,14.81,47.55,75.46s-17.08,75.74-47.55,75.74-47.84-14.52-47.84-75.74,18.22-75.46,47.84-75.46Zm0,6.83c-21.07,0-39.01,9.11-39.01,68.62s15.95,68.91,38.44,68.91,39.01-9.11,39.01-68.62-16.52-68.91-38.44-68.91Z"/>
      <path class="cls-3" d="m854.3,923.54c0-20.5-11.67-27.34-27.91-27.34-12.81,0-26.77,4.84-39.58,13.38v117.31l6.55,5.98v5.12h-21.64v-5.12l6.55-5.98v-124.15l-8.26-4.27v-5.12l10.82-3.42,5.98,2.56v11.96c9.97-7.4,25.06-15.09,42.71-15.09s33.32,8.26,33.32,33.32v104.22l6.55,5.98v5.12h-21.64v-5.12l6.55-5.98v-103.36Z"/>
    </g>
    <rect class="cls-4" x="990.19" y="381.19" width="990.19" height="381.19"/>
    <g>
      <path class="cls-6" d="m1099.31,513.12c-22.21,0-34.17,9.68-34.17,35.88v15.66c.29,15.38-3.42,41-6.26,60.37,1.99-7.97,4.27-16.52,5.69-20.5l10.25-30.75c6.55-19.65,12.24-29.33,28.76-29.33,11.11,0,19.93,5.7,19.93,20.5v19.08c0,18.51-9.4,23.63-21.36,23.63-9.11,0-15.66-3.99-17.94-14.24l-20.79,63.21h-20.5v-109.91c0-35.02,20.5-51.25,56.66-51.25s54.67,16.23,54.67,51.82v101.65l-4.84,7.97h-17.65v-107.35c0-27.34-10.82-36.45-32.46-36.45Zm1.14,82.29c3.7,0,6.83-2.28,6.83-8.26v-22.21c0-5.13-1.71-7.69-5.98-7.69s-6.26,2.56-7.69,6.83v23.06c0,6.55,2.85,8.26,6.83,8.26Z"/>
      <path class="cls-6" d="m1154.27,716.14h-16.23v-13.95c-2.56,1.99-5.98,3.13-9.11,3.13-8.26,0-16.23-2.85-16.23-18.51s7.69-21.36,21.36-21.36c12.81,0,20.22,4.84,20.22,21.64v29.04Zm-16.51-20.22v-14.81c0-3.42-.85-5.69-4.84-5.69-4.84,0-6.26,2.56-6.26,10.54s1.71,9.97,6.55,9.97h4.56Z"/>
      <path class="cls-6" d="m1241.11,513.12c-12.53,0-26.2,3.7-37.3,9.68l11.1,17.08v56.09c3.7-1.71,7.69-2.85,12.24-2.85,7.97,0,19.08,3.7,19.08,22.5v15.38c0,21.07-10.25,27.34-27.05,27.34-15.38,0-27.62-5.69-27.62-29.33v-85.14l-9.4-14.52v-11.39c12.81-11.39,35.88-22.49,60.37-22.49,27.91,0,46.98,10.54,46.98,43.85v89.69c8.54-12.81,22.78-25.06,36.16-31.32v-91.69l5.13-7.97h18.22v95.1c9.11.85,14.81,5.98,14.81,20.22v21.93c0,16.23-8.54,23.06-23.92,23.06-16.8,0-24.49-5.69-24.49-23.35v-12.81c-9.97,8.54-18.51,20.5-25.63,34.45h-22.21v-115.04c0-22.49-10.25-28.47-26.48-28.47Zm-20.5,131.27c4.84,0,6.83-2.28,6.83-10.25v-18.79c0-9.11-2.56-10.54-9.11-10.54h-4.56v29.33c0,7.97,1.99,10.25,6.83,10.25Zm125.57-28.76c0-6.55-1.99-9.97-6.55-9.97-3.13,0-5.41,1.14-7.12,2.56v26.77c0,7.69,2.85,9.4,6.83,9.4,4.27,0,6.83-1.42,6.83-9.4v-19.36Z"/>
      <path class="cls-6" d="m1385.77,582.88c0-31.61,17.94-38.73,34.46-38.73,13.95,0,28.76,5.98,38.72,15.09v-11.96c0-26.77-11.39-34.17-33.03-34.17-15.38,0-30.75,3.42-43.28,7.4v-16.8c14.81-5.41,31.32-8.26,49.55-8.26,11.11,0,23.06,2.85,29.9,7.4l19.93-14.24,10.82,17.37-20.22,9.68c7.4,7.97,9.97,18.79,9.97,34.17v99.09l-4.84,7.97h-18.79v-84.57c-7.69-6.83-22.49-10.54-33.6-10.54-13.67,0-17.65,7.97-17.65,21.07v13.1c3.7-1.71,7.97-2.85,12.53-2.85,7.97,0,19.08,3.7,19.08,22.5v14.52c0,21.07-9.68,28.19-26.48,28.19s-27.05-5.41-27.05-29.33v-46.13Zm27.91,61.5c4.84,0,6.83-2.28,6.83-10.25v-18.79c0-9.11-2.56-10.54-9.11-10.54h-4.55v29.33c0,7.97,1.99,10.25,6.83,10.25Z"/>
      <path class="cls-6" d="m1515.33,617.62c0-19.36,11.1-24.49,22.49-24.49,2.28,0,4.27.28,6.26.57v-34.45c-3.7,1.71-7.69,2.85-12.24,2.85-7.97,0-19.08-3.42-19.08-22.49v-15.38c0-21.36,12.81-27.34,29.04-27.34,13.95,0,25.34,6.26,25.34,24.2v80.01c11.39,5.98,27.91,18.79,39.87,31.04v-126.14l5.12-7.97h18.51v158.6h-22.49c-12.53-14.81-27.62-28.76-41-37.87v10.25c0,23.63-13.1,29.33-27.33,29.33s-24.49-5.69-24.49-24.2v-16.52Zm29.9-67.2v-28.47c0-8.54-1.71-11.1-6.55-11.1s-7.12,2.28-7.12,10.25v18.79c0,9.11,2.56,10.54,9.11,10.54h4.56Zm1.71,54.39h-4.84c-5.98,0-7.97,1.42-7.97,10.54v18.79c0,7.97,1.71,10.25,6.55,10.25,4.27,0,6.26-2.28,6.26-10.25v-29.33Z"/>
      <path class="cls-6" d="m1706.68,521.09v117.88h30.47c12.24,0,17.08-3.13,17.08-17.08v-115.89l5.13-7.97h18.51v122.44c0,22.49-6.55,36.16-29.61,36.16h-74.6v-12.81l9.68-9.97v-74.6c-3.7,1.71-7.69,2.85-12.24,2.85-7.97,0-18.79-3.7-19.08-22.49v-15.38c0-21.36,12.81-27.34,29.04-27.34,14.24,0,25.63,6.26,25.63,24.2Zm-22.21,29.33v-28.47c0-8.54-1.71-11.1-6.55-11.1s-7.12,2.28-7.12,10.25v18.79c0,9.11,2.56,10.54,9.11,10.54h4.56Z"/>
      <path class="cls-6" d="m1748.26,484.36c-25.06,0-36.73-10.54-36.73-29.61,0-12.53,6.26-23.06,22.78-23.06,15.09,0,21.07,8.26,21.07,21.07,0,5.69-1.99,11.39-5.41,15.95,13.95-.28,33.31-3.7,49.54-10.82v14.52c-15.66,7.97-32.18,11.96-51.25,11.96Zm-13.67-41.57c-5.13,0-6.83,3.99-6.83,10.82,0,10.25,5.41,17.37,12.53,17.37h.57v-16.8c0-7.97-.85-11.39-6.26-11.39Z"/>
      <path class="cls-6" d="m1834.82,635.56l16.52-18.22c6.55-7.12,11.67-10.82,19.93-15.38-2.56.85-5.12,1.42-7.4,1.42-8.54,0-15.66-3.99-15.66-20.79v-15.66c0-17.65,8.26-24.49,23.35-24.49,13.95,0,21.36,6.83,21.36,26.2v15.38c0,19.36-17.65,32.75-27.34,42.71l-28.76,29.9h-21.64v-116.75c0-26.2,9.4-41.57,31.61-44.42l24.77,13.95,24.49-13.95c21.07,2.56,30.75,16.52,30.75,44.42v109.06l-5.12,7.97h-17.37v-116.18c0-18.51-3.7-22.49-11.11-25.63l-22.21,12.53-22.49-12.53c-7.4,3.13-11.39,7.69-11.39,25.63v59.23c0,8.54-.57,22.49-2.28,35.59Zm41.57-42.14v-29.04c0-6.26-1.14-9.11-5.98-9.11-5.41,0-6.55,2.85-6.55,9.11v20.5c0,6.55,1.71,8.54,5.41,8.54h7.12Z"/>
      <path class="cls-6" d="m1825.99,482.65v-4.84c0-17.65,9.4-33.31,33.32-33.31s47.84,11.39,66.06,33.31l-1.99,4.84h-19.65c-11.67-13.67-27.33-21.36-41.86-21.36-12.53,0-16.51,8.54-16.51,17.94v3.42h-19.36Z"/>
    </g>
    <rect class="cls-3" x="990.19" y="762.39" width="990" height="381.19"/>
    <g>
      <path d="m1086.06,885.95l3.13-3.13h5.41v100.51c2.28-1.14,5.69-2.56,9.4-2.56,10.54,0,17.65,5.12,17.65,23.63v9.11c0,18.51-4.84,25.63-18.22,25.63-12.24,0-17.37-6.83-17.37-23.35v-129.84Zm18.22,146.93c6.26,0,9.4-3.7,9.4-14.52v-15.95c0-11.1-3.42-15.95-11.96-15.95h-7.12v31.89c0,11.1,3.42,14.52,9.68,14.52Z"/>
      <path d="m1206.22,937.49c-2.28,1.14-5.7,2.56-9.4,2.56-10.54,0-17.65-5.13-17.65-23.63v-9.11c0-18.51,5.98-25.63,18.79-25.63,11.96,0,16.8,6.83,16.8,23.35v102.79c0,21.64-5.13,30.18-26.2,30.18h-19.36l-35.02-142.09,7.97-1.99,34.17,136.96h9.11c15.66,0,20.79-3.42,20.79-20.22v-73.18Zm0-3.13v-31.89c0-11.1-2.56-14.52-8.83-14.52-7.12,0-10.25,3.7-10.25,14.52v15.95c0,11.1,3.42,15.95,11.96,15.95h7.12Z"/>
      <path d="m1124.22,866.02v-3.13c0-17.08,9.11-32.46,31.61-32.46,18.79,0,40.72,12.24,58.94,32.18v3.42h-6.55c-17.08-18.51-37.3-28.76-52.96-28.76-17.37,0-23.63,12.53-23.63,26.77v1.99h-7.4Z"/>
      <path d="m1273.14,937.49c-2.28,1.14-5.7,2.56-9.4,2.56-10.54,0-17.65-5.13-17.65-23.63v-9.11c0-18.51,5.98-25.63,18.79-25.63,11.96,0,16.8,6.83,16.8,23.35v122.44c11.96-17.65,35.02-40.72,49.55-46.13.85-.29,2.28-.57,4.27-.85v-94.53l3.13-3.13h5.41v97.38c8.54.85,13.38,7.12,13.38,18.22v18.51c0,16.23-7.4,22.21-17.37,22.21s-17.37-4.56-17.37-20.79v-25.91c-12.53,9.68-31.04,29.04-41.29,45.56h-8.26v-100.51Zm0-3.13v-31.89c0-11.1-2.56-14.52-8.83-14.52-7.12,0-10.25,3.7-10.25,14.52v15.95c0,11.1,3.42,15.95,11.96,15.95h7.12Zm76.31,64.92c0-7.97-2.56-13.1-9.11-13.1-4.27,0-7.97,1.42-9.97,2.85v31.32c0,9.68,4.84,12.24,9.68,12.24s9.4-2.56,9.4-12.24v-21.07Z"/>
      <path d="m1408.4,937.49c-2.28,1.14-5.7,2.56-9.4,2.56-10.54,0-17.65-5.13-17.65-23.63v-9.11c0-18.51,5.98-25.63,18.79-25.63,11.96,0,16.8,6.83,16.8,23.35v125.57h41.29c15.66,0,20.5-3.42,20.5-20.22v-181.38l3.13-3.13h5.41v181.95c0,21.64-5.41,30.18-26.48,30.18h-60.94v-5.7l8.54-5.98v-88.84Zm0-3.13v-31.89c0-11.1-2.56-14.52-8.83-14.52-7.12,0-10.25,3.7-10.25,14.52v15.95c0,11.1,3.42,15.95,11.96,15.95h7.12Z"/>
      <path d="m1420.64,866.87c-23.92,0-30.75-9.68-30.75-27.34,0-11.67,3.42-21.93,17.08-21.93,12.24,0,15.38,7.12,15.38,23.06,0,10.54-1.42,17.08-3.99,19.65,17.08,0,32.18-3.99,47.84-13.1v6.55c-14.81,9.4-29.9,13.1-45.56,13.1Zm-13.67-42.71c-6.83,0-9.4,4.84-9.4,16.51,0,12.24,5.41,19.65,16.8,19.65h.57v-18.79c0-12.81-.85-17.37-7.97-17.37Z"/>
      <path d="m1545.65,937.49c-2.28,1.14-5.7,2.56-9.4,2.56-10.54,0-17.65-5.13-17.65-23.63v-9.11c0-18.51,5.98-25.63,18.79-25.63,11.96,0,16.8,6.83,16.8,23.35v122.44c11.96-17.65,35.02-40.72,49.55-46.13.85-.29,2.28-.57,4.27-.85v-94.53l3.13-3.13h5.41v97.38c8.54.85,13.38,7.12,13.38,18.22v18.51c0,16.23-7.4,22.21-17.37,22.21s-17.37-4.56-17.37-20.79v-25.91c-12.53,9.68-31.04,29.04-41.29,45.56h-8.26v-100.51Zm0-3.13v-31.89c0-11.1-2.56-14.52-8.83-14.52-7.12,0-10.25,3.7-10.25,14.52v15.95c0,11.1,3.42,15.95,11.96,15.95h7.12Zm76.31,64.92c0-7.97-2.56-13.1-9.11-13.1-4.27,0-7.97,1.42-9.97,2.85v31.32c0,9.68,4.84,12.24,9.68,12.24s9.4-2.56,9.4-12.24v-21.07Z"/>
      <path d="m1716.21,972.79l-37.02,65.21h-8.54v-132.69c0-16.51,5.98-23.63,19.08-23.63,11.67,0,16.51,7.12,16.51,25.63v9.11c0,18.51-7.12,23.63-17.65,23.63-3.7,0-7.12-1.42-9.4-2.56v37.02c0,14.81-.28,35.88-1.71,53.53,3.13-5.98,6.55-12.24,9.97-18.51l25.91-45.56h5.7l24.77,44.13c3.99,7.12,7.69,13.95,11.1,20.79-1.42-17.65-1.99-38.73-1.99-54.1v-88.56l3.13-3.42h5.41v155.19h-8.54l-36.73-65.21Zm-37.02-70.33v31.89h7.12c8.54,0,11.96-4.84,11.96-15.95v-15.95c0-10.82-2.56-14.52-8.83-14.52-7.12,0-10.25,3.42-10.25,14.52Z"/>
      <path d="m1834.38,936.06c-19.36,0-25.63,13.38-25.63,30.75v16.8c2.28-1.42,5.98-2.85,9.68-2.85,10.54,0,17.65,5.12,17.65,23.63v9.11c0,18.51-4.84,25.63-18.22,25.63-12.24,0-17.37-6.83-17.37-23.35v-48.41c0-31.61,18.51-37.87,33.88-37.87s29.61,6.83,39.29,13.95v-14.81c0-31.61-11.67-41.29-35.02-41.29-13.95,0-28.76,4.27-40.72,9.97v-7.12c13.38-5.98,25.91-9.68,43-9.68,27.34,0,41.29,13.95,41.29,45.84v109.06l-3.13,3.13h-5.41v-88.56c-10.82-7.69-25.06-13.95-39.29-13.95Zm-15.66,96.81c6.26,0,9.4-3.7,9.4-14.52v-15.95c0-11.1-3.42-15.95-11.96-15.95h-7.4v31.89c0,11.1,3.42,14.52,9.97,14.52Z"/>
    </g>
  </g>
</svg>