<?xml version="1.0" encoding="UTF-8"?>
<svg id="Layer_2" data-name="Layer 2" xmlns="http://www.w3.org/2000/svg" viewBox="0 0 1980 1273.33">
  <defs>
    <style>
      .cls-1 {
        fill: #f0f0e6;
      }

      .cls-2 {
        fill: #ff4628;
      }

      .cls-3 {
        fill: #4576cc;
      }
    </style>
  </defs>
  <rect class="cls-2" x="0" y="0" width="990" height="636.67"/>
  <rect class="cls-1" x="990.26" y="0" width="990" height="636.67"/>
  <g>
    <path class="cls-3" d="m1257.45,112.09v41.45h13.72c4.98,0,6.3-1.88,6.3-6.49v-60.91l4.23-3.29h3.85v60.34c0,9.12-2.26,14.85-12.12,14.85h-28.67v-3.2l4.61-2.26v-29.33l-2.35,1.22c-6.77,0-8.55-2.73-8.55-9.12v-4.42c0-6.11,3.48-8.65,9.96-8.65s9.02,3.38,9.02,9.78Zm-7.43,8.65v-9.87c0-2.91-.75-4.42-3.2-4.42-2.16,0-3.48,1.13-3.48,4.51v4.7c0,3.76,1.13,5.08,3.85,5.08h2.82Z"/>
    <path class="cls-3" d="m1239.5,95.73v-3.1c0-5.17,2.63-10.25,11.66-10.25,6.67,0,12.41,3.57,15.79,7.14v-7.14h7.14v13.35h-34.59Zm6.86-3.76h17.86c-4.04-3.48-9.21-5.83-12.97-5.83-3.38,0-4.89,1.79-4.89,5.26v.56Z"/>
    <path class="cls-3" d="m1329.73,123.84l-11.37,34.21h-9.02v-34.97l-2.73,1.41c-6.77,0-8.55-2.73-8.55-9.12v-4.42c0-6.2,3.48-8.65,9.87-8.65s9.12,3.38,9.12,9.78v11.84c0,6.77-.28,19.64-2.16,28.86h.47l11.94-38.91h5.17l11.75,38.91h.47c-1.22-9.31-1.88-21.62-1.88-28.86v-17.76l4.32-3.29h3.2v55.17h-9.96l-10.62-34.21Zm-20.12-3.1v-9.87c0-2.91-.75-4.42-3.2-4.42-2.16,0-3.48,1.13-3.48,4.51v4.7c0,3.76,1.13,5.08,3.85,5.08h2.82Z"/>
    <path class="cls-3" d="m1373.16,158.99c-3.95,0-5.92-2.07-5.92-5.92v-1.13c0-3.85,1.97-6.02,5.92-6.02s5.92,2.16,5.92,6.02v1.13c0,3.85-1.97,5.92-5.92,5.92Z"/>
    <path class="cls-3" d="m1439.52,155.52l-4.14,3.29h-3.76v-37.6c0-11.09-6.2-14.66-13.91-14.66-8.37,0-14.76,4.42-14.76,14.66v11c0,4.14-.56,9.4-.85,14.1l4.89-16.54c1.97-6.58,4.7-9.4,10.43-9.4,4.7,0,7.24,2.82,7.24,7.14v4.7c0,5.55-3.57,7.52-7.52,7.52-4.23,0-6.39-2.26-6.39-6.49v-.28l-7.8,25.1h-7.71v-36.47c0-12.6,9.02-19.93,22.56-19.93,5.64,0,12.03,1.5,15.41,5.17l8.27-6.86,3.48,5.92-8.55,4.51c2.16,2.44,3.1,5.92,3.1,10.15v34.97Zm-22.28-19.17c1.79,0,2.73-.75,2.73-3.95v-5.08c0-2.44-1.13-3.48-3.01-3.48-1.03,0-1.88.38-2.63,1.03v7.33c0,3.2,1.03,4.14,2.91,4.14Z"/>
    <path class="cls-3" d="m1461.99,158.99c-3.95,0-5.92-2.07-5.92-5.92v-1.13c0-3.85,1.97-6.02,5.92-6.02s5.92,2.16,5.92,6.02v1.13c0,3.85-1.97,5.92-5.92,5.92Z"/>
    <path class="cls-3" d="m1511.62,95.73h4.04v58h24.06c7.33,0,10.53-.94,10.53-6.2v-31.86c0-3.1-.94-5.08-3.01-6.39l-7.05,3.85-6.58-3.85c-2.54.85-4.04,4.14-4.04,7.43v3.95c1.6-.85,3.2-1.5,4.32-1.5,5.36,0,7.99,2.44,7.99,9.68s-2.91,11-8.84,11c-7.99,0-11.18-4.51-11.18-13.82,0-12.88,1.69-19.08,12.22-21.71l6.3,3.85,6.67-3.85c7.24,1.22,11.47,5.45,11.47,12.31v27.35c0,12.5-6.02,14.1-14.85,14.1h-36.28v-59.03l4.23-3.29Zm21.43,40.14c2.16,0,3.1-1.22,3.1-4.79v-4.04c0-3.1-1.22-4.32-4.23-4.32h-2.44v8.65c0,3.48,1.13,4.51,3.57,4.51Z"/>
    <path class="cls-3" d="m1620.1,158.05h-27.35c-12.78,0-18.8-5.92-18.8-21.62v-9.4c0-15.7,9.02-20.68,17.67-21.62-1.79-2.16-2.16-4.98-2.16-7.33,0-4.89,2.16-8.93,9.02-8.93s9.02,4.04,9.02,8.93c0,2.26-.56,5.17-2.16,7.05,6.11-.38,7.9-2.26,9.49-7.99l.94-3.29,6.58,1.22-.66,2.91c-1.6,7.24-4.89,11.66-19.08,11.66h-6.86c-8.55,0-13.54,5.64-13.54,18.14v7.61c0,12.41,4.04,17.95,12.22,17.95h11.75c-7.05-4.13-10.25-12.22-10.25-20.21v-1.32c0-5.83,3.1-9.87,9.78-9.87s8.74,4.32,8.74,10.34c0,6.96-2.07,9.78-8.83,9.68l-2.07-1.22c1.97,6.96,6.11,12.59,13.07,12.59h3.48v4.7Zm-21.62-52.92c2.63,0,3.38-1.13,3.38-6.2s-.75-6.2-3.38-6.2-3.38,1.13-3.38,6.2.75,6.2,3.38,6.2Zm4.61,34.03h1.97c2.44,0,3.85-1.22,3.85-4.98v-3.48c0-3.57-1.22-4.79-3.1-4.79-2.54,0-3.57,1.41-3.57,6.39,0,2.63.28,4.7.85,6.86Z"/>
    <path class="cls-3" d="m1649.52,159.56c-14,0-20.4-8.18-20.4-18.8,0-8.08,3.76-11.56,9.59-11.56,4.7,0,8.55,1.6,8.55,9.68s-2.82,11.09-7.14,11.09l-2.82-1.5c1.6,3.76,5.64,6.39,11.84,6.39,8.74,0,15.32-6.2,15.32-23.12s-5.55-23.03-14.38-23.03c-7.8,0-12.41,6.2-14.19,10.9h-6.02l-4.7-24.25,6.67-1.22,3.1,18.42c3.1-4.89,9.31-8.55,16.54-8.55,12.88,0,21.43,8.08,21.43,27.73,0,21.24-11.94,27.82-23.41,27.82Zm-14-19.17c0,1.5.28,4.7,1.13,6.77h2.07c2.07,0,3.38-1.69,3.38-6.58v-2.07c0-3.95-1.22-5.26-3.29-5.26s-3.29,1.32-3.29,5.26v1.88Z"/>
    <path class="cls-3" d="m1731.67,158.05h-27.35c-12.78,0-18.8-5.92-18.8-21.62v-9.4c0-17.95,11.75-22.09,21.24-22.09h7.05c8.65,0,10.71-1.41,12.59-7.8l.94-3.29,6.58,1.22-.66,2.91c-1.6,7.24-4.89,11.66-19.08,11.66h-6.86c-8.55,0-13.54,5.64-13.54,18.14v7.61c0,12.41,4.04,17.95,12.22,17.95h11.75c-7.05-4.13-10.25-12.22-10.25-20.21v-1.32c0-5.83,3.1-9.87,9.78-9.87s8.74,4.32,8.74,10.34c0,6.96-2.07,9.78-8.83,9.68l-2.07-1.22c1.97,6.96,6.11,12.59,13.07,12.59h3.48v4.7Zm-11.18-27.35c0-3.57-1.22-4.79-3.1-4.79-2.54,0-3.57,1.41-3.57,6.39,0,2.63.28,4.7.85,6.86h1.97c2.44,0,3.85-1.22,3.85-4.98v-3.48Z"/>
    <path class="cls-3" d="m1187.04,272.36c-13.63,0-19.65-3.29-19.65-15.51v-12.97c0-8.65,4.14-11.75,10.15-11.75,5.64,0,8.18,2.91,8.18,7.9v5.36c0,5.36-2.26,8.37-7.9,8.46l-2.73-1.88v4.04c0,9.21,2.54,11.66,12.03,11.66,8.65,0,11.19-2.91,11.19-13.72v-21.34c0-9.87-5.45-13.25-13.16-13.25-7.14,0-14.19,2.91-18.14,5.36l-1.5-3.48c3.95-2.63,11.94-6.77,22.09-6.77s18.8,4.32,18.8,18.05v21.99c0,12.31-4.98,17.86-19.36,17.86Zm-12.13-30.92v8.74h2.44c2.44,0,3.48-1.03,3.48-4.51v-4.23c0-3.85-.75-4.98-2.73-4.98-2.16,0-3.2,1.13-3.2,4.98Z"/>
    <path class="cls-3" d="m1239.02,228.84c0-7.14-3.85-9.49-9.21-9.49-5.83,0-11.18,2.35-15.04,4.79l-1.69-3.48c3.48-2.44,11.37-6.2,19.36-6.2s14.66,3.76,14.66,15.32v38.54l-4.23,3.29h-3.85v-42.77Z"/>
    <path class="cls-3" d="m1262.24,267.66l3.67-2.26v-7.05c0-4.61,1.41-7.71,4.7-9.4-6.58-1.32-8.18-5.73-8.18-14.95v-9.12c0-6.39,3.67-9.78,9.87-9.78s8.74,3.01,8.74,8.65v4.42c0,5.08-1.6,9.12-8.55,9.12l-2.82-1.5v1.13c0,6.58,3.38,8.18,10.43,8.18h3.1v4.23h-4.42c-4.42,0-5.64,2.63-5.64,7.61v9.4h14.76c4.98,0,6.3-1.88,6.3-6.49v-40.89l4.23-3.29h3.85v40.32c0,9.12-2.26,14.85-12.12,14.85h-27.92v-3.2Zm7.24-43.99v9.87h3.38c2.16,0,3.29-1.32,3.29-5.08v-4.7c0-3.38-1.03-4.51-3.2-4.51-2.73,0-3.48,1.5-3.48,4.42Z"/>
    <path class="cls-3" d="m1298.43,298.02h-3.1v-8.27l-2.16,1.41c-5.45.28-7.99-1.88-7.99-7.14s3.01-7.9,8.84-7.9c4.61,0,8.27,1.5,8.27,7.14v11.66l-3.85,3.1Zm-3.1-9.4v-6.2c0-1.97-.38-3.29-2.35-3.29-1.69,0-2.63,1.13-2.63,4.89,0,3.95,1.03,4.61,2.82,4.61h2.16Z"/>
    <path class="cls-3" d="m1353.33,265.4c-.38-1.69-.47-3.38-.47-5.17,0-4.32,2.35-8.37,8.18-8.37s8.18,3.1,8.18,9.68c0,7.05-3.2,10.81-10.53,10.81-12.22,0-17.01-10.81-17.01-29.7,0-15.42,5.26-25.85,17.01-25.85,5.55,0,9.02,1.88,10.53,7.14,2.35-5.08,6.58-7.14,11.47-7.14,8.74,0,12.97,6.11,12.97,14.76v36.75l-4.14,3.29h-4.14v-40.98c0-6.2-1.88-9.12-6.2-9.12-4.04,0-6.77,2.73-6.77,8.93v10.81h-7.9v-10.81c0-6.49-2.26-9.02-5.92-9.02-5.83,0-8.65,7.24-8.65,20.77,0,10.43.75,18.71,3.38,23.22Zm4.51,3.48c.47.09.94.19,1.5.19,3.29,0,4.42-2.26,4.42-7.05s-.75-6.11-3.29-6.11c-2.16,0-3.29,1.32-3.29,4.7,0,2.73,0,5.83.66,8.27Z"/>
    <path class="cls-3" d="m1437.83,279.03l-2.54-2.26c7.8-9.96,12.31-20.58,12.31-33.27,0-16.45-6.3-21.99-16.54-21.99-12.03,0-16.54,10.62-16.54,22.56,0,8.55,1.32,17.11,7.14,20.21-1.13-1.88-1.5-4.13-1.5-7.24,0-4.32,2.26-8.65,8.08-8.65,6.2,0,8.74,3.1,8.74,9.68,0,7.14-4.14,11-11.56,11-10.62,0-19.17-8.83-19.17-26.32s10.9-25.94,24.81-25.94c16.36,0,25,9.31,25,26.32,0,13.91-6.67,25.47-18.23,35.91Zm-6.3-20.49c0-4.79-.75-6.11-3.29-6.11-2.35,0-3.29,1.32-3.29,4.7,0,2.73.28,5.92.85,8.37.38.09.85.09,1.32.09,3.29,0,4.42-2.26,4.42-7.05Z"/>
    <path class="cls-3" d="m1505.7,224.89v41.45h13.72c4.98,0,6.3-1.88,6.3-6.49v-60.91l4.23-3.29h3.85v60.34c0,9.12-2.26,14.85-12.12,14.85h-28.67v-3.2l4.61-2.26v-29.33l-2.35,1.22c-6.77,0-8.55-2.73-8.55-9.12v-4.42c0-6.11,3.48-8.65,9.96-8.65s9.02,3.38,9.02,9.78Zm-7.43,8.65v-9.87c0-2.91-.75-4.42-3.2-4.42-2.16,0-3.48,1.13-3.48,4.51v4.7c0,3.76,1.13,5.08,3.85,5.08h2.82Z"/>
    <path class="cls-3" d="m1487.75,208.53v-3.1c0-5.17,2.63-10.25,11.66-10.25,6.67,0,12.41,3.57,15.79,7.14v-7.14h7.14v13.35h-34.59Zm6.86-3.76h17.86c-4.04-3.48-9.21-5.83-12.97-5.83-3.38,0-4.89,1.79-4.89,5.26v.56Z"/>
    <path class="cls-3" d="m1564.64,224.89v41.45h13.72c4.98,0,6.3-1.88,6.3-6.49v-40.89l4.23-3.29h3.85v40.32c0,9.12-2.26,14.85-12.12,14.85h-28.67v-3.2l4.61-2.26v-29.33l-2.35,1.22c-6.77,0-8.55-2.73-8.55-9.12v-4.42c0-6.2,3.48-8.65,9.96-8.65s9.02,3.38,9.02,9.78Zm-7.42,8.65v-9.87c0-2.91-.75-4.42-3.2-4.42-2.16,0-3.48,1.13-3.48,4.51v4.7c0,3.76,1.13,5.08,3.85,5.08h2.82Z"/>
    <path class="cls-3" d="m1620.1,271.51c-6.58,0-9.02-2.63-9.02-9.68v-4.7c0-4.14,1.88-8.18,8.08-8.18l3.76,2.16v-5.73c0-8.37-2.44-10.9-19.55-14.95,1.22-8.74,3.76-15.98,11.84-15.98,6.86,0,13.35,1.32,19.46,3.1l-1.03,5.92c-7.05-1.79-12.59-3.1-17.76-3.1-4.61,0-6.58,2.82-7.61,7.52,15.88,2.91,22.37,6.11,22.37,16.26v16.54c0,7.61-2.54,10.81-10.53,10.81Zm2.91-8.65v-9.96h-2.91c-2.63,0-3.76,1.32-3.76,5.08v4.89c0,3.29,1.22,4.32,3.2,4.32,2.35,0,3.48-1.32,3.48-4.32Z"/>
    <path class="cls-3" d="m1602.05,208.53v-3.29c0-5.36,2.44-10.25,10.43-10.25,10.43,0,18.33,5.26,22.37,10.53v3.01h-32.8Zm6.86-3.76h19.08c-4.23-3.76-8.93-6.02-14.1-6.02-3.01,0-4.98,1.79-4.98,5.26v.75Z"/>
    <path class="cls-3" d="m1658.73,224.89v41.45h13.72c4.98,0,6.3-1.88,6.3-6.49v-40.89l4.23-3.29h3.85v40.32c0,9.12-2.26,14.85-12.12,14.85h-28.67v-3.2l4.61-2.26v-29.33l-2.35,1.22c-6.77,0-8.55-2.73-8.55-9.12v-4.42c0-6.2,3.48-8.65,9.96-8.65s9.02,3.38,9.02,9.78Zm-7.42,8.65v-9.87c0-2.91-.75-4.42-3.2-4.42-2.16,0-3.48,1.13-3.48,4.51v4.7c0,3.76,1.13,5.08,3.85,5.08h2.82Z"/>
    <path class="cls-3" d="m1683.64,276.68h3.2v13.91c0,4.51-2.07,6.49-6.2,6.49h-12.88v-7.43l-2.63,1.6c-5.26,0-7.52-1.13-7.52-7.14,0-5.08,2.73-7.9,8.55-7.9,4.61,0,7.99,1.32,7.99,6.96v10.43h2.82c2.16,0,2.82-.66,2.82-2.73v-10.9l3.85-3.29Zm-15.88,12.03v-6.2c0-1.97-.38-3.29-2.35-3.29-1.69,0-2.63,1.13-2.63,4.79,0,4.04,1.03,4.7,2.82,4.7h2.16Z"/>
    <path class="cls-3" d="m1714.19,271.51c-6.58,0-9.02-2.63-9.02-9.68v-4.7c0-4.14,1.88-8.18,8.08-8.18l3.76,2.16v-5.73c0-8.37-2.44-10.9-19.55-14.95,1.22-8.74,3.76-15.98,11.84-15.98,6.86,0,13.35,1.32,19.46,3.1l-1.03,5.92c-7.05-1.79-12.59-3.1-17.76-3.1-4.61,0-6.58,2.82-7.61,7.52,15.88,2.91,22.37,6.11,22.37,16.26v16.54c0,7.61-2.54,10.81-10.53,10.81Zm2.91-8.65v-9.96h-2.91c-2.63,0-3.76,1.32-3.76,5.08v4.89c0,3.29,1.22,4.32,3.2,4.32,2.35,0,3.48-1.32,3.48-4.32Z"/>
    <path class="cls-3" d="m1777.26,262.86c3.01-4.89,9.21-10.15,13.54-11.56v-32.33l4.23-3.29h3.85v33.56c3.76.38,5.92,3.1,5.92,7.8v5.26c0,7.14-2.63,9.21-8.46,9.21s-8.46-2.26-8.46-9.21v-5.08c-4.04,3.01-9.02,8.83-10.62,13.63h-7.9v-40.14c0-8.65-5.17-11.37-11.37-11.37-6.96,0-12.78,3.29-16.92,6.49l7.52,7.71v17.76l3.67-1.79c6.2,0,7.71,3.85,7.71,7.8v4.7c0,6.86-3.1,9.49-9.68,9.49-7.24,0-9.59-3.2-9.59-10.81v-26.6l-6.3-6.2v-2.82c4.51-4.23,14.85-10.62,25.19-10.62,11.75,0,17.67,5.08,17.67,17.95v30.45Zm-25.38,4.51c1.97,0,3.2-1.03,3.2-4.32v-4.89c0-3.76-1.13-5.08-3.76-5.08h-2.91v9.96c0,3.01,1.13,4.32,3.48,4.32Zm44.93,0c1.88,0,3.1-.75,3.1-4.79v-5.36c0-2.91-1.03-4.04-3.1-4.04-1.13,0-2.35.47-3.2,1.03v8.37c0,3.48.75,4.79,3.2,4.79Z"/>
    <path class="cls-3" d="m1791.37,209.85c-4.89,0-7.89-2.35-7.89-8.08,0-4.04,1.97-9.3,9.4-11.56l7.43-2.26,1.32,3.57-7.9,3.01c-1.88.75-3.01,1.79-3.67,3.2l2.44-1.32c4.23-.19,6.77,1.41,6.77,6.39s-2.63,7.05-7.9,7.05Zm2.82-6.86c0-3.01-.66-4.04-3.57-4.04h-1.03c-.38,1.22-.47,2.54-.47,4.04,0,3.2.85,3.85,2.63,3.85,1.5,0,2.44-.66,2.44-3.85Z"/>
    <path class="cls-3" d="m1136.52,357.43c0-16.54,8.74-27.82,25.19-27.82s25.19,11.28,25.19,27.82-8.74,27.73-25.19,27.73-25.19-11.19-25.19-27.73Zm41.92,0c0-14.38-5.64-23.12-16.73-23.12s-16.73,8.74-16.73,23.12,5.64,23.03,16.73,23.03,16.73-8.55,16.73-23.03Z"/>
    <path class="cls-3" d="m1218.58,385.16c-14,0-20.4-8.18-20.4-18.8,0-8.08,3.76-11.56,9.59-11.56,4.7,0,8.55,1.6,8.55,9.68s-2.82,11.09-7.14,11.09l-2.82-1.5c1.6,3.76,5.64,6.39,11.84,6.39,8.74,0,15.32-6.2,15.32-23.12s-5.55-23.03-14.38-23.03c-7.8,0-12.41,6.2-14.19,10.9h-6.02l-4.7-24.25,6.67-1.22,3.1,18.42c3.1-4.89,9.31-8.55,16.54-8.55,12.88,0,21.43,8.08,21.43,27.73,0,21.24-11.94,27.82-23.41,27.82Zm-14-19.17c0,1.5.28,4.7,1.13,6.77h2.07c2.07,0,3.38-1.69,3.38-6.58v-2.07c0-3.95-1.22-5.26-3.29-5.26s-3.29,1.32-3.29,5.26v1.88Z"/>
    <path class="cls-3" d="m1300.73,383.65h-27.35c-12.78,0-18.8-5.92-18.8-21.62v-9.4c0-15.7,9.02-20.68,17.67-21.62-1.79-2.16-2.16-4.98-2.16-7.33,0-4.89,2.16-8.93,9.02-8.93s9.02,4.04,9.02,8.93c0,2.26-.56,5.17-2.16,7.05,6.11-.38,7.9-2.26,9.49-7.99l.94-3.29,6.58,1.22-.66,2.91c-1.6,7.24-4.89,11.66-19.08,11.66h-6.86c-8.55,0-13.54,5.64-13.54,18.14v7.61c0,12.41,4.04,17.95,12.22,17.95h11.75c-7.05-4.13-10.25-12.22-10.25-20.21v-1.32c0-5.83,3.1-9.87,9.78-9.87s8.74,4.32,8.74,10.34c0,6.96-2.07,9.78-8.83,9.68l-2.07-1.22c1.97,6.96,6.11,12.59,13.07,12.59h3.48v4.7Zm-21.62-52.92c2.63,0,3.38-1.13,3.38-6.2s-.75-6.2-3.38-6.2-3.38,1.13-3.38,6.2.75,6.2,3.38,6.2Zm4.61,34.03h1.97c2.44,0,3.85-1.22,3.85-4.98v-3.48c0-3.57-1.22-4.79-3.1-4.79-2.54,0-3.57,1.41-3.57,6.39,0,2.63.28,4.7.85,6.86Z"/>
    <path class="cls-3" d="m1311.07,353.29h26.6v6.39h-26.6v-6.39Z"/>
    <path class="cls-3" d="m1363.34,378.2c-.38-1.69-.47-3.38-.47-5.17,0-4.32,2.35-8.37,8.18-8.37s8.18,3.1,8.18,9.68c0,7.05-3.2,10.81-10.53,10.81-12.22,0-17.01-10.81-17.01-29.7,0-15.42,5.26-25.85,17.01-25.85,5.55,0,9.02,1.88,10.53,7.14,2.35-5.08,6.58-7.14,11.47-7.14,8.74,0,12.97,6.11,12.97,14.76v36.75l-4.14,3.29h-4.14v-40.98c0-6.2-1.88-9.12-6.2-9.12-4.04,0-6.77,2.73-6.77,8.93v10.81h-7.89v-10.81c0-6.49-2.26-9.02-5.92-9.02-5.83,0-8.65,7.24-8.65,20.77,0,10.43.75,18.7,3.38,23.22Zm4.51,3.48c.47.09.94.19,1.5.19,3.29,0,4.42-2.26,4.42-7.05s-.75-6.11-3.29-6.11c-2.16,0-3.29,1.32-3.29,4.7,0,2.73,0,5.83.66,8.27Z"/>
    <path class="cls-3" d="m1442.3,335.25c-9.49,0-14.95,6.02-14.95,19.17v4.7c0,7.8,1.79,14.57,6.2,19.36l6.67-6.96c2.91,5.92,6.96,8.37,11.18,8.37s7.24-2.35,7.24-7.8l-2.73,1.5c-5.73,0-8.55-3.01-8.55-9.78s2.26-10.81,8.93-10.81,9.4,3.85,9.4,9.78v6.67c0,8.18-3.76,15.13-14.29,15.13-4.61,0-9.49-2.16-11.94-6.58l-5.36,5.64h-5.08c-4.79-4.98-9.96-12.22-9.96-24.53v-4.7c0-19.46,12.6-23.87,22.65-23.87h5.64c8.65,0,10.71-1.41,12.59-7.8l.94-3.29,6.58,1.22-.66,2.91c-1.6,7.24-4.89,11.66-19.08,11.66h-5.45Zm16.36,35.06v-7.9c0-4.04-.47-5.36-2.91-5.36-1.97,0-3.2,1.13-3.2,4.51v3.76c0,3.76,1.41,4.98,3.85,4.98h2.26Z"/>
    <path class="cls-3" d="m1525.86,383.65h-27.35c-12.78,0-18.8-5.92-18.8-21.62v-9.4c0-15.7,9.02-20.68,17.67-21.62-1.79-2.16-2.16-4.98-2.16-7.33,0-4.89,2.16-8.93,9.02-8.93s9.02,4.04,9.02,8.93c0,2.26-.56,5.17-2.16,7.05,6.11-.38,7.9-2.26,9.49-7.99l.94-3.29,6.58,1.22-.66,2.91c-1.6,7.24-4.89,11.66-19.08,11.66h-6.86c-8.55,0-13.54,5.64-13.54,18.14v7.61c0,12.41,4.04,17.95,12.22,17.95h11.75c-7.05-4.13-10.25-12.22-10.25-20.21v-1.32c0-5.83,3.1-9.87,9.78-9.87s8.74,4.32,8.74,10.34c0,6.96-2.07,9.78-8.83,9.68l-2.07-1.22c1.97,6.96,6.11,12.59,13.07,12.59h3.48v4.7Zm-21.62-52.92c2.63,0,3.38-1.13,3.38-6.2s-.75-6.2-3.38-6.2-3.38,1.13-3.38,6.2.75,6.2,3.38,6.2Zm4.61,34.03h1.97c2.44,0,3.85-1.22,3.85-4.98v-3.48c0-3.57-1.22-4.79-3.1-4.79-2.54,0-3.57,1.41-3.57,6.39,0,2.63.28,4.7.85,6.86Z"/>
    <path class="cls-3" d="m1536.2,353.29h26.6v6.39h-26.6v-6.39Z"/>
    <path class="cls-3" d="m1606.98,391.83l-2.54-2.26c7.8-9.96,12.31-20.58,12.31-33.27,0-16.45-6.3-21.99-16.54-21.99-12.03,0-16.54,10.62-16.54,22.56,0,8.55,1.32,17.11,7.14,20.21-1.13-1.88-1.5-4.14-1.5-7.24,0-4.32,2.26-8.65,8.08-8.65,6.2,0,8.74,3.1,8.74,9.68,0,7.14-4.14,11-11.56,11-10.62,0-19.17-8.83-19.17-26.32s10.9-25.94,24.81-25.94c16.36,0,25,9.31,25,26.32,0,13.91-6.67,25.47-18.23,35.91Zm-6.3-20.49c0-4.79-.75-6.11-3.29-6.11-2.35,0-3.29,1.32-3.29,4.7,0,2.73.28,5.92.85,8.37.38.09.85.09,1.32.09,3.29,0,4.42-2.26,4.42-7.05Z"/>
    <path class="cls-3" d="m1648.06,378.2c-.38-1.69-.47-3.38-.47-5.17,0-4.32,2.35-8.37,8.18-8.37s8.18,3.1,8.18,9.68c0,7.05-3.2,10.81-10.53,10.81-12.22,0-17.01-10.81-17.01-29.7,0-15.42,5.26-25.85,17.01-25.85,5.55,0,9.02,1.88,10.53,7.14,2.35-5.08,6.58-7.14,11.47-7.14,8.74,0,12.97,6.11,12.97,14.76v36.75l-4.14,3.29h-4.14v-40.98c0-6.2-1.88-9.12-6.2-9.12-4.04,0-6.77,2.73-6.77,8.93v10.81h-7.89v-10.81c0-6.49-2.26-9.02-5.92-9.02-5.83,0-8.65,7.24-8.65,20.77,0,10.43.75,18.7,3.38,23.22Zm4.51,3.48c.47.09.94.19,1.5.19,3.29,0,4.42-2.26,4.42-7.05s-.75-6.11-3.29-6.11c-2.16,0-3.29,1.32-3.29,4.7,0,2.73,0,5.83.66,8.27Z"/>
    <path class="cls-3" d="m1719.22,329.61c5.17,0,9.02,2.54,10.43,7.14,2.26-5.08,5.64-7.14,10.81-7.14,8.18,0,12.31,5.73,12.31,15.79v19.08c0,5.64-.85,12.6-6.02,14.47h7.43c7.05,0,7.89-5.26,7.89-12.69v-41.64l4.42-3.29h4.04v45.21c0,9.3-3.1,17.11-13.44,17.11h-23.69v-4.7h3.67c5.64,0,7.61-3.2,7.61-10.71v-23.69c0-7.33-1.88-10.25-5.73-10.25s-6.3,2.73-6.3,8.93v10.62h-7.9v-10.62c0-6.39-2.35-8.93-6.11-8.93-5.45,0-7.99,6.49-7.99,20.68,0,10.43.75,18.7,3.38,23.22-.38-1.69-.47-3.38-.47-5.17,0-4.32,2.35-8.37,8.18-8.37s8.18,3.1,8.18,9.68c0,7.05-3.1,10.81-10.15,10.81-13.07,0-17.39-11.66-17.39-29.7s6.86-25.85,16.82-25.85Zm-.66,52.07c.47.09.94.19,1.5.19,3.29,0,4.42-2.26,4.42-7.05s-.75-6.11-3.29-6.11c-2.16,0-3.29,1.32-3.29,4.7,0,2.73,0,5.83.66,8.27Z"/>
    <path class="cls-3" d="m1809.18,335.25c-9.49,0-14.94,6.02-14.94,19.17v4.7c0,7.8,1.79,14.57,6.2,19.36l6.67-6.96c2.91,5.92,6.96,8.37,11.19,8.37s7.24-2.35,7.24-7.8l-2.73,1.5c-5.73,0-8.55-3.01-8.55-9.78s2.26-10.81,8.93-10.81,9.4,3.85,9.4,9.78v6.67c0,8.18-3.76,15.13-14.29,15.13-4.61,0-9.49-2.16-11.94-6.58l-5.36,5.64h-5.08c-4.79-4.98-9.96-12.22-9.96-24.53v-4.7c0-19.46,12.59-23.87,22.65-23.87h5.64c8.65,0,10.71-1.41,12.59-7.8l.94-3.29,6.58,1.22-.66,2.91c-1.6,7.24-4.89,11.66-19.08,11.66h-5.45Zm16.36,35.06v-7.9c0-4.04-.47-5.36-2.91-5.36-1.97,0-3.2,1.13-3.2,4.51v3.76c0,3.76,1.41,4.98,3.85,4.98h2.26Z"/>
    <path class="cls-3" d="m1211.95,497.21h-3.76v-36.66c0-12.6-5.17-15.6-14.38-15.6s-14.29,5.64-14.29,15.6v23.12c0,2.44-.09,4.04-.47,7.24,6.77-5.54,11.19-9.59,16.36-14.85l-2.91,1.03c-4.61,0-6.77-1.79-6.77-7.24v-4.04c0-4.89,3.38-7.52,8.18-7.52s7.9,2.35,7.9,8.08v1.88c0,6.02-2.44,10.81-6.39,14.47-5.26,4.79-9.31,8.55-15.98,13.72h-7.8v-34.68c0-13.16,8.27-21.71,22.56-21.71s21.9,5.26,21.9,21.71v32.15l-4.14,3.29Zm-15.79-22.75c.56-2.35.38-5.08.38-7.24,0-4.23-1.03-5.26-2.91-5.26-1.97,0-3.01,1.13-3.01,4.14v4.89c0,2.73,1.03,3.48,3.01,3.48h2.54Z"/>
    <path class="cls-3" d="m1212.89,502.28h3.2v13.91c0,4.51-2.07,6.49-6.2,6.49h-12.88v-7.42l-2.63,1.6c-5.26,0-7.52-1.13-7.52-7.14,0-5.08,2.73-7.9,8.55-7.9,4.61,0,7.99,1.32,7.99,6.96v10.43h2.82c2.16,0,2.82-.66,2.82-2.73v-10.9l3.85-3.29Zm-15.88,12.03v-6.2c0-1.97-.38-3.29-2.35-3.29-1.69,0-2.63,1.13-2.63,4.79,0,4.04,1.03,4.7,2.82,4.7h2.16Z"/>
    <path class="cls-3" d="m1242.59,476.71l3.67-2.16c6.2,0,8.08,4.04,8.08,8.18v4.7c0,7.52-3.48,9.68-9.78,9.68-7.52,0-10.06-3.2-10.06-10.81v-39.85c3.2-3.1,7.33-8.27,8.93-12.12l-5.64,2.91c-8.65-.09-12.31-3.67-12.41-12.31v-3.38c.09-8.84,5.83-11.94,13.25-11.94,8.55,0,12.97,4.98,12.97,13.44,0,11.19-4.51,17.29-9.02,21.99v31.68Zm.66-43.99v-12.97c0-4.23-1.69-6.2-5.17-6.2-3.01,0-5.64,1.6-5.64,6.3v5.73c0,5.36,2.35,7.14,6.2,7.14h4.61Zm2.35,60.06c2.26,0,3.48-1.03,3.48-3.48v-5.73c0-3.76-1.13-5.08-3.76-5.08h-2.91v10.81c0,2.16,1.13,3.48,3.2,3.48Z"/>
    <path class="cls-3" d="m1301.53,497.11c-5.92,0-8.46-2.26-8.46-9.21v-5.26c-6.11,2.82-10.62,8.74-13.82,13.82h-8.08v-34.78l-2.35,1.22c-6.77,0-8.55-2.63-8.55-9.12v-4.42c0-6.67,3.48-8.65,9.96-8.65s9.02,3.38,9.02,9.78v38.44c5.17-6.49,11.19-10.72,16.73-12.12v-32.24l4.23-3.29h3.85v33.56c3.76.38,5.92,3.1,5.92,7.8v5.26c0,7.14-2.63,9.21-8.46,9.21Zm-29.7-37.97v-9.87c0-2.91-.75-4.42-3.2-4.42-2.16,0-3.48,1.13-3.48,4.51v4.7c0,3.76,1.13,5.08,3.85,5.08h2.82Zm30.17,33.84c1.88,0,3.1-.75,3.1-4.79v-5.36c0-2.91-1.03-4.04-3.1-4.04-1.13,0-2.35.47-3.2,1.03v8.37c0,3.48.75,4.79,3.2,4.79Z"/>
    <path class="cls-3" d="m1322.78,493.26l3.67-2.26v-7.05c0-4.61,1.41-7.71,4.7-9.4-6.58-1.32-8.18-5.73-8.18-14.95v-9.12c0-6.39,3.67-9.78,9.87-9.78s8.74,3.01,8.74,8.65v4.42c0,5.08-1.6,9.12-8.55,9.12l-2.82-1.5v1.13c0,6.58,3.38,8.18,10.43,8.18h3.1v4.23h-4.42c-4.42,0-5.64,2.63-5.64,7.61v9.4h14.76c4.98,0,6.3-1.88,6.3-6.49v-40.89l4.23-3.29h3.85v40.32c0,9.12-2.26,14.85-12.13,14.85h-27.92v-3.2Zm7.24-43.99v9.87h3.38c2.16,0,3.29-1.32,3.29-5.08v-4.7c0-3.38-1.03-4.51-3.2-4.51-2.73,0-3.48,1.5-3.48,4.42Z"/>
    <path class="cls-3" d="m1355.77,434.14v-19.36h7.05v19.36h-7.05Z"/>
    <path class="cls-3" d="m1400.8,497.96c-13.63,0-19.65-3.29-19.65-15.51v-12.97c0-8.65,4.14-11.75,10.15-11.75,5.64,0,8.18,2.91,8.18,7.9v5.36c0,5.36-2.26,8.37-7.9,8.46l-2.73-1.88v4.04c0,9.21,2.54,11.65,12.03,11.65,8.65,0,11.19-2.91,11.19-13.72v-21.34c0-9.87-5.45-13.25-13.16-13.25-7.14,0-14.19,2.91-18.14,5.36l-1.5-3.48c3.95-2.63,11.94-6.77,22.09-6.77s18.8,4.32,18.8,18.05v22c0,12.31-4.98,17.86-19.36,17.86Zm-12.13-30.92v8.74h2.44c2.44,0,3.48-1.03,3.48-4.51v-4.23c0-3.85-.75-4.98-2.73-4.98-2.16,0-3.2,1.13-3.2,4.98Z"/>
    <path class="cls-3" d="m1442.91,496.45v-34.78l-2.35,1.22c-6.77,0-8.55-2.73-8.55-9.12v-4.42c0-6.2,3.48-8.65,9.87-8.65s9.12,3.38,9.12,9.78v18.7c3.95-5.17,9.96-8.65,15.13-9.4-1.6-1.5-2.35-3.57-2.35-5.83v-4.23c0-5.83,2.73-9.12,9.02-9.12,5.55,0,8.37,3.01,8.37,8.37v3.85c0,4.42-1.97,7.9-5.64,8.93l3.38,3.1v29.04l-4.23,3.29h-3.85v-34.4c-8.46.66-15.42,6.67-19.83,12.88v20.77h-8.08Zm.66-37.32v-9.87c0-2.91-.75-4.42-3.2-4.42-2.16,0-3.48,1.13-3.48,4.51v4.7c0,3.76,1.13,5.08,3.85,5.08h2.82Zm27.17-.38c3.57-.28,4.42-1.41,4.42-4.42v-6.11c0-3.01-1.32-3.95-3.2-3.95-2.16,0-3.38,1.41-3.38,3.95v6.2c0,2.16.94,3.57,2.16,4.32Z"/>
    <path class="cls-3" d="m1532.3,497.11c-5.92,0-8.46-2.26-8.46-9.21v-5.26c-6.11,2.82-10.62,8.74-13.82,13.82h-8.08v-34.78l-2.35,1.22c-6.77,0-8.55-2.63-8.55-9.12v-4.42c0-6.67,3.48-8.65,9.96-8.65s9.02,3.38,9.02,9.78v38.44c5.17-6.49,11.19-10.72,16.73-12.12v-32.24l4.23-3.29h3.85v33.56c3.76.38,5.92,3.1,5.92,7.8v5.26c0,7.14-2.63,9.21-8.46,9.21Zm-29.7-37.97v-9.87c0-2.91-.75-4.42-3.2-4.42-2.16,0-3.48,1.13-3.48,4.51v4.7c0,3.76,1.13,5.08,3.85,5.08h2.82Zm30.17,33.84c1.88,0,3.1-.75,3.1-4.79v-5.36c0-2.91-1.03-4.04-3.1-4.04-1.13,0-2.35.47-3.2,1.03v8.37c0,3.48.75,4.79,3.2,4.79Z"/>
    <path class="cls-3" d="m1521.31,434.14h-5.73v-2.73c3.76-.28,7.8-1.69,8.93-4.98l-2.44,1.69c-5.17,0-7.61-2.73-7.61-7.33,0-4.98,3.29-7.24,8.08-7.24,5.26,0,7.61,3.01,7.61,7.24,0,3.48-1.22,7.9-6.11,10.15,5.55-.47,8.74-1.79,17.58-9.87l3.38,4.32c-6.2,7.33-13.25,8.74-23.69,8.74Zm3.29-8.83v-5.17c0-2.73-.85-3.57-2.44-3.57-1.69,0-2.82.66-2.82,4.04,0,3.95,1.03,4.7,3.01,4.7h2.26Z"/>
    <path class="cls-3" d="m1571.5,454.44c0-7.14-3.85-9.49-9.21-9.49-5.83,0-11.18,2.35-15.04,4.79l-1.69-3.48c3.48-2.44,11.37-6.2,19.36-6.2s14.66,3.76,14.66,15.32v38.54l-4.23,3.29h-3.85v-42.77Z"/>
    <path class="cls-3" d="m1632.22,455.47c0-7.52-2.07-10.15-6.49-10.06-5.83.09-11.37,7.52-14.85,16.17v34.87h-8.08v-34.78l-2.35,1.22c-6.77,0-8.55-2.73-8.55-9.12v-4.42c0-6.11,3.48-8.65,9.96-8.65s9.02,3.38,9.02,9.78v3.01c3.2-7.24,8.84-12.97,17.11-12.97s12.31,3.38,12.31,15.51v37.88l-4.23,3.29h-3.85v-41.73Zm-28.76,3.67v-9.87c0-2.91-.75-4.42-3.2-4.42-2.16,0-3.48,1.13-3.48,4.51v4.7c0,3.76,1.13,5.08,3.85,5.08h2.82Z"/>
    <path class="cls-3" d="m1600.36,434.14v-3.1c0-5.17,2.91-10.25,13.25-10.25,7.9,0,14.76,3.76,18.61,7.43v-7.43h7.14v13.35h-39.01Zm7.14-3.76h21.15c-4.42-3.57-10.62-5.83-14.95-5.83s-6.2,1.79-6.2,5.26v.56Z"/>
    <path class="cls-3" d="m1632.32,416.93v-13.25h7.05v13.25h-7.05Z"/>
    <path class="cls-3" d="m1686.27,434.14h4.04v58h24.06c7.33,0,10.53-.94,10.53-6.2v-31.86c0-3.1-.94-5.08-3.01-6.39l-7.05,3.85-6.58-3.85c-2.54.85-4.04,4.14-4.04,7.43v3.95c1.6-.85,3.2-1.5,4.32-1.5,5.36,0,7.99,2.44,7.99,9.68s-2.91,11-8.84,11c-7.99,0-11.18-4.51-11.18-13.82,0-12.88,1.69-19.08,12.22-21.71l6.3,3.85,6.67-3.85c7.24,1.22,11.47,5.45,11.47,12.31v27.35c0,12.5-6.02,14.1-14.85,14.1h-36.28v-59.03l4.23-3.29Zm21.43,40.14c2.16,0,3.1-1.22,3.1-4.79v-4.04c0-3.1-1.22-4.32-4.23-4.32h-2.44v8.65c0,3.48,1.13,4.51,3.57,4.51Z"/>
    <path class="cls-3" d="m1801.05,434.14h2.63v17.48c0,6.2-3.38,8.65-9.4,8.65h-7.14c-.09-10.62-1.79-13.25-4.89-13.25l-4.51,5.08c1.03,2.35,1.88,4.98,2.82,7.99l10.9,36.38h-7.14l-10.9-34.78c-3.2-10.34-4.42-14.66-9.31-14.66-5.83,0-8.65,7.24-8.65,20.77,0,10.43.75,18.7,3.38,23.22-.38-1.69-.47-3.38-.47-5.17,0-4.32,2.35-8.37,8.18-8.37s8.18,3.1,8.18,9.68c0,7.05-3.2,10.81-10.53,10.81-12.22,0-17.01-10.81-17.01-29.7,0-15.42,5.36-25.85,17.2-25.85,5.26,0,8.55,1.97,11.09,5.45l4.7-5.45c9.49,0,12.78,4.98,12.5,13.82h.94c2.73,0,3.38-.56,3.38-5.92v-12.88l4.04-3.29Zm-37.69,60.34c.47.09.94.19,1.5.19,3.29,0,4.42-2.26,4.42-7.05s-.75-6.11-3.29-6.11c-2.16,0-3.29,1.32-3.29,4.7,0,2.73,0,5.83.66,8.27Z"/>
  </g>
  <rect x="0" y="636.67" width="990" height="636.67"/>
  <g>
    <path class="cls-1" d="m137.56,794.63v-3.38l6.86-3.95v-56.77l-6.86-3.95v-3.38h26.6c18.23,0,32.05,9.02,32.05,33.46,0,26.22-15.23,37.97-31.96,37.97h-26.69Zm27.45-5.64c17.58,0,21.24-15.98,21.24-30.55,0-19.17-8.83-29.61-25.75-29.61h-7.24v58.65l2.35,1.5h9.4Z"/>
    <path class="cls-1" d="m243.78,785.23l2.54,3.1c-3.95,4.89-10.43,7.9-17.95,7.9-16.54,0-23.31-10.81-23.31-26.69,0-17.86,9.96-26.98,22.75-26.98s18.99,7.61,18.99,21.62c0,1.41-.09,2.91-.19,4.42h-32.15c0,13.35,6.02,20.87,16.54,20.87,4.98,0,9.31-1.97,12.78-4.23Zm-29.14-21.43h22.94c-.19-11.19-3.67-15.98-10.81-15.98-5.73,0-11,3.85-12.13,15.98Z"/>
    <path class="cls-1" d="m279.88,789.46c4.98,0,9.31-1.97,12.78-4.23l2.54,3.1c-3.76,4.89-10.25,7.9-17.95,7.9-16.54,0-23.31-11.09-23.31-26.79s10.34-26.98,25-26.98c6.77,0,10.81.94,14.1,2.16l.56,15.42-5.26.75-4.7-12.69c-1.79-.28-3.29-.38-5.08-.38-10.15,0-15.32,8.37-15.23,20.96.09,14.29,6.02,20.77,16.54,20.77Z"/>
    <path class="cls-1" d="m326.13,742.46c12.03,0,22.18,9.21,22.18,26.22,0,15.98-8.84,27.54-23.5,27.54s-22.94-10.43-22.94-25.85,8.74-27.92,24.25-27.92Zm-.38,48.31c8.46,0,13.16-7.42,13.16-21.99,0-11.94-4.14-20.96-13.63-20.96s-14,8.65-14,20.77c0,12.97,5.17,22.18,14.47,22.18Z"/>
    <path class="cls-1" d="m404.24,789.36v3.57c-2.35,1.69-5.83,2.54-7.9,2.54-3.38,0-5.08-1.32-5.73-4.51-3.57,3.01-8.65,5.26-14.76,5.26-10.25,0-19.27-7.61-19.27-23.4,0-17.39,8.65-30.36,26.22-30.36,2.63,0,5.17.28,7.33.75v-16.26l-8.08-2.35v-2.91l13.16-2.73,3.38,2.35v65.04c0,2.63.85,3.76,5.64,3.01Zm-23.4,1.03c4.32,0,6.2-.85,9.4-2.63-.09-.66-.09-1.41-.09-2.26v-36.56c-2.16-.47-4.89-.85-7.99-.85-10.62,0-16.17,7.43-16.17,21.9s6.3,20.4,14.85,20.4Z"/>
    <path class="cls-1" d="m411.1,750.26v-2.91l11.56-4.51,3.38,2.35v43.05l6.49,3.29v3.2h-21.43v-3.2l6.49-3.29v-35.91l-6.49-2.07Zm10.06-15.98c-3.76,0-5.64-1.97-5.64-5.64v-1.13c0-3.67,1.88-5.73,5.64-5.73s5.64,2.07,5.64,5.73v1.13c0,3.67-1.88,5.64-5.64,5.64Z"/>
    <path class="cls-1" d="m438.08,750.26v-2.91l11.56-4.51,3.38,2.35v4.51c4.79-3.85,11-6.67,16.35-6.67,6.96,0,13.44,3.1,13.44,14.57v30.64l5.55,3.29v3.2h-19.08v-3.2l5.08-3.29v-29.23c0-7.05-3.2-9.49-9.02-9.49-4.51,0-8.84,1.97-12.31,4.51v34.21l5.08,3.29v3.2h-19.08v-3.2l5.54-3.29v-35.91l-6.49-2.07Z"/>
    <path class="cls-1" d="m513.28,816.81c-12.88,0-19.64-5.45-19.64-13.16,0-6.96,5.17-11.19,13.44-13.35-6.11-1.6-9.3-4.23-9.3-7.71,0-3.2,3.01-5.83,8.46-6.67-7.43-2.54-10.43-8.65-10.43-15.13,0-11.28,9.59-18.33,21.24-18.33,2.82,0,5.83.75,8.18,1.79l6.2-8.37,6.02,6.02-6.86,5.26c3.85,2.73,5.36,6.96,5.36,11.84,0,10.81-9.96,17.95-20.96,17.95-5.83,0-8.27,1.6-8.27,3.85,0,2.44,3.67,3.38,10.81,4.04,12.41,1.41,21.9,3.85,21.9,13.82,0,10.62-12.5,18.14-26.13,18.14Zm1.88-4.89c8.46,0,15.04-4.04,15.04-11.56,0-6.02-5.83-7.99-15.13-8.84-1.22-.09-2.44-.28-3.57-.38-5.83,3.1-8.46,6.96-8.46,11.37,0,5.36,4.51,9.4,12.12,9.4Zm-10.15-52.54c0,7.99,4.14,12.97,10.81,12.97,7.52,0,11.37-5.36,11.37-12.31,0-8.65-5.36-12.78-11-12.78-6.3,0-11.19,4.32-11.19,12.12Z"/>
    <path class="cls-1" d="m583.03,794.72h-21.81v-3.38l7.71-3.76,21.24-64.29h7.24l19.36,64.29,6.67,3.76v3.38h-22.28v-3.38l6.49-3.57-4.61-16.26h-21.52l-4.98,16.36,6.49,3.48v3.38Zm18.61-28.48l-9.02-31.77-9.59,31.77h18.61Z"/>
    <path class="cls-1" d="m625.71,750.26v-2.91l11.56-4.51,3.38,2.35v4.51c4.79-3.85,11-6.67,16.35-6.67,6.96,0,13.44,3.1,13.44,14.57v30.64l5.55,3.29v3.2h-19.08v-3.2l5.08-3.29v-29.23c0-7.05-3.2-9.49-9.02-9.49-4.51,0-8.83,1.97-12.31,4.51v34.21l5.08,3.29v3.2h-19.08v-3.2l5.55-3.29v-35.91l-6.49-2.07Z"/>
    <path class="cls-1" d="m709.65,788.05c-6.86,6.77-11.75,7.61-16.17,7.61-7.52,0-11.94-4.61-11.94-11.47,0-9.21,6.2-16.54,28.01-22.18v-2.16c0-9.59-3.57-12.12-9.49-12.12-1.69,0-3.85.19-6.39.75l-4.98,12.5-5.26-.75.85-13.63c3.57-1.88,10.43-4.14,17.29-4.14,10.06,0,16.45,3.57,16.45,15.6v28.29c0,2.63.85,3.76,5.64,3.01v3.57c-2.35,1.69-5.83,2.54-7.89,2.54-4.23,0-5.83-2.07-6.11-7.43Zm-12.12.85c3.1,0,7.71-1.32,12.03-5.45v-17.2c-15.98,5.17-19.27,11-19.27,15.6,0,3.95,2.82,7.05,7.24,7.05Z"/>
    <path class="cls-1" d="m750.35,791.52v3.2h-19.55v-3.2l5.55-3.29v-61.38l-6.39-2.35v-2.91l11.47-2.73,3.38,2.35v67.02l5.55,3.29Z"/>
    <path class="cls-1" d="m782.87,742.46c12.03,0,22.18,9.21,22.18,26.22,0,15.98-8.84,27.54-23.5,27.54s-22.94-10.43-22.94-25.85,8.74-27.92,24.25-27.92Zm-.38,48.31c8.46,0,13.16-7.42,13.16-21.99,0-11.94-4.14-20.96-13.63-20.96s-14,8.65-14,20.77c0,12.97,5.17,22.18,14.47,22.18Z"/>
    <path class="cls-1" d="m831,816.81c-12.88,0-19.64-5.45-19.64-13.16,0-6.96,5.17-11.19,13.44-13.35-6.11-1.6-9.31-4.23-9.31-7.71,0-3.2,3.01-5.83,8.46-6.67-7.42-2.54-10.43-8.65-10.43-15.13,0-11.28,9.59-18.33,21.24-18.33,2.82,0,5.83.75,8.18,1.79l6.2-8.37,6.02,6.02-6.86,5.26c3.85,2.73,5.36,6.96,5.36,11.84,0,10.81-9.96,17.95-20.96,17.95-5.83,0-8.27,1.6-8.27,3.85,0,2.44,3.67,3.38,10.81,4.04,12.41,1.41,21.9,3.85,21.9,13.82,0,10.62-12.5,18.14-26.13,18.14Zm1.88-4.89c8.46,0,15.04-4.04,15.04-11.56,0-6.02-5.83-7.99-15.13-8.84-1.22-.09-2.44-.28-3.57-.38-5.83,3.1-8.46,6.96-8.46,11.37,0,5.36,4.51,9.4,12.12,9.4Zm-10.15-52.54c0,7.99,4.14,12.97,10.81,12.97,7.52,0,11.37-5.36,11.37-12.31,0-8.65-5.36-12.78-11-12.78-6.3,0-11.19,4.32-11.19,12.12Z"/>
    <path class="cls-1" d="m166.09,826.5v9.59c12.97.19,20.02,7.52,20.02,17.86,0,8.83-4.89,14.29-10.71,15.79,8.27,1.69,14.1,7.52,14.1,17.86,0,15.6-11.94,19.93-22.18,19.93h-1.22v11.09h-5.26v-11.09h-24.81v-3.38l6.86-3.01v-58.65l-6.86-3.01v-3.38h24.81v-9.59h5.26Zm-14.38,15.04v26.32h9.12v-26.32h-9.12Zm9.12,60.53v-28.86h-9.12v27.16l6.11,1.69h3.01Zm5.26-60.53v26.32c6.39-.19,11.09-5.73,11.09-13.63s-3.57-12.22-11.09-12.69Zm0,31.68v28.86c8.18-.09,14.19-4.7,14.19-14.1,0-10.53-5.83-14.47-14.19-14.76Z"/>
    <path class="cls-1" d="m240.45,907.52h-28.2v-3.38l10.34-4.23v-54.99h-10.34v-3.38l12.12-4.32h6.67v62.69l9.4,4.23v3.38Z"/>
    <path class="cls-1" d="m273.44,909.02c-17.2,0-23.4-13.16-23.4-34.4,0-22.93,10.62-38.35,26.04-38.35s22.65,12.78,22.65,31.77c0,26.98-9.02,40.98-25.29,40.98Zm1.6-66.92c-8.46,0-15.6,9.21-15.6,30.74,0,18.14,3.95,30.27,14.57,30.27s15.32-9.3,15.32-31.3c0-20.49-5.64-29.7-14.29-29.7Z"/>
    <path class="cls-1" d="m312.45,902.54v-1.13c0-3.85,1.97-6.02,5.92-6.02s5.92,2.16,5.92,6.02v1.97c0,4.7-2.63,11.56-8.55,18.71l-2.54-2.26c3.67-4.89,5.92-7.71,6.67-11.37-.47.09-1.03.19-1.5.19-3.95,0-5.92-2.07-5.92-6.11Z"/>
    <path class="cls-1" d="m369.98,842.1c-13.25,0-20.02,9.87-21.99,25.38,3.38-2.16,8.37-4.14,14.19-4.14,11.56,0,20.68,6.39,20.68,21.53,0,16.35-10.43,24.16-22.28,24.16-14.66,0-22.56-10.15-22.56-31.58,0-24.16,10.53-41.17,31.11-41.17,3.29,0,7.43.66,10.62,1.22l-.66,5.54c-2.63-.56-6.58-.94-9.12-.94Zm-8.08,61.1c6.96,0,11.94-5.36,11.94-16.35s-4.98-18.05-14.19-18.05c-4.61,0-8.83,1.03-12.03,2.82-.09,1.97-.19,3.95-.19,6.02,0,18.99,5.92,25.57,14.47,25.57Z"/>
    <path class="cls-1" d="m389.91,837.21h42.49v8.65c-13.16,16.36-20.21,34.97-24.25,61.66h-10.06c4.89-25.85,13.63-45.4,27.16-61.66h-35.34v-8.65Z"/>
    <path class="cls-1" d="m453.73,871.8c-7.14-4.04-13.35-9.12-13.35-18.61,0-10.62,9.78-16.92,21.15-16.92,10.34,0,20.4,4.51,20.4,16.45,0,8.74-7.24,14.57-13.72,17.11,7.9,4.32,15.7,7.99,15.7,20.02,0,14.66-12.6,19.17-22.94,19.17-12.22,0-22.84-4.98-22.84-17.2,0-9.78,6.96-15.42,15.6-20.02Zm7.24,31.96c8.37,0,13.91-4.32,13.91-12.97,0-7.33-6.96-11.75-15.98-16.26-.66-.38-1.32-.66-1.97-1.03-5.45,3.95-9.78,10.15-9.78,17.2,0,8.18,5.36,13.07,13.82,13.07Zm4.61-35.34c4.04-3.1,7.9-8.18,7.9-15.51,0-8.08-4.89-11.37-12.31-11.37-6.86,0-11.94,4.04-11.94,10.25,0,9.59,8.18,12.12,16.17,16.54l.19.09Z"/>
    <path class="cls-1" d="m533.26,900.19v-58.93h-12.03l-6.02,15.51-4.89-.75,1.13-19.93h52.35l1.22,19.93-4.89.75-6.02-15.51h-12.03v58.93l7.05,3.95v3.38h-22.93v-3.38l7.05-3.95Z"/>
    <path class="cls-1" d="m588.34,904.32v3.2h-19.74v-3.2l5.54-3.29v-35.91l-6.49-2.07v-2.91l11.56-4.51,3.38,2.35v7.05c1.79-4.61,4.61-9.31,9.96-9.31,1.69,0,3.67.47,4.61.94l-.38,7.61h-4.04c-4.14-.09-8.18,1.13-10.15,3.2v33.56l5.73,3.29Z"/>
    <path class="cls-1" d="m629.32,900.85c-6.86,6.77-11.75,7.61-16.17,7.61-7.52,0-11.94-4.61-11.94-11.47,0-9.21,6.2-16.54,28.01-22.18v-2.16c0-9.59-3.57-12.12-9.49-12.12-1.69,0-3.85.19-6.39.75l-4.98,12.5-5.26-.75.85-13.63c3.57-1.88,10.43-4.14,17.29-4.14,10.06,0,16.45,3.57,16.45,15.6v28.29c0,2.63.85,3.76,5.64,3.01v3.57c-2.35,1.69-5.83,2.54-7.89,2.54-4.23,0-5.83-2.07-6.11-7.43Zm-12.12.85c3.1,0,7.71-1.32,12.03-5.45v-17.2c-15.98,5.17-19.27,11-19.27,15.6,0,3.95,2.82,7.05,7.24,7.05Z"/>
    <path class="cls-1" d="m649.07,863.06v-2.91l11.56-4.51,3.38,2.35v4.51c4.79-3.85,11-6.67,16.35-6.67,6.96,0,13.44,3.1,13.44,14.57v30.64l5.55,3.29v3.2h-19.08v-3.2l5.08-3.29v-29.23c0-7.05-3.2-9.49-9.02-9.49-4.51,0-8.84,1.97-12.31,4.51v34.21l5.08,3.29v3.2h-19.08v-3.2l5.54-3.29v-35.91l-6.49-2.07Z"/>
    <path class="cls-1" d="m722.2,909.02c-5.17,0-10.9-1.22-15.04-2.82l-.66-15.13,5.26-.75,4.61,13.07c2.54.56,4.51.66,6.39.66,5.92,0,10.81-1.79,10.81-8.18s-5.64-8.37-11.66-11.09c-7.43-3.48-14.57-7.24-14.57-15.89s6.39-13.63,16.64-13.63c6.11,0,12.88,1.6,14.95,2.35l.66,14.57-5.26.75-4.04-12.03c-1.88-.47-3.85-.66-6.39-.66-5.55,0-9.21,1.88-9.21,6.77,0,6.3,5.83,8.37,12.03,11.09,7.33,3.2,14.19,6.86,14.19,15.88,0,11.47-7.99,15.04-18.71,15.04Z"/>
    <path class="cls-1" d="m779.26,838.25c-3.29-.47-4.32-.56-6.11-.56-4.89,0-9.02,1.6-9.02,11.66v7.43h13.16v5.26h-13.16v39.01l6.11,3.29v3.2h-20.12v-3.2l5.55-3.29v-39.01h-7.43v-3.95l7.61-1.6v-5.73c0-12.59,6.96-19.17,17.11-19.17,2.07,0,4.7.28,6.3.66v6.02Z"/>
    <path class="cls-1" d="m821.37,898.03l2.54,3.1c-3.95,4.89-10.43,7.9-17.95,7.9-16.54,0-23.31-10.81-23.31-26.69,0-17.86,9.96-26.98,22.75-26.98s18.99,7.61,18.99,21.62c0,1.41-.09,2.91-.19,4.42h-32.15c0,13.35,6.02,20.87,16.54,20.87,4.98,0,9.31-1.97,12.78-4.23Zm-29.14-21.43h22.93c-.19-11.19-3.67-15.98-10.81-15.98-5.73,0-11,3.85-12.12,15.98Z"/>
    <path class="cls-1" d="m851.45,904.32v3.2h-19.74v-3.2l5.54-3.29v-35.91l-6.49-2.07v-2.91l11.56-4.51,3.38,2.35v7.05c1.79-4.61,4.61-9.31,9.96-9.31,1.69,0,3.67.47,4.61.94l-.38,7.61h-4.04c-4.14-.09-8.18,1.13-10.15,3.2v33.56l5.73,3.29Z"/>
    <path class="cls-1" d="m124.83,1020.32h-20.02v-3.38l6.86-3.95,6.11-56.77-6.86-3.95v-3.38l17.39-.09,15.13,55.55,16.17-55.46h18.23v3.38l-6.86,3.95,4.42,56.77,6.86,3.95v3.38h-23.22v-3.38l7.33-3.95-3.01-38.73c-.38-4.98-.75-9.96-.56-14.94l-18.42,61h-4.61l-13.07-46.06c-1.22-4.42-2.54-8.83-3.29-13.25l-5.26,51.98,6.67,3.95v3.38Z"/>
    <path class="cls-1" d="m188.65,975.86v-2.91l11.56-4.51,3.38,2.35v43.05l6.49,3.29v3.2h-21.43v-3.2l6.49-3.29v-35.91l-6.49-2.07Zm10.06-15.98c-3.76,0-5.64-1.97-5.64-5.64v-1.13c0-3.67,1.88-5.73,5.64-5.73s5.64,2.07,5.64,5.73v1.13c0,3.67-1.88,5.64-5.64,5.64Z"/>
    <path class="cls-1" d="m236.59,1017.12v3.2h-19.55v-3.2l5.54-3.29v-61.38l-6.39-2.35v-2.91l11.47-2.73,3.38,2.35v67.02l5.55,3.29Z"/>
    <path class="cls-1" d="m264.89,1017.12v3.2h-19.55v-3.2l5.55-3.29v-61.38l-6.39-2.35v-2.91l11.47-2.73,3.38,2.35v67.02l5.55,3.29Z"/>
    <path class="cls-1" d="m272.22,975.86v-2.91l11.56-4.51,3.38,2.35v43.05l6.49,3.29v3.2h-21.43v-3.2l6.49-3.29v-35.91l-6.49-2.07Zm10.06-15.98c-3.76,0-5.64-1.97-5.64-5.64v-1.13c0-3.67,1.88-5.73,5.64-5.73s5.64,2.07,5.64,5.73v1.13c0,3.67-1.88,5.64-5.64,5.64Z"/>
    <path class="cls-1" d="m324.39,968.06c12.03,0,22.18,9.21,22.18,26.22,0,15.98-8.83,27.54-23.5,27.54-13.91,0-22.93-10.43-22.93-25.85s8.74-27.92,24.25-27.92Zm-.38,48.31c8.46,0,13.16-7.42,13.16-21.99,0-11.94-4.14-20.96-13.63-20.96s-14.01,8.65-14.01,20.77c0,12.97,5.17,22.18,14.48,22.18Z"/>
    <path class="cls-1" d="m354.09,975.86v-2.91l11.56-4.51,3.38,2.35v4.51c4.79-3.85,11-6.67,16.35-6.67,6.96,0,13.44,3.1,13.44,14.57v30.64l5.55,3.29v3.2h-19.08v-3.2l5.08-3.29v-29.23c0-7.05-3.2-9.49-9.02-9.49-4.51,0-8.84,1.97-12.31,4.51v34.21l5.08,3.29v3.2h-19.08v-3.2l5.54-3.29v-35.91l-6.49-2.07Z"/>
    <path class="cls-1" d="m427.22,1021.82c-5.17,0-10.9-1.22-15.04-2.82l-.66-15.13,5.26-.75,4.61,13.07c2.54.56,4.51.66,6.39.66,5.92,0,10.81-1.79,10.81-8.18s-5.64-8.37-11.66-11.09c-7.43-3.48-14.57-7.24-14.57-15.88s6.39-13.63,16.64-13.63c6.11,0,12.88,1.6,14.95,2.35l.66,14.57-5.26.75-4.04-12.03c-1.88-.47-3.85-.66-6.39-.66-5.55,0-9.21,1.88-9.21,6.77,0,6.3,5.83,8.37,12.03,11.09,7.33,3.2,14.19,6.86,14.19,15.88,0,11.47-7.99,15.04-18.71,15.04Z"/>
    <path class="cls-1" d="m501.95,968.06c12.03,0,22.18,9.21,22.18,26.22,0,15.98-8.83,27.54-23.5,27.54-13.91,0-22.93-10.43-22.93-25.85s8.74-27.92,24.25-27.92Zm-.38,48.31c8.46,0,13.16-7.42,13.16-21.99,0-11.94-4.14-20.96-13.63-20.96s-14.01,8.65-14.01,20.77c0,12.97,5.17,22.18,14.48,22.18Z"/>
    <path class="cls-1" d="m562.68,951.05c-3.29-.47-4.32-.56-6.11-.56-4.89,0-9.02,1.6-9.02,11.66v7.43h13.16v5.26h-13.16v39.01l6.11,3.29v3.2h-20.11v-3.2l5.55-3.29v-39.01h-7.43v-3.95l7.61-1.6v-5.73c0-12.6,6.96-19.17,17.11-19.17,2.07,0,4.7.28,6.3.66v6.02Z"/>
    <path class="cls-1" d="m589.56,1020.23v-3.38l6.86-3.95v-56.77l-6.86-3.95v-3.38h26.6c18.23,0,32.05,9.02,32.05,33.46,0,26.22-15.23,37.97-31.96,37.97h-26.69Zm27.45-5.64c17.58,0,21.24-15.98,21.24-30.55,0-19.17-8.84-29.61-25.75-29.61h-7.24v58.65l2.35,1.5h9.4Z"/>
    <path class="cls-1" d="m681.49,968.06c12.03,0,22.18,9.21,22.18,26.22,0,15.98-8.84,27.54-23.5,27.54s-22.94-10.43-22.94-25.85,8.74-27.92,24.25-27.92Zm-.38,48.31c8.46,0,13.16-7.42,13.16-21.99,0-11.94-4.14-20.96-13.63-20.96s-14,8.65-14,20.77c0,12.97,5.17,22.18,14.47,22.18Z"/>
    <path class="cls-1" d="m732.16,1017.12v3.2h-19.55v-3.2l5.55-3.29v-61.38l-6.39-2.35v-2.91l11.47-2.73,3.38,2.35v67.02l5.55,3.29Z"/>
    <path class="cls-1" d="m760.46,1017.12v3.2h-19.55v-3.2l5.55-3.29v-61.38l-6.39-2.35v-2.91l11.47-2.73,3.38,2.35v67.02l5.55,3.29Z"/>
    <path class="cls-1" d="m794.95,1013.65c-6.86,6.77-11.75,7.61-16.17,7.61-7.52,0-11.94-4.61-11.94-11.47,0-9.21,6.2-16.54,28.01-22.18v-2.16c0-9.59-3.57-12.12-9.49-12.12-1.69,0-3.85.19-6.39.75l-4.98,12.5-5.26-.75.85-13.63c3.57-1.88,10.43-4.14,17.29-4.14,10.06,0,16.45,3.57,16.45,15.6v28.29c0,2.63.85,3.76,5.64,3.01v3.57c-2.35,1.69-5.83,2.54-7.89,2.54-4.23,0-5.83-2.07-6.11-7.43Zm-12.12.85c3.1,0,7.71-1.32,12.03-5.45v-17.2c-15.98,5.17-19.27,11-19.27,15.6,0,3.95,2.82,7.05,7.24,7.05Z"/>
    <path class="cls-1" d="m835.37,1017.12v3.2h-19.74v-3.2l5.54-3.29v-35.91l-6.49-2.07v-2.91l11.56-4.51,3.38,2.35v7.05c1.79-4.61,4.61-9.31,9.96-9.31,1.69,0,3.67.47,4.61.94l-.38,7.61h-4.04c-4.14-.09-8.18,1.13-10.15,3.2v33.56l5.73,3.29Z"/>
    <path class="cls-1" d="m865.55,1021.82c-5.17,0-10.9-1.22-15.04-2.82l-.66-15.13,5.26-.75,4.61,13.07c2.54.56,4.51.66,6.39.66,5.92,0,10.81-1.79,10.81-8.18s-5.64-8.37-11.66-11.09c-7.43-3.48-14.57-7.24-14.57-15.88s6.39-13.63,16.64-13.63c6.11,0,12.88,1.6,14.95,2.35l.66,14.57-5.26.75-4.04-12.03c-1.88-.47-3.85-.66-6.39-.66-5.55,0-9.21,1.88-9.21,6.77,0,6.3,5.83,8.37,12.03,11.09,7.33,3.2,14.19,6.86,14.19,15.88,0,11.47-7.99,15.04-18.71,15.04Z"/>
    <path class="cls-1" d="m118.86,1060.56c7.9,0,15.51,1.13,20.02,2.26l.66,18.52-5.73.75-5.36-15.7c-3.01-.47-5.73-.75-8.74-.75-7.8,0-12.03,4.23-12.03,11,0,8.65,6.86,12.22,14.29,16.35,8.74,4.79,18.42,9.78,18.42,22.18,0,16.17-13.63,19.46-22.28,19.46s-15.88-1.6-20.02-2.91l-.66-17.67,5.73-.75,6.3,15.6c2.73.47,5.17.66,7.8.66,7.43,0,14-3.38,14-12.5,0-8.46-7.8-13.82-15.51-18.05-8.46-4.7-17.01-10.15-17.01-21.71,0-10.34,7.9-16.73,20.11-16.73Z"/>
    <path class="cls-1" d="m145.84,1088.66v-2.91l11.56-4.51,3.38,2.35v43.05l6.49,3.29v3.2h-21.43v-3.2l6.49-3.29v-35.91l-6.49-2.07Zm10.06-15.98c-3.76,0-5.64-1.97-5.64-5.64v-1.13c0-3.67,1.88-5.73,5.64-5.73s5.64,2.07,5.64,5.73v1.13c0,3.67-1.88,5.64-5.64,5.64Z"/>
    <path class="cls-1" d="m193.78,1129.92v3.2h-19.55v-3.2l5.55-3.29v-61.38l-6.39-2.35v-2.91l11.47-2.73,3.38,2.35v67.02l5.55,3.29Z"/>
    <path class="cls-1" d="m219.16,1111.22c1.6,4.61,2.54,9.12,3.67,13.72l11.84-35.62-6.3-3.76v-3.2h19.64v3.2l-6.67,3.76-16.17,43.8h-6.3l-15.88-43.8-5.64-3.76v-3.2h19.64v3.2l-5.08,3.76,7.24,21.9Z"/>
    <path class="cls-1" d="m290.5,1123.63l2.54,3.1c-3.95,4.89-10.43,7.9-17.95,7.9-16.54,0-23.31-10.81-23.31-26.69,0-17.86,9.96-26.98,22.75-26.98s18.99,7.61,18.99,21.62c0,1.41-.09,2.91-.19,4.42h-32.15c0,13.35,6.02,20.87,16.54,20.87,4.98,0,9.31-1.97,12.78-4.23Zm-29.14-21.43h22.93c-.19-11.19-3.67-15.98-10.81-15.98-5.73,0-11,3.85-12.12,15.98Z"/>
    <path class="cls-1" d="m320.58,1129.92v3.2h-19.74v-3.2l5.55-3.29v-35.91l-6.49-2.07v-2.91l11.56-4.51,3.38,2.35v7.05c1.79-4.61,4.61-9.31,9.96-9.31,1.69,0,3.67.47,4.61.94l-.38,7.61h-4.04c-4.14-.09-8.18,1.13-10.15,3.2v33.56l5.73,3.29Z"/>
    <path class="cls-1" d="m365.51,1125.79v-56.77l-6.86-3.95v-3.38h22.56v3.38l-6.86,3.95v57.43l3.29,1.41h16.54l7.61-15.32,3.76.47-1.13,20.11h-45.78v-3.38l6.86-3.95Z"/>
    <path class="cls-1" d="m411.01,1088.66v-2.91l11.56-4.51,3.38,2.35v43.05l6.49,3.29v3.2h-21.43v-3.2l6.49-3.29v-35.91l-6.49-2.07Zm10.06-15.98c-3.76,0-5.64-1.97-5.64-5.64v-1.13c0-3.67,1.88-5.73,5.64-5.73s5.64,2.07,5.64,5.73v1.13c0,3.67-1.88,5.64-5.64,5.64Z"/>
    <path class="cls-1" d="m437.99,1088.66v-2.91l11.56-4.51,3.38,2.35v4.51c4.79-3.85,11-6.67,16.35-6.67,6.96,0,13.44,3.1,13.44,14.57v30.64l5.55,3.29v3.2h-19.08v-3.2l5.08-3.29v-29.23c0-7.05-3.2-9.49-9.02-9.49-4.51,0-8.83,1.97-12.31,4.51v34.21l5.08,3.29v3.2h-19.08v-3.2l5.55-3.29v-35.91l-6.49-2.07Z"/>
    <path class="cls-1" d="m494.76,1088.66v-2.91l11.56-4.51,3.38,2.35v43.05l6.49,3.29v3.2h-21.43v-3.2l6.49-3.29v-35.91l-6.49-2.07Zm10.06-15.98c-3.76,0-5.64-1.97-5.64-5.64v-1.13c0-3.67,1.88-5.73,5.64-5.73s5.64,2.07,5.64,5.73v1.13c0,3.67-1.88,5.64-5.64,5.64Z"/>
    <path class="cls-1" d="m521.74,1088.66v-2.91l11.56-4.51,3.38,2.35v4.51c4.79-3.85,11-6.67,16.35-6.67,6.96,0,13.44,3.1,13.44,14.57v30.64l5.55,3.29v3.2h-19.08v-3.2l5.08-3.29v-29.23c0-7.05-3.2-9.49-9.02-9.49-4.51,0-8.83,1.97-12.31,4.51v34.21l5.08,3.29v3.2h-19.08v-3.2l5.55-3.29v-35.91l-6.49-2.07Z"/>
    <path class="cls-1" d="m596.94,1155.21c-12.88,0-19.64-5.45-19.64-13.16,0-6.96,5.17-11.19,13.44-13.35-6.11-1.6-9.3-4.23-9.3-7.71,0-3.2,3.01-5.83,8.46-6.67-7.43-2.54-10.43-8.65-10.43-15.13,0-11.28,9.59-18.33,21.24-18.33,2.82,0,5.83.75,8.18,1.79l6.2-8.37,6.02,6.02-6.86,5.26c3.85,2.73,5.36,6.96,5.36,11.84,0,10.81-9.96,17.95-20.96,17.95-5.83,0-8.27,1.6-8.27,3.85,0,2.44,3.67,3.38,10.81,4.04,12.41,1.41,21.9,3.85,21.9,13.82,0,10.62-12.5,18.14-26.13,18.14Zm1.88-4.89c8.46,0,15.04-4.04,15.04-11.56,0-6.02-5.83-7.99-15.13-8.84-1.22-.09-2.44-.28-3.57-.38-5.83,3.1-8.46,6.96-8.46,11.37,0,5.36,4.51,9.4,12.12,9.4Zm-10.15-52.54c0,7.99,4.14,12.97,10.81,12.97,7.52,0,11.37-5.36,11.37-12.31,0-8.65-5.36-12.78-11-12.78-6.3,0-11.19,4.32-11.19,12.12Z"/>
    <path class="cls-1" d="m630.22,1102.38h55.36v5.83h-55.36v-5.83Z"/>
    <path class="cls-1" d="m707.77,1099.09c0,17.67,5.92,29.7,19.93,29.7,5.64,0,10.81-2.54,13.63-7.43v-16.36l-8.65-3.01v-4.98h16.73v36.09h-4.61l-2.54-6.2c-4.42,5.17-10.06,7.71-17.58,7.71-20.11,0-26.69-16.07-26.69-35.15,0-20.87,9.02-38.91,32.43-38.91,5.08,0,11.94.85,18.05,2.54l.66,18.23-5.73.85-5.54-14.95c-2.82-.66-5.92-.85-8.65-.85-14.76,0-21.43,13.63-21.43,32.71Z"/>
    <path class="cls-1" d="m784.66,1080.86c12.03,0,22.18,9.21,22.18,26.22,0,15.98-8.83,27.54-23.5,27.54-13.91,0-22.93-10.43-22.93-25.85s8.74-27.92,24.25-27.92Zm-.38,48.31c8.46,0,13.16-7.42,13.16-21.99,0-11.94-4.14-20.96-13.63-20.96s-14.01,8.65-14.01,20.77c0,12.97,5.17,22.18,14.48,22.18Z"/>
    <path class="cls-1" d="m835.33,1129.92v3.2h-19.55v-3.2l5.55-3.29v-61.38l-6.39-2.35v-2.91l11.47-2.73,3.38,2.35v67.02l5.55,3.29Z"/>
    <path class="cls-1" d="m891.07,1127.76v3.57c-2.35,1.69-5.83,2.54-7.9,2.54-3.38,0-5.08-1.32-5.73-4.51-3.57,3.01-8.65,5.26-14.76,5.26-10.25,0-19.27-7.61-19.27-23.4,0-17.39,8.65-30.36,26.22-30.36,2.63,0,5.17.28,7.33.75v-16.26l-8.08-2.35v-2.91l13.16-2.73,3.38,2.35v65.04c0,2.63.85,3.76,5.64,3.01Zm-23.41,1.03c4.32,0,6.2-.85,9.4-2.63-.09-.66-.09-1.41-.09-2.26v-36.56c-2.16-.47-4.89-.85-7.99-.85-10.62,0-16.17,7.43-16.17,21.9s6.3,20.4,14.85,20.4Z"/>
  </g>
  <g>
    <path class="cls-1" d="m169.25,174.55h-28.2v-3.38l10.34-4.23v-54.99h-10.34v-3.38l12.12-4.32h6.67v62.69l9.4,4.23v3.38Z"/>
    <path class="cls-1" d="m219.16,104.25c-4.04,14.76-13.54,32.8-24.06,47.94h22.37v-22.18h7.9v22.18h11.37v7.52h-11.37v14.85h-7.9v-14.85h-29.89v-7.71c9.49-14.76,18.7-32.99,22.84-47.75h8.74Z"/>
    <path class="cls-1" d="m283.18,174.55h-28.2v-3.38l10.34-4.23v-54.99h-10.34v-3.38l12.12-4.32h6.67v62.69l9.4,4.23v3.38Z"/>
    <path class="cls-1" d="m318.8,138.84c-7.14-4.04-13.35-9.12-13.35-18.61,0-10.62,9.78-16.92,21.15-16.92,10.34,0,20.4,4.51,20.4,16.45,0,8.74-7.24,14.57-13.72,17.11,7.9,4.32,15.7,7.99,15.7,20.02,0,14.66-12.59,19.17-22.93,19.17-12.22,0-22.84-4.98-22.84-17.2,0-9.78,6.96-15.42,15.6-20.02Zm7.24,31.96c8.37,0,13.91-4.32,13.91-12.97,0-7.33-6.96-11.75-15.98-16.26-.66-.38-1.32-.66-1.97-1.03-5.45,3.95-9.78,10.15-9.78,17.2,0,8.18,5.36,13.07,13.82,13.07Zm4.61-35.34c4.04-3.1,7.89-8.18,7.89-15.51,0-8.08-4.89-11.37-12.31-11.37-6.86,0-11.94,4.04-11.94,10.25,0,9.59,8.18,12.12,16.17,16.54l.19.09Z"/>
    <path class="cls-1" d="m419.29,145.51c-3.01,2.35-7.99,4.79-15.13,4.79-9.68,0-20.21-5.36-20.21-22.46,0-13.07,9.21-24.53,23.69-24.53,11.47,0,21.52,6.49,21.52,29.51,0,27.26-8.46,43.24-27.45,43.24-4.61,0-11.37-.66-15.13-1.79l1.13-5.17c3.01.66,8.08,1.13,10.9,1.13,11.56,0,18.8-6.3,20.68-24.72Zm-11.56-.66c4.13,0,8.65-1.79,11.84-3.95.09-1.97.19-3.95.19-6.11,0-22.09-7.33-26.41-14.66-26.41s-12.31,6.86-12.31,17.86,4.98,18.61,14.95,18.61Z"/>
    <path class="cls-1" d="m477.57,174.55h-28.2v-3.38l10.34-4.23v-54.99h-10.34v-3.38l12.12-4.32h6.67v62.69l9.4,4.23v3.38Z"/>
    <path class="cls-1" d="m533.22,145.51c-3.01,2.35-7.99,4.79-15.13,4.79-9.68,0-20.21-5.36-20.21-22.46,0-13.07,9.21-24.53,23.69-24.53,11.47,0,21.52,6.49,21.52,29.51,0,27.26-8.46,43.24-27.45,43.24-4.61,0-11.37-.66-15.13-1.79l1.13-5.17c3.01.66,8.08,1.13,10.9,1.13,11.56,0,18.8-6.3,20.68-24.72Zm-11.56-.66c4.14,0,8.65-1.79,11.84-3.95.09-1.97.19-3.95.19-6.11,0-22.09-7.33-26.41-14.66-26.41s-12.31,6.86-12.31,17.86,4.98,18.61,14.95,18.61Z"/>
    <path class="cls-1" d="m557.19,173.9l-.94-18.52,5.08-.56,5.26,15.6c1.69.38,3.29.56,4.98.56,11.28,0,17.58-6.49,17.58-19.17,0-11.75-6.86-16.64-15.13-16.64-4.98,0-8.65,1.22-11,3.1l-5.73-2.54,3.38-32.43h34.03v8.65h-28.01l-2.26,21.81c3.2-3.1,8.27-4.89,14-4.89,9.87,0,20.12,5.83,20.12,20.77,0,15.88-8.84,26.41-25,26.41-6.02,0-12.03-.94-16.36-2.16Z"/>
    <path class="cls-1" d="m637.65,173.9l-.94-18.52,5.08-.56,5.26,15.6c1.69.38,3.29.56,4.98.56,11.28,0,17.58-6.49,17.58-19.17,0-11.75-6.86-16.64-15.13-16.64-4.98,0-8.65,1.22-11,3.1l-5.73-2.54,3.38-32.43h34.03v8.65h-28.01l-2.26,21.81c3.2-3.1,8.27-4.89,14.01-4.89,9.87,0,20.11,5.83,20.11,20.77,0,15.88-8.83,26.41-25,26.41-6.02,0-12.03-.94-16.35-2.16Z"/>
    <path class="cls-1" d="m694.62,173.8l-.56-18.52,5.08-.56,5.08,15.6c2.54.38,4.7.56,7.61.56,9.3,0,14.38-4.89,14.38-14.38,0-10.71-6.77-15.04-16.83-15.04h-6.77v-5.26h6.58c11.37,0,14.94-6.77,14.94-14.85,0-9.12-4.32-12.88-12.88-12.88-1.79,0-3.48,0-5.36.19l-5.45,14.85-4.79-.75.85-17.76c5.83-1.22,11.09-1.69,17.39-1.69,12.41,0,19.46,5.55,19.46,15.23s-5.36,16.26-13.44,18.99c10.34,1.97,15.7,8.46,15.7,17.67,0,10.72-6.39,20.87-24.63,20.87-5.17,0-11.94-1.03-16.36-2.26Z"/>
    <path class="cls-1" d="m778.84,104.25c-4.04,14.76-13.54,32.8-24.06,47.94h22.37v-22.18h7.89v22.18h11.37v7.52h-11.37v14.85h-7.89v-14.85h-29.89v-7.71c9.49-14.76,18.71-32.99,22.84-47.75h8.74Z"/>
    <path class="cls-1" d="m821.52,138.84c-7.14-4.04-13.35-9.12-13.35-18.61,0-10.62,9.78-16.92,21.15-16.92,10.34,0,20.4,4.51,20.4,16.45,0,8.74-7.24,14.57-13.72,17.11,7.89,4.32,15.7,7.99,15.7,20.02,0,14.66-12.59,19.17-22.93,19.17-12.22,0-22.84-4.98-22.84-17.2,0-9.78,6.96-15.42,15.6-20.02Zm7.24,31.96c8.37,0,13.91-4.32,13.91-12.97,0-7.33-6.96-11.75-15.98-16.26-.66-.38-1.32-.66-1.97-1.03-5.45,3.95-9.78,10.15-9.78,17.2,0,8.18,5.36,13.07,13.82,13.07Zm4.61-35.34c4.04-3.1,7.9-8.18,7.9-15.51,0-8.08-4.89-11.37-12.31-11.37-6.86,0-11.94,4.04-11.94,10.25,0,9.59,8.18,12.12,16.17,16.54l.19.09Z"/>
    <path class="cls-1" d="m162.2,217.05c-4.04,14.76-13.54,32.8-24.06,47.94h22.37v-22.18h7.9v22.18h11.37v7.52h-11.37v14.85h-7.9v-14.85h-29.89v-7.71c9.49-14.76,18.71-32.99,22.84-47.75h8.74Z"/>
    <path class="cls-1" d="m226.21,287.35h-28.2v-3.38l10.34-4.23v-54.99h-10.34v-3.38l12.13-4.32h6.67v62.69l9.4,4.23v3.38Z"/>
    <path class="cls-1" d="m281.86,258.31c-3.01,2.35-7.99,4.79-15.13,4.79-9.68,0-20.21-5.36-20.21-22.46,0-13.07,9.21-24.53,23.69-24.53,11.47,0,21.52,6.49,21.52,29.51,0,27.26-8.46,43.24-27.45,43.24-4.61,0-11.37-.66-15.13-1.79l1.13-5.17c3.01.66,8.08,1.13,10.9,1.13,11.56,0,18.8-6.3,20.68-24.72Zm-11.56-.66c4.13,0,8.65-1.79,11.84-3.95.09-1.97.19-3.95.19-6.11,0-22.09-7.33-26.41-14.66-26.41s-12.31,6.86-12.31,17.86,4.98,18.61,14.95,18.61Z"/>
    <path class="cls-1" d="m340.14,287.35h-28.2v-3.38l10.34-4.23v-54.99h-10.34v-3.38l12.12-4.32h6.67v62.69l9.4,4.23v3.38Z"/>
    <path class="cls-1" d="m386.3,286.6l-.56-18.52,5.08-.56,5.08,15.6c2.54.38,4.7.56,7.61.56,9.31,0,14.38-4.89,14.38-14.38,0-10.71-6.77-15.04-16.82-15.04h-6.77v-5.26h6.58c11.37,0,14.95-6.77,14.95-14.85,0-9.12-4.32-12.88-12.88-12.88-1.79,0-3.48,0-5.36.19l-5.45,14.85-4.79-.75.85-17.76c5.83-1.22,11.09-1.69,17.39-1.69,12.41,0,19.46,5.55,19.46,15.23s-5.36,16.26-13.44,18.99c10.34,1.97,15.7,8.46,15.7,17.67,0,10.72-6.39,20.87-24.63,20.87-5.17,0-11.94-1.03-16.36-2.26Z"/>
    <path class="cls-1" d="m462.53,288.86c-17.2,0-23.41-13.16-23.41-34.4,0-22.93,10.62-38.35,26.04-38.35s22.65,12.78,22.65,31.77c0,26.98-9.02,40.98-25.28,40.98Zm1.6-66.92c-8.46,0-15.6,9.21-15.6,30.74,0,18.14,3.95,30.27,14.57,30.27s15.32-9.3,15.32-31.3c0-20.49-5.64-29.7-14.29-29.7Z"/>
    <path class="cls-1" d="m527.48,217.05c-4.04,14.76-13.54,32.8-24.06,47.94h22.37v-22.18h7.9v22.18h11.37v7.52h-11.37v14.85h-7.9v-14.85h-29.89v-7.71c9.49-14.76,18.7-32.99,22.84-47.75h8.74Z"/>
    <path class="cls-1" d="m576.46,288.86c-17.2,0-23.4-13.16-23.4-34.4,0-22.93,10.62-38.35,26.04-38.35s22.65,12.78,22.65,31.77c0,26.98-9.02,40.98-25.28,40.98Zm1.6-66.92c-8.46,0-15.6,9.21-15.6,30.74,0,18.14,3.95,30.27,14.57,30.27s15.32-9.3,15.32-31.3c0-20.49-5.64-29.7-14.29-29.7Z"/>
    <path class="cls-1" d="m664.91,217.05c-4.04,14.76-13.54,32.8-24.06,47.94h22.37v-22.18h7.9v22.18h11.37v7.52h-11.37v14.85h-7.9v-14.85h-29.89v-7.71c9.49-14.76,18.7-32.99,22.84-47.75h8.74Z"/>
    <path class="cls-1" d="m721.87,217.05c-4.04,14.76-13.54,32.8-24.06,47.94h22.37v-22.18h7.9v22.18h11.37v7.52h-11.37v14.85h-7.9v-14.85h-29.89v-7.71c9.49-14.76,18.71-32.99,22.84-47.75h8.74Z"/>
    <path class="cls-1" d="m751.58,286.7l-.94-18.52,5.08-.56,5.26,15.6c1.69.38,3.29.56,4.98.56,11.28,0,17.58-6.49,17.58-19.17,0-11.75-6.86-16.64-15.13-16.64-4.98,0-8.65,1.22-11,3.1l-5.73-2.54,3.38-32.43h34.03v8.65h-28.01l-2.26,21.81c3.2-3.1,8.27-4.89,14-4.89,9.87,0,20.12,5.83,20.12,20.77,0,15.88-8.84,26.41-25,26.41-6.02,0-12.03-.94-16.35-2.16Z"/>
    <path class="cls-1" d="m808.54,286.7l-.94-18.52,5.08-.56,5.26,15.6c1.69.38,3.29.56,4.98.56,11.28,0,17.58-6.49,17.58-19.17,0-11.75-6.86-16.64-15.13-16.64-4.98,0-8.65,1.22-11,3.1l-5.73-2.54,3.38-32.43h34.03v8.65h-28.01l-2.26,21.81c3.2-3.1,8.27-4.89,14-4.89,9.87,0,20.11,5.83,20.11,20.77,0,15.88-8.83,26.41-25,26.41-6.02,0-12.03-.94-16.36-2.16Z"/>
    <path class="cls-1" d="m169.25,400.15h-28.2v-3.38l10.34-4.23v-54.99h-10.34v-3.38l12.12-4.32h6.67v62.69l9.4,4.23v3.38Z"/>
    <path class="cls-1" d="m211.17,401.66c-17.2,0-23.4-13.16-23.4-34.4,0-22.94,10.62-38.35,26.04-38.35s22.65,12.78,22.65,31.77c0,26.98-9.02,40.98-25.29,40.98Zm1.6-66.92c-8.46,0-15.6,9.21-15.6,30.74,0,18.14,3.95,30.27,14.57,30.27s15.32-9.31,15.32-31.3c0-20.49-5.64-29.7-14.29-29.7Z"/>
    <path class="cls-1" d="m248.87,399.4l-.56-18.52,5.08-.56,5.08,15.6c2.54.38,4.7.56,7.61.56,9.31,0,14.38-4.89,14.38-14.38,0-10.72-6.77-15.04-16.82-15.04h-6.77v-5.26h6.58c11.37,0,14.95-6.77,14.95-14.85,0-9.12-4.32-12.88-12.88-12.88-1.79,0-3.48,0-5.36.19l-5.45,14.85-4.79-.75.85-17.76c5.83-1.22,11.09-1.69,17.39-1.69,12.41,0,19.46,5.54,19.46,15.23s-5.36,16.26-13.44,18.99c10.34,1.97,15.7,8.46,15.7,17.67,0,10.71-6.39,20.87-24.63,20.87-5.17,0-11.94-1.03-16.36-2.26Z"/>
    <path class="cls-1" d="m318.8,364.44c-7.14-4.04-13.35-9.12-13.35-18.61,0-10.62,9.78-16.92,21.15-16.92,10.34,0,20.4,4.51,20.4,16.45,0,8.74-7.24,14.57-13.72,17.11,7.9,4.32,15.7,7.99,15.7,20.02,0,14.66-12.59,19.17-22.93,19.17-12.22,0-22.84-4.98-22.84-17.2,0-9.78,6.96-15.42,15.6-20.02Zm7.24,31.96c8.37,0,13.91-4.32,13.91-12.97,0-7.33-6.96-11.75-15.98-16.26-.66-.38-1.32-.66-1.97-1.03-5.45,3.95-9.78,10.15-9.78,17.2,0,8.18,5.36,13.07,13.82,13.07Zm4.61-35.34c4.04-3.1,7.89-8.18,7.89-15.51,0-8.08-4.89-11.37-12.31-11.37-6.86,0-11.94,4.04-11.94,10.25,0,9.59,8.18,12.12,16.17,16.54l.19.09Z"/>
    <path class="cls-1" d="m386.3,399.4l-.56-18.52,5.08-.56,5.08,15.6c2.54.38,4.7.56,7.61.56,9.31,0,14.38-4.89,14.38-14.38,0-10.72-6.77-15.04-16.82-15.04h-6.77v-5.26h6.58c11.37,0,14.95-6.77,14.95-14.85,0-9.12-4.32-12.88-12.88-12.88-1.79,0-3.48,0-5.36.19l-5.45,14.85-4.79-.75.85-17.76c5.83-1.22,11.09-1.69,17.39-1.69,12.41,0,19.46,5.54,19.46,15.23s-5.36,16.26-13.44,18.99c10.34,1.97,15.7,8.46,15.7,17.67,0,10.71-6.39,20.87-24.63,20.87-5.17,0-11.94-1.03-16.36-2.26Z"/>
    <path class="cls-1" d="m442.23,329.85h42.49v8.65c-13.16,16.35-20.21,34.97-24.25,61.66h-10.06c4.89-25.85,13.63-45.4,27.17-61.66h-35.34v-8.65Z"/>
    <path class="cls-1" d="m519.49,401.66c-17.2,0-23.4-13.16-23.4-34.4,0-22.94,10.62-38.35,26.04-38.35s22.65,12.78,22.65,31.77c0,26.98-9.02,40.98-25.29,40.98Zm1.6-66.92c-8.46,0-15.6,9.21-15.6,30.74,0,18.14,3.95,30.27,14.57,30.27s15.32-9.31,15.32-31.3c0-20.49-5.64-29.7-14.29-29.7Z"/>
    <path class="cls-1" d="m590.18,371.11c-3.01,2.35-7.99,4.79-15.13,4.79-9.68,0-20.21-5.36-20.21-22.46,0-13.07,9.21-24.53,23.69-24.53,11.47,0,21.52,6.49,21.52,29.51,0,27.26-8.46,43.24-27.45,43.24-4.61,0-11.37-.66-15.13-1.79l1.13-5.17c3.01.66,8.08,1.13,10.9,1.13,11.56,0,18.8-6.3,20.68-24.72Zm-11.56-.66c4.14,0,8.65-1.79,11.84-3.95.09-1.97.19-3.95.19-6.11,0-22.09-7.33-26.41-14.66-26.41s-12.31,6.86-12.31,17.86,4.98,18.61,14.95,18.61Z"/>
    <path class="cls-1" d="m637.65,399.5l-.94-18.52,5.08-.56,5.26,15.6c1.69.38,3.29.56,4.98.56,11.28,0,17.58-6.49,17.58-19.18,0-11.75-6.86-16.64-15.13-16.64-4.98,0-8.65,1.22-11,3.1l-5.73-2.54,3.38-32.43h34.03v8.65h-28.01l-2.26,21.81c3.2-3.1,8.27-4.89,14.01-4.89,9.87,0,20.11,5.83,20.11,20.77,0,15.88-8.83,26.41-25,26.41-6.02,0-12.03-.94-16.35-2.16Z"/>
    <path class="cls-1" d="m721.87,329.85c-4.04,14.76-13.54,32.8-24.06,47.94h22.37v-22.18h7.9v22.18h11.37v7.52h-11.37v14.85h-7.9v-14.85h-29.89v-7.71c9.49-14.76,18.71-32.99,22.84-47.75h8.74Z"/>
    <path class="cls-1" d="m750.55,329.85h42.49v8.65c-13.16,16.35-20.21,34.97-24.25,61.66h-10.06c4.89-25.85,13.63-45.4,27.17-61.66h-35.34v-8.65Z"/>
    <path class="cls-1" d="m838.34,334.73c-13.25,0-20.02,9.87-22,25.38,3.38-2.16,8.37-4.13,14.19-4.13,11.56,0,20.68,6.39,20.68,21.52,0,16.35-10.43,24.16-22.28,24.16-14.66,0-22.56-10.15-22.56-31.58,0-24.16,10.53-41.17,31.11-41.17,3.29,0,7.42.66,10.62,1.22l-.66,5.55c-2.63-.56-6.58-.94-9.12-.94Zm-8.08,61.1c6.96,0,11.94-5.36,11.94-16.36s-4.98-18.05-14.19-18.05c-4.61,0-8.83,1.03-12.03,2.82-.09,1.97-.19,3.95-.19,6.02,0,18.99,5.92,25.57,14.47,25.57Z"/>
    <path class="cls-1" d="m164.74,447.53c-13.25,0-20.02,9.87-21.99,25.38,3.38-2.16,8.37-4.14,14.19-4.14,11.56,0,20.68,6.39,20.68,21.53,0,16.35-10.43,24.16-22.28,24.16-14.66,0-22.56-10.15-22.56-31.58,0-24.16,10.53-41.17,31.11-41.17,3.29,0,7.43.66,10.62,1.22l-.66,5.54c-2.63-.56-6.58-.94-9.12-.94Zm-8.08,61.1c6.96,0,11.94-5.36,11.94-16.35s-4.98-18.05-14.19-18.05c-4.61,0-8.84,1.03-12.03,2.82-.09,1.97-.19,3.95-.19,6.02,0,18.99,5.92,25.57,14.48,25.57Z"/>
    <path class="cls-1" d="m211.17,514.46c-17.2,0-23.4-13.16-23.4-34.4,0-22.93,10.62-38.35,26.04-38.35s22.65,12.78,22.65,31.77c0,26.98-9.02,40.98-25.29,40.98Zm1.6-66.92c-8.46,0-15.6,9.21-15.6,30.74,0,18.14,3.95,30.27,14.57,30.27s15.32-9.3,15.32-31.3c0-20.49-5.64-29.7-14.29-29.7Z"/>
    <path class="cls-1" d="m248.87,512.2l-.56-18.52,5.08-.56,5.08,15.6c2.54.38,4.7.56,7.61.56,9.31,0,14.38-4.89,14.38-14.38,0-10.71-6.77-15.04-16.82-15.04h-6.77v-5.26h6.58c11.37,0,14.95-6.77,14.95-14.85,0-9.12-4.32-12.88-12.88-12.88-1.79,0-3.48,0-5.36.19l-5.45,14.85-4.79-.75.85-17.76c5.83-1.22,11.09-1.69,17.39-1.69,12.41,0,19.46,5.55,19.46,15.23s-5.36,16.26-13.44,18.99c10.34,1.97,15.7,8.46,15.7,17.67,0,10.72-6.39,20.87-24.63,20.87-5.17,0-11.94-1.03-16.36-2.26Z"/>
    <path class="cls-1" d="m338.82,483.91c-3.01,2.35-7.99,4.79-15.13,4.79-9.68,0-20.21-5.36-20.21-22.46,0-13.07,9.21-24.53,23.69-24.53,11.47,0,21.53,6.49,21.53,29.51,0,27.26-8.46,43.24-27.45,43.24-4.61,0-11.37-.66-15.13-1.79l1.13-5.17c3.01.66,8.08,1.13,10.9,1.13,11.56,0,18.8-6.3,20.68-24.72Zm-11.56-.66c4.14,0,8.65-1.79,11.84-3.95.09-1.97.19-3.95.19-6.11,0-22.09-7.33-26.41-14.66-26.41s-12.31,6.86-12.31,17.86,4.98,18.61,14.94,18.61Z"/>
    <path class="cls-1" d="m413.55,442.65c-4.04,14.76-13.54,32.8-24.06,47.94h22.37v-22.18h7.9v22.18h11.37v7.52h-11.37v14.85h-7.9v-14.85h-29.89v-7.71c9.49-14.76,18.71-32.99,22.84-47.75h8.74Z"/>
    <path class="cls-1" d="m462.53,514.46c-17.2,0-23.41-13.16-23.41-34.4,0-22.93,10.62-38.35,26.04-38.35s22.65,12.78,22.65,31.77c0,26.98-9.02,40.98-25.28,40.98Zm1.6-66.92c-8.46,0-15.6,9.21-15.6,30.74,0,18.14,3.95,30.27,14.57,30.27s15.32-9.3,15.32-31.3c0-20.49-5.64-29.7-14.29-29.7Z"/>
    <path class="cls-1" d="m533.22,483.91c-3.01,2.35-7.99,4.79-15.13,4.79-9.68,0-20.21-5.36-20.21-22.46,0-13.07,9.21-24.53,23.69-24.53,11.47,0,21.52,6.49,21.52,29.51,0,27.26-8.46,43.24-27.45,43.24-4.61,0-11.37-.66-15.13-1.79l1.13-5.17c3.01.66,8.08,1.13,10.9,1.13,11.56,0,18.8-6.3,20.68-24.72Zm-11.56-.66c4.14,0,8.65-1.79,11.84-3.95.09-1.97.19-3.95.19-6.11,0-22.09-7.33-26.41-14.66-26.41s-12.31,6.86-12.31,17.86,4.98,18.61,14.95,18.61Z"/>
    <path class="cls-1" d="m556.15,442.65h42.49v8.65c-13.16,16.36-20.21,34.97-24.25,61.66h-10.06c4.89-25.85,13.63-45.4,27.16-61.66h-35.34v-8.65Z"/>
    <path class="cls-1" d="m671.96,512.95h-28.2v-3.38l10.34-4.23v-54.99h-10.34v-3.38l12.13-4.32h6.67v62.69l9.4,4.23v3.38Z"/>
    <path class="cls-1" d="m728.92,512.95h-28.2v-3.38l10.34-4.23v-54.99h-10.34v-3.38l12.12-4.32h6.67v62.69l9.4,4.23v3.38Z"/>
    <path class="cls-1" d="m781.38,447.53c-13.25,0-20.02,9.87-22,25.38,3.38-2.16,8.37-4.14,14.19-4.14,11.56,0,20.68,6.39,20.68,21.53,0,16.35-10.43,24.16-22.28,24.16-14.66,0-22.56-10.15-22.56-31.58,0-24.16,10.53-41.17,31.11-41.17,3.29,0,7.43.66,10.62,1.22l-.66,5.54c-2.63-.56-6.58-.94-9.12-.94Zm-8.08,61.1c6.96,0,11.94-5.36,11.94-16.35s-4.98-18.05-14.19-18.05c-4.61,0-8.83,1.03-12.03,2.82-.09,1.97-.19,3.95-.19,6.02,0,18.99,5.92,25.57,14.47,25.57Z"/>
    <path class="cls-1" d="m835.8,442.65c-4.04,14.76-13.54,32.8-24.06,47.94h22.37v-22.18h7.9v22.18h11.37v7.52h-11.37v14.85h-7.9v-14.85h-29.89v-7.71c9.49-14.76,18.71-32.99,22.84-47.75h8.74Z"/>
  </g>
  <rect class="cls-3" x="990.26" y="636.67" width="990" height="636.67"/>
  <g>
    <path class="cls-1" d="m1154.81,1022.96v-132.88l-16.06-9.24v-7.92h52.36v7.92l-15.62,9.24v59.84h71.06v-59.84l-15.62-9.24v-7.92h52.36v7.92l-16.06,9.24v132.88l16.06,9.24v7.92h-52.36v-7.92l15.62-9.24v-59.84h-71.06v59.84l15.62,9.24v7.92h-52.36v-7.92l16.06-9.24Z"/>
    <path class="cls-1" d="m1342.69,932.54v97.02h32.12c11.66,0,14.74-4.4,14.74-15.18v-95.7l9.9-7.7h9.02v94.38c0,21.34-5.28,34.76-28.38,34.76h-67.1v-7.48l10.78-5.28v-68.64l-5.5,2.86c-15.84,0-20.02-6.38-20.02-21.34v-10.34c0-14.52,8.14-20.24,23.32-20.24s21.12,7.92,21.12,22.88Zm-17.38,20.24v-23.1c0-6.82-1.76-10.34-7.48-10.34-5.06,0-8.14,2.64-8.14,10.56v11c0,8.8,2.64,11.88,9.02,11.88h6.6Z"/>
    <path class="cls-1" d="m1400.99,1053.76h7.48v32.56c0,10.56-4.84,15.18-14.52,15.18h-30.14v-17.38l-6.16,3.74c-12.32,0-17.6-2.64-17.6-16.72,0-11.88,6.38-18.48,20.02-18.48,10.78,0,18.7,3.08,18.7,16.28v24.42h6.6c5.06,0,6.6-1.54,6.6-6.38v-25.52l9.02-7.7Zm-37.18,28.16v-14.52c0-4.62-.88-7.7-5.5-7.7-3.96,0-6.16,2.64-6.16,11.22,0,9.46,2.42,11,6.6,11h5.06Z"/>
    <path class="cls-1" d="m1527.05,949.04c0-22.88-11.44-29.48-26.84-29.48s-33.66,7.7-44.44,14.96l18.92,19.36v86.24h-18.92v-84.48l-15.62-15.84v-6.82c9.68-8.8,36.08-24.86,64.02-24.86s41.8,11.88,41.8,42.02v84.04l-9.02,7.7h-9.9v-92.84Z"/>
    <path class="cls-1" d="m1452.47,894.26v-7.26c0-12.1,6.82-23.98,31.02-23.98,18.48,0,34.54,8.8,43.56,17.38v-17.38h16.72v31.24h-91.3Zm16.72-8.8h49.5c-10.34-8.36-24.86-13.64-34.98-13.64s-14.52,4.18-14.52,12.32v1.32Z"/>
    <path class="cls-1" d="m1523.97,854h-12.54v-5.72c8.14-1.1,14.08-3.52,17.38-9.02l-5.94,2.64c-7.7,0-11.88-3.96-11.88-13.2s4.84-14.52,16.5-14.52c9.68,0,14.74,4.62,14.74,13.42s-3.96,16.06-13.42,20.02c15.18-1.32,17.38-5.94,26.84-19.36l9.24,8.58c-9.24,12.1-16.72,17.16-40.92,17.16Zm6.16-27.94c0-4.84-1.32-6.16-3.74-6.16-2.86,0-4.62,1.76-4.62,8.58s1.54,7.92,5.28,7.92h3.08v-10.34Z"/>
    <path class="cls-1" d="m1653.34,1059.26l-5.94-5.28c18.26-23.32,28.82-48.18,28.82-77.88,0-38.5-14.74-51.48-38.72-51.48-28.16,0-38.72,24.86-38.72,52.8,0,20.02,3.08,40.04,16.72,47.3-2.64-4.4-3.52-9.68-3.52-16.94,0-10.12,5.28-20.24,18.92-20.24,14.52,0,20.46,7.26,20.46,22.66,0,16.72-9.68,25.74-27.06,25.74-24.86,0-44.88-20.68-44.88-61.6s25.52-60.72,58.08-60.72c38.28,0,58.52,21.78,58.52,61.6,0,32.56-15.62,59.62-42.68,84.04Zm-14.74-47.96c0-11.22-1.76-14.3-7.7-14.3-5.5,0-7.7,3.08-7.7,11,0,6.38.66,13.86,1.98,19.58.88.22,1.98.22,3.08.22,7.7,0,10.34-5.28,10.34-16.5Z"/>
    <path class="cls-1" d="m1716.69,875.78v-6.82l26.84-6.38,7.92,5.5v66.66c11.22-9.02,25.74-15.62,38.28-15.62,16.28,0,31.46,7.26,31.46,34.1v71.72l12.98,7.7v7.48h-44.66v-7.48l11.88-7.7v-68.2c0-16.72-7.48-22.44-21.12-22.44-10.56,0-20.68,4.62-28.82,10.56v80.08l11.88,7.7v7.48h-44.66v-7.48l12.98-7.7v-143.66l-14.96-5.5Z"/>
  </g>
</svg>