<?xml version="1.0" encoding="UTF-8"?>
<svg id="Layer_4" data-name="Layer 4" xmlns="http://www.w3.org/2000/svg" viewBox="0 0 900 2314.72">
  <defs>
    <style>
      .cls-1 {
        fill: #f0f0e6;
      }

      .cls-2 {
        fill: #ff4628;
      }

      .cls-3 {
        fill: #4576cc;
      }
    </style>
  </defs>
  <g>
    <rect class="cls-1" y="578.79" width="900" height="578.79"/>
    <g>
      <path class="cls-3" d="m242.9,680.69v37.68h12.48c4.53,0,5.73-1.71,5.73-5.9v-55.37l3.85-2.99h3.5v54.86c0,8.29-2.05,13.5-11.02,13.5h-26.06v-2.91l4.19-2.05v-26.66l-2.14,1.11c-6.15,0-7.78-2.48-7.78-8.29v-4.02c0-5.55,3.16-7.86,9.06-7.86s8.2,3.08,8.2,8.89Zm-6.75,7.86v-8.97c0-2.65-.68-4.02-2.91-4.02-1.97,0-3.16,1.03-3.16,4.1v4.27c0,3.42,1.03,4.61,3.5,4.61h2.56Z"/>
      <path class="cls-3" d="m226.59,665.82v-2.82c0-4.7,2.39-9.31,10.6-9.31,6.07,0,11.28,3.25,14.36,6.49v-6.49h6.49v12.13h-31.45Zm6.24-3.42h16.24c-3.67-3.16-8.37-5.3-11.79-5.3-3.08,0-4.44,1.62-4.44,4.79v.51Z"/>
      <path class="cls-3" d="m308.62,691.37l-10.34,31.1h-8.2v-31.79l-2.48,1.28c-6.15,0-7.78-2.48-7.78-8.29v-4.02c0-5.64,3.16-7.86,8.97-7.86s8.29,3.08,8.29,8.89v10.77c0,6.15-.26,17.86-1.97,26.23h.43l10.85-35.38h4.7l10.68,35.38h.43c-1.11-8.46-1.71-19.65-1.71-26.23v-16.15l3.93-2.99h2.91v50.16h-9.06l-9.66-31.1Zm-18.29-2.82v-8.97c0-2.65-.68-4.02-2.91-4.02-1.97,0-3.16,1.03-3.16,4.1v4.27c0,3.42,1.03,4.61,3.5,4.61h2.56Z"/>
      <path class="cls-3" d="m348.1,723.33c-3.59,0-5.38-1.88-5.38-5.38v-1.03c0-3.5,1.79-5.47,5.38-5.47s5.38,1.97,5.38,5.47v1.03c0,3.5-1.79,5.38-5.38,5.38Z"/>
      <path class="cls-3" d="m408.43,720.17l-3.76,2.99h-3.42v-34.18c0-10.08-5.64-13.33-12.65-13.33-7.6,0-13.42,4.02-13.42,13.33v10c0,3.76-.51,8.54-.77,12.82l4.44-15.04c1.79-5.98,4.27-8.54,9.48-8.54,4.27,0,6.58,2.56,6.58,6.49v4.27c0,5.04-3.25,6.84-6.84,6.84-3.85,0-5.81-2.05-5.81-5.9v-.26l-7.09,22.81h-7.01v-33.15c0-11.45,8.2-18.12,20.51-18.12,5.13,0,10.94,1.37,14.01,4.7l7.52-6.24,3.16,5.38-7.78,4.1c1.97,2.22,2.82,5.38,2.82,9.23v31.79Zm-20.25-17.43c1.62,0,2.48-.68,2.48-3.59v-4.61c0-2.22-1.03-3.16-2.73-3.16-.94,0-1.71.34-2.39.94v6.67c0,2.9.94,3.76,2.65,3.76Z"/>
      <path class="cls-3" d="m428.85,723.33c-3.59,0-5.38-1.88-5.38-5.38v-1.03c0-3.5,1.79-5.47,5.38-5.47s5.38,1.97,5.38,5.47v1.03c0,3.5-1.79,5.38-5.38,5.38Z"/>
      <path class="cls-3" d="m473.97,665.82h3.67v52.72h21.88c6.67,0,9.57-.85,9.57-5.64v-28.97c0-2.82-.85-4.62-2.73-5.81l-6.41,3.5-5.98-3.5c-2.31.77-3.67,3.76-3.67,6.75v3.59c1.45-.77,2.91-1.37,3.93-1.37,4.87,0,7.26,2.22,7.26,8.8s-2.65,10-8.03,10c-7.26,0-10.17-4.1-10.17-12.56,0-11.71,1.54-17.35,11.11-19.74l5.73,3.5,6.07-3.5c6.58,1.11,10.42,4.96,10.42,11.19v24.87c0,11.36-5.47,12.82-13.5,12.82h-32.98v-53.66l3.85-2.99Zm19.48,36.49c1.97,0,2.82-1.11,2.82-4.36v-3.67c0-2.82-1.11-3.93-3.85-3.93h-2.22v7.86c0,3.16,1.03,4.1,3.25,4.1Z"/>
      <path class="cls-3" d="m572.58,722.47h-24.87c-11.62,0-17.09-5.38-17.09-19.65v-8.54c0-14.27,8.2-18.8,16.06-19.65-1.62-1.96-1.97-4.53-1.97-6.67,0-4.44,1.97-8.12,8.2-8.12s8.2,3.67,8.2,8.12c0,2.05-.51,4.7-1.97,6.41,5.55-.34,7.18-2.05,8.63-7.26l.85-2.99,5.98,1.11-.6,2.65c-1.45,6.58-4.44,10.6-17.35,10.6h-6.24c-7.78,0-12.3,5.13-12.3,16.49v6.92c0,11.28,3.67,16.32,11.11,16.32h10.68c-6.41-3.76-9.31-11.11-9.31-18.37v-1.2c0-5.3,2.82-8.97,8.89-8.97s7.95,3.93,7.95,9.4c0,6.32-1.88,8.89-8.03,8.8l-1.88-1.11c1.79,6.32,5.55,11.45,11.88,11.45h3.16v4.27Zm-19.65-48.11c2.39,0,3.08-1.03,3.08-5.64s-.68-5.64-3.08-5.64-3.08,1.03-3.08,5.64.68,5.64,3.08,5.64Zm4.19,30.93h1.79c2.22,0,3.5-1.11,3.5-4.53v-3.16c0-3.25-1.11-4.36-2.82-4.36-2.31,0-3.25,1.28-3.25,5.81,0,2.39.26,4.27.77,6.24Z"/>
      <path class="cls-3" d="m599.33,723.84c-12.73,0-18.54-7.43-18.54-17.09,0-7.35,3.42-10.51,8.72-10.51,4.27,0,7.78,1.45,7.78,8.8s-2.56,10.08-6.49,10.08l-2.56-1.37c1.45,3.42,5.13,5.81,10.77,5.81,7.95,0,13.93-5.64,13.93-21.02s-5.04-20.94-13.07-20.94c-7.09,0-11.28,5.64-12.9,9.91h-5.47l-4.27-22.04,6.07-1.11,2.82,16.75c2.82-4.44,8.46-7.78,15.04-7.78,11.71,0,19.48,7.35,19.48,25.21,0,19.31-10.85,25.29-21.28,25.29Zm-12.73-17.43c0,1.37.26,4.27,1.03,6.15h1.88c1.88,0,3.08-1.54,3.08-5.98v-1.88c0-3.59-1.11-4.79-2.99-4.79s-2.99,1.2-2.99,4.79v1.71Z"/>
      <path class="cls-3" d="m674.02,722.47h-24.87c-11.62,0-17.09-5.38-17.09-19.65v-8.54c0-16.32,10.68-20.08,19.31-20.08h6.41c7.86,0,9.74-1.28,11.45-7.09l.85-2.99,5.98,1.11-.6,2.65c-1.45,6.58-4.44,10.6-17.35,10.6h-6.24c-7.78,0-12.3,5.13-12.3,16.49v6.92c0,11.28,3.67,16.32,11.11,16.32h10.68c-6.41-3.76-9.31-11.11-9.31-18.37v-1.2c0-5.3,2.82-8.97,8.89-8.97s7.95,3.93,7.95,9.4c0,6.32-1.88,8.89-8.03,8.8l-1.88-1.11c1.79,6.32,5.55,11.45,11.88,11.45h3.16v4.27Zm-10.17-24.87c0-3.25-1.11-4.36-2.82-4.36-2.31,0-3.25,1.28-3.25,5.81,0,2.39.26,4.27.77,6.24h1.79c2.22,0,3.5-1.11,3.5-4.53v-3.16Z"/>
      <path class="cls-3" d="m178.9,826.39c-12.39,0-17.86-2.99-17.86-14.1v-11.79c0-7.86,3.76-10.68,9.23-10.68,5.13,0,7.43,2.65,7.43,7.18v4.87c0,4.87-2.05,7.61-7.18,7.69l-2.48-1.71v3.67c0,8.37,2.31,10.6,10.94,10.6,7.86,0,10.17-2.65,10.17-12.48v-19.4c0-8.97-4.96-12.05-11.96-12.05-6.49,0-12.9,2.65-16.49,4.87l-1.37-3.16c3.59-2.39,10.85-6.15,20.08-6.15s17.09,3.93,17.09,16.41v20c0,11.19-4.53,16.24-17.6,16.24Zm-11.02-28.11v7.95h2.22c2.22,0,3.16-.94,3.16-4.1v-3.84c0-3.5-.68-4.53-2.48-4.53-1.97,0-2.91,1.03-2.91,4.53Z"/>
      <path class="cls-3" d="m226.15,786.82c0-6.49-3.5-8.63-8.37-8.63-5.3,0-10.17,2.14-13.67,4.36l-1.54-3.16c3.16-2.22,10.34-5.64,17.6-5.64s13.33,3.42,13.33,13.93v35.03l-3.85,2.99h-3.5v-38.88Z"/>
      <path class="cls-3" d="m247.26,822.11l3.33-2.05v-6.41c0-4.19,1.28-7.01,4.27-8.54-5.98-1.2-7.43-5.21-7.43-13.59v-8.29c0-5.81,3.33-8.89,8.97-8.89s7.95,2.73,7.95,7.86v4.02c0,4.61-1.45,8.29-7.78,8.29l-2.56-1.37v1.03c0,5.98,3.08,7.43,9.48,7.43h2.82v3.85h-4.02c-4.02,0-5.13,2.39-5.13,6.92v8.54h13.42c4.53,0,5.73-1.71,5.73-5.9v-37.17l3.85-2.99h3.5v36.66c0,8.29-2.05,13.5-11.02,13.5h-25.38v-2.91Zm6.58-39.99v8.97h3.08c1.97,0,2.99-1.2,2.99-4.62v-4.27c0-3.08-.94-4.1-2.91-4.1-2.48,0-3.16,1.37-3.16,4.02Z"/>
      <path class="cls-3" d="m280.16,849.71h-2.82v-7.52l-1.97,1.28c-4.96.26-7.26-1.71-7.26-6.49s2.73-7.18,8.03-7.18c4.19,0,7.52,1.37,7.52,6.49v10.6l-3.5,2.82Zm-2.82-8.54v-5.64c0-1.79-.34-2.99-2.14-2.99-1.54,0-2.39,1.03-2.39,4.44,0,3.59.94,4.19,2.56,4.19h1.97Z"/>
      <path class="cls-3" d="m330.07,820.06c-.34-1.54-.43-3.08-.43-4.7,0-3.93,2.14-7.61,7.43-7.61s7.43,2.82,7.43,8.8c0,6.41-2.91,9.83-9.57,9.83-11.11,0-15.47-9.83-15.47-27,0-14.01,4.79-23.5,15.47-23.5,5.04,0,8.2,1.71,9.57,6.49,2.14-4.61,5.98-6.49,10.42-6.49,7.95,0,11.79,5.55,11.79,13.42v33.41l-3.76,2.99h-3.76v-37.26c0-5.64-1.71-8.29-5.64-8.29-3.67,0-6.15,2.48-6.15,8.12v9.83h-7.18v-9.83c0-5.9-2.05-8.2-5.38-8.2-5.3,0-7.86,6.58-7.86,18.88,0,9.48.68,17,3.08,21.11Zm4.1,3.16c.43.08.85.17,1.37.17,2.99,0,4.02-2.05,4.02-6.41s-.68-5.55-2.99-5.55c-1.97,0-2.99,1.2-2.99,4.27,0,2.48,0,5.3.6,7.52Z"/>
      <path class="cls-3" d="m406.89,832.45l-2.31-2.05c7.09-9.06,11.19-18.71,11.19-30.25,0-14.95-5.73-19.99-15.04-19.99-10.94,0-15.04,9.66-15.04,20.51,0,7.78,1.2,15.55,6.49,18.37-1.03-1.71-1.37-3.76-1.37-6.58,0-3.93,2.05-7.86,7.35-7.86,5.64,0,7.95,2.82,7.95,8.8,0,6.49-3.76,10-10.51,10-9.66,0-17.43-8.03-17.43-23.93s9.91-23.58,22.56-23.58c14.87,0,22.73,8.46,22.73,23.93,0,12.65-6.07,23.16-16.58,32.64Zm-5.73-18.63c0-4.36-.68-5.55-2.99-5.55-2.14,0-2.99,1.2-2.99,4.27,0,2.48.26,5.38.77,7.61.34.08.77.08,1.2.08,2.99,0,4.02-2.05,4.02-6.41Z"/>
      <path class="cls-3" d="m468.59,783.24v37.68h12.48c4.53,0,5.73-1.71,5.73-5.9v-55.37l3.85-2.99h3.5v54.86c0,8.29-2.05,13.5-11.02,13.5h-26.06v-2.91l4.19-2.05v-26.66l-2.14,1.11c-6.15,0-7.78-2.48-7.78-8.29v-4.02c0-5.55,3.16-7.86,9.06-7.86s8.2,3.08,8.2,8.89Zm-6.75,7.86v-8.97c0-2.65-.68-4.02-2.91-4.02-1.97,0-3.16,1.03-3.16,4.1v4.27c0,3.42,1.03,4.62,3.5,4.62h2.56Z"/>
      <path class="cls-3" d="m452.27,768.37v-2.82c0-4.7,2.39-9.31,10.6-9.31,6.07,0,11.28,3.25,14.36,6.49v-6.49h6.49v12.13h-31.45Zm6.24-3.42h16.24c-3.67-3.16-8.37-5.3-11.79-5.3-3.08,0-4.44,1.62-4.44,4.79v.51Z"/>
      <path class="cls-3" d="m522.17,783.24v37.68h12.48c4.53,0,5.73-1.71,5.73-5.9v-37.17l3.85-2.99h3.5v36.66c0,8.29-2.05,13.5-11.02,13.5h-26.06v-2.91l4.19-2.05v-26.66l-2.14,1.11c-6.15,0-7.78-2.48-7.78-8.29v-4.02c0-5.64,3.16-7.86,9.06-7.86s8.2,3.08,8.2,8.89Zm-6.75,7.86v-8.97c0-2.65-.68-4.02-2.91-4.02-1.97,0-3.16,1.03-3.16,4.1v4.27c0,3.42,1.03,4.62,3.5,4.62h2.56Z"/>
      <path class="cls-3" d="m572.59,825.62c-5.98,0-8.2-2.39-8.2-8.8v-4.27c0-3.76,1.71-7.43,7.35-7.43l3.42,1.96v-5.21c0-7.6-2.22-9.91-17.77-13.59,1.11-7.95,3.42-14.53,10.77-14.53,6.24,0,12.13,1.2,17.69,2.82l-.94,5.38c-6.41-1.62-11.45-2.82-16.15-2.82-4.19,0-5.98,2.56-6.92,6.84,14.44,2.65,20.34,5.55,20.34,14.78v15.04c0,6.92-2.31,9.83-9.57,9.83Zm2.65-7.86v-9.06h-2.65c-2.39,0-3.42,1.2-3.42,4.62v4.44c0,2.99,1.11,3.93,2.91,3.93,2.14,0,3.16-1.2,3.16-3.93Z"/>
      <path class="cls-3" d="m556.18,768.37v-2.99c0-4.87,2.22-9.31,9.48-9.31,9.48,0,16.66,4.79,20.34,9.57v2.73h-29.82Zm6.24-3.42h17.35c-3.85-3.42-8.12-5.47-12.82-5.47-2.73,0-4.53,1.62-4.53,4.79v.68Z"/>
      <path class="cls-3" d="m607.71,783.24v37.68h12.48c4.53,0,5.73-1.71,5.73-5.9v-37.17l3.85-2.99h3.5v36.66c0,8.29-2.05,13.5-11.02,13.5h-26.06v-2.91l4.19-2.05v-26.66l-2.14,1.11c-6.15,0-7.78-2.48-7.78-8.29v-4.02c0-5.64,3.16-7.86,9.06-7.86s8.2,3.08,8.2,8.89Zm-6.75,7.86v-8.97c0-2.65-.68-4.02-2.91-4.02-1.97,0-3.16,1.03-3.16,4.1v4.27c0,3.42,1.03,4.62,3.5,4.62h2.56Z"/>
      <path class="cls-3" d="m630.36,830.32h2.91v12.65c0,4.1-1.88,5.9-5.64,5.9h-11.71v-6.75l-2.39,1.45c-4.79,0-6.84-1.03-6.84-6.49,0-4.61,2.48-7.18,7.78-7.18,4.19,0,7.26,1.2,7.26,6.32v9.48h2.56c1.97,0,2.56-.6,2.56-2.48v-9.91l3.5-2.99Zm-14.44,10.94v-5.64c0-1.79-.34-2.99-2.14-2.99-1.54,0-2.39,1.03-2.39,4.36,0,3.67.94,4.27,2.56,4.27h1.97Z"/>
      <path class="cls-3" d="m658.13,825.62c-5.98,0-8.2-2.39-8.2-8.8v-4.27c0-3.76,1.71-7.43,7.35-7.43l3.42,1.96v-5.21c0-7.6-2.22-9.91-17.77-13.59,1.11-7.95,3.42-14.53,10.77-14.53,6.24,0,12.13,1.2,17.69,2.82l-.94,5.38c-6.41-1.62-11.45-2.82-16.15-2.82-4.19,0-5.98,2.56-6.92,6.84,14.44,2.65,20.34,5.55,20.34,14.78v15.04c0,6.92-2.31,9.83-9.57,9.83Zm2.65-7.86v-9.06h-2.65c-2.39,0-3.42,1.2-3.42,4.62v4.44c0,2.99,1.11,3.93,2.91,3.93,2.14,0,3.16-1.2,3.16-3.93Z"/>
      <path class="cls-3" d="m715.46,817.76c2.73-4.44,8.37-9.23,12.3-10.51v-29.39l3.85-2.99h3.5v30.51c3.42.34,5.38,2.82,5.38,7.09v4.79c0,6.49-2.39,8.38-7.69,8.38s-7.69-2.05-7.69-8.38v-4.61c-3.67,2.73-8.2,8.03-9.66,12.39h-7.18v-36.49c0-7.86-4.7-10.34-10.34-10.34-6.32,0-11.62,2.99-15.38,5.9l6.84,7.01v16.15l3.33-1.62c5.64,0,7.01,3.5,7.01,7.09v4.27c0,6.24-2.82,8.63-8.8,8.63-6.58,0-8.72-2.91-8.72-9.83v-24.18l-5.73-5.64v-2.56c4.1-3.84,13.5-9.66,22.9-9.66,10.68,0,16.06,4.61,16.06,16.32v27.69Zm-23.07,4.1c1.79,0,2.91-.94,2.91-3.93v-4.44c0-3.42-1.03-4.61-3.42-4.61h-2.65v9.06c0,2.73,1.03,3.93,3.16,3.93Zm40.84,0c1.71,0,2.82-.68,2.82-4.36v-4.87c0-2.65-.94-3.67-2.82-3.67-1.03,0-2.14.43-2.91.94v7.6c0,3.16.68,4.36,2.91,4.36Z"/>
      <path class="cls-3" d="m728.29,769.56c-4.44,0-7.18-2.14-7.18-7.35,0-3.67,1.79-8.46,8.54-10.51l6.75-2.05,1.2,3.25-7.18,2.73c-1.71.68-2.73,1.62-3.33,2.91l2.22-1.2c3.85-.17,6.15,1.28,6.15,5.81s-2.39,6.41-7.18,6.41Zm2.56-6.24c0-2.73-.6-3.67-3.25-3.67h-.94c-.34,1.11-.43,2.31-.43,3.67,0,2.91.77,3.5,2.39,3.5,1.37,0,2.22-.6,2.22-3.5Z"/>
      <path class="cls-3" d="m132.97,903.72c0-15.04,7.95-25.29,22.9-25.29s22.9,10.25,22.9,25.29-7.95,25.21-22.9,25.21-22.9-10.17-22.9-25.21Zm38.11,0c0-13.07-5.13-21.02-15.21-21.02s-15.21,7.95-15.21,21.02,5.13,20.94,15.21,20.94,15.21-7.78,15.21-20.94Z"/>
      <path class="cls-3" d="m207.57,928.93c-12.73,0-18.54-7.43-18.54-17.09,0-7.35,3.42-10.51,8.72-10.51,4.27,0,7.78,1.45,7.78,8.8s-2.56,10.08-6.49,10.08l-2.56-1.37c1.45,3.42,5.13,5.81,10.77,5.81,7.95,0,13.93-5.64,13.93-21.02s-5.04-20.93-13.07-20.93c-7.09,0-11.28,5.64-12.9,9.91h-5.47l-4.27-22.05,6.07-1.11,2.82,16.75c2.82-4.44,8.46-7.78,15.04-7.78,11.71,0,19.48,7.35,19.48,25.21,0,19.31-10.85,25.29-21.28,25.29Zm-12.73-17.43c0,1.37.26,4.27,1.03,6.15h1.88c1.88,0,3.08-1.54,3.08-5.98v-1.88c0-3.59-1.11-4.79-2.99-4.79s-2.99,1.2-2.99,4.79v1.71Z"/>
      <path class="cls-3" d="m282.25,927.56h-24.87c-11.62,0-17.09-5.38-17.09-19.65v-8.54c0-14.27,8.2-18.8,16.06-19.65-1.62-1.97-1.97-4.53-1.97-6.67,0-4.44,1.97-8.12,8.2-8.12s8.2,3.67,8.2,8.12c0,2.05-.51,4.7-1.97,6.41,5.55-.34,7.18-2.05,8.63-7.26l.85-2.99,5.98,1.11-.6,2.65c-1.45,6.58-4.44,10.6-17.35,10.6h-6.24c-7.78,0-12.3,5.13-12.3,16.49v6.92c0,11.28,3.67,16.32,11.11,16.32h10.68c-6.41-3.76-9.31-11.11-9.31-18.37v-1.2c0-5.3,2.82-8.97,8.89-8.97s7.95,3.93,7.95,9.4c0,6.32-1.88,8.89-8.03,8.8l-1.88-1.11c1.79,6.32,5.55,11.45,11.88,11.45h3.16v4.27Zm-19.65-48.11c2.39,0,3.08-1.03,3.08-5.64s-.68-5.64-3.08-5.64-3.08,1.03-3.08,5.64.68,5.64,3.08,5.64Zm4.19,30.93h1.79c2.22,0,3.5-1.11,3.5-4.53v-3.16c0-3.25-1.11-4.36-2.82-4.36-2.31,0-3.25,1.28-3.25,5.81,0,2.39.26,4.27.77,6.24Z"/>
      <path class="cls-3" d="m291.66,899.96h24.18v5.81h-24.18v-5.81Z"/>
      <path class="cls-3" d="m339.17,922.61c-.34-1.54-.43-3.08-.43-4.7,0-3.93,2.14-7.61,7.43-7.61s7.43,2.82,7.43,8.8c0,6.41-2.91,9.83-9.57,9.83-11.11,0-15.47-9.83-15.47-27,0-14.01,4.79-23.5,15.47-23.5,5.04,0,8.2,1.71,9.57,6.49,2.14-4.61,5.98-6.49,10.42-6.49,7.95,0,11.79,5.55,11.79,13.42v33.41l-3.76,2.99h-3.76v-37.26c0-5.64-1.71-8.29-5.64-8.29-3.67,0-6.15,2.48-6.15,8.12v9.83h-7.18v-9.83c0-5.9-2.05-8.2-5.38-8.2-5.3,0-7.86,6.58-7.86,18.88,0,9.48.68,17,3.08,21.11Zm4.1,3.16c.43.08.85.17,1.37.17,2.99,0,4.02-2.05,4.02-6.41s-.68-5.55-2.99-5.55c-1.97,0-2.99,1.2-2.99,4.27,0,2.48,0,5.3.6,7.52Z"/>
      <path class="cls-3" d="m410.95,883.56c-8.63,0-13.59,5.47-13.59,17.43v4.27c0,7.09,1.62,13.24,5.64,17.6l6.07-6.32c2.65,5.38,6.32,7.6,10.17,7.6s6.58-2.14,6.58-7.09l-2.48,1.37c-5.21,0-7.78-2.73-7.78-8.89s2.05-9.83,8.12-9.83,8.54,3.5,8.54,8.89v6.07c0,7.43-3.42,13.76-12.99,13.76-4.19,0-8.63-1.96-10.85-5.98l-4.87,5.13h-4.61c-4.36-4.53-9.06-11.11-9.06-22.3v-4.27c0-17.69,11.45-21.7,20.59-21.7h5.13c7.86,0,9.74-1.28,11.45-7.09l.85-2.99,5.98,1.11-.6,2.65c-1.45,6.58-4.44,10.6-17.35,10.6h-4.96Zm14.87,31.87v-7.18c0-3.67-.43-4.87-2.65-4.87-1.79,0-2.91,1.03-2.91,4.1v3.42c0,3.42,1.28,4.53,3.5,4.53h2.05Z"/>
      <path class="cls-3" d="m486.92,927.56h-24.87c-11.62,0-17.09-5.38-17.09-19.65v-8.54c0-14.27,8.2-18.8,16.06-19.65-1.62-1.97-1.97-4.53-1.97-6.67,0-4.44,1.97-8.12,8.2-8.12s8.2,3.67,8.2,8.12c0,2.05-.51,4.7-1.97,6.41,5.55-.34,7.18-2.05,8.63-7.26l.85-2.99,5.98,1.11-.6,2.65c-1.45,6.58-4.44,10.6-17.35,10.6h-6.24c-7.78,0-12.3,5.13-12.3,16.49v6.92c0,11.28,3.67,16.32,11.11,16.32h10.68c-6.41-3.76-9.31-11.11-9.31-18.37v-1.2c0-5.3,2.82-8.97,8.89-8.97s7.95,3.93,7.95,9.4c0,6.32-1.88,8.89-8.03,8.8l-1.88-1.11c1.79,6.32,5.55,11.45,11.88,11.45h3.16v4.27Zm-19.65-48.11c2.39,0,3.08-1.03,3.08-5.64s-.68-5.64-3.08-5.64-3.08,1.03-3.08,5.64.68,5.64,3.08,5.64Zm4.19,30.93h1.79c2.22,0,3.5-1.11,3.5-4.53v-3.16c0-3.25-1.11-4.36-2.82-4.36-2.31,0-3.25,1.28-3.25,5.81,0,2.39.26,4.27.77,6.24Z"/>
      <path class="cls-3" d="m496.32,899.96h24.18v5.81h-24.18v-5.81Z"/>
      <path class="cls-3" d="m560.66,935l-2.31-2.05c7.09-9.06,11.19-18.71,11.19-30.25,0-14.95-5.73-19.99-15.04-19.99-10.94,0-15.04,9.66-15.04,20.51,0,7.78,1.2,15.55,6.49,18.37-1.03-1.71-1.37-3.76-1.37-6.58,0-3.93,2.05-7.86,7.35-7.86,5.64,0,7.95,2.82,7.95,8.8,0,6.49-3.76,10-10.51,10-9.66,0-17.43-8.03-17.43-23.93s9.91-23.58,22.56-23.58c14.87,0,22.73,8.46,22.73,23.93,0,12.65-6.07,23.16-16.58,32.64Zm-5.73-18.63c0-4.36-.68-5.55-2.99-5.55-2.14,0-2.99,1.2-2.99,4.27,0,2.48.26,5.38.77,7.61.34.08.77.08,1.2.08,2.99,0,4.02-2.05,4.02-6.41Z"/>
      <path class="cls-3" d="m598.01,922.61c-.34-1.54-.43-3.08-.43-4.7,0-3.93,2.14-7.61,7.43-7.61s7.43,2.82,7.43,8.8c0,6.41-2.91,9.83-9.57,9.83-11.11,0-15.47-9.83-15.47-27,0-14.01,4.79-23.5,15.47-23.5,5.04,0,8.2,1.71,9.57,6.49,2.14-4.61,5.98-6.49,10.42-6.49,7.95,0,11.79,5.55,11.79,13.42v33.41l-3.76,2.99h-3.76v-37.26c0-5.64-1.71-8.29-5.64-8.29-3.67,0-6.15,2.48-6.15,8.12v9.83h-7.18v-9.83c0-5.9-2.05-8.2-5.38-8.2-5.3,0-7.86,6.58-7.86,18.88,0,9.48.68,17,3.08,21.11Zm4.1,3.16c.43.08.85.17,1.37.17,2.99,0,4.02-2.05,4.02-6.41s-.68-5.55-2.99-5.55c-1.97,0-2.99,1.2-2.99,4.27,0,2.48,0,5.3.6,7.52Z"/>
      <path class="cls-3" d="m662.7,878.43c4.7,0,8.2,2.31,9.48,6.49,2.05-4.61,5.13-6.49,9.83-6.49,7.43,0,11.19,5.21,11.19,14.36v17.35c0,5.13-.77,11.45-5.47,13.16h6.75c6.41,0,7.18-4.79,7.18-11.54v-37.85l4.02-2.99h3.67v41.1c0,8.46-2.82,15.55-12.22,15.55h-21.53v-4.27h3.33c5.13,0,6.92-2.91,6.92-9.74v-21.53c0-6.67-1.71-9.31-5.21-9.31s-5.73,2.48-5.73,8.12v9.66h-7.18v-9.66c0-5.81-2.14-8.12-5.55-8.12-4.96,0-7.26,5.9-7.26,18.8,0,9.48.68,17,3.08,21.11-.34-1.54-.43-3.08-.43-4.7,0-3.93,2.14-7.61,7.43-7.61s7.43,2.82,7.43,8.8c0,6.41-2.82,9.83-9.23,9.83-11.88,0-15.81-10.6-15.81-27s6.24-23.5,15.3-23.5Zm-.6,47.34c.43.08.85.17,1.37.17,2.99,0,4.02-2.05,4.02-6.41s-.68-5.55-2.99-5.55c-1.97,0-2.99,1.2-2.99,4.27,0,2.48,0,5.3.6,7.52Z"/>
      <path class="cls-3" d="m744.48,883.56c-8.63,0-13.59,5.47-13.59,17.43v4.27c0,7.09,1.62,13.24,5.64,17.6l6.07-6.32c2.65,5.38,6.32,7.6,10.17,7.6s6.58-2.14,6.58-7.09l-2.48,1.37c-5.21,0-7.78-2.73-7.78-8.89s2.05-9.83,8.12-9.83,8.54,3.5,8.54,8.89v6.07c0,7.43-3.42,13.76-12.99,13.76-4.19,0-8.63-1.96-10.85-5.98l-4.87,5.13h-4.61c-4.36-4.53-9.06-11.11-9.06-22.3v-4.27c0-17.69,11.45-21.7,20.59-21.7h5.13c7.86,0,9.74-1.28,11.45-7.09l.85-2.99,5.98,1.11-.6,2.65c-1.45,6.58-4.44,10.6-17.35,10.6h-4.96Zm14.87,31.87v-7.18c0-3.67-.43-4.87-2.65-4.87-1.79,0-2.91,1.03-2.91,4.1v3.42c0,3.42,1.28,4.53,3.5,4.53h2.05Z"/>
      <path class="cls-3" d="m201.54,1030.79h-3.42v-33.33c0-11.45-4.7-14.18-13.07-14.18s-12.99,5.13-12.99,14.18v21.02c0,2.22-.09,3.67-.43,6.58,6.15-5.04,10.17-8.72,14.87-13.5l-2.65.94c-4.19,0-6.15-1.62-6.15-6.58v-3.67c0-4.44,3.08-6.84,7.43-6.84s7.18,2.14,7.18,7.35v1.71c0,5.47-2.22,9.83-5.81,13.16-4.79,4.36-8.46,7.78-14.53,12.48h-7.09v-31.53c0-11.96,7.52-19.74,20.51-19.74s19.91,4.79,19.91,19.74v29.22l-3.76,2.99Zm-14.36-20.68c.51-2.14.34-4.61.34-6.58,0-3.85-.94-4.79-2.65-4.79-1.79,0-2.73,1.03-2.73,3.76v4.44c0,2.48.94,3.16,2.73,3.16h2.31Z"/>
      <path class="cls-3" d="m202.4,1035.41h2.91v12.65c0,4.1-1.88,5.9-5.64,5.9h-11.71v-6.75l-2.39,1.45c-4.79,0-6.84-1.03-6.84-6.49,0-4.61,2.48-7.18,7.78-7.18,4.19,0,7.26,1.2,7.26,6.32v9.49h2.56c1.97,0,2.56-.6,2.56-2.48v-9.91l3.5-2.99Zm-14.44,10.94v-5.64c0-1.79-.34-2.99-2.14-2.99-1.54,0-2.39,1.03-2.39,4.36,0,3.67.94,4.27,2.56,4.27h1.97Z"/>
      <path class="cls-3" d="m229.4,1012.17l3.33-1.97c5.64,0,7.35,3.67,7.35,7.43v4.27c0,6.84-3.16,8.8-8.89,8.8-6.84,0-9.14-2.9-9.14-9.83v-36.23c2.91-2.82,6.67-7.52,8.12-11.02l-5.13,2.65c-7.86-.08-11.19-3.33-11.28-11.19v-3.08c.09-8.03,5.3-10.85,12.05-10.85,7.78,0,11.79,4.53,11.79,12.22,0,10.17-4.1,15.72-8.2,20v28.8Zm.6-39.99v-11.79c0-3.85-1.54-5.64-4.7-5.64-2.73,0-5.13,1.45-5.13,5.73v5.21c0,4.87,2.14,6.49,5.64,6.49h4.19Zm2.14,54.6c2.05,0,3.16-.94,3.16-3.16v-5.21c0-3.42-1.03-4.61-3.42-4.61h-2.65v9.83c0,1.96,1.03,3.16,2.91,3.16Z"/>
      <path class="cls-3" d="m282.98,1030.71c-5.38,0-7.69-2.05-7.69-8.37v-4.79c-5.55,2.56-9.66,7.95-12.56,12.56h-7.35v-31.62l-2.14,1.11c-6.15,0-7.78-2.39-7.78-8.29v-4.02c0-6.07,3.16-7.86,9.06-7.86s8.2,3.08,8.2,8.89v34.95c4.7-5.9,10.17-9.74,15.21-11.02v-29.31l3.85-2.99h3.5v30.5c3.42.34,5.38,2.82,5.38,7.09v4.79c0,6.49-2.39,8.37-7.69,8.37Zm-27-34.52v-8.97c0-2.65-.68-4.02-2.91-4.02-1.97,0-3.16,1.03-3.16,4.1v4.27c0,3.42,1.03,4.61,3.5,4.61h2.56Zm27.43,30.76c1.71,0,2.82-.68,2.82-4.36v-4.87c0-2.65-.94-3.67-2.82-3.67-1.03,0-2.14.43-2.91.94v7.61c0,3.16.68,4.36,2.91,4.36Z"/>
      <path class="cls-3" d="m302.29,1027.2l3.33-2.05v-6.41c0-4.19,1.28-7.01,4.27-8.54-5.98-1.2-7.43-5.21-7.43-13.59v-8.29c0-5.81,3.33-8.89,8.97-8.89s7.95,2.73,7.95,7.86v4.02c0,4.61-1.45,8.29-7.78,8.29l-2.56-1.37v1.03c0,5.98,3.08,7.43,9.48,7.43h2.82v3.84h-4.02c-4.02,0-5.13,2.39-5.13,6.92v8.54h13.42c4.53,0,5.73-1.71,5.73-5.9v-37.17l3.85-2.99h3.5v36.66c0,8.29-2.05,13.5-11.02,13.5h-25.38v-2.91Zm6.58-39.99v8.97h3.08c1.97,0,2.99-1.2,2.99-4.61v-4.27c0-3.08-.94-4.1-2.91-4.1-2.48,0-3.16,1.37-3.16,4.02Z"/>
      <path class="cls-3" d="m332.29,973.46v-17.6h6.41v17.6h-6.41Z"/>
      <path class="cls-3" d="m373.22,1031.48c-12.39,0-17.86-2.99-17.86-14.1v-11.79c0-7.86,3.76-10.68,9.23-10.68,5.13,0,7.43,2.65,7.43,7.18v4.87c0,4.87-2.05,7.6-7.18,7.69l-2.48-1.71v3.67c0,8.37,2.31,10.6,10.94,10.6,7.86,0,10.17-2.65,10.17-12.48v-19.4c0-8.97-4.96-12.05-11.96-12.05-6.49,0-12.9,2.65-16.49,4.87l-1.37-3.16c3.59-2.39,10.85-6.15,20.08-6.15s17.09,3.93,17.09,16.41v20c0,11.19-4.53,16.24-17.6,16.24Zm-11.02-28.11v7.95h2.22c2.22,0,3.16-.94,3.16-4.1v-3.85c0-3.5-.68-4.53-2.48-4.53-1.97,0-2.91,1.03-2.91,4.53Z"/>
      <path class="cls-3" d="m411.5,1030.11v-31.62l-2.14,1.11c-6.15,0-7.78-2.48-7.78-8.29v-4.02c0-5.64,3.16-7.86,8.97-7.86s8.29,3.08,8.29,8.89v17c3.59-4.7,9.06-7.86,13.76-8.54-1.45-1.37-2.14-3.25-2.14-5.3v-3.85c0-5.3,2.48-8.29,8.2-8.29,5.04,0,7.6,2.73,7.6,7.6v3.5c0,4.02-1.79,7.18-5.13,8.12l3.08,2.82v26.4l-3.85,2.99h-3.5v-31.27c-7.69.6-14.01,6.07-18.03,11.71v18.88h-7.35Zm.6-33.92v-8.97c0-2.65-.68-4.02-2.91-4.02-1.97,0-3.16,1.03-3.16,4.1v4.27c0,3.42,1.03,4.61,3.5,4.61h2.56Zm24.69-.34c3.25-.26,4.02-1.28,4.02-4.02v-5.55c0-2.73-1.2-3.59-2.91-3.59-1.97,0-3.08,1.28-3.08,3.59v5.64c0,1.96.85,3.25,1.97,3.93Z"/>
      <path class="cls-3" d="m492.77,1030.71c-5.38,0-7.69-2.05-7.69-8.37v-4.79c-5.55,2.56-9.66,7.95-12.56,12.56h-7.35v-31.62l-2.14,1.11c-6.15,0-7.78-2.39-7.78-8.29v-4.02c0-6.07,3.16-7.86,9.06-7.86s8.2,3.08,8.2,8.89v34.95c4.7-5.9,10.17-9.74,15.21-11.02v-29.31l3.85-2.99h3.5v30.5c3.42.34,5.38,2.82,5.38,7.09v4.79c0,6.49-2.39,8.37-7.69,8.37Zm-27-34.52v-8.97c0-2.65-.68-4.02-2.91-4.02-1.97,0-3.16,1.03-3.16,4.1v4.27c0,3.42,1.03,4.61,3.5,4.61h2.56Zm27.43,30.76c1.71,0,2.82-.68,2.82-4.36v-4.87c0-2.65-.94-3.67-2.82-3.67-1.03,0-2.14.43-2.91.94v7.61c0,3.16.68,4.36,2.91,4.36Z"/>
      <path class="cls-3" d="m482.78,973.46h-5.21v-2.48c3.42-.26,7.09-1.54,8.12-4.53l-2.22,1.54c-4.7,0-6.92-2.48-6.92-6.67,0-4.53,2.99-6.58,7.35-6.58,4.79,0,6.92,2.73,6.92,6.58,0,3.16-1.11,7.18-5.55,9.23,5.04-.43,7.95-1.62,15.98-8.97l3.08,3.93c-5.64,6.67-12.05,7.95-21.53,7.95Zm2.99-8.03v-4.7c0-2.48-.77-3.25-2.22-3.25-1.54,0-2.56.6-2.56,3.67,0,3.59.94,4.27,2.73,4.27h2.05Z"/>
      <path class="cls-3" d="m528.41,991.91c0-6.49-3.5-8.63-8.37-8.63-5.3,0-10.17,2.14-13.67,4.36l-1.54-3.16c3.16-2.22,10.34-5.64,17.6-5.64s13.33,3.42,13.33,13.93v35.04l-3.85,2.99h-3.5v-38.88Z"/>
      <path class="cls-3" d="m583.61,992.85c0-6.84-1.88-9.23-5.9-9.14-5.3.08-10.34,6.84-13.5,14.7v31.7h-7.35v-31.62l-2.14,1.11c-6.15,0-7.78-2.48-7.78-8.29v-4.02c0-5.55,3.16-7.86,9.06-7.86s8.2,3.08,8.2,8.89v2.73c2.91-6.58,8.03-11.79,15.55-11.79s11.19,3.08,11.19,14.1v34.44l-3.84,2.99h-3.5v-37.94Zm-26.15,3.33v-8.97c0-2.65-.68-4.02-2.91-4.02-1.97,0-3.16,1.03-3.16,4.1v4.27c0,3.42,1.03,4.61,3.5,4.61h2.56Z"/>
      <path class="cls-3" d="m554.65,973.46v-2.82c0-4.7,2.65-9.31,12.05-9.31,7.18,0,13.42,3.42,16.92,6.75v-6.75h6.49v12.13h-35.46Zm6.49-3.42h19.23c-4.02-3.25-9.66-5.3-13.59-5.3s-5.64,1.62-5.64,4.79v.51Z"/>
      <path class="cls-3" d="m583.7,957.82v-12.05h6.41v12.05h-6.41Z"/>
      <path class="cls-3" d="m632.75,973.46h3.67v52.72h21.88c6.67,0,9.57-.85,9.57-5.64v-28.97c0-2.82-.85-4.62-2.73-5.81l-6.41,3.5-5.98-3.5c-2.31.77-3.67,3.76-3.67,6.75v3.59c1.45-.77,2.91-1.37,3.93-1.37,4.87,0,7.26,2.22,7.26,8.8s-2.65,10-8.03,10c-7.26,0-10.17-4.1-10.17-12.56,0-11.71,1.54-17.35,11.11-19.74l5.73,3.5,6.07-3.5c6.58,1.11,10.42,4.96,10.42,11.19v24.87c0,11.36-5.47,12.82-13.5,12.82h-32.98v-53.66l3.85-2.99Zm19.48,36.49c1.97,0,2.82-1.11,2.82-4.36v-3.67c0-2.82-1.11-3.93-3.85-3.93h-2.22v7.86c0,3.16,1.03,4.1,3.25,4.1Z"/>
      <path class="cls-3" d="m737.08,973.46h2.39v15.89c0,5.64-3.08,7.86-8.54,7.86h-6.49c-.09-9.66-1.62-12.05-4.44-12.05l-4.1,4.61c.94,2.14,1.71,4.53,2.56,7.26l9.91,33.07h-6.49l-9.91-31.62c-2.91-9.4-4.02-13.33-8.46-13.33-5.3,0-7.86,6.58-7.86,18.88,0,9.49.68,17,3.08,21.11-.34-1.54-.43-3.08-.43-4.7,0-3.93,2.14-7.6,7.43-7.6s7.43,2.82,7.43,8.8c0,6.41-2.91,9.83-9.57,9.83-11.11,0-15.47-9.83-15.47-27,0-14.01,4.87-23.5,15.64-23.5,4.79,0,7.78,1.79,10.08,4.96l4.27-4.96c8.63,0,11.62,4.53,11.36,12.56h.85c2.48,0,3.08-.51,3.08-5.38v-11.71l3.67-2.99Zm-34.27,54.86c.43.09.85.17,1.37.17,2.99,0,4.02-2.05,4.02-6.41s-.68-5.55-2.99-5.55c-1.97,0-2.99,1.2-2.99,4.27,0,2.48,0,5.3.6,7.52Z"/>
    </g>
  </g>
  <g>
    <rect y="1157.58" width="900" height="578.79"/>
    <g>
      <path class="cls-1" d="m125.06,1301.18v-3.08l6.24-3.59v-51.61l-6.24-3.59v-3.08h24.18c16.58,0,29.14,8.2,29.14,30.42,0,23.84-13.84,34.52-29.05,34.52h-24.27Zm24.95-5.13c15.98,0,19.31-14.53,19.31-27.77,0-17.43-8.03-26.92-23.41-26.92h-6.58v53.32l2.14,1.37h8.54Z"/>
      <path class="cls-1" d="m221.62,1292.63l2.31,2.82c-3.59,4.44-9.48,7.18-16.32,7.18-15.04,0-21.19-9.83-21.19-24.27,0-16.24,9.06-24.52,20.68-24.52s17.26,6.92,17.26,19.65c0,1.28-.09,2.65-.17,4.02h-29.22c0,12.13,5.47,18.97,15.04,18.97,4.53,0,8.46-1.79,11.62-3.84Zm-26.49-19.48h20.85c-.17-10.17-3.33-14.53-9.83-14.53-5.21,0-10,3.5-11.02,14.53Z"/>
      <path class="cls-1" d="m254.44,1296.48c4.53,0,8.46-1.79,11.62-3.84l2.31,2.82c-3.42,4.44-9.31,7.18-16.32,7.18-15.04,0-21.19-10.08-21.19-24.35s9.4-24.52,22.73-24.52c6.15,0,9.83.85,12.82,1.97l.51,14.01-4.79.68-4.27-11.54c-1.62-.26-2.99-.34-4.61-.34-9.23,0-13.93,7.6-13.84,19.06.09,12.99,5.47,18.88,15.04,18.88Z"/>
      <path class="cls-1" d="m296.48,1253.75c10.94,0,20.17,8.37,20.17,23.84,0,14.53-8.03,25.04-21.36,25.04s-20.85-9.49-20.85-23.5,7.95-25.38,22.05-25.38Zm-.34,43.92c7.69,0,11.96-6.75,11.96-20,0-10.85-3.76-19.06-12.39-19.06s-12.73,7.86-12.73,18.88c0,11.79,4.7,20.17,13.16,20.17Z"/>
      <path class="cls-1" d="m367.49,1296.39v3.25c-2.14,1.54-5.3,2.31-7.18,2.31-3.08,0-4.61-1.2-5.21-4.1-3.25,2.73-7.86,4.79-13.42,4.79-9.31,0-17.52-6.92-17.52-21.28,0-15.81,7.86-27.6,23.84-27.6,2.39,0,4.7.26,6.67.68v-14.78l-7.35-2.14v-2.65l11.96-2.48,3.08,2.14v59.13c0,2.39.77,3.42,5.13,2.73Zm-21.28.94c3.93,0,5.64-.77,8.54-2.39-.09-.6-.09-1.28-.09-2.05v-33.24c-1.97-.43-4.44-.77-7.26-.77-9.66,0-14.7,6.75-14.7,19.91s5.73,18.54,13.5,18.54Z"/>
      <path class="cls-1" d="m373.73,1260.84v-2.65l10.51-4.1,3.08,2.14v39.14l5.9,2.99v2.91h-19.48v-2.91l5.9-2.99v-32.64l-5.9-1.88Zm9.14-14.53c-3.42,0-5.13-1.79-5.13-5.13v-1.03c0-3.33,1.71-5.21,5.13-5.21s5.13,1.88,5.13,5.21v1.03c0,3.33-1.71,5.13-5.13,5.13Z"/>
      <path class="cls-1" d="m398.26,1260.84v-2.65l10.51-4.1,3.08,2.14v4.1c4.36-3.5,10-6.07,14.87-6.07,6.32,0,12.22,2.82,12.22,13.24v27.86l5.04,2.99v2.91h-17.35v-2.91l4.61-2.99v-26.58c0-6.41-2.91-8.63-8.2-8.63-4.1,0-8.03,1.79-11.19,4.1v31.1l4.61,2.99v2.91h-17.35v-2.91l5.04-2.99v-32.64l-5.9-1.88Z"/>
      <path class="cls-1" d="m466.62,1321.34c-11.71,0-17.86-4.96-17.86-11.96,0-6.32,4.7-10.17,12.22-12.13-5.55-1.45-8.46-3.84-8.46-7.01,0-2.91,2.73-5.3,7.69-6.07-6.75-2.31-9.48-7.86-9.48-13.76,0-10.25,8.72-16.66,19.31-16.66,2.56,0,5.3.68,7.43,1.62l5.64-7.61,5.47,5.47-6.24,4.79c3.5,2.48,4.87,6.32,4.87,10.77,0,9.83-9.06,16.32-19.06,16.32-5.3,0-7.52,1.45-7.52,3.5,0,2.22,3.33,3.08,9.83,3.67,11.28,1.28,19.91,3.5,19.91,12.56,0,9.66-11.36,16.49-23.75,16.49Zm1.71-4.44c7.69,0,13.67-3.67,13.67-10.51,0-5.47-5.3-7.26-13.76-8.03-1.11-.09-2.22-.26-3.25-.34-5.3,2.82-7.69,6.32-7.69,10.34,0,4.87,4.1,8.54,11.02,8.54Zm-9.23-47.77c0,7.26,3.76,11.79,9.83,11.79,6.84,0,10.34-4.87,10.34-11.19,0-7.86-4.87-11.62-10-11.62-5.73,0-10.17,3.93-10.17,11.02Z"/>
      <path class="cls-1" d="m530.03,1301.26h-19.82v-3.08l7.01-3.42,19.31-58.45h6.58l17.6,58.45,6.07,3.42v3.08h-20.25v-3.08l5.9-3.25-4.19-14.78h-19.57l-4.53,14.87,5.9,3.16v3.08Zm16.92-25.89l-8.2-28.88-8.72,28.88h16.92Z"/>
      <path class="cls-1" d="m568.83,1260.84v-2.65l10.51-4.1,3.08,2.14v4.1c4.36-3.5,10-6.07,14.87-6.07,6.32,0,12.22,2.82,12.22,13.24v27.86l5.04,2.99v2.91h-17.35v-2.91l4.61-2.99v-26.58c0-6.41-2.91-8.63-8.2-8.63-4.1,0-8.03,1.79-11.19,4.1v31.1l4.61,2.99v2.91h-17.35v-2.91l5.04-2.99v-32.64l-5.9-1.88Z"/>
      <path class="cls-1" d="m645.14,1295.19c-6.24,6.15-10.68,6.92-14.7,6.92-6.84,0-10.85-4.19-10.85-10.42,0-8.37,5.64-15.04,25.46-20.17v-1.97c0-8.71-3.25-11.02-8.63-11.02-1.54,0-3.5.17-5.81.68l-4.53,11.36-4.79-.68.77-12.39c3.25-1.71,9.48-3.76,15.72-3.76,9.14,0,14.95,3.25,14.95,14.18v25.72c0,2.39.77,3.42,5.13,2.73v3.25c-2.14,1.54-5.3,2.31-7.18,2.31-3.85,0-5.3-1.88-5.55-6.75Zm-11.02.77c2.82,0,7.01-1.2,10.94-4.96v-15.64c-14.53,4.7-17.52,10-17.52,14.19,0,3.59,2.56,6.41,6.58,6.41Z"/>
      <path class="cls-1" d="m682.14,1298.36v2.91h-17.77v-2.91l5.04-2.99v-55.8l-5.81-2.14v-2.65l10.42-2.48,3.08,2.14v60.93l5.04,2.99Z"/>
      <path class="cls-1" d="m711.71,1253.75c10.94,0,20.17,8.37,20.17,23.84,0,14.53-8.03,25.04-21.36,25.04s-20.85-9.49-20.85-23.5,7.95-25.38,22.05-25.38Zm-.34,43.92c7.69,0,11.96-6.75,11.96-20,0-10.85-3.76-19.06-12.39-19.06s-12.73,7.86-12.73,18.88c0,11.79,4.7,20.17,13.16,20.17Z"/>
      <path class="cls-1" d="m755.46,1321.34c-11.71,0-17.86-4.96-17.86-11.96,0-6.32,4.7-10.17,12.22-12.13-5.55-1.45-8.46-3.84-8.46-7.01,0-2.91,2.73-5.3,7.69-6.07-6.75-2.31-9.48-7.86-9.48-13.76,0-10.25,8.72-16.66,19.31-16.66,2.56,0,5.3.68,7.43,1.62l5.64-7.61,5.47,5.47-6.24,4.79c3.5,2.48,4.87,6.32,4.87,10.77,0,9.83-9.06,16.32-19.06,16.32-5.3,0-7.52,1.45-7.52,3.5,0,2.22,3.33,3.08,9.83,3.67,11.28,1.28,19.91,3.5,19.91,12.56,0,9.66-11.36,16.49-23.75,16.49Zm1.71-4.44c7.69,0,13.67-3.67,13.67-10.51,0-5.47-5.3-7.26-13.76-8.03-1.11-.09-2.22-.26-3.25-.34-5.3,2.82-7.69,6.32-7.69,10.34,0,4.87,4.1,8.54,11.02,8.54Zm-9.23-47.77c0,7.26,3.76,11.79,9.83,11.79,6.84,0,10.34-4.87,10.34-11.19,0-7.86-4.87-11.62-10-11.62-5.73,0-10.17,3.93-10.17,11.02Z"/>
      <path class="cls-1" d="m151,1330.15v8.72c11.79.17,18.2,6.84,18.2,16.24,0,8.03-4.44,12.99-9.74,14.36,7.52,1.54,12.82,6.84,12.82,16.24,0,14.18-10.85,18.12-20.17,18.12h-1.11v10.08h-4.79v-10.08h-22.56v-3.08l6.24-2.73v-53.32l-6.24-2.73v-3.08h22.56v-8.72h4.79Zm-13.07,13.67v23.93h8.29v-23.93h-8.29Zm8.29,55.03v-26.23h-8.29v24.7l5.55,1.54h2.73Zm4.79-55.03v23.93c5.81-.17,10.08-5.21,10.08-12.39s-3.25-11.11-10.08-11.54Zm0,28.8v26.23c7.43-.08,12.9-4.27,12.9-12.82,0-9.57-5.3-13.16-12.9-13.42Z"/>
      <path class="cls-1" d="m218.59,1403.81h-25.63v-3.08l9.4-3.85v-49.99h-9.4v-3.08l11.02-3.93h6.07v56.99l8.54,3.85v3.08Z"/>
      <path class="cls-1" d="m248.58,1405.17c-15.64,0-21.28-11.96-21.28-31.27,0-20.85,9.66-34.86,23.67-34.86s20.59,11.62,20.59,28.88c0,24.52-8.2,37.26-22.99,37.26Zm1.45-60.84c-7.69,0-14.18,8.37-14.18,27.94,0,16.49,3.59,27.52,13.24,27.52s13.93-8.46,13.93-28.46c0-18.63-5.13-27-12.99-27Z"/>
      <path class="cls-1" d="m284.05,1399.28v-1.03c0-3.5,1.79-5.47,5.38-5.47s5.38,1.97,5.38,5.47v1.79c0,4.27-2.39,10.51-7.78,17l-2.31-2.05c3.33-4.44,5.38-7.01,6.07-10.34-.43.08-.94.17-1.37.17-3.59,0-5.38-1.88-5.38-5.55Z"/>
      <path class="cls-1" d="m336.35,1344.33c-12.05,0-18.2,8.97-20,23.07,3.08-1.97,7.6-3.76,12.9-3.76,10.51,0,18.8,5.81,18.8,19.57,0,14.87-9.48,21.96-20.25,21.96-13.33,0-20.51-9.23-20.51-28.71,0-21.96,9.57-37.43,28.28-37.43,2.99,0,6.75.6,9.66,1.11l-.6,5.04c-2.39-.51-5.98-.85-8.29-.85Zm-7.35,55.54c6.32,0,10.85-4.87,10.85-14.87s-4.53-16.41-12.9-16.41c-4.19,0-8.03.94-10.94,2.56-.09,1.79-.17,3.59-.17,5.47,0,17.26,5.38,23.24,13.16,23.24Z"/>
      <path class="cls-1" d="m354.46,1339.89h38.62v7.86c-11.96,14.87-18.37,31.79-22.05,56.05h-9.14c4.44-23.5,12.39-41.27,24.69-56.05h-32.13v-7.86Z"/>
      <path class="cls-1" d="m412.49,1371.34c-6.49-3.67-12.13-8.29-12.13-16.92,0-9.66,8.89-15.38,19.23-15.38,9.4,0,18.54,4.1,18.54,14.95,0,7.95-6.58,13.24-12.48,15.55,7.18,3.93,14.27,7.26,14.27,18.2,0,13.33-11.45,17.43-20.85,17.43-11.11,0-20.76-4.53-20.76-15.64,0-8.89,6.32-14.01,14.18-18.2Zm6.58,29.05c7.6,0,12.65-3.93,12.65-11.79,0-6.67-6.32-10.68-14.53-14.78-.6-.34-1.2-.6-1.79-.94-4.96,3.59-8.89,9.23-8.89,15.64,0,7.43,4.87,11.88,12.56,11.88Zm4.19-32.13c3.67-2.82,7.18-7.43,7.18-14.1,0-7.35-4.44-10.34-11.19-10.34-6.24,0-10.85,3.67-10.85,9.31,0,8.72,7.43,11.02,14.7,15.04l.17.09Z"/>
      <path class="cls-1" d="m484.78,1397.14v-53.58h-10.94l-5.47,14.1-4.44-.68,1.03-18.12h47.6l1.11,18.12-4.44.68-5.47-14.1h-10.94v53.58l6.41,3.59v3.08h-20.85v-3.08l6.41-3.59Z"/>
      <path class="cls-1" d="m534.86,1400.9v2.91h-17.94v-2.91l5.04-2.99v-32.64l-5.9-1.88v-2.65l10.51-4.1,3.08,2.14v6.41c1.62-4.19,4.19-8.46,9.06-8.46,1.54,0,3.33.43,4.19.85l-.34,6.92h-3.67c-3.76-.09-7.43,1.03-9.23,2.91v30.5l5.21,2.99Z"/>
      <path class="cls-1" d="m572.12,1397.74c-6.24,6.15-10.68,6.92-14.7,6.92-6.84,0-10.85-4.19-10.85-10.42,0-8.37,5.64-15.04,25.46-20.17v-1.96c0-8.72-3.25-11.02-8.63-11.02-1.54,0-3.5.17-5.81.68l-4.53,11.37-4.79-.68.77-12.39c3.25-1.71,9.48-3.76,15.72-3.76,9.14,0,14.95,3.25,14.95,14.18v25.72c0,2.39.77,3.42,5.13,2.73v3.25c-2.14,1.54-5.3,2.31-7.18,2.31-3.85,0-5.3-1.88-5.55-6.75Zm-11.02.77c2.82,0,7.01-1.2,10.94-4.96v-15.64c-14.53,4.7-17.52,10-17.52,14.18,0,3.59,2.56,6.41,6.58,6.41Z"/>
      <path class="cls-1" d="m590.06,1363.39v-2.65l10.51-4.1,3.08,2.14v4.1c4.36-3.5,10-6.07,14.87-6.07,6.32,0,12.22,2.82,12.22,13.25v27.86l5.04,2.99v2.91h-17.35v-2.91l4.61-2.99v-26.57c0-6.41-2.91-8.63-8.2-8.63-4.1,0-8.03,1.79-11.19,4.1v31.1l4.61,2.99v2.91h-17.35v-2.91l5.04-2.99v-32.64l-5.9-1.88Z"/>
      <path class="cls-1" d="m656.54,1405.17c-4.7,0-9.91-1.11-13.67-2.56l-.6-13.76,4.79-.68,4.19,11.88c2.31.51,4.1.6,5.81.6,5.38,0,9.83-1.62,9.83-7.43s-5.13-7.61-10.6-10.08c-6.75-3.16-13.24-6.58-13.24-14.44s5.81-12.39,15.12-12.39c5.55,0,11.71,1.45,13.59,2.14l.6,13.24-4.79.68-3.67-10.94c-1.71-.43-3.5-.6-5.81-.6-5.04,0-8.37,1.71-8.37,6.15,0,5.72,5.3,7.6,10.94,10.08,6.67,2.91,12.9,6.24,12.9,14.44,0,10.42-7.26,13.67-17,13.67Z"/>
      <path class="cls-1" d="m708.42,1340.83c-2.99-.43-3.93-.51-5.55-.51-4.44,0-8.2,1.45-8.2,10.6v6.75h11.96v4.79h-11.96v35.46l5.55,2.99v2.91h-18.29v-2.91l5.04-2.99v-35.46h-6.75v-3.59l6.92-1.45v-5.21c0-11.45,6.32-17.43,15.55-17.43,1.88,0,4.27.26,5.73.6v5.47Z"/>
      <path class="cls-1" d="m746.7,1395.18l2.31,2.82c-3.59,4.44-9.48,7.18-16.32,7.18-15.04,0-21.19-9.83-21.19-24.27,0-16.24,9.06-24.52,20.68-24.52s17.26,6.92,17.26,19.65c0,1.28-.09,2.65-.17,4.02h-29.22c0,12.13,5.47,18.97,15.04,18.97,4.53,0,8.46-1.79,11.62-3.85Zm-26.49-19.48h20.85c-.17-10.17-3.33-14.53-9.83-14.53-5.21,0-10,3.5-11.02,14.53Z"/>
      <path class="cls-1" d="m774.04,1400.9v2.91h-17.94v-2.91l5.04-2.99v-32.64l-5.9-1.88v-2.65l10.51-4.1,3.08,2.14v6.41c1.62-4.19,4.19-8.46,9.06-8.46,1.54,0,3.33.43,4.19.85l-.34,6.92h-3.67c-3.76-.09-7.43,1.03-9.23,2.91v30.5l5.21,2.99Z"/>
      <path class="cls-1" d="m113.48,1506.35h-18.2v-3.08l6.24-3.59,5.55-51.61-6.24-3.59v-3.08l15.81-.09,13.76,50.5,14.7-50.42h16.58v3.08l-6.24,3.59,4.02,51.61,6.24,3.59v3.08h-21.11v-3.08l6.67-3.59-2.73-35.21c-.34-4.53-.68-9.06-.51-13.59l-16.75,55.46h-4.19l-11.88-41.87c-1.11-4.02-2.31-8.03-2.99-12.05l-4.79,47.25,6.07,3.59v3.08Z"/>
      <path class="cls-1" d="m171.51,1465.93v-2.65l10.51-4.1,3.08,2.14v39.13l5.9,2.99v2.91h-19.48v-2.91l5.9-2.99v-32.64l-5.9-1.88Zm9.14-14.53c-3.42,0-5.13-1.79-5.13-5.13v-1.03c0-3.33,1.71-5.21,5.13-5.21s5.13,1.88,5.13,5.21v1.03c0,3.33-1.71,5.13-5.13,5.13Z"/>
      <path class="cls-1" d="m215.09,1503.45v2.91h-17.77v-2.91l5.04-2.99v-55.8l-5.81-2.14v-2.65l10.42-2.48,3.08,2.14v60.92l5.04,2.99Z"/>
      <path class="cls-1" d="m240.81,1503.45v2.91h-17.77v-2.91l5.04-2.99v-55.8l-5.81-2.14v-2.65l10.42-2.48,3.08,2.14v60.92l5.04,2.99Z"/>
      <path class="cls-1" d="m247.48,1465.93v-2.65l10.51-4.1,3.08,2.14v39.13l5.9,2.99v2.91h-19.48v-2.91l5.9-2.99v-32.64l-5.9-1.88Zm9.14-14.53c-3.42,0-5.13-1.79-5.13-5.13v-1.03c0-3.33,1.71-5.21,5.13-5.21s5.13,1.88,5.13,5.21v1.03c0,3.33-1.71,5.13-5.13,5.13Z"/>
      <path class="cls-1" d="m294.9,1458.84c10.94,0,20.17,8.37,20.17,23.84,0,14.53-8.03,25.04-21.36,25.04s-20.85-9.48-20.85-23.5,7.95-25.38,22.05-25.38Zm-.34,43.92c7.69,0,11.96-6.75,11.96-20,0-10.85-3.76-19.05-12.39-19.05s-12.73,7.86-12.73,18.88c0,11.79,4.7,20.17,13.16,20.17Z"/>
      <path class="cls-1" d="m321.91,1465.93v-2.65l10.51-4.1,3.08,2.14v4.1c4.36-3.5,10-6.07,14.87-6.07,6.32,0,12.22,2.82,12.22,13.25v27.86l5.04,2.99v2.91h-17.35v-2.91l4.61-2.99v-26.57c0-6.41-2.91-8.63-8.2-8.63-4.1,0-8.03,1.79-11.19,4.1v31.1l4.61,2.99v2.91h-17.35v-2.91l5.04-2.99v-32.64l-5.9-1.88Z"/>
      <path class="cls-1" d="m388.39,1507.72c-4.7,0-9.91-1.11-13.67-2.56l-.6-13.76,4.79-.68,4.19,11.88c2.31.51,4.1.6,5.81.6,5.38,0,9.83-1.62,9.83-7.43s-5.13-7.61-10.6-10.08c-6.75-3.16-13.24-6.58-13.24-14.44s5.81-12.39,15.12-12.39c5.55,0,11.71,1.45,13.59,2.14l.6,13.24-4.79.68-3.67-10.94c-1.71-.43-3.5-.6-5.81-.6-5.04,0-8.37,1.71-8.37,6.15,0,5.72,5.3,7.6,10.94,10.08,6.67,2.91,12.9,6.24,12.9,14.44,0,10.42-7.26,13.67-17,13.67Z"/>
      <path class="cls-1" d="m456.32,1458.84c10.94,0,20.17,8.37,20.17,23.84,0,14.53-8.03,25.04-21.36,25.04s-20.85-9.48-20.85-23.5,7.95-25.38,22.05-25.38Zm-.34,43.92c7.69,0,11.96-6.75,11.96-20,0-10.85-3.76-19.05-12.39-19.05s-12.73,7.86-12.73,18.88c0,11.79,4.7,20.17,13.16,20.17Z"/>
      <path class="cls-1" d="m511.53,1443.37c-2.99-.43-3.93-.51-5.55-.51-4.44,0-8.2,1.45-8.2,10.6v6.75h11.96v4.79h-11.96v35.46l5.55,2.99v2.91h-18.29v-2.91l5.04-2.99v-35.46h-6.75v-3.59l6.92-1.45v-5.21c0-11.45,6.32-17.43,15.55-17.43,1.88,0,4.27.26,5.73.6v5.47Z"/>
      <path class="cls-1" d="m535.97,1506.27v-3.08l6.24-3.59v-51.61l-6.24-3.59v-3.08h24.18c16.58,0,29.14,8.2,29.14,30.42,0,23.84-13.84,34.52-29.05,34.52h-24.27Zm24.95-5.13c15.98,0,19.31-14.53,19.31-27.77,0-17.43-8.03-26.92-23.41-26.92h-6.58v53.32l2.14,1.37h8.54Z"/>
      <path class="cls-1" d="m619.54,1458.84c10.94,0,20.17,8.37,20.17,23.84,0,14.53-8.03,25.04-21.36,25.04s-20.85-9.48-20.85-23.5,7.95-25.38,22.05-25.38Zm-.34,43.92c7.69,0,11.96-6.75,11.96-20,0-10.85-3.76-19.05-12.39-19.05s-12.73,7.86-12.73,18.88c0,11.79,4.7,20.17,13.16,20.17Z"/>
      <path class="cls-1" d="m665.6,1503.45v2.91h-17.77v-2.91l5.04-2.99v-55.8l-5.81-2.14v-2.65l10.42-2.48,3.08,2.14v60.92l5.04,2.99Z"/>
      <path class="cls-1" d="m691.32,1503.45v2.91h-17.77v-2.91l5.04-2.99v-55.8l-5.81-2.14v-2.65l10.42-2.48,3.08,2.14v60.92l5.04,2.99Z"/>
      <path class="cls-1" d="m722.69,1500.28c-6.24,6.15-10.68,6.92-14.7,6.92-6.84,0-10.85-4.19-10.85-10.42,0-8.37,5.64-15.04,25.46-20.17v-1.96c0-8.72-3.25-11.02-8.63-11.02-1.54,0-3.5.17-5.81.68l-4.53,11.37-4.79-.68.77-12.39c3.25-1.71,9.48-3.76,15.72-3.76,9.14,0,14.95,3.25,14.95,14.18v25.72c0,2.39.77,3.42,5.13,2.73v3.25c-2.14,1.54-5.3,2.31-7.18,2.31-3.85,0-5.3-1.88-5.55-6.75Zm-11.02.77c2.82,0,7.01-1.2,10.94-4.96v-15.64c-14.53,4.7-17.52,10-17.52,14.18,0,3.59,2.56,6.41,6.58,6.41Z"/>
      <path class="cls-1" d="m759.43,1503.45v2.91h-17.94v-2.91l5.04-2.99v-32.64l-5.9-1.88v-2.65l10.51-4.1,3.08,2.14v6.41c1.62-4.19,4.19-8.46,9.06-8.46,1.54,0,3.33.43,4.19.85l-.34,6.92h-3.67c-3.76-.09-7.43,1.03-9.23,2.91v30.5l5.21,2.99Z"/>
      <path class="cls-1" d="m786.86,1507.72c-4.7,0-9.91-1.11-13.67-2.56l-.6-13.76,4.79-.68,4.19,11.88c2.31.51,4.1.6,5.81.6,5.38,0,9.83-1.62,9.83-7.43s-5.13-7.61-10.6-10.08c-6.75-3.16-13.24-6.58-13.24-14.44s5.81-12.39,15.12-12.39c5.55,0,11.71,1.45,13.59,2.14l.6,13.24-4.79.68-3.67-10.94c-1.71-.43-3.5-.6-5.81-.6-5.04,0-8.37,1.71-8.37,6.15,0,5.72,5.3,7.6,10.94,10.08,6.67,2.91,12.9,6.24,12.9,14.44,0,10.42-7.26,13.67-17,13.67Z"/>
      <path class="cls-1" d="m108.05,1542.93c7.18,0,14.1,1.03,18.2,2.05l.6,16.83-5.21.68-4.87-14.27c-2.73-.43-5.21-.68-7.95-.68-7.09,0-10.94,3.85-10.94,10,0,7.86,6.24,11.11,12.99,14.87,7.95,4.36,16.75,8.89,16.75,20.17,0,14.7-12.39,17.69-20.25,17.69s-14.44-1.45-18.2-2.65l-.6-16.06,5.21-.68,5.73,14.19c2.48.43,4.7.6,7.09.6,6.75,0,12.73-3.08,12.73-11.37,0-7.69-7.09-12.56-14.1-16.41-7.69-4.27-15.47-9.23-15.47-19.74,0-9.4,7.18-15.21,18.29-15.21Z"/>
      <path class="cls-1" d="m132.58,1568.48v-2.65l10.51-4.1,3.08,2.14v39.14l5.9,2.99v2.91h-19.48v-2.91l5.9-2.99v-32.64l-5.9-1.88Zm9.14-14.53c-3.42,0-5.13-1.79-5.13-5.13v-1.03c0-3.33,1.71-5.21,5.13-5.21s5.13,1.88,5.13,5.21v1.03c0,3.33-1.71,5.13-5.13,5.13Z"/>
      <path class="cls-1" d="m176.16,1605.99v2.91h-17.77v-2.91l5.04-2.99v-55.8l-5.81-2.14v-2.65l10.42-2.48,3.08,2.14v60.93l5.04,2.99Z"/>
      <path class="cls-1" d="m199.23,1588.99c1.45,4.19,2.31,8.29,3.33,12.47l10.77-32.38-5.73-3.42v-2.91h17.86v2.91l-6.07,3.42-14.7,39.82h-5.73l-14.44-39.82-5.13-3.42v-2.91h17.86v2.91l-4.61,3.42,6.58,19.91Z"/>
      <path class="cls-1" d="m264.09,1600.27l2.31,2.82c-3.59,4.44-9.48,7.18-16.32,7.18-15.04,0-21.19-9.83-21.19-24.27,0-16.24,9.06-24.52,20.68-24.52s17.26,6.92,17.26,19.65c0,1.28-.09,2.65-.17,4.02h-29.22c0,12.13,5.47,18.97,15.04,18.97,4.53,0,8.46-1.79,11.62-3.84Zm-26.49-19.48h20.85c-.17-10.17-3.33-14.53-9.83-14.53-5.21,0-10,3.5-11.02,14.53Z"/>
      <path class="cls-1" d="m291.44,1605.99v2.91h-17.94v-2.91l5.04-2.99v-32.64l-5.9-1.88v-2.65l10.51-4.1,3.08,2.14v6.41c1.62-4.19,4.19-8.46,9.06-8.46,1.54,0,3.33.43,4.19.86l-.34,6.92h-3.67c-3.76-.08-7.43,1.03-9.23,2.91v30.51l5.21,2.99Z"/>
      <path class="cls-1" d="m332.29,1602.23v-51.61l-6.24-3.59v-3.08h20.51v3.08l-6.24,3.59v52.21l2.99,1.28h15.04l6.92-13.93,3.42.43-1.03,18.29h-41.61v-3.08l6.24-3.59Z"/>
      <path class="cls-1" d="m373.65,1568.48v-2.65l10.51-4.1,3.08,2.14v39.14l5.9,2.99v2.91h-19.48v-2.91l5.9-2.99v-32.64l-5.9-1.88Zm9.14-14.53c-3.42,0-5.13-1.79-5.13-5.13v-1.03c0-3.33,1.71-5.21,5.13-5.21s5.13,1.88,5.13,5.21v1.03c0,3.33-1.71,5.13-5.13,5.13Z"/>
      <path class="cls-1" d="m398.17,1568.48v-2.65l10.51-4.1,3.08,2.14v4.1c4.36-3.5,10-6.07,14.87-6.07,6.32,0,12.22,2.82,12.22,13.24v27.86l5.04,2.99v2.91h-17.35v-2.91l4.61-2.99v-26.58c0-6.41-2.91-8.63-8.2-8.63-4.1,0-8.03,1.79-11.19,4.1v31.1l4.61,2.99v2.91h-17.35v-2.91l5.04-2.99v-32.64l-5.9-1.88Z"/>
      <path class="cls-1" d="m449.79,1568.48v-2.65l10.51-4.1,3.08,2.14v39.14l5.9,2.99v2.91h-19.48v-2.91l5.9-2.99v-32.64l-5.9-1.88Zm9.14-14.53c-3.42,0-5.13-1.79-5.13-5.13v-1.03c0-3.33,1.71-5.21,5.13-5.21s5.13,1.88,5.13,5.21v1.03c0,3.33-1.71,5.13-5.13,5.13Z"/>
      <path class="cls-1" d="m474.31,1568.48v-2.65l10.51-4.1,3.08,2.14v4.1c4.36-3.5,10-6.07,14.87-6.07,6.32,0,12.22,2.82,12.22,13.24v27.86l5.04,2.99v2.91h-17.35v-2.91l4.61-2.99v-26.58c0-6.41-2.91-8.63-8.2-8.63-4.1,0-8.03,1.79-11.19,4.1v31.1l4.61,2.99v2.91h-17.35v-2.91l5.04-2.99v-32.64l-5.9-1.88Z"/>
      <path class="cls-1" d="m542.68,1628.98c-11.71,0-17.86-4.96-17.86-11.96,0-6.32,4.7-10.17,12.22-12.13-5.55-1.45-8.46-3.84-8.46-7.01,0-2.91,2.73-5.3,7.69-6.07-6.75-2.31-9.48-7.86-9.48-13.76,0-10.25,8.72-16.66,19.31-16.66,2.56,0,5.3.68,7.43,1.62l5.64-7.61,5.47,5.47-6.24,4.79c3.5,2.48,4.87,6.32,4.87,10.77,0,9.83-9.06,16.32-19.06,16.32-5.3,0-7.52,1.45-7.52,3.5,0,2.22,3.33,3.08,9.83,3.67,11.28,1.28,19.91,3.5,19.91,12.56,0,9.66-11.36,16.49-23.75,16.49Zm1.71-4.44c7.69,0,13.67-3.67,13.67-10.51,0-5.47-5.3-7.26-13.76-8.03-1.11-.09-2.22-.26-3.25-.34-5.3,2.82-7.69,6.32-7.69,10.34,0,4.87,4.1,8.54,11.02,8.54Zm-9.23-47.77c0,7.26,3.76,11.79,9.83,11.79,6.84,0,10.34-4.87,10.34-11.19,0-7.86-4.87-11.62-10-11.62-5.73,0-10.17,3.93-10.17,11.02Z"/>
      <path class="cls-1" d="m572.93,1580.95h50.33v5.3h-50.33v-5.3Z"/>
      <path class="cls-1" d="m643.43,1577.96c0,16.06,5.38,27,18.12,27,5.13,0,9.83-2.31,12.39-6.75v-14.87l-7.86-2.73v-4.53h15.21v32.81h-4.19l-2.31-5.64c-4.02,4.7-9.14,7.01-15.98,7.01-18.29,0-24.27-14.61-24.27-31.96,0-18.97,8.2-35.38,29.48-35.38,4.61,0,10.85.77,16.41,2.31l.6,16.58-5.21.77-5.04-13.59c-2.56-.6-5.38-.77-7.86-.77-13.42,0-19.48,12.39-19.48,29.74Z"/>
      <path class="cls-1" d="m713.33,1561.39c10.94,0,20.17,8.37,20.17,23.84,0,14.53-8.03,25.04-21.36,25.04s-20.85-9.49-20.85-23.5,7.95-25.38,22.05-25.38Zm-.34,43.92c7.69,0,11.96-6.75,11.96-20,0-10.85-3.76-19.06-12.39-19.06s-12.73,7.86-12.73,18.88c0,11.79,4.7,20.17,13.16,20.17Z"/>
      <path class="cls-1" d="m759.39,1605.99v2.91h-17.77v-2.91l5.04-2.99v-55.8l-5.81-2.14v-2.65l10.42-2.48,3.08,2.14v60.93l5.04,2.99Z"/>
      <path class="cls-1" d="m810.06,1604.03v3.25c-2.14,1.54-5.3,2.31-7.18,2.31-3.08,0-4.61-1.2-5.21-4.1-3.25,2.73-7.86,4.79-13.42,4.79-9.31,0-17.52-6.92-17.52-21.28,0-15.81,7.86-27.6,23.84-27.6,2.39,0,4.7.26,6.67.68v-14.78l-7.35-2.14v-2.65l11.96-2.48,3.08,2.14v59.13c0,2.39.77,3.42,5.13,2.73Zm-21.28.94c3.93,0,5.64-.77,8.54-2.39-.09-.6-.09-1.28-.09-2.05v-33.24c-1.97-.43-4.44-.77-7.26-.77-9.66,0-14.7,6.75-14.7,19.91s5.73,18.54,13.5,18.54Z"/>
    </g>
  </g>
  <g>
    <rect class="cls-2" width="900" height="578.79"/>
    <g>
      <path class="cls-1" d="m153.86,158.69h-25.63v-3.08l9.4-3.85v-49.99h-9.4v-3.08l11.02-3.93h6.07v56.99l8.54,3.85v3.08Z"/>
      <path class="cls-1" d="m199.24,94.77c-3.67,13.42-12.3,29.82-21.88,43.58h20.34v-20.17h7.18v20.17h10.34v6.84h-10.34v13.5h-7.18v-13.5h-27.17v-7.01c8.63-13.42,17-29.99,20.76-43.41h7.95Z"/>
      <path class="cls-1" d="m257.44,158.69h-25.63v-3.08l9.4-3.85v-49.99h-9.4v-3.08l11.02-3.93h6.07v56.99l8.54,3.85v3.08Z"/>
      <path class="cls-1" d="m289.82,126.22c-6.49-3.67-12.13-8.29-12.13-16.92,0-9.66,8.89-15.38,19.23-15.38,9.4,0,18.54,4.1,18.54,14.95,0,7.95-6.58,13.24-12.48,15.55,7.18,3.93,14.27,7.26,14.27,18.2,0,13.33-11.45,17.43-20.85,17.43-11.11,0-20.76-4.53-20.76-15.64,0-8.89,6.32-14.01,14.18-18.2Zm6.58,29.05c7.6,0,12.65-3.93,12.65-11.79,0-6.67-6.32-10.68-14.53-14.78-.6-.34-1.2-.6-1.79-.94-4.96,3.59-8.89,9.23-8.89,15.64,0,7.43,4.87,11.88,12.56,11.88Zm4.19-32.13c3.67-2.82,7.18-7.43,7.18-14.1,0-7.35-4.44-10.34-11.19-10.34-6.24,0-10.85,3.67-10.85,9.31,0,8.72,7.43,11.02,14.7,15.04l.17.09Z"/>
      <path class="cls-1" d="m381.17,132.28c-2.73,2.14-7.26,4.36-13.76,4.36-8.8,0-18.37-4.87-18.37-20.42,0-11.88,8.37-22.3,21.53-22.3,10.42,0,19.57,5.9,19.57,26.83,0,24.78-7.69,39.31-24.95,39.31-4.19,0-10.34-.6-13.76-1.62l1.03-4.7c2.73.6,7.35,1.03,9.91,1.03,10.51,0,17.09-5.73,18.8-22.47Zm-10.51-.6c3.76,0,7.86-1.62,10.77-3.59.09-1.79.17-3.59.17-5.55,0-20.08-6.67-24.01-13.33-24.01s-11.19,6.24-11.19,16.24,4.53,16.92,13.59,16.92Z"/>
      <path class="cls-1" d="m434.16,158.69h-25.63v-3.08l9.4-3.85v-49.99h-9.4v-3.08l11.02-3.93h6.07v56.99l8.54,3.85v3.08Z"/>
      <path class="cls-1" d="m484.75,132.28c-2.73,2.14-7.26,4.36-13.76,4.36-8.8,0-18.37-4.87-18.37-20.42,0-11.88,8.37-22.3,21.53-22.3,10.42,0,19.57,5.9,19.57,26.83,0,24.78-7.69,39.31-24.95,39.31-4.19,0-10.34-.6-13.76-1.62l1.03-4.7c2.73.6,7.35,1.03,9.91,1.03,10.51,0,17.09-5.73,18.8-22.47Zm-10.51-.6c3.76,0,7.86-1.62,10.77-3.59.09-1.79.17-3.59.17-5.55,0-20.08-6.67-24.01-13.33-24.01s-11.19,6.24-11.19,16.24,4.53,16.92,13.59,16.92Z"/>
      <path class="cls-1" d="m506.54,158.09l-.85-16.83,4.61-.51,4.79,14.18c1.54.34,2.99.51,4.53.51,10.25,0,15.98-5.9,15.98-17.43,0-10.68-6.24-15.12-13.76-15.12-4.53,0-7.86,1.11-10,2.82l-5.21-2.31,3.08-29.48h30.93v7.86h-25.46l-2.05,19.82c2.91-2.82,7.52-4.44,12.73-4.44,8.97,0,18.29,5.3,18.29,18.88,0,14.44-8.03,24.01-22.73,24.01-5.47,0-10.94-.85-14.87-1.96Z"/>
      <path class="cls-1" d="m579.69,158.09l-.85-16.83,4.61-.51,4.79,14.18c1.54.34,2.99.51,4.53.51,10.25,0,15.98-5.9,15.98-17.43,0-10.68-6.24-15.12-13.76-15.12-4.53,0-7.86,1.11-10,2.82l-5.21-2.31,3.08-29.48h30.93v7.86h-25.46l-2.05,19.82c2.91-2.82,7.52-4.44,12.73-4.44,8.97,0,18.29,5.3,18.29,18.88,0,14.44-8.03,24.01-22.73,24.01-5.47,0-10.94-.85-14.87-1.96Z"/>
      <path class="cls-1" d="m631.47,158l-.51-16.83,4.61-.51,4.61,14.18c2.31.34,4.27.51,6.92.51,8.46,0,13.07-4.44,13.07-13.07,0-9.74-6.15-13.67-15.3-13.67h-6.15v-4.79h5.98c10.34,0,13.59-6.15,13.59-13.5,0-8.29-3.93-11.71-11.71-11.71-1.62,0-3.16,0-4.87.17l-4.96,13.5-4.36-.68.77-16.15c5.3-1.11,10.08-1.54,15.81-1.54,11.28,0,17.69,5.04,17.69,13.84s-4.87,14.78-12.22,17.26c9.4,1.79,14.27,7.69,14.27,16.06,0,9.74-5.81,18.97-22.39,18.97-4.7,0-10.85-.94-14.87-2.05Z"/>
      <path class="cls-1" d="m708.04,94.77c-3.67,13.42-12.3,29.82-21.88,43.58h20.34v-20.17h7.18v20.17h10.34v6.84h-10.34v13.5h-7.18v-13.5h-27.17v-7.01c8.63-13.42,17-29.99,20.76-43.41h7.95Z"/>
      <path class="cls-1" d="m746.83,126.22c-6.49-3.67-12.13-8.29-12.13-16.92,0-9.66,8.89-15.38,19.23-15.38,9.4,0,18.54,4.1,18.54,14.95,0,7.95-6.58,13.24-12.48,15.55,7.18,3.93,14.27,7.26,14.27,18.2,0,13.33-11.45,17.43-20.85,17.43-11.11,0-20.76-4.53-20.76-15.64,0-8.89,6.32-14.01,14.18-18.2Zm6.58,29.05c7.6,0,12.65-3.93,12.65-11.79,0-6.67-6.32-10.68-14.53-14.78-.6-.34-1.2-.6-1.79-.94-4.96,3.59-8.89,9.23-8.89,15.64,0,7.43,4.87,11.88,12.56,11.88Zm4.19-32.13c3.67-2.82,7.18-7.43,7.18-14.1,0-7.35-4.44-10.34-11.19-10.34-6.24,0-10.85,3.67-10.85,9.31,0,8.72,7.43,11.02,14.7,15.04l.17.09Z"/>
      <path class="cls-1" d="m147.46,197.32c-3.67,13.42-12.3,29.82-21.88,43.58h20.34v-20.17h7.18v20.17h10.34v6.84h-10.34v13.5h-7.18v-13.5h-27.17v-7.01c8.63-13.42,17-29.99,20.76-43.41h7.95Z"/>
      <path class="cls-1" d="m205.65,261.23h-25.63v-3.08l9.4-3.84v-49.99h-9.4v-3.08l11.02-3.93h6.07v57l8.54,3.84v3.08Z"/>
      <path class="cls-1" d="m256.24,234.83c-2.73,2.14-7.26,4.36-13.76,4.36-8.8,0-18.37-4.87-18.37-20.42,0-11.88,8.37-22.3,21.53-22.3,10.42,0,19.57,5.9,19.57,26.83,0,24.78-7.69,39.31-24.95,39.31-4.19,0-10.34-.6-13.76-1.62l1.03-4.7c2.73.6,7.35,1.03,9.91,1.03,10.51,0,17.09-5.72,18.8-22.47Zm-10.51-.6c3.76,0,7.86-1.62,10.77-3.59.09-1.79.17-3.59.17-5.55,0-20.08-6.67-24.01-13.33-24.01s-11.19,6.24-11.19,16.24,4.53,16.92,13.59,16.92Z"/>
      <path class="cls-1" d="m309.22,261.23h-25.63v-3.08l9.4-3.84v-49.99h-9.4v-3.08l11.02-3.93h6.07v57l8.54,3.84v3.08Z"/>
      <path class="cls-1" d="m351.18,260.55l-.51-16.83,4.61-.51,4.61,14.19c2.31.34,4.27.51,6.92.51,8.46,0,13.07-4.44,13.07-13.07,0-9.74-6.15-13.67-15.3-13.67h-6.15v-4.79h5.98c10.34,0,13.59-6.15,13.59-13.5,0-8.29-3.93-11.71-11.71-11.71-1.62,0-3.16,0-4.87.17l-4.96,13.5-4.36-.68.77-16.15c5.3-1.11,10.08-1.54,15.81-1.54,11.28,0,17.69,5.04,17.69,13.84s-4.87,14.78-12.22,17.26c9.4,1.79,14.27,7.69,14.27,16.06,0,9.74-5.81,18.97-22.39,18.97-4.7,0-10.85-.94-14.87-2.05Z"/>
      <path class="cls-1" d="m420.48,262.6c-15.64,0-21.28-11.96-21.28-31.27,0-20.85,9.66-34.86,23.67-34.86s20.59,11.62,20.59,28.88c0,24.52-8.2,37.26-22.99,37.26Zm1.45-60.84c-7.69,0-14.18,8.37-14.18,27.94,0,16.49,3.59,27.51,13.24,27.51s13.93-8.46,13.93-28.45c0-18.63-5.13-27-12.99-27Z"/>
      <path class="cls-1" d="m479.53,197.32c-3.67,13.42-12.3,29.82-21.88,43.58h20.34v-20.17h7.18v20.17h10.34v6.84h-10.34v13.5h-7.18v-13.5h-27.17v-7.01c8.63-13.42,17-29.99,20.76-43.41h7.95Z"/>
      <path class="cls-1" d="m524.05,262.6c-15.64,0-21.28-11.96-21.28-31.27,0-20.85,9.66-34.86,23.67-34.86s20.59,11.62,20.59,28.88c0,24.52-8.2,37.26-22.99,37.26Zm1.45-60.84c-7.69,0-14.18,8.37-14.18,27.94,0,16.49,3.59,27.51,13.24,27.51s13.93-8.46,13.93-28.45c0-18.63-5.13-27-12.99-27Z"/>
      <path class="cls-1" d="m604.47,197.32c-3.67,13.42-12.3,29.82-21.88,43.58h20.34v-20.17h7.18v20.17h10.34v6.84h-10.34v13.5h-7.18v-13.5h-27.17v-7.01c8.63-13.42,17-29.99,20.76-43.41h7.95Z"/>
      <path class="cls-1" d="m656.25,197.32c-3.67,13.42-12.3,29.82-21.88,43.58h20.34v-20.17h7.18v20.17h10.34v6.84h-10.34v13.5h-7.18v-13.5h-27.17v-7.01c8.63-13.42,17-29.99,20.76-43.41h7.95Z"/>
      <path class="cls-1" d="m683.26,260.63l-.85-16.83,4.61-.51,4.79,14.18c1.54.34,2.99.51,4.53.51,10.25,0,15.98-5.9,15.98-17.43,0-10.68-6.24-15.12-13.76-15.12-4.53,0-7.86,1.11-10,2.82l-5.21-2.31,3.08-29.48h30.93v7.86h-25.46l-2.05,19.82c2.91-2.82,7.52-4.44,12.73-4.44,8.97,0,18.29,5.3,18.29,18.88,0,14.44-8.03,24.01-22.73,24.01-5.47,0-10.94-.85-14.87-1.97Z"/>
      <path class="cls-1" d="m735.04,260.63l-.85-16.83,4.61-.51,4.79,14.18c1.54.34,2.99.51,4.53.51,10.25,0,15.98-5.9,15.98-17.43,0-10.68-6.24-15.12-13.76-15.12-4.53,0-7.86,1.11-10,2.82l-5.21-2.31,3.08-29.48h30.93v7.86h-25.46l-2.05,19.82c2.91-2.82,7.52-4.44,12.73-4.44,8.97,0,18.29,5.3,18.29,18.88,0,14.44-8.03,24.01-22.73,24.01-5.47,0-10.94-.85-14.87-1.97Z"/>
      <path class="cls-1" d="m153.86,363.78h-25.63v-3.08l9.4-3.85v-49.99h-9.4v-3.08l11.02-3.93h6.07v56.99l8.54,3.85v3.08Z"/>
      <path class="cls-1" d="m191.98,365.15c-15.64,0-21.28-11.96-21.28-31.27,0-20.85,9.66-34.86,23.67-34.86s20.59,11.62,20.59,28.88c0,24.52-8.2,37.26-22.99,37.26Zm1.45-60.84c-7.69,0-14.18,8.37-14.18,27.94,0,16.49,3.59,27.52,13.24,27.52s13.93-8.46,13.93-28.46c0-18.63-5.13-27-12.99-27Z"/>
      <path class="cls-1" d="m226.25,363.09l-.51-16.83,4.61-.51,4.61,14.18c2.31.34,4.27.51,6.92.51,8.46,0,13.07-4.44,13.07-13.07,0-9.74-6.15-13.67-15.3-13.67h-6.15v-4.79h5.98c10.34,0,13.59-6.15,13.59-13.5,0-8.29-3.93-11.71-11.71-11.71-1.62,0-3.16,0-4.87.17l-4.96,13.5-4.36-.68.77-16.15c5.3-1.11,10.08-1.54,15.81-1.54,11.28,0,17.69,5.04,17.69,13.84s-4.87,14.78-12.22,17.26c9.4,1.79,14.27,7.69,14.27,16.06,0,9.74-5.81,18.97-22.39,18.97-4.7,0-10.85-.94-14.87-2.05Z"/>
      <path class="cls-1" d="m289.82,331.31c-6.49-3.67-12.13-8.29-12.13-16.92,0-9.66,8.89-15.38,19.23-15.38,9.4,0,18.54,4.1,18.54,14.95,0,7.95-6.58,13.24-12.48,15.55,7.18,3.93,14.27,7.26,14.27,18.2,0,13.33-11.45,17.43-20.85,17.43-11.11,0-20.76-4.53-20.76-15.64,0-8.89,6.32-14.01,14.18-18.2Zm6.58,29.05c7.6,0,12.65-3.93,12.65-11.79,0-6.67-6.32-10.68-14.53-14.78-.6-.34-1.2-.6-1.79-.94-4.96,3.59-8.89,9.23-8.89,15.64,0,7.43,4.87,11.88,12.56,11.88Zm4.19-32.13c3.67-2.82,7.18-7.43,7.18-14.1,0-7.35-4.44-10.34-11.19-10.34-6.24,0-10.85,3.67-10.85,9.31,0,8.72,7.43,11.02,14.7,15.04l.17.09Z"/>
      <path class="cls-1" d="m351.18,363.09l-.51-16.83,4.61-.51,4.61,14.18c2.31.34,4.27.51,6.92.51,8.46,0,13.07-4.44,13.07-13.07,0-9.74-6.15-13.67-15.3-13.67h-6.15v-4.79h5.98c10.34,0,13.59-6.15,13.59-13.5,0-8.29-3.93-11.71-11.71-11.71-1.62,0-3.16,0-4.87.17l-4.96,13.5-4.36-.68.77-16.15c5.3-1.11,10.08-1.54,15.81-1.54,11.28,0,17.69,5.04,17.69,13.84s-4.87,14.78-12.22,17.26c9.4,1.79,14.27,7.69,14.27,16.06,0,9.74-5.81,18.97-22.39,18.97-4.7,0-10.85-.94-14.87-2.05Z"/>
      <path class="cls-1" d="m402.03,299.86h38.62v7.86c-11.96,14.87-18.37,31.79-22.05,56.05h-9.14c4.44-23.5,12.39-41.27,24.69-56.05h-32.13v-7.86Z"/>
      <path class="cls-1" d="m472.27,365.15c-15.64,0-21.28-11.96-21.28-31.27,0-20.85,9.66-34.86,23.67-34.86s20.59,11.62,20.59,28.88c0,24.52-8.2,37.26-22.99,37.26Zm1.45-60.84c-7.69,0-14.18,8.37-14.18,27.94,0,16.49,3.59,27.52,13.24,27.52s13.93-8.46,13.93-28.46c0-18.63-5.13-27-12.99-27Z"/>
      <path class="cls-1" d="m536.53,337.37c-2.73,2.14-7.26,4.36-13.76,4.36-8.8,0-18.37-4.87-18.37-20.42,0-11.88,8.37-22.3,21.53-22.3,10.42,0,19.57,5.9,19.57,26.83,0,24.78-7.69,39.31-24.95,39.31-4.19,0-10.34-.6-13.76-1.62l1.03-4.7c2.73.6,7.35,1.03,9.91,1.03,10.51,0,17.09-5.73,18.8-22.47Zm-10.51-.6c3.76,0,7.86-1.62,10.77-3.59.09-1.79.17-3.59.17-5.55,0-20.08-6.67-24.01-13.33-24.01s-11.19,6.24-11.19,16.24,4.53,16.92,13.59,16.92Z"/>
      <path class="cls-1" d="m579.69,363.18l-.85-16.83,4.61-.51,4.79,14.18c1.54.34,2.99.51,4.53.51,10.25,0,15.98-5.9,15.98-17.43,0-10.68-6.24-15.12-13.76-15.12-4.53,0-7.86,1.11-10,2.82l-5.21-2.31,3.08-29.48h30.93v7.86h-25.46l-2.05,19.82c2.91-2.82,7.52-4.44,12.73-4.44,8.97,0,18.29,5.3,18.29,18.88,0,14.44-8.03,24.01-22.73,24.01-5.47,0-10.94-.85-14.87-1.96Z"/>
      <path class="cls-1" d="m656.25,299.86c-3.67,13.42-12.3,29.82-21.88,43.58h20.34v-20.17h7.18v20.17h10.34v6.84h-10.34v13.5h-7.18v-13.5h-27.17v-7.01c8.63-13.42,17-29.99,20.76-43.41h7.95Z"/>
      <path class="cls-1" d="m682.32,299.86h38.62v7.86c-11.96,14.87-18.37,31.79-22.05,56.05h-9.14c4.44-23.5,12.39-41.27,24.69-56.05h-32.13v-7.86Z"/>
      <path class="cls-1" d="m762.13,304.31c-12.05,0-18.2,8.97-20,23.07,3.08-1.97,7.6-3.76,12.9-3.76,10.51,0,18.8,5.81,18.8,19.57,0,14.87-9.48,21.96-20.25,21.96-13.33,0-20.51-9.23-20.51-28.71,0-21.96,9.57-37.43,28.28-37.43,2.99,0,6.75.6,9.66,1.11l-.6,5.04c-2.39-.51-5.98-.85-8.29-.85Zm-7.35,55.54c6.32,0,10.85-4.87,10.85-14.87s-4.53-16.41-12.9-16.41c-4.19,0-8.03.94-10.94,2.56-.09,1.79-.17,3.59-.17,5.47,0,17.26,5.38,23.24,13.16,23.24Z"/>
      <path class="cls-1" d="m149.76,406.85c-12.05,0-18.2,8.97-20,23.07,3.08-1.97,7.6-3.76,12.9-3.76,10.51,0,18.8,5.81,18.8,19.57,0,14.87-9.48,21.96-20.25,21.96-13.33,0-20.51-9.23-20.51-28.71,0-21.96,9.57-37.43,28.28-37.43,2.99,0,6.75.6,9.66,1.11l-.6,5.04c-2.39-.51-5.98-.85-8.29-.85Zm-7.35,55.54c6.32,0,10.85-4.87,10.85-14.87s-4.53-16.41-12.9-16.41c-4.19,0-8.03.94-10.94,2.56-.09,1.79-.17,3.59-.17,5.47,0,17.26,5.38,23.24,13.16,23.24Z"/>
      <path class="cls-1" d="m191.98,467.69c-15.64,0-21.28-11.96-21.28-31.27,0-20.85,9.66-34.86,23.67-34.86s20.59,11.62,20.59,28.88c0,24.52-8.2,37.26-22.99,37.26Zm1.45-60.84c-7.69,0-14.18,8.37-14.18,27.94,0,16.49,3.59,27.52,13.24,27.52s13.93-8.46,13.93-28.46c0-18.63-5.13-27-12.99-27Z"/>
      <path class="cls-1" d="m226.25,465.64l-.51-16.83,4.61-.51,4.61,14.18c2.31.34,4.27.51,6.92.51,8.46,0,13.07-4.44,13.07-13.07,0-9.74-6.15-13.67-15.3-13.67h-6.15v-4.79h5.98c10.34,0,13.59-6.15,13.59-13.5,0-8.29-3.93-11.71-11.71-11.71-1.62,0-3.16,0-4.87.17l-4.96,13.5-4.36-.68.77-16.15c5.3-1.11,10.08-1.54,15.81-1.54,11.28,0,17.69,5.04,17.69,13.84s-4.87,14.78-12.22,17.26c9.4,1.79,14.27,7.69,14.27,16.06,0,9.74-5.81,18.97-22.39,18.97-4.7,0-10.85-.94-14.87-2.05Z"/>
      <path class="cls-1" d="m308.02,439.92c-2.73,2.14-7.26,4.36-13.76,4.36-8.8,0-18.37-4.87-18.37-20.42,0-11.88,8.37-22.3,21.53-22.3,10.42,0,19.57,5.9,19.57,26.83,0,24.78-7.69,39.31-24.95,39.31-4.19,0-10.34-.6-13.76-1.62l1.03-4.7c2.73.6,7.35,1.03,9.91,1.03,10.51,0,17.09-5.73,18.8-22.47Zm-10.51-.6c3.76,0,7.86-1.62,10.77-3.59.09-1.79.17-3.59.17-5.55,0-20.08-6.67-24.01-13.33-24.01s-11.19,6.24-11.19,16.24,4.53,16.92,13.59,16.92Z"/>
      <path class="cls-1" d="m375.96,402.41c-3.67,13.42-12.3,29.82-21.88,43.58h20.34v-20.17h7.18v20.17h10.34v6.84h-10.34v13.5h-7.18v-13.5h-27.17v-7.01c8.63-13.42,17-29.99,20.76-43.41h7.95Z"/>
      <path class="cls-1" d="m420.48,467.69c-15.64,0-21.28-11.96-21.28-31.27,0-20.85,9.66-34.86,23.67-34.86s20.59,11.62,20.59,28.88c0,24.52-8.2,37.26-22.99,37.26Zm1.45-60.84c-7.69,0-14.18,8.37-14.18,27.94,0,16.49,3.59,27.52,13.24,27.52s13.93-8.46,13.93-28.46c0-18.63-5.13-27-12.99-27Z"/>
      <path class="cls-1" d="m484.75,439.92c-2.73,2.14-7.26,4.36-13.76,4.36-8.8,0-18.37-4.87-18.37-20.42,0-11.88,8.37-22.3,21.53-22.3,10.42,0,19.57,5.9,19.57,26.83,0,24.78-7.69,39.31-24.95,39.31-4.19,0-10.34-.6-13.76-1.62l1.03-4.7c2.73.6,7.35,1.03,9.91,1.03,10.51,0,17.09-5.73,18.8-22.47Zm-10.51-.6c3.76,0,7.86-1.62,10.77-3.59.09-1.79.17-3.59.17-5.55,0-20.08-6.67-24.01-13.33-24.01s-11.19,6.24-11.19,16.24,4.53,16.92,13.59,16.92Z"/>
      <path class="cls-1" d="m505.6,402.41h38.62v7.86c-11.96,14.87-18.37,31.79-22.05,56.05h-9.14c4.44-23.5,12.39-41.27,24.69-56.05h-32.13v-7.86Z"/>
      <path class="cls-1" d="m610.88,466.32h-25.63v-3.08l9.4-3.85v-49.99h-9.4v-3.08l11.02-3.93h6.07v56.99l8.54,3.85v3.08Z"/>
      <path class="cls-1" d="m662.66,466.32h-25.63v-3.08l9.4-3.85v-49.99h-9.4v-3.08l11.02-3.93h6.07v56.99l8.54,3.85v3.08Z"/>
      <path class="cls-1" d="m710.35,406.85c-12.05,0-18.2,8.97-20,23.07,3.08-1.97,7.6-3.76,12.9-3.76,10.51,0,18.8,5.81,18.8,19.57,0,14.87-9.48,21.96-20.25,21.96-13.33,0-20.51-9.23-20.51-28.71,0-21.96,9.57-37.43,28.28-37.43,2.99,0,6.75.6,9.66,1.11l-.6,5.04c-2.39-.51-5.98-.85-8.29-.85Zm-7.35,55.54c6.32,0,10.85-4.87,10.85-14.87s-4.53-16.41-12.9-16.41c-4.19,0-8.03.94-10.94,2.56-.09,1.79-.17,3.59-.17,5.47,0,17.26,5.38,23.24,13.16,23.24Z"/>
      <path class="cls-1" d="m759.82,402.41c-3.67,13.42-12.3,29.82-21.88,43.58h20.34v-20.17h7.18v20.17h10.34v6.84h-10.34v13.5h-7.18v-13.5h-27.17v-7.01c8.63-13.42,17-29.99,20.76-43.41h7.95Z"/>
    </g>
  </g>
  <g>
    <rect class="cls-3" y="1736.37" width="900" height="578.79"/>
    <g>
      <path class="cls-1" d="m149.6,2087.54v-120.8l-14.6-8.4v-7.2h47.6v7.2l-14.2,8.4v54.4h64.6v-54.4l-14.2-8.4v-7.2h47.6v7.2l-14.6,8.4v120.8l14.6,8.4v7.2h-47.6v-7.2l14.2-8.4v-54.4h-64.6v54.4l14.2,8.4v7.2h-47.6v-7.2l14.6-8.4Z"/>
      <path class="cls-1" d="m320.4,2005.34v88.2h29.2c10.6,0,13.4-4,13.4-13.8v-87l9-7h8.2v85.8c0,19.4-4.8,31.6-25.8,31.6h-61v-6.8l9.8-4.8v-62.4l-5,2.6c-14.4,0-18.2-5.8-18.2-19.4v-9.4c0-13.2,7.4-18.4,21.2-18.4s19.2,7.2,19.2,20.8Zm-15.8,18.4v-21c0-6.2-1.6-9.4-6.8-9.4-4.6,0-7.4,2.4-7.4,9.6v10c0,8,2.4,10.8,8.2,10.8h6Z"/>
      <path class="cls-1" d="m373.4,2115.54h6.8v29.6c0,9.6-4.4,13.8-13.2,13.8h-27.4v-15.8l-5.6,3.4c-11.2,0-16-2.4-16-15.2,0-10.8,5.8-16.8,18.2-16.8,9.8,0,17,2.8,17,14.8v22.2h6c4.6,0,6-1.4,6-5.8v-23.2l8.2-7Zm-33.8,25.6v-13.2c0-4.2-.8-7-5-7-3.6,0-5.6,2.4-5.6,10.2,0,8.6,2.2,10,6,10h4.6Z"/>
      <path class="cls-1" d="m488,2020.34c0-20.8-10.4-26.8-24.4-26.8s-30.6,7-40.4,13.6l17.2,17.6v78.4h-17.2v-76.8l-14.2-14.4v-6.2c8.8-8,32.8-22.6,58.2-22.6s38,10.8,38,38.2v76.4l-8.2,7h-9v-84.4Z"/>
      <path class="cls-1" d="m420.2,1970.54v-6.6c0-11,6.2-21.8,28.2-21.8,16.8,0,31.4,8,39.6,15.8v-15.8h15.2v28.4h-83Zm15.2-8h45c-9.4-7.6-22.6-12.4-31.8-12.4s-13.2,3.8-13.2,11.2v1.2Z"/>
      <path class="cls-1" d="m485.2,1933.94h-11.4v-5.2c7.4-1,12.8-3.2,15.8-8.2l-5.4,2.4c-7,0-10.8-3.6-10.8-12s4.4-13.2,15-13.2c8.8,0,13.4,4.2,13.4,12.2s-3.6,14.6-12.2,18.2c13.8-1.2,15.8-5.4,24.4-17.6l8.4,7.8c-8.4,11-15.2,15.6-37.2,15.6Zm5.6-25.4c0-4.4-1.2-5.6-3.4-5.6-2.6,0-4.2,1.6-4.2,7.8s1.4,7.2,4.8,7.2h2.8v-9.4Z"/>
      <path class="cls-1" d="m602.8,2120.54l-5.4-4.8c16.6-21.2,26.2-43.8,26.2-70.8,0-35-13.4-46.8-35.2-46.8-25.6,0-35.2,22.6-35.2,48,0,18.2,2.8,36.4,15.2,43-2.4-4-3.2-8.8-3.2-15.4,0-9.2,4.8-18.4,17.2-18.4,13.2,0,18.6,6.6,18.6,20.6,0,15.2-8.8,23.4-24.6,23.4-22.6,0-40.8-18.8-40.8-56s23.2-55.2,52.8-55.2c34.8,0,53.2,19.8,53.2,56,0,29.6-14.2,54.2-38.8,76.4Zm-13.4-43.6c0-10.2-1.6-13-7-13-5,0-7,2.8-7,10,0,5.8.6,12.6,1.8,17.8.8.2,1.8.2,2.8.2,7,0,9.4-4.8,9.4-15Z"/>
      <path class="cls-1" d="m660.4,1953.74v-6.2l24.4-5.8,7.2,5v60.6c10.2-8.2,23.4-14.2,34.8-14.2,14.8,0,28.6,6.6,28.6,31v65.2l11.8,7v6.8h-40.6v-6.8l10.8-7v-62c0-15.2-6.8-20.4-19.2-20.4-9.6,0-18.8,4.2-26.2,9.6v72.8l10.8,7v6.8h-40.6v-6.8l11.8-7v-130.6l-13.6-5Z"/>
    </g>
  </g>
</svg>