<?xml version="1.0" encoding="utf-8"?>
<!-- Generator: Adobe Illustrator 27.3.1, SVG Export Plug-In . SVG Version: 6.00 Build 0)  -->
<svg version="1.1" id="Layer_2" xmlns="http://www.w3.org/2000/svg" xmlns:xlink="http://www.w3.org/1999/xlink" x="0px" y="0px"
	 viewBox="0 0 700 1200" style="enable-background:new 0 0 700 1200;" xml:space="preserve">
<style type="text/css">
	.st0{fill:#9632FA;}
</style>
<rect class="st0" width="700" height="1200"/>
<g>
	<path d="M171.38,613.8l-8.8-0.21l0.01-0.48c0.04-1.85,0.42-2.25,3.23-2.18l0.42-18.05l-3.18-0.07l0.01-0.52
		c0.04-1.7,0.57-2.21,2.83-2.15l7.21,0.17c4.88,0.11,7.54,2.14,7.45,5.95c-0.05,2.26-1.24,3.93-3.33,4.84
		c2.72,0.99,4.37,2.88,4.31,5.65C181.44,610.82,178.41,613.97,171.38,613.8z M172.48,611.09c3.25,0.08,5.58-1.28,5.65-4.09
		c0.07-2.92-2.17-3.97-6.09-4.07l-2.55-0.06l-0.19,8.14L172.48,611.09z M169.55,600.29l2.55,0.06c3.51,0.08,5.03-1.21,5.09-3.77
		c0.06-2.55-1.92-3.49-5.21-3.56l-2.26-0.05L169.55,600.29z"/>
	<path d="M193.48,604.25l2.15,0.05l0.02-0.7c0.07-3.03-0.86-4.57-2.82-4.62c-1.29-0.03-2.26,0.06-3.3,0.33l-0.03,1.37
		c-0.03,1.37-0.57,2.06-2.27,2.02l-0.74-0.02l0.11-4.88c1.01-0.53,4.22-1.49,7.1-1.43c3.74,0.09,5.31,2.42,5.23,6.01l-0.22,9.54
		l2.96,0.07l-0.01,0.52c-0.04,1.63-0.38,1.99-3.04,1.93l-2.26-0.05l-0.91-2.43c-0.81,1.2-2.99,2.71-5.5,2.65
		c-2.66-0.06-4.5-2.03-4.44-4.66C185.58,606.44,188.33,604.13,193.48,604.25z M195.49,609.93l0.08-3.44l-2.11-0.05
		c-3.51-0.08-4.74,1.55-4.77,3.03c-0.03,1.48,0.98,2.21,2.43,2.24C192.67,611.75,194.28,610.93,195.49,609.93z"/>
	<path d="M204.36,599.51l0.01-0.52c0.04-1.63,0.42-1.99,3.04-1.93l2.48,0.06l0.69,2.24c1.1-1.05,3.39-2.51,6.9-2.43
		c3,0.07,4.58,1.96,4.49,5.99l-0.22,9.54l2.77,0.06l-0.01,0.52c-0.04,1.63-0.6,1.98-2.86,1.93l-6.18-0.14l0.01-0.52
		c0.04-1.66,0.38-1.99,3.04-1.93l0.19-8.25c0.07-3.18-0.72-4.2-2.79-4.25c-1.89-0.04-4.09,0.72-5.41,1.76l-0.25,10.54l2.81,0.07
		l-0.01,0.52c-0.04,1.63-0.6,1.98-2.86,1.93l-6.21-0.15l0.01-0.52c0.04-1.66,0.42-1.99,3.04-1.93l0.29-12.54L204.36,599.51z"/>
	<path d="M238.84,598.21c0.25-0.99,0.71-1.91,1.36-2.52c1.06-1.09,2.77-1.16,3.48,0.08l0.43,0.75c-1.61,0.81-2.79,2.08-3.41,3.25
		c0.94,1.06,1.49,2.52,1.46,4.14c-0.09,3.77-3.34,6.73-7.52,6.63c-0.89-0.02-1.74-0.19-2.51-0.5c-0.53,0.39-0.72,0.76-0.73,1.17
		c-0.02,0.67,0.56,1.27,3.07,1.63l2.69,0.4c3.21,0.48,5.69,2.17,5.62,5.05c-0.08,3.22-2.88,6-8.69,5.87
		c-4.88-0.11-7.2-2.28-7.13-5.13c0.05-1.96,1.27-3.71,2.7-4.67c-0.99-0.58-1.45-1.33-1.43-2.33c0.03-1.22,0.76-2.31,2.22-2.95
		c-1.53-1.22-2.48-3.09-2.43-5.28c0.09-3.81,3.15-6.55,7.59-6.45C236.75,597.38,237.86,597.71,238.84,598.21z M234.74,621.65
		c3.22,0.08,4.84-1.22,4.89-3.14c0.04-1.7-1.27-2.58-3.75-2.86l-2.73-0.32c-0.48-0.05-0.92-0.13-1.33-0.22
		c-1.02,0.9-1.57,2.07-1.6,3.44C230.18,620.29,231.41,621.58,234.74,621.65z M231.35,603.59c-0.06,2.63,1.23,4.51,3.78,4.57
		c1.96,0.05,3.63-1.58,3.68-3.87c0.06-2.74-1.23-4.51-3.78-4.57C233.11,599.67,231.41,601.22,231.35,603.59z"/>
	<path d="M260.39,607.6l-11.21-0.26c0.28,3.86,2.27,5.68,5.05,5.74c2.4,0.06,4.61-0.63,5.85-1.53l-0.02,0.92
		c-0.03,1.48-1.94,3.73-6.64,3.62c-4.51-0.11-7.66-3.47-7.53-8.69c0.16-6.62,3.71-9.72,8.48-9.61
		C258.28,597.89,260.72,601.02,260.39,607.6z M249.23,605.08l8.03,0.19c-0.11-3.19-1.48-4.92-3.66-4.97
		C251.3,600.24,249.6,601.87,249.23,605.08z"/>
	<path d="M263.76,600.9l0.01-0.52c0.04-1.63,0.42-1.99,3.04-1.93l2.85,0.07l0.32,2.26c0.95-1.24,3.17-2.55,5.35-2.5
		c0.96,0.02,1.81,0.15,2.51,0.35l-0.11,4.59c-0.03,1.37-0.86,2.05-2.38,2.02l-0.63-0.01l0.1-4.07c-1.89-0.08-3.86,0.61-4.89,1.88
		l-0.25,10.54l3.88,0.09l-0.01,0.52c-0.04,1.63-0.6,1.98-2.86,1.93l-7.29-0.17l0.01-0.52c0.04-1.66,0.42-1.99,3.04-1.93l0.29-12.54
		L263.76,600.9z"/>
	<path d="M286.65,592.37l0.01-0.52c0.04-1.63,0.42-1.99,3.04-1.93l3.63,0.08l-0.43,2.43l-0.21,8.84c0.69-0.8,3.02-2.52,6.39-2.44
		c3.81,0.09,6.08,2.88,5.95,8.47c-0.15,6.51-4.3,9.89-8.89,9.79c-3.33-0.08-5.53-0.94-7.39-2.17l0.43-2.4l0.47-20.09L286.65,592.37z
		 M292.64,603.58l-0.23,9.69c0.91,0.61,2.16,0.98,4.12,1.02c2.66,0.06,4.97-2.03,5.08-6.69c0.09-3.85-1.27-5.73-3.79-5.79
		C295.9,601.77,293.92,602.53,292.64,603.58z"/>
	<path d="M310.48,625.76c-1.96-0.05-2.9-1.18-2.47-3.61c0.58,0.46,1.39,0.66,2.24,0.68c1,0.02,1.94-0.84,2.61-2.34l1.48-3.41
		l-5.94-15.13l-1.92-0.04l0.01-0.52c0.04-1.63,0.42-1.99,3.04-1.93l4.88,0.11l-0.01,0.52c-0.04,1.7-0.53,1.95-2.38,1.94l4.19,10.76
		l4.61-10.55l-2.48-0.06l0.01-0.52c0.04-1.63,0.42-1.99,3.04-1.93l4.88,0.11l-0.01,0.52c-0.04,1.63-0.49,1.91-2.15,1.95l-8.47,18.75
		C314.25,624.18,312.44,625.8,310.48,625.76z"/>
	<path d="M344.86,617.87l-8.8-0.21l0.01-0.48c0.04-1.85,0.42-2.25,3.23-2.18l0.42-18.05l-3.18-0.07l0.01-0.52
		c0.04-1.7,0.57-2.21,2.83-2.15l7.21,0.17c4.88,0.11,7.54,2.14,7.45,5.95c-0.05,2.26-1.24,3.93-3.33,4.84
		c2.72,0.99,4.38,2.88,4.31,5.65C354.92,614.88,351.89,618.03,344.86,617.87z M345.96,615.15c3.26,0.08,5.58-1.28,5.65-4.09
		c0.07-2.92-2.16-3.97-6.09-4.07l-2.55-0.06l-0.19,8.14L345.96,615.15z M343.03,604.35l2.55,0.06c3.51,0.08,5.02-1.21,5.08-3.77
		c0.06-2.55-1.92-3.49-5.21-3.56l-2.26-0.05L343.03,604.35z"/>
	<path d="M375.29,609.51c-0.13,5.36-3.85,9.35-8.88,9.23c-4.4-0.1-7.83-3.74-7.7-9.25c0.12-5.36,3.69-9.17,8.87-9.05
		C371.76,600.54,375.42,604,375.29,609.51z M361.97,609.24c-0.09,3.7,1.7,6.63,5.14,6.71c2.74,0.06,4.83-2.37,4.92-6.18
		c0.09-3.7-1.74-6.44-5.18-6.52C364.15,603.18,362.06,605.43,361.97,609.24z"/>
	<path d="M378.65,603.59l0.01-0.52c0.04-1.63,0.42-1.99,3.04-1.93l2.85,0.07l0.32,2.27c0.95-1.24,3.17-2.55,5.35-2.5
		c0.96,0.02,1.81,0.15,2.51,0.35l-0.11,4.59c-0.03,1.37-0.86,2.05-2.38,2.02l-0.63-0.01l0.09-4.07c-1.88-0.08-3.86,0.61-4.89,1.88
		l-0.25,10.54l3.88,0.09l-0.01,0.52c-0.04,1.63-0.6,1.98-2.86,1.93l-7.29-0.17l0.01-0.52c0.04-1.66,0.42-1.99,3.04-1.93l0.29-12.54
		L378.65,603.59z"/>
	<path d="M399.83,618.89c-0.15,6.18-1.64,8.44-3.94,8.75c-1.34,0.23-1.96-0.19-2.19-1.27l-0.13-0.67l0.41-0.1
		c1.49-0.34,2.48-1.61,2.59-6.08l0.36-15.5l-2.96-0.07l0.01-0.52c0.04-1.63,0.38-1.99,3.01-1.93l3.62,0.08l-0.43,2.43L399.83,618.89
		z M398.78,598.77c-1.33-0.03-2.23-0.98-2.2-2.38c0.03-1.37,0.98-2.31,2.31-2.28c1.37,0.03,2.31,1.02,2.28,2.38
		C401.14,597.9,400.15,598.8,398.78,598.77z"/>
	<path d="M412.64,609.39l2.15,0.05l0.02-0.7c0.07-3.03-0.85-4.57-2.82-4.62c-1.29-0.03-2.26,0.06-3.3,0.33l-0.03,1.37
		c-0.03,1.37-0.57,2.06-2.27,2.02l-0.74-0.02l0.11-4.88c1.01-0.53,4.22-1.49,7.1-1.43c3.74,0.09,5.31,2.42,5.23,6.01l-0.22,9.54
		l2.96,0.07l-0.01,0.52c-0.04,1.63-0.38,1.99-3.04,1.93l-2.26-0.05l-0.91-2.43c-0.8,1.2-2.99,2.71-5.5,2.65
		c-2.66-0.06-4.5-2.03-4.44-4.66C404.74,611.57,407.49,609.27,412.64,609.39z M414.65,615.06l0.08-3.44l-2.11-0.05
		c-3.51-0.08-4.74,1.55-4.77,3.03c-0.04,1.48,0.99,2.21,2.43,2.24C411.83,616.88,413.44,616.07,414.65,615.06z"/>
	<path d="M423.51,604.64l0.01-0.52c0.04-1.63,0.42-1.99,3.04-1.93l2.48,0.06l0.69,2.24c1.1-1.05,3.39-2.51,6.91-2.43
		c3,0.07,4.58,1.96,4.49,5.99l-0.22,9.54l2.77,0.06l-0.01,0.52c-0.04,1.63-0.6,1.98-2.86,1.93l-6.18-0.14l0.01-0.52
		c0.04-1.66,0.38-1.99,3.04-1.93l0.19-8.25c0.08-3.18-0.71-4.2-2.79-4.25c-1.89-0.04-4.09,0.72-5.41,1.76l-0.25,10.54l2.81,0.07
		l-0.01,0.52c-0.04,1.63-0.6,1.98-2.86,1.93l-6.21-0.15l0.01-0.52c0.04-1.66,0.42-1.99,3.04-1.93l0.29-12.54L423.51,604.64z"/>
	<path d="M466.62,617.98l-0.01,0.56c-0.05,2-0.57,2.17-2.79,2.12l-8.51-0.2l0.01-0.48c0.04-1.85,0.42-2.25,3.23-2.18l0.42-18.05
		l-3.18-0.07l0.01-0.52c0.04-1.7,0.57-2.21,2.83-2.15l6.81,0.16c5.59,0.13,8.6,2.79,8.49,7.16c-0.1,4.29-3.17,7.44-10.16,7.28
		l-1.59-0.04l-0.15,6.33L466.62,617.98z M462.45,599.82l-0.21,9.1l2.63,0.06c3.4,0.08,5.58-1.31,5.65-4.31
		c0.07-3.18-1.89-4.71-6.07-4.81L462.45,599.82z"/>
	<path d="M484.36,611.07l2.15,0.05l0.02-0.7c0.07-3.03-0.85-4.57-2.82-4.62c-1.29-0.03-2.26,0.06-3.3,0.33l-0.03,1.37
		c-0.03,1.37-0.57,2.06-2.27,2.02l-0.74-0.02l0.11-4.88c1.01-0.53,4.22-1.49,7.1-1.43c3.74,0.09,5.31,2.42,5.23,6.01l-0.22,9.54
		l2.96,0.07l-0.01,0.52c-0.04,1.63-0.38,1.99-3.04,1.93l-2.26-0.05l-0.9-2.43c-0.81,1.2-2.99,2.71-5.5,2.65
		c-2.66-0.06-4.5-2.03-4.44-4.66C476.46,613.25,479.22,610.94,484.36,611.07z M486.37,616.74l0.08-3.44l-2.11-0.05
		c-3.51-0.08-4.74,1.55-4.77,3.03c-0.04,1.48,0.98,2.21,2.43,2.24C483.55,618.56,485.16,617.75,486.37,616.74z"/>
	<path d="M495.35,606.33l-2.07-0.05l0.01-0.52c0.04-1.63,0.42-1.99,3.04-1.93l4.88,0.11l-0.01,0.52c-0.04,1.85-0.6,1.98-2.6,1.94
		l4.02,11.53l0.3,0.01l4.37-11.33l-2.7-0.06l0.01-0.52c0.04-1.63,0.42-1.99,3.04-1.93l4.88,0.11l-0.01,0.52
		c-0.04,1.59-0.45,1.91-2.04,1.95l-6.34,14.92c-1.15,0.08-1.96,0.07-3.29-0.08l-5.6-15.16L495.35,606.33z"/>
	<path d="M519.42,597.75l-0.51,21.68l2.77,0.06l-0.01,0.52c-0.04,1.63-0.6,1.98-2.86,1.93l-6.18-0.14l0.01-0.33
		c0.04-1.85,0.38-2.17,3.01-2.11l0.51-21.6l-2.96-0.07l0.01-0.52c0.04-1.63,0.38-1.99,3.01-1.93l3.62,0.08L519.42,597.75z"/>
	<path d="M539.06,614.12l-11.21-0.26c0.28,3.86,2.27,5.68,5.05,5.74c2.4,0.06,4.61-0.63,5.85-1.53l-0.02,0.92
		c-0.04,1.48-1.94,3.73-6.64,3.62c-4.51-0.11-7.66-3.47-7.53-8.69c0.16-6.62,3.71-9.72,8.48-9.61
		C536.96,604.41,539.4,607.54,539.06,614.12z M527.9,611.6l8.03,0.19c-0.11-3.19-1.48-4.92-3.66-4.97
		C529.98,606.77,528.28,608.39,527.9,611.6z"/>
	<path d="M557.91,623.04c-1.55-0.04-2.78-1.47-4.82-4.59l-2.5-3.83l-2.92-0.07l-0.13,5.55l2.77,0.06l-0.01,0.52
		c-0.04,1.63-0.6,1.98-2.86,1.93l-6.21-0.15l0.01-0.33c0.04-1.85,0.42-2.17,3.05-2.11l0.51-21.6l-3-0.07l0.01-0.52
		c0.04-1.63,0.42-1.99,3.04-1.93l3.62,0.08l-0.43,2.43l-0.32,13.54l3.18,0.07l2.88-4.3l-2.15-0.05l0.01-0.52
		c0.04-1.66,0.42-2.03,3.04-1.96l5.73,0.13l-0.01,0.52c-0.04,1.66-0.6,2.02-2.86,1.97l-0.33-0.01l-3.75,5.46l2.65,4.02
		c1.68,2.56,2.78,3.06,3.78,3.09l0.59,0.01C560.42,621.99,559.54,623.08,557.91,623.04z"/>
</g>
<g>
	<g>
		<path d="M344.53,956.2c82.82,10.76,149.95-40.04,147.76-94.04c-2.01-53.33-58.22-107.3-123.57-107.88
			c-33.29-0.16-64.64,14.46-90.56,32.51c-25.74,18.39-46.06,40.21-53.13,62.27c-7.02,22.19,1.31,43.78,22.84,63.99
			C269.21,932.79,303.73,951.14,344.53,956.2"/>
	</g>
	<g>
		<path class="st0" d="M250.51,852.54l-0.05-1.41c1.21-2.06,4.99-6.17,7.81-7.93l1.65-0.06l0.17,4.89l11.01-0.38l0.03,0.8
			c0.1,2.81-0.8,3.4-4.53,3.53l-6.3,0.22l0.45,12.97c0.15,4.47,1.94,6.49,4.75,6.39c2.75-0.1,4.26-0.88,6.1-2.35l0.05,1.53
			c0.07,1.96-2.07,5.71-7.63,5.9c-5.08,0.18-8.4-3.87-8.59-9.32l-0.52-14.92L250.51,852.54z"/>
		<path class="st0" d="M279.39,881.67l1.22-0.04l-1.58-45.69l-6.12,0.21l-0.03-0.86c-0.11-3.06,0.48-3.69,4.77-3.84l7.28-0.25
			l-0.47,4l1.62,46.79c0.09,2.63-1.02,4.02-3.71,4.11l-7.71,0.27l-0.03-0.86C274.51,882.45,275.1,881.82,279.39,881.67z"/>
		<path class="st0" d="M293.54,850.07l-0.03-0.86c-0.09-2.69,0.5-3.32,4.84-3.47l4.1-0.14l1.35,3.63c1.71-1.84,5.36-4.47,11.17-4.67
			c3.55-0.12,5.99,1.38,7.21,4.71l0.59-0.69c1.65-1.83,5.36-4.47,11.11-4.67c5.02-0.17,7.81,2.79,8.04,9.46l0.55,15.78l4.59-0.16
			l0.03,0.86c0.09,2.69-0.8,3.34-4.53,3.46l-10.21,0.35l-0.03-0.86c-0.1-2.75,0.44-3.32,4.78-3.47l-0.47-13.64
			c-0.18-5.26-1.52-6.87-5.01-6.75c-3.12,0.11-6.62,1.58-8.7,3.43l-0.06,0.06c0.08,0.49,0.1,1.04,0.12,1.59l0.55,15.78l4.59-0.16
			l0.03,0.86c0.09,2.69-0.8,3.33-4.54,3.46l-10.21,0.35l-0.03-0.86c-0.1-2.75,0.44-3.32,4.84-3.47l-0.47-13.64
			c-0.18-5.26-1.59-6.87-5.01-6.75c-3.12,0.11-6.68,1.58-8.76,3.43l0.6,17.43l4.65-0.16l0.03,0.86c0.09,2.69-0.8,3.33-4.53,3.46
			l-10.28,0.36l-0.03-0.86c-0.1-2.75,0.5-3.32,4.84-3.47l-0.72-20.74L293.54,850.07z"/>
		<path class="st0" d="M369.27,872.37l-17.49,0.61l-0.08-2.2c-0.05-1.53,0.68-3.45,3.42-5.45l4.36-3.21c5.73-4.24,8.12-7.88,8.01-11
			c-0.09-2.69-2.16-3.97-5.09-3.86c-2.63,0.09-4.27,0.58-5.83,1.37l0.13,3.61c0.07,2.14-0.38,3.07-2.71,3.16l-1.96,0.07l-0.31-8.99
			c2.21-1.61,6.01-3.39,11.57-3.59c6.3-0.22,9.53,2.73,9.69,7.32c0.18,5.14-3.03,9.78-10.33,14.69l-4.43,2.97l0.02,0.61l15.57-1.4
			l0.05,1.59C373.95,871.16,373.07,872.23,369.27,872.37z"/>
		<path class="st0" d="M408.15,856.01c0.32,9.3-5.64,15.81-14.69,16.13c-8.5,0.29-14.22-5.57-14.53-14.5
			c-0.32-9.3,5.4-15.5,14.7-15.82C401.77,841.54,407.84,847.08,408.15,856.01z M384.34,856.47c0.24,6.79,3.95,11.38,9.39,11.19
			c5.69-0.2,9.22-4.36,9.01-10.48c-0.25-7.22-4.01-11.31-9.45-11.12C387.66,846.25,384.11,849.74,384.34,856.47z"/>
		<path class="st0" d="M431.3,870.22l-17.49,0.61l-0.08-2.2c-0.05-1.53,0.68-3.45,3.42-5.45l4.36-3.21c5.73-4.24,8.12-7.88,8.01-11
			c-0.09-2.69-2.16-3.97-5.09-3.86c-2.63,0.09-4.27,0.58-5.83,1.37l0.12,3.61c0.07,2.14-0.38,3.07-2.71,3.16l-1.96,0.07l-0.31-8.99
			c2.21-1.61,6.01-3.39,11.57-3.59c6.3-0.22,9.53,2.73,9.68,7.32c0.18,5.14-3.03,9.78-10.33,14.69l-4.43,2.97l0.02,0.61l15.57-1.4
			l0.06,1.59C435.97,869.01,435.09,870.08,431.3,870.22z"/>
		<path class="st0" d="M458.71,869.26l-17.49,0.61l-0.08-2.2c-0.05-1.53,0.68-3.45,3.42-5.45l4.36-3.21c5.73-4.24,8.12-7.88,8.01-11
			c-0.09-2.69-2.16-3.97-5.09-3.86c-2.63,0.09-4.27,0.58-5.83,1.37l0.12,3.61c0.07,2.14-0.38,3.07-2.71,3.16l-1.96,0.07l-0.31-8.99
			c2.21-1.61,6.01-3.39,11.57-3.59c6.3-0.22,9.53,2.73,9.68,7.32c0.18,5.14-3.03,9.78-10.33,14.69l-4.43,2.97l0.02,0.61l15.57-1.4
			l0.05,1.59C463.38,868.06,462.5,869.13,458.71,869.26z"/>
	</g>
</g>
<g>
	<g>
		<path d="M31.5,493.64c0.37,6.5,0.07,15.73-0.81,23.64l-1.01-0.11c0.4-7.55,0.39-16.42,0.01-23.09c-0.51-8.84-2.71-12.23-5.2-14.76
			l0.46-0.7C28.06,480.45,31.03,485.47,31.5,493.64z M46.45,503.32l-8.66,18.24c-10.45,22.02,0.41,36.12,17.92,35.11
			c12.18-0.7,19.7-3.65,24.75-8.96l0.54,0.64c-5.17,6.15-13.33,9.8-25.33,10.5c-19.68,1.13-30.94-14.12-19.59-38.03l8.66-18.24
			c12.08-25.63,8.73-34.47-2.29-34.01c-7.02,0.24-10.76,1.96-14.49,4.18l-0.37-0.65c3.54-2.38,8.6-4.68,15.1-5.05
			C55.86,466.3,59.28,476.31,46.45,503.32z M67.46,539.76c-7.51,0.43-12.29-4.15-12.83-13.49c-0.42-7.34-0.08-13.05,1.29-21.16
			l0.84,0.12c-0.72,7.91-0.56,13.59-0.16,20.43c0.52,9.01,4.91,12.6,10.91,12.26c7.84-0.45,13.28-1.94,17.51-4.02l0.37,0.65
			C81.04,537.31,75.3,539.31,67.46,539.76z M72.91,503.64c-6.17,0.36-12.04-2.65-15.45-6.81l0.47-0.53
			c3.52,2.98,9.2,5.83,14.71,5.51c7.51-0.43,7.05-11.28,6.08-19.43l0.83-0.05C82.11,494.91,80.41,503.21,72.91,503.64z
			 M59.21,483.68l-0.05-0.83c5.15-0.63,10.59-2.12,15.28-4.9l0.37,0.65C71.18,482.32,64.45,484.55,59.21,483.68z"/>
		<path d="M81.03,455.81c2.25-1.64,4.87-2.62,7.37-2.77c4.5-0.26,7.02,2.78,7.51,11.28c0.49,8.51,0.04,18.07-0.75,33.51l-0.67,0.04
			c-0.19-14.88,0.08-24.77-0.39-32.94c-0.49-8.51-3.11-10.36-5.61-10.22c-3.34,0.19-5.64,0.83-7.43,1.77L81.03,455.81z
			 M101.87,506.66l13.64-39.28c6.46-18.61,5.21-31.59-9.97-30.72c-8.17,0.47-15.69,3.58-20.92,8.74l-0.54-0.64
			c5.69-5.85,13.67-9.66,21.34-10.1c17.85-1.03,18.51,13.33,11.77,32.96l-13.47,39.26c-11.61,33.8-7.47,47.62,7.38,46.77
			c9.84-0.57,16.22-5.95,20.58-11.73l0.19,0.32c-4.25,7.61-11.64,12.89-20.98,13.42C94.03,556.64,90.23,539.96,101.87,506.66z
			 M134.02,530.24c-2.25,1.64-4.87,2.62-7.37,2.77c-4.5,0.26-7.02-2.77-7.51-11.28c-0.49-8.51-0.04-18.07,0.75-33.51l0.67-0.04
			c0.19,14.88-0.08,24.77,0.39,32.94c0.49,8.51,3.11,10.36,5.61,10.22c3.34-0.19,5.64-0.83,7.43-1.77L134.02,530.24z M138.74,490.31
			c4.67-0.27,8.84,2.34,9.24,9.34c0.32,5.5,0.12,10.87-0.5,17.43l-1,0.06c0.17-5.7,0.16-11.72-0.15-17.23
			c-0.34-5.84-3.97-7.97-8.48-7.71c-3.84,0.22-7.75,1.95-10.48,3.95l-0.37-0.65C129.54,493.18,133.91,490.59,138.74,490.31z
			 M155.21,520.49c-10.91,19.71-7.24,31.21,3.77,30.57c10.84-0.62,16.08-5.61,21.54-12.45l0.71,0.63c-5.09,7.49-10.63,13-22.81,13.7
			c-13.34,0.77-16.3-12.78-4.92-33.19l9.55-17.28c10.76-19.53,6.17-29.47-9.68-28.56c-11.51,0.66-18.98,4.61-24.63,11.12l-0.52-0.31
			c5.26-7.5,13.2-11.97,26.21-12.72c16.51-0.95,22.33,9.93,10.49,31.03L155.21,520.49z M181.85,529.83
			c-1.59,1.43-3.37,2.54-5.87,2.68c-4.84,0.28-6.38-3.31-6.71-8.98c-0.23-4,0.42-10.23,1.6-15.82l0.83-0.05
			c-0.69,5.4-0.92,10.26-0.67,14.6c0.3,5.17,1.51,8.78,5.18,8.57c1.83-0.11,3.64-0.71,5.27-1.47L181.85,529.83z"/>
		<path d="M191.25,515.73c1.17,20.35,12.6,32.74,32.44,31.6c12.34-0.71,21.71-6.6,26.69-16.1l0.51,0.14
			c-4.91,10.66-14.91,17.09-27.76,17.83c-20.52,1.18-32.49-12.02-33.69-32.87c-1.37-23.85,15.34-35.86,29.18-36.66
			c12.34-0.71,16.19,5.09,16.57,11.6c0.28,4.84-0.72,7.91-3.28,12.74l-0.7-0.46c1.74-4.62,2.41-7.5,2.15-12.01
			c-0.35-6-3.46-10.68-14.8-10.03C205.73,482.27,189.95,493.05,191.25,515.73z M220.6,505.18c4.21,3.27,8.82,5.01,13.99,4.72
			c10.67-0.61,18.52-9.6,17.8-22.11c-0.65-11.34-9.48-19.37-28.16-18.29c-12.01,0.69-21.4,6.09-27.62,14.48l-0.53-0.47
			c5.68-8.86,15.55-14.78,28.22-15.51c20.02-1.15,29.23,7.69,29.91,19.53c0.78,13.51-7.39,22.85-19.56,23.55
			c-5.84,0.34-10.61-1.23-14.7-5.35L220.6,505.18z M253.86,518.99c-4.67,6.13-12.98,9.95-21.32,10.43
			c-11.17,0.64-19.91-5.71-20.74-20.23c-0.53-9.17,0.64-15.1,3.08-19.25l0.7,0.46c-1.27,4.09-2.45,9.68-1.96,18.35
			c0.81,14.01,8.82,19.41,18.99,18.82c8.67-0.5,16.34-3.95,20.72-9.23L253.86,518.99z"/>
		<path d="M343.4,475.51c-7.21-6.11-16.9-11.58-31.41-10.74c-10.17,0.59-18.04,6.39-18.74,23.34l-0.83,0.05
			c-0.2-18.06,8.29-24.58,19.47-25.22c14.51-0.84,25.06,5.08,31.81,11.89L343.4,475.51z M352.46,461.44
			c3.04,20.74-12.52,32.52-28.02,42.28c-15.02,9.4-30.26,20.82-27.49,39.91l-0.81,0.55c-4.15-19.84,11.7-32.3,27.21-41.9
			c14.71-9.05,29.96-20.3,28.28-40.79L352.46,461.44z M301.04,486.82c8.08-2.14,19.81-1.81,25.64,0.7l-0.3,0.69
			c-5.58-1.02-17.31-1.35-25.13-0.56L301.04,486.82z M306.91,530.66c8.45,7.21,20.03,10.73,31.71,10.06
			c15.01-0.86,20.26-5.68,20.18-24.42l0.83-0.05c1.15,20.02-5.4,25.41-20.91,26.31c-12.34,0.71-24.27-2.95-32.77-11.17
			L306.91,530.66z M351.05,515.4c-8.55,5.51-19.96,7.84-28.21,6.98l0.12-0.84c7.34-0.42,18.58-2.74,27.56-6.77L351.05,515.4z"/>
		<path d="M368.07,505.72c1.32,22.85,17.61,32.62,35.12,31.61c5.5-0.32,10.96-1.47,15.86-3.59l0.41,1.31
			c-5.07,2.13-10.85,3.47-16.85,3.82c-18.51,1.07-35.15-8.85-36.53-32.87c-1.47-25.52,16.14-33.56,30.15-34.37
			c14.18-0.82,22.73,8.23,23.65,24.24c0.57,9.84-0.19,14.07-2.01,17.35l-0.85-0.29c0.98-3.4,1.42-7.28,0.91-16.12
			c-0.91-15.84-9.27-24.4-21.61-23.69C382.8,473.91,366.66,481.2,368.07,505.72z M415.05,525.27c-15.68,0.9-25.17-6.92-26.22-25.27
			c-0.58-10.01,0.03-14.06,1.68-17.33l0.85,0.29c-0.83,3.06-1.28,6.77-0.76,15.94c1.04,18.01,9.85,25.71,24.36,24.87
			c12.18-0.7,28.14-8.31,26.75-32.5c-1.25-21.68-15.48-33.41-35.83-32.24c-8.17,0.47-15.41,2.73-21.55,6.43l-0.56-0.97
			c6.29-4.04,13.85-6.49,22.69-7c21.85-1.26,35.94,10.98,37.24,33.5C445.16,516.34,428.39,524.51,415.05,525.27z"/>
		<path d="M457.51,472.12c4-0.23,6.67,2.46,7.04,8.97c0.28,4.84-0.06,10.55-1.39,16.48l-0.83,0.05c0.23-4.7,0.42-10.23,0.1-15.74
			c-0.32-5.5-2.14-8.08-5.31-7.89c-2.67,0.15-5.13,0.97-7.08,1.91l-0.38-0.81C451.9,473.62,454.5,472.3,457.51,472.12z
			 M471.29,502.29c-10.91,19.71-7.24,31.21,3.77,30.57c10.84-0.62,16.08-5.61,21.54-12.45l0.71,0.63c-5.09,7.49-10.63,13-22.81,13.7
			c-13.34,0.77-16.3-12.78-4.92-33.19l9.55-17.28c10.76-19.53,7-29.52-3.51-28.92c-9.34,0.54-16.51,3.96-23.08,9.03l-0.38-0.81
			c6.37-5.72,14.01-9.51,24.52-10.11c11.17-0.64,16.15,10.28,4.32,31.38L471.29,502.29z M499.1,511.56
			c-1.59,1.43-3.37,2.54-5.87,2.68c-4.84,0.28-6.38-3.31-6.71-8.98c-0.23-4,0.42-10.23,1.6-15.82l0.83-0.05
			c-0.69,5.4-0.92,10.26-0.67,14.6c0.3,5.17,1.51,8.78,5.18,8.57c1.83-0.11,3.64-0.71,5.27-1.47L499.1,511.56z M506.87,469.11
			c4.67-0.27,8.84,2.34,9.24,9.34c0.32,5.5,0.12,10.87-0.5,17.43l-1,0.06c0.17-5.7,0.16-11.72-0.16-17.23
			c-0.34-5.84-3.97-7.97-8.48-7.71c-3.84,0.22-7.75,1.95-10.48,3.95l-0.37-0.65C497.66,471.99,502.03,469.39,506.87,469.11z
			 M523.33,499.29c-10.92,19.71-7.24,31.21,3.77,30.57c10.84-0.62,16.08-5.61,21.54-12.45l0.71,0.63c-5.09,7.49-10.63,13-22.81,13.7
			c-13.34,0.77-16.3-12.78-4.92-33.19l9.55-17.28c10.76-19.53,6.17-29.47-9.68-28.56c-11.51,0.66-18.98,4.61-24.63,11.12l-0.52-0.31
			c5.26-7.5,13.2-11.97,26.21-12.72c16.51-0.95,22.33,9.93,10.49,31.03L523.33,499.29z M549.97,508.64
			c-1.59,1.43-3.37,2.54-5.87,2.68c-4.84,0.28-6.38-3.31-6.71-8.99c-0.23-4,0.42-10.23,1.6-15.82l0.83-0.05
			c-0.69,5.4-0.92,10.26-0.67,14.6c0.3,5.17,1.51,8.78,5.18,8.57c1.83-0.11,3.64-0.71,5.27-1.47L549.97,508.64z"/>
		<path d="M559.21,494.55c1.17,20.35,12.6,32.74,32.44,31.6c12.34-0.71,21.71-6.6,26.68-16.1l0.51,0.14
			c-4.91,10.66-14.91,17.09-27.76,17.83c-20.52,1.18-32.49-12.02-33.69-32.87c-1.37-23.85,15.34-35.86,29.18-36.66
			c12.34-0.71,16.19,5.09,16.57,11.6c0.28,4.84-0.72,7.91-3.28,12.74l-0.7-0.46c1.74-4.62,2.41-7.5,2.15-12.01
			c-0.35-6-3.46-10.68-14.8-10.03C573.68,461.08,557.9,471.87,559.21,494.55z M588.56,483.99c4.21,3.27,8.82,5.01,13.99,4.72
			c10.67-0.61,18.53-9.6,17.8-22.11c-0.65-11.34-9.48-19.37-28.16-18.29c-12.01,0.69-21.41,6.09-27.62,14.48l-0.53-0.47
			c5.68-8.86,15.55-14.78,28.22-15.51c20.02-1.15,29.23,7.69,29.91,19.53c0.78,13.51-7.39,22.85-19.56,23.55
			c-5.84,0.34-10.61-1.23-14.7-5.35L588.56,483.99z M621.82,497.81c-4.67,6.13-12.98,9.95-21.32,10.43
			c-11.17,0.64-19.91-5.71-20.74-20.23c-0.53-9.17,0.64-15.1,3.08-19.25l0.7,0.46c-1.27,4.09-2.45,9.68-1.96,18.35
			c0.81,14.01,8.82,19.41,18.99,18.82c8.67-0.5,16.34-3.95,20.72-9.23L621.82,497.81z"/>
		<path d="M662.13,480.09c-15.3,1.72-19.65,1.63-23.33-1.17c-4.56-3.59-5.17-52.08-4.53-58.31l0.83-0.05
			c-0.34,5.71,1.05,53.16,5.27,56.59c3.33,2.65,7.05,3.28,21.55,2.27L662.13,480.09z M661.46,465.57
			c0.37-5.21-2.23-53.26-4.94-56.78c-2.17-2.89-6.75-3.96-21.1-3.14l-0.22-0.99c15-1.03,19.72-0.47,22.56,2.38
			c3.56,3.64,5.71,52.72,4.37,58.49L661.46,465.57z M661.39,499.21c-5.21-0.37-14.89,0.02-18.42,2.73
			c-3.53,2.71-4.08,10.44-3.02,17.24l-1,0.06c-1.12-7.8-1.04-15.17,2.28-18.54c3.64-3.56,14.36-3.5,20.12-2.16L661.39,499.21z
			 M663.76,502.59c1.8,7.93,2.18,14.6-1.09,18.81c-3.59,4.56-13.72,2.97-19.95,2.32l-0.05-0.83c5.71,0.34,14.79,1.16,18.23-3.06
			c3.29-3.87,3.44-10.07,2.35-17.37L663.76,502.59z"/>
	</g>
	<g>
		<path d="M35.56,497.25c0.37,6.5,0.07,15.73-0.81,23.64l-1.01-0.11c0.4-7.55,0.39-16.42,0.01-23.09
			c-0.51-8.84-2.71-12.23-5.2-14.76l0.46-0.7C32.12,484.06,35.09,489.08,35.56,497.25z M50.51,506.94l-8.66,18.24
			c-10.45,22.02,0.41,36.12,17.92,35.11c12.18-0.7,19.7-3.65,24.75-8.96l0.54,0.64c-5.17,6.15-13.33,9.8-25.33,10.5
			c-19.68,1.13-30.93-14.12-19.59-38.03l8.66-18.24c12.08-25.63,8.73-34.47-2.29-34.01c-7.01,0.24-10.76,1.96-14.49,4.18l-0.37-0.65
			c3.54-2.38,8.6-4.68,15.1-5.05C59.92,469.91,63.34,479.92,50.51,506.94z M71.51,543.38c-7.51,0.43-12.29-4.15-12.83-13.49
			c-0.42-7.34-0.08-13.05,1.29-21.16l0.84,0.12c-0.72,7.91-0.56,13.59-0.16,20.43c0.52,9.01,4.91,12.6,10.91,12.26
			c7.84-0.45,13.28-1.94,17.51-4.02l0.37,0.65C85.09,540.92,79.35,542.93,71.51,543.38z M76.96,507.25
			c-6.17,0.36-12.03-2.65-15.45-6.81l0.47-0.53c3.52,2.98,9.21,5.83,14.71,5.51c7.51-0.43,7.05-11.28,6.08-19.43l0.83-0.05
			C86.17,498.52,84.47,506.82,76.96,507.25z M63.26,487.29l-0.05-0.83c5.15-0.63,10.59-2.12,15.28-4.9l0.37,0.65
			C75.24,485.93,68.5,488.16,63.26,487.29z"/>
		<path d="M85.09,459.43c2.25-1.64,4.87-2.62,7.37-2.77c4.5-0.26,7.02,2.78,7.51,11.28c0.49,8.51,0.04,18.07-0.75,33.51l-0.67,0.04
			c-0.19-14.88,0.08-24.77-0.39-32.94c-0.49-8.51-3.11-10.36-5.61-10.22c-3.34,0.19-5.64,0.83-7.43,1.77L85.09,459.43z
			 M105.92,510.27L119.56,471c6.46-18.61,5.21-31.59-9.97-30.72c-8.17,0.47-15.69,3.58-20.92,8.73l-0.54-0.64
			c5.69-5.85,13.67-9.66,21.34-10.1c17.85-1.03,18.51,13.33,11.77,32.96l-13.47,39.26c-11.61,33.8-7.47,47.62,7.38,46.77
			c9.84-0.57,16.22-5.95,20.58-11.73l0.19,0.32c-4.25,7.61-11.64,12.89-20.98,13.42C98.09,560.26,94.29,543.57,105.92,510.27z
			 M138.07,533.86c-2.25,1.64-4.87,2.62-7.37,2.77c-4.5,0.26-7.02-2.78-7.51-11.28s-0.04-18.07,0.75-33.51l0.67-0.04
			c0.19,14.88-0.08,24.77,0.39,32.94c0.49,8.51,3.11,10.36,5.61,10.22c3.34-0.19,5.64-0.83,7.43-1.77L138.07,533.86z M142.8,493.92
			c4.67-0.27,8.84,2.34,9.24,9.34c0.32,5.5,0.12,10.87-0.5,17.43l-1,0.06c0.17-5.7,0.16-11.72-0.16-17.23
			c-0.34-5.84-3.97-7.97-8.48-7.71c-3.84,0.22-7.75,1.95-10.48,3.95l-0.37-0.65C133.6,496.8,137.97,494.2,142.8,493.92z
			 M159.27,524.1c-10.91,19.71-7.24,31.21,3.77,30.57c10.84-0.62,16.08-5.61,21.54-12.45l0.71,0.63c-5.09,7.49-10.63,13-22.81,13.7
			c-13.34,0.77-16.3-12.78-4.92-33.19l9.55-17.28c10.76-19.53,6.17-29.47-9.68-28.56c-11.51,0.66-18.98,4.61-24.63,11.12l-0.52-0.3
			c5.26-7.5,13.2-11.97,26.21-12.72c16.51-0.95,22.33,9.93,10.49,31.02L159.27,524.1z M185.91,533.45
			c-1.59,1.43-3.37,2.54-5.87,2.68c-4.84,0.28-6.38-3.31-6.71-8.99c-0.23-4,0.42-10.23,1.6-15.82l0.83-0.05
			c-0.69,5.4-0.92,10.26-0.67,14.6c0.3,5.17,1.51,8.78,5.18,8.57c1.83-0.11,3.64-0.71,5.27-1.47L185.91,533.45z"/>
		<path d="M195.48,519.34c1.17,20.35,12.6,32.74,32.44,31.6c12.34-0.71,21.71-6.6,26.69-16.1l0.51,0.14
			c-4.91,10.66-14.91,17.09-27.76,17.83c-20.52,1.18-32.49-12.02-33.69-32.87c-1.37-23.85,15.34-35.86,29.18-36.66
			c12.34-0.71,16.19,5.09,16.57,11.6c0.28,4.84-0.72,7.91-3.28,12.74l-0.7-0.46c1.74-4.62,2.41-7.5,2.15-12.01
			c-0.35-6-3.46-10.68-14.8-10.02C209.95,485.87,194.17,496.66,195.48,519.34z M224.82,508.78c4.2,3.27,8.82,5.01,13.99,4.72
			c10.67-0.61,18.52-9.6,17.8-22.11c-0.65-11.34-9.48-19.37-28.16-18.29c-12.01,0.69-21.41,6.09-27.62,14.48l-0.53-0.47
			c5.68-8.86,15.55-14.78,28.23-15.51c20.02-1.15,29.23,7.69,29.91,19.53c0.78,13.51-7.39,22.85-19.56,23.55
			c-5.84,0.34-10.61-1.23-14.7-5.35L224.82,508.78z M258.08,522.6c-4.67,6.13-12.98,9.95-21.32,10.43
			c-11.17,0.64-19.91-5.71-20.74-20.23c-0.53-9.17,0.64-15.1,3.08-19.25l0.7,0.46c-1.27,4.09-2.45,9.68-1.96,18.35
			c0.81,14.01,8.81,19.41,18.99,18.82c8.67-0.5,16.34-3.95,20.72-9.23L258.08,522.6z"/>
		<path d="M347.62,479.12c-7.21-6.11-16.9-11.58-31.41-10.74c-10.17,0.59-18.04,6.39-18.74,23.34l-0.83,0.05
			c-0.2-18.06,8.29-24.57,19.47-25.22c14.51-0.84,25.06,5.08,31.81,11.89L347.62,479.12z M356.69,465.04
			c3.04,20.74-12.52,32.52-28.02,42.28c-15.02,9.4-30.26,20.82-27.49,39.91l-0.81,0.55c-4.15-19.84,11.7-32.3,27.21-41.9
			c14.71-9.05,29.96-20.3,28.28-40.79L356.69,465.04z M305.27,490.43c8.08-2.14,19.81-1.81,25.64,0.7l-0.29,0.69
			c-5.58-1.02-17.31-1.35-25.13-0.56L305.27,490.43z M311.14,534.27c8.45,7.21,20.03,10.73,31.71,10.06
			c15.01-0.86,20.26-5.68,20.18-24.42l0.83-0.05c1.15,20.02-5.4,25.41-20.91,26.31c-12.34,0.71-24.27-2.95-32.77-11.17
			L311.14,534.27z M355.28,519.01c-8.55,5.51-19.97,7.84-28.21,6.98l0.12-0.84c7.34-0.42,18.58-2.74,27.56-6.77L355.28,519.01z"/>
		<path d="M372.29,509.33c1.32,22.85,17.61,32.62,35.12,31.61c5.5-0.32,10.96-1.47,15.86-3.59l0.41,1.31
			c-5.06,2.13-10.84,3.47-16.85,3.82c-18.51,1.07-35.15-8.85-36.53-32.87c-1.47-25.52,16.14-33.56,30.15-34.37
			c14.18-0.82,22.73,8.23,23.65,24.24c0.57,9.84-0.19,14.07-2.01,17.35l-0.85-0.29c0.98-3.4,1.42-7.28,0.91-16.12
			c-0.91-15.85-9.27-24.4-21.61-23.69C387.03,477.52,370.88,484.81,372.29,509.33z M419.27,528.88
			c-15.68,0.9-25.17-6.92-26.22-25.27c-0.58-10.01,0.03-14.06,1.68-17.33l0.85,0.29c-0.83,3.06-1.28,6.77-0.76,15.94
			c1.04,18.01,9.85,25.71,24.36,24.87c12.18-0.7,28.14-8.31,26.75-32.5c-1.25-21.68-15.48-33.42-35.83-32.24
			c-8.17,0.47-15.41,2.73-21.55,6.43l-0.56-0.97c6.29-4.04,13.85-6.49,22.69-7c21.85-1.26,35.94,10.98,37.24,33.5
			C449.38,519.95,432.61,528.11,419.27,528.88z"/>
		<path d="M461.73,475.73c4-0.23,6.67,2.46,7.04,8.97c0.28,4.84-0.06,10.55-1.39,16.48l-0.83,0.05c0.23-4.7,0.42-10.23,0.1-15.74
			c-0.32-5.5-2.14-8.08-5.31-7.89c-2.67,0.15-5.13,0.97-7.08,1.91l-0.38-0.81C456.13,477.22,458.73,475.9,461.73,475.73z
			 M475.52,505.89c-10.91,19.71-7.24,31.21,3.77,30.57c10.84-0.62,16.08-5.61,21.54-12.45l0.7,0.63c-5.09,7.49-10.63,13-22.81,13.7
			c-13.34,0.77-16.3-12.78-4.92-33.19l9.55-17.28c10.76-19.53,7-29.52-3.51-28.92c-9.34,0.54-16.51,3.96-23.08,9.03l-0.38-0.81
			c6.37-5.72,14.01-9.51,24.52-10.11c11.17-0.64,16.15,10.28,4.32,31.38L475.52,505.89z M503.33,515.17
			c-1.59,1.43-3.37,2.54-5.87,2.68c-4.84,0.28-6.38-3.31-6.71-8.99c-0.23-4,0.42-10.23,1.6-15.82l0.83-0.05
			c-0.69,5.4-0.92,10.26-0.67,14.6c0.3,5.17,1.51,8.78,5.18,8.57c1.83-0.11,3.64-0.71,5.27-1.47L503.33,515.17z M511.09,472.72
			c4.67-0.27,8.84,2.34,9.24,9.34c0.32,5.5,0.12,10.87-0.5,17.43l-1,0.06c0.17-5.7,0.16-11.72-0.16-17.23
			c-0.34-5.84-3.97-7.97-8.48-7.71c-3.84,0.22-7.75,1.95-10.48,3.95l-0.37-0.65C501.89,475.59,506.25,473,511.09,472.72z
			 M527.56,502.9c-10.91,19.71-7.24,31.21,3.77,30.57c10.84-0.62,16.08-5.61,21.54-12.45l0.71,0.63c-5.09,7.49-10.63,13-22.81,13.7
			c-13.34,0.77-16.3-12.78-4.92-33.19l9.55-17.28c10.76-19.53,6.17-29.47-9.68-28.56c-11.51,0.66-18.98,4.61-24.63,11.12l-0.52-0.3
			c5.26-7.5,13.2-11.97,26.21-12.72c16.51-0.95,22.33,9.93,10.49,31.03L527.56,502.9z M554.2,512.24c-1.59,1.43-3.37,2.54-5.87,2.68
			c-4.84,0.28-6.38-3.31-6.71-8.99c-0.23-4,0.42-10.23,1.6-15.82l0.83-0.05c-0.69,5.4-0.92,10.26-0.67,14.6
			c0.3,5.17,1.51,8.78,5.18,8.57c1.83-0.11,3.64-0.71,5.27-1.47L554.2,512.24z"/>
		<path d="M563.43,498.16c1.17,20.35,12.6,32.74,32.44,31.6c12.34-0.71,21.71-6.6,26.68-16.1l0.51,0.14
			c-4.91,10.66-14.91,17.09-27.76,17.83c-20.52,1.18-32.49-12.02-33.69-32.87c-1.37-23.85,15.34-35.86,29.18-36.66
			c12.34-0.71,16.19,5.09,16.57,11.6c0.28,4.84-0.72,7.91-3.28,12.74l-0.7-0.46c1.74-4.62,2.41-7.5,2.15-12.01
			c-0.35-6-3.46-10.68-14.8-10.03C577.91,464.69,562.13,475.47,563.43,498.16z M592.78,487.6c4.21,3.27,8.82,5.01,13.99,4.72
			c10.67-0.61,18.52-9.6,17.8-22.11c-0.65-11.34-9.48-19.37-28.16-18.29c-12.01,0.69-21.41,6.09-27.62,14.48l-0.53-0.47
			c5.68-8.86,15.55-14.78,28.23-15.51c20.01-1.15,29.23,7.69,29.91,19.53c0.78,13.51-7.39,22.85-19.56,23.55
			c-5.84,0.34-10.61-1.23-14.7-5.35L592.78,487.6z M626.04,501.41c-4.67,6.13-12.98,9.95-21.32,10.43
			c-11.18,0.64-19.91-5.71-20.74-20.23c-0.53-9.17,0.64-15.1,3.07-19.25l0.7,0.46c-1.27,4.09-2.45,9.68-1.95,18.35
			c0.81,14.01,8.82,19.41,18.99,18.82c8.67-0.5,16.34-3.95,20.72-9.23L626.04,501.41z"/>
		<path d="M666.36,483.69c-15.3,1.72-19.65,1.63-23.33-1.17c-4.56-3.59-5.17-52.08-4.53-58.31l0.83-0.05
			c-0.34,5.71,1.05,53.16,5.27,56.59c3.33,2.65,7.05,3.28,21.55,2.27L666.36,483.69z M665.69,469.17
			c0.37-5.21-2.23-53.26-4.94-56.78c-2.17-2.89-6.75-3.96-21.1-3.14l-0.22-0.99c15-1.03,19.72-0.47,22.56,2.38
			c3.56,3.64,5.71,52.72,4.37,58.49L665.69,469.17z M665.62,502.81c-5.21-0.37-14.89,0.02-18.42,2.73
			c-3.53,2.71-4.08,10.44-3.02,17.24l-1,0.06c-1.12-7.8-1.04-15.17,2.28-18.54c3.64-3.56,14.36-3.5,20.12-2.16L665.62,502.81z
			 M667.99,506.19c1.8,7.93,2.18,14.6-1.09,18.81c-3.59,4.56-13.72,2.97-19.95,2.32l-0.05-0.83c5.71,0.34,14.79,1.16,18.23-3.06
			c3.29-3.87,3.44-10.07,2.35-17.37L667.99,506.19z"/>
	</g>
	<g>
		<path d="M39.61,500.87c0.37,6.5,0.07,15.73-0.81,23.64l-1.01-0.11c0.4-7.55,0.39-16.42,0.01-23.09
			c-0.51-8.84-2.71-12.23-5.2-14.76l0.46-0.7C36.18,487.68,39.14,492.7,39.61,500.87z M54.56,510.55l-8.66,18.24
			c-10.45,22.02,0.41,36.12,17.92,35.11c12.18-0.7,19.7-3.65,24.75-8.96l0.54,0.64c-5.17,6.15-13.33,9.8-25.33,10.5
			c-19.68,1.13-30.94-14.12-19.59-38.03l8.66-18.24c12.08-25.63,8.73-34.47-2.29-34.01c-7.02,0.24-10.76,1.96-14.49,4.18l-0.37-0.65
			c3.54-2.38,8.6-4.68,15.1-5.05C63.98,473.53,67.4,483.54,54.56,510.55z M75.57,547c-7.51,0.43-12.29-4.15-12.83-13.49
			c-0.42-7.34-0.08-13.05,1.29-21.16l0.84,0.12c-0.72,7.91-0.56,13.59-0.16,20.43c0.52,9.01,4.91,12.6,10.91,12.26
			c7.84-0.45,13.28-1.94,17.51-4.02l0.37,0.65C89.15,544.54,83.41,546.54,75.57,547z M81.02,510.87
			c-6.17,0.36-12.03-2.65-15.45-6.81l0.47-0.53c3.52,2.98,9.2,5.83,14.71,5.51c7.51-0.43,7.05-11.28,6.08-19.43l0.83-0.05
			C90.23,502.14,88.53,510.44,81.02,510.87z M67.32,490.91l-0.05-0.83c5.15-0.63,10.59-2.12,15.28-4.9l0.37,0.65
			C79.29,489.55,72.56,491.78,67.32,490.91z"/>
		<path d="M89.15,463.04c2.25-1.64,4.87-2.62,7.37-2.77c4.5-0.26,7.02,2.78,7.51,11.28c0.49,8.51,0.04,18.07-0.75,33.51l-0.67,0.04
			c-0.19-14.88,0.08-24.77-0.39-32.94c-0.49-8.51-3.11-10.36-5.61-10.22c-3.34,0.19-5.64,0.83-7.43,1.77L89.15,463.04z
			 M109.98,513.89l13.64-39.28c6.46-18.61,5.21-31.59-9.97-30.72c-8.17,0.47-15.69,3.58-20.92,8.74l-0.54-0.64
			c5.69-5.85,13.67-9.66,21.34-10.1c17.85-1.03,18.51,13.33,11.77,32.96l-13.47,39.27c-11.61,33.8-7.47,47.62,7.38,46.77
			c9.84-0.57,16.22-5.95,20.58-11.73l0.19,0.32c-4.25,7.61-11.64,12.89-20.98,13.42C102.15,563.87,98.34,547.19,109.98,513.89z
			 M142.13,537.47c-2.25,1.64-4.87,2.62-7.37,2.77c-4.5,0.26-7.02-2.77-7.51-11.28c-0.49-8.51-0.04-18.07,0.75-33.51l0.67-0.04
			c0.19,14.88-0.08,24.77,0.39,32.94c0.49,8.51,3.11,10.36,5.61,10.22c3.34-0.19,5.64-0.83,7.43-1.77L142.13,537.47z M146.86,497.54
			c4.67-0.27,8.84,2.34,9.24,9.34c0.32,5.5,0.12,10.87-0.5,17.43l-1,0.06c0.17-5.7,0.16-11.72-0.16-17.23
			c-0.34-5.84-3.97-7.97-8.48-7.71c-3.84,0.22-7.75,1.95-10.48,3.95l-0.37-0.65C137.65,500.41,142.02,497.82,146.86,497.54z
			 M163.32,527.72c-10.91,19.71-7.24,31.21,3.77,30.57c10.84-0.62,16.08-5.61,21.54-12.45l0.71,0.63c-5.09,7.49-10.63,13-22.81,13.7
			c-13.34,0.77-16.3-12.78-4.92-33.19l9.55-17.28c10.76-19.53,6.17-29.47-9.68-28.56c-11.51,0.66-18.98,4.61-24.63,11.12l-0.52-0.3
			c5.26-7.5,13.2-11.97,26.21-12.72c16.51-0.95,22.33,9.93,10.49,31.03L163.32,527.72z M189.97,537.06
			c-1.59,1.43-3.37,2.54-5.87,2.68c-4.84,0.28-6.38-3.31-6.71-8.99c-0.23-4,0.42-10.23,1.6-15.82l0.83-0.05
			c-0.69,5.4-0.92,10.26-0.67,14.6c0.3,5.17,1.51,8.78,5.18,8.57c1.83-0.11,3.64-0.71,5.27-1.47L189.97,537.06z"/>
		<path d="M199.53,522.96c1.17,20.35,12.6,32.74,32.44,31.6c12.34-0.71,21.71-6.6,26.69-16.1l0.51,0.14
			c-4.91,10.66-14.91,17.09-27.76,17.83c-20.52,1.18-32.49-12.02-33.69-32.87c-1.37-23.85,15.34-35.86,29.18-36.66
			c12.34-0.71,16.19,5.09,16.57,11.6c0.28,4.84-0.72,7.91-3.28,12.74l-0.7-0.46c1.74-4.62,2.41-7.5,2.15-12.01
			c-0.35-6-3.46-10.68-14.8-10.03C214.01,489.49,198.23,500.27,199.53,522.96z M228.88,512.4c4.2,3.27,8.82,5.01,13.99,4.72
			c10.67-0.61,18.52-9.6,17.8-22.11c-0.65-11.34-9.48-19.37-28.16-18.29c-12.01,0.69-21.41,6.09-27.62,14.48l-0.53-0.47
			c5.68-8.86,15.55-14.78,28.23-15.51c20.02-1.15,29.23,7.69,29.91,19.53c0.78,13.51-7.39,22.85-19.56,23.55
			c-5.84,0.34-10.61-1.23-14.7-5.35L228.88,512.4z M262.14,526.21c-4.67,6.13-12.98,9.95-21.32,10.43
			c-11.17,0.64-19.91-5.71-20.74-20.23c-0.53-9.17,0.64-15.1,3.08-19.25l0.7,0.46c-1.27,4.09-2.45,9.68-1.96,18.35
			c0.81,14.01,8.81,19.41,18.99,18.82c8.67-0.5,16.34-3.95,20.72-9.23L262.14,526.21z"/>
		<path d="M351.68,482.74c-7.21-6.11-16.9-11.58-31.41-10.74c-10.17,0.59-18.04,6.39-18.74,23.34l-0.83,0.05
			c-0.2-18.06,8.29-24.58,19.47-25.22c14.51-0.84,25.06,5.08,31.81,11.89L351.68,482.74z M360.74,468.66
			c3.04,20.74-12.52,32.52-28.02,42.28c-15.02,9.4-30.26,20.82-27.49,39.91l-0.81,0.55c-4.15-19.84,11.7-32.3,27.21-41.9
			c14.71-9.05,29.96-20.3,28.28-40.79L360.74,468.66z M309.32,494.04c8.08-2.14,19.81-1.81,25.64,0.7l-0.29,0.69
			c-5.58-1.02-17.31-1.35-25.13-0.56L309.32,494.04z M315.2,537.88c8.45,7.21,20.03,10.73,31.71,10.06
			c15.01-0.86,20.26-5.68,20.18-24.42l0.83-0.05c1.15,20.02-5.4,25.41-20.91,26.31c-12.34,0.71-24.27-2.95-32.77-11.17L315.2,537.88
			z M359.33,522.62c-8.55,5.51-19.96,7.84-28.21,6.98l0.12-0.84c7.34-0.42,18.58-2.74,27.56-6.77L359.33,522.62z"/>
		<path d="M376.35,512.94c1.32,22.85,17.61,32.62,35.12,31.61c5.5-0.32,10.96-1.47,15.86-3.59l0.41,1.31
			c-5.07,2.13-10.84,3.47-16.85,3.82c-18.51,1.07-35.15-8.85-36.53-32.87c-1.47-25.52,16.14-33.56,30.15-34.37
			c14.18-0.82,22.73,8.23,23.65,24.24c0.57,9.84-0.19,14.07-2.01,17.35l-0.85-0.29c0.98-3.4,1.42-7.28,0.91-16.12
			c-0.91-15.84-9.27-24.4-21.61-23.69C391.09,481.14,374.94,488.42,376.35,512.94z M423.33,532.5c-15.68,0.9-25.17-6.92-26.22-25.27
			c-0.58-10.01,0.03-14.06,1.68-17.33l0.85,0.29c-0.83,3.06-1.28,6.77-0.76,15.94c1.04,18.01,9.85,25.71,24.36,24.87
			c12.18-0.7,28.14-8.31,26.75-32.5c-1.25-21.68-15.48-33.42-35.83-32.24c-8.17,0.47-15.41,2.73-21.55,6.43l-0.56-0.97
			c6.29-4.04,13.85-6.49,22.69-7c21.85-1.26,35.94,10.98,37.24,33.5C453.44,523.57,436.67,531.73,423.33,532.5z"/>
		<path d="M465.79,479.34c4-0.23,6.67,2.46,7.04,8.97c0.28,4.84-0.06,10.55-1.39,16.48l-0.83,0.05c0.23-4.7,0.42-10.23,0.1-15.74
			c-0.32-5.5-2.14-8.08-5.31-7.89c-2.67,0.15-5.13,0.97-7.08,1.91l-0.38-0.81C460.18,480.84,462.79,479.52,465.79,479.34z
			 M479.57,509.51c-10.91,19.71-7.24,31.21,3.77,30.57c10.84-0.62,16.08-5.61,21.54-12.45l0.71,0.63c-5.09,7.49-10.63,13-22.81,13.7
			c-13.34,0.77-16.3-12.78-4.92-33.19l9.55-17.28c10.76-19.53,7-29.52-3.51-28.92c-9.34,0.54-16.51,3.96-23.08,9.03l-0.38-0.81
			c6.37-5.72,14.01-9.51,24.52-10.11c11.17-0.64,16.16,10.28,4.32,31.38L479.57,509.51z M507.39,518.79
			c-1.59,1.43-3.37,2.54-5.87,2.68c-4.84,0.28-6.38-3.31-6.71-8.98c-0.23-4,0.42-10.23,1.6-15.82l0.83-0.05
			c-0.69,5.4-0.92,10.26-0.67,14.6c0.3,5.17,1.51,8.78,5.18,8.57c1.83-0.11,3.64-0.71,5.27-1.47L507.39,518.79z M515.15,476.34
			c4.67-0.27,8.84,2.34,9.24,9.34c0.32,5.5,0.12,10.87-0.5,17.43l-1,0.06c0.17-5.7,0.16-11.72-0.16-17.23
			c-0.34-5.84-3.97-7.97-8.48-7.71c-3.84,0.22-7.75,1.95-10.48,3.95l-0.37-0.65C505.94,479.21,510.31,476.61,515.15,476.34z
			 M531.61,506.51c-10.91,19.71-7.24,31.21,3.77,30.57c10.84-0.62,16.08-5.61,21.54-12.45l0.71,0.63c-5.09,7.49-10.63,13-22.81,13.7
			c-13.34,0.77-16.3-12.78-4.92-33.19l9.55-17.28c10.76-19.53,6.17-29.47-9.68-28.56c-11.51,0.66-18.98,4.61-24.63,11.12l-0.52-0.3
			c5.26-7.5,13.2-11.97,26.21-12.72c16.51-0.95,22.33,9.93,10.49,31.03L531.61,506.51z M558.26,515.86
			c-1.59,1.43-3.37,2.54-5.87,2.68c-4.84,0.28-6.38-3.31-6.71-8.98c-0.23-4,0.42-10.23,1.6-15.82l0.83-0.05
			c-0.69,5.4-0.92,10.26-0.67,14.6c0.3,5.17,1.51,8.78,5.18,8.57c1.83-0.11,3.64-0.71,5.27-1.47L558.26,515.86z"/>
		<path d="M567.49,501.77c1.17,20.35,12.6,32.74,32.44,31.6c12.34-0.71,21.71-6.6,26.69-16.1l0.51,0.14
			c-4.91,10.66-14.91,17.09-27.76,17.83c-20.51,1.18-32.49-12.02-33.69-32.87c-1.37-23.85,15.34-35.86,29.18-36.66
			c12.34-0.71,16.19,5.09,16.57,11.6c0.28,4.84-0.72,7.91-3.28,12.74l-0.7-0.46c1.74-4.62,2.41-7.5,2.15-12.01
			c-0.35-6-3.46-10.68-14.8-10.03C581.96,468.31,566.18,479.09,567.49,501.77z M596.84,491.21c4.21,3.27,8.82,5.01,13.99,4.72
			c10.67-0.61,18.52-9.6,17.8-22.11c-0.65-11.34-9.48-19.37-28.16-18.29c-12.01,0.69-21.4,6.09-27.61,14.48l-0.53-0.47
			c5.68-8.86,15.55-14.78,28.22-15.51c20.02-1.15,29.23,7.69,29.91,19.53c0.78,13.51-7.39,22.85-19.56,23.55
			c-5.84,0.34-10.61-1.23-14.7-5.35L596.84,491.21z M630.1,505.03c-4.67,6.13-12.98,9.95-21.32,10.43
			c-11.17,0.64-19.91-5.71-20.74-20.23c-0.53-9.17,0.64-15.1,3.08-19.25l0.7,0.46c-1.27,4.09-2.45,9.68-1.95,18.35
			c0.81,14.01,8.81,19.41,18.99,18.82c8.67-0.5,16.34-3.95,20.72-9.23L630.1,505.03z"/>
		<path d="M670.41,487.31c-15.3,1.72-19.65,1.63-23.33-1.17c-4.56-3.59-5.17-52.08-4.53-58.31l0.83-0.05
			c-0.34,5.71,1.05,53.15,5.27,56.59c3.33,2.65,7.05,3.28,21.55,2.27L670.41,487.31z M669.75,472.79
			c0.37-5.21-2.23-53.26-4.94-56.78c-2.17-2.89-6.75-3.96-21.1-3.14l-0.22-0.99c15-1.03,19.72-0.47,22.56,2.38
			c3.56,3.64,5.71,52.72,4.37,58.49L669.75,472.79z M669.67,506.43c-5.21-0.37-14.89,0.02-18.42,2.73
			c-3.53,2.71-4.08,10.44-3.02,17.24l-1,0.06c-1.12-7.8-1.04-15.17,2.28-18.54c3.64-3.56,14.36-3.5,20.12-2.16L669.67,506.43z
			 M672.04,509.81c1.79,7.93,2.18,14.6-1.09,18.81c-3.59,4.56-13.72,2.97-19.95,2.32l-0.05-0.83c5.71,0.34,14.79,1.16,18.23-3.06
			c3.29-3.87,3.44-10.07,2.35-17.37L672.04,509.81z"/>
	</g>
</g>
<g>
	<g>
		<path d="M169.76,380.55l-6.26,0.03l-0.01-2.16c-0.03-5.47,1.05-5.83,5.36-5.85l17.4-0.09l0.01,2.09c0.03,5.25-0.76,5.9-6.15,5.93
			l0.15,29.77l6.33-0.03l0.01,2.09c0.03,5.54-1.12,5.9-5.36,5.92l-17.4,0.09l-0.01-2.16c-0.03-5.18,0.76-5.83,6.08-5.86
			L169.76,380.55z"/>
		<path d="M188.09,391.31l-0.01-2.09c1.34-4.68,8.43-10.18,12.17-11.5l2.3-0.01l0.03,6.33l11.51-0.06l0.02,3.02
			c0.01,2.37-2.14,4.18-5.01,4.2l-6.54,0.03l0.06,12.3c0.03,5.18,1.69,7.04,4.28,7.03c2.66-0.01,5.32-0.6,6.68-1.47l0.01,1.8
			c0.02,4.6-3.63,7.93-10.31,7.96c-6.47,0.03-10.45-3.83-10.48-10.95l-0.09-16.61L188.09,391.31z"/>
	</g>
	<g>
		<path d="M260.03,410.14l5.11-0.03l0.01,2.59c0.02,4.31-1.7,5.11-4.22,5.13l-9.42,0.05l-1.32-4.74c-2.93,3.68-5.87,5.5-11.69,5.53
			c-7.05,0.04-12.26-6.34-12.31-15.4c-0.06-12.58,7.52-20.18,19.1-20.23c2.09-0.01,3.6,0.2,4.75,0.55l-0.05-9.78l-4.96,0.03
			l-0.01-2.59c-0.02-4.31,1.7-5.11,4.36-5.13l11.15-0.06l-0.69,5.18L260.03,410.14z M250.16,407.25l-0.08-15.46
			c-1.23-0.78-3.17-1.35-5.62-1.34c-5.03,0.03-8.54,3.42-8.5,10.54c0.03,6.4,3.21,9.19,6.59,9.17
			C245.79,410.15,247.73,408.91,250.16,407.25z"/>
		<path d="M268.42,391.33l-0.01-2.59c-0.02-4.31,1.27-5.11,4.86-5.13l10.64-0.05l-0.69,5.18l0.11,21.29l5.03-0.03l0.01,2.59
			c0.02,4.31-1.05,5.11-3.93,5.13l-15.89,0.08l-0.01-2.66c-0.02-3.24,1.27-5.04,4.86-5.06l-0.1-18.77L268.42,391.33z M277.42,378.99
			c-3.67,0.02-5.77-2.42-5.78-5.36c-0.02-3.02,2.06-5.4,5.73-5.42c3.74-0.02,5.91,2.34,5.92,5.36
			C283.31,376.51,281.16,378.97,277.42,378.99z"/>
		<path d="M324.83,409.81l5.11-0.03l0.01,2.59c0.02,4.31-1.7,5.11-4.22,5.13l-9.42,0.05l-1.32-4.74c-2.93,3.68-5.87,5.5-11.69,5.53
			c-7.05,0.04-12.26-6.34-12.31-15.4c-0.06-12.58,7.52-20.18,19.1-20.23c2.09-0.01,3.6,0.2,4.75,0.55l-0.05-9.78l-4.96,0.03
			l-0.01-2.59c-0.02-4.31,1.7-5.11,4.36-5.13l11.15-0.06l-0.69,5.18L324.83,409.81z M314.96,406.91l-0.08-15.46
			c-1.23-0.78-3.17-1.35-5.62-1.34c-5.03,0.03-8.54,3.42-8.5,10.54c0.03,6.4,3.21,9.19,6.59,9.17
			C310.59,409.81,312.53,408.58,314.96,406.91z"/>
		<path d="M333.29,391l-0.01-2.59c-0.02-4.31,1.27-5.11,4.86-5.13l9.49-0.05l0.46,4.82c1.72-2.09,6.59-5.57,12.84-5.6
			c6.9-0.04,9.88,5.06,9.91,11.38l0.08,15.75l5.03-0.03l0.01,2.59c0.02,4.31-1.05,5.11-3.93,5.13l-15.89,0.08l-0.01-2.66
			c-0.02-3.24,1.27-5.04,4.86-5.06l-0.07-13.23c-0.02-3.6-1.11-5.75-4.2-5.73c-3.67,0.02-7.04,1.33-8.61,3.28l0.08,15.75l5.03-0.03
			l0.01,2.59c0.02,4.31-1.05,5.11-3.93,5.13l-15.89,0.08l-0.01-2.66c-0.02-3.24,1.27-5.04,4.86-5.06l-0.1-18.77L333.29,391z"/>
	</g>
	<g>
		<path d="M379.92,380.32c-2.44,0.8-4.17,0.02-4.46-0.77l-0.22-0.57c2.08-1.09,3.01-1.81,3.14-5.19c-2.52-0.13-4.47-2.13-4.49-5.59
			c-0.02-3.02,2.2-5.12,5.37-5.13c3.17-0.02,5.55,2.13,5.57,6.08C384.85,375.34,381.93,379.67,379.92,380.32z"/>
	</g>
	<g>
		<path d="M384.93,390.3l-0.01-2.09c1.34-4.68,8.43-10.18,12.17-11.5l2.3-0.01l0.03,6.33l11.51-0.06l0.02,3.02
			c0.01,2.37-2.14,4.18-5.01,4.2l-6.54,0.03l0.06,12.3c0.03,5.18,1.69,7.04,4.28,7.03c2.66-0.01,5.32-0.6,6.68-1.47l0.01,1.8
			c0.02,4.6-3.63,7.93-10.32,7.96c-6.47,0.03-10.45-3.83-10.48-10.95l-0.08-16.61L384.93,390.3z"/>
		<path d="M441.57,370.3l0.2,38.91l5.11-0.03l0.01,2.59c0.02,4.31-1.05,5.11-3.93,5.13L427,416.98l-0.01-2.8
			c-0.02-3.09,1.34-4.9,4.87-4.92l-0.19-36.39l-4.89,0.03l-0.01-2.59c-0.02-4.31,1.34-5.11,4.86-5.13l10.64-0.05L441.57,370.3z"/>
		<path d="M479.49,402.25l-20.14,0.1c0.81,4.45,3.78,6.88,8.74,6.86c4.31-0.02,8.62-1.27,11.13-2.86l0.01,2.23
			c0.03,5.11-6.36,8.88-14.55,8.92c-8.27,0.04-15.06-5.24-15.11-16.39c-0.07-13.02,8.17-19.17,17.02-19.22
			C477.73,381.84,481.03,392.75,479.49,402.25z M459.26,396.82l11.43-0.06c0.2-2.45-1.26-7.62-5.29-7.6
			C462.17,389.18,459.88,391.64,459.26,396.82z"/>
		<path d="M498.6,397.05l4.24-0.02l-0.01-1.37c-0.02-4.67-1.12-7.04-4.78-7.02c-1.65,0.01-2.88,0.16-3.95,0.6l0.01,2.16
			c0.01,2.66-0.99,4.18-4.29,4.19l-4.6,0.02l-0.05-10c3.44-1.89,8.75-3.86,16.23-3.9c6.98-0.04,11.24,3.47,11.28,11.38l0.08,15.75
			l4.96-0.03l0.01,2.59c0.02,4.31-1.7,5.11-4.36,5.13l-9.21,0.05l-1.25-5.17c-1.35,2.45-4.5,5.92-10.33,5.95
			c-4.82,0.02-8.87-3.84-8.89-9.52C483.66,401.37,488.89,397.1,498.6,397.05z M502.89,406.81l-0.02-4.03l-4.46,0.02
			c-2.88,0.01-5.17,1.25-5.16,3.84c0.01,2.01,1.31,3.23,3.18,3.22C498.67,409.85,500.89,408.9,502.89,406.81z"/>
		<path d="M534.92,382.26l0.01,2.66c0.02,4.1-1.05,5.04-3.93,5.05l-0.86,0l5.84,17.59l0.86,0l6.16-17.65l-3.45,0.02l-0.02-3.31
			c-0.02-3.6,0.7-4.39,4.36-4.41l13.45-0.07l0.01,2.66c0.02,4.1-1.05,5.04-3.86,5.05l-0.79,0l-9.86,26.52
			c-3.09,0.23-9.71,0.27-12.87,0.07l-9.41-26.42l-4.17,0.02l-0.02-3.31c-0.02-3.6,0.7-4.39,4.22-4.41L534.92,382.26z"/>
		<path d="M588.02,401.69l-20.14,0.1c0.81,4.45,3.78,6.88,8.74,6.86c4.31-0.02,8.62-1.27,11.13-2.86l0.01,2.23
			c0.03,5.11-6.36,8.88-14.55,8.92c-8.27,0.04-15.06-5.24-15.11-16.39c-0.07-13.02,8.17-19.17,17.02-19.22
			C586.26,381.28,589.55,392.19,588.02,401.69z M567.78,396.26l11.43-0.06c0.2-2.45-1.26-7.62-5.29-7.6
			C570.69,388.62,568.4,391.08,567.78,396.26z"/>
	</g>
</g>
</svg>
