<?xml version="1.0" encoding="utf-8"?>
<!-- Generator: Adobe Illustrator 27.3.1, SVG Export Plug-In . SVG Version: 6.00 Build 0)  -->
<svg version="1.1" id="Layer_2" xmlns="http://www.w3.org/2000/svg" xmlns:xlink="http://www.w3.org/1999/xlink" x="0px" y="0px"
	 viewBox="0 0 1980 1200" style="enable-background:new 0 0 1980 1200;" xml:space="preserve">
<style type="text/css">
	.st0{fill:#9632FA;}
</style>
<rect x="0" class="st0" width="1980" height="1200"/>
<g>
	<g>
		<path d="M81.93,596.74c1.06,18.4,0.19,44.49-2.3,66.88l-2.86-0.31c1.14-21.37,1.11-46.46,0.03-65.33
			c-1.44-25.01-7.67-34.59-14.71-41.76l1.31-1.97C72.21,559.43,80.6,573.62,81.93,596.74z M124.22,624.13l-24.49,51.59
			c-29.55,62.3,1.15,102.19,50.69,99.34c34.44-1.98,55.74-10.31,70.03-25.33l1.52,1.81c-14.62,17.41-37.7,27.73-71.67,29.69
			c-55.68,3.21-87.51-39.94-55.43-107.59l24.49-51.59c34.17-72.51,24.68-97.52-6.49-96.2c-19.84,0.67-30.45,5.54-40.98,11.83
			l-1.05-1.83c10.03-6.73,24.33-13.24,42.73-14.3C150.86,519.4,160.53,547.72,124.22,624.13z M183.65,727.23
			c-21.23,1.22-34.76-11.73-36.28-38.15c-1.2-20.76-0.23-36.91,3.65-59.86l2.39,0.34c-2.03,22.37-1.57,38.44-0.46,57.78
			c1.47,25.48,13.89,35.65,30.87,34.68c22.18-1.28,37.56-5.48,49.53-11.37l1.05,1.83C222.07,720.28,205.83,725.95,183.65,727.23z
			 M199.07,625.03c-17.46,1.01-34.04-7.51-43.72-19.26l1.33-1.5c9.95,8.42,26.04,16.49,41.61,15.59
			c21.23-1.22,19.94-31.92,17.19-54.96l2.36-0.14C225.11,600.34,220.3,623.81,199.07,625.03z M160.31,568.56l-0.14-2.36
			c14.57-1.79,29.95-5.99,43.23-13.85l1.05,1.83C194.18,564.72,175.13,571.02,160.31,568.56z"/>
		<path d="M222.05,489.73c6.36-4.63,13.77-7.42,20.85-7.83c12.74-0.73,19.86,7.85,21.25,31.92c1.39,24.06,0.1,51.12-2.12,94.8
			l-1.89,0.11c-0.53-42.1,0.23-70.08-1.1-93.2c-1.39-24.06-8.79-29.32-15.87-28.91c-9.44,0.54-15.96,2.34-21.02,5L222.05,489.73z
			 M280.99,633.57l38.58-111.11c18.27-52.65,14.74-89.38-28.2-86.9c-23.12,1.33-44.39,10.13-59.17,24.71l-1.52-1.81
			c16.09-16.55,38.67-27.32,60.37-28.57c50.49-2.91,52.35,37.7,33.3,93.24l-38.11,111.08c-32.84,95.63-21.12,134.72,20.87,132.3
			c27.84-1.6,45.9-16.84,58.21-33.18l0.53,0.92c-12.02,21.52-32.93,36.45-59.36,37.98C258.83,774.98,248.06,727.78,280.99,633.57z
			 M371.93,700.29c-6.36,4.63-13.77,7.42-20.85,7.83c-12.74,0.73-19.86-7.85-21.25-31.92c-1.39-24.06-0.1-51.12,2.12-94.8l1.89-0.11
			c0.53,42.1-0.23,70.08,1.1,93.2c1.39,24.06,8.79,29.32,15.87,28.91c9.44-0.54,15.96-2.34,21.02-5L371.93,700.29z M385.31,587.32
			c13.21-0.76,25,6.61,26.14,26.43c0.9,15.57,0.35,30.75-1.42,49.32l-2.83,0.16c0.49-16.12,0.46-33.17-0.44-48.74
			c-0.95-16.51-11.24-22.55-23.98-21.82c-10.85,0.62-21.93,5.52-29.65,11.18l-1.05-1.83C359.27,595.45,371.63,588.11,385.31,587.32z
			 M431.89,672.7c-30.88,55.75-20.48,88.29,10.66,86.49c30.67-1.77,45.48-15.87,60.94-35.23l2,1.78
			c-14.4,21.19-30.08,36.76-64.52,38.75c-37.75,2.17-46.11-36.16-13.93-93.88l27.01-48.9c30.43-55.25,17.45-83.38-27.38-80.8
			c-32.56,1.87-53.69,13.03-69.67,31.47l-1.47-0.86c14.88-21.21,37.34-33.87,74.15-35.99c46.71-2.69,63.16,28.08,29.67,87.77
			L431.89,672.7z M507.26,699.13c-4.5,4.05-9.53,7.18-16.61,7.58c-13.68,0.79-18.06-9.38-18.98-25.42
			c-0.65-11.32,1.17-28.95,4.52-44.76l2.36-0.14c-1.96,15.26-2.59,29.03-1.88,41.3c0.84,14.63,4.27,24.84,14.65,24.25
			c5.19-0.3,10.3-2.01,14.91-4.17L507.26,699.13z"/>
		<path d="M533.84,659.25c3.31,57.56,35.63,92.63,91.78,89.4c34.92-2.01,61.41-18.69,75.49-45.53l1.44,0.39
			c-13.89,30.15-42.19,48.35-78.52,50.44c-58.04,3.34-91.91-34-95.3-92.98c-3.88-67.47,43.39-101.44,82.56-103.7
			c34.92-2.01,45.8,14.41,46.86,32.81c0.79,13.68-2.03,22.37-9.29,36.04l-1.97-1.31c4.93-13.07,6.83-21.22,6.09-33.96
			c-0.98-16.99-9.79-30.21-41.87-28.36C574.79,564.58,530.15,595.08,533.84,659.25z M616.87,629.38
			c11.89,9.26,24.96,14.19,39.59,13.34c30.2-1.74,52.4-27.16,50.37-62.55c-1.85-32.09-26.83-54.79-79.67-51.75
			c-33.97,1.96-60.55,17.22-78.12,40.95l-1.5-1.33c16.07-25.07,43.99-41.83,79.85-43.89c56.62-3.26,82.68,21.75,84.61,55.25
			c2.2,38.22-20.9,64.64-55.34,66.62c-16.51,0.95-30.03-3.48-41.58-15.12L616.87,629.38z M710.96,668.47
			c-13.2,17.33-36.73,28.15-60.32,29.51c-31.61,1.82-56.32-16.17-58.68-57.22c-1.49-25.95,1.8-42.71,8.7-54.47l1.97,1.31
			c-3.59,11.57-6.94,27.38-5.53,51.92c2.28,39.64,24.94,54.9,53.72,53.24c24.54-1.41,46.22-11.18,58.62-26.1L710.96,668.47z"/>
		<path d="M964.25,545.47c-20.4-17.29-47.81-32.75-88.86-30.39c-28.78,1.66-51.03,18.09-53.01,66.02l-2.36,0.14
			c-0.57-51.1,23.46-69.52,55.07-71.34c41.05-2.36,70.89,14.38,89.99,33.64L964.25,545.47z M989.89,505.65
			c8.59,58.68-35.42,91.99-79.27,119.6c-42.5,26.59-85.61,58.9-77.77,112.89l-2.28,1.55c-11.75-56.13,33.08-91.38,76.97-118.52
			c41.61-25.59,84.75-57.43,79.99-115.38L989.89,505.65z M844.42,577.46c22.85-6.05,56.04-5.12,72.55,1.98l-0.83,1.94
			c-15.79-2.88-48.98-3.81-71.1-1.59L844.42,577.46z M861.03,701.49c23.9,20.4,56.66,30.35,89.69,28.45
			c42.47-2.45,57.3-16.08,57.09-69.09l2.36-0.14c3.26,56.62-15.27,71.89-59.15,74.42c-34.92,2.01-68.65-8.36-92.71-31.59
			L861.03,701.49z M985.89,658.32c-24.19,15.59-56.48,22.19-79.82,19.74l0.34-2.39c20.76-1.2,52.58-7.76,77.96-19.16L985.89,658.32z
			"/>
		<path d="M1034.03,630.93c3.72,64.64,49.81,92.29,99.36,89.44c15.57-0.9,31-4.15,44.86-10.16l1.16,3.72
			c-14.33,6.03-30.68,9.81-47.67,10.79c-52.38,3.02-99.44-25.05-103.35-92.99c-4.16-72.19,45.66-94.94,85.3-97.23
			c40.11-2.31,64.3,23.28,66.91,68.58c1.6,27.84-0.55,39.8-5.69,49.09l-2.41-0.81c2.76-9.63,4.02-20.59,2.58-45.6
			c-2.58-44.83-26.22-69.03-61.14-67.02C1075.71,540.95,1030.03,561.57,1034.03,630.93z M1166.93,686.24
			c-44.35,2.55-71.19-19.57-74.18-71.47c-1.63-28.31,0.08-39.77,4.75-49.03l2.41,0.81c-2.34,8.66-3.63,19.15-2.14,45.1
			c2.93,50.96,27.86,72.72,68.91,70.36c34.45-1.98,79.6-23.52,75.66-91.94c-3.53-61.34-43.79-94.53-101.35-91.21
			c-23.12,1.33-43.58,7.72-60.97,18.19l-1.58-2.75c17.8-11.44,39.18-18.35,64.19-19.79c61.81-3.56,101.68,31.07,105.35,94.77
			C1252.11,660.98,1204.67,684.07,1166.93,686.24z"/>
		<path d="M1287.03,535.88c11.32-0.65,18.86,6.96,19.92,25.36c0.79,13.68-0.18,29.83-3.94,46.62l-2.36,0.14
			c0.65-13.29,1.17-28.95,0.28-44.52c-0.9-15.57-6.05-22.85-15.01-22.33c-7.55,0.43-14.52,2.73-20.04,5.42l-1.08-2.3
			C1271.18,540.11,1278.54,536.37,1287.03,535.88z M1326.03,621.22c-30.88,55.75-20.48,88.29,10.66,86.49
			c30.67-1.77,45.48-15.87,60.94-35.23l2,1.78c-14.4,21.19-30.07,36.76-64.52,38.75c-37.75,2.17-46.11-36.16-13.93-93.88l27.01-48.9
			c30.43-55.25,19.81-83.51-9.92-81.8c-26.42,1.52-46.7,11.21-65.28,25.54l-1.08-2.3c18-16.19,39.64-26.9,69.36-28.61
			c31.61-1.82,45.7,29.09,12.21,88.77L1326.03,621.22z M1404.71,647.46c-4.5,4.05-9.53,7.18-16.6,7.58
			c-13.68,0.79-18.06-9.38-18.98-25.42c-0.65-11.32,1.17-28.95,4.52-44.76l2.36-0.14c-1.96,15.26-2.59,29.03-1.88,41.3
			c0.84,14.63,4.27,24.84,14.65,24.25c5.19-0.3,10.3-2.01,14.91-4.17L1404.71,647.46z M1426.67,527.37
			c13.21-0.76,25,6.61,26.14,26.43c0.9,15.57,0.35,30.75-1.42,49.32l-2.83,0.16c0.49-16.12,0.46-33.17-0.44-48.74
			c-0.95-16.51-11.24-22.55-23.98-21.82c-10.85,0.62-21.93,5.52-29.66,11.18l-1.05-1.83
			C1400.63,535.5,1412.99,528.16,1426.67,527.37z M1473.25,612.74c-30.88,55.75-20.48,88.29,10.66,86.49
			c30.67-1.77,45.48-15.87,60.93-35.23l2,1.78c-14.4,21.19-30.08,36.76-64.52,38.75c-37.75,2.17-46.11-36.16-13.93-93.88l27.01-48.9
			c30.43-55.25,17.45-83.38-27.38-80.8c-32.56,1.87-53.69,13.03-69.67,31.47l-1.47-0.86c14.88-21.21,37.34-33.87,74.15-35.99
			c46.71-2.69,63.16,28.08,29.67,87.77L1473.25,612.74z M1548.62,639.17c-4.5,4.05-9.53,7.18-16.61,7.58
			c-13.68,0.79-18.06-9.38-18.98-25.42c-0.65-11.32,1.17-28.95,4.52-44.76l2.36-0.14c-1.96,15.26-2.59,29.03-1.88,41.3
			c0.84,14.63,4.27,24.84,14.65,24.25c5.19-0.3,10.3-2.01,14.91-4.17L1548.62,639.17z"/>
		<path d="M1574.73,599.32c3.31,57.56,35.63,92.63,91.78,89.4c34.92-2.01,61.41-18.69,75.49-45.53l1.44,0.39
			c-13.89,30.15-42.19,48.35-78.52,50.44c-58.04,3.34-91.91-34-95.3-92.98c-3.88-67.47,43.39-101.44,82.56-103.7
			c34.92-2.01,45.8,14.41,46.86,32.81c0.79,13.68-2.03,22.37-9.29,36.04l-1.97-1.31c4.93-13.07,6.83-21.22,6.09-33.96
			c-0.98-16.99-9.79-30.21-41.87-28.36C1615.68,504.65,1571.04,535.15,1574.73,599.32z M1657.75,569.45
			c11.89,9.26,24.96,14.19,39.59,13.34c30.2-1.74,52.41-27.16,50.37-62.55c-1.85-32.09-26.83-54.79-79.67-51.75
			c-33.97,1.96-60.55,17.22-78.12,40.95l-1.5-1.33c16.07-25.07,43.99-41.83,79.85-43.89c56.62-3.26,82.68,21.75,84.61,55.25
			c2.2,38.22-20.89,64.64-55.34,66.62c-16.51,0.95-30.02-3.48-41.58-15.12L1657.75,569.45z M1751.85,608.54
			c-13.21,17.33-36.73,28.15-60.32,29.51c-31.61,1.82-56.32-16.17-58.68-57.22c-1.49-25.95,1.8-42.71,8.7-54.47l1.97,1.31
			c-3.59,11.57-6.95,27.38-5.53,51.92c2.28,39.64,24.94,54.9,53.72,53.24c24.54-1.41,46.22-11.18,58.62-26.1L1751.85,608.54z"/>
		<path d="M1865.89,558.42c-43.28,4.86-55.6,4.62-65.99-3.3c-12.89-10.15-14.64-147.33-12.81-164.96l2.36-0.14
			c-0.96,16.15,2.98,150.37,14.9,160.1c9.43,7.51,19.94,9.27,60.97,6.43L1865.89,558.42z M1864,517.34
			c1.05-14.74-6.31-150.65-13.98-160.63c-6.15-8.17-19.11-11.21-59.69-8.87l-0.64-2.8c42.44-2.92,55.79-1.32,63.83,6.74
			c10.06,10.31,16.16,149.14,12.37,165.45L1864,517.34z M1863.8,612.51c-14.74-1.05-42.13,0.06-52.1,7.73
			c-9.97,7.68-11.55,29.54-8.55,48.78l-2.83,0.16c-3.16-22.07-2.94-42.91,6.45-52.45c10.31-10.06,40.62-9.91,56.93-6.12
			L1863.8,612.51z M1870.5,622.06c5.08,22.43,6.17,41.3-3.09,53.2c-10.15,12.89-38.81,8.39-56.43,6.56l-0.14-2.36
			c16.15,0.96,41.85,3.27,51.58-8.65c9.31-10.95,9.72-28.49,6.64-49.14L1870.5,622.06z"/>
	</g>
	<g>
		<path d="M93.41,606.97c1.06,18.4,0.19,44.49-2.3,66.88l-2.86-0.31c1.14-21.37,1.11-46.46,0.03-65.33
			c-1.44-25.01-7.67-34.59-14.71-41.76l1.31-1.97C83.68,569.66,92.08,583.85,93.41,606.97z M135.7,634.36l-24.49,51.59
			c-29.55,62.3,1.15,102.19,50.69,99.34c34.44-1.98,55.74-10.31,70.03-25.33l1.52,1.81c-14.62,17.41-37.7,27.73-71.67,29.69
			c-55.68,3.21-87.51-39.94-55.43-107.59l24.49-51.59c34.17-72.51,24.68-97.52-6.49-96.2c-19.85,0.67-30.45,5.54-40.98,11.83
			l-1.05-1.83c10.03-6.73,24.33-13.24,42.73-14.3C162.33,529.62,172.01,557.95,135.7,634.36z M195.13,737.46
			c-21.23,1.22-34.76-11.73-36.28-38.15c-1.2-20.76-0.23-36.91,3.65-59.86l2.39,0.34c-2.03,22.37-1.57,38.44-0.46,57.78
			c1.47,25.48,13.89,35.65,30.87,34.67c22.18-1.28,37.56-5.48,49.53-11.37l1.05,1.83C233.55,730.51,217.31,736.18,195.13,737.46z
			 M210.55,635.26c-17.46,1.01-34.04-7.51-43.72-19.26l1.33-1.5c9.95,8.42,26.04,16.49,41.61,15.59
			c21.23-1.22,19.94-31.92,17.19-54.96l2.36-0.14C236.58,610.56,231.78,634.04,210.55,635.26z M171.79,578.79l-0.14-2.36
			c14.57-1.79,29.95-5.99,43.23-13.85l1.05,1.83C205.66,574.95,186.61,581.25,171.79,578.79z"/>
		<path d="M233.53,499.96c6.36-4.63,13.77-7.42,20.85-7.83c12.74-0.73,19.86,7.85,21.25,31.92c1.39,24.06,0.1,51.12-2.12,94.8
			l-1.89,0.11c-0.53-42.1,0.23-70.08-1.1-93.2c-1.39-24.06-8.79-29.32-15.87-28.91c-9.44,0.54-15.96,2.34-21.02,5L233.53,499.96z
			 M292.46,643.8l38.58-111.11c18.27-52.65,14.74-89.38-28.2-86.9c-23.12,1.33-44.39,10.13-59.17,24.71l-1.52-1.81
			c16.09-16.55,38.67-27.32,60.37-28.57c50.49-2.91,52.35,37.7,33.3,93.24l-38.11,111.08c-32.84,95.63-21.12,134.72,20.87,132.3
			c27.84-1.6,45.9-16.84,58.21-33.18l0.53,0.92c-12.02,21.52-32.93,36.45-59.36,37.98C270.31,785.2,259.54,738.01,292.46,643.8z
			 M383.41,710.52c-6.36,4.63-13.77,7.42-20.85,7.83c-12.74,0.73-19.86-7.85-21.25-31.92s-0.1-51.12,2.12-94.8l1.89-0.11
			c0.53,42.1-0.23,70.08,1.11,93.2c1.39,24.06,8.79,29.32,15.87,28.91c9.44-0.54,15.96-2.34,21.02-5L383.41,710.52z M396.79,597.55
			c13.21-0.76,25,6.61,26.14,26.43c0.9,15.57,0.35,30.75-1.42,49.32l-2.83,0.16c0.49-16.12,0.46-33.17-0.44-48.74
			c-0.95-16.51-11.24-22.55-23.98-21.82c-10.85,0.62-21.93,5.52-29.65,11.18l-1.05-1.83C370.75,605.68,383.11,598.34,396.79,597.55z
			 M443.37,682.93c-30.88,55.75-20.48,88.29,10.66,86.49c30.67-1.77,45.48-15.87,60.94-35.23l2,1.78
			c-14.4,21.19-30.08,36.76-64.52,38.75c-37.75,2.17-46.11-36.16-13.93-93.88l27.01-48.9c30.43-55.25,17.45-83.38-27.38-80.8
			c-32.56,1.87-53.69,13.03-69.67,31.47l-1.47-0.86c14.88-21.21,37.34-33.87,74.15-35.99c46.71-2.69,63.16,28.08,29.67,87.77
			L443.37,682.93z M518.74,709.36c-4.5,4.05-9.53,7.18-16.61,7.58c-13.68,0.79-18.06-9.38-18.98-25.42
			c-0.65-11.32,1.17-28.95,4.52-44.76l2.36-0.14c-1.96,15.26-2.59,29.03-1.88,41.3c0.84,14.63,4.27,24.84,14.65,24.25
			c5.19-0.3,10.3-2.01,14.91-4.17L518.74,709.36z"/>
		<path d="M545.79,669.45c3.31,57.57,35.63,92.63,91.78,89.4c34.92-2.01,61.41-18.69,75.49-45.53l1.44,0.39
			c-13.89,30.15-42.19,48.35-78.52,50.44c-58.04,3.34-91.9-34-95.3-92.98c-3.88-67.47,43.39-101.44,82.56-103.7
			c34.92-2.01,45.8,14.41,46.86,32.81c0.79,13.68-2.03,22.37-9.29,36.04l-1.97-1.31c4.93-13.07,6.83-21.22,6.09-33.96
			c-0.98-16.99-9.79-30.21-41.87-28.36C586.74,574.78,542.1,605.28,545.79,669.45z M628.82,639.58
			c11.9,9.26,24.96,14.19,39.59,13.34c30.2-1.74,52.41-27.16,50.37-62.55c-1.85-32.09-26.83-54.79-79.67-51.75
			c-33.97,1.96-60.55,17.22-78.12,40.95l-1.5-1.33c16.07-25.07,43.99-41.83,79.85-43.89c56.62-3.26,82.68,21.75,84.61,55.25
			c2.2,38.22-20.9,64.64-55.34,66.62c-16.51,0.95-30.02-3.48-41.58-15.12L628.82,639.58z M722.91,678.67
			c-13.2,17.33-36.73,28.15-60.32,29.51c-31.61,1.82-56.32-16.17-58.68-57.22c-1.49-25.95,1.8-42.71,8.7-54.47l1.97,1.31
			c-3.59,11.57-6.94,27.38-5.53,51.92c2.28,39.64,24.94,54.9,53.72,53.24c24.54-1.41,46.22-11.18,58.62-26.1L722.91,678.67z"/>
		<path d="M976.2,555.67c-20.4-17.29-47.81-32.75-88.86-30.39c-28.78,1.66-51.03,18.09-53.01,66.02l-2.36,0.14
			c-0.57-51.09,23.46-69.52,55.07-71.34c41.05-2.36,70.89,14.38,89.99,33.64L976.2,555.67z M1001.84,515.85
			c8.59,58.68-35.42,91.99-79.27,119.6c-42.5,26.59-85.61,58.9-77.77,112.89l-2.28,1.55c-11.75-56.13,33.08-91.38,76.97-118.52
			c41.61-25.59,84.75-57.43,79.99-115.38L1001.84,515.85z M856.37,587.66c22.85-6.05,56.04-5.12,72.55,1.98l-0.83,1.94
			c-15.79-2.88-48.98-3.81-71.1-1.59L856.37,587.66z M872.98,711.69c23.9,20.4,56.66,30.35,89.69,28.45
			c42.47-2.44,57.3-16.08,57.09-69.09l2.36-0.14c3.26,56.62-15.27,71.89-59.15,74.42c-34.92,2.01-68.65-8.36-92.71-31.59
			L872.98,711.69z M997.84,668.52c-24.19,15.59-56.48,22.19-79.82,19.74l0.34-2.39c20.76-1.2,52.58-7.76,77.96-19.16L997.84,668.52z
			"/>
		<path d="M1045.98,641.13c3.72,64.64,49.81,92.29,99.36,89.43c15.57-0.9,31.01-4.15,44.86-10.16l1.16,3.72
			c-14.33,6.03-30.68,9.81-47.67,10.79c-52.38,3.02-99.44-25.05-103.35-92.99c-4.16-72.19,45.66-94.94,85.3-97.23
			c40.11-2.31,64.3,23.28,66.91,68.58c1.6,27.84-0.55,39.8-5.69,49.09l-2.41-0.81c2.76-9.63,4.02-20.59,2.58-45.6
			c-2.58-44.83-26.22-69.03-61.14-67.02C1087.66,551.15,1041.98,571.77,1045.98,641.13z M1178.88,696.44
			c-44.35,2.55-71.19-19.57-74.18-71.47c-1.63-28.31,0.08-39.77,4.75-49.03l2.41,0.81c-2.34,8.66-3.63,19.15-2.14,45.1
			c2.93,50.96,27.86,72.72,68.91,70.36c34.45-1.98,79.6-23.52,75.66-91.94c-3.53-61.34-43.79-94.53-101.35-91.21
			c-23.12,1.33-43.58,7.72-60.97,18.19l-1.58-2.75c17.8-11.44,39.18-18.35,64.19-19.79c61.81-3.56,101.68,31.07,105.35,94.77
			C1264.05,671.18,1216.62,694.27,1178.88,696.44z"/>
		<path d="M1298.98,546.08c11.32-0.65,18.86,6.96,19.92,25.36c0.79,13.68-0.17,29.83-3.94,46.62l-2.36,0.14
			c0.65-13.29,1.17-28.95,0.28-44.52s-6.05-22.85-15.01-22.33c-7.55,0.43-14.52,2.73-20.05,5.41l-1.08-2.3
			C1283.13,550.31,1290.49,546.57,1298.98,546.08z M1337.98,631.42c-30.88,55.75-20.48,88.29,10.66,86.49
			c30.67-1.77,45.48-15.87,60.93-35.23l2,1.78c-14.4,21.19-30.08,36.76-64.52,38.75c-37.75,2.17-46.11-36.16-13.93-93.88l27.01-48.9
			c30.43-55.25,19.81-83.51-9.92-81.8c-26.42,1.52-46.7,11.21-65.28,25.54l-1.08-2.3c18-16.19,39.64-26.9,69.36-28.61
			c31.61-1.82,45.7,29.09,12.21,88.77L1337.98,631.42z M1416.66,657.66c-4.5,4.05-9.53,7.18-16.6,7.58
			c-13.68,0.79-18.06-9.38-18.98-25.42c-0.65-11.32,1.17-28.95,4.52-44.76l2.36-0.14c-1.96,15.26-2.59,29.03-1.88,41.29
			c0.84,14.63,4.27,24.84,14.65,24.25c5.19-0.3,10.3-2.01,14.91-4.17L1416.66,657.66z M1438.62,537.57
			c13.21-0.76,25,6.61,26.14,26.43c0.9,15.57,0.35,30.75-1.42,49.32l-2.83,0.16c0.49-16.12,0.46-33.17-0.44-48.74
			c-0.95-16.51-11.24-22.55-23.98-21.82c-10.85,0.62-21.93,5.52-29.66,11.18l-1.05-1.83
			C1412.58,545.7,1424.94,538.36,1438.62,537.57z M1485.2,622.94c-30.88,55.75-20.48,88.29,10.66,86.49
			c30.67-1.77,45.48-15.87,60.94-35.23l2,1.78c-14.4,21.19-30.08,36.76-64.52,38.75c-37.75,2.17-46.11-36.16-13.93-93.88l27.01-48.9
			c30.43-55.25,17.45-83.38-27.38-80.8c-32.56,1.87-53.69,13.03-69.67,31.47l-1.47-0.86c14.87-21.21,37.34-33.87,74.15-35.99
			c46.71-2.69,63.16,28.08,29.67,87.77L1485.2,622.94z M1560.57,649.37c-4.5,4.05-9.53,7.18-16.61,7.58
			c-13.68,0.79-18.06-9.38-18.98-25.42c-0.65-11.32,1.17-28.95,4.52-44.76l2.36-0.14c-1.96,15.26-2.59,29.03-1.88,41.3
			c0.84,14.63,4.27,24.84,14.65,24.25c5.19-0.3,10.3-2.01,14.91-4.17L1560.57,649.37z"/>
		<path d="M1586.68,609.52c3.31,57.57,35.63,92.63,91.78,89.4c34.92-2.01,61.42-18.69,75.49-45.53l1.44,0.39
			c-13.89,30.15-42.19,48.35-78.52,50.44c-58.04,3.34-91.91-34-95.3-92.98c-3.88-67.47,43.39-101.44,82.56-103.7
			c34.92-2.01,45.8,14.41,46.86,32.81c0.79,13.68-2.03,22.37-9.29,36.04l-1.97-1.31c4.93-13.07,6.83-21.22,6.09-33.96
			c-0.98-16.99-9.79-30.21-41.87-28.36C1627.63,514.85,1582.99,545.35,1586.68,609.52z M1669.7,579.65
			c11.89,9.26,24.96,14.19,39.59,13.34c30.2-1.74,52.41-27.16,50.37-62.55c-1.85-32.09-26.83-54.79-79.67-51.75
			c-33.97,1.96-60.55,17.22-78.12,40.95l-1.5-1.33c16.07-25.07,43.99-41.83,79.85-43.89c56.62-3.26,82.68,21.75,84.61,55.25
			c2.2,38.22-20.9,64.64-55.34,66.62c-16.51,0.95-30.03-3.48-41.58-15.12L1669.7,579.65z M1763.8,618.74
			c-13.21,17.33-36.73,28.15-60.32,29.51c-31.61,1.82-56.32-16.17-58.68-57.22c-1.49-25.95,1.8-42.71,8.7-54.47l1.97,1.31
			c-3.59,11.57-6.95,27.38-5.53,51.92c2.28,39.64,24.94,54.9,53.72,53.24c24.54-1.41,46.22-11.18,58.62-26.1L1763.8,618.74z"/>
		<path d="M1877.84,568.62c-43.27,4.86-55.6,4.62-65.99-3.3c-12.89-10.15-14.64-147.33-12.81-164.96l2.36-0.14
			c-0.96,16.15,2.98,150.37,14.9,160.1c9.43,7.51,19.94,9.27,60.97,6.43L1877.84,568.62z M1875.95,527.54
			c1.04-14.74-6.31-150.65-13.98-160.63c-6.15-8.17-19.11-11.21-59.69-8.87l-0.63-2.8c42.44-2.92,55.79-1.32,63.83,6.74
			c10.06,10.31,16.16,149.14,12.37,165.45L1875.95,527.54z M1875.75,622.71c-14.74-1.05-42.13,0.06-52.1,7.73
			c-9.97,7.68-11.55,29.54-8.55,48.78l-2.83,0.16c-3.16-22.07-2.94-42.91,6.45-52.45c10.31-10.06,40.62-9.91,56.93-6.12
			L1875.75,622.71z M1882.45,632.26c5.08,22.43,6.17,41.31-3.09,53.2c-10.14,12.89-38.81,8.39-56.43,6.56l-0.14-2.36
			c16.15,0.96,41.85,3.27,51.58-8.65c9.31-10.95,9.72-28.49,6.64-49.14L1882.45,632.26z"/>
	</g>
	<g>
		<path d="M104.88,617.2c1.06,18.4,0.19,44.49-2.3,66.88l-2.86-0.31c1.14-21.37,1.11-46.46,0.03-65.33
			c-1.44-25.01-7.67-34.59-14.71-41.76l1.31-1.97C95.16,579.89,103.55,594.08,104.88,617.2z M147.18,644.59l-24.49,51.59
			c-29.55,62.3,1.15,102.19,50.69,99.34c34.44-1.98,55.74-10.31,70.03-25.33l1.52,1.81c-14.62,17.41-37.7,27.73-71.67,29.69
			c-55.68,3.21-87.51-39.94-55.43-107.59l24.49-51.59c34.17-72.51,24.68-97.52-6.49-96.2c-19.84,0.67-30.45,5.54-40.98,11.83
			l-1.05-1.83c10.03-6.73,24.33-13.24,42.73-14.3C173.81,539.85,183.49,568.17,147.18,644.59z M206.61,747.69
			c-21.23,1.22-34.76-11.73-36.28-38.15c-1.2-20.76-0.23-36.91,3.65-59.86l2.39,0.34c-2.03,22.37-1.57,38.44-0.46,57.78
			c1.47,25.48,13.89,35.65,30.87,34.67c22.18-1.28,37.56-5.48,49.53-11.37l1.05,1.83C245.03,740.74,228.78,746.41,206.61,747.69z
			 M222.03,645.49c-17.46,1.01-34.04-7.51-43.72-19.26l1.33-1.5c9.95,8.42,26.04,16.49,41.61,15.59
			c21.23-1.22,19.94-31.92,17.19-54.96l2.36-0.14C248.06,620.79,243.26,644.27,222.03,645.49z M183.27,589.02l-0.14-2.36
			c14.57-1.79,29.95-5.99,43.23-13.85l1.05,1.83C217.13,585.17,198.09,591.48,183.27,589.02z"/>
		<path d="M245,510.19c6.36-4.63,13.77-7.42,20.85-7.83c12.74-0.73,19.86,7.85,21.25,31.92c1.39,24.06,0.1,51.12-2.12,94.8
			l-1.89,0.11c-0.53-42.1,0.23-70.08-1.1-93.2c-1.39-24.06-8.79-29.32-15.87-28.91c-9.44,0.54-15.96,2.34-21.02,5L245,510.19z
			 M303.94,654.03l38.58-111.11c18.27-52.65,14.74-89.38-28.2-86.9c-23.12,1.33-44.39,10.13-59.17,24.71l-1.52-1.81
			c16.09-16.55,38.67-27.32,60.37-28.57c50.49-2.91,52.35,37.7,33.3,93.24l-38.1,111.08c-32.84,95.63-21.12,134.72,20.87,132.3
			c27.84-1.6,45.9-16.84,58.21-33.18l0.53,0.92c-12.02,21.52-32.93,36.46-59.36,37.98C281.78,795.43,271.02,748.24,303.94,654.03z
			 M394.89,720.75c-6.36,4.63-13.77,7.42-20.85,7.83c-12.74,0.73-19.86-7.85-21.25-31.92c-1.39-24.06-0.1-51.12,2.12-94.8l1.89-0.11
			c0.53,42.1-0.23,70.08,1.11,93.2c1.39,24.06,8.79,29.32,15.87,28.91c9.44-0.54,15.96-2.34,21.02-5L394.89,720.75z M408.27,607.78
			c13.21-0.76,25,6.61,26.14,26.43c0.9,15.57,0.35,30.75-1.42,49.32l-2.83,0.16c0.49-16.12,0.46-33.17-0.44-48.74
			c-0.95-16.51-11.24-22.55-23.98-21.82c-10.85,0.62-21.93,5.52-29.65,11.18l-1.05-1.83C382.23,615.91,394.58,608.57,408.27,607.78z
			 M454.84,693.15c-30.88,55.75-20.48,88.29,10.66,86.49c30.67-1.77,45.48-15.87,60.94-35.23l2,1.78
			c-14.4,21.19-30.08,36.76-64.52,38.75c-37.75,2.17-46.11-36.16-13.93-93.88l27.01-48.9c30.43-55.25,17.45-83.38-27.38-80.8
			c-32.56,1.87-53.69,13.03-69.67,31.47l-1.47-0.86c14.87-21.21,37.34-33.87,74.15-35.99c46.71-2.69,63.16,28.08,29.67,87.77
			L454.84,693.15z M530.22,719.58c-4.5,4.05-9.53,7.18-16.61,7.58c-13.68,0.79-18.06-9.38-18.98-25.42
			c-0.65-11.32,1.17-28.95,4.52-44.76l2.36-0.14c-1.96,15.26-2.59,29.03-1.88,41.29c0.84,14.63,4.27,24.84,14.65,24.25
			c5.19-0.3,10.3-2.01,14.91-4.17L530.22,719.58z"/>
		<path d="M557.27,679.68c3.31,57.56,35.63,92.63,91.78,89.4c34.92-2.01,61.41-18.69,75.49-45.53l1.44,0.39
			c-13.89,30.15-42.19,48.35-78.52,50.44c-58.04,3.34-91.91-34-95.3-92.98c-3.89-67.47,43.39-101.44,82.56-103.7
			c34.92-2.01,45.8,14.41,46.86,32.81c0.79,13.68-2.03,22.37-9.29,36.04l-1.97-1.31c4.93-13.07,6.83-21.22,6.09-33.96
			c-0.98-16.99-9.79-30.21-41.87-28.36C598.22,585.01,553.58,615.51,557.27,679.68z M640.29,649.81
			c11.89,9.26,24.96,14.19,39.59,13.34c30.2-1.74,52.4-27.16,50.37-62.55c-1.85-32.09-26.83-54.79-79.67-51.75
			c-33.97,1.96-60.55,17.22-78.12,40.95l-1.5-1.33c16.07-25.07,43.99-41.83,79.85-43.89c56.62-3.26,82.68,21.75,84.61,55.25
			c2.2,38.22-20.9,64.64-55.34,66.62c-16.52,0.95-30.03-3.48-41.58-15.12L640.29,649.81z M734.38,688.89
			c-13.2,17.33-36.73,28.15-60.32,29.51c-31.61,1.82-56.32-16.17-58.68-57.22c-1.49-25.95,1.8-42.71,8.7-54.47l1.97,1.31
			c-3.59,11.57-6.94,27.38-5.53,51.92c2.28,39.64,24.94,54.9,53.72,53.24c24.54-1.41,46.22-11.18,58.62-26.1L734.38,688.89z"/>
		<path d="M987.67,565.9c-20.4-17.29-47.81-32.75-88.86-30.39c-28.78,1.66-51.03,18.09-53.01,66.02l-2.36,0.14
			c-0.57-51.09,23.46-69.52,55.07-71.34c41.05-2.36,70.89,14.38,89.99,33.64L987.67,565.9z M1013.31,526.08
			c8.59,58.68-35.42,91.99-79.27,119.6c-42.5,26.59-85.61,58.9-77.77,112.89l-2.28,1.55c-11.75-56.13,33.09-91.38,76.97-118.52
			c41.61-25.59,84.75-57.43,79.99-115.38L1013.31,526.08z M867.85,597.89c22.85-6.05,56.04-5.12,72.55,1.98l-0.83,1.94
			c-15.79-2.88-48.98-3.81-71.1-1.59L867.85,597.89z M884.46,721.91c23.9,20.4,56.66,30.35,89.69,28.45
			c42.47-2.44,57.3-16.08,57.09-69.09l2.36-0.14c3.26,56.62-15.27,71.89-59.15,74.42c-34.92,2.01-68.65-8.36-92.71-31.59
			L884.46,721.91z M1009.32,678.75c-24.19,15.59-56.48,22.19-79.82,19.74l0.34-2.39c20.76-1.2,52.57-7.76,77.96-19.16
			L1009.32,678.75z"/>
		<path d="M1057.45,651.36c3.72,64.64,49.81,92.29,99.36,89.43c15.57-0.9,31.01-4.15,44.86-10.16l1.16,3.72
			c-14.33,6.03-30.68,9.81-47.67,10.79c-52.38,3.02-99.44-25.05-103.35-92.99c-4.16-72.19,45.66-94.94,85.3-97.23
			c40.11-2.31,64.3,23.28,66.91,68.58c1.6,27.84-0.55,39.8-5.69,49.09l-2.41-0.81c2.76-9.63,4.02-20.59,2.58-45.6
			c-2.58-44.83-26.23-69.03-61.14-67.02C1099.14,561.38,1053.46,582,1057.45,651.36z M1190.35,706.67
			c-44.35,2.55-71.19-19.57-74.18-71.47c-1.63-28.31,0.08-39.77,4.75-49.03l2.41,0.81c-2.34,8.66-3.63,19.15-2.14,45.1
			c2.93,50.96,27.86,72.72,68.91,70.36c34.45-1.98,79.6-23.52,75.66-91.94c-3.53-61.34-43.79-94.53-101.35-91.21
			c-23.12,1.33-43.58,7.72-60.97,18.19l-1.58-2.75c17.8-11.44,39.18-18.35,64.19-19.79c61.81-3.56,101.68,31.07,105.35,94.77
			C1275.53,681.41,1228.1,704.5,1190.35,706.67z"/>
		<path d="M1310.46,556.31c11.32-0.65,18.86,6.96,19.92,25.36c0.79,13.68-0.18,29.83-3.94,46.62l-2.36,0.14
			c0.66-13.29,1.17-28.95,0.28-44.52c-0.9-15.57-6.05-22.85-15.01-22.33c-7.55,0.43-14.52,2.73-20.04,5.41l-1.08-2.3
			C1294.61,560.54,1301.97,556.8,1310.46,556.31z M1349.46,641.65c-30.88,55.75-20.48,88.29,10.66,86.49
			c30.67-1.77,45.48-15.87,60.94-35.23l2,1.78c-14.4,21.19-30.08,36.76-64.52,38.75c-37.75,2.17-46.11-36.16-13.93-93.88l27.01-48.9
			c30.43-55.25,19.81-83.51-9.92-81.8c-26.42,1.52-46.7,11.21-65.28,25.54l-1.08-2.3c18-16.19,39.64-26.9,69.37-28.61
			c31.61-1.82,45.7,29.09,12.21,88.77L1349.46,641.65z M1428.13,667.89c-4.5,4.05-9.53,7.18-16.61,7.58
			c-13.68,0.79-18.06-9.38-18.98-25.42c-0.65-11.32,1.17-28.95,4.52-44.76l2.36-0.14c-1.96,15.26-2.59,29.03-1.88,41.29
			c0.84,14.63,4.27,24.84,14.65,24.25c5.19-0.3,10.3-2.01,14.91-4.17L1428.13,667.89z M1450.1,547.8c13.21-0.76,25,6.61,26.14,26.43
			c0.9,15.57,0.35,30.75-1.42,49.32l-2.83,0.16c0.49-16.12,0.46-33.17-0.44-48.74c-0.95-16.51-11.24-22.55-23.98-21.82
			c-10.85,0.62-21.93,5.52-29.66,11.18l-1.05-1.83C1424.05,555.92,1436.41,548.58,1450.1,547.8z M1496.67,633.17
			c-30.88,55.75-20.48,88.29,10.66,86.49c30.67-1.77,45.48-15.87,60.94-35.23l2,1.78c-14.4,21.19-30.08,36.76-64.52,38.75
			c-37.75,2.17-46.11-36.16-13.93-93.88l27.01-48.9c30.43-55.25,17.45-83.38-27.37-80.8c-32.56,1.87-53.69,13.03-69.67,31.47
			l-1.47-0.86c14.87-21.21,37.34-33.87,74.15-35.99c46.71-2.69,63.16,28.08,29.67,87.77L1496.67,633.17z M1572.05,659.6
			c-4.5,4.05-9.53,7.18-16.61,7.58c-13.68,0.79-18.06-9.38-18.98-25.42c-0.65-11.32,1.17-28.95,4.52-44.76l2.36-0.14
			c-1.96,15.26-2.59,29.03-1.88,41.3c0.84,14.63,4.27,24.84,14.65,24.25c5.19-0.3,10.3-2.01,14.91-4.17L1572.05,659.6z"/>
		<path d="M1598.16,619.75c3.31,57.56,35.63,92.63,91.78,89.4c34.92-2.01,61.41-18.69,75.49-45.53l1.44,0.39
			c-13.89,30.15-42.19,48.35-78.52,50.44c-58.04,3.34-91.91-34-95.3-92.98c-3.88-67.47,43.39-101.44,82.56-103.7
			c34.92-2.01,45.8,14.41,46.86,32.81c0.79,13.68-2.03,22.37-9.29,36.04l-1.97-1.31c4.93-13.07,6.83-21.22,6.09-33.96
			c-0.98-16.99-9.79-30.21-41.87-28.36C1639.1,525.08,1594.47,555.58,1598.16,619.75z M1681.18,589.88
			c11.9,9.26,24.96,14.19,39.59,13.34c30.2-1.74,52.41-27.16,50.37-62.55c-1.85-32.09-26.83-54.79-79.67-51.75
			c-33.97,1.96-60.55,17.22-78.12,40.95l-1.5-1.33c16.07-25.07,43.99-41.83,79.85-43.89c56.62-3.26,82.68,21.75,84.61,55.25
			c2.2,38.22-20.9,64.64-55.34,66.62c-16.51,0.95-30.03-3.48-41.58-15.12L1681.18,589.88z M1775.27,628.96
			c-13.2,17.33-36.73,28.15-60.32,29.51c-31.61,1.82-56.32-16.17-58.68-57.22c-1.49-25.95,1.8-42.71,8.7-54.47l1.97,1.31
			c-3.6,11.57-6.95,27.38-5.53,51.92c2.28,39.64,24.94,54.9,53.72,53.24c24.54-1.41,46.22-11.18,58.62-26.1L1775.27,628.96z"/>
		<path d="M1889.32,578.84c-43.27,4.86-55.6,4.62-65.99-3.3c-12.89-10.15-14.64-147.33-12.81-164.96l2.36-0.14
			c-0.96,16.15,2.98,150.37,14.9,160.1c9.43,7.51,19.94,9.27,60.97,6.43L1889.32,578.84z M1887.42,537.77
			c1.04-14.74-6.31-150.65-13.98-160.63c-6.15-8.17-19.11-11.21-59.69-8.87l-0.63-2.8c42.44-2.92,55.79-1.32,63.83,6.74
			c10.06,10.31,16.16,149.14,12.37,165.45L1887.42,537.77z M1887.22,632.93c-14.74-1.05-42.13,0.06-52.1,7.73
			c-9.97,7.68-11.55,29.54-8.55,48.78l-2.83,0.16c-3.16-22.07-2.94-42.91,6.45-52.45c10.31-10.06,40.62-9.91,56.93-6.12
			L1887.22,632.93z M1893.93,642.49c5.08,22.43,6.17,41.3-3.09,53.2c-10.15,12.89-38.81,8.39-56.43,6.56l-0.14-2.36
			c16.15,0.96,41.85,3.27,51.58-8.65c9.31-10.95,9.72-28.49,6.64-49.14L1893.93,642.49z"/>
	</g>
</g>
<g>
	<g>
		<path d="M446.38,315.2l-17.3,0.09l-0.03-5.97c-0.08-15.11,2.9-16.12,14.83-16.19l48.13-0.25l0.03,5.77
			c0.07,14.52-2.1,16.32-17.02,16.4l0.42,82.33l17.5-0.09l0.03,5.77c0.08,15.31-3.1,16.32-14.83,16.38l-48.13,0.25l-0.03-5.97
			c-0.07-14.32,2.1-16.12,16.82-16.2L446.38,315.2z"/>
		<path d="M497.04,344.97l-0.03-5.77c3.71-12.95,23.32-28.16,33.64-31.79l6.36-0.03l0.09,17.5l31.82-0.16l0.04,8.35
			c0.03,6.56-5.91,11.56-13.86,11.61l-18.1,0.09l0.18,34.01c0.07,14.32,4.67,19.47,11.83,19.43c7.36-0.04,14.71-1.67,18.47-4.07
			l0.03,4.97c0.07,12.73-10.03,21.93-28.52,22.02c-17.9,0.09-28.89-10.59-28.99-30.28l-0.24-45.94L497.04,344.97z"/>
	</g>
	<g>
		<path d="M695.99,397.05l14.12-0.07l0.04,7.16c0.06,11.93-4.7,14.14-11.66,14.18l-26.05,0.13l-3.65-13.11
			c-8.1,10.18-16.23,15.2-32.34,15.28c-19.49,0.1-33.9-17.53-34.03-42.58c-0.18-34.8,20.79-55.79,52.81-55.96
			c5.77-0.03,9.95,0.55,13.13,1.52l-0.14-27.05l-13.72,0.07l-0.04-7.16c-0.06-11.93,4.7-14.14,12.06-14.18l30.82-0.16l-1.92,14.33
			L695.99,397.05z M668.7,389.03l-0.22-42.76c-3.39-2.17-8.77-3.73-15.53-3.7c-13.92,0.07-23.62,9.47-23.52,29.16
			c0.09,17.7,8.88,25.41,18.23,25.36C656.61,397.05,661.96,393.64,668.7,389.03z"/>
		<path d="M719.18,345.02l-0.04-7.16c-0.06-11.93,3.51-14.14,13.45-14.19l29.43-0.15l-1.92,14.33l0.3,58.86l13.92-0.07l0.04,7.16
			c0.06,11.93-2.91,14.13-10.87,14.18l-43.95,0.23l-0.04-7.36c-0.05-8.95,3.51-13.94,13.45-13.99l-0.27-51.9L719.18,345.02z
			 M744.07,310.89c-10.14,0.05-15.94-6.68-15.99-14.83c-0.04-8.35,5.69-14.94,15.83-15c10.34-0.05,16.34,6.48,16.38,14.83
			C760.34,304.04,754.41,310.83,744.07,310.89z"/>
		<path d="M875.16,396.12l14.12-0.07l0.04,7.16c0.06,11.93-4.7,14.14-11.66,14.18l-26.05,0.13l-3.65-13.11
			c-8.1,10.18-16.23,15.2-32.34,15.28c-19.49,0.1-33.9-17.53-34.03-42.58c-0.18-34.8,20.79-55.79,52.81-55.96
			c5.77-0.03,9.95,0.55,13.13,1.52l-0.14-27.05l-13.72,0.07l-0.04-7.16c-0.06-11.93,4.7-14.14,12.06-14.18l30.82-0.16l-1.92,14.33
			L875.16,396.12z M847.88,388.11l-0.22-42.76c-3.39-2.17-8.77-3.73-15.53-3.7c-13.92,0.07-23.62,9.47-23.52,29.16
			c0.09,17.7,8.88,25.41,18.23,25.36C835.79,396.13,841.14,392.72,847.88,388.11z"/>
		<path d="M898.56,344.1l-0.04-7.16c-0.06-11.93,3.51-14.14,13.45-14.19l26.25-0.14l1.26,13.32c4.74-5.79,18.22-15.41,35.52-15.5
			c19.09-0.1,27.32,13.98,27.41,31.48l0.22,43.55l13.92-0.07l0.04,7.16c0.06,11.93-2.91,14.13-10.86,14.18l-43.95,0.23l-0.04-7.36
			c-0.05-8.95,3.51-13.94,13.45-13.99l-0.19-36.59c-0.05-9.94-3.06-15.89-11.62-15.85c-10.14,0.05-19.47,3.68-23.82,9.07l0.22,43.55
			l13.92-0.07l0.04,7.16c0.06,11.93-2.91,14.13-10.86,14.18l-43.95,0.23l-0.04-7.36c-0.05-8.95,3.51-13.94,13.45-13.99l-0.27-51.9
			L898.56,344.1z"/>
	</g>
	<g>
		<path d="M1027.48,314.59c-6.75,2.22-11.53,0.06-12.34-2.12l-0.6-1.59c5.75-3.01,8.33-5.01,8.68-14.36
			c-6.96-0.36-12.36-5.9-12.41-15.45c-0.04-8.35,6.09-14.15,14.84-14.2c8.75-0.05,15.34,5.89,15.4,16.82
			C1041.14,300.8,1033.04,312.78,1027.48,314.59z"/>
	</g>
	<g>
		<path d="M1041.35,342.17l-0.03-5.77c3.71-12.95,23.32-28.16,33.64-31.79l6.36-0.03l0.09,17.5l31.82-0.16l0.04,8.35
			c0.03,6.56-5.91,11.56-13.86,11.61l-18.1,0.09l0.17,34.01c0.07,14.32,4.67,19.47,11.83,19.43c7.36-0.04,14.71-1.67,18.47-4.07
			l0.03,4.97c0.07,12.73-10.03,21.93-28.53,22.02c-17.9,0.09-28.89-10.59-28.99-30.28l-0.24-45.94L1041.35,342.17z"/>
		<path d="M1197.97,286.87l0.55,107.59l14.12-0.07l0.04,7.16c0.06,11.93-2.91,14.13-10.87,14.18l-44.15,0.23l-0.04-7.76
			c-0.04-8.55,3.71-13.54,13.45-13.59l-0.52-100.63l-13.52,0.07l-0.04-7.16c-0.06-11.93,3.71-14.14,13.45-14.19l29.43-0.15
			L1197.97,286.87z"/>
		<path d="M1302.84,375.23l-55.68,0.29c2.25,12.32,10.44,19.04,24.16,18.97c11.93-0.06,23.85-3.5,30.78-7.91l0.03,6.16
			c0.07,14.12-17.57,24.55-40.24,24.67c-22.87,0.12-41.64-14.5-41.8-45.33c-0.19-35.99,22.6-53.02,47.06-53.14
			C1297.97,318.77,1307.08,348.95,1302.84,375.23z M1246.88,360.2l31.62-0.16c0.56-6.76-3.49-21.06-14.62-21.01
			C1254.92,339.08,1248.59,345.87,1246.88,360.2z"/>
		<path d="M1355.66,360.84l11.73-0.06l-0.02-3.78c-0.07-12.93-3.08-19.47-13.23-19.42c-4.57,0.02-7.95,0.44-10.93,1.65l0.03,5.97
			c0.04,7.36-2.72,11.55-11.87,11.6l-12.73,0.07l-0.14-27.64c9.52-5.22,24.21-10.66,44.89-10.77c19.29-0.1,31.07,9.58,31.19,31.46
			l0.22,43.55l13.72-0.07l0.04,7.16c0.06,11.93-4.7,14.14-12.06,14.18l-25.46,0.13l-3.45-14.3c-3.74,6.78-12.44,16.37-28.55,16.45
			c-13.32,0.07-24.52-10.61-24.6-26.32C1314.36,372.78,1328.81,360.97,1355.66,360.84z M1367.53,387.82l-0.06-11.14l-12.33,0.06
			c-7.96,0.04-14.3,3.45-14.26,10.61c0.03,5.57,3.62,8.93,8.8,8.9C1355.84,396.23,1361.99,393.62,1367.53,387.82z"/>
		<path d="M1456.08,319.95l0.04,7.36c0.06,11.34-2.91,13.94-10.87,13.98l-2.39,0.01l16.16,48.64l2.39-0.01l17.05-48.81l-9.54,0.05
			l-0.05-9.15c-0.05-9.94,1.93-12.14,12.07-12.19l37.19-0.19l0.04,7.36c0.06,11.34-2.91,13.94-10.67,13.98l-2.19,0.01l-27.27,73.32
			c-8.55,0.64-26.84,0.73-35.6,0.18l-26.03-73.05l-11.54,0.06l-0.05-9.15c-0.05-9.94,1.93-12.14,11.67-12.19L1456.08,319.95z"/>
		<path d="M1602.92,373.68l-55.68,0.29c2.25,12.32,10.44,19.04,24.16,18.97c11.93-0.06,23.85-3.5,30.78-7.91l0.03,6.16
			c0.07,14.12-17.57,24.55-40.24,24.67c-22.87,0.12-41.64-14.5-41.8-45.33c-0.19-35.99,22.6-53.02,47.06-53.14
			C1598.06,317.23,1607.16,347.41,1602.92,373.68z M1546.96,358.66l31.62-0.16c0.56-6.76-3.49-21.06-14.62-21.01
			C1555.01,337.54,1548.68,344.33,1546.96,358.66z"/>
	</g>
</g>
<g>
	<path d="M390.67,897.78l-19.19-0.45l0.02-1.05c0.09-4.03,0.92-4.9,7.05-4.76l0.92-39.36l-6.94-0.16l0.03-1.13
		c0.09-3.71,1.24-4.81,6.16-4.7l15.73,0.37c10.65,0.25,16.43,4.66,16.24,12.97c-0.12,4.92-2.7,8.57-7.27,10.56
		c5.92,2.16,9.54,6.28,9.4,12.32C412.61,891.27,405.99,898.13,390.67,897.78z M393.07,891.86c7.1,0.17,12.17-2.78,12.31-8.91
		c0.15-6.37-4.72-8.66-13.27-8.86l-5.56-0.13l-0.42,17.74L393.07,891.86z M386.68,868.31l5.56,0.13c7.66,0.18,10.96-2.65,11.09-8.21
		s-4.18-7.6-11.36-7.77l-4.92-0.12L386.68,868.31z"/>
	<path d="M438.85,876.95l4.68,0.11l0.04-1.53c0.15-6.61-1.86-9.97-6.14-10.07c-2.82-0.07-4.93,0.13-7.2,0.72l-0.07,2.98
		c-0.07,2.98-1.23,4.49-4.94,4.4l-1.61-0.04l0.25-10.65c2.21-1.16,9.2-3.25,15.49-3.11c8.15,0.19,11.58,5.27,11.39,13.1l-0.49,20.81
		l6.45,0.15l-0.03,1.13c-0.08,3.55-0.83,4.34-6.64,4.2l-4.92-0.12l-1.97-5.29c-1.76,2.62-6.51,5.9-12,5.77
		c-5.81-0.14-9.82-4.43-9.69-10.15C421.63,881.72,427.63,876.69,438.85,876.95z M443.24,889.32l0.18-7.5l-4.6-0.11
		c-7.66-0.18-10.33,3.39-10.4,6.62c-0.08,3.23,2.15,4.81,5.29,4.89C437.09,893.29,440.6,891.52,443.24,889.32z"/>
	<path d="M462.57,866.62l0.03-1.13c0.08-3.55,0.91-4.34,6.63-4.2l5.4,0.13l1.5,4.88c2.39-2.28,7.39-5.48,15.05-5.3
		c6.53,0.15,9.99,4.27,9.78,13.06l-0.49,20.81l6.05,0.14l-0.03,1.13c-0.08,3.55-1.31,4.33-6.23,4.21l-13.47-0.32l0.03-1.13
		c0.08-3.63,0.83-4.34,6.63-4.2l0.42-17.99c0.16-6.94-1.56-9.16-6.08-9.26c-4.11-0.1-8.91,1.57-11.79,3.84l-0.54,22.99l6.13,0.14
		l-0.03,1.13c-0.08,3.55-1.31,4.33-6.23,4.21l-13.55-0.32l0.03-1.13c0.08-3.63,0.91-4.34,6.63-4.2l0.64-27.34L462.57,866.62z"/>
	<path d="M537.76,863.78c0.54-2.17,1.55-4.16,2.95-5.5c2.31-2.37,6.03-2.52,7.58,0.18l0.93,1.64c-3.51,1.77-6.08,4.54-7.43,7.09
		c2.04,2.31,3.26,5.48,3.18,9.03c-0.19,8.23-7.28,14.68-16.4,14.46c-1.94-0.05-3.78-0.41-5.46-1.1c-1.15,0.86-1.57,1.66-1.59,2.54
		c-0.03,1.45,1.23,2.77,6.7,3.55l5.87,0.86c7,1.05,12.4,4.73,12.25,11.02c-0.16,7.02-6.28,13.09-18.94,12.79
		c-10.65-0.25-15.7-4.97-15.55-11.18c0.1-4.27,2.77-8.09,5.89-10.19c-2.15-1.26-3.16-2.9-3.11-5.08c0.06-2.66,1.65-5.05,4.83-6.42
		c-3.33-2.66-5.41-6.74-5.3-11.5c0.19-8.31,6.87-14.28,16.55-14.06C533.2,861.98,535.6,862.68,537.76,863.78z M528.81,914.89
		c7.02,0.16,10.55-2.66,10.65-6.85c0.09-3.71-2.77-5.63-8.17-6.24l-5.96-0.7c-1.05-0.11-2.01-0.29-2.89-0.47
		c-2.22,1.97-3.41,4.52-3.48,7.5C518.88,911.91,521.55,914.72,528.81,914.89z M521.43,875.5c-0.13,5.73,2.67,9.83,8.24,9.96
		c4.27,0.1,7.91-3.45,8.03-8.45c0.14-5.97-2.67-9.83-8.24-9.96C525.26,866.95,521.55,870.34,521.43,875.5z"/>
	<path d="M584.72,884.24l-24.44-0.57c0.61,8.41,4.96,12.38,11,12.52c5.24,0.12,10.04-1.38,12.75-3.33l-0.05,2.02
		c-0.08,3.23-4.23,8.13-14.47,7.89c-9.84-0.23-16.69-7.57-16.42-18.94c0.34-14.44,8.08-21.2,18.49-20.95
		C580.14,863.07,585.46,869.9,584.72,884.24z M560.4,878.75l17.5,0.41c-0.24-6.95-3.22-10.73-7.98-10.84
		C564.93,868.21,561.21,871.75,560.4,878.75z"/>
	<path d="M592.08,869.65l0.03-1.13c0.08-3.55,0.91-4.34,6.63-4.2l6.21,0.15l0.69,4.94c2.08-2.7,6.91-5.57,11.67-5.46
		c2.1,0.05,3.95,0.33,5.47,0.77l-0.23,10c-0.07,2.98-1.88,4.47-5.19,4.4l-1.37-0.03l0.21-8.87c-4.11-0.18-8.42,1.34-10.67,4.11
		l-0.54,22.99l8.47,0.2l-0.03,1.13c-0.08,3.55-1.31,4.33-6.23,4.21l-15.89-0.37l0.03-1.13c0.08-3.63,0.91-4.34,6.63-4.2l0.64-27.34
		L592.08,869.65z"/>
	<path d="M641.98,851.05l0.03-1.13c0.08-3.55,0.91-4.34,6.63-4.2l7.9,0.19l-0.93,5.3l-0.45,19.28c1.49-1.74,6.58-5.49,13.92-5.32
		c8.31,0.19,13.25,6.28,12.96,18.46c-0.33,14.19-9.38,21.57-19.38,21.33c-7.26-0.17-12.06-2.06-16.11-4.73l0.93-5.22l1.03-43.79
		L641.98,851.05z M655.05,875.48l-0.49,21.13c1.99,1.34,4.71,2.13,8.99,2.23c5.81,0.14,10.84-4.43,11.07-14.59
		c0.2-8.39-2.77-12.49-8.26-12.62C662.16,871.53,657.84,873.21,655.05,875.48z"/>
	<path d="M693.94,923.84c-4.27-0.1-6.31-2.57-5.38-7.87c1.27,1,3.03,1.44,4.89,1.49c2.18,0.05,4.24-1.84,5.69-5.11l3.24-7.43
		l-12.95-32.98l-4.19-0.1l0.03-1.13c0.08-3.55,0.91-4.34,6.63-4.2l10.65,0.25l-0.03,1.13c-0.09,3.71-1.15,4.25-5.18,4.24l9.13,23.45
		l10.06-23.01l-5.4-0.13l0.03-1.13c0.08-3.55,0.91-4.34,6.64-4.2l10.65,0.25l-0.03,1.13c-0.08,3.55-1.07,4.17-4.7,4.25l-18.47,40.88
		C702.17,920.4,698.21,923.94,693.94,923.84z"/>
	<path d="M768.9,906.63l-19.2-0.45l0.02-1.05c0.09-4.03,0.92-4.9,7.05-4.76l0.92-39.36l-6.94-0.16l0.03-1.13
		c0.09-3.71,1.24-4.81,6.16-4.7l15.73,0.37c10.65,0.25,16.43,4.66,16.24,12.97c-0.12,4.92-2.7,8.57-7.27,10.56
		c5.92,2.16,9.54,6.28,9.4,12.32C790.84,900.13,784.22,906.99,768.9,906.63z M771.3,900.72c7.1,0.17,12.17-2.78,12.31-8.91
		c0.15-6.37-4.72-8.66-13.27-8.86l-5.56-0.13l-0.42,17.74L771.3,900.72z M764.91,877.17l5.56,0.13c7.66,0.18,10.96-2.65,11.09-8.21
		s-4.18-7.6-11.36-7.77l-4.92-0.12L764.91,877.17z"/>
	<path d="M835.25,888.42c-0.27,11.69-8.38,20.38-19.35,20.12c-9.6-0.22-17.08-8.15-16.8-20.16c0.27-11.69,8.05-19.99,19.34-19.72
		C827.56,868.87,835.53,876.4,835.25,888.42z M806.21,887.82c-0.19,8.06,3.7,14.45,11.2,14.63c5.97,0.14,10.53-5.16,10.72-13.47
		c0.19-8.07-3.79-14.05-11.29-14.22C810.96,874.61,806.41,879.51,806.21,887.82z"/>
	<path d="M842.57,875.51l0.03-1.13c0.08-3.55,0.91-4.34,6.64-4.2l6.21,0.15l0.69,4.94c2.08-2.7,6.91-5.57,11.67-5.46
		c2.1,0.05,3.95,0.33,5.47,0.77l-0.23,10c-0.07,2.98-1.88,4.47-5.19,4.4l-1.37-0.03l0.21-8.87c-4.11-0.18-8.42,1.34-10.67,4.11
		l-0.54,22.99l8.47,0.2l-0.03,1.13c-0.08,3.55-1.31,4.33-6.23,4.21l-15.89-0.37l0.03-1.13c0.08-3.63,0.91-4.34,6.64-4.2l0.64-27.34
		L842.57,875.51z"/>
	<path d="M888.75,908.87c-0.32,13.47-3.58,18.4-8.6,19.08c-2.92,0.5-4.27-0.42-4.78-2.77l-0.29-1.46l0.89-0.22
		c3.25-0.73,5.41-3.5,5.64-13.26l0.79-33.79l-6.45-0.15l0.03-1.13c0.08-3.55,0.83-4.34,6.55-4.2l7.9,0.19l-0.93,5.3L888.75,908.87z
		 M886.47,865c-2.9-0.07-4.87-2.13-4.8-5.2c0.07-2.98,2.13-5.03,5.04-4.97c2.98,0.07,5.03,2.22,4.96,5.2
		C891.6,863.11,889.45,865.07,886.47,865z"/>
	<path d="M916.67,888.14l4.68,0.11l0.04-1.53c0.15-6.61-1.86-9.97-6.14-10.07c-2.82-0.07-4.93,0.13-7.2,0.72l-0.07,2.98
		c-0.07,2.98-1.23,4.49-4.94,4.4l-1.61-0.04l0.25-10.65c2.21-1.16,9.2-3.25,15.49-3.11c8.15,0.19,11.58,5.27,11.39,13.1l-0.49,20.81
		l6.45,0.15l-0.03,1.13c-0.08,3.55-0.83,4.34-6.63,4.2l-4.92-0.12l-1.97-5.29c-1.76,2.62-6.51,5.9-12,5.77
		c-5.81-0.14-9.82-4.43-9.69-10.15C899.45,892.91,905.46,887.88,916.67,888.14z M921.06,900.51l0.18-7.5l-4.6-0.11
		c-7.66-0.18-10.33,3.39-10.4,6.62c-0.08,3.23,2.15,4.81,5.29,4.89C914.92,904.48,918.43,902.71,921.06,900.51z"/>
	<path d="M940.39,877.81l0.03-1.13c0.08-3.55,0.91-4.34,6.64-4.2l5.4,0.13l1.5,4.88c2.39-2.28,7.39-5.48,15.05-5.3
		c6.53,0.15,9.99,4.27,9.78,13.06l-0.49,20.81l6.05,0.14l-0.03,1.13c-0.08,3.55-1.31,4.33-6.23,4.21l-13.47-0.32l0.03-1.13
		c0.08-3.63,0.83-4.34,6.64-4.2l0.42-17.99c0.16-6.94-1.56-9.16-6.08-9.26c-4.11-0.1-8.91,1.57-11.79,3.84l-0.54,22.99l6.13,0.14
		l-0.03,1.13c-0.08,3.55-1.31,4.33-6.23,4.21l-13.55-0.32l0.03-1.13c0.08-3.63,0.91-4.34,6.64-4.2l0.64-27.34L940.39,877.81z"/>
	<path d="M1034.36,906.88l-0.03,1.21c-0.1,4.36-1.24,4.73-6.08,4.62l-18.55-0.43l0.02-1.05c0.09-4.03,0.92-4.9,7.05-4.76l0.92-39.36
		l-6.94-0.16l0.03-1.13c0.09-3.71,1.24-4.81,6.16-4.7l14.84,0.35c12.18,0.29,18.74,6.09,18.52,15.6
		c-0.22,9.36-6.92,16.22-22.16,15.86l-3.47-0.08l-0.32,13.79L1034.36,906.88z M1025.28,867.29l-0.46,19.84l5.73,0.13
		c7.42,0.17,12.17-2.86,12.32-9.4c0.16-6.94-4.12-10.26-13.23-10.48L1025.28,867.29z"/>
	<path d="M1073.05,891.81l4.68,0.11l0.04-1.53c0.15-6.61-1.87-9.97-6.14-10.07c-2.82-0.07-4.92,0.13-7.2,0.72l-0.07,2.98
		c-0.07,2.98-1.24,4.49-4.95,4.4l-1.61-0.04l0.25-10.65c2.21-1.16,9.2-3.25,15.49-3.11c8.15,0.19,11.58,5.27,11.39,13.1l-0.49,20.81
		l6.45,0.15l-0.03,1.13c-0.08,3.55-0.83,4.34-6.63,4.2l-4.92-0.12l-1.97-5.29c-1.76,2.62-6.51,5.9-12,5.77
		c-5.81-0.14-9.82-4.43-9.69-10.15C1055.83,896.57,1061.83,891.54,1073.05,891.81z M1077.44,904.17l0.18-7.5l-4.6-0.11
		c-7.66-0.18-10.33,3.39-10.4,6.62c-0.08,3.23,2.15,4.81,5.29,4.89C1071.29,908.15,1074.8,906.37,1077.44,904.17z"/>
	<path d="M1097.01,881.47l-4.52-0.11l0.03-1.13c0.08-3.55,0.91-4.34,6.63-4.2l10.65,0.25l-0.03,1.13c-0.09,4.03-1.31,4.33-5.67,4.22
		l8.77,25.14l0.64,0.02l9.54-24.71l-5.89-0.14l0.03-1.13c0.08-3.55,0.91-4.34,6.63-4.2l10.65,0.25l-0.03,1.13
		c-0.08,3.47-0.98,4.17-4.46,4.25l-13.83,32.52c-2.51,0.18-4.28,0.14-7.18-0.17l-12.22-33.05L1097.01,881.47z"/>
	<path d="M1149.49,862.77l-1.11,47.26l6.05,0.14l-0.03,1.13c-0.08,3.55-1.31,4.33-6.23,4.21l-13.47-0.32l0.02-0.73
		c0.09-4.03,0.84-4.74,6.56-4.61l1.1-47.1l-6.45-0.15l0.03-1.13c0.08-3.55,0.83-4.34,6.55-4.2l7.9,0.19L1149.49,862.77z"/>
	<path d="M1192.31,898.47l-24.44-0.57c0.61,8.41,4.95,12.38,11,12.52c5.24,0.12,10.04-1.38,12.75-3.33l-0.05,2.02
		c-0.08,3.23-4.23,8.13-14.47,7.89c-9.84-0.23-16.69-7.57-16.42-18.94c0.34-14.44,8.08-21.2,18.49-20.95
		C1187.72,877.3,1193.05,884.12,1192.31,898.47z M1167.99,892.98l17.5,0.41c-0.24-6.95-3.22-10.73-7.98-10.84
		C1172.51,882.43,1168.8,885.98,1167.99,892.98z"/>
	<path d="M1233.41,917.91c-3.39-0.08-6.06-3.21-10.5-10.01l-5.45-8.36l-6.37-0.15l-0.28,12.1l6.05,0.14l-0.03,1.13
		c-0.08,3.55-1.31,4.33-6.23,4.21l-13.55-0.32l0.02-0.73c0.09-4.03,0.92-4.74,6.65-4.61l1.1-47.1l-6.53-0.15l0.03-1.13
		c0.08-3.55,0.91-4.34,6.64-4.2l7.9,0.19l-0.93,5.3l-0.69,29.52l6.94,0.16l6.27-9.38l-4.68-0.11l0.03-1.13
		c0.08-3.63,0.91-4.42,6.64-4.28l12.5,0.29l-0.03,1.13c-0.08,3.63-1.31,4.41-6.23,4.29l-0.73-0.02l-8.19,11.91l5.77,8.77
		c3.66,5.57,6.06,6.68,8.23,6.73l1.29,0.03C1238.87,915.62,1236.96,918,1233.41,917.91z"/>
</g>
<g>
	<g>
		<path d="M1446.75,1063.72c113.76,14.78,205.94-55,202.95-129.16c-2.77-73.25-79.97-147.37-169.72-148.16
			c-45.72-0.23-88.78,19.86-124.38,44.65c-35.36,25.26-63.26,55.22-72.97,85.52c-9.64,30.48,1.8,60.14,31.36,87.88
			C1343.29,1031.56,1390.71,1056.77,1446.75,1063.72"/>
	</g>
	<g>
		<path class="st0" d="M1317.62,921.34l-0.07-1.93c1.67-2.83,6.85-8.48,10.72-10.89l2.27-0.08l0.23,6.72l15.12-0.52l0.04,1.09
			c0.13,3.86-1.1,4.66-6.22,4.84l-8.65,0.3l0.62,17.81c0.21,6.13,2.66,8.91,6.53,8.77c3.78-0.13,5.85-1.21,8.38-3.23l0.07,2.1
			c0.09,2.69-2.84,7.84-10.49,8.1c-6.97,0.24-11.54-5.32-11.8-12.8l-0.71-20.5L1317.62,921.34z"/>
		<path class="st0" d="M1357.28,961.34l1.68-0.06l-2.18-62.76l-8.4,0.29l-0.04-1.18c-0.15-4.2,0.67-5.07,6.55-5.27l10-0.35
			l-0.65,5.49l2.23,64.27c0.13,3.61-1.41,5.52-5.1,5.64l-10.59,0.37l-0.04-1.18C1350.59,962.42,1351.4,961.55,1357.28,961.34z"/>
		<path class="st0" d="M1376.72,917.94l-0.04-1.18c-0.13-3.7,0.68-4.57,6.65-4.77l5.63-0.2l1.86,4.98
			c2.35-2.52,7.36-6.14,15.34-6.42c4.87-0.17,8.23,1.9,9.9,6.47l0.81-0.95c2.27-2.52,7.36-6.14,15.25-6.42
			c6.89-0.24,10.73,3.83,11.05,12.99l0.75,21.67l6.3-0.22l0.04,1.18c0.13,3.7-1.1,4.58-6.23,4.76l-14.03,0.49l-0.04-1.18
			c-0.13-3.78,0.6-4.56,6.56-4.77l-0.65-18.73c-0.25-7.22-2.09-9.43-6.88-9.27c-4.28,0.15-9.09,2.17-11.95,4.7l-0.08,0.09
			c0.11,0.67,0.13,1.43,0.16,2.18l0.75,21.67l6.3-0.22l0.04,1.18c0.13,3.7-1.1,4.58-6.23,4.76l-14.03,0.49l-0.04-1.18
			c-0.13-3.78,0.6-4.56,6.65-4.77l-0.65-18.73c-0.25-7.22-2.18-9.43-6.88-9.27c-4.28,0.15-9.18,2.17-12.03,4.71l0.83,23.94
			l6.38-0.22l0.04,1.18c0.13,3.7-1.1,4.58-6.23,4.76l-14.11,0.49l-0.04-1.18c-0.13-3.78,0.68-4.57,6.65-4.77l-0.99-28.48
			L1376.72,917.94z"/>
		<path class="st0" d="M1480.74,948.57l-24.03,0.83l-0.1-3.02c-0.07-2.1,0.93-4.74,4.7-7.48l5.99-4.41
			c7.87-5.82,11.15-10.82,11-15.1c-0.13-3.7-2.96-5.45-7-5.31c-3.61,0.13-5.86,0.79-8.01,1.88l0.17,4.96
			c0.1,2.94-0.53,4.22-3.72,4.33l-2.69,0.09l-0.43-12.35c3.04-2.21,8.25-4.66,15.89-4.93c8.65-0.3,13.08,3.75,13.3,10.05
			c0.25,7.06-4.16,13.43-14.19,20.17l-6.08,4.08l0.03,0.84l21.38-1.92l0.08,2.18C1487.15,946.91,1485.94,948.39,1480.74,948.57z"/>
		<path class="st0" d="M1534.13,926.11c0.44,12.77-7.74,21.72-20.18,22.15c-11.68,0.41-19.53-7.65-19.95-19.92
			c-0.44-12.77,7.42-21.29,20.19-21.73C1525.36,906.23,1533.7,913.84,1534.13,926.11z M1501.43,926.74
			c0.32,9.32,5.42,15.62,12.9,15.37c7.81-0.27,12.66-5.99,12.37-14.39c-0.34-9.91-5.5-15.54-12.98-15.28
			C1505.99,912.7,1501.11,917.5,1501.43,926.74z"/>
		<path class="st0" d="M1565.93,945.61l-24.03,0.83l-0.1-3.02c-0.07-2.1,0.93-4.74,4.7-7.48l5.99-4.41
			c7.87-5.82,11.15-10.82,11-15.1c-0.13-3.7-2.96-5.45-7-5.31c-3.61,0.13-5.86,0.79-8.01,1.88l0.17,4.96
			c0.1,2.94-0.53,4.22-3.72,4.33l-2.69,0.09l-0.43-12.35c3.04-2.21,8.25-4.66,15.89-4.93c8.65-0.3,13.08,3.75,13.3,10.05
			c0.25,7.06-4.16,13.43-14.19,20.17l-6.08,4.08l0.03,0.84l21.38-1.92l0.08,2.18C1572.35,943.96,1571.14,945.43,1565.93,945.61z"/>
		<path class="st0" d="M1603.57,944.31l-24.03,0.83l-0.1-3.02c-0.07-2.1,0.93-4.74,4.7-7.48l5.99-4.41
			c7.87-5.82,11.15-10.82,11-15.1c-0.13-3.7-2.96-5.45-7-5.31c-3.61,0.13-5.86,0.79-8.01,1.88l0.17,4.96
			c0.1,2.94-0.53,4.22-3.72,4.33l-2.69,0.09l-0.43-12.35c3.04-2.21,8.25-4.66,15.89-4.93c8.65-0.3,13.08,3.75,13.3,10.05
			c0.25,7.06-4.16,13.43-14.19,20.17l-6.08,4.08l0.03,0.84l21.38-1.92l0.08,2.18C1609.98,942.65,1608.77,944.13,1603.57,944.31z"/>
	</g>
</g>
</svg>
