<?xml version="1.0" encoding="UTF-8"?><svg id="Layer_1" xmlns="http://www.w3.org/2000/svg" xmlns:xlink="http://www.w3.org/1999/xlink" viewBox="0 0 700.08 1200"><defs><style>.cls-1{fill:none;}.cls-2{fill:url(#linear-gradient);}.cls-3{clip-path:url(#clippath);}.cls-4{fill:#fff;}</style><linearGradient id="linear-gradient" x1="349.28" y1="1294.44" x2="349.28" y2="-63.83" gradientUnits="userSpaceOnUse"><stop offset="0" stop-color="#fff"/><stop offset=".08" stop-color="#dad9d9"/><stop offset=".21" stop-color="#a9a8a8"/><stop offset=".33" stop-color="#807e7e"/><stop offset=".46" stop-color="#5e5b5c"/><stop offset=".59" stop-color="#444141"/><stop offset=".72" stop-color="#312e2f"/><stop offset=".86" stop-color="#262223"/><stop offset="1" stop-color="#231f20"/></linearGradient><clipPath id="clippath"><rect class="cls-1" x="130.06" y="196.12" width="439.95" height="811.06"/></clipPath></defs><rect class="cls-2" y="1.65" width="698.56" height="1196.7"/><g class="cls-3"><path class="cls-4" d="m315.17,196.12c44.19,0,83.22,4.6,117.09,13.78,33.86,9.19,60.4,24.4,79.64,45.63,19.22,21.24,28.84,49.37,28.84,84.38s-9.47,65.86-28.41,92.55c-18.94,26.69-49.37,44.64-91.26,53.81v3.44c25.25,2.88,49.36,10.05,72.32,21.52,22.95,11.49,41.46,27.85,55.53,49.07,14.06,21.24,21.09,47.65,21.09,79.21s-8.61,60.13-25.83,83.94c-17.22,23.83-42.62,42.34-76.2,55.53-33.58,13.21-74.77,19.8-123.55,19.8h-92.98v-64.57h85.24c42.47,0,77.06-7.32,103.75-21.95,26.69-14.64,40.04-40.6,40.04-77.92,0-28.12-7.9-50.65-23.68-67.59-15.79-16.92-36.03-29.12-60.7-36.59-24.68-7.45-51.09-11.19-79.21-11.19v-60.27c45.33-.57,79.64-10.18,102.89-28.84,23.25-18.65,34.87-44.04,34.87-76.2,0-33.86-11.92-57.82-35.73-71.89-23.83-14.06-56.97-21.09-99.44-21.09h-52.52v-64.57h48.21Zm-185.11,602.68c14.92-11.47,26.39-22.67,34.44-33.58,8.03-10.9,13.78-22.38,17.22-34.44,3.44-12.05,5.6-25.25,6.46-39.61.86-14.34,1.29-30.99,1.29-49.94v-290.15c0-17.22-.58-33.15-1.72-47.78-1.16-14.64-3.59-28.26-7.32-40.9-3.74-12.62-9.62-24.39-17.65-35.3-8.04-10.9-18.94-21.23-32.72-30.99h136.89v602.68h-136.89Z"/><path class="cls-4" d="m523.42,986.33c.47-.93,1.19-1.72,2.16-2.38.97-.66,1.99-.99,3.08-.99,1.3,0,2.33.27,3.1.82.77.55,1.33,1.33,1.67,2.34.34,1.02.51,2.24.51,3.65v4.26c0,.86.02,1.54.05,2.02.03.48.12.84.28,1.08.15.24.4.42.74.54.34.12.83.26,1.46.4v1.23h-7.92v-1.23c.66-.14,1.17-.28,1.53-.4.36-.12.62-.3.77-.54.15-.24.25-.6.28-1.08.03-.48.05-1.16.05-2.02v-4.1c0-.64-.08-1.28-.25-1.93-.17-.65-.5-1.19-1-1.63-.5-.44-1.25-.66-2.24-.66-.78,0-1.56.22-2.33.66-.77.44-1.45,1.07-2.05,1.9v-1.94h.12Zm-5.34,11.75c.62-.14,1.1-.28,1.43-.4.34-.12.58-.3.73-.54.14-.24.23-.6.26-1.08s.05-1.16.05-2.02v-11.04c0-1.15-.01-2.05-.05-2.68-.03-.64-.12-1.1-.28-1.4-.15-.3-.41-.5-.76-.6-.35-.1-.85-.21-1.51-.31v-1.17l5.37-.65v17.86c0,.86.02,1.54.05,2.02.03.48.12.84.26,1.08.14.24.39.42.74.54.35.12.83.26,1.45.4v1.23h-7.74v-1.23Zm-7.62-14.19c.68-.25,1.26-.46,1.74-.65.48-.18.97-.37,1.46-.55.49-.19,1.08-.4,1.76-.65v2.96h-5.3l.34-1.11Zm-3.36,9.47c-.88.31-1.53.6-1.93.86-.4.27-.6.6-.6.99,0,.41.17.69.52.85.35.15.96.26,1.82.32l2.44.18c1.95.14,3.53.62,4.72,1.42,1.19.8,1.79,1.96,1.79,3.48,0,1.05-.31,2-.94,2.87-.63.86-1.56,1.55-2.81,2.07-1.24.51-2.81.77-4.7.77-1.19,0-2.3-.14-3.33-.43-1.03-.29-1.86-.74-2.48-1.34-.63-.61-.94-1.39-.94-2.36,0-.62.15-1.2.45-1.76.3-.56.7-1.05,1.2-1.48.5-.43,1.07-.78,1.71-1.03s1.3-.4,2.01-.42l1.08.28c-1.25.29-2.16.78-2.73,1.46-.57.69-.85,1.36-.85,2.02,0,.72.24,1.3.71,1.73.47.43,1.08.74,1.82.94.74.2,1.51.29,2.31.29.84,0,1.6-.13,2.27-.39.67-.26,1.19-.62,1.57-1.09.38-.47.57-1.03.57-1.66,0-1.01-.43-1.76-1.28-2.27-.85-.5-2.02-.78-3.5-.82l-2.19-.06c-.62-.02-1.23-.13-1.84-.34-.61-.2-1.1-.5-1.5-.89-.39-.39-.59-.88-.59-1.48,0-.86.35-1.55,1.05-2.05.7-.5,1.64-.87,2.84-1.1l1.33.43Zm2.93-2.2c.57-.67.86-1.56.86-2.67,0-1.19-.32-2.13-.97-2.81-.65-.68-1.4-1.02-2.27-1.02-.68,0-1.25.16-1.71.49-.46.33-.82.78-1.06,1.34-.25.57-.37,1.19-.37,1.87,0,1.19.33,2.12.99,2.79.66.67,1.41,1,2.25,1,.95,0,1.71-.33,2.28-1m-5.61,2.08c-.93-.45-1.63-1.08-2.11-1.9-.48-.81-.73-1.73-.73-2.76,0-1.09.28-2.06.85-2.9.57-.84,1.33-1.51,2.3-1.99.97-.48,2.04-.73,3.21-.73,1.09,0,2.01.18,2.76.52.75.35,1.36.81,1.82,1.37.46.57.8,1.17,1,1.82.21.65.31,1.28.31,1.9,0,1.13-.29,2.09-.88,2.88-.59.79-1.35,1.4-2.28,1.82-.94.42-1.92.63-2.95.63-1.27,0-2.38-.23-3.3-.68m-10.64-7.25c.41-.66.91-1.21,1.5-1.65.59-.44,1.2-.78,1.85-1.02.65-.24,1.26-.36,1.83-.36h.31v3.33h-1.68c-.54,0-1.02.03-1.43.09-.62.1-1.19.36-1.71.77-.52.41-.79,1.07-.79,1.97v-3.15h.12Zm-5.37,12.09c.62-.14,1.1-.28,1.43-.4.34-.12.58-.3.73-.54.14-.24.23-.6.26-1.08s.05-1.16.05-2.02v-3.95c0-1.07-.02-1.9-.05-2.5-.03-.6-.13-1.04-.29-1.34-.16-.3-.43-.52-.8-.66-.37-.14-.89-.31-1.57-.49v-1.17l5.49-.65v10.76c0,.86.01,1.54.05,2.02s.12.84.26,1.08c.14.24.39.42.74.54.35.12.83.26,1.45.4v1.23h-7.74v-1.23Zm-13.91-9h7.71c0-.9-.13-1.67-.4-2.3-.27-.63-.64-1.1-1.13-1.43-.48-.33-1.05-.49-1.71-.49-.78,0-1.5.21-2.14.63-.65.42-1.17,1.06-1.56,1.93-.39.86-.59,1.96-.59,3.3s.23,2.42.69,3.38c.46.96,1.1,1.69,1.91,2.2.81.52,1.74.77,2.79.77.8,0,1.6-.18,2.41-.54.8-.36,1.57-.83,2.31-1.4l.62,1.36c-.31.49-.77.98-1.39,1.46-.62.48-1.35.88-2.19,1.2-.84.32-1.77.48-2.78.48-1.46,0-2.74-.32-3.85-.97-1.11-.65-1.97-1.56-2.59-2.74-.62-1.18-.92-2.59-.92-4.21,0-1.71.33-3.21,1-4.52.67-1.31,1.57-2.33,2.71-3.08,1.14-.75,2.42-1.13,3.84-1.13,1.29,0,2.42.29,3.38.86.96.58,1.68,1.45,2.16,2.62.48,1.17.69,2.66.63,4.47h-10.86l-.06-1.85Zm-14.94-5.32c.93-.52,1.94-.79,3.01-.79,1.42,0,2.62.38,3.59,1.13.98.75,1.71,1.71,2.2,2.88.49,1.17.74,2.4.74,3.67,0,1.77-.38,3.33-1.16,4.67-.77,1.35-1.85,2.4-3.22,3.16-1.38.76-2.97,1.14-4.78,1.14-.68,0-1.34-.03-1.99-.08-.65-.05-1.27-.12-1.88-.22-.61-.09-1.17-.2-1.68-.32v-16.01c0-1.15-.01-2.05-.05-2.68-.03-.64-.12-1.1-.28-1.4-.15-.3-.41-.5-.76-.6-.35-.1-.85-.21-1.51-.31v-1.17l5.37-.65v9.84h.12c.57-.99,1.33-1.74,2.27-2.27m-.26,2.41c-.74.3-1.45.79-2.13,1.46v8.26c.35.62.85,1.06,1.51,1.33.66.27,1.34.4,2.03.4,1.03,0,1.94-.27,2.75-.8.8-.53,1.43-1.28,1.88-2.24.45-.96.68-2.07.68-3.35,0-1.15-.2-2.14-.6-2.96-.4-.82-.95-1.45-1.65-1.9-.7-.44-1.51-.66-2.44-.66-.62,0-1.29.15-2.04.45m-27.41,11.92c.62-.14,1.09-.28,1.43-.4.34-.12.58-.3.72-.54.14-.24.23-.6.26-1.08.03-.48.05-1.16.05-2.02v-3.95c0-1.07-.02-1.9-.05-2.5-.03-.6-.13-1.04-.29-1.34-.16-.3-.43-.52-.8-.66-.37-.14-.89-.31-1.57-.49v-1.17l5.49-.65v10.76c0,.86.01,1.54.05,2.02s.12.84.26,1.08c.14.24.39.42.74.54.35.12.83.26,1.45.4v1.23h-7.74v-1.23Zm5.33-11.75c.47-.93,1.19-1.72,2.16-2.38.97-.66,1.99-.99,3.08-.99,1.29,0,2.33.27,3.1.82.77.55,1.33,1.33,1.67,2.34.34,1.02.51,2.24.51,3.65v4.26c0,.86.02,1.54.05,2.02.03.48.12.84.28,1.08.15.24.4.42.74.54.34.12.83.26,1.46.4v1.23h-7.89v-1.23c.66-.14,1.16-.28,1.51-.4.35-.12.6-.3.75-.54.15-.24.25-.6.28-1.08s.05-1.16.05-2.02v-4.1c0-.91-.13-1.68-.4-2.31-.27-.64-.66-1.11-1.17-1.43-.51-.32-1.15-.48-1.91-.48s-1.56.22-2.33.66c-.77.44-1.46,1.07-2.05,1.9v-1.94h.12Zm-19.24,2.74h7.71c0-.9-.13-1.67-.4-2.3-.27-.63-.64-1.1-1.12-1.43-.48-.33-1.05-.49-1.71-.49-.78,0-1.49.21-2.14.63-.65.42-1.17,1.06-1.56,1.93-.39.86-.59,1.96-.59,3.3s.23,2.42.69,3.38c.46.96,1.1,1.69,1.91,2.2.81.52,1.74.77,2.79.77.8,0,1.6-.18,2.41-.54.8-.36,1.57-.83,2.31-1.4l.62,1.36c-.31.49-.77.98-1.39,1.46-.62.48-1.35.88-2.19,1.2-.84.32-1.77.48-2.77.48-1.46,0-2.74-.32-3.86-.97-1.11-.65-1.97-1.56-2.59-2.74-.62-1.18-.93-2.59-.93-4.21,0-1.71.33-3.21,1-4.52.67-1.31,1.57-2.33,2.71-3.08,1.14-.75,2.42-1.13,3.84-1.13,1.29,0,2.42.29,3.38.86s1.68,1.45,2.16,2.62c.48,1.17.69,2.66.63,4.47h-10.86l-.06-1.85Zm-9.78-3.08c.41-.66.91-1.21,1.5-1.65.59-.44,1.2-.78,1.85-1.02.65-.24,1.26-.36,1.84-.36h.31v3.33h-1.68c-.55,0-1.02.03-1.43.09-.62.1-1.19.36-1.71.77-.52.41-.79,1.07-.79,1.97v-3.15h.12Zm-5.37,12.09c.62-.14,1.1-.28,1.43-.4.34-.12.58-.3.73-.54.14-.24.23-.6.26-1.08s.05-1.16.05-2.02v-3.95c0-1.07-.01-1.9-.05-2.5-.03-.6-.13-1.04-.29-1.34-.17-.3-.43-.52-.8-.66-.37-.14-.89-.31-1.57-.49v-1.17l5.49-.65v10.76c0,.86.02,1.54.05,2.02.03.48.12.84.26,1.08.14.24.39.42.74.54.35.12.83.26,1.45.4v1.23h-7.74v-1.23Zm-13.91-9h7.71c0-.9-.13-1.67-.4-2.3-.27-.63-.64-1.1-1.12-1.43-.48-.33-1.05-.49-1.71-.49-.78,0-1.5.21-2.14.63-.65.42-1.17,1.06-1.56,1.93-.39.86-.59,1.96-.59,3.3s.23,2.42.69,3.38c.46.96,1.1,1.69,1.91,2.2.81.52,1.74.77,2.79.77.8,0,1.6-.18,2.41-.54.8-.36,1.57-.83,2.31-1.4l.62,1.36c-.31.49-.77.98-1.39,1.46-.62.48-1.35.88-2.19,1.2-.84.32-1.77.48-2.77.48-1.46,0-2.74-.32-3.85-.97-1.11-.65-1.97-1.56-2.59-2.74-.62-1.18-.93-2.59-.93-4.21,0-1.71.33-3.21,1-4.52.67-1.31,1.57-2.33,2.71-3.08,1.14-.75,2.42-1.13,3.84-1.13,1.3,0,2.42.29,3.38.86s1.68,1.45,2.16,2.62c.48,1.17.69,2.66.63,4.47h-10.85l-.06-1.85Zm-15.65-5.7c1.12-.27,2.2-.4,3.25-.4,1.48,0,2.58.25,3.3.74.72.49,1.2,1.21,1.43,2.16.24.95.35,2.12.35,3.52v3.48c0,1.11.01,1.97.05,2.57.03.61.12,1.05.26,1.33.14.28.38.46.71.56.33.09.79.18,1.39.26v1.17l-5.03.86c-.02-.51-.03-.93-.03-1.26s-.01-.75-.03-1.27h-.15c-.27.37-.6.75-.99,1.14-.39.39-.87.72-1.45.99-.58.27-1.25.4-2.01.4-.93,0-1.72-.19-2.39-.57-.67-.38-1.19-.89-1.56-1.54-.37-.65-.55-1.38-.55-2.2,0-1.15.32-2.03.96-2.62.64-.6,1.62-1.05,2.95-1.36,1.33-.31,3.02-.6,5.07-.86,0-1.19-.08-2.22-.25-3.07-.16-.85-.5-1.51-1-1.96-.5-.45-1.27-.67-2.3-.65-.58,0-1.03.03-1.36.08-.33.05-.58.19-.75.42-.18.23-.32.6-.45,1.11-.12.51-.28,1.24-.46,2.19h-1.17l-.62-4.47c.76-.23,1.7-.47,2.82-.74m2.14,9.42c-.86.24-1.49.52-1.86.85-.38.33-.57.79-.57,1.39,0,.72.23,1.29.69,1.71.46.42,1.04.63,1.74.63.74,0,1.41-.22,2.02-.66.61-.44,1.08-.92,1.43-1.43v-3.27c-1.44.29-2.59.55-3.45.79m-25.01-9.27c-.21-.51-.4-.99-.57-1.42-.17-.43-.36-.82-.55-1.17-.2-.35-.43-.66-.71-.92-.28-.27-.62-.49-1.02-.66-.4-.18-.9-.3-1.49-.39v-1.23h9.16v1.23c-.58.08-1.03.21-1.37.39-.34.17-.57.39-.71.65-.13.26-.2.56-.18.9,0,.34.07.71.17,1.12.1.41.24.85.4,1.33l4.69,11.9h-.22l4.23-11.97c.18-.58.31-1.08.38-1.53.07-.44.08-.83.02-1.16-.06-.33-.19-.6-.39-.82-.19-.22-.46-.39-.79-.52-.33-.13-.74-.23-1.23-.29v-1.23h8.17v1.23c-.78.17-1.39.4-1.83.69-.44.3-.81.74-1.11,1.31-.3.58-.64,1.35-1.03,2.31l-5.86,16.19h-2.04l-6.11-15.94Zm-30.25,14.56c.62-.14,1.1-.28,1.43-.4.34-.12.58-.3.73-.54.14-.24.23-.6.26-1.08s.05-1.16.05-2.02v-3.95c0-1.07-.01-1.9-.05-2.5-.03-.6-.13-1.04-.29-1.34-.17-.3-.43-.52-.8-.66-.37-.14-.89-.31-1.57-.49v-1.17l5.49-.65v10.76c0,.86.01,1.54.05,2.02.03.48.12.84.26,1.08.14.24.39.42.74.54.35.12.83.26,1.45.4v1.23h-7.74v-1.23Zm5.34-11.75c.47-.93,1.19-1.72,2.16-2.38.97-.66,1.99-.99,3.08-.99,1.29,0,2.33.27,3.1.82.77.55,1.33,1.33,1.67,2.34.34,1.02.51,2.24.51,3.65v4.26c0,.86.01,1.54.05,2.02s.12.84.28,1.08c.15.24.4.42.74.54.34.12.83.26,1.46.4v1.23h-7.9v-1.23c.66-.14,1.16-.28,1.51-.4.35-.12.6-.3.76-.54.15-.24.25-.6.28-1.08.03-.48.05-1.16.05-2.02v-4.1c0-.91-.13-1.68-.4-2.31-.27-.64-.66-1.11-1.17-1.43-.51-.32-1.15-.48-1.91-.48s-1.56.22-2.33.66c-.77.44-1.45,1.07-2.05,1.9v-1.94h.12Zm-18.36-2.96c1.12-.27,2.21-.4,3.25-.4,1.48,0,2.58.25,3.3.74.72.49,1.2,1.21,1.43,2.16.24.95.35,2.12.35,3.52v3.48c0,1.11.01,1.97.05,2.57.03.61.12,1.05.26,1.33.14.28.38.46.71.56.33.09.79.18,1.39.26v1.17l-5.03.86c-.02-.51-.03-.93-.03-1.26s-.01-.75-.03-1.27h-.15c-.27.37-.6.75-.99,1.14-.39.39-.87.72-1.45.99-.57.27-1.24.4-2,.4-.93,0-1.72-.19-2.39-.57-.67-.38-1.19-.89-1.56-1.54-.37-.65-.56-1.38-.56-2.2,0-1.15.32-2.03.96-2.62.64-.6,1.62-1.05,2.95-1.36,1.33-.31,3.02-.6,5.07-.86,0-1.19-.08-2.22-.25-3.07-.17-.85-.5-1.51-1-1.96-.5-.45-1.27-.67-2.3-.65-.58,0-1.03.03-1.36.08-.33.05-.58.19-.76.42-.18.23-.32.6-.45,1.11-.12.51-.28,1.24-.46,2.19h-1.17l-.62-4.47c.76-.23,1.7-.47,2.82-.74m2.14,9.42c-.86.24-1.49.52-1.87.85-.38.33-.57.79-.57,1.39,0,.72.23,1.29.69,1.71.46.42,1.04.63,1.74.63.74,0,1.41-.22,2.02-.66.61-.44,1.08-.92,1.43-1.43v-3.27c-1.44.29-2.59.55-3.45.79m-25.01-9.27c-.21-.51-.4-.99-.57-1.42-.18-.43-.36-.82-.55-1.17-.2-.35-.43-.66-.71-.92-.28-.27-.62-.49-1.02-.66-.4-.18-.9-.3-1.49-.39v-1.23h9.16v1.23c-.57.08-1.03.21-1.37.39-.34.17-.58.39-.71.65-.13.26-.2.56-.18.9,0,.34.07.71.17,1.12.1.41.24.85.4,1.33l4.69,11.9h-.22l4.23-11.97c.18-.58.31-1.08.39-1.53.07-.44.08-.83.02-1.16-.06-.33-.19-.6-.39-.82-.19-.22-.46-.39-.79-.52-.33-.13-.74-.23-1.23-.29v-1.23h8.17v1.23c-.78.17-1.39.4-1.83.69-.44.3-.81.74-1.11,1.31-.3.58-.64,1.35-1.03,2.31l-5.86,16.19h-2.04l-6.11-15.94Zm-40,14.56c.62-.14,1.1-.28,1.43-.4.34-.12.58-.3.72-.54.14-.24.23-.6.26-1.08.03-.48.05-1.16.05-2.02v-3.95c0-1.07-.01-1.9-.05-2.5-.03-.6-.13-1.04-.29-1.34-.17-.3-.43-.52-.8-.66-.37-.14-.89-.31-1.57-.49v-1.17l5.49-.65v3.05h.12c.53-1.11,1.28-1.95,2.25-2.51.97-.57,1.95-.85,2.96-.85s1.76.2,2.37.6c.62.4,1.09.86,1.42,1.39.33.52.54.97.65,1.34.33-.58.76-1.12,1.28-1.62s1.11-.91,1.77-1.23c.66-.32,1.36-.48,2.1-.48,1.83,0,3.19.61,4.09,1.84.9,1.22,1.34,2.85,1.34,4.89v4.35c0,.86.01,1.54.05,2.02s.12.84.28,1.08c.15.24.4.42.74.54.34.12.83.26,1.46.4v1.23h-7.9v-1.23c.64-.14,1.14-.28,1.5-.4.36-.12.62-.3.77-.54.15-.24.25-.6.28-1.08.03-.48.05-1.16.05-2.02v-4.1c0-.64-.11-1.28-.32-1.93-.22-.65-.58-1.19-1.08-1.63-.5-.44-1.18-.66-2.02-.66s-1.6.22-2.34.66c-.74.44-1.33,1.01-1.76,1.71.04.39.07.74.09,1.05.02.31.03.48.03.52v4.38c0,.86.02,1.54.05,2.02.03.48.12.84.28,1.08.15.24.4.42.74.54.34.12.83.26,1.46.4v1.23h-7.89v-1.23c.64-.14,1.14-.28,1.5-.4.36-.12.62-.3.77-.54.15-.24.25-.6.28-1.08.03-.48.05-1.16.05-2.02v-4.1c0-.64-.09-1.28-.28-1.93-.19-.65-.52-1.19-1-1.63-.48-.44-1.18-.66-2.08-.66-.64,0-1.31.19-2,.57-.7.38-1.38,1.04-2.03,1.99v5.77c0,.86.01,1.54.05,2.02s.12.84.26,1.08c.14.24.39.42.74.54.35.12.83.26,1.45.4v1.23h-7.74v-1.23Zm-13.03-14.71c1.12-.27,2.21-.4,3.25-.4,1.48,0,2.58.25,3.3.74.72.49,1.2,1.21,1.43,2.16.24.95.36,2.12.36,3.52v3.48c0,1.11.01,1.97.05,2.57.03.61.12,1.05.26,1.33.14.28.38.46.71.56.33.09.79.18,1.39.26v1.17l-5.03.86c-.02-.51-.03-.93-.03-1.26s-.01-.75-.03-1.27h-.15c-.27.37-.6.75-.99,1.14-.39.39-.87.72-1.45.99-.57.27-1.24.4-2,.4-.93,0-1.72-.19-2.39-.57-.67-.38-1.19-.89-1.56-1.54-.37-.65-.55-1.38-.55-2.2,0-1.15.32-2.03.96-2.62.64-.6,1.62-1.05,2.95-1.36,1.33-.31,3.02-.6,5.07-.86,0-1.19-.08-2.22-.25-3.07-.17-.85-.5-1.51-1-1.96-.5-.45-1.27-.67-2.3-.65-.58,0-1.03.03-1.36.08-.33.05-.58.19-.76.42-.17.23-.32.6-.45,1.11-.12.51-.28,1.24-.46,2.19h-1.17l-.62-4.47c.76-.23,1.7-.47,2.82-.74m2.14,9.42c-.86.24-1.49.52-1.87.85-.38.33-.57.79-.57,1.39,0,.72.23,1.29.69,1.71.46.42,1.04.63,1.74.63.74,0,1.41-.22,2.02-.66.61-.44,1.08-.92,1.43-1.43v-3.27c-1.44.29-2.59.55-3.45.79m-11.29-9.11c-.15-1.21-.47-2.15-.97-2.82-.5-.67-1.09-1.14-1.76-1.42-.67-.28-1.33-.42-1.99-.42s-1.25.12-1.83.37-1.07.63-1.45,1.16c-.38.52-.57,1.19-.57,1.99,0,.7.21,1.29.63,1.77.42.48,1,.93,1.73,1.36.73.42,1.56.89,2.48,1.4.8.43,1.56.86,2.28,1.3.72.43,1.36.9,1.91,1.4.56.5,1,1.08,1.33,1.74.33.66.49,1.44.49,2.34,0,1.07-.3,2.05-.89,2.94-.6.9-1.44,1.61-2.53,2.16-1.09.54-2.38.82-3.86.82-.95,0-1.84-.08-2.68-.25-.84-.16-1.64-.39-2.38-.66-.74-.28-1.42-.58-2.04-.91l.31-5.55h1.39c.14,1.44.5,2.57,1.06,3.39.57.82,1.24,1.4,2.04,1.73.79.33,1.57.49,2.33.49,1.13,0,2.1-.28,2.91-.83.81-.56,1.22-1.38,1.22-2.47,0-.76-.19-1.41-.57-1.94-.38-.53-.93-1.02-1.65-1.47-.72-.44-1.57-.92-2.56-1.43s-1.95-1.06-2.88-1.63c-.94-.58-1.7-1.27-2.3-2.08-.6-.81-.89-1.82-.89-3.04s.33-2.26,1-3.13c.67-.87,1.56-1.55,2.68-2.02,1.12-.47,2.37-.71,3.75-.71.88,0,1.83.12,2.84.35,1.01.24,2.04.59,3.11,1.06l-.31,5h-1.39Zm-29.25,19.46c-.55,1.15-1.22,2.09-2.03,2.82-.81.73-1.83,1.09-3.04,1.09-.41,0-.88,0-1.42-.02-.53-.01-1.05-.05-1.54-.11l.31-2.96c.41.08.84.15,1.28.22.44.06.88.09,1.33.09s.87-.06,1.28-.18c.58-.16,1.06-.47,1.47-.93.4-.45.75-1.03,1.05-1.73s.6-1.51.89-2.42c.3-.91.62-1.93.97-3.04l.92,3.48c-.43,1.3-.92,2.52-1.46,3.67m-1.47-19.86v1.17c-.6.08-1.02.21-1.26.39-.25.17-.38.4-.39.66,0,.27.05.57.17.91.12.34.26.71.4,1.12l3.27,8.33h.15l2.81-7.99c.1-.31.2-.62.29-.93.09-.31.15-.6.18-.86.03-.27.01-.51-.06-.74-.07-.23-.23-.42-.46-.57-.24-.15-.58-.26-1.03-.32v-1.17h6.08v1.17c-.41.1-.76.25-1.05.43-.29.18-.54.4-.76.65-.22.25-.41.52-.57.82-.17.3-.31.61-.45.94-.13.33-.26.66-.39.99l-4.01,11.19-2.13.4-4.87-12.06c-.14-.41-.3-.8-.48-1.17-.17-.37-.37-.7-.59-1-.22-.3-.47-.55-.76-.76-.29-.2-.64-.35-1.05-.43v-1.17h6.94Zm-17.27-5.55c1.46,0,2.76.19,3.89.56,1.13.37,2.01.94,2.64,1.71.63.77.94,1.75.94,2.94,0,1.26-.38,2.31-1.12,3.18-.75.86-1.92,1.53-3.5,2v.12c1.05.16,2,.47,2.85.93.85.45,1.53,1.05,2.03,1.8.5.75.76,1.66.76,2.73s-.27,2.02-.8,2.87c-.53.84-1.37,1.51-2.51,2-1.14.49-2.62.74-4.43.74h-3.55v-1.85h3.76c1.32,0,2.36-.3,3.15-.91.78-.61,1.17-1.58,1.17-2.91,0-1.03-.26-1.87-.79-2.53-.52-.66-1.23-1.14-2.13-1.45-.89-.31-1.9-.46-3.01-.46l.62-1.85c1.4,0,2.48-.32,3.24-.97.76-.65,1.14-1.58,1.14-2.79,0-1.4-.42-2.42-1.25-3.05-.83-.64-1.93-.96-3.28-.96h-2.07v-1.85h2.25Zm-8.14,20.35c.74-.25,1.31-.46,1.71-.65.4-.18.69-.4.88-.65.19-.25.29-.59.32-1.03.03-.44.05-1.05.05-1.84v-10.64c0-.78-.01-1.4-.05-1.85-.03-.45-.14-.8-.32-1.05-.18-.25-.48-.47-.88-.68-.4-.2-.97-.45-1.71-.74v-1.23h5.89v21.59h-5.89v-1.23Z"/><path class="cls-4" d="m491.69,926.12h31.62v13.27h-31.62v-13.27Zm39.52,8.72c.73,2.18,1.35,4.06,1.86,5.63.51,1.58,1.03,3.17,1.55,4.77.51,1.61,1.14,3.5,1.86,5.68h-17.9c-.79-2.73-1.49-5.09-2.09-7.09-.61-2-1.2-4.01-1.77-6.04-.58-2.03-1.26-4.41-2.04-7.13l-9.63-40.71h4.91l-11.45,44.07c-.85,3.03-1.62,5.82-2.32,8.36-.7,2.54-1.44,5.39-2.23,8.54h-17.26c.73-2.24,1.38-4.23,1.95-5.95.58-1.73,1.17-3.57,1.77-5.54.6-1.97,1.2-3.82,1.77-5.54.58-1.73,1.23-3.71,1.95-5.95l8.81-27.71c.67-1.94,1.23-3.6,1.68-5,.45-1.39.91-2.8,1.36-4.23.45-1.42,1.01-3.1,1.68-5.04h20.08l15.45,48.88Zm-114.4,16.08h24.35c-2.97-1.15-5.06-2.83-6.27-5.04-1.21-2.21-1.82-5.38-1.82-9.5v-49.07h-16.27c2.97,1.15,5.06,2.83,6.27,5.04,1.21,2.21,1.82,5.38,1.82,9.49v34.53c0,4.12-.61,7.28-1.82,9.5-1.21,2.21-3.3,3.89-6.27,5.04m17.99-32.26l21.81,32.26h11.99l-26.9-31.35-6.91-.91Zm5.63-31.35h-7.82v3.09h2.27c6.36,0,10.93,1.24,13.72,3.72,2.79,2.49,4.18,5.94,4.18,10.36,0,2-.5,4.22-1.5,6.68-1,2.45-2.85,4.48-5.54,6.09-2.7,1.61-6.35,2.08-10.95,1.41,5.82,2.18,10.78,2.7,14.9,1.54,4.12-1.15,7.19-3.24,9.22-6.27,2.03-3.03,3.04-6.21,3.04-9.54,0-5.63-1.89-9.89-5.68-12.77-3.79-2.88-9.07-4.32-15.86-4.32m-63.79,0c7.09,0,13.25,1.2,18.49,3.59,5.24,2.39,9.3,5.91,12.18,10.54,2.88,4.63,4.32,10.31,4.32,17.04s-1.36,12.25-4.09,17.13c-2.73,4.88-6.69,8.65-11.9,11.31-5.21,2.67-11.54,4-18.99,4h-10.36v-5.45h10.45c4.54,0,8.71-.97,12.49-2.91,3.79-1.94,6.82-4.94,9.09-9,2.27-4.06,3.41-9.27,3.41-15.63,0-5.88-1.14-10.68-3.41-14.4-2.27-3.73-5.3-6.45-9.09-8.18-3.79-1.73-7.95-2.59-12.49-2.59h-11.9v-5.45h11.81Zm-25.99,59.97c2.18-.73,3.86-1.36,5.04-1.91,1.18-.55,2.04-1.18,2.59-1.91s.86-1.74.95-3.04c.09-1.3.14-3.1.14-5.41v-31.8c0-2.3-.04-4.1-.14-5.41-.09-1.3-.41-2.32-.95-3.04s-1.41-1.36-2.59-1.91c-1.18-.55-2.86-1.18-5.04-1.91v-3.63h17.63-.27v63.6h.27-17.63v-3.63Zm-5.54-58.7c-1.76.91-3.14,1.85-4.14,2.82-1,.97-1.74,2-2.23,3.09-.49,1.09-.77,2.38-.86,3.86-.09,1.49-.14,3.2-.14,5.13v21.35c0,4.3-.56,8.09-1.68,11.36-1.12,3.27-2.79,6.07-5,8.4-2.21,2.33-4.92,4.12-8.13,5.36-3.21,1.24-6.94,1.86-11.18,1.86-3.64,0-7.04-.46-10.22-1.36-3.18-.91-5.98-2.38-8.4-4.41-2.42-2.03-4.32-4.71-5.68-8.04-1.36-3.33-2.05-7.45-2.05-12.36v-22.17c0-1.94-.06-3.65-.18-5.13-.12-1.48-.41-2.77-.86-3.86-.45-1.09-1.15-2.12-2.09-3.09-.94-.97-2.29-1.91-4.04-2.82v-1.27h24.08v1.27c-1.76.91-3.12,1.85-4.09,2.82s-1.68,2-2.14,3.09c-.46,1.09-.73,2.38-.82,3.86-.09,1.49-.14,3.2-.14,5.13v19.81c0,7.21,1.53,12.46,4.59,15.76,3.06,3.3,7.28,4.95,12.68,4.95,3.88,0,7.1-.82,9.68-2.45,2.57-1.63,4.48-4.06,5.72-7.27,1.24-3.21,1.86-7.21,1.86-11.99v-18.81c0-1.94-.06-3.65-.18-5.13-.12-1.48-.41-2.77-.86-3.86-.45-1.09-1.18-2.12-2.18-3.09-1-.97-2.38-1.91-4.13-2.82v-1.27h22.81v1.27Zm-88.41,53.79c3.21,0,5.91-.12,8.09-.36,2.18-.24,4.06-.97,5.63-2.18,1.57-1.21,3.12-3.24,4.63-6.09l-.73,17.17h-33.71v-8.54h16.08Zm-25.62,8.54c1.45-1.21,2.6-2.33,3.45-3.36.85-1.03,1.47-2.14,1.86-3.32.39-1.18.65-2.54.77-4.09.12-1.54.18-3.41.18-5.59v-30.89c0-1.82-.06-3.5-.18-5.04-.12-1.54-.38-2.98-.77-4.32-.4-1.33-1.01-2.57-1.86-3.72-.85-1.15-2-2.24-3.45-3.27h22.9c-1.45,1.03-2.61,2.12-3.45,3.27-.85,1.15-1.47,2.39-1.86,3.72-.39,1.33-.65,2.77-.77,4.32-.12,1.54-.18,3.23-.18,5.04v46.89l-1.45.36h-15.17Zm-50.97-20.63h32.71v-3.09h-32.71v3.09Zm34.98.73l-17.63-45.52h-1l-18.17,46.25c-2.24,5.69-4.44,9.98-6.59,12.86-2.15,2.88-4.86,5.13-8.13,6.77h22.62c-4.06-1.33-6.39-3.59-7-6.77-.61-3.18.18-7.46,2.36-12.86l12.99-32.98h-1.09l12.72,32.89c1.51,4,2.53,7.16,3.04,9.5.51,2.33.3,4.39-.64,6.18-.94,1.79-2.98,3.13-6.13,4.04h27.35c-2.54-1.03-4.66-2.45-6.36-4.27-1.7-1.82-3.09-3.82-4.18-6-1.09-2.18-2.3-5.09-3.63-8.72l-.54-1.36Z"/></g></svg>