<?xml version="1.0" encoding="UTF-8"?><svg id="Layer_1" xmlns="http://www.w3.org/2000/svg" xmlns:xlink="http://www.w3.org/1999/xlink" viewBox="0 0 1935.95 1200"><defs><style>.cls-1{fill:none;}.cls-2{fill:url(#linear-gradient);}.cls-3{fill:#fff;}.cls-4{clip-path:url(#clippath-1);}</style><linearGradient id="linear-gradient" x1="967.98" y1="1296.35" x2="967.98" y2="-65.66" gradientUnits="userSpaceOnUse"><stop offset="0" stop-color="#fff"/><stop offset=".08" stop-color="#dad9d9"/><stop offset=".21" stop-color="#a9a8a8"/><stop offset=".33" stop-color="#807e7e"/><stop offset=".46" stop-color="#5e5b5c"/><stop offset=".59" stop-color="#444141"/><stop offset=".72" stop-color="#312e2f"/><stop offset=".86" stop-color="#262223"/><stop offset="1" stop-color="#231f20"/></linearGradient><clipPath id="clippath-1"><rect class="cls-1" x="-6.82" y="11.54" width="1935.95" height="1173.31"/></clipPath></defs><rect class="cls-2" width="1935.95" height="1200"/><g class="cls-4"><path class="cls-3" d="m1637.86,642.74h151.98v63.76h-151.98v-63.76Zm189.98,41.93c3.49,10.48,6.48,19.51,8.95,27.08,2.47,7.57,4.95,15.22,7.42,22.93,2.47,7.72,5.46,16.81,8.95,27.3h-86.04c-3.79-13.1-7.14-24.46-10.05-34.06-2.91-9.61-5.75-19.28-8.52-29.04-2.77-9.75-6.05-21.18-9.83-34.28l-46.29-195.65h23.58l-55.03,211.81c-4.08,14.56-7.79,27.95-11.14,40.18-3.35,12.23-6.92,25.92-10.7,41.05h-82.98c3.49-10.77,6.62-20.31,9.39-28.61,2.76-8.3,5.6-17.18,8.52-26.64,2.91-9.46,5.75-18.34,8.52-26.64,2.76-8.3,5.9-17.83,9.39-28.61l42.36-133.2c3.2-9.32,5.9-17.32,8.08-24.02,2.18-6.69,4.37-13.46,6.55-20.31,2.18-6.84,4.87-14.92,8.08-24.24h96.52l74.24,234.96Zm-549.84,77.3h117.04c-14.27-5.53-24.31-13.61-30.13-24.24-5.83-10.63-8.73-25.84-8.73-45.64v-235.83h-78.18c14.26,5.53,24.31,13.61,30.14,24.24,5.82,10.63,8.73,25.84,8.73,45.64v165.96c0,19.8-2.91,35.01-8.73,45.64-5.83,10.63-15.87,18.71-30.14,24.24m86.47-155.04l104.82,155.04h57.65l-129.27-150.67-33.19-4.37Zm27.08-150.67h-37.56v14.85h10.92c30.57,0,52.55,5.97,65.95,17.91,13.39,11.94,20.09,28.54,20.09,49.79,0,9.61-2.4,20.31-7.21,32.1-4.8,11.79-13.69,21.55-26.64,29.26-12.96,7.72-30.5,9.98-52.63,6.77,27.95,10.48,51.82,12.96,71.62,7.43,19.8-5.53,34.57-15.57,44.33-30.13,9.75-14.56,14.63-29.84,14.63-45.86,0-27.08-9.1-47.53-27.3-61.36-18.2-13.83-43.6-20.75-76.21-20.75m-306.58,0c34.06,0,63.69,5.75,88.87,17.25,25.18,11.51,44.69,28.39,58.52,50.66,13.83,22.27,20.75,49.57,20.75,81.89s-6.55,58.89-19.65,82.32c-13.1,23.44-32.17,41.56-57.21,54.37-25.04,12.82-55.47,19.22-91.28,19.22h-49.79v-26.2h50.22c21.84,0,41.85-4.65,60.05-13.98,18.19-9.32,32.75-23.73,43.67-43.24,10.92-19.5,16.38-44.55,16.38-75.12,0-28.24-5.46-51.32-16.38-69.22-10.92-17.91-25.48-31.01-43.67-39.31-18.2-8.3-38.21-12.45-60.05-12.45h-57.21v-26.2h56.77Zm-124.9,288.24c10.48-3.49,18.56-6.55,24.24-9.17,5.68-2.62,9.83-5.68,12.45-9.17,2.62-3.49,4.15-8.37,4.59-14.63.44-6.26.66-14.92.66-25.99v-152.86c0-11.06-.22-19.72-.66-25.99-.44-6.26-1.97-11.14-4.59-14.63-2.62-3.49-6.77-6.55-12.45-9.17-5.68-2.62-13.76-5.68-24.24-9.17v-17.47h84.73-1.31v305.71h1.31-84.73v-17.47Zm-26.64-282.13c-8.45,4.37-15.07,8.88-19.87,13.54-4.8,4.66-8.37,9.61-10.7,14.85-2.33,5.24-3.71,11.43-4.15,18.56-.44,7.14-.66,15.36-.66,24.68v102.63c0,20.68-2.69,38.87-8.08,54.59-5.39,15.72-13.4,29.19-24.02,40.4-10.63,11.21-23.66,19.8-39.09,25.77-15.44,5.96-33.34,8.95-53.72,8.95-17.47,0-33.85-2.18-49.13-6.55-15.29-4.37-28.76-11.42-40.4-21.18-11.65-9.75-20.75-22.64-27.3-38.65-6.55-16.01-9.83-35.81-9.83-59.39v-106.56c0-9.32-.29-17.54-.87-24.68-.59-7.13-1.97-13.32-4.15-18.56-2.18-5.24-5.53-10.19-10.05-14.85-4.52-4.65-10.99-9.17-19.43-13.54v-6.11h115.73v6.11c-8.45,4.37-15,8.88-19.65,13.54-4.66,4.66-8.08,9.61-10.26,14.85-2.18,5.24-3.49,11.43-3.93,18.56-.44,7.14-.66,15.36-.66,24.68v95.21c0,34.65,7.35,59.91,22.05,75.77,14.7,15.87,35.01,23.8,60.92,23.8,18.63,0,34.13-3.93,46.51-11.79,12.37-7.86,21.54-19.5,27.51-34.94,5.96-15.43,8.95-34.64,8.95-57.65v-90.4c0-9.32-.29-17.54-.87-24.68-.59-7.13-1.97-13.32-4.15-18.56-2.18-5.24-5.68-10.19-10.48-14.85-4.8-4.65-11.43-9.17-19.87-13.54v-6.11h109.62v6.11Zm-424.93,258.54c15.43,0,28.39-.58,38.87-1.75,10.48-1.16,19.5-4.65,27.08-10.48,7.57-5.82,14.99-15.57,22.27-29.26l-3.49,82.54h-162.03v-41.05h77.3Zm-123.16,41.05c6.99-5.82,12.51-11.21,16.6-16.16,4.07-4.95,7.06-10.26,8.95-15.94,1.89-5.68,3.12-12.23,3.71-19.65.58-7.42.87-16.38.87-26.86v-148.49c0-8.73-.29-16.81-.87-24.24-.59-7.42-1.82-14.34-3.71-20.74-1.9-6.4-4.88-12.37-8.95-17.91-4.08-5.53-9.61-10.77-16.6-15.72h110.06c-6.99,4.95-12.52,10.2-16.6,15.72-4.08,5.53-7.06,11.51-8.95,17.91-1.9,6.41-3.13,13.32-3.71,20.74-.59,7.43-.87,15.5-.87,24.24v225.35l-6.99,1.75h-72.93Zm-245-99.14h157.22v-14.85h-157.22v14.85Zm168.14,3.49l-84.73-218.8h-4.8l-87.35,222.3c-10.77,27.37-21.33,47.97-31.66,61.8-10.34,13.83-23.37,24.67-39.09,32.54h108.75c-19.51-6.4-30.72-17.25-33.63-32.54-2.91-15.29.87-35.88,11.35-61.8l62.45-158.53h-5.24l61.14,158.1c7.27,19.22,12.15,34.43,14.63,45.64,2.47,11.21,1.45,21.11-3.06,29.7-4.52,8.59-14.34,15.07-29.48,19.43h131.46c-12.23-4.95-22.42-11.79-30.57-20.53-8.15-8.73-14.85-18.34-20.09-28.82-5.24-10.48-11.07-24.46-17.47-41.93l-2.62-6.55Z"/></g></svg>